<?xml version="1.0" encoding="UTF-8" standalone="no"?>
<!-- Created with Inkscape (http://www.inkscape.org/) -->

<svg
   width="210mm"
   height="297mm"
   viewBox="0 0 210 297"
   version="1.1"
   id="svg1"
   inkscape:version="1.4 (e7c3feb100, 2024-10-09)"
   sodipodi:docname="stamp1_20years.svg"
   xmlns:inkscape="http://www.inkscape.org/namespaces/inkscape"
   xmlns:sodipodi="http://sodipodi.sourceforge.net/DTD/sodipodi-0.dtd"
   xmlns="http://www.w3.org/2000/svg"
   xmlns:svg="http://www.w3.org/2000/svg">
  <sodipodi:namedview
     id="namedview1"
     pagecolor="#ffffff"
     bordercolor="#000000"
     borderopacity="0.25"
     inkscape:showpageshadow="2"
     inkscape:pageopacity="0.0"
     inkscape:pagecheckerboard="0"
     inkscape:deskcolor="#d1d1d1"
     inkscape:document-units="mm"
     inkscape:zoom="0.49175084"
     inkscape:cx="397.55906"
     inkscape:cy="561.25984"
     inkscape:window-width="1280"
     inkscape:window-height="648"
     inkscape:window-x="0"
     inkscape:window-y="0"
     inkscape:window-maximized="1"
     inkscape:current-layer="layer1" />
  <defs
     id="defs1" />
  <g
     inkscape:label="Layer 1"
     inkscape:groupmode="layer"
     id="layer1">
    <g
       id="g2"
       transform="matrix(1.7074673,0,0,1.707467,-2519.772,1910.5129)">
      <path
         style="font-size:23.1823px;font-family:'Open Sans';-inkscape-font-specification:'Open Sans';letter-spacing:1.73867px;stroke-width:0"
         d="m 780.91238,-526.45868 -6.80311,-8.4446 1.22526,-0.98709 6.27612,0.62735 q 1.74368,0.17966 3.02726,0.22124 1.29068,0.0504 2.29926,-0.19524 1.0174,-0.25274 1.89888,-0.96287 1.09304,-0.88057 1.1405,-1.99446 0.0634,-1.11217 -0.78878,-2.16995 -0.74565,-0.92556 -1.63819,-1.38391 -0.89255,-0.45835 -2.07794,-0.73892 l 0.35524,-1.57988 q 1.2613,0.24849 2.46556,0.87726 1.21137,0.63758 2.15585,1.80995 1.43448,1.7806 1.34688,3.56639 -0.0788,1.77869 -1.65663,3.04984 -1.02252,0.82376 -2.23067,1.12841 -1.19933,0.29756 -2.6526,0.26186 -1.44445,-0.0428 -3.19352,-0.24719 l -5.05253,-0.55198 -0.0617,0.0497 5.30473,6.58467 z m 16.68324,3.26536 q -2.5138,3.16401 -4.90064,4.13019 -2.38684,0.96619 -4.68229,-0.85755 -2.16252,-1.71811 -1.83002,-4.30201 0.3484,-2.58572 2.86924,-5.75859 1.6477,-2.07389 3.24722,-3.23188 1.61542,-1.15982 3.1886,-1.21107 1.58023,-0.0601 3.12235,1.16509 2.19796,1.74628 1.83366,4.33382 -0.35545,2.59458 -2.84812,5.732 z m -7.06363,-5.61204 q -2.16172,2.72087 -2.5939,4.575 -0.43219,1.85412 1.07448,3.05117 1.50667,1.19705 3.20805,0.36575 1.71728,-0.83311 3.88605,-3.56284 2.12652,-2.67656 2.57461,-4.5325 0.45513,-1.86481 -1.07813,-3.08298 -1.53326,-1.21818 -3.2469,-0.35325 -1.70478,0.87196 -3.82426,3.53965 z m 20.07393,11.81321 6.90399,-6.36923 1.95442,0.68644 -8.55829,7.73177 -2.12683,6.05551 -1.81558,-0.63767 2.09682,-5.97007 -1.82462,-11.47446 1.98647,0.69769 z m 13.34046,-1.38912 q 1.57325,0.19038 2.61269,1.02309 1.03944,0.83272 1.48272,2.16339 0.44464,1.31944 0.24202,2.99382 l -0.14007,1.15747 -8.50679,-1.02943 q -0.22874,2.17292 0.679,3.43437 0.90774,1.26146 2.80688,1.49128 1.1687,0.14143 2.09353,0.0367 0.92484,-0.10472 1.94158,-0.40356 l -0.19854,1.64068 q -0.98303,0.30292 -1.92762,0.38244 -0.93336,0.0809 -2.18072,-0.0701 -2.66329,-0.32229 -4.07443,-2.13495 -1.40978,-1.8239 -1.04125,-4.86926 0.2407,-1.98904 1.07914,-3.35845 0.85103,-1.37928 2.15987,-2.01904 1.32008,-0.63839 2.97199,-0.43849 z m -0.20742,1.52558 q -1.49458,-0.18087 -2.50065,0.68937 -1.00608,0.87023 -1.38678,2.60288 l 6.51775,0.78873 q 0.18866,-1.65327 -0.4405,-2.767 -0.61657,-1.1236 -2.18982,-1.31398 z m 12.06915,-1.40666 q 2.20834,-0.21338 3.37451,0.67469 1.16616,0.88808 1.37628,3.06261 l 0.81105,8.39392 -1.3633,0.13173 -0.53691,-1.79042 -0.0901,0.009 q -0.67835,1.10042 -1.5409,1.70688 -0.85237,0.59411 -2.45229,0.7487 -1.69005,0.1633 -2.86896,-0.62119 -1.1789,-0.7845 -1.35635,-2.62102 -0.17854,-1.84779 1.19037,-2.98081 1.3689,-1.13303 4.35722,-1.51275 l 2.12075,-0.29589 -0.0729,-0.75489 q -0.15459,-1.59992 -0.90393,-2.17573 -0.74934,-0.57581 -1.99998,-0.45497 -0.96896,0.0936 -1.82057,0.46022 -0.85161,0.36659 -1.60329,0.82588 l -0.71179,-1.36412 q 0.79239,-0.50871 1.84463,-0.91743 1.05224,-0.40872 2.24654,-0.52412 z m 3.12617,6.22558 -1.87397,0.26067 q -2.30102,0.31331 -3.18322,1.06952 -0.8822,0.7562 -0.76462,1.97303 0.10233,1.0591 0.79354,1.50407 0.69121,0.44496 1.75031,0.34262 1.64498,-0.15894 2.60463,-1.17282 0.95965,-1.01387 0.78329,-2.83913 z m 9.75583,-9.0446 q 0.77082,-0.22746 1.48558,-0.28494 l 0.26536,1.73921 q -0.69945,0.0294 -1.37257,0.22798 -0.95539,0.28192 -1.59736,1.02604 -0.64517,0.73327 -0.85056,1.79705 -0.19774,1.04971 0.16747,2.28738 l 1.8837,6.38373 -1.81307,0.535 -3.51112,-11.89894 1.49823,-0.44209 0.84254,2.13539 0.076,-0.0224 q 0.2481,-1.15899 0.95183,-2.13378 0.70373,-0.97478 1.97397,-1.3496 z m 14.45069,3.49354 q 0.79536,1.58925 0.0264,3.01201 -0.76388,1.40758 -2.80864,2.43091 -1.1641,0.58258 -2.10558,0.82591 -0.94149,0.24334 -1.74639,0.22845 l -0.77509,-1.54876 q 0.84539,-0.005 1.92358,-0.2032 1.07818,-0.19782 2.06007,-0.68922 1.43741,-0.71936 1.85222,-1.50922 0.41481,-0.78986 0.0146,-1.58955 -0.34448,-0.68833 -1.17981,-0.83989 -0.83026,-0.16675 -2.72852,0.0364 -1.26551,0.12702 -2.24253,0.12231 -0.97195,-0.0199 -1.68586,-0.3841 -0.70378,-0.36929 -1.16478,-1.29044 -0.70417,-1.40704 0.0547,-2.7235 0.7639,-1.33165 2.61634,-2.25872 1.00214,-0.50153 1.974,-0.73475 0.97692,-0.2484 1.90329,-0.29431 l 0.1069,1.63 q -0.83525,0.0509 -1.71601,0.23856 -0.88075,0.18762 -1.69056,0.5929 -1.1641,0.58258 -1.59919,1.28133 -0.42498,0.69368 -0.0906,1.36177 0.25836,0.51626 0.70897,0.70846 0.46073,0.18713 1.24537,0.16153 0.78463,-0.0256 2.02483,-0.15261 1.23513,-0.13714 2.20203,-0.10206 0.96184,0.025 1.66056,0.40943 0.70379,0.36929 1.15972,1.28032 z"
         id="text4-1-8-1-1-8-3-3"
         transform="matrix(0.71687464,-0.56547294,0.56547294,0.71687464,1263.0671,-151.38711)"
         aria-label="                               20 Years" />
      <path
         d="m 1539.7423,-1109.4641 -3.9372,5.4086 -4.1739,-5.2277 -3.3502,5.7904 -4.6979,-4.763 -2.7265,6.1092 -5.1697,-4.2457 -2.0732,6.3603 -5.5852,-3.682 -1.3968,6.5423 -5.9397,-3.0779 -0.7054,6.6523 -6.2291,-2.4401 -0.01,6.69 -6.4497,-1.7761 0.693,6.6538 -6.6001,-1.0919 1.3849,6.5448 -6.6782,-0.3958 2.0619,6.364 -6.6833,0.3043 2.7156,6.1139 -6.6146,1.0009 3.3399,5.7966 -6.474,1.6867 3.9274,5.4162 -6.2617,2.3544 4.4716,4.9754 -5.981,2.9962 4.9671,4.4809 -5.6353,3.6044 5.4084,3.9372 -5.2275,4.1744 5.7903,3.3502 -4.763,4.6974 6.1092,2.7265 -4.2458,5.1702 6.3604,2.0727 -3.682,5.5857 6.5423,1.3968 -3.0779,5.93968 6.6523,0.7049 -2.4401,6.2291 6.6895,0.01 -1.7756,6.44965 6.6538,-0.6935 -1.0919,6.6001 6.5448,-1.3849 -0.3963,6.6781 6.3644,-2.0613 0.3039,6.6828 6.1144,-2.7156 1.0009,6.6146 5.7966,-3.3394 1.6867,6.4735 5.4157,-3.9274 2.3544,6.2622 4.9759,-4.4721 2.9957,5.9815 4.4808,-4.9676 3.605,5.6358 3.9372,-5.409 4.1739,5.2282 3.3502,-5.7904 4.6979,4.7625 2.7264,-6.1087 5.1703,4.2458 2.0727,-6.3609 5.5852,3.6825 1.3968,-6.5428 5.9397,3.0784 0.7054,-6.6528 6.2291,2.4407 0.01,-6.6901 6.4497,1.7761 -0.6935,-6.6538 6.6001,1.0919 -1.3849,-6.54475 6.6781,0.3958 -2.0613,-6.3644 6.6828,-0.3039 -2.7156,-6.1138 6.6145,-1.001 -3.3393,-5.79658 6.4735,-1.6872 -3.9274,-5.4157 6.2622,-2.3544 -4.4721,-4.9754 5.9815,-2.9962 -4.9676,-4.4808 5.6358,-3.605 -5.409,-3.9367 5.2281,-4.1744 -5.7908,-3.3502 4.763,-4.6979 -6.1092,-2.7264 4.2457,-5.1698 -6.3603,-2.0732 3.682,-5.5852 -6.5423,-1.3968 3.0784,-5.9397 -6.6528,-0.7054 2.4401,-6.2286 -6.6895,-0.01 1.7756,-6.4497 -6.6539,0.693 1.0925,-6.6001 -6.5453,1.3849 0.3963,-6.6781 -6.3645,2.0619 -0.3038,-6.6834 -6.1139,2.7156 -1.0009,-6.6145 -5.7971,3.3398 -1.6867,-6.4735 -5.4157,3.9269 -2.3544,-6.2616 -4.9754,4.472 -2.9962,-5.9815 -4.4808,4.9671 z m -3.1807,9.6073 c 26.5304,-0.2103 50.7435,15.0807 61.9559,39.1263 15.8174,33.9205 1.1421,74.24098 -32.7783,90.05853 -33.9208,15.8176 -74.2417,1.142 -90.0591,-32.77883 -15.8174,-33.9207 -1.1418,-74.2412 32.7788,-90.0586 8.8044,-4.1056 18.3885,-6.2703 28.1027,-6.3474 z"
         style="stroke-width:1.2941;stroke-dasharray:1.28839, 1.28839"
         id="path25-9"
         inkscape:export-filename="logonormalopensansbothtexts.png"
         inkscape:export-xdpi="160"
         inkscape:export-ydpi="160" />
      <path
         d="m 1536.5616,-1099.8568 c -9.7142,0.077 -19.2983,2.2418 -28.1027,6.3474 -33.9206,15.8174 -48.5962,56.1379 -32.7788,90.0586 15.8174,33.92083 56.1383,48.59643 90.0591,32.77883 33.9204,-15.81755 48.5957,-56.13803 32.7783,-90.05853 -11.2124,-24.0456 -35.4255,-39.3366 -61.9559,-39.1263 z m -0.7658,5.2131 0.9622,8.7395 c 0.1113,1.011 0.035,1.9148 -0.1953,2.7311 0.044,-5e-4 0.087,0 0.1312,0 1.2159,-0.01 2.4245,0.027 3.6256,0.1028 l 0.168,-0.9798 c 0.6405,0.4736 1.3017,0.8628 1.9782,1.1901 1.2972,0.1369 2.5823,0.3204 3.855,0.554 0.1701,-0.1455 0.2979,-0.3176 0.3369,-0.5457 0.063,-0.3677 -0.085,-0.7038 -0.4454,-1.0087 -0.3534,-0.3038 -0.9635,-0.7462 -1.8304,-1.3271 -0.6528,-0.4497 -1.2105,-0.9031 -1.6728,-1.3606 -0.4611,-0.4642 -0.7898,-0.9904 -0.9865,-1.5782 -0.1901,-0.5867 -0.2145,-1.2936 -0.073,-2.1208 0.1585,-0.9257 0.5176,-1.6615 1.0774,-2.2076 0.5675,-0.5516 1.2854,-0.9152 2.1534,-1.0909 0.4373,-0.087 0.8993,-0.1298 1.3854,-0.1277 0.4862,0 0.9967,0.049 1.5317,0.1406 0.9388,0.1607 1.7644,0.4105 2.4769,0.7488 0.719,0.3393 1.354,0.6946 1.9053,1.0661 l -1.7059,2.7993 c -0.5687,-0.388 -1.1375,-0.7149 -1.7068,-0.9814 -0.5682,-0.273 -1.1085,-0.4533 -1.6206,-0.541 -0.4989,-0.085 -0.8816,-0.06 -1.1482,0.077 -0.2602,0.1379 -0.4129,0.3379 -0.4579,0.6005 -0.038,0.2232 0.013,0.4384 0.153,0.6449 0.1469,0.2076 0.4061,0.4509 0.7772,0.7307 0.3787,0.2743 0.8944,0.6366 1.5472,1.0862 0.6485,0.4354 1.1875,0.8793 1.6169,1.3312 0.4306,0.4454 0.7298,0.9458 0.8982,1.5017 0.176,0.5505 0.1999,1.1998 0.072,1.9482 -0.066,0.3834 -0.1796,0.7484 -0.3369,1.0966 1.0203,0.2724 2.027,0.5804 3.0246,0.9142 l 4.4157,-10.2976 7.9706,3.4174 -1.2485,2.9109 -4.3429,-1.8624 -0.9059,2.112 4.022,1.7244 -1.248,2.911 -4.022,-1.7245 -0.9446,2.203 c 11.4339,4.8384 20.9644,13.7552 26.4123,25.4382 5.3551,11.484 6.0607,23.9373 2.9115,35.2573 l 1.1286,0.9994 c -0.4321,0.4657 -0.817,0.9546 -1.1555,1.4661 -0.3385,0.5115 -0.5638,0.9339 -0.6754,1.2671 -0.2101,0.6272 -0.1613,0.9922 0.1457,1.095 0.1372,0.046 0.2764,0.031 0.4181,-0.045 0.1439,-0.083 0.3384,-0.2606 0.5829,-0.5348 0.2444,-0.2742 0.5935,-0.6767 1.0475,-1.2077 0.478,-0.5592 0.9371,-0.9977 1.3777,-1.3151 0.4362,-0.3263 0.9007,-0.5196 1.3932,-0.5799 0.4947,-0.067 1.069,0.01 1.7224,0.2279 v 6e-4 c 0.7056,0.2363 1.2768,0.6018 1.7141,1.097 0.4372,0.4953 0.6933,1.1409 0.7684,1.9364 0.077,0.7888 -0.072,1.7448 -0.4486,2.8685 -0.2648,0.7906 -0.5447,1.4854 -0.8397,2.0841 -0.2928,0.5922 -0.6678,1.1678 -1.124,1.7271 l -3.0675,-1.0274 c 0.5543,-0.5918 1.0252,-1.2262 1.4118,-1.9032 0.3801,-0.6793 0.6403,-1.2283 0.7803,-1.6464 0.278,-0.8298 0.2276,-1.3076 -0.1514,-1.4346 -0.1633,-0.055 -0.3235,-0.032 -0.4806,0.068 -0.1614,0.091 -0.3755,0.2849 -0.6418,0.5809 -0.2641,0.2894 -0.6271,0.7018 -1.0898,1.2371 -0.6963,0.7986 -1.3726,1.3421 -2.0289,1.6309 -0.654,0.2823 -1.4353,0.2717 -2.3435,-0.033 -0.5328,-0.1785 -0.9648,-0.4381 -1.3007,-0.7752 -0.1808,0.3913 -0.3674,0.7796 -0.5581,1.1664 l 1.6671,1.1704 c -0.095,0.097 -0.2022,0.2301 -0.3225,0.3995 -0.1262,0.166 -0.2815,0.4105 -0.4656,0.7338 -0.167,0.2934 -0.3055,0.6347 -0.416,1.0237 -0.1105,0.389 -0.092,0.7882 0.056,1.1973 0.1511,0.4032 0.5347,0.7801 1.1514,1.1312 l 5.0028,2.8484 -1.9994,3.51198 -8.8392,-5.03278 c -0.5777,0.8141 -1.1757,1.6152 -1.8025,2.3968 0.8664,0.059 1.7056,0.43398 2.5151,1.15848 l 5.7216,5.1212 -1.8676,2.0872 -1.6722,-0.4563 -0.055,0.062 c 0.087,0.5221 0.1116,1.0017 0.072,1.4381 -0.04,0.4268 -0.1653,0.846 -0.3767,1.2578 -0.2063,0.4165 -0.5256,0.8657 -0.9576,1.3483 -0.6801,0.7598 -1.476,1.1848 -2.3884,1.2743 -0.9125,0.09 -1.846,-0.293 -2.8009,-1.1477 -0.9344,-0.8364 -1.338,-1.7806 -1.2108,-2.8319 0.1272,-1.0513 0.7116,-2.2152 1.7534,-3.4928 l 1.2568,-1.4971 -0.1235,-0.11 c -0.3902,-0.3493 -0.7546,-0.5002 -1.0935,-0.4522 -0.3343,0.043 -0.6464,0.2264 -0.9359,0.5498 -0.3079,0.344 -0.5908,0.784 -0.849,1.3204 -0.2588,0.5267 -0.484,1.088 -0.6754,1.6841 l -2.5368,-0.833 c -0.9164,0.7996 -1.8596,1.5746 -2.8407,2.313 0.071,0.01 0.1416,0.01 0.2119,0.017 1.3212,0.1697 2.4896,0.9923 3.5052,2.468 l 1.0191,1.4816 -5.9511,4.09585 c 0.3761,0.4856 0.8487,0.7709 1.4175,0.8562 0.5745,0.081 1.202,-0.1126 1.8831,-0.5813 0.6016,-0.4141 1.1116,-0.8522 1.5291,-1.31515 0.4231,-0.4668 0.8155,-1.0088 1.1772,-1.6257 l 1.6464,2.39255 c -0.2975,0.5644 -0.6825,1.0925 -1.155,1.5849 -0.4724,0.4924 -1.1288,1.0275 -1.9689,1.6056 -0.9706,0.6679 -1.958,1.0927 -2.9626,1.2738 -1.0045,0.1811 -1.978,0.061 -2.9207,-0.3612 -0.9371,-0.4258 -1.7982,-1.2094 -2.5833,-2.3502 -0.7969,-1.158 -1.2525,-2.2454 -1.3669,-3.26235 -0.094,-0.8098 0,-1.563 0.2791,-2.2644 -0.9584,0.5234 -1.9311,1.0296 -2.9347,1.4975 -0.2547,0.1188 -0.5128,0.2207 -0.7684,0.3349 l -0.8269,5.98665 2.0666,5.5279 -3.853,1.4407 -2.0232,-5.4116 -4.9232,-4.3491 c -2.585,0.5869 -5.1858,0.9618 -7.7824,1.1385 0.4165,1.1724 0.6432,2.5811 0.6495,4.2643 0.01,1.6192 -0.1645,3.0083 -0.5116,4.1672 -0.3401,1.152 -0.9084,2.0392 -1.7053,2.6624 -0.79,0.6162 -1.8607,0.9271 -3.2112,0.9322 -1.8948,0.01 -3.2823,-0.6699 -4.1625,-2.0309 -0.8733,-1.3678 -1.3143,-3.2647 -1.3234,-5.6901 -0.01,-1.6329 0.1606,-3.0285 0.5007,-4.1873 0.04,-0.1326 0.092,-0.2491 0.1375,-0.3747 -0.5009,-0.061 -1.0014,-0.1256 -1.4997,-0.2015 0.01,0.3153 -0.01,0.634 -0.082,0.9633 -0.193,0.8535 -0.5234,1.5806 -0.9912,2.1812 -0.4596,0.5955 -1.0782,1.1586 -1.8552,1.6893 -0.7754,0.5241 -1.7259,1.1039 -2.8515,1.7394 l -1.2976,0.724 -0.023,0.1008 5.5748,1.2604 -0.7431,3.2861 -10.6954,-2.4179 0.5922,-2.6211 4.4219,-2.8256 c 0.9223,-0.611 1.6412,-1.1054 2.1575,-1.4832 0.5231,-0.3762 0.9058,-0.7101 1.1483,-1.0014 0.2424,-0.2914 0.4042,-0.6148 0.4847,-0.971 0.099,-0.4369 0.029,-0.7847 -0.2093,-1.0434 -0.2382,-0.2587 -0.5486,-0.4312 -0.9317,-0.5178 -0.4637,-0.1048 -0.9648,-0.077 -1.5028,0.084 -0.5297,0.1558 -1.1519,0.425 -1.867,0.8072 l -1.3297,-2.52485 c -11.3203,-4.1663 -21.1714,-12.3204 -27.2774,-23.62488 -0.2628,1.5691 -1.2649,2.9877 -2.8158,3.7109 -2.5027,1.167 -5.4776,0.084 -6.6446,-2.4185 -1.167,-2.5027 -0.084,-5.4775 2.4185,-6.6445 0.6495,-0.3029 1.3566,-0.4626 2.0732,-0.4682 0.9104,-0.01 1.7787,0.2416 2.5358,0.679 -2.6262,-6.4704 -3.8282,-13.1976 -3.7404,-19.8158 -0.2617,0.1661 -0.5355,0.3186 -0.8361,0.4418 -0.9301,0.3713 -2.0202,0.4818 -3.2701,0.3318 -1.8582,-0.2232 -3.2262,-0.8971 -4.1041,-2.0221 -0.8845,-1.1259 -1.2217,-2.5652 -1.0113,-4.3176 0.1294,-1.0779 0.4696,-2.0098 1.0201,-2.7957 0.5505,-0.7859 1.284,-1.3655 2.2009,-1.7384 0.6882,-0.2847 1.468,-0.4205 2.3394,-0.4077 0.2904,0 0.5914,0.025 0.9022,0.062 1.5825,0.19 2.793,0.7195 3.6748,1.5493 0.2383,-1.2484 0.5177,-2.4868 0.8474,-3.712 l -8.7493,-3.5703 1.2005,-2.9414 1.5394,0.035 0.068,-0.1664 c -0.3013,-0.4251 -0.5148,-0.9152 -0.6408,-1.4702 -0.1235,-0.5611 -0.037,-1.2055 0.2599,-1.9332 0.4731,-1.1594 1.31,-1.8792 2.5105,-2.159 0.2986,-0.071 0.6147,-0.1099 0.9477,-0.1184 0.999,-0.025 2.1529,0.2292 3.4618,0.7633 1.1902,0.4857 2.1243,1.0608 2.8024,1.726 0.093,0.092 0.144,0.1904 0.2274,0.2837 0.5663,-1.137 1.1668,-2.2576 1.8175,-3.3517 -0.02,0 -0.039,0 -0.06,0 -0.9889,-0.1091 -2.0157,-0.5691 -3.0804,-1.3808 -1.0805,-0.8238 -1.8264,-1.6856 -2.2376,-2.5854 -0.4165,-0.9038 -0.5368,-1.8165 -0.3617,-2.7383 0.1698,-0.9259 0.5917,-1.8311 1.2661,-2.7156 1.0014,-1.3136 2.1328,-2.0889 3.3936,-2.3255 0.1581,-0.03 0.3166,-0.05 0.4764,-0.06 1.119,-0.07 2.2811,0.3541 3.4861,1.2728 l 1.3824,1.0537 -4.2339,5.5536 c 0.4916,0.3329 1.0113,0.4531 1.5596,0.3602 0.5466,-0.097 1.0597,-0.4616 1.54,-1.0852 0.013,-0.018 0.027,-0.035 0.041,-0.053 0.4146,-0.5488 0.7441,-1.0927 0.9829,-1.6314 0.2481,-0.5562 0.4456,-1.1719 0.5922,-1.8475 l 0.7798,0.5943 c 0.7889,-0.8979 1.6089,-1.7717 2.4649,-2.6169 l -5.3593,-7.0528 2.3466,-1.7828 1.3281,0.8728 0.1194,-0.091 c -0.041,-0.6379 0.076,-1.2494 0.3503,-1.8346 0.28,-0.5892 0.7382,-1.1256 1.3746,-1.6092 0.928,-0.7052 1.8856,-1.0192 2.8732,-0.9415 0.9876,0.078 1.9208,0.695 2.7993,1.851 l 2.836,3.7321 c 0.8158,-0.5126 1.6491,-1.0052 2.5017,-1.4759 l -0.5493,-1.3415 c 0.8849,0.069 1.7407,0.05 2.5673,-0.058 0.4052,-0.056 0.7823,-0.1296 1.1343,-0.2181 0.5828,-0.2715 1.1753,-0.518 1.7668,-0.7668 0.128,-0.1042 0.2496,-0.2094 0.3199,-0.324 0.1744,-0.2946 0.2007,-0.5899 0.08,-0.8858 -0.1414,-0.3451 -0.4452,-0.5517 -0.9121,-0.6196 -0.4607,-0.07 -1.2127,-0.1222 -2.2556,-0.1555 -0.7919,-0.035 -1.505,-0.1246 -2.1394,-0.2677 -0.637,-0.1493 -1.1951,-0.4212 -1.6733,-0.8155 -0.4721,-0.3968 -0.8668,-0.9835 -1.185,-1.7601 -0.356,-0.869 -0.4416,-1.6835 -0.2563,-2.4432 0.189,-0.7685 0.605,-1.4571 1.248,-2.066 0.6492,-0.6115 1.4764,-1.1227 2.481,-1.5343 0.8813,-0.3612 1.7136,-0.5874 2.497,-0.678 0.7896,-0.093 1.5164,-0.1283 2.1808,-0.1054 l 0.037,3.2783 c -0.6879,-0.028 -1.3438,0 -1.9678,0.072 -0.6265,0.07 -1.1801,0.2031 -1.6609,0.4 -0.4684,0.1919 -0.7796,0.4166 -0.9333,0.6739 -0.1475,0.2548 -0.1707,0.5053 -0.07,0.7519 0.086,0.2095 0.2434,0.3648 0.4718,0.4656 0.2346,0.098 0.583,0.1676 1.0459,0.2082 0.4666,0.032 1.0959,0.065 1.8878,0.1008 0.7806,0.026 1.4732,0.1166 2.0768,0.2723 0.6012,0.1496 1.1202,0.4157 1.5576,0.7979 0.4409,0.3736 0.8056,0.9113 1.0934,1.6139 0.1922,0.469 0.2723,0.9596 0.3008,1.4604 1.2059,-0.3864 2.4239,-0.7298 3.654,-1.0253 -0.4219,-0.7506 -0.7083,-1.6375 -0.8247,-2.6949 l -0.9721,-8.8284 3.943,-0.4341 0.9379,8.5204 c 0.1129,1.0262 0.3866,1.7503 0.8216,2.1714 0.1858,0.1799 0.4062,0.3043 0.6491,0.3923 0.7681,-0.1121 1.5381,-0.2098 2.3115,-0.2868 0.1962,-0.1332 0.366,-0.2884 0.4857,-0.4848 0.3065,-0.5028 0.4023,-1.2741 0.2879,-2.3135 l -0.9359,-8.5008 z m -33.0394,17.6702 c -0.1964,0.028 -0.3899,0.1144 -0.5808,0.2594 -0.5886,0.4474 -0.8003,0.989 -0.6351,1.6248 0.1612,0.6304 0.5825,1.3935 1.2635,2.2897 l 1.2966,1.7064 c 0.8215,-0.6943 1.6593,-1.3735 2.5311,-2.0195 l -1.988,-2.6159 c -0.4554,-0.5992 -0.8852,-0.9836 -1.2899,-1.1529 -0.2017,-0.089 -0.401,-0.1199 -0.5974,-0.092 z m -10.6603,10.1596 c -0.4503,0.01 -0.8371,0.2243 -1.1601,0.648 -0.2787,0.3655 -0.3962,0.7615 -0.353,1.1881 0.042,0.4173 0.2932,0.8352 0.7535,1.2531 l 2.035,-2.6696 c -0.4013,-0.2975 -0.8263,-0.4374 -1.2754,-0.4196 z m 95.9523,6.1955 c 1.9573,-0.015 3.7435,1.1127 4.5708,2.8866 1.1673,2.5029 0.084,5.4781 -2.4185,6.6451 -2.5027,1.167 -5.4775,0.084 -6.6445,-2.4184 -1.1674,-2.5029 -0.084,-5.4781 2.4184,-6.6451 0.6497,-0.3029 1.357,-0.4626 2.0738,-0.4682 z m -102.9219,6.9272 c -0.1475,-0.01 -0.2814,-4e-4 -0.4015,0.021 -0.478,0.078 -0.8101,0.3457 -0.9963,0.802 -0.2164,0.5304 -0.1779,0.9737 0.1152,1.3307 0.2957,0.3508 0.8158,0.6894 1.5606,1.0149 l 0.2868,0.1168 c 0.8326,0.3397 1.5079,0.5003 2.0263,0.4816 0.5147,-0.027 0.8867,-0.3214 1.1157,-0.8826 0.1862,-0.4564 0.1284,-0.8794 -0.1731,-1.2687 -0.2991,-0.3954 -0.9111,-0.7816 -1.8361,-1.1591 -0.6892,-0.2812 -1.255,-0.4335 -1.6976,-0.4563 z m -3.6303,14.4043 c -0.3696,0.019 -0.6843,0.077 -0.9441,0.1731 -0.5195,0.1926 -0.8158,0.5931 -0.8888,1.2015 -0.071,0.5886 0.1227,1.0446 0.5803,1.3679 0.4584,0.3166 1.1671,0.5324 2.126,0.6475 0.9589,0.1151 1.7083,0.074 2.2484,-0.1225 0.5402,-0.1968 0.8468,-0.5993 0.9199,-1.2077 0.072,-0.6017 -0.1315,-1.0553 -0.6114,-1.3611 -0.479,-0.3124 -1.1981,-0.5262 -2.1569,-0.6413 -0.4795,-0.058 -0.9037,-0.077 -1.2734,-0.057 z m 99.3816,33.5391 c -0.049,0.081 -0.1031,0.1596 -0.1525,0.2408 l 0.096,0.019 0.097,-0.1706 c -0.017,-0.028 -0.024,-0.061 -0.04,-0.089 z m -2.2893,11.44108 -0.5896,0.7209 c -0.4758,0.5729 -0.7274,1.0503 -0.755,1.4325 -0.028,0.3724 0.1168,0.701 0.4351,0.986 0.2978,0.2665 0.5897,0.3844 0.8759,0.3539 0.2811,-0.035 0.5387,-0.1836 0.7731,-0.4454 0.3263,-0.3645 0.4891,-0.7788 0.4878,-1.2423 0,-0.4686 -0.1796,-0.868 -0.5493,-1.1989 z m -11.9047,6.0735 c -0.3357,-0.018 -0.6738,0.09 -1.0144,0.3241 -0.3916,0.2695 -0.6353,0.6208 -0.7302,1.0542 -0.093,0.4237 0.02,0.9152 0.3375,1.4743 l 2.8603,-1.9689 c -0.2987,-0.4218 -0.6711,-0.696 -1.1183,-0.8232 -0.1114,-0.034 -0.223,-0.054 -0.3349,-0.061 z m -12.6411,4.33775 c -0.48,0.1694 -0.9627,0.3196 -1.4448,0.4738 l 1.3074,1.2961 z m -19.0143,2.8473 c -0.1772,0.1917 -0.3108,0.4674 -0.3959,0.8367 -0.1763,0.7586 -0.2614,1.8855 -0.2558,3.3807 0.01,1.4813 0.099,2.6006 0.2812,3.3579 0.1819,0.7503 0.5593,1.1246 1.1312,1.1224 0.565,0 0.9352,-0.376 1.1115,-1.1209 0.1832,-0.7517 0.2723,-1.8751 0.2667,-3.3703 -0.01,-1.4952 -0.1031,-2.6209 -0.292,-3.3781 -0.08,-0.3373 -0.2042,-0.5871 -0.3592,-0.7751 -0.497,-0.01 -0.992,-0.033 -1.4877,-0.053 z"
         style="fill:none;stroke-width:0.958757"
         id="path24-4" />
      <path
         d="m 1536.6939,-1083.1777 c -0.044,3e-4 -0.087,0 -0.1312,0 -0.1872,0.6644 -0.4701,1.2742 -0.8832,1.8097 -0.9214,1.187 -2.4312,1.896 -4.53,2.127 -1.9994,0.2201 -3.5818,-0.1247 -4.7475,-1.0351 -0.5077,-0.3965 -0.9073,-0.9016 -1.233,-1.481 -1.2301,0.2955 -2.4481,0.6389 -3.654,1.0253 0.016,0.2823 0.036,0.5638 5e-4,0.8562 -0.1021,0.8049 -0.4614,1.5711 -1.0774,2.2986 -0.6099,0.725 -1.5311,1.3398 -2.7637,1.8448 -0.6163,0.2526 -1.1703,0.447 -1.6614,0.5835 -0.485,0.1339 -0.9529,0.2216 -1.404,0.2625 -0.4537,0.035 -0.9379,0.038 -1.4527,0.012 l -0.7839,-1.9126 c -0.8526,0.4707 -1.6859,0.9633 -2.5017,1.4759 l 1.6191,2.1301 -3.1104,2.3637 -1.7477,-2.3001 c -0.8718,0.646 -1.7096,1.3252 -2.5311,2.0195 l 1.7017,2.2391 -3.1104,2.3637 -1.4894,-1.9601 c -0.856,0.8452 -1.676,1.719 -2.4649,2.6169 l 1.4526,1.1074 c -0.1034,0.608 -0.2977,1.2095 -0.5834,1.8041 -0.2858,0.5945 -0.7279,1.2836 -1.3255,2.0675 -0.6906,0.9058 -1.4696,1.5932 -2.3379,2.0619 -0.8506,0.4593 -1.7622,0.6396 -2.7326,0.5494 -0.6507,1.0941 -1.2512,2.2147 -1.8175,3.3517 0.5201,0.5813 0.8932,1.1881 1.0454,1.8329 0.173,0.7397 0.1098,1.4764 -0.1896,2.2102 -0.302,0.7401 -0.6658,1.2609 -1.0909,1.5622 -0.4313,0.2988 -0.835,0.5041 -1.2118,0.6165 l -0.045,0.1111 c 0.2531,0.067 0.5221,0.1482 0.8072,0.2429 0.2876,0.089 0.6165,0.2087 0.9865,0.3597 l 3.8297,1.5627 -1.4758,3.6168 -6.2824,-2.5637 c -0.3297,1.2252 -0.6091,2.4636 -0.8474,3.712 0.1647,0.155 0.3387,0.3016 0.479,0.479 0.8845,1.1259 1.2219,2.5614 1.0123,4.3072 -0.1294,1.078 -0.4698,2.0136 -1.0211,2.8061 -0.376,0.5297 -0.8428,0.959 -1.386,1.3038 -0.088,6.6182 1.1142,13.3454 3.7404,19.8158 0.8708,0.5031 1.593,1.2586 2.0355,2.2076 0.4438,0.9518 0.5587,1.9708 0.3974,2.9337 6.106,11.30448 15.9571,19.45858 27.2774,23.62488 l -0.279,-0.5302 c 0.5332,-0.2962 1.0887,-0.566 1.6665,-0.8098 0.5794,-0.2504 1.2343,-0.4133 1.9648,-0.4883 0.1826,-0.019 0.3726,-0.029 0.5705,-0.029 0.5936,-9e-4 1.2561,0.081 1.9869,0.2464 1.0014,0.2264 1.829,0.5976 2.4826,1.1126 0.6602,0.5166 1.1225,1.12605 1.3875,1.82885 0.153,0.3995 0.2124,0.8153 0.2201,1.2402 0.4983,0.076 0.9988,0.1404 1.4997,0.2015 0.3529,-0.9785 0.8724,-1.7566 1.5787,-2.3089 0.7969,-0.62305 1.867,-0.93695 3.2106,-0.94195 1.8879,-0.01 3.272,0.67275 4.1522,2.04065 0.2762,0.4292 0.4943,0.931 0.6848,1.4671 2.5966,-0.1767 5.1974,-0.5516 7.7824,-1.1385 l -3.0013,-2.65195 4.163,-1.5565 3.0743,3.04625 c 0.4821,-0.1542 0.9648,-0.3044 1.4448,-0.4738 l 0.3406,-4.38885 4.1434,-1.5493 -0.6051,4.3796 c 0.2556,-0.1142 0.5137,-0.2161 0.7684,-0.3349 1.0036,-0.4679 1.9763,-0.9741 2.9347,-1.4975 0.072,-0.1844 0.1494,-0.3673 0.247,-0.5442 0.4652,-0.8554 1.1719,-1.609 2.1198,-2.2614 1.2317,-0.8476 2.4282,-1.2579 3.5894,-1.2309 0.095,0 0.1892,0.014 0.2837,0.022 0.9811,-0.7384 1.9243,-1.5134 2.8407,-2.313 l -0.229,-0.075 c 0.1937,-0.7329 0.5089,-1.4774 0.9452,-2.2335 0.4363,-0.7561 1.008,-1.5296 1.7157,-2.3203 0.988,-1.1038 2.035,-1.7205 3.1403,-1.84998 0.1376,-0.017 0.2742,-0.025 0.4104,-0.026 0.081,-3e-4 0.161,0.019 0.2418,0.024 0.6268,-0.7816 1.2248,-1.5827 1.8025,-2.3968 l -1.3369,-0.7612 1.4883,-2.6138 1.8417,0.3592 c 0.049,-0.081 0.1036,-0.1595 0.1525,-0.2408 -0.3102,-0.5379 -0.505,-1.1391 -0.5654,-1.8139 -0.063,-0.7101 0.07,-1.3555 0.401,-1.9363 0.1091,-0.1916 0.2384,-0.3837 0.3876,-0.5762 0.1433,-0.1959 0.2528,-0.3399 0.3287,-0.4315 l 1.4681,1.031 c 0.1907,-0.3868 0.3773,-0.7751 0.5581,-1.1664 -0.3478,-0.349 -0.5925,-0.7813 -0.7291,-1.3002 -0.2687,-1.0201 -0.1719,-2.2196 0.2899,-3.5982 0.2451,-0.7317 0.5574,-1.3933 0.9374,-1.9854 0.3734,-0.5943 0.8298,-1.1864 1.3689,-1.7761 l 0.9896,0.8764 c 3.1492,-11.32 2.4436,-23.7733 -2.9115,-35.2573 -5.4479,-11.683 -14.9784,-20.5998 -26.4123,-25.4382 l -0.1421,0.3312 4.3434,1.8619 -1.2676,2.957 -7.9706,-3.4174 1.3405,-3.1269 c -0.9976,-0.3338 -2.0043,-0.6418 -3.0246,-0.9142 -0.1633,0.3613 -0.3733,0.7045 -0.6351,1.0278 -0.5131,0.6285 -1.2232,1.0883 -2.1312,1.3788 -0.9014,0.2916 -2.0088,0.3251 -3.3217,0.1002 -0.6565,-0.1124 -1.2289,-0.241 -1.7178,-0.3855 -0.4822,-0.1434 -0.9259,-0.3175 -1.3301,-0.5219 -0.4031,-0.2109 -0.8157,-0.4638 -1.2382,-0.7591 l 0.4258,-2.4867 c -1.2011,-0.076 -2.4097,-0.1125 -3.6256,-0.1028 z m -4.6586,0.2651 c -0.7734,0.077 -1.5434,0.1747 -2.3115,0.2868 0.3258,0.118 0.6969,0.1629 1.1255,0.1157 0.4922,-0.054 0.8798,-0.1947 1.186,-0.4025 z m 10.4304,0.048 c 0.077,0.037 0.1521,0.085 0.2299,0.1204 0.7595,0.3396 1.4609,0.5647 2.1043,0.6749 0.5777,0.099 1.0179,0.073 1.3208,-0.078 0.084,-0.043 0.1351,-0.1078 0.2,-0.1633 -1.2727,-0.2336 -2.5578,-0.4171 -3.855,-0.554 z m -25.1742,3.6975 c -0.5915,0.2488 -1.184,0.4953 -1.7668,0.7668 0.3638,-0.091 0.7007,-0.1992 1.0077,-0.325 0.3268,-0.1339 0.5649,-0.2839 0.7591,-0.4418 z m 19.4742,5.0953 c 16.4359,-0.1307 31.4363,9.3419 38.3827,24.2383 9.799,21.0141 0.7074,45.993 -20.3068,55.79188 -21.0139,9.7991 -45.9928,0.7077 -55.7919,-20.30618 -9.799,-21.0141 -0.7074,-45.9931 20.3068,-55.792 5.4542,-2.5433 11.3914,-3.8843 17.4092,-3.932 z m -40.383,11.1228 c -0.013,0.018 -0.027,0.035 -0.041,0.053 0.01,-0.01 0.011,-0.01 0.016,-0.015 0.01,-0.012 0.016,-0.025 0.025,-0.037 z m 39.3723,81.58613 c -0.296,0 -0.5366,0.1092 -0.7266,0.3147 0.4957,0.021 0.9907,0.047 1.4877,0.053 -0.196,-0.238 -0.4455,-0.3692 -0.7611,-0.368 z"
         style="fill:none;stroke-width:0.722784"
         id="path21-7" />
      <path
         d="m 1536.7657,-1074.0718 c -6.0178,0.048 -11.955,1.3887 -17.4092,3.932 -21.0142,9.7989 -30.1058,34.7779 -20.3068,55.792 9.7991,21.01388 34.778,30.10528 55.7919,20.30618 21.0142,-9.79888 30.1058,-34.77778 20.3068,-55.79188 -6.9464,-14.8964 -21.9468,-24.369 -38.3827,-24.2383 z m 0.2874,0.1142 c 12.6023,-0.022 24.5533,5.6157 32.5918,15.4827 1.1391,1.3983 2.6343,3.5514 3.5987,5.1816 0.9028,1.5261 2.7243,5.432 3.313,7.1045 2.7992,7.9522 3.1629,16.5848 1.0413,24.7122 -0.4653,1.7823 -1.7881,5.4214 -2.5751,7.0843 -4.4051,9.3088 -11.935,16.61668 -21.2984,20.67058 v 5e-4 c -6.1922,2.6809 -13.3133,3.8292 -20.1151,3.2437 -3.6712,-0.316 -7.0881,-1.0842 -10.8163,-2.4313 -2.8803,-1.0408 -2.7491,-0.8959 -1.8077,-1.9916 1.066,-1.2407 1.8985,-1.7908 4.6261,-3.0546 1.8252,-0.8467 3.1191,-1.3677 4.7459,-1.9152 8.8876,-2.99078 10.9158,-3.78488 14.6545,-5.73708 7.3282,-3.8265 13.4015,-8.0878 17.835,-12.5134 0.987,-0.9852 3.3843,-3.7317 4.6788,-5.3604 1.8869,-2.374 2.6437,-3.7916 2.682,-5.0225 0.032,-1.031 -0.1813,-3.0305 -0.4713,-4.4126 -0.2186,-1.0422 -0.2598,-1.1439 -0.5322,-1.3126 -0.3872,-0.2397 -0.5966,-0.068 -1.5849,1.3028 -2.316,3.2116 -6.328,7.0597 -9.6723,9.2769 -1.4812,0.982 -3.9336,2.1288 -5.4467,2.5466 -3.7888,1.0467 -10.1078,1.7597 -16.7654,1.8914 -2.3442,0.046 -8.1897,-3e-4 -8.3731,-0.067 -0.104,-0.038 -3.9075,-3.4271 -6.4415,-5.7407 -0.073,-0.067 0.2441,-0.07 0.7049,-0.01 10.7658,1.4848 19.461,1.6191 26.1389,0.4036 6.5476,-1.1918 11.1273,-3.8415 15.1857,-8.786 1.5615,-1.9025 4.1576,-5.8733 4.3702,-6.6844 0.083,-0.3152 -0.7695,-1.4176 -3.2091,-4.1496 -4.2451,-4.754 -8.9404,-9.1205 -11.5217,-10.7156 -1.1292,-0.6978 -3.1125,-1.4955 -4.4241,-1.7792 -1.009,-0.2183 -4.0381,-0.359 -6.1339,-0.2848 -8.0587,0.2852 -20.805,2.673 -34.3303,6.4306 -2.0676,0.5745 -3.83,1.1172 -3.916,1.2062 -0.1387,0.1436 -0.074,0.3379 0.5741,1.728 0.4018,0.8616 1.0072,2.2433 1.3457,3.0701 l 0.6155,1.5033 -1.7059,0.2129 c -1.4274,0.1779 -4.7726,0.6858 -7.5447,1.1457 l -0.6512,0.108 0.2925,-1.1597 c 0.446,-1.7685 2.0591,-6.1031 2.9032,-7.8 3.6496,-7.3371 9.1233,-13.2854 16.076,-17.4713 1.772,-1.0668 5.5272,-2.8468 7.383,-3.4995 3.7406,-1.3157 7.5411,-2.0896 11.4521,-2.3311 0.8449,-0.052 1.6878,-0.079 2.528,-0.08 z m 5.627,21.0612 c 4.0526,-0.054 7.71,1.728 10.1642,5.0147 0.9012,1.2068 1.8772,3.4355 2.1312,4.8674 0.6803,3.837 -0.3884,7.6455 -2.9425,10.4872 -1.4218,1.582 -3.8437,3.0894 -5.7262,3.5641 -4.9077,1.2372 -9.6419,-0.2795 -12.8923,-4.1299 -0.9075,-1.0751 -2.1317,-3.6859 -2.4091,-5.1362 -0.8507,-4.4588 0.6066,-8.7182 4.0318,-11.7837 0.7808,-0.6989 0.9864,-0.8215 2.8034,-1.6718 1.8317,-0.8574 2.0341,-0.9277 3.081,-1.0754 0.5927,-0.084 1.1796,-0.1287 1.7585,-0.1364 z m 0.4791,3.4856 c -4.8349,-0.107 -8.7687,3.6872 -8.8052,8.4925 -0.011,1.4376 0.196,2.3524 0.8408,3.7212 0.6729,1.4289 1.2399,2.1489 2.4835,3.1543 0.7132,0.5766 1.1654,0.8191 2.3327,1.2496 1.2318,0.4543 1.6382,0.5375 2.7198,0.5576 0.6993,0.013 1.622,-0.057 2.0505,-0.1556 1.173,-0.2695 2.6125,-0.9638 3.561,-1.7177 2.2474,-1.7864 3.5171,-4.8347 3.1926,-7.6647 -0.4871,-4.2471 -4.1012,-7.5426 -8.3757,-7.6372 z m 1.6298,3.5925 c 0.2182,0 0.4347,0.013 0.6522,0.047 2.5943,0.4056 2.396,3.2011 -0.3359,4.7377 -0.3653,0.2054 -0.9063,0.4306 -1.202,0.5008 -2.1462,0.5067 -3.809,-0.364 -3.6416,-1.9069 0.1227,-1.1319 1.0079,-2.1669 2.4127,-2.822 0.7867,-0.3669 1.46,-0.5466 2.1146,-0.5561 z"
         style="fill:none;fill-opacity:0.917664;stroke:#000000;stroke-width:0"
         id="path19-4" />
      <path
         d="m 1537.0531,-1073.9576 c -0.8402,0 -1.6831,0.028 -2.528,0.08 -3.911,0.2415 -7.7115,1.0154 -11.4521,2.3311 -1.8558,0.6527 -5.611,2.4327 -7.383,3.4995 -6.9527,4.1859 -12.4264,10.1342 -16.076,17.4713 -0.8441,1.6969 -2.4572,6.0315 -2.9032,7.8 l -0.2925,1.1597 0.6512,-0.108 c 2.7721,-0.4599 6.1173,-0.9678 7.5447,-1.1457 l 1.7059,-0.2129 -0.6155,-1.5033 c -0.3385,-0.8268 -0.9439,-2.2085 -1.3457,-3.0701 -0.6482,-1.3901 -0.7128,-1.5844 -0.5741,-1.728 0.086,-0.089 1.8484,-0.6317 3.916,-1.2062 13.5253,-3.7576 26.2716,-6.1454 34.3303,-6.4306 2.0958,-0.074 5.1249,0.066 6.1339,0.2848 1.3116,0.2837 3.2949,1.0814 4.4241,1.7792 2.5813,1.5951 7.2766,5.9616 11.5217,10.7156 2.4396,2.732 3.2918,3.8344 3.2091,4.1496 -0.2126,0.8111 -2.8087,4.7819 -4.3702,6.6844 -4.0584,4.9445 -8.6381,7.5942 -15.1857,8.786 -6.6779,1.2155 -15.3731,1.0812 -26.1389,-0.4036 -0.4608,-0.064 -0.778,-0.06 -0.7049,0.01 2.534,2.3136 6.3375,5.7031 6.4415,5.7407 0.1834,0.066 6.0289,0.1131 8.3731,0.067 6.6576,-0.1317 12.9766,-0.8447 16.7654,-1.8914 1.5131,-0.4178 3.9655,-1.5646 5.4467,-2.5466 3.3443,-2.2172 7.3563,-6.0653 9.6723,-9.2769 0.9883,-1.3706 1.1977,-1.5425 1.5849,-1.3028 0.2724,0.1687 0.3136,0.2704 0.5322,1.3126 0.29,1.3821 0.5035,3.3816 0.4713,4.4126 -0.038,1.2309 -0.7951,2.6485 -2.682,5.0225 -1.2945,1.6287 -3.6918,4.3752 -4.6788,5.3604 -4.4335,4.4256 -10.5068,8.6869 -17.835,12.5134 -3.7387,1.9522 -5.7669,2.7463 -14.6545,5.73708 -1.6268,0.5475 -2.9207,1.0685 -4.7459,1.9152 -2.7276,1.2638 -3.5601,1.8139 -4.6261,3.0546 -0.9414,1.0957 -1.0726,0.9508 1.8077,1.9916 3.7282,1.3471 7.1451,2.1153 10.8163,2.4313 6.8018,0.5855 13.9229,-0.5628 20.1151,-3.2437 v -5e-4 c 9.3634,-4.0539 16.8933,-11.36178 21.2984,-20.67058 0.787,-1.6629 2.1098,-5.302 2.5751,-7.0843 2.1216,-8.1274 1.7579,-16.76 -1.0413,-24.7122 -0.5887,-1.6725 -2.4102,-5.5784 -3.313,-7.1045 -0.9644,-1.6302 -2.4596,-3.7833 -3.5987,-5.1816 -8.0385,-9.867 -19.9895,-15.5046 -32.5918,-15.4827 z m 5.627,21.0612 c -0.5789,0.01 -1.1658,0.053 -1.7585,0.1364 -1.0469,0.1477 -1.2493,0.218 -3.081,1.0754 -1.817,0.8503 -2.0226,0.9729 -2.8034,1.6718 -3.4252,3.0655 -4.8825,7.3249 -4.0318,11.7837 0.2774,1.4503 1.5016,4.0611 2.4091,5.1362 3.2504,3.8504 7.9846,5.3671 12.8923,4.1299 l -6e-4,6e-4 c 1.8827,-0.4746 4.3048,-1.9825 5.7268,-3.5647 2.5541,-2.8417 3.6228,-6.6502 2.9425,-10.4872 -0.254,-1.4319 -1.23,-3.6606 -2.1312,-4.8674 -2.4542,-3.2867 -6.1116,-5.0686 -10.1642,-5.0147 z m 0.4791,3.4856 c 4.2745,0.095 7.8886,3.3901 8.3757,7.6372 0.3245,2.83 -0.9452,5.8783 -3.1926,7.6647 -0.9485,0.7539 -2.388,1.4482 -3.561,1.7177 -0.4285,0.099 -1.3512,0.1685 -2.0505,0.1556 -1.0816,-0.02 -1.488,-0.1033 -2.7198,-0.5576 -1.1673,-0.4305 -1.6195,-0.673 -2.3327,-1.2496 -1.2436,-1.0054 -1.8106,-1.7254 -2.4835,-3.1543 -0.6448,-1.3688 -0.8517,-2.2836 -0.8408,-3.7212 0.036,-4.8053 3.9703,-8.5995 8.8052,-8.4925 z m 1.6298,3.5925 c -0.6546,0.01 -1.3279,0.1892 -2.1146,0.5561 -1.4048,0.6551 -2.29,1.6901 -2.4127,2.822 -0.1674,1.5429 1.4954,2.4136 3.6416,1.9069 0.2957,-0.07 0.8367,-0.2954 1.202,-0.5008 2.7319,-1.5366 2.9302,-4.3321 0.3359,-4.7377 -0.2175,-0.034 -0.434,-0.05 -0.6522,-0.047 z"
         style="stroke-width:1.42032"
         id="path18-5" />
      <path
         d="m 1487.2075,-1013.5954 c -0.7166,0.01 -1.4237,0.1653 -2.0732,0.4682 -2.5027,1.167 -3.5855,4.1418 -2.4185,6.6445 1.167,2.5027 4.1419,3.5855 6.6446,2.4185 2.5026,-1.1671 3.5854,-4.1419 2.4184,-6.6446 -0.8273,-1.7741 -2.6138,-2.9022 -4.5713,-2.8866 z"
         style="stroke:#000000;stroke-width:0"
         id="path16-3" />
      <path
         d="m 1588.0484,-1060.6184 a 5,5 0 0 0 -2.0738,0.4682 5,5 0 0 0 -2.4184,6.6451 5,5 0 0 0 6.6445,2.4184 5,5 0 0 0 2.4185,-6.6451 5,5 0 0 0 -4.5708,-2.8866 z"
         style="stroke:#000000;stroke-width:0"
         id="path15-6" />
      <path
         style="font-size:21.4961px;font-family:'Open Sans';-inkscape-font-specification:'Open Sans';letter-spacing:-0.0722713px;stroke-width:0"
         d="m 784.4546,-607.16687 q 2.42283,1.47011 3.02834,3.50723 0.61096,2.02814 -0.67403,4.14587 -0.79495,1.31012 -2.01143,1.95932 -1.22547,0.64375 -2.71356,0.52655 -1.49163,-0.13162 -3.10685,-1.11169 -2.42283,-1.47011 -3.01584,-3.48736 -0.58757,-2.02623 0.69198,-4.13499 0.81672,-1.34601 2.02777,-1.98623 1.21649,-0.6492 2.69369,-0.51405 1.47368,0.12072 3.07993,1.09535 z m -4.54101,7.48385 q 1.78571,1.08352 3.26575,1.01167 1.4765,-0.0863 2.41302,-1.6297 0.93107,-1.53446 0.31677,-2.88938 -0.61431,-1.35492 -2.39105,-2.43301 -1.76776,-1.07263 -3.22632,-0.97547 -1.46209,0.0827 -2.40405,1.63515 -0.93107,1.53445 -0.35266,2.8676 0.58385,1.32417 2.37854,2.41314 z m 7.09887,-18.94833 q 1.54243,-1.50025 3.49224,-1.3322 1.94982,0.16806 4.0209,2.29737 2.04913,2.10673 2.18462,4.11271 0.1357,1.99114 -1.41426,3.49871 -0.98565,0.9587 -1.98358,1.19724 -0.99042,0.23122 -1.8488,0.0412 l -0.0903,0.0878 q 0.30798,0.27149 0.74059,0.65604 0.44012,0.37723 0.74018,0.68571 l 3.29324,3.38583 -1.25652,1.22215 -11.60684,-11.93314 1.03079,-1.00261 1.3511,1.0579 0.0602,-0.0585 q -0.19524,-0.90826 0.0339,-1.90714 0.22178,-1.0064 1.25258,-2.00901 z m 0.80636,1.2656 q -1.28661,1.25143 -1.11135,2.53055 0.17525,1.27911 1.60191,2.77599 l 0.23419,0.24077 q 1.52221,1.565 2.87607,1.88809 1.34654,0.31557 2.69334,-0.9944 1.15118,-1.11971 0.83749,-2.58631 -0.31368,-1.4666 -1.72612,-2.91874 -1.41975,-1.45967 -2.82587,-1.76122 -1.40591,-0.31639 -2.57966,0.82527 z m 11.16723,-10.20771 q 1.27076,-0.7379 2.50522,-0.70221 1.23447,0.0357 2.30586,0.77296 1.06612,0.72818 1.85145,2.08063 l 0.54288,0.93491 -6.87116,3.98991 q 1.04448,1.73602 2.42096,2.1626 1.37649,0.42659 2.91047,-0.46416 0.94399,-0.54815 1.57,-1.14227 0.626,-0.59411 1.21159,-1.38323 l 0.76952,1.32521 q -0.55836,0.77331 -1.21306,1.35982 -0.64562,0.58123 -1.65315,1.16628 -2.15121,1.24915 -4.20817,0.6958 -2.06224,-0.56243 -3.4906,-3.02226 -0.93291,-1.60659 -1.07729,-3.08848 -0.14059,-1.49622 0.47076,-2.70084 0.62043,-1.20988 1.95472,-1.98467 z m 0.69866,1.24499 q -1.20721,0.701 -1.46573,1.90707 -0.25852,1.20607 0.42755,2.70111 l 5.26456,-3.057 q -0.78387,-1.32902 -1.87165,-1.80188 -1.08397,-0.4872 -2.35473,0.2507 z m 13.92807,-7.36144 q 1.96685,-0.56629 3.25428,0.11161 1.28452,0.6678 1.89727,2.79604 l 2.07347,7.20169 -1.65417,0.47626 -2.04153,-7.09075 q -0.79279,-2.75359 -3.35474,-2.01596 -1.83573,0.52853 -2.28301,1.78232 -0.44728,1.2538 0.12191,3.23074 l 1.6669,5.7896 -1.67434,0.48207 -3.1828,-11.05471 1.35157,-0.38914 0.711,1.52105 0.0908,-0.0261 q 0.28193,-1.03143 1.08928,-1.7554 0.81454,-0.73695 1.93413,-1.05929 z m 19.51155,5.22759 q 0.0768,2.05581 -1.37065,3.23377 -1.43738,1.16709 -3.90225,1.2592 -1.3111,0.049 -2.39851,-0.0994 -1.0874,-0.14842 -1.84465,-0.45624 l -0.0639,-1.70967 q 0.79881,0.29575 1.94219,0.53662 1.14298,0.23038 2.38066,0.18413 1.72017,-0.0643 2.61771,-0.78055 0.90763,-0.72715 0.86177,-1.95434 -0.0294,-0.78666 -0.39512,-1.29817 -0.36612,-0.52199 -1.18983,-0.92185 -0.81361,-0.41075 -2.21656,-0.85198 -1.97679,-0.61936 -3.03183,-1.58827 -1.05505,-0.9689 -1.12207,-2.76249 -0.0459,-1.22719 0.54045,-2.12089 0.5964,-0.90458 1.68048,-1.40724 1.09418,-0.51355 2.53115,-0.56725 1.22719,-0.0459 2.2742,0.14609 1.05751,0.19156 1.94258,0.54712 l -0.49868,1.55214 q -0.84155,-0.31517 -1.78368,-0.51104 -0.93164,-0.19626 -1.91759,-0.15942 -1.46843,0.0549 -2.24167,0.72449 -0.76315,0.65872 -0.72277,1.73907 0.0302,0.80764 0.38581,1.33003 0.36612,0.52199 1.1265,0.91372 0.77049,0.38084 2.02502,0.78561 1.37148,0.44241 2.33625,0.96304 0.96437,0.51014 1.48714,1.28887 0.52237,0.76824 0.56784,1.98494 z m 18.05996,-8.03156 -2.26335,9.66795 q -0.37085,1.58407 -1.3042,2.66993 -0.92313,1.08826 -2.3783,1.50219 -1.45279,0.4037 -3.39455,-0.0509 -2.76957,-0.64838 -3.86908,-2.49044 -1.08929,-1.83966 -0.50072,-4.35374 l 2.25379,-9.62707 1.74758,0.40913 -2.26574,9.67817 q -0.44502,1.90088 0.31487,3.16756 0.77012,1.26906 2.7732,1.738 2.04397,0.47851 3.26063,-0.39011 1.21667,-0.86862 1.63058,-2.63665 l 2.26814,-9.68838 z m 9.73348,17.17785 q -0.98139,1.80808 -2.82708,2.08413 -1.83145,0.27184 -3.9993,-0.90482 -1.1531,-0.62588 -2.01314,-1.30766 -0.86003,-0.68178 -1.35477,-1.33247 l 0.81615,-1.50366 q 0.53665,0.6615 1.39774,1.45134 0.8661,0.78061 1.95464,1.37144 1.51288,0.82116 2.65012,0.66217 1.15149,-0.16321 1.73731,-1.24252 0.37553,-0.69187 0.32147,-1.31834 -0.0491,-0.63571 -0.55409,-1.39947 -0.49079,-0.76798 -1.47314,-1.86248 -1.38536,-1.54016 -1.7995,-2.91143 -0.41413,-1.37128 0.44208,-2.94873 0.58583,-1.07931 1.54568,-1.54956 0.97409,-0.47446 2.16301,-0.35461 1.20316,0.11563 2.46696,0.8016 1.07931,0.58582 1.88242,1.28447 0.81233,0.70365 1.39273,1.46056 l -1.21995,1.08146 q -0.56353,-0.69998 -1.27439,-1.34856 -0.70163,-0.64357 -1.56877,-1.11423 -1.29148,-0.70099 -2.298,-0.51881 -0.99229,0.17796 -1.50802,1.12812 -0.38554,0.71032 -0.34571,1.34101 0.0491,0.6357 0.50374,1.3602 0.46892,0.72028 1.34215,1.70778 0.95468,1.07948 1.51954,2.01904 0.56987,0.93033 0.6229,1.86675 0.058,0.9272 -0.52278,1.99728 z m 6.88979,11.14325 -6.37731,-5.68573 10.21195,-11.45409 6.37731,5.68573 -1.04774,1.17518 -5.04544,-4.49829 -3.30386,3.70573 4.75556,4.23985 -1.03377,1.15951 -4.75556,-4.23984 -3.77884,4.23848 5.04544,4.49829 z"
         id="text4-1-8-3-4-3-3-4-7"
         inkscape:label="text4-1-8-3-4-3-3"
         transform="matrix(0.91420088,-0.26506719,0.26506719,0.91420088,928.5742,-286.85434)"
         aria-label="                                 openSUSE" />
    </g>
  </g>
</svg>
