<?xml version="1.0" encoding="UTF-8" standalone="no"?>
<!-- Created with Inkscape (http://www.inkscape.org/) -->

<svg
   xmlns:dc="http://purl.org/dc/elements/1.1/"
   xmlns:cc="http://creativecommons.org/ns#"
   xmlns:rdf="http://www.w3.org/1999/02/22-rdf-syntax-ns#"
   xmlns:svg="http://www.w3.org/2000/svg"
   xmlns="http://www.w3.org/2000/svg"
   xmlns:sodipodi="http://sodipodi.sourceforge.net/DTD/sodipodi-0.dtd"
   xmlns:inkscape="http://www.inkscape.org/namespaces/inkscape"
   width="744.09003"
   height="744.09003"
   id="svg2"
   version="1.1"
   inkscape:version="0.48.4 r9939"
   inkscape:export-filename="/tmp/test3.png"
   inkscape:export-xdpi="18.142965"
   inkscape:export-ydpi="18.142965"
   sodipodi:docname="qr_conf_geeko.svg">
  <defs
     id="defs4" />
  <sodipodi:namedview
     id="base"
     pagecolor="#ffffff"
     bordercolor="#666666"
     borderopacity="1.0"
     inkscape:pageopacity="1"
     inkscape:pageshadow="2"
     inkscape:zoom="0.76334849"
     inkscape:cx="372.42241"
     inkscape:cy="372.04501"
     inkscape:document-units="px"
     inkscape:current-layer="layer2"
     showgrid="false"
     height="744.09px"
     inkscape:window-width="1366"
     inkscape:window-height="743"
     inkscape:window-x="0"
     inkscape:window-y="0"
     inkscape:window-maximized="1" />
  <metadata
     id="metadata7">
    <rdf:RDF>
      <cc:Work
         rdf:about="">
        <dc:format>image/svg+xml</dc:format>
        <dc:type
           rdf:resource="http://purl.org/dc/dcmitype/StillImage" />
        <dc:title />
      </cc:Work>
    </rdf:RDF>
  </metadata>
  <g
     inkscape:label="qr"
     inkscape:groupmode="layer"
     id="layer1"
     transform="translate(0,-308.27221)"
     style="display:inline">
    <path
       style="fill:#000000"
       d="m 78.285002,1034.5572 -60.48,0 0,-60.47997 0,-60.47997 60.48,0 60.479998,0 0,60.47997 0,60.47997 -60.479998,0 z m 0,-17.28 43.199998,0 0,-43.19997 0,-43.19997 -43.199998,0 -43.2,0 0,43.19997 0,43.19997 43.2,0 z m 0,-17.27997 -25.92,0 0,-25.92 0,-25.92 25.92,0 25.919998,0 0,25.92 0,25.92 -25.919998,0 z m 129.599998,34.55997 -17.28,0 0,-17.28 0,-17.27997 -8.64,0 -8.64,0 0,-8.64 0,-8.64 8.64,0 8.64,0 0,8.64 0,8.64 17.28,0 17.28,0 0,17.27997 0,17.28 -17.28,0 z m 86.40001,0 -34.56,0 0,-8.64 0,-8.64 -8.64,0 -8.64,0 0,-17.27997 0,-17.28 -17.28001,0 -17.28,0 0,-8.64 0,-8.64 8.64,0 8.64,0 0,-17.28 0,-17.27997 -8.64,0 -8.64,0 0,8.63997 0,8.64 -8.64,0 -8.64,0 0,8.64 0,8.64 -8.64,0 -8.64,0 0,-8.64 0,-8.64 -8.64,0 -8.64,0 0,-8.64 0,-8.63997 8.64,0 8.64,0 0,8.63997 0,8.64 8.64,0 8.64,0 0,-17.27997 0,-17.28 -17.28,0 -17.28,0 0,-8.64 0,-8.64 8.64,0 8.64,0 0,-34.56 0,-34.56002 -8.64,0 -8.64,0 0,17.28 0,17.28002 -17.28,0 -17.28,0 0,8.64 0,8.64 8.64,0 8.64,0 0,8.64 0,8.64 -8.64,0 -8.64,0 0,-8.64 0,-8.64 -17.28,0 -17.279998,0 0,8.64 0,8.64 -8.64,0 -8.64,0 0,-8.64 0,-8.64 -8.64,0 -8.64,0 0,8.64 0,8.64 -8.64,0 -8.64,0 0,-17.28 0,-17.28 17.28,0 17.28,0 0,-8.64002 0,-8.64 -8.64,0 -8.64,0 0,-25.92 0,-25.92 8.64,0 8.64,0 0,-8.64 0,-8.64 8.64,0 8.64,0 0,-8.64 0,-8.64 -34.56,0 -34.56,0 0,-8.64 0,-8.64 8.64,0 8.64,0 0,-8.64 0,-8.64 -8.64,0 -8.64,0 0,-25.92 0,-25.92 8.64,0 8.64,0 0,-8.64 0,-8.64 8.64,0 8.64,0 0,-17.28 0,-17.28 -17.28,0 -17.28,0 0,-25.92 0,-25.92 8.64,0 8.64,0 0,-8.64 0,-8.64 -8.64,0 -8.64,0 0,-8.64 0,-8.64 8.64,0 8.64,0 0,-8.64 0,-8.64 8.64,0 8.64,0 0,-8.64 0,-8.64 8.64,0 8.64,0 0,17.28 0,17.28 8.64,0 8.64,0 0,-8.64 0,-8.64 17.279998,0 17.28,0 0,-8.64 0,-8.64 -17.28,0 -17.279998,0 0,-8.64 0,-8.64 8.64,0 8.639998,0 0,-8.64 0,-8.64 17.28,0 17.28,0 0,8.64 0,8.64 -8.64,0 -8.64,0 0,8.64 0,8.64 8.64,0 8.64,0 0,8.64 0,8.64 -8.64,0 -8.64,0 0,8.64 0,8.64 17.28,0 17.28,0 0,-17.28 0,-17.28 8.64,0 8.64,0 0,-8.64 0,-8.64 8.64,0 8.64,0 0,-8.64 0,-8.64 -17.28,0 -17.28,0 0,-17.28 0,-17.28 8.64,0 8.64,0 0,-8.64 0,-8.64 -8.64,0 -8.64,0 0,-8.64 0,-8.64 8.64,0 8.64,0 0,-8.64 0,-8.64 -8.64,0 -8.64,0 0,-8.64 0,-8.64 8.64,0 8.64,0 0,-8.64 0,-8.64 -8.64,0 -8.64,0 0,-8.64 0,-8.64 25.92,0 25.92,0 0,8.64 0,8.64 8.64,0 8.64,0 0,-8.64 0,-8.64 8.64001,0 8.64,0 0,8.64 0,8.64 -8.64,0 -8.64001,0 0,8.64 0,8.64 -8.64,0 -8.64,0 0,8.64 0,8.64 8.64,0 8.64,0 0,8.64 0,8.64 -8.64,0 -8.64,0 0,8.64 0,8.64 8.64,0 8.64,0 0,8.64 0,8.64 8.64001,0 8.64,0 0,8.64 0,8.64 -8.64,0 -8.64001,0 0,-8.64 0,-8.64 -8.64,0 -8.64,0 0,17.28 0,17.28 17.28,0 17.28001,0 0,8.64 0,8.64 -25.92001,0 -25.92,0 0,8.64 0,8.64 -8.64,0 -8.64,0 0,25.92 0,25.92 25.92,0 25.92,0 0,-8.64 0,-8.64 8.64001,0 8.64,0 0,-8.64 0,-8.64 -17.28001,0 -17.28,0 0,-8.64 0,-8.64 17.28,0 17.28001,0 0,8.64 0,8.64 8.64,0 8.64,0 0,-25.92 0,-25.92 8.64,0 8.64,0 0,17.28 0,17.28 8.64,0 8.64,0 0,8.64 0,8.64 -8.64,0 -8.64,0 0,8.64 0,8.64 25.91999,0 25.92,0 0,8.64 0,8.64 -17.28,0 -17.27999,0 0,8.64 0,8.64 -8.64,0 -8.64,0 0,-8.64 0,-8.64 -17.28,0 -17.28,0 0,8.64 0,8.64 -17.28001,0 -17.28,0 0,17.28 0,17.28 -8.64,0 -8.64,0 0,-17.28 0,-17.28 -8.64,0 -8.64,0 0,-8.64 0,-8.64 -34.56,0 -34.56,0 0,-8.64 0,-8.64 -8.639998,0 -8.64,0 0,8.64 0,8.64 -17.28,0 -17.28,0 0,17.28 0,17.28 8.64,0 8.64,0 0,-8.64 0,-8.64 34.559998,0 34.56,0 0,8.64 0,8.64 17.28,0 17.28,0 0,17.28 0,17.28 8.64,0 8.64,0 0,43.2 0,43.2 8.64,0 8.64,0 0,17.28 0,17.28 -8.64,0 -8.64,0 0,8.64 0,8.64 17.28,0 17.28,0 0,8.64 0,8.64 17.28001,0 17.28,0 0,8.64 0,8.64 -17.28,0 -17.28001,0 0,-8.64 0,-8.64 -17.28,0 -17.28,0 0,17.28 0,17.28 17.28,0 17.28,0 0,8.64 0,8.64 -17.28,0 -17.28,0 0,8.64 0,8.64 17.28,0 17.28,0 0,8.64 0,8.64002 25.92001,0 25.92,0 0,8.64 0,8.64 -17.28,0 -17.28,0 0,8.64 0,8.64 17.28,0 17.28,0 0,8.64 0,8.64 8.64,0 8.64,0 0,8.64 0,8.64 8.63999,0 8.64,0 0,-8.64 0,-8.64 8.64,0 8.64,0 0,8.64 0,8.64 8.64,0 8.64,0 0,8.63997 0,8.64 -17.28,0 -17.28,0 0,17.28 0,17.28 8.64,0 8.64,0 0,-8.64 0,-8.64 8.64,0 8.64,0 0,8.64 0,8.64 -8.64,0 -8.64,0 0,8.64 0,8.64 -8.64,0 -8.64,0 0,8.63997 0,8.64 8.64,0 8.64,0 0,8.64 0,8.64 -34.55999,0 z m -8.64,-17.28 8.64,0 0,-8.64 0,-8.63997 -8.64,0 -8.64,0 0,8.63997 0,8.64 8.64,0 z m -34.56,-34.55997 8.64,0 0,-8.64 0,-8.64 8.64,0 8.64,0 0,8.64 0,8.64 8.64,0 8.64,0 0,-17.28 0,-17.28 -8.64,0 -8.64,0 0,-17.27997 0,-17.28 -8.64,0 -8.64,0 0,25.91997 0,25.92 -8.64,0 -8.64,0 0,8.64 0,8.64 8.64,0 z m -17.28,-51.83997 8.64,0 0,-8.64 0,-8.64 -8.64,0 -8.64001,0 0,-8.64 0,-8.64 -8.64,0 -8.64,0 0,-17.28 0,-17.28 -8.64,0 -8.64,0 0,17.28 0,17.28 8.64,0 8.64,0 0,8.64 0,8.64 8.64,0 8.64,0 0,8.64 0,8.64 8.64001,0 z m -155.520008,-51.84 8.64,0 0,-8.64 0,-8.64 -8.64,0 -8.64,0 0,8.64 0,8.64 8.64,0 z m 43.199998,-34.56002 17.28,0 0,-8.64 0,-8.64 -8.64,0 -8.64,0 0,-8.64 0,-8.64 25.92,0 25.92,0 0,-8.64 0,-8.64 -8.64,0 -8.64,0 0,-8.64 0,-8.64 8.64,0 8.64,0 0,-8.64 0,-8.64 -34.56,0 -34.56,0 0,-17.28 0,-17.28 -8.639998,0 -8.64,0 0,-8.64 0,-8.64 -8.64,0 -8.64,0 0,-8.64 0,-8.64 17.28,0 17.279998,0 0,-17.28 0,-17.28 8.64,0 8.64,0 0,8.64 0,8.64 8.64,0 8.64,0 0,8.64 0,8.64 -8.64,0 -8.64,0 0,8.64 0,8.64 8.64,0 8.64,0 0,8.64 0,8.64 -8.64,0 -8.64,0 0,8.64 0,8.64 8.64,0 8.64,0 0,-8.64 0,-8.64 8.64,0 8.64,0 0,8.64 0,8.64 17.28,0 17.28,0 0,-8.64 0,-8.64 -8.64,0 -8.64,0 0,-43.2 0,-43.2 -8.64,0 -8.64,0 0,-8.64 0,-8.64 -17.28,0 -17.28,0 0,-8.64 0,-8.64 8.64,0 8.64,0 0,-8.64 0,-8.64 -8.64,0 -8.64,0 0,8.64 0,8.64 -8.64,0 -8.64,0 0,8.64 0,8.64 8.64,0 8.64,0 0,8.64 0,8.64 -8.64,0 -8.64,0 0,8.64 0,8.64 -25.919998,0 -25.92,0 0,8.64 0,8.64 -8.64,0 -8.64,0 0,8.64 0,8.64 8.64,0 8.64,0 0,8.64 0,8.64 8.64,0 8.64,0 0,8.64 0,8.64 8.64,0 8.64,0 0,17.28 0,17.28 8.64,0 8.639998,0 0,8.64 0,8.64 -8.639998,0 -8.64,0 0,8.64 0,8.64 8.64,0 8.639998,0 0,-8.64 0,-8.64 17.28,0 17.28,0 0,8.64 0,8.64 -8.64,0 -8.64,0 0,8.64 0,8.64 -17.28,0 -17.279998,0 0,8.64 0,8.64 8.64,0 8.639998,0 0,8.64 0,8.64 17.28,0 z m 8.64,-190.08 -8.64,0 0,-8.64 0,-8.64 8.64,0 8.64,0 0,8.64 0,8.64 -8.64,0 z m -69.119998,-34.56 8.64,0 0,-8.64 0,-8.64 -8.64,0 -8.64,0 0,8.64 0,8.64 8.64,0 z m 120.959998,-172.8 8.64,0 0,-8.64 0,-8.64 -8.64,0 -8.64,0 0,8.64 0,8.64 8.64,0 z m 17.28,-86.4 8.64,0 0,-8.64 0,-8.64 -8.64,0 -8.64,0 0,8.64 0,8.64 8.64,0 z m 207.36,673.91996 -8.64,0 0,-8.64 0,-8.64 -8.64,0 -8.64,0 0,-8.64 0,-8.63997 8.64,0 8.64,0 0,8.63997 0,8.64 8.64,0 8.64,0 0,8.64 0,8.64 -8.64,0 z m 34.56001,0 -8.64001,0 0,-8.64 0,-8.64 8.64001,0 8.64001,0 0,-8.64 0,-8.63997 -8.64001,0 -8.64001,0 0,-8.64 0,-8.64 -8.64,0 -8.64,0 0,-8.64 0,-8.64 8.64,0 8.64,0 0,-8.64 0,-8.64 -8.64,0 -8.64,0 0,-8.64 0,-8.63997 -8.64,0 -8.64,0 0,8.63997 0,8.64 -8.64,0 -8.64,0 0,-17.27997 0,-17.28 34.56,0 34.56002,0 0,-8.64 0,-8.64 -8.64001,0 -8.64001,0 0,-17.28 0,-17.28 -8.64,0 -8.64,0 0,-8.64002 0,-8.64 -8.64,0 -8.64,0 0,25.92002 0,25.92 -17.28,0 -17.28,0 0,-8.64 0,-8.64 -17.28,0 -17.28,0 0,8.64 0,8.64 -8.64,0 -8.64,0 0,-8.64 0,-8.64 8.64,0 8.64,0 0,-8.64 0,-8.64 -17.28,0 -17.27999,0 0,-8.64002 0,-8.64 -17.28,0 -17.28,0 0,-8.64 0,-8.64 -8.64,0 -8.64,0 0,-8.64 0,-8.64 25.92,0 25.92,0 0,8.64 0,8.64 8.63999,0 8.64,0 0,8.64 0,8.64 8.64,0 8.64,0 0,-8.64 0,-8.64 43.2,0 43.2,0 0,8.64 0,8.64 8.64,0 8.64,0 0,-8.64 0,-8.64 17.28002,0 17.28,0 0,8.64 0,8.64 8.64,0 8.64,0 0,8.64 0,8.64002 8.64,0 8.64,0 0,-17.28002 0,-17.28 -8.64,0 -8.64,0 0,-8.64 0,-8.64 8.64,0 8.64,0 0,8.64 0,8.64 8.64,0 8.64,0 0,-8.64 0,-8.64 8.64,0 8.64,0 0,8.64 0,8.64 8.64,0 8.64,0 0,-17.28 0,-17.28 -43.2,0 -43.2,0 0,-8.64 0,-8.64 8.64,0 8.64,0 0,-8.64 0,-8.64 17.28,0 17.28,0 0,8.64 0,8.64 8.64,0 8.64,0 0,-8.64 0,-8.64 17.28,0 17.28,0 0,-8.64 0,-8.64 -17.28,0 -17.28,0 0,-8.64 0,-8.64 -8.64,0 -8.64,0 0,8.64 0,8.64 -8.64,0 -8.64,0 0,-8.64 0,-8.64 8.64,0 8.64,0 0,-17.28 0,-17.28 25.92,0 25.92,0 0,-8.64 0,-8.64 8.64,0 8.64,0 0,8.64 0,8.64 -8.64,0 -8.64,0 0,8.64 0,8.64 -17.28,0 -17.28,0 0,8.64 0,8.64 25.92,0 25.92,0 0,-8.64 0,-8.64 8.64,0 8.64,0 0,17.28 0,17.28 8.64,0 8.64,0 0,-8.64 0,-8.64 8.63999,0 8.64,0 0,8.64 0,8.64 8.64,0 8.64,0 0,-8.64 0,-8.64 8.64,0 8.64,0 0,-8.64 0,-8.64 -8.64,0 -8.64,0 0,-8.64 0,-8.64 -8.64,0 -8.64,0 0,8.64 0,8.64 -8.64,0 -8.63999,0 0,-8.64 0,-8.64 8.63999,0 8.64,0 0,-17.28 0,-17.28 -25.91999,0 -25.92,0 0,-8.64 0,-8.64 8.64,0 8.64,0 0,-8.64 0,-8.64 -25.92,0 -25.92,0 0,-17.28 0,-17.28 -8.64,0 -8.64,0 0,-8.64 0,-8.64 17.28,0 17.28,0 0,-8.64 0,-8.64 -8.64,0 -8.64,0 0,-17.28 0,-17.28 8.64,0 8.64,0 0,-8.64 0,-8.64 -17.28,0 -17.28,0 0,-8.64 0,-8.64 -8.64,0 -8.64,0 0,-8.64 0,-8.64 -17.28,0 -17.28,0 0,-8.64 0,-8.64 -8.64,0 -8.64,0 0,25.92 0,25.92 8.64,0 8.64,0 0,-8.64 0,-8.64 8.64,0 8.64,0 0,34.56 0,34.56 -17.28,0 -17.28,0 0,-8.64 0,-8.64 -8.64,0 -8.64,0 0,-43.2 0,-43.2 -8.64001,0 -8.64001,0 0,8.64 0,8.64 -17.28,0 -17.28,0 0,-34.56 0,-34.56 -8.64,0 -8.64,0 0,-8.64 0,-8.64 8.64,0 8.64,0 0,-8.64 0,-8.64 -17.28,0 -17.28,0 0,8.64 0,8.64 -8.64,0 -8.64,0 0,8.64 0,8.64 8.64,0 8.64,0 0,8.64 0,8.64 8.64,0 8.64,0 0,25.92 0,25.92 -8.64,0 -8.64,0 0,8.64 0,8.64 17.28,0 17.28,0 0,8.64 0,8.64 8.64,0 8.64,0 0,-8.64 0,-8.64 8.64,0 8.64,0 0,8.64 0,8.64 -8.64,0 -8.64,0 0,17.28 0,17.28 -8.64,0 -8.64,0 0,-17.28 0,-17.28 -8.64,0 -8.64,0 0,8.64 0,8.64 -8.64,0 -8.64,0 0,-8.64 0,-8.64 -8.64,0 -8.64,0 0,8.64 0,8.64 -8.64,0 -8.64,0 0,-17.28 0,-17.28 -8.64,0 -8.64,0 0,-8.64 0,-8.64 17.28,0 17.28,0 0,-8.64 0,-8.64 -8.64,0 -8.64,0 0,-8.64 0,-8.64 8.64,0 8.64,0 0,-17.28 0,-17.28 -8.64,0 -8.64,0 0,-8.64 0,-8.64 -17.28,0 -17.27999,0 0,8.64 0,8.64 8.63999,0 8.64,0 0,25.92 0,25.92 -8.64,0 -8.63999,0 0,-25.92 0,-25.92 -17.28,0 -17.28,0 0,-8.64 0,-8.64 -8.64,0 -8.64,0 0,-8.64 0,-8.64 8.64,0 8.64,0 0,8.64 0,8.64 17.28,0 17.28,0 0,-17.28 0,-17.28 8.63999,0 8.64,0 0,-8.64 0,-8.64 8.64,0 8.64,0 0,8.64 0,8.64 8.64,0 8.64,0 0,-8.64 0,-8.64 8.64,0 8.64,0 0,8.64 0,8.64 17.28,0 17.28,0 0,-8.64 0,-8.64 25.92,0 25.92002,0 0,8.64 0,8.64 17.28,0 17.28,0 0,-8.64 0,-8.64 43.2,0 43.2,0 0,17.28 0,17.28 8.64,0 8.64,0 0,8.64 0,8.64 -8.64,0 -8.64,0 0,8.64 0,8.64 8.64,0 8.64,0 0,25.92 0,25.92 -8.64,0 -8.64,0 0,8.64 0,8.64 -8.64,0 -8.64,0 0,-8.64 0,-8.64 -8.64,0 -8.64,0 0,-8.64 0,-8.64 -8.64,0 -8.64,0 0,17.28 0,17.28 8.64,0 8.64,0 0,8.64 0,8.64 17.28,0 17.28,0 0,8.64 0,8.64 17.28,0 17.28,0 0,-17.28 0,-17.28 8.64,0 8.64,0 0,8.64 0,8.64 8.63999,0 8.64,0 0,-8.64 0,-8.64 8.64,0 8.64,0 0,8.64 0,8.64 -8.64,0 -8.64,0 0,8.64 0,8.64 -17.27999,0 -17.28,0 0,17.28 0,17.28 8.64,0 8.64,0 0,-8.64 0,-8.64 8.63999,0 8.64,0 0,8.64 0,8.64 -8.64,0 -8.63999,0 0,8.64 0,8.64 17.27999,0 17.28,0 0,8.64 0,8.64 25.92,0 25.92001,0 0,-8.64 0,-8.64 -8.64001,0 -8.64,0 0,-34.56 0,-34.56 -8.64,0 -8.64,0 0,-8.64 0,-8.64 8.64,0 8.64,0 0,8.64 0,8.64 8.64,0 8.64001,0 0,-8.64 0,-8.64 8.64,0 8.64,0 0,17.28 0,17.28 -8.64,0 -8.64,0 0,17.28 0,17.28 8.64,0 8.64,0 0,17.28 0,17.28 -8.64,0 -8.64,0 0,17.28 0,17.28 -8.64001,0 -8.64,0 0,17.28 0,17.28 -17.28,0 -17.28,0 0,25.92 0,25.92 8.64,0 8.64,0 0,8.64 0,8.64 8.64,0 8.64,0 0,8.64 0,8.64 17.28001,0 17.28,0 0,8.64 0,8.64 -17.28,0 -17.28001,0 0,8.64 0,8.64 -8.64,0 -8.64,0 0,8.64 0,8.64 -8.64,0 -8.64,0 0,8.64 0,8.64 17.28,0 17.28,0 0,17.28 0,17.28 -8.64,0 -8.64,0 0,8.64 0,8.64 8.64,0 8.64,0 0,8.64 0,8.64002 -8.64,0 -8.64,0 0,-8.64002 0,-8.64 -17.28,0 -17.28,0 0,17.28002 0,17.28 8.64,0 8.64,0 0,8.64 0,8.64 8.64,0 8.64,0 0,-8.64 0,-8.64 17.28,0 17.28001,0 0,-34.56002 0,-34.56 8.64,0 8.64,0 0,34.56 0,34.56002 -8.64,0 -8.64,0 0,8.64 0,8.64 -17.28001,0 -17.28,0 0,8.64 0,8.64 8.64,0 8.64,0 0,8.64 0,8.64 8.64,0 8.64001,0 0,8.63997 0,8.64 8.64,0 8.64,0 0,8.64 0,8.64 -8.64,0 -8.64,0 0,17.28 0,17.28 8.64,0 8.64,0 0,8.63997 0,8.64 -8.64,0 -8.64,0 0,-8.64 0,-8.63997 -8.64001,0 -8.64,0 0,8.63997 0,8.64 -8.64,0 -8.64,0 0,8.64 0,8.64 -25.92,0 -25.91999,0 0,-8.64 0,-8.64 -17.28,0 -17.28,0 0,-8.64 0,-8.63997 -17.28,0 -17.28,0 0,8.63997 0,8.64 8.64,0 8.64,0 0,8.64 0,8.64 -8.64,0 -8.64,0 0,-8.64 0,-8.64 -8.64,0 -8.64,0 0,8.64 0,8.64 -8.64,0 -8.64,0 0,-8.64 0,-8.64 8.64,0 8.64,0 0,-8.64 0,-8.63997 -34.56,0 -34.56,0 0,8.63997 0,8.64 -8.64,0 -8.64,0 0,8.64 0,8.64 -8.64001,0 z m 190.08,-17.28 8.64,0 0,-8.64 0,-8.63997 -8.64,0 -8.63999,0 0,8.63997 0,8.64 8.63999,0 z m 34.56,0 8.64,0 0,-8.64 0,-8.63997 8.64,0 8.64,0 0,-17.28 0,-17.28 8.64,0 8.64001,0 0,-8.64 0,-8.64 -8.64001,0 -8.64,0 0,8.64 0,8.64 -25.92,0 -25.92,0 0,8.64 0,8.64 17.28,0 17.28,0 0,8.64 0,8.64 -8.64,0 -8.64,0 0,8.63997 0,8.64 8.64,0 z m -120.95999,-17.27997 8.64,0 0,-8.64 0,-8.64 8.64,0 8.64,0 0,-17.28 0,-17.28 -8.64,0 -8.64,0 0,-8.64 0,-8.63997 8.64,0 8.64,0 0,-25.92 0,-25.92 8.64,0 8.64,0 0,-8.64 0,-8.64 17.28,0 17.28,0 0,-17.28002 0,-17.28 17.27999,0 17.28,0 0,-8.64 0,-8.64 -8.64,0 -8.64,0 0,-8.64 0,-8.64 -17.27999,0 -17.28,0 0,-8.64 0,-8.64 17.28,0 17.27999,0 0,-17.28 0,-17.28 -8.64,0 -8.63999,0 0,8.64 0,8.64 -8.64,0 -8.64,0 0,8.64 0,8.64 -8.64,0 -8.64,0 0,8.64 0,8.64 -8.64,0 -8.64,0 0,-8.64 0,-8.64 -8.64,0 -8.64,0 0,8.64 0,8.64 8.64,0 8.64,0 0,8.64 0,8.64 8.64,0 8.64,0 0,8.64 0,8.64 -17.28,0 -17.28,0 0,8.64 0,8.64 -17.28,0 -17.28,0 0,8.64 0,8.64002 17.28,0 17.28,0 0,8.64 0,8.64 -17.28,0 -17.28,0 0,25.92 0,25.92 -17.28,0 -17.28,0 0,-8.64 0,-8.64 8.64,0 8.64,0 0,-17.28 0,-17.28 -8.64,0 -8.64,0 0,-8.64 0,-8.64 -8.64,0 -8.64,0 0,-8.64002 0,-8.64 -8.64,0 -8.64,0 0,8.64 0,8.64002 8.64,0 8.64,0 0,8.64 0,8.64 -8.64,0 -8.64,0 0,8.64 0,8.64 8.64,0 8.64,0 0,17.28 0,17.28 -17.28,0 -17.28002,0 0,8.63997 0,8.64 17.28002,0 17.28,0 0,8.64 0,8.64 -17.28,0 -17.28002,0 0,8.64 0,8.64 25.92002,0 25.92,0 0,-17.28 0,-17.28 34.56,0 34.56,0 0,8.64 0,8.64 -25.92,0 -25.92,0 0,8.64 0,8.64 17.28,0 17.28,0 0,8.64 0,8.64 8.64,0 z m -69.12,-51.84 -8.64,0 0,-8.64 0,-8.63997 8.64,0 8.64,0 0,8.63997 0,8.64 -8.64,0 z m 69.12,-17.27997 -8.64,0 0,-17.28 0,-17.28 8.64,0 8.64,0 0,17.28 0,17.28 -8.64,0 z m 17.28,-69.12 -8.64,0 0,-8.64002 0,-8.64 8.64,0 8.64,0 0,8.64 0,8.64002 -8.64,0 z m 51.84,-34.56002 -8.64,0 0,-8.64 0,-8.64 8.64,0 8.64,0 0,8.64 0,8.64 -8.64,0 z m -8.64,155.51999 17.28,0 0,-8.64 0,-8.64 -17.28,0 -17.28,0 0,8.64 0,8.64 17.28,0 z m 8.64,-34.56 25.91999,0 0,-25.91997 0,-25.92 -25.91999,0 -25.92,0 0,25.92 0,25.91997 25.92,0 z m 0,-17.27997 -8.64,0 0,-8.64 0,-8.64 8.64,0 8.64,0 0,8.64 0,8.64 -8.64,0 z m 51.83999,0 8.64,0 0,-8.64 0,-8.64 -8.64,0 -8.64,0 0,8.64 0,8.64 8.64,0 z m -293.76001,-51.84 8.64,0 0,-8.64 0,-8.64 -8.64,0 -8.64,0 0,8.64 0,8.64 8.64,0 z m -34.56,-17.28 8.64,0 0,-8.64002 0,-8.64 -8.64,0 -8.64,0 0,8.64 0,8.64002 8.64,0 z m 293.76001,-224.64002 8.64,0 0,-8.64 0,-8.64 17.28,0 17.28,0 0,-8.64 0,-8.64 -8.64,0 -8.64,0 0,-17.28 0,-17.28 -8.64,0 -8.64,0 0,25.92 0,25.92 -8.64,0 -8.63999,0 0,-17.28 0,-17.28 -17.28,0 -17.28,0 0,-8.64 0,-8.64 -8.64,0 -8.64,0 0,17.28 0,17.28 17.28,0 17.28,0 0,8.64 0,8.64 8.64,0 8.64,0 0,8.64 0,8.64 8.63999,0 z m -17.27999,-69.12 8.64,0 0,-8.64 0,-8.64 -8.64,0 -8.64,0 0,8.64 0,8.64 8.64,0 z m -34.56,-34.56 8.64,0 0,-8.64 0,-8.64 -8.64,0 -8.64,0 0,8.64 0,8.64 8.64,0 z m -224.64002,-86.4 8.64,0 0,-8.64 0,-8.64 -8.64,0 -8.64,0 0,8.64 0,8.64 8.64,0 z m 69.12,0 8.64,0 0,-8.64 0,-8.64 8.64001,0 8.64001,0 0,8.64 0,8.64 8.64,0 8.64,0 0,-8.64 0,-8.64 8.64,0 8.64,0 0,8.64 0,8.64 8.64,0 8.64,0 0,-25.92 0,-25.92 17.28,0 17.28,0 0,17.28 0,17.28 8.64,0 8.64,0 0,8.64 0,8.64 8.64,0 8.64,0 0,-17.28 0,-17.28 -8.64,0 -8.64,0 0,-8.64 0,-8.64 -8.64,0 -8.64,0 0,-8.64 0,-8.64 8.64,0 8.64,0 0,-8.64 0,-8.64 -8.64,0 -8.64,0 0,-8.64 0,-8.64 -8.64,0 -8.64,0 0,8.64 0,8.64 -8.64,0 -8.64,0 0,-8.64 0,-8.64 -8.64,0 -8.64,0 0,8.64 0,8.64 -8.64,0 -8.64,0 0,8.64 0,8.64 -8.64,0 -8.64,0 0,8.64 0,8.64 -8.64001,0 -8.64001,0 0,-17.28 0,-17.28 8.64001,0 8.64001,0 0,-8.64 0,-8.64 -25.92002,0 -25.92,0 0,8.64 0,8.64 8.64,0 8.64,0 0,8.64 0,8.64 -8.64,0 -8.64,0 0,8.64 0,8.64 8.64,0 8.64,0 0,25.92 0,25.92 8.64,0 z m 34.56002,-34.56 -8.64,0 0,-8.64 0,-8.64 8.64,0 8.64,0 0,8.64 0,8.64 -8.64,0 z m 34.56,-34.56 -8.64,0 0,-8.64 0,-8.64 8.64,0 8.64,0 0,8.64 0,8.64 -8.64,0 z m 0,656.63996 -8.64,0 0,-8.64 0,-8.64 8.64,0 8.64,0 0,8.64 0,8.64 -8.64,0 z M 380.685,982.71723 l -17.28,0 0,-8.64 0,-8.64 17.28,0 17.28,0 0,8.64 0,8.64 -17.28,0 z M 26.445002,827.19724 l -8.64,0 0,-8.64 0,-8.64 8.64,0 8.64,0 0,8.64 0,8.64 -8.64,0 z m 691.200018,-34.56 -8.64,0 0,-8.64 0,-8.64 8.64,0 8.64,0 0,8.64 0,8.64 -8.64,0 z m 0,-103.68 -8.64,0 0,-34.56 0,-34.56 8.64,0 8.64,0 0,34.56 0,34.56 -8.64,0 z m -172.8,-17.28 -8.64,0 0,-8.64 0,-8.64 8.64,0 8.64,0 0,-8.64 0,-8.64 8.64,0 8.64,0 0,8.64 0,8.64 -8.64,0 -8.64,0 0,8.64 0,8.64 -8.64,0 z m 120.95999,-138.24 -8.64,0 0,-8.64 0,-8.64 8.64,0 8.64,0 0,8.64 0,8.64 -8.64,0 z m -587.520008,-86.4 -60.48,0 0,-60.48 0,-60.48 60.48,0 60.479998,0 0,60.48 0,60.48 -60.479998,0 z m 0,-17.28 43.199998,0 0,-43.2 0,-43.2 -43.199998,0 -43.2,0 0,43.2 0,43.2 43.2,0 z m 0,-17.28 -25.92,0 0,-25.92 0,-25.92 25.92,0 25.919998,0 0,25.92 0,25.92 -25.919998,0 z m 190.080008,34.56 -8.64,0 0,-17.28 0,-17.28 8.64,0 8.64,0 0,17.28 0,17.28 -8.64,0 z m 397.44,0 -60.47999,0 0,-60.48 0,-60.48 60.47999,0 60.48001,0 0,60.48 0,60.48 -60.48001,0 z m 0,-17.28 43.20001,0 0,-43.2 0,-43.2 -43.20001,0 -43.19999,0 0,43.2 0,43.2 43.19999,0 z m 0,-17.28 -25.92,0 0,-25.92 0,-25.92 25.92,0 25.92,0 0,25.92 0,25.92 -25.92,0 z m -397.44,-69.12 -8.64,0 0,-8.64 0,-8.64 8.64,0 8.64,0 0,8.64 0,8.64 -8.64,0 z"
       id="path3014"
       inkscape:connector-curvature="0" />
  </g>
  <g
     inkscape:groupmode="layer"
     id="layer2"
     inkscape:label="logo"
     style="display:inline">
    <g
       id="g3321"
       transform="matrix(0.23444872,0,0,0.23444872,975.00334,528.92098)">
      <path
         style="fill:#0d5eaf;fill-opacity:1;stroke:none"
         d="m -3079.4918,-684.6555 c -13.9785,-22.23429 -34.1574,-62.83404 -39.2637,-78.99809 -4.6855,-14.83249 -6.0552,-26.0465 -4.2832,-35.06771 3.4454,-17.53955 29.7628,-95.9009 33.4446,-99.58267 2.1608,-2.16075 7.6092,5.70671 16.4047,23.68832 11.8708,24.26867 18.7548,42.08905 24.5766,63.62013 5.9239,21.90904 6.7239,28.02248 4.8765,37.26532 -2.6512,13.264 -8.5968,38.2872 -11.681,49.16205 -3.6472,12.85963 -17.0663,47.41501 -18.413,47.41501 -0.5196,0 -3.0673,-3.37607 -5.6615,-7.50236 z"
         id="path4258"
         inkscape:connector-curvature="0" />
      <path
         style="fill:#0d5eaf;fill-opacity:1;stroke:none"
         d="m -3023.696,-809.2674 c -15.2241,-23.30315 -20.4063,-39.76285 -20.5743,-65.34825 -0.1015,-15.47145 0.1621,-17.61518 3.3224,-27.00855 3.8038,-11.30636 17.0844,-37.757 27.7448,-55.25859 3.8065,-6.24938 11.0344,-18.21311 16.0619,-26.58607 5.0275,-8.37296 9.302,-15.06253 9.4988,-14.8657 2.7446,2.74454 22.2394,85.96604 22.2329,94.90979 -0.01,10.06071 -5.4077,30.70503 -10.8333,41.41311 -5.8019,11.45082 -33.3134,59.66786 -36.2588,63.54767 l -2.2232,2.92848 -8.9712,-13.73189 z"
         id="path4260"
         inkscape:connector-curvature="0" />
      <path
         style="fill:#0d5eaf;fill-opacity:1;stroke:none"
         d="m -2939.4024,-899.82364 c -4.4775,-10.95118 -6.0759,-22.1666 -7.3576,-51.62867 l -1.3062,-30.02183 4.8254,-9.59071 c 6.3473,-12.61555 16.7254,-26.52955 35.9828,-48.24245 17.578,-19.8194 28.7425,-31.1578 29.7186,-30.1816 1.282,1.2819 6.4691,40.3312 7.2301,54.4288 0.6897,12.7771 0.4822,15.35389 -1.8364,22.80721 -3.4185,10.98886 -12.8268,29.76399 -20.4164,40.74275 -7.2538,10.49293 -28.3011,36.637 -38.228,47.48518 l -7.1399,7.80247 -1.4724,-3.60115 0,0 z"
         id="path4262"
         inkscape:connector-curvature="0" />
      <path
         style="fill:#0d5eaf;fill-opacity:1;stroke:none"
         d="m -2828.7041,-1006.4065 c -1.6265,-1.9599 -2.8916,-7.6657 -6.8421,-30.8606 -2.7172,-15.9534 -3.0559,-20.5739 -2.3762,-32.4103 1.494,-26.0127 4.1069,-33.647 17.0503,-49.8158 9.3104,-11.6305 44.7764,-49.6496 50.924,-54.59 l 4.4157,-3.5485 0.7498,2.9878 c 1.5807,6.2977 3.0721,34.4354 3.1727,59.8577 0.1013,25.588 0,26.8344 -3.0731,36.1059 -1.7479,5.2817 -4.7326,12.8441 -6.6326,16.8054 -6.9174,14.4212 -26.1623,35.1706 -46.9277,50.5962 -4.7547,3.532 -8.7641,6.4218 -8.9098,6.4218 -0.1456,0 -0.8436,-0.6973 -1.551,-1.5496 l 0,0 z"
         id="path4264"
         inkscape:connector-curvature="0" />
      <path
         style="fill:#0d5eaf;fill-opacity:1;stroke:none"
         d="m -2726.1948,-1094.5229 c -1.1329,-8.452 -2.3729,-25.9829 -2.7556,-38.9576 l -0.6958,-23.5904 3.4036,-5.8189 c 4.8676,-8.3215 31.1019,-34.0216 47.9033,-46.9278 14.6518,-11.2549 30.6065,-20.442 32.9669,-18.9832 1.8429,1.139 1.667,7.185 -1.0867,37.3473 -2.8557,31.2794 -4.6654,40.4395 -10.3205,52.2398 -5.3697,11.2046 -12.2135,19.2004 -27.1272,31.6935 -11.0819,9.2832 -34.5929,26.202 -38.4889,27.697 -1.4029,0.5384 -2.1377,-2.3047 -3.7991,-14.6997 l 0,0 z"
         id="path4266"
         inkscape:connector-curvature="0" />
      <path
         style="fill:#0d5eaf;fill-opacity:1;stroke:none"
         d="m -2630.4555,-1124.3986 c -1.3274,-3.4592 0.6609,-29.6539 3.1355,-41.3092 4.4005,-20.7263 8.3447,-31.1436 13.8916,-36.6905 9.3626,-9.3626 26.3806,-19.5946 52.0623,-31.3021 l 8.8645,-4.041 -0.5969,8.108 c -0.4482,6.0889 -2.3954,12.7411 -7.8195,26.7138 -3.9724,10.2332 -8.9483,23.8592 -11.0575,30.2799 -2.8604,8.7077 -5.1775,13.3049 -9.1185,18.092 -7.7025,9.3562 -30.1759,25.0602 -42.6404,29.7963 -5.4066,2.0544 -6.055,2.0884 -6.7211,0.3528 l 0,0 z"
         id="path4268"
         inkscape:connector-curvature="0" />
      <path
         style="fill:#0d5eaf;fill-opacity:1;stroke:none"
         d="m -2538.0069,-1160.3597 c -2.0786,-5.4168 4.0331,-31.1675 10.3827,-43.7461 4.1821,-8.2845 9.9527,-12.7605 24.1958,-18.7675 9.113,-3.8434 36.0696,-13.6569 37.5139,-13.6569 2.8983,0 -6.0755,19.1819 -18.0038,38.4838 -9.4112,15.2288 -22.8991,26.5758 -42.7571,35.9702 -8.5863,4.062 -10.3301,4.3262 -11.3315,1.7165 l 0,0 z"
         id="path4270"
         inkscape:connector-curvature="0" />
      <path
         style="fill:#0d5eaf;fill-opacity:1;stroke:none"
         d="m -2463.9968,-1182.4687 c 0,-2.4896 5.1575,-14.0396 9.88,-22.1255 9.6703,-16.5579 20.6617,-25.5268 36.1319,-29.4834 10.1014,-2.5835 25.9964,-4.3761 28.9054,-3.2598 1.8583,0.7131 -2.2198,6.8628 -20.343,30.6763 l -6.0448,7.9428 -13.7614,4.8762 c -7.5688,2.6819 -17.7343,6.5981 -22.5899,8.7027 -9.1731,3.976 -12.1782,4.635 -12.1782,2.6707 z"
         id="path4272"
         inkscape:connector-curvature="0" />
      <path
         style="fill:#0d5eaf;fill-opacity:1;stroke:none"
         d="m -2348.7604,-1188.5095 c -5.7858,-0.7834 -11.8437,-3.522 -14.2775,-6.4546 -1.261,-1.5193 -0.5804,-2.4752 4.2887,-6.0234 8.9123,-6.4947 22.9114,-14.2134 30.3056,-16.7097 5.3142,-1.7941 8.5195,-2.0948 15.6881,-1.472 10.2836,0.8935 38.6149,5.2423 39.4242,6.0515 1.0899,1.09 -41.4585,21.0182 -48.4205,22.6785 -8.8699,2.1153 -19.8461,2.8995 -27.0086,1.9297 z"
         id="path4274"
         inkscape:connector-curvature="0" />
      <path
         style="fill:#0d5eaf;fill-opacity:1;stroke:none"
         d="m -3071.3347,-616.17236 c -0.067,-14.37515 2.8314,-37.1783 6.1494,-48.37576 12.0016,-40.50244 56.6783,-130.12274 84.3755,-169.2546 6.0747,-8.58273 15.2037,-21.64586 20.2867,-29.02925 5.1918,-7.54161 12.1758,-15.95792 15.9373,-19.20608 14.7262,-12.71627 26.6056,-24.57266 40.6716,-40.59279 8.1154,-9.24294 19.533,-21.45943 25.3724,-27.14777 19.1391,-18.64408 49.6465,-45.41356 58.7735,-51.57249 4.9224,-3.3215 16.6299,-12.0863 26.0167,-19.4771 20.985,-16.523 37.4908,-27.7264 57.8687,-39.2787 8.5827,-4.8656 21.8169,-12.6031 29.4093,-17.1944 7.5924,-4.5914 20.5565,-11.7249 28.8091,-15.8524 22.5944,-11.3003 106.8442,-44.5141 142.6407,-56.2333 89.5645,-29.3218 155.9976,-46.9132 162.0637,-42.9142 1.6497,1.0876 0.7092,1.3757 -25.7441,7.8883 -6.6726,1.6427 -24.4982,7.391 -39.6126,12.774 -15.1143,5.3829 -49.0874,17.2265 -75.4958,26.3191 -70.6301,24.3183 -73.5297,25.3666 -99.0314,35.8015 -40.3138,16.4957 -57.7626,24.179 -72.0228,31.7137 -42.1495,22.2707 -86.5106,53.1883 -139.8443,97.46453 -36.1263,29.9912 -54.7301,46.95589 -91.8453,83.75317 l -29.4255,29.17352 -24.3931,37.21179 c -28.321,43.2039 -53.672,89.30046 -65.3551,118.83762 -6.3742,16.11511 -13.5032,44.26606 -16.9527,66.94251 -1.684,11.0702 -3.8362,21.60355 -4.7827,23.4074 -0.9465,1.80387 -4.442,6.25068 -7.7678,9.88182 l -6.0469,6.6021 -0.055,-11.64222 0,0 z"
         id="path4276"
         inkscape:connector-curvature="0" />
      <path
         style="fill:#0d5eaf;fill-opacity:1;stroke:none"
         d="m -3042.1179,-663.76236 c 0.8281,-6.24271 7.5886,-27.3135 10.6839,-33.29914 3.6753,-7.10727 18.4769,-19.99738 29.3076,-25.52281 8.0702,-4.11706 23.9439,-8.21005 42.1734,-10.87419 17.6323,-2.57687 39.324,-7.64252 67.6271,-15.7929 9.0264,-2.59933 16.7315,-4.72606 17.1224,-4.72606 3.4387,0 -33.2774,45.10688 -46.7062,57.38001 -9.219,8.42561 -25.776,20.10303 -35.4305,24.98849 -4.2984,2.17514 -16.188,6.1362 -26.4212,8.80237 -18.1724,4.73466 -19.0779,4.84773 -38.8669,4.85356 l -20.261,0.006 0.7714,-5.81531 z"
         id="path4278"
         inkscape:connector-curvature="0" />
      <path
         style="fill:#0d5eaf;fill-opacity:1;stroke:none"
         d="m -2971.1574,-748.53755 c -0.6602,-0.30404 -7.6547,-1.38163 -15.5434,-2.39462 -7.8887,-1.01301 -14.8357,-2.33458 -15.438,-2.9368 -0.6597,-0.6597 0.2702,-3.60815 2.3392,-7.41717 4.9018,-9.02408 8.1544,-11.47626 57.2201,-43.13973 24.2198,-15.62977 33.9202,-19.32372 69.0827,-26.30727 13.6193,-2.7049 32.5806,-3.3596 32.5806,-1.12498 0,0.73942 -4.5016,6.54627 -10.0036,12.90408 -5.502,6.35783 -15.1507,18.04173 -21.4415,25.96423 -13.2525,16.68994 -24.56,29.59551 -28.9705,33.06478 -5.5687,4.38032 -14.2288,7.41578 -25.9185,9.08469 -11.9323,1.70353 -41.8061,3.27031 -43.9071,2.30279 z"
         id="path4280"
         inkscape:connector-curvature="0" />
      <path
         style="fill:#0d5eaf;fill-opacity:1;stroke:none"
         d="m -2944.5984,-847.44903 -3.4504,-0.75825 7.8626,-9.73349 c 9.4619,-11.71316 16.0896,-17.53271 28.5376,-25.05785 23.6862,-14.31895 49.506,-18.40886 105.8727,-16.77051 24.8519,0.72236 28.35,1.05637 27.0807,2.58579 -2.8727,3.46144 -38.8447,28.52037 -46.5526,32.42974 -19.361,9.81954 -45.9839,15.4116 -81.6893,17.15852 -25.7085,1.25783 -32.4826,1.2841 -37.6613,0.14609 z"
         id="path4282"
         inkscape:connector-curvature="0" />
      <path
         style="fill:#0d5eaf;fill-opacity:1;stroke:none"
         d="m -2826.0017,-921.84246 c -7.8217,-2.6679 -23.5445,-11.66019 -29.1599,-16.67734 -3.6431,-3.255 -4.0643,-4.09686 -2.5599,-5.11728 20.6889,-14.03349 37.9903,-19.74229 64.2203,-21.19028 15.2013,-0.83916 27.2812,1.08072 59.0415,9.38363 l 24.2304,6.33441 -9.5287,3.84397 c -5.2408,2.1142 -15.0641,5.54181 -21.8296,7.61691 -6.7656,2.07513 -16.3742,5.32076 -21.3525,7.21254 -10.6156,4.034 -29.2006,7.95957 -42.646,9.00777 -5.2371,0.4083 -10.6023,0.94963 -11.9227,1.20299 -1.3204,0.25336 -5.1422,-0.47445 -8.4929,-1.61732 z"
         id="path4284"
         inkscape:connector-curvature="0" />
      <path
         style="fill:#0d5eaf;fill-opacity:1;stroke:none"
         d="m -2711.8753,-994.71354 c -33.7371,-10.85146 -43.5935,-14.24976 -48.5238,-16.72976 l -5.3101,-2.6711 5.3101,-3.1084 c 12.6777,-7.4213 48.914,-22.5604 61.073,-25.5156 10.358,-2.5176 19.5016,-1.3759 34.0605,4.2529 5.1689,1.9984 17.7279,5.3419 27.9088,7.4301 10.6992,2.1944 18.5109,4.3682 18.5109,5.1509 0,1.7624 -7.4121,8.7166 -15.0047,14.0778 -12.9433,9.1392 -42.9139,20.26264 -56.4179,20.93927 -7.0573,0.35359 -10.5168,-0.25901 -21.6068,-3.82611 z"
         id="path4286"
         inkscape:connector-curvature="0" />
      <path
         style="fill:#0d5eaf;fill-opacity:1;stroke:none"
         d="m -2635.6512,-1045.0038 c -15.89,-3.2925 -31.2192,-12.4519 -36.8644,-22.027 -1.6719,-2.8357 -2.8217,-5.374 -2.555,-5.6406 0.2666,-0.2666 4.9668,-2.7281 10.4449,-5.47 6.8971,-3.4521 12.0702,-5.1766 16.8209,-5.6073 6.6163,-0.6 7.4074,-0.3392 22.207,7.3216 16.4224,8.5007 25.6277,11.0857 49.9656,14.0312 6.272,0.7591 12.2139,1.6497 13.2042,1.9792 4.8,1.5971 -42.9075,15.1614 -57.6183,16.3822 -4.5453,0.3772 -11.0595,-0.027 -15.6049,-0.9693 l 0,0 z"
         id="path4288"
         inkscape:connector-curvature="0" />
      <path
         style="fill:#0d5eaf;fill-opacity:1;stroke:none"
         d="m -2560.8743,-1080.1041 c -10.7479,-6.0815 -31.5632,-25.1396 -31.5632,-28.8986 0,-1.3674 18.9341,-7.2261 26.6768,-8.2545 4.3713,-0.5805 6.4335,-0.2553 9.0028,1.4199 6.1355,4.0004 38.744,30.6225 38.744,31.6313 0,1.3388 -17.5107,4.6423 -29.4094,5.5482 -7.9781,0.6074 -10.2541,0.3627 -13.451,-1.4463 l 0,0 z"
         id="path4290"
         inkscape:connector-curvature="0" />
      <path
         style="fill:#0d5eaf;fill-opacity:1;stroke:none"
         d="m -2480.3732,-1119.6537 c -7.8634,-3.0524 -13.2386,-6.1393 -18.9606,-10.8888 -4.3923,-3.6458 -7.7848,-7.2322 -7.5389,-7.9699 0.2459,-0.7377 4.4568,-2.5923 9.3576,-4.1214 15.619,-4.8733 22.2346,-2.5478 41.4336,14.5648 l 12.3149,10.9766 -5.6137,0.7951 c -12.7688,1.8086 -19.5904,1.0698 -30.9929,-3.3564 z"
         id="path4292"
         inkscape:connector-curvature="0" />
      <path
         style="fill:#0d5eaf;fill-opacity:1;stroke:none"
         d="m -2407.579,-1146.4509 c -4.2914,-0.4171 -9.693,-1.6052 -12.0038,-2.6403 -4.729,-2.1184 -19.2061,-12.7454 -19.2061,-14.0984 0,-1.2343 12.1185,-4.919 16.1779,-4.919 4.0457,0 11.9195,4.7 24.1322,14.405 8.5177,6.7687 8.8474,7.2019 5.4812,7.2019 -1.9699,0 -4.301,0.1821 -5.1803,0.4045 -0.8792,0.2225 -5.1097,0.063 -9.4011,-0.3537 z"
         id="path4294"
         inkscape:connector-curvature="0" />
      <path
         style="fill:#008000;fill-opacity:1;stroke:none"
         d="m -2374.9507,-1172.0472 c -0.702,-0.8459 -4.0488,-2.5349 -7.4372,-3.7534 -3.3885,-1.2184 -5.7161,-2.6592 -5.1726,-3.2017 1.5515,-1.5485 14.8444,-4.7168 19.5462,-4.6587 5.2782,0.065 15.9371,3.6551 16.5486,5.5735 0.2774,0.8703 -3.3354,2.6217 -9.2857,4.5014 -11.1334,3.517 -12.4401,3.6586 -14.1993,1.5389 l 0,0 z"
         id="path4296"
         inkscape:connector-curvature="0" />
      <path
         style="fill:#008000;fill-opacity:1;stroke:none"
         d="m -2529.7285,-101.77425 c -38.7457,-6.38438 -104.8538,-19.06543 -124.8396,-23.94707 -73.2954,-17.90283 -191.9274,-62.22412 -266.4843,-99.55938 -65.705,-32.90255 -133.6855,-71.33334 -165.8327,-93.74873 -22.0146,-15.35025 -74.3692,-59.83921 -90.8052,-77.16293 l -8.1592,-8.5999 9.9818,-28.04724 c 6.3277,-17.77973 15.0272,-36.04277 23.7641,-49.88827 20.5289,-32.53227 83.7496,-111.94586 118.9805,-149.45515 l 13.9693,-14.87263 19.8636,-2.81964 c 23.0779,-3.27592 30.5549,-1.87514 60.2321,11.28409 33.1817,14.71326 112.4583,55.07272 145.7213,74.18639 17.5642,10.0928 37.3366,20.82366 43.9387,23.84641 11.1708,5.11451 11.504,5.50751 4.8015,5.66279 -8.5801,0.19877 -33.6457,-6.83514 -88.5194,-24.84057 -39.5829,-12.98812 -90.6086,-25.34884 -104.6415,-25.34884 -12.5512,0 -84.3817,69.72575 -120.5794,117.04619 -8.3367,10.89848 -15.5034,18.77841 -15.9258,17.51099 -1.8371,-5.51118 43.0129,-90.60248 64.9949,-123.31108 5.1607,-7.67903 8.8479,-15.35677 8.1936,-17.0616 -1.4098,-3.67396 -16.3365,-6.03594 -27.6071,-4.36852 -6.6554,0.98461 -10.9069,4.85863 -25.3384,23.08908 -48.0983,60.7593 -66.0888,89.00788 -86.8456,136.36414 -7.1327,16.27307 -12.9893,30.74361 -13.0147,32.15669 -0.069,3.82291 51.9596,47.2074 87.3362,72.82648 17.0304,12.33317 49.4407,33.22823 72.0228,46.4335 38.4258,22.47016 133.5204,68.85732 165.8978,80.92493 43.6494,16.26886 91.9731,31.80034 115.2365,37.03756 59.1957,13.32654 97.2319,20.71581 118.8376,23.08659 12.544,1.37644 34.691,4.33732 49.2156,6.57975 55.1836,8.51971 224.4711,3.78842 224.4711,-6.27361 0,-0.97676 -6.9061,-6.84676 -15.347,-13.04445 -23.3201,-17.12287 -61.8236,-64.07789 -89.7323,-109.42881 l -16.8262,-27.34202 3.9746,-8.66938 c 16.5338,-36.06409 34.5137,-60.64315 74.2343,-101.48048 23.0171,-23.66432 36.5716,-35.15509 61.2362,-51.91308 17.4218,-11.83696 40.3187,-25.88312 50.8821,-31.21373 10.5633,-5.33057 23.0869,-13.83977 27.8301,-18.90934 18.2362,-19.49089 69.447,-96.19961 95.9074,-143.65994 24.6402,-44.19553 49.783,-82.44466 85.2184,-129.64106 32.021,-42.64853 97.646,-119.62067 124.3725,-145.87752 20.8499,-20.48359 21.3352,-22.17302 12.0131,-41.81798 -3.7715,-7.94787 -4.5487,-8.36976 -12.945,-7.02714 -18.0112,2.88012 -78.8528,24.02937 -112.727,39.18524 -65.3097,29.22066 -122.0319,105.46966 -165.4972,142.30391 -46.1062,39.07223 -23.0081,15.05597 -84.4779,71.89184 -83.1555,99.55732 -238.1697,96.55813 -240.4535,61.69372 0.1923,-3.4251 1.3347,8.12778 34.4904,6.89284 83.4482,-15.03115 136.8532,-18.51146 160.2328,-46.83201 67.3178,-69.06377 91.2672,-75.18081 143.5255,-121.72489 68.6505,-61.14382 193.9835,-167.14169 271.6177,-185.46469 6.9322,-1.6362 12.604,-3.8983 12.604,-5.027 0,-1.1287 2.5839,0.3295 5.7419,3.2404 3.158,2.9109 10.6923,9.3948 16.7428,14.40861 19.3444,16.02977 19.6397,28.0521 2.1942,89.31516 -7.3228,25.71541 -32.5513,93.05553 -44.9714,120.03799 -4.8623,10.56336 -17.8815,40.27275 -28.9317,66.0209 -11.0501,25.74817 -28.609,63.01996 -39.0197,82.82624 -10.4107,19.80627 -31.6899,60.31909 -47.2869,90.02849 -56.195,107.04061 -59.5449,112.81311 -77.1647,132.96592 -24.3956,27.90271 -52.7135,54.20217 -73.373,68.143 -25.7259,17.35966 -80.4105,48.28378 -118.8812,67.22719 -38.5606,18.98772 -68.7704,37.82687 -67.3958,42.02877 1.5264,4.66618 38.4617,26.67272 75.0197,44.69775 40.0142,19.72915 72.1474,31.90597 108.0303,40.93799 l 26.4045,6.64623 -31.206,7.33983 c -44.9524,10.5731 -66.7402,14.43823 -91.225,16.18316 -11.8837,0.8469 -59.3733,5.23679 -105.5322,9.75531 -74.9995,7.34171 -120.3755,9.500604 -138.1449,6.57261 z m 425.1923,-464.70479 c 1.5551,-2.97093 14.9569,-23.76752 29.7817,-46.21463 26.8278,-40.62144 41.0204,-59.2044 69.6812,-91.23637 14.9077,-16.66119 31.1782,-45.49645 45.2713,-80.2317 10.117,-24.93502 8.4694,-25.34601 -14.894,-3.71516 -21.9177,20.2925 -44.8872,50.84248 -73.0501,97.15854 -24.3818,40.09772 -69.0517,122.11516 -69.0517,126.78437 0,5.00327 9.3235,3.06807 12.2616,-2.54505 z m 123.7405,-242.5231 c 12.0813,-10.86796 28.8266,-25.23925 37.2118,-31.93617 14.7402,-11.77245 15.5156,-12.95166 23.3823,-35.55735 5.1582,-14.82267 7.2988,-24.21877 5.848,-25.66958 -2.9139,-2.91388 -33.3957,23.27338 -48.708,41.84555 -10.4671,12.69555 -38.8107,57.60596 -42.265,66.96882 -2.8064,7.60704 2.2922,4.354 24.5309,-15.65127 z"
         id="path4298"
         inkscape:connector-curvature="0"
         sodipodi:nodetypes="csssscssscsssssssscscssscssssssssscssssssssssssccccscssssssssssscsscssscssssssssccssssc" />
      <path
         style="fill:#008000;fill-opacity:1;stroke:#ffffff;stroke-width:0;stroke-linecap:round;stroke-linejoin:round;stroke-miterlimit:4;stroke-opacity:1;stroke-dasharray:none"
         d="m -2545.3593,-421.32457 c -9.3634,-2.43335 -24.8298,-8.56486 -34.6705,-13.74479 -11.8979,-6.26278 -67.5165,-38.90627 -89.2912,-52.4065 -7.5245,-4.6652 -19.4452,-11.67186 -26.4902,-15.57033 -7.045,-3.89848 -19.0165,-10.52393 -26.6033,-14.72316 -7.5869,-4.19926 -16.2107,-9.15183 -19.1639,-11.0057 -4.9997,-3.13851 -5.1446,-3.3448 -2.1037,-2.99517 12.0865,1.38963 82.7769,23.45345 111.6038,34.83364 38.4968,15.19769 51.9062,18.69373 77.203,20.12795 11.462,0.64983 15.9534,0.41104 23.4466,-1.24668 14.9235,-3.30157 30.2352,-8.82871 48.3306,-17.44618 9.3046,-4.43108 23.9976,-11.12981 32.6512,-14.88606 8.6536,-3.75627 26.7631,-12.39409 40.2434,-19.19515 23.4261,-11.81903 47.8425,-23.24536 49.2655,-23.05519 0.368,0.0491 -2.6903,2.37853 -6.7965,5.17628 -4.106,2.79777 -17.6768,12.29353 -30.157,21.10172 -39.8328,28.11282 -42.4123,29.87291 -61.2382,41.78312 -16.7307,10.58468 -27.2934,16.29516 -46.4791,25.12784 -9.0652,4.17344 -8.9148,5.86288 0.6346,7.12894 9.4755,1.25502 20.0571,0.99107 24.5617,-0.61547 5.3243,-1.89888 29.8564,-13.57913 48.1605,-22.93021 14.4612,-7.38784 20.2676,-11.27396 47.6475,-31.89041 45.0151,-33.89542 54.2135,-40.25578 70.0143,-48.41351 16.0492,-8.28585 31.4117,-15.19503 32.019,-14.40034 0.2248,0.29401 -3.5438,2.59907 -8.3746,5.12235 -10.3818,5.42279 -42.2474,28.92567 -55.1983,40.71226 -9.4233,8.576 -24.9785,24.30286 -45.7848,46.28984 -14.351,15.16552 -28.2469,26.86678 -38.7642,32.64202 -23.4743,12.8901 -52.3771,23.65976 -71.5733,26.6692 -9.7292,1.52528 -13.3584,1.56231 -25.4311,0.25954 -7.7453,-0.83588 -15.6932,-1.93818 -17.6618,-2.44981 l 0,-2e-5 z"
         id="path4300"
         inkscape:connector-curvature="0" />
      <path
         style="fill:#008000;fill-opacity:1;stroke:#ffffff;stroke-width:0;stroke-linecap:round;stroke-linejoin:round;stroke-miterlimit:4;stroke-opacity:1;stroke-dasharray:none"
         d="m -3115.4142,-687.68642 c -5.2816,-1.8927 -15.0047,-5.38274 -21.6068,-7.75566 -14.1955,-5.10212 -41.1763,-13.39076 -65.4207,-20.09753 -31.5957,-8.7404 -31.478,-8.68806 -39.7217,-17.66354 -9.8199,-10.69155 -23.0629,-28.36384 -31.6138,-42.18737 -6.6253,-10.71051 -6.9377,-11.56522 -6.2744,-17.16525 0.8453,-7.13742 10.1855,-35.06063 16.1533,-48.29161 6.3516,-14.08186 25.2744,-46.83629 37.7915,-65.41537 9.6021,-14.25232 39.4553,-54.70437 51.2738,-69.47764 7.7809,-9.72618 47.4036,-40.05421 66.0209,-50.53391 9.4178,-5.3012 48.9903,-23.3706 62.4198,-28.5019 7.2376,-2.7654 31.4201,-10.5958 97.8309,-31.6782 14.5246,-4.6109 37.4356,-11.3443 50.9134,-14.9631 l 24.5049,-6.5796 16.308,0.3327 16.308,0.3327 -4.8016,5.0405 c -4.7037,4.938 -5.437,5.2263 -36.0114,14.162 -62.852,18.3691 -66.1273,19.4611 -157.2497,52.427 -21.2462,7.6864 -59.1206,26.0587 -73.2232,35.5197 -20.7325,13.90855 -39.4963,32.56962 -54.3903,54.09241 -20.7669,30.00957 -55.8975,85.89588 -63.8927,101.64157 -9.9708,19.63646 -21.5397,47.82201 -22.3974,54.56709 -0.459,3.60974 0.3194,5.42933 5.1565,12.054 9.6715,13.24571 17.386,21.45942 28.6591,30.51368 13.9433,11.19887 16.7834,12.82624 31.2408,17.9007 6.6021,2.31731 21.0063,7.46775 32.0094,11.44549 11.003,3.97771 25.8269,8.928 32.9419,11.00063 19.9983,5.82565 23.0665,7.59064 26.4348,15.207 1.5641,3.53661 2.8438,6.68491 2.8438,6.99617 0,1.89846 -13.8343,0.0776 -22.2071,-2.92266 l 0,0 z"
         id="path4302"
         inkscape:connector-curvature="0" />
      <path
         style="fill:#008000;fill-opacity:1;stroke:#ffffff;stroke-width:0;stroke-linecap:round;stroke-linejoin:round;stroke-miterlimit:4;stroke-opacity:1;stroke-dasharray:none"
         d="m -2975.4485,-807.24969 c 4.7667,-6.9393 9.2552,-13.08945 9.9744,-13.66699 0.7193,-0.57753 6.9796,-2.67131 13.9118,-4.65286 6.9322,-1.98156 19.086,-5.58847 27.0086,-8.01535 12.2087,-3.7399 17.1493,-4.59101 32.4102,-5.58312 40.7322,-2.64802 52.6415,-6.72814 87.9873,-30.14437 26.0342,-17.24738 39.4693,-27.02156 40.3705,-29.37009 0.9332,-2.43184 -1.0808,-4.80073 -6.4024,-7.5309 l -4.2556,-2.18327 13.7731,-8.97035 c 16.404,-10.68382 20.7063,-12.91638 31.7788,-16.49094 10.7405,-3.46739 27.3264,-11.45864 30.0665,-14.48641 2.0191,-2.2311 2.0193,-2.4443 0,-4.67089 -1.1612,-1.28318 -3.5407,-2.53616 -5.2876,-2.7844 -2.9663,-0.42148 -2.2561,-1.36137 10.743,-14.21691 l 13.9192,-13.76561 12.0467,-3.94549 c 17.5675,-5.75371 39.299,-16.67936 46.9698,-23.61446 11.3886,-10.2962 14.9938,-18.8564 9.5479,-22.6708 -1.4456,-1.0126 -2.3909,-2.0425 -2.1006,-2.2887 0.2902,-0.2462 5.3893,-1.63 11.3311,-3.075 18.2403,-4.4359 44.4811,-13.2978 50.2967,-16.9859 7.7571,-4.9194 7.3736,-9.2625 -0.9948,-11.2677 -1.9332,-0.4633 -13.4688,-1.8551 -25.6348,-3.0931 -12.1659,-1.238 -22.4371,-2.5681 -22.8248,-2.9558 -0.7954,-0.7949 12.9314,-15.0468 14.4919,-15.0468 0.5528,0 4.3509,2.7144 8.4402,6.032 11.4245,9.2686 17.7046,11.9747 27.7771,11.9689 17.4583,-0.011 41.4025,-5.7435 43.1648,-10.3361 0.9954,-2.594 -6.6897,-10.3739 -22.091,-22.3634 -7.5939,-5.9117 -13.9775,-11.2058 -14.1857,-11.7647 -0.5862,-1.5732 24.8139,-16.6915 28.1138,-16.7335 0.7298,-0.01 4.8677,3.2276 9.1953,7.1932 7.0013,6.4153 12.3194,9.6453 25.782,15.6585 l 3.8939,1.7393 -6.7136,8.4026 c -13.1395,16.4453 -21.4117,33.5736 -27.0446,55.9982 -2.5212,10.037 -2.8104,13.8237 -2.7364,35.8309 0.079,23.56652 0.2407,25.20532 3.8133,38.72903 6.423,24.31378 23.9622,54.64401 42.239,73.04298 18.1405,18.26186 47.6638,38.33049 67.2813,45.73489 l 9.0028,3.39801 -6.0019,-0.73161 c -3.301,-0.40237 -14.6446,-2.88564 -25.2079,-5.51839 -16.5556,-4.12617 -21.886,-6.10046 -38.6246,-14.30558 -19.0343,-9.33042 -23.162,-12.0732 -56.3967,-37.47397 -8.9568,-6.84557 -24.6266,-14.4884 -35.22,-17.17837 -9.2649,-2.35262 -27.8489,-1.67697 -38.4121,1.39651 -3.6312,1.05655 -18.6554,7.33638 -33.387,13.95519 -14.7318,6.61882 -27.0354,11.78383 -27.3414,11.47782 -0.306,-0.30602 1.3609,-2.01876 3.7042,-3.8061 5.8489,-4.46115 38.9406,-41.13339 47.7376,-52.90274 15.8026,-21.14209 32.3956,-64.73807 25.6283,-67.33497 -2.7304,-1.0477 -4.3155,0.5292 -13.8194,13.7487 -24.146,33.58597 -72.1861,85.13626 -93.7512,100.60141 -17.1002,12.26317 -58.6205,37.61163 -61.6072,37.61163 -0.6109,0 9.3546,-10.94608 22.1456,-24.32463 34.6348,-36.22571 38.2612,-40.1678 38.2612,-41.59236 0,-0.71736 -0.6269,-1.30429 -1.393,-1.30429 -2.1109,0 -17.6617,10.83851 -36.4864,25.43021 -34.2561,26.55303 -45.2307,33.67659 -78.484,50.94361 l -31.8824,16.55515 -18.0062,0.10685 c -17.0002,0.10088 -19.0796,0.38294 -37.2124,5.04639 -32.6059,8.38565 -43.6439,13.17367 -63.2526,27.43728 -5.7397,4.17516 -11.9626,8.38068 -13.8286,9.34563 -3.105,1.60564 -15.2907,4.37886 -19.241,4.37886 -0.9567,0 1.9946,-5.30783 7.0153,-12.61693 z"
         id="path4304"
         inkscape:connector-curvature="0" />
      <path
         style="fill:#008000;fill-opacity:1;stroke:#ffffff;stroke-width:0;stroke-linecap:round;stroke-linejoin:round;stroke-miterlimit:4;stroke-opacity:1;stroke-dasharray:none"
         d="m -2354.9734,-864.97436 c -27.7144,-2.39941 -33.1033,-3.94037 -52.2667,-14.94559 -24.4857,-14.06169 -40.9903,-26.91 -48.495,-37.75175 -6.4763,-9.35623 -21.7193,-46.98228 -24.0834,-59.4479 -1.665,-8.77979 -1.4862,-22.67688 0.5665,-44.0133 2.0336,-21.1392 3.7942,-29.5018 9.1699,-43.5579 4.4869,-11.732 5.5907,-11.2261 3.006,1.3777 -7.5722,36.9249 1.4666,86.83332 22.681,125.23493 5.667,10.25817 28.4335,34.55099 39.6059,42.26125 11.2691,7.7769 35.7239,17.42106 52.8167,20.82912 12.8948,2.57103 39.3155,-0.83562 61.9601,-7.98904 5.328,-1.68312 9.8767,-2.87072 10.1083,-2.63911 0.599,0.59894 -30.4044,17.07047 -35.4568,18.83757 -4.2714,1.49396 -29.7771,2.65553 -39.6125,1.80402 z"
         id="path4306"
         inkscape:connector-curvature="0" />
      <path
         style="fill:#008000;fill-opacity:1;stroke:#ffffff;stroke-width:0;stroke-linecap:round;stroke-linejoin:round;stroke-miterlimit:4;stroke-opacity:1;stroke-dasharray:none"
         d="m -2155.19,-941.07912 c 1.224,-5.04187 2.2835,-35.28727 1.4009,-39.99197 -0.4824,-2.57128 -1.5264,-4.42209 -2.4943,-4.42209 -0.9156,0 -5.6784,4.72651 -10.584,10.50334 -12.6157,14.8563 -32.0566,32.96188 -32.0566,29.85469 0,-0.29663 3.6219,-6.93273 8.0487,-14.74687 4.4269,-7.81416 9.5118,-17.79487 11.2999,-22.17939 7.4199,-18.19439 12.0621,-45.44509 7.7416,-45.44509 -0.9454,0 -4.3215,4.3773 -7.5024,9.7273 -11.4131,19.19593 -24.056,34.4862 -39.3941,47.64313 -19.0459,16.33749 -21.81,17.58642 -45.6144,20.61052 -10.5634,1.34195 -20.5565,2.4044 -22.2071,2.36098 l -3.0009,-0.0789 3.0009,-1.29265 c 13.4277,-5.7839 19.0842,-9.05432 30.6097,-17.69775 15.7308,-11.79707 27.6583,-23.14926 34.9408,-33.25537 17.2229,-23.90106 23.6509,-57.27766 15.8037,-82.05946 -1.7814,-5.6255 -5.1319,-12.8908 -7.4455,-16.145 -4.5851,-6.4491 -4.7146,-7.593 -0.6108,-5.3967 2.5808,1.3812 2.6511,1.2839 1.8792,-2.6036 -0.4411,-2.2211 -3.3569,-8.2924 -6.4795,-13.4917 -8.3991,-13.9848 -17.5622,-21.7415 -41.0902,-34.784 -18.4389,-10.2214 -19.6703,-11.1176 -17.8184,-12.9681 1.8517,-1.8504 2.4332,-1.7813 8.4041,0.9976 3.5281,1.6421 10.466,3.7094 15.4176,4.594 4.9515,0.8847 18.1308,4.8921 29.2871,8.9055 11.1564,4.0134 21.2846,7.297 22.5072,7.297 3.4596,0 2.6219,-3.1826 -1.6784,-6.3761 -23.9756,-17.8053 -65.0497,-29.5026 -104.4202,-29.7373 -16.0789,-0.096 -16.7539,-0.1913 -11.1164,-1.5716 3.301,-0.8082 11.6737,-4.086 18.6059,-7.2841 7.0162,-3.2369 14.9987,-6.038 18.0057,-6.3183 13.1428,-1.2252 51.398,14.3449 82.226,33.4664 72.3822,44.896 93.6625,54.8864 136.4992,64.0818 62.6656,13.4519 138.1269,33.985 153.682,41.8171 13.0377,6.5645 14.8318,9.498 14.4072,23.5575 -0.3603,11.9271 -1.5679,18.2309 -3.624,18.9163 -0.8083,0.2694 -1.4696,-0.3464 -1.4696,-1.3685 0,-3.014 -4.3732,-4.5483 -10.549,-3.7011 -3.1109,0.4268 -13.1244,2.6665 -22.2524,4.9773 -9.1279,2.3107 -16.9154,3.8821 -17.3054,3.492 -0.3901,-0.39 -0.01,-0.7092 0.8524,-0.7092 0.8589,0 6.4857,-2.339 12.5039,-5.1978 11.0644,-5.2559 18.733,-11.8641 21.1524,-18.2274 2.2752,-5.9842 -2.4057,-12.4299 -12.9829,-17.878 -5.1243,-2.6395 -44.264,-16.6734 -59.0467,-21.1718 -17.2749,-5.2568 -67.2797,-16.3331 -92.3464,-20.4551 -31.0493,-5.1058 -44.5762,-10.1788 -71.5055,-26.8172 -16.0777,-9.9336 -21.585,-8.9293 -11.5854,2.1126 6.8656,7.5811 13.1662,16.6842 21.0727,30.4453 7.7192,13.4351 14.7502,19.2628 28.0246,23.2286 2.8059,0.8383 5.1016,1.703 5.1016,1.9217 0,0.2187 -4.366,4.5689 -9.7021,9.667 -14.6641,14.0099 -14.003,12.4759 -15.4621,35.8789 -1.7449,27.98772 -3.3364,38.93056 -7.4911,51.50749 -4.1612,12.59672 -15.7601,34.54421 -13.6392,25.80816 l 0,0 z"
         id="path4308"
         inkscape:connector-curvature="0" />
      <path
         style="fill:#008000;fill-opacity:1;stroke:#ffffff;stroke-width:0;stroke-linecap:round;stroke-linejoin:round;stroke-miterlimit:4;stroke-opacity:1;stroke-dasharray:none"
         d="m -2328.357,-1077.2384 c -6.8064,-2.2089 -13.5458,-6.9566 -16.1622,-11.3858 l -2.0994,-3.5541 5.1255,-6.2309 c 2.8191,-3.427 7.3232,-7.8072 10.0092,-9.734 4.6972,-3.3694 5.5216,-3.5274 21.6068,-4.1413 15.5384,-0.593 17.0048,-0.4595 20.6967,1.8834 8.8593,5.6224 8.8263,15.8374 -0.076,23.4572 -11.0234,9.4356 -27.4038,13.5015 -39.1008,9.7055 l 0,0 z m 26.2792,-6.7282 c 3.374,-1.8057 2.9629,-5.753 -0.6947,-6.671 -3.436,-0.8624 -6.5865,1.175 -6.5865,4.2594 0,3.7706 2.9292,4.7408 7.2812,2.4116 z m -29.5758,-3.0426 c 3.7734,-3.7733 3.928,-11.3197 0.232,-11.3197 -2.2651,0 -7.9469,6.7887 -7.9469,9.4951 0,4.0986 4.4003,5.1392 7.7149,1.8246 z m 14.5467,-1.0619 c 1.6205,-1.6205 2.9464,-3.4987 2.9464,-4.1737 0,-2.1656 -5.7376,-5.0707 -9.2253,-4.6708 -2.8594,0.3277 -3.4378,1.0045 -3.7634,4.4028 -0.2115,2.2085 -0.093,4.7743 0.2625,5.7018 1.0263,2.6745 6.558,1.9617 9.7798,-1.2601 z"
         id="path4310"
         inkscape:connector-curvature="0" />
      <path
         style="fill:#008000;fill-opacity:1;stroke:#ffffff;stroke-width:0;stroke-linecap:round;stroke-linejoin:round;stroke-miterlimit:4;stroke-opacity:1;stroke-dasharray:none"
         d="m -2457.74,-1140.2483 c -4.0159,-3.2495 -9.0641,-6.9799 -11.2181,-8.2898 -3.5713,-2.1718 -3.7197,-2.4867 -1.6839,-3.5719 3.7489,-1.9983 17.4753,-6.2379 20.1965,-6.2379 2.5176,0 15.3295,8.5691 18.4253,12.3235 1.3828,1.6771 0.492,2.5162 -7.2023,6.7831 -4.8292,2.6781 -9.3284,4.8764 -9.9981,4.8851 -0.6698,0.01 -4.5035,-2.6427 -8.5194,-5.8921 l 0,0 z"
         id="path4312"
         inkscape:connector-curvature="0" />
      <path
         style="fill:#008000;fill-opacity:1;stroke:#ffffff;stroke-width:0;stroke-linecap:round;stroke-linejoin:round;stroke-miterlimit:4;stroke-opacity:1;stroke-dasharray:none"
         d="m -2402.1984,-1165.9804 -9.2408,-6.4321 6.1645,-2.5618 6.1644,-2.5618 4.9631,3.8058 c 2.7296,2.0932 5.3967,4.1704 5.9269,4.6161 0.7608,0.6397 -3.4099,9.5659 -4.4696,9.5659 -0.1472,0 -4.426,-2.8944 -9.5085,-6.4321 z"
         id="path4314"
         inkscape:connector-curvature="0" />
      <path
         style="fill:#008000;fill-opacity:1;stroke:#ffffff;stroke-width:0;stroke-linecap:round;stroke-linejoin:round;stroke-miterlimit:4;stroke-opacity:1;stroke-dasharray:none"
         d="m -2752.6257,-1119.0355 c -0.3569,-4.7865 -0.2945,-9.0618 0.1389,-9.5006 0.4333,-0.4389 3.8938,-1.1763 7.69,-1.6388 l 6.9022,-0.8409 0,4.7723 c 0,2.6248 0.3435,7.2785 0.7633,10.3415 l 0.7634,5.5693 -7.8043,0 -7.8044,0 -0.649,-8.7028 z"
         id="path4316"
         inkscape:connector-curvature="0" />
      <path
         style="fill:#008000;fill-opacity:1;stroke:none"
         d="m -2891.0935,-1084.8456 10e-5,-0.3894 8.9464,-2.6204 c 14.7439,-4.3186 20.2931,-5.99 24.1763,-7.2817 6.4269,-2.1379 8.8179,-3.3544 11.308,-5.753 1.2749,-1.228 6.1445,-6.3858 6.0804,-6.4403 -0.032,-0.027 -7.4008,-0.1922 -16.3755,-0.3669 l -16.3177,-0.3176 -8.8903,2.3965 -8.8904,2.3964 -0.023,-0.2985 c -0.013,-0.1642 -0.013,-0.3087 0,-0.3212 0.05,-0.048 10.1857,-2.8967 15.2533,-4.2864 14.7392,-4.0422 26.7613,-7.0063 33.09,-8.1586 5.0352,-0.9168 7.7829,-1.1012 8.237,-0.5528 0.4568,0.5516 -0.6257,2.5772 -3.8393,7.1843 -4.6954,6.7314 -8.8261,11.5811 -10.5513,12.3879 -0.1665,0.078 -1.9742,0.6333 -4.0167,1.2341 -7.3619,2.1654 -35.59,10.7164 -37.8682,11.4713 l -0.3189,0.1055 1e-4,-0.3893 0,0 z"
         id="path4318"
         inkscape:connector-curvature="0" />
      <path
         style="fill:#008000;fill-opacity:1;stroke:none"
         d="m -1957.4151,-1040.8638 c 2.2998,-1.7676 13.831,-7.3254 15.8872,-7.6573 1.3447,-0.217 2.9177,0.2522 5.71,1.7036 2.1197,1.1017 3.9665,2.3446 4.1041,2.7619 0.6348,1.9253 -11.2007,4.3453 -21.1623,4.3271 -5.988,-0.011 -5.9985,-0.013 -4.539,-1.1353 z"
         id="path4320"
         inkscape:connector-curvature="0" />
      <path
         style="fill:#008000;fill-opacity:1;stroke:none"
         d="m -3033.5283,-785.72012 c -2.769,-0.0437 -2.8124,-0.0493 -2.8834,-0.37863 -0.04,-0.18384 -0.2461,-1.5497 -0.4588,-3.03516 -0.5195,-3.62773 -1.1454,-6.69064 -1.8105,-8.85964 -0.7054,-2.30059 -0.7383,-2.97803 -0.1668,-3.43393 0.2321,-0.18511 0.7795,-0.44918 1.2164,-0.58693 1.0059,-0.31706 5.0042,-0.99889 5.8577,-0.99889 1.7461,0 2.4802,0.83366 6.5182,7.40166 3.3635,5.47081 5.0777,9.05277 4.5735,9.55689 -0.3864,0.38643 -3.846,0.47656 -12.8463,0.33463 z"
         id="path4322"
         inkscape:connector-curvature="0" />
      <path
         style="fill:#008000;fill-opacity:1;stroke:none"
         d="m -2668.77,-1108.665 c 3.8519,-3.9469 6.1704,-5.1782 9.7271,-5.1656 4.2052,0.015 4.7024,0.8025 1.7022,2.6964 -3.1522,1.99 -9.7476,4.8126 -12.5963,5.391 l -2.1007,0.4265 3.2677,-3.3483 z"
         id="path4324"
         inkscape:connector-curvature="0" />
    </g>
  </g>
</svg>
