<?xml version="1.0" encoding="UTF-8" standalone="no"?>
<svg
   xmlns:dc="http://purl.org/dc/elements/1.1/"
   xmlns:cc="http://creativecommons.org/ns#"
   xmlns:rdf="http://www.w3.org/1999/02/22-rdf-syntax-ns#"
   xmlns:svg="http://www.w3.org/2000/svg"
   xmlns="http://www.w3.org/2000/svg"
   id="svg12"
   viewBox="0 0 52.916666 52.916666"
   version="1.1"
   height="2000"
   width="2000">
  <defs
     id="defs16" />
  <metadata
     id="metadata2">
    <rdf:RDF>
      <cc:Work
         rdf:about="">
        <dc:format>image/svg+xml</dc:format>
        <dc:type
           rdf:resource="http://purl.org/dc/dcmitype/StillImage" />
        <dc:title></dc:title>
      </cc:Work>
    </rdf:RDF>
  </metadata>
  <path
     id="path875"
     d="m 40.312636,52.498605 c -0.683489,-0.239857 -1.668367,-0.955468 -2.27627,-1.653938 -0.96163,-1.104896 -1.641174,-1.446627 -6.626136,-3.332186 l -5.554614,-2.101035 -4.905013,1.835516 c -4.386114,1.641336 -5.05631,1.986816 -6.33525,3.26576 -0.892281,0.892276 -1.80872,1.505939 -2.43645,1.631486 C 9.4070234,52.698581 6.4494304,51.978541 5.407273,50.495613 5.1327346,50.104971 4.7638239,49.243212 4.58746,48.580597 4.4111056,47.917985 4.0046258,47.092597 3.6841718,46.746402 3.363727,46.400208 2.9835669,45.70562 2.8393838,45.202874 2.5254587,44.108284 2.9254467,41.687658 3.5871008,40.677844 4.02335,40.012039 4.0022516,39.854022 3.2848144,38.41433 2.7012568,37.24328 2.5135416,36.402152 2.5135416,34.958329 c 0,-2.415249 0.5234249,-3.663349 2.0511971,-4.891105 0.6664766,-0.535591 1.2878629,-1.276992 1.3808719,-1.647559 0.4521172,-1.801373 2.8675231,-3.46264 5.0535184,-3.475709 l 1.106472,-0.0066 -1.031176,-2.379517 C 10.318825,20.814211 10.044973,19.7477 10.049702,18.56707 10.061658,15.579742 10.89679,6.28733 11.42399,3.2751603 L 11.947183,0.28592709 14.534176,0.0666812 c 4.148014,-0.35154337 9.8151,0.69005937 16.595929,3.050311 5.815253,2.0241561 8.241985,3.6337694 9.899614,6.5662572 1.129868,1.9988276 2.890568,6.7549156 3.377016,9.1221556 0.331665,1.614006 0.315724,2.018046 -0.125183,3.172543 -0.749759,1.963209 -0.65714,2.50908 0.546174,3.219052 1.067857,0.630052 2.255411,2.231504 2.264242,3.053398 0.0026,0.248481 0.474364,0.755895 1.04821,1.127587 1.499572,0.971308 2.263701,2.651391 2.255642,4.95947 -0.0067,1.902487 -0.704603,4.012337 -1.686103,5.096879 -0.307778,0.340091 -0.349724,0.567558 -0.129727,0.703524 0.62916,0.388845 1.489699,2.496974 1.553598,3.805984 0.07693,1.575973 -0.208146,2.612851 -0.943593,3.431993 -0.297457,0.331306 -0.700278,1.202805 -0.895161,1.936668 -0.442159,1.665004 -1.682466,2.854013 -3.438361,3.296151 -1.756189,0.442212 -3.060076,0.41063 -4.543837,-0.11006 z"
     style="fill:#173f4f;fill-opacity:1;stroke-width:0.30118799" />
  <g
     style="fill:#ffffff;stroke:none"
     id="g10"
     transform="matrix(1.0038331,0,0,1.0038331,-23.801903,205.07023)">
    <path
       id="path4"
       style="stroke:none;paint-order:fill markers stroke"
       d="m 39.048,-200.5 -0.10443,0.0318 -0.0402,0.0895 c 0,0 -0.55772,3.158 -0.56326,3.471 -0.46978,5.4734 -0.69586,9.1015 -0.76519,11.83 0.99382,2.7736 2.5591,5.3258 2.5525,6.1874 -0.0023,0.45169 -0.22448,2.4786 -1.1704,3.9148 0.53469,0.96174 1.1409,0.97245 2.5659,1.131 1.398,0.15987 2.9919,0.34321 4.6369,0.38007 4.5956,0.0269 9.5405,-0.81643 12.592,-2.1569 1.973,-0.86978 2.6681,-1.2808 3.4578,-2.003 0.28472,-0.23477 0.43446,-0.62673 0.58683,-1.0337 l 0.10397,-0.2749 c 0.1279,-0.32869 0.31187,-1.0359 0.39414,-1.4216 0.0367,-0.16884 0.05432,-0.3503 -0.06468,-0.44421 l -0.42603,0.0807 c -0.26911,0.11202 -0.54831,0.21911 -0.83219,0.3238 l -0.47916,0.17205 c -0.50115,0.17311 0.02305,0.0216 -0.51231,0.17346 l -0.2715,0.83093 -0.75179,-0.52813 c -0.5206,0.13801 -1.0523,0.26726 -1.5951,0.38561 l -0.55772,0.11993 c -0.70134,0.14231 -1.416,0.26855 -2.1385,0.37733 l -0.60208,0.89388 -0.59607,-0.72326 c -0.57069,0.0769 -0.62569,0.0735 -1.1995,0.12869 l -0.65567,0.059 c -0.46888,0.0383 -0.937,0.0704 -1.4024,0.0936 l -0.50782,0.77308 -0.5228,-0.75001 c -0.56344,0.0214 -0.59988,0.0333 -1.1504,0.0318 l -0.44821,-0.006 c -0.56757,-0.008 -0.86408,-0.0256 -1.4087,-0.0595 l -0.65217,0.93361 -0.59146,-1.0291 c -0.78028,-0.058 -0.9396,-0.0694 -1.6491,-0.18357 l -0.41818,-0.0706 c -0.16838,-0.0305 -0.33498,-0.062 -0.49811,-0.096 l -0.13076,-1.589 c 0.21108,0.0131 0.41845,0.0289 0.62887,0.0429 l 0.41817,-0.80258 0.50696,0.86236 c 0.75184,0.0512 0.99061,0.0731 1.7336,0.12334 l 0.38814,0.0264 c 0.56053,0.0368 1.1175,0.0692 1.6727,0.0973 l 0.44821,-0.81091 0.40134,0.83351 c 0.56077,0.0251 0.71684,0.0417 1.2718,0.0503 l 0.50782,0.005 c 0.45082,0.002 0.89921,-0.005 1.346,-0.0194 l 0.62981,-0.76057 0.44926,0.71231 c 0.54672,-0.0282 0.66738,-0.0518 1.2077,-0.11176 l 0.68202,-0.0858 c 0.70909,-0.0993 1.4125,-0.23128 2.1098,-0.40269 l 0.47732,-0.80953 0.48907,0.52671 c 0.43995,-0.12234 0.4654,-0.12572 0.90038,-0.28315 l 0.53138,-0.20433 c 0.51368,-0.20511 1.0235,-0.43863 1.5299,-0.70021 l 0.95523,-0.56215 c 0.54029,-0.30014 0.58025,-0.31779 1.1116,-0.69385 0.25915,-0.17777 0.45713,-0.31746 0.53831,-0.34733 0.10977,-0.12396 0.07296,-0.23627 0.04772,-0.36543 -0.3654,-1.7846 -2.3381,-8.0651 -3.8404,-9.6264 -0.43599,-0.44831 -0.78292,-0.88489 -1.4869,-1.3008 -5.6922,-3.3355 -19.208,-5.3439 -19.84,-5.4367 z m 1.882,2.1495 c 0.16004,0.007 0.3394,0.037 0.53415,0.0738 1.9592,0.37109 5.4367,1.1737 7.0087,1.3866 0.41792,0.037 0.45544,0.44782 0.18483,0.69374 -3.4445,4.0272 -5.2221,6.5962 -6.895,11.673 -0.25233,0.44274 -0.7286,0.3786 -0.92321,-0.0978 -1.4239,-3.9196 -1.3092,-8.4125 -0.69957,-13.081 0.08502,-0.46688 0.3105,-0.62534 0.63673,-0.64668 0.04894,-0.003 0.10006,-0.003 0.15341,-0.001 z m 12.936,3.6015 c 0.09591,-0.003 0.19271,-0.003 0.28926,0 3.1886,0.11517 5.694,2.8151 5.585,6.0181 -0.05673,1.5492 -0.70657,2.9807 -1.8321,4.0384 -1.1289,1.0632 -2.5958,1.6177 -4.1461,1.5674 -3.1831,-0.11964 -5.6885,-2.8196 -5.585,-6.0181 0.0545,-1.5518 0.70776,-2.9924 1.84,-4.0467 1.0573,-0.99674 2.4103,-1.5374 3.849,-1.5591 z m 8.0442,8.1478 c 0.04358,0.003 0.08439,0.0139 0.12199,0.0314 0.36467,0.17022 0.35743,0.95402 -0.01618,1.7505 -0.3735,0.79634 -0.9718,1.3038 -1.3363,1.1333 -0.36436,-0.17061 -0.3569,-0.9543 0.01663,-1.7505 0.32903,-0.70144 0.8414,-1.193 1.2139,-1.1647 z" />
    <path
       style="stroke:none"
       id="path6"
       d="m 65.375,-176.04 c -2.5209,0.0321 -4.3207,1.3411 -3.7861,4.5525 l -11.584,4.5798 4.3115,1.7556 9.7682,-3.6726 c 2.4039,2.9677 5.6545,2.381 5.8942,-0.85896 0.24474,-3.3085 -1.6261,-1.7993 -2.7105,-2.7916 -0.85654,-0.78382 0.51304,-3.5954 -1.893,-3.5647 z m -20.908,11.444 -8.9509,3.4167 c -1.6957,-1.3553 -4.2094,-2.4534 -5.1097,-0.26293 -0.74864,1.8215 0.47904,1.1725 1.7382,2.5794 0.93558,1.0454 -0.88268,2.3261 0.21477,2.6134 1.5076,0.39458 3.7436,0.61558 3.434,-1.9382 l 12.872,-4.7929 z" />
    <path
       style="stroke:none"
       id="path8"
       d="m 64.484,-160.67 -26.072,-10.308 c 0.53464,-3.2114 -1.2652,-4.5205 -3.7861,-4.5525 -2.4061,-0.0306 -1.0365,2.7809 -1.893,3.5647 -1.0844,0.99233 -2.9552,-0.51683 -2.7105,2.7917 0.23968,3.24 3.4904,3.8267 5.8942,0.85896 l 28.29,10.636 c -0.30964,2.5538 1.9264,2.3328 3.434,1.9383 1.0975,-0.28723 -0.72084,-1.568 0.21475,-2.6134 1.2592,-1.4069 2.4869,-0.75796 1.7382,-2.5794 -0.9003,-2.1905 -3.414,-1.0924 -5.1097,0.26289 z" />
  </g>
</svg>
