<?xml version="1.0" encoding="UTF-8" standalone="no"?>
<svg
   xmlns:dc="http://purl.org/dc/elements/1.1/"
   xmlns:cc="http://creativecommons.org/ns#"
   xmlns:rdf="http://www.w3.org/1999/02/22-rdf-syntax-ns#"
   xmlns:svg="http://www.w3.org/2000/svg"
   xmlns="http://www.w3.org/2000/svg"
   xmlns:sodipodi="http://sodipodi.sourceforge.net/DTD/sodipodi-0.dtd"
   xmlns:inkscape="http://www.inkscape.org/namespaces/inkscape"
   style="fill:#ffffff"
   width="87.623772"
   height="94.180695"
   version="1.1"
   id="svg6"
   sodipodi:docname="banner-you-took-the-leap2.svg"
   inkscape:version="0.92.2 5c3e80d, 2017-08-06">
  <sodipodi:namedview
     pagecolor="#ffffff"
     bordercolor="#666666"
     borderopacity="1"
     objecttolerance="10"
     gridtolerance="10"
     guidetolerance="10"
     inkscape:pageopacity="0"
     inkscape:pageshadow="2"
     inkscape:window-width="1920"
     inkscape:window-height="1200"
     id="namedview88"
     showgrid="false"
     showguides="true"
     inkscape:guide-bbox="true"
     inkscape:zoom="2.8284271"
     inkscape:cx="131.96663"
     inkscape:cy="214.08325"
     inkscape:window-x="0"
     inkscape:window-y="0"
     inkscape:window-maximized="1"
     inkscape:current-layer="svg6">
    <sodipodi:guide
       position="258.70964,274.05682"
       orientation="1,0"
       id="guide269"
       inkscape:locked="false" />
    <sodipodi:guide
       position="-38.367955,106.33405"
       orientation="0,1"
       id="guide271"
       inkscape:locked="false" />
    <sodipodi:guide
       position="368.02657,242.50681"
       orientation="0,1"
       id="guide528"
       inkscape:locked="false" />
  </sodipodi:namedview>
  <metadata
     id="metadata12">
    <rdf:RDF>
      <cc:Work
         rdf:about="">
        <dc:format>image/svg+xml</dc:format>
        <dc:type
           rdf:resource="http://purl.org/dc/dcmitype/StillImage" />
        <dc:title></dc:title>
      </cc:Work>
    </rdf:RDF>
  </metadata>
  <defs
     id="defs10" />
  <rect
     style="opacity:1;fill:#173f4f;fill-opacity:1;fill-rule:evenodd;stroke:none;stroke-width:1.05617023;stroke-linecap:round;stroke-linejoin:round"
     id="rect1019"
     width="530"
     height="272.53455"
     x="-5.983614"
     y="-148.51337"
     ry="2.0964196" />
  <path
     style="fill:#73ba25;fill-opacity:1;stroke:none;stroke-width:2.45940566px;stroke-linecap:butt;stroke-linejoin:miter;stroke-opacity:1"
     d="m 227.75442,-69.973209 h 5.20738 l 23.43318,20.908078 h -5.20737 z"
     id="path920-7"
     inkscape:connector-curvature="0" />
  <path
     style="fill:#173f4f;fill-opacity:1;stroke:none;stroke-width:2.45940566px;stroke-linecap:butt;stroke-linejoin:miter;stroke-opacity:1"
     d="m 232.9618,-69.973209 h 5.20737 l 23.43319,20.908078 h -5.20738 z"
     id="path920-6-0"
     inkscape:connector-curvature="0" />
  <path
     style="opacity:1;fill:#ffcc00;fill-opacity:1;fill-rule:evenodd;stroke:none;stroke-width:1.7940104;stroke-linecap:round;stroke-linejoin:round"
     d="m 251.18761,-51.388249 c -2.88488,0 -5.20737,2.072221 -5.20737,4.646239 v 2.32312 c 0,2.574016 2.32249,4.646239 5.20737,4.646239 h 15.62212 c 2.88488,0 5.20738,-2.072223 5.20738,-4.646239 v -2.32312 c 0,-2.574018 -2.3225,-4.646239 -5.20738,-4.646239 z m 0,2.323118 h 15.62212 c 1.44244,0 2.60368,1.036112 2.60368,2.323121 v 2.32312 c 0,1.287007 -1.16124,2.323119 -2.60368,2.323119 h -15.62212 c -1.44245,0 -2.60369,-1.036112 -2.60369,-2.323119 v -2.32312 c 0,-1.287009 1.16124,-2.323121 2.60369,-2.323121 z"
     id="rect1003"
     inkscape:connector-curvature="0" />
  <path
     style="fill:#73ba25;fill-opacity:1;stroke:none;stroke-width:2.45940566px;stroke-linecap:butt;stroke-linejoin:miter;stroke-opacity:1"
     d="m 238.16917,-69.973209 h 5.20738 l 23.43318,20.908078 h -5.20737 z"
     id="path920-2-9"
     inkscape:connector-curvature="0" />
  <path
     style="fill:#73ba25;fill-opacity:1;stroke:none;stroke-width:2.45940566px;stroke-linecap:butt;stroke-linejoin:miter;stroke-opacity:1"
     d="m 285.03554,-69.973209 -23.43318,20.908078 h 5.20737 l 23.43318,-20.908078 z"
     id="path920-9-3"
     inkscape:connector-curvature="0" />
  <path
     style="fill:#d4aa00;stroke-width:1.88687038"
     id="path4-7-5"
     d="m 258.99867,-49.065131 a 5.3163231,4.7434495 0 0 0 -3.01975,0.995588 l -25.98004,18.059826 a 5.3163231,4.7434495 0 0 0 -2.01707,4.257356 5.3163231,4.7434495 0 0 0 -0.91684,0.51172 l -6.89394,4.776035 a 5.3163231,4.7434495 0 0 0 0.0273,7.508683 l 36.10051,24.684313 a 5.3163231,4.7434495 0 0 0 6.49988,-0.02089 l 35.81179,-24.858364 a 5.3163231,4.7434495 0 0 0 -0.0235,-7.501722 l -7.327,-5.030154 a 5.3163231,4.7434495 0 0 0 -0.89344,-0.494313 5.3163231,4.7434495 0 0 0 -2.05218,-4.239952 L 262.4788,-48.090429 a 5.3163231,4.7434495 0 0 0 -3.48013,-0.974702 z"
     inkscape:connector-curvature="0" />
  <path
     style="fill:#173f4f;fill-opacity:1;stroke:none;stroke-width:2.45940566px;stroke-linecap:butt;stroke-linejoin:miter;stroke-opacity:1"
     d="m 285.03554,-69.973209 h -5.20738 l -23.43318,20.908078 h 5.20738 z"
     id="path920-6-1-6"
     inkscape:connector-curvature="0" />
  <path
     style="fill:#73ba25;fill-opacity:1;stroke:none;stroke-width:2.45940566px;stroke-linecap:butt;stroke-linejoin:miter;stroke-opacity:1"
     d="m 282.45218,-72.3155 h -5.20737 l -23.43318,20.908078 h 5.20737 z"
     id="path920-2-2-0"
     inkscape:connector-curvature="0" />
  <path
     style="fill:#ffcc00;stroke-width:1.88687038"
     id="path4-7"
     d="m 258.60852,-52.626271 a 5.3163231,4.7434495 0 0 0 -3.01976,0.995588 l -25.98003,18.059824 a 5.3163231,4.7434495 0 0 0 -2.01706,4.257357 5.3163231,4.7434495 0 0 0 -0.91686,0.51172 l -6.89393,4.776035 a 5.3163231,4.7434495 0 0 0 0.0273,7.508684 l 36.10051,24.6843116 a 5.3163231,4.7434495 0 0 0 6.49988,-0.02089 l 35.81176,-24.8583626 a 5.3163231,4.7434495 0 0 0 -0.0235,-7.501721 l -7.327,-5.030154 a 5.3163231,4.7434495 0 0 0 -0.89344,-0.494314 5.3163231,4.7434495 0 0 0 -2.05218,-4.239952 l -25.83556,-17.673424 a 5.3163231,4.7434495 0 0 0 -3.48013,-0.974702 z"
     inkscape:connector-curvature="0" />
  <path
     d="m 258.85437,-47.889875 -25.97943,18.061581 25.8347,17.674939 25.97943,-18.061576 z m 28.77445,22.405114 -28.91918,20.0837266 -28.77445,-19.6537846 -6.89266,4.773477 36.10043,24.6855466 35.81186,-24.8572066 z"
     id="path4"
     style="fill:#173f4f;fill-opacity:1;stroke-width:1.88687038"
     inkscape:connector-curvature="0" />
  <text
     xml:space="preserve"
     style="font-style:normal;font-weight:normal;font-size:5.1544013px;line-height:1.25;font-family:sans-serif;text-align:center;letter-spacing:0px;word-spacing:0px;text-anchor:middle;fill:#ffffff;fill-opacity:1;stroke:none;stroke-width:0.12886003"
     x="264.63965"
     y="45.14669"
     id="text1013"><tspan
       x="264.63965"
       y="45.14669"
       id="tspan1017"
       style="font-style:normal;font-variant:normal;font-weight:bold;font-stretch:condensed;font-size:40px;line-height:50;font-family:'Open Sans Condensed';-inkscape-font-specification:'Open Sans Condensed, Bold Condensed';fill:#ffffff;stroke-width:0.12886003">You took the Leap to 15.2!</tspan></text>
  <g
     style="fill:#000000"
     id="layer1"
     transform="matrix(7,0,0,6.9999759,254.00599,-7766.3625)">
    <g
       id="g838"
       transform="matrix(0.26458333,0,0,0.26458333,-10.590624,-38.473045)"
       style="fill:#000000">
      <circle
         style="opacity:0.3;fill:#000000;fill-opacity:1;stroke:none;stroke-width:1.90573967;stroke-miterlimit:4;stroke-dasharray:none;stroke-opacity:1"
         id="path872"
         cx="507.46362"
         cy="3582.8301"
         r="0" />
    </g>
  </g>
  <path
     style="fill:#73ba25;fill-opacity:1;stroke:none;stroke-width:2.45940566px;stroke-linecap:butt;stroke-linejoin:miter;stroke-opacity:1"
     d="m 308.20226,-90.639053 -23.43318,20.908078 h 5.20737 l 23.43318,-20.908078 z"
     id="path920-9-3-6"
     inkscape:connector-curvature="0" />
  <path
     style="fill:#73ba25;fill-opacity:1;stroke:none;stroke-width:2.45940566px;stroke-linecap:butt;stroke-linejoin:miter;stroke-opacity:1"
     d="m 331.22364,-111.18378 -23.43318,20.908078 h 5.20737 l 23.43318,-20.908078 z"
     id="path920-9-3-6-7"
     inkscape:connector-curvature="0" />
  <path
     style="fill:#73ba25;fill-opacity:1;stroke:none;stroke-width:2.45940566px;stroke-linecap:butt;stroke-linejoin:miter;stroke-opacity:1"
     d="m 354.19836,-131.68979 -23.43318,20.90807 h 5.20737 l 23.43318,-20.90807 z"
     id="path920-9-3-6-7-5"
     inkscape:connector-curvature="0" />
  <path
     style="fill:#73ba25;fill-opacity:1;stroke:none;stroke-width:2.45940566px;stroke-linecap:butt;stroke-linejoin:miter;stroke-opacity:1"
     d="m 372.85898,-148.3268 -23.43318,20.90807 h 5.20737 l 23.43318,-20.90807 z"
     id="path920-9-3-6-7-5-3"
     inkscape:connector-curvature="0" />
  <path
     style="fill:#73ba25;fill-opacity:1;stroke:none;stroke-width:2.45940566px;stroke-linecap:butt;stroke-linejoin:miter;stroke-opacity:1"
     d="m 303.22228,-90.846131 h -5.20737 l -23.43318,20.908078 h 5.20737 z"
     id="path920-2-2-0-5"
     inkscape:connector-curvature="0" />
  <path
     style="fill:#73ba25;fill-opacity:1;stroke:none;stroke-width:2.45940566px;stroke-linecap:butt;stroke-linejoin:miter;stroke-opacity:1"
     d="m 326.60077,-111.70342 h -5.20737 l -23.43318,20.90807 h 5.20737 z"
     id="path920-2-2-0-5-6"
     inkscape:connector-curvature="0" />
  <path
     style="fill:#73ba25;fill-opacity:1;stroke:none;stroke-width:2.45940566px;stroke-linecap:butt;stroke-linejoin:miter;stroke-opacity:1"
     d="m 349.97302,-132.5538 h -5.20737 l -23.43318,20.90807 h 5.20737 z"
     id="path920-2-2-0-5-6-2"
     inkscape:connector-curvature="0" />
  <path
     style="fill:#73ba25;fill-opacity:1;stroke:none;stroke-width:2.45940566px;stroke-linecap:butt;stroke-linejoin:miter;stroke-opacity:1"
     d="m 367.65197,-148.32612 h -5.20737 l -23.43318,20.90807 h 5.20737 z"
     id="path920-2-2-0-5-6-2-9"
     inkscape:connector-curvature="0" />
  <path
     style="fill:#73ba25;fill-opacity:1;stroke:none;stroke-width:2.45940566px;stroke-linecap:butt;stroke-linejoin:miter;stroke-opacity:1"
     d="m 214.79068,-90.834412 h 5.20738 l 23.43318,20.908078 h -5.20737 z"
     id="path920-2-9-1"
     inkscape:connector-curvature="0" />
  <path
     style="fill:#73ba25;fill-opacity:1;stroke:none;stroke-width:2.45940566px;stroke-linecap:butt;stroke-linejoin:miter;stroke-opacity:1"
     d="m 204.32123,-90.881287 h 5.20738 l 23.43318,20.908078 h -5.20737 z"
     id="path920-7-2"
     inkscape:connector-curvature="0" />
  <path
     style="fill:#73ba25;fill-opacity:1;stroke:none;stroke-width:2.45940566px;stroke-linecap:butt;stroke-linejoin:miter;stroke-opacity:1"
     d="m 180.88804,-111.78936 h 5.20738 l 23.43318,20.908073 h -5.20737 z"
     id="path920-7-2-7"
     inkscape:connector-curvature="0" />
  <path
     style="fill:#73ba25;fill-opacity:1;stroke:none;stroke-width:2.45940566px;stroke-linecap:butt;stroke-linejoin:miter;stroke-opacity:1"
     d="m 157.49783,-132.65837 h 5.20738 l 23.43318,20.90807 h -5.20737 z"
     id="path920-7-2-7-0"
     inkscape:connector-curvature="0" />
  <path
     style="fill:#73ba25;fill-opacity:1;stroke:none;stroke-width:2.45940566px;stroke-linecap:butt;stroke-linejoin:miter;stroke-opacity:1"
     d="m 139.95141,-148.32612 h 5.20738 l 23.43318,20.90807 h -5.20737 z"
     id="path920-7-2-7-0-9"
     inkscape:connector-curvature="0" />
  <path
     style="fill:#73ba25;fill-opacity:1;stroke:none;stroke-width:2.45940566px;stroke-linecap:butt;stroke-linejoin:miter;stroke-opacity:1"
     d="m 191.39655,-111.70733 h 5.20738 l 23.43318,20.908074 h -5.20737 z"
     id="path920-2-9-1-3"
     inkscape:connector-curvature="0" />
  <path
     style="fill:#73ba25;fill-opacity:1;stroke:none;stroke-width:2.45940566px;stroke-linecap:butt;stroke-linejoin:miter;stroke-opacity:1"
     d="m 168.01804,-132.56461 h 5.20738 l 23.43318,20.90807 h -5.20737 z"
     id="path920-2-9-1-3-6"
     inkscape:connector-curvature="0" />
  <path
     style="fill:#73ba25;fill-opacity:1;stroke:none;stroke-width:2.45940566px;stroke-linecap:butt;stroke-linejoin:miter;stroke-opacity:1"
     d="m 150.33292,-148.32612 h 5.20738 l 23.43318,20.90807 h -5.20737 z"
     id="path920-2-9-1-3-6-0"
     inkscape:connector-curvature="0" />
  <path
     style="fill:#73ba25;fill-opacity:1;stroke:none;stroke-width:2.45940566px;stroke-linecap:butt;stroke-linejoin:miter;stroke-opacity:1"
     d="m 219.61722,-77.226469 h 5.20738 l 23.43318,20.908078 h -5.20737 z"
     id="path920-7-6"
     inkscape:connector-curvature="0" />
  <path
     style="fill:#73ba25;fill-opacity:1;stroke:none;stroke-width:2.45940566px;stroke-linecap:butt;stroke-linejoin:miter;stroke-opacity:1"
     d="m 195.67972,-98.523344 h 5.20738 l 23.43318,20.908078 h -5.20737 z"
     id="path920-7-2-2"
     inkscape:connector-curvature="0" />
  <path
     style="fill:#73ba25;fill-opacity:1;stroke:none;stroke-width:2.45940566px;stroke-linecap:butt;stroke-linejoin:miter;stroke-opacity:1"
     d="m 174.63683,-117.35545 h 5.20738 l 23.43318,20.908075 h -5.20737 z"
     id="path920-7-2-7-6"
     inkscape:connector-curvature="0" />
  <path
     style="fill:#73ba25;fill-opacity:1;stroke:none;stroke-width:2.45940566px;stroke-linecap:butt;stroke-linejoin:miter;stroke-opacity:1"
     d="m 232.20907,-75.313747 h 5.20738 l 23.43318,20.908078 h -5.20737 z"
     id="path920-2-9-18"
     inkscape:connector-curvature="0" />
  <path
     style="fill:#73ba25;fill-opacity:1;stroke:none;stroke-width:2.45940566px;stroke-linecap:butt;stroke-linejoin:miter;stroke-opacity:1"
     d="m 204.67773,-99.853514 h 5.20738 l 23.43318,20.908078 h -5.20737 z"
     id="path920-2-9-1-7"
     inkscape:connector-curvature="0" />
  <path
     style="fill:#73ba25;fill-opacity:1;stroke:none;stroke-width:2.45940566px;stroke-linecap:butt;stroke-linejoin:miter;stroke-opacity:1"
     d="m 187.64679,-115.0372 h 5.20738 l 23.43318,20.908068 h -5.20737 z"
     id="path920-2-9-1-3-9"
     inkscape:connector-curvature="0" />
  <path
     style="fill:#73ba25;fill-opacity:1;stroke:none;stroke-width:2.45940566px;stroke-linecap:butt;stroke-linejoin:miter;stroke-opacity:1"
     d="m 305.27987,-92.688747 h -5.20737 l -23.43318,20.908078 h 5.20737 z"
     id="path920-2-2-0-5-2"
     inkscape:connector-curvature="0" />
  <path
     style="fill:#73ba25;fill-opacity:1;stroke:none;stroke-width:2.45940566px;stroke-linecap:butt;stroke-linejoin:miter;stroke-opacity:1"
     d="m 344.21879,-127.41805 h -5.20737 l -23.43318,20.90807 h 5.20737 z"
     id="path920-2-2-0-5-6-0"
     inkscape:connector-curvature="0" />
</svg>
