<?xml version="1.0" encoding="UTF-8" standalone="no"?>
<svg
   xmlns:dc="http://purl.org/dc/elements/1.1/"
   xmlns:cc="http://creativecommons.org/ns#"
   xmlns:rdf="http://www.w3.org/1999/02/22-rdf-syntax-ns#"
   xmlns:svg="http://www.w3.org/2000/svg"
   xmlns="http://www.w3.org/2000/svg"
   style="fill:#ffffff"
   width="87.623772"
   height="94.180695"
   version="1.1"
   id="svg6">
  <metadata
     id="metadata12">
    <rdf:RDF>
      <cc:Work
         rdf:about="">
        <dc:format>image/svg+xml</dc:format>
        <dc:type
           rdf:resource="http://purl.org/dc/dcmitype/StillImage" />
        <dc:title></dc:title>
      </cc:Work>
    </rdf:RDF>
  </metadata>
  <defs
     id="defs10" />
  <rect
     style="opacity:1;fill:#173f4f;fill-opacity:1;fill-rule:evenodd;stroke:none;stroke-width:0.7294488;stroke-linecap:round;stroke-linejoin:round"
     id="rect1019"
     width="530"
     height="130"
     x="-6.171114"
     y="-5.791348"
     ry="1" />
  <path
     style="fill:#73ba25;fill-opacity:1;stroke:none;stroke-width:2.45940566px;stroke-linecap:butt;stroke-linejoin:miter;stroke-opacity:1"
     d="m 219.87716,-3.5916368 h 5.20738 l 23.43318,20.9080788 h -5.20737 z"
     id="path920-7" />
  <path
     style="fill:#173f4f;fill-opacity:1;stroke:none;stroke-width:2.45940566px;stroke-linecap:butt;stroke-linejoin:miter;stroke-opacity:1"
     d="m 225.08454,-3.5916368 h 5.20737 L 253.7251,17.316442 h -5.20738 z"
     id="path920-6-0" />
  <path
     style="opacity:1;fill:#ffcc00;fill-opacity:1;fill-rule:evenodd;stroke:none;stroke-width:1.7940104;stroke-linecap:round;stroke-linejoin:round"
     d="m 243.31035,14.993323 c -2.88488,0 -5.20737,2.072222 -5.20737,4.64624 v 2.32312 c 0,2.574016 2.32249,4.646239 5.20737,4.646239 h 15.62212 c 2.88488,0 5.20738,-2.072223 5.20738,-4.646239 v -2.32312 c 0,-2.574018 -2.3225,-4.64624 -5.20738,-4.64624 z m 0,2.323119 h 15.62212 c 1.44244,0 2.60368,1.036112 2.60368,2.323121 v 2.32312 c 0,1.287007 -1.16124,2.323119 -2.60368,2.323119 h -15.62212 c -1.44245,0 -2.60369,-1.036112 -2.60369,-2.323119 v -2.32312 c 0,-1.287009 1.16124,-2.323121 2.60369,-2.323121 z"
     id="rect1003" />
  <path
     style="fill:#73ba25;fill-opacity:1;stroke:none;stroke-width:2.45940566px;stroke-linecap:butt;stroke-linejoin:miter;stroke-opacity:1"
     d="m 230.29191,-3.5916368 h 5.20738 l 23.43318,20.9080788 h -5.20737 z"
     id="path920-2-9" />
  <path
     style="fill:#73ba25;fill-opacity:1;stroke:none;stroke-width:2.45940566px;stroke-linecap:butt;stroke-linejoin:miter;stroke-opacity:1"
     d="M 277.15828,-3.5916368 253.7251,17.316442 h 5.20737 l 23.43318,-20.9080788 z"
     id="path920-9-3" />
  <path
     style="fill:#d4aa00;stroke-width:1.88687038"
     id="path4-7-5"
     d="m 251.12141,17.316442 a 5.3163231,4.7434495 0 0 0 -3.01975,0.995588 l -25.98004,18.059825 a 5.3163231,4.7434495 0 0 0 -2.01707,4.257356 5.3163231,4.7434495 0 0 0 -0.91684,0.51172 l -6.89394,4.776035 a 5.3163231,4.7434495 0 0 0 0.0273,7.508683 l 36.10051,24.684313 a 5.3163231,4.7434495 0 0 0 6.49988,-0.02089 l 35.81179,-24.858364 a 5.3163231,4.7434495 0 0 0 -0.0235,-7.501722 l -7.327,-5.030154 a 5.3163231,4.7434495 0 0 0 -0.89344,-0.494313 5.3163231,4.7434495 0 0 0 -2.05218,-4.239951 L 254.60154,18.291144 a 5.3163231,4.7434495 0 0 0 -3.48013,-0.974702 z" />
  <path
     style="fill:#173f4f;fill-opacity:1;stroke:none;stroke-width:2.45940566px;stroke-linecap:butt;stroke-linejoin:miter;stroke-opacity:1"
     d="M 277.15828,-3.5916368 H 271.9509 L 248.51772,17.316442 h 5.20738 z"
     id="path920-6-1-6" />
  <path
     style="fill:#73ba25;fill-opacity:1;stroke:none;stroke-width:2.45940566px;stroke-linecap:butt;stroke-linejoin:miter;stroke-opacity:1"
     d="m 271.9509,-3.5916368 h -5.20737 L 243.31035,17.316442 h 5.20737 z"
     id="path920-2-2-0" />
  <path
     style="fill:#ffcc00;stroke-width:1.88687038"
     id="path4-7"
     d="m 250.73126,13.755301 a 5.3163231,4.7434495 0 0 0 -3.01976,0.995588 l -25.98003,18.059825 a 5.3163231,4.7434495 0 0 0 -2.01706,4.257356 5.3163231,4.7434495 0 0 0 -0.91686,0.51172 l -6.89393,4.776035 a 5.3163231,4.7434495 0 0 0 0.0273,7.508684 l 36.10051,24.684312 a 5.3163231,4.7434495 0 0 0 6.49988,-0.02089 l 35.81176,-24.858363 a 5.3163231,4.7434495 0 0 0 -0.0235,-7.501721 l -7.327,-5.030154 a 5.3163231,4.7434495 0 0 0 -0.89344,-0.494314 5.3163231,4.7434495 0 0 0 -2.05218,-4.239951 L 254.21139,14.730003 a 5.3163231,4.7434495 0 0 0 -3.48013,-0.974702 z" />
  <path
     d="m 250.97711,18.491698 -25.97943,18.06158 25.8347,17.674939 25.97943,-18.061575 z m 28.77445,22.405113 -28.91918,20.083727 -28.77445,-19.653785 -6.89266,4.773477 36.10043,24.685547 35.81186,-24.857207 z"
     id="path4"
     style="fill:#173f4f;fill-opacity:1;stroke-width:1.88687038" />
  <text
     xml:space="preserve"
     style="font-style:normal;font-weight:normal;font-size:5.1544013px;line-height:1.25;font-family:sans-serif;text-align:center;letter-spacing:0px;word-spacing:0px;text-anchor:middle;fill:#ffffff;fill-opacity:1;stroke:none;stroke-width:0.12886003"
     x="256.76239"
     y="111.52827"
     id="text1013"><tspan
       x="256.76239"
       y="111.52827"
       id="tspan1017"
       style="font-style:normal;font-variant:normal;font-weight:bold;font-stretch:condensed;font-size:40px;line-height:50;font-family:'Open Sans Condensed';-inkscape-font-specification:'Open Sans Condensed, Bold Condensed';fill:#ffffff;stroke-width:0.12886003">You took the Leap to 15.2 !</tspan></text>
  <g
     style="fill:#000000"
     id="layer1"
     transform="matrix(7,0,0,6.9999759,254.00599,-7766.3625)">
    <g
       id="g838"
       transform="matrix(0.26458333,0,0,0.26458333,-10.590624,-38.473045)"
       style="fill:#000000">
      <circle
         style="opacity:0.3;fill:#000000;fill-opacity:1;stroke:none;stroke-width:1.90573967;stroke-miterlimit:4;stroke-dasharray:none;stroke-opacity:1"
         id="path872"
         cx="507.46362"
         cy="3582.8301"
         r="0" />
    </g>
  </g>
</svg>
