<svg version="1.1" viewBox="0 0 1024 512" xmlns="http://www.w3.org/2000/svg">
  <rect width="1024" height="512" fill="#0c322c"/>
  <path d="m768 96v0.01563c-44.32-5e-6 -79.998 35.68-79.998 79.996 0 44.32 35.681 79.996 79.998 79.996s79.996 35.68 79.996 79.996c0 8.3094-1.2535 16.314-3.584 23.838-0.38716 1.2491-0.80239 2.4853-1.248 3.707-2e-3 5e-3 -4e-3 0.0104-6e-3 0.0156-0.44569 1.221-0.92132 2.4271-1.4238 3.6191-2e-3 5e-3 -4e-3 0.0105-6e-3 0.0156-0.50274 1.1919-1.0339 2.37-1.5918 3.5312-2e-3 4e-3 -4e-3 9e-3 -6e-3 0.0137-12.89 26.816-40.277 45.24-72.127 45.24v0.0156h-768v96h1024v-416h-256zm0.0391 40.09c22.16 0 40 17.838 40 39.998s-17.84 40-40 40c-22.159 0-39.998-17.84-39.998-40s17.839-39.998 39.998-39.998zm-0.0606 159.89c-22.16 0-39.998 17.84-39.998 40s17.838 40 39.998 40 40-17.84 40-40-17.84-40-40-40z" fill="#0c322c"/>
  <path d="m0 0v416h768v-0.0156c44.32 0 79.998-35.678 79.998-79.996 0-44.32-35.679-79.996-79.998-79.996-44.32 0-79.996-35.678-79.996-79.996 0-6.9249 0.87078-13.639 2.5098-20.039 0.32627-1.274 0.68206-2.535 1.0684-3.7832 2e-3 -5e-3 4e-3 -0.0103 6e-3 -0.0156 0.0365-0.11777 0.0802-0.23207 0.11719-0.34961 0.35664-1.1319 0.72996-2.2579 1.1348-3.3672 7e-4 -2e-3 1e-3 -4e-3 2e-3 -6e-3 11.188-30.651 40.535-52.42 75.154-52.42v-0.01553h256v-96h-256zm768.04 136.09c-22.159 0-39.998 17.838-39.998 39.998s17.839 40 39.998 40c22.16 0 40-17.84 40-40s-17.84-39.998-40-39.998zm-0.0606 159.89c22.16 0 40 17.84 40 40s-17.84 40-40 40-39.998-17.84-39.998-40 17.838-40 39.998-40z" fill="#173f4f"/>
  <path d="m680.41 223.18c-4.995-0.25014-18.535 15.205-21.791 21.547-5.6958-0.67389-8.1466 8.2158-4.0723 11.076-0.92448 5.1744 3.457 13.133 3.457 13.133s-6.8878 14.27-9.5039 25.592l-7.1367-3.0332 0.48437-8.002s2.1086-1.395 3.3203-1.6074c0.65008-0.11338 1.3396 0.41673 1.9609 0.20508 0.74079-0.25701 1.6077-0.85184 1.6856-1.6289 0.0708-0.71055-0.59682-1.4068-1.2129-1.7598-0.64251-0.36284-1.4858-0.31669-2.2031-0.15039-1.5534 0.35527-4.1504 2.373-4.1504 2.373s0.74002-2.6568 1.5957-3.6855c0.34016-0.40819 1.0039-0.46103 1.3184-0.88281 0.44599-0.60474 0.97468-1.4761 0.65039-2.1504-0.27968-0.58961-1.1822-0.87503-1.8164-0.7246-1.0152 0.24189-1.522 1.4571-2.0723 2.3437-0.97588 1.5708-2.0957 5.1367-2.0957 5.1367s-1.9897-2.2096-3.2891-2.8574c-0.74835-0.3704-1.6547-0.75581-2.459-0.52148-0.76649 0.21922-1.7016 0.87244-1.7129 1.6699-0.01 0.68788 0.84015 1.15 1.4434 1.4863 0.77254 0.43087 1.7966 0.19066 2.5918 0.57617 1.1958 0.58205 3.0762 2.5449 3.0762 2.5449l-2.8203 11.863 11.791 8.1055c-0.13838 13.331 2.128 26.498 7.3594 38.789 4.2921 10.084 10.928 20.637 18.729 29.07l-4.3066 6.502-10.803-2.6816s0.44762-3.64 0.34179-5.4609c-0.0523-0.9207-0.0243-1.9256-0.48437-2.7246-0.61228-1.0688-1.6043-2.5451-2.8281-2.3887-1.0976 0.14362-1.8876 1.6051-1.9141 2.7109-0.026 1.0976 1.5171 1.7092 1.7695 2.7773 0.40819 1.7129-0.54297 5.252-0.54297 5.252s-2.2182-2.9696-3.6348-4.1367c-0.768-0.63496-1.6196-1.2371-2.5781-1.5039-0.864-0.24189-1.9914-0.60345-2.6914-0.041-0.86324 0.68787-1.2056 2.279-0.67188 3.248 0.65763 1.1936 2.6273 0.7936 3.8262 1.4414 1.7152 0.9275 4.7227 3.4512 4.7227 3.4512s-2.5568 2.4036-4.0293 3.3379c-0.85342 0.54425-2.176 0.45335-2.7422 1.2871-0.59716 0.87988-0.87103 2.3736-0.18164 3.1816 0.74078 0.87156 2.3612 0.78986 3.418 0.34766 0.89045-0.3704 1.1319-1.5748 1.8145-2.2559 1.5821-1.5783 5.2324-4.1895 5.2324-4.1895l16.301 7.2168 7.9199-7.9238c9.0677 7.0849 20.827 10.67 32.113 12.965 14.18 2.883 29.079 2.1225 43.408 0.11328 11.018-1.5443 22.726-3.2168 32.066-9.2617 9.4904-6.1417 17.521-15.46 21.932-25.869 4.3185-10.191 5.997-22.317 3.2637-33.043-1.9728-7.7415-6.8724-15.332-13.484-19.816h-2e-3c-2.808-1.9042-6.559-2.5471-9.9336-2.207-0.73398 0.0741-2.079 0.16912-2.0215 0.90235 0.2759 3.5278 7.3927 0.68172 10.25 2.7695 5.6761 4.1469 9.8589 10.872 11.43 17.725 2.2148 9.6642 0.47654 20.494-3.625 29.521-4.0033 8.8116-10.819 17.105-19.379 21.621-7.2234 3.809-16.206 4.3372-24.293 3.1973-9.8132-1.3833-19.075-6.2813-27.256-11.875-5.423-3.7078-10.407-8.2273-14.621-13.324l4.9375-12.854 11.127 0.2793s0.34681 3.651 0.84571 5.4062c0.24945 0.88743 0.44656 1.8724 1.0664 2.5527 0.83301 0.91011 2.1163 2.1387 3.2774 1.7207 1.0409-0.37795 1.494-1.9751 1.2793-3.0606-0.21165-1.0772-1.8524-1.3402-2.3301-2.3281-0.76649-1.5844-0.60546-5.2441-0.60546-5.2441s2.8076 2.4189 4.4434 3.252c0.88591 0.45354 1.8493 0.85725 2.8418 0.91016 0.89651 0.0476 2.0751 0.15806 2.6367-0.54493 0.69543-0.86249 0.67959-2.4864-0.0488-3.3164-0.90028-1.022-2.7361-0.20382-4.0469-0.57422-1.8762-0.52913-5.3594-2.3457-5.3594-2.3457s1.9731-2.901 3.209-4.1309c0.71811-0.71055 2.0312-0.90807 2.4023-1.8477 0.39307-0.98797 0.33295-2.5077-0.51367-3.1465-0.9154-0.68788-2.4763-0.24944-3.4121 0.4082-0.78766 0.55937-0.76389 1.7824-1.2832 2.5957-1.2026 1.8837-4.2031 5.2227-4.2031 5.2227l-17.477-3.5176-6 9.4219c-4.6468-9.9588-6.2596-21.509-11.912-30.99-0.64026-1.0739-1.3649-2.0902-2.1387-3.0742l8.1758-1.375 2.5742-12.576s3.0579-1.0501 4.6445-1.3223c0.68485-0.11594 1.4905 0.24174 2.0801-0.12109 0.70375-0.43389 1.429-1.346 1.2324-2.1465-0.1852-0.74532-1.1784-1.2026-1.9434-1.2207-0.72718-0.0174-1.2276 0.80014-1.9004 1.0723-1.1626 0.47773-3.6406 0.96875-3.6406 0.96875s-0.22464-2.819-0.0508-4.2129c0.12094-0.9736 1.1792-1.9593 0.75586-2.8438-0.34469-0.71584-1.419-1.184-2.1855-0.96484-0.62211 0.17612-0.87845 0.99097-1.0977 1.5957-0.24343 0.67275-0.24727 1.4281-0.19727 2.1387 0.0922 1.3183 0.91016 3.8594 0.91016 3.8594 0 1e-5 -2.4726-0.91984-3.3086-1.873-0.51855-0.59414-0.23104-1.7513-0.88868-2.1973-0.65915-0.44893-1.8464-0.59377-2.3906-0.0117-0.60322 0.65235-0.1497 1.8482 0.2207 2.6562 0.2759 0.60397 0.87296 1.0081 1.3945 1.4238 1.025 0.82167 3.3477 2.0781 3.3477 2.0781l-2.9375 7.457-12.285-0.41211c-2.7944-2.8602-5.4358-5.8128-7.1367-9.377-2.6971-5.6519-3.8144-18.395-3.8144-18.395s5.8566-5.3309 7.0781-10.82c6.0344-2.8087 5.9644-8.7274 0.62695-11.875-0.52187-6.5062-4.8358-24.545-8.4551-25.6-0.14271-0.0416-0.2959-0.0661-0.45703-0.0742z" fill="#33b878"/>
  <path d="m800.78 118.08c-7.2886 0.0809-14.595 0.77275-21.76 1.7774-11.018 1.5443-22.726 3.2168-32.066 9.2617-9.4904 6.1417-17.521 15.46-21.932 25.869-4.3185 10.191-5.997 22.317-3.2637 33.043 1.9729 7.742 6.8717 15.332 13.484 19.816 2.8082 1.9049 6.5604 2.5472 9.9356 2.207 0.73398-0.0741 2.079-0.16911 2.0215-0.90234-0.27589-3.5278-7.3927-0.68172-10.25-2.7695-5.6761-4.1469-9.8589-10.872-11.43-17.725-2.2148-9.6642-0.47654-20.494 3.625-29.521 4.0033-8.8116 10.819-17.105 19.379-21.621 7.2234-3.809 16.206-4.3372 24.293-3.1973 9.8132 1.3833 19.075 6.2813 27.256 11.875 5.423 3.7078 10.407 8.2272 14.621 13.324l-4.9395 12.854-11.125-0.2793s-0.3468-3.651-0.8457-5.4062c-0.24945-0.88743-0.44657-1.8724-1.0664-2.5527-0.83301-0.91011-2.1163-2.1387-3.2773-1.7207-1.0409 0.37795-1.494 1.977-1.2793 3.0625 0.21165 1.0772 1.8524 1.3382 2.3301 2.3262 0.76649 1.5844 0.60547 5.2441 0.60547 5.2441s-2.8076-2.4189-4.4434-3.252c-0.88592-0.45354-1.8493-0.85725-2.8418-0.91016-0.89651-0.0476-2.0751-0.15807-2.6367 0.54492-0.69543 0.86249-0.67959 2.4864 0.0488 3.3164 0.90028 1.022 2.7361 0.20577 4.0469 0.57617 1.8762 0.52913 5.3594 2.3438 5.3594 2.3438s-1.9731 2.901-3.209 4.1309c-0.71811 0.71055-2.0312 0.91002-2.4024 1.8496-0.39307 0.98797-0.33294 2.5058 0.51368 3.1445 0.9154 0.68788 2.4763 0.24944 3.4121-0.4082 0.78766-0.55937 0.76389-1.7804 1.2832-2.5938 1.2026-1.8837 4.2031-5.2246 4.2031-5.2246l17.477 3.5176 6-9.4219c4.6472 9.959 6.2574 21.509 11.91 30.99 0.64026 1.0739 1.3669 2.0902 2.1406 3.0742l-8.1758 1.375-2.5742 12.576s-3.0579 1.0501-4.6445 1.3223c-0.68485 0.11594-1.4905-0.24174-2.0801 0.12109-0.70375 0.43389-1.429 1.346-1.2324 2.1465 0.1852 0.74532 1.1784 1.2026 1.9434 1.2207 0.72718 0.0174 1.2276-0.80013 1.9004-1.0723 1.1626-0.47773 3.6406-0.96875 3.6406-0.96875s0.22464 2.819 0.0508 4.2129c-0.12094 0.9736-1.1792 1.9593-0.75586 2.8438 0.34469 0.71584 1.4191 1.186 2.1856 0.96679 0.62211-0.17613 0.87845-0.99292 1.0977-1.5976 0.24343-0.67275 0.24726-1.4281 0.19726-2.1387-0.0922-1.3183-0.91015-3.8594-0.91015-3.8594s2.4726 0.91985 3.3086 1.873c0.51855 0.59414 0.23103 1.7532 0.88867 2.1992 0.65915 0.44893 1.8444 0.59181 2.3887 0.01 0.60322-0.65235 0.15165-1.8482-0.21875-2.6562-0.2759-0.60397-0.87296-1.0081-1.3945-1.4238-1.025-0.82167-3.3476-2.0781-3.3476-2.0781l2.9375-7.457 12.285 0.41211c2.7944 2.8602 5.4358 5.8128 7.1367 9.377 2.6971 5.6519 3.8144 18.396 3.8144 18.396s-5.8566 5.329-7.0781 10.818c-6.0344 2.8087-5.9644 8.7274-0.62695 11.875 0.52187 6.5062 4.8358 24.545 8.4551 25.6 4.5668 1.3308 18.887-14.926 22.248-21.473 5.6958 0.67389 8.1466-8.2158 4.0723-11.076 0.92448-5.1744-3.457-13.131-3.457-13.131s6.8858-14.272 9.502-25.594l7.1387 3.0352-0.48437 8s-2.1086 1.395-3.3203 1.6074c-0.65008 0.11338-1.3396-0.41477-1.9609-0.20312-0.74079 0.25701-1.6077 0.84988-1.6855 1.627-0.0708 0.71055 0.59682 1.4068 1.2129 1.7598 0.64251 0.36284 1.4858 0.31864 2.2031 0.15234 1.5534-0.35527 4.1504-2.375 4.1504-2.375s-0.74002 2.6568-1.5957 3.6856c-0.34016 0.40819-1.0039 0.46102-1.3184 0.88281-0.44599 0.60473-0.97468 1.4761-0.65039 2.1504 0.27968 0.58961 1.1802 0.87504 1.8144 0.72461 1.0152-0.24189 1.5239-1.4571 2.0742-2.3438 0.97588-1.5708 2.0957-5.1367 2.0957-5.1367s1.9897 2.2096 3.2891 2.8574c0.74835 0.3704 1.6528 0.75582 2.457 0.52149 0.76649-0.21922 1.7035-0.87244 1.7148-1.6699 0.01-0.68788-0.84015-1.15-1.4434-1.4863-0.77254-0.43087-1.7966-0.18871-2.5918-0.57422-1.1958-0.58205-3.0762-2.5449-3.0762-2.5449l2.8184-11.863-11.789-8.1055c0.13863-13.332-2.1277-26.499-7.3594-38.791-4.2922-10.084-10.928-20.636-18.729-29.07l4.3066-6.502 10.801 2.6816s-0.44567 3.64-0.33984 5.4609c0.0523 0.9207 0.0243 1.9256 0.48438 2.7246 0.61227 1.0688 1.6024 2.5452 2.8262 2.3887 1.0976-0.14362 1.8876-1.6051 1.9141-2.7109 0.026-1.0976-1.5171-1.7093-1.7695-2.7774-0.40819-1.7129 0.54492-5.252 0.54492-5.252s2.2162 2.9696 3.6328 4.1367c0.768 0.63496 1.6216 1.2371 2.5801 1.5039 0.864 0.24189 1.9895 0.60539 2.6894 0.043 0.86324-0.68787 1.2075-2.2809 0.67383-3.25-0.65763-1.1936-2.6273-0.79164-3.8262-1.4394-1.7152-0.9275-4.7227-3.4531-4.7227-3.4531s2.5548-2.4036 4.0274-3.3379c0.85342-0.54425 2.178-0.45335 2.7441-1.2871 0.59716-0.87988 0.87103-2.3736 0.18164-3.1816-0.74078-0.87156-2.3612-0.78986-3.418-0.34766-0.89045 0.3704-1.1319 1.5748-1.8144 2.2559-1.5821 1.5783-5.2324 4.1894-5.2324 4.1894l-16.301-7.2168-7.9199 7.9238c-9.0677-7.0849-20.827-10.67-32.113-12.965-7.09-1.4415-14.36-1.9715-21.648-1.8906z" fill="#73ba25"/>
</svg>
