<?xml version="1.0" encoding="UTF-8" standalone="no"?>
<!-- Created with Inkscape (http://www.inkscape.org/) -->

<svg
   xmlns:dc="http://purl.org/dc/elements/1.1/"
   xmlns:cc="http://creativecommons.org/ns#"
   xmlns:rdf="http://www.w3.org/1999/02/22-rdf-syntax-ns#"
   xmlns:svg="http://www.w3.org/2000/svg"
   xmlns="http://www.w3.org/2000/svg"
   xmlns:sodipodi="http://sodipodi.sourceforge.net/DTD/sodipodi-0.dtd"
   xmlns:inkscape="http://www.inkscape.org/namespaces/inkscape"
   width="303.3071"
   height="191.26772"
   id="svg2"
   version="1.1"
   inkscape:version="0.47 r22583"
   sodipodi:docname="cartevizita_v2.svg"
   inkscape:export-filename="C:\Documents and Settings\luciano\Desktop\Carte de vizita\cartevizita_v2.png"
   inkscape:export-xdpi="90"
   inkscape:export-ydpi="90">
  <defs
     id="defs4">
    <inkscape:perspective
       sodipodi:type="inkscape:persp3d"
       inkscape:vp_x="0 : 526.18109 : 1"
       inkscape:vp_y="0 : 1000 : 0"
       inkscape:vp_z="744.09448 : 526.18109 : 1"
       inkscape:persp3d-origin="372.04724 : 350.78739 : 1"
       id="perspective10" />
    <inkscape:perspective
       id="perspective2832"
       inkscape:persp3d-origin="0.5 : 0.33333333 : 1"
       inkscape:vp_z="1 : 0.5 : 1"
       inkscape:vp_y="0 : 1000 : 0"
       inkscape:vp_x="0 : 0.5 : 1"
       sodipodi:type="inkscape:persp3d" />
    <inkscape:perspective
       id="perspective2986"
       inkscape:persp3d-origin="0.5 : 0.33333333 : 1"
       inkscape:vp_z="1 : 0.5 : 1"
       inkscape:vp_y="0 : 1000 : 0"
       inkscape:vp_x="0 : 0.5 : 1"
       sodipodi:type="inkscape:persp3d" />
    <inkscape:perspective
       id="perspective3661"
       inkscape:persp3d-origin="0.5 : 0.33333333 : 1"
       inkscape:vp_z="1 : 0.5 : 1"
       inkscape:vp_y="0 : 1000 : 0"
       inkscape:vp_x="0 : 0.5 : 1"
       sodipodi:type="inkscape:persp3d" />
    <inkscape:perspective
       id="perspective3692"
       inkscape:persp3d-origin="0.5 : 0.33333333 : 1"
       inkscape:vp_z="1 : 0.5 : 1"
       inkscape:vp_y="0 : 1000 : 0"
       inkscape:vp_x="0 : 0.5 : 1"
       sodipodi:type="inkscape:persp3d" />
    <inkscape:perspective
       id="perspective3727"
       inkscape:persp3d-origin="0.5 : 0.33333333 : 1"
       inkscape:vp_z="1 : 0.5 : 1"
       inkscape:vp_y="0 : 1000 : 0"
       inkscape:vp_x="0 : 0.5 : 1"
       sodipodi:type="inkscape:persp3d" />
    <inkscape:perspective
       id="perspective3784"
       inkscape:persp3d-origin="0.5 : 0.33333333 : 1"
       inkscape:vp_z="1 : 0.5 : 1"
       inkscape:vp_y="0 : 1000 : 0"
       inkscape:vp_x="0 : 0.5 : 1"
       sodipodi:type="inkscape:persp3d" />
    <inkscape:perspective
       id="perspective3661-1"
       inkscape:persp3d-origin="0.5 : 0.33333333 : 1"
       inkscape:vp_z="1 : 0.5 : 1"
       inkscape:vp_y="0 : 1000 : 0"
       inkscape:vp_x="0 : 0.5 : 1"
       sodipodi:type="inkscape:persp3d" />
  </defs>
  <sodipodi:namedview
     id="base"
     pagecolor="#ffffff"
     bordercolor="#666666"
     borderopacity="1.0"
     inkscape:pageopacity="0.0"
     inkscape:pageshadow="2"
     inkscape:zoom="1.979899"
     inkscape:cx="141.23054"
     inkscape:cy="94.708312"
     inkscape:document-units="px"
     inkscape:current-layer="layer1"
     showgrid="false"
     inkscape:window-width="1280"
     inkscape:window-height="744"
     inkscape:window-x="-4"
     inkscape:window-y="-4"
     inkscape:window-maximized="1" />
  <metadata
     id="metadata7">
    <rdf:RDF>
      <cc:Work
         rdf:about="">
        <dc:format>image/svg+xml</dc:format>
        <dc:type
           rdf:resource="http://purl.org/dc/dcmitype/StillImage" />
        <dc:title></dc:title>
      </cc:Work>
    </rdf:RDF>
  </metadata>
  <g
     inkscape:label="Layer 1"
     inkscape:groupmode="layer"
     id="layer1"
     transform="translate(0,-861.09451)">
    <g
       id="g2858">
      <g
         transform="translate(6,4)"
         id="g3763">
        <path
           id="path1977"
           d="m 93.775028,890.8305 c -1.707871,-0.0607 -3.048487,-1.45352 -2.991445,-3.10818 0.0263,-0.8011 0.380263,-1.54156 0.98177,-2.08827 0.603943,-0.54654 1.392761,-0.83103 2.22081,-0.80089 1.710313,0.0579 3.051301,1.44843 2.993847,3.10561 -0.0259,0.79857 -0.375003,1.539 -0.978952,2.08807 -0.606761,0.54418 -1.395583,0.82871 -2.226074,0.80366 l 4.4e-5,0 z m 0.718817,-2.71797 c 0.760107,0 1.37698,-0.39782 1.37698,-0.88641 0,-0.49117 -0.61691,-0.88919 -1.37698,-0.88919 -0.760489,0 -1.374957,0.39802 -1.374957,0.88919 0,0.48859 0.614468,0.88641 1.374957,0.88641"
           style="fill:#73ba25;fill-opacity:1;fill-rule:nonzero;stroke:none" />
        <path
           id="path1979"
           d="m 58.638253,908.06406 0.109913,-0.01 0.01783,-0.12592 c -0.02815,-0.0989 -0.09443,-0.1877 -0.196829,-1.41331 -0.08692,-1.08471 -0.263103,-4.05936 1.284469,-5.53447 0.600358,-0.57568 1.517014,-1.08719 2.240003,-1.25265 2.964986,-0.69927 6.813669,-0.215 10.100439,3.46162 1.695961,1.89992 2.5285,2.76716 2.94475,3.15508 l 0.142869,0.12843 0.173788,0.12112 c 0.135309,0.0741 5.648997,2.53007 5.648997,2.53007 l 0.112312,-0.0272 0.0028,-0.11593 c -0.03571,-0.0395 -3.493547,-4.36111 -2.880834,-7.92137 0.485285,-2.83642 2.819358,-2.58192 6.045051,-2.22623 1.054722,0.11612 2.25508,0.24955 3.496312,0.27679 3.465353,0.0198 7.199375,-0.59541 9.500493,-1.56899 1.488851,-0.62997 2.438826,-1.04517 3.034024,-1.56899 0.21426,-0.17046 0.32657,-0.45204 0.44164,-0.74861 l 0.0794,-0.20001 c 0.0968,-0.23976 0.23731,-0.7536 0.29882,-1.03287 0.0281,-0.12343 0.0409,-0.25701 -0.0488,-0.32361 l -0.31905,0.0568 c -1.008692,0.58562 -3.534797,1.70241 -5.899424,1.74691 -2.929275,0.0591 -8.833816,-2.8514 -9.449294,-3.16027 l -0.05872,-0.0666 c -0.148389,-0.3411 -1.034486,-2.3696 -1.220991,-2.79688 4.249861,2.70784 7.773924,4.20524 10.473455,4.43749 3.003468,0.25934 5.345464,-1.32675 6.346594,-2.00397 0.19643,-0.12843 0.34482,-0.23224 0.40593,-0.25434 l 0.0639,-0.10134 c -0.16627,-1.0204 -1.73685,-5.96194 -2.921717,-7.148 -0.329339,-0.32613 -0.59244,-0.64227 -1.123763,-0.94383 -4.293097,-2.42125 -14.485615,-3.8841 -14.962981,-3.9507 l -0.08175,0.0222 -0.03056,0.0691 c 0,0 -0.03848,2.0458 -0.04364,2.27325 -1.042045,-0.33611 -8.608822,-2.70072 -15.703847,-2.94028 -6.014045,-0.20505 -14.230022,-0.48184 -25.83996,6.42145 l -0.342256,0.20748 c -5.460134,3.29598 -9.229667,7.35801 -11.201207,12.08207 -0.618036,1.48491 -1.450536,4.83788 -0.628357,7.99296 0.357534,1.38128 1.019008,2.76484 1.913027,4.00523 2.015018,2.80171 5.398818,4.66247 9.04316,4.97609 5.143473,0.44457 9.04076,-1.79126 10.42742,-5.97692 0.95253,-2.88827 0,-7.12555 -3.652064,-9.28747 -2.970149,-1.7617 -6.167641,-1.35899 -8.019191,-0.17545 -1.608886,1.03271 -2.520538,2.63374 -2.502701,4.39547 0.03572,3.12053 2.816962,4.78087 4.81414,4.78339 0.582115,0 1.164434,-0.0964 1.823348,-0.30384 0.232547,-0.0693 0.454569,-0.15316 0.697193,-0.29904 l 0.0742,-0.0468 0.04839,-0.0272 -0.01783,0.007 c 0.457127,-0.29656 0.732907,-0.78563 0.732907,-1.30949 0,-0.14337 -0.02299,-0.2891 -0.06388,-0.43494 -0.234905,-0.78815 -1.042049,-1.26744 -1.879708,-1.11927 l -0.112312,0.0222 -0.15319,0.0493 -0.222223,0.0718 c -0.459688,0.11113 -0.807106,0.11864 -0.878537,0.12092 -0.234905,-0.0148 -1.386866,-0.34818 -1.386866,-1.5688 l 0,-0.0148 c 0.0028,-0.44725 0.189069,-0.76107 0.291261,-0.93152 0.354936,-0.5436 1.335667,-1.07721 2.661011,-0.9636 1.736839,0.14321 2.988189,1.00562 3.81813,2.63142 0.771388,1.51198 0.569642,3.37007 -0.518441,4.73386 -1.080327,1.35171 -3.003268,1.92487 -5.562328,1.65535 -2.579459,-0.27412 -4.760342,-1.70969 -5.981135,-3.9457 -1.195195,-2.18422 -1.261672,-4.77608 -0.171027,-6.76735 2.612617,-4.76862 7.543982,-4.71928 10.248673,-4.26704 4.004435,0.66951 7.638619,3.77026 9.255226,7.89413 0.25794,0.65724 0.39065,1.17855 0.505521,1.65288 l 0.173788,0.71404 4.52268,2.13716 0.06152,0.042 1.22e-4,-4e-5 z m 32.148116,-23.27461 c -0.852737,0.76586 -1.340828,1.81103 -1.381706,2.93777 -0.07895,2.32239 1.805878,4.2793 4.206225,4.3659 1.169802,0.037 2.278077,-0.36087 3.128456,-1.13173 0.85038,-0.76838 1.338433,-1.81103 1.381703,-2.93529 0.08176,-2.3249 -1.80311,-4.28429 -4.208577,-4.36819 -1.164638,-0.037 -2.275721,0.36069 -3.126101,1.13154"
           style="fill:#73ba25;fill-opacity:1;fill-rule:evenodd;stroke:none" />
        <path
           style="fill:#73ba25;fill-opacity:1;stroke:none"
           d="m 103.3634,913.82439 -0.0505,0 c -0.0584,0 -0.10901,-0.049 -0.10901,-0.10546 l 0,-0.75686 -0.17129,0.25228 c -0.0194,0.0263 -0.0545,0.0376 -0.0856,0.0376 l -0.0195,0 c -0.0311,0 -0.0662,-0.0113 -0.0856,-0.0376 l -0.17517,-0.25228 0,0.75686 c 0,0.0565 -0.0506,0.10546 -0.1129,0.10546 l -0.0505,0 c -0.0584,0 -0.10901,-0.049 -0.10901,-0.10546 l 0,-0.90378 -0.52553,0 0,0.90378 c 0,0.0565 -0.0545,0.10546 -0.11669,0.10546 l -0.0467,0 c -0.0584,0 -0.10901,-0.049 -0.10901,-0.10546 l 0,-0.90378 -0.3931,0 c -0.0584,0 -0.10512,-0.0377 -0.10512,-0.0978 l 0,-0.0527 c 0,-0.0602 0.0467,-0.0979 0.10512,-0.0979 l 1.37789,0 c 0.0545,0 0.0895,0.0188 0.10902,0.049 l 0.26076,0.38031 0.26078,-0.38031 c 0.0194,-0.0264 0.0506,-0.049 0.10901,-0.049 l 0.17518,0 0,1.15981 c 0,0.0565 -0.0545,0.10547 -0.11679,0.10547"
           id="path2095" />
        <path
           style="fill:#73ba25;fill-opacity:1;stroke:none"
           d="m 58.309051,912.23905 c -1.883894,0 -2.927078,1.54388 -2.927078,2.61337 l 0,1.37075 c 0,1.5703 1.327273,2.54561 2.56118,2.54561 l 4.320515,0 c 0.541072,0 0.653969,0.34261 0.653969,0.63258 l 0,0.88498 c 0,0.0941 -0.01554,0.9452 -0.653969,0.9452 l -5.8969,0 c -0.583924,0 -1.008111,0.39161 -1.008111,0.93011 l 0,0.24476 c 0,0.53475 0.420303,0.9302 1.008111,0.9302 l 6.220047,0 c 1.62312,0 2.674078,-1.09214 2.674078,-2.78669 l 0,-1.47989 c 0,-1.58919 -1.183287,-2.30084 -2.354912,-2.30084 l -4.250464,0 c -0.642312,0 -0.930286,-0.45945 -0.930286,-0.79079 l 0,-0.81344 c 0,-0.51585 0.354138,-0.80959 0.976919,-0.80959 l 4.709824,0 c 0.576054,0 1.008114,-0.3992 1.008114,-0.93018 l 0,-0.24477 c 0,-0.52722 -0.439835,-0.93009 -1.02754,-0.93009 l -5.075725,0"
           id="path2097" />
        <path
           style="fill:#73ba25;fill-opacity:1;stroke:none"
           d="m 75.992175,912.23905 c -0.556619,0 -1.008107,0.4368 -1.008107,0.9753 l 0,7.00421 c 0,0.5573 -0.47102,1.00923 -1.043187,1.00923 l -3.285199,0 c -0.576051,0 -1.04319,-0.45193 -1.04319,-1.00923 l 0,-7.00421 c 0,-0.5385 -0.4476,-0.9753 -1.008107,-0.9753 l -0.319163,0 c -0.560504,0 -1.00811,0.42928 -1.00811,0.9753 l 0,7.27154 c 0,1.6908 1.374008,2.91847 3.269558,2.91847 l 3.510996,0 c 1.895549,0 3.269555,-1.22767 3.269555,-2.91847 l 0,-7.27154 c 0,-0.54602 -0.443716,-0.9753 -1.008108,-0.9753 l -0.319165,0"
           id="path2099" />
        <path
           style="fill:#73ba25;fill-opacity:1;stroke:none"
           d="m 82.286159,912.23905 c -1.883886,0 -2.927073,1.54388 -2.927073,2.61337 l 0,1.37075 c 0,1.5703 1.331161,2.54561 2.561178,2.54561 l 4.320514,0 c 0.541075,0 0.65786,0.34261 0.65786,0.63258 l 0,0.88498 c 0,0.0941 -0.01942,0.9452 -0.65786,0.9452 l -5.896897,0 c -0.583921,0 -1.008111,0.39161 -1.008111,0.93011 l 0,0.24476 c 0,0.53475 0.42419,0.9302 1.008111,0.9302 l 6.216159,0 c 1.627007,0 2.673978,-1.09214 2.673978,-2.78669 l 0,-1.47989 c 0,-1.58919 -1.179297,-2.30084 -2.354815,-2.30084 l -4.250562,0 c -0.642212,0 -0.930186,-0.45945 -0.930186,-0.79079 l 0,-0.81344 c 0,-0.51585 0.354138,-0.80959 0.973034,-0.80959 l 4.709828,0 c 0.572164,0 1.008111,-0.3992 1.008111,-0.93018 l 0,-0.24477 c 0,-0.52722 -0.439835,-0.93009 -1.031524,-0.93009 l -5.071745,0"
           id="path2101" />
        <path
           style="fill:#73ba25;fill-opacity:1;stroke:none"
           d="m 92.223374,912.23905 c -0.556519,0 -0.984694,0.39911 -0.984694,0.93009 l 0,9.23727 c 0,0.52722 0.412531,0.9302 0.965262,0.9302 l 7.609601,0 c 0.583917,0 1.008207,-0.39169 1.008207,-0.9302 l 0,-0.24476 c 0,-0.53475 -0.4204,-0.93011 -1.008207,-0.93011 0,0 -5.951405,0 -6.231707,0 0,-0.241 0,-2.11254 0,-2.35354 0.280302,0 4.565842,0 4.565842,0 0.583821,0 1.008108,-0.39168 1.008108,-0.93395 l 0,-0.24101 c 0,-0.5385 -0.424287,-0.93385 -1.008108,-0.93385 0,0 -4.28554,0 -4.565842,0 0,-0.241 0,-2.17657 0,-2.41758 0.280302,0 5.916429,0 5.916429,0 0.583925,0 1.008215,-0.39168 1.008215,-0.93018 l 0,-0.24477 c 0,-0.5385 -0.42429,-0.93009 -1.008215,-0.93009 l -7.270903,0"
           id="path2103" />
        <path
           style="fill:#73ba25;fill-opacity:1;stroke:none"
           d="m 27.528037,916.63356 c -0.949743,0 -1.724329,0.71549 -1.724329,1.60047 l 0,3.48331 c 0,0.89625 0.747339,1.62677 1.665948,1.62677 l 2.32764,0 c 0.918609,0 1.669833,-0.73052 1.669833,-1.62677 l 0,-3.48331 c 0,-0.88122 -0.774581,-1.60047 -1.724329,-1.60047 l -2.214763,0 z m -0.502122,4.94813 0,-3.17819 c 0,-0.37288 0.315288,-0.6779 0.700636,-0.6779 l 1.81385,0 c 0.377565,0 0.700625,0.30888 0.700625,0.6779 l 0,3.17819 c 0,0.37287 -0.315277,0.67791 -0.700625,0.67791 l -1.829425,0 c -0.385348,0 -0.685061,-0.2975 -0.685061,-0.67791"
           id="path2105" />
        <path
           style="fill:#73ba25;fill-opacity:1;stroke:none"
           d="m 36.745242,916.5922 c -0.673401,0 -1.175531,0.23349 -1.584237,0.42176 -0.245217,0.11289 -0.459295,0.21083 -0.626668,0.21083 -0.07006,0 -0.136236,-0.0301 -0.171271,-0.0828 l -0.151799,-0.28622 c -0.03504,-0.0753 -0.190731,-0.2222 -0.385348,-0.2222 l -0.225756,0 c -0.217973,0 -0.397026,0.18837 -0.397026,0.42551 l 0,8.83067 c 0,0.27483 0.22187,0.49327 0.509904,0.49327 l 0.198513,0 c 0.280252,0 0.509904,-0.22219 0.509904,-0.49327 l 0,-2.92979 c 0,-0.0866 0.05838,-0.17698 0.112879,-0.17698 0.167373,0 0.381451,0.0904 0.630565,0.2034 0.404809,0.17698 0.910827,0.40286 1.584227,0.40286 l 0.21015,0 c 1.187172,0 1.926741,-0.65515 1.926741,-1.70959 l 0,-3.37032 c 0,-1.03932 -0.755113,-1.71336 -1.926741,-1.71336 l -0.214037,0 0,0 0,-0.004 z m -2.327681,4.92171 0,-3.03888 c 0,-0.41799 0.338645,-0.74567 0.770698,-0.74567 l 1.697084,0 c 0.432062,0 0.770657,0.32768 0.770657,0.74567 l 0,3.03888 c 0,0.41049 -0.342482,0.74569 -0.770657,0.74569 l -1.697084,0 c -0.424272,0 -0.770698,-0.3352 -0.770698,-0.74569"
           id="path2107" />
        <path
           style="fill:#73ba25;fill-opacity:1;stroke:none"
           d="m 42.334639,916.63356 c -0.949718,0 -1.724259,0.71549 -1.724259,1.60047 l 0,3.45689 c 0,0.89625 0.751222,1.65694 1.638663,1.65694 l 2.401645,0 c 0.295749,0 0.509887,-0.19586 0.509887,-0.46694 l 0,-0.15069 c 0,-0.27108 -0.214138,-0.46688 -0.509887,-0.46688 l -1.969585,0 c -0.552732,0 -0.844691,-0.25989 -0.844691,-0.76072 0,0 0,-0.86984 0,-1.00921 0.159633,0 3.557729,0 3.557729,0 0.568276,0 0.910758,-0.33886 0.910758,-0.9113 l 0,-1.34057 c 0,-0.88122 -0.774541,-1.60038 -1.72426,-1.60038 l -2.242015,0 -0.004,-0.008 z m -0.502114,1.75481 c 0,-0.36903 0.299733,-0.66277 0.68506,-0.66277 l 1.872233,0 c 0.385427,0 0.685061,0.28998 0.685061,0.66277 0,0 0,0.9377 0,1.07701 -0.151758,0 -3.090494,0 -3.242354,0 0,-0.13931 0,-1.07701 0,-1.07701"
           id="path2109" />
        <path
           style="fill:#73ba25;fill-opacity:1;stroke:none"
           d="m 51.256065,916.5922 c -0.669513,0 -1.175512,0.22973 -1.580371,0.418 -0.252998,0.11289 -0.470923,0.21459 -0.6461,0.21459 -0.07782,0 -0.109009,-0.007 -0.167402,-0.10922 l -0.140101,-0.24853 c -0.07782,-0.15434 -0.214037,-0.23348 -0.400874,-0.23348 l -0.198593,0 c -0.237354,0 -0.408643,0.17699 -0.408643,0.42551 l 0,5.79165 c 0,0.27496 0.225697,0.49714 0.509883,0.49714 l 0.198494,0 c 0.280302,0 0.509883,-0.22218 0.509883,-0.49714 l 0,-4.3832 c 0,-0.41048 0.346467,-0.74568 0.770757,-0.74568 l 1.697056,0 c 0.424287,0 0.770657,0.3352 0.770657,0.74568 l 0,4.3832 c 0,0.27496 0.225794,0.49714 0.509984,0.49714 l 0.198493,0 c 0.280202,0 0.509883,-0.22218 0.509883,-0.49714 l 0,-4.54516 c 0,-1.03931 -0.755112,-1.71336 -1.92674,-1.71336 l -0.214038,0"
           id="path2111" />
      </g>
      <flowRoot
         xml:space="preserve"
         id="flowRoot9987"
         style="font-size:36px;font-style:normal;font-variant:normal;font-weight:normal;font-stretch:expanded;text-indent:0;text-align:start;text-decoration:none;line-height:125%;letter-spacing:normal;word-spacing:normal;text-transform:none;direction:ltr;block-progression:tb;writing-mode:lr-tb;text-anchor:start;color:#000000;fill:#73ba25;fill-opacity:1;fill-rule:nonzero;stroke:none;stroke-width:2;marker:none;visibility:visible;display:inline;overflow:visible;enable-background:accumulate;font-family:FifthLeg;-inkscape-font-specification:FifthLeg Expanded"
         transform="translate(32.254316,135.9955)"><flowRegion
           id="flowRegion9989"><rect
             id="rect9991"
             width="571.34229"
             height="43.17366"
             x="87.681244"
             y="751.1347"
             style="font-size:36px;fill:#73ba25;fill-opacity:1" /></flowRegion><flowPara
           id="flowPara125"
           style="font-size:12px;fill:#73ba25;fill-opacity:1">Proiect openSUSE</flowPara></flowRoot>      <flowRoot
         xml:space="preserve"
         id="flowRoot9987-1"
         style="font-size:9px;font-style:normal;font-variant:normal;font-weight:normal;font-stretch:expanded;text-indent:0;text-align:start;text-decoration:none;line-height:125%;letter-spacing:normal;word-spacing:normal;text-transform:none;direction:ltr;block-progression:tb;writing-mode:lr-tb;text-anchor:start;color:#000000;fill:#333333;fill-opacity:1;fill-rule:nonzero;stroke:none;stroke-width:2;marker:none;visibility:visible;display:inline;overflow:visible;enable-background:accumulate;font-family:FifthLeg;-inkscape-font-specification:FifthLeg Expanded"
         transform="translate(32.680829,147.86281)"><flowRegion
           id="flowRegion9989-7"><rect
             id="rect9991-4"
             width="571.34229"
             height="43.17366"
             x="87.681244"
             y="751.1347"
             style="font-size:9px;fill:#333333;fill-opacity:1" /></flowRegion><flowPara
           id="flowPara125-0"
           style="font-size:9px;fill:#333333;fill-opacity:1">www.suseromania.ro</flowPara></flowRoot>      <flowRoot
         xml:space="preserve"
         id="flowRoot9987-9"
         style="font-size:36px;font-style:normal;font-variant:normal;font-weight:normal;font-stretch:expanded;text-indent:0;text-align:start;text-decoration:none;line-height:125%;letter-spacing:normal;word-spacing:normal;text-transform:none;direction:ltr;block-progression:tb;writing-mode:lr-tb;text-anchor:start;color:#000000;fill:#2e3436;fill-opacity:1;fill-rule:nonzero;stroke:none;stroke-width:2;marker:none;visibility:visible;display:inline;overflow:visible;enable-background:accumulate;font-family:FifthLeg;-inkscape-font-specification:FifthLeg Expanded"
         transform="translate(-52.19229,197.36028)"><flowRegion
           id="flowRegion9989-4"><rect
             id="rect9991-8"
             width="571.34229"
             height="43.17366"
             x="87.681244"
             y="751.1347"
             style="font-size:36px;fill:#2e3436;fill-opacity:1" /></flowRegion><flowPara
           id="flowPara125-8"
           style="font-size:12px;fill:#2e3436;fill-opacity:1">Lucian OPREA</flowPara><flowPara
           id="flowPara3715"
           style="font-size:12px;fill:#2e3436;fill-opacity:1">Reprezentant openSUSE Romania</flowPara></flowRoot>      <rect
         rx="0.7325663"
         y="1001.8546"
         x="0.50507629"
         height="11.111678"
         width="304.561"
         id="rect3717"
         style="fill:#73ba25;fill-opacity:1;fill-rule:nonzero;stroke:none" />
      <flowRoot
         xml:space="preserve"
         id="flowRoot9987-1-2"
         style="font-size:6px;font-style:normal;font-variant:normal;font-weight:normal;font-stretch:expanded;text-indent:0;text-align:start;text-decoration:none;line-height:125%;letter-spacing:normal;word-spacing:normal;text-transform:none;direction:ltr;block-progression:tb;writing-mode:lr-tb;text-anchor:start;color:#000000;fill:#2e3436;fill-opacity:1;fill-rule:nonzero;stroke:none;stroke-width:2;marker:none;visibility:visible;display:inline;overflow:visible;enable-background:accumulate;font-family:sans;-inkscape-font-specification:sans"
         transform="translate(-76.365874,275.07731)"><flowRegion
           id="flowRegion9989-7-4"><rect
             id="rect9991-4-5"
             width="571.34229"
             height="43.17366"
             x="87.681244"
             y="751.1347"
             style="font-size:6px;fill:#2e3436;fill-opacity:1;font-family:sans;-inkscape-font-specification:sans" /></flowRegion><flowPara
           id="flowPara125-0-5"
           style="font-size:6px;fill:#2e3436;fill-opacity:1;font-family:sans;-inkscape-font-specification:sans">oprea.luci@gmail.com</flowPara><flowPara
           id="flowPara3750"
           style="font-size:6px;fill:#2e3436;fill-opacity:1;font-family:sans;-inkscape-font-specification:sans">http://en.opensuse.org/User:Lucian_Oprea</flowPara></flowRoot>      <rect
         ry="0"
         rx="0"
         y="861.25684"
         x="0.2441235"
         height="190.28188"
         width="304.57782"
         id="rect4206"
         style="fill:none;stroke:#000000;stroke-width:0.30000001;stroke-linejoin:round;stroke-miterlimit:4;stroke-opacity:0.98255813;stroke-dasharray:none;stroke-dashoffset:0" />
    </g>
  </g>
</svg>
