<?xml version="1.0" encoding="UTF-8" standalone="no"?>
<!-- Created with Inkscape (http://www.inkscape.org/) -->

<svg
   xmlns:dc="http://purl.org/dc/elements/1.1/"
   xmlns:cc="http://creativecommons.org/ns#"
   xmlns:rdf="http://www.w3.org/1999/02/22-rdf-syntax-ns#"
   xmlns:svg="http://www.w3.org/2000/svg"
   xmlns="http://www.w3.org/2000/svg"
   xmlns:sodipodi="http://sodipodi.sourceforge.net/DTD/sodipodi-0.dtd"
   xmlns:inkscape="http://www.inkscape.org/namespaces/inkscape"
   width="6023.6221"
   height="3543.3069"
   id="svg2"
   version="1.1"
   inkscape:version="0.48.4 r9939"
   sodipodi:docname="oSC13-Board-1.svg"
   inkscape:export-filename="/home/hvogel/oSC13-Board-1.png"
   inkscape:export-xdpi="29.997402"
   inkscape:export-ydpi="29.997402">
  <defs
     id="defs4" />
  <sodipodi:namedview
     id="base"
     pagecolor="#ffffff"
     bordercolor="#666666"
     borderopacity="1.0"
     inkscape:pageopacity="0.0"
     inkscape:pageshadow="2"
     inkscape:zoom="0.10634615"
     inkscape:cx="3045.0428"
     inkscape:cy="1226.8924"
     inkscape:document-units="px"
     inkscape:current-layer="layer1"
     showgrid="false"
     units="m"
     showborder="true"
     inkscape:showpageshadow="false"
     inkscape:window-width="1680"
     inkscape:window-height="991"
     inkscape:window-x="0"
     inkscape:window-y="27"
     inkscape:window-maximized="1" />
  <metadata
     id="metadata7">
    <rdf:RDF>
      <cc:Work
         rdf:about="">
        <dc:format>image/svg+xml</dc:format>
        <dc:type
           rdf:resource="http://purl.org/dc/dcmitype/StillImage" />
        <dc:title></dc:title>
      </cc:Work>
    </rdf:RDF>
  </metadata>
  <g
     inkscape:label="Layer 1"
     inkscape:groupmode="layer"
     id="layer1"
     transform="translate(0,2490.957)">
    <g
       id="g9310"
       transform="translate(-0.51669312,8.4655762e-5)">
      <rect
         y="-718.69904"
         x="355.45203"
         height="884.61749"
         width="884.61749"
         id="rect2991-9-9-0"
         style="fill:#008080;fill-opacity:1" />
      <rect
         y="-718.69904"
         x="1241.2788"
         height="884.61749"
         width="884.61749"
         id="rect2991-5-5-8-3"
         style="fill:#deaa87;fill-opacity:1" />
      <rect
         y="-718.69904"
         x="3898.759"
         height="884.61749"
         width="884.61749"
         id="rect2991-5-4-2-7-1-2-3"
         style="fill:#808000;fill-opacity:1" />
      <rect
         y="-718.69904"
         x="4784.5859"
         height="884.61749"
         width="884.61749"
         id="rect2991-5-4-2-7-6-9-1-5"
         style="fill:#afe9af;fill-opacity:1" />
      <path
         transform="matrix(1.3208853,0,0,1.3208853,-352.18011,-902.2616)"
         d="m 1203.6166,473.14401 c 0,184.36124 -149.4543,333.81555 -333.81551,333.81555 -184.36124,0 -333.81556,-149.45431 -333.81556,-333.81555 0,-184.36124 149.45432,-333.81555 333.81556,-333.81555 184.36121,0 333.81551,149.45431 333.81551,333.81555 z"
         sodipodi:ry="333.81555"
         sodipodi:rx="333.81555"
         sodipodi:cy="473.14401"
         sodipodi:cx="869.80109"
         id="path8320-1-5"
         style="fill:#f2f2f2;fill-opacity:1"
         sodipodi:type="arc" />
      <path
         transform="matrix(1.3208853,0,0,1.3208853,533.64667,-901.3593)"
         d="m 1203.6166,473.14401 c 0,184.36124 -149.4543,333.81555 -333.81551,333.81555 -184.36124,0 -333.81556,-149.45431 -333.81556,-333.81555 0,-184.36124 149.45432,-333.81555 333.81556,-333.81555 184.36121,0 333.81551,149.45431 333.81551,333.81555 z"
         sodipodi:ry="333.81555"
         sodipodi:rx="333.81555"
         sodipodi:cy="473.14401"
         sodipodi:cx="869.80109"
         id="path8320-6-5-5"
         style="fill:#ffaaee;fill-opacity:1"
         sodipodi:type="arc" />
      <path
         transform="matrix(1.3208853,0,0,1.3208853,3191.127,-901.3593)"
         d="m 1203.6166,473.14401 c 0,184.36124 -149.4543,333.81555 -333.81551,333.81555 -184.36124,0 -333.81556,-149.45431 -333.81556,-333.81555 0,-184.36124 149.45432,-333.81555 333.81556,-333.81555 184.36121,0 333.81551,149.45431 333.81551,333.81555 z"
         sodipodi:ry="333.81555"
         sodipodi:rx="333.81555"
         sodipodi:cy="473.14401"
         sodipodi:cx="869.80109"
         id="path8320-6-4-7-6-6-6"
         style="fill:#ffff00;fill-opacity:1"
         sodipodi:type="arc" />
      <path
         transform="matrix(1.3208853,0,0,1.3208853,4076.9538,-901.3593)"
         d="m 1203.6166,473.14401 c 0,184.36124 -149.4543,333.81555 -333.81551,333.81555 -184.36124,0 -333.81556,-149.45431 -333.81556,-333.81555 0,-184.36124 149.45432,-333.81555 333.81556,-333.81555 184.36121,0 333.81551,149.45431 333.81551,333.81555 z"
         sodipodi:ry="333.81555"
         sodipodi:rx="333.81555"
         sodipodi:cy="473.14401"
         sodipodi:cx="869.80109"
         id="path8320-6-4-7-6-2-5-5"
         style="fill:#afc6e9;fill-opacity:1"
         sodipodi:type="arc" />
      <rect
         y="-1604.5258"
         x="355.45203"
         height="884.61749"
         width="884.61749"
         id="rect2991-9-9"
         style="fill:#00ffff;fill-opacity:1" />
      <rect
         y="-1604.5258"
         x="1241.2788"
         height="884.61749"
         width="884.61749"
         id="rect2991-5-5-8"
         style="fill:#552200;fill-opacity:1" />
      <rect
         y="-1604.5258"
         x="3898.759"
         height="884.61749"
         width="884.61749"
         id="rect2991-5-4-2-7-1-2"
         style="fill:#00ccff;fill-opacity:1" />
      <rect
         y="-1604.5258"
         x="4784.5859"
         height="884.61749"
         width="884.61749"
         id="rect2991-5-4-2-7-6-9-1"
         style="fill:#ac9393;fill-opacity:1" />
      <path
         transform="matrix(1.3208853,0,0,1.3208853,-352.18011,-1788.0884)"
         d="m 1203.6166,473.14401 c 0,184.36124 -149.4543,333.81555 -333.81551,333.81555 -184.36124,0 -333.81556,-149.45431 -333.81556,-333.81555 0,-184.36124 149.45432,-333.81555 333.81556,-333.81555 184.36121,0 333.81551,149.45431 333.81551,333.81555 z"
         sodipodi:ry="333.81555"
         sodipodi:rx="333.81555"
         sodipodi:cy="473.14401"
         sodipodi:cx="869.80109"
         id="path8320-1"
         style="fill:#ffff00;fill-opacity:1"
         sodipodi:type="arc" />
      <path
         transform="matrix(1.3208853,0,0,1.3208853,533.64667,-1787.1861)"
         d="m 1203.6166,473.14401 c 0,184.36124 -149.4543,333.81555 -333.81551,333.81555 -184.36124,0 -333.81556,-149.45431 -333.81556,-333.81555 0,-184.36124 149.45432,-333.81555 333.81556,-333.81555 184.36121,0 333.81551,149.45431 333.81551,333.81555 z"
         sodipodi:ry="333.81555"
         sodipodi:rx="333.81555"
         sodipodi:cy="473.14401"
         sodipodi:cx="869.80109"
         id="path8320-6-5"
         style="fill:#2a7fff;fill-opacity:1"
         sodipodi:type="arc" />
      <path
         transform="matrix(1.3208853,0,0,1.3208853,3191.127,-1787.1861)"
         d="m 1203.6166,473.14401 c 0,184.36124 -149.4543,333.81555 -333.81551,333.81555 -184.36124,0 -333.81556,-149.45431 -333.81556,-333.81555 0,-184.36124 149.45432,-333.81555 333.81556,-333.81555 184.36121,0 333.81551,149.45431 333.81551,333.81555 z"
         sodipodi:ry="333.81555"
         sodipodi:rx="333.81555"
         sodipodi:cy="473.14401"
         sodipodi:cx="869.80109"
         id="path8320-6-4-7-6-6"
         style="fill:#aca793;fill-opacity:1"
         sodipodi:type="arc" />
      <path
         transform="matrix(1.3208853,0,0,1.3208853,4076.9538,-1787.1861)"
         d="m 1203.6166,473.14401 c 0,184.36124 -149.4543,333.81555 -333.81551,333.81555 -184.36124,0 -333.81556,-149.45431 -333.81556,-333.81555 0,-184.36124 149.45432,-333.81555 333.81556,-333.81555 184.36121,0 333.81551,149.45431 333.81551,333.81555 z"
         sodipodi:ry="333.81555"
         sodipodi:rx="333.81555"
         sodipodi:cy="473.14401"
         sodipodi:cx="869.80109"
         id="path8320-6-4-7-6-2-5"
         style="fill:#ff2a7f;fill-opacity:1"
         sodipodi:type="arc" />
      <g
         transform="translate(-0.51675415,9.2285156e-5)"
         id="g8825">
        <rect
           style="fill:#008000;fill-opacity:1"
           id="rect2991-5-4-48-2-6"
           width="884.61749"
           height="884.61749"
           x="2127.1057"
           y="-718.69904" />
        <rect
           style="fill:#008000;fill-opacity:1"
           id="rect2991-5-4-2-4-8-1"
           width="884.61749"
           height="884.61749"
           x="3012.9324"
           y="-718.69904" />
        <rect
           style="fill:#008000;fill-opacity:1"
           id="rect2991-5-4-48-2"
           width="884.61749"
           height="884.61749"
           x="2127.1057"
           y="-1604.5258" />
        <rect
           style="fill:#008000;fill-opacity:1"
           id="rect2991-5-4-2-4-8"
           width="884.61749"
           height="884.61749"
           x="3012.9324"
           y="-1604.5258" />
        <path
           sodipodi:type="arc"
           style="fill:#fcb11c;fill-opacity:1"
           id="path7213"
           sodipodi:cx="1438.6981"
           sodipodi:cy="4897.3755"
           sodipodi:rx="554.79205"
           sodipodi:ry="554.79205"
           d="m 1993.4902,4897.3755 c 0,306.4032 -248.3889,554.792 -554.7921,554.792 -306.4032,0 -554.79203,-248.3888 -554.79203,-554.792 0,-306.4032 248.38883,-554.7921 554.79203,-554.7921 306.4032,0 554.7921,248.3889 554.7921,554.7921 z"
           transform="matrix(1.5923772,0,0,1.5923772,720.86095,-8517.7726)" />
        <g
           id="g8566"
           transform="translate(353.29742,-1.0440976e-5)">
          <path
             style="fill:#0d5eaf;fill-opacity:1;stroke:none"
             d="m 2200.1021,-733.32516 c -12.622,-20.07659 -30.8427,-56.7364 -35.4534,-71.33183 -4.2308,-13.39309 -5.4676,-23.51885 -3.8676,-31.66461 3.1111,-15.83745 26.8745,-86.59434 30.199,-89.91882 1.9511,-1.95106 6.8708,5.15291 14.8128,21.38953 10.7188,21.91355 16.9347,38.00457 22.1916,57.4462 5.349,19.78291 6.0714,25.30308 4.4032,33.64896 -2.3939,11.97681 -7.7625,34.57167 -10.5474,44.39119 -3.2933,11.61169 -15.4101,42.81369 -16.6261,42.81369 -0.4692,0 -2.7697,-3.04845 -5.1121,-6.77431 z"
             id="path4258"
             inkscape:connector-curvature="0" />
          <path
             style="fill:#0d5eaf;fill-opacity:1;stroke:none"
             d="m 2250.4833,-845.84427 c -13.7467,-21.04173 -18.426,-35.90412 -18.5777,-59.00662 -0.092,-13.97005 0.1463,-15.90574 2.9999,-24.38755 3.4347,-10.20915 15.4265,-34.09292 25.0524,-49.8961 3.4371,-5.64292 9.9636,-16.44564 14.5032,-24.00606 4.5396,-7.5604 8.3993,-13.6008 8.577,-13.4231 2.4782,2.4782 20.0812,77.62361 20.0753,85.69942 -0.01,9.08439 -4.8829,27.72531 -9.782,37.39424 -5.2388,10.33959 -30.0805,53.87748 -32.7401,57.38078 l -2.0074,2.64429 -8.1006,-12.3993 z"
             id="path4260"
             inkscape:connector-curvature="0" />
          <path
             style="fill:#0d5eaf;fill-opacity:1;stroke:none"
             d="m 2326.5967,-927.61261 c -4.043,-9.88844 -5.4863,-20.01548 -6.6436,-46.61844 l -1.1794,-27.10845 4.3571,-8.6599 c 5.7313,-11.3913 15.1023,-23.9551 32.4909,-43.5609 15.8722,-17.896 25.9532,-28.1341 26.8346,-27.2526 1.1576,1.1575 5.8413,36.4173 6.5285,49.1468 0.6227,11.5372 0.4354,13.8639 -1.6582,20.5939 -3.0868,9.9225 -11.5821,26.87559 -18.4351,36.78893 -6.5499,9.47466 -25.5547,33.08162 -34.5183,42.87705 l -6.447,7.04529 -1.3295,-3.25168 0,0 z"
             id="path4262"
             inkscape:connector-curvature="0" />
          <path
             style="fill:#0d5eaf;fill-opacity:1;stroke:none"
             d="m 2426.5524,-1023.8523 c -1.4686,-1.7697 -2.6109,-6.9218 -6.1781,-27.8658 -2.4535,-14.4052 -2.7593,-18.5773 -2.1456,-29.2651 1.349,-23.4883 3.7084,-30.3817 15.3957,-44.9815 8.4069,-10.5018 40.4311,-44.8314 45.9822,-49.2923 l 3.9871,-3.2042 0.6771,2.6979 c 1.4273,5.6865 2.7739,31.0936 2.8648,54.0489 0.091,23.1048 0,24.2303 -2.7749,32.602 -1.5783,4.7692 -4.2733,11.5977 -5.9889,15.1746 -6.2462,13.0217 -23.6235,31.7575 -42.3737,45.6861 -4.2933,3.1893 -7.9136,5.7986 -8.0452,5.7986 -0.1314,0 -0.7617,-0.6296 -1.4005,-1.3992 l 0,0 z"
             id="path4264"
             inkscape:connector-curvature="0" />
          <path
             style="fill:#0d5eaf;fill-opacity:1;stroke:none"
             d="m 2519.1139,-1103.4176 c -1.023,-7.6317 -2.1426,-23.4614 -2.4882,-35.177 l -0.6283,-21.3011 3.0733,-5.2542 c 4.3952,-7.5139 28.0837,-30.72 43.2546,-42.3738 13.2299,-10.1626 27.6363,-18.4582 29.7677,-17.141 1.664,1.0285 1.5052,6.4878 -0.9813,33.723 -2.5785,28.244 -4.2126,36.5151 -9.3189,47.1703 -4.8486,10.1173 -11.0283,17.3371 -24.4947,28.6178 -10.0065,8.3824 -31.2359,23.6593 -34.7538,25.0092 -1.2668,0.4862 -1.9303,-2.081 -3.4304,-13.2732 l 0,0 z"
             id="path4266"
             inkscape:connector-curvature="0" />
          <path
             style="fill:#0d5eaf;fill-opacity:1;stroke:none"
             d="m 2605.5623,-1130.394 c -1.1986,-3.1235 0.5968,-26.7762 2.8312,-37.3004 3.9735,-18.715 7.5349,-28.1213 12.5435,-33.1299 8.454,-8.4541 23.8206,-17.6931 47.01,-28.2645 l 8.0043,-3.6488 -0.539,7.3211 c -0.4047,5.4981 -2.1629,11.5047 -7.0607,24.1214 -3.5869,9.2402 -8.0799,21.5439 -9.9844,27.3415 -2.5828,7.8626 -4.6751,12.0137 -8.2336,16.3363 -6.955,8.4482 -27.2475,22.6282 -38.5024,26.9047 -4.882,1.8551 -5.4674,1.8858 -6.0689,0.3186 l 0,0 z"
             id="path4268"
             inkscape:connector-curvature="0" />
          <path
             style="fill:#0d5eaf;fill-opacity:1;stroke:none"
             d="m 2689.0394,-1162.8653 c -1.8769,-4.8912 3.6417,-28.1429 9.3751,-39.5008 3.7762,-7.4806 8.9868,-11.5222 21.8477,-16.9463 8.2287,-3.4704 32.5693,-12.3316 33.8734,-12.3316 2.6171,0 -5.4859,17.3205 -16.2566,34.7492 -8.4979,13.751 -20.6769,23.9968 -38.6078,32.4796 -7.7531,3.6678 -9.3276,3.9063 -10.2318,1.5499 l 0,0 z"
             id="path4270"
             inkscape:connector-curvature="0" />
          <path
             style="fill:#0d5eaf;fill-opacity:1;stroke:none"
             d="m 2755.8672,-1182.8288 c 0,-2.248 4.657,-12.6771 8.9213,-19.9783 8.7318,-14.9511 18.6566,-23.0496 32.6255,-26.6223 9.1211,-2.3328 23.4736,-3.9514 26.1003,-2.9434 1.678,0.6439 -2.0044,6.1968 -18.3688,27.6993 l -5.4582,7.172 -12.426,4.403 c -6.8343,2.4217 -16.0133,5.9578 -20.3977,7.8582 -8.2829,3.5901 -10.9964,4.1852 -10.9964,2.4115 z"
             id="path4272"
             inkscape:connector-curvature="0" />
          <path
             style="fill:#0d5eaf;fill-opacity:1;stroke:none"
             d="m 2859.9207,-1188.2834 c -5.2243,-0.7073 -10.6944,-3.1802 -12.892,-5.8282 -1.1386,-1.3718 -0.524,-2.235 3.8725,-5.4389 8.0475,-5.8644 20.688,-12.834 27.3647,-15.0881 4.7985,-1.62 7.6927,-1.8915 14.1657,-1.3291 9.2856,0.8068 34.8675,4.7335 35.5983,5.4642 0.9841,0.9842 -37.4352,18.9785 -43.7216,20.4777 -8.0091,1.91 -17.9202,2.6181 -24.3876,1.7424 z"
             id="path4274"
             inkscape:connector-curvature="0" />
          <path
             style="fill:#0d5eaf;fill-opacity:1;stroke:none"
             d="m 2207.4676,-671.48786 c -0.061,-12.98014 2.5566,-33.57039 5.5526,-43.68121 10.8369,-36.57194 51.1781,-117.49516 76.1874,-152.82953 5.4852,-7.74983 13.7283,-19.54527 18.318,-26.21215 4.688,-6.80974 10.9942,-14.4093 14.3907,-17.34225 13.2971,-11.48224 24.0237,-22.18804 36.7247,-36.65352 7.3279,-8.34597 17.6374,-19.37693 22.9102,-24.51325 17.2817,-16.83479 44.8286,-41.00643 53.0699,-46.56773 4.4447,-2.9992 15.0161,-10.9134 23.4919,-17.587 18.9486,-14.9195 33.8526,-25.0357 52.2529,-35.4669 7.7498,-4.3934 19.6998,-11.3801 26.5554,-15.5258 6.8556,-4.1458 18.5616,-10.5871 26.0133,-14.314 20.4018,-10.2037 96.4757,-40.1943 128.7984,-50.7763 80.8728,-26.4763 140.859,-42.3605 146.3364,-38.7496 1.4896,0.9821 0.6404,1.2422 -23.2458,7.1228 -6.025,1.4833 -22.1208,6.6737 -35.7684,11.5344 -13.6476,4.8605 -44.3238,15.5547 -68.1695,23.765 -63.7759,21.9583 -66.3941,22.9049 -89.421,32.3271 -36.4016,14.8949 -52.1571,21.8326 -65.0334,28.6361 -38.0592,20.1095 -78.1153,48.0268 -126.2734,88.0063 -32.6204,27.08071 -49.4188,42.39908 -82.9323,75.62542 l -26.5699,26.34242 -22.0259,33.60063 c -25.5726,39.01124 -48.4635,80.63442 -59.0128,107.30519 -5.7556,14.55124 -12.1928,39.97032 -15.3076,60.44617 -1.5205,9.99591 -3.4639,19.50706 -4.3185,21.13586 -0.8547,1.62882 -4.011,5.64409 -7.014,8.92285 l -5.4601,5.96141 -0.05,-10.51241 0,0 z"
             id="path4276"
             inkscape:connector-curvature="0" />
          <path
             style="fill:#0d5eaf;fill-opacity:1;stroke:none"
             d="m 2233.8491,-714.45956 c 0.7477,-5.6369 6.8522,-24.6629 9.6471,-30.06767 3.3186,-6.41756 16.6838,-18.05677 26.4635,-23.04599 7.287,-3.71752 21.6203,-7.41332 38.0807,-9.81892 15.9212,-2.3268 35.5079,-6.90086 61.0643,-14.2603 8.1505,-2.34708 15.1078,-4.26743 15.4608,-4.26743 3.105,0 -30.048,40.72955 -42.1737,51.81165 -8.3243,7.60796 -23.2746,18.15216 -31.9921,22.56352 -3.8813,1.96406 -14.6171,5.54072 -23.8572,7.94816 -16.4089,4.27519 -17.2266,4.37729 -35.0952,4.38255 l -18.2948,0.005 0.6966,-5.25097 z"
             id="path4278"
             inkscape:connector-curvature="0" />
          <path
             style="fill:#0d5eaf;fill-opacity:1;stroke:none"
             d="m 2297.9233,-791.00786 c -0.5961,-0.27454 -6.9118,-1.24756 -14.035,-2.16224 -7.1231,-0.91471 -13.396,-2.10803 -13.9398,-2.6518 -0.5957,-0.59568 0.2439,-3.25801 2.1122,-6.69739 4.4261,-8.14835 7.363,-10.36256 51.6672,-38.95329 21.8694,-14.113 30.6285,-17.44848 62.3787,-23.75432 12.2976,-2.44241 29.4189,-3.03357 29.4189,-1.01581 0,0.66767 -4.0648,5.911 -9.0329,11.65182 -4.968,5.74085 -13.6804,16.2909 -19.3607,23.44457 -11.9664,15.07029 -22.1766,26.72346 -26.1591,29.85606 -5.0283,3.95524 -12.848,6.69612 -23.4033,8.20308 -10.7743,1.53821 -37.7491,2.95294 -39.6462,2.07932 z"
             id="path4280"
             inkscape:connector-curvature="0" />
          <path
             style="fill:#0d5eaf;fill-opacity:1;stroke:none"
             d="m 2321.9049,-880.32062 -3.1155,-0.68467 7.0996,-8.78891 c 8.5436,-10.57648 14.5282,-15.83128 25.7682,-22.62615 21.3876,-12.92939 44.7017,-16.6224 95.5984,-15.14304 22.4402,0.65226 25.5988,0.95385 24.4527,2.33485 -2.5939,3.12553 -35.0751,25.75266 -42.035,29.28265 -17.4821,8.86661 -41.5214,13.916 -73.7618,15.49339 -23.2137,1.13577 -29.3304,1.15949 -34.0066,0.13192 z"
             id="path4282"
             inkscape:connector-curvature="0" />
          <path
             style="fill:#0d5eaf;fill-opacity:1;stroke:none"
             d="m 2428.9926,-947.49465 c -7.0627,-2.40899 -21.2597,-10.52864 -26.3301,-15.05891 -3.2896,-2.93912 -3.6699,-3.69928 -2.3115,-4.62068 18.6812,-12.67163 34.3036,-17.82643 57.9881,-19.1339 13.7261,-0.75772 24.6338,0.97584 53.3119,8.47301 l 21.879,5.7197 -8.604,3.47093 c -4.7322,1.90903 -13.6022,5.00402 -19.7112,6.87774 -6.109,1.87375 -14.7851,4.80442 -19.2803,6.51261 -9.5855,3.64253 -26.3669,7.18715 -38.5075,8.13363 -4.7289,0.36867 -9.5734,0.85747 -10.7657,1.08624 -1.1923,0.22878 -4.6432,-0.4284 -7.6687,-1.46037 z"
             id="path4284"
             inkscape:connector-curvature="0" />
          <path
             style="fill:#0d5eaf;fill-opacity:1;stroke:none"
             d="m 2532.0438,-1013.2941 c -30.4632,-9.7984 -39.3631,-12.8669 -43.8149,-15.1062 l -4.7948,-2.4119 4.7948,-2.8067 c 11.4474,-6.7011 44.1672,-20.3711 55.1462,-23.0395 9.3529,-2.2733 17.6091,-1.2424 30.7552,3.8402 4.6673,1.8044 16.0075,4.8235 25.2004,6.709 9.6609,1.9815 16.7146,3.9443 16.7146,4.6511 0,1.5913 -6.6928,7.8707 -13.5486,12.7116 -11.6873,8.2523 -38.7494,18.2963 -50.9429,18.9073 -6.3725,0.3192 -9.4963,-0.2339 -19.51,-3.4549 z"
             id="path4286"
             inkscape:connector-curvature="0" />
          <path
             style="fill:#0d5eaf;fill-opacity:1;stroke:none"
             d="m 2600.8708,-1058.704 c -14.348,-2.973 -28.1896,-11.2435 -33.2869,-19.8894 -1.5097,-2.5605 -2.5479,-4.8525 -2.3071,-5.0932 0.2407,-0.2407 4.4848,-2.4634 9.4313,-4.9392 6.2278,-3.1171 10.8989,-4.6742 15.1885,-5.0631 5.9743,-0.5418 6.6886,-0.3063 20.052,6.6111 14.8287,7.6757 23.1407,10.0099 45.1167,12.6695 5.6634,0.6855 11.0287,1.4896 11.9229,1.7872 4.3342,1.4421 -38.7436,13.69 -52.0269,14.7924 -4.1042,0.3406 -9.9862,-0.024 -14.0905,-0.8753 l 0,0 z"
             id="path4288"
             inkscape:connector-curvature="0" />
          <path
             style="fill:#0d5eaf;fill-opacity:1;stroke:none"
             d="m 2668.3911,-1090.398 c -9.7049,-5.4913 -28.5002,-22.7 -28.5002,-26.0942 0,-1.2347 17.0967,-6.5248 24.088,-7.4534 3.9471,-0.5242 5.8091,-0.2306 8.1291,1.2821 5.5401,3.6122 34.9842,27.6507 34.9842,28.5617 0,1.2088 -15.8114,4.1917 -26.5554,5.0097 -7.2039,0.5485 -9.2591,0.3275 -12.1457,-1.3059 l 0,0 z"
             id="path4290"
             inkscape:connector-curvature="0" />
          <path
             style="fill:#0d5eaf;fill-opacity:1;stroke:none"
             d="m 2741.0801,-1126.1096 c -7.1003,-2.7562 -11.9539,-5.5435 -17.1206,-9.8321 -3.9661,-3.292 -7.0294,-6.5304 -6.8073,-7.1965 0.222,-0.6661 4.0243,-2.3407 8.4495,-3.7214 14.1033,-4.4004 20.0769,-2.3006 37.4127,13.1514 l 11.1198,9.9114 -5.0689,0.7179 c -11.5297,1.6331 -17.6893,0.966 -27.9852,-3.0307 z"
             id="path4292"
             inkscape:connector-curvature="0" />
          <path
             style="fill:#0d5eaf;fill-opacity:1;stroke:none"
             d="m 2806.8101,-1150.3063 c -3.875,-0.3766 -8.7524,-1.4494 -10.8389,-2.3841 -4.2701,-1.9128 -17.3423,-11.5085 -17.3423,-12.7302 0,-1.1145 10.9425,-4.4416 14.6079,-4.4416 3.6531,0 10.7628,4.2439 21.7903,13.007 7.6912,6.1119 7.9889,6.503 4.9493,6.503 -1.7787,0 -3.8836,0.1645 -4.6776,0.3653 -0.7938,0.2009 -4.6138,0.057 -8.4887,-0.3194 z"
             id="path4294"
             inkscape:connector-curvature="0" />
          <path
             style="fill:#008000;fill-opacity:1;stroke:none"
             d="m 2836.272,-1173.4186 c -0.6339,-0.7638 -3.6559,-2.2889 -6.7155,-3.3892 -3.0596,-1.1001 -5.1614,-2.4011 -4.6706,-2.891 1.4009,-1.3982 13.4038,-4.259 17.6494,-4.2066 4.7659,0.059 14.3905,3.3004 14.9426,5.0326 0.2505,0.7859 -3.0117,2.3673 -8.3846,4.0646 -10.0529,3.1757 -11.2328,3.3036 -12.8213,1.3896 l 0,0 z"
             id="path4296"
             inkscape:connector-curvature="0" />
          <path
             style="fill:#008000;fill-opacity:1;stroke:none"
             d="m 2696.5144,-207.00878 c -34.9857,-5.76482 -94.6784,-17.21526 -112.7247,-21.62316 -66.1826,-16.16548 -173.3021,-56.18567 -240.6237,-89.89779 -59.3288,-29.70957 -120.7122,-64.41089 -149.7397,-84.65102 -19.8783,-13.8606 -67.1522,-54.03219 -81.9932,-69.67476 l -7.3674,-7.76533 9.0131,-25.32544 c 5.7137,-16.05432 13.5689,-32.54505 21.458,-45.04693 18.5367,-29.37523 75.6222,-101.08224 107.4342,-134.95149 l 12.6137,-13.42934 17.9359,-2.54601 c 20.8384,-2.95801 27.5898,-1.69317 54.387,10.18904 29.9616,13.28543 101.5449,49.72827 131.58,66.98708 15.8597,9.11336 33.7133,18.80286 39.6747,21.53227 10.0868,4.61818 10.3876,4.97304 4.3356,5.11325 -7.7475,0.17948 -30.3806,-6.17183 -79.9292,-22.42995 -35.7416,-11.72771 -81.8156,-22.8889 -94.4867,-22.8889 -11.3332,0 -76.193,62.95931 -108.878,105.68761 -7.5276,9.84085 -13.9989,16.95609 -14.3803,15.81166 -1.6588,-4.97636 38.8388,-81.81009 58.6876,-111.34453 4.6599,-6.93383 7.9893,-13.8665 7.3985,-15.40588 -1.273,-3.31743 -14.7512,-5.45019 -24.9281,-3.94459 -6.0095,0.88906 -9.8484,4.38713 -22.8794,20.84844 -43.4307,54.863 -59.6753,80.37023 -78.4178,123.13087 -6.4405,14.69388 -11.7288,27.76014 -11.7517,29.03609 -0.062,3.45192 46.9172,42.62623 78.8608,65.75914 15.3777,11.13632 44.6428,30.00365 65.0334,41.92743 34.6968,20.28957 120.5631,62.17516 149.7985,73.07169 39.4135,14.69007 83.0477,28.71432 104.0535,33.4433 53.4512,12.03328 87.7962,18.70547 107.3052,20.84618 11.3267,1.24287 31.3245,3.91641 44.4395,5.94123 49.8284,7.69293 202.6877,3.42078 202.6877,-5.6648 0,-0.88197 -6.2359,-6.18232 -13.8577,-11.77857 -21.057,-15.4612 -55.824,-57.85954 -81.0244,-98.80944 l -15.1933,-24.68866 3.5889,-7.82807 c 14.9293,-32.5643 31.1644,-54.75812 67.0303,-91.63245 20.7835,-21.36785 33.0226,-31.74352 55.2937,-46.87525 15.7311,-10.68826 36.406,-23.37133 45.9443,-28.18464 9.5382,-4.81327 20.8465,-12.49671 25.1294,-17.07431 16.4664,-17.59942 62.7076,-86.86405 86.6002,-129.71867 22.249,-39.90663 44.9518,-74.44393 76.9485,-117.06022 28.9135,-38.50977 88.17,-108.01226 112.3029,-131.72105 18.8266,-18.49579 19.2648,-20.02127 10.8473,-37.75981 -3.4055,-7.17658 -4.1073,-7.55753 -11.6888,-6.3452 -16.2633,2.60062 -71.2006,21.69747 -101.7875,35.38256 -58.9718,26.38498 -110.1895,95.23451 -149.4368,128.49423 -41.6319,35.28052 -20.7753,13.59489 -76.2798,64.9152 -75.0858,89.89592 -215.0569,87.18778 -217.1191,55.70674 0.1737,-3.09271 1.2052,7.33903 31.1433,6.22394 75.3501,-13.57248 123.5725,-16.71505 144.6833,-42.28727 60.785,-62.36157 82.4103,-67.88499 129.5973,-109.91227 61.9884,-55.21021 175.1586,-150.92167 245.2589,-167.46657 6.2595,-1.4774 11.3809,-3.52 11.3809,-4.5391 0,-1.0192 2.3331,0.2975 5.1847,2.9259 2.8515,2.6284 9.6546,8.4831 15.118,13.0104 17.4671,14.47414 17.7338,25.32978 1.9812,80.64766 -6.6121,23.21989 -29.3924,84.02509 -40.6072,108.38907 -4.3904,9.53826 -16.1462,36.36454 -26.124,59.614 -9.9778,23.24947 -25.8327,56.90428 -35.2331,74.78848 -9.4004,17.8842 -28.6146,54.46552 -42.698,81.29181 -50.7417,96.65301 -53.7665,101.86532 -69.6764,120.06243 -22.0282,25.19493 -47.598,48.9422 -66.2526,61.53016 -23.2294,15.67502 -72.6072,43.59815 -107.3446,60.70322 -34.8185,17.14509 -62.0966,34.15602 -60.8554,37.95015 1.3782,4.21336 34.7292,24.08431 67.7395,40.36012 36.1311,17.81457 65.1459,28.8097 97.5466,36.96523 l 23.8421,6.00125 -28.1776,6.62755 c -40.5901,9.54705 -60.2635,13.03709 -82.3722,14.61269 -10.7305,0.76471 -53.6115,4.72859 -95.291,8.80862 -67.7213,6.62924 -108.6938,8.57863 -124.7388,5.93478 z m 383.9301,-419.60818 c 1.4042,-2.68262 13.5054,-21.46104 26.8916,-41.7298 24.2243,-36.67939 37.0396,-53.45899 62.9191,-82.38247 13.461,-15.04432 28.1525,-41.08131 40.878,-72.44573 9.1352,-22.51523 7.6475,-22.88634 -13.4487,-3.35462 -19.7907,18.32324 -40.5311,45.90854 -65.961,87.72993 -22.0157,36.20649 -62.3507,110.26466 -62.3507,114.48076 0,4.51773 8.4187,2.77033 11.0717,-2.29807 z m 111.7323,-218.98779 c 10.9089,-9.8133 26.0291,-22.78995 33.6006,-28.83697 13.3098,-10.63001 14.0099,-11.69479 21.1132,-32.10674 4.6576,-13.38423 6.5905,-21.8685 5.2805,-23.17851 -2.6311,-2.63111 -30.1549,21.01484 -43.9812,37.7847 -9.4513,11.46353 -35.0444,52.01568 -38.1634,60.46993 -2.5341,6.86883 2.0697,3.93147 22.1503,-14.13241 z"
             id="path4298"
             inkscape:connector-curvature="0"
             sodipodi:nodetypes="csssscssscsssssssscscssscssssssssscssssssssssssccccscssssssssssscsscssscssssssssccssssc" />
          <path
             style="fill:#008000;fill-opacity:1;stroke:#ffffff;stroke-width:0;stroke-linecap:round;stroke-linejoin:round;stroke-miterlimit:4;stroke-opacity:1;stroke-dasharray:none"
             d="m 2682.4005,-495.5488 c -8.4548,-2.19721 -22.4203,-7.7337 -31.306,-12.41095 -10.7433,-5.65501 -60.9645,-35.13066 -80.6261,-47.32078 -6.7943,-4.21247 -17.5581,-10.53918 -23.9195,-14.05933 -6.3613,-3.52016 -17.171,-9.50265 -24.0216,-13.29437 -6.8506,-3.79175 -14.6375,-8.26371 -17.3041,-9.93767 -4.5146,-2.83394 -4.6454,-3.02021 -1.8996,-2.70451 10.9136,1.25478 74.7439,21.17744 100.7734,31.45326 34.7609,13.72285 46.869,16.87962 69.7109,18.17466 10.3497,0.58677 14.4052,0.37115 21.1713,-1.1257 13.4752,-2.98117 27.301,-7.97194 43.6404,-15.75314 8.4017,-4.00107 21.6688,-10.04973 29.4826,-13.44146 7.8138,-3.39175 24.1659,-11.19132 36.3381,-17.33238 21.1527,-10.67207 43.1996,-20.98955 44.4846,-20.81784 0.3322,0.0443 -2.4293,2.14771 -6.137,4.67396 -3.7075,2.52626 -15.9614,11.10052 -27.2304,19.05393 -35.9673,25.38465 -38.2965,26.97394 -55.2955,37.72834 -15.1071,9.5575 -24.6447,14.71382 -41.9686,22.68934 -8.1855,3.76844 -8.0497,5.29393 0.573,6.43713 8.556,1.13322 18.1107,0.89489 22.1782,-0.55575 4.8076,-1.7146 26.959,-12.26136 43.4868,-20.70498 13.0579,-6.67089 18.3008,-10.17989 43.0236,-28.79565 40.6467,-30.60608 48.9525,-36.34921 63.2199,-43.71529 14.4917,-7.48176 28.3634,-13.72045 28.9118,-13.00288 0.2029,0.26548 -3.1999,2.34685 -7.5619,4.62526 -9.3744,4.89654 -38.1476,26.11862 -49.8417,36.7614 -8.5088,7.74375 -22.5545,21.94442 -41.3417,41.79771 -12.9583,13.6938 -25.5057,24.25953 -35.0024,29.47432 -21.1962,11.6392 -47.2942,21.36373 -64.6275,24.08112 -8.7851,1.37727 -12.0621,1.4107 -22.9632,0.23436 -6.9937,-0.75477 -14.1703,-1.75009 -15.9478,-2.21207 l 0,-2e-5 z"
             id="path4300"
             inkscape:connector-curvature="0" />
          <path
             style="fill:#008000;fill-opacity:1;stroke:#ffffff;stroke-width:0;stroke-linecap:round;stroke-linejoin:round;stroke-miterlimit:4;stroke-opacity:1;stroke-dasharray:none"
             d="m 2167.6657,-736.06194 c -4.769,-1.70903 -13.5486,-4.86038 -19.51,-7.00303 -12.8179,-4.60699 -37.1804,-12.09127 -59.072,-18.14719 -28.5296,-7.8922 -28.4233,-7.84494 -35.867,-15.94941 -8.8669,-9.654 -20.8248,-25.61131 -28.5459,-38.09336 -5.9823,-9.67112 -6.2644,-10.44289 -5.6655,-15.49947 0.7633,-6.44478 9.1971,-31.65822 14.5857,-43.60522 5.7353,-12.7153 22.8217,-42.29113 34.1241,-59.06723 8.6703,-12.86922 35.6264,-49.39566 46.298,-62.73528 7.0258,-8.78227 42.8034,-36.16717 59.614,-45.62987 8.5039,-4.7868 44.2361,-21.1027 56.3624,-25.736 6.5352,-2.4971 28.371,-9.5676 88.337,-28.6041 13.1151,-4.1634 33.8027,-10.2434 45.9726,-13.511 l 22.1269,-5.9411 14.7254,0.3004 14.7254,0.3005 -4.3356,4.5513 c -4.2473,4.4588 -4.9094,4.7191 -32.5168,12.7877 -56.7526,16.5865 -59.71,17.5725 -141.9896,47.3393 -19.1844,6.9405 -53.3833,23.5298 -66.1174,32.0727 -18.7205,12.5588 -35.6634,29.40896 -49.112,48.8431 -18.7516,27.09733 -50.473,77.56024 -57.6924,91.77791 -9.0032,17.73087 -19.4494,43.18119 -20.2238,49.2717 -0.4145,3.25944 0.2884,4.90245 4.6561,10.88424 8.7329,11.9603 15.6988,19.37692 25.8779,27.55252 12.5902,10.1121 15.1547,11.58154 28.2091,16.16356 5.9614,2.09243 18.9677,6.74305 28.9031,10.33478 9.9352,3.59169 23.3205,8.06159 29.7451,9.93308 18.0576,5.26031 20.828,6.85402 23.8694,13.73126 1.4123,3.19341 2.5679,6.03619 2.5679,6.31724 0,1.71423 -12.4918,0.0701 -20.0521,-2.63903 l 0,0 z"
             id="path4302"
             inkscape:connector-curvature="0" />
          <path
             style="fill:#008000;fill-opacity:1;stroke:#ffffff;stroke-width:0;stroke-linecap:round;stroke-linejoin:round;stroke-miterlimit:4;stroke-opacity:1;stroke-dasharray:none"
             d="m 2294.0486,-844.02237 c 4.3042,-6.26588 8.3571,-11.8192 9.0065,-12.34069 0.6495,-0.52149 6.3023,-2.41208 12.5617,-4.20133 6.2595,-1.78927 17.2339,-5.04615 24.3876,-7.23752 11.024,-3.37696 15.4851,-4.14548 29.265,-5.04131 36.7794,-2.39105 47.533,-6.07522 79.4487,-27.21905 23.5078,-15.57364 35.6391,-24.39929 36.4528,-26.51991 0.8427,-2.19585 -0.9759,-4.33485 -5.7811,-6.80008 l -3.8426,-1.9714 12.4365,-8.09983 c 14.8121,-9.64703 18.6969,-11.66293 28.6949,-14.8906 9.6982,-3.1309 24.6746,-10.34666 27.1487,-13.0806 1.8232,-2.01459 1.8234,-2.2071 0,-4.21761 -1.0485,-1.15866 -3.1971,-2.29004 -4.7744,-2.51419 -2.6785,-0.38058 -2.0372,-1.22926 9.7004,-12.83725 l 12.5685,-12.42976 10.8776,-3.5626 c 15.8627,-5.1953 35.4853,-15.0607 42.4117,-21.3228 10.2834,-9.297 13.5387,-17.0265 8.6213,-20.4708 -1.3053,-0.9143 -2.1589,-1.8443 -1.8967,-2.0666 0.262,-0.2223 4.8663,-1.4718 10.2315,-2.7766 16.4702,-4.0054 40.1645,-12.0073 45.4157,-15.3375 7.0043,-4.442 6.658,-8.3636 -0.8983,-10.1742 -1.7456,-0.4184 -12.1617,-1.6751 -23.1471,-2.793 -10.9853,-1.1178 -20.2597,-2.3188 -20.6098,-2.6689 -0.7182,-0.7178 11.6765,-13.5866 13.0856,-13.5866 0.4991,0 3.9287,2.451 7.6211,5.4466 10.3158,8.3692 15.9865,10.8126 25.0815,10.8074 15.7641,-0.01 37.3847,-5.1861 38.976,-9.333 0.8988,-2.3423 -6.0405,-9.3672 -19.9473,-20.1932 -6.8569,-5.338 -12.621,-10.1184 -12.809,-10.623 -0.5293,-1.4206 22.4058,-15.0717 25.3855,-15.1097 0.659,-0.01 4.3953,2.9144 8.303,6.4952 6.3218,5.7927 11.1239,8.7093 23.28,14.1389 l 3.516,1.5706 -6.0621,7.5871 c -11.8644,14.8494 -19.3338,30.3155 -24.4201,50.564 -2.2765,9.0629 -2.5376,12.4822 -2.4708,32.3537 0.071,21.2796 0.2173,22.7593 3.4432,34.97064 5.7997,21.95428 21.6368,49.34116 38.14,65.95462 16.3801,16.48967 43.0383,34.61077 60.7521,41.29662 l 8.1291,3.06825 -5.4194,-0.66061 c -2.9807,-0.36332 -13.2235,-2.60561 -22.7617,-4.98287 -14.949,-3.72575 -19.7621,-5.50844 -34.8763,-12.91731 -17.1871,-8.42496 -20.9143,-10.90157 -50.9238,-33.83736 -8.0876,-6.18125 -22.2367,-13.0824 -31.8021,-15.51132 -8.3658,-2.12432 -25.1463,-1.51423 -34.6844,1.26099 -3.2789,0.95401 -16.8451,6.62443 -30.147,12.60092 -13.3022,5.97651 -24.4118,10.64029 -24.6881,10.36398 -0.2763,-0.27633 1.2288,-1.82286 3.3447,-3.43675 5.2813,-4.02822 35.1617,-37.14166 43.105,-47.76887 14.269,-19.09038 29.2518,-58.45563 23.1412,-60.80053 -2.4654,-0.946 -3.8967,0.4778 -12.4783,12.4145 -21.8028,30.32663 -65.1809,76.8743 -84.6533,90.83866 -15.4407,11.0731 -52.9317,33.96166 -55.6286,33.96166 -0.5516,0 8.4468,-9.88383 19.9965,-21.96408 31.2737,-32.71024 34.5482,-36.26977 34.5482,-37.55609 0,-0.64775 -0.566,-1.17772 -1.2578,-1.17772 -1.906,0 -15.9477,9.7867 -32.9456,22.96237 -30.9318,23.97623 -40.8414,30.4085 -70.8677,45.99986 l -28.7884,14.94858 -16.2588,0.0965 c -15.3504,0.0911 -17.228,0.34578 -33.6012,4.55667 -29.4417,7.57188 -39.4085,11.89525 -57.1143,24.77467 -5.1827,3.76999 -10.8017,7.56739 -12.4866,8.4387 -2.8037,1.44982 -13.8069,3.95392 -17.3738,3.95392 -0.8639,0 1.801,-4.79274 6.3345,-11.39254 z"
             id="path4304"
             inkscape:connector-curvature="0" />
          <path
             style="fill:#008000;fill-opacity:1;stroke:#ffffff;stroke-width:0;stroke-linecap:round;stroke-linejoin:round;stroke-miterlimit:4;stroke-opacity:1;stroke-dasharray:none"
             d="m 2854.3106,-896.14523 c -25.0249,-2.16656 -29.8908,-3.55798 -47.1945,-13.49522 -22.1095,-12.69709 -37.0125,-24.29855 -43.7889,-34.08818 -5.8478,-8.44827 -19.6116,-42.42295 -21.7463,-53.67887 -1.5034,-7.9278 -1.3419,-20.4762 0.5116,-39.7421 1.8362,-19.0878 3.426,-26.6388 8.28,-39.3309 4.0515,-10.5935 5.0481,-10.1367 2.7143,1.244 -6.8374,33.3416 1.3242,78.40673 20.4799,113.08171 5.1171,9.26269 25.6742,31.19804 35.7624,38.16007 10.1755,7.0222 32.2572,15.73046 47.6912,18.80779 11.6435,2.32153 35.5002,-0.75453 55.9473,-7.21376 4.8109,-1.51978 8.9182,-2.59213 9.1273,-2.383 0.5409,0.54082 -27.4538,15.41389 -32.0159,17.00951 -3.8569,1.34898 -26.8874,2.39783 -35.7684,1.62895 z"
             id="path4306"
             inkscape:connector-curvature="0" />
          <path
             style="fill:#008000;fill-opacity:1;stroke:#ffffff;stroke-width:0;stroke-linecap:round;stroke-linejoin:round;stroke-miterlimit:4;stroke-opacity:1;stroke-dasharray:none"
             d="m 3034.7063,-964.86451 c 1.1053,-4.55259 2.0619,-31.86287 1.265,-36.11099 -0.4356,-2.3218 -1.3783,-3.993 -2.2523,-3.993 -0.8267,0 -5.1273,4.2679 -9.5569,9.48408 -11.3914,13.4146 -28.9457,29.76315 -28.9457,26.95749 0,-0.26784 3.2705,-6.25995 7.2677,-13.31578 3.9973,-7.05585 8.5887,-16.06799 10.2033,-20.02699 6.6998,-16.4288 10.8915,-41.035 6.9903,-41.035 -0.8536,0 -3.9021,3.9525 -6.7743,8.7834 -10.3056,17.333 -21.7216,31.1395 -35.5712,43.01963 -17.1976,14.75204 -19.6935,15.87977 -41.1878,18.6104 -9.5383,1.21172 -18.5616,2.17107 -20.0521,2.13186 l -2.7096,-0.0712 2.7096,-1.16721 c 12.1247,-5.22261 17.2323,-8.17566 27.6393,-15.9803 14.2042,-10.65224 24.9742,-20.90278 31.55,-30.02818 15.5515,-21.5816 21.3557,-51.7192 14.27,-74.0961 -1.6085,-5.0796 -4.6338,-11.6399 -6.7229,-14.5783 -4.1402,-5.8232 -4.2571,-6.8561 -0.5515,-4.8729 2.3303,1.2471 2.3938,1.1593 1.6968,-2.351 -0.3983,-2.0055 -3.0311,-7.4877 -5.8507,-12.1824 -7.584,-12.6277 -15.8579,-19.6316 -37.1027,-31.4084 -16.6495,-9.2295 -17.7614,-10.0387 -16.0892,-11.7097 1.672,-1.6708 2.1971,-1.6084 7.5885,0.9008 3.1857,1.4828 9.4504,3.3495 13.9214,4.1482 4.471,0.7989 16.3714,4.4174 26.445,8.0413 10.0738,3.6239 19.2191,6.5889 20.323,6.5889 3.1239,0 2.3675,-2.8738 -1.5155,-5.7574 -21.6489,-16.0774 -58.737,-26.6395 -94.2869,-26.8515 -14.5185,-0.087 -15.128,-0.1727 -10.0376,-1.4191 2.9807,-0.7297 10.5408,-3.6894 16.8003,-6.5772 6.3353,-2.9228 13.5432,-5.452 16.2584,-5.7051 11.8674,-1.1063 46.4101,12.9528 74.2465,30.2187 65.358,40.5391 84.5731,49.56 123.2528,57.863 56.5843,12.1465 124.7226,30.687 138.7682,37.7591 11.7724,5.9274 13.3924,8.5762 13.009,21.2714 -0.3253,10.7696 -1.4157,16.4617 -3.2723,17.0806 -0.7298,0.2432 -1.327,-0.3128 -1.327,-1.2357 0,-2.7215 -3.9488,-4.107 -9.5253,-3.342 -2.809,0.3854 -11.8507,2.4078 -20.0929,4.4943 -8.2421,2.0865 -15.2739,3.5054 -15.626,3.1531 -0.3523,-0.3521 -0.01,-0.6403 0.7697,-0.6403 0.7755,0 5.8563,-2.1121 11.2904,-4.6934 9.9907,-4.7459 16.9151,-10.7128 19.0997,-16.4586 2.0544,-5.4034 -2.1722,-11.2236 -11.723,-16.143 -4.627,-2.3834 -39.9684,-15.0554 -53.3166,-19.1172 -15.5984,-4.7467 -60.7506,-14.7481 -83.3847,-18.4701 -28.0362,-4.6103 -40.2504,-9.191 -64.5664,-24.2148 -14.5174,-8.9696 -19.4903,-8.0627 -10.4611,1.9076 6.1993,6.8454 11.8885,15.0651 19.0277,27.4908 6.9701,12.1313 13.3188,17.3935 25.305,20.9744 2.5336,0.757 4.6065,1.5377 4.6065,1.7352 0,0.1975 -3.9423,4.1255 -8.7605,8.7289 -13.2411,12.6503 -12.6441,11.2652 -13.9616,32.3971 -1.5756,25.2717 -3.0127,35.15263 -6.7642,46.50905 -3.7573,11.37429 -14.2306,31.19191 -12.3156,23.30364 l 0,0 z"
             id="path4308"
             inkscape:connector-curvature="0" />
          <path
             style="fill:#008000;fill-opacity:1;stroke:#ffffff;stroke-width:0;stroke-linecap:round;stroke-linejoin:round;stroke-miterlimit:4;stroke-opacity:1;stroke-dasharray:none"
             d="m 2878.3441,-1087.8104 c -6.1459,-1.9946 -12.2313,-6.2815 -14.5938,-10.2809 l -1.8957,-3.2092 4.6281,-5.6262 c 2.5456,-3.0945 6.6126,-7.0496 9.0379,-8.7894 4.2414,-3.0424 4.9858,-3.1851 19.51,-3.7394 14.0305,-0.5355 15.3546,-0.4149 18.6882,1.7006 7.9996,5.0768 7.9698,14.3005 -0.069,21.1808 -9.9536,8.52 -24.7444,12.1913 -35.3063,8.7637 l 0,0 z m 23.7289,-6.0753 c 3.0466,-1.6304 2.6754,-5.1947 -0.6272,-6.0236 -3.1026,-0.7787 -5.9474,1.061 -5.9474,3.846 0,3.4047 2.645,4.2808 6.5746,2.1776 z m -26.7056,-2.7473 c 3.4072,-3.4071 3.5468,-10.2212 0.2095,-10.2212 -2.0453,0 -7.1757,6.1299 -7.1757,8.5736 0,3.7009 3.9732,4.6405 6.9662,1.6476 z m 13.135,-0.9589 c 1.4633,-1.4632 2.6605,-3.1591 2.6605,-3.7686 0,-1.9555 -5.1808,-4.5787 -8.33,-4.2176 -2.582,0.2959 -3.1042,0.9071 -3.3982,3.9756 -0.191,1.9942 -0.084,4.311 0.237,5.1484 0.9267,2.415 5.9216,1.7714 8.8307,-1.1378 z"
             id="path4310"
             inkscape:connector-curvature="0" />
          <path
             style="fill:#008000;fill-opacity:1;stroke:#ffffff;stroke-width:0;stroke-linecap:round;stroke-linejoin:round;stroke-miterlimit:4;stroke-opacity:1;stroke-dasharray:none"
             d="m 2761.5169,-1144.7056 c -3.6262,-2.9342 -8.1845,-6.3025 -10.1295,-7.4853 -3.2247,-1.9611 -3.3587,-2.2454 -1.5205,-3.2253 3.3851,-1.8044 15.7795,-5.6326 18.2366,-5.6326 2.2733,0 13.8419,7.7376 16.6372,11.1276 1.2486,1.5144 0.4443,2.272 -6.5033,6.1249 -4.3606,2.4182 -8.4232,4.4031 -9.0279,4.411 -0.6048,0.01 -4.0665,-2.3862 -7.6926,-5.3203 l 0,0 z"
             id="path4312"
             inkscape:connector-curvature="0" />
          <path
             style="fill:#008000;fill-opacity:1;stroke:#ffffff;stroke-width:0;stroke-linecap:round;stroke-linejoin:round;stroke-miterlimit:4;stroke-opacity:1;stroke-dasharray:none"
             d="m 2811.6685,-1167.9406 -8.344,-5.8079 5.5662,-2.3132 5.5662,-2.3132 4.4815,3.4365 c 2.4647,1.8901 4.873,3.7657 5.3517,4.1681 0.687,0.5777 -3.079,8.6376 -4.0358,8.6376 -0.1329,0 -3.9965,-2.6135 -8.5858,-5.8079 z"
             id="path4314"
             inkscape:connector-curvature="0" />
          <path
             style="fill:#008000;fill-opacity:1;stroke:#ffffff;stroke-width:0;stroke-linecap:round;stroke-linejoin:round;stroke-miterlimit:4;stroke-opacity:1;stroke-dasharray:none"
             d="m 2495.2479,-1125.5514 c -0.3222,-4.322 -0.2659,-8.1824 0.1254,-8.5786 0.3913,-0.3963 3.516,-1.0621 6.9438,-1.4798 l 6.2324,-0.7593 0,4.3092 c 0,2.3701 0.3101,6.5722 0.6892,9.3379 l 0.6893,5.0289 -7.0469,0 -7.0471,0 -0.586,-7.8583 z"
             id="path4316"
             inkscape:connector-curvature="0" />
          <path
             style="fill:#008000;fill-opacity:1;stroke:none"
             d="m 2370.2175,-1094.6794 10e-5,-0.3516 8.0782,-2.3661 c 13.3131,-3.8995 18.3238,-5.4087 21.8302,-6.5751 5.8032,-1.9304 7.9622,-3.0288 10.2106,-5.1947 1.1512,-1.1088 5.5482,-5.7661 5.4903,-5.8153 -0.029,-0.024 -6.6826,-0.1735 -14.7863,-0.3313 l -14.7342,-0.2867 -8.0275,2.1639 -8.0277,2.1638 -0.021,-0.2695 c -0.012,-0.1483 -0.012,-0.2787 0,-0.29 0.045,-0.043 9.1973,-2.6156 13.7731,-3.8705 13.3089,-3.6499 24.1643,-6.3263 29.8788,-7.3668 4.5466,-0.8279 7.0277,-0.9944 7.4377,-0.4992 0.4125,0.4981 -0.565,2.3271 -3.4667,6.4871 -4.2398,6.0782 -7.9696,10.4573 -9.5274,11.1858 -0.1503,0.07 -1.7826,0.5718 -3.6269,1.1143 -6.6475,1.9553 -32.1362,9.6764 -34.1933,10.3581 l -0.288,0.095 10e-5,-0.3516 0,0 z"
             id="path4318"
             inkscape:connector-curvature="0" />
          <path
             style="fill:#008000;fill-opacity:1;stroke:none"
             d="m 3213.2884,-1054.9657 c 2.0767,-1.5961 12.4888,-6.6145 14.3455,-6.9142 1.2142,-0.196 2.6346,0.2277 5.1559,1.5382 1.914,0.9948 3.5816,2.1171 3.7058,2.4939 0.5732,1.7385 -10.1137,3.9236 -19.1086,3.9072 -5.4069,-0.01 -5.4164,-0.012 -4.0986,-1.0251 z"
             id="path4320"
             inkscape:connector-curvature="0" />
          <path
             style="fill:#008000;fill-opacity:1;stroke:none"
             d="m 2241.6051,-824.5821 c -2.5003,-0.0395 -2.5395,-0.0445 -2.6036,-0.34189 -0.036,-0.166 -0.2222,-1.39931 -0.4142,-2.74062 -0.4691,-3.27568 -1.0343,-6.04135 -1.6348,-7.99987 -0.637,-2.07733 -0.6667,-2.68903 -0.1507,-3.10069 0.2096,-0.16714 0.7039,-0.40559 1.0984,-0.52997 0.9083,-0.28629 4.5186,-0.90195 5.2892,-0.90195 1.5767,0 2.2396,0.75276 5.8857,6.68337 3.0371,4.93991 4.5849,8.17426 4.1297,8.62946 -0.3489,0.34893 -3.4728,0.43031 -11.5997,0.30216 z"
             id="path4322"
             inkscape:connector-curvature="0" />
          <path
             style="fill:#008000;fill-opacity:1;stroke:none"
             d="m 2570.966,-1116.1873 c 3.4781,-3.5638 5.5716,-4.6756 8.7831,-4.6643 3.7971,0.014 4.2461,0.7247 1.537,2.4348 -2.8463,1.7968 -8.8016,4.3455 -11.3739,4.8678 l -1.8968,0.3851 2.9506,-3.0234 z"
             id="path4324"
             inkscape:connector-curvature="0" />
        </g>
      </g>
      <rect
         y="-2490.3525"
         x="355.45203"
         height="884.61749"
         width="884.61749"
         id="rect2991-9"
         style="fill:#ff00ff;fill-opacity:1" />
      <rect
         y="-2490.3525"
         x="1241.2788"
         height="884.61749"
         width="884.61749"
         id="rect2991-5-5"
         style="fill:#9d93ac;fill-opacity:1" />
      <rect
         y="-2490.3525"
         x="2127.1057"
         height="884.61749"
         width="884.61749"
         id="rect2991-5-4-48"
         style="fill:#800080;fill-opacity:1" />
      <rect
         y="-2490.3525"
         x="3012.9324"
         height="884.61749"
         width="884.61749"
         id="rect2991-5-4-2-4"
         style="fill:#ff7f2a;fill-opacity:1" />
      <rect
         y="-2490.3525"
         x="3898.759"
         height="884.61749"
         width="884.61749"
         id="rect2991-5-4-2-7-1"
         style="fill:#eef4d7;fill-opacity:1" />
      <rect
         y="-2490.3525"
         x="4784.5859"
         height="884.61749"
         width="884.61749"
         id="rect2991-5-4-2-7-6-9"
         style="fill:#803300;fill-opacity:1" />
      <path
         transform="matrix(1.3208853,0,0,1.3208853,-352.18011,-2673.9151)"
         d="m 1203.6166,473.14401 c 0,184.36124 -149.4543,333.81555 -333.81551,333.81555 -184.36124,0 -333.81556,-149.45431 -333.81556,-333.81555 0,-184.36124 149.45432,-333.81555 333.81556,-333.81555 184.36121,0 333.81551,149.45431 333.81551,333.81555 z"
         sodipodi:ry="333.81555"
         sodipodi:rx="333.81555"
         sodipodi:cy="473.14401"
         sodipodi:cx="869.80109"
         id="path8320"
         style="fill:#ff8080;fill-opacity:1"
         sodipodi:type="arc" />
      <path
         transform="matrix(1.3208853,0,0,1.3208853,533.64667,-2673.0128)"
         d="m 1203.6166,473.14401 c 0,184.36124 -149.4543,333.81555 -333.81551,333.81555 -184.36124,0 -333.81556,-149.45431 -333.81556,-333.81555 0,-184.36124 149.45432,-333.81555 333.81556,-333.81555 184.36121,0 333.81551,149.45431 333.81551,333.81555 z"
         sodipodi:ry="333.81555"
         sodipodi:rx="333.81555"
         sodipodi:cy="473.14401"
         sodipodi:cx="869.80109"
         id="path8320-6"
         style="fill:#ff6600;fill-opacity:1"
         sodipodi:type="arc" />
      <path
         transform="matrix(1.3208853,0,0,1.3208853,1419.4735,-2673.0128)"
         d="m 1203.6166,473.14401 c 0,184.36124 -149.4543,333.81555 -333.81551,333.81555 -184.36124,0 -333.81556,-149.45431 -333.81556,-333.81555 0,-184.36124 149.45432,-333.81555 333.81556,-333.81555 184.36121,0 333.81551,149.45431 333.81551,333.81555 z"
         sodipodi:ry="333.81555"
         sodipodi:rx="333.81555"
         sodipodi:cy="473.14401"
         sodipodi:cx="869.80109"
         id="path8320-6-4"
         style="fill:#00ff00;fill-opacity:1"
         sodipodi:type="arc" />
      <path
         transform="matrix(1.3208853,0,0,1.3208853,2305.3002,-2673.0128)"
         d="m 1203.6166,473.14401 c 0,184.36124 -149.4543,333.81555 -333.81551,333.81555 -184.36124,0 -333.81556,-149.45431 -333.81556,-333.81555 0,-184.36124 149.45432,-333.81555 333.81556,-333.81555 184.36121,0 333.81551,149.45431 333.81551,333.81555 z"
         sodipodi:ry="333.81555"
         sodipodi:rx="333.81555"
         sodipodi:cy="473.14401"
         sodipodi:cx="869.80109"
         id="path8320-6-4-7"
         style="fill:#e3dedb;fill-opacity:1"
         sodipodi:type="arc" />
      <path
         transform="matrix(1.3208853,0,0,1.3208853,3191.127,-2673.0128)"
         d="m 1203.6166,473.14401 c 0,184.36124 -149.4543,333.81555 -333.81551,333.81555 -184.36124,0 -333.81556,-149.45431 -333.81556,-333.81555 0,-184.36124 149.45432,-333.81555 333.81556,-333.81555 184.36121,0 333.81551,149.45431 333.81551,333.81555 z"
         sodipodi:ry="333.81555"
         sodipodi:rx="333.81555"
         sodipodi:cy="473.14401"
         sodipodi:cx="869.80109"
         id="path8320-6-4-7-6"
         style="fill:#ff8080;fill-opacity:1"
         sodipodi:type="arc" />
      <path
         transform="matrix(1.3208853,0,0,1.3208853,4076.9538,-2673.0128)"
         d="m 1203.6166,473.14401 c 0,184.36124 -149.4543,333.81555 -333.81551,333.81555 -184.36124,0 -333.81556,-149.45431 -333.81556,-333.81555 0,-184.36124 149.45432,-333.81555 333.81556,-333.81555 184.36121,0 333.81551,149.45431 333.81551,333.81555 z"
         sodipodi:ry="333.81555"
         sodipodi:rx="333.81555"
         sodipodi:cy="473.14401"
         sodipodi:cx="869.80109"
         id="path8320-6-4-7-6-2"
         style="fill:#d42aff;fill-opacity:1"
         sodipodi:type="arc" />
      <rect
         y="167.12776"
         x="355.45203"
         height="884.61749"
         width="884.61749"
         id="rect2991-9-9-0-5"
         style="fill:#00aa44;fill-opacity:1" />
      <rect
         y="167.12776"
         x="1241.2788"
         height="884.61749"
         width="884.61749"
         id="rect2991-5-5-8-3-2"
         style="fill:#d40000;fill-opacity:1" />
      <rect
         y="167.12776"
         x="2127.1057"
         height="884.61749"
         width="884.61749"
         id="rect2991-5-4-48-2-6-3"
         style="fill:#e3dbdb;fill-opacity:1" />
      <rect
         y="167.12776"
         x="3012.9324"
         height="884.61749"
         width="884.61749"
         id="rect2991-5-4-2-4-8-1-7"
         style="fill:#ff00ff;fill-opacity:1" />
      <rect
         y="167.12776"
         x="3898.759"
         height="884.61749"
         width="884.61749"
         id="rect2991-5-4-2-7-1-2-3-5"
         style="fill:#782144;fill-opacity:1" />
      <rect
         y="167.12776"
         x="4784.5859"
         height="884.61749"
         width="884.61749"
         id="rect2991-5-4-2-7-6-9-1-5-5"
         style="fill:#d35f5f;fill-opacity:1" />
      <path
         transform="matrix(1.3208853,0,0,1.3208853,-352.18011,-16.4348)"
         d="m 1203.6166,473.14401 c 0,184.36124 -149.4543,333.81555 -333.81551,333.81555 -184.36124,0 -333.81556,-149.45431 -333.81556,-333.81555 0,-184.36124 149.45432,-333.81555 333.81556,-333.81555 184.36121,0 333.81551,149.45431 333.81551,333.81555 z"
         sodipodi:ry="333.81555"
         sodipodi:rx="333.81555"
         sodipodi:cy="473.14401"
         sodipodi:cx="869.80109"
         id="path8320-1-5-7"
         style="fill:#ff2a7f;fill-opacity:1"
         sodipodi:type="arc" />
      <path
         transform="matrix(1.3208853,0,0,1.3208853,533.64667,-15.5325)"
         d="m 1203.6166,473.14401 c 0,184.36124 -149.4543,333.81555 -333.81551,333.81555 -184.36124,0 -333.81556,-149.45431 -333.81556,-333.81555 0,-184.36124 149.45432,-333.81555 333.81556,-333.81555 184.36121,0 333.81551,149.45431 333.81551,333.81555 z"
         sodipodi:ry="333.81555"
         sodipodi:rx="333.81555"
         sodipodi:cy="473.14401"
         sodipodi:cx="869.80109"
         id="path8320-6-5-5-8"
         style="fill:#5d536c;fill-opacity:1"
         sodipodi:type="arc" />
      <path
         transform="matrix(1.3208853,0,0,1.3208853,1419.4735,-15.5325)"
         d="m 1203.6166,473.14401 c 0,184.36124 -149.4543,333.81555 -333.81551,333.81555 -184.36124,0 -333.81556,-149.45431 -333.81556,-333.81555 0,-184.36124 149.45432,-333.81555 333.81556,-333.81555 184.36121,0 333.81551,149.45431 333.81551,333.81555 z"
         sodipodi:ry="333.81555"
         sodipodi:rx="333.81555"
         sodipodi:cy="473.14401"
         sodipodi:cx="869.80109"
         id="path8320-6-4-6-7-5"
         style="fill:#784421;fill-opacity:1"
         sodipodi:type="arc" />
      <path
         transform="matrix(1.3208853,0,0,1.3208853,2305.3002,-15.5325)"
         d="m 1203.6166,473.14401 c 0,184.36124 -149.4543,333.81555 -333.81551,333.81555 -184.36124,0 -333.81556,-149.45431 -333.81556,-333.81555 0,-184.36124 149.45432,-333.81555 333.81556,-333.81555 184.36121,0 333.81551,149.45431 333.81551,333.81555 z"
         sodipodi:ry="333.81555"
         sodipodi:rx="333.81555"
         sodipodi:cy="473.14401"
         sodipodi:cx="869.80109"
         id="path8320-6-4-7-3-3-0"
         style="fill:#ffff00;fill-opacity:1"
         sodipodi:type="arc" />
      <path
         transform="matrix(1.3208853,0,0,1.3208853,3191.127,-15.5325)"
         d="m 1203.6166,473.14401 c 0,184.36124 -149.4543,333.81555 -333.81551,333.81555 -184.36124,0 -333.81556,-149.45431 -333.81556,-333.81555 0,-184.36124 149.45432,-333.81555 333.81556,-333.81555 184.36121,0 333.81551,149.45431 333.81551,333.81555 z"
         sodipodi:ry="333.81555"
         sodipodi:rx="333.81555"
         sodipodi:cy="473.14401"
         sodipodi:cx="869.80109"
         id="path8320-6-4-7-6-6-6-9"
         style="fill:#2ca05a;fill-opacity:1"
         sodipodi:type="arc" />
      <path
         transform="matrix(1.3208853,0,0,1.3208853,4076.9538,-15.5325)"
         d="m 1203.6166,473.14401 c 0,184.36124 -149.4543,333.81555 -333.81551,333.81555 -184.36124,0 -333.81556,-149.45431 -333.81556,-333.81555 0,-184.36124 149.45432,-333.81555 333.81556,-333.81555 184.36121,0 333.81551,149.45431 333.81551,333.81555 z"
         sodipodi:ry="333.81555"
         sodipodi:rx="333.81555"
         sodipodi:cy="473.14401"
         sodipodi:cx="869.80109"
         id="path8320-6-4-7-6-2-5-5-6"
         style="fill:#5599ff;fill-opacity:1"
         sodipodi:type="arc" />
      <text
         sodipodi:linespacing="100%"
         id="text8867"
         y="-192.65707"
         x="4827.1382"
         style="font-size:282.52462769px;font-style:normal;font-variant:normal;font-weight:normal;font-stretch:normal;text-align:start;line-height:100%;letter-spacing:0px;word-spacing:0px;writing-mode:lr-tb;text-anchor:start;fill:#000000;fill-opacity:1;stroke:none;font-family:Courier;-inkscape-font-specification:Courier"
         xml:space="preserve"><tspan
           style="font-style:normal;font-variant:normal;font-weight:normal;font-stretch:normal;font-family:Creampuff;-inkscape-font-specification:Creampuff"
           y="-192.65707"
           x="4827.1382"
           id="tspan8869"
           sodipodi:role="line">FUN.</tspan></text>
      <text
         sodipodi:linespacing="100%"
         id="text8867-3"
         y="-1042.7635"
         x="4844.5552"
         style="font-size:282.52462769px;font-style:normal;font-variant:normal;font-weight:normal;font-stretch:normal;text-align:start;line-height:100%;letter-spacing:0px;word-spacing:0px;writing-mode:lr-tb;text-anchor:start;fill:#000000;fill-opacity:1;stroke:none;font-family:Courier;-inkscape-font-specification:Courier"
         xml:space="preserve"><tspan
           style="font-style:normal;font-variant:normal;font-weight:normal;font-stretch:normal;font-family:Monoton;-inkscape-font-specification:Monoton"
           y="-1042.7635"
           x="4844.5552"
           id="tspan8869-3"
           sodipodi:role="line">FUN.</tspan></text>
      <text
         sodipodi:linespacing="100%"
         id="text8867-5"
         y="726.09296"
         x="4886.6074"
         style="font-size:378.84655762px;font-style:normal;font-variant:normal;font-weight:normal;font-stretch:normal;text-align:start;line-height:100%;letter-spacing:0px;word-spacing:0px;writing-mode:lr-tb;text-anchor:start;fill:#000000;fill-opacity:1;stroke:none;font-family:Courier;-inkscape-font-specification:Courier"
         xml:space="preserve"><tspan
           style="font-style:normal;font-variant:normal;font-weight:normal;font-stretch:normal;font-family:Figa;-inkscape-font-specification:Figa"
           y="726.09296"
           x="4886.6074"
           id="tspan8869-1"
           sodipodi:role="line">FUN.</tspan></text>
      <text
         sodipodi:linespacing="100%"
         id="text8867-3-3"
         y="-1966.015"
         x="4832.7017"
         style="font-size:268.39147949px;font-style:normal;font-variant:normal;font-weight:normal;font-stretch:normal;text-align:start;line-height:100%;letter-spacing:0px;word-spacing:0px;writing-mode:lr-tb;text-anchor:start;fill:#000000;fill-opacity:1;stroke:none;font-family:Courier;-inkscape-font-specification:Courier"
         xml:space="preserve"><tspan
           style="font-style:normal;font-variant:normal;font-weight:normal;font-stretch:normal;font-family:PacFont;-inkscape-font-specification:PacFont"
           y="-1966.015"
           x="4832.7017"
           id="tspan8869-3-7"
           sodipodi:role="line">FUN.</tspan></text>
      <text
         sodipodi:linespacing="100%"
         id="text8867-5-6"
         y="770.93359"
         x="3976.0769"
         style="font-size:317.3218689px;font-style:normal;font-variant:normal;font-weight:normal;font-stretch:normal;text-align:start;line-height:100%;letter-spacing:0px;word-spacing:0px;writing-mode:lr-tb;text-anchor:start;fill:#000000;fill-opacity:1;stroke:none;font-family:Courier;-inkscape-font-specification:Courier"
         xml:space="preserve"><tspan
           style="font-style:normal;font-variant:normal;font-weight:normal;font-stretch:normal;font-family:Fighting Spirit TBS;-inkscape-font-specification:Fighting Spirit TBS"
           y="770.93359"
           x="3976.0769"
           id="tspan8869-1-2"
           sodipodi:role="line">FUN.</tspan></text>
      <text
         sodipodi:linespacing="100%"
         id="text8867-5-6-6"
         y="-208.27075"
         x="3960.552"
         style="font-size:165.06433105px;font-style:normal;font-variant:normal;font-weight:normal;font-stretch:normal;text-align:start;line-height:100%;letter-spacing:0px;word-spacing:0px;writing-mode:lr-tb;text-anchor:start;fill:#000000;fill-opacity:1;stroke:none;font-family:Courier;-inkscape-font-specification:Courier"
         xml:space="preserve"><tspan
           style="font-style:normal;font-variant:normal;font-weight:normal;font-stretch:normal;font-family:Dirty Ames;-inkscape-font-specification:Dirty Ames"
           y="-208.27075"
           x="3960.552"
           id="tspan8869-1-2-4"
           sodipodi:role="line">FUN.</tspan></text>
      <text
         sodipodi:linespacing="100%"
         id="text8867-3-32"
         y="-1016.4515"
         x="3953.1182"
         style="font-size:373.12322998px;font-style:normal;font-variant:normal;font-weight:normal;font-stretch:normal;text-align:start;line-height:100%;letter-spacing:0px;word-spacing:0px;writing-mode:lr-tb;text-anchor:start;fill:#000000;fill-opacity:1;stroke:none;font-family:Courier;-inkscape-font-specification:Courier"
         xml:space="preserve"><tspan
           style="font-style:normal;font-variant:normal;font-weight:normal;font-stretch:normal;font-family:BlackCasper;-inkscape-font-specification:BlackCasper"
           y="-1016.4515"
           x="3953.1182"
           id="tspan8869-3-3"
           sodipodi:role="line">FUN.</tspan></text>
      <text
         sodipodi:linespacing="100%"
         id="text8867-3-1"
         y="-1915.4745"
         x="3970.0845"
         style="font-size:372.54107666px;font-style:normal;font-variant:normal;font-weight:normal;font-stretch:normal;text-align:start;line-height:100%;letter-spacing:0px;word-spacing:0px;writing-mode:lr-tb;text-anchor:start;fill:#000000;fill-opacity:1;stroke:none;font-family:Courier;-inkscape-font-specification:Courier"
         xml:space="preserve"><tspan
           style="font-style:normal;font-variant:normal;font-weight:bold;font-stretch:normal;font-family:ChollaWideUltraBoldOS;-inkscape-font-specification:ChollaWideUltraBoldOS Bold"
           y="-1915.4745"
           x="3970.0845"
           id="tspan8869-3-1"
           sodipodi:role="line">FUN.</tspan></text>
      <text
         sodipodi:linespacing="100%"
         id="text8867-5-6-9"
         y="743.1521"
         x="3086.0933"
         style="font-size:307.15332031px;font-style:normal;font-variant:normal;font-weight:normal;font-stretch:normal;text-align:start;line-height:100%;letter-spacing:0px;word-spacing:0px;writing-mode:lr-tb;text-anchor:start;fill:#000000;fill-opacity:1;stroke:none;font-family:Courier;-inkscape-font-specification:Courier"
         xml:space="preserve"><tspan
           style="font-style:normal;font-variant:normal;font-weight:900;font-stretch:normal;font-family:Gota;-inkscape-font-specification:Gota Ultra-Heavy"
           y="743.1521"
           x="3086.0933"
           id="tspan8869-1-2-3"
           sodipodi:role="line">FUN,</tspan></text>
      <text
         sodipodi:linespacing="100%"
         id="text8867-5-6-9-3"
         y="680.05554"
         x="2169.978"
         style="font-size:270.2951355px;font-style:normal;font-variant:normal;font-weight:normal;font-stretch:normal;text-align:start;line-height:100%;letter-spacing:0px;word-spacing:0px;writing-mode:lr-tb;text-anchor:start;fill:#ffffff;fill-opacity:1;stroke:none;font-family:Courier;-inkscape-font-specification:Courier"
         xml:space="preserve"><tspan
           style="font-style:normal;font-variant:normal;font-weight:bold;font-stretch:normal;fill:#ffffff;font-family:scrabble;-inkscape-font-specification:scrabble Bold"
           y="680.05554"
           x="2169.978"
           id="tspan8869-1-2-3-7"
           sodipodi:role="line">FUN.</tspan></text>
      <text
         sodipodi:linespacing="100%"
         id="text8867-3-1-5"
         y="-1933.4878"
         x="3131.0667"
         style="font-size:219.45526123px;font-style:normal;font-variant:normal;font-weight:normal;font-stretch:normal;text-align:start;line-height:100%;letter-spacing:0px;word-spacing:0px;writing-mode:lr-tb;text-anchor:start;fill:#000000;fill-opacity:1;stroke:none;font-family:Courier;-inkscape-font-specification:Courier"
         xml:space="preserve"><tspan
           style="font-style:normal;font-variant:normal;font-weight:bold;font-stretch:normal;font-family:Clementine Sketch;-inkscape-font-specification:Clementine Sketch Bold"
           y="-1933.4878"
           x="3131.0667"
           id="tspan8869-3-1-0"
           sodipodi:role="line">FUN.</tspan></text>
      <text
         sodipodi:linespacing="100%"
         id="text8867-3-1-5-8"
         y="-1962.4612"
         x="2243.4243"
         style="font-size:249.81468201px;font-style:normal;font-variant:normal;font-weight:normal;font-stretch:normal;text-align:start;line-height:100%;letter-spacing:0px;word-spacing:0px;writing-mode:lr-tb;text-anchor:start;fill:#000000;fill-opacity:1;stroke:none;font-family:Courier;-inkscape-font-specification:Courier"
         xml:space="preserve"><tspan
           style="font-style:normal;font-variant:normal;font-weight:bold;font-stretch:normal;font-family:'Guignol\'s Band';-inkscape-font-specification:'Guignol\'s Band Bold'"
           y="-1962.4612"
           x="2243.4243"
           id="tspan8869-3-1-0-3"
           sodipodi:role="line">FUN.</tspan></text>
      <text
         sodipodi:linespacing="100%"
         id="text8867-3-1-5-8-6"
         y="-1956.0573"
         x="1300.2484"
         style="font-size:300.31561279px;font-style:normal;font-variant:normal;font-weight:normal;font-stretch:normal;text-align:start;line-height:100%;letter-spacing:0px;word-spacing:0px;writing-mode:lr-tb;text-anchor:start;fill:#000000;fill-opacity:1;stroke:none;font-family:Courier;-inkscape-font-specification:Courier"
         xml:space="preserve"><tspan
           style="font-style:normal;font-variant:normal;font-weight:bold;font-stretch:normal;font-family:Fusty Saddle;-inkscape-font-specification:Fusty Saddle Bold"
           y="-1956.0573"
           x="1300.2484"
           id="tspan8869-3-1-0-3-0"
           sodipodi:role="line">FUN.</tspan></text>
      <text
         sodipodi:linespacing="100%"
         id="text8867-3-1-5-8-6-5"
         y="-1033.6992"
         x="1342.3217"
         style="font-size:300.31561279px;font-style:normal;font-variant:normal;font-weight:normal;font-stretch:normal;text-align:start;line-height:100%;letter-spacing:0px;word-spacing:0px;writing-mode:lr-tb;text-anchor:start;fill:#d5fff6;fill-opacity:1;stroke:none;font-family:Courier;-inkscape-font-specification:Courier"
         xml:space="preserve"><tspan
           style="font-style:normal;font-variant:normal;font-weight:bold;font-stretch:normal;fill:#d5fff6;font-family:Quad Light;-inkscape-font-specification:Quad Light"
           y="-1033.6992"
           x="1342.3217"
           id="tspan8869-3-1-0-3-0-8"
           sodipodi:role="line">FUN.</tspan></text>
      <text
         sodipodi:linespacing="100%"
         id="text8867-3-1-5-8-6-5-1"
         y="-181.03412"
         x="1345.7192"
         style="font-size:384.69046021px;font-style:normal;font-variant:normal;font-weight:normal;font-stretch:normal;text-align:start;line-height:100%;letter-spacing:0px;word-spacing:0px;writing-mode:lr-tb;text-anchor:start;fill:#d5fff6;fill-opacity:1;stroke:none;font-family:Courier;-inkscape-font-specification:Courier"
         xml:space="preserve"><tspan
           style="font-style:normal;font-variant:normal;font-weight:normal;font-stretch:normal;fill:#d5fff6;font-family:Vermin Vibes;-inkscape-font-specification:Vermin Vibes"
           y="-181.03412"
           x="1345.7192"
           id="tspan8869-3-1-0-3-0-8-5"
           sodipodi:role="line">FUN.</tspan></text>
      <text
         sodipodi:linespacing="100%"
         id="text8867-3-1-5-8-6-5-1-1"
         y="665.8407"
         x="1315.3363"
         style="font-size:211.05010986px;font-style:normal;font-variant:normal;font-weight:normal;font-stretch:normal;text-align:start;line-height:100%;letter-spacing:0px;word-spacing:0px;writing-mode:lr-tb;text-anchor:start;fill:#d5fff6;fill-opacity:1;stroke:none;font-family:Courier;-inkscape-font-specification:Courier"
         xml:space="preserve"><tspan
           style="font-style:normal;font-variant:normal;font-weight:normal;font-stretch:normal;fill:#d5fff6;font-family:Undercover;-inkscape-font-specification:Undercover"
           y="665.8407"
           x="1315.3363"
           id="tspan8869-3-1-0-3-0-8-5-1"
           sodipodi:role="line">FUN.</tspan></text>
      <text
         sodipodi:linespacing="100%"
         id="text8867-3-1-5-8-6-5-1-1-8"
         y="730.75549"
         x="466.23416"
         style="font-size:356.4992981px;font-style:normal;font-variant:normal;font-weight:normal;font-stretch:normal;text-align:start;line-height:100%;letter-spacing:0px;word-spacing:0px;writing-mode:lr-tb;text-anchor:start;fill:#000000;fill-opacity:1;stroke:none;font-family:Courier;-inkscape-font-specification:Courier"
         xml:space="preserve"><tspan
           style="font-style:normal;font-variant:normal;font-weight:normal;font-stretch:normal;fill:#000000;font-family:Tribbon B;-inkscape-font-specification:Tribbon B"
           y="730.75549"
           x="466.23416"
           id="tspan8869-3-1-0-3-0-8-5-1-5"
           sodipodi:role="line">FUN.</tspan></text>
      <text
         sodipodi:linespacing="100%"
         id="text8867-3-1-5-8-6-5-1-7"
         y="-146.13815"
         x="490.19565"
         style="font-size:554.84472656px;font-style:normal;font-variant:normal;font-weight:normal;font-stretch:normal;text-align:start;line-height:100%;letter-spacing:0px;word-spacing:0px;writing-mode:lr-tb;text-anchor:start;fill:#000000;fill-opacity:1;stroke:none;font-family:Courier;-inkscape-font-specification:Courier"
         xml:space="preserve"><tspan
           style="font-style:normal;font-variant:normal;font-weight:normal;font-stretch:normal;fill:#000000;font-family:'8-bit';-inkscape-font-specification:'8-bit'"
           y="-146.13815"
           x="490.19565"
           id="tspan8869-3-1-0-3-0-8-5-6"
           sodipodi:role="line">FUN.</tspan></text>
      <text
         sodipodi:linespacing="100%"
         id="text8867-3-1-5-8-6-5-1-7-0"
         y="-1020.5857"
         x="525.9552"
         style="font-size:411.85321045px;font-style:normal;font-variant:normal;font-weight:normal;font-stretch:normal;text-align:start;line-height:100%;letter-spacing:0px;word-spacing:0px;writing-mode:lr-tb;text-anchor:start;fill:#000000;fill-opacity:1;stroke:none;font-family:Courier;-inkscape-font-specification:Courier"
         xml:space="preserve"><tspan
           style="font-style:normal;font-variant:normal;font-weight:normal;font-stretch:normal;fill:#000000;font-family:Public Gothic Vintage;-inkscape-font-specification:Public Gothic Vintage"
           y="-1020.5857"
           x="525.9552"
           id="tspan8869-3-1-0-3-0-8-5-6-5"
           sodipodi:role="line">FUN.</tspan></text>
      <text
         sodipodi:linespacing="100%"
         id="text8867-3-1-5-8-6-5-1-7-0-8"
         y="-1932.4803"
         x="473.50388"
         style="font-size:310.1867981px;font-style:normal;font-variant:normal;font-weight:normal;font-stretch:normal;text-align:start;line-height:100%;letter-spacing:0px;word-spacing:0px;writing-mode:lr-tb;text-anchor:start;fill:#000000;fill-opacity:1;stroke:none;font-family:Courier;-inkscape-font-specification:Courier"
         xml:space="preserve"><tspan
           style="font-style:normal;font-variant:normal;font-weight:normal;font-stretch:normal;fill:#000000;font-family:Oomph;-inkscape-font-specification:Oomph"
           y="-1932.4803"
           x="473.50388"
           id="tspan8869-3-1-0-3-0-8-5-6-5-2"
           sodipodi:role="line">FUN.</tspan></text>
    </g>
  </g>
</svg>
