<?xml version="1.0" encoding="UTF-8" standalone="no"?>
<!-- Created with Inkscape (http://www.inkscape.org/) -->

<svg
   xmlns:dc="http://purl.org/dc/elements/1.1/"
   xmlns:cc="http://creativecommons.org/ns#"
   xmlns:rdf="http://www.w3.org/1999/02/22-rdf-syntax-ns#"
   xmlns:svg="http://www.w3.org/2000/svg"
   xmlns="http://www.w3.org/2000/svg"
   xmlns:sodipodi="http://sodipodi.sourceforge.net/DTD/sodipodi-0.dtd"
   xmlns:inkscape="http://www.inkscape.org/namespaces/inkscape"
   width="6023.6221"
   height="3543.3069"
   id="svg2"
   version="1.1"
   inkscape:version="0.48.4 r9939"
   sodipodi:docname="oSC13-Board-4.svg"
   inkscape:export-filename="/home/hvogel/oSC13-Board-4.png"
   inkscape:export-xdpi="29.997402"
   inkscape:export-ydpi="29.997402">
  <defs
     id="defs4">
    <filter
       id="filter11084"
       inkscape:label="Inkblot"
       inkscape:menu="Textures"
       inkscape:menu-tooltip="Inkblot on tissue or rough paper"
       height="1.3"
       y="-0.15"
       width="1.3"
       x="-0.15"
       color-interpolation-filters="sRGB">
      <feGaussianBlur
         id="feGaussianBlur11086"
         result="result1"
         in="SourceGraphic"
         stdDeviation="4" />
      <feTurbulence
         id="feTurbulence11088"
         result="result0"
         numOctaves="4"
         baseFrequency="0.05"
         type="fractalNoise" />
      <feDisplacementMap
         id="feDisplacementMap11090"
         in2="result0"
         result="result2"
         scale="20"
         yChannelSelector="G"
         xChannelSelector="R"
         in="result1" />
      <feGaussianBlur
         id="feGaussianBlur11092"
         result="result4"
         in="SourceGraphic"
         stdDeviation="3" />
      <feComposite
         id="feComposite11094"
         in2="result2"
         in="result4"
         operator="arithmetic"
         k2="-0.25"
         k3="0.5"
         k1="1.5"
         result="result5" />
    </filter>
    <filter
       id="filter11168"
       inkscape:label="Inkblot"
       inkscape:menu="Textures"
       inkscape:menu-tooltip="Inkblot on tissue or rough paper"
       height="1.3"
       y="-0.15"
       width="1.3"
       x="-0.15"
       color-interpolation-filters="sRGB">
      <feGaussianBlur
         id="feGaussianBlur11170"
         result="result1"
         in="SourceGraphic"
         stdDeviation="4" />
      <feTurbulence
         id="feTurbulence11172"
         result="result0"
         numOctaves="4"
         baseFrequency="0.05"
         type="fractalNoise" />
      <feDisplacementMap
         id="feDisplacementMap11174"
         in2="result0"
         result="result2"
         scale="20"
         yChannelSelector="G"
         xChannelSelector="R"
         in="result1" />
      <feGaussianBlur
         id="feGaussianBlur11176"
         result="result4"
         in="SourceGraphic"
         stdDeviation="3" />
      <feComposite
         id="feComposite11178"
         in2="result2"
         in="result4"
         operator="arithmetic"
         k2="-0.25"
         k3="0.5"
         k1="1.5"
         result="result5" />
    </filter>
    <filter
       id="filter11180"
       inkscape:label="Inkblot"
       inkscape:menu="Textures"
       inkscape:menu-tooltip="Inkblot on tissue or rough paper"
       height="1.3"
       y="-0.15"
       width="1.3"
       x="-0.15"
       color-interpolation-filters="sRGB">
      <feGaussianBlur
         id="feGaussianBlur11182"
         result="result1"
         in="SourceGraphic"
         stdDeviation="4" />
      <feTurbulence
         id="feTurbulence11184"
         result="result0"
         numOctaves="4"
         baseFrequency="0.05"
         type="fractalNoise" />
      <feDisplacementMap
         id="feDisplacementMap11186"
         in2="result0"
         result="result2"
         scale="20"
         yChannelSelector="G"
         xChannelSelector="R"
         in="result1" />
      <feGaussianBlur
         id="feGaussianBlur11188"
         result="result4"
         in="SourceGraphic"
         stdDeviation="3" />
      <feComposite
         id="feComposite11190"
         in2="result2"
         in="result4"
         operator="arithmetic"
         k2="-0.25"
         k3="0.5"
         k1="1.5"
         result="result5" />
    </filter>
    <filter
       id="filter11192"
       inkscape:label="Inkblot"
       inkscape:menu="Textures"
       inkscape:menu-tooltip="Inkblot on tissue or rough paper"
       height="1.3"
       y="-0.15"
       width="1.3"
       x="-0.15"
       color-interpolation-filters="sRGB">
      <feGaussianBlur
         id="feGaussianBlur11194"
         result="result1"
         in="SourceGraphic"
         stdDeviation="4" />
      <feTurbulence
         id="feTurbulence11196"
         result="result0"
         numOctaves="4"
         baseFrequency="0.05"
         type="fractalNoise" />
      <feDisplacementMap
         id="feDisplacementMap11198"
         in2="result0"
         result="result2"
         scale="20"
         yChannelSelector="G"
         xChannelSelector="R"
         in="result1" />
      <feGaussianBlur
         id="feGaussianBlur11200"
         result="result4"
         in="SourceGraphic"
         stdDeviation="3" />
      <feComposite
         id="feComposite11202"
         in2="result2"
         in="result4"
         operator="arithmetic"
         k2="-0.25"
         k3="0.5"
         k1="1.5"
         result="result5" />
    </filter>
    <filter
       id="filter11204"
       inkscape:label="Inkblot"
       inkscape:menu="Textures"
       inkscape:menu-tooltip="Inkblot on tissue or rough paper"
       height="1.3"
       y="-0.15"
       width="1.3"
       x="-0.15"
       color-interpolation-filters="sRGB">
      <feGaussianBlur
         id="feGaussianBlur11206"
         result="result1"
         in="SourceGraphic"
         stdDeviation="4" />
      <feTurbulence
         id="feTurbulence11208"
         result="result0"
         numOctaves="4"
         baseFrequency="0.05"
         type="fractalNoise" />
      <feDisplacementMap
         id="feDisplacementMap11210"
         in2="result0"
         result="result2"
         scale="20"
         yChannelSelector="G"
         xChannelSelector="R"
         in="result1" />
      <feGaussianBlur
         id="feGaussianBlur11212"
         result="result4"
         in="SourceGraphic"
         stdDeviation="3" />
      <feComposite
         id="feComposite11214"
         in2="result2"
         in="result4"
         operator="arithmetic"
         k2="-0.25"
         k3="0.5"
         k1="1.5"
         result="result5" />
    </filter>
    <filter
       id="filter11216"
       inkscape:label="Inkblot"
       inkscape:menu="Textures"
       inkscape:menu-tooltip="Inkblot on tissue or rough paper"
       height="1.3"
       y="-0.15"
       width="1.3"
       x="-0.15"
       color-interpolation-filters="sRGB">
      <feGaussianBlur
         id="feGaussianBlur11218"
         result="result1"
         in="SourceGraphic"
         stdDeviation="4" />
      <feTurbulence
         id="feTurbulence11220"
         result="result0"
         numOctaves="4"
         baseFrequency="0.05"
         type="fractalNoise" />
      <feDisplacementMap
         id="feDisplacementMap11222"
         in2="result0"
         result="result2"
         scale="20"
         yChannelSelector="G"
         xChannelSelector="R"
         in="result1" />
      <feGaussianBlur
         id="feGaussianBlur11224"
         result="result4"
         in="SourceGraphic"
         stdDeviation="3" />
      <feComposite
         id="feComposite11226"
         in2="result2"
         in="result4"
         operator="arithmetic"
         k2="-0.25"
         k3="0.5"
         k1="1.5"
         result="result5" />
    </filter>
    <filter
       id="filter11228"
       inkscape:label="Inkblot"
       inkscape:menu="Textures"
       inkscape:menu-tooltip="Inkblot on tissue or rough paper"
       height="1.3"
       y="-0.15"
       width="1.3"
       x="-0.15"
       color-interpolation-filters="sRGB">
      <feGaussianBlur
         id="feGaussianBlur11230"
         result="result1"
         in="SourceGraphic"
         stdDeviation="4" />
      <feTurbulence
         id="feTurbulence11232"
         result="result0"
         numOctaves="4"
         baseFrequency="0.05"
         type="fractalNoise" />
      <feDisplacementMap
         id="feDisplacementMap11234"
         in2="result0"
         result="result2"
         scale="20"
         yChannelSelector="G"
         xChannelSelector="R"
         in="result1" />
      <feGaussianBlur
         id="feGaussianBlur11236"
         result="result4"
         in="SourceGraphic"
         stdDeviation="3" />
      <feComposite
         id="feComposite11238"
         in2="result2"
         in="result4"
         operator="arithmetic"
         k2="-0.25"
         k3="0.5"
         k1="1.5"
         result="result5" />
    </filter>
    <filter
       id="filter11240"
       inkscape:label="Inkblot"
       inkscape:menu="Textures"
       inkscape:menu-tooltip="Inkblot on tissue or rough paper"
       height="1.3"
       y="-0.15"
       width="1.3"
       x="-0.15"
       color-interpolation-filters="sRGB">
      <feGaussianBlur
         id="feGaussianBlur11242"
         result="result1"
         in="SourceGraphic"
         stdDeviation="4" />
      <feTurbulence
         id="feTurbulence11244"
         result="result0"
         numOctaves="4"
         baseFrequency="0.05"
         type="fractalNoise" />
      <feDisplacementMap
         id="feDisplacementMap11246"
         in2="result0"
         result="result2"
         scale="20"
         yChannelSelector="G"
         xChannelSelector="R"
         in="result1" />
      <feGaussianBlur
         id="feGaussianBlur11248"
         result="result4"
         in="SourceGraphic"
         stdDeviation="3" />
      <feComposite
         id="feComposite11250"
         in2="result2"
         in="result4"
         operator="arithmetic"
         k2="-0.25"
         k3="0.5"
         k1="1.5"
         result="result5" />
    </filter>
    <filter
       id="filter11252"
       inkscape:label="Inkblot"
       inkscape:menu="Textures"
       inkscape:menu-tooltip="Inkblot on tissue or rough paper"
       height="1.3"
       y="-0.15"
       width="1.3"
       x="-0.15"
       color-interpolation-filters="sRGB">
      <feGaussianBlur
         id="feGaussianBlur11254"
         result="result1"
         in="SourceGraphic"
         stdDeviation="4" />
      <feTurbulence
         id="feTurbulence11256"
         result="result0"
         numOctaves="4"
         baseFrequency="0.05"
         type="fractalNoise" />
      <feDisplacementMap
         id="feDisplacementMap11258"
         in2="result0"
         result="result2"
         scale="20"
         yChannelSelector="G"
         xChannelSelector="R"
         in="result1" />
      <feGaussianBlur
         id="feGaussianBlur11260"
         result="result4"
         in="SourceGraphic"
         stdDeviation="3" />
      <feComposite
         id="feComposite11262"
         in2="result2"
         in="result4"
         operator="arithmetic"
         k2="-0.25"
         k3="0.5"
         k1="1.5"
         result="result5" />
    </filter>
  </defs>
  <sodipodi:namedview
     id="base"
     pagecolor="#ffffff"
     bordercolor="#666666"
     borderopacity="1.0"
     inkscape:pageopacity="0.0"
     inkscape:pageshadow="2"
     inkscape:zoom="0.10634615"
     inkscape:cx="3132.8992"
     inkscape:cy="1883.9978"
     inkscape:document-units="px"
     inkscape:current-layer="layer1"
     showgrid="false"
     units="m"
     showborder="true"
     inkscape:showpageshadow="false"
     inkscape:window-width="1680"
     inkscape:window-height="991"
     inkscape:window-x="0"
     inkscape:window-y="27"
     inkscape:window-maximized="1"
     showguides="true"
     inkscape:guide-bbox="true" />
  <metadata
     id="metadata7">
    <rdf:RDF>
      <cc:Work
         rdf:about="">
        <dc:format>image/svg+xml</dc:format>
        <dc:type
           rdf:resource="http://purl.org/dc/dcmitype/StillImage" />
        <dc:title></dc:title>
      </cc:Work>
    </rdf:RDF>
  </metadata>
  <g
     inkscape:label="Layer 1"
     inkscape:groupmode="layer"
     id="layer1"
     transform="translate(0,2490.957)">
    <rect
       style="fill:#782167;fill-opacity:1"
       id="rect9462"
       width="6023.6221"
       height="3543.3071"
       x="0"
       y="-2490.9573"
       sodipodi:insensitive="true" />
    <flowRoot
       xml:space="preserve"
       id="flowRoot9468"
       style="fill:black;stroke:none;stroke-opacity:1;stroke-width:1px;stroke-linejoin:miter;stroke-linecap:butt;fill-opacity:1;font-family:Courier;font-style:normal;font-weight:normal;font-size:12px;line-height:100%;letter-spacing:0px;word-spacing:0px;-inkscape-font-specification:Courier;font-stretch:normal;font-variant:normal;text-anchor:start;text-align:start;writing-mode:lr"><flowRegion
         id="flowRegion9470"><rect
           id="rect9472"
           width="103.43581"
           height="28.209766"
           x="4410.127"
           y="4427.2129" /></flowRegion><flowPara
         id="flowPara9474"></flowPara></flowRoot>    <text
       xml:space="preserve"
       style="font-size:184.51828003px;font-style:normal;font-variant:normal;font-weight:normal;font-stretch:normal;text-align:start;line-height:100%;letter-spacing:0px;word-spacing:0px;writing-mode:lr-tb;text-anchor:start;fill:#f4e3d7;fill-opacity:1;stroke:none;font-family:Courier;-inkscape-font-specification:Courier"
       x="4894.3945"
       y="763.28839"
       id="text11264-6"
       sodipodi:linespacing="100%"><tspan
         sodipodi:role="line"
         id="tspan11266-4"
         x="4894.3945"
         y="763.28839"
         style="fill:#f4e3d7;font-family:ChollaWideUltraBoldOS;-inkscape-font-specification:ChollaWideUltraBoldOS"><tspan
           style="font-size:77.04436493px;fill:#f4e3d7"
           id="tspan11305">Twitter: </tspan><tspan
           style="font-size:173.349823px;fill:#f4e3d7"
           id="tspan11303">#osc13</tspan></tspan><tspan
         sodipodi:role="line"
         x="4894.3945"
         y="936.63824"
         style="fill:#f4e3d7;font-family:ChollaWideUltraBoldOS;-inkscape-font-specification:ChollaWideUltraBoldOS"
         id="tspan11289"><tspan
           style="font-size:77.04436493px;fill:#f4e3d7"
           id="tspan11295">Wirelss: </tspan><tspan
           style="font-size:173.349823px;fill:#f4e3d7"
           id="tspan11301">opensuse</tspan></tspan></text>
    <g
       transform="matrix(0.93620356,-0.35145825,0.35145825,0.93620356,0,0)"
       style="font-size:5792.1484375px;font-style:normal;font-variant:normal;font-weight:bold;font-stretch:normal;text-align:start;line-height:100%;letter-spacing:0px;word-spacing:0px;writing-mode:lr-tb;text-anchor:start;fill:#00ff00;fill-opacity:1;font-family:Fh_Ugly;-inkscape-font-specification:Fh_Ugly Bold"
       id="text12119" />
    <path
       sodipodi:type="arc"
       style="fill:#2ca089;fill-opacity:1;stroke:none"
       id="path12981"
       sodipodi:cx="2614.105"
       sodipodi:cy="2781.6433"
       sodipodi:rx="1260.0363"
       sodipodi:ry="1260.0363"
       d="m 3874.1412,2781.6433 a 1260.0363,1260.0363 0 1 1 -2520.0725,0 1260.0363,1260.0363 0 1 1 2520.0725,0 z"
       transform="translate(-4400.7235,-4550.2699)" />
    <g
       id="g13214"
       transform="matrix(0.85935992,0,0,0.85935992,423.22475,-93.391445)">
      <g
         transform="matrix(-0.87140515,-0.49056402,0.49056402,-0.87140515,2224.8584,-2798.6123)"
         id="g13007"
         style="font-size:1233.83422852px;font-style:normal;font-variant:normal;font-weight:normal;font-stretch:normal;text-align:start;line-height:100%;letter-spacing:0px;word-spacing:0px;writing-mode:lr-tb;text-anchor:start;fill:#2ca089;fill-opacity:1;stroke:none;font-family:Carnivalee Freakshow;-inkscape-font-specification:Carnivalee Freakshow">
        <path
           inkscape:connector-curvature="0"
           id="path12990"
           d="m 174.52548,-952.89692 c -23.71226,40.5699 -62.62042,68.5372 -116.7246,83.902 -61.5894873,11.454 -110.588798,6.5416 -146.998048,-14.7375 -17.076832,-11.377 -24.905812,-18.2787 -23.486962,-20.7052 l -13.44269,-0.8786 c -41.61103,-24.3205 -73.1068,-61.5692 -94.48738,-111.74638 2.63453,-4.5084 -3.34764,-24.5195 -17.94652,-60.0335 l -5.20137,-3.0399 c -42.00445,31.2744 -73.57156,44.6913 -94.70151,40.2509 l -13.44268,-0.8786 -6.80219,-7.4646 -1.51999,2.6007 c -3.03993,5.2007 -14.26911,2.1268 -33.68758,-9.2218 l -10.40271,-6.08 -14.08409,-11.7206 -4.6408,0.7767 -16.6848,-13.2405 -30.6476,-14.4232 -7.36274,-11.2813 -9.84217,-2.2633 -31.289,-25.2652 c -21.07115,-5.3376 -56.89312,-20.459 -107.46604,-45.364 -18.96821,3.7998 -30.88444,9.861 -35.74874,18.1837 l -1.51999,2.6007 c -3.85029,6.5879 -4.53729,15.723 -2.06117,27.4055 l -1.51998,2.6007 -2.60068,-1.52 c -9.01533,-5.2698 -12.6967,-10.9105 -11.04411,-16.922 l 4.55996,-7.802 12.02458,-14.6043 1.51999,-2.6006 -2.60068,-1.52 -20.70521,23.4869 c -19.23297,-25.1977 -24.08178,-69.4349 -14.54648,-132.7118 l 2.95913,-12.2267 4.86395,-8.3221 c 11.95759,-20.459 34.67541,-30.6743 68.15354,-30.646 4.45891,-7.6289 24.32361,-11.3707 59.59414,-11.2252 l 1.08069,4.1207 2.60068,1.52 17.6442,6.8232 -7.68078,5.9781 -1.51998,2.6007 3.12082,1.8239 c 2.02688,-3.4679 5.64088,-3.6817 10.84201,-0.6414 l 12.36199,-3.242 6.28205,7.1606 11.92391,3.4751 31.28902,25.2652 8.24133,-2.1614 16.12423,9.4239 2.16138,8.2413 20.24488,8.3433 6.28205,7.1606 17.12407,6.5193 8.32217,4.8639 8.88273,8.6806 11.92391,3.4752 2.6007,1.5199 19.8056,15.0646 22.84555,9.8632 1.0807,4.1206 2.60068,1.52 c 2.43198,-4.1615 15.39493,-0.074 38.88893,12.2618 13.87025,8.1061 35.72819,-10.9854 65.57387,-57.2747 l 20.06381,-34.329 -89.98352,-52.5916 -48.62921,-32.6085 -14.8274,-4.4791 -0.7767,-4.6408 -15.34751,-4.7831 -20.80544,-12.1599 -1.85739,-8.7615 -22.06886,-5.2224 -0.7767,-4.6408 -4.42466,1.6008 -0.7767,-4.6408 1.51999,-2.6006 -29.87093,-9.7823 -0.77668,-4.6409 -2.60067,-1.52 -12.22673,-2.9591 -5.97806,-7.6807 c -34.19872,-2.7754 -55.85811,3.6391 -64.97823,19.2433 -4.86372,8.3219 -5.16362,21.1725 -0.89963,38.5515 l -1.51998,2.6007 -2.60068,-1.52 c -12.79348,-16.3166 -19.06852,-31.8467 -18.82511,-46.5908 -18.9988,-28.7821 -22.01304,-54.2693 -9.04277,-76.4616 16.5555,-21.9583 41.04106,-37.1881 73.45676,-45.6895 -10.09564,-27.3001 -11.09027,-47.8852 -2.98385,-61.7555 l 3.03997,-5.2014 c 15.808,-27.047 57.23779,-45.3995 124.28943,-55.0572 l 2.60068,1.52 -33.50651,33.4504 -6.82323,17.6442 -7.16064,6.282 4.12066,-1.0807 2.60068,1.52 c -2.22921,3.8143 5.30692,15.1969 22.60838,34.148 2.02674,-3.4677 5.64073,-3.6815 10.84204,-0.6415 l 1.08069,4.1207 14.52338,4.9992 5.20136,3.04 19.80559,15.0646 17.12406,6.5192 6.80219,7.4647 17.12406,6.5192 13.00339,7.6 1.60085,4.4246 4.12066,-1.0807 81.66136,47.7276 4.76207,9.7613 63.8959,30.3662 6.80219,7.4647 65.234802,-14.9066 4.12066,-1.0807 2.60068,1.52 c 15.832302,46.935 29.643459,73.8478 41.4335207,80.7387 l 17.204908,13.5445 4.1206653,-1.0807 5.201359,3.04 8.882731,8.6807 19.164188,4.2225 2.60068,1.52 2.161385,8.2414 21.764867,5.7425 11.48341,10.2006 25.446244,11.3832 23.40614,13.6798 12.00355,10.5046 19.72474,8.0393 60.4166,42.289 c 19.37333,-4.4943 32.30289,-12.2893 38.78872,-23.385 l 3.29819,-54.5949 2.60068,1.52 c 17.71921,37.338 23.2551,72.44 16.60764,105.3062 4.64664,8.7634 1.59964,22.3344 -9.14096,40.7129 -9.52117,10.7175 -27.43828,19.0865 -53.75141,25.1073 2.64125,55.9725 -0.69916,91.9344 -10.02118,107.8859 l -1.51998,2.6006 -4.12067,1.0807 -33.40628,69.09728 m 40.2856,-153.69828 -2.60068,-1.52 -7.90392,13.5235 2.60068,1.52 7.90392,-13.5235 m -29.48773,50.4532 -2.60068,-1.52 -10.20061,11.4834 -1.51998,2.6007 2.60068,1.52 10.20061,-11.4834 1.51998,-2.6007 m -17.36125,17.7655 -2.60067,-1.52 -10.5046,12.0035 -4.55996,7.802 5.20135,3.04 1.51999,-2.6007 3.78327,-12.4428 4.12066,-1.0807 3.03996,-5.2013 m -31.42596,34.6663 -2.60068,-1.5199 -8.98461,9.40278 5.20136,3.04 6.38393,-10.92288 m -25.26517,31.28898 -2.60068,-1.5199 -13.544571,17.2048 -3.03997,5.2014 2.60068,1.52 11.720591,-14.0841 4.86395,-8.3222 m -22.225191,26.0877 -2.600685,-1.52 -6.383937,10.9228 2.60068,1.52 6.383942,-10.9228 m -14.625273,13.0842 -2.600679,-1.52 -13.240584,16.6848 -7.903923,13.5235 2.60068,1.52 19.624519,-27.6076 1.519987,-2.6007 m -26.785159,33.8897 -2.600679,-1.52 -11.720597,14.0841 -3.343964,5.7215 2.600679,1.52 12.024589,-14.6043 3.039972,-5.2013 m 77.236323,-157.22338 c -5.20178,-3.0406 -6.78916,-6.2943 -4.76207,-9.7613 l 4.12067,-1.0807 4.99925,-14.5234 4.55996,-7.802 -26.52693,-15.5039 -8.578741,-9.2008 -4.424657,1.6008 -2.600679,-1.52 -19.501598,-15.5846 -38.753654,-18.463 -13.780097,-12.2407 -23.1495533,-9.3431 -18.7248947,-10.9439 -4.458073,-10.2815 -18.948071,-3.3983 -16.90089,-14.0648 -12.22672,-2.9591 -9.09888,-9.5047 c -15.60428,-9.1204 -26.547612,-8.3057 -32.830022,2.4443 l -24.18448,35.4096 c -10.96277,41.0434 -3.78743,68.9625 21.52602,83.7577 14.21683,8.3087 18.79206,16.7977 13.72566,25.4672 l 2.60068,1.52 c 4.053072,-6.9357 8.680382,-8.8833 13.881992,-5.8428 l 53.05386,31.0078 2.161389,8.2413 c 63.83931,28.472 99.001741,37.1601 105.487398,26.0645 6.241215,3.6474 19.143826,-6.4894 38.707861,-30.4104 l 2.60068,1.52 -1.08069,-4.1206 6.38393,-10.9229 5.20136,3.04 1.51999,-2.6007 m -296.73374,28.9366 -2.60068,-1.52 -3.03997,5.2014 1.72209,14.9627 1.51999,-2.6007 2.39857,-16.0434 m 169.7323167,-308.3194 -5.20136,-3.04 -11.8014137,7.0587 2.60068,1.52 14.4020937,-5.5387 m -167.9541067,256.3252 -2.60068,-1.52 -4.55996,7.802 1.0807,4.1207 2.60067,1.52 1.51999,-2.6007 1.95928,-9.322 m 7.06042,-41.929 -5.20136,-3.0399 -1.95928,9.322 2.60068,1.52 4.55996,-7.8021 m 2.41961,-41.1522 -5.20135,-3.0399 -2.39858,16.0433 2.60068,1.52 3.03997,-5.2013 1.95928,-9.3221 m 6.62113,-35.2075 -4.12067,1.0807 -2.60068,-1.52 -3.47899,11.9228 5.20135,3.0399 4.99926,-14.5234 m 11.62038,-49.7309 -2.60068,-1.52 -4.55996,7.802 -5.43855,21.2448 2.60068,1.52 4.55996,-7.8021 5.43855,-21.2447 m -26.58306,51.453 -2.60068,-1.52 -7.90393,13.5236 2.60068,1.52 7.90393,-13.5236 m -43.45055,49.2706 -2.60068,-1.52 -10.20061,11.4835 -3.03998,5.2013 2.60068,1.52 11.7206,-14.0841 1.51999,-2.6007 m -20.70522,23.487 c -3.46766,-2.0271 -6.72144,-0.4398 -9.76131,4.7621 l -1.51999,2.6006 2.60068,1.52 8.68062,-8.8827 m 109.10158,-198.6111 -5.20136,-3.04 -4.99924,14.5234 2.60067,1.52 7.59993,-13.0034 m -138.04815,224.2595 -2.60068,-1.52 -8.68062,8.8828 -3.03997,5.2013 2.60068,1.52 10.20061,-11.4834 1.51998,-2.6007 m 169.293052,-301.5981 -2.60068,-1.52 -7.599932,13.0034 2.60068,1.52 7.599932,-13.0034 m -13.679872,23.4061 c -4.85483,-2.8375 -3.18141,-16.0482 5.02028,-39.6322 l -2.60068,-1.52 -4.86395,8.3222 c -1.4329,19.1663 -4.47987,32.7372 -9.14096,40.7129 l 5.20136,3.04 -1.08069,-4.1207 1.82398,-3.1208 4.12067,-1.0807 1.51999,-2.6007 m -196.36117,310.8991 -5.20136,-3.04 -6.07994,10.4028 2.60067,1.52 8.68063,-8.8828 m 116.26225,-204.8932 -5.20136,-3.04 -4.55996,7.802 2.60068,1.52 7.16064,-6.282 m -386.41329,-24.175 -2.60068,-1.52 -24.82588,24.5676 -4.55996,7.802 c 2.42758,1.4183 12.5831,-7.998 30.46653,-28.249 l 1.51999,-2.6006 m -34.24979,40.6918 -0.7767,-4.6408 -2.60068,-1.52 -13.98387,23.9263 2.60068,1.52 14.76057,-19.2855 m -31.34511,41.6917 c -3.46725,-2.0271 -6.72103,-0.4397 -9.76132,4.7621 l -1.51999,2.6007 2.60068,1.52 8.68063,-8.8828" />
        <path
           id="path12992"
           d="m -134.53155,-551.81171 c -18.11884,12.33298 -39.37304,19.14436 -63.76264,20.43416 3.40888,26.83695 0.8157,45.03327 -7.77953,54.58901 l -2.01461,2.23947 c -21.40212,14.78163 -43.4028,20.92147 -66.00212,18.41954 l -0.44971,-8.50816 -4.02923,4.47894 -3.80437,8.73302 -51.67679,-1.10791 -2.23947,-2.01461 20.99877,-14.33443 12.08769,-13.43682 c 6.17779,-6.86837 -3.39469,-26.55464 -28.71747,-59.05885 l -4.65701,0.67275 -31.84727,-37.56357 -22.61774,-16.29498 -27.77125,-33.08645 -8.50817,0.44972 -9.18274,-12.31254 -15.45143,-9.84821 -2.23947,-2.01461 6.04384,-6.71842 -10.74764,-1.5649 -11.8701,-14.73007 c -24.18643,-21.75828 -60.37042,-28.37764 -108.55206,-19.85811 -5.52833,-23.88205 -7.17364,-38.86816 -4.93593,-44.95837 l 4.25409,-0.22486 c -7.46496,-6.71578 -8.51126,-13.05943 -3.1389,-19.03095 l -4.25409,0.22486 -2.23947,-2.01461 -14.60607,-34.20892 -10.74764,-1.5649 -4.47894,-4.02923 -6.94327,-10.29792 -10.97249,-5.81899 -9.40578,-8.46137 -0.67457,-12.76225 c -15.0485,-10.29641 -23.78151,-14.10078 -26.19907,-11.41311 l -11.87011,-14.73008 -47.25191,-38.45572 -2.68918,-10.52278 -24.18446,-13.65258 -4.47894,-4.02923 -0.22486,-4.25408 c -56.28093,-31.7219 -94.76313,-36.0868 -115.44671,-13.09473 l -16.11691,17.91576 c -29.54738,32.84531 -26.97145,70.81844 7.7278,113.91951 l 23.02066,15.84708 13.43682,12.08768 2.28627,10.97067 8.91109,-0.89761 4.47894,4.02923 2.73415,11.3736 8.73303,3.80437 0.22485,4.25408 8.91109,-0.89761 38.56568,43.60742 29.33615,22.33881 -2.01461,2.23947 33.54527,21.26314 -0.17807,4.70198 2.23947,2.01461 c 6.27058,5.64042 21.03426,10.54802 44.29108,14.7228 l 4.47894,4.02923 -0.22485,-4.25409 2.01461,-2.23947 c 5.97193,5.37179 11.64404,5.07198 17.01633,-0.89943 l 23.95779,1.29326 c 5.683,48.3311 10.76398,74.51152 15.24295,78.54133 l 8.77982,12.76043 9.13594,3.35647 -0.17806,4.70198 -2.01461,2.23947 15.6295,5.14623 -2.41754,2.68737 5.1049,-0.26983 19.97717,22.8335 25.26013,17.86169 29.15991,35.14604 8.91109,-0.89761 0.26982,5.1049 13.61489,7.3857 2.23947,2.01462 -0.17806,4.70198 4.657,-0.67276 25.08207,22.56368 0.0468,8.95606 13.21197,7.83359 15.67629,14.1023 32.86887,0.39564 14.1023,-15.67629 c 4.56617,-5.07687 7.16177,-12.46621 7.7868,-22.16803 l 2.01462,-2.23947 2.23947,2.01462 c 11.97837,32.92504 13.508,64.55453 4.5889,94.88855 l -8.28332,4.7038 0.67458,12.76225 -4.02923,4.47894 c -6.71566,7.46405 -21.70116,11.81111 -44.95656,13.04118 1.19779,17.28408 -2.90396,31.15197 -12.30525,41.60371 l -4.43215,4.92684 c -47.8797,24.99726 -79.88152,30.24375 -96.00556,15.73946 l -8.50817,0.44971 -2.23947,-2.01461 2.01461,-2.23947 35.32592,-25.75664 c 5.81822,-13.67511 0.66532,-27.76483 -15.45871,-42.26919 l -10.97249,-5.81898 -9.85549,-16.96955 -17.46605,-7.60874 -74.79831,-67.28809 -11.42221,-14.32715 -15.45143,-9.84821 -11.87011,-14.73007 -17.6909,-11.86282 -4.7038,-8.28332 c -7.46486,-6.71605 -36.33385,-9.4561 -86.60706,-8.22014 l -6.71841,-6.04384 c -0.57436,-32.39164 -5.07375,-61.02018 -13.49817,-85.8857 l -4.25409,0.22486 -2.01461,2.23947 -22.84442,-28.6543 -15.22658,-5.59413 -9.63063,-12.71546 -26.64878,-19.92128 -4.47895,-4.02923 -9.85548,-16.96954 -15.22658,-5.59413 -25.30693,-26.81775 -8.73302,-3.80437 -0.44972,-8.50817 -8.50816,0.44972 -2.23947,-2.01462 c -11.04775,-9.9392 -15.00505,-17.55097 -11.87193,-22.83532 l 8.28332,-4.70379 c -3.28425,-2.9552 -7.61268,-1.44662 -12.98529,4.52573 l -4.25409,0.22485 -2.23947,-2.01461 c -18.21401,-16.38594 -35.6262,-49.8777 -52.2365,-100.4754 -18.6434,-67.55472 -3.9242,-128.05623 44.15751,-181.50469 l 16.11691,-17.9158 15.17797,-11.4672 5.37109,-11.3754 c 41.99658,-34.0724 80.39837,-55.4412 115.20547,-64.1065 43.82409,-4.8761 82.99342,1.7277 117.50812,19.8113 l 0.22485,4.2541 2.23947,2.0146 66.91065,39.123 13.66167,16.3417 22.61775,16.295 11.24414,19.02915 c 2.95471,-3.28471 21.67569,9.23465 56.163,37.55812 l 14.33443,20.99877 17.46605,7.60874 6.71841,6.04384 6.94327,10.29792 c 11.04788,9.93851 40.75331,15.05172 89.11636,15.33966 l 10.53916,70.25802 c 5.67306,5.10335 10.3175,14.95398 13.93332,29.55191 3.22311,-3.58351 9.02953,-4.03262 17.41926,-1.34732 l 4.47894,4.02922 -2.01461,2.23947 18.1388,12.26575 c 28.66488,25.78665 36.81934,45.54787 24.46338,59.2837 l 2.23948,2.01462 4.02922,-4.47894 3.57952,-12.98711 17.86897,7.16085 6.71841,6.04384 6.94327,10.29792 15.67447,5.99705 4.47894,4.02923 -2.01461,2.23947 c 54.99997,45.15561 87.46953,62.20962 97.40877,51.16208 l 24.57828,-27.32154 1.5649,-10.74764 2.01461,-2.23947 6.71841,6.04384 c 12.66528,35.16416 8.37593,77.76613 -12.86805,127.80604 m -45.51622,-86.32631 -4.47894,-4.02923 -18.98416,12.09496 -4.02923,4.47894 2.23947,2.01461 25.25286,-14.55928 m -67.07234,38.52616 -2.23947,-2.01461 -10.07306,11.19735 2.23947,2.01462 10.07306,-11.19736 m -18.58123,11.64707 -2.23947,-2.01461 -16.56662,9.40759 -2.01462,2.23947 2.23948,2.01461 16.56662,-9.40759 2.01461,-2.23947 m -220.27472,198.91903 c -4.50422,17.01677 -5.30764,28.71954 -2.41025,35.10835 l 2.01461,-2.23947 c 5.39969,-16.21249 5.53157,-27.16877 0.39564,-32.86888 m 15.21748,-34.9321 -2.23947,-2.01461 -10.07306,11.19735 2.23947,2.01462 4.02922,-4.47894 2.23947,2.01461 3.80437,-8.73303 m 134.51302,-231.49988 -4.47895,-4.02922 -3.80437,8.73302 2.23948,2.01461 6.04384,-6.71841 m 9.39849,-23.9596 -2.23947,-2.01461 -2.01461,2.23947 -7.8336,13.21196 2.23947,2.01461 6.04384,-6.71841 3.80437,-8.73302 m -372.10352,94.74922 -4.20729,9.18092 4.92683,4.43215 -0.71954,-13.61307 m 226.48024,-283.28663 -2.23947,-2.01461 -12.53739,4.92866 -2.01461,2.23947 c 2.09001,1.88001 7.01562,0.90866 14.77686,-2.91405 l 2.01461,-2.23947 m -106.07862,26.93682 -0.22486,-4.25409 -2.23947,-2.01461 -8.46138,9.40577 2.23947,2.01462 8.68624,-5.15169 m -11.48538,-96.23042 -2.23947,-2.01461 -23.23824,12.31981 c 2.38873,2.1487 10.20976,-0.53988 23.4631,-8.06573 l 2.01461,-2.23947 m -220.4455,236.04199 -2.23947,-2.01461 0.44971,8.50816 2.23947,2.01462 -0.44971,-8.50817 m 148.22148,-206.20206 -2.23947,-2.01461 -4.25409,0.22486 -6.04384,6.71841 2.23947,2.01461 10.29793,-6.94327 m -18.80609,7.39299 -2.23947,-2.01462 -16.56663,9.4076 c 2.68742,2.41727 8.28457,0.69944 16.79148,-5.15351 l 2.01462,-2.23947 m -195.70553,131.07127 -4.47894,-4.02923 -10.29793,6.94327 4.47894,4.02922 10.29793,-6.94326 m 11.63796,-21.94499 -8.50816,0.44971 -2.01462,2.23947 8.50817,-0.44971 2.01461,-2.23947 m -36.89082,36.50427 -2.23947,-2.01461 -10.29792,6.94327 c 2.98622,2.68574 6.49381,1.78935 10.52278,-2.68919 l 2.01461,-2.23947 m -14.32715,11.42221 -4.47894,-4.02923 -10.07307,11.19736 2.23947,2.01461 12.31254,-9.18274 m 32.18703,-44.78758 -8.50817,0.44971 -2.01462,2.23947 8.50817,-0.44971 2.01462,-2.23947 m -53.00773,54.42003 -2.23947,-2.01461 -8.28332,4.7038 -2.01461,2.23947 2.23947,2.01461 8.28331,-4.7038 2.01462,-2.23947 m 27.48504,-44.96565 -2.23947,-2.01461 -21.44848,5.82626 4.47894,4.02923 19.20901,-7.84088 m -34.21073,6.50083 c -2.98566,-2.68652 -7.16479,-1.04364 -12.5374,4.92866 l -4.47894,-4.02923 -6.04384,6.71841 2.23947,2.01462 20.82071,-9.63246 m -25.29965,5.60323 -2.23947,-2.01461 -10.29792,6.94326 c 2.98629,2.68576 6.49388,1.78937 10.52278,-2.68918 l 2.01461,-2.23947 m 171.84445,-300.02219 -2.23947,-2.0146 -10.07307,11.1973 2.23947,2.0146 10.07307,-11.1973 m 5.59413,-15.2266 -4.47895,-4.0292 -3.80437,8.733 2.23948,2.0146 6.04384,-6.7184"
           inkscape:connector-curvature="0" />
        <path
           id="path12994"
           d="m -878.86584,75.510004 c -40.21838,23.518019 -87.69468,18.712279 -142.42926,-14.417193 l 2.6004,-1.520617 c 16.366,2.525689 29.92308,0.646312 40.67108,-5.638101 l 5.2006,-3.041233 c 20.4558,-11.962924 25.85723,-29.777666 16.2045,-53.4442903 l -15.5893,-19.4978377 -30.33318,-59.031619 2.1594,-8.241856 -4.1209,-1.079696 -1.5206,-2.600312 1.8553,-8.761929 -9.7625,-4.7597 -5.3069,-15.04226 -8.5459,-2.67945 2.1594,-8.24186 -16.4532,-16.20109 -2.7066,-16.56286 -8.2418,-2.1594 -3.0412,-5.20062 -3.7864,-12.44192 -8.9868,-9.4007 -1.5207,-2.60032 0.3348,-11.36224 -1.5207,-2.60031 -42.8847,-36.3377 c -6.2407,3.649 -22.8684,-0.12034 -49.883,-11.30802 9.6273,-53.55325 11.8052,-84.83684 6.5337,-93.85089 l -7.1317,-18.16261 -17.6697,-18.28133 -19.6005,-39.48521 -19.9353,-28.12294 1.8552,-8.76192 -1.5206,-2.60032 -9.7624,-4.75971 -7.1317,-18.16261 -22.9765,-33.32359 -3.3454,-5.72067 0.6388,-10.84217 -8.546,-2.67947 1.0797,-4.12092 -1.5206,-2.60031 -8.7619,-1.85529 -14.2938,-24.44294 c -21.0856,-36.05778 -48.6172,-44.15194 -82.5949,-24.28248 -31.2034,18.24722 -40.9116,63.70513 -29.1248,136.37385 l 15.0389,31.68425 14.6284,13.08071 1.5205,2.60032 -13.5215,7.90718 3.0411,5.20064 1.0797,-4.12093 3.1205,-1.82474 13.7466,-0.36177 6.8275,17.64256 30.8837,46.8452 c 5.4481,11.70253 6.0917,18.77048 1.931,21.20386 l -13.5217,7.9072 -9.066,-2.37534 -1.0796,4.12091 -28.564,13.21408 -39.8198,30.96287 -4.425,-1.59976 -29.0285,-55.60713 -7.9072,-13.52162 2.6794,-8.54598 c -17.9146,-17.90559 -33.8668,-38.81963 -47.8569,-62.74218 -14.7919,-44.39098 -19.2501,-76.67928 -13.3746,-96.865 0.038,-46.0837 7.1635,-73.2818 21.3781,-81.59436 -5.0682,-8.66783 5.5693,-23.49598 31.9127,-44.48451 l 10.1457,-1.74558 c -6.4875,-11.09475 16.2716,-31.84819 68.2774,-62.26041 24.9634,-14.5979 62.9003,-22.12669 113.8112,-22.5864 l 2.3753,-9.06604 4.4251,1.59976 2.6003,-1.52061 15.3769,-16.6691 c 35.0177,-20.47756 83.7381,-28.26373 146.1613,-23.35855 l 4.1209,1.07969 3.0412,5.20065 -2.6002,1.5206 -47.7272,17.44126 c -15.91,18.14413 -18.9991,35.53718 -9.2673,52.17918 4.2578,7.28085 4.4798,12.0364 0.6659,14.26667 l 10.5075,12.00101 -0.6388,10.84217 10.0666,5.27978 6.3866,10.92131 5.3068,15.04225 4.121,1.07969 3.1204,-1.82473 12.694,28.86799 26.7628,45.76551 -1.0797,4.12093 7.4663,6.80039 31.7079,47.06115 6.3074,17.94667 11.0276,11.69689 9.3487,23.14731 c 9.9346,16.98842 36.12788,30.7505 78.58015,41.28626 -7.93828,38.1413 -9.50793,70.46502 -4.70894,96.97126 13.04889,9.58381 23.22287,20.61666 30.52197,33.0986 l 11.6143,32.98892 24.88043,29.4186 14.65553,38.18955 8.98689,9.4007 1.52062,2.60031 -1.0797,4.12092 1.82473,3.12038 8.76192,1.85528 18.85561,32.24388 c 27.84939,34.893315 51.48204,46.66332 70.89801,35.310054 l 5.72069,-3.34535 c 7.97396,-4.663845 14.61117,-15.989501 19.91164,-33.977004 l 4.42505,1.59976 c 4.33423,24.915642 0.24041,48.94475 -12.28147,72.087404 l -2.60031,1.520614 -13.96255,1.185952 -2.60031,1.520613 1.52061,2.600314 12.44194,-3.786266 c -7.43348,23.887484 -23.11148,42.8263811 -47.03405,56.816748 -16.98898,9.933932 -37.87549,11.214088 -62.6596,3.840472 -5.40587,27.354502 -16.4297,45.898082 -33.0715,55.630793 m 102.09401,-110.649906 -8.24185,-2.159401 -2.60031,1.520615 8.24184,2.159399 2.60032,-1.520613 m -25.88441,4.668092 -3.34535,-5.720688 -9.84161,2.265649 3.04122,5.200627 10.14574,-1.745588 m -34.95045,2.292754 -1.82473,-3.120375 -9.84162,2.26565 3.34535,5.720689 8.321,-4.865964 m -19.46729,3.707117 -1.52061,-2.600313 -10.92132,6.386577 1.52062,2.600313 10.92131,-6.386577 m -126.77184,-92.666211 -2.6003,1.52062 -2.6795,8.54598 2.6003,-1.52062 2.6795,-8.54598 m 13.8292,-44.37825 -1.5206,-2.60031 -2.1595,8.24186 1.5207,2.60031 2.1594,-8.24186 m 13.9354,-26.29479 -1.5206,-2.60031 -3.7591,12.6669 2.6002,-1.5206 2.6795,-8.54599 m -21.8697,-12.33567 -1.8248,-3.12037 -3.4549,13.18695 2.6002,-1.5206 2.6795,-8.54598 m 32.57857,-30.21785 0.85472,-11.66635 -5.72079,3.34536 2.26574,9.84161 2.60033,-1.52062 m 6.46912,-33.09516 -1.52065,-2.60031 -2.37534,9.06604 1.52062,2.60031 2.37537,-9.06604 m -11.36229,-0.33466 -2.6003,1.52061 -2.1593,8.24185 2.6002,-1.5206 2.1594,-8.24186 m -476.50468,-40.29297 -1.8247,-3.12037 -1.8553,8.76192 1.5206,2.60031 2.1594,-8.24186 m 53.0068,-27.50782 -3.3453,-5.7207 -6.4963,7.98634 1.5206,2.60032 8.321,-4.86596 m -38.402,-21.51142 -3.0413,-5.20062 c -13.8295,16.92726 -20.0612,28.94632 -18.6951,36.05725 l 2.6003,-1.52062 c 4.4368,-14.69176 10.8154,-24.47041 19.1361,-29.33601 m 171.8108,-245.63651 -1.5207,-2.60031 -2.6003,1.52062 c -12.4488,10.53676 -21.9611,23.31106 -28.5367,38.32289 l 2.6002,-1.5206 c 13.451,-19.96297 23.4702,-31.8705 30.0575,-35.7226 m 14.6804,-19.05347 -1.5205,-2.60033 -5.7208,3.34536 -6.2803,7.16215 1.5207,2.60031 5.2005,-3.04121 6.8004,-7.46628 m 12.7767,-15.1485 1.3837,-3.60086 -1.8247,-3.12039 -8.321,4.86599 8.762,1.85526 m 12.305,-9.98744 0.7757,-4.641 -1.5206,-2.60031 -2.6004,1.52062 -6.8003,7.46627 1.8247,3.12038 8.3209,-4.86596 m 8.6558,-16.2282 -3.1205,1.82474 -2.1594,8.24186 2.6003,-1.52061 2.6796,-8.54599 m -225.0254,80.6433 -8.2419,-2.1594 -2.6004,1.52063 8.242,2.15939 2.6003,-1.52062 m -23.2842,3.14749 -9.066,-2.37535 -2.6003,1.52061 9.0661,2.37534 2.6002,-1.5206 m -42.4958,2.51772 -1.5206,-2.60031 -20.2429,8.34811 3.0412,5.20062 18.7223,-10.94842"
           inkscape:connector-curvature="0" />
        <path
           inkscape:connector-curvature="0"
           id="path12996"
           d="m -1854.173,417.94173 -2.9225,0.73011 c -0.9731,-3.8975 -4.5772,-5.06702 -10.8121,-3.50859 l -23.5118,-81.68349 c -3.6015,-14.41831 -0.5309,-27.81189 9.212,-40.18082 l -2.0463,4.23707 -2.9225,0.73011 -4.3831,-2.63083 -2.9225,0.73011 2.3363,9.3519 -7.3051,-4.38473 -3.0645,-24.69434 -21.3212,-72.91616 -12.5578,-50.26651 c -3.9909,-15.97676 -1.8951,-24.98699 6.2874,-27.0307 l 23.5254,-2.77239 11.5443,-5.98894 24.1099,-2.9184 23.2341,-8.90937 9.6394,26.15665 5.8389,35.79975 5.9889,11.54427 -5.1172,19.28666 c 6.7216,0.39009 11.3478,5.65108 13.8785,15.78299 l 2.3344,21.77188 c 4.4782,17.92379 31.7027,30.78656 81.6734,38.58842 l 18.2649,-1.45819 c 40.5251,-10.12492 64.101,-24.29444 70.7278,-42.50862 l 2.9225,-0.73011 c -15.7675,-79.68598 -22.725,-124.93481 -20.8725,-135.74664 -4.6759,1.167609 -9.5454,-5.067535 -14.6088,-18.705426 l -2.1862,-33.607405 -7.3051,-4.384732 2.1923,-3.652566 -3.6525,-2.192381 -0.7302,-2.922459 -1.4581,-18.264945 c -5.9382,-23.769857 -15.5315,-33.999657 -28.7802,-30.689397 l -21.774,14.7543301 -34.1918,2.33226 c -16.2691,9.445816 -21.0939,27.4174629 -14.4745,53.9150089 2.8233,11.299715 12.3682,20.506651 28.6345,27.620924 l 1.3142,5.260438 -2.9224,0.730106 c -41.9842,-0.689294 -66.0427,-13.30805 -72.1759,-37.856266 l -6.4274,-10.813752 -0.7302,-2.92246 c -6.814,-27.2768659 -5.7389,-48.658549 3.2252,-64.145099 -2.3361,-9.3523 -7.4009,-13.05479 -15.1944,-11.10742 l -17.9664,-37.116812 c -0.8694,-43.251257 14.4772,-68.819307 46.0395,-76.704157 l 14.4668,-6.71906 0.7301,2.92249 c -13.7385,22.88917 -19.1964,39.98402 -16.3736,51.28459 1.1685,4.67559 13.2473,5.79781 36.2366,3.36663 l 8.7674,-2.19032 19.7272,-8.03323 3.6526,2.19235 0.5845,2.33786 c 24.9389,-7.88661 36.1914,-16.70052 33.7574,-26.44174 l -8.9113,-10.81415 -12.4098,-62.10201 -3.6527,-2.19235 -0.73,-2.92249 -0.142,-25.42448 -2.3364,-9.35188 -5.8449,1.46021 -4.2346,-16.95033 1.3182,-19.57953 -3.6525,-2.19238 -0.7302,-2.92246 -2.1882,-21.18741 -11.0997,-32.00156 2.9224,-0.73011 -15.3383,-24.11192 4.2386,-7.88964 -5.1128,-8.0373 2.1924,-3.6526 -0.7301,-2.92246 -9.3494,-12.56765 4.3847,-7.30516 c -9.6424,-7.11267 -15.7779,-15.92943 -18.4065,-26.45029 l -45.15,-1.76081 c -34.2901,8.56661 -68.0477,35.83632 -101.273,81.80928 l 5.1088,32.87726 3.6526,2.19236 0.7301,2.92248 5.8388,35.79976 3.7986,2.77686 0.7302,2.92246 -1.4644,18.99506 11.6859,21.91953 -4.3848,7.30517 8.1813,7.8917 2.0444,8.18289 -2.1924,3.6526 0.7301,2.92246 -33.6074,2.18625 -7.8917,8.1813 -30.5393,4.52464 -17.5348,4.38067 -3.6526,-2.19238 -2.9225,0.73013 1.4643,-18.99505 -0.7301,-2.92249 -11.8319,-22.50402 -2.0442,-8.18293 -0.142,-25.42447 -10.0795,-15.49012 -2.3365,-9.35189 c 1.9502,-8.7669 7.0166,-14.17243 15.1989,-16.21657 l -1.6061,-6.42945 -12.8606,13.14848 -8.1792,-20.31167 -2.7745,-11.10538 c -4.1846,-21.72362 18.7635,-68.23389 68.8443,-139.53102 43.1596,-36.0352 71.7532,-55.80509 85.7807,-59.30967 l 3.7986,2.77687 13.1517,-7.0115 12.2744,-3.06646 c 50.2668,-12.5578 94.4909,-7.87479 132.6724,14.04902 10.9133,-17.62967 19.8766,-27.32064 26.8904,-29.07299 l 14.6124,-3.65056 c 28.8352,-7.20364 66.0939,0.25444 111.7762,22.37431 l 7.3052,4.3847 12.4184,9.93802 -2.1924,3.6526 c -21.7215,-7.40679 -36.0893,-10.23407 -43.1033,-8.48187 l -15.1968,3.79656 c -15.1008,12.46628 -20.4122,27.6616 -15.9343,45.58605 l 5.6968,10.37531 -4.9691,7.45117 10.226,13.5906 2.0423,20.6029 8.9093,23.23416 -4.9692,7.4512 11.6882,7.01556 6.569,38.72222 4.9667,7.45281 3.7946,27.61684 3.0665,12.27436 -2.1924,3.6526 8.6193,9.64517 8.9053,48.07413 3.0665,12.27437 7.3032,16.80471 -2.9245,13.1501 c 3.8966,-0.97373 6.5751,1.46198 8.0352,7.30719 l 2.3343,21.77192 7.3052,4.38471 -5.8449,1.46021 0.5845,2.33786 c 10.9104,-2.72602 23.3778,5.75081 37.4018,25.43061 l -4.8232,8.03567 4.2372,2.04633 21.0417,-5.25679 0.7301,2.92249 -30.5494,66.624579 7.4471,29.80921 1.4581,18.26495 5.1128,8.0373001 2.9164,36.5298609 c 3.8966,-0.973988 6.6237,1.656586 8.1813,7.891673 l 7.2991,41.644703 3.6525,2.192381 0.7301,2.922459 0,24.839974 8.9114,10.81416 2.3343,21.77191 c 14.7979,52.60409 23.3658,78.61439 25.7039,78.03097 l 50.9946,2.78459 23.9679,-28.34287 2.9225,-0.73011 0.7301,2.92246 c 6.3274,25.3274 -16.7158,58.20006 -69.1298,98.61804 l -27.4712,6.86303 c -16.7555,4.18517 -34.5324,-0.6883 -53.3305,-14.62048 -37.2173,36.6199 -63.6191,56.8772 -79.2057,60.77193 l -42.2292,7.44506 -30.6869,13.87616 c -1.2654,-5.06644 -14.7082,-5.01995 -40.3285,0.1395 l -91.175,-14.48055 c -11.2999,2.82224 -24.1128,22.78953 -38.4387,59.90189 m 271.0638,-95.66262 c -0.9735,-3.89741 -4.5776,-5.06693 -10.8122,-3.50859 l -2.9225,0.73013 0.7301,2.92246 13.0046,-0.144 m -64.1431,-15.64507 -7.3052,-4.38473 -2.9224,0.73011 7.3051,4.38473 2.9225,-0.73011 m 165.9979,-51.4062 0.8782,-8.91303 -0.7301,-2.92246 -2.9225,0.73011 -4.9691,7.45116 0.5844,2.33786 -3.5066,-1.60783 -11.1053,2.77439 0.5844,2.33787 14.758,-0.58205 2.7768,-3.7986 3.6526,2.19235 m -225.0278,41.31444 -0.7301,-2.92249 -19.5796,-1.31825 -2.3379,0.58407 0.73,2.92248 18.9951,1.46429 2.9225,-0.73011 m -75.6849,-24.56016 -17.0943,-8.76984 1.4602,5.84494 13.8806,3.36297 1.7536,-0.43802 m -96.44,14.15762 -2.1903,-8.76741 -5.2604,1.31417 2.1902,8.76744 5.2605,-1.3142 m 43.5557,-76.7046 -2.9225,0.7301 -4.3847,7.30516 2.9224,-0.7301 4.3848,-7.30516 m -48.9503,5.39834 c -0.9732,-3.89729 -10.9088,-6.38292 -29.8068,-7.45689 l -2.9224,0.73011 0.73,2.92249 31.9992,3.80429 m 219.6477,-202.044611 -0.73,-2.9224869 -7.1592,-3.800224 -4.5308,6.7206789 9.4976,0.732139 2.9224,-0.730107 m 5.1173,-19.2866799 -0.7301,-2.92246 -9.3519,2.33632 1.4602,5.84495 8.6218,-5.25881 m 13.1538,-19.4315001 -7.3052,-4.3847 -11.1054,2.77441 6.7207,4.53075 11.6899,-2.92046 m 10.8141,-8.91137 -1.4602,-5.84495 -8.6218,5.25881 1.4602,5.84494 8.6218,-5.2588 m -180.7522,29.6322501 -0.7302,-2.92246 -8.6238,17.678813 0.7301,2.9224609 8.6239,-17.6788139 m 203.4039,-50.8156001 c 1.5601,-8.669792 7.6006,-14.318682 18.1214,-16.946672 l -1.4602,-5.84494 -25.5742,21.913442 0.7301,2.92246 8.1829,-2.04429 m 52.3169,-41.634952 2.1924,-3.652557 -0.7301,-2.92248 -2.9225,0.7301 -8.0373,5.112807 0.7302,2.92246 8.7673,-2.19033 m -42.2267,-7.458907 -2.9225,0.73011 -10.9602,8.326927 0.7301,2.92245 2.9225,-0.7301 c 7.4042,-5.16197 10.8142,-8.911757 10.2301,-11.249387 m 30.5449,-39.3006 -0.8761,-3.50696 -8.7674,2.19031 1.6063,6.42943 8.0372,-5.11278 m -448.9902,-176.58355 4.3847,-7.30516 -0.7302,-2.92246 -5.8449,1.46021 -3.6546,10.22762 5.845,-1.46021 m 17.5372,-19.28465 -1.4603,-5.84492 -8.0372,5.11278 0.7301,2.92248 8.7674,-2.19034 m 18.269,-26.29816 -2.9225,0.73011 -3.8002,7.15914 2.338,-0.58407 4.3847,-7.30517 m 25.2826,-25.56644 -2.9225,0.73011 -6.5771,10.95775 2.9224,-0.73011 6.5772,-10.95775 m 19.7292,-20.45324 -2.9226,0.73014 -4.2386,7.88964 2.9224,-0.73011 4.2388,-7.88967 m 24.6963,-15.48439 -0.73,-2.92248 -2.9225,0.7301 -16.6591,10.37162 1.4602,5.84495 18.8514,-14.02419 m 32.7378,-45.43721 -2.9224,0.73011 -4.9693,7.45119 3.507,-0.87613 4.3847,-7.30517 m 32.0052,-33.45567 -2.9224,0.7301 -4.3847,7.30516 2.9224,-0.73011 4.3847,-7.30515 m 17.3909,-17.38515 -0.5845,-2.33787 -11.8375,12.27194 0.7301,2.92248 2.9224,-0.73011 8.7691,-12.12633" />
        <path
           inkscape:connector-curvature="0"
           id="path12998"
           d="m -2299.4004,445.04058 c -25.1364,2.89691 -58.436,-5.39324 -99.8987,-24.87057 l -1.0349,-8.97741 c 14.3642,-1.65666 24.7616,-7.90898 31.1923,-18.75707 l -2.9924,0.34498 c -9.8528,9.22109 -19.3677,14.36092 -28.5449,15.41964 l -2.6475,3.33742 0.345,2.99246 c -10.6496,-1.19883 -24.5369,-7.68387 -41.6619,-19.45513 -17.5555,2.02308 -25.2985,12.01243 -23.229,29.968 l -11.9699,1.37991 3.3374,2.64748 0.345,2.9925 c -13.8287,23.8298 -22.5387,35.95212 -26.13,36.36691 l -3.3374,-2.64753 -1.725,-14.96231 5.2951,-6.67491 -8.7448,-23.24982 0.8794,-44.97857 -11.1596,-44.19709 1.6127,-12.3149 -3.3375,-2.64746 -0.8022,-33.26217 -8.1671,-44.54213 5.364,-6.07636 -3.3374,-2.64753 -0.345,-2.99245 2.6475,-3.33748 -0.345,-2.99246 -10.8146,-41.20464 -1.3798,-11.96992 c -1.7015,-14.76336 0.3711,-23.08825 6.2176,-24.97471 l 3.3374,2.64753 2.9925,-0.34497 11.6249,-4.37236 3.3375,2.64747 14.6173,-4.71729 59.251,-6.83047 c 6.2153,1.30454 9.8977,6.94451 11.0473,16.91989 l 4.8295,41.89465 -1.2675,15.30729 6.6749,5.295 0.6899,5.98495 -10.3141,15.7438 5.985,-0.68996 5.1746,44.88705 3.3374,2.64753 0.345,2.99245 c -4.3886,0.50533 -6.8061,5.83772 -7.2525,15.9973 l 8.2875,-7.01989 2.9925,-0.34498 c 1.1962,10.37323 10.7859,23.41818 28.7693,39.13483 l 0.345,2.9925 -2.6475,3.33743 0.345,2.99246 2.9924,-0.34493 2.6475,-3.33748 2.9925,-0.34498 c 21.438,3.59245 42.7303,4.1701 63.8769,1.73299 45.8847,-5.29026 70.0502,-39.40917 72.4965,-102.35684 -7.0373,-61.04698 -46.709,-108.83026 -119.0151,-143.349977 l -29.5797,6.44217 -29.9248,3.449717 c -5.9846,0.68951 -10.2419,-9.937937 -12.7721,-31.882247 l 2.9925,-0.34497 -22.7155,-39.2263 c -83.3212,-59.93439 -126.6379,-104.26522 -129.9501,-132.992653 -3.9895,0.45969 -9.1293,-9.05526 -15.4196,-28.54483 l 1.6126,-12.31484 -1.0349,-8.97746 -7.0199,-8.28746 0.9226,-18.2998 -4.7173,-14.61738 4.2601,-15.65232 -3.3375,-2.64748 -2.9924,0.34498 c -1.5912,-41.86369 2.9994,-63.41642 13.7718,-64.65822 l -4.3723,-11.62494 c 20.8939,-74.77809 45.8124,-119.89985 74.7558,-135.36549 9.1025,-19.24268 36.4199,-36.54227 81.9521,-51.89883 7.1213,-4.86375 17.8637,-8.12368 32.2273,-9.77966 l 26.9322,-3.10474 c 23.541,-2.71363 64.0835,8.78452 121.6275,34.49461 l 47.0692,40.05747 c 5.3549,7.87303 17.2778,16.606 35.7683,26.19907 22.5086,37.43077 34.3378,61.13358 35.4876,71.10853 l -1.6125,12.31485 4.3723,11.62494 -0.9916,17.7013 3.3374,2.64747 0.345,2.99251 -1.6126,12.31484 4.0274,8.63243 c -3.1919,0.36785 -5.3795,7.69526 -6.5626,21.98226 9.2047,27.23959 17.797,40.3995 25.777,39.47975 l 8.9773,-1.03488 c 7.182,-0.82813 14.7019,-5.738 22.5599,-14.72969 l 2.9925,-0.34497 0.6899,5.98496 c -6.4642,35.11039 -21.4666,54.02252 -45.0075,56.73657 l -45.6684,-6.86433 0.3449,2.9925 c -15.9459,15.98847 -28.1083,24.46578 -36.4873,25.43193 l -20.9473,2.41478 c -17.5557,2.02361 -33.5904,-14.32131 -48.1041,-49.03487 l -1.0349,-8.97741 5.985,-0.68995 c 0.92,7.97975 7.4799,12.27726 19.6796,12.89255 l 8.6324,-4.02739 -3.3374,-2.64752 -2.7597,-23.93978 4.95,-9.66736 -0.345,-2.99245 -7.0199,-8.28746 -1.3798,-11.96991 3.5701,-21.63723 -3.3374,-2.64753 -2.9925,0.34497 1.2676,-15.30734 -5.3383,-20.0038 c 3.9901,-0.46008 5.6401,-3.6825 4.95,-9.66736 -7.3175,-21.39293 -27.1267,-44.17581 -59.4273,-68.34878 -25.3804,-13.24606 -44.0557,-19.17916 -56.0258,-17.79927 l -35.9097,4.13968 c -9.1766,1.05791 -22.7591,14.75266 -40.7474,41.08425 l -18.6447,-3.91515 -2.9925,0.34498 0.3449,2.9925 18.2998,0.92265 0.69,5.9849 c -7.8897,22.74164 -11.2384,55.06725 -10.0462,96.97697 8.9751,25.24461 26.1596,51.56448 51.5539,78.95956 26.7608,25.21572 44.3304,37.34074 52.7091,36.37506 l 50.6186,-2.80308 29.5797,-6.44218 3.3374,2.64753 0.345,2.99245 -2.6475,3.33743 0.3449,2.9925 8.6758,22.651333 2.4148,20.94727 c 16.1108,24.01757 36.2504,40.90005 60.419,50.64748 23.7376,23.54261 43.5627,39.45059 59.4755,47.72399 l 33.0727,50.16128 -1.9576,9.32239 11.7373,22.904837 -2.6475,3.33743 17.8344,49.49215 0.6899,5.98495 -5.3721,84.91559 -2.6475,3.33743 3.3375,2.64748 0.3449,2.9925 c -8.1842,48.24572 -37.2079,92.83003 -87.0706,133.7529 l -74.3546,38.89404 -52.9211,9.13297 m -26.2341,-69.74952 -0.621,-5.38641 -8.7014,3.42889 0.345,2.99245 8.9774,-1.03493 m 40.9286,-13.2085 -0.6899,-5.98496 -8.6324,4.02739 0.345,2.99245 8.9773,-1.03488 m 27.9464,-15.35066 -0.345,-2.99245 -5.9849,0.68995 -8.6325,4.02739 0.3451,2.99245 2.9924,-0.34498 11.6249,-4.37236 m 96.2245,-59.60858 -2.9925,0.34498 -17.2649,8.05477 0.345,2.99245 2.9925,-0.34498 c 11.74,-3.37553 17.3799,-7.05794 16.9199,-11.04722 m -9.6674,-4.95002 2.6476,-3.33749 -0.345,-2.99245 -2.9925,0.34498 -8.6324,4.02738 0.345,2.99246 8.9773,-1.03488 m 33.4949,-25.087 2.6475,-3.33744 -0.3449,-2.9925 -2.9925,0.34498 -8.6324,4.02738 0.3449,2.99251 8.9774,-1.03493 m -373.552,36.99864 -2.9925,0.34498 -5.2949,6.67486 2.9925,-0.34497 5.2949,-6.67487 m 53.1538,-33.41777 -0.69,-5.98491 -21.9614,14.66066 0.69,5.98496 21.9614,-14.66071 m 363.8846,-41.94862 -0.345,-2.99245 -11.9699,1.37985 0.3449,2.99251 11.97,-1.37991 m -336.0297,20.54407 -0.345,-2.99245 -5.985,0.68996 -10.9349,10.35727 2.9925,-0.34499 14.2724,-7.70979 m 191.2295,-124.53469 -0.345,-2.99246 -5.9849,0.68996 -8.6325,4.02739 0.345,2.99245 5.9849,-0.6899 8.6325,-4.02744 m 11.2799,-7.36482 -0.6899,-5.98495 -8.6324,4.02738 0.3449,2.99251 8.9774,-1.03494 m 19.2225,-17.377147 -2.9925,0.34497 -5.295,6.67486 2.9925,-0.34497 5.295,-6.67486 m 16.9199,-11.04728 -2.9925,0.34498 -5.295,6.67491 0.345,2.99245 7.9425,-10.01234 m 31.1924,-18.75707 -2.9925,0.34499 -5.2951,6.6749 2.9925,-0.34497 5.2951,-6.67492 m -17.2067,-333.382163 -0.276,-2.39402 -14.9624,1.72489 0.276,2.39396 14.9624,-1.72483 m -43.8955,-12.52675 -0.69,-5.9849 -21.6372,-3.57018 c 0.3681,3.19191 7.8105,6.37693 22.3272,9.55508 m -254.0295,-51.9795 -0.345,-2.99245 -12.3148,-1.61259 -5.985,0.68996 0.3451,2.99245 15.3073,1.26761 2.9924,-0.34498 m -31.3046,-8.52013 -0.3449,-2.99251 -21.2923,-0.57766 c 0.4604,3.98995 3.6824,5.64021 9.6674,4.95003 l 11.9698,-1.37986 m -27.6222,-2.88022 -0.6899,-5.98495 -11.3714,1.31088 0.345,2.99251 11.7163,1.68156" />
      </g>
      <text
         transform="matrix(0.74497164,0.1529795,-0.26449401,1.2880193,0,0)"
         sodipodi:linespacing="100%"
         id="text13014"
         y="-829.56079"
         x="812.09271"
         style="font-size:742.96466064px;font-style:normal;font-variant:normal;font-weight:normal;font-stretch:normal;text-align:start;line-height:100%;letter-spacing:0px;word-spacing:0px;writing-mode:lr-tb;text-anchor:start;fill:#2ca089;fill-opacity:1;stroke:none;font-family:Chalk-hand-lettering-shaded_dem;-inkscape-font-specification:Chalk-hand-lettering-shaded_dem"
         xml:space="preserve"><tspan
           y="-829.56079"
           x="812.09271"
           id="tspan13016"
           sodipodi:role="line">T</tspan></text>
      <text
         transform="matrix(-0.74071469,0.17241587,0.29809854,1.2806592,0,0)"
         sodipodi:linespacing="100%"
         id="text13014-3"
         y="147.11095"
         x="-6960.7593"
         style="font-size:742.96466064px;font-style:normal;font-variant:normal;font-weight:normal;font-stretch:normal;text-align:start;line-height:100%;letter-spacing:0px;word-spacing:0px;writing-mode:lr-tb;text-anchor:start;fill:#2ca089;fill-opacity:1;stroke:none;font-family:Chalk-hand-lettering-shaded_dem;-inkscape-font-specification:Chalk-hand-lettering-shaded_dem"
         xml:space="preserve"><tspan
           y="147.11095"
           x="-6960.7593"
           id="tspan13016-9"
           sodipodi:role="line">T</tspan></text>
      <text
         sodipodi:linespacing="100%"
         id="text13056"
         y="-670.87811"
         x="1700.001"
         style="font-size:724.49334717px;font-style:normal;font-variant:normal;font-weight:normal;font-stretch:normal;text-align:start;line-height:100%;letter-spacing:0px;word-spacing:0px;writing-mode:lr-tb;text-anchor:start;fill:#2ca089;fill-opacity:1;stroke:none;font-family:Yellowtail;-inkscape-font-specification:Yellowtail"
         xml:space="preserve"><tspan
           y="-670.87811"
           x="1700.001"
           id="tspan13058"
           sodipodi:role="line"><tspan
   id="tspan13194"
   style="font-size:1000px">a</tspan>re <tspan
   id="tspan13060"
   style="font-size:1000px">m</tspan>eant</tspan></text>
      <text
         sodipodi:linespacing="100%"
         id="text13056-7"
         y="-39.094883"
         x="2149.5393"
         style="font-size:640.97314453px;font-style:normal;font-variant:normal;font-weight:normal;font-stretch:normal;text-align:start;line-height:100%;letter-spacing:0px;word-spacing:0px;writing-mode:lr-tb;text-anchor:start;fill:#2ca089;fill-opacity:1;stroke:none;font-family:Retro Town;-inkscape-font-specification:Retro Town"
         xml:space="preserve"><tspan
           y="-39.094883"
           x="2149.5393"
           id="tspan13058-9"
           sodipodi:role="line">TO BE</tspan></text>
      <path
         inkscape:connector-curvature="0"
         d="m 917.63971,-409.06385 c 7.22158,-2.0311 14.68511,-3.079 22.15297,-3.6239 15.15968,-1.147 30.34156,-0.7132 45.5357,-0.7624 5.8392,-0.019 -11.67887,0.015 -17.51789,-0.042 -2.08647,-0.02 4.17291,-0.045 6.25936,-0.067 23.44563,-0.3891 46.89295,-0.26 70.33045,0.4519 12.8397,0.4048 25.6839,0.6262 38.5291,0.7345 1.6854,0.01 3.3707,0.023 5.0561,0.032 6.0437,0.03 12.0458,0.4301 18.0856,0.5771 2.7924,0.068 11.1673,0.2436 8.3795,0.071 -4.3805,-0.2721 -8.7745,-0.245 -13.1617,-0.3675 21.3905,-1.3525 42.7924,-2.4046 64.2167,-3.0137 20.6476,-0.7378 41.2645,-2.0705 61.8924,-3.2398 22.0812,-0.9777 44.0239,-3.8051 66.0441,-5.6437 18.4371,-1.6047 36.9908,-1.1952 55.4665,-0.4491 8.8981,0.3366 12.9731,0.4549 -17.6093,0.017 -0.9446,-0.014 1.8874,-0.091 2.8302,-0.1514 3.0235,-0.1932 6.0055,-0.5694 9.0054,-0.9833 15.5745,-1.5833 31.4672,-1.6802 46.9723,0.6634 1.5268,0.2055 3.0438,0.5062 4.5805,0.6165 1.5428,0.1107 6.1869,0.052 4.6402,0.045 -27.1064,-0.1113 -23.6173,0.1088 -13.9912,-0.2726 1.6341,-0.065 3.2675,-0.1473 4.9011,-0.2237 1.5545,-0.073 3.1089,-0.149 4.6634,-0.2235 7.5443,-0.3861 15.096,-0.5814 22.6488,-0.6864 1.0425,-0.01 2.085,-0.035 3.1275,-0.028 9.0459,0.066 18.0926,0.086 27.1372,0.2503 3.9794,0.072 8.0252,0.7569 12.0055,1.0081 2.8243,0.165 5.6525,0.2507 8.4808,0.304 0.9784,0.018 3.914,0.047 2.9354,0.043 -22.4795,-0.096 -27.9371,0.3703 -17.8983,-0.3409 7.6924,-0.7501 15.4186,-0.9651 23.1411,-1.1272 16.2179,-0.302 32.4376,-0.046 48.6556,0.1045 4.8544,0.5339 9.6452,1.7267 14.5188,2.1063 1.0026,0.078 2.011,0.04 3.0164,0.06 -7.1365,-0.024 -14.273,-0.048 -21.4095,-0.072 4.1624,-0.062 8.3126,-0.3982 12.4722,-0.5452 3.515,-0.096 7.0314,-0.117 10.5474,-0.138 0,0 24.0857,3.8024 24.0857,3.8024 l 0,0 c -3.4766,0.014 -6.9534,0.026 -10.4295,0.095 -4.198,0.102 -8.3859,0.3593 -12.5778,0.6001 -8.9133,-0.022 -17.8272,0.033 -26.74,-0.067 -5.8295,-0.065 -11.5309,-2.0313 -17.3596,-2.185 42.6771,-0.2955 8.8504,-0.1225 -1.0046,-0.042 -7.6329,0.1273 -15.2759,0.2707 -22.8791,1.0136 -13.815,1.284 -27.7754,0.7438 -41.6194,0.029 -2.9485,-0.2222 -5.8891,-0.5071 -8.8353,-0.7531 -1.0441,-0.087 -4.1819,-0.2163 -3.1343,-0.2376 1.4556,-0.03 30.9438,-0.1724 17.7575,-0.108 -7.6457,0.063 -15.2916,0.1951 -22.93,0.555 -17.4097,0.8002 -35.0118,2.1897 -52.3337,-0.1429 -10.3625,-1.2855 -21.2624,-0.5906 11.6916,-1.0612 1.2647,-0.018 -2.5295,-0.047 -3.7943,-0.043 -1.1898,0 -2.3815,-0.015 -3.5687,0.063 -1.1491,0.076 -2.2878,0.2654 -3.4317,0.3982 -13.9698,2.0439 -28.0325,2.5522 -42.2005,1.3454 -2.7283,-0.1165 -4.8394,-0.216 -7.6009,-0.2922 -1.5358,-0.042 -6.1445,-0.08 -4.6082,-0.098 38.709,-0.4558 11.1641,-0.1558 3.4796,0.5777 -22.1744,1.6659 -44.2448,4.514 -66.4526,5.6311 -20.5635,1.214 -41.1103,2.5679 -61.6943,3.3416 -21.3837,0.5409 -42.7522,1.4748 -64.0908,2.9937 -10.8311,0.1603 -21.6614,0.379 -32.4932,0.481 -10.7546,0.1013 -21.4958,-0.7784 -32.2527,-0.5667 -12.6222,-0.1647 -25.2414,-0.4908 -37.8584,-0.8865 -2.7478,-0.084 -5.4954,-0.1736 -8.2434,-0.2516 -2.8213,-0.08 -11.2823,-0.061 -8.4644,-0.2227 4.8521,-0.2782 9.7198,-0.088 14.5798,-0.1281 2.6265,-0.022 -5.253,0.044 -7.8794,0.072 -2.4486,0.026 -4.8971,0.058 -7.3456,0.09 -2.1962,0.029 -4.39232,0.062 -6.58842,0.093 -2.0674,0.03 -4.1347,0.081 -6.2024,0.089 -76.14992,0.2879 -14.72048,-0.056 -11.81218,-0.023 1.87188,0.021 -3.74189,0.1253 -5.61225,0.2029 -1.7733,0.074 -3.54615,0.1585 -5.31859,0.2508 -1.68374,0.088 -3.36654,0.1926 -5.04981,0.289 -7.2118,0.2927 -14.33171,1.3457 -21.33966,3.0867 0,0 -24.48888,-3.0748 -24.48888,-3.0748 z"
         id="path13092"
         style="fill:none;stroke:none" />
      <path
         inkscape:connector-curvature="0"
         d="m 1085.9397,-349.36793 c 12.6251,1.309 46.6266,1.03684 -7.7007,0.84248 13.5767,-0.20412 27.0757,-1.10515 40.5874,-1.93949 34.698,-1.27315 69.3708,-2.76274 104.0316,-4.451 29.5775,-1.50265 59.0832,-3.80611 88.7031,-4.93969 3.6797,-0.14082 41.8208,-1.07038 45.3767,-1.15826 46.4889,-1.17784 93.0097,-1.51731 139.5263,-1.74655 46.0413,-0.21771 92.0837,-0.2118 138.1258,-0.2135 22.5108,-0.222 44.8866,1.16389 67.3015,2.28477 41.2776,2.06421 -1.52,-0.2667 41.2948,2.12912 20.0774,0.71212 22.4428,1.0161 42.454,0.85705 2.8545,-0.0223 -11.406,-0.0572 -8.559,-0.19732 6.4415,-0.31641 12.9137,-0.21171 19.3698,-0.33375 11.8697,-0.22441 23.7376,-0.4887 35.6066,-0.7292 32.0466,-0.58543 9.4647,-0.28601 61.7008,-0.19205 5.137,0.009 -10.3742,0.62415 -15.4107,-0.0545 -4.2492,-0.57238 8.6648,-0.15807 12.9953,-0.27108 4.7815,-0.12472 18.1461,-0.5933 23.0803,-0.76282 23.4546,-0.81753 46.981,-2.02639 70.4684,-0.7823 4.4171,0.29289 2.2848,0.25606 6.3947,0.15494 0,0 -32.2315,3.40387 -32.2315,3.40387 l 0,0 c -4.0151,-0.15422 -1.9426,-0.0572 -6.2168,-0.29727 -12.2435,-0.43326 -9.6446,-0.29066 23.1874,-0.23755 1.9221,0 -3.842,0.0849 -5.7626,0.13491 -8.4197,0.21735 -16.8358,0.49817 -25.2521,0.76871 -12.2164,0.40618 -24.4824,0.99813 -36.7159,1.06483 -14.7466,0.0805 -29.4943,0.0796 -44.2409,0.01 -0.8831,0 42.8661,-0.47842 -2.6433,0.12105 -48.9114,0.925 -97.9446,2.35192 -146.8212,0.22227 -36.5014,-1.94405 -73.0437,-4.09248 -109.6838,-4.13933 4.6385,0 18.5534,0.0286 13.9153,-0.009 -31.368,-0.23434 -62.746,0.12847 -94.1145,0.0536 -46.4991,0.19661 -93.0025,0.52607 -139.4741,1.69344 -15.1042,0.37721 -30.2225,0.54341 -45.3152,1.09228 -29.5555,1.07475 -58.9922,3.43132 -88.4951,4.9624 -33.8596,1.68853 -67.7172,3.3615 -101.6149,4.65181 -13.2316,0.85731 -26.4198,1.92607 -39.7231,2.18106 -18.8441,0.0286 -37.9625,0.76004 -56.7146,-1.08432 0,0 32.5702,-3.09274 32.5702,-3.09274 z"
         id="path13094"
         style="fill:none;stroke:#2ca089;stroke-width:25.42931557;stroke-miterlimit:4;stroke-opacity:1;stroke-dasharray:none" />
      <path
         inkscape:connector-curvature="0"
         d="m 1097.3715,-189.7125 c 12.6251,1.309 46.6266,1.0369 -7.7007,0.8425 13.5767,-0.2041 27.0757,-1.1052 40.5874,-1.9395 34.698,-1.2731 69.3708,-2.7627 104.0316,-4.451 29.5775,-1.5026 59.0832,-3.8061 88.7031,-4.9397 3.6797,-0.1408 41.8208,-1.0704 45.3767,-1.1582 46.4889,-1.1779 93.0097,-1.5174 139.5263,-1.7466 46.0413,-0.2177 92.0837,-0.2118 138.1258,-0.2135 22.5108,-0.222 44.8866,1.1639 67.3015,2.2848 41.2776,2.0642 -1.52,-0.2667 41.2948,2.1291 20.0774,0.7121 22.4428,1.0161 42.454,0.857 2.8545,-0.022 -11.406,-0.057 -8.559,-0.1973 6.4415,-0.3164 12.9137,-0.2117 19.3698,-0.3337 11.8697,-0.2244 23.7376,-0.4887 35.6066,-0.7292 32.0466,-0.5855 9.4647,-0.286 61.7008,-0.1921 5.137,0.01 -10.3742,0.6242 -15.4107,-0.055 -4.2492,-0.5724 8.6648,-0.158 12.9953,-0.2711 4.7815,-0.1247 18.1461,-0.5933 23.0803,-0.7628 23.4546,-0.8175 46.981,-2.0264 70.4684,-0.7823 4.4171,0.2929 2.2848,0.2561 6.3947,0.155 0,0 -32.2315,3.4038 -32.2315,3.4038 l 0,0 c -4.0151,-0.1542 -1.9426,-0.057 -6.2168,-0.2972 -12.2435,-0.4333 -9.6446,-0.2907 23.1874,-0.2376 1.9221,0 -3.842,0.085 -5.7626,0.1349 -8.4197,0.2174 -16.8358,0.4982 -25.2521,0.7687 -12.2164,0.4062 -24.4824,0.9982 -36.7159,1.0649 -14.7466,0.081 -29.4943,0.08 -44.2409,0.01 -0.8831,0 42.8661,-0.4785 -2.6433,0.121 -48.9114,0.925 -97.9446,2.3519 -146.8212,0.2223 -36.5014,-1.9441 -73.0437,-4.0925 -109.6838,-4.1393 4.6385,0 18.5534,0.029 13.9153,-0.01 -31.368,-0.2344 -62.746,0.1284 -94.1145,0.054 -46.4991,0.1966 -93.0025,0.526 -139.4741,1.6934 -15.1042,0.3772 -30.2225,0.5434 -45.3152,1.0923 -29.5555,1.0747 -58.9922,3.4313 -88.4951,4.9624 -33.8596,1.6885 -67.7172,3.3615 -101.6149,4.6518 -13.2316,0.8573 -26.4198,1.9261 -39.7231,2.181 -18.8441,0.029 -37.9625,0.7601 -56.7146,-1.0843 0,0 32.5702,-3.0927 32.5702,-3.0927 z"
         id="path13094-7"
         style="fill:none;stroke:#2ca089;stroke-width:25.42931557;stroke-miterlimit:4;stroke-opacity:1;stroke-dasharray:none" />
      <path
         inkscape:connector-curvature="0"
         d="m 3794.1103,-420.1152 c 7.2216,-2.0311 14.6851,-3.079 22.153,-3.6239 15.1596,-1.147 30.3415,-0.7132 45.5357,-0.7624 5.8392,-0.019 -11.6789,0.015 -17.5179,-0.042 -2.0865,-0.02 4.1729,-0.045 6.2593,-0.067 23.4457,-0.3891 46.893,-0.26 70.3305,0.4519 12.8397,0.4048 25.6839,0.6262 38.5291,0.7345 1.6854,0.01 3.3707,0.023 5.0561,0.032 6.0437,0.03 12.0458,0.4301 18.0856,0.5771 2.7924,0.068 11.1673,0.2436 8.3795,0.071 -4.3805,-0.2721 -8.7745,-0.245 -13.1617,-0.3675 21.3905,-1.3525 42.7924,-2.4046 64.2167,-3.0137 20.6476,-0.7378 41.2645,-2.0705 61.8924,-3.2398 22.0812,-0.9777 44.0239,-3.8051 66.0441,-5.6437 18.4371,-1.6047 36.9908,-1.1952 55.4665,-0.4491 8.8981,0.3366 12.9731,0.4549 -17.6093,0.017 -0.9446,-0.014 1.8874,-0.091 2.8302,-0.1514 3.0235,-0.1932 6.0055,-0.5694 9.0054,-0.9833 15.5745,-1.5833 31.4672,-1.6802 46.9723,0.6634 1.5268,0.2055 3.0438,0.5062 4.5805,0.6165 1.5428,0.1107 6.1869,0.052 4.6402,0.045 -27.1064,-0.1113 -23.6173,0.1088 -13.9912,-0.2726 1.6341,-0.065 3.2675,-0.1473 4.9011,-0.2237 1.5545,-0.073 3.1089,-0.149 4.6634,-0.2235 7.5443,-0.3861 15.096,-0.5814 22.6488,-0.6864 1.0425,-0.01 2.085,-0.035 3.1275,-0.028 9.0459,0.066 18.0926,0.086 27.1372,0.2503 3.9794,0.072 8.0252,0.7569 12.0055,1.0081 2.8243,0.165 5.6525,0.2507 8.4808,0.304 0.9784,0.018 3.914,0.047 2.9354,0.043 -22.4795,-0.096 -27.9371,0.3703 -17.8983,-0.3409 7.6924,-0.7501 15.4186,-0.9651 23.1411,-1.1272 16.2179,-0.302 32.4376,-0.046 48.6556,0.1045 4.8544,0.5339 9.6452,1.7267 14.5188,2.1063 1.0026,0.078 2.011,0.04 3.0164,0.06 -7.1365,-0.024 -14.273,-0.048 -21.4095,-0.072 4.1624,-0.062 8.3126,-0.3982 12.4722,-0.5452 3.515,-0.096 7.0314,-0.117 10.5474,-0.138 0,0 24.0857,3.8024 24.0857,3.8024 l 0,0 c -3.4766,0.014 -6.9534,0.026 -10.4295,0.095 -4.198,0.102 -8.3859,0.3593 -12.5778,0.6001 -8.9133,-0.022 -17.8272,0.033 -26.74,-0.067 -5.8295,-0.065 -11.5309,-2.0313 -17.3596,-2.185 42.6771,-0.2955 8.8504,-0.1225 -1.0046,-0.042 -7.6329,0.1273 -15.2759,0.2707 -22.8791,1.0136 -13.815,1.284 -27.7754,0.7438 -41.6194,0.029 -2.9485,-0.2222 -5.8891,-0.5071 -8.8353,-0.7531 -1.0441,-0.087 -4.1819,-0.2163 -3.1343,-0.2376 1.4556,-0.03 30.9438,-0.1724 17.7575,-0.108 -7.6457,0.063 -15.2916,0.1951 -22.93,0.555 -17.4097,0.8002 -35.0118,2.1897 -52.3337,-0.1429 -10.3625,-1.2855 -21.2624,-0.5906 11.6916,-1.0612 1.2647,-0.018 -2.5295,-0.047 -3.7943,-0.043 -1.1898,0 -2.3815,-0.015 -3.5687,0.063 -1.1491,0.076 -2.2878,0.2654 -3.4317,0.3982 -13.9698,2.0439 -28.0325,2.5522 -42.2005,1.3454 -2.7283,-0.1165 -4.8394,-0.216 -7.6009,-0.2922 -1.5358,-0.042 -6.1445,-0.08 -4.6082,-0.098 38.709,-0.4558 11.1641,-0.1558 3.4796,0.5777 -22.1744,1.6659 -44.2448,4.514 -66.4526,5.6311 -20.5635,1.214 -41.1103,2.5679 -61.6943,3.3416 -21.3837,0.5409 -42.7522,1.4748 -64.0908,2.9937 -10.8311,0.1603 -21.6614,0.379 -32.4932,0.481 -10.7546,0.1013 -21.4958,-0.7784 -32.2527,-0.5667 -12.6222,-0.1647 -25.2414,-0.4908 -37.8584,-0.8865 -2.7478,-0.084 -5.4954,-0.1736 -8.2434,-0.2516 -2.8213,-0.08 -11.2823,-0.061 -8.4644,-0.2227 4.8521,-0.2782 9.7198,-0.088 14.5798,-0.1281 2.6265,-0.022 -5.253,0.044 -7.8794,0.072 -2.4486,0.026 -4.8971,0.058 -7.3456,0.09 -2.1962,0.029 -4.3923,0.062 -6.5884,0.093 -2.0674,0.03 -4.1347,0.081 -6.2024,0.089 -76.15,0.2879 -14.7205,-0.056 -11.8122,-0.023 1.8719,0.021 -3.7419,0.1253 -5.6123,0.2029 -1.7733,0.074 -3.5461,0.1585 -5.3186,0.2508 -1.6837,0.088 -3.3665,0.1926 -5.0498,0.289 -7.2118,0.2927 -14.3317,1.3457 -21.3396,3.0867 0,0 -24.4889,-3.0748 -24.4889,-3.0748 z"
         id="path13092-5"
         style="fill:none;stroke:none" />
      <path
         inkscape:connector-curvature="0"
         d="m 3962.4103,-360.4193 c 12.6251,1.309 46.6266,1.0369 -7.7007,0.8425 13.5767,-0.2041 27.0757,-1.1052 40.5874,-1.9395 34.698,-1.2731 69.3708,-2.7627 104.0316,-4.451 29.5775,-1.5026 59.0832,-3.8061 88.7031,-4.9397 3.6797,-0.1408 41.8208,-1.0704 45.3767,-1.1582 46.4889,-1.1779 93.0097,-1.5174 139.5263,-1.7466 46.0413,-0.2177 92.0837,-0.2118 138.1258,-0.2135 22.5108,-0.222 44.8866,1.1639 67.3015,2.2848 41.2776,2.0642 -1.52,-0.2667 41.2948,2.1291 20.0774,0.7121 22.4428,1.0161 42.454,0.857 2.8545,-0.022 -11.406,-0.057 -8.559,-0.1973 6.4415,-0.3164 12.9137,-0.2117 19.3698,-0.3337 11.8697,-0.2244 23.7376,-0.4887 35.6066,-0.7292 32.0466,-0.5855 9.4647,-0.286 61.7008,-0.1921 5.137,0.01 -10.3742,0.6242 -15.4107,-0.054 -4.2492,-0.5724 8.6648,-0.158 12.9953,-0.2711 4.7815,-0.1247 18.1461,-0.5933 23.0803,-0.7628 23.4546,-0.8175 46.981,-2.0264 70.4684,-0.7823 4.4171,0.2929 2.2848,0.2561 6.3947,0.155 0,0 -32.2315,3.4038 -32.2315,3.4038 l 0,0 c -4.0151,-0.1542 -1.9426,-0.057 -6.2168,-0.2972 -12.2435,-0.4333 -9.6446,-0.2907 23.1874,-0.2376 1.9221,0 -3.842,0.085 -5.7626,0.1349 -8.4197,0.2174 -16.8358,0.4982 -25.2521,0.7687 -12.2164,0.4062 -24.4824,0.9982 -36.7159,1.0649 -14.7466,0.081 -29.4943,0.08 -44.2409,0.01 -0.8831,0 42.8661,-0.4785 -2.6433,0.121 -48.9114,0.925 -97.9446,2.3519 -146.8212,0.2223 -36.5014,-1.9441 -73.0437,-4.0925 -109.6838,-4.1393 4.6385,0 18.5534,0.029 13.9153,-0.01 -31.368,-0.2344 -62.746,0.1284 -94.1145,0.054 -46.4991,0.1966 -93.0025,0.526 -139.4741,1.6934 -15.1042,0.3772 -30.2225,0.5434 -45.3152,1.0923 -29.5555,1.0747 -58.9922,3.4313 -88.4951,4.9624 -33.8596,1.6885 -67.7172,3.3615 -101.6149,4.6518 -13.2316,0.8573 -26.4198,1.9261 -39.7231,2.181 -18.8441,0.029 -37.9625,0.7601 -56.7146,-1.0843 0,0 32.5702,-3.0927 32.5702,-3.0927 z"
         id="path13094-6"
         style="fill:none;stroke:#2ca089;stroke-width:25.42931557;stroke-miterlimit:4;stroke-opacity:1;stroke-dasharray:none" />
      <path
         inkscape:connector-curvature="0"
         d="m 3973.8421,-200.7639 c 12.6251,1.309 46.6266,1.0369 -7.7007,0.8425 13.5767,-0.2041 27.0757,-1.1052 40.5874,-1.9395 34.698,-1.2731 69.3708,-2.7627 104.0316,-4.451 29.5775,-1.5026 59.0832,-3.8061 88.7031,-4.9397 3.6797,-0.1408 41.8208,-1.0704 45.3767,-1.1582 46.4889,-1.1779 93.0097,-1.5174 139.5263,-1.7466 46.0413,-0.2177 92.0837,-0.2118 138.1258,-0.2135 22.5108,-0.222 44.8866,1.1639 67.3015,2.2848 41.2776,2.0642 -1.52,-0.2667 41.2948,2.1291 20.0774,0.7121 22.4428,1.0161 42.454,0.857 2.8545,-0.022 -11.406,-0.057 -8.559,-0.1973 6.4415,-0.3164 12.9137,-0.2117 19.3698,-0.3337 11.8697,-0.2244 23.7376,-0.4887 35.6066,-0.7292 32.0466,-0.5855 9.4647,-0.286 61.7008,-0.1921 5.137,0.01 -10.3742,0.6242 -15.4107,-0.055 -4.2492,-0.5724 8.6648,-0.158 12.9953,-0.2711 4.7815,-0.1247 18.1461,-0.5933 23.0803,-0.7628 23.4546,-0.8175 46.981,-2.0264 70.4684,-0.7823 4.4171,0.2929 2.2848,0.2561 6.3947,0.155 0,0 -32.2315,3.4038 -32.2315,3.4038 l 0,0 c -4.0151,-0.1542 -1.9426,-0.057 -6.2168,-0.2972 -12.2435,-0.4333 -9.6446,-0.2907 23.1874,-0.2376 1.9221,0 -3.842,0.085 -5.7626,0.1349 -8.4197,0.2174 -16.8358,0.4982 -25.2521,0.7687 -12.2164,0.4062 -24.4824,0.9982 -36.7159,1.0649 -14.7466,0.081 -29.4943,0.08 -44.2409,0.01 -0.8831,0 42.8661,-0.4785 -2.6433,0.121 -48.9114,0.925 -97.9446,2.3519 -146.8212,0.2223 -36.5014,-1.9441 -73.0437,-4.0925 -109.6838,-4.1393 4.6385,0 18.5534,0.029 13.9153,-0.01 -31.368,-0.2344 -62.746,0.1284 -94.1145,0.054 -46.4991,0.1966 -93.0025,0.526 -139.4741,1.6934 -15.1042,0.3772 -30.2225,0.5434 -45.3152,1.0923 -29.5555,1.0747 -58.9922,3.4313 -88.4951,4.9624 -33.8596,1.6885 -67.7172,3.3615 -101.6149,4.6518 -13.2316,0.8573 -26.4198,1.9261 -39.7231,2.181 -18.8441,0.029 -37.9625,0.7601 -56.7146,-1.0843 0,0 32.5702,-3.0927 32.5702,-3.0927 z"
         id="path13094-7-1"
         style="fill:none;stroke:#2ca089;stroke-width:25.42931557;stroke-miterlimit:4;stroke-opacity:1;stroke-dasharray:none" />
      <text
         transform="scale(1.1153169,0.89660615)"
         sodipodi:linespacing="100%"
         id="text13138"
         y="831.56042"
         x="822.02411"
         style="font-size:1284.38635254px;font-style:normal;font-variant:normal;font-weight:normal;font-stretch:normal;text-align:start;line-height:100%;letter-spacing:0px;word-spacing:0px;writing-mode:lr-tb;text-anchor:start;fill:#2ca089;fill-opacity:1;stroke:none;font-family:Courier;-inkscape-font-specification:Courier"
         xml:space="preserve"><tspan
           style="font-style:normal;font-variant:normal;font-weight:normal;font-stretch:normal;font-family:Carnivalee Freakshow;-inkscape-font-specification:Carnivalee Freakshow"
           y="831.56042"
           x="822.02411"
           id="tspan13140"
           sodipodi:role="line">BROKEN</tspan></text>
      <path
         inkscape:connector-curvature="0"
         d="m 1118.145,953.05792 c 55.0925,0.80734 203.4655,0.63951 -33.6036,0.51968 59.2449,-0.1259 118.1507,-0.68174 177.112,-1.19635 151.4124,-0.78518 302.7147,-1.704 453.9647,-2.74534 129.0679,-0.92677 257.8225,-2.34758 387.0754,-3.04671 16.0572,-0.0865 182.4943,-0.66028 198.0112,-0.71443 202.8645,-0.72645 405.8682,-0.93591 608.8536,-1.07731 200.9113,-0.13424 401.8274,-0.13056 602.7422,-0.13166 98.2308,-0.13692 195.8725,0.71791 293.6848,1.40929 180.1238,1.27316 -6.6328,-0.16455 180.1989,1.3132 87.6122,0.43919 97.9341,0.62669 185.2574,0.52862 12.4562,-0.0139 -49.7726,-0.0348 -37.3492,-0.12172 28.109,-0.19515 56.3519,-0.13057 84.5245,-0.20589 51.796,-0.13831 103.5842,-0.30137 155.3771,-0.44972 139.8424,-0.36109 41.3013,-0.17637 269.245,-0.11844 22.4165,0.01 -45.2701,0.38494 -67.248,-0.0338 -18.5423,-0.35304 37.8108,-0.0974 56.7079,-0.16713 20.8651,-0.0765 79.1845,-0.36596 100.716,-0.47049 102.3492,-0.50427 205.0119,-1.2499 307.5042,-0.48251 19.275,0.18064 9.9702,0.15789 27.9048,0.0954 0,0 -140.6493,2.09937 -140.6493,2.09937 l 0,0 c -17.5208,-0.0954 -8.477,-0.0348 -27.1284,-0.18323 -53.4272,-0.26729 -42.0863,-0.17935 101.1833,-0.14656 8.3875,0 -16.7654,0.0527 -25.1463,0.0835 -36.7412,0.13414 -73.4667,0.30733 -110.1931,0.47416 -53.3089,0.2505 -106.8343,0.61566 -160.2178,0.6568 -64.3501,0.0497 -128.705,0.0497 -193.0549,0.01 -3.8536,0 187.0556,-0.29511 -11.5346,0.0745 -213.4357,0.57055 -427.4028,1.45062 -640.6865,0.13712 -159.2819,-1.19913 -318.7423,-2.52425 -478.6294,-2.55306 20.2412,0 80.9619,0.0179 60.7226,-0.01 -136.8812,-0.14458 -273.806,0.0795 -410.6893,0.0328 -202.9091,0.12122 -405.8368,0.32442 -608.6259,1.04442 -65.9104,0.23271 -131.8824,0.33525 -197.7427,0.67379 -128.972,0.66286 -257.4254,2.11636 -386.1678,3.06072 -147.7538,1.04154 -295.4989,2.07344 -443.4189,2.86925 -57.739,0.52881 -115.2885,1.188 -173.3404,1.34519 -82.2304,0.0179 -165.6577,0.4689 -247.48659,-0.66872 0,0 142.12709,-1.9076 142.12709,-1.9076 z"
         id="path13094-6-7"
         style="fill:none;stroke:#2ca089;stroke-width:41.71894073;stroke-miterlimit:4;stroke-opacity:1;stroke-dasharray:none" />
    </g>
  </g>
</svg>
