<?xml version="1.0" encoding="UTF-8" standalone="no"?>
<!-- Created with Inkscape (http://www.inkscape.org/) -->

<svg
   xmlns:dc="http://purl.org/dc/elements/1.1/"
   xmlns:cc="http://creativecommons.org/ns#"
   xmlns:rdf="http://www.w3.org/1999/02/22-rdf-syntax-ns#"
   xmlns:svg="http://www.w3.org/2000/svg"
   xmlns="http://www.w3.org/2000/svg"
   xmlns:sodipodi="http://sodipodi.sourceforge.net/DTD/sodipodi-0.dtd"
   xmlns:inkscape="http://www.inkscape.org/namespaces/inkscape"
   version="1.1"
   id="svg2"
   xml:space="preserve"
   width="1122.52"
   height="793.70801"
   viewBox="0 0 1122.52 793.70801"
   sodipodi:docname="oSC19 logo.ai.svg"
   inkscape:version="0.92.2 5c3e80d, 2017-08-06"><metadata
     id="metadata8"><rdf:RDF><cc:Work
         rdf:about=""><dc:format>image/svg+xml</dc:format><dc:type
           rdf:resource="http://purl.org/dc/dcmitype/StillImage" /><dc:title></dc:title></cc:Work></rdf:RDF></metadata><defs
     id="defs6"><clipPath
       clipPathUnits="userSpaceOnUse"
       id="clipPath30"><path
         d="M 0,595.281 H 841.89 V 0 H 0 Z"
         id="path28"
         inkscape:connector-curvature="0" /></clipPath><clipPath
       clipPathUnits="userSpaceOnUse"
       id="clipPath46"><path
         d="M 112.665,318.135 H 265.64 V 158.662 H 112.665 Z"
         id="path44"
         inkscape:connector-curvature="0" /></clipPath><clipPath
       clipPathUnits="userSpaceOnUse"
       id="clipPath62"><path
         d="M 0,595.281 H 841.89 V 0 H 0 Z"
         id="path60"
         inkscape:connector-curvature="0" /></clipPath></defs><sodipodi:namedview
     pagecolor="#ffffff"
     bordercolor="#666666"
     borderopacity="1"
     objecttolerance="10"
     gridtolerance="10"
     guidetolerance="10"
     inkscape:pageopacity="0"
     inkscape:pageshadow="2"
     inkscape:window-width="1147"
     inkscape:window-height="664"
     id="namedview4"
     showgrid="false"
     inkscape:zoom="0.28863628"
     inkscape:cx="561.26001"
     inkscape:cy="396.854"
     inkscape:window-x="466"
     inkscape:window-y="115"
     inkscape:window-maximized="0"
     inkscape:current-layer="g10" /><g
     id="g10"
     inkscape:groupmode="layer"
     inkscape:label="oSC19 logo"
     transform="matrix(1.3333333,0,0,-1.3333333,0,793.708)"><g
       id="g12"
       transform="translate(141.0527,159.6377)"><path
         d="M 0,0 -53.411,92.51 0,185.021 H 106.822 L 160.233,92.51 106.822,0 Z"
         style="fill:#6ca743;fill-opacity:1;fill-rule:nonzero;stroke:none"
         id="path14"
         inkscape:connector-curvature="0" /></g><g
       id="g16"
       transform="translate(142.0527,357.6362)"><path
         d="M 0,0 -53.411,92.511 0,185.022 H 106.822 L 160.233,92.511 106.822,0 Z"
         style="fill:#35b8aa;fill-opacity:1;fill-rule:nonzero;stroke:none"
         id="path18"
         inkscape:connector-curvature="0" /></g><g
       id="g20"
       transform="translate(288.1519,400.9932)"><path
         d="m 0,0 22.901,39.665 h 106.822 l 53.412,-92.511 -53.412,-92.51 H 22.901 l -53.411,92.51 z"
         style="fill:#72ba44;fill-opacity:1;fill-rule:nonzero;stroke:none"
         id="path22"
         inkscape:connector-curvature="0" /></g><g
       id="g24"><g
         id="g26"
         clip-path="url(#clipPath30)"><g
           id="g32"
           transform="translate(387.7368,355.209)"><path
             d="m 0,0 c -4.147,0 -7.493,2.244 -7.493,4.994 0,2.777 3.346,5.009 7.493,5.009 4.147,0 7.507,-2.232 7.507,-5.009 C 7.505,2.244 4.148,0 0,0 m -2.761,18.487 c -4.533,0.164 -8.825,-1.437 -12.108,-4.516 -3.283,-3.079 -5.219,-7.249 -5.357,-11.766 -0.313,-9.332 6.992,-17.183 16.304,-17.526 4.529,-0.135 8.843,1.465 12.145,4.544 3.298,3.092 5.194,7.264 5.339,11.765 0.31,9.328 -6.991,17.168 -16.323,17.499"
             style="fill:#ffffff;fill-opacity:1;fill-rule:nonzero;stroke:none"
             id="path34"
             inkscape:connector-curvature="0" /></g><g
           id="g36"
           transform="translate(409.5664,357.7441)"><path
             d="m 0,0 c -0.254,-6.472 -2.961,-12.477 -7.683,-16.868 -4.733,-4.447 -10.895,-6.731 -17.4,-6.512 -13.34,0.49 -23.82,11.738 -23.375,25.089 0.24,6.472 2.949,12.479 7.682,16.883 4.734,4.422 10.91,6.704 17.389,6.499 C -10.033,24.614 0.46,13.341 0,0 m 18.939,-20.113 c -0.932,5.856 -9.659,34.245 -16.257,41.072 -1.82,1.86 -3.277,3.693 -6.223,5.419 -23.884,13.914 -80.537,22.312 -83.191,22.698 l -0.451,-0.126 -0.171,-0.41 c 0,0 -0.218,-11.739 -0.252,-13.051 -3.562,1.197 -12.896,3.799 -34.345,9.244 -15.51,-27.056 -15.51,-27.221 -31.349,-54.113 0,0 0.165,-0.165 11.88,-21.12 6.599,-11.713 13.195,-21.779 16.829,-28.048 5.762,-10.7 8.084,-14.848 14.188,-24.749 -1.321,1.817 -0.33,1.651 0.441,8.404 1.76,15.424 15.662,14.817 33.601,12.793 5.854,-0.686 12.518,-1.449 19.418,-1.604 19.272,-0.122 40.026,3.437 52.818,9.034 8.275,3.595 13.561,5.99 16.869,9 1.189,0.985 1.804,2.586 2.447,4.309 l 0.453,1.137 c 0.535,1.396 1.322,4.338 1.666,5.953 0.139,0.709 0.221,1.461 -0.287,1.858 l -1.77,-0.327 c -5.615,-3.381 -19.659,-9.783 -32.786,-10.058 -16.301,-0.329 -49.115,16.392 -52.537,18.169 l -0.331,0.382 c -0.804,1.971 -5.731,13.614 -6.785,16.075 23.629,-15.568 43.226,-24.173 58.228,-25.5 16.702,-1.49 29.722,7.625 35.28,11.522 H 16.32 c 1.103,0.727 1.91,1.329 2.25,1.463 z"
             style="fill:#ffffff;fill-opacity:1;fill-rule:nonzero;stroke:none"
             id="path38"
             inkscape:connector-curvature="0" /></g><g
           id="g40"><g
             id="g42" /><g
             id="g54"><g
               clip-path="url(#clipPath46)"
               id="g52"><text
                 transform="matrix(0.9662297,0,0,-1,112.665,199.292)"
                 style="font-variant:normal;font-weight:bold;font-stretch:normal;font-size:138.68400574px;font-family:'Open Sans';-inkscape-font-specification:OpenSans-Bold;writing-mode:lr-tb;fill:#ffffff;fill-opacity:1;fill-rule:nonzero;stroke:none"
                 id="text50"><tspan
                   x="0 79.18856"
                   y="0"
                   sodipodi:role="line"
                   id="tspan48">19</tspan></text>
</g></g></g></g></g><g
       id="g56"><g
         id="g58"
         clip-path="url(#clipPath62)"><g
           id="g64"
           transform="translate(178.3159,492.4395)"><path
             d="M 0,0 C 0.036,0.207 0.151,0.986 0.247,1.382 0.482,2.373 0.758,2.804 1.116,2.876 2.551,2.875 1.159,2.906 1.223,2.899 1.416,2.875 1.573,2.702 1.463,2.26 1.904,2.082 1.612,4.37 1.609,3.902 1.606,3.356 1.462,0.995 1.06,0.092 0.956,-0.145 0.696,-0.161 0.579,-0.162 0.233,-0.164 -0.093,-0.548 0,0 M 1.575,5.114 C 1.938,5.87 2.179,6.233 2.271,6.211 2.364,6.188 2.31,5.779 2.083,4.991 1.902,4.363 1.579,3.849 1.364,3.849 1.069,3.849 1.122,4.163 1.575,5.114 M 5.192,6.317 C 5.371,6.317 6.48,4.394 6.482,4.08 6.484,3.617 5.882,3.863 5.727,4.389 5.64,4.687 5.451,5.241 5.308,5.623 5.166,6.005 5.113,6.317 5.192,6.317 M 7.45,1.362 C 7.553,1.052 7.595,0.775 7.64,0.539 7.683,0.317 7.706,-0.021 7.706,-0.187 7.706,-0.28 7.397,-0.162 7.099,-0.162 6.723,-0.162 6.5,0.133 6.375,0.802 6.094,2.299 6.159,2.923 6.594,2.923 6.791,2.923 7.185,2.156 7.45,1.362 M 0.225,-1.897 c -0.051,-1.837 -0.718,-3.765 -0.803,-3.999 -0.097,-0.27 -0.175,-0.963 -0.175,-1.543 0,-1.026 -0.033,-1.055 -1.165,-1.055 -1.121,0 -1.157,-0.03 -0.974,-0.849 0.599,-2.689 1.62,-4.163 3.513,-5.071 l 1.231,-0.589 c 0,0 -0.775,-57.858 -0.997,-65.93 l -0.203,-9.844 h 6.087 c 0,0 -0.988,75.803 -0.093,76.117 1.428,0.503 2.859,2.126 3.419,3.877 0.684,2.141 0.64,2.289 -0.687,2.289 H 8.22 c 0,0 -0.082,2.97 -0.177,5.575 -0.028,0.749 -0.46,1.406 -0.489,2.017 -0.012,0.254 0.618,0.466 0.607,0.677 C 8.133,0.265 8.07,0.654 8.048,0.804 7.961,1.347 7.604,2.077 7.497,2.363 7.339,2.788 6.976,4.133 6.18,5.623 L 5.313,7.243 5.098,8.168 c 0,0 -0.931,24.534 -0.931,26.121 C 4.167,36.276 2.485,8.314 2.46,8.247 2.444,8.204 2.143,7.139 2.086,7.012 1.708,6.162 1.245,5.278 0.909,4.43 0.311,2.918 -0.243,1.531 -0.511,0.627 c -0.12,-0.409 -0.103,-0.731 -0.144,-0.9 -0.13,-0.549 0.917,-0.328 0.88,-1.624"
             style="fill:#26a2dc;fill-opacity:1;fill-rule:nonzero;stroke:none"
             id="path66"
             inkscape:connector-curvature="0" /></g><g
           id="g68"
           transform="translate(178.7891,491.6055)"><path
             d="m 0,0 c -1.14,-1.582 -1.862,-3.917 -1.862,-6.526 0,-4.763 2.407,-8.625 5.379,-8.625 2.97,0 5.379,3.862 5.379,8.625 0,2.609 -0.723,4.944 -1.863,6.526 z"
             style="fill:#26a2dc;fill-opacity:1;fill-rule:nonzero;stroke:none"
             id="path70"
             inkscape:connector-curvature="0" /></g><g
           id="g72"
           transform="translate(189.5527,484.8403)"><path
             d="m 0,0 c 0,-4.45 -3.294,-8.058 -7.358,-8.058 -4.065,0 -7.359,3.608 -7.359,8.058 C -14.717,0.246 0,0.387 0,0"
             style="fill:#26a2dc;fill-opacity:1;fill-rule:nonzero;stroke:none"
             id="path74"
             inkscape:connector-curvature="0" /></g><g
           id="g76"
           transform="translate(182.5518,488.2954)"><path
             d="m 0,0 c 4.524,0 8.193,-0.445 8.193,-0.995 0,-0.547 -3.669,-0.993 -8.193,-0.993 -4.524,0 -8.191,0.446 -8.191,0.993 C -8.191,-0.445 -4.524,0 0,0"
             style="fill:#26a2dc;fill-opacity:1;fill-rule:nonzero;stroke:none"
             id="path78"
             inkscape:connector-curvature="0" /></g><g
           id="g80"
           transform="translate(182.1943,492.5313)"><path
             d="m 0,0 c 3.488,0 6.316,-0.445 6.316,-0.994 0,-0.55 -2.828,-0.995 -6.316,-0.995 -3.489,0 -6.317,0.445 -6.317,0.995 C -6.317,-0.445 -3.489,0 0,0"
             style="fill:#26a2dc;fill-opacity:1;fill-rule:nonzero;stroke:none"
             id="path82"
             inkscape:connector-curvature="0" /></g><g
           id="g84"
           transform="translate(186.7246,496.3413)"><path
             d="m 0,0 c 0,-0.264 -2.193,-0.479 -4.899,-0.479 -2.706,0 -4.898,0.215 -4.898,0.479 0,0.266 2.192,0.479 4.898,0.479 C -2.193,0.479 0,0.266 0,0"
             style="fill:#26a2dc;fill-opacity:1;fill-rule:nonzero;stroke:none"
             id="path86"
             inkscape:connector-curvature="0" /></g><g
           id="g88"
           transform="translate(217.9204,413.4937)"><path
             d="m 0,0 19.226,23.677 20.03,-24.071 0.151,-40.824 -1.296,-2.243 H 0 Z"
             style="fill:#26a2dc;fill-opacity:1;fill-rule:nonzero;stroke:none"
             id="path90"
             inkscape:connector-curvature="0" /></g><g
           id="g92"
           transform="translate(240.9048,445.4346)"><path
             d="M 0,0 -3.929,3.108 -7.381,-0.264 V -28.125 H 0 Z"
             style="fill:#173f4f;fill-opacity:1;fill-rule:nonzero;stroke:none"
             id="path94"
             inkscape:connector-curvature="0" /></g><g
           id="g96"
           transform="translate(240.9048,441.7617)"><path
             d="M 0,0 V 3.108 H -3.929 -7.381 V -0.263 -28.124 H 0 Z"
             style="fill:#26a2dc;fill-opacity:1;fill-rule:nonzero;stroke:none"
             id="path98"
             inkscape:connector-curvature="0" /></g><g
           id="g100"
           transform="translate(218.4312,414.2744)"><path
             d="M 0,0 -0.422,6.291 -0.795,0.166 v -50.63 H 0 Z"
             style="fill:#26a2dc;fill-opacity:1;fill-rule:nonzero;stroke:none"
             id="path102"
             inkscape:connector-curvature="0" /></g><g
           id="g104"
           transform="translate(221.543,419.2637)"><path
             d="M 0,0 -0.422,3.461 -0.793,0.091 V -27.771 H 0 Z"
             style="fill:#26a2dc;fill-opacity:1;fill-rule:nonzero;stroke:none"
             id="path106"
             inkscape:connector-curvature="0" /></g><g
           id="g108"
           transform="translate(220.7495,422.6138)"><path
             d="m 0,0 c 0,-0.227 0.178,-0.411 0.397,-0.411 0.219,0 0.396,0.184 0.396,0.411 0,0.226 -0.177,0.41 -0.396,0.41 C 0.178,0.41 0,0.226 0,0"
             style="fill:#26a2dc;fill-opacity:1;fill-rule:nonzero;stroke:none"
             id="path110"
             inkscape:connector-curvature="0" /></g><g
           id="g112"
           transform="translate(224.1157,420.9019)"><path
             d="M 0,0 -0.422,3.461 -0.793,0.09 V -27.771 H 0 Z"
             style="fill:#26a2dc;fill-opacity:1;fill-rule:nonzero;stroke:none"
             id="path114"
             inkscape:connector-curvature="0" /></g><g
           id="g116"
           transform="translate(223.3223,424.252)"><path
             d="m 0,0 c 0,-0.227 0.177,-0.41 0.397,-0.41 0.218,0 0.396,0.183 0.396,0.41 0,0.226 -0.178,0.41 -0.396,0.41 C 0.177,0.41 0,0.226 0,0"
             style="fill:#26a2dc;fill-opacity:1;fill-rule:nonzero;stroke:none"
             id="path118"
             inkscape:connector-curvature="0" /></g><g
           id="g120"
           transform="translate(226.6563,423.5981)"><path
             d="M 0,0 -0.422,3.46 -0.793,0.09 V -27.771 H 0 Z"
             style="fill:#26a2dc;fill-opacity:1;fill-rule:nonzero;stroke:none"
             id="path122"
             inkscape:connector-curvature="0" /></g><g
           id="g124"
           transform="translate(225.8633,426.9482)"><path
             d="m 0,0 c 0,-0.228 0.177,-0.411 0.396,-0.411 0.22,0 0.397,0.183 0.397,0.411 0,0.227 -0.177,0.41 -0.397,0.41 C 0.177,0.41 0,0.227 0,0"
             style="fill:#26a2dc;fill-opacity:1;fill-rule:nonzero;stroke:none"
             id="path126"
             inkscape:connector-curvature="0" /></g><g
           id="g128"
           transform="translate(229.1494,428.1147)"><path
             d="M 0,0 -0.423,3.46 -0.794,0.09 V -27.771 H 0 Z"
             style="fill:#26a2dc;fill-opacity:1;fill-rule:nonzero;stroke:none"
             id="path130"
             inkscape:connector-curvature="0" /></g><g
           id="g132"
           transform="translate(228.355,431.4644)"><path
             d="m 0,0 c 0,-0.227 0.178,-0.411 0.397,-0.411 0.22,0 0.397,0.184 0.397,0.411 0,0.228 -0.177,0.411 -0.397,0.411 C 0.178,0.411 0,0.228 0,0"
             style="fill:#26a2dc;fill-opacity:1;fill-rule:nonzero;stroke:none"
             id="path134"
             inkscape:connector-curvature="0" /></g><g
           id="g136"
           transform="translate(231.5474,429.8115)"><path
             d="M 0,0 -0.423,3.462 -0.794,0.091 V -27.771 H 0 Z"
             style="fill:#26a2dc;fill-opacity:1;fill-rule:nonzero;stroke:none"
             id="path138"
             inkscape:connector-curvature="0" /></g><g
           id="g140"
           transform="translate(230.7534,433.1621)"><path
             d="m 0,0 c 0,-0.228 0.178,-0.412 0.397,-0.412 0.22,0 0.397,0.184 0.397,0.412 0,0.227 -0.177,0.411 -0.397,0.411 C 0.178,0.411 0,0.227 0,0"
             style="fill:#26a2dc;fill-opacity:1;fill-rule:nonzero;stroke:none"
             id="path142"
             inkscape:connector-curvature="0" /></g><g
           id="g144"
           transform="translate(243.2671,429.8154)"><path
             d="M 0,0 -0.423,3.462 -0.794,0.091 V -27.77 H 0 Z"
             style="fill:#26a2dc;fill-opacity:1;fill-rule:nonzero;stroke:none"
             id="path146"
             inkscape:connector-curvature="0" /></g><g
           id="g148"
           transform="translate(242.4731,433.1655)"><path
             d="m 0,0 c 0,-0.226 0.178,-0.41 0.397,-0.41 0.22,0 0.397,0.184 0.397,0.41 0,0.227 -0.177,0.411 -0.397,0.411 C 0.178,0.411 0,0.227 0,0"
             style="fill:#26a2dc;fill-opacity:1;fill-rule:nonzero;stroke:none"
             id="path150"
             inkscape:connector-curvature="0" /></g><g
           id="g152"
           transform="translate(245.9355,427.7026)"><path
             d="M 0,0 -0.423,3.462 -0.794,0.091 V -27.77 H 0 Z"
             style="fill:#26a2dc;fill-opacity:1;fill-rule:nonzero;stroke:none"
             id="path154"
             inkscape:connector-curvature="0" /></g><g
           id="g156"
           transform="translate(245.1411,431.0537)"><path
             d="m 0,0 c 0,-0.227 0.178,-0.411 0.397,-0.411 0.22,0 0.397,0.184 0.397,0.411 0,0.227 -0.177,0.411 -0.397,0.411 C 0.178,0.411 0,0.227 0,0"
             style="fill:#26a2dc;fill-opacity:1;fill-rule:nonzero;stroke:none"
             id="path158"
             inkscape:connector-curvature="0" /></g><g
           id="g160"
           transform="translate(249.1748,423.5981)"><path
             d="M 0,0 -0.423,3.46 -0.794,0.09 V -27.771 H 0 Z"
             style="fill:#26a2dc;fill-opacity:1;fill-rule:nonzero;stroke:none"
             id="path162"
             inkscape:connector-curvature="0" /></g><g
           id="g164"
           transform="translate(248.3804,426.9482)"><path
             d="m 0,0 c 0,-0.228 0.178,-0.411 0.397,-0.411 0.22,0 0.397,0.183 0.397,0.411 0,0.227 -0.177,0.41 -0.397,0.41 C 0.178,0.41 0,0.227 0,0"
             style="fill:#26a2dc;fill-opacity:1;fill-rule:nonzero;stroke:none"
             id="path166"
             inkscape:connector-curvature="0" /></g><g
           id="g168"
           transform="translate(252.0806,420.8848)"><path
             d="M 0,0 -0.423,3.461 -0.794,0.09 V -27.771 H 0 Z"
             style="fill:#26a2dc;fill-opacity:1;fill-rule:nonzero;stroke:none"
             id="path170"
             inkscape:connector-curvature="0" /></g><g
           id="g172"
           transform="translate(251.2866,424.2354)"><path
             d="m 0,0 c 0,-0.227 0.178,-0.411 0.397,-0.411 0.22,0 0.397,0.184 0.397,0.411 0,0.227 -0.177,0.411 -0.397,0.411 C 0.178,0.411 0,0.227 0,0"
             style="fill:#26a2dc;fill-opacity:1;fill-rule:nonzero;stroke:none"
             id="path174"
             inkscape:connector-curvature="0" /></g><g
           id="g176"
           transform="translate(254.7007,418.8525)"><path
             d="M 0,0 -0.422,3.462 -0.794,0.09 V -27.771 H 0 Z"
             style="fill:#26a2dc;fill-opacity:1;fill-rule:nonzero;stroke:none"
             id="path178"
             inkscape:connector-curvature="0" /></g><g
           id="g180"
           transform="translate(253.9067,422.2031)"><path
             d="m 0,0 c 0,-0.227 0.178,-0.411 0.397,-0.411 0.22,0 0.397,0.184 0.397,0.411 0,0.227 -0.177,0.411 -0.397,0.411 C 0.178,0.411 0,0.227 0,0"
             style="fill:#26a2dc;fill-opacity:1;fill-rule:nonzero;stroke:none"
             id="path182"
             inkscape:connector-curvature="0" /></g><g
           id="g184"
           transform="translate(257.3271,372.2754)"><path
             d="M 0,0 V 42.345 L -0.422,48.634 -0.794,42.51 V -1.375 Z"
             style="fill:#26a2dc;fill-opacity:1;fill-rule:nonzero;stroke:none"
             id="path186"
             inkscape:connector-curvature="0" /></g><path
           d="m 223.957,369.249 h -4.716 v 37.859 h 4.716 z"
           style="fill:#73ab43;fill-opacity:1;fill-rule:nonzero;stroke:none"
           id="path188"
           inkscape:connector-curvature="0" /><g
           id="g190"
           transform="translate(219.2407,407.5801)"><path
             d="m 0,0 c 0,-2.534 1.055,-4.589 2.358,-4.589 1.304,0 2.358,2.055 2.358,4.589 0,2.535 -1.054,4.591 -2.358,4.591 C 1.055,4.591 0,2.535 0,0"
             style="fill:#73ab43;fill-opacity:1;fill-rule:nonzero;stroke:none"
             id="path192"
             inkscape:connector-curvature="0" /></g><path
           d="m 255.407,369.293 h -4.716 v 37.858 h 4.716 z"
           style="fill:#73ab43;fill-opacity:1;fill-rule:nonzero;stroke:none"
           id="path194"
           inkscape:connector-curvature="0" /><g
           id="g196"
           transform="translate(250.6909,407.6245)"><path
             d="m 0,0 c 0,-2.536 1.055,-4.59 2.357,-4.59 1.304,0 2.359,2.054 2.359,4.59 0,2.535 -1.055,4.59 -2.359,4.59 C 1.055,4.59 0,2.535 0,0"
             style="fill:#73ab43;fill-opacity:1;fill-rule:nonzero;stroke:none"
             id="path198"
             inkscape:connector-curvature="0" /></g><path
           d="m 243.141,368.527 h -11.56 v 43.342 h 11.56 z"
           style="fill:#73ab43;fill-opacity:1;fill-rule:nonzero;stroke:none"
           id="path200"
           inkscape:connector-curvature="0" /><g
           id="g202"
           transform="translate(231.5815,411.9639)"><path
             d="m 0,0 c 0,-4.149 2.587,-7.511 5.781,-7.511 3.192,0 5.779,3.362 5.779,7.511 0,4.148 -2.587,7.51 -5.779,7.51 C 2.587,7.51 0,4.148 0,0"
             style="fill:#73ab43;fill-opacity:1;fill-rule:nonzero;stroke:none"
             id="path204"
             inkscape:connector-curvature="0" /></g><g
           id="g206"
           transform="translate(247.9468,368.8555)"><path
             d="m 0,0 c 0.052,0.679 0.084,1.368 0.084,2.07 0,9.385 -4.763,16.995 -10.638,16.995 -5.876,0 -10.638,-7.61 -10.638,-16.995 0,-0.702 0.031,-1.391 0.084,-2.07 z"
             style="fill:#173f4f;fill-opacity:1;fill-rule:nonzero;stroke:none"
             id="path208"
             inkscape:connector-curvature="0" /></g><g
           id="g210"
           transform="translate(239.832,425.623)"><path
             d="m 0,0 c 0,-1.402 -1.099,-2.54 -2.454,-2.54 -1.356,0 -2.454,1.138 -2.454,2.54 0,1.403 1.098,2.541 2.454,2.541 C -1.099,2.541 0,1.403 0,0"
             style="fill:#ffffff;fill-opacity:1;fill-rule:nonzero;stroke:none"
             id="path212"
             inkscape:connector-curvature="0" /></g><path
           d="m 216.998,370.367 h -56.762 v 33.452 h 56.762 z"
           style="fill:#72b944;fill-opacity:1;fill-rule:nonzero;stroke:none"
           id="path214"
           inkscape:connector-curvature="0" /><g
           id="g216"
           transform="translate(177.0259,415.8604)"><path
             d="M 0,0 -8.111,14.088 -16.79,-0.658 V -12.435 H 0 Z"
             style="fill:#72b944;fill-opacity:1;fill-rule:nonzero;stroke:none"
             id="path218"
             inkscape:connector-curvature="0" /></g><g
           id="g220"
           transform="translate(158.499,417.4438)"><path
             d="m 0,0 h -25.23 v -44.594 l 2.193,-3.797 c 0,0 23.037,0.002 23.037,0.002 z"
             style="fill:#26a2dc;fill-opacity:1;fill-rule:nonzero;stroke:none"
             id="path222"
             inkscape:connector-curvature="0" /></g><g
           id="g224"
           transform="translate(256.0317,370.0322)"><path
             d="m 0,0 -7.157,-12.396 h -106.822 l -6.591,11.417 -0.793,1.374 H 0.228 Z"
             style="fill:#173f4f;fill-opacity:1;fill-rule:nonzero;stroke:none"
             id="path226"
             inkscape:connector-curvature="0" /></g><g
           id="g228"
           transform="translate(158.499,418.8115)"><path
             d="m 0,0 2.446,2.045 v 9.942 H -27.798 L -27.977,1.998 -25.821,0 -25.23,-3.802 0,-2.552 Z"
             style="fill:#26a2dc;fill-opacity:1;fill-rule:nonzero;stroke:none"
             id="path230"
             inkscape:connector-curvature="0" /></g><g
           id="g232"
           transform="translate(130.522,430.7515)"><path
             d="M 0,0 V -9.942 H 30.244 L 30.423,0.047 27.854,5.367 25.785,0.755 15.399,14.877 4.972,0.69 2.444,5.367 Z"
             style="fill:#26a2dc;fill-opacity:1;fill-rule:nonzero;stroke:none"
             id="path234"
             inkscape:connector-curvature="0" /></g><g
           id="g236"
           transform="translate(186.7544,353.4458)"><path
             d="m 0,0 c 0.165,-0.161 0.333,-0.317 0.501,-0.473 0.52,0.056 1.042,0.105 1.567,0.15 C 1.376,-0.235 0.687,-0.128 0,0"
             style="fill:#ffffff;fill-opacity:1;fill-rule:nonzero;stroke:none"
             id="path238"
             inkscape:connector-curvature="0" /></g><g
           id="g240"
           transform="translate(215.4014,370.3672)"><path
             d="M 0,0 C -2.029,8.079 -9.733,14.094 -18.933,14.094 -28.133,14.094 -35.831,8.078 -37.86,0 Z"
             style="fill:#173f4f;fill-opacity:1;fill-rule:nonzero;stroke:none"
             id="path242"
             inkscape:connector-curvature="0" /></g><path
           d="m 189.143,409.298 h 27.855 v -4.121 h -27.855 z"
           style="fill:#173f4f;fill-opacity:1;fill-rule:nonzero;stroke:none"
           id="path244"
           inkscape:connector-curvature="0" /><path
           d="m 189.143,412.171 h 27.855 v -3.395 h -27.855 z"
           style="fill:#173f4f;fill-opacity:1;fill-rule:nonzero;stroke:none"
           id="path246"
           inkscape:connector-curvature="0" /><path
           d="m 189.143,459.005 h 27.855 v -3.394 h -27.855 z"
           style="fill:#173f4f;fill-opacity:1;fill-rule:nonzero;stroke:none"
           id="path248"
           inkscape:connector-curvature="0" /><path
           d="m 189.143,454.851 h 27.855 v -3.395 h -27.855 z"
           style="fill:#173f4f;fill-opacity:1;fill-rule:nonzero;stroke:none"
           id="path250"
           inkscape:connector-curvature="0" /><path
           d="m 189.143,450.744 h 27.855 v -3.394 h -27.855 z"
           style="fill:#173f4f;fill-opacity:1;fill-rule:nonzero;stroke:none"
           id="path252"
           inkscape:connector-curvature="0" /><path
           d="m 189.143,446.641 h 27.855 v -3.394 h -27.855 z"
           style="fill:#173f4f;fill-opacity:1;fill-rule:nonzero;stroke:none"
           id="path254"
           inkscape:connector-curvature="0" /><path
           d="m 189.143,443.42 h 27.855 v -3.394 h -27.855 z"
           style="fill:#173f4f;fill-opacity:1;fill-rule:nonzero;stroke:none"
           id="path256"
           inkscape:connector-curvature="0" /><path
           d="m 189.143,439.451 h 27.855 v -3.393 h -27.855 z"
           style="fill:#173f4f;fill-opacity:1;fill-rule:nonzero;stroke:none"
           id="path258"
           inkscape:connector-curvature="0" /><path
           d="m 189.143,435.27 h 27.855 v -3.394 h -27.855 z"
           style="fill:#173f4f;fill-opacity:1;fill-rule:nonzero;stroke:none"
           id="path260"
           inkscape:connector-curvature="0" /><path
           d="m 189.143,431.341 h 27.855 v -3.393 h -27.855 z"
           style="fill:#173f4f;fill-opacity:1;fill-rule:nonzero;stroke:none"
           id="path262"
           inkscape:connector-curvature="0" /><path
           d="m 189.143,427.358 h 27.855 v -3.394 h -27.855 z"
           style="fill:#173f4f;fill-opacity:1;fill-rule:nonzero;stroke:none"
           id="path264"
           inkscape:connector-curvature="0" /><path
           d="m 189.143,424.143 h 27.855 v -3.395 h -27.855 z"
           style="fill:#173f4f;fill-opacity:1;fill-rule:nonzero;stroke:none"
           id="path266"
           inkscape:connector-curvature="0" /><path
           d="m 189.143,420.14 h 27.855 v -3.396 h -27.855 z"
           style="fill:#173f4f;fill-opacity:1;fill-rule:nonzero;stroke:none"
           id="path268"
           inkscape:connector-curvature="0" /><path
           d="m 189.143,416.008 h 27.855 v -3.394 h -27.855 z"
           style="fill:#173f4f;fill-opacity:1;fill-rule:nonzero;stroke:none"
           id="path270"
           inkscape:connector-curvature="0" /><path
           d="m 196.272,463.842 h 20.726 v -5.51 h -20.726 z"
           style="fill:#173f4f;fill-opacity:1;fill-rule:nonzero;stroke:none"
           id="path272"
           inkscape:connector-curvature="0" /><g
           id="g274"
           transform="translate(132.6929,425.4912)"><path
             d="m 0,0 c 0,-0.358 -0.281,-0.649 -0.627,-0.649 -0.348,0 -0.628,0.291 -0.628,0.649 v 1.334 c 0,0.359 0.28,0.65 0.628,0.65 C -0.281,1.984 0,1.693 0,1.334 Z"
             style="fill:#ffffff;fill-opacity:1;fill-rule:nonzero;stroke:none"
             id="path276"
             inkscape:connector-curvature="0" /></g><g
           id="g278"
           transform="translate(135.4731,425.4912)"><path
             d="m 0,0 c 0,-0.358 -0.281,-0.649 -0.628,-0.649 -0.347,0 -0.628,0.291 -0.628,0.649 v 1.334 c 0,0.359 0.281,0.65 0.628,0.65 C -0.281,1.984 0,1.693 0,1.334 Z"
             style="fill:#ffffff;fill-opacity:1;fill-rule:nonzero;stroke:none"
             id="path280"
             inkscape:connector-curvature="0" /></g><g
           id="g282"
           transform="translate(138.0073,425.4912)"><path
             d="m 0,0 c 0,-0.358 -0.281,-0.649 -0.628,-0.649 -0.348,0 -0.628,0.291 -0.628,0.649 v 1.334 c 0,0.359 0.28,0.65 0.628,0.65 C -0.281,1.984 0,1.693 0,1.334 Z"
             style="fill:#ffffff;fill-opacity:1;fill-rule:nonzero;stroke:none"
             id="path284"
             inkscape:connector-curvature="0" /></g><g
           id="g286"
           transform="translate(141.0483,425.4912)"><path
             d="m 0,0 c 0,-0.358 -0.281,-0.649 -0.627,-0.649 -0.347,0 -0.629,0.291 -0.629,0.649 v 1.334 c 0,0.359 0.282,0.65 0.629,0.65 C -0.281,1.984 0,1.693 0,1.334 Z"
             style="fill:#ffffff;fill-opacity:1;fill-rule:nonzero;stroke:none"
             id="path288"
             inkscape:connector-curvature="0" /></g><g
           id="g290"
           transform="translate(146.3608,425.4912)"><path
             d="m 0,0 c 0,-0.358 -0.281,-0.649 -0.628,-0.649 -0.346,0 -0.627,0.291 -0.627,0.649 v 1.334 c 0,0.359 0.281,0.65 0.627,0.65 C -0.281,1.984 0,1.693 0,1.334 Z"
             style="fill:#ffffff;fill-opacity:1;fill-rule:nonzero;stroke:none"
             id="path292"
             inkscape:connector-curvature="0" /></g><g
           id="g294"
           transform="translate(151.9819,425.4912)"><path
             d="m 0,0 c 0,-0.358 -0.281,-0.649 -0.628,-0.649 -0.347,0 -0.628,0.291 -0.628,0.649 v 1.334 c 0,0.359 0.281,0.65 0.628,0.65 C -0.281,1.984 0,1.693 0,1.334 Z"
             style="fill:#ffffff;fill-opacity:1;fill-rule:nonzero;stroke:none"
             id="path296"
             inkscape:connector-curvature="0" /></g><g
           id="g298"
           transform="translate(154.1411,425.4912)"><path
             d="m 0,0 c 0,-0.358 -0.281,-0.649 -0.627,-0.649 -0.347,0 -0.629,0.291 -0.629,0.649 v 1.334 c 0,0.359 0.282,0.65 0.629,0.65 C -0.281,1.984 0,1.693 0,1.334 Z"
             style="fill:#ffffff;fill-opacity:1;fill-rule:nonzero;stroke:none"
             id="path300"
             inkscape:connector-curvature="0" /></g><g
           id="g302"
           transform="translate(156.4277,425.4912)"><path
             d="m 0,0 c 0,-0.358 -0.281,-0.649 -0.627,-0.649 -0.347,0 -0.629,0.291 -0.629,0.649 v 1.334 c 0,0.359 0.282,0.65 0.629,0.65 C -0.281,1.984 0,1.693 0,1.334 Z"
             style="fill:#ffffff;fill-opacity:1;fill-rule:nonzero;stroke:none"
             id="path304"
             inkscape:connector-curvature="0" /></g><g
           id="g306"
           transform="translate(159.2803,425.4634)"><path
             d="m 0,0 c 0,-0.359 -0.282,-0.649 -0.628,-0.649 -0.347,0 -0.628,0.29 -0.628,0.649 v 1.334 c 0,0.36 0.281,0.65 0.628,0.65 C -0.282,1.984 0,1.694 0,1.334 Z"
             style="fill:#ffffff;fill-opacity:1;fill-rule:nonzero;stroke:none"
             id="path308"
             inkscape:connector-curvature="0" /></g><g
           id="g310"
           transform="translate(143.5918,425.4634)"><path
             d="m 0,0 c 0,-0.359 -0.28,-0.649 -0.627,-0.649 -0.347,0 -0.629,0.29 -0.629,0.649 v 1.334 c 0,0.36 0.282,0.65 0.629,0.65 C -0.28,1.984 0,1.694 0,1.334 Z"
             style="fill:#ffffff;fill-opacity:1;fill-rule:nonzero;stroke:none"
             id="path312"
             inkscape:connector-curvature="0" /></g><g
           id="g314"
           transform="translate(146.1265,425.4634)"><path
             d="m 0,0 c 0,-0.359 -0.281,-0.649 -0.628,-0.649 -0.347,0 -0.629,0.29 -0.629,0.649 v 1.334 c 0,0.36 0.282,0.65 0.629,0.65 C -0.281,1.984 0,1.694 0,1.334 Z"
             style="fill:#ffffff;fill-opacity:1;fill-rule:nonzero;stroke:none"
             id="path316"
             inkscape:connector-curvature="0" /></g><g
           id="g318"
           transform="translate(149.1675,425.4634)"><path
             d="m 0,0 c 0,-0.359 -0.281,-0.649 -0.628,-0.649 -0.346,0 -0.628,0.29 -0.628,0.649 v 1.334 c 0,0.36 0.282,0.65 0.628,0.65 C -0.281,1.984 0,1.694 0,1.334 Z"
             style="fill:#ffffff;fill-opacity:1;fill-rule:nonzero;stroke:none"
             id="path320"
             inkscape:connector-curvature="0" /></g><g
           id="g322"
           transform="translate(135.7871,415.3545)"><path
             d="m 0,0 c 0,-0.358 -0.281,-0.649 -0.626,-0.649 -0.347,0 -0.628,0.291 -0.628,0.649 v 1.334 c 0,0.36 0.281,0.65 0.628,0.65 C -0.281,1.984 0,1.694 0,1.334 Z"
             style="fill:#ffffff;fill-opacity:1;fill-rule:nonzero;stroke:none"
             id="path324"
             inkscape:connector-curvature="0" /></g><g
           id="g326"
           transform="translate(138.5679,415.3545)"><path
             d="m 0,0 c 0,-0.358 -0.281,-0.649 -0.628,-0.649 -0.348,0 -0.628,0.291 -0.628,0.649 v 1.334 c 0,0.36 0.28,0.65 0.628,0.65 C -0.281,1.984 0,1.694 0,1.334 Z"
             style="fill:#ffffff;fill-opacity:1;fill-rule:nonzero;stroke:none"
             id="path328"
             inkscape:connector-curvature="0" /></g><g
           id="g330"
           transform="translate(141.1016,415.3545)"><path
             d="m 0,0 c 0,-0.358 -0.281,-0.649 -0.628,-0.649 -0.347,0 -0.628,0.291 -0.628,0.649 v 1.334 c 0,0.36 0.281,0.65 0.628,0.65 C -0.281,1.984 0,1.694 0,1.334 Z"
             style="fill:#ffffff;fill-opacity:1;fill-rule:nonzero;stroke:none"
             id="path332"
             inkscape:connector-curvature="0" /></g><g
           id="g334"
           transform="translate(144.1431,415.3545)"><path
             d="m 0,0 c 0,-0.358 -0.28,-0.649 -0.628,-0.649 -0.347,0 -0.627,0.291 -0.627,0.649 v 1.334 c 0,0.36 0.28,0.65 0.627,0.65 C -0.28,1.984 0,1.694 0,1.334 Z"
             style="fill:#ffffff;fill-opacity:1;fill-rule:nonzero;stroke:none"
             id="path336"
             inkscape:connector-curvature="0" /></g><g
           id="g338"
           transform="translate(155.0762,415.3545)"><path
             d="m 0,0 c 0,-0.358 -0.281,-0.649 -0.628,-0.649 -0.347,0 -0.629,0.291 -0.629,0.649 v 1.334 c 0,0.36 0.282,0.65 0.629,0.65 C -0.281,1.984 0,1.694 0,1.334 Z"
             style="fill:#ffffff;fill-opacity:1;fill-rule:nonzero;stroke:none"
             id="path340"
             inkscape:connector-curvature="0" /></g><g
           id="g342"
           transform="translate(157.2354,415.3545)"><path
             d="m 0,0 c 0,-0.358 -0.281,-0.649 -0.627,-0.649 -0.347,0 -0.628,0.291 -0.628,0.649 v 1.334 c 0,0.36 0.281,0.65 0.628,0.65 C -0.281,1.984 0,1.694 0,1.334 Z"
             style="fill:#ffffff;fill-opacity:1;fill-rule:nonzero;stroke:none"
             id="path344"
             inkscape:connector-curvature="0" /></g><g
           id="g346"
           transform="translate(146.687,415.3267)"><path
             d="m 0,0 c 0,-0.359 -0.281,-0.649 -0.628,-0.649 -0.347,0 -0.628,0.29 -0.628,0.649 v 1.335 c 0,0.359 0.281,0.649 0.628,0.649 C -0.281,1.984 0,1.694 0,1.335 Z"
             style="fill:#ffffff;fill-opacity:1;fill-rule:nonzero;stroke:none"
             id="path348"
             inkscape:connector-curvature="0" /></g><g
           id="g350"
           transform="translate(149.2207,415.3267)"><path
             d="m 0,0 c 0,-0.359 -0.282,-0.649 -0.628,-0.649 -0.346,0 -0.628,0.29 -0.628,0.649 v 1.335 c 0,0.359 0.282,0.649 0.628,0.649 C -0.282,1.984 0,1.694 0,1.335 Z"
             style="fill:#ffffff;fill-opacity:1;fill-rule:nonzero;stroke:none"
             id="path352"
             inkscape:connector-curvature="0" /></g><g
           id="g354"
           transform="translate(152.2622,415.3267)"><path
             d="m 0,0 c 0,-0.359 -0.281,-0.649 -0.628,-0.649 -0.346,0 -0.627,0.29 -0.627,0.649 v 1.335 c 0,0.359 0.281,0.649 0.627,0.649 C -0.281,1.984 0,1.694 0,1.335 Z"
             style="fill:#ffffff;fill-opacity:1;fill-rule:nonzero;stroke:none"
             id="path356"
             inkscape:connector-curvature="0" /></g><g
           id="g358"
           transform="translate(135.7871,410.5195)"><path
             d="m 0,0 c 0,-0.36 -0.281,-0.65 -0.626,-0.65 -0.347,0 -0.628,0.29 -0.628,0.65 v 1.334 c 0,0.359 0.281,0.649 0.628,0.649 C -0.281,1.983 0,1.693 0,1.334 Z"
             style="fill:#ffffff;fill-opacity:1;fill-rule:nonzero;stroke:none"
             id="path360"
             inkscape:connector-curvature="0" /></g><g
           id="g362"
           transform="translate(138.5679,410.5195)"><path
             d="m 0,0 c 0,-0.36 -0.281,-0.65 -0.627,-0.65 -0.347,0 -0.629,0.29 -0.629,0.65 v 1.334 c 0,0.359 0.282,0.649 0.629,0.649 C -0.281,1.983 0,1.693 0,1.334 Z"
             style="fill:#ffffff;fill-opacity:1;fill-rule:nonzero;stroke:none"
             id="path364"
             inkscape:connector-curvature="0" /></g><g
           id="g366"
           transform="translate(141.1016,410.5195)"><path
             d="m 0,0 c 0,-0.36 -0.281,-0.65 -0.628,-0.65 -0.347,0 -0.628,0.29 -0.628,0.65 v 1.334 c 0,0.359 0.281,0.649 0.628,0.649 C -0.281,1.983 0,1.693 0,1.334 Z"
             style="fill:#ffffff;fill-opacity:1;fill-rule:nonzero;stroke:none"
             id="path368"
             inkscape:connector-curvature="0" /></g><g
           id="g370"
           transform="translate(144.144,410.5195)"><path
             d="m 0,0 c 0,-0.36 -0.281,-0.65 -0.629,-0.65 -0.347,0 -0.627,0.29 -0.627,0.65 v 1.334 c 0,0.359 0.28,0.649 0.627,0.649 C -0.281,1.983 0,1.693 0,1.334 Z"
             style="fill:#ffffff;fill-opacity:1;fill-rule:nonzero;stroke:none"
             id="path372"
             inkscape:connector-curvature="0" /></g><g
           id="g374"
           transform="translate(155.0762,410.5195)"><path
             d="m 0,0 c 0,-0.36 -0.28,-0.65 -0.628,-0.65 -0.347,0 -0.628,0.29 -0.628,0.65 v 1.334 c 0,0.359 0.281,0.649 0.628,0.649 C -0.28,1.983 0,1.693 0,1.334 Z"
             style="fill:#ffffff;fill-opacity:1;fill-rule:nonzero;stroke:none"
             id="path376"
             inkscape:connector-curvature="0" /></g><g
           id="g378"
           transform="translate(157.2354,410.5195)"><path
             d="m 0,0 c 0,-0.36 -0.281,-0.65 -0.627,-0.65 -0.347,0 -0.628,0.29 -0.628,0.65 v 1.334 c 0,0.359 0.281,0.649 0.628,0.649 C -0.281,1.983 0,1.693 0,1.334 Z"
             style="fill:#ffffff;fill-opacity:1;fill-rule:nonzero;stroke:none"
             id="path380"
             inkscape:connector-curvature="0" /></g><g
           id="g382"
           transform="translate(146.687,410.4912)"><path
             d="m 0,0 c 0,-0.359 -0.281,-0.65 -0.628,-0.65 -0.346,0 -0.628,0.291 -0.628,0.65 v 1.334 c 0,0.359 0.282,0.65 0.628,0.65 C -0.281,1.984 0,1.693 0,1.334 Z"
             style="fill:#ffffff;fill-opacity:1;fill-rule:nonzero;stroke:none"
             id="path384"
             inkscape:connector-curvature="0" /></g><g
           id="g386"
           transform="translate(149.2212,410.4912)"><path
             d="m 0,0 c 0,-0.359 -0.282,-0.65 -0.628,-0.65 -0.347,0 -0.628,0.291 -0.628,0.65 v 1.334 c 0,0.359 0.281,0.65 0.628,0.65 C -0.282,1.984 0,1.693 0,1.334 Z"
             style="fill:#ffffff;fill-opacity:1;fill-rule:nonzero;stroke:none"
             id="path388"
             inkscape:connector-curvature="0" /></g><g
           id="g390"
           transform="translate(152.2627,410.4912)"><path
             d="m 0,0 c 0,-0.359 -0.281,-0.65 -0.629,-0.65 -0.346,0 -0.627,0.291 -0.627,0.65 v 1.334 c 0,0.359 0.281,0.65 0.627,0.65 C -0.281,1.984 0,1.693 0,1.334 Z"
             style="fill:#ffffff;fill-opacity:1;fill-rule:nonzero;stroke:none"
             id="path392"
             inkscape:connector-curvature="0" /></g><g
           id="g394"
           transform="translate(135.9634,398.9536)"><path
             d="m 0,0 c 0,-0.36 -0.282,-0.651 -0.628,-0.651 -0.347,0 -0.628,0.291 -0.628,0.651 v 1.333 c 0,0.359 0.281,0.65 0.628,0.65 C -0.282,1.983 0,1.692 0,1.333 Z"
             style="fill:#ffffff;fill-opacity:1;fill-rule:nonzero;stroke:none"
             id="path396"
             inkscape:connector-curvature="0" /></g><g
           id="g398"
           transform="translate(138.7427,398.9536)"><path
             d="m 0,0 c 0,-0.36 -0.28,-0.651 -0.627,-0.651 -0.347,0 -0.629,0.291 -0.629,0.651 v 1.333 c 0,0.359 0.282,0.65 0.629,0.65 C -0.28,1.983 0,1.692 0,1.333 Z"
             style="fill:#ffffff;fill-opacity:1;fill-rule:nonzero;stroke:none"
             id="path400"
             inkscape:connector-curvature="0" /></g><g
           id="g402"
           transform="translate(141.2769,398.9536)"><path
             d="m 0,0 c 0,-0.36 -0.28,-0.651 -0.628,-0.651 -0.348,0 -0.628,0.291 -0.628,0.651 v 1.333 c 0,0.359 0.28,0.65 0.628,0.65 C -0.28,1.983 0,1.692 0,1.333 Z"
             style="fill:#ffffff;fill-opacity:1;fill-rule:nonzero;stroke:none"
             id="path404"
             inkscape:connector-curvature="0" /></g><g
           id="g406"
           transform="translate(144.3184,398.9536)"><path
             d="m 0,0 c 0,-0.36 -0.281,-0.651 -0.628,-0.651 -0.347,0 -0.628,0.291 -0.628,0.651 v 1.333 c 0,0.359 0.281,0.65 0.628,0.65 C -0.281,1.983 0,1.692 0,1.333 Z"
             style="fill:#ffffff;fill-opacity:1;fill-rule:nonzero;stroke:none"
             id="path408"
             inkscape:connector-curvature="0" /></g><g
           id="g410"
           transform="translate(155.2515,398.9536)"><path
             d="m 0,0 c 0,-0.36 -0.281,-0.651 -0.628,-0.651 -0.347,0 -0.628,0.291 -0.628,0.651 v 1.333 c 0,0.359 0.281,0.65 0.628,0.65 C -0.281,1.983 0,1.692 0,1.333 Z"
             style="fill:#ffffff;fill-opacity:1;fill-rule:nonzero;stroke:none"
             id="path412"
             inkscape:connector-curvature="0" /></g><g
           id="g414"
           transform="translate(157.4106,398.9536)"><path
             d="m 0,0 c 0,-0.36 -0.28,-0.651 -0.627,-0.651 -0.348,0 -0.629,0.291 -0.629,0.651 v 1.333 c 0,0.359 0.281,0.65 0.629,0.65 C -0.28,1.983 0,1.692 0,1.333 Z"
             style="fill:#ffffff;fill-opacity:1;fill-rule:nonzero;stroke:none"
             id="path416"
             inkscape:connector-curvature="0" /></g><g
           id="g418"
           transform="translate(146.8618,398.9253)"><path
             d="m 0,0 c 0,-0.359 -0.281,-0.649 -0.628,-0.649 -0.346,0 -0.627,0.29 -0.627,0.649 v 1.333 c 0,0.36 0.281,0.652 0.627,0.652 C -0.281,1.985 0,1.693 0,1.333 Z"
             style="fill:#ffffff;fill-opacity:1;fill-rule:nonzero;stroke:none"
             id="path420"
             inkscape:connector-curvature="0" /></g><g
           id="g422"
           transform="translate(149.396,398.9253)"><path
             d="m 0,0 c 0,-0.359 -0.281,-0.649 -0.628,-0.649 -0.347,0 -0.627,0.29 -0.627,0.649 v 1.333 c 0,0.36 0.28,0.652 0.627,0.652 C -0.281,1.985 0,1.693 0,1.333 Z"
             style="fill:#ffffff;fill-opacity:1;fill-rule:nonzero;stroke:none"
             id="path424"
             inkscape:connector-curvature="0" /></g><g
           id="g426"
           transform="translate(152.4375,398.9253)"><path
             d="m 0,0 c 0,-0.359 -0.282,-0.649 -0.628,-0.649 -0.347,0 -0.628,0.29 -0.628,0.649 v 1.333 c 0,0.36 0.281,0.652 0.628,0.652 C -0.282,1.985 0,1.693 0,1.333 Z"
             style="fill:#ffffff;fill-opacity:1;fill-rule:nonzero;stroke:none"
             id="path428"
             inkscape:connector-curvature="0" /></g><g
           id="g430"
           transform="translate(135.9634,394.5942)"><path
             d="m 0,0 c 0,-0.358 -0.282,-0.649 -0.628,-0.649 -0.347,0 -0.628,0.291 -0.628,0.649 v 1.335 c 0,0.358 0.281,0.649 0.628,0.649 C -0.282,1.984 0,1.693 0,1.335 Z"
             style="fill:#ffffff;fill-opacity:1;fill-rule:nonzero;stroke:none"
             id="path432"
             inkscape:connector-curvature="0" /></g><g
           id="g434"
           transform="translate(138.7427,394.5942)"><path
             d="m 0,0 c 0,-0.358 -0.28,-0.649 -0.627,-0.649 -0.347,0 -0.629,0.291 -0.629,0.649 v 1.335 c 0,0.358 0.282,0.649 0.629,0.649 C -0.28,1.984 0,1.693 0,1.335 Z"
             style="fill:#ffffff;fill-opacity:1;fill-rule:nonzero;stroke:none"
             id="path436"
             inkscape:connector-curvature="0" /></g><g
           id="g438"
           transform="translate(141.2769,394.5942)"><path
             d="m 0,0 c 0,-0.358 -0.28,-0.649 -0.628,-0.649 -0.348,0 -0.628,0.291 -0.628,0.649 v 1.335 c 0,0.358 0.28,0.649 0.628,0.649 C -0.28,1.984 0,1.693 0,1.335 Z"
             style="fill:#ffffff;fill-opacity:1;fill-rule:nonzero;stroke:none"
             id="path440"
             inkscape:connector-curvature="0" /></g><g
           id="g442"
           transform="translate(144.3184,394.5942)"><path
             d="m 0,0 c 0,-0.358 -0.281,-0.649 -0.628,-0.649 -0.347,0 -0.628,0.291 -0.628,0.649 v 1.335 c 0,0.358 0.281,0.649 0.628,0.649 C -0.281,1.984 0,1.693 0,1.335 Z"
             style="fill:#ffffff;fill-opacity:1;fill-rule:nonzero;stroke:none"
             id="path444"
             inkscape:connector-curvature="0" /></g><g
           id="g446"
           transform="translate(155.2515,394.5942)"><path
             d="m 0,0 c 0,-0.358 -0.281,-0.649 -0.628,-0.649 -0.347,0 -0.628,0.291 -0.628,0.649 v 1.335 c 0,0.358 0.281,0.649 0.628,0.649 C -0.281,1.984 0,1.693 0,1.335 Z"
             style="fill:#ffffff;fill-opacity:1;fill-rule:nonzero;stroke:none"
             id="path448"
             inkscape:connector-curvature="0" /></g><g
           id="g450"
           transform="translate(157.4106,394.5942)"><path
             d="m 0,0 c 0,-0.358 -0.28,-0.649 -0.627,-0.649 -0.348,0 -0.629,0.291 -0.629,0.649 v 1.335 c 0,0.358 0.281,0.649 0.629,0.649 C -0.28,1.984 0,1.693 0,1.335 Z"
             style="fill:#ffffff;fill-opacity:1;fill-rule:nonzero;stroke:none"
             id="path452"
             inkscape:connector-curvature="0" /></g><g
           id="g454"
           transform="translate(146.8618,394.5664)"><path
             d="m 0,0 c 0,-0.358 -0.281,-0.65 -0.628,-0.65 -0.346,0 -0.627,0.292 -0.627,0.65 v 1.334 c 0,0.36 0.281,0.651 0.627,0.651 C -0.281,1.985 0,1.694 0,1.334 Z"
             style="fill:#ffffff;fill-opacity:1;fill-rule:nonzero;stroke:none"
             id="path456"
             inkscape:connector-curvature="0" /></g><g
           id="g458"
           transform="translate(149.396,394.5664)"><path
             d="m 0,0 c 0,-0.358 -0.281,-0.65 -0.628,-0.65 -0.347,0 -0.627,0.292 -0.627,0.65 v 1.334 c 0,0.36 0.28,0.651 0.627,0.651 C -0.281,1.985 0,1.694 0,1.334 Z"
             style="fill:#ffffff;fill-opacity:1;fill-rule:nonzero;stroke:none"
             id="path460"
             inkscape:connector-curvature="0" /></g><g
           id="g462"
           transform="translate(152.4375,394.5664)"><path
             d="m 0,0 c 0,-0.358 -0.282,-0.65 -0.628,-0.65 -0.347,0 -0.628,0.292 -0.628,0.65 v 1.334 c 0,0.36 0.281,0.651 0.628,0.651 C -0.282,1.985 0,1.694 0,1.334 Z"
             style="fill:#ffffff;fill-opacity:1;fill-rule:nonzero;stroke:none"
             id="path464"
             inkscape:connector-curvature="0" /></g><g
           id="g466"
           transform="translate(182.5254,403.8315)"><path
             d="m 0,0 v -1.1 c 0,-0.358 0.28,-0.648 0.627,-0.648 0.347,0 0.628,0.29 0.628,0.648 V 0 Z"
             style="fill:#35b9ab;fill-opacity:1;fill-rule:nonzero;stroke:none"
             id="path468"
             inkscape:connector-curvature="0" /></g><g
           id="g470"
           transform="translate(166.7197,420.1846)"><path
             d="m 0,0 c 0,-0.358 -0.282,-0.65 -0.628,-0.65 -0.347,0 -0.628,0.292 -0.628,0.65 v 1.334 c 0,0.361 0.281,0.65 0.628,0.65 C -0.282,1.984 0,1.695 0,1.334 Z"
             style="fill:#ffffff;fill-opacity:1;fill-rule:nonzero;stroke:none"
             id="path472"
             inkscape:connector-curvature="0" /></g><g
           id="g474"
           transform="translate(169.2637,420.1572)"><path
             d="m 0,0 c 0,-0.359 -0.281,-0.65 -0.628,-0.65 -0.347,0 -0.628,0.291 -0.628,0.65 v 1.334 c 0,0.359 0.281,0.65 0.628,0.65 C -0.281,1.984 0,1.693 0,1.334 Z"
             style="fill:#ffffff;fill-opacity:1;fill-rule:nonzero;stroke:none"
             id="path476"
             inkscape:connector-curvature="0" /></g><g
           id="g478"
           transform="translate(171.7969,420.1572)"><path
             d="m 0,0 c 0,-0.359 -0.281,-0.65 -0.629,-0.65 -0.345,0 -0.627,0.291 -0.627,0.65 v 1.334 c 0,0.359 0.282,0.65 0.627,0.65 C -0.281,1.984 0,1.693 0,1.334 Z"
             style="fill:#ffffff;fill-opacity:1;fill-rule:nonzero;stroke:none"
             id="path480"
             inkscape:connector-curvature="0" /></g><g
           id="g482"
           transform="translate(162.2002,412.8677)"><path
             d="m 0,0 c 0,-0.359 -0.281,-0.65 -0.628,-0.65 -0.347,0 -0.627,0.291 -0.627,0.65 v 1.334 c 0,0.359 0.28,0.649 0.627,0.649 C -0.281,1.983 0,1.693 0,1.334 Z"
             style="fill:#ffffff;fill-opacity:1;fill-rule:nonzero;stroke:none"
             id="path484"
             inkscape:connector-curvature="0" /></g><g
           id="g486"
           transform="translate(164.7437,412.8398)"><path
             d="m 0,0 c 0,-0.358 -0.281,-0.65 -0.628,-0.65 -0.346,0 -0.627,0.292 -0.627,0.65 v 1.334 c 0,0.36 0.281,0.65 0.627,0.65 C -0.281,1.984 0,1.694 0,1.334 Z"
             style="fill:#ffffff;fill-opacity:1;fill-rule:nonzero;stroke:none"
             id="path488"
             inkscape:connector-curvature="0" /></g><g
           id="g490"
           transform="translate(167.2783,412.8398)"><path
             d="m 0,0 c 0,-0.358 -0.282,-0.65 -0.629,-0.65 -0.346,0 -0.627,0.292 -0.627,0.65 v 1.334 c 0,0.36 0.281,0.65 0.627,0.65 C -0.282,1.984 0,1.694 0,1.334 Z"
             style="fill:#ffffff;fill-opacity:1;fill-rule:nonzero;stroke:none"
             id="path492"
             inkscape:connector-curvature="0" /></g><g
           id="g494"
           transform="translate(170.519,412.853)"><path
             d="m 0,0 c 0,-0.358 -0.28,-0.649 -0.628,-0.649 -0.346,0 -0.627,0.291 -0.627,0.649 v 1.336 c 0,0.358 0.281,0.649 0.627,0.649 C -0.28,1.985 0,1.694 0,1.336 Z"
             style="fill:#ffffff;fill-opacity:1;fill-rule:nonzero;stroke:none"
             id="path496"
             inkscape:connector-curvature="0" /></g><g
           id="g498"
           transform="translate(173.063,412.8252)"><path
             d="m 0,0 c 0,-0.357 -0.281,-0.649 -0.628,-0.649 -0.347,0 -0.628,0.292 -0.628,0.649 v 1.335 c 0,0.359 0.281,0.65 0.628,0.65 C -0.281,1.985 0,1.694 0,1.335 Z"
             style="fill:#ffffff;fill-opacity:1;fill-rule:nonzero;stroke:none"
             id="path500"
             inkscape:connector-curvature="0" /></g><g
           id="g502"
           transform="translate(175.5967,412.8252)"><path
             d="m 0,0 c 0,-0.357 -0.281,-0.649 -0.628,-0.649 -0.347,0 -0.628,0.292 -0.628,0.649 v 1.335 c 0,0.359 0.281,0.65 0.628,0.65 C -0.281,1.985 0,1.694 0,1.335 Z"
             style="fill:#ffffff;fill-opacity:1;fill-rule:nonzero;stroke:none"
             id="path504"
             inkscape:connector-curvature="0" /></g><g
           id="g506"
           transform="translate(178.7354,403.8315)"><path
             d="m 0,0 v -1.1 c 0,-0.358 0.28,-0.648 0.627,-0.648 0.347,0 0.628,0.29 0.628,0.648 V 0 Z"
             style="fill:#35b9ab;fill-opacity:1;fill-rule:nonzero;stroke:none"
             id="path508"
             inkscape:connector-curvature="0" /></g><g
           id="g510"
           transform="translate(186.3291,403.8315)"><path
             d="m 0,0 v -1.1 c 0,-0.358 0.28,-0.648 0.627,-0.648 0.347,0 0.628,0.29 0.628,0.648 V 0 Z"
             style="fill:#35b9ab;fill-opacity:1;fill-rule:nonzero;stroke:none"
             id="path512"
             inkscape:connector-curvature="0" /></g><g
           id="g514"
           transform="translate(190.6685,403.8257)"><path
             d="m 0,0 v -1.1 c 0,-0.358 0.28,-0.648 0.627,-0.648 0.347,0 0.628,0.29 0.628,0.648 V 0 Z"
             style="fill:#35b9ab;fill-opacity:1;fill-rule:nonzero;stroke:none"
             id="path516"
             inkscape:connector-curvature="0" /></g><g
           id="g518"
           transform="translate(213.981,403.8257)"><path
             d="m 0,0 v -1.1 c 0,-0.358 0.28,-0.648 0.627,-0.648 0.347,0 0.628,0.29 0.628,0.648 V 0 Z"
             style="fill:#35b9ab;fill-opacity:1;fill-rule:nonzero;stroke:none"
             id="path520"
             inkscape:connector-curvature="0" /></g><g
           id="g522"
           transform="translate(210.3042,403.8647)"><path
             d="m 0,0 v -1.1 c 0,-0.358 0.28,-0.648 0.627,-0.648 0.347,0 0.628,0.29 0.628,0.648 V 0 Z"
             style="fill:#35b9ab;fill-opacity:1;fill-rule:nonzero;stroke:none"
             id="path524"
             inkscape:connector-curvature="0" /></g><g
           id="g526"
           transform="translate(206.2432,403.8257)"><path
             d="m 0,0 v -1.1 c 0,-0.358 0.28,-0.648 0.627,-0.648 0.347,0 0.628,0.29 0.628,0.648 V 0 Z"
             style="fill:#35b9ab;fill-opacity:1;fill-rule:nonzero;stroke:none"
             id="path528"
             inkscape:connector-curvature="0" /></g><g
           id="g530"
           transform="translate(202.0728,403.8257)"><path
             d="m 0,0 v -1.1 c 0,-0.358 0.28,-0.648 0.627,-0.648 0.347,0 0.628,0.29 0.628,0.648 V 0 Z"
             style="fill:#35b9ab;fill-opacity:1;fill-rule:nonzero;stroke:none"
             id="path532"
             inkscape:connector-curvature="0" /></g><g
           id="g534"
           transform="translate(198.6592,403.8257)"><path
             d="m 0,0 v -1.1 c 0,-0.358 0.28,-0.648 0.627,-0.648 0.347,0 0.628,0.29 0.628,0.648 V 0 Z"
             style="fill:#35b9ab;fill-opacity:1;fill-rule:nonzero;stroke:none"
             id="path536"
             inkscape:connector-curvature="0" /></g><g
           id="g538"
           transform="translate(194.4478,403.8257)"><path
             d="m 0,0 v -1.1 c 0,-0.358 0.28,-0.648 0.627,-0.648 0.347,0 0.628,0.29 0.628,0.648 V 0 Z"
             style="fill:#35b9ab;fill-opacity:1;fill-rule:nonzero;stroke:none"
             id="path540"
             inkscape:connector-curvature="0" /></g></g></g></g></svg>