<?xml version="1.0" encoding="UTF-8" standalone="no"?>
<!-- Created with Inkscape (http://www.inkscape.org/) -->

<svg
   xmlns:dc="http://purl.org/dc/elements/1.1/"
   xmlns:cc="http://creativecommons.org/ns#"
   xmlns:rdf="http://www.w3.org/1999/02/22-rdf-syntax-ns#"
   xmlns:svg="http://www.w3.org/2000/svg"
   xmlns="http://www.w3.org/2000/svg"
   xmlns:sodipodi="http://sodipodi.sourceforge.net/DTD/sodipodi-0.dtd"
   xmlns:inkscape="http://www.inkscape.org/namespaces/inkscape"
   width="210mm"
   height="297mm"
   id="svg2"
   version="1.1"
   inkscape:version="0.48.2 r9819"
   sodipodi:docname="open_mind_3.png">
  <defs
     id="defs4"><inkscape:perspective
   id="perspective2477"
   inkscape:persp3d-origin="372.04724 : 350.78739 : 1"
   inkscape:vp_z="744.09448 : 526.18109 : 1"
   inkscape:vp_y="0 : 1000 : 0"
   inkscape:vp_x="0 : 526.18109 : 1"
   sodipodi:type="inkscape:persp3d" />

		
		
	</defs>
  <sodipodi:namedview
     id="base"
     pagecolor="#ffffff"
     bordercolor="#666666"
     borderopacity="1.0"
     inkscape:pageopacity="0.0"
     inkscape:pageshadow="2"
     inkscape:zoom="1.4142136"
     inkscape:cx="343.59184"
     inkscape:cy="769.4442"
     inkscape:document-units="px"
     inkscape:current-layer="layer1"
     showgrid="false"
     inkscape:window-width="1680"
     inkscape:window-height="995"
     inkscape:window-x="-10"
     inkscape:window-y="-13"
     inkscape:window-maximized="1" />
  <metadata
     id="metadata7">
    <rdf:RDF>
      <cc:Work
         rdf:about="">
        <dc:format>image/svg+xml</dc:format>
        <dc:type
           rdf:resource="http://purl.org/dc/dcmitype/StillImage" />
        <dc:title></dc:title>
      </cc:Work>
    </rdf:RDF>
  </metadata>
  <g
     inkscape:label="Capa 1"
     inkscape:groupmode="layer"
     id="layer1">
    <g
       transform="matrix(-1,0,0,1,337.15158,105.4614)"
       id="layer1-4"
       inkscape:label="Layer 1">
      <path
         id="path2403"
         d="m 578.86907,72.475332 c -2.17585,-0.60136 -4.70729,0.44651 -6.98392,0.4205 -2.1816,0.0044 -4.38087,0.07514 -6.5625,0.03125 -2.39747,-0.04138 -4.73291,-0.40974 -7.125,-0.4375 -5.85416,0.83006 -9.2223,4.90581 -11.53125,9.78125 -0.31791,0.67129 3.5532,-0.87776 3.90625,-1.53125 0.8611,-1.59382 1.86828,-3.12818 3.125,-4.4375 0.0698,-0.01647 0.0801,-0.01351 0.15625,-0.03125 2.25741,-0.097 4.50831,0.28185 6.75,0.5 2.16765,0.1247 4.32963,0.11488 6.5,0.09375 3.78109,-0.0422 8.85564,0.32552 11.625,1.65625 -0.92292,1.90116 -0.0771,4.24811 0.3125,6.1875 0.14842,0.73875 3.91224,-1.19061 3.8125,-1.9375 -0.23385,-1.75127 -1.36565,-4.20917 -0.0625,-5.5 2.59639,-2.57184 7.28746,-2.2366 10.9375,-2.78125 2.50027,-0.40889 5.02788,-0.74283 7.53125,-1.125 1.85159,-0.4881 3.26054,-0.36949 4.90625,0.59375 1.40116,1.19973 2.97134,2.18141 4.375,3.375 1.02431,1.08068 2.38594,2.0176 2.9375,3.4375 0.31384,1.18871 -0.18419,2.10004 -0.96875,2.84375 -1.27772,0.48518 -8.29772,3.39658 -9.25,3.65625 3.75508,-0.25553 5.85865,-1.01183 8.09375,-0.21875 0.26887,0.53353 1.2396,-0.63689 1.875,-0.875 1.74891,-0.65534 3.57309,-1.00702 5.40625,-1.3125 2.55878,-0.34583 5.15845,-0.24036 7.71875,0.03125 2.62203,0.21626 4.83361,1.24692 6.875,2.84375 1.48622,1.47107 1.91798,3.60704 2.0625,5.625 0.19737,1.79609 -0.17523,3.00112 -1.21875,4.46875 -0.39187,0.55114 -0.90193,1.02758 -1.21875,1.625 -0.2618,0.49365 -0.33708,1.090498 -0.5,1.624998 -0.0629,0.20632 1.01138,-0.25049 1.1875,-0.375 3.93387,-2.780808 7.48495,-4.651208 6.9375,-9.874998 -0.27365,-2.2832 -0.97037,-4.50993 -2.625,-6.1875 -2.20703,-1.63802 -4.52753,-2.9174 -7.34375,-3.0625 -2.73613,-0.39576 -5.51548,-0.25325 -8.25,0.125 -2.17402,0.40523 -4.21658,0.95514 -6.15625,1.65625 1.79166,-1.32693 3.16861,-2.97859 2.53125,-5.40625 -0.67395,-1.58721 -1.95032,-2.64262 -3.15625,-3.84375 -1.44464,-1.22447 -3.10518,-2.19938 -4.59375,-3.375 -1.27883,-0.92951 -2.5679,-1.44442 -4,-1.34375 -0.47737,0.03356 -0.95627,0.13113 -1.46875,0.3125 -2.53568,0.53988 -5.15344,0.73561 -7.6875,1.3125 -3.97957,0.7488 -8.01744,1.39281 -11.875,2.65625 -0.36102,0.20351 -1.36574,-0.86061 -1.74372,-0.67494"
         style="fill:#000000;fill-opacity:1;fill-rule:nonzero;stroke:none"
         inkscape:connector-curvature="0" />
      <path
         sodipodi:nodetypes="csccsccccscccsccccssccccccccsccsssssccssccscccscccssccsssscscscccccccsccscsssccsssccssc"
         id="path2402"
         d="m 527.7914,158.48958 c -0.27786,0.0161 -0.53988,0.0664 -0.8125,0.0625 -2.41135,-0.0344 -4.84211,-0.0188 -7.25,0.125 -5.68262,0.63394 -12.06642,2.54062 -15.15625,7.78125 -1.19316,2.86572 -0.5469,5.75208 -0.8125,8.8125 -0.82334,9.48715 -2.87128,24.8652 -0.125,28.3125 1.04347,3.22359 3.77488,4.89784 6.53125,6.53125 4.77978,2.28394 9.90359,0.94027 14.71875,-0.5 5.48557,-1.90733 11.06024,-3.80186 15.65625,-7.46875 -0.0495,1.21337 0.16708,2.37545 0.90625,3.375 0.25635,0.34665 0.64603,0.58906 0.96875,0.875 2.46974,1.18976 4.90089,0.36804 7.40625,-0.15625 3.16343,-0.46488 6.17945,-1.32032 9.09375,-2.625 3.19515,-1.72803 2.34717,-1.24563 7.375,-4.28125 0.17471,-0.10549 0.32998,-0.23081 0.5,-0.34375 0.29079,-0.12582 0.6527,-0.26931 1.1875,-0.5 4.26623,-0.89269 8.37228,-1.95412 12.34375,-3.78125 4.24693,-2.09034 8.18555,-4.6451 11.28125,-8.125 0.52876,1.05003 1.71936,1.92358 2.59375,2.46875 1.47821,0.92165 4.20819,1.25302 6,0.25 4.2527,-2.38054 7.61582,-4.36946 10.9375,-8 2.06394,-1.96494 2.52433,-4.90213 2.90625,-7.59375 0.20242,-1.84517 -0.10886,-3.85209 -0.96875,-5.5 -1.16838,-0.95037 -3.60363,-1.19497 -4.1875,0.53125 -0.76858,1.74145 0.48962,3.29372 0.9375,4.90625 0.0399,2.18504 -0.16248,4.46922 -1.0625,6.5 -1.33366,2.65854 -3.81967,4.512 -6.15625,6.25 -0.10359,0.0967 -0.31138,0.27356 -0.5625,0.4375 -1.07875,0.23395 -2.88374,0.43403 -3.34375,0.125 -2.50726,-1.68427 -3.15153,-5.63512 -2.9375,-8.625 0.31613,-1.53013 0.47038,-3.09783 0.5625,-4.6875 0.007,-0.34593 0.12512,-4.70632 0,-5 -0.33326,-0.78232 -1.17969,-1.21147 -1.78125,-1.8125 -0.0279,-0.0279 -0.069,-0.03 -0.125,-0.0313 -0.39162,-0.009 -1.39132,0.559 -1.5,0.8125 -0.47102,1.09876 -1.12005,2.12054 -1.40625,3.28125 -0.39622,1.60676 0.3208,3.35988 -0.0937,4.96875 -0.31982,3.79042 -1.03093,7.50879 -3.375,10.625 -1.02633,1.30375 -2.07488,2.48195 -3.3125,3.59375 -0.47586,0.42748 -2.10555,1.31057 -1.46875,1.25 0.12974,-0.0123 0.25254,-0.0256 0.375,-0.0625 -3.75253,1.77582 -7.61916,2.97179 -11.75,3.5625 -3.78488,1.37938 -1.51037,0.42724 -7.6875,4.0625 -0.81779,0.48126 -2.93094,1.74338 -3.0625,1.90625 -2.45041,1.05645 -4.95975,1.74512 -7.625,2.1875 -2.42962,0.4568 -4.86306,1.58822 -7.34375,0.90625 -0.29087,-0.18431 -0.64051,-0.31033 -0.875,-0.5625 -1.91058,-2.05469 -0.52584,-5.6292 -0.125,-8.0625 0.41274,-0.98978 0.79942,-2.02466 1.21875,-3.09375 0.84035,-6.10033 3.79063,-11.84611 5.8125,-17.59375 0.39428,-0.82619 0.62784,-1.87338 1.3125,-2.53125 0.13712,-0.13176 0.63106,-0.46165 0.78125,-0.5625 0.0503,-0.0475 0.12803,-0.10514 0.1875,-0.15625 0.54137,-0.0718 1.08018,-0.004 1.625,0.1875 0.0665,0.0727 0.20356,0.12138 0.21875,0.21875 0.024,0.15359 -0.0657,0.28462 -0.0937,0.4375 -0.048,0.26137 -0.11152,0.55052 -0.15625,0.8125 -0.0952,0.55781 2.71184,-0.70045 3,-1.1875 0.67266,-1.13694 1.23737,-1.57033 0.3125,-2.6875 -0.7066,-0.31733 -1.4632,-0.44636 -2.21875,-0.375 -0.25185,0.0238 -0.49963,0.0497 -0.75,0.125 -2.1891,1.2458 -3.85564,2.1008 -5.625,3.6875 -0.96414,0.8655 -1.33945,2.13518 -1.71875,3.34375 -1.47666,6.39997 -4.71599,12.14801 -6.9375,18.3125 -1.49244,3.36739 -3.56875,6.45449 -6.28125,8.96875 -0.16376,0.12404 -0.25946,0.20212 -0.40625,0.3125 -2.11705,0.86242 -4.3415,1.45848 -6.4375,2.375 -4.55983,1.47627 -9.45579,2.93172 -14.09375,0.9375 -2.55847,-1.46682 -5.40619,-2.71063 -6.5625,-5.625 -2.00951,-8.0759 -1.16539,-18.13602 -0.75,-27.71875 0.13963,-3.22124 0.0693,-5.92727 1.65625,-8.8125 -0.49407,-0.0117 0.0278,-0.48824 0.71875,-1.03125 0.36727,-0.18929 0.72623,-0.39348 0.96875,-0.46875 1.75133,-0.54352 2.70513,-0.57656 4.53125,-0.8125 3.35288,-0.47331 6.75919,0.23275 10.09375,-0.21875 0.77641,-0.10514 3.93297,-1.98356 3.53125,-2.65625 -0.17181,-0.2877 -0.19131,-0.74456 -0.5,-0.875 -0.25113,-0.10611 -0.53464,-0.10986 -0.8125,-0.0937 z m 58.4375,31.4375 c 0.0801,0.046 -1.51324,0.80502 -2.0625,1.125 -0.0507,0.0248 -0.10551,0.0379 -0.15625,0.0625 0.70259,-0.33149 1.31247,-0.93511 2.0625,-1.15625 0.0871,-0.0257 0.1448,-0.0378 0.15625,-0.0313 z m -22.5,9.53125 c -0.39796,0.23295 -0.92441,0.52813 -1.1875,0.6875 -0.15533,0.0768 -0.31287,0.14505 -0.46875,0.21875 0.54428,-0.30537 1.10855,-0.60682 1.65625,-0.90625 z"
         style="fill:#000000;fill-opacity:1;fill-rule:nonzero;stroke:none"
         inkscape:connector-curvature="0" />
      <path
         sodipodi:nodetypes="ccccccccccsssscccccccsccccssccccccsscccssssssscsssssscccccccssccccscccssssssscscccsccccccsccccccssccscccccccccccccccscc"
         id="path2404"
         d="m 598.69765,109.89583 c -3.55304,0.25508 -7.60245,1.58856 -9.53125,4.78125 -1.47494,3.32741 -3.43997,6.45717 -4.71875,9.84375 -2.35696,2.62842 -5.27603,6.45187 -9.34375,5.625 -3.93465,-0.39532 -8.74121,1.49887 -11.9375,-1.59375 -2.57147,-2.16853 -4.91883,-4.52363 -8,-6 -3.00573,-1.90079 -6.51719,-1.63674 -9.84375,-1.34375 -5.39801,-0.008 -11.10676,-0.13535 -15.9375,2.6875 -6.95114,3.23665 -12.77712,8.2491 -15.59375,15.4375 -0.37501,1.07451 -0.46655,2.22313 -0.78125,3.3125 -0.0761,0.56872 -0.39907,2.01943 -0.1875,2.53125 0.0802,0.19403 0.27122,0.30798 0.40625,0.46875 0.28559,0.34005 2.09273,-0.66045 2.28125,-1.0625 0.13354,-0.28478 0.28299,-0.57423 0.375,-0.875 0.20195,-0.66008 -0.0442,-1.71126 0.21875,-2.40625 0.1244,-1.03248 0.0935,-2.09525 0.4375,-3.09375 3.57934,-9.93853 15.28319,-12.87821 24.6875,-13.5 3.96593,-0.0433 8.68509,-0.84642 11.6875,2.4375 2.97622,3.37029 5.65065,7.56035 5.21875,12.25 0.5744,3.21514 -1.34629,6.21462 -0.5625,9.4375 0.71801,1.55936 0.67709,3.84735 -0.15625,5.53125 -0.16011,0.0215 -0.26194,0.0371 -0.4375,0.0625 -2.29794,0.3328 -3.72673,0.72352 -5.15625,1.3125 -1.65158,-1.38225 -2.53494,-5.59779 -2.78125,-7.65625 -1.66344,-1.93966 -4.13971,3.22633 -2.6875,5.375 -0.0417,1.52787 0.49299,3.12713 1.46875,4.28125 -0.62537,0.33539 -1.17831,0.61599 -1.96875,1.03125 -1.21353,0.63753 -2.41467,1.35014 -3.5,2.1875 -1.21095,0.93429 -2.25066,2.0881 -3.375,3.125 -1.0303,1.26693 -2.14202,2.45429 -3.09375,3.78125 -10.01597,14.59595 -6.41574,18.67561 -20.10783,20.62408 -0.23663,0.55362 5.91784,6.07333 9.07658,3.71967 9.94101,-5.48137 9.07281,-16.94343 15.03125,-25.78125 0.99791,-1.32133 2.13783,-2.49567 3.21875,-3.75 1.86951,-1.62555 3.25961,-3.41338 5.375,-4.3125 2.34987,-0.99878 5.37403,-0.95716 7.9375,-1 0.90271,-0.0151 1.75318,0.0868 3.28125,0.1875 8.39818,1.09664 16.25323,6.35594 13.5625,16.03125 -0.46005,1.12615 -1.14912,2.17508 -1.71875,3.25 -2.73509,3.94214 -6.1725,7.20775 -10.4375,9.46875 -0.23894,0.12667 0.6425,-0.7584 0.375,-0.71875 -1.27821,0.18947 -2.45062,0.84477 -3.6875,1.21875 -0.95402,0.28845 -1.94378,0.52238 -2.90625,0.78125 -0.91305,0.24562 0.94015,2.67286 1.875,2.53125 6.20622,-0.94006 3.89618,-2.00578 9.75,-5.375 2.90107,-1.66974 5.55704,-3.87751 7.78125,-6.375 1.00026,-1.12315 1.81869,-2.42008 2.71875,-3.625 0.5763,-1.15512 1.26708,-2.25942 1.71875,-3.46875 0.0937,-0.25076 0.1757,-0.499 0.25,-0.75 0.003,-0.009 -0.003,-0.0218 0,-0.0313 0.007,-0.0131 0.0285,-0.0192 0.0313,-0.0313 0.0439,-0.19157 0.11092,-0.40047 0.15625,-0.59375 0.0118,-0.0501 0.0194,-0.10601 0.0313,-0.15625 0.004,-0.0203 -0.005,-0.0423 0,-0.0625 2.23572,-6.03848 0.15402,-12.12312 5.46875,-15.6875 3.23183,-1.7096 7.60644,-3.85367 17.71875,-2.15625 4.50642,0.6922 7.22395,2.23393 9.15625,6.125 1.59022,2.89803 0.88296,4.30988 -0.59375,6.96875 -1.28888,2.01383 -2.94746,3.57055 -4.875,4.9375 -1.62204,1.11796 -2.68638,2.06984 -3.15625,4 -0.0216,0.59542 -0.20773,1.20528 -0.84375,1.34375 -1.04716,0.22796 5.17935,-0.8946 5.78125,-1.78125 0.39228,-0.57785 0.61137,-1.21228 0.71875,-1.90625 0.59926,-1.48866 1.93763,-2.47711 3.21875,-3.375 1.89055,-1.44987 3.50086,-3.23644 4.6875,-5.3125 0.90549,-1.8011 1.38193,-3.25048 1.1875,-4.78125 0.14744,0.007 0.29037,0.0278 0.4375,0.0313 0.52392,-0.024 1.03914,0.0176 1.5625,0.0313 0.15653,0.0486 0.34273,0.005 0.53125,0 0.06,0.38065 0.41369,0.62603 0.875,0.6875 1.00364,-0.13284 0.17944,0.0133 2.0625,-1.46875 0.0271,-0.0213 0.13022,-0.10238 0.15625,-0.125 0.45896,-0.39899 0.91603,-0.7885 1.375,-1.1875 0.007,9.8e-4 -0.006,-0.009 0,-0.0313 0.0788,-0.0685 0.17124,-0.11904 0.25,-0.1875 -0.0175,-0.0106 -0.0449,-0.0206 -0.0625,-0.0313 -0.11014,-10e-4 -0.1554,0.0473 -0.1875,0.0937 0.002,-0.0549 0.0134,-0.0786 0,-0.1875 -0.3683,-0.77526 -0.11049,-0.648 -0.625,-0.6875 -0.21167,5e-5 -0.38897,-0.0468 -0.59375,0 -0.53954,0.0121 -1.08514,0.056 -1.625,0.0313 -0.75143,0.0196 -1.5264,0.11526 -2.28125,0.0625 -0.81614,0.0462 -1.62635,0.0762 -2.4375,-0.0313 -0.23957,-0.0399 -0.47693,-0.11417 -0.71875,-0.1875 -0.80509,-1.35976 -1.60585,-2.75039 -2.96875,-3.125 -0.19951,-0.73947 -0.34466,-1.48592 -0.4375,-2.25 0.084,0.007 0.16594,0.0248 0.25,0.0313 1.65917,-0.005 3.31477,0.0849 4.96875,-0.0625 1.97803,-0.5026 4.02615,-0.51846 6.03125,-0.8125 2.5002,-0.42029 8.50074,-3.80172 6.3125,-5.34375 -0.64715,-0.45603 -3.46549,1.2 -4.09375,1.875 -1.29382,0.0767 -2.62205,0.0694 -3.875,0.4375 -1.57831,0.42334 -3.25313,0.23276 -4.875,0.25 -2.39797,-0.0302 -4.7681,-0.38415 -7.125,-0.8125 -2.01083,-0.0367 -4.01891,0.015 -6,0.40625 -2.27602,0.56264 -4.57068,1.02413 -6.875,1.46875 -4.17254,0.14112 -8.00084,-1.95185 -10.40625,-5.34375 -0.53982,-0.76121 -5.15001,1.90695 -4.59375,2.65625 2.01051,2.70822 4.67209,4.64086 7.78125,5.5625 -0.32486,0.1127 -0.64521,0.22046 -0.96875,0.34375 -2.80514,1.01846 -9.00444,3.17725 -10.34375,5.875 -0.13521,0.27236 -0.20228,0.54118 -0.25,0.8125 -4.39636,2.0612 -7.3097,-0.97973 -11.53125,-1.9375 -2.10787,-1.74862 -3.89048,-3.91159 -4.3125,-6.71875 -1.228,-3.72161 0.35481,-7.54615 2.09375,-10.78125 3.82411,-4.02794 10.09579,-2.33314 14.5625,-5.1875 3.17451,-1.5029 6.05272,-3.88168 8.59375,-5.84375 3.71038,-0.50769 7.50078,-1.72755 11.25,-0.96875 2.56587,1.22851 2.36976,7.6308 6.3125,4.125 3.60463,-2.3222 1.13793,-8.92736 -3.125,-8.65625 -3.69638,-0.0214 -7.32946,0.92491 -10.96875,1.5 -1.88875,0.45551 -2.82438,1.26254 -1.46875,-1.03125 1.12265,-2.54098 2.35455,-6.99634 5,-7.5 2.64333,0.0737 7.76635,-0.23149 7.3125,-3.875 -1.31056,0.0456 -2.62609,-0.0292 -3.9375,-0.0313 z m 31,34.4375 c -0.0848,0.0808 -0.36061,0.31306 -0.5,0.375 -0.1048,0.0466 -0.23065,0.10311 -0.34375,0.125 0.28295,-0.16135 0.55626,-0.34719 0.84375,-0.5 z"
         style="fill:#000000;fill-opacity:1;fill-rule:nonzero;stroke:none"
         inkscape:connector-curvature="0" />
      <path
         sodipodi:nodetypes="cccsscccscsscc"
         id="path2418"
         d="m 657.69765,144.92708 c -2.30278,0.0315 -4.73451,-2.19232 -3.56893,-0.21655 0.33456,2.43793 1.94777,7.72272 0.21309,9.70705 -2.19049,2.44583 -5.42874,5.82755 -8.16708,7.60111 -4.57885,2.96562 -9.55027,7.33412 -14.0477,10.43173 -5.76062,3.96763 -9.90488,5.56094 -15.83869,2.45075 -1.71372,-1.77238 -1.92013,-4.78509 -1.80318,-7.12246 -0.23729,-1.58416 0.23586,-3.13649 -0.61292,-4.08493 -2.75883,0.23612 -2.84936,3.04885 -3.19794,5.19472 -0.51257,3.13199 -0.89093,6.72763 0.97268,9.49877 6.55302,5.28545 16.68428,-0.47119 22.2742,-4.89929 6.6318,-5.25343 12.97261,-10.35994 19.96719,-15.25369 2.5715,-1.79915 5.00595,-4.67235 4.83393,-8.08156 -0.2764,-1.45387 0.96502,-4.82396 -1.02465,-5.22565 z"
         style="fill:#000000;fill-opacity:1;fill-rule:nonzero;stroke:none"
         inkscape:connector-curvature="0" />
      <path
         d="m 628.01384,166.70091 c 0.56671,-0.32294 1.16631,-0.594 1.70014,-0.96879 0.3536,-0.24826 -1.43628,0.91526 -1.1558,0.58662 0.53338,-0.62496 1.32455,-0.97536 1.94614,-1.51265 1.90768,-1.64897 3.48756,-3.60119 5.12258,-5.50768 1.93605,-2.14665 3.04013,-4.69249 3.95871,-7.38221 0.74589,-2.28083 0.7009,-4.7073 0.64144,-7.07793 -0.007,-2.65517 -0.38072,-5.25212 -0.83319,-7.86124 -0.50608,-2.92989 -2.0671,-5.30905 -3.94786,-7.52896 -2.1042,-2.28772 -5.01626,-2.98478 -7.99807,-3.20351 -2.80707,-0.0145 -5.60991,0.17707 -8.41351,0.29917 -0.44494,0.1708 -1.74034,0.76283 -1.33483,0.51242 6.64255,-4.10169 3.25921,-1.74796 2.03483,-0.62458 -1.30651,1.19872 -2.29665,2.52061 -3.29402,3.97131 -0.78403,1.37847 -1.55899,2.76861 -2.12861,4.25105 -0.36939,0.8656 -0.15284,0.43663 -0.65761,1.28287 -0.49082,0.82284 -4.86299,3.0409 -4.99958,2.09259 l 0,0 c -0.10152,-0.70483 -0.10243,-0.32743 0.0568,-1.13074 0.59889,-1.56354 1.33549,-3.05321 2.18625,-4.52009 3.07521,-4.35301 6.8717,-8.5325 12.50614,-9.47517 2.73013,0.004 5.46486,-0.20251 8.19145,0.0152 3.1896,0.37211 6.02917,1.33944 8.15286,3.89577 1.87523,2.38281 3.30085,5.05598 3.81876,8.07781 0.3312,2.69138 0.91131,5.33518 0.64019,8.06517 -0.01,2.48915 0.0445,5.00713 -0.77235,7.39692 -1.00493,2.7539 -1.98162,5.47041 -4.03206,7.67053 -4.42611,5.02622 -7.63279,8.2545 -14.00725,11.19667 -0.58336,0.26925 2.06028,-2.20245 2.6185,-2.52055 z"
         id="path2420"
         style="fill:#000000;fill-opacity:1;fill-rule:nonzero;stroke:none"
         inkscape:connector-curvature="0" />
      <path
         sodipodi:nodetypes="cscscccssc"
         d="m 615.50955,127.47483 c -1.95552,-3.73095 -3.38481,-4.08068 -7.80096,-4.24445 -0.87806,-0.0326 -1.75286,0.12517 -2.62927,0.18776 -0.66913,0.18447 -1.33826,0.36894 -2.00738,0.55341 -0.88107,0.24291 2.95664,-3.21778 3.83626,-3.46585 l 0,0 c 0.84084,-0.23714 1.68166,-0.47426 2.52249,-0.71139 0.87045,0.0268 1.74984,-0.0468 2.61138,0.0805 4.91897,0.72633 5.39011,1.28487 7.16217,5.5462 0.28693,0.68998 -3.34779,2.71572 -3.69469,2.05386 z"
         id="path2422"
         style="fill:#000000;fill-opacity:1;fill-rule:nonzero;stroke:none"
         inkscape:connector-curvature="0" />
      <path
         d="m 640.89113,139.49696 c 1.25529,-3.05436 2.29832,-6.19586 4.56072,-8.66909 2.45662,-1.88698 5.41626,-3.82362 8.59596,-4.11918 1.99428,-0.0789 3.89543,-0.22773 5.78675,0.48119 2.44988,0.60455 4.15158,2.00183 4.6397,4.53455 -0.63134,0.66942 -1.26268,1.33883 -1.89401,2.00825 -0.0579,0.0614 -0.34033,0.2082 -0.42394,0.21988 l 0,0 c -0.76979,0.10755 -1.53958,0.2151 -2.30937,0.32264 -1.36074,-1.81716 -1.9441,-3.23944 -4.36789,-3.86471 -1.64183,-0.54202 -3.39971,-0.6163 -5.1197,-0.53214 -0.68899,0.10061 -1.34175,0.25625 -1.99915,0.49175 -0.27223,0.0975 -1.04333,0.48486 -0.80713,0.31803 0.62702,-0.44288 4.50898,-2.81784 1.981,-1.17443 -2.6098,2.23409 -3.7697,5.55537 -5.16556,8.59969 -0.27574,0.60138 -3.72887,1.9955 -3.47738,1.38357 z"
         id="path2424"
         style="fill:#000000;fill-opacity:1;fill-rule:nonzero;stroke:none"
         inkscape:connector-curvature="0" />
      <path
         sodipodi:nodetypes="cccsscccccccsccssccscsccccscssccccccccccccccssc"
         id="path2426"
         d="m 646.9789,97.677082 c -0.97687,-0.0099 -1.96903,0.05948 -2.9375,0.09375 -3.89476,0.45965 -7.19363,2.433558 -10.34375,4.781248 -3.35133,2.81782 -3.81158,5.76112 -4.5625,9.9375 -0.14822,0.8244 4.18999,-1.05163 4.34375,-1.875 0.67845,-3.63345 1.43958,-6.41921 4.0625,-8.6875 0.79647,-0.27855 1.6067,-0.47339 2.4375,-0.625 1.86525,-0.19499 3.76399,-0.20054 5.625,0.0313 1.72007,0.23254 3.12311,0.99409 4.34375,2.1875 0.90086,0.9612 1.87615,1.98263 2.5,3.15625 0.17497,0.5693 0.41674,1.10904 0.65625,1.71875 0.49669,0.72285 -0.0965,1.15373 0,1.625 -1.09028,0.93295 -2.03388,2.03401 -2.65625,3.3125 -0.33733,0.69297 -1.15238,3.26201 -1.375,3.9375 -1.19156,3.13065 -1.3088,6.39129 -1.25,9.6875 0.49283,1.80272 -0.29058,2.14756 1.71875,2.21875 0.73429,0.026 3.16258,-1.4915 3.625,-2.0625 1.11494,-1.37671 0.52383,-1.16391 0.375,-2.875 -0.10348,-3.12109 0.0741,-6.23462 1.09375,-9.21875 0.43249,-1.19015 0.87464,-2.64176 1.53125,-3.75 0.1828,-0.30854 0.40044,-0.5942 0.625,-0.875 1.80405,-0.13392 3.62844,0.0918 5.40625,0.46875 2.46253,0.52139 5.09753,0.75986 6.53125,3.09375 1.45027,2.96138 2.52415,5.96753 2.25,9.34375 -0.0277,4.22916 -0.19056,8.48388 -1.78125,12.46875 -0.93303,2.62982 -1.97029,5.21852 -3.65625,7.46875 -0.80339,1.06485 -1.66866,2.03604 -2.625,2.96875 -0.0528,0.0515 -0.16574,0.15032 -0.25,0.21875 -2.98687,0.28255 -4.91622,-1.50768 -7.09375,-3.8125 -0.54985,-0.58197 -3.13607,0.10242 -2.625,0.71875 2.41337,2.91046 3.27423,6.53409 7.21875,6.125 4.19616,-1.482 7.67625,-4.31456 10.1875,-7.90625 1.6663,-2.30256 2.65535,-4.99028 3.5,-7.6875 1.50489,-4.06234 1.61373,-8.43638 1.6875,-12.71875 0.25857,-3.46808 -0.78219,-6.67592 -2.25,-9.75 -1.30953,-2.70066 -4.04296,-3.18276 -6.6875,-3.90625 -2.2675,-0.56861 -4.62893,-0.96986 -6.96875,-0.78125 -0.30823,0.0787 -0.62694,0.18398 -0.9375,0.28125 -0.27947,-0.24923 -0.71541,-0.4293 -0.8125,-1.1875 -0.20637,-0.64662 -0.34252,-1.32378 -0.6875,-1.90625 -0.8273,-1.14199 -1.67844,-2.26088 -2.65625,-3.28125 -1.31763,-1.298868 -2.79219,-2.289978 -4.65625,-2.624998 -0.95079,-0.20685 -1.92938,-0.30261 -2.90625,-0.3125 z m 17.40625,48.218748 c -0.18028,0.10463 -0.14827,0.10788 -0.5,0.3125 -0.0428,0.011 -0.0826,0.021 -0.125,0.0313 0.21803,-0.118 0.44479,-0.24415 0.625,-0.34375 z"
         style="fill:#000000;fill-opacity:1;fill-rule:nonzero;stroke:none"
         inkscape:connector-curvature="0" />
      <path
         d="m 510.26336,162.84055 c -1.19553,-3.29696 -2.51336,-6.67098 -1.41264,-10.14706 1.85548,-3.59204 4.36588,-6.81077 6.62999,-10.15367 1.68258,-1.5456 2.17604,-4.74828 3.97416,-6.15495 0.31175,-0.24388 0.67526,-0.41316 1.01288,-0.61974 0.46555,-0.28485 2.35142,-1.10301 2.89619,-1.06962 l 0,0 c 0.20686,0.0127 0.47614,-0.11058 0.6206,0.038 0.30593,0.31474 -0.38915,0.78733 -0.60397,1.17009 -0.89666,1.59773 -1.57048,3.33059 -2.73251,4.77696 -2.21949,3.34951 -4.68477,6.53571 -6.7316,9.99582 -1.58997,3.19558 -0.37661,6.71921 0.6255,9.93678 0.25357,0.81414 -3.98792,3.02899 -4.2786,2.22736 z"
         id="path2430"
         style="fill:#000000;fill-opacity:1;fill-rule:nonzero;stroke:none"
         inkscape:connector-curvature="0" />
      <path
         sodipodi:nodetypes="ccccscccccsc"
         d="m 539.21491,163.83521 c 2.85694,-3.10022 4.35125,-6.73108 5.32664,-10.85273 0.4672,-2.41072 0.14802,-4.54144 -1.38241,-6.46804 -1.90844,-2.24379 -4.28115,-3.10191 -7.12444,-3.41136 -2.53593,-0.12106 -4.93264,0.18144 -7.42459,-0.36845 -0.82552,-0.18216 2.84009,-2.91546 3.6725,-3.06296 l 0,0 c 2.83593,-0.50251 5.65166,-0.72421 8.52685,-0.33206 2.95594,0.55313 5.33122,1.90719 7.15338,4.35501 1.26595,2.44064 1.51974,4.90933 0.6808,7.56946 -1.49541,4.78752 -2.88623,7.11591 -6.24834,10.80047 -0.40034,0.43873 -3.58289,2.20741 -3.18039,1.77066 z"
         id="path2432"
         style="fill:#000000;fill-opacity:1;fill-rule:nonzero;stroke:none"
         inkscape:connector-curvature="0" />
      <path
         sodipodi:nodetypes="cccccccccccccccscccccccccccccccccccsccccccsccccccc"
         id="path2438"
         d="m 570.9164,80.333332 c -4.5806,0.15561 -9.06655,1.51141 -12.96875,3.9375 -5.63443,3.0897 -11.80084,6.5964 -14.9375,12.40625 -0.73573,-2.88213 -3.63584,-4.74257 -6.59375,-4.5 -2.87788,0.28179 -5.68602,1.57965 -7.625,3.75 -0.51471,0.43887 -2.19756,2.20609 -0.4375,1.0625 2.77171,-1.52722 6.37598,-2.05334 9.21875,-0.4375 1.77639,1.21891 2.87866,3.821308 1.28125,5.593748 -0.6849,2.11329 -1.52328,4.08634 -3.28125,5.5625 -2.01473,2.20245 -4.32783,4.19524 -6.40625,6.28125 -1.02529,0.77276 -2.39415,2.52385 -2.6875,4.1875 -0.64815,2.29971 -0.82641,4.73011 -0.96875,7.09375 1.89608,-0.10575 4.60718,-1.3341 4.15625,-3.6875 0.29895,-3.52833 1.59188,-7.23228 4.6875,-9.25 2.35955,-1.98431 5.26642,-3.16711 8.0625,-4.34375 3.80981,-1.28508 6.11621,-0.12519 10.15625,0.90625 1.07846,0.27534 5.50684,2.20815 10.29013,4.56954 -3.7185,-4.41022 -12.80873,-9.03338 -16.19638,-9.63204 -1.44617,-0.49072 -3.66951,0.95003 -4.34375,0.84375 0.56996,-2.48952 1.39781,-5.052218 3.28125,-6.874998 9.01306,-4.69985 22.32042,4.712848 30.8125,-0.65625 2.45626,-1.14269 -0.0107,-3.81398 -1.96875,-2.96875 -15.93688,-3.51393 -32.11993,3.86732 -18.9375,-5.625 4.55416,-2.92052 7.41783,-4.32501 12.90625,-3.875 3.41554,-0.44979 6.56959,0.61512 9.65625,1.90625 3.20412,1.21487 5.59755,4.17914 6.46875,7.4375 -0.98194,2.9621 -2.27662,6.685088 -4.96875,8.437498 -3.68266,1.384 -5.01812,5.45081 -10.59375,6.375 9.22254,3.66853 8.44112,2.36038 13.53125,-5.21875 2.08621,-2.81142 4.37444,-5.827868 7.875,-6.937498 2.82376,-0.97466 5.85395,-1.03675 8.71875,-1.8125 5.26869,-0.55131 10.82353,0.99037 15.0625,4.15625 2.81646,2.079088 4.61891,5.860538 3.1875,9.281248 -0.99545,4.40008 -3.05546,5.86687 -5.8125,9.375 -1.01715,1.07745 -4.53043,3.43312 -1.09375,1.46875 0.23707,-0.11701 0.38125,-0.17209 0.4375,-0.1875 -0.21706,0.21322 -3.1532,1.86758 -3.3125,1.375 -3.59077,1.52669 -8.05864,-0.49667 -11.21875,1.78125 -2.49723,2.01805 3.11441,0.68546 4.21875,1 4.57791,0.10966 8.95427,-1.66158 12.40625,-4.625 3.59549,-2.63659 5.27054,-4.27059 7.28125,-8.125 1.19746,-3.37998 2.85725,-7.33181 0.75,-10.718748 -3.03106,-5.42814 -9.52119,-7.67613 -15.375,-8.375 -3.33136,-0.39792 -6.44864,1.04716 -9.65625,1.6875 -2.41942,-0.84761 -5.75941,-2.56974 -5.125,-5.65625 -0.69855,-2.96305 4.29412,-4.93586 4.03125,-6.59375 -3.30465,0.21582 -6.10967,3.60207 -8,4.78125 -2.18287,-2.62596 -5.63507,-3.6473 -8.6875,-4.84375 -1.74394,-0.42845 -3.53525,-0.2944 -5.3125,-0.3125 -0.65643,-0.02778 -1.31438,-0.02223 -1.96875,0 z"
         style="fill:#000000;fill-opacity:1;fill-rule:nonzero;stroke:none"
         inkscape:connector-curvature="0" />
      <path
         sodipodi:nodetypes="csccccscccscccscccsccsc"
         d="m 618.97486,111.47349 c -0.91516,2.68279 -6.26638,6.91858 -0.5014,10.28538 1.20642,0.70456 2.00117,1.08449 3.01306,1.04781 1.78113,-0.0784 3.56206,-0.14557 5.34424,-0.19295 1.8539,0.0977 3.6205,-0.0118 5.43049,-0.38035 1.88872,-0.25958 3.66285,-0.87024 5.57093,-1.00212 0.0885,0.34046 3.31142,-1.10188 2.88631,-0.85501 -6.6494,3.86146 -3.76349,2.33644 -2.38116,0.75173 1.0618,-1.36327 1.11706,-3.00659 1.01127,-4.65698 -0.1252,-0.97409 0.0198,-1.95116 -0.64809,-2.71655 -0.77392,-0.83325 -0.48407,-0.32489 -0.76687,-1.57924 -0.1887,-0.83705 3.38121,-2.90705 4.14769,-2.52133 l 0,0 c 1.1834,0.59553 0.67515,0.2202 1.5498,1.09125 0.86015,1.1366 0.69429,1.94905 0.73189,3.32104 0.0531,1.82929 0.16081,3.63878 -0.83442,5.27268 -2.4128,3.28155 -5.9964,4.95414 -9.91329,5.52536 -1.85731,0.33431 -3.6737,0.86292 -5.5566,1.05939 -1.82332,0.308 -3.65818,0.22949 -5.50201,0.24456 -1.77197,0.009 -3.54242,0.114 -5.31416,0.1144 -1.48579,-0.14119 -2.79891,-0.70731 -2.57288,-2.45511 0.38272,-3.09076 -5.62985,-1.24517 -4.41597,-4.08988 0.28678,-0.67207 8.95709,-8.95565 8.72117,-8.26408 z"
         id="path2458"
         style="fill:#000000;fill-opacity:1;fill-rule:nonzero;stroke:none"
         inkscape:connector-curvature="0" />
      <path
         sodipodi:nodetypes="cccccccccccccccccccccc"
         id="path2462"
         d="m 509.1223,203.66176 c -3.32408,1.9722 -5.47452,5.69995 -9.35425,6.75809 -2.82001,0.89499 -6.09267,0.43099 -8.32553,-1.59794 -1.73936,-1.39393 -3.13814,-3.21158 -3.80474,-5.35983 -0.68983,-2.11948 -1.38105,-4.27256 -1.35854,-6.53159 -0.1096,-2.66855 0.29522,-5.3692 1.18834,-7.88306 0.6258,-2.41611 3.54327,-8.39101 3.19323,-10.94072 -0.0989,-1.80792 -0.99038,-2.34586 -0.40473,-3.98388 0.60009,-1.58946 2.7139,1.03428 4.0879,0.6112 0.76826,-0.20981 2.38605,-0.3724 2.71936,-0.59375 -1.46356,0.32496 -1.2061,2.28108 -2.06938,3.26024 -0.78236,1.32795 -0.14087,2.885 -0.40356,4.3222 -0.28933,2.07173 -0.96706,4.08084 -1.64091,6.05594 -0.69804,1.90924 -0.91885,3.99478 -0.92108,6.02479 0.0205,1.81077 0.18047,3.63637 0.75144,5.35718 0.23152,2.34315 1.46587,4.47736 3.2485,5.98811 1.06905,1.50626 3.25448,1.68341 4.82576,0.89767 1.94277,-0.78201 3.67589,-1.97876 5.49024,-3.00557 -0.79342,0.65473 -2.28113,1.24646 -2.74358,1.81788 1.8828,-0.29667 3.693,-0.98505 5.57608,-1.25376 l -0.0546,0.0568 0,-3e-5 z"
         style="fill:#000000;fill-opacity:1;fill-rule:nonzero;stroke:none"
         inkscape:connector-curvature="0" />
      <path
         sodipodi:nodetypes="cccscccccsscscccccccsscc"
         id="path2464"
         d="m 498.1664,154.08333 c -0.71833,0.0145 -1.45653,0.15853 -2.21875,0.40625 -4.01645,1.58381 -7.91537,3.61661 -11.28125,6.34375 -2.01207,1.63959 -3.95074,3.33485 -4.9375,5.8125 -0.78588,1.96818 -1.31235,3.87952 -1.0625,6.03125 -0.008,2.11955 0.0269,4.27268 0.53125,6.34375 0.30267,1.36973 0.4119,2.72533 0.46875,4.125 0.12421,2.13808 -0.4434,4.22678 -0.96875,6.28125 -0.70259,2.86253 -1.30648,5.7669 -0.21875,8.625 0.23354,0.39174 0.40826,0.85345 0.71875,1.1875 1.82347,1.96185 6.44865,3.70892 8.46875,3.125 0.77845,-0.225 0.86057,-7.25138 0.0715,-7.06694 -1.06167,4.05654 -6.33106,5.87592 -6.50092,0.84191 -0.0942,-2.79293 1.62587,-6.1203 2.36688,-8.77497 0.73964,-2.16712 1.11967,-4.38245 1.28125,-6.65625 0.12728,-1.50893 -0.11047,-2.95149 -0.46875,-4.40625 -0.43382,-2.01556 -0.46467,-4.04279 -0.46875,-6.09375 -0.16414,-2.10297 0.56158,-3.8982 1.375,-5.78125 1.04547,-2.27676 2.97893,-3.73563 4.90625,-5.21875 1.58887,-0.8166 3.15219,-1.78853 4.90625,-1.65625 0.30579,-0.0213 0.6317,-0.0412 0.9375,-0.0625 0.93796,-0.0653 4.62351,-1.36647 4.40625,-2.28125 -0.0555,-0.2337 -0.10075,-0.45379 -0.15625,-0.6875 -0.73469,-0.32117 -1.43792,-0.45203 -2.15625,-0.4375 z"
         style="fill:#000000;fill-opacity:1;fill-rule:nonzero;stroke:none"
         inkscape:connector-curvature="0" />
      <path
         sodipodi:nodetypes="cssccscccssscssc"
         d="m 480.96395,165.61369 c -2.53923,-1.19819 -4.10157,-4.07429 -5.27653,-6.93284 -0.41679,-1.01403 -1.08029,-3.72595 -1.16153,-4.15494 -0.45708,-2.41389 0.62493,-3.79971 1.88148,-5.92925 3.10829,-3.75209 8.03527,-5.40078 12.18825,-7.81399 -9.44962,5.60056 1.67382,-1.91549 2.95952,-2.77469 0.5748,-0.38413 4.1658,-1.69619 3.73655,-1.15427 l 0,0 c -2.97281,3.75297 -7.17697,5.99031 -11.26953,8.4047 -0.56011,0.31833 -1.11809,0.64044 -1.68034,0.95497 -4.0099,2.24326 0.82065,-0.5365 2.5433,-1.54568 0.60194,-0.35263 -1.20531,0.71534 -1.73844,1.16527 -0.21456,0.18108 -0.41592,0.37723 -0.62389,0.56585 -2.84251,2.60306 -4.70942,6.37176 -1.8506,9.87157 1.51849,1.85895 4.87336,3.41394 7.2473,2.6281 0.91876,-0.30414 -6.08029,7.1282 -6.95554,6.7152 z"
         id="path2466"
         style="fill:#000000;fill-opacity:1;fill-rule:nonzero;stroke:none"
         inkscape:connector-curvature="0" />
      <path
         d="m 512.67115,146.36939 c -3.24489,-2.6221 -6.88503,-4.2255 -11.07799,-3.97873 -3.37105,0.96468 -6.46397,2.72759 -9.55614,4.35109 0.0317,-0.26202 0.0634,-0.52405 0.0951,-0.78607 0.0222,-0.18391 0.60558,-0.61674 0.75347,-0.7283 l 0,0 c 1.06656,-0.80454 2.13312,-1.60907 3.19968,-2.4136 3.08209,-1.70325 6.28219,-3.54874 9.82392,-3.99381 4.12381,0.23794 7.6912,2.1599 10.73578,4.91398 0.6251,0.56547 -3.3182,3.16523 -3.97382,2.63544 z"
         id="path2468"
         style="fill:#000000;fill-opacity:1;fill-rule:nonzero;stroke:none"
         inkscape:connector-curvature="0" />
      <path
         sodipodi:nodetypes="cccsscccsccccsscccsc"
         d="m 519.77819,131.00842 c -2.32776,-2.56169 -3.55946,-3.53466 -6.83165,-4.8121 -1.85956,-0.50064 -3.84581,-0.50102 -5.70273,-0.0106 -1.15516,0.19887 -2.25219,0.65315 -3.29739,1.17349 -0.44639,0.22224 -1.74576,0.96463 -1.3123,0.71813 4.26821,-2.42732 4.51013,-2.61694 2.43932,-1.27342 -3.33377,2.29858 -6.61468,4.98911 -10.44938,3.07162 -1.1661,-1.22015 -1.76619,-2.92155 -2.02193,-4.57197 -0.31223,-4.78479 7.62889,-6.98329 10.54554,-8.30798 0.24575,-0.11161 -0.98535,0.81356 -1.10164,1.05712 l 0,0 c -0.78948,1.65358 -4.35354,2.0971 -4.0535,4.57669 0.13374,1.31761 0.45985,2.87667 1.41699,3.81654 0.87705,0.36271 1.60849,0.43105 2.55508,0.24989 0.26835,-0.0514 1.01663,-0.37168 0.78972,-0.2195 -1.44826,0.97122 -6.13349,3.57372 -3.18742,1.93029 3.61486,-2.51935 7.53312,-5.12558 11.93652,-5.95477 1.93645,-0.19101 3.88491,-0.1083 5.68906,0.70085 2.87389,1.5394 4.2743,3.09418 6.41227,5.48209 0.53098,0.59305 -3.29124,2.96272 -3.82656,2.37359 z"
         id="path2470"
         style="fill:#000000;fill-opacity:1;fill-rule:nonzero;stroke:none"
         inkscape:connector-curvature="0" />
      <path
         sodipodi:nodetypes="ccsccscccsssssccsscccccc"
         id="path2472"
         d="m 515.3539,107.61458 c -1.21045,0.0161 -2.41384,0.16074 -3.59375,0.375 -3.98245,1.14451 -9.12157,3.26352 -12.73199,5.23137 -4.86335,2.65076 -7.64205,6.70777 -9.71875,11.4375 -0.26376,0.62404 4.67116,-1.08301 4.95074,-1.70012 0.71389,-4.27428 2.62202,-6.69077 5.96875,-8.90625 2.44139,-1.61616 5.35445,-2.42205 8.21875,-3.125 2.10375,-0.37663 4.28974,-0.25395 6.375,0.1875 1.47744,0.56221 2.58821,1.57557 2.8125,3.15625 0.12251,1.47768 -0.42566,1.68978 -1.4375,2.59375 -0.0164,0.015 -0.0461,0.0163 -0.0625,0.0313 -0.0578,0.0558 -0.016,0.0176 -0.0625,0.0625 -0.16133,0.13507 -0.32455,0.28945 -0.5,0.40625 -0.0663,0.0441 -0.21617,0.0507 -0.1875,0.125 1.07408,2.78246 3.72871,0.55196 5.5,-1.5625 2.02008,-0.0809 3.87295,1.08846 5.625,2.03125 2.68229,1.71916 1.50945,3.71672 0.59375,6.25 -0.33723,0.93297 4.80597,-1.14676 5.1875,-2.0625 1.29303,-3.10355 2.13735,-5.44306 -1,-7.59375 -2.15866,-1.07178 -4.50055,-2.41578 -6.96875,-2.28125 -0.56659,0.0794 -1.11058,0.22461 -1.65625,0.40625 -0.0134,-0.28298 -0.0431,-0.5776 -0.125,-0.90625 -0.50015,-1.83401 -1.83972,-3.15579 -3.59375,-3.875 -1.18323,-0.20472 -2.3833,-0.29731 -3.59375,-0.28125 z"
         style="fill:#000000;fill-opacity:1;fill-rule:nonzero;stroke:none"
         inkscape:connector-curvature="0" />
      <path
         sodipodi:nodetypes="ccccssssssccscscsccccsccssscccc"
         id="path2476"
         d="m 543.26015,76.864582 c -1.92425,0.149 -3.65673,1.22477 -6.09375,2.8125 -1.80132,1.20782 -3.17028,2.84204 -4.71875,4.34375 -2.07684,2.11498 -3.8549,4.47563 -5.75,6.75 -0.29178,0.29059 -0.396,0.36729 -0.5625,0.53125 -0.0631,0.01646 -0.13742,0.05469 -0.1875,0.0625 -0.3517,0.05487 -0.70826,0.05883 -1.0625,0.09375 -0.20394,0.0314 -0.39357,0.05907 -0.59375,0.09375 -0.11488,0.0068 -0.22903,0.02461 -0.34375,0.03125 -0.055,0.0032 -0.12502,0.01685 -0.21875,0.0625 -0.011,0.0054 -0.0198,0.02539 -0.0313,0.03125 -3.84039,0.74489 -7.04509,2.1479 -10.375,4.78125 -3.62366,3.18999 -5.13896,8.342198 -5.09375,13.218748 0.007,0.79862 3.73067,-0.37537 4.0625,-1.9375 1.04369,-13.944938 9.33852,-13.743338 15.0625,-15.187498 1.6656,-0.42023 3.27545,-1.09678 4.90625,-1.65625 0.47349,-0.17991 2.5689,-2.14426 2.09375,-1.96875 -1.39087,0.51375 -2.86839,0.81344 -4.1875,1.5 0.40562,-0.37897 0.7902,-0.77487 1.15625,-1.1875 1.82968,-2.35875 3.67443,-4.66366 5.8125,-6.75 0.81141,-0.73928 1.56111,-1.54383 2.34375,-2.28125 0.20706,-0.03747 0.42707,-0.06189 0.625,-0.0625 0.9587,-0.003 1.82925,0.23363 2.6875,0.625 2.81489,1.24611 3.83219,3.35919 4.65625,4.4375 -0.0718,0.21498 -0.11551,0.39767 -0.0625,0.5 1.28902,2.48796 0.63151,1.23046 1.96875,3.84375 0.29161,0.56986 3.26733,-1.0492 3.21875,-1.6875 -0.2465,-3.23942 -0.53075,-3.68745 -1.71875,-6.28125 -0.0125,-0.22206 -0.0357,-0.49856 -0.0313,-0.65625 -0.61214,-1.59451 -2.12644,-2.67758 -3.6875,-3.25 -1.49401,-0.64985 -2.72045,-0.9019 -3.875,-0.8125 z"
         style="fill:#000000;fill-opacity:1;fill-rule:nonzero;stroke:none"
         inkscape:connector-curvature="0" />
      <path
         id="path2486"
         d="m 635.26015,79.052082 c -1.35106,-0.0042 -2.67788,0.23042 -3.4375,1.09375 -0.71933,0.61005 -2.19347,2.34258 -0.65625,2.53125 0.47162,-0.08952 0.90922,-0.22151 1.3125,-0.34375 -0.16931,0.09746 -0.27871,0.16841 -0.46875,0.28125 0.78169,-0.55293 2.17905,-0.43629 3.125,-0.375 2.04864,0.16477 3.67394,1.68063 4.71875,3.34375 0.97164,1.60178 2.62422,2.64265 4.15625,3.71875 1.36204,0.6105 2.43375,3.0781 2.875,4.15625 1.61225,2.27623 1.65209,3.83548 1.875,6.562498 0.58295,0.27596 1.56129,-0.404128 2.125,-0.718748 1.42489,-0.81653 0.6464,-2.65633 0.625,-3.90625 -0.55192,-2.71993 -1.42277,-5.37581 -2.9375,-7.65625 -0.73991,-1.2385 -1.80415,-2.21193 -2.875,-3.15625 -1.06816,-0.92628 -2.22484,-1.80531 -3.0625,-2.96875 -1.45995,-1.8306 -2.41836,-2.18284 -5.03125,-2.375 -0.72143,-0.09444 -1.53311,-0.18496 -2.34375,-0.1875 z"
         style="fill:#000000;fill-opacity:1;fill-rule:nonzero;stroke:none"
         inkscape:connector-curvature="0" />
      <path
         sodipodi:nodetypes="ccccscccssccssc"
         d="m 482.37909,144.37567 c -1.1688,-3.36786 -1.94569,-7.46359 -1.31657,-10.99966 0.222,-1.97103 1.10103,-3.57394 2.42968,-4.99974 2.40284,-2.16594 5.39873,-3.64201 8.25015,-5.11734 1.33388,-0.42603 3.29579,-1.10388 4.58372,-0.30178 0.66406,0.41355 -2.65687,2.62908 -3.41764,2.81137 l 0,0 c -1.6243,0.38922 -3.3622,0.23385 -4.8716,1.06318 -1.79779,0.91895 -1.61334,0.84218 2.86662,-1.74186 0.24738,-0.14269 -0.47771,0.31342 -0.72309,0.45952 -0.727,0.43287 -1.53248,0.72979 -2.12607,1.35941 -1.5343,1.33452 -2.80716,2.8205 -3.24401,4.87041 -0.27398,0.93129 -0.52375,1.61949 -0.60096,2.61094 -0.17596,2.25946 0.70034,6.12871 1.36359,8.25958 0.19072,0.61276 -2.9834,2.33226 -3.19382,1.72597 z"
         id="path2488"
         style="fill:#000000;fill-opacity:1;fill-rule:nonzero;stroke:none"
         inkscape:connector-curvature="0" />
      <path
         d="m 515.85519,108.89409 c 1.87814,-2.17968 4.37434,-3.87244 7.0953,-4.81736 1.5591,-0.50016 2.67611,0.40055 3.80875,1.34869 0.26875,0.28143 0.58886,0.59025 1.02144,0.44671 0.0952,-0.0316 0.33744,-0.21597 0.2481,-0.17036 -0.73683,0.37612 -1.46167,0.77528 -2.19251,1.16291 0.69618,-0.74512 1.23078,-1.68747 1.51841,-2.66983 0.009,-0.043 -0.008,-0.15621 0.0264,-0.12901 0.54546,0.43057 -1.16148,0.28828 -1.20905,0.25485 -0.16169,-0.11365 -0.14639,-0.36717 -0.21959,-0.55075 -0.0963,-0.24147 0.89632,-0.84855 1.14574,-0.92183 l 0,0 c 0.46766,-0.13743 0.92441,-0.31971 1.40296,-0.41226 0.20735,-0.0401 0.42212,0.0187 0.63331,0.0185 0.38674,-4.3e-4 1.21475,-0.0619 1.01653,0.5923 -0.36204,1.02973 -0.80983,2.03235 -1.44368,2.92681 -1.60224,0.97323 -3.03025,2.72701 -4.48849,1.10125 -0.95707,-0.88593 -1.98459,-1.51188 -3.32147,-1.10296 -1.15927,0.41524 -1.15276,0.47443 0.58826,-0.57727 0.30872,-0.18648 -0.61196,0.38236 -0.90929,0.58651 -0.6045,0.41504 -1.17977,0.84696 -1.70965,1.35579 -0.25083,0.24087 -0.4747,0.50834 -0.71206,0.76252 -0.29353,0.31433 -2.58012,1.12064 -2.29938,0.79483 z"
         id="path2640"
         style="fill:#000000;fill-opacity:1;fill-rule:nonzero;stroke:none"
         inkscape:connector-curvature="0" />
      <path
         d="m 527.24677,159.24305 c -0.40253,0.52201 2.64861,-1.22955 2.02665,-0.84396 -0.35998,0.22318 -0.70543,0.56431 -1.12853,0.58391 -0.2951,0.0137 0.47365,-0.35608 0.68416,-0.56332 0.53077,-0.52251 0.53728,-0.64992 0.86587,-1.28165 0.38894,-0.88491 0.65929,-1.84601 0.39741,-2.79956 -0.69114,-1.21963 -1.07163,-0.25022 -1.68404,-0.37826 -0.11386,-0.0238 0.0104,-0.23241 0.0156,-0.34863 7.6e-4,-0.017 0.0552,-0.0574 0.069,-0.0675 l 0,0 c 1.30833,-0.9547 3.29022,-3.03854 4.21679,-0.56164 0.23963,1.08842 -0.0665,2.19183 -0.51027,3.1941 -0.11846,0.25246 -0.20939,0.51977 -0.3554,0.75737 -1.20581,1.96228 -4.22282,3.24643 -6.39324,3.91068 -0.40678,0.1245 2.05576,-1.93839 1.796,-1.60154 z"
         id="path2642"
         style="fill:#000000;fill-opacity:1;fill-rule:nonzero;stroke:none"
         inkscape:connector-curvature="0" />
      <path
         sodipodi:nodetypes="cccccc"
         id="path2644"
         d="m 497.53566,162.63381 c -1.62968,0.0624 -3.47444,3.39315 -4.55676,4.32452 1.24494,-0.0241 2.31119,-0.71781 3.3125,-1.4375 0.68785,0.60389 1.80314,0.90665 2.75,1.15625 0.92372,-1.30759 0.8488,-1.81525 0.3125,-3.34375 -0.16471,-0.11522 -1.58543,-0.70844 -1.81824,-0.69952 z"
         style="fill:#000000;fill-opacity:1;fill-rule:nonzero;stroke:none"
         inkscape:connector-curvature="0" />
      <path
         d="m 510.69694,115.39469 c -0.85328,0.77111 -1.58915,1.65774 -2.36661,2.50267 -0.29406,0.31958 -2.4717,1.23363 -2.31235,0.82964 l 0,0 c 0.43556,-1.10429 0.89209,-1.58513 1.75771,-2.40307 0.39389,-0.37218 3.32331,-1.29258 2.92125,-0.92924 z"
         id="path2648"
         style="fill:#000000;fill-opacity:1;fill-rule:nonzero;stroke:none"
         inkscape:connector-curvature="0" />
    </g>
    <g
       id="g3219"
       transform="matrix(4.4776006,0,0,4.4776006,-286.83942,-2411.6329)"
       style="fill:#000000;fill-opacity:1;stroke:#ffffff;stroke-opacity:1">
      <path
         inkscape:connector-curvature="0"
         sodipodi:nodetypes="ccccccccccc"
         id="path2427"
         d="m 67.613793,570.41735 c 24.468075,-13.10042 45.356037,-11.77452 66.041377,-23.06206 11.09637,2.43104 19.357,1.4592 26.99311,-0.26207 23.42862,10.78637 44.02825,12.51579 66.04138,23.5862 -1.82964,11.55946 -5.85886,21.54778 -12.57932,29.6138 -8.15361,-4.36994 -15.86829,-6.10632 -23.32413,-6.28966 l -0.52414,78.62069 c -32.1215,5.98273 -59.34716,3.39775 -85.95862,-0.26207 l -0.26207,-78.09655 c -9.370679,-0.2722 -16.500436,3.19047 -23.848277,6.28966 -7.067215,-9.63539 -10.36885,-19.80873 -12.57931,-30.13794 z"
         style="fill:#000000;fill-opacity:1;stroke:#ffffff;stroke-width:2;stroke-linecap:butt;stroke-linejoin:miter;stroke-miterlimit:4;stroke-opacity:1;stroke-dasharray:none" />
      <path
         inkscape:connector-curvature="0"
         sodipodi:nodetypes="cc"
         id="path3199"
         d="m 71.282759,569.10701 c 2.214678,10.74851 6.083496,20.78686 13.627586,29.35172"
         style="fill:#000000;fill-opacity:1;stroke:#ffffff;stroke-width:1px;stroke-linecap:butt;stroke-linejoin:miter;stroke-opacity:1" />
      <path
         inkscape:connector-curvature="0"
         sodipodi:nodetypes="cc"
         id="path3203"
         d="m 105.35172,668.16908 c 28.12874,4.60443 56.25747,5.59295 84.38621,-0.26207"
         style="fill:#000000;fill-opacity:1;stroke:#ffffff;stroke-width:1px;stroke-linecap:butt;stroke-linejoin:miter;stroke-opacity:1" />
      <path
         inkscape:connector-curvature="0"
         sodipodi:nodetypes="czc"
         id="path3205"
         d="m 133.3931,547.61736 c -0.22816,2.3247 1.69237,12.73282 13.88965,13.36551 11.93593,0.61914 14.27527,-11.53603 13.88966,-13.10345"
         style="fill:#000000;fill-opacity:1;stroke:#ffffff;stroke-width:1px;stroke-linecap:butt;stroke-linejoin:miter;stroke-opacity:1" />
      <path
         inkscape:connector-curvature="0"
         style="fill:#000000;fill-opacity:1;stroke:#ffffff;stroke-width:1px;stroke-linecap:butt;stroke-linejoin:miter;stroke-opacity:1"
         d="m 128.21194,550.41871 c -0.22816,2.3247 4.57424,15.11165 18.34482,15.46206 14.03248,0.35707 19.77872,-14.68086 19.39311,-16.24828"
         id="path3207"
         sodipodi:nodetypes="czc" />
      <path
         inkscape:connector-curvature="0"
         sodipodi:nodetypes="cc"
         id="path3209"
         d="m 134.52279,552.33459 c 8.53814,2.23324 16.08174,1.75419 25.31809,-0.20185"
         style="fill:#000000;fill-opacity:1;stroke:#ffffff;stroke-width:1px;stroke-linecap:butt;stroke-linejoin:miter;stroke-opacity:1" />
      <path
         inkscape:connector-curvature="0"
         sodipodi:nodetypes="cc"
         id="path3213"
         d="m 104.16182,558.28077 c 2.57594,9.88539 6.83803,21.48891 -0.26207,35.37931"
         style="fill:#000000;fill-opacity:1;stroke:#ffffff;stroke-width:1px;stroke-linecap:butt;stroke-linejoin:miter;stroke-opacity:1" />
      <path
         inkscape:connector-curvature="0"
         style="fill:#000000;fill-opacity:1;stroke:#ffffff;stroke-width:1px;stroke-linecap:butt;stroke-linejoin:miter;stroke-opacity:1"
         d="m 190.37521,558.48262 c -2.57594,9.88539 -6.83803,21.48891 0.26207,35.37931"
         id="path3215"
         sodipodi:nodetypes="cc" />
      <path
         inkscape:connector-curvature="0"
         style="fill:#000000;fill-opacity:1;stroke:#ffffff;stroke-width:1px;stroke-linecap:butt;stroke-linejoin:miter;stroke-opacity:1"
         d="m 223.28276,568.84494 c -2.21468,10.74851 -6.0835,20.78686 -13.62759,29.35172"
         id="path3217"
         sodipodi:nodetypes="cc" />
    </g>
    <g
       transform="translate(-267.85449,-145.93036)"
       id="g3272"
       style="stroke:#000000">
      <path
         inkscape:connector-curvature="0"
         style="fill:none;stroke:#000000;stroke-width:2;stroke-linecap:butt;stroke-linejoin:miter;stroke-miterlimit:4;stroke-opacity:1;stroke-dasharray:none"
         d="m 67.613793,570.41735 c 24.468075,-13.10042 45.356037,-11.77452 66.041377,-23.06206 11.09637,2.43104 19.357,1.4592 26.99311,-0.26207 23.42862,10.78637 44.02825,12.51579 66.04138,23.5862 -1.82964,11.55946 -5.85886,21.54778 -12.57932,29.6138 -8.15361,-4.36994 -15.86829,-6.10632 -23.32413,-6.28966 l -0.52414,78.62069 c -32.1215,5.98273 -59.34716,3.39775 -85.95862,-0.26207 l -0.26207,-78.09655 c -9.370679,-0.2722 -16.500436,3.19047 -23.848277,6.28966 -7.067215,-9.63539 -10.36885,-19.80873 -12.57931,-30.13794 z"
         id="path3274"
         sodipodi:nodetypes="ccccccccccc" />
      <path
         inkscape:connector-curvature="0"
         style="fill:none;stroke:#000000;stroke-width:1px;stroke-linecap:butt;stroke-linejoin:miter;stroke-opacity:1"
         d="m 71.282759,569.10701 c 2.214678,10.74851 6.083496,20.78686 13.627586,29.35172"
         id="path3276"
         sodipodi:nodetypes="cc" />
      <path
         inkscape:connector-curvature="0"
         style="fill:none;stroke:#000000;stroke-width:1px;stroke-linecap:butt;stroke-linejoin:miter;stroke-opacity:1"
         d="m 105.35172,668.16908 c 28.12874,4.60443 56.25747,5.59295 84.38621,-0.26207"
         id="path3278"
         sodipodi:nodetypes="cc" />
      <path
         inkscape:connector-curvature="0"
         style="fill:none;stroke:#000000;stroke-width:1px;stroke-linecap:butt;stroke-linejoin:miter;stroke-opacity:1"
         d="m 128.66915,549.91239 c 8.00755,6.19134 27.90788,6.57541 36.62167,-0.20184"
         id="path3284"
         sodipodi:nodetypes="cc" />
      <path
         inkscape:connector-curvature="0"
         style="fill:none;stroke:#000000;stroke-width:1px;stroke-linecap:butt;stroke-linejoin:miter;stroke-opacity:1"
         d="m 104.16182,558.28077 c 2.57594,9.88539 6.83803,21.48891 -0.26207,35.37931"
         id="path3286"
         sodipodi:nodetypes="cc" />
      <path
         inkscape:connector-curvature="0"
         sodipodi:nodetypes="cc"
         id="path3288"
         d="m 190.37521,558.48262 c -2.57594,9.88539 -6.83803,21.48891 0.26207,35.37931"
         style="fill:none;stroke:#000000;stroke-width:1px;stroke-linecap:butt;stroke-linejoin:miter;stroke-opacity:1" />
      <path
         inkscape:connector-curvature="0"
         sodipodi:nodetypes="cc"
         id="path3290"
         d="m 223.28276,568.84494 c -2.21468,10.74851 -6.0835,20.78686 -13.62759,29.35172"
         style="fill:none;stroke:#000000;stroke-width:1px;stroke-linecap:butt;stroke-linejoin:miter;stroke-opacity:1" />
    </g>
    <text
       xml:space="preserve"
       style="font-size:14px;font-style:normal;font-weight:normal;fill:#000000;fill-opacity:1;stroke:none;font-family:Bitstream Vera Sans"
       x="-245.27884"
       y="397.04843"
       id="text3455"><tspan
         sodipodi:role="line"
         id="tspan3457"
         x="-245.27884"
         y="397.04843">Male T-Shirt</tspan></text>
    <text
       xml:space="preserve"
       style="font-size:12px;font-style:normal;font-variant:normal;font-weight:normal;font-stretch:normal;fill:#000000;fill-opacity:1;stroke:none;font-family:Liberation Sans;-inkscape-font-specification:Liberation Sans"
       x="-301.50415"
       y="545.0484"
       id="text3463"><tspan
         sodipodi:role="line"
         id="tspan3465"
         x="-301.50415"
         y="545.0484">Front</tspan></text>
    <text
       id="text3467"
       y="545.0484"
       x="-134.55139"
       style="font-size:12px;font-style:normal;font-variant:normal;font-weight:normal;font-stretch:normal;fill:#000000;fill-opacity:1;stroke:none;font-family:Liberation Sans;-inkscape-font-specification:Liberation Sans"
       xml:space="preserve"><tspan
         y="545.0484"
         x="-134.55139"
         id="tspan3469"
         sodipodi:role="line">Back</tspan></text>
    <path
       style="fill:#000000;fill-opacity:1;fill-rule:evenodd"
       d="m -433.78279,33.149819 c -4.36079,-0.784594 -8.72157,-1.569197 -13.08235,-2.353791 2.74833,-3.935663 5.49665,-7.871342 8.24497,-11.807005 3.9388,3.583154 4.92982,9.057489 4.83738,14.160796 z m 3.59881,0.863866 c 0.60045,-6.568537 -1.50665,-13.478975 -6.27179,-18.149605 1.6153,-2.132152 3.2306,-4.264305 4.8459,-6.3964584 2.50021,8.4085534 5.00042,16.8170984 7.50063,25.2256424 -2.02491,-0.22652 -4.04982,-0.45305 -6.07474,-0.679579 z m 28.78911,-25.1057354 c 0.0918,-2.045992 -1.91755,-1.282443 -3.26207,-1.407876 -7.95636,-0.01147 -15.91274,-0.02295 -23.86911,-0.03442 2.36894,7.9168554 4.73788,15.8336954 7.10682,23.7505534 0.6976,-1.891978 -0.26566,-2.229199 -0.44933,-3.424407 0.14277,-1.3442 2.52301,-0.300556 3.61668,-0.62996 0.3531,1.909092 -1.68917,1.251358 -1.16489,3.356345 0.12049,1.702834 2.97051,-3.489829 4.11224,-4.366572 4.63606,-5.748275 9.26696,-11.500738 13.90966,-17.2436464 z m 11.83199,22.8153614 c -3.86311,-3.160797 -6.91021,-7.338792 -8.39392,-12.127365 -7.91897,7.693061 -6.14572,22.721911 3.78328,27.878018 6.99754,4.014071 16.41072,0.497372 19.92543,-6.537565 5.11063,-8.732509 1.24017,-21.781134 -8.63484,-25.121997 -4.06397,-1.448877 -8.7414,-0.794475 -12.33472,1.55589 1.2947,5.165574 4.3621,10.327527 9.08576,12.85399 2.51422,3.108091 -3.25749,5.865169 -3.43099,1.499029 z m -44.76807,5.050829 c -1.74359,8.373688 -11.12232,14.72403 -19.45867,11.617683 -10.16055,-3.434094 -13.9068,-17.08388 -8.23199,-25.814858 3.58087,-6.367228 11.87059,-9.247317 18.62484,-6.506939 3.21337,0.401434 1.84553,2.255535 0.48959,3.906238 -2.17505,3.183563 -4.3501,6.367144 -6.52515,9.550716 -4.48343,2.2721 0.0255,5.010812 3.12525,4.71529 3.99205,0.84396 7.98409,1.68791 11.97613,2.53187 z m 38.00863,-23.352133 c -1.82706,-5.5565844 -3.65411,-11.1131624 -5.48117,-16.6697444 0.29443,-1.257328 2.25304,-2.686862 1.28119,-3.813158 -1.11353,-1.146012 -1.99939,-2.778237 -3.25519,-3.6204516 -2.40691,0 -4.81381,0 -7.22072,0 -0.42053,1.8398946 0.008,2.8665596 2.03237,2.3651646 1.48837,0.126139 3.21,-0.249241 4.55673,0.181408 1.65952,1.047361 0.79359,2.390623 8.4e-4,3.725265 -0.77718,1.357068 0.47293,2.934186 0.58263,4.38752201 0.0119,1.16122599 1.47311,3.44748199 0.51171,3.85308699 -8.76368,0 -17.52738,0 -26.29106,0 -1.22811,-2.97369499 5.09246,-1.615459 6.33859,-3.99507399 0.14413,-3.17311401 -6.03889,-1.25156401 -8.55871,-2.06803901 -2.49933,0.06645 -11.0002,-1.825066 -6.83555,2.55771001 1.89083,2.03955399 5.63163,1.11583399 5.7099,4.53092499 0.32541,1.366514 -1.4908,2.40065 -2.05128,3.629673 -1.36379,1.8626474 -2.7276,3.7252844 -4.09139,5.5879394 -7.10406,-4.9422784 -17.5316,-3.668415 -23.27694,2.791029 -8.62696,8.80662 -7.71346,24.861982 2.12351,32.408209 6.86011,5.788226 17.83901,4.906406 23.89818,-1.629357 3.53413,-2.188362 3.99849,-8.515278 6.59179,-9.972269 1.62973,0.322857 3.25946,0.645713 4.88918,0.968561 1.90837,1.418107 1.34453,3.236879 0.85511,5.284845 0.49406,2.264706 -1.78716,1.368159 -1.7638,2.879455 0.1724,1.19371 2.66343,0.33849 3.75344,0.721321 1.70429,-1.186841 -1.33301,-1.333413 -0.35327,-2.710218 0.33196,-1.42315 0.66392,-2.846291 0.99589,-4.269441 3.36943,-0.567718 1.51513,-4.347283 3.94114,-5.915101 5.79311,-7.22293 11.5862,-14.445861 17.3793,-21.668783 1.6553,2.376288 -0.26115,3.740952 -1.90148,5.463448 -7.46235,9.28186 -5.68884,24.55218 4.19872,31.416315 7.01405,5.314 17.66581,4.01867 23.45965,-2.501828 8.62705,-8.806611 7.71331,-24.861922 -2.12349,-32.408251 -5.53332,-4.529379 -13.75274,-5.1822484 -19.89623,-1.510162 z"
       id="path5490"
       inkscape:connector-curvature="0" />
    <path
       inkscape:connector-curvature="0"
       style="opacity:0.98000004;fill:#00ff00;fill-opacity:1;stroke:none"
       d="m 889.07037,354.47085 c -0.18693,0.002 -0.37398,0.004 -0.56107,0.012 -8.59016,0.0548 -16.29729,7.69389 -16.31916,16.30708 -0.0972,2.03042 0.0283,4.0623 0.006,6.09331 -1.37953,-2e-5 -2.75908,-2e-5 -4.13861,0 0.10962,8.9242 -0.22309,17.86904 0.17495,26.78029 0.85637,5.7383 6.00902,10.92751 12.01765,10.64818 6.5789,-0.0127 13.17834,0.2035 19.74588,-0.13274 6.16492,-1.06227 10.4943,-7.39259 10.02678,-13.51985 0.0708,-7.92312 -0.007,-15.84659 0.0241,-23.76986 -1.37343,-0.0351 -2.7472,0.0268 -4.12052,-0.0181 0.10427,-4.82445 0.33109,-10.09803 -2.4192,-14.28 -2.97415,-4.96256 -8.64248,-8.15752 -14.43686,-8.12036 z m 0.0784,6.88964 c 4.88066,0.0669 9.70272,4.10881 9.56223,9.19423 0.0969,2.10851 0.16145,4.2183 0.20514,6.32859 -6.5659,-0.004 -13.13177,0.0102 -19.69762,-0.0122 0.0204,-3.30081 -0.8654,-6.90995 0.94114,-9.88196 1.64031,-3.1489 4.91896,-5.55855 8.51854,-5.62272 0.1574,-0.006 0.31314,-0.008 0.47057,-0.006 z"
       id="path3355" />
    <g
       id="g4438"
       transform="matrix(0.86092464,0,0,0.86092464,51.742604,6.606681)">
      <g
         transform="matrix(0.69185415,0,0,0.69185415,498.86703,314.25863)"
         id="g4218">
        <path
           style="fill:#ffffff;fill-opacity:1;fill-rule:evenodd;stroke:none"
           d="m -238.25998,128.52516 c -0.48393,-10.60524 8.22275,-20.78854 6.36722,-31.433791 0.16466,-9.16868 -3.00022,-17.637 -8.07071,-25.18117 -5.40691,-10.42611 -16.3144,-16.74682 -20.30263,-28.06859 -9.75966,-21.957949 -10.63807,-48.890031 0.79291,-70.37487 17.73976,-25.061794 51.64258,-34.422645 80.84049,-27.934801 19.04484,4.108429 40.04527,10.941138 50.98032,28.359727 10.96558,16.477803 10.13438,36.907068 11.9356,55.750096 3.14551,8.977108 9.53864,16.280648 15.8477,23.121958 6.35173,11.12253 -17.85705,8.49026 -8.82113,20.52416 -0.51732,5.37901 -9.41991,2.79448 -2.80117,8.72467 -1.11802,4.46656 -6.85451,10.30953 -1.92055,16.25919 3.07126,9.320941 -4.68655,15.982131 -13.57738,15.486601 -10.85121,0.51652 -22.87291,1.18099 -30.89163,9.60003 -3.99391,7.42307 0.37797,6.42407 -0.9829,12.84662 -4.96355,6.62342 1.29289,16.43257 -2.25468,22.04662 -22.515,-8.73031 -54.62646,-20.99614 -77.14146,-29.72645 z"
           id="path2396"
           inkscape:connector-curvature="0"
           sodipodi:nodetypes="ccccccccccccccccc" />
        <path
           style="fill:#919899;fill-opacity:1;fill-rule:evenodd;stroke:#454a4b;stroke-width:3;stroke-linecap:butt;stroke-linejoin:miter;stroke-miterlimit:4;stroke-opacity:1;stroke-dasharray:none"
           d="m -206.18764,60.087319 c -8.26257,8.30159 -15.28054,-1.5929 -24.42472,0.0273 -12.43036,-2.29779 -9.17717,-19.75618 -22.49717,-18.61629 -9.45072,-10.022675 -7.82786,-25.017442 -6.93819,-37.682889 1.60831,-18.569742 13.51498,-35.057436 28.64193,-45.276868 15.49545,-8.344773 34.01606,-8.391276 51.1005,-6.852135 11.89145,2.325845 22.75117,8.430016 33.21785,14.315667 7.69115,6.154298 15.38197,13.525619 19.08645,22.795219 3.17167,10.175509 2.28467,25.227785 -9.09558,29.778786 -6.24449,1.540405 -12.74305,1.953405 -19.01,3.357789 2.81065,8.794694 -2.93772,17.048481 -11.48945,20.368861 -8.70133,4.05377 -19.44272,-7.70349 -22.52752,5.95327 -6.48546,6.49355 0.27018,22.52301 -12.69583,20.60431 -5.3414,0.0755 -2.76684,-5.57689 -3.36827,-8.77302 z"
           id="path3168"
           inkscape:connector-curvature="0" />
      </g>
      <g
         transform="matrix(0.72194225,0,0,0.72194225,94.78269,127.98649)"
         id="g4283">
        <path
           style="opacity:0.98000004;fill:#000000;fill-opacity:1;stroke:none"
           d="m 333.31835,251.41124 0,26.06316 0.007,0 c -0.007,0.18825 -0.007,0.37702 -0.007,0.56719 0,7.5693 5.54494,13.66103 12.4367,13.66103 l 20.60567,0 c 6.89181,0 12.44365,-6.09173 12.44365,-13.66103 0,-0.19013 -0.007,-0.37901 -0.014,-0.56719 l 0.014,0 0,-26.06316 -4.71739,0 c -14.88071,0.14602 -37.49882,0 -40.76863,0 z m 22.72225,9.53159 c 0.26934,0 0.54167,0.021 0.81621,0.0623 2.92846,0.43931 4.94911,3.16544 4.50987,6.09387 -0.20228,1.34842 -0.89789,2.50873 -1.86759,3.32015 l 1.87451,11.75193 -5.27766,0 -0.0761,0 -5.27072,0 1.86756,-11.75193 c -1.38149,-1.16022 -2.14787,-2.99622 -1.86065,-4.91105 0.39811,-2.65389 2.68102,-4.55813 5.28457,-4.5652 z"
           id="path3357"
           inkscape:connector-curvature="0"
           sodipodi:nodetypes="cccssssccccccccccccccccc" />
        <path
           style="fill:none;stroke:#000000;stroke-width:5.50334883;stroke-linecap:butt;stroke-linejoin:miter;stroke-miterlimit:4;stroke-opacity:1;stroke-dasharray:none"
           d="m 368.38913,252.23866 c 0.0686,-26.34545 32.00147,-26.28761 31.81624,-0.14332 l 0,0"
           id="path4275"
           inkscape:connector-curvature="0"
           sodipodi:nodetypes="ccc" />
      </g>
    </g>
    <g
       transform="translate(-427.37538,-105.67937)"
       inkscape:label="Layer 1"
       id="layer1-6">
	<g
   id="g6">
			
			
			
			
			
			
			
			
			
			
			
			
			
			<g
   id="g4372"
   transform="translate(606.69762,106.06602)">
  <path
     style="fill:#73ba25"
     inkscape:connector-curvature="0"
     id="path10"
     d="m 312.65,218.62 v 0.81 c 0,1.78 -1.351,3.08 -3.221,3.08 H 285.1 c -1.77,0 -3.09,-1.33 -3.09,-3.08 v -30.52 c 0,-1.76 1.37,-3.08 3.15,-3.08 l 0.01,0.03 h 23.25 c 1.87,0 3.23,1.29 3.23,3.069 v 0.811 c 0,1.779 -1.36,3.069 -3.23,3.069 0,0 -18.02,0 -18.91,0 0,0.801 0,7.2 0,7.99 0.891,0 14.59,0 14.59,0 1.87,0 3.23,1.311 3.23,3.09 v 0.801 c 0,1.79 -1.36,3.079 -3.23,3.079 0,0 -13.699,0 -14.59,0 0,0.801 0,6.99 0,7.78 0.891,0 19.92,0 19.92,0 1.88,0.001 3.22,1.311 3.22,3.071 z" />
  <path
     style="fill:#73ba25"
     inkscape:connector-curvature="0"
     id="path18"
     d="m 275.6,208.41 v 4.89 c 0,5.601 -3.34,9.21 -8.55,9.21 h -19.87 c -1.87,0 -3.22,-1.31 -3.22,-3.08 v -0.81 c 0,-1.771 1.35,-3.07 3.22,-3.07 h 18.851 c 2.05,0 2.109,-2.81 2.109,-3.12 v -2.93 c 0,-0.96 -0.38,-2.09 -2.109,-2.09 H 252.22 c -3.93,0 -8.189,-3.22 -8.189,-8.41 v -4.53 c 0,-3.54 3.34,-8.64 9.359,-8.64 v 0.04 h 16.221 c 1.89,0 3.29,1.33 3.29,3.07 v 0.81 c 0,1.76 -1.391,3.08 -3.221,3.08 h -15.06 c -1.98,0 -3.11,0.97 -3.11,2.67 v 2.69 c 0,1.1 0.92,2.609 2.971,2.609 h 13.6 c 3.749,0.001 7.519,2.361 7.519,7.611 z" />
  <path
     style="fill:#73ba25"
     inkscape:connector-curvature="0"
     id="path20"
     d="m 234.31,185.83 c 1.811,0 3.221,1.42 3.221,3.229 v 24.03 c 0,5.59 -4.391,9.641 -10.45,9.641 h -11.23 c -6.06,0 -10.449,-4.051 -10.449,-9.641 v -24.03 c 0,-1.81 1.43,-3.229 3.22,-3.229 h 1.02 c 1.801,0 3.23,1.45 3.23,3.229 V 212.2 c 0,1.85 1.49,3.34 3.33,3.34 h 10.51 c 1.83,0 3.33,-1.49 3.33,-3.34 v -23.14 c 0,-1.779 1.45,-3.229 3.229,-3.229 h 0.021 1.018 z" />
  <path
     style="fill:#73ba25"
     inkscape:connector-curvature="0"
     id="path22"
     d="m 198.95,208.41 v 4.89 c 0,5.601 -3.36,9.21 -8.55,9.21 h -19.88 c -1.88,0 -3.23,-1.31 -3.23,-3.08 v -0.81 c 0,-1.771 1.36,-3.07 3.23,-3.07 h 18.85 c 2.04,0 2.09,-2.81 2.09,-3.12 v -2.93 c 0,-0.96 -0.36,-2.09 -2.09,-2.09 h -13.81 c -3.95,0 -8.19,-3.22 -8.19,-8.41 v -4.53 c 0,-3.54 3.33,-8.64 9.36,-8.64 l 0.02,0.04 h 16.23 c 1.88,0 3.29,1.33 3.29,3.07 v 0.81 c 0,1.76 -1.39,3.08 -3.23,3.08 h -15.06 c -1.99,0 -3.12,0.97 -3.12,2.67 v 2.69 c 0,1.1 0.92,2.609 2.97,2.609 h 13.59 c 3.75,0.001 7.53,2.361 7.53,7.611 z" />
  <path
     style="fill:#73ba25"
     inkscape:connector-curvature="0"
     id="path26"
     d="m 149.12,201.6 c 1.3,-0.619 2.92,-1.38 5.06,-1.38 h 0.66 c 3.74,0 6.16,2.23 6.16,5.66 v 15.02 c 0,0.909 -0.74,1.649 -1.63,1.649 h -0.64 c -0.91,0 -1.63,-0.74 -1.63,-1.649 v -14.48 c 0,-1.36 -1.11,-2.47 -2.46,-2.47 h -5.43 c -1.36,0 -2.46,1.109 -2.46,2.47 v 14.48 c 0,0.909 -0.74,1.649 -1.63,1.649 h -0.64 c -0.91,0 -1.63,-0.74 -1.63,-1.649 v -19.14 c 0,-0.819 0.55,-1.399 1.31,-1.399 h 0.63 c 0.6,0 1.04,0.26 1.28,0.77 l 0.45,0.82 c 0.19,0.34 0.29,0.359 0.54,0.359 0.56,0 1.25,-0.34 2.06,-0.71 z" />
  <path
     style="fill:#73ba25"
     inkscape:connector-curvature="0"
     id="path28"
     d="m 138.35,205.67 v 4.43 c 0,1.891 -1.1,3.011 -2.92,3.011 0,0 -10.86,0 -11.37,0 0,0.46 0,3.34 0,3.34 0,1.649 0.93,2.51 2.7,2.51 h 6.3 c 0.94,0 1.63,0.65 1.63,1.54 v 0.5 c 0,0.9 -0.69,1.55 -1.63,1.55 h -7.68 c -2.84,0 -5.24,-2.52 -5.24,-5.479 V 205.64 c 0,-2.92 2.47,-5.279 5.51,-5.279 l 0.01,0.02 h 7.17 c 3.04,-0.001 5.52,2.379 5.52,5.289 z m -3.94,4.04 c 0,-0.46 0,-3.55 0,-3.55 0,-1.24 -0.96,-2.2 -2.19,-2.2 h -5.98 c -1.24,0 -2.19,0.98 -2.19,2.2 0,0 0,3.09 0,3.55 0.48,0 9.88,0 10.36,0 z" />
  <path
     style="fill:#73ba25"
     inkscape:connector-curvature="0"
     id="path30"
     d="m 100.34,216.48 c 0,0.939 0.52,1.75 1.29,2.17 l -0.92,2.029 c -0.17,0 -0.36,0.301 -0.36,0.58 v 9.69 c 0,0.89 -0.73,1.63 -1.63,1.63 h -0.64 c -0.92,0 -1.63,-0.73 -1.63,-1.63 v -29.19 c 0,-0.779 0.58,-1.399 1.27,-1.399 h 0.73 c 0.62,0 1.12,0.479 1.23,0.729 l 0.48,0.95 c 0.12,0.17 0.33,0.27 0.55,0.27 l 0.91,1.96 c -0.77,0.41 -1.28,1.221 -1.28,2.171 v 10.04 z" />
  <path
     style="fill:#73ba25"
     inkscape:connector-curvature="0"
     id="path32"
     d="m 108.46,200.23 c 3.75,0 6.16,2.229 6.16,5.659 v 11.141 c 0,3.489 -2.36,5.649 -6.16,5.649 h -0.67 c -2.15,0 -3.77,-0.739 -5.06,-1.33 -0.8,-0.369 -1.48,-0.67 -2.02,-0.67 l 0.92,-2.029 c 0.35,0.189 0.75,0.3 1.17,0.3 h 5.43 c 1.37,0 2.46,-1.11 2.46,-2.47 v -10.04 c 0,-1.381 -1.08,-2.46 -2.46,-2.46 h -5.43 c -0.43,0 -0.83,0.109 -1.18,0.289 l -0.91,-1.96 c 0.54,0 1.22,-0.319 2,-0.699 1.31,-0.62 2.92,-1.391 5.07,-1.391 v 0.011 h 0.68 z" />
  <path
     style="fill:#73ba25"
     inkscape:connector-curvature="0"
     id="path34"
     d="m 90.9,205.64 v 11.521 c 0,2.96 -2.4,5.37 -5.34,5.37 h -7.44 c -2.93,0 -5.32,-2.41 -5.32,-5.37 V 205.64 c 0,-2.92 2.47,-5.279 5.51,-5.279 h 7.08 c 3.04,-10e-4 5.51,2.369 5.51,5.279 z m -3.92,11.07 v -10.5 c 0,-1.22 -1.03,-2.25 -2.24,-2.25 h -5.8 c -1.23,0 -2.24,1.01 -2.24,2.25 v 10.5 c 0,1.26 0.96,2.24 2.19,2.24 h 5.85 c 1.24,0 2.24,-1.01 2.24,-2.24 z" />
</g>

		</g>
<g
   id="g36">
		</g>

</g>
    <flowRoot
       xml:space="preserve"
       id="flowRoot4391"
       style="font-size:40px;font-style:normal;font-variant:normal;font-weight:normal;font-stretch:normal;text-align:start;line-height:125%;letter-spacing:0px;word-spacing:0px;writing-mode:lr-tb;text-anchor:start;fill:#73ba25;fill-opacity:1;stroke:none;font-family:P22 Rodin Regular;-inkscape-font-specification:P22 Rodin Regular"
       transform="matrix(1.1203167,0,0,1.1203167,94.004592,-366.34538)"><flowRegion
         id="flowRegion4393"><rect
           id="rect4395"
           width="866.53973"
           height="154.45079"
           x="123.03658"
           y="656.38239"
           style="font-size:40px;font-style:normal;font-variant:normal;font-weight:normal;font-stretch:normal;fill:#73ba25;fill-opacity:1;font-family:P22 Rodin Regular;-inkscape-font-specification:P22 Rodin Regular" /></flowRegion><flowPara
         id="flowPara4397">Linux for open minds</flowPara></flowRoot>    <flowRoot
       xml:space="preserve"
       id="flowRoot4391-1"
       style="font-size:40px;font-style:normal;font-variant:normal;font-weight:500;font-stretch:normal;text-align:start;line-height:125%;letter-spacing:0px;word-spacing:0px;writing-mode:lr-tb;text-anchor:start;fill:#73ba25;fill-opacity:1;stroke:none;font-family:ChollaWide;-inkscape-font-specification:ChollaWide Medium"
       transform="matrix(0.8514995,0,0,0.8514995,829.94487,157.14207)"><flowRegion
         id="flowRegion4393-1"><rect
           id="rect4395-3"
           width="866.53973"
           height="154.45079"
           x="123.03658"
           y="656.38239"
           style="font-size:40px;font-style:normal;font-variant:normal;font-weight:500;font-stretch:normal;fill:#73ba25;fill-opacity:1;font-family:ChollaWide;-inkscape-font-specification:ChollaWide Medium" /></flowRegion><flowPara
         id="flowPara4397-4"
         style="font-style:normal;font-variant:normal;font-weight:bold;font-stretch:normal;font-family:FifthLeg;-inkscape-font-specification:FifthLeg Bold">for open minds</flowPara></flowRoot>    <text
       xml:space="preserve"
       style="font-size:54.72631454px;font-style:normal;font-variant:normal;font-weight:normal;font-stretch:normal;text-align:start;line-height:125%;letter-spacing:0px;word-spacing:0px;writing-mode:lr-tb;text-anchor:start;fill:#73ba25;fill-opacity:1;stroke:none;font-family:Sans;-inkscape-font-specification:Sans"
       x="933.91125"
       y="713.3764"
       id="text4432"
       sodipodi:linespacing="125%"><tspan
         sodipodi:role="line"
         id="tspan4434"
         x="933.91125"
         y="713.3764"><tspan
           style="font-style:normal;font-variant:normal;font-weight:normal;font-stretch:normal;fill:#73ba25;fill-opacity:1;font-family:FifthLeg;-inkscape-font-specification:FifthLeg"
           id="tspan4436">Linux </tspan></tspan></text>
    <rect
       style="fill:#0000ff;fill-rule:evenodd;stroke:none"
       id="rect4446"
       width="66.46804"
       height="278.60007"
       x="942.75012"
       y="354.27106"
       ry="10.815034" />
  </g>
</svg>
