<?xml version="1.0" encoding="UTF-8" standalone="no"?>
<!-- Created with Inkscape (http://www.inkscape.org/) -->

<svg
   xmlns:dc="http://purl.org/dc/elements/1.1/"
   xmlns:cc="http://creativecommons.org/ns#"
   xmlns:rdf="http://www.w3.org/1999/02/22-rdf-syntax-ns#"
   xmlns:svg="http://www.w3.org/2000/svg"
   xmlns="http://www.w3.org/2000/svg"
   xmlns:sodipodi="http://sodipodi.sourceforge.net/DTD/sodipodi-0.dtd"
   xmlns:inkscape="http://www.inkscape.org/namespaces/inkscape"
   width="4595.6694"
   height="3249.2126"
   id="svg2"
   version="1.1"
   inkscape:version="0.48.4 r9939"
   sodipodi:docname="sweater.svg"
   inkscape:export-filename="/home/marguerite/sweater.png"
   inkscape:export-xdpi="89.989998"
   inkscape:export-ydpi="89.989998">
  <defs
     id="defs4" />
  <sodipodi:namedview
     id="base"
     pagecolor="#dcdcdc"
     bordercolor="#666666"
     borderopacity="1.0"
     inkscape:pageopacity="1"
     inkscape:pageshadow="2"
     inkscape:zoom="0.3"
     inkscape:cx="2098.2829"
     inkscape:cy="1280.4602"
     inkscape:document-units="px"
     inkscape:current-layer="layer1"
     showgrid="false"
     fit-margin-top="0"
     fit-margin-left="0"
     fit-margin-right="0"
     fit-margin-bottom="0"
     showguides="true"
     inkscape:guide-bbox="true"
     inkscape:window-width="1024"
     inkscape:window-height="721"
     inkscape:window-x="-2"
     inkscape:window-y="-3"
     inkscape:window-maximized="1">
    <sodipodi:guide
       orientation="0,1"
       position="2386.6667,-180"
       id="guide3830" />
  </sodipodi:namedview>
  <metadata
     id="metadata7">
    <rdf:RDF>
      <cc:Work
         rdf:about="">
        <dc:format>image/svg+xml</dc:format>
        <dc:type
           rdf:resource="http://purl.org/dc/dcmitype/StillImage" />
        <dc:title></dc:title>
      </cc:Work>
    </rdf:RDF>
  </metadata>
  <g
     inkscape:label="Layer 1"
     inkscape:groupmode="layer"
     id="layer1"
     transform="translate(0,2196.8505)">
    <flowRoot
       xml:space="preserve"
       id="flowRoot4060"
       style="fill:black;stroke:none;stroke-opacity:1;stroke-width:1px;stroke-linejoin:miter;stroke-linecap:butt;fill-opacity:1;font-family:Sans;font-style:normal;font-weight:normal;font-size:40px;line-height:125%;letter-spacing:0px;word-spacing:0px"><flowRegion
         id="flowRegion4062"><rect
           id="rect4064"
           width="940"
           height="240"
           x="830"
           y="2869.2126" /></flowRegion><flowPara
         id="flowPara4066"></flowPara></flowRoot>    <g
       id="g4084">
      <g
         transform="translate(-36,-288)"
         id="g3921">
        <path
           style="fill:#1a1a1a;stroke:#54d200;stroke-width:5.32110596;stroke-linecap:round;stroke-linejoin:round;stroke-miterlimit:4;stroke-opacity:1;stroke-dasharray:none"
           d="m 1155.4106,-660.47736 -328.58338,75.52722 c 0,0 13.99579,89.37381 13.99579,134.06072 0,44.68687 -13.99579,134.06071 -13.99579,134.06071 0,0 13.77364,337.354785 20.66045,506.03217 6.88682,168.67739 20.66044,506.03217 20.66044,506.03217 l 0,90.63262 983.70379,0 0,-90.63262 20.6604,-506.03217 20.6604,-506.03217 c 0,0 -9.9969,-89.37384 -9.9969,-134.06071 0,-44.68691 9.9969,-134.06072 9.9969,-134.06072 l -316.5862,-75.52722 c 0,0 -110.4394,31.06806 -194.5931,32.47673 -95.1696,1.59306 -226.5828,-32.47673 -226.5828,-32.47673 z"
           id="path3049"
           inkscape:connector-curvature="0"
           sodipodi:nodetypes="ccscsccccccsccsc" />
        <path
           style="fill:#1a1a1a;stroke:#54d200;stroke-width:5.29667091;stroke-linecap:butt;stroke-linejoin:miter;stroke-miterlimit:4;stroke-opacity:1;stroke-dasharray:none"
           d="m 825.97789,-585.82292 c 0,0 -60.28982,15.17667 -113.06152,64.79495 -52.77168,49.61829 -84.43471,1268.81055 -84.43471,1268.81055 0,0 11.92579,39.00656 10.55434,85.05992 -1.05543,35.4416 129.22266,46.50941 166.40676,10.27812 0,0 2.81449,-32.25197 15.4797,-84.35117 7.53163,-30.98193 27.64786,-298.01491 29.20033,-400.84489 1.40725,-93.21142 -5.98078,-183.23322 -5.98078,-183.23322 l -16.55288,-491.42281 c 0,0 12.93349,-93.50739 13.1094,-134.85597 0.17591,-41.34857 -14.72064,-134.23548 -14.72064,-134.23548 z"
           id="path3824"
           inkscape:connector-curvature="0"
           sodipodi:nodetypes="cscssssccsc" />
        <path
           sodipodi:nodetypes="cscssssccsc"
           inkscape:connector-curvature="0"
           id="path3828"
           d="m 1893.6768,-585.18453 c 0,0 61.2363,16.16327 113.9579,65.73472 52.7215,49.57144 84.3544,1267.61275 84.3544,1267.61275 0,0 -11.9145,38.96973 -10.5443,84.97963 1.0543,35.40813 -129.0996,46.46549 -166.2486,10.26841 0,0 -2.8117,-32.22153 -15.4649,-84.27153 -7.5244,-30.95269 -27.6216,-297.7336 -29.1726,-400.4665 -1.4058,-93.12342 5.9752,-183.06024 5.9752,-183.06024 l 19.8641,-490.94001 c 0,0 -11.2529,-99.43235 -11.4287,-140.74187 -0.1758,-41.30953 8.7075,-129.11536 8.7075,-129.11536 z"
           style="fill:#1a1a1a;stroke:#54d200;stroke-width:5.29668903;stroke-linecap:butt;stroke-linejoin:miter;stroke-miterlimit:4;stroke-opacity:1;stroke-dasharray:none" />
        <path
           style="fill:#1a1a1a;stroke:#54d200;stroke-width:5;stroke-linecap:round;stroke-linejoin:round;stroke-miterlimit:4;stroke-opacity:0.94117647;stroke-dasharray:none"
           d="m 1155.4262,-660.86776 c 0,0 -99.1761,-255.08711 -92.1769,-385.70794 4.923,-91.8753 28.8997,-195.2756 95.1769,-259.0929 53.4004,-51.4185 137.3742,-69.1619 211.5044,-68.739 71.6207,0.4085 152.0415,18.9981 203.5732,68.739 66.4203,64.112 92.7689,166.9165 97.8207,259.0929 7.1701,130.82841 -94.8207,385.70794 -94.8207,385.70794 0,0 -141.3592,35 -210.5388,35 -69.1796,0 -210.5388,-35 -210.5388,-35"
           id="path3842"
           inkscape:connector-curvature="0"
           sodipodi:nodetypes="cssssscsc" />
        <path
           style="fill:none;stroke:#54d200;stroke-width:3;stroke-linecap:round;stroke-linejoin:round;stroke-miterlimit:4;stroke-opacity:1;stroke-dasharray:none"
           d="m 1366.459,-1314.994 c -206.6489,0 -277.8151,123.0801 -277.8151,243.4929 0,353.1519 271.1036,404.24254 271.1036,404.24254 l 0,1304.97681 12.7149,0 1,-1306.97681 c 0,0 263.8937,-49.40013 263.8937,-402.24254 0,-117.9703 -64.1471,-243.4929 -270.8971,-243.4929 z"
           id="path3877"
           inkscape:connector-curvature="0"
           sodipodi:nodetypes="ssccccss" />
        <path
           style="fill:#333333;stroke:#54d200;stroke-width:3;stroke-linecap:round;stroke-linejoin:round;stroke-miterlimit:4;stroke-opacity:1;stroke-dasharray:none"
           d="m 1367.8465,-1298.3206 c -198.0321,0 -270.4008,119.1055 -266.536,235.503 -2.8666,305.40424 259.2761,374.1563 259.2761,374.1563 l -1,60.03949 14.8094,0.0644 -1,-60.10385 c 0,0 251.3727,-86.526 251.3727,-374.15634 0,-129.0637 -69.2686,-235.503 -256.9222,-235.503 z"
           id="path3881"
           inkscape:connector-curvature="0"
           sodipodi:nodetypes="scccccss" />
        <path
           style="fill:none;stroke:#54d200;stroke-width:3;stroke-linecap:round;stroke-linejoin:round;stroke-miterlimit:4;stroke-opacity:1;stroke-dasharray:none"
           d="m 867,2835.2126 989,0 -1,0"
           id="path3885"
           inkscape:connector-curvature="0"
           transform="translate(0,-2196.8505)" />
        <path
           style="fill:none;stroke:#54d200;stroke-width:3;stroke-linecap:round;stroke-linejoin:round;stroke-miterlimit:4;stroke-opacity:1;stroke-dasharray:none"
           d="m 1065.3333,2605.8793 c 95.0902,-73.681 112.6914,-97.3378 164.6667,-190 l 20,0 c -47.3068,90.1187 -81.4576,132.4069 -164,190 z"
           id="path3903"
           inkscape:connector-curvature="0"
           transform="translate(0,-2196.8505)"
           sodipodi:nodetypes="ccccc" />
        <path
           sodipodi:nodetypes="ccccc"
           inkscape:connector-curvature="0"
           id="path3905"
           d="m 1645.6826,408.01633 c -94.0768,-72.89574 -111.4904,-96.30041 -162.9117,-187.97506 l -19.7869,0 c 46.8026,89.15825 80.5895,130.99576 162.2522,187.97506 z"
           style="fill:none;stroke:#54d200;stroke-width:2.96802735;stroke-linecap:round;stroke-linejoin:round;stroke-miterlimit:4;stroke-opacity:1;stroke-dasharray:none" />
        <path
           style="fill:none;stroke:#54d200;stroke-width:2;stroke-linecap:round;stroke-linejoin:round;stroke-miterlimit:4;stroke-opacity:1;stroke-dasharray:16, 16;stroke-dashoffset:0"
           d="m 1066,409.0288 56.6667,223.3333"
           id="path3907"
           inkscape:connector-curvature="0" />
        <path
           style="fill:none;stroke:#54d200;stroke-width:2;stroke-linecap:round;stroke-linejoin:round;stroke-miterlimit:4;stroke-opacity:1;stroke-dasharray:16, 16;stroke-dashoffset:0"
           d="m 1644,409.0288 -60,226.6667"
           id="path3909"
           inkscape:connector-curvature="0" />
        <path
           style="fill:none;stroke:#54d200;stroke-width:2;stroke-linecap:round;stroke-linejoin:round;stroke-miterlimit:4;stroke-opacity:1;stroke-dasharray:16, 16;stroke-dashoffset:0"
           d="m 1247.3333,219.0288 220,0"
           id="path3911"
           inkscape:connector-curvature="0" />
        <path
           style="fill:none;stroke:#54d200;stroke-width:3;stroke-linecap:round;stroke-linejoin:round;stroke-miterlimit:4;stroke-opacity:1;stroke-dasharray:none"
           d="m 630,2959.2126 c 0,0 46.66667,36.6667 186.66667,16.6667"
           id="path3913"
           inkscape:connector-curvature="0"
           transform="translate(0,-2196.8505)" />
        <path
           style="fill:none;stroke:#54d200;stroke-width:3;stroke-linecap:round;stroke-linejoin:round;stroke-miterlimit:4;stroke-opacity:1;stroke-dasharray:none"
           d="m 2090,2949.2126 c 0,0 -4,55.6667 -184,32.3334"
           id="path3917"
           inkscape:connector-curvature="0"
           transform="translate(0,-2196.8505)"
           sodipodi:nodetypes="cc" />
        <rect
           style="fill:#54d200;fill-opacity:1;stroke:none"
           id="rect3919"
           width="16.666666"
           height="63.333332"
           x="1358"
           y="-591.63788" />
      </g>
      <g
         id="g4051">
        <path
           sodipodi:nodetypes="ccscsccccccsccsc"
           inkscape:connector-curvature="0"
           id="path3940"
           d="m 3039.4106,-948.47736 -328.5834,75.52722 c 0,0 13.9958,89.37381 13.9958,134.06072 0,44.68687 -13.9958,134.06071 -13.9958,134.06071 0,0 13.7737,337.35479 20.6605,506.03217 6.8868,168.67739 20.6604,506.03217 20.6604,506.03217 l 0,90.63262 983.7038,0 0,-90.63262 20.6604,-506.03217 20.6604,-506.03217 c 0,0 -9.9969,-89.37384 -9.9969,-134.06071 0,-44.68691 9.9969,-134.06072 9.9969,-134.06072 l -316.5862,-75.52722 c 0,0 -110.4394,31.06806 -194.5931,32.47673 -95.1696,1.59306 -226.5828,-32.47673 -226.5828,-32.47673 z"
           style="fill:#1a1a1a;stroke:#54d200;stroke-width:5.32110596;stroke-linecap:round;stroke-linejoin:round;stroke-miterlimit:4;stroke-opacity:1;stroke-dasharray:none" />
        <path
           sodipodi:nodetypes="cscssssccsc"
           inkscape:connector-curvature="0"
           id="path3942"
           d="m 2709.9779,-873.82292 c 0,0 -60.2898,15.17667 -113.0615,64.79495 -52.7717,49.61829 -84.4347,1268.81055 -84.4347,1268.81055 0,0 11.9258,39.00656 10.5543,85.05992 -1.0554,35.4416 129.2227,46.50941 166.4068,10.27812 0,0 2.8145,-32.25197 15.4797,-84.35117 7.5316,-30.98193 27.6478,-298.01491 29.2003,-400.84489 1.4072,-93.21142 -5.9808,-183.23322 -5.9808,-183.23322 l -16.5529,-491.42281 c 0,0 12.9335,-93.50739 13.1094,-134.85597 0.1759,-41.34857 -14.7206,-134.23548 -14.7206,-134.23548 z"
           style="fill:#1a1a1a;stroke:#54d200;stroke-width:5.29667091;stroke-linecap:butt;stroke-linejoin:miter;stroke-miterlimit:4;stroke-opacity:1;stroke-dasharray:none" />
        <path
           style="fill:#1a1a1a;stroke:#54d200;stroke-width:5.29668903;stroke-linecap:butt;stroke-linejoin:miter;stroke-miterlimit:4;stroke-opacity:1;stroke-dasharray:none"
           d="m 3777.6768,-873.18453 c 0,0 61.2363,16.16327 113.9579,65.73472 52.7215,49.57144 84.3544,1267.61275 84.3544,1267.61275 0,0 -11.9145,38.96973 -10.5443,84.97963 1.0543,35.40813 -129.0996,46.46549 -166.2486,10.26841 0,0 -2.8117,-32.22153 -15.4649,-84.27153 -7.5244,-30.95269 -27.6216,-297.7336 -29.1726,-400.4665 -1.4058,-93.12342 5.9752,-183.06024 5.9752,-183.06024 l 19.8641,-490.94001 c 0,0 -11.2529,-99.43235 -11.4287,-140.74187 -0.1758,-41.30953 8.7075,-129.11536 8.7075,-129.11536 z"
           id="path3944"
           inkscape:connector-curvature="0"
           sodipodi:nodetypes="cscssssccsc" />
        <path
           sodipodi:nodetypes="cssssscsc"
           inkscape:connector-curvature="0"
           id="path3946"
           d="m 3039.4262,-948.86776 c 0,0 -99.1761,-255.08714 -92.1769,-385.70794 4.923,-91.8753 28.8997,-195.2756 95.1769,-259.0929 53.4004,-51.4185 137.3742,-69.1619 211.5044,-68.739 71.6207,0.4085 152.0415,18.9981 203.5732,68.739 66.4203,64.112 92.7689,166.9165 97.8207,259.0929 7.1701,130.8284 -94.8207,385.70794 -94.8207,385.70794 0,0 -141.3592,35 -210.5388,35 -69.1796,0 -210.5388,-35 -210.5388,-35"
           style="fill:#1a1a1a;stroke:#54d200;stroke-width:5;stroke-linecap:round;stroke-linejoin:round;stroke-miterlimit:4;stroke-opacity:0.94117647;stroke-dasharray:none" />
        <path
           inkscape:connector-curvature="0"
           id="path3952"
           d="m 2751,350.3621 989,0 -1,0"
           style="fill:none;stroke:#54d200;stroke-width:3;stroke-linecap:round;stroke-linejoin:round;stroke-miterlimit:4;stroke-opacity:1;stroke-dasharray:none" />
        <path
           inkscape:connector-curvature="0"
           id="path3964"
           d="m 2514,474.3621 c 0,0 46.6667,36.6667 186.6667,16.6667"
           style="fill:none;stroke:#54d200;stroke-width:3;stroke-linecap:round;stroke-linejoin:round;stroke-miterlimit:4;stroke-opacity:1;stroke-dasharray:none" />
        <path
           sodipodi:nodetypes="cc"
           inkscape:connector-curvature="0"
           id="path3966"
           d="m 3974,464.3621 c 0,0 -4,55.6667 -184,32.3334"
           style="fill:none;stroke:#54d200;stroke-width:3;stroke-linecap:round;stroke-linejoin:round;stroke-miterlimit:4;stroke-opacity:1;stroke-dasharray:none" />
      </g>
      <flowRoot
         transform="translate(198,-2196.8505)"
         style="font-size:40px;font-style:normal;font-weight:normal;line-height:125%;letter-spacing:0px;word-spacing:0px;fill:#000000;fill-opacity:1;stroke:none;font-family:Sans"
         id="flowRoot4068"
         xml:space="preserve"><flowRegion
           id="flowRegion4070"><rect
             y="2854.2126"
             x="955"
             height="250"
             width="800"
             id="rect4072" /></flowRegion><flowPara
           style="font-size:144px"
           id="flowPara4074">Front</flowPara></flowRoot>      <flowRoot
         xml:space="preserve"
         id="flowRoot4076"
         style="font-size:40px;font-style:normal;font-weight:normal;line-height:125%;letter-spacing:0px;word-spacing:0px;fill:#000000;fill-opacity:1;stroke:none;font-family:Sans"
         transform="translate(2149,-2196.8505)"><flowRegion
           id="flowRegion4078"><rect
             id="rect4080"
             width="800"
             height="250"
             x="955"
             y="2854.2126" /></flowRegion><flowPara
           id="flowPara4082"
           style="font-size:144px">Back</flowPara></flowRoot>    </g>
    <path
       id="path3378"
       d="m 1648.3338,-647.16952 c -44.8421,0 -81.1992,36.35324 -81.1992,81.19825 0,44.846 36.3581,81.2002 81.1992,81.2002 44.8402,0 81.1983,-36.3542 81.1983,-81.2002 0,-44.84501 -36.3581,-81.19825 -81.1983,-81.19825 z m 0.3883,11.24475 c 38.6373,0 69.9846,31.32203 69.9846,69.9535 0,38.63731 -31.3512,69.95449 -69.9846,69.95449 -20.8626,0 -39.5828,-9.14315 -52.3981,-23.62716 5.269,-4.0906 14.085,-3.09273 24.9424,-1.85507 5.2031,0.59215 11.135,1.27066 17.2563,1.40658 17.1041,0.099 35.5078,-3.02183 46.8661,-7.98605 7.3425,-3.22086 12.0446,-5.34085 14.984,-8.01615 1.0599,-0.86879 1.6153,-2.32096 2.1822,-3.82755 l 0.3882,-1.01631 c 0.4757,-1.21728 1.1601,-3.8353 1.4658,-5.26419 0.1369,-0.62513 0.2048,-1.29788 -0.2388,-1.64442 l -1.5851,0.299 c -4.9847,2.98883 -17.4351,8.68012 -29.1011,8.9131 -14.4549,0.30286 -43.587,-14.55196 -46.6253,-16.11964 l -0.299,-0.3592 c -0.728,-1.73855 -5.0885,-12.08829 -6.0117,-14.2656 20.9704,13.80936 38.3559,21.45278 51.6809,22.63996 14.815,1.31627 26.3704,-6.77269 31.3133,-10.22841 0.9648,-0.65813 1.7006,-1.17458 2.0035,-1.28619 l 0.3281,-0.53877 c -0.8193,-5.20594 -8.5927,-30.40467 -14.4452,-36.4571 -1.623,-1.6599 -2.9121,-3.27615 -5.532,-4.81472 -21.1849,-12.34749 -71.4873,-19.78411 -73.8423,-20.12775 l -0.3892,0.12039 -0.1495,0.32906 c 0,0 -0.1883,10.44487 -0.2097,11.60393 -1.7259,-0.5708 -7.0784,-2.32391 -14.7441,-4.42647 10.0041,-12.37759 25.3336,-23.35926 52.1603,-23.35926 z m 18.4834,37.02591 c 0.3562,-0.01 0.7163,-0.0127 1.0764,0 11.867,0.42613 21.1907,10.4216 20.785,22.2808 -0.2107,5.73691 -2.6296,11.03798 -6.8193,14.95386 -4.2012,3.93623 -9.6615,5.98831 -15.4304,5.80195 -11.8476,-0.44262 -21.1713,-10.43809 -20.7869,-22.2808 0.2028,-5.74566 2.6345,-11.08068 6.8493,-14.98394 3.9344,-3.68966 8.9704,-5.69128 14.3259,-5.77187 z m -0.5689,6.34072 c -3.4567,0.21066 -6.7173,1.61426 -9.2713,4.00807 -2.9102,2.73161 -4.6284,6.431 -4.7545,10.43809 -0.2748,8.27824 6.2038,15.24507 14.4753,15.55182 4.0197,0.12329 7.8298,-1.28424 10.7651,-4.00808 2.9277,-2.74519 4.6313,-6.47758 4.7566,-10.46723 0.2766,-8.29183 -6.2321,-15.23245 -14.5054,-15.52267 -0.4999,-0.0184 -0.9727,-0.0301 -1.4658,0 z m 3.9479,7.50652 c 3.676,0 6.6397,1.99775 6.6397,4.45657 0,2.44716 -2.9637,4.45654 -6.6397,4.45654 -3.6877,0 -6.6697,-2.01327 -6.6697,-4.45654 0,-2.45882 2.982,-4.45657 6.6697,-4.45657 z"
       inkscape:connector-curvature="0"
       style="fill:#54d200;fill-opacity:1" />
    <g
       id="use3850"
       style="opacity:1;fill:#54d200;fill-opacity:1;display:inline;"
       transform="matrix(1.0603353,0,0,1.1817156,1159.8239,-926.76426)">
      <path
         style="fill:#54d200;fill-opacity:1;fill-rule:evenodd"
         inkscape:connector-curvature="0"
         id="path3086"
         d="m 2115.0084,644.27389 c -1.9491,-0.0702 -3.7969,0.61837 -5.2092,1.94286 -1.4123,1.32449 -2.2454,3.1187 -2.3042,5.06156 -0.1352,4.01477 3.0082,7.39259 7.0138,7.54021 1.9479,0.0589 3.8051,-0.62973 5.2256,-1.95421 1.4185,-1.33069 2.234,-3.12593 2.2959,-5.06157 0.1353,-4.01373 -3.0072,-7.38639 -7.0219,-7.52885 z m 1.1892,7.95314 c -1.7838,0 -3.225,-0.96523 -3.225,-2.1483 0,-1.19441 1.4412,-2.15448 3.225,-2.15448 1.7839,0 3.2292,0.96007 3.2292,2.15448 0,1.18307 -1.4463,2.1483 -3.2292,2.1483 z m 15.9827,9.29932 c 0.4739,-0.3128 0.8217,-0.57192 0.9684,-0.62972 l 0.1579,-0.24674 c -0.4005,-2.51891 -4.1552,-14.73252 -6.9951,-17.66952 -0.7825,-0.80005 -1.4092,-1.58875 -2.6779,-2.33101 -10.2738,-5.98654 -34.6474,-9.59972 -35.7892,-9.7649 l -0.194,0.0537 -0.074,0.17653 c 0,0 -0.094,5.05021 -0.1084,5.61489 -2.489,-0.83619 -20.5848,-6.68129 -37.5483,-7.26973 -14.3856,-0.50585 -35.3359,-2.36612 -63.0965,14.70359 l -0.8207,0.51101 c -13.0612,8.14723 -22.0787,18.19395 -26.7924,29.86558 -1.4783,3.67307 -3.4665,11.96069 -1.4958,19.75898 0.8485,3.40879 2.4311,6.83409 4.565,9.90014 4.8231,6.92803 12.9166,11.52504 21.6306,12.30136 12.3045,1.10048 21.6213,-4.42564 24.9351,-14.77381 2.2784,-7.13966 0,-17.61584 -8.7346,-22.96026 -7.1046,-4.35028 -14.7439,-3.3613 -19.1757,-0.42946 -3.8445,2.54885 -6.0216,6.50993 -5.9834,10.86021 0.089,7.71674 6.736,11.81823 11.5157,11.83062 1.3885,0 2.7832,-0.24157 4.3554,-0.75362 0.5596,-0.17033 1.086,-0.38196 1.6662,-0.74121 l 0.1817,-0.10633 0.1146,-0.0764 -0.038,0.0227 c 1.0891,-0.74226 1.7447,-1.94906 1.7447,-3.24361 0,-0.35306 -0.05,-0.71128 -0.1508,-1.07158 -0.5647,-1.95421 -2.4951,-3.13624 -4.4958,-2.77182 l -0.2705,0.064 -0.3654,0.11149 -0.5307,0.18272 c -1.1005,0.27048 -1.9242,0.29422 -2.1008,0.30042 -0.5595,-0.0361 -3.3107,-0.85995 -3.3107,-3.87335 l 0,-0.0413 c 0,-1.10667 0.444,-1.88298 0.6886,-2.30728 0.8558,-1.34204 3.1992,-2.65931 6.3654,-2.38367 4.1552,0.35926 7.151,2.49001 9.1351,6.50994 1.8418,3.73706 1.3596,8.33407 -1.2418,11.70156 -2.584,3.33652 -7.1841,4.75496 -13.3017,4.09632 -6.1693,-0.68237 -11.3836,-4.23258 -14.3052,-9.7587 -2.8585,-5.40223 -3.0144,-11.80687 -0.4036,-16.727 6.2446,-11.78932 18.0401,-11.66647 24.5077,-10.54845 9.5709,1.66001 20.4589,10.48857 24.321,20.68293 0.6235,1.6249 0.9414,2.91326 1.2191,4.09116 l 0.4012,18.18241 10.7404,-3.35925 0.4386,-0.0901 -0.1278,-0.4742 -0.013,0.0171 c -0.068,-3.51855 0.017,-10.66095 -0.2324,-13.68675 -0.2055,-2.68511 -0.6236,-7.30557 3.0773,-10.94871 1.4371,-1.42359 3.6267,-2.6944 5.3558,-3.10114 7.087,-1.73124 15.3974,-0.53682 23.2545,8.5581 4.0675,4.69714 7.6068,14.29308 8.602,15.25213 l 0.5175,0.48347 0.1699,0.10076 c 0.3262,0.17756 6.1721,0.92675 6.1721,0.92675 l 3.2754,-2.96653 0.147,0.0254 c -0.088,-0.10013 -5.6472,-10.28828 -4.1751,-19.08897 1.1593,-7.00959 6.7381,-6.3747 14.4548,-5.50341 2.5189,0.29422 5.3867,0.62354 8.3558,0.68961 8.2897,0.0526 17.2194,-1.47831 22.7228,-3.88573 3.5605,-1.54747 5.8327,-2.57775 7.2563,-3.87231 0.512,-0.42429 0.7773,-1.11286 1.054,-1.85408 l 0.1941,-0.48932 c 0.2302,-0.60083 0.5689,-1.86647 0.7175,-2.56021 0.06,-0.30557 0.095,-0.62869 -0.1229,-0.80006 l -0.7618,0.14143 c -2.4168,1.45456 -8.458,4.20885 -14.1059,4.32653 -7.0128,0.14143 -21.1299,-7.05191 -22.6021,-7.81687 l -0.1414,-0.16414 c -0.3469,-0.84755 -2.4662,-5.85646 -2.9195,-6.91565 10.1655,6.69782 18.5966,10.39979 25.0508,10.97067 7.1851,0.64006 12.7855,-3.28077 15.1774,-4.95729 z m -27.8691,-10.26455 c 0.1033,-2.78423 1.2688,-5.36817 3.3046,-7.26355 2.0368,-1.90154 4.6941,-2.88433 7.4803,-2.79555 5.745,0.20543 10.2594,5.05534 10.0623,10.79412 -0.1085,2.78422 -1.274,5.36817 -3.3046,7.25735 -2.0368,1.91293 -4.6879,2.89571 -7.4865,2.80177 -5.7388,-0.21163 -10.2481,-5.0502 -10.0561,-10.79414 z"
         clip-rule="evenodd"
         sodipodi:nodetypes="cscccccsssssccccccccccccccccccccccccccsccccccssccccccccccccccccccccccccccccccccccccccccccccccccc" />
      <path
         style="fill:#54d200;fill-opacity:1"
         d="m 2269.7552,921.00048 c 0.7836,-94.73993 -61.1408,-178.64132 -149.4232,-202.42989 -74.2029,-19.99473 -151.6644,11.09626 -189.7476,78.07604 -22.9944,43.92229 -21.5763,99.14042 3.3198,138.82653 36.8297,56.92108 104.9049,75.99844 156.5121,43.86288 60.1592,-37.4605 64.993,-119.49013 8.6824,-153.3747 -14.1294,-8.50222 -35.394,-12.90463 -48.6556,-10.05256 -38.7305,8.32916 -66.5851,48.21802 -52.908,81.51003 4.0991,9.97761 12.209,25.32756 31.0436,32.06822 10.0727,-45.37505 38.503,5.66679 61.8075,-28.37043 -9.0121,33.6333 -52.5321,45.15787 -80.7377,22.30213 -11.4367,-9.26737 -19.6996,-27.98008 -20.5162,-41.82691 -1.9651,-33.33567 24.8144,-65.53222 60.3325,-72.57192 29.1415,-5.03144 59.0894,10.17691 76.5302,29.7491 24.7929,28.25485 29.3151,70.8536 11.1271,104.71722 -25.6537,47.76485 -80.9325,72.05048 -132.694,58.28558 -16.2062,-4.30935 -39.9231,-18.03968 -55.3986,-32.07815 -20.6936,-18.77183 -37.196,-48.23155 -42.7435,-76.31363 -6.583,-33.32373 -2.9674,-62.12604 11.5722,-92.05586 24.7748,-50.99914 70.1935,-87.56252 125.146,-96.83017 48.3483,-8.15382 94.5928,0.8405 130.7212,23.21627 65.9049,36.23503 86.0407,76.68253 106.4844,145.76925 z"
         id="path3088"
         inkscape:connector-curvature="0"
         sodipodi:nodetypes="csccssssccsccccsssssccc" />
      <path
         style="fill:#54d200;fill-opacity:1"
         d="m 2364.0975,240.64212 c -106.8331,51.77717 -132.9102,164.41847 -108.1628,261.81723 8.3872,32.23305 15.8446,55.89153 34.8669,110.7082 33.5278,96.03224 42.9186,182.07818 27.8132,268.09678 C 2307.5294,943.976 2286.9935,1005.3884 2252.0924,1080 l 24.824,0 c 105.907,-259.2094 61.3781,-361.10143 -8.5906,-569.54652 16.6548,-53.45127 57.0982,-70.41294 83.9246,-68.51427 7.3405,59.05019 74.6036,10.79414 94.2337,101.1791 2.4262,-114.09211 -130.1652,-151.18342 -181.9833,-45.21079 -10.9819,-39.3113 6.8233,-129.11174 85.1783,-125.77065 -58.4303,-5.03577 -86.1607,36.66322 -94.1602,80.45935 -9.824,-103.62115 51.9289,-182.86332 108.5786,-211.9541 z"
         id="path3090"
         inkscape:connector-curvature="0"
         sodipodi:nodetypes="ccccccccccccc" />
      <path
         sodipodi:nodetypes="csccccccccsccszccc"
         inkscape:connector-curvature="0"
         id="path3092"
         d="m 2249.3771,0 c -43.8769,64.955082 -95.8667,159.93204 -91.3771,238.88401 9.0391,158.95671 119.4228,392.65905 123.7399,541.31749 -0.1661,99.42541 -23.5248,236.3903 -93.6564,299.7985 l 41.6098,0 c 57.2373,-116.56159 76.3247,-230.95108 66.8495,-332.37923 -14.7001,-134.35039 -106.4754,-343.39474 -124.7154,-485.60704 -2.6787,-54.36885 51.7626,-143.92677 100.3452,-152.54256 -48.0817,8.88599 -90.4074,67.79967 -102.8765,117.5541 1.099,-56.35538 9.1672,-73.1723 25.7039,-116.89197 31.7174,-60.122123 104.9785,-83.563251 144.6921,-71.095588 33.2427,10.436199 75.9373,72.577978 7.3286,123.471288 -34.6021,-24.80589 -46.868,13.27513 -93.9837,-2.17412 27.1667,30.07032 83.2624,22.8553 113.2731,-9.98191 43.2342,-47.30612 11.0823,-102.025052 -27.1388,-114.778099 -38.2212,-12.753048 -93.829,8.6671 -130.1793,45.691584 C 2222.0821,55.254804 2247.1772,13.678465 2257.3771,0 z"
         style="fill:#54d200;fill-opacity:1" />
    </g>
    <flowRoot
       xml:space="preserve"
       id="flowRoot4316"
       style="fill:#54d200;stroke:none;stroke-opacity:1;stroke-width:1px;stroke-linejoin:miter;stroke-linecap:butt;fill-opacity:1;font-family:Sans;font-style:normal;font-weight:normal;font-size:40px;line-height:125%;letter-spacing:0px;word-spacing:0px"><flowRegion
         id="flowRegion4318"><rect
           id="rect4320"
           width="515"
           height="195"
           x="2925"
           y="1644.2126"
           style="fill:#54d200;fill-opacity:1" /></flowRegion><flowPara
         id="flowPara4322"></flowPara></flowRoot>    <flowRoot
       xml:space="preserve"
       id="flowRoot4324"
       style="font-size:40px;font-style:normal;font-weight:normal;line-height:125%;letter-spacing:0px;word-spacing:0px;fill:#000000;fill-opacity:1;stroke:none;font-family:Sans"
       transform="matrix(0.98369209,-0.17986069,0.17986069,0.98369209,646.68397,-1589.5202)"><flowRegion
         id="flowRegion4326"><rect
           id="rect4328"
           width="835"
           height="370"
           x="2940"
           y="1494.2126" /></flowRegion><flowPara
         id="flowPara4330"
         style="font-size:48px;fill:#54d200;fill-opacity:1">open</flowPara></flowRoot>    <flowRoot
       xml:space="preserve"
       id="flowRoot4332"
       style="fill:black;stroke:none;stroke-opacity:1;stroke-width:1px;stroke-linejoin:miter;stroke-linecap:butt;fill-opacity:1;font-family:Sans;font-style:normal;font-weight:normal;font-size:40px;line-height:125%;letter-spacing:0px;word-spacing:0px"><flowRegion
         id="flowRegion4334"><rect
           id="rect4336"
           width="124"
           height="94"
           x="676"
           y="1491.2126" /></flowRegion><flowPara
         id="flowPara4338"></flowPara></flowRoot>    <text
       xml:space="preserve"
       style="font-size:40px;font-style:normal;font-weight:normal;line-height:125%;letter-spacing:0px;word-spacing:0px;fill:#000000;fill-opacity:1;stroke:none;font-family:Sans"
       x="599.9494"
       y="-656.15344"
       id="text4340"
       sodipodi:linespacing="125%"
       transform="matrix(0.99723075,0.07436952,-0.07436952,0.99723075,0,0)"><tspan
         sodipodi:role="line"
         id="tspan4342"
         x="599.9494"
         y="-656.15344"
         style="fill:#54d200;fill-opacity:1">SUSE</tspan></text>
  </g>
</svg>
