<?xml version="1.0" encoding="UTF-8" standalone="no"?>
<!-- Generator: Adobe Illustrator 15.0.0, SVG Export Plug-In . SVG Version: 6.00 Build 0)  -->

<svg
   xmlns:dc="http://purl.org/dc/elements/1.1/"
   xmlns:cc="http://creativecommons.org/ns#"
   xmlns:rdf="http://www.w3.org/1999/02/22-rdf-syntax-ns#"
   xmlns:svg="http://www.w3.org/2000/svg"
   xmlns="http://www.w3.org/2000/svg"
   xmlns:sodipodi="http://sodipodi.sourceforge.net/DTD/sodipodi-0.dtd"
   xmlns:inkscape="http://www.inkscape.org/namespaces/inkscape"
   version="1.1"
   id="svg4578"
   sodipodi:version="0.32"
   inkscape:version="0.48.2 r9819"
   sodipodi:docname="T_Shirt_inside2.svg"
   inkscape:output_extension="org.inkscape.output.svg.inkscape"
   x="0px"
   y="0px"
   width="1679"
   height="1050"
   viewBox="72.8 75.424 1679.0001 1050"
   enable-background="new 72.8 75.424 248.4 157.156"
   xml:space="preserve"
   inkscape:export-filename="/home/victorhck/Imágenes/Inkscape_imagenes/squematic_geecko.png"
   inkscape:export-xdpi="90"
   inkscape:export-ydpi="90"><metadata
   id="metadata3245"><rdf:RDF><cc:Work
       rdf:about=""><dc:format>image/svg+xml</dc:format><dc:type
         rdf:resource="http://purl.org/dc/dcmitype/StillImage" /><dc:title></dc:title></cc:Work></rdf:RDF></metadata><defs
   id="defs3243" />
<sodipodi:namedview
   inkscape:window-y="0"
   inkscape:window-x="-4"
   inkscape:window-height="991"
   inkscape:window-width="1680"
   inkscape:showpageshadow="false"
   inkscape:current-layer="layer1"
   inkscape:document-units="px"
   inkscape:pageshadow="2"
   inkscape:pageopacity="0.0"
   width="400px"
   height="300px"
   id="base"
   objecttolerance="10"
   guidetolerance="10"
   gridtolerance="10000"
   borderopacity="1"
   inkscape:cy="504.40123"
   bordercolor="#d6d6d6"
   inkscape:cx="244.78559"
   pagecolor="#ffffff"
   inkscape:zoom="0.85455736"
   borderlayer="true"
   showgrid="false"
   inkscape:snap-smooth-nodes="true"
   inkscape:object-nodes="true"
   inkscape:object-paths="true"
   inkscape:window-maximized="1">
	</sodipodi:namedview>
<g
   id="layer1"
   inkscape:groupmode="layer"
   inkscape:label="Layer 1"
   style="display:inline"
   transform="translate(0,892.84403)">
	
<g
   transform="matrix(6.7576037,0,0,6.7576037,-257.27475,-4377.5092)"
   id="g3272"
   style="stroke:#fffff9;fill:#000000;fill-opacity:1;stroke-opacity:1"><path
     inkscape:connector-curvature="0"
     style="fill:#000000;stroke:#fffff9;stroke-width:2;stroke-linecap:butt;stroke-linejoin:miter;stroke-miterlimit:4;stroke-opacity:1;stroke-dasharray:none;fill-opacity:1"
     d="m 67.613793,570.41735 c 24.468075,-13.10042 45.356037,-11.77452 66.041377,-23.06206 11.09637,2.43104 19.357,1.4592 26.99311,-0.26207 23.42862,10.78637 44.02825,12.51579 66.04138,23.5862 -1.82964,11.55946 -5.85886,21.54778 -12.57932,29.6138 -8.15361,-4.36994 -15.86829,-6.10632 -23.32413,-6.28966 l -0.52414,78.62069 c -32.1215,5.98273 -59.34716,3.39775 -85.95862,-0.26207 l -0.26207,-78.09655 c -9.370679,-0.2722 -16.500436,3.19047 -23.848277,6.28966 -7.067215,-9.63539 -10.36885,-19.80873 -12.57931,-30.13794 z"
     id="path3274-1"
     sodipodi:nodetypes="ccccccccccc" /><path
     inkscape:connector-curvature="0"
     style="fill:#000000;stroke:#fffff9;stroke-width:1px;stroke-linecap:butt;stroke-linejoin:miter;stroke-opacity:1;fill-opacity:1"
     d="m 71.282759,569.10701 c 2.214678,10.74851 6.083496,20.78686 13.627586,29.35172"
     id="path3276"
     sodipodi:nodetypes="cc" /><path
     inkscape:connector-curvature="0"
     style="fill:#000000;stroke:#fffff9;stroke-width:1px;stroke-linecap:butt;stroke-linejoin:miter;stroke-opacity:1;fill-opacity:1"
     d="m 105.35172,668.16908 c 28.12874,4.60443 56.25747,5.59295 84.38621,-0.26207"
     id="path3278"
     sodipodi:nodetypes="cc" /><path
     inkscape:connector-curvature="0"
     style="fill:#000000;stroke:#fffff9;stroke-width:1px;stroke-linecap:butt;stroke-linejoin:miter;stroke-opacity:1;fill-opacity:1"
     d="m 128.66915,549.91239 c 8.00755,6.19134 27.90788,6.57541 36.62167,-0.20184"
     id="path3284"
     sodipodi:nodetypes="cc" /><path
     inkscape:connector-curvature="0"
     style="fill:#000000;stroke:#fffff9;stroke-width:1px;stroke-linecap:butt;stroke-linejoin:miter;stroke-opacity:1;fill-opacity:1"
     d="m 104.16182,558.28077 c 2.57594,9.88539 6.83803,21.48891 -0.26207,35.37931"
     id="path3286"
     sodipodi:nodetypes="cc" /><path
     inkscape:connector-curvature="0"
     sodipodi:nodetypes="cc"
     id="path3288"
     d="m 190.37521,558.48262 c -2.57594,9.88539 -6.83803,21.48891 0.26207,35.37931"
     style="fill:#000000;stroke:#fffff9;stroke-width:1px;stroke-linecap:butt;stroke-linejoin:miter;stroke-opacity:1;fill-opacity:1" /><path
     inkscape:connector-curvature="0"
     sodipodi:nodetypes="cc"
     id="path3290"
     d="m 223.28276,568.84494 c -2.21468,10.74851 -6.0835,20.78686 -13.62759,29.35172"
     style="fill:#000000;stroke:#fffff9;stroke-width:1px;stroke-linecap:butt;stroke-linejoin:miter;stroke-opacity:1;fill-opacity:1" /></g><path
   style="fill:#000000;fill-opacity:1;fill-rule:nonzero;stroke:none"
   id="path3974"
   d="m 788.38712,-18.542014 c 0.01,0.11872 0.1087,0.28004 0.017,0.35617 -4.5007,3.75292 4.5977,-6.28868 2.0187,0.77451 -0.4249,1.1636 -4.7248,0.52459 -3.5799,0.99741 4.2872,1.77041 8.783,-1.48687 4.7334,1.08974 0.2636,1.46535 3.8285,0.27794 3.8083,1.663 -0.013,0.92064 -2.9014,0.54852 -2.4193,1.33296 0.6779,1.10294 2.6526,0.25093 3.7819,0.88401 0.366,0.20518 0.026,0.83877 0.039,1.25815 0.8187,0.3746096 1.6374,0.7492096 2.4562,1.1238196 0.1932,1.5884 2.9185,1.19877 3.2392,2.53098 0.1541,0.64041 -1.6428,0.9926 -1.2559,1.52568 0.6789,0.93534 2.2709,0.5976 3.2467,1.21705 2.5188,1.59911 -0.652,2.37942 -1.7303,3.05967002 16.3987,3.29971998 3.479,-1.21180002 4.9474,2.69432998 0.271,0.72103 1.5059,0.70675 1.8367,1.40241 0.5018,1.05538 -1.7309,2.78736 -1.2143,3.18639 1.279,0.98792 3.1018,0.90892 4.6528,1.36338 1.2297,1.54321 -1.6506,2.1840804 -1.3394,3.3437104 0.2247,0.83731 1.4037,1.02008 2.0684,1.57664 0.6175,0.51706 1.3354,0.96498 1.7739,1.64059 0.1063,0.16383 0.743,3.30855 0.7794,3.48315 2.7093,3.15849 0.6939,0.22446 1.8346,3.54367 0.2166,0.63011 0.937,1.12385 0.8923,1.78863 -0.049,0.73384 -1.212,1.15747 -1.1396,1.8894 0.047,0.47708 3.0748,3.33943 3.288,3.54897 -0.3092,0.61133 -1.3411,1.28779 -0.9276,1.83399 0.779,1.02893 2.5322,0.77547 3.5262,1.59854 0.4418,0.36582 0.051,1.22975 0.4197,1.66878 0.5745,0.68334 1.7175,0.75221 2.2302,1.48304 0.2891,0.41215 -0.089,1.00293 -0.1343,1.5044 0.6403,0.42814 1.2806,0.85629 1.9208,1.28444 -1.1551,0.5228 -2.8695,0.44922 -3.4655,1.56841 -0.3637,0.68314 1.3303,0.81414 2.061,1.06932 0.085,0.0295 5.4388,1.28974 5.9175,1.5256 0.2603,0.12827 0.2764,0.51039 0.4146,0.76559 0.6617,0.13798 1.3234,0.27597 1.9851,0.41395 0.9257,-1.85362 2.993,1.12535 4.0816,0.37655 0.163,-0.11213 -0.1151,-0.51489 0.068,-0.58962 0.8275,-0.33761 6.2553,-0.86494 6.3684,-0.87769 -0.145,-0.37403 -0.7956,-0.94658 -0.4349,-1.12208 1.2751,-0.62041 2.8978,-0.1343 4.1949,-0.70734 0.3943,-0.17418 0.1184,-0.86095 0.269,-1.26479 0.1752,-0.46965 0.3588,-0.96349 0.6995,-1.33123 0.9152,-0.98796 3.184,-2.1519 4.2347,-2.75454 1.3688,-1.95839 5.5605,-2.21525 5.4959,-5.12273 -0.017,-0.78222 -1.5045,-1.57688 -0.9623,-2.14091 5.489,-5.70944 4.9988,1.35989 4.8045,-4.27479 0.7525,-0.79033 2.0901,-1.29263 2.2575,-2.37098 -1.4485,-2.56284 -2.0177,-2.35736 -1.1602,-5.25704 0.3179,-1.07495 2.6799,-5.34429 2.6369,-5.47723 -0.4415,-1.3629804 -2.136,-1.9100104 -3.204,-2.8650104 3.965,-5.8142 0.3492,0.175 2.6414,-5.64354 0.3931,-0.99777 1.6914,-1.78342998 1.5106,-2.84047998 -0.209,-1.22226002 -1.814,-1.72884002 -2.4718,-2.77998002 -1.5807,-2.52572 -0.9315,-2.78654 -0.1569,-5.33627 -0.5407,-1.7075496 -0.9488,-3.2755496 -1.8017,-4.8663496 -0.4143,-0.77281 -1.0563,-1.41307 -1.4398,-2.20163 -0.3231,-0.6644 -0.2409,-1.50746 -0.6601,-2.11588 -0.5357,-0.77767 -1.989,-0.95954 -2.1043,-1.89683 -0.104,-0.84561 1.0859,-1.31319 1.6288,-1.96979 -1.6495,-0.46082 -3.299,-0.92164 -4.9485,-1.38246 0.2424,-0.55917 1.2341,-1.33886 0.7274,-1.67751 -1.3683,-0.91437 -3.3129,-0.40261 -4.822,-1.05889 -0.4503,-0.19581 -0.2865,-0.99238 -0.6511,-1.32126 -0.746,-0.67302 -3.4307,-1.63318 -4.2768,-1.96746 -0.7365,-0.25792 -1.473,-0.51583 -2.2096,-0.77375 -0.042,-0.34375 1.2372,-0.50067 1.2793,-0.15692 l 0,0 c 1.4118,0.18199 2.8237,0.36399 4.2355,0.54599 0.517,0.3345 0.9988,0.73128 1.5512,1.00349 1.4179,0.69867 3.3457,1.05326 4.5332,2.24628 0.3789,0.38076 0.3472,1.04481 0.6956,1.45381 1.1507,1.35123 3.172,2.23617 4.6324,3.03885 -0.3567,0.64835 -0.9947,1.2089 -1.0702,1.94506 -0.092,0.89759 1.5134,3.63488 2.0464,4.06226 1.147,0.91968 3.2066,0.80773 3.867,2.12124 0.4366,0.86854 -1.0416,1.64175 -1.5624,2.46262 0.7969,0.82084 1.5938,1.6416796 2.3907,2.4625296 0.1382,0.87566 0.6652,1.7767 0.4145,2.62697 -0.3209,1.08799 -2.4724,1.72066 -2.0011,2.75244 0.7344,1.60774 3.4881,1.33505 4.5227,2.76814002 0.5641,0.78143 -0.442,1.89031998 -0.4641,2.85382998 -0.1106,4.80572 1.6087,1.11556 -1.749,5.68715 -0.2303,0.94294 -0.084,2.07148 -0.691,2.8288104 -0.9688,1.20842 -3.9665,1.19099 -3.7626,2.72634 0.2335,1.75797 3.821,1.19834 4.5012,2.83609 1.0486,2.52445 -7.9859,3.25576 -1.5008,7.68467 -0.4442,0.76264 -0.9103,1.51291 -1.3326,2.28792 -0.389,0.71406 -0.5284,1.59912 -1.1002,2.17733 -0.8267,0.83604 -1.9513,1.31384 -2.956,1.92456 -1.0113,0.6147 -2.4918,0.72827 -3.0891,1.74995 -0.6223,1.06443 2.6063,2.39963 0.5173,3.66256 -0.8058,0.41546 -7.7623,3.53316 -7.9505,3.85709 -0.2661,0.45805 1.1841,1.05881 0.7706,1.38993 -1.3773,1.10289 -3.7968,0.1017 -5.0098,1.70909 -4.4124,1.23151 -0.2536,0.17252 -5.1112,1.08176 -0.5337,0.0999 -1.0398,0.35823 -1.582,0.38866 -0.7811,0.0438 -1.5587,-0.18278 -2.3409,-0.16848 -1.4352,0.0262 -2.8637,0.37515 -4.2966,0.28979 -0.1843,-0.011 0.089,-0.35855 0.1328,-0.53782 -0.4184,-0.0429 -4.574,-0.29927 -5.2234,-0.91696 -0.2752,-0.26185 0.3177,-0.69022 0.4765,-1.03533 -0.6069,-0.31744 -1.2138,-0.63488 -1.8207,-0.95232 -0.6117,-0.3435 -1.7162,-0.38742 -1.8043,-1.0834 -0.086,-0.68165 0.9907,-0.95226 1.4861,-1.42839 -1.1015,-0.40263 -2.2031,-0.80526 -3.3046,-1.20788 0.148,-0.51193 0.8553,-1.19698 0.444,-1.5358 -1.0937,-0.90097 -3.122,-0.30168 -4.0127,-1.40384 -0.4792,-0.59295 1.2445,-1.03626 1.4468,-1.77129 0.3155,-1.14635 -1.4208,-2.2966 -0.5156,-3.52946 -14.5362,-3.07812 -6.3416,0.44013 -4.2012,-3.51398 0.3279,-0.60578 -0.8949,-1.12466 -1.0077,-1.8042 -0.5943,-3.57937 4.6693,-2.96723 -0.8587,-5.40333 -0.3774,-0.5729 -0.9304,-1.06303 -1.1323,-1.71869 -0.1718,-0.55769 0.409,-1.27866 0.064,-1.74944 -0.588,-0.80291 -1.9629,-0.77725 -2.5191,-1.60255 -0.319,-0.4734 0.4975,-1.14869 0.3033,-1.68551 -1.445,-3.9947804 -1.9548,0.70683 -1.1379,-3.2153504 -1.3763,-0.46205 -3.2247,-0.25033 -4.129,-1.38614 -0.4941,-0.62059 1.4021,-0.93147 1.6978,-1.66755 1.0431,-2.59657 -5.2261,-2.97495 -3.8374,-5.81662998 -0.2537,-0.47761002 -0.5305,-0.94360002 -0.761,-1.43281002 -0.2189,-0.46462 -0.1592,-1.1388 -0.5855,-1.42522 -0.9817,-0.65953 -2.8667,-0.12338 -3.3356,-1.20912 -0.3507,-0.81217 2.4168,-0.74717 2.1296,-1.58389 -0.6199,-1.80552 -4.5088,-0.39289 -5.2101,-2.37737 -4.2762,-3.5256196 0.4616,1.19034 -0.1584,-2.5581496 -0.1086,-0.65628 -1.1456,-0.67878 -1.6918,-1.05851 -0.4506,-0.31328 -0.8295,-0.72568 -1.2942,-1.01757 -2.0834,-1.30856 -1.6083,-0.12234 -1.9265,-1.82398 -0.8593,-0.1927 -1.7187,-0.38541 -2.578,-0.57811 0.4992,-0.29225 2.029,-0.64753 1.4978,-0.87674 -1.2381,-0.53423 -2.8604,0.43481 -4.0392,-0.21989 -0.6934,-0.38511 1.5845,-0.34245 2.2502,-0.77371 0.7013,-0.45438 -5.7992,-1.70564 -2.4488,-0.53714 -0.065,-0.59609 2.1537,-0.83681 2.2184,-0.24071 z"
   inkscape:connector-curvature="0" /><path
   style="fill:#000000;fill-opacity:1;fill-rule:nonzero;stroke:none"
   id="path3982"
   d="m 992.17392,-79.051114 c 1.5432,-1.24241 -1.1676,1.11766 -1.6363,-0.54913 -0.1809,-0.64305 2.4803,-0.69105 1.826,-0.82559 -1.8471,-0.37982 -3.7728,0.11092 -5.6572,0.0378 -2.1721,-0.0843 -3.5723,-0.47043 -5.6308,-0.91828 -1.6403,-0.0872 -3.4585,0.48662 -4.9209,-0.2615 -0.6995,-0.35787 1.9031,-0.44798 2.0134,-1.22595 0.088,-0.62308 -1.1223,-0.59836 -1.7337,-0.74748 -1.1624,-0.28353 -2.3553,-0.45252 -3.5486,-0.54088 -6.4959,-0.481 -6.8291,1.85345 -5.8972,-1.23763 -3.0271,3.07487 -5.6766,-0.62627 -8.5062,-0.40109 -1.4563,0.11589 -2.8249,0.81712 -4.2805,0.94065 -2.7985,0.2375 -5.632,-0.16215 -8.4245,0.13758 -1.5188,0.16302 -2.9255,0.88672 -4.4116,1.24018 -2.2893,0.54452 -4.6057,0.96822 -6.9086,1.45234 -10.3222,6.86316 5.7492,-3.32978 -11.8811,5.07599 -1.8635,0.88849 -3.2505,2.55668 -4.9895,3.66921 -5.9035,3.77662 -8.3632,3.94453 -13.3194,8.98368 -1.6661,1.69403 -2.84,3.81013 -4.2601,5.71519 -6.6773,9.75685 -2.4875,2.77737 -7.4544,13.45612 -1.1876,2.55338 -3.0425,4.84928 -3.7301,7.5801 -0.671,2.66488 -0.1084,5.49605 -0.2533,8.24029 -0.2366,4.48253 -1.0588,13.5522 -1.4375,17.93852 3.3908,6.0659596 -0.6032,12.9916396 1.107,19.1540896 0.9967,3.5913004 9.6656,15.6420804 11.5003,18.6597204 2.1841,3.59223 7.2181,13.37858 9.229,17.23146 7.6218,9.79847 4.694,4.73113 9.1787,14.96676 0.055,0.87567 -3.2044,1.07846 -3.2589,0.20279 l 0,0 c -1.9893,-10.65245 0.2225,-5.44878 -7.7866,-15.07001 -2.0637,-3.23128 -8.9597,-13.81282 -10.5555,-17.20047 -1.404,-2.98061 -2.0739,-6.26041 -3.3292,-9.30664 -1.3305,-3.22849 -3.2225,-6.21739 -4.4197,-9.4976204 -3.6151,-9.90514 -2.606,-8.98435 -1.7152,-19.1398896 -1.0757,-3.08165 -2.9627,-5.99167 -3.2272,-9.24494 -0.2413,-2.96857 1.1146,-5.85252 1.7637,-8.75927 2.3227,-10.40009 5.7116,-20.10665 10.8531,-29.47059 2.7077,-1.80931 5.4154,-3.61863 8.1231,-5.42795 0.8737,-1.7387 1.0768,-4.03222 2.6211,-5.21611 2.6642,-2.04244 6.2761,-2.41318 9.2816,-3.90872 2.032,-1.01112 3.8187,-2.45784 5.7863,-3.58907 5.9628,-3.42806 5.201,-2.80505 11.8394,-5.08661 3.6071,-1.61376 5.0437,-2.57088 9.1548,-3.01554 2.6291,-0.28438 5.2898,-0.0805 7.93,-0.23014 2.9282,-0.16597 5.8368,-0.68686 8.7695,-0.71637 0.3822,-0.004 0.6438,0.41228 0.9656,0.61842 2.5036,-0.0652 5.0071,-0.1305 7.5106,-0.19575 1.8573,0.65127 2.8007,1.05965 4.841,1.39484 3.2526,0.53432 7.5916,0.58278 10.746,1.51488 0.4466,0.13199 0.7774,0.51303 1.1662,0.76954 1.1094,0.14359 2.2257,0.24115 3.3281,0.43075 0.73,0.12555 1.4245,0.44529 2.162,0.51347 1.5112,0.1397 4.453,-1.40731 4.5517,0.10714 0.1002,1.53646 -3.0306,0.61969 -4.4684,1.17062 -0.169,0.0648 0.2438,0.26766 0.3657,0.40149 1.1424,-0.0468 2.2848,-0.0936 3.4272,-0.14033 0.086,0.64458 -2.3129,0.96451 -2.3989,0.31993 z"
   inkscape:connector-curvature="0" /><g
   id="g4280"
   transform="matrix(1.0097094,0,0,1.1354413,631.10342,-312.1573)"
   style="fill:#ffffff;stroke:#fffff9;stroke-opacity:1"><path
     style="fill:#ffffff;fill-opacity:1;fill-rule:nonzero;stroke:#fffff9;stroke-opacity:1"
     d="M 236.25226,45.26077 C 213.4665,33.636581 199.58881,10.785847 187.9053,-11.037793 c -9.56165,-21.490468 -14.97339,-46.407303 -7.52066,-69.402279 5.72882,-16.440219 13.83944,-33.837888 28.76838,-43.753238 6.51074,-4.61833 18.85689,-2.18382 14.62958,-4.58675 3.76126,-0.67577 17.23959,0.82528 6.91769,0.37086 15.11529,-0.97695 27.16666,12.53324 28.05642,26.98036 2.69942,8.737804 0.14657,33.227757 -12.58761,24.878525 3.1046,-12.66869 5.82437,-29.224075 -4.0388,-40.682495 -3.8242,-2.47559 -14.07176,-11.47212 -2.82972,-9.59574 -4.52697,0.037 -19.59622,-0.10879 -7.28105,-0.17219 -8.87595,0.99586 -10.82171,0.67085 -9.16227,2.07695 -13.39083,4.8309 -19.96575,18.99453 -26.62668,30.543756 -10.08746,20.02553 -11.92255,43.785995 -4.49838,64.991395 4.85932,19.8859279 16.80055,36.8845613 29.07794,52.865157 6.5621,8.28583 15.11525,14.616504 23.865,20.329994 1.59966,3.81549 -7.25798,3.846416 -8.42288,1.454258 z"
     id="path4276"
     inkscape:connector-curvature="0" /><path
     style="fill:#ffffff;fill-opacity:1;fill-rule:nonzero;stroke:#fffff9;stroke-opacity:1"
     d="m 249.08839,-87.90577 c 6.53965,-13.70441 15.79549,-32.01093 33.95794,-29.37872 -0.58571,1.12685 -6.48441,-2.31013 1.44063,-2.09509 10.73382,-0.85717 17.67059,0.30216 28.59406,4.97696 12.34743,5.64588 20.75388,18.334457 20.43385,31.993006 2.80497,18.104212 3.52134,37.776589 -6.1913,54.084739 -12.86752,29.4120442 -35.24913,52.989086 -52.40328,79.774089 -14.024,18.261529 -30.40635,35.584441 -37.26476,58.147126 -9.60487,25.27632 -8.32193,57.08276 10.4355,77.88486 3.11939,2.491 15.49097,7.78455 4.68236,5.25905 3.98753,-5.15804 23.76859,6.61071 11.13531,4.41504 3.11665,-0.83448 21.60534,0.65882 11.4964,-0.69488 3.67082,-2.01283 20.99596,0.0154 9.55594,-2.15211 3.89879,-2.84427 17.19442,-0.62334 6.18899,-2.82493 16.74826,-9.76471 27.91783,-28.89818 29.07383,-48.12029 0.99985,-13.93475 -12.17681,-23.8515 -25.1832,-23.45082 8.34517,0.33757 -13.22324,4.12897 -11.66949,11.20813 -8.63086,10.45001 -17.67579,27.85334 -4.21915,38.25606 1.11392,4.66606 -7.72036,-0.6891 0.21786,-0.99229 11.03666,-2.34159 16.33836,-16.10531 18.21803,-22.12798 8.50416,3.07488 -11.81545,0.48331 -1.48884,-1.90975 17.24035,-0.0824 6.93788,23.57681 -5.35371,24.54865 -12.80927,10.26335 -32.84419,-0.40105 -28.4223,-17.09824 4.67517,-13.53191 11.94278,-30.21347 27.70734,-33.13029 14.97061,-2.49339 35.53529,0.39853 39.60904,17.98875 4.35702,17.58665 -7.13409,33.813 -16.66552,47.40525 -5.46423,5.5241 -14.25675,10.67792 -21.7616,9.87484 14.4825,2.14479 -17.52995,3.12581 -3.56416,3.70301 -3.44038,2.28915 -23.43827,0.27919 -13.41644,1.45054 -8.48449,3.51045 -17.24706,-3.49836 -20.58243,-4.01492 -15.40553,0.77174 -23.00364,-15.35087 -27.8121,-27.49636 -11.35073,-33.33122 1.69345,-69.580405 22.33486,-96.315827 11.0716,-12.910267 21.08689,-26.60931 30.49362,-40.781269 9.3552,-11.768865 17.18337,-24.4945009 26.2865,-36.4742853 11.51665,-19.2711597 23.34486,-40.7731727 19.66247,-64.0876257 -1.83229,-14.712535 -1.64357,-33.386843 -17.68007,-40.351303 -1.62815,-2.36217 -18.19499,-6.7184 -10.06459,-7.23496 -6.16517,0.5504 -14.72243,-1.32246 -3.84213,-0.13684 -6.09702,2.1641 -16.4716,1.78051 -12.49954,3.0155 -13.84551,4.42028 -14.11306,22.667427 -25.09529,29.254261 -2.34978,0.438296 -4.80615,-0.585926 -6.34463,-2.371081 z"
     id="path4278"
     inkscape:connector-curvature="0" /></g><g
   id="g4477"
   transform="translate(-1334.0302,-6.4321619)"><path
     d="m 1082.8963,-188.032 c -5.7526,4.09466 -1.6424,13.47236 -2.7849,19.94688 0,8.18802 0,16.37605 0,24.56408 9.228,2.11235 4.274,-9.71238 5.5079,-15.06797 0,-6.11572 0,-12.23142 0,-18.34714 5.6334,5.82427 11.5387,24.60739 17.1772,10.3193 2.1316,-2.05574 6.5432,-11.39865 7.206,-8.7598 0,10.61853 0,21.23708 0,31.85561 11.9086,0.0397 2.5069,-20.09278 5.5424,-28.31664 2.1075,-8.07869 -1.9526,-23.69768 -8.3991,-9.7341 -3.1478,4.71486 -6.1745,9.51513 -9.273,14.2648 -5.2747,-6.27035 -8.424,-16.25664 -14.9765,-20.72502 z"
     id="path4299"
     inkscape:connector-curvature="0"
     style="font-size:72px;font-style:normal;font-variant:normal;font-weight:normal;font-stretch:normal;text-align:center;line-height:125%;letter-spacing:0px;word-spacing:0px;writing-mode:lr-tb;text-anchor:middle;fill:#73ba25;fill-opacity:1;stroke:none;font-family:FifthLeg;-inkscape-font-specification:FifthLeg" /><path
     d="m 1125.6376,-128.59902 c 10.2161,-7.27247 12.5731,-24.62115 19.5851,-35.84637 7.2167,-10.47036 -4.7272,-10.70039 -5.7464,-0.64115 -2.5394,3.30289 -5.1166,17.24101 -7.6283,6.50985 -0.4695,-6.20147 -12.5672,-23.02031 -10.2069,-8.52908 4.0782,9.96786 14.0437,19.75283 4.8349,29.84659 -0.4636,3.00085 -6.0976,7.69794 -0.8384,8.66016 z"
     id="path4301"
     inkscape:connector-curvature="0"
     style="font-size:72px;font-style:normal;font-variant:normal;font-weight:normal;font-stretch:normal;text-align:center;line-height:125%;letter-spacing:0px;word-spacing:0px;writing-mode:lr-tb;text-anchor:middle;fill:#73ba25;fill-opacity:1;stroke:none;font-family:FifthLeg;-inkscape-font-specification:FifthLeg" /><path
     d="m 1173.7939,-188.60593 c -9.0986,3.9395 -4.4774,16.06864 -5.5079,24.20491 0,6.96 0,13.91999 0,20.87998 14.3333,0.351 -4.7516,-32.69369 17.4138,-24.6813 5.1889,3.98194 1.5014,12.94028 2.5755,19.05061 -2.5017,10.13731 10.4101,4.80874 5.4891,-3.7759 3.6112,-12.27575 -3.6741,-27.64129 -17.1782,-18.22162 -5.7473,-0.0247 -1.4814,-10.48048 -2.7923,-15.06638 0,-0.79676 0,-1.59354 0,-2.3903 z"
     id="path4303"
     inkscape:connector-curvature="0"
     style="font-size:72px;font-style:normal;font-variant:normal;font-weight:normal;font-stretch:normal;text-align:center;line-height:125%;letter-spacing:0px;word-spacing:0px;writing-mode:lr-tb;text-anchor:middle;fill:#73ba25;fill-opacity:1;stroke:none;font-family:FifthLeg;-inkscape-font-specification:FifthLeg" /><path
     d="m 1206.9708,-149.06897 c -8.7614,-7.11927 4.0898,-7.4904 9.4442,-6.75954 11.7009,4.43779 8.625,-16.59554 -0.022,-17.36668 -17.0723,-6.80523 -23.6559,16.61908 -14.4879,27.62863 9.5303,8.24833 26.8396,-6.3683 8.5241,-3.50241 -1.153,0 -2.3059,0 -3.4589,0 z m -2.9087,-16.1974 c 4.2156,-10.95383 22.8857,4.2628 8.7593,4.84647 -4.4567,-0.76201 -10.7015,2.71705 -8.7593,-4.84647 z"
     id="path4305"
     inkscape:connector-curvature="0"
     style="font-size:72px;font-style:normal;font-variant:normal;font-weight:normal;font-stretch:normal;text-align:center;line-height:125%;letter-spacing:0px;word-spacing:0px;writing-mode:lr-tb;text-anchor:middle;fill:#73ba25;fill-opacity:1;stroke:none;font-family:FifthLeg;-inkscape-font-specification:FifthLeg" /><path
     d="m 1235.5294,-156.91259 c 4.6002,0 9.2005,0 13.8007,0 7.3828,13.15761 -25.5219,9.52903 -13.8007,0 z m 1.5472,-16.89886 c -12.5077,11.19137 20.1385,-0.59438 11.5948,13.97635 -9.7824,-2.95783 -26.335,-3.44865 -20.1895,12.31527 5.166,9.72869 19.2649,-1.77083 25.7178,3.58415 1.7575,-13.53057 3.4645,-34.7066 -17.1231,-29.87577 z"
     id="path4307"
     inkscape:connector-curvature="0"
     style="font-size:72px;font-style:normal;font-variant:normal;font-weight:normal;font-stretch:normal;text-align:center;line-height:125%;letter-spacing:0px;word-spacing:0px;writing-mode:lr-tb;text-anchor:middle;fill:#73ba25;fill-opacity:1;stroke:none;font-family:FifthLeg;-inkscape-font-specification:FifthLeg" /><path
     d="m 1280.3149,-168.07222 c 0.9592,-11.49142 -14.1776,-1.30688 -18.8309,-5.53077 -1.9715,4.62906 -0.4061,11.02301 -0.9109,16.41901 1.1879,4.26874 -2.6763,13.43997 2.5201,13.81896 8.559,-5.16102 -5.2693,-31.59962 14.787,-24.7072 0.8115,0 1.6231,0 2.4347,0 z"
     id="path4309"
     inkscape:connector-curvature="0"
     style="font-size:72px;font-style:normal;font-variant:normal;font-weight:normal;font-stretch:normal;text-align:center;line-height:125%;letter-spacing:0px;word-spacing:0px;writing-mode:lr-tb;text-anchor:middle;fill:#73ba25;fill-opacity:1;stroke:none;font-family:FifthLeg;-inkscape-font-specification:FifthLeg" /><path
     d="m 1291.6256,-188.032 c -6.6404,4.08017 1.9727,16.56419 -9.4464,15.86162 -0.3404,6.08963 10.983,1.93872 6.7095,11.19423 -4.7793,10.50507 7.004,23.96706 14.3327,15.18272 -6.1666,-2.65319 -10.9639,-5.98287 -8.8728,-14.48183 -0.9705,-6.58819 0.2351,-9.99148 7.4324,-8.74636 1.7607,-7.55129 -11.9571,-2.29538 -7.3581,-12.12918 -0.2086,-2.23097 0.5044,-6.84012 -2.7973,-6.8812 z"
     id="path4311"
     inkscape:connector-curvature="0"
     style="font-size:72px;font-style:normal;font-variant:normal;font-weight:normal;font-stretch:normal;text-align:center;line-height:125%;letter-spacing:0px;word-spacing:0px;writing-mode:lr-tb;text-anchor:middle;fill:#73ba25;fill-opacity:1;stroke:none;font-family:FifthLeg;-inkscape-font-specification:FifthLeg" /></g><g
   id="g4486"
   transform="translate(-1250.4121,33.447239)"><g
     transform="matrix(0.85953326,0,0,0.88568463,1025.7353,-686.28964)"
     id="g4455"
     style="font-size:72px;font-style:normal;font-variant:normal;font-weight:normal;font-stretch:normal;text-align:center;line-height:125%;letter-spacing:0px;word-spacing:0px;writing-mode:lr-tb;text-anchor:middle;fill:#73ba25;fill-opacity:1;stroke:none;font-family:FifthLeg;-inkscape-font-specification:FifthLeg"><path
       inkscape:connector-curvature="0"
       id="path4313"
       d="m 103.2775,668.62378 c -6.661826,4.76705 -1.92963,15.29539 -3.24,22.66543 -3.036128,7.09431 4.0608,18.54993 6.408,6.84724 -1.96283,-8.76107 4.00726,-23.81501 -3.168,-29.51267 z m 3.24,-11.952 c -8.203583,-12.91123 -7.654886,12.35593 0,0 z" /><path
       inkscape:connector-curvature="0"
       id="path4315"
       d="m 122.73325,652.56778 c -7.72553,4.6068 2.29517,18.70213 -10.99012,17.90888 -0.39598,6.87562 12.77783,2.18894 7.80601,12.63908 -5.56033,11.86095 8.14856,27.06049 16.67494,17.14235 -7.17438,-2.99563 -12.75559,-6.75508 -10.32283,-16.351 -1.12906,-7.43853 0.2736,-11.28108 8.64709,-9.87525 2.04837,-8.52594 -13.91122,-2.59165 -8.56067,-13.6947 -0.24265,-2.51892 0.58692,-7.72297 -3.25442,-7.76936 z" /><path
       inkscape:connector-curvature="0"
       id="path4317"
       d="m 144.7315,669.63178 c 7.62295,11.97234 6.06196,-29.72339 -1.17243,-12.16001 0.0805,4.06665 0.94995,8.0867 1.17243,12.16001 z" /><path
       inkscape:connector-curvature="0"
       id="path4319"
       d="m 165.19187,674.59978 c 5.952,0 11.904,0 17.856,0 -4.13906,-11.33287 -34.61305,-7.48034 -25.94468,8.88731 2.5397,10.36393 27.22431,-0.72033 19.12953,12.95012 -4.57143,3.68156 -21.53383,-3.74501 -18.11337,4.71351 11.90411,7.20275 36.69958,-1.80845 22.45066,-17.11572 -4.5454,-3.60696 -26.17582,2.96454 -15.37814,-9.43522 z" /><path
       inkscape:connector-curvature="0"
       id="path4321"
       d="m 218.87912,652.56778 c -17.76835,5.14124 -8.19758,31.12478 -8.98865,44.94951 10.96969,11.35659 41.22979,7.12746 34.19243,-14.42324 1.74362,-13.79333 1.16067,-35.82951 -18.79786,-30.52979 -2.1352,0.0202 -4.27075,0.0424 -6.40592,0.004 z m 16.056,6.408 c 4.34379,9.44556 4.54038,28.25972 -0.0448,37.29243 -14.74641,4.28792 -23.72855,-2.21962 -19.62465,-17.36502 -1.33777,-11.46527 -1.23861,-25.08725 14.62127,-19.92741 1.68273,0 3.36545,0 5.04818,0 z" /><path
       inkscape:connector-curvature="0"
       id="path4323"
       d="m 284.0245,703.54378 c 7.64732,-5.98309 -7.149,-11.72415 -10.93031,-16.71261 -2.10966,-3.60448 -12.47296,-6.87491 -8.38544,-10.7302 6.65458,-6.7644 13.30917,-13.52879 19.96375,-20.29319 -6.72729,-8.01309 -13.02469,5.73872 -18.41772,9.6151 -2.95513,1.98538 -9.56778,12.98431 -8.00628,3.83895 0,-5.56469 0,-11.12937 0,-16.69405 -10.73607,-2.38499 -4.97241,10.96596 -6.408,17.0128 0,11.08107 0,22.16213 0,33.2432 10.73607,2.38499 4.97241,-10.96596 6.408,-17.0128 2.71511,-5.53076 15.99277,13.03621 22.98161,16.24914 0.58223,1.24923 1.74554,1.24278 2.79439,1.48366 z" /></g></g><g
   transform="translate(-135.60202,-807.12861)"
   style="font-size:72px;font-style:normal;font-variant:normal;font-weight:normal;font-stretch:normal;text-align:start;line-height:125%;letter-spacing:0px;word-spacing:0px;writing-mode:lr-tb;text-anchor:start;fill:#73ba25;fill-opacity:1;stroke:none;font-family:Sans;-inkscape-font-specification:Sans"
   id="flowRoot4421"><path
     d="m -13.527344,509.68391 c 11.4961115,-2.99195 5.8809156,12.80482 7.1015628,19.58717 0,10.96703 0,21.93407 0,32.90111 -11.4961118,2.99195 -5.8809158,-12.80482 -7.1015628,-19.58717 0,-10.96703 0,-21.93407 0,-32.90111 z"
     id="path4430"
     inkscape:connector-curvature="0" /><path
     d="m 63.078125,538.40656 c 0,7.92188 0,15.84375 0,23.76563 -16.809221,-2.03383 3.695431,-29.64479 -13.133157,-34.28287 -23.557463,-4.61391 -4.656691,34.87789 -19.180568,33.62608 -1.401232,-16.12067 -0.321674,-32.66368 -0.662838,-48.96866 0.334565,-13.23371 11.071339,1.71508 6.566024,9.25946 -2.94488,14.48745 13.26241,-8.96454 20.728431,2.60671 4.448799,3.04362 6.588492,8.73668 5.682108,13.99365 z"
     id="path4432"
     inkscape:connector-curvature="0" /><path
     d="m 93.945312,542.37922 c -17.519234,-6.30696 -15.611974,24.84416 0.81506,13.58054 5.344978,-3.26223 9.975518,-15.22346 -0.81506,-13.58054 z m 12.902348,-2.67187 c 0,7.48828 0,14.97656 0,22.46484 -6.873958,3.47884 -6.48643,-9.67072 -12.846078,-0.2043 -14.097293,8.26299 -29.693255,-13.62998 -14.283551,-22.12212 9.299412,-2.93608 30.945539,-2.89079 11.978821,-12.85335 -4.862996,0.48874 -22.311076,4.78814 -11.195276,-3.81853 10.991931,-4.56709 27.360724,0.81818 26.355114,14.76832 l -0.009,1.76514 0,0 z"
     id="path4434"
     inkscape:connector-curvature="0" /><path
     d="m 115.56641,522.79719 c 10.53698,-2.59681 9.98741,12.13947 13.8418,18.76329 1.87406,3.88639 3.74813,12.3258 5.62219,13.46756 4.00028,-10.74362 8.00057,-21.48723 12.00085,-32.23085 12.10187,-2.24827 0.85896,12.63713 -0.17463,18.74694 -2.57851,6.87602 -5.15702,13.75204 -7.73553,20.62806 -10.43827,3.92128 -10.9589,-7.07234 -13.90983,-13.6554 -3.21495,-8.5732 -6.4299,-17.1464 -9.64485,-25.7196 z"
     id="path4436"
     inkscape:connector-curvature="0" /><path
     d="m 196.49609,540.8675 c -3.70176,6.93893 -15.50518,1.61974 -22.84555,3.16406 -13.73717,-3.2207 -2.86548,15.29862 6.02739,13.85012 5.80043,0.72754 21.32525,-6.67034 11.76741,4.20532 -13.37769,5.07434 -33.02568,-2.68864 -31.66359,-19.34152 -2.06805,-17.38219 22.82246,-29.40848 33.41622,-14.02486 2.43654,3.52244 3.54108,7.88857 3.29812,12.14688 z m -6.46875,-1.89844 c 3.98274,-18.91322 -32.40251,-10.6048 -18.64368,-0.0251 6.18526,0.50135 12.42904,-0.23601 18.64368,0.0251"
     id="path4438"
     inkscape:connector-curvature="0" /></g><g
   transform="translate(548.67379,-1035.8887)"
   style="font-size:72px;font-style:normal;font-variant:normal;font-weight:normal;font-stretch:normal;text-align:start;line-height:125%;letter-spacing:0px;word-spacing:0px;writing-mode:lr-tb;text-anchor:start;fill:#73ba25;fill-opacity:1;stroke:none;font-family:Sans;-inkscape-font-specification:Sans"
   id="flowRoot4495"><path
     d="m 42.816406,882.98469 c 11.892406,0.15603 4.464187,16.2587 6.479402,23.67765 0.789455,6.14333 0.594068,23.50905 -6.562879,11.53759 -0.05606,-11.683 0.238934,-23.47024 0.08348,-35.21524 z m 0,-15.32813 c 11.675021,-5.27217 3.198992,17.92276 -0.199443,4.65393 l 0.05033,-2.38412 0.14911,-2.26981 z"
     id="path4504"
     inkscape:connector-curvature="0" /><path
     d="m 95.515625,898.59406 c 0,7.92188 0,15.84375 0,23.76563 -11.091236,-1.68014 -6.130362,-15.46246 -5.619001,-22.93958 1.42424,-10.773 -14.305939,-15.91212 -18.934462,-5.86576 -5.888386,8.55888 2.037872,23.04903 -4.757368,28.9917 -7.723267,-5.63996 -2.176184,-17.76289 -3.665737,-26.51287 0,-4.34949 0,-8.69899 0,-13.04849 5.363866,-1.87723 9.504429,8.10127 13.402619,-0.0181 9.775999,-4.38793 22.091245,4.87228 19.573949,15.62743 z"
     id="path4506"
     inkscape:connector-curvature="0" /><path
     d="m 133.58984,884.14485 c -1.28852,11.32251 -23.56238,-4.01205 -19.89169,10.3303 6.42667,6.64392 25.94821,6.91674 21.27336,20.69387 -4.4843,9.56454 -18.58388,11.31622 -26.72645,5.87286 -5.67619,-12.04342 10.8862,3.94406 16.26733,-5.05378 10.07816,-10.91793 -10.61879,-8.99615 -15.2173,-14.44889 -7.74833,-8.82615 2.34078,-23.87639 13.48812,-19.74792 3.65158,0.52326 7.28713,1.23392 10.80663,2.35356 z"
     id="path4508"
     inkscape:connector-curvature="0" /><path
     d="m 146.03516,882.98469 c 11.89241,0.15603 4.46419,16.2587 6.4794,23.67765 0.78946,6.14333 0.59407,23.50905 -6.56288,11.53759 -0.0561,-11.683 0.23894,-23.47024 0.0835,-35.21524 z m 0,-15.32813 c 11.67501,-5.27216 3.199,17.92276 -0.19944,4.65393 l 0.0503,-2.38412 0.14911,-2.26981 z"
     id="path4510"
     inkscape:connector-curvature="0" /><path
     d="m 191.91406,888.96125 c 0,-7.10156 0,-14.20313 0,-21.30469 12.96565,1.16489 3.48657,20.02493 6.48856,28.46718 -1.20137,8.46828 2.39114,20.66673 -1.90235,26.78056 -4.51791,-2.69805 -8.42264,-5.96222 -11.76757,-0.2533 -12.75722,4.51688 -23.65282,-9.77254 -21.94048,-21.66272 -0.0426,-10.66935 9.5546,-21.4403 20.78494,-18.51657 3.5539,0.82037 6.6752,3.23817 8.3369,6.48954 z m -22.04297,13.7461 c -4.44679,11.96167 16.57036,21.64133 20.78036,8.31153 4.92616,-8.67524 0.13125,-23.69514 -11.11055,-23.3056 -7.22885,0.46068 -10.23621,8.79007 -9.66981,14.99407 z"
     id="path4512"
     inkscape:connector-curvature="0" /><path
     d="m 245.38672,901.055 c -7.56017,9.1883 -20.90117,-2.01248 -28.80085,4.9038 -1.13092,10.85259 12.84036,14.78182 21.19829,10.7343 13.18508,1.52618 -8.03404,11.55888 -13.48554,6.11026 -11.26096,-2.10028 -18.18666,-14.04518 -15.38178,-24.95592 2.03955,-15.48895 26.53659,-22.63274 34.09551,-7.43475 1.78489,3.22486 2.59781,6.96734 2.37437,10.64231 z m -6.46875,-1.89844 c 2.45471,-12.96366 -21.93361,-16.37095 -21.82031,-2.84593 4.76329,6.62508 15.21334,1.28116 21.82031,2.84593 z"
     id="path4514"
     inkscape:connector-curvature="0" /></g><g
   transform="translate(499.89549,-1221.3598)"
   style="font-size:72px;font-style:normal;font-variant:normal;font-weight:normal;font-stretch:normal;text-align:start;line-height:125%;letter-spacing:0px;word-spacing:0px;writing-mode:lr-tb;text-anchor:start;fill:#73ba25;fill-opacity:1;stroke:none;font-family:Sans;-inkscape-font-specification:Sans"
   id="flowRoot4565"><path
     d="m 30.222656,851.87141 c 10.686754,-1.87523 6.58134,12.50135 7.101563,18.81219 0,11.22536 0,22.45073 0,33.67609 -10.686754,1.87523 -6.58134,-12.50135 -7.101563,-18.81219 0,-11.22536 0,-22.45073 0,-33.67609 z"
     id="path4574"
     inkscape:connector-curvature="0" /><path
     d="m 57.292969,851.87141 c 0,6.50391 0,13.00781 0,19.51172 -9.710991,1.18089 -8.513478,-20.37375 -1.21171,-19.49225 l 1.21171,-0.0195 0,-2e-5 z"
     id="path4576"
     inkscape:connector-curvature="0" /><path
     d="m 66.363281,864.98469 c 9.918421,-2.24445 10.064774,10.95576 13.231831,17.12508 1.976109,5.30726 3.952217,10.61453 5.928325,15.92179 4.101563,-11.01562 8.203125,-22.03125 12.304688,-33.04687 10.711185,-1.26665 2.012953,12.06335 0.439153,17.11016 -2.783103,7.42162 -5.566206,14.84323 -8.349309,22.26484 -9.793458,3.47359 -12.832745,-9.20037 -14.828887,-16.1062 -2.9086,-7.75627 -5.817201,-15.51253 -8.725801,-23.2688 z"
     id="path4578"
     inkscape:connector-curvature="0" /><path
     d="m 147.29297,883.055 c -6.80175,10.45349 -23.63331,-5.41109 -28.0331,7.23321 1.12144,11.75434 14.98468,9.87063 22.85107,7.63272 7.46005,7.27359 -11.09089,10.4879 -16.39905,7.03103 -12.87851,-4.44344 -20.28403,-21.88648 -11.4178,-33.20943 6.68425,-9.61739 22.55946,-10.88712 29.57684,-0.94949 2.67132,3.42968 4.09433,7.9233 3.42204,12.26196 z m -6.46875,-1.89844 c 4.27442,-13.09944 -21.46179,-15.37379 -21.06471,-3.27529 3.89266,7.13265 14.55778,1.8644 21.06471,3.27529 z"
     id="path4580"
     inkscape:connector-curvature="0" /><path
     d="m 206.74219,884.21516 c 4.12737,-11.7015 -14.78761,-19.13482 -20.52998,-8.57949 -6.79506,8.35254 -0.10752,25.35417 11.63721,22.99247 5.94724,-1.63684 10.45166,-8.26315 8.89277,-14.41298 z m 6.46875,15.25781 c 3.41397,11.01237 -8.27631,19.74619 -18.17544,20.52174 -6.09537,5.03684 -16.78181,-11.19498 -6.50647,-6.19775 8.7118,4.6757 24.09966,-10.03646 16.41533,-13.76293 -7.14332,7.78208 -19.70132,4.43289 -23.88275,-4.67614 -6.36928,-10.01277 -3.93676,-26.25948 7.8403,-31.02756 7.75604,-0.83057 17.28121,5.61705 23.29882,2.14998 3.34041,6.78916 -0.56623,14.46009 1.01021,21.61677 0,3.79196 0,7.58393 0,11.37589 z"
     id="path4582"
     inkscape:connector-curvature="0" /><path
     d="m 241.79297,869.51985 c -11.18017,0.81183 -13.91396,15.19985 -9.53401,23.65673 5.32454,13.42275 23.68742,3.19999 21.25323,-8.93956 -0.48473,-6.55328 -3.95806,-14.83805 -11.71922,-14.71717 z m 0,-5.48438 c 12.61987,-1.11496 20.65272,13.69089 17.68826,24.78044 -0.044,13.85393 -19.11514,22.67625 -29.19875,12.59516 -11.32267,-10.07961 -8.36758,-33.31846 7.33952,-37.16654 1.37411,-0.24723 2.77925,-0.30742 4.17097,-0.20906 z"
     id="path4584"
     inkscape:connector-curvature="0" /><path
     d="m 276.94922,853.805 c -5.23331,9.32435 8.5281,12.47049 12.42866,13.76236 -3.18845,5.39155 -16.47881,0.40217 -12.52339,10.86562 -2.20462,9.2218 0.6805,20.49984 11.1633,21.95658 0.49254,8.90904 -18.48228,3.47875 -17.91604,-5.37511 -0.42813,-6.56941 0.7905,-13.14321 0.34356,-19.75438 2.20218,-6.32942 -7.515,-6.24617 -1.35389,-12.51288 4.54594,-4.27419 -1.15968,-11.68662 7.8578,-8.94219 z"
     id="path4586"
     inkscape:connector-curvature="0" /></g><path
   style="font-size:72px;font-style:normal;font-variant:normal;font-weight:normal;font-stretch:normal;text-align:start;line-height:125%;letter-spacing:0px;word-spacing:0px;writing-mode:lr-tb;text-anchor:start;fill:#73ba25;fill-opacity:1;stroke:none;font-family:FifthLeg;-inkscape-font-specification:FifthLeg"
   inkscape:connector-curvature="0"
   id="path4671"
   d="m 1089.62,-119.24421 c 10.7378,-2.33538 29.672,6.766 32.5054,-9.37647 2.5577,-9.29392 4.5514,-31.29543 -10.5137,-28.46532 -10.546,1.78733 -2.2999,8.03197 1.9375,11.50176 7.0492,12.30536 -7.8637,22.45197 -18.8998,17.81019 -14.5238,-3.02606 -10.1019,-19.67134 -10.1589,-30.22062 -0.5602,-10.68498 -2.8762,-27.56608 13.2824,-24.77214 6.2956,-0.91946 21.0999,4.8207 22.5089,-2.82102 -4.7987,-8.6149 -14.9539,-6.12009 -23.0301,-6.52512 -8.714,-0.42768 -19.7473,2.79651 -21.4835,12.63675 -2.3121,11.21242 0.8232,22.66932 -0.602,33.98734 -0.3066,9.42885 -0.3733,23.23641 11.1805,25.86913 l 1.6207,0.29306 1.6526,0.0824 0,0 z" /><g
   id="g3101"><path
     d="m 631.29713,-262.88651 c 0,24.05231 0,48.10462 0,72.15693 12.0801,1.94647 9.89406,-14.13633 9.20053,-21.74649 0.82347,-2.6861 -1.8246,-8.84372 1.67567,-8.85301 4.81703,0 9.63406,0 14.45109,0 6.41768,9.98862 5.46388,24.87335 17.08249,31.14683 8.53533,-10.22472 -6.89303,-20.12001 -6.37994,-30.86234 6.57606,-8.98402 10.04199,-19.30141 6.45719,-30.52705 -2.81082,-13.39814 -18.15258,-12.25712 -28.63848,-11.51665 -4.61217,0.19967 -9.23265,0.42101 -13.84855,0.20178 z m 29.66911,9.40728 c 10.78344,7.83447 1.62997,27.38259 -11.33176,24.16278 -14.24864,0.0943 -14.14791,-28.0503 1.43384,-24.29779 3.29817,0.0791 6.59926,0.30008 9.89792,0.13497 z"
     id="path4673"
     inkscape:connector-curvature="0"
     style="font-size:72px;font-style:normal;font-variant:normal;font-weight:normal;font-stretch:normal;text-align:start;line-height:125%;letter-spacing:0px;word-spacing:0px;writing-mode:lr-tb;text-anchor:start;fill:#73ba25;fill-opacity:1;stroke:none;font-family:FifthLeg;-inkscape-font-specification:FifthLeg" /><path
     d="m 683.18739,-262.98989 c 0,24.05232 0,48.10463 0,72.15694 13.9214,0 27.84279,0 41.76419,0 7.40359,-10.7845 -11.80721,-12.16514 -18.39531,-9.20053 -4.72279,0 -9.44557,0 -14.16835,0 0,-7.09853 0,-14.19707 0,-21.2956 8.97446,-3.1096 22.91998,6.09974 28.36501,-4.69397 -2.42304,-12.48179 -23.23335,2.52354 -28.23414,-8.29491 1.10145,-7.51782 -4.88572,-23.32253 7.85166,-20.04889 7.09309,1.79567 27.78123,3.52278 23.02685,-8.02631 -9.36481,-2.38488 -19.27818,0.38779 -28.88993,-0.61225 -3.77328,0.0145 -7.54682,0.0561 -11.31998,0.0155 z"
     id="path4675"
     inkscape:connector-curvature="0"
     style="font-size:72px;font-style:normal;font-variant:normal;font-weight:normal;font-stretch:normal;text-align:start;line-height:125%;letter-spacing:0px;word-spacing:0px;writing-mode:lr-tb;text-anchor:start;fill:#73ba25;fill-opacity:1;stroke:none;font-family:FifthLeg;-inkscape-font-specification:FifthLeg" /><path
     d="m 735.48146,-262.98989 c 0,24.05232 0,48.10463 0,72.15694 13.92139,0 27.84279,0 41.76418,0 7.40361,-10.7845 -11.80721,-12.16516 -18.39531,-9.20053 -4.72279,0 -9.44557,0 -14.16835,0 0,-7.09853 0,-14.19707 0,-21.2956 8.97446,-3.10958 22.91998,6.09973 28.36502,-4.69397 -2.42305,-12.48178 -23.23336,2.52354 -28.23415,-8.29491 1.10145,-7.51784 -4.88572,-23.32253 7.85167,-20.04889 7.0931,1.79567 27.78122,3.52276 23.02684,-8.02632 -9.36481,-2.38487 -19.27818,0.3878 -28.88993,-0.61224 -3.77326,0.0145 -7.54681,0.0561 -11.31997,0.0155 z"
     id="path4677"
     inkscape:connector-curvature="0"
     style="font-size:72px;font-style:normal;font-variant:normal;font-weight:normal;font-stretch:normal;text-align:start;line-height:125%;letter-spacing:0px;word-spacing:0px;writing-mode:lr-tb;text-anchor:start;fill:#73ba25;fill-opacity:1;stroke:none;font-family:FifthLeg;-inkscape-font-specification:FifthLeg" /><path
     d="m 792.42747,-262.88651 c -9.4166,6.9721 -2.51798,19.53502 -4.65195,29.06999 0,14.36232 0,28.72463 0,43.08694 12.08008,1.94647 9.89405,-14.13633 9.20052,-21.74649 0,-10.84209 0,-21.68418 0,-32.52627 13.444,17.68532 26.72986,35.49088 40.27816,53.09685 12.52726,-1.91327 6.06625,-17.27973 7.3785,-25.77027 0,-15.07025 0,-30.14049 0,-45.21075 -12.50796,-0.97481 -9.81016,15.202 -9.3039,23.27663 0,10.36651 0,20.73301 0,31.09951 -14.64367,-17.81351 -26.22546,-38.38296 -42.90133,-54.37614 z"
     id="path4679"
     inkscape:connector-curvature="0"
     style="font-size:72px;font-style:normal;font-variant:normal;font-weight:normal;font-stretch:normal;text-align:start;line-height:125%;letter-spacing:0px;word-spacing:0px;writing-mode:lr-tb;text-anchor:start;fill:#73ba25;fill-opacity:1;stroke:none;font-family:FifthLeg;-inkscape-font-specification:FifthLeg" /></g><g
   id="g3858"
   transform="matrix(1.0519986,0,0,1.0519986,179.27328,-306.42732)"
   style="fill:#73ba25;fill-opacity:1"><path
     style="fill:#73ba25;fill-opacity:1"
     inkscape:connector-curvature="0"
     id="path24"
     d="m 402.13625,51.575143 c -8.65,-1.49 -24.42,-1.66 -32.77,14.100003 -3.48999,6.58 -3.27999,15.15 0.55,22.37 3.9,7.391 10.87,12.130004 19.12,13.040004 8.18,0.891 14.33,-1 17.78,-5.470004 3.48,-4.51 4.13,-10.65 1.66,-15.65 -2.65,-5.369 -6.65,-8.22 -12.21,-8.689 -4.23,-0.38 -7.37,1.38 -8.5,3.18 -0.33,0.561 -0.93,1.601 -0.94,3.08 l 0,0.05 c 0,4.03 3.69,5.13 4.44,5.181 0.23,0 1.34,-0.03 2.81,-0.4 l 0.71,-0.229 0.49,-0.171 0.36,-0.069 c 2.68,-0.49 5.26,1.09 6.01,3.7 0.13,0.479 0.2,0.96 0.2,1.439 0,1.73 -0.88,3.34 -2.34,4.32 l 0.06,-0.021 -0.16,0.09 -0.24,0.15 c -0.77,0.49 -1.48,0.76 -2.23,0.99 -2.1,0.689 -3.96,1.01 -5.83,1.01 -6.38,-0.01 -15.27,-5.5 -15.39,-15.81 -0.06,-5.82 2.86,-11.12 8,-14.53 5.92,-3.910003 16.15,-5.240003 25.64,0.58 11.68,7.15 14.73,21.149 11.68,30.7 -4.43,13.830004 -16.89,21.220004 -33.34,19.750004 -11.65,-1.04 -22.46999,-7.19 -28.90999,-16.450004 -2.86,-4.101 -4.98,-8.67 -6.12,-13.23 -2.63,-10.43 0.03,-21.51 2.01,-26.420003 6.3,-15.61 18.35999,-29.039998 35.80999,-39.929998 l 1.1,-0.69 c 3.14573,-3.752262 7.87107,5.454145 27.10107,6.124145 -13.22404,11.450353 -7.70308,18.096763 -16.55107,27.904853 z"
     sodipodi:nodetypes="cccccccccsccccccscccccccccccccccccc" /></g></g><g
   inkscape:groupmode="layer"
   id="layer2"
   inkscape:label="Capa"
   style="display:inline"
   transform="translate(0,892.84403)" />
</svg>