<?xml version="1.0" encoding="UTF-8" standalone="no"?>
<!-- Generator: Adobe Illustrator 15.0.0, SVG Export Plug-In . SVG Version: 6.00 Build 0)  -->

<svg
   xmlns:dc="http://purl.org/dc/elements/1.1/"
   xmlns:cc="http://creativecommons.org/ns#"
   xmlns:rdf="http://www.w3.org/1999/02/22-rdf-syntax-ns#"
   xmlns:svg="http://www.w3.org/2000/svg"
   xmlns="http://www.w3.org/2000/svg"
   xmlns:sodipodi="http://sodipodi.sourceforge.net/DTD/sodipodi-0.dtd"
   xmlns:inkscape="http://www.inkscape.org/namespaces/inkscape"
   version="1.1"
   id="svg4578"
   sodipodi:version="0.32"
   inkscape:version="0.48.3.1 r9886"
   sodipodi:docname="speedy_geeko.svg"
   inkscape:output_extension="org.inkscape.output.svg.inkscape"
   x="0px"
   y="0px"
   width="1052.3622"
   height="744.09448"
   viewBox="72.8 75.424 1052.3622 744.09445"
   enable-background="new 72.8 75.424 248.4 157.156"
   xml:space="preserve"><sodipodi:namedview
   inkscape:window-y="0"
   inkscape:window-x="0"
   inkscape:window-height="1055"
   inkscape:window-width="1920"
   inkscape:showpageshadow="false"
   inkscape:current-layer="layer1"
   inkscape:document-units="px"
   inkscape:pageshadow="2"
   inkscape:pageopacity="0.0"
   width="400px"
   height="300px"
   id="base"
   objecttolerance="10"
   guidetolerance="10"
   gridtolerance="10000"
   borderopacity="1"
   inkscape:cy="315.77956"
   bordercolor="#d6d6d6"
   inkscape:cx="512.07178"
   pagecolor="#ffffff"
   inkscape:zoom="1.0993301"
   borderlayer="true"
   showgrid="false"
   inkscape:window-maximized="1"
   inkscape:snap-nodes="false"
   inkscape:object-paths="false"
   inkscape:snap-bbox="true"
   inkscape:bbox-paths="true"
   inkscape:snap-midpoints="false"
   inkscape:snap-to-guides="false"
   inkscape:snap-grids="false"
   inkscape:snap-bbox-midpoints="true"
   inkscape:snap-center="false"
   inkscape:snap-object-midpoints="false"
   inkscape:snap-global="true"
   inkscape:bbox-nodes="true"
   inkscape:snap-bbox-edge-midpoints="true">
	</sodipodi:namedview><metadata
   id="metadata40"><rdf:RDF><cc:Work
       rdf:about=""><dc:format>image/svg+xml</dc:format><dc:type
         rdf:resource="http://purl.org/dc/dcmitype/StillImage" /><dc:title></dc:title></cc:Work></rdf:RDF></metadata><defs
   id="defs38"><inkscape:path-effect
   is_visible="false"
   id="path-effect3060"
   effect="spiro" /><inkscape:path-effect
   vertical="false"
   scale_y_rel="false"
   prop_scale="2.12"
   bendpath="m 57.028591,67.026059 411.281859,0"
   is_visible="false"
   id="path-effect3058"
   effect="bend_path" />
		
		
	
		
			
			
			
			
			
			
			
			
			
			
			
			
			
			
		<inkscape:perspective
   id="perspective23"
   inkscape:persp3d-origin="499.5 : 222 : 1"
   inkscape:vp_z="999 : 333 : 1"
   inkscape:vp_y="0 : 1000 : 0"
   inkscape:vp_x="0 : 333 : 1"
   sodipodi:type="inkscape:persp3d" /></defs>

<g
   inkscape:label="Layer 1"
   inkscape:groupmode="layer"
   id="layer1"
   transform="translate(0,586.9385)">
	<rect
   style="fill:#000000;fill-opacity:1;fill-rule:evenodd;stroke:none"
   id="rect3774"
   width="1223.8594"
   height="758.83514"
   x="69.388832"
   y="-522.16174" /><g
   transform="matrix(2.1653057,0,0,2.1653057,792.07448,-313.06442)"
   id="g3015"><path
     d="m 318.51098,190.64196 c 0,0.19 -0.16,0.351 -0.359,0.351 h -0.16 c -0.19,0 -0.351,-0.16 -0.351,-0.351 v -2.979 h -1.68 v 2.979 c 0,0.19 -0.17,0.351 -0.37,0.351 h -0.149 c -0.19,0 -0.351,-0.16 -0.351,-0.351 v -2.979 h -1.26 c -0.18,0 -0.33,-0.13 -0.33,-0.33 v -0.17 c 0,-0.2 0.15,-0.32 0.33,-0.32 h 4.41 c 0.17,0 0.29,0.061 0.35,0.16 l 0.83,1.25 0.83,-1.25 c 0.07,-0.09 0.17,-0.16 0.35,-0.16 h 0.561 v 3.83 c 0,0.18 -0.17,0.35 -0.37,0.35 l -0.05,-0.029 h -0.16 c -0.19,0 -0.351,-0.16 -0.351,-0.351 v -2.5 l -0.55,0.84 c -0.06,0.08 -0.17,0.12 -0.27,0.12 h -0.061 c -0.1,0 -0.22,-0.04 -0.279,-0.12 l -0.561,-0.84 v 2.499 z"
     id="path8"
     inkscape:connector-curvature="0"
     style="fill:#73ba25" /><path
     d="m 290.76098,95.181965 c 5.47,0.19 9.75,4.79 9.57,10.260005 -0.08,2.64 -1.2,5.08999 -3.13,6.89999 -1.94,1.8 -4.46,2.74 -7.12,2.66 -5.46,-0.2 -9.74,-4.79999 -9.561,-10.26999 0.08,-2.65001 1.21,-5.100005 3.141,-6.900005 1.93,-1.81 4.45,-2.75 7.1,-2.65 z m 6.02,7.910005 c 0,-1.63 -1.971,-2.94 -4.4,-2.94 -2.429,0 -4.39,1.31 -4.39,2.94 0,1.61 1.96,2.93 4.39,2.93 2.43,0 4.4,-1.32 4.4,-2.93 z"
     id="path14"
     inkscape:connector-curvature="0"
     style="fill:#73ba25" /><path
     d="m 312.76098,124.56196 1.021,-0.19 c 0.279,0.22 0.239,0.67 0.149,1.07 -0.189,0.93 -0.64,2.62 -0.95,3.42 l -0.26,0.66 c -0.359,0.98 -0.72,1.91 -1.41,2.47 -1.899,1.73 -4.939,3.11 -9.699,5.19 -7.36,3.22 -19.29,5.25 -30.37,5.18 -3.971,-0.09 -7.811,-0.53 -11.181,-0.91 -10.319,-1.18 -17.779,-2.02 -19.33,7.36 -1.96,11.76 9.101,26.04 9.211,26.169 l -0.011,0.391 -0.359,0.09 c 0,0 -17.63,-8.12 -18.061,-8.36 l -0.56,-0.399 -0.45,-0.431 c -1.33,-1.279 -4,-4.149 -9.42,-10.43 -10.51,-12.15 -22.81,-13.75 -32.29,-11.44 -2.31,0.55 -5.25,2.24 -7.16,4.14 -4.95,4.88 -4.39,14.71 -4.11,18.29 0.33,4.05 0.54,4.35 0.63,4.68 l -0.06,0.41 -0.35,0.04 -0.2,-0.14 -14.46,-7.07 -0.55,-2.36 c -0.37,-1.56 -0.8,-3.29 -1.62,-5.46 -5.17,-13.63 -16.79,-23.88 -29.59,-26.09 -8.65,-1.49 -24.42,-1.66 -32.770002,14.1 -3.489996,6.58 -3.279996,15.15 0.55,22.37 3.900002,7.391 10.870002,12.13 19.120002,13.04 8.18,0.891 14.33,-1 17.78,-5.47 3.48,-4.51 4.13,-10.65 1.66,-15.65 -2.65,-5.369 -6.65,-8.22 -12.21,-8.689 -4.23,-0.38 -7.37,1.38 -8.5,3.18 -0.33,0.561 -0.93,1.601 -0.94,3.08 v 0.05 c 0,4.03 3.69,5.13 4.44,5.181 0.23,0 1.34,-0.03 2.81,-0.4 l 0.71,-0.229 0.49,-0.171 0.36,-0.069 c 2.68,-0.49 5.26,1.09 6.01,3.7 0.13,0.479 0.2,0.96 0.2,1.439 0,1.73 -0.88,3.34 -2.34,4.32 l 0.06,-0.021 -0.16,0.09 -0.24,0.15 c -0.77,0.49 -1.48,0.76 -2.23,0.99 -2.1,0.689 -3.96,1.01 -5.83,1.01 -6.38,-0.01 -15.27,-5.5 -15.39,-15.81 -0.06,-5.82 2.86,-11.12 8,-14.53 5.92,-3.91 16.15,-5.24 25.64,0.58 11.68,7.15 14.73,21.149 11.68,30.7 -4.43,13.83 -16.89,21.22 -33.34,19.75 -11.65,-1.04 -22.469998,-7.19 -28.909998,-16.45 -2.86,-4.101 -4.98,-8.67 -6.12,-13.23 -2.63,-10.43 0.03,-21.51 2.01,-26.42 6.3,-15.61 18.359998,-29.03999 35.809998,-39.929995 l 1.1,-0.69 c 37.12,-22.811 63.39,-21.891 82.62,-21.221 22.681,0.79 46.87,8.61 50.21,9.72 0.011,-0.75 0.141,-7.51 0.141,-7.51 l 0.1,-0.23 0.26,-0.07 c 1.521,0.21 34.11,5.05 47.841,13.05 1.699,1 2.539,2.04 3.59,3.12 3.79,3.92 8.81,20.249995 9.34,23.619995 l -0.2,0.34 c -0.2,0.07 -0.67,0.42 -1.3,0.84 -3.2,2.24 -10.69,7.48 -20.29,6.62 -8.63,-0.76 -19.9,-5.71 -33.49,-14.66 0.601,1.41 3.43,8.11 3.91,9.24 l 0.18,0.22 c 1.971,1.02 20.851,10.64 30.221,10.45 7.557,-0.15 15.627,-3.84 18.857,-5.78 z m -8.78,-18.82999 c 0.261,-7.680005 -5.77,-14.160005 -13.46,-14.430005 -3.72,-0.13 -7.27,1.19 -9.989,3.73 -2.73,2.54 -4.29,5.989995 -4.42,9.709995 -0.25,7.68 5.77,14.15 13.449,14.43 3.74,0.13 7.28,-1.19 10,-3.74 2.72,-2.54 4.28,-5.97999 4.42,-9.69999 z"
     id="path24"
     inkscape:connector-curvature="0"
     style="fill:#73ba25" /></g>
<path
   sodipodi:type="star"
   style="fill:#ffffff;fill-opacity:1;fill-rule:nonzero;stroke:none"
   id="path4632"
   sodipodi:sides="3"
   sodipodi:cx="155.17587"
   sodipodi:cy="175.80927"
   sodipodi:r1="15.611246"
   sodipodi:r2="7.8056231"
   sodipodi:arg1="0"
   sodipodi:arg2="1.0471976"
   inkscape:flatsided="true"
   inkscape:rounded="-0.014827463"
   inkscape:randomized="0"
   d="m 170.78712,175.80927 c 0,-0.40093 -23.76408,13.31927 -23.41687,13.51973 0.34721,0.20046 0.34721,-27.23993 0,-27.03947 -0.34721,0.20046 23.41687,13.92066 23.41687,13.51974 z"
   transform="matrix(-37.83249,0,0,1.2756866,6567.2419,-88.608554)"
   inkscape:transform-center-x="147.58148" /><path
   style="fill:#73ba25;fill-opacity:1;fill-rule:nonzero;stroke:none"
   inkscape:transform-center-x="3.2409501"
   d="m 202.95208,63.181029 c 0,0 3.23673,-21.294433 4.57733,-21.138781 1.34063,0.155513 -97.42182,10.670508 -97.42182,10.359135 0,-0.311721 91.51895,10.440658 92.84449,10.779646 z"
   id="path4582"
   inkscape:connector-curvature="0"
   sodipodi:nodetypes="ssss" /><path
   style="fill:#73ba25;fill-opacity:1;fill-rule:nonzero;stroke:none"
   inkscape:transform-center-x="3.2409501"
   d="m 230.50942,118.11286 c 0,0 2.9565,-17.32475 4.29709,-17.1892 1.34064,0.13544 -97.88888,9.10993 -97.88888,8.83876 0,-0.27149 92.26625,8.05522 93.59179,8.35044 z"
   id="path4582-4"
   inkscape:connector-curvature="0"
   sodipodi:nodetypes="ssss" /><path
   style="fill:#73ba25;fill-opacity:1;fill-rule:nonzero;stroke:none"
   inkscape:transform-center-x="3.2409501"
   d="m 476.84173,118.99607 c 0,0 3.89068,-16.34816 5.23127,-16.2126 1.34064,0.13544 -98.82306,8.13332 -98.82306,7.86215 0,-0.27148 92.26626,8.05522 93.59179,8.35045 z"
   id="path4582-4-5"
   inkscape:connector-curvature="0"
   sodipodi:nodetypes="ssss" /><g
   transform="matrix(1.9167794,0,0,1.9167794,809.71546,-432.04538)"
   id="g644"><g
     id="g626"><rect
       y="0"
       x="0"
       width="135"
       style="font-size:12px;fill:#0061f3;fill-opacity:1;fill-rule:evenodd;stroke-width:1pt"
       id="rect614"
       height="10" /><rect
       y="10"
       x="0"
       width="135"
       style="font-size:12px;fill:#ffffff;fill-opacity:1;fill-rule:evenodd;stroke-width:1pt"
       id="rect615"
       height="10" /><rect
       y="20"
       x="0"
       width="135"
       style="font-size:12px;fill:#0061f3;fill-opacity:1;fill-rule:evenodd;stroke-width:1pt"
       id="rect616"
       height="10" /><rect
       y="30"
       x="0"
       width="135"
       style="font-size:12px;fill:#ffffff;fill-opacity:1;fill-rule:evenodd;stroke-width:1pt"
       id="rect617"
       height="10" /><rect
       y="40"
       x="0"
       width="135"
       style="font-size:12px;fill:#0061f3;fill-opacity:1;fill-rule:evenodd;stroke-width:1pt"
       id="rect618"
       height="10" /><rect
       y="50"
       x="0"
       width="135"
       style="font-size:12px;fill:#ffffff;fill-opacity:1;fill-rule:evenodd;stroke-width:1pt"
       id="rect619"
       height="10" /><rect
       y="60"
       x="0"
       width="135"
       style="font-size:12px;fill:#0061f3;fill-opacity:1;fill-rule:evenodd;stroke-width:1pt"
       id="rect620"
       height="10" /><rect
       y="70"
       x="0"
       width="135"
       style="font-size:12px;fill:#ffffff;fill-opacity:1;fill-rule:evenodd;stroke-width:1pt"
       id="rect621"
       height="10" /><rect
       y="80"
       x="0"
       width="135"
       style="font-size:12px;fill:#0061f3;fill-opacity:1;fill-rule:evenodd;stroke-width:1pt"
       id="rect622"
       height="10" /></g><g
     id="g639"><rect
       y="0"
       x="0"
       width="50"
       style="font-size:12px;fill:#0061f3;fill-rule:evenodd;stroke-width:1pt"
       id="rect623"
       height="50" /><g
       id="g636"><rect
         y="0"
         x="20"
         width="10"
         style="font-size:12px;fill:#ffffff;fill-rule:evenodd;stroke-width:1pt"
         id="rect624"
         height="50" /><rect
         y="20"
         x="0"
         width="50"
         style="font-size:12px;fill:#ffffff;fill-rule:evenodd;stroke-width:1pt"
         id="rect625"
         height="10" /></g></g></g><text
   xml:space="preserve"
   style="font-size:80.61190033px;font-style:normal;font-variant:normal;font-weight:normal;font-stretch:normal;text-align:start;line-height:125%;letter-spacing:0px;word-spacing:0px;writing-mode:lr-tb;text-anchor:start;fill:#ffffff;fill-opacity:1;stroke:none;font-family:FifthLeg;-inkscape-font-specification:FifthLeg"
   x="141.5956"
   y="-360.034"
   id="text4748"
   sodipodi:linespacing="125%"><tspan
     sodipodi:role="line"
     id="tspan4750"
     x="141.5956"
     y="-360.034">Kostas Koudaras</tspan></text>

<text
   xml:space="preserve"
   style="font-size:59.56858826px;font-style:normal;font-variant:normal;font-weight:normal;font-stretch:normal;text-align:start;line-height:125%;letter-spacing:0px;word-spacing:0px;writing-mode:lr-tb;text-anchor:start;fill:#ffffff;fill-opacity:1;stroke:none;font-family:FifthLeg;-inkscape-font-specification:FifthLeg"
   x="270.6911"
   y="-285.9631"
   id="text4748-5"
   sodipodi:linespacing="125%"><tspan
     sodipodi:role="line"
     x="270.6911"
     y="-285.9631"
     id="tspan4794">(warlordfff)</tspan></text>

<text
   xml:space="preserve"
   style="font-size:170.33908081000001289px;font-style:normal;font-variant:normal;font-weight:normal;font-stretch:normal;text-align:start;line-height:125%;letter-spacing:0px;word-spacing:0px;writing-mode:lr-tb;text-anchor:start;fill:#73ba25;fill-opacity:1;stroke:none;font-family:FifthLeg;-inkscape-font-specification:FifthLeg"
   x="308.74371"
   y="44.955719"
   id="text3987"
   sodipodi:linespacing="125%"
   transform="matrix(0.71621849,0,-0.77393493,1.396222,0,0)"><tspan
     sodipodi:role="line"
     id="tspan3989"
     x="308.74371"
     y="44.955719"
     style="font-size:170.33908081000001289px;font-style:normal;font-variant:normal;font-weight:normal;font-stretch:normal;text-align:start;line-height:125%;writing-mode:lr-tb;text-anchor:start;fill:#73ba25;fill-opacity:1;font-family:FifthLeg;-inkscape-font-specification:FifthLeg">Speedy Geeko</tspan></text>
</g>
</svg>