<?xml version="1.0" encoding="UTF-8" standalone="no"?>
<!-- Created with Inkscape (http://www.inkscape.org/) -->
<svg
   xmlns:dc="http://purl.org/dc/elements/1.1/"
   xmlns:cc="http://creativecommons.org/ns#"
   xmlns:rdf="http://www.w3.org/1999/02/22-rdf-syntax-ns#"
   xmlns:svg="http://www.w3.org/2000/svg"
   xmlns="http://www.w3.org/2000/svg"
   xmlns:sodipodi="http://sodipodi.sourceforge.net/DTD/sodipodi-0.dtd"
   xmlns:inkscape="http://www.inkscape.org/namespaces/inkscape"
   width="1052.3622"
   height="744.09448"
   id="svg2"
   inkscape:label="Pozadí"
   sodipodi:version="0.32"
   inkscape:version="0.46"
   version="1.0"
   sodipodi:docbase="/nfshome/cihlarov/Export/lizard_stone"
   sodipodi:docname="erlenka14-labsonly.svg"
   inkscape:export-filename="/home/cihlarov/grafika/lizard/erlenka12.png"
   inkscape:export-xdpi="105.131"
   inkscape:export-ydpi="105.131"
   inkscape:output_extension="org.inkscape.output.svg.inkscape">
  <defs
     id="defs3">
    <inkscape:perspective
       sodipodi:type="inkscape:persp3d"
       inkscape:vp_x="0 : 372.04724 : 1"
       inkscape:vp_y="0 : 1000 : 0"
       inkscape:vp_z="1052.3622 : 372.04724 : 1"
       inkscape:persp3d-origin="526.18109 : 248.03149 : 1"
       id="perspective99" />
    <path
       style="fill:none;fill-rule:evenodd;stroke:none;stroke-width:1px;stroke-linecap:butt;stroke-linejoin:miter;stroke-opacity:1"
       d="M 80.748026,25.018406 C 92.1711,11.984865 110.79059,14.027674 121.19694,23.220675 C 130.92055,31.810531 132.17492,48.720256 123.14449,59.924324 C 113.24529,72.206266 92.732892,72.545885 82.246135,62.471108 C 72.280671,52.897145 71.777062,35.254129 80.748026,25.018406 z "
       id="path3161"
       sodipodi:nodetypes="cssss" />
  </defs>
  <sodipodi:namedview
     id="base"
     pagecolor="#ffffff"
     bordercolor="#666666"
     borderopacity="1.0"
     inkscape:pageopacity="0.0"
     inkscape:pageshadow="2"
     inkscape:zoom="0.5"
     inkscape:cx="457.94004"
     inkscape:cy="648.36985"
     inkscape:document-units="px"
     inkscape:current-layer="layer1"
     width="1052.3622px"
     height="744.09448px"
     inkscape:window-width="1272"
     inkscape:window-height="846"
     inkscape:window-x="0"
     inkscape:window-y="0"
     showgrid="true">
    <inkscape:grid
       type="xygrid"
       id="grid2491"
       visible="false"
       enabled="true" />
  </sodipodi:namedview>
  <metadata
     id="metadata6">
    <rdf:RDF>
      <cc:Work
         rdf:about="">
        <dc:format>image/svg+xml</dc:format>
        <dc:type
           rdf:resource="http://purl.org/dc/dcmitype/StillImage" />
      </cc:Work>
    </rdf:RDF>
  </metadata>
  <g
     inkscape:label="Vrstva 1"
     inkscape:groupmode="layer"
     id="layer1">
    <path
       style="fill:#000000;fill-opacity:0;fill-rule:evenodd;stroke:#000000;stroke-width:2.03976464;stroke-linecap:butt;stroke-linejoin:miter;stroke-miterlimit:4;stroke-dasharray:none;stroke-opacity:1"
       d="M 191.39791,107.91347 C 200.30343,105.2942 209.33538,102.75646 230.86034,103.4291 C 252.3853,104.10176 263.57323,104.06199 268.529,108.81035 C 271.31466,111.47944 263.14776,121.36655 263.14776,121.36655 C 263.14776,121.36655 260.30178,189.45293 264.94152,202.98206 C 288.05198,270.37063 314.7427,334.91899 325.92892,394.91294 C 330.06504,417.09595 309.50957,418.45941 307.99143,419.12854 C 293.75824,425.40167 175.73892,423.43725 162.69796,420.92225 C 159.14795,420.23763 141.62143,415.98946 143.86361,396.7067 C 151.05882,334.82801 180.36048,268.24149 196.77914,202.98206 C 199.39169,192.59792 196.77914,122.26343 196.77914,122.26343 C 196.77914,122.26343 187.58618,109.03455 191.39791,107.91347 z "
       id="path2159"
       sodipodi:nodetypes="csscsssssscs"
       inkscape:export-filename="/home/cihlarov/grafika/lizard/text3163.png"
       inkscape:export-xdpi="305.20001"
       inkscape:export-ydpi="305.20001" />
    <path
       style="fill:#008000;fill-rule:evenodd;stroke:#000000;stroke-width:0.17688225px;stroke-linecap:butt;stroke-linejoin:miter;stroke-opacity:1"
       d="M 223.49753,171.04758 C 223.49753,171.04758 225.84916,162.8737 232.60681,159.24605 C 240.24242,155.14718 249.56238,159.17412 252.92498,165.80338 C 256.49514,172.84108 251.9546,182.48093 245.7821,185.54854 C 238.94158,188.94626 235.82188,187.3053 235.82188,187.3053 C 235.82188,187.3053 235.71185,184.23252 236.48722,183.18382 C 237.18706,182.23729 239.44209,180.35516 239.44209,180.35516 C 239.44209,180.35516 242.38003,179.93589 245.31559,177.95317 C 248.25109,175.97064 250.83886,172.35654 250.83886,172.35654 L 250.33952,170.38231 C 250.33952,170.38231 249.39155,172.07156 247.00715,173.73048 C 245.04953,175.0927 238.00092,175.70905 238.00092,175.70905 L 236.64616,173.93099 C 236.64616,173.93099 245.34552,173.82557 246.8455,172.44181 C 248.77486,170.66193 249.69023,168.37371 249.69023,168.37371 C 249.69023,168.37371 246.18669,164.14386 243.4021,163.95046 C 238.25837,163.59317 230.71777,167.08328 230.71777,167.08328 L 231.51191,168.61293 C 231.51191,168.61293 231.30995,168.77947 229.27839,169.27118 C 227.7209,169.6482 223.49753,171.04758 223.49753,171.04758 z "
       id="path4896"
       sodipodi:nodetypes="cssscscsccsccscsccsc" />
    <path
       style="fill:#b3ff80;fill-opacity:1;fill-rule:evenodd;stroke:#b3ff80;stroke-width:0.17688225px;stroke-linecap:butt;stroke-linejoin:miter;stroke-opacity:1"
       d="M 223.53841,170.91839 C 223.53841,170.91839 222.87729,176.9303 225.95536,181.60005 C 229.57043,187.08481 235.7692,187.38464 235.7692,187.38464 C 235.7692,187.38464 235.58556,183.67916 237.0755,182.44688 C 238.302,181.43253 239.70008,180.43702 239.70008,180.43702 C 239.70008,180.43702 242.64764,179.93172 245.48552,177.86495 C 248.32344,175.79833 251.05199,172.17009 251.05199,172.17009 L 250.50616,170.07986 C 250.50616,170.07986 248.24068,173.55515 246.15724,174.17172 C 243.28931,175.02054 237.91272,175.53915 237.91272,175.53915 L 236.47295,173.80525 C 236.47295,173.80525 242.82413,174.14527 246.17878,172.75814 C 248.73221,171.70219 249.92285,168.3329 249.92285,168.3329 C 249.92285,168.3329 247.46948,165.22683 244.37332,163.87775 C 241.71804,162.72085 230.67364,166.99826 230.67364,166.99826 L 231.42686,168.65709 C 231.42686,168.65709 229.73307,168.51158 226.81832,169.75513 C 224.90656,170.57064 223.53841,170.91839 223.53841,170.91839 z "
       id="path4898"
       sodipodi:nodetypes="cscscsccsccscsccsc" />
    <path
       style="fill:#008000;fill-opacity:1;fill-rule:evenodd;stroke:#008000;stroke-width:0.17688225px;stroke-linecap:butt;stroke-linejoin:miter;stroke-opacity:1"
       d="M 241.23694,165.39814 C 239.50179,166.05622 238.63763,168.29486 239.37859,169.92318 C 240.14288,171.60317 242.17162,172.6537 243.90684,171.9956 C 245.64205,171.33758 246.98632,168.95816 246.23423,167.33502 C 245.33751,165.4002 242.97209,164.74011 241.23694,165.39814 z "
       id="path4900"
       sodipodi:nodetypes="cssss" />
    <path
       sodipodi:type="arc"
       style="opacity:1;fill:none;fill-opacity:1;fill-rule:evenodd;stroke:black;stroke-width:10.52900028;stroke-linecap:round;stroke-linejoin:round;stroke-miterlimit:4;stroke-dasharray:none;stroke-dashoffset:0;stroke-opacity:1"
       id="path4902"
       sodipodi:cx="385.72043"
       sodipodi:cy="534.45532"
       sodipodi:rx="86.946144"
       sodipodi:ry="82.940498"
       d="M 472.66657 534.45532 A 86.946144 82.940498 0 1 1  298.77428,534.45532 A 86.946144 82.940498 0 1 1  472.66657 534.45532 z"
       transform="matrix(0.1569872,-8.1501529e-2,8.1501529e-2,0.1569872,134.77345,120.0854)" />
    <path
       style="fill:#b3ff80;fill-opacity:1;fill-rule:evenodd;stroke:#b3ff80;stroke-width:0.17688225px;stroke-linecap:butt;stroke-linejoin:miter;stroke-opacity:1"
       d="M 241.46192,166.46199 C 240.43129,167.07183 239.99488,168.82973 240.49283,169.88605 C 241.02393,171.01291 242.66547,171.42596 243.84655,170.94761 C 245.02771,170.46928 245.78671,168.96997 245.25557,167.84318 C 244.72445,166.71638 242.86127,165.87655 241.68017,166.35483 C 241.60636,166.38481 241.53053,166.42136 241.46192,166.46199 z M 242.67525,167.23962 C 243.19625,166.99618 243.74717,167.11721 243.96628,167.43516 C 244.18521,167.753 244.07327,168.26594 243.55236,168.50945 C 243.03138,168.75293 242.09852,168.7242 241.87961,168.40627 C 241.66071,168.08844 242.15422,167.48316 242.67525,167.23962 z "
       id="path4904" />
    <path
       style="fill:#008000;fill-rule:evenodd;stroke:#000000;stroke-width:0.18935397px;stroke-linecap:butt;stroke-linejoin:miter;stroke-opacity:1"
       d="M 203.87837,319.36133 C 203.87837,319.36133 197.61241,312.75535 189.40254,312.64195 C 180.12614,312.51383 173.25761,320.93699 173.33259,328.89406 C 173.41211,337.34162 182.48082,344.26076 189.85848,344.13074 C 198.03361,343.9847 200.18823,340.88684 200.18823,340.88684 C 200.18823,340.88684 198.77711,337.91319 197.52317,337.29929 C 196.39138,336.7451 193.32054,336.06924 193.32054,336.06924 C 193.32054,336.06924 190.32234,337.11991 186.55532,336.68427 C 182.78846,336.2486 178.54711,334.09121 178.54711,334.09121 L 178.04775,331.96913 C 178.04775,331.96913 179.78168,333.10656 182.86531,333.50669 C 185.39713,333.83522 192.39804,330.94411 192.39804,330.94411 L 192.80814,328.58656 C 192.80814,328.58656 184.49094,332.77739 182.38329,332.2025 C 179.6722,331.46312 177.67388,329.74058 177.67388,329.74058 C 177.67388,329.74058 178.91625,323.99374 181.46641,322.43645 C 186.17721,319.55979 195.06308,319.15632 195.06308,319.15632 L 195.06308,321.00137 C 195.06308,321.00137 195.33711,321.05987 197.5098,320.52501 C 199.17553,320.11503 203.87837,319.36133 203.87837,319.36133 z "
       id="path4836"
       sodipodi:nodetypes="cssscscsccsccscsccsc" />
    <path
       style="fill:#b3ff80;fill-opacity:1;fill-rule:evenodd;stroke:#b3ff80;stroke-width:0.18935397px;stroke-linecap:butt;stroke-linejoin:miter;stroke-opacity:1"
       d="M 203.77585,319.25883 C 203.77585,319.25883 207.3694,324.64468 206.74841,330.59959 C 206.01899,337.5938 200.27755,340.93625 200.27755,340.93625 C 200.27755,340.93625 198.62418,337.32507 196.60076,336.88926 C 194.93508,336.53052 193.1157,336.27422 193.1157,336.27422 C 193.1157,336.27422 190.06604,337.24803 186.35039,336.68427 C 182.6347,336.12049 178.25268,334.01918 178.25268,334.01918 L 177.74023,331.76414 C 177.74023,331.76414 181.60681,333.94843 183.89035,333.50669 C 187.03398,332.8985 192.39804,330.7391 192.39804,330.7391 L 192.91068,328.38157 C 192.91068,328.38157 187.0442,331.8375 183.17271,332.17416 C 180.22594,332.43043 177.43271,329.81659 177.43271,329.81659 C 177.43271,329.81659 178.23155,325.65524 180.50771,322.84642 C 182.45984,320.43743 195.06308,319.05383 195.06308,319.05383 L 195.16568,321.00137 C 195.16568,321.00137 196.70312,320.02762 200.08583,319.77135 C 202.30444,319.60325 203.77585,319.25883 203.77585,319.25883 z "
       id="path4838"
       sodipodi:nodetypes="cscscsccsccscsccsc" />
    <path
       style="fill:#008000;fill-opacity:1;fill-rule:evenodd;stroke:#008000;stroke-width:0.18935397px;stroke-linecap:butt;stroke-linejoin:miter;stroke-opacity:1"
       d="M 184.23766,322.74391 C 186.21076,322.5133 188.13598,324.21399 188.23521,326.12647 C 188.33771,328.09967 186.92841,330.09845 184.95517,330.32911 C 182.98195,330.55977 180.53116,328.96219 180.44504,327.04902 C 180.34264,324.76835 182.26449,322.97456 184.23766,322.74391 z "
       id="path4840"
       sodipodi:nodetypes="cssss" />
    <path
       sodipodi:type="arc"
       style="opacity:1;fill:none;fill-opacity:1;fill-rule:evenodd;stroke:black;stroke-width:10.52900028;stroke-linecap:round;stroke-linejoin:round;stroke-miterlimit:4;stroke-dasharray:none;stroke-dashoffset:0;stroke-opacity:1"
       id="path4842"
       sodipodi:cx="385.72043"
       sodipodi:cy="534.45532"
       sodipodi:rx="86.946144"
       sodipodi:ry="82.940498"
       d="M 472.66657 534.45532 A 86.946144 82.940498 0 1 1  298.77428,534.45532 A 86.946144 82.940498 0 1 1  472.66657 534.45532 z"
       transform="matrix(-0.1893545,0,0,0.1893545,263.0379,227.17868)" />
    <path
       style="fill:#b3ff80;fill-opacity:1;fill-rule:evenodd;stroke:#b3ff80;stroke-width:0.18935397px;stroke-linecap:butt;stroke-linejoin:miter;stroke-opacity:1"
       d="M 184.54859,323.86563 C 185.82852,323.93662 187.1103,325.39159 187.1583,326.64083 C 187.20948,327.97334 185.85359,329.17545 184.49546,329.30361 C 183.13727,329.43175 181.67667,328.38165 181.62559,327.04913 C 181.57436,325.71658 182.93027,323.99962 184.28839,323.87153 C 184.37324,323.8635 184.46334,323.86087 184.54859,323.86563 z M 183.77943,325.2029 C 183.1643,325.22853 182.70052,325.6154 182.6493,326.02539 C 182.59801,326.43543 182.9574,326.86763 183.57239,326.84197 C 184.18745,326.8164 185.05965,326.32891 185.11077,325.91892 C 185.16199,325.50892 184.39445,325.1773 183.77943,325.2029 z "
       id="path4844" />
    <path
       style="fill:#008000;fill-rule:evenodd;stroke:#000000;stroke-width:0.29617497px;stroke-linecap:butt;stroke-linejoin:miter;stroke-opacity:1"
       d="M 164.56315,382.13814 C 164.56315,382.13814 169.70965,368.85914 181.52309,363.82189 C 194.87111,358.1303 209.81055,366.24275 214.42519,377.80216 C 219.32436,390.07409 210.3077,405.46994 199.55423,409.66091 C 187.63686,414.30212 182.68004,411.09806 182.68004,411.09806 C 182.68004,411.09806 182.95721,405.95717 184.40742,404.32445 C 185.7163,402.85065 189.75899,400.04985 189.75899,400.04985 C 189.75899,400.04985 194.72144,399.79067 199.91414,396.92426 C 205.10678,394.05786 209.96403,388.41827 209.96403,388.41827 L 209.42707,385.05093 C 209.42707,385.05093 207.59295,387.7262 203.36804,390.13557 C 199.89909,392.11385 188.05179,392.08557 188.05179,392.08557 L 186.059,388.91728 C 186.059,388.91728 200.58264,390.04511 203.29145,387.96214 C 206.77574,385.28298 208.64526,381.60404 208.64526,381.60404 C 208.64526,381.60404 203.43629,374.02502 198.82144,373.28515 C 190.29683,371.91844 177.1983,376.60896 177.1983,376.60896 L 178.29346,379.27899 C 178.29346,379.27899 177.93167,379.52628 174.46986,380.04199 C 171.81597,380.43743 164.56315,382.13814 164.56315,382.13814 z "
       id="path4786"
       sodipodi:nodetypes="cssscscsccsccscsccsc" />
    <path
       style="fill:#b3ff80;fill-opacity:1;fill-rule:evenodd;stroke:#b3ff80;stroke-width:0.29617497px;stroke-linecap:butt;stroke-linejoin:miter;stroke-opacity:1"
       d="M 164.65065,381.92894 C 164.65065,381.92894 162.64712,391.85603 167.08048,400.10497 C 172.28765,409.79347 182.58025,411.22253 182.58025,411.22253 C 182.58025,411.22253 182.82936,405.01531 185.49888,403.18355 C 187.69642,401.6757 190.17718,400.22487 190.17718,400.22487 C 190.17718,400.22487 195.16835,399.82393 200.2108,396.80258 C 205.25326,393.78118 210.34734,388.13929 210.34734,388.13929 L 209.75037,384.57178 C 209.75037,384.57178 205.45132,390.02788 201.88469,390.74399 C 196.97435,391.72988 187.9301,391.7889 187.9301,391.7889 L 185.78904,388.68146 C 185.78904,388.68146 196.32978,390.20054 202.13216,388.38973 C 206.54872,387.01143 209.03941,381.57086 209.03941,381.57086 C 209.03941,381.57086 205.41323,376.02306 200.4521,373.30939 C 196.19721,370.982 177.13746,376.46063 177.13746,376.46063 L 178.14501,379.33988 C 178.14501,379.33988 175.34198,378.8434 170.29486,380.48032 C 166.98426,381.55404 164.65065,381.92894 164.65065,381.92894 z "
       id="path4788"
       sodipodi:nodetypes="cscscsccsccscsccsc" />
    <path
       style="fill:#008000;fill-opacity:1;fill-rule:evenodd;stroke:#008000;stroke-width:0.29617497px;stroke-linecap:butt;stroke-linejoin:miter;stroke-opacity:1"
       d="M 194.99358,375.37502 C 192.00135,376.21248 190.22486,379.81633 191.21637,382.64286 C 192.23925,385.55919 195.46522,387.61513 198.45765,386.77766 C 201.45002,385.94025 204.04849,382.17357 203.03739,379.35389 C 201.83184,375.99267 197.98594,374.53758 194.99358,375.37502 z "
       id="path4790"
       sodipodi:nodetypes="cssss" />
    <path
       sodipodi:type="arc"
       style="opacity:1;fill:none;fill-opacity:1;fill-rule:evenodd;stroke:black;stroke-width:10.52900028;stroke-linecap:round;stroke-linejoin:round;stroke-miterlimit:4;stroke-dasharray:none;stroke-dashoffset:0;stroke-opacity:1"
       id="path4792"
       sodipodi:cx="385.72043"
       sodipodi:cy="534.45532"
       sodipodi:rx="86.946144"
       sodipodi:ry="82.940498"
       d="M 472.66657 534.45532 A 86.946144 82.940498 0 1 1  298.77428,534.45532 A 86.946144 82.940498 0 1 1  472.66657 534.45532 z"
       transform="matrix(0.2740202,-0.1123952,0.1123952,0.2740202,24.234602,283.8532)" />
    <path
       style="fill:#b3ff80;fill-opacity:1;fill-rule:evenodd;stroke:#b3ff80;stroke-width:0.29617497px;stroke-linecap:butt;stroke-linejoin:miter;stroke-opacity:1"
       d="M 195.20936,377.18288 C 193.39942,378.04529 192.40814,380.91164 193.08012,382.74798 C 193.79702,384.70667 196.47267,385.64148 198.51413,385.0208 C 200.55566,384.40006 202.04595,382.01349 201.32906,380.05478 C 200.61226,378.09598 197.6309,376.41615 195.58951,377.03694 C 195.46191,377.0757 195.32986,377.12542 195.20936,377.18288 z M 197.11625,378.66153 C 198.02154,378.33352 198.92242,378.61805 199.24001,379.1809 C 199.5576,379.74385 199.29402,380.58266 198.38883,380.91055 C 197.48354,381.23865 195.932,381.05089 195.61463,380.48795 C 195.2971,379.92504 196.21103,378.98953 197.11625,378.66153 z "
       id="path4794" />
    <path
       style="fill:#008000;fill-opacity:1;fill-rule:evenodd;stroke:#005f00;stroke-width:0.50994116px;stroke-linecap:butt;stroke-linejoin:miter;stroke-opacity:1"
       d="M 146.64717,381.76468 C 146.64717,381.76468 139.17043,396.20837 143.24866,408.9528 C 147.32687,421.69721 164.31945,424.58596 164.31945,424.58596 L 294.82239,421.86715 C 294.82239,421.86715 313.80219,424.89124 319.57968,409.59795 C 325.35715,394.30461 318.54283,379.04586 318.54283,379.04586 L 146.64717,381.76468 z "
       id="path2197"
       sodipodi:nodetypes="cscczcc" />
    <path
       style="fill:none;fill-rule:evenodd;stroke:#000000;stroke-width:0.20397651;stroke-linecap:butt;stroke-linejoin:miter;stroke-miterlimit:4;stroke-dasharray:none;stroke-opacity:1"
       d="M 197.26099,121.08489 C 197.26099,121.08489 212.29087,118.5474 228.49193,118.74254 C 244.693,118.93776 262.06518,121.86566 262.06518,121.86566 L 263.62673,123.42722"
       id="path5467"
       sodipodi:nodetypes="cscc" />
    <path
       style="fill:none;fill-rule:evenodd;stroke:#000000;stroke-width:0.20397651;stroke-linecap:butt;stroke-linejoin:miter;stroke-miterlimit:4;stroke-dasharray:none;stroke-opacity:1"
       d="M 191.40519,110.94019 C 191.40519,110.94019 211.90052,106.84111 228.10155,107.03632 C 244.30259,107.23151 261.67481,110.1594 261.67481,110.1594 L 267.921,111.72098"
       id="path5471"
       sodipodi:nodetypes="cscc" />
    <path
       style="fill:#000000;fill-opacity:1;fill-rule:evenodd;stroke:#000000;stroke-width:0.50994116px;stroke-linecap:butt;stroke-linejoin:miter;stroke-opacity:1"
       d="M 141.82606,381.86326 C 141.82606,381.86326 134.7991,405.09126 142.60684,415.43652 C 150.41457,425.78175 173.05702,423.24425 173.05702,423.24425 C 173.05702,423.24425 155.88,420.31634 148.07227,409.9711 C 140.26451,399.62585 141.82606,381.86326 141.82606,381.86326 z "
       id="path5483"
       sodipodi:nodetypes="cscsc" />
    <path
       style="fill:#000000;fill-opacity:1;fill-rule:evenodd;stroke:#000000;stroke-width:0.50994116px;stroke-linecap:butt;stroke-linejoin:miter;stroke-opacity:1"
       d="M 324.46471,380.90274 C 324.46471,380.90274 331.49165,404.13078 323.68394,414.476 C 315.87621,424.82127 293.23378,422.28373 293.23378,422.28373 C 293.23378,422.28373 311.77018,421.39495 319.57791,411.0497 C 327.38565,400.70443 324.46471,380.90274 324.46471,380.90274 z "
       id="path5487"
       sodipodi:nodetypes="cscsc" />
    <path
       style="fill:#000000;fill-opacity:1;fill-rule:evenodd;stroke:#000000;stroke-width:0.50994116px;stroke-linecap:butt;stroke-linejoin:miter;stroke-opacity:1"
       d="M 189.45326,107.81174 C 189.45326,107.81174 198.62734,110.73964 200.38409,118.74254 C 202.14083,126.74548 197.26099,149.19275 197.26099,149.19275 C 197.26099,149.19275 197.45619,129.8686 195.69944,121.86566 C 193.94271,113.8627 189.45326,107.81174 189.45326,107.81174 z "
       id="path5489"
       sodipodi:nodetypes="cscsc" />
    <path
       style="fill:#000000;fill-opacity:1;fill-rule:evenodd;stroke:#000000;stroke-width:8.51601887;stroke-linecap:butt;stroke-linejoin:miter;stroke-miterlimit:4;stroke-dasharray:none;stroke-opacity:1"
       d="M 192.57636,110.15403 L 192.57636,110.15403 z "
       id="path5493" />
    <path
       style="fill:#000000;fill-opacity:1;fill-rule:evenodd;stroke:#000000;stroke-width:0.50994116px;stroke-linecap:butt;stroke-linejoin:miter;stroke-opacity:1"
       d="M 195.69944,118.71017 C 195.21672,100.09546 204.09277,107.42135 202.72641,105.46942 C 201.36006,103.51749 191.99077,105.27423 190.23403,107.81174 C 188.47729,110.34924 195.78181,121.88665 195.69944,118.71017 z "
       id="path5495"
       sodipodi:nodetypes="csss" />
    <path
       style="fill:#000000;fill-opacity:1;fill-rule:evenodd;stroke:#000000;stroke-width:0.50994116px;stroke-linecap:butt;stroke-linejoin:miter;stroke-opacity:1"
       d="M 263.18738,112.38258 C 263.18738,112.38258 256.38015,110.28092 254.6234,118.28381 C 252.86666,126.28673 258.63406,137.33532 258.63406,137.33532 C 258.63406,137.33532 257.5513,129.40986 259.30804,121.40691 C 261.06479,113.40396 263.18738,112.38258 263.18738,112.38258 z "
       id="path5890"
       sodipodi:nodetypes="cscsc" />
    <path
       style="fill:#000000;fill-opacity:1;fill-rule:evenodd;stroke:#000000;stroke-width:8.51601887;stroke-linecap:butt;stroke-linejoin:miter;stroke-miterlimit:4;stroke-dasharray:none;stroke-opacity:1"
       d="M 262.43114,109.69531 L 262.43114,109.69531 z "
       id="path5892" />
    <path
       style="fill:#000000;fill-opacity:1;fill-rule:evenodd;stroke:#000000;stroke-width:0.50994116px;stroke-linecap:butt;stroke-linejoin:miter;stroke-opacity:1"
       d="M 260.14333,120.51667 C 260.14333,120.51667 264.1654,115.33915 263.94351,112.23266 C 263.72159,109.12613 262.39717,110.67942 259.84745,109.56993 C 257.29776,108.46046 253.74468,108.97821 253.74468,108.97821 L 256.59302,110.75338 L 256.00132,114.5995 L 260.14333,120.51667 z "
       id="path5896"
       sodipodi:nodetypes="csscccc" />
    <path
       sodipodi:type="arc"
       style="opacity:1;fill:none;fill-opacity:1;fill-rule:nonzero;stroke:none;stroke-width:3.25060296;stroke-linecap:round;stroke-miterlimit:4;stroke-dasharray:none;stroke-opacity:1"
       id="path2169"
       sodipodi:cx="47.864552"
       sodipodi:cy="32.808567"
       sodipodi:rx="27.490284"
       sodipodi:ry="25.318027"
       d="M 75.354836 32.808567 A 27.490284 25.318027 0 1 1  20.374268,32.808567 A 27.490284 25.318027 0 1 1  75.354836 32.808567 z"
       transform="matrix(1.4960666,0,0,1.5827364,160.00363,267.08764)" />
    <flowRoot
       xml:space="preserve"
       id="flowRoot3353"
       style="font-size:114.54428101px;font-style:normal;font-variant:normal;font-weight:normal;font-stretch:normal;text-align:start;line-height:100%;writing-mode:lr-tb;text-anchor:start;fill:#008000;fill-opacity:1;font-family:ChollaCZWideUltrabold"
       transform="matrix(0.8730248,0,0,0.8730248,134.16252,235.14933)"><flowRegion
         id="flowRegion3355"><rect
           id="rect3357"
           width="661.30042"
           height="212.50653"
           x="381.65475"
           y="91.587944"
           style="font-size:114.54428101px;font-style:normal;font-variant:normal;font-weight:normal;font-stretch:normal;text-align:start;line-height:100%;writing-mode:lr-tb;text-anchor:start;fill:#008000;fill-opacity:1;font-family:ChollaCZWideUltrabold" /></flowRegion><flowPara
         id="flowPara3361" /></flowRoot>    <path
       style="fill:none;fill-rule:evenodd;stroke:#000000;stroke-width:0.20397651;stroke-linecap:butt;stroke-linejoin:miter;stroke-miterlimit:4;stroke-dasharray:none;stroke-opacity:1"
       d="M 196.33763,122.80089 C 196.33763,122.80089 211.36751,125.33838 227.56857,125.14324 C 243.76964,124.94802 261.14182,122.02012 261.14182,122.02012 L 262.70337,120.45856"
       id="path4251"
       sodipodi:nodetypes="cscc" />
    <path
       style="fill:#008000;fill-rule:evenodd;stroke:#008000;stroke-width:0.2707617px;stroke-linecap:butt;stroke-linejoin:miter;stroke-opacity:1"
       d="M 202.08243,386.34428 C 200.25247,386.44572 198.41971,388.52621 198.35081,390.31251 C 198.27764,392.2178 200.21654,393.93684 202.15857,394.12 C 204.10057,394.30321 206.18897,392.80158 206.26223,390.89631 C 206.33578,388.99088 204.39685,386.53571 202.45482,386.35251 C 202.3333,386.34123 202.2045,386.3373 202.08243,386.34428 z M 203.18244,388.25641 C 204.06173,388.293 204.72522,388.84621 204.79849,389.43255 C 204.87187,390.01884 204.35798,390.63689 203.4786,390.60014 C 202.59918,390.56361 201.35192,389.86656 201.27851,389.28022 C 201.20532,388.69381 202.30297,388.2196 203.18244,388.25641 z "
       id="path4364" />
    <path
       style="fill:none;fill-rule:evenodd;stroke:#008000;stroke-width:0.2707617px;stroke-linecap:butt;stroke-linejoin:miter;stroke-opacity:1"
       d="M 203.03765,384.74007 C 200.2161,384.41039 197.46342,386.84231 197.32139,389.57706 C 197.17484,392.39846 199.19023,395.25651 202.01167,395.58644 C 204.83329,395.91626 208.33772,393.63187 208.46069,390.89614 C 208.60732,387.63505 205.85918,385.07011 203.03765,384.74007 z "
       id="path4366"
       sodipodi:nodetypes="cssss" />
    <path
       style="fill:#000000;fill-opacity:1;fill-rule:evenodd;stroke:#000000;stroke-width:0.40795302;stroke-linecap:butt;stroke-linejoin:miter;stroke-miterlimit:4;stroke-dasharray:none;stroke-opacity:1;opacity:0.99"
       d="M 156.66078,420.12115 C 156.66078,420.12115 212.71374,420.64 241.58413,421.68378 C 272.67125,422.8077 301.88464,417.77886 301.88464,417.77886 C 301.88464,417.77886 251.91514,412.11822 223.02652,412.31341 C 194.13791,412.50862 156.66078,420.12115 156.66078,420.12115 z "
       id="path5473"
       sodipodi:nodetypes="cscsc" />
    <path
       style="fill:#008000;fill-rule:evenodd;stroke:#000000;stroke-width:0.5049358px;stroke-linecap:butt;stroke-linejoin:miter;stroke-opacity:1"
       d="M 195.91355,276.56986 C 195.91355,276.56986 212.62216,258.95424 234.51482,258.65178 C 259.25168,258.31014 277.56718,280.77152 277.36746,301.99008 C 277.15527,324.5165 252.97232,342.96739 233.29934,342.62066 C 211.49904,342.23126 205.75342,333.97035 205.75342,333.97035 C 205.75342,333.97035 209.51661,326.04069 212.86024,324.40365 C 215.87853,322.92583 224.067,321.12354 224.067,321.12354 C 224.067,321.12354 232.06206,323.92532 242.1071,322.76349 C 252.15216,321.60181 263.46236,315.84894 263.46236,315.84894 L 264.79399,310.19023 C 264.79399,310.19023 260.17002,313.22322 251.94719,314.29018 C 245.19563,315.16621 226.52703,307.45673 226.52703,307.45673 L 225.43366,301.17008 C 225.43366,301.17008 247.61239,312.34546 253.2325,310.81255 C 260.46181,308.8408 265.79098,304.24754 265.79098,304.24754 C 265.79098,304.24754 262.47799,288.92262 255.67751,284.76989 C 243.11591,277.09902 219.42028,276.02324 219.42028,276.02324 L 219.42028,280.94322 C 219.42028,280.94322 218.68968,281.09927 212.89561,279.67306 C 208.45375,278.57962 195.91355,276.56986 195.91355,276.56986 z "
       id="path4766"
       sodipodi:nodetypes="cssscscsccsccscsccsc" />
    <path
       style="fill:#b3ff80;fill-opacity:1;fill-rule:evenodd;stroke:#b3ff80;stroke-width:0.5049358px;stroke-linecap:butt;stroke-linejoin:miter;stroke-opacity:1"
       d="M 196.18669,276.29654 C 196.18669,276.29654 186.60388,290.65859 188.26006,306.5381 C 190.20529,325.18897 205.5155,334.10222 205.5155,334.10222 C 205.5155,334.10222 209.92414,324.47257 215.32029,323.31026 C 219.76195,322.35352 224.6137,321.67023 224.6137,321.67023 C 224.6137,321.67023 232.74545,324.26695 242.65381,322.76349 C 252.56217,321.26035 264.24744,315.65688 264.24744,315.65688 L 265.61405,309.64348 C 265.61405,309.64348 255.30291,315.46833 249.21393,314.29018 C 240.83083,312.66839 226.52703,306.91017 226.52703,306.91017 L 225.16033,300.62341 C 225.16033,300.62341 240.80349,309.83912 251.12727,310.73683 C 258.98554,311.4202 266.4341,304.45013 266.4341,304.45013 C 266.4341,304.45013 264.30355,293.35327 258.2339,285.86327 C 253.02837,279.43949 219.42028,275.7499 219.42028,275.7499 L 219.14704,280.94322 C 219.14704,280.94322 215.04671,278.34654 206.02692,277.66321 C 200.11011,277.21492 196.18669,276.29654 196.18669,276.29654 z "
       id="path4768"
       sodipodi:nodetypes="cscscsccsccscsccsc" />
    <path
       style="fill:#008000;fill-opacity:1;fill-rule:evenodd;stroke:#008000;stroke-width:0.5049358px;stroke-linecap:butt;stroke-linejoin:miter;stroke-opacity:1"
       d="M 248.28767,285.58993 C 243.02606,284.9749 237.89253,289.51 237.62762,294.61001 C 237.35427,299.8717 241.11265,305.20182 246.37436,305.81678 C 251.63608,306.4318 258.17189,302.17172 258.4011,297.07009 C 258.67446,290.9883 253.54939,286.20495 248.28767,285.58993 z "
       id="path4770"
       sodipodi:nodetypes="cssss" />
    <path
       sodipodi:type="arc"
       style="opacity:1;fill:none;fill-opacity:1;fill-rule:evenodd;stroke:black;stroke-width:10.52900028;stroke-linecap:round;stroke-linejoin:round;stroke-miterlimit:4;stroke-dasharray:none;stroke-dashoffset:0;stroke-opacity:1"
       id="path4772"
       sodipodi:cx="385.72043"
       sodipodi:cy="534.45532"
       sodipodi:rx="86.946144"
       sodipodi:ry="82.940498"
       d="M 472.66657 534.45532 A 86.946144 82.940498 0 1 1  298.77428,534.45532 A 86.946144 82.940498 0 1 1  472.66657 534.45532 z"
       transform="matrix(0.5049362,0,0,0.5049362,38.15717,30.753151)" />
    <path
       style="fill:#b3ff80;fill-opacity:1;fill-rule:evenodd;stroke:#b3ff80;stroke-width:0.5049358px;stroke-linecap:butt;stroke-linejoin:miter;stroke-opacity:1"
       d="M 247.45827,288.5811 C 244.0457,288.77059 240.6277,292.65022 240.49968,295.98146 C 240.36291,299.53491 243.9785,302.74056 247.60024,303.08219 C 251.22187,303.42387 255.11656,300.62366 255.25312,297.07032 C 255.38995,293.51692 251.77421,288.93855 248.15252,288.59676 C 247.92616,288.5755 247.68562,288.56841 247.45827,288.5811 z M 249.50959,292.14711 C 251.1496,292.21551 252.38671,293.24716 252.52343,294.34035 C 252.66003,295.4338 251.70187,296.5863 250.06179,296.51811 C 248.4218,296.44971 246.09591,295.14982 245.95925,294.05645 C 245.82257,292.96308 247.86951,292.07886 249.50959,292.14711 z "
       id="path4774" />
    <path
       style="fill:#008000;fill-rule:evenodd;stroke:#000000;stroke-width:0.29617497px;stroke-linecap:butt;stroke-linejoin:miter;stroke-opacity:1"
       d="M 264.8211,46.355075 C 264.8211,46.355075 274.62185,36.022428 287.46318,35.845054 C 301.97262,35.644648 312.71595,48.819604 312.59873,61.26553 C 312.47436,74.478654 298.28963,85.301118 286.75013,85.097763 C 273.96293,84.869291 270.59281,80.023844 270.59281,80.023844 C 270.59281,80.023844 272.80016,75.372698 274.76148,74.412444 C 276.53175,73.545599 281.3349,72.488462 281.3349,72.488462 C 281.3349,72.488462 286.0245,74.131863 291.91653,73.450444 C 297.80851,72.769009 304.44258,69.39456 304.44258,69.39456 L 305.22366,66.075337 C 305.22366,66.075337 302.5115,67.854452 297.6883,68.48029 C 293.72811,68.994158 282.77776,64.472073 282.77776,64.472073 L 282.13637,60.784545 C 282.13637,60.784545 295.14559,67.33957 298.44223,66.440377 C 302.6826,65.283875 305.80839,62.589601 305.80839,62.589601 C 305.80839,62.589601 303.86522,53.600764 299.87635,51.164953 C 292.50807,46.665483 278.60935,46.034399 278.60935,46.034399 L 278.60935,48.920293 C 278.60935,48.920293 278.18077,49.011799 274.78221,48.175209 C 272.17678,47.533944 264.8211,46.355075 264.8211,46.355075 z "
       id="path4776"
       sodipodi:nodetypes="cssscscsccsccscsccsc" />
    <path
       style="fill:#b3ff80;fill-opacity:1;fill-rule:evenodd;stroke:#b3ff80;stroke-width:0.29617497px;stroke-linecap:butt;stroke-linejoin:miter;stroke-opacity:1"
       d="M 264.98144,46.194729 C 264.98144,46.194729 259.36056,54.61892 260.33191,63.933214 C 261.47289,74.873051 270.45325,80.101137 270.45325,80.101137 C 270.45325,80.101137 273.0393,74.452769 276.20426,73.771087 C 278.80963,73.209966 281.65539,72.809083 281.65539,72.809083 C 281.65539,72.809083 286.42535,74.332233 292.23718,73.450444 C 298.04903,72.568619 304.90309,69.281906 304.90309,69.281906 L 305.70461,65.754717 C 305.70461,65.754717 299.65661,69.171239 296.08502,68.48029 C 291.16786,67.529007 282.77776,64.151417 282.77776,64.151417 L 281.97609,60.463917 C 281.97609,60.463917 291.15188,65.869452 297.2074,66.396051 C 301.81663,66.796876 306.18564,62.70848 306.18564,62.70848 C 306.18564,62.70848 304.93604,56.199576 301.37583,51.806209 C 298.32244,48.038227 278.60935,45.874081 278.60935,45.874081 L 278.44889,48.920293 C 278.44889,48.920293 276.04395,47.397234 270.75318,46.996391 C 267.28276,46.733459 264.98144,46.194729 264.98144,46.194729 z "
       id="path4778"
       sodipodi:nodetypes="cscscsccsccscsccsc" />
    <path
       style="fill:#008000;fill-opacity:1;fill-rule:evenodd;stroke:#008000;stroke-width:0.29617497px;stroke-linecap:butt;stroke-linejoin:miter;stroke-opacity:1"
       d="M 295.54175,51.645866 C 292.45554,51.285171 289.44432,53.945274 289.28902,56.936638 C 289.12867,60.022991 291.33312,63.149352 294.41952,63.510131 C 297.50583,63.870922 301.33934,61.372092 301.47391,58.379633 C 301.63409,54.812357 298.62807,52.006633 295.54175,51.645866 z "
       id="path4780"
       sodipodi:nodetypes="cssss" />
    <path
       sodipodi:type="arc"
       style="opacity:1;fill:none;fill-opacity:1;fill-rule:evenodd;stroke:black;stroke-width:10.52900028;stroke-linecap:round;stroke-linejoin:round;stroke-miterlimit:4;stroke-dasharray:none;stroke-dashoffset:0;stroke-opacity:1"
       id="path4782"
       sodipodi:cx="385.72043"
       sodipodi:cy="534.45532"
       sodipodi:rx="86.946144"
       sodipodi:ry="82.940498"
       d="M 472.66657 534.45532 A 86.946144 82.940498 0 1 1  298.77428,534.45532 A 86.946144 82.940498 0 1 1  472.66657 534.45532 z"
       transform="matrix(0.2961752,0,0,0.2961752,172.28768,-97.830916)" />
    <path
       style="fill:#b3ff80;fill-opacity:1;fill-rule:evenodd;stroke:#b3ff80;stroke-width:0.29617497px;stroke-linecap:butt;stroke-linejoin:miter;stroke-opacity:1"
       d="M 295.05532,53.400379 C 293.0535,53.511427 291.04862,55.787191 290.97347,57.741169 C 290.89344,59.825395 293.01419,61.705661 295.13848,61.906113 C 297.26286,62.10655 299.54735,60.464052 299.62739,58.379802 C 299.70755,56.295515 297.58669,53.609959 295.46242,53.409613 C 295.32965,53.397052 295.18861,53.392942 295.05532,53.400379 z M 296.25844,55.492071 C 297.22049,55.53214 297.946,56.137257 298.02624,56.77853 C 298.10644,57.41989 297.54426,58.095922 296.58235,58.055782 C 295.62027,58.015785 294.25604,57.253289 294.17604,56.612012 C 294.09588,55.970713 295.29646,55.452007 296.25844,55.492071 z "
       id="path4784" />
    <path
       style="fill:#008000;fill-rule:evenodd;stroke:#000000;stroke-width:0.25062692px;stroke-linecap:butt;stroke-linejoin:miter;stroke-opacity:1"
       d="M 244.16906,189.03215 C 244.16906,189.03215 235.87544,180.2885 225.00895,180.13854 C 212.7309,179.96895 203.63981,191.11768 203.73909,201.64963 C 203.84418,212.83077 215.84754,221.9888 225.61248,221.81667 C 236.43302,221.62342 239.28486,217.52309 239.28486,217.52309 C 239.28486,217.52309 237.41708,213.58733 235.75734,212.77467 C 234.25937,212.04113 230.19475,211.14663 230.19475,211.14663 C 230.19475,211.14663 226.22642,212.5372 221.2405,211.96063 C 216.25462,211.38405 210.64084,208.52847 210.64084,208.52847 L 209.97989,205.71968 C 209.97989,205.71968 212.27488,207.22524 216.35633,207.75482 C 219.7075,208.18967 228.97391,204.36308 228.97391,204.36308 L 229.51672,201.24258 C 229.51672,201.24258 218.50811,206.78958 215.71834,206.02861 C 212.13008,205.05001 209.48505,202.77003 209.48505,202.77003 C 209.48505,202.77003 211.12943,195.16366 214.50482,193.1024 C 220.73994,189.29491 232.50116,188.76076 232.50116,188.76076 L 232.50116,191.20295 C 232.50116,191.20295 232.86391,191.28033 235.73972,190.57241 C 237.94447,190.02981 244.16906,189.03215 244.16906,189.03215 z "
       id="path4796"
       sodipodi:nodetypes="cssscscsccsccscsccsc" />
    <path
       style="fill:#b3ff80;fill-opacity:1;fill-rule:evenodd;stroke:#b3ff80;stroke-width:0.25062692px;stroke-linecap:butt;stroke-linejoin:miter;stroke-opacity:1"
       d="M 244.03329,188.89655 C 244.03329,188.89655 248.78973,196.02511 247.9679,203.907 C 247.00234,213.16443 239.40309,217.58851 239.40309,217.58851 C 239.40309,217.58851 237.21466,212.80883 234.53648,212.23188 C 232.33178,211.75717 229.92365,211.41789 229.92365,211.41789 C 229.92365,211.41789 225.88718,212.70677 220.96913,211.96063 C 216.05111,211.21445 210.25116,208.43315 210.25116,208.43315 L 209.57287,205.4484 C 209.57287,205.4484 214.6907,208.33954 217.71316,207.75482 C 221.87406,206.94991 228.97391,204.09173 228.97391,204.09173 L 229.65236,200.97125 C 229.65236,200.97125 221.88754,205.54548 216.7633,205.99112 C 212.86302,206.33033 209.16587,202.87059 209.16587,202.87059 C 209.16587,202.87059 210.22325,197.36266 213.23594,193.64496 C 215.81977,190.45656 232.50116,188.62513 232.50116,188.62513 L 232.63707,191.20295 C 232.63707,191.20295 234.67202,189.9141 239.14928,189.57488 C 242.08585,189.35234 244.03329,188.89655 244.03329,188.89655 z "
       id="path4798"
       sodipodi:nodetypes="cscscsccsccscsccsc" />
    <path
       style="fill:#008000;fill-opacity:1;fill-rule:evenodd;stroke:#008000;stroke-width:0.25062692px;stroke-linecap:butt;stroke-linejoin:miter;stroke-opacity:1"
       d="M 218.17277,193.50936 C 220.78435,193.20411 223.33257,195.45513 223.46396,197.98642 C 223.59965,200.59807 221.73426,203.24368 219.12249,203.54901 C 216.51078,203.85434 213.26692,201.7397 213.15298,199.20754 C 213.01745,196.18881 215.56115,193.81458 218.17277,193.50936 z "
       id="path4800"
       sodipodi:nodetypes="cssss" />
    <path
       sodipodi:type="arc"
       style="opacity:1;fill:none;fill-opacity:1;fill-rule:evenodd;stroke:black;stroke-width:10.52900028;stroke-linecap:round;stroke-linejoin:round;stroke-miterlimit:4;stroke-dasharray:none;stroke-dashoffset:0;stroke-opacity:1"
       id="path4802"
       sodipodi:cx="385.72043"
       sodipodi:cy="534.45532"
       sodipodi:rx="86.946144"
       sodipodi:ry="82.940498"
       d="M 472.66657 534.45532 A 86.946144 82.940498 0 1 1  298.77428,534.45532 A 86.946144 82.940498 0 1 1  472.66657 534.45532 z"
       transform="matrix(-0.2506273,0,0,0.2506273,322.47192,67.020284)" />
    <path
       style="fill:#b3ff80;fill-opacity:1;fill-rule:evenodd;stroke:#b3ff80;stroke-width:0.25062692px;stroke-linecap:butt;stroke-linejoin:miter;stroke-opacity:1"
       d="M 218.58441,194.99408 C 220.27848,195.08799 221.97507,197.01381 222.0386,198.66733 C 222.10622,200.43099 220.31168,202.02201 218.51413,202.19166 C 216.71639,202.36131 214.78316,200.97137 214.71546,199.20771 C 214.64772,197.44401 216.44243,195.17136 218.24,195.00191 C 218.35236,194.9912 218.47158,194.98778 218.58441,194.99408 z M 217.56637,196.76405 C 216.75218,196.79798 216.13837,197.31002 216.07045,197.85258 C 216.00257,198.39537 216.47826,198.96751 217.2923,198.93353 C 218.10639,198.89968 219.26078,198.25441 219.32845,197.71179 C 219.39631,197.16907 218.38039,196.73017 217.56637,196.76405 z "
       id="path4804" />
    <path
       style="fill:#008000;fill-rule:evenodd;stroke:#000000;stroke-width:0.18935397px;stroke-linecap:butt;stroke-linejoin:miter;stroke-opacity:1"
       d="M 249.74245,71.640887 C 249.74245,71.640887 243.47649,65.034902 235.26662,64.921504 C 225.99022,64.793382 219.12169,73.216543 219.19667,81.173612 C 219.27619,89.621174 228.3449,96.540314 235.72256,96.41029 C 243.89769,96.264253 246.05231,93.166393 246.05231,93.166393 C 246.05231,93.166393 244.64119,90.192746 243.38725,89.578846 C 242.25546,89.024655 239.18462,88.348791 239.18462,88.348791 C 239.18462,88.348791 236.18642,89.399459 232.4194,88.963819 C 228.65254,88.528156 224.41119,86.370762 224.41119,86.370762 L 223.91183,84.248679 C 223.91183,84.248679 225.64576,85.386117 228.72939,85.786241 C 231.26121,86.114774 238.26212,83.223663 238.26212,83.223663 L 238.67222,80.866109 C 238.67222,80.866109 230.35502,85.056941 228.24737,84.482057 C 225.53628,83.742672 223.53796,82.020135 223.53796,82.020135 C 223.53796,82.020135 224.78033,76.273292 227.33049,74.715999 C 232.04129,71.839346 240.92716,71.435874 240.92716,71.435874 L 240.92716,73.280921 C 240.92716,73.280921 241.20119,73.33942 243.37388,72.804562 C 245.03961,72.394582 249.74245,71.640887 249.74245,71.640887 z "
       id="path4806"
       sodipodi:nodetypes="cssscscsccsccscsccsc" />
    <path
       style="fill:#b3ff80;fill-opacity:1;fill-rule:evenodd;stroke:#b3ff80;stroke-width:0.18935397px;stroke-linecap:butt;stroke-linejoin:miter;stroke-opacity:1"
       d="M 249.63993,71.538382 C 249.63993,71.538382 253.23348,76.924233 252.61249,82.879146 C 251.88307,89.87335 246.14163,93.215802 246.14163,93.215802 C 246.14163,93.215802 244.48826,89.604622 242.46484,89.168812 C 240.79916,88.810072 238.97978,88.553775 238.97978,88.553775 C 238.97978,88.553775 235.93012,89.527582 232.21447,88.963819 C 228.49878,88.40004 224.11676,86.298738 224.11676,86.298738 L 223.60431,84.043697 C 223.60431,84.043697 227.47089,86.227985 229.75443,85.786241 C 232.89806,85.178055 238.26212,83.018655 238.26212,83.018655 L 238.77476,80.661122 C 238.77476,80.661122 232.90828,84.117049 229.03679,84.453718 C 226.09002,84.709981 223.29679,82.09614 223.29679,82.09614 C 223.29679,82.09614 224.09563,77.934793 226.37179,75.125974 C 228.32392,72.716987 240.92716,71.333381 240.92716,71.333381 L 241.02976,73.280921 C 241.02976,73.280921 242.5672,72.307173 245.94991,72.050904 C 248.16852,71.882805 249.63993,71.538382 249.63993,71.538382 z "
       id="path4808"
       sodipodi:nodetypes="cscscsccsccscsccsc" />
    <path
       style="fill:#008000;fill-opacity:1;fill-rule:evenodd;stroke:#008000;stroke-width:0.18935397px;stroke-linecap:butt;stroke-linejoin:miter;stroke-opacity:1"
       d="M 230.10174,75.023462 C 232.07484,74.792854 234.00006,76.493544 234.09929,78.406021 C 234.20179,80.379223 232.79249,82.378004 230.81925,82.608664 C 228.84603,82.839324 226.39524,81.241743 226.30912,79.328573 C 226.20672,77.047902 228.12857,75.254113 230.10174,75.023462 z "
       id="path4810"
       sodipodi:nodetypes="cssss" />
    <path
       sodipodi:type="arc"
       style="opacity:1;fill:none;fill-opacity:1;fill-rule:evenodd;stroke:black;stroke-width:10.52900028;stroke-linecap:round;stroke-linejoin:round;stroke-miterlimit:4;stroke-dasharray:none;stroke-dashoffset:0;stroke-opacity:1"
       id="path4812"
       sodipodi:cx="385.72043"
       sodipodi:cy="534.45532"
       sodipodi:rx="86.946144"
       sodipodi:ry="82.940498"
       d="M 472.66657 534.45532 A 86.946144 82.940498 0 1 1  298.77428,534.45532 A 86.946144 82.940498 0 1 1  472.66657 534.45532 z"
       transform="matrix(-0.1893545,0,0,0.1893545,308.90198,-20.541758)" />
    <path
       style="fill:#b3ff80;fill-opacity:1;fill-rule:evenodd;stroke:#b3ff80;stroke-width:0.18935397px;stroke-linecap:butt;stroke-linejoin:miter;stroke-opacity:1"
       d="M 230.41267,76.14518 C 231.6926,76.216176 232.97438,77.671143 233.02238,78.920382 C 233.07356,80.252894 231.71767,81.455008 230.35954,81.583162 C 229.00135,81.711307 227.54075,80.661208 227.48967,79.32868 C 227.43844,77.996129 228.79435,76.279172 230.15247,76.151085 C 230.23732,76.143054 230.32742,76.140424 230.41267,76.14518 z M 229.64351,77.482457 C 229.02838,77.508079 228.5646,77.894952 228.51338,78.30494 C 228.46209,78.71498 228.82148,79.147184 229.43647,79.121526 C 230.05153,79.095954 230.92373,78.608467 230.97485,78.198476 C 231.02607,77.788475 230.25853,77.45685 229.64351,77.482457 z "
       id="path4814" />
    <path
       style="fill:#008000;fill-rule:evenodd;stroke:#000000;stroke-width:0.12699662px;stroke-linecap:butt;stroke-linejoin:miter;stroke-opacity:1"
       d="M 233.23979,39.607827 C 233.23979,39.607827 235.10624,33.793392 240.03516,31.337827 C 245.6044,28.563272 252.20467,31.657058 254.47283,36.488011 C 256.88101,41.616648 253.41168,48.435256 248.91497,50.501727 C 243.93164,52.79038 241.72871,51.544543 241.72871,51.544543 C 241.72871,51.544543 241.7169,49.337067 242.29629,48.601435 C 242.8192,47.937419 244.47872,46.63606 244.47872,46.63606 C 244.47872,46.63606 246.5962,46.399373 248.7463,45.040794 C 250.89629,43.68224 252.83238,41.145194 252.83238,41.145194 L 252.51719,39.717447 C 252.51719,39.717447 251.80001,40.909008 250.05262,42.047423 C 248.61793,42.982119 243.54609,43.270315 243.54609,43.270315 L 242.61275,41.964695 C 242.61275,41.964695 248.85801,42.07933 249.96477,41.11904 C 251.3883,39.883925 252.09517,38.261861 252.09517,38.261861 C 252.09517,38.261861 249.67342,35.149773 247.67934,34.950051 C 243.99581,34.581118 238.50809,36.920821 238.50809,36.920821 L 239.04454,38.035936 C 239.04454,38.035936 238.89588,38.150996 237.42727,38.459424 C 236.30133,38.695955 233.23979,39.607827 233.23979,39.607827 z "
       id="path4846"
       sodipodi:nodetypes="cssscscsccsccscsccsc" />
    <path
       style="fill:#b3ff80;fill-opacity:1;fill-rule:evenodd;stroke:#b3ff80;stroke-width:0.12699662px;stroke-linecap:butt;stroke-linejoin:miter;stroke-opacity:1"
       d="M 233.27202,39.516037 C 233.27202,39.516037 232.66611,43.815971 234.77278,47.234497 C 237.24718,51.249615 241.68905,51.600395 241.68905,51.600395 C 241.68905,51.600395 241.63839,48.937124 242.73456,48.085432 C 243.63695,47.384319 244.66203,46.700433 244.66203,46.700433 C 244.66203,46.700433 246.78841,46.402255 248.87019,44.981194 C 250.95197,43.560112 252.98939,41.016053 252.98939,41.016053 L 252.64343,39.504155 C 252.64343,39.504155 250.94165,41.948504 249.43304,42.345487 C 247.35629,42.891901 243.48648,43.146408 243.48648,43.146408 L 242.49121,41.870598 C 242.49121,41.870598 247.04162,42.253623 249.47937,41.331456 C 251.33483,40.629573 252.26305,38.237665 252.26305,38.237665 C 252.26305,38.237665 250.5703,35.954893 248.37795,34.919092 C 246.49769,34.030724 238.47829,36.858875 238.47829,36.858875 L 238.9825,38.065779 C 238.9825,38.065779 237.77019,37.92427 235.65117,38.75294 C 234.26147,39.296374 233.27202,39.516037 233.27202,39.516037 z "
       id="path4848"
       sodipodi:nodetypes="cscscsccsccscsccsc" />
    <path
       style="fill:#008000;fill-opacity:1;fill-rule:evenodd;stroke:#008000;stroke-width:0.12699662px;stroke-linecap:butt;stroke-linejoin:miter;stroke-opacity:1"
       d="M 246.0939,35.941584 C 244.83433,36.375901 244.16517,37.963558 244.66128,39.148269 C 245.17301,40.370659 246.60593,41.168926 247.86561,40.734599 C 249.12524,40.300298 250.14202,38.622147 249.63778,37.44083 C 249.03657,36.032653 247.3535,35.507291 246.0939,35.941584 z "
       id="path4850"
       sodipodi:nodetypes="cssss" />
    <path
       sodipodi:type="arc"
       style="opacity:1;fill:none;fill-opacity:1;fill-rule:evenodd;stroke:black;stroke-width:10.52900028;stroke-linecap:round;stroke-linejoin:round;stroke-miterlimit:4;stroke-dasharray:none;stroke-dashoffset:0;stroke-opacity:1"
       id="path4852"
       sodipodi:cx="385.72043"
       sodipodi:cy="534.45532"
       sodipodi:rx="86.946144"
       sodipodi:ry="82.940498"
       d="M 472.66657 534.45532 A 86.946144 82.940498 0 1 1  298.77428,534.45532 A 86.946144 82.940498 0 1 1  472.66657 534.45532 z"
       transform="matrix(0.1144431,-5.5055315e-2,5.5055315e-2,0.1144431,170.68253,1.0948429)" />
    <path
       style="fill:#b3ff80;fill-opacity:1;fill-rule:evenodd;stroke:#b3ff80;stroke-width:0.12699662px;stroke-linecap:butt;stroke-linejoin:miter;stroke-opacity:1"
       d="M 246.23209,36.709954 C 245.47912,37.125026 245.12752,38.377034 245.46172,39.146019 C 245.81824,39.966232 246.98718,40.298564 247.84528,39.98114 C 248.70338,39.663702 249.28088,38.604344 248.92434,37.784128 C 248.56783,36.963881 247.24914,36.320399 246.39103,36.637882 C 246.33743,36.657692 246.28224,36.682293 246.23209,36.709954 z M 247.08576,37.294554 C 247.46501,37.131174 247.85776,37.230164 248.00792,37.463064 C 248.15814,37.695972 248.06659,38.061685 247.68743,38.224993 C 247.30831,38.388344 246.6394,38.347318 246.48933,38.114377 C 246.33915,37.881481 246.70657,37.457916 247.08576,37.294554 z "
       id="path4854" />
    <path
       style="fill:#008000;fill-rule:evenodd;stroke:#000000;stroke-width:0.12699662px;stroke-linecap:butt;stroke-linejoin:miter;stroke-opacity:1"
       d="M 273.54894,345.18833 C 273.54894,345.18833 277.75153,340.75781 283.25773,340.68175 C 289.47924,340.59583 294.08585,346.2451 294.0355,351.58178 C 293.98227,357.24741 287.89993,361.88797 282.95189,361.80076 C 277.46901,361.70282 276.02394,359.62514 276.02394,359.62514 C 276.02394,359.62514 276.97027,357.63076 277.8113,357.21902 C 278.57038,356.84734 280.63001,356.39405 280.63001,356.39405 C 280.63001,356.39405 282.64077,357.09872 285.16729,356.80654 C 287.6937,356.51434 290.53825,355.06742 290.53825,355.06742 L 290.87317,353.64417 C 290.87317,353.64417 289.71032,354.40703 287.64215,354.67539 C 285.94408,354.89573 281.24867,352.95671 281.24867,352.95671 L 280.9736,351.37554 C 280.9736,351.37554 286.5518,354.18626 287.96545,353.8007 C 289.7837,353.3048 291.12389,352.14952 291.12389,352.14952 C 291.12389,352.14952 290.29067,348.29521 288.5803,347.25077 C 285.42084,345.32144 279.4613,345.05084 279.4613,345.05084 L 279.4613,346.28828 C 279.4613,346.28828 279.27746,346.32752 277.82032,345.96879 C 276.70314,345.69383 273.54894,345.18833 273.54894,345.18833 z "
       id="path4856"
       sodipodi:nodetypes="cssscscsccsccscsccsc" />
    <path
       style="fill:#b3ff80;fill-opacity:1;fill-rule:evenodd;stroke:#b3ff80;stroke-width:0.12699662px;stroke-linecap:butt;stroke-linejoin:miter;stroke-opacity:1"
       d="M 273.61777,345.11959 C 273.61777,345.11959 271.20767,348.73178 271.6241,352.72565 C 272.11328,357.41655 275.96399,359.65827 275.96399,359.65827 C 275.96399,359.65827 277.07291,357.23632 278.42994,356.94403 C 279.54707,356.70342 280.76729,356.53153 280.76729,356.53153 C 280.76729,356.53153 282.81273,357.18464 285.30477,356.80654 C 287.79682,356.42842 290.73572,355.01911 290.73572,355.01911 L 291.07939,353.50669 C 291.07939,353.50669 288.48618,354.97166 286.9546,354.67539 C 284.84627,354.26749 281.24867,352.81921 281.24867,352.81921 L 280.90487,351.23805 C 280.90487,351.23805 284.83941,353.55589 287.43595,353.78169 C 289.41227,353.95356 291.28566,352.2005 291.28566,352.2005 C 291.28566,352.2005 290.74986,349.40955 289.22327,347.52573 C 287.914,345.91005 279.4613,344.98209 279.4613,344.98209 L 279.39246,346.28828 C 279.39246,346.28828 278.36134,345.6352 276.09255,345.46333 C 274.60464,345.35058 273.61777,345.11959 273.61777,345.11959 z "
       id="path4858"
       sodipodi:nodetypes="cscscsccsccscsccsc" />
    <path
       style="fill:#008000;fill-opacity:1;fill-rule:evenodd;stroke:#008000;stroke-width:0.12699662px;stroke-linecap:butt;stroke-linejoin:miter;stroke-opacity:1"
       d="M 286.72174,347.45697 C 285.3984,347.30231 284.10712,348.44293 284.04059,349.7256 C 283.97181,351.04899 284.91702,352.38954 286.24046,352.54424 C 287.56385,352.69894 289.20762,351.62747 289.26535,350.34434 C 289.33404,348.81473 288.0451,347.61167 286.72174,347.45697 z "
       id="path4860"
       sodipodi:nodetypes="cssss" />
    <path
       sodipodi:type="arc"
       style="opacity:1;fill:none;fill-opacity:1;fill-rule:evenodd;stroke:black;stroke-width:10.52900028;stroke-linecap:round;stroke-linejoin:round;stroke-miterlimit:4;stroke-dasharray:none;stroke-dashoffset:0;stroke-opacity:1"
       id="path4862"
       sodipodi:cx="385.72043"
       sodipodi:cy="534.45532"
       sodipodi:rx="86.946144"
       sodipodi:ry="82.940498"
       d="M 472.66657 534.45532 A 86.946144 82.940498 0 1 1  298.77428,534.45532 A 86.946144 82.940498 0 1 1  472.66657 534.45532 z"
       transform="matrix(0.1269973,0,0,0.1269973,233.87169,283.36296)" />
    <path
       style="fill:#b3ff80;fill-opacity:1;fill-rule:evenodd;stroke:#b3ff80;stroke-width:0.12699662px;stroke-linecap:butt;stroke-linejoin:miter;stroke-opacity:1"
       d="M 286.51317,348.20929 C 285.65469,348.2569 284.79509,349.23273 284.76288,350.07057 C 284.72858,350.96426 285.6379,351.7705 286.54878,351.85645 C 287.45967,351.94239 288.43933,351.23811 288.47361,350.34441 C 288.50793,349.4507 287.59856,348.29915 286.68764,348.21325 C 286.63075,348.20786 286.57035,348.2061 286.51317,348.20929 z M 287.02902,349.10618 C 287.44161,349.12336 287.75262,349.38283 287.78697,349.6578 C 287.82137,349.93281 287.58033,350.22268 287.16785,350.20547 C 286.75539,350.18832 286.17039,349.86137 286.13614,349.5864 C 286.10177,349.31142 286.61649,349.08901 287.02902,349.10618 z "
       id="path4864" />
    <path
       style="fill:#008000;fill-rule:evenodd;stroke:#000000;stroke-width:0.12699662px;stroke-linecap:butt;stroke-linejoin:miter;stroke-opacity:1"
       d="M 287.87963,310.90262 C 287.87963,310.90262 283.67704,306.4721 278.17084,306.39604 C 271.94933,306.31012 267.34272,311.95939 267.39307,317.29607 C 267.4463,322.9617 273.52864,327.60226 278.47668,327.51505 C 283.95956,327.41711 285.40463,325.33943 285.40463,325.33943 C 285.40463,325.33943 284.4583,323.34505 283.61727,322.93331 C 282.85819,322.56163 280.79856,322.10834 280.79856,322.10834 C 280.79856,322.10834 278.7878,322.81301 276.26128,322.52083 C 273.73487,322.22863 270.89032,320.78171 270.89032,320.78171 L 270.5554,319.35846 C 270.5554,319.35846 271.71825,320.12132 273.78642,320.38968 C 275.48449,320.61002 280.1799,318.671 280.1799,318.671 L 280.45497,317.08983 C 280.45497,317.08983 274.87677,319.90055 273.46312,319.51499 C 271.64487,319.01909 270.30468,317.86381 270.30468,317.86381 C 270.30468,317.86381 271.1379,314.0095 272.84827,312.96506 C 276.00773,311.03573 281.96727,310.76513 281.96727,310.76513 L 281.96727,312.00257 C 281.96727,312.00257 282.15111,312.04181 283.60825,311.68308 C 284.72543,311.40812 287.87963,310.90262 287.87963,310.90262 z "
       id="path4866"
       sodipodi:nodetypes="cssscscsccsccscsccsc" />
    <path
       style="fill:#b3ff80;fill-opacity:1;fill-rule:evenodd;stroke:#b3ff80;stroke-width:0.12699662px;stroke-linecap:butt;stroke-linejoin:miter;stroke-opacity:1"
       d="M 287.8108,310.83388 C 287.8108,310.83388 290.2209,314.44607 289.80447,318.43994 C 289.31529,323.13084 285.46458,325.37256 285.46458,325.37256 C 285.46458,325.37256 284.35566,322.95061 282.99863,322.65832 C 281.8815,322.41771 280.66128,322.24582 280.66128,322.24582 C 280.66128,322.24582 278.61584,322.89893 276.1238,322.52083 C 273.63175,322.14271 270.69285,320.7334 270.69285,320.7334 L 270.34918,319.22098 C 270.34918,319.22098 272.94239,320.68595 274.47397,320.38968 C 276.5823,319.98178 280.1799,318.5335 280.1799,318.5335 L 280.5237,316.95234 C 280.5237,316.95234 276.58916,319.27018 273.99262,319.49598 C 272.0163,319.66785 270.14291,317.91479 270.14291,317.91479 C 270.14291,317.91479 270.67871,315.12384 272.2053,313.24002 C 273.51457,311.62434 281.96727,310.69638 281.96727,310.69638 L 282.03611,312.00257 C 282.03611,312.00257 283.06723,311.34949 285.33602,311.17762 C 286.82393,311.06487 287.8108,310.83388 287.8108,310.83388 z "
       id="path4868"
       sodipodi:nodetypes="cscscsccsccscsccsc" />
    <path
       style="fill:#008000;fill-opacity:1;fill-rule:evenodd;stroke:#008000;stroke-width:0.12699662px;stroke-linecap:butt;stroke-linejoin:miter;stroke-opacity:1"
       d="M 274.70683,313.17126 C 276.03017,313.0166 277.32145,314.15722 277.38798,315.43989 C 277.45676,316.76328 276.51155,318.10383 275.18811,318.25853 C 273.86472,318.41323 272.22095,317.34176 272.16322,316.05863 C 272.09453,314.52902 273.38347,313.32596 274.70683,313.17126 z "
       id="path4870"
       sodipodi:nodetypes="cssss" />
    <path
       sodipodi:type="arc"
       style="opacity:1;fill:none;fill-opacity:1;fill-rule:evenodd;stroke:black;stroke-width:10.52900028;stroke-linecap:round;stroke-linejoin:round;stroke-miterlimit:4;stroke-dasharray:none;stroke-dashoffset:0;stroke-opacity:1"
       id="path4872"
       sodipodi:cx="385.72043"
       sodipodi:cy="534.45532"
       sodipodi:rx="86.946144"
       sodipodi:ry="82.940498"
       d="M 472.66657 534.45532 A 86.946144 82.940498 0 1 1  298.77428,534.45532 A 86.946144 82.940498 0 1 1  472.66657 534.45532 z"
       transform="matrix(-0.1269973,0,0,0.1269973,327.55688,249.07725)" />
    <path
       style="fill:#b3ff80;fill-opacity:1;fill-rule:evenodd;stroke:#b3ff80;stroke-width:0.12699662px;stroke-linecap:butt;stroke-linejoin:miter;stroke-opacity:1"
       d="M 274.9154,313.92358 C 275.77388,313.97119 276.63348,314.94702 276.66569,315.78486 C 276.69999,316.67855 275.79067,317.48479 274.87979,317.57074 C 273.9689,317.65668 272.98924,316.9524 272.95496,316.0587 C 272.92064,315.16499 273.83001,314.01344 274.74093,313.92754 C 274.79782,313.92215 274.85822,313.92039 274.9154,313.92358 z M 274.39955,314.82047 C 273.98696,314.83765 273.67595,315.09712 273.6416,315.37209 C 273.6072,315.6471 273.84824,315.93697 274.26072,315.91976 C 274.67318,315.90261 275.25818,315.57566 275.29243,315.30069 C 275.3268,315.02571 274.81208,314.8033 274.39955,314.82047 z "
       id="path4874" />
    <path
       style="fill:#008000;fill-rule:evenodd;stroke:#000000;stroke-width:0.12699662px;stroke-linecap:butt;stroke-linejoin:miter;stroke-opacity:1"
       d="M 265.11637,237.37362 C 265.11637,237.37362 262.71647,231.7583 257.58027,229.7725 C 251.77681,227.52873 245.49339,231.22383 243.68505,236.24504 C 241.76504,241.57568 245.85437,248.04151 250.52401,249.68017 C 255.69885,251.49471 257.77616,250.04911 257.77616,250.04911 C 257.77616,250.04911 257.58232,247.85013 256.93692,247.17167 C 256.35444,246.55924 254.58092,245.4181 254.58092,245.4181 C 254.58092,245.4181 252.45061,245.37967 250.18331,244.22727 C 247.91613,243.07488 245.75215,240.72918 245.75215,240.72918 L 245.93298,239.27829 C 245.93298,239.27829 246.75804,240.39787 248.60386,241.36858 C 250.11937,242.16558 255.19601,241.98012 255.19601,241.98012 L 256.00369,240.59325 C 256.00369,240.59325 249.79625,241.28908 248.60486,240.43605 C 247.07248,239.33889 246.21759,237.78972 246.21759,237.78972 C 246.21759,237.78972 248.33896,234.46559 250.30576,234.08101 C 253.93892,233.37059 259.62071,235.18899 259.62071,235.18899 L 259.19046,236.34922 C 259.19046,236.34922 259.34918,236.44993 260.84013,236.62024 C 261.98322,236.75086 265.11637,237.37362 265.11637,237.37362 z "
       id="path4876"
       sodipodi:nodetypes="cssscscsccsccscsccsc" />
    <path
       style="fill:#b3ff80;fill-opacity:1;fill-rule:evenodd;stroke:#b3ff80;stroke-width:0.12699662px;stroke-linecap:butt;stroke-linejoin:miter;stroke-opacity:1"
       d="M 265.07574,237.28523 C 265.07574,237.28523 266.07952,241.51003 264.30042,245.10991 C 262.21075,249.33805 257.82085,250.10103 257.82085,250.10103 C 257.82085,250.10103 257.62323,247.44462 256.4525,246.69873 C 255.48873,246.08471 254.40441,245.49928 254.40441,245.49928 C 254.40441,245.49928 252.2595,245.40045 250.05441,244.17947 C 247.84932,242.95846 245.5838,240.61523 245.5838,240.61523 L 245.78744,239.07768 C 245.78744,239.07768 247.70948,241.3529 249.24851,241.60764 C 251.36712,241.95825 255.24382,241.8512 255.24382,241.8512 L 256.11593,240.48824 C 256.11593,240.48824 251.62097,241.29344 249.10793,240.60233 C 247.19516,240.07632 246.04819,237.78127 246.04819,237.78127 C 246.04819,237.78127 247.52096,235.35076 249.60731,234.11526 C 251.39665,233.05562 259.64461,235.12454 259.64461,235.12454 L 259.255,236.37316 C 259.255,236.37316 260.44886,236.11935 262.63585,236.74705 C 264.07013,237.15868 265.07574,237.28523 265.07574,237.28523 z "
       id="path4878"
       sodipodi:nodetypes="cscscsccsccscsccsc" />
    <path
       style="fill:#008000;fill-opacity:1;fill-rule:evenodd;stroke:#008000;stroke-width:0.12699662px;stroke-linecap:butt;stroke-linejoin:miter;stroke-opacity:1"
       d="M 251.97667,234.92056 C 253.27122,235.23567 254.08534,236.7541 253.70174,237.97987 C 253.30608,239.24462 251.95375,240.17287 250.65909,239.85776 C 249.36448,239.54267 248.19582,237.96652 248.58783,236.74337 C 249.05527,235.28532 250.68209,234.60548 251.97667,234.92056 z "
       id="path4880"
       sodipodi:nodetypes="cssss" />
    <path
       sodipodi:type="arc"
       style="opacity:1;fill:none;fill-opacity:1;fill-rule:evenodd;stroke:black;stroke-width:10.52900028;stroke-linecap:round;stroke-linejoin:round;stroke-miterlimit:4;stroke-dasharray:none;stroke-dashoffset:0;stroke-opacity:1"
       id="path4882"
       sodipodi:cx="385.72043"
       sodipodi:cy="534.45532"
       sodipodi:rx="86.946144"
       sodipodi:ry="82.940498"
       d="M 472.66657 534.45532 A 86.946144 82.940498 0 1 1  298.77428,534.45532 A 86.946144 82.940498 0 1 1  472.66657 534.45532 z"
       transform="matrix(-0.1190736,-4.4156568e-2,-4.4156568e-2,0.1190736,323.81453,193.20137)" />
    <path
       style="fill:#b3ff80;fill-opacity:1;fill-rule:evenodd;stroke:#b3ff80;stroke-width:0.12699662px;stroke-linecap:butt;stroke-linejoin:miter;stroke-opacity:1"
       d="M 251.91065,235.69846 C 252.699,236.0416 253.16568,237.25542 252.90456,238.05219 C 252.62599,238.90204 251.49308,239.3418 250.60915,239.10568 C 249.72521,238.86955 249.05155,237.86859 249.33014,237.01873 C 249.60871,236.16884 250.86173,235.40534 251.74568,235.64151 C 251.8009,235.65624 251.85814,235.6756 251.91065,235.69846 z M 251.11513,236.36003 C 250.72231,236.23269 250.34049,236.36783 250.21268,236.61371 C 250.08481,236.85959 250.21002,237.21519 250.60274,237.34247 C 250.99543,237.4698 251.65761,237.36665 251.78533,237.12074 C 251.91317,236.87487 251.5079,236.48737 251.11513,236.36003 z "
       id="path4884" />
    <path
       style="fill:#008000;fill-rule:evenodd;stroke:#000000;stroke-width:0.12699662px;stroke-linecap:butt;stroke-linejoin:miter;stroke-opacity:1"
       d="M 216.09029,132.27368 C 216.09029,132.27368 216.63451,126.19132 220.90397,122.71343 C 225.72808,118.78373 232.8466,120.35279 236.12015,124.56783 C 239.59565,129.04254 237.70816,136.45651 233.77493,139.45991 C 229.41573,142.78691 226.99301,142.05517 226.99301,142.05517 C 226.99301,142.05517 226.49678,139.90416 226.90052,139.05926 C 227.26487,138.29663 228.59815,136.66265 228.59815,136.66265 C 228.59815,136.66265 230.61198,135.9668 232.41131,134.16928 C 234.21053,132.3718 235.54231,129.47156 235.54231,129.47156 L 234.92132,128.14786 C 234.92132,128.14786 234.48327,129.46781 233.02849,130.96212 C 231.83404,132.18902 226.94925,133.58382 226.94925,133.58382 L 225.75201,132.51499 C 225.75201,132.51499 231.87004,131.25555 232.73893,130.07568 C 233.85653,128.55815 234.19,126.82045 234.19,126.82045 C 234.19,126.82045 231.14401,124.31607 229.15474,124.55905 C 225.4801,125.00792 220.64003,128.49548 220.64003,128.49548 L 221.40823,129.46559 C 221.40823,129.46559 221.28847,129.61049 219.92342,130.23385 C 218.87689,130.71183 216.09029,132.27368 216.09029,132.27368 z "
       id="path4886"
       sodipodi:nodetypes="cssscscsccsccscsccsc" />
    <path
       style="fill:#b3ff80;fill-opacity:1;fill-rule:evenodd;stroke:#b3ff80;stroke-width:0.12699662px;stroke-linecap:butt;stroke-linejoin:miter;stroke-opacity:1"
       d="M 216.10157,132.17705 C 216.10157,132.17705 216.45459,136.50509 219.26046,139.37763 C 222.55608,142.75145 226.96658,142.11837 226.96658,142.11837 C 226.96658,142.11837 226.33238,139.53121 227.21479,138.45962 C 227.94122,137.57748 228.79112,136.6852 228.79112,136.6852 C 228.79112,136.6852 230.80013,135.92741 232.51909,134.08393 C 234.23803,132.24042 235.66713,129.31109 235.66713,129.31109 L 234.99764,127.91205 C 234.99764,127.91205 233.87411,130.67041 232.48948,131.38896 C 230.58338,132.37803 226.86389,133.47603 226.86389,133.47603 L 225.61278,132.44988 C 225.61278,132.44988 230.13625,131.82442 232.31202,130.38949 C 233.96809,129.29734 234.34846,126.75999 234.34846,126.75999 C 234.34846,126.75999 232.19579,124.90461 229.82951,124.37546 C 227.80007,123.92162 220.59735,128.44159 220.59735,128.44159 L 221.35426,129.50832 C 221.35426,129.50832 220.14047,129.63646 218.25511,130.91018 C 217.01865,131.7455 216.10157,132.17705 216.10157,132.17705 z "
       id="path4888"
       sodipodi:nodetypes="cscscsccsccscsccsc" />
    <path
       style="fill:#008000;fill-opacity:1;fill-rule:evenodd;stroke:#008000;stroke-width:0.12699662px;stroke-linecap:butt;stroke-linejoin:miter;stroke-opacity:1"
       d="M 227.82571,125.87451 C 226.69224,126.5748 226.38802,128.27064 227.13214,129.3175 C 227.89979,130.3977 229.47302,130.86186 230.60659,130.16155 C 231.74012,129.46126 232.36361,127.60081 231.6123,126.55903 C 230.71657,125.31723 228.95921,125.17424 227.82571,125.87451 z "
       id="path4890"
       sodipodi:nodetypes="cssss" />
    <path
       sodipodi:type="arc"
       style="opacity:1;fill:none;fill-opacity:1;fill-rule:evenodd;stroke:black;stroke-width:10.52900028;stroke-linecap:round;stroke-linejoin:round;stroke-miterlimit:4;stroke-dasharray:none;stroke-dashoffset:0;stroke-opacity:1"
       id="path4892"
       sodipodi:cx="385.72043"
       sodipodi:cy="534.45532"
       sodipodi:rx="86.946144"
       sodipodi:ry="82.940498"
       d="M 472.66657 534.45532 A 86.946144 82.940498 0 1 1  298.77428,534.45532 A 86.946144 82.940498 0 1 1  472.66657 534.45532 z"
       transform="matrix(9.9561716e-2,-7.8840211e-2,7.8840211e-2,9.9561716e-2,146.60329,108.43634)" />
    <path
       style="fill:#b3ff80;fill-opacity:1;fill-rule:evenodd;stroke:#b3ff80;stroke-width:0.12699662px;stroke-linecap:butt;stroke-linejoin:miter;stroke-opacity:1"
       d="M 228.12924,126.59379 C 227.48578,127.16406 227.41767,128.46271 227.91256,129.13955 C 228.44047,129.86147 229.65386,129.92902 230.42132,129.43093 C 231.18878,128.93283 231.51958,127.77252 230.99165,127.05061 C 230.46373,126.32865 229.03593,125.99042 228.26847,126.48857 C 228.22053,126.51967 228.17209,126.55579 228.12924,126.59379 z M 229.09044,126.97668 C 229.42456,126.73401 229.82946,126.74435 230.02709,126.93859 C 230.22479,127.13284 230.21577,127.50972 229.88172,127.7523 C 229.54772,127.99491 228.88613,128.10176 228.68857,127.90745 C 228.49092,127.71322 228.75636,127.21931 229.09044,126.97668 z "
       id="path4894" />
    <path
       style="fill:black;fill-rule:evenodd;stroke:#010101;stroke-width:1px;stroke-linecap:butt;stroke-linejoin:miter;stroke-opacity:1;fill-opacity:1"
       d="M 147.29763,380.90689 L 317.45938,379.09448 L 236.5556,377.38933 L 147.29763,380.90689 z "
       id="path5085"
       sodipodi:nodetypes="cccc" />
    <path
       style="fill:none;fill-rule:evenodd;stroke:#000000;stroke-width:0.45894706;stroke-linecap:butt;stroke-linejoin:miter;stroke-miterlimit:4;stroke-dasharray:none;stroke-opacity:1"
       d="M 187.16024,106.21723 C 196.06578,103.59795 205.09772,101.06021 226.62267,101.73287 C 248.14762,102.40551 259.33556,102.36576 264.29133,107.11411 C 267.077,109.78317 258.9101,119.67034 258.9101,119.67034 C 258.9101,119.67034 256.06411,187.75666 260.70386,201.28579 C 283.81431,268.67439 310.50504,333.22272 321.69124,393.21668 C 325.82736,415.3997 305.27191,416.76315 303.75376,417.43226 C 289.52057,423.70543 171.50126,421.74099 158.46029,419.22601 C 154.91029,418.54137 137.38377,414.29319 139.62596,395.01044 C 146.82114,333.13178 176.12281,266.54524 192.54151,201.28579 C 195.15403,190.90167 192.54149,120.56716 192.54149,120.56716 C 192.54149,120.56716 183.34851,107.33832 187.16024,106.21723 z "
       id="path5461"
       sodipodi:nodetypes="csscsssssscs"
       inkscape:export-filename="/home/cihlarov/grafika/lizard/text3163.png"
       inkscape:export-xdpi="305.20001"
       inkscape:export-ydpi="305.20001" />
    <text
       xml:space="preserve"
       style="font-size:64px;font-style:normal;font-variant:normal;font-weight:bold;font-stretch:normal;text-align:start;line-height:100%;writing-mode:lr-tb;text-anchor:start;fill:#000000;fill-opacity:1;stroke:none;stroke-width:1px;stroke-linecap:butt;stroke-linejoin:miter;stroke-opacity:1;font-family:ChollaCZWide"
       x="782.75861"
       y="564.78412"
       id="text2538"
       sodipodi:linespacing="100%"><tspan
         sodipodi:role="line"
         id="tspan2540"
         x="782.75861"
         y="564.78412"></tspan><tspan
         sodipodi:role="line"
         id="tspan2542" /></text>
    <flowRoot
       xml:space="preserve"
       id="flowRoot3335"
       style="font-size:96.75584412px;font-style:normal;font-variant:normal;font-weight:normal;font-stretch:normal;text-align:start;line-height:100%;writing-mode:lr-tb;text-anchor:start;fill:#000000;fill-opacity:1;font-family:ChollaCZWideUltrabold;-inkscape-font-specification:ChollaCZWideUltrabold"
       transform="matrix(0.6201176,0,0,0.6201176,-138.95176,393.937)"><flowRegion
         id="flowRegion3337"><rect
           id="rect3339"
           width="669.64148"
           height="265.33301"
           x="381.65475"
           y="91.587944"
           style="font-size:96.75584412px;font-style:normal;font-variant:normal;font-weight:normal;font-stretch:normal;text-align:start;line-height:100%;writing-mode:lr-tb;text-anchor:start;fill:#000000;fill-opacity:1;font-family:ChollaCZWideUltrabold;-inkscape-font-specification:ChollaCZWideUltrabold" /></flowRegion><flowPara
         id="flowPara2544">SUSE Labs</flowPara></flowRoot>  </g>
</svg>