<?xml version="1.0" encoding="UTF-8" standalone="no"?>
<!-- Created with Inkscape (http://www.inkscape.org/) -->

<svg
   xmlns:dc="http://purl.org/dc/elements/1.1/"
   xmlns:cc="http://creativecommons.org/ns#"
   xmlns:rdf="http://www.w3.org/1999/02/22-rdf-syntax-ns#"
   xmlns:svg="http://www.w3.org/2000/svg"
   xmlns="http://www.w3.org/2000/svg"
   xmlns:sodipodi="http://sodipodi.sourceforge.net/DTD/sodipodi-0.dtd"
   xmlns:inkscape="http://www.inkscape.org/namespaces/inkscape"
   width="744.09448819"
   height="1052.3622047"
   id="svg2"
   version="1.1"
   inkscape:version="0.48.2 r9819"
   sodipodi:docname="Visitor_Shirt.svg"
   inkscape:export-filename="/Users/josh-andy/Documents/artwork/Marketing Materials/Events/openSUSE Conference/2014-oS-Conference/t-shirts/Visitor_Shirt.png"
   inkscape:export-xdpi="75"
   inkscape:export-ydpi="75">
  <defs
     id="defs4">
	

		
		
	
		
			
			
			
			
			
			
			
			
			
			
			
			
			
			
		</defs>
  <sodipodi:namedview
     id="base"
     pagecolor="#00c0dc"
     bordercolor="#666666"
     borderopacity="1.0"
     inkscape:pageopacity="1"
     inkscape:pageshadow="2"
     inkscape:zoom="1.086128"
     inkscape:cx="372.04724"
     inkscape:cy="526.18109"
     inkscape:document-units="px"
     inkscape:current-layer="layer1"
     showgrid="false"
     inkscape:window-width="2560"
     inkscape:window-height="1331"
     inkscape:window-x="0"
     inkscape:window-y="0"
     inkscape:window-maximized="1" />
  <metadata
     id="metadata7">
    <rdf:RDF>
      <cc:Work
         rdf:about="">
        <dc:format>image/svg+xml</dc:format>
        <dc:type
           rdf:resource="http://purl.org/dc/dcmitype/StillImage" />
        <dc:title></dc:title>
      </cc:Work>
    </rdf:RDF>
  </metadata>
  <g
     inkscape:label="Layer 1"
     inkscape:groupmode="layer"
     id="layer1">
    <text
       xml:space="preserve"
       style="font-size:58.24752808px;font-style:normal;font-variant:normal;font-weight:normal;font-stretch:normal;text-align:start;line-height:125%;letter-spacing:0px;word-spacing:0px;writing-mode:lr-tb;text-anchor:start;fill:#ffffff;fill-opacity:1;stroke:none;font-family:Cuprum;-inkscape-font-specification:Cuprum"
       x="88.791107"
       y="822.04926"
       id="text5845"
       sodipodi:linespacing="125%"><tspan
         sodipodi:role="line"
         id="tspan5847"
         x="88.791107"
         y="822.04926"
         style="font-style:normal;font-variant:normal;font-weight:normal;font-stretch:normal;fill:#ffffff;fill-opacity:1;font-family:FifthLeg;-inkscape-font-specification:FifthLeg">openSUSE <tspan
   style="font-family:Open Sans;-inkscape-font-specification:Open Sans"
   id="tspan4282">Conference</tspan></tspan></text>
    <g
       id="g4256"
       transform="translate(20.339142,0)">
      <path
         id="path2985"
         d="M 351.72479,92.466201 C 258.43664,194.76517 220.80219,205.8628 75.13892,260.23855 64.8363,694.23541 244.25272,620.49178 351.75838,731.27104 459.26403,620.49178 638.57967,694.23541 628.27705,260.23855 482.61378,205.8628 445.01293,194.76517 351.72479,92.466201 z"
         style="fill:#004455;fill-opacity:0;stroke:#ffffff;stroke-width:4;stroke-miterlimit:4;stroke-opacity:1;stroke-dasharray:none"
         inkscape:connector-curvature="0" />
      <path
         id="path3768"
         d="m 351.72479,130.96582 c -82.04005,89.96443 -115.1261,99.72882 -243.22625,147.5483 -1.25201,52.74105 0.66088,96.95012 5.1736,134.24476 l 476.0717,0 c 4.50979,-37.29464 6.42562,-81.50371 5.17359,-134.24476 C 466.8173,230.69464 433.76484,220.93025 351.72479,130.96582 z"
         style="fill:none;stroke:#ffffff;stroke-width:4;stroke-miterlimit:4;stroke-opacity:1;stroke-dasharray:none"
         inkscape:connector-curvature="0" />
      <path
         id="path3921"
         d="M 115.78861,421.39274 C 145.49134,640.39433 267.7161,611.05526 348.29812,688.3705 l 0,-266.97776 -232.50951,0 z"
         style="fill:#37abc8;fill-opacity:0;stroke:#ffffff;stroke-width:4;stroke-miterlimit:4;stroke-opacity:1;stroke-dasharray:none"
         inkscape:connector-curvature="0" />
      <path
         id="path3772"
         d="m 357.09995,421.39274 0,267.04495 c 80.57958,-77.39817 202.81708,-47.9809 232.50951,-267.04495 l -232.50951,0 z"
         style="fill:#ff0000;fill-opacity:0;stroke:#ffffff;stroke-width:4;stroke-miterlimit:4;stroke-opacity:1;stroke-dasharray:none"
         inkscape:connector-curvature="0" />
      <path
         sodipodi:nodetypes="ccc"
         inkscape:connector-curvature="0"
         id="path5792"
         d="m 332.96998,443.66523 c -34.21682,12.1042 -67.96814,8.34903 -101.58466,0 -31.03686,-9.13232 -61.17182,-10.81524 -89.79359,0"
         style="fill:none;stroke:#ffffff;stroke-width:2;stroke-linecap:round;stroke-linejoin:round;stroke-miterlimit:4;stroke-opacity:1;stroke-dasharray:none" />
      <path
         style="fill:none;stroke:#ffffff;stroke-width:2;stroke-linecap:round;stroke-linejoin:round;stroke-miterlimit:4;stroke-opacity:1;stroke-dasharray:none"
         d="m 332.96998,455.60476 c -34.21682,12.10422 -67.96814,8.34906 -101.58466,0 -31.03686,-9.13231 -61.17182,-10.81522 -89.79359,0"
         id="path5794"
         inkscape:connector-curvature="0"
         sodipodi:nodetypes="ccc" />
      <path
         sodipodi:nodetypes="ccc"
         inkscape:connector-curvature="0"
         id="path5796"
         d="m 332.96998,468.24665 c -34.21682,12.10422 -67.96814,8.34906 -101.58466,0 -31.03686,-9.13232 -59.20156,-10.81522 -87.82333,0"
         style="fill:none;stroke:#ffffff;stroke-width:2;stroke-linecap:round;stroke-linejoin:round;stroke-miterlimit:4;stroke-opacity:1;stroke-dasharray:none" />
      <path
         style="fill:none;stroke:#ffffff;stroke-width:2;stroke-linecap:round;stroke-linejoin:round;stroke-miterlimit:4;stroke-opacity:1;stroke-dasharray:none"
         d="m 332.96998,480.45171 c -34.21682,12.10424 -67.96814,8.34904 -101.58466,0 -29.19651,-8.59081 -57.59487,-10.58944 -84.68629,-1.79311"
         id="path5798"
         inkscape:connector-curvature="0"
         sodipodi:nodetypes="ccc" />
      <path
         sodipodi:nodetypes="ccc"
         inkscape:connector-curvature="0"
         id="path5800"
         d="m 332.96998,492.65679 c -34.21682,12.10422 -67.96814,8.34906 -101.58466,0 -28.03682,-8.24958 -55.33764,-10.4203 -81.45191,-2.79048"
         style="fill:none;stroke:#ffffff;stroke-width:2;stroke-linecap:round;stroke-linejoin:round;stroke-miterlimit:4;stroke-opacity:1;stroke-dasharray:none" />
      <path
         style="fill:none;stroke:#ffffff;stroke-width:2;stroke-linecap:round;stroke-linejoin:round;stroke-miterlimit:4;stroke-opacity:1;stroke-dasharray:none"
         d="m 332.96998,504.86185 c -34.21682,12.10423 -67.96814,8.34904 -101.58466,0 -27.2944,-8.03114 -53.8913,-10.30105 -79.37495,-3.37602"
         id="path5802"
         inkscape:connector-curvature="0"
         sodipodi:nodetypes="ccc" />
      <path
         sodipodi:nodetypes="ccc"
         inkscape:connector-curvature="0"
         id="path5804"
         d="m 332.96998,517.06692 c -34.21682,12.10421 -67.96814,8.34906 -101.58466,0 -25.80573,-7.59311 -50.98795,-10.03633 -75.19528,-4.42763"
         style="fill:none;stroke:#ffffff;stroke-width:2;stroke-linecap:round;stroke-linejoin:round;stroke-miterlimit:4;stroke-opacity:1;stroke-dasharray:none" />
      <path
         style="fill:none;stroke:#ffffff;stroke-width:2;stroke-linecap:round;stroke-linejoin:round;stroke-miterlimit:4;stroke-opacity:1;stroke-dasharray:none"
         d="m 332.96998,529.27198 c -34.21682,12.10424 -67.96814,8.34906 -101.58466,0 -24.1012,-7.09156 -47.65854,-9.6911 -70.3858,-5.43446"
         id="path5806"
         inkscape:connector-curvature="0"
         sodipodi:nodetypes="ccc" />
      <path
         sodipodi:nodetypes="ccc"
         inkscape:connector-curvature="0"
         id="path5808"
         d="m 332.96998,541.47705 c -34.21682,12.10421 -67.96814,8.34906 -101.58466,0 -21.61881,-6.36114 -42.80005,-9.10792 -63.3371,-6.53413"
         style="fill:none;stroke:#ffffff;stroke-width:2;stroke-linecap:round;stroke-linejoin:round;stroke-miterlimit:4;stroke-opacity:1;stroke-dasharray:none" />
      <path
         style="fill:none;stroke:#ffffff;stroke-width:2;stroke-linecap:round;stroke-linejoin:round;stroke-miterlimit:4;stroke-opacity:1;stroke-dasharray:none"
         d="m 332.96998,553.68211 c -34.21682,12.10424 -67.96814,8.34906 -101.58466,0 -19.79432,-5.82428 -39.22176,-8.61856 -58.12382,-7.0731"
         id="path5810"
         inkscape:connector-curvature="0"
         sodipodi:nodetypes="ccc" />
      <path
         sodipodi:nodetypes="ccc"
         inkscape:connector-curvature="0"
         id="path5812"
         d="m 332.96998,565.88719 c -34.21682,12.10422 -67.96814,8.34906 -101.58466,0 -17.19133,-5.0584 -34.10596,-7.83128 -50.64002,-7.46065"
         style="fill:none;stroke:#ffffff;stroke-width:2;stroke-linecap:round;stroke-linejoin:round;stroke-miterlimit:4;stroke-opacity:1;stroke-dasharray:none" />
      <path
         style="fill:none;stroke:#ffffff;stroke-width:2;stroke-linecap:round;stroke-linejoin:round;stroke-miterlimit:4;stroke-opacity:1;stroke-dasharray:none"
         d="m 332.96998,578.09225 c -34.21682,12.10422 -67.96814,8.34906 -101.58466,0 -13.67385,-4.02341 -27.17266,-6.60089 -40.44412,-7.30069"
         id="path5814"
         inkscape:connector-curvature="0"
         sodipodi:nodetypes="ccc" />
      <path
         sodipodi:nodetypes="ccc"
         inkscape:connector-curvature="0"
         id="path5816"
         d="m 332.96998,590.29732 c -34.21682,12.10422 -67.96814,8.34905 -101.58466,0 -8.40878,-2.47421 -16.75138,-4.40161 -25.01562,-5.68181"
         style="fill:none;stroke:#ffffff;stroke-width:2;stroke-linecap:round;stroke-linejoin:round;stroke-miterlimit:4;stroke-opacity:1;stroke-dasharray:none" />
      <path
         style="fill:none;stroke:#ffffff;stroke-width:2;stroke-linecap:round;stroke-linejoin:round;stroke-miterlimit:4;stroke-opacity:1;stroke-dasharray:none"
         d="m 332.96998,602.50238 c -34.21682,12.10422 -65.99792,8.34906 -99.61441,0"
         id="path5818"
         inkscape:connector-curvature="0"
         sodipodi:nodetypes="cc" />
      <path
         sodipodi:nodetypes="cc"
         inkscape:connector-curvature="0"
         id="path5820"
         d="m 332.96998,614.70744 c -22.65413,8.01393 -41.16371,9.07596 -63.50572,6.45558"
         style="fill:none;stroke:#ffffff;stroke-width:2;stroke-linecap:round;stroke-linejoin:round;stroke-miterlimit:4;stroke-opacity:1;stroke-dasharray:none" />
      <rect
         y="459.52841"
         x="399.80792"
         height="51.706722"
         width="51.706722"
         id="rect5962"
         style="fill:#ffffff;stroke:none" />
      <rect
         style="fill:#ffffff;stroke:none"
         id="rect5964"
         width="51.706722"
         height="51.706722"
         x="451.51465"
         y="511.23511" />
      <g
         transform="matrix(1.4012658,0,0,1.399947,586.55992,-175.63749)"
         style="fill:#ffffff;fill-opacity:1"
         id="g4252">
        <path
           inkscape:connector-curvature="0"
           style="fill:#ffffff;fill-opacity:1"
           d="m -75.6875,314.15625 c -2.284023,0.13768 -4.405,1.04125 -6.09375,2.625 -1.931,1.8 -3.07625,4.25625 -3.15625,6.90625 -0.179,5.47 4.1025,10.08125 9.5625,10.28125 2.66,0.08 5.185,-0.85625 7.125,-2.65625 1.93,-1.81 3.045,-4.26625 3.125,-6.90625 0.18,-5.47 -4.0925,-10.06 -9.5625,-10.25 -0.33125,-0.0125 -0.673711,-0.0197 -1,0 z m 2.625,4.96875 c 2.43,0 4.40625,1.3075 4.40625,2.9375 0,1.61 -1.97725,2.90625 -4.40625,2.90625 -1.518125,0 -2.868252,-0.50146 -3.65625,-1.28125 -0.157559,-0.15596 -0.295391,-0.32492 -0.40625,-0.5 -0.221797,-0.35016 -0.34375,-0.7225 -0.34375,-1.125 0,-1.63 1.97625,-2.9375 4.40625,-2.9375 z"
           id="path4158" />
        <path
           style="fill:#ffffff;fill-opacity:1"
           inkscape:connector-curvature="0"
           d="m -52.68894,343.52289 1.021,-0.19 c 0.279,0.22 0.239,0.67 0.149,1.07 -0.189,0.93 -0.64,2.62 -0.95,3.42 l -0.26,0.66 c -0.359,0.98 -0.72,1.91 -1.41,2.47 -1.899,1.73 -4.939,3.11 -9.699,5.19 -7.36,3.22 -19.29,5.25 -30.37,5.18 -3.971,-0.09 -7.811,-0.53 -11.181,-0.91 -10.319,-1.18 -17.779,-2.02 -19.33,7.36 -1.96,11.76 9.101,26.04 9.211,26.169 l -0.011,0.391 -0.359,0.09 c 0,0 -17.63,-8.12 -18.061,-8.36 l -0.56,-0.399 -0.45,-0.431 c -1.33,-1.279 -4,-4.149 -9.42,-10.43 -10.51,-12.15 -22.81,-13.75 -32.29,-11.44 -2.31,0.55 -5.25,2.24 -7.16,4.14 -4.95,4.88 -4.39,14.71 -4.11,18.29 0.33,4.05 0.54,4.35 0.63,4.68 l -0.06,0.41 -0.35,0.04 -0.2,-0.14 -14.46,-7.07 -0.55,-2.36 c -0.37,-1.56 -0.8,-3.29 -1.62,-5.46 -5.17,-13.63 -16.79,-23.88 -29.59,-26.09 -8.65,-1.49 -24.42,-1.66 -32.77,14.1 -3.49,6.58 -3.28,15.15 0.55,22.37 3.9,7.391 10.87,12.13 19.12,13.04 8.18,0.891 14.33,-1 17.78,-5.47 3.48,-4.51 4.13,-10.65 1.66,-15.65 -2.65,-5.369 -6.65,-8.22 -12.21,-8.689 -4.23,-0.38 -7.37,1.38 -8.5,3.18 -0.33,0.561 -0.93,1.601 -0.94,3.08 v 0.05 c 0,4.03 3.69,5.13 4.44,5.181 0.23,0 1.34,-0.03 2.81,-0.4 l 0.71,-0.229 0.49,-0.171 0.36,-0.069 c 2.68,-0.49 5.26,1.09 6.01,3.7 0.13,0.479 0.2,0.96 0.2,1.439 0,1.73 -0.88,3.34 -2.34,4.32 l 0.06,-0.021 -0.16,0.09 -0.24,0.15 c -0.77,0.49 -1.48,0.76 -2.23,0.99 -2.1,0.689 -3.96,1.01 -5.83,1.01 -6.38,-0.01 -15.27,-5.5 -15.39,-15.81 -0.06,-5.82 2.86,-11.12 8,-14.53 5.92,-3.91 16.15,-5.24 25.64,0.58 11.68,7.15 14.73,21.149 11.68,30.7 -4.43,13.83 -16.89,21.22 -33.34,19.75 -11.65,-1.04 -22.47,-7.19 -28.91,-16.45 -2.86,-4.101 -4.98,-8.67 -6.12,-13.23 -2.63,-10.43 0.03,-21.51 2.01,-26.42 6.3,-15.61 18.36,-29.04 35.81,-39.93 l 1.1,-0.69 c 37.12,-22.811 63.39,-21.891 82.62,-21.221 22.681,0.79 46.87,8.61 50.21,9.72 0.011,-0.75 0.141,-7.51 0.141,-7.51 l 0.1,-0.23 0.26,-0.07 c 1.521,0.21 34.11,5.05 47.841,13.05 1.699,1 2.539,2.04 3.59,3.12 3.79,3.92 8.81,20.25 9.34,23.62 l -0.2,0.34 c -0.2,0.07 -0.67,0.42 -1.3,0.84 -3.2,2.24 -10.69,7.48 -20.29,6.62 -8.63,-0.76 -19.9,-5.71 -33.49,-14.66 0.601,1.41 3.43,8.11 3.91,9.24 l 0.18,0.22 c 1.971,1.02 20.851,10.64 30.221,10.45 7.557,-0.15 15.627,-3.84 18.857,-5.78 z m -8.78,-18.83 c 0.261,-7.68 -5.77,-14.16 -13.46,-14.43 -3.72,-0.13 -7.27,1.19 -9.989,3.73 -2.73,2.54 -4.29,5.99 -4.42,9.71 -0.25,7.68 5.77,14.15 13.449,14.43 3.74,0.13 7.28,-1.19 10,-3.74 2.72,-2.54 4.28,-5.98 4.42,-9.7 z"
           id="path4168" />
      </g>
    </g>
  </g>
</svg>
