<?xml version="1.0" encoding="UTF-8" standalone="no"?>
<!-- Created with Inkscape (http://www.inkscape.org/) -->

<svg
   xmlns:dc="http://purl.org/dc/elements/1.1/"
   xmlns:cc="http://creativecommons.org/ns#"
   xmlns:rdf="http://www.w3.org/1999/02/22-rdf-syntax-ns#"
   xmlns:svg="http://www.w3.org/2000/svg"
   xmlns="http://www.w3.org/2000/svg"
   xmlns:sodipodi="http://sodipodi.sourceforge.net/DTD/sodipodi-0.dtd"
   xmlns:inkscape="http://www.inkscape.org/namespaces/inkscape"
   width="360"
   height="200"
   id="svg2"
   sodipodi:version="0.32"
   inkscape:version="0.48.2 r9819"
   sodipodi:docname="Vistor_Shirt_Model.svg"
   inkscape:output_extension="org.inkscape.output.svg.inkscape"
   version="1.0"
   inkscape:export-filename="/Users/josh-andy/Documents/artwork/Marketing Materials/Events/openSUSE Conference/2014-oS-Conference/t-shirts/Vistor_Shirt_Model.png"
   inkscape:export-xdpi="75"
   inkscape:export-ydpi="75">
  <defs
     id="defs4" />
  <sodipodi:namedview
     id="base"
     pagecolor="#ffffff"
     bordercolor="#666666"
     borderopacity="1.0"
     gridtolerance="10000"
     guidetolerance="10"
     objecttolerance="10"
     inkscape:pageopacity="1"
     inkscape:pageshadow="2"
     inkscape:zoom="5.5111111"
     inkscape:cx="180"
     inkscape:cy="100"
     inkscape:document-units="px"
     inkscape:current-layer="layer1"
     showgrid="false"
     inkscape:window-width="2560"
     inkscape:window-height="1331"
     inkscape:window-x="0"
     inkscape:window-y="0"
     showguides="true"
     inkscape:guide-bbox="true"
     inkscape:window-maximized="1">
    <inkscape:grid
       type="xygrid"
       id="grid3367"
       enabled="true"
       visible="true"
       empspacing="5"
       snapvisiblegridlinesonly="true" />
  </sodipodi:namedview>
  <metadata
     id="metadata7">
    <rdf:RDF>
      <cc:Work
         rdf:about="">
        <dc:format>image/svg+xml</dc:format>
        <dc:type
           rdf:resource="http://purl.org/dc/dcmitype/StillImage" />
        <dc:title></dc:title>
        <dc:date />
        <dc:creator>
          <cc:Agent>
            <dc:title />
          </cc:Agent>
        </dc:creator>
        <dc:rights>
          <cc:Agent>
            <dc:title />
          </cc:Agent>
        </dc:rights>
        <dc:publisher>
          <cc:Agent>
            <dc:title />
          </cc:Agent>
        </dc:publisher>
        <dc:identifier />
        <dc:source />
        <dc:relation />
        <dc:language />
        <dc:subject>
          <rdf:Bag />
        </dc:subject>
        <dc:coverage />
        <dc:description />
        <dc:contributor>
          <cc:Agent>
            <dc:title />
          </cc:Agent>
        </dc:contributor>
        <cc:license
           rdf:resource="" />
      </cc:Work>
    </rdf:RDF>
  </metadata>
  <g
     inkscape:label="Layer 1"
     inkscape:groupmode="layer"
     id="layer1"
     transform="translate(-21.75,-11.09322)">
    <g
       id="g3219"
       transform="translate(-28.569025,-500.62579)"
       style="stroke:#000000;fill:#00c0dc;fill-opacity:1">
      <path
         sodipodi:nodetypes="ccccccccccc"
         id="path2427"
         d="M 67.613793,570.41735 C 92.081868,557.31693 112.96983,558.64283 133.65517,547.35529 C 144.75154,549.78633 153.01217,548.81449 160.64828,547.09322 C 184.0769,557.87959 204.67653,559.60901 226.68966,570.67942 C 224.86002,582.23888 220.8308,592.2272 214.11034,600.29322 C 205.95673,595.92328 198.24205,594.1869 190.78621,594.00356 L 190.26207,672.62425 C 158.14057,678.60698 130.91491,676.022 104.30345,672.36218 L 104.04138,594.26563 C 94.670701,593.99343 87.540944,597.4561 80.193103,600.55529 C 73.125888,590.9199 69.824253,580.74656 67.613793,570.41735 z"
         style="fill:#00c0dc;fill-rule:evenodd;stroke:#000000;stroke-width:2;stroke-linecap:butt;stroke-linejoin:miter;stroke-miterlimit:4;stroke-dasharray:none;stroke-opacity:1;fill-opacity:1" />
      <path
         sodipodi:nodetypes="cc"
         id="path3199"
         d="M 71.282759,569.10701 C 73.497437,579.85552 77.366255,589.89387 84.910345,598.45873"
         style="fill:#00c0dc;fill-rule:evenodd;stroke:#000000;stroke-width:1px;stroke-linecap:butt;stroke-linejoin:miter;stroke-opacity:1;fill-opacity:1" />
      <path
         sodipodi:nodetypes="cc"
         id="path3203"
         d="M 105.35172,668.16908 C 133.48046,672.77351 161.60919,673.76203 189.73793,667.90701"
         style="fill:#00c0dc;fill-rule:evenodd;stroke:#000000;stroke-width:1px;stroke-linecap:butt;stroke-linejoin:miter;stroke-opacity:1;fill-opacity:1" />
      <path
         sodipodi:nodetypes="czc"
         id="path3205"
         d="M 133.3931,547.61736 C 133.16494,549.94206 135.08547,560.35018 147.28275,560.98287 C 159.21868,561.60201 161.55802,549.44684 161.17241,547.87942"
         style="fill:#00c0dc;fill-rule:evenodd;stroke:#000000;stroke-width:1px;stroke-linecap:butt;stroke-linejoin:miter;stroke-opacity:1;fill-opacity:1" />
      <path
         style="fill:#00c0dc;fill-rule:evenodd;stroke:#000000;stroke-width:1px;stroke-linecap:butt;stroke-linejoin:miter;stroke-opacity:1;fill-opacity:1"
         d="M 128.21194,550.41871 C 127.98378,552.74341 132.78618,565.53036 146.55676,565.88077 C 160.58924,566.23784 166.33548,551.19991 165.94987,549.63249"
         id="path3207"
         sodipodi:nodetypes="czc" />
      <path
         sodipodi:nodetypes="cc"
         id="path3209"
         d="M 134.52279,552.33459 C 143.06093,554.56783 150.60453,554.08878 159.84088,552.13274"
         style="fill:#00c0dc;fill-rule:evenodd;stroke:#000000;stroke-width:1px;stroke-linecap:butt;stroke-linejoin:miter;stroke-opacity:1;fill-opacity:1" />
      <path
         sodipodi:nodetypes="cc"
         id="path3213"
         d="M 104.16182,558.28077 C 106.73776,568.16616 110.99985,579.76968 103.89975,593.66008"
         style="fill:#00c0dc;fill-rule:evenodd;stroke:#000000;stroke-width:1px;stroke-linecap:butt;stroke-linejoin:miter;stroke-opacity:1;fill-opacity:1" />
      <path
         style="fill:#00c0dc;fill-rule:evenodd;stroke:#000000;stroke-width:1px;stroke-linecap:butt;stroke-linejoin:miter;stroke-opacity:1;fill-opacity:1"
         d="M 190.37521,558.48262 C 187.79927,568.36801 183.53718,579.97153 190.63728,593.86193"
         id="path3215"
         sodipodi:nodetypes="cc" />
      <path
         style="fill:#00c0dc;fill-rule:evenodd;stroke:#000000;stroke-width:1px;stroke-linecap:butt;stroke-linejoin:miter;stroke-opacity:1;fill-opacity:1"
         d="M 223.28276,568.84494 C 221.06808,579.59345 217.19926,589.6318 209.65517,598.19666"
         id="path3217"
         sodipodi:nodetypes="cc" />
    </g>
    <g
       transform="translate(137.76557,-500.62579)"
       id="g3272"
       style="stroke:#000000;fill:#00c0dc;fill-opacity:1">
      <path
         style="fill:#00c0dc;fill-rule:evenodd;stroke:#000000;stroke-width:2;stroke-linecap:butt;stroke-linejoin:miter;stroke-miterlimit:4;stroke-dasharray:none;stroke-opacity:1;fill-opacity:1"
         d="M 67.613793,570.41735 C 92.081868,557.31693 112.96983,558.64283 133.65517,547.35529 C 144.75154,549.78633 153.01217,548.81449 160.64828,547.09322 C 184.0769,557.87959 204.67653,559.60901 226.68966,570.67942 C 224.86002,582.23888 220.8308,592.2272 214.11034,600.29322 C 205.95673,595.92328 198.24205,594.1869 190.78621,594.00356 L 190.26207,672.62425 C 158.14057,678.60698 130.91491,676.022 104.30345,672.36218 L 104.04138,594.26563 C 94.670701,593.99343 87.540944,597.4561 80.193103,600.55529 C 73.125888,590.9199 69.824253,580.74656 67.613793,570.41735 z"
         id="path3274"
         sodipodi:nodetypes="ccccccccccc" />
      <path
         style="fill:#00c0dc;fill-rule:evenodd;stroke:#000000;stroke-width:1px;stroke-linecap:butt;stroke-linejoin:miter;stroke-opacity:1;fill-opacity:1"
         d="M 71.282759,569.10701 C 73.497437,579.85552 77.366255,589.89387 84.910345,598.45873"
         id="path3276"
         sodipodi:nodetypes="cc" />
      <path
         style="fill:#00c0dc;fill-rule:evenodd;stroke:#000000;stroke-width:1px;stroke-linecap:butt;stroke-linejoin:miter;stroke-opacity:1;fill-opacity:1"
         d="M 105.35172,668.16908 C 133.48046,672.77351 161.60919,673.76203 189.73793,667.90701"
         id="path3278"
         sodipodi:nodetypes="cc" />
      <path
         style="fill:#00c0dc;fill-rule:evenodd;stroke:#000000;stroke-width:1px;stroke-linecap:butt;stroke-linejoin:miter;stroke-opacity:1;fill-opacity:1"
         d="M 128.66915,549.91239 C 136.6767,556.10373 156.57703,556.4878 165.29082,549.71055"
         id="path3284"
         sodipodi:nodetypes="cc" />
      <path
         style="fill:#00c0dc;fill-rule:evenodd;stroke:#000000;stroke-width:1px;stroke-linecap:butt;stroke-linejoin:miter;stroke-opacity:1;fill-opacity:1"
         d="M 104.16182,558.28077 C 106.73776,568.16616 110.99985,579.76968 103.89975,593.66008"
         id="path3286"
         sodipodi:nodetypes="cc" />
      <path
         sodipodi:nodetypes="cc"
         id="path3288"
         d="M 190.37521,558.48262 C 187.79927,568.36801 183.53718,579.97153 190.63728,593.86193"
         style="fill:#00c0dc;fill-rule:evenodd;stroke:#000000;stroke-width:1px;stroke-linecap:butt;stroke-linejoin:miter;stroke-opacity:1;fill-opacity:1" />
      <path
         sodipodi:nodetypes="cc"
         id="path3290"
         d="M 223.28276,568.84494 C 221.06808,579.59345 217.19926,589.6318 209.65517,598.19666"
         style="fill:#00c0dc;fill-rule:evenodd;stroke:#000000;stroke-width:1px;stroke-linecap:butt;stroke-linejoin:miter;stroke-opacity:1;fill-opacity:1" />
    </g>
    <path
       style="font-size:12px;font-style:normal;font-variant:normal;font-weight:normal;font-stretch:normal;fill:#000000;fill-opacity:1;stroke:none;stroke-width:1px;stroke-linecap:butt;stroke-linejoin:miter;stroke-opacity:1;font-family:Liberation Sans;-inkscape-font-specification:Liberation Sans"
       d="M 106.21943,183.01118 L 106.21943,186.0815 L 110.8249,186.0815 L 110.8249,187.00728 L 106.21943,187.00728 L 106.21943,190.35298 L 105.10029,190.35298 L 105.10029,182.09712 L 110.96552,182.09712 L 110.96552,183.01118 L 106.21943,183.01118 M 112.28388,190.35298 L 112.28388,185.4897 C 112.28388,185.35689 112.28193,185.22213 112.27802,185.0854 C 112.27802,184.94478 112.27607,184.81002 112.27216,184.68111 C 112.26826,184.55221 112.26435,184.43111 112.26044,184.31783 C 112.25654,184.20455 112.25263,184.10299 112.24873,184.01314 L 113.24482,184.01314 C 113.24872,184.10299 113.25263,184.2065 113.25654,184.32368 C 113.26435,184.43697 113.27021,184.55416 113.27412,184.67525 C 113.28193,184.79635 113.28583,184.91353 113.28584,185.02681 C 113.28974,185.13619 113.29169,185.22994 113.29169,185.30806 L 113.31513,185.30806 C 113.38935,185.06588 113.46747,184.85689 113.54951,184.68111 C 113.63544,184.50142 113.73505,184.35494 113.84834,184.24165 C 113.96161,184.12447 114.09638,184.03853 114.25263,183.98384 C 114.40888,183.92525 114.59833,183.89596 114.82099,183.89595 C 114.90693,183.89596 114.98896,183.90377 115.06709,183.91939 C 115.14521,183.93111 115.20575,183.94283 115.24873,183.95454 L 115.24873,184.92134 C 115.17841,184.90182 115.09638,184.88814 115.00263,184.88033 C 114.90888,184.86861 114.80341,184.86275 114.68623,184.86275 C 114.44404,184.86275 114.237,184.91744 114.06513,185.02681 C 113.89716,185.13619 113.75849,185.28853 113.64912,185.48384 C 113.54365,185.67525 113.46552,185.90572 113.41474,186.17525 C 113.36396,186.44088 113.33857,186.73189 113.33857,187.04829 L 113.33857,190.35298 L 112.28388,190.35298 M 121.62959,187.1772 C 121.62958,188.28658 121.38544,189.11275 120.89716,189.65572 C 120.40888,190.19868 119.69989,190.47017 118.77021,190.47017 C 118.3288,190.47017 117.93427,190.40376 117.58662,190.27095 C 117.23896,190.13814 116.94404,189.93501 116.70185,189.66158 C 116.46357,189.38814 116.27998,189.04634 116.15107,188.63618 C 116.02607,188.22212 115.96357,187.7358 115.96357,187.1772 C 115.96357,184.98971 116.91083,183.89596 118.80537,183.89595 C 119.29755,183.89596 119.72138,183.96432 120.07685,184.10103 C 120.43622,184.23775 120.72919,184.44283 120.95576,184.71626 C 121.18622,184.98971 121.35614,185.3315 121.46552,185.74165 C 121.57489,186.15181 121.62958,186.63033 121.62959,187.1772 M 120.52216,187.1772 C 120.52216,186.68502 120.4831,186.27877 120.40498,185.95845 C 120.33075,185.63814 120.21942,185.38228 120.07099,185.19087 C 119.92646,184.99947 119.74872,184.86666 119.53779,184.79243 C 119.32685,184.71432 119.08857,184.67525 118.82294,184.67525 C 118.55341,184.67525 118.30927,184.71627 118.09052,184.79829 C 117.87568,184.87642 117.69208,185.01314 117.53974,185.20845 C 117.3874,185.39986 117.27021,185.65572 117.18818,185.97603 C 117.11005,186.29634 117.07099,186.69674 117.07099,187.1772 C 117.07099,187.66939 117.11396,188.07759 117.1999,188.40181 C 117.28583,188.72212 117.40302,188.97798 117.55146,189.16939 C 117.7038,189.3608 117.88154,189.49556 118.08466,189.57368 C 118.29169,189.65181 118.5163,189.69087 118.75849,189.69087 C 119.02802,189.69087 119.27216,189.65376 119.49091,189.57954 C 119.70966,189.50142 119.89521,189.36665 120.04755,189.17525 C 120.19989,188.98384 120.31708,188.72603 120.39912,188.40181 C 120.48114,188.07759 120.52216,187.66939 120.52216,187.1772 M 126.97334,190.35298 L 126.97334,186.33345 C 126.97333,186.02486 126.94989,185.76705 126.90302,185.56001 C 126.86005,185.35299 126.78778,185.18697 126.68623,185.06197 C 126.58466,184.93307 126.44989,184.84322 126.28193,184.79243 C 126.11786,184.73775 125.91278,184.71041 125.66669,184.7104 C 125.41669,184.71041 125.19013,184.75533 124.98701,184.84517 C 124.78779,184.93111 124.61591,185.05806 124.47138,185.22603 C 124.33075,185.3901 124.22138,185.59517 124.14326,185.84126 C 124.06513,186.08345 124.02607,186.36275 124.02607,186.67915 L 124.02607,190.35298 L 122.97138,190.35298 L 122.97138,185.36665 C 122.97138,185.23385 122.96943,185.09517 122.96552,184.95064 C 122.96552,184.80221 122.96357,184.66353 122.95966,184.53462 C 122.95576,184.40182 122.95185,184.28853 122.94794,184.19478 C 122.94404,184.10103 122.94013,184.04049 122.93623,184.01314 L 123.93232,184.01314 C 123.93622,184.03268 123.94013,184.08541 123.94404,184.17134 C 123.94794,184.25728 123.95185,184.35689 123.95576,184.47017 C 123.96357,184.57955 123.96943,184.69283 123.97334,184.81001 C 123.97724,184.9233 123.97919,185.019 123.97919,185.09712 L 123.99677,185.09712 C 124.09833,184.91353 124.20966,184.74752 124.33076,184.59908 C 124.45185,184.45064 124.59247,184.32564 124.75263,184.22408 C 124.91279,184.11861 125.09638,184.03853 125.30341,183.98384 C 125.51044,183.92525 125.75068,183.89596 126.02412,183.89595 C 126.37567,183.89596 126.67841,183.93893 126.93232,184.02486 C 127.18622,184.1108 127.39521,184.24361 127.55927,184.42329 C 127.72333,184.60299 127.84247,184.83541 127.91669,185.12056 C 127.99481,185.40181 128.03388,185.73775 128.03388,186.12837 L 128.03388,190.35298 L 126.97334,190.35298 M 132.06513,190.30611 C 131.90497,190.34908 131.74091,190.38228 131.57294,190.40572 C 131.40888,190.43306 131.21747,190.44673 130.99873,190.44673 C 130.15497,190.44673 129.7331,189.96822 129.7331,189.01118 L 129.7331,184.78072 L 129.00068,184.78072 L 129.00068,184.01314 L 129.77412,184.01314 L 130.08466,182.59517 L 130.78779,182.59517 L 130.78779,184.01314 L 131.95966,184.01314 L 131.95966,184.78072 L 130.78779,184.78072 L 130.78779,188.78267 C 130.78779,189.08736 130.83661,189.3022 130.93427,189.4272 C 131.03583,189.54829 131.20966,189.60884 131.45576,189.60884 C 131.55732,189.60884 131.65497,189.60103 131.74873,189.5854 C 131.84638,189.56978 131.95185,189.55025 132.06513,189.52681 L 132.06513,190.30611"
       id="text3463" />
    <path
       style="font-size:12px;font-style:normal;font-variant:normal;font-weight:normal;font-stretch:normal;fill:#000000;fill-opacity:1;stroke:none;stroke-width:1px;stroke-linecap:butt;stroke-linejoin:miter;stroke-opacity:1;font-family:Liberation Sans;-inkscape-font-specification:Liberation Sans"
       d="M 278.43976,188.02681 C 278.43975,188.44478 278.35772,188.8022 278.19366,189.09908 C 278.0296,189.39205 277.80889,189.63228 277.53156,189.81978 C 277.25421,190.00337 276.93194,190.13814 276.56476,190.22408 C 276.19757,190.31001 275.81085,190.35298 275.4046,190.35298 L 272.05304,190.35298 L 272.05304,182.09712 L 275.05304,182.09712 C 275.51007,182.09713 275.91827,182.13619 276.27765,182.21431 C 276.63702,182.28854 276.94171,182.40768 277.19171,182.57173 C 277.44171,182.7358 277.63116,182.94479 277.76007,183.19868 C 277.89288,183.44869 277.95928,183.74947 277.95929,184.10103 C 277.95928,184.3315 277.92608,184.5483 277.85968,184.75142 C 277.79717,184.95455 277.69952,185.1401 277.56671,185.30806 C 277.4378,185.47213 277.27374,185.61471 277.07452,185.73579 C 276.87921,185.85299 276.65069,185.94088 276.38898,185.99947 C 276.721,186.03853 277.01397,186.1147 277.26788,186.22798 C 277.52569,186.34127 277.74053,186.4858 277.91241,186.66158 C 278.08428,186.83736 278.21514,187.04244 278.30499,187.27681 C 278.39483,187.50728 278.43975,187.75728 278.43976,188.02681 M 276.83429,184.23579 C 276.83428,183.79049 276.68194,183.47213 276.37726,183.28072 C 276.07257,183.08932 275.63116,182.99361 275.05304,182.99361 L 273.17218,182.99361 L 273.17218,185.60689 L 275.05304,185.60689 C 275.38116,185.60689 275.6585,185.57564 275.88507,185.51314 C 276.11163,185.44674 276.29522,185.35494 276.43585,185.23775 C 276.57647,185.11666 276.67803,184.97213 276.74054,184.80415 C 276.80303,184.63619 276.83428,184.44674 276.83429,184.23579 M 277.3089,187.93892 C 277.30889,187.6772 277.26006,187.45455 277.16241,187.27095 C 277.06866,187.08736 276.93194,186.93697 276.75226,186.81978 C 276.57257,186.70259 276.35577,186.61666 276.10187,186.56197 C 275.85186,186.50728 275.57061,186.47994 275.25812,186.47993 L 273.17218,186.47993 L 273.17218,189.4565 L 275.34601,189.4565 C 275.63116,189.4565 275.89288,189.43306 276.13116,189.38618 C 276.37335,189.33931 276.58038,189.25728 276.75226,189.14009 C 276.92803,189.0229 277.06475,188.86665 277.16241,188.67134 C 277.26006,188.47603 277.30889,188.23189 277.3089,187.93892 M 281.48663,190.47017 C 280.84991,190.47017 280.3714,190.3022 280.05109,189.96626 C 279.73077,189.63033 279.57062,189.16939 279.57062,188.58345 C 279.57062,188.16548 279.64874,187.82369 279.80499,187.55806 C 279.96515,187.28853 280.17218,187.07759 280.42609,186.92525 C 280.6839,186.77291 280.97687,186.66744 281.30499,186.60884 C 281.63312,186.55025 281.9671,186.51705 282.30695,186.50923 L 283.73077,186.48579 L 283.73077,186.14009 C 283.73077,185.87838 283.70343,185.65572 283.64874,185.47212 C 283.59405,185.28853 283.51007,185.1401 283.39679,185.02681 C 283.2835,184.91353 283.14093,184.8315 282.96906,184.78072 C 282.80108,184.72603 282.60186,184.69869 282.3714,184.69868 C 282.16827,184.69869 281.98468,184.71432 281.82062,184.74556 C 281.65655,184.77291 281.51397,184.82564 281.39288,184.90376 C 281.27179,184.97799 281.17413,185.0815 281.09991,185.21431 C 281.02569,185.34322 280.97687,185.50728 280.95343,185.7065 L 279.85187,185.60689 C 279.89093,185.35689 279.96515,185.12838 280.07452,184.92134 C 280.1839,184.71041 280.33819,184.52877 280.53741,184.37642 C 280.74054,184.22408 280.99249,184.10689 281.29327,184.02486 C 281.59796,183.93893 281.96515,183.89596 282.39484,183.89595 C 283.19171,183.89596 283.79132,184.07955 284.19366,184.44673 C 284.596,184.81002 284.79717,185.33736 284.79718,186.02876 L 284.79718,188.75923 C 284.79717,189.07173 284.83819,189.30806 284.92023,189.46822 C 285.00225,189.62447 285.1585,189.70259 285.38898,189.70259 C 285.44756,189.70259 285.50616,189.69869 285.56476,189.69087 C 285.62335,189.68306 285.67999,189.67329 285.73468,189.66158 L 285.73468,190.31783 C 285.60186,190.34908 285.46905,190.37251 285.33624,190.38814 C 285.20733,190.40376 285.06866,190.41158 284.92023,190.41158 C 284.721,190.41158 284.54913,190.38618 284.4046,190.3354 C 284.26397,190.28072 284.14874,190.20064 284.0589,190.09517 C 283.96905,189.98579 283.90069,189.85298 283.85382,189.69673 C 283.80694,189.53658 283.77764,189.35103 283.76593,189.14009 L 283.73077,189.14009 C 283.61749,189.34322 283.49249,189.52681 283.35577,189.69087 C 283.22296,189.85494 283.06671,189.99556 282.88702,190.11275 C 282.70733,190.22603 282.50225,190.31392 282.27179,190.37642 C 282.04522,190.43892 281.78351,190.47017 281.48663,190.47017 M 281.72687,189.67915 C 282.0628,189.67915 282.35577,189.61861 282.60577,189.49751 C 282.85968,189.37251 283.06866,189.21431 283.23273,189.0229 C 283.40069,188.8315 283.52569,188.62251 283.60773,188.39595 C 283.68975,188.16939 283.73077,187.95259 283.73077,187.74556 L 283.73077,187.22408 L 282.57648,187.24751 C 282.31866,187.25142 282.07257,187.27095 281.8382,187.30611 C 281.60772,187.33736 281.4046,187.40181 281.22882,187.49947 C 281.05304,187.59712 280.91241,187.73384 280.80695,187.90962 C 280.70538,188.08541 280.6546,188.31587 280.6546,188.60103 C 280.6546,188.94478 280.7464,189.2104 280.92999,189.3979 C 281.11749,189.5854 281.38312,189.67915 281.72687,189.67915 M 287.35187,187.15376 C 287.35187,187.51705 287.37726,187.85103 287.42804,188.15572 C 287.48273,188.46041 287.57257,188.72408 287.69757,188.94673 C 287.82257,189.16548 287.98663,189.3354 288.18976,189.4565 C 288.39679,189.57759 288.65069,189.63814 288.95148,189.63814 C 289.32647,189.63814 289.63897,189.53658 289.88898,189.33345 C 290.14288,189.13033 290.29913,188.81783 290.35773,188.39595 L 291.42413,188.46626 C 291.38897,188.72798 291.3128,188.97994 291.19562,189.22212 C 291.07842,189.46431 290.91827,189.6772 290.71515,189.86079 C 290.51593,190.04439 290.27179,190.19283 289.98273,190.30611 C 289.69366,190.41548 289.35968,190.47017 288.98077,190.47017 C 288.48468,190.47017 288.0628,190.38618 287.71515,190.21822 C 287.36749,190.05025 287.08429,189.81978 286.86554,189.52681 C 286.65069,189.22994 286.49445,188.88228 286.39679,188.48384 C 286.29913,188.0815 286.2503,187.64595 286.25031,187.1772 C 286.2503,186.75142 286.28546,186.37642 286.35577,186.0522 C 286.42609,185.72408 286.52374,185.43892 286.64874,185.19673 C 286.77765,184.95064 286.92804,184.74557 287.09991,184.5815 C 287.27179,184.41353 287.45733,184.28072 287.65656,184.18306 C 287.85968,184.0815 288.07257,184.00924 288.29523,183.96626 C 288.51788,183.91939 288.74249,183.89596 288.96906,183.89595 C 289.32452,183.89596 289.64093,183.94478 289.91827,184.04243 C 290.19561,184.1401 290.43389,184.27486 290.63312,184.44673 C 290.83624,184.61471 291.0003,184.81392 291.12531,185.04439 C 291.2503,185.27486 291.33819,185.52291 291.38898,185.78853 L 290.30499,185.87056 C 290.2503,185.519 290.11163,185.23971 289.88898,185.03267 C 289.66632,184.82564 289.34991,184.72213 288.93976,184.72212 C 288.63897,184.72213 288.38702,184.77291 288.1839,184.87447 C 287.98468,184.97213 287.82257,185.12252 287.69757,185.32564 C 287.57257,185.52486 287.48273,185.77681 287.42804,186.0815 C 287.37726,186.38619 287.35187,186.74361 287.35187,187.15376 M 296.54523,190.35298 L 294.4007,187.45845 L 293.62726,188.09712 L 293.62726,190.35298 L 292.57257,190.35298 L 292.57257,181.65767 L 293.62726,181.65767 L 293.62726,187.08931 L 296.41046,184.01314 L 297.64679,184.01314 L 295.07452,186.73775 L 297.78156,190.35298 L 296.54523,190.35298"
       id="text3467" />
    <g
       id="g4123">
      <text
         sodipodi:linespacing="125%"
         id="text5845"
         y="134.76538"
         x="96.178139"
         style="font-size:4.77539444px;font-style:normal;font-variant:normal;font-weight:normal;font-stretch:normal;text-align:start;line-height:125%;letter-spacing:0px;word-spacing:0px;writing-mode:lr-tb;text-anchor:start;fill:#ffffff;fill-opacity:1;stroke:none;font-family:Cuprum;-inkscape-font-specification:Cuprum"
         xml:space="preserve"><tspan
           style="font-style:normal;font-variant:normal;font-weight:normal;font-stretch:normal;fill:#ffffff;fill-opacity:1;font-family:FifthLeg;-inkscape-font-specification:FifthLeg"
           y="134.76538"
           x="96.178139"
           id="tspan5847"
           sodipodi:role="line">openSUSE <tspan
   id="tspan4282"
   style="font-family:Open Sans;-inkscape-font-specification:Open Sans">Conference</tspan></tspan></text>
      <path
         id="path2985"
         d="m 119.40212,74.950875 c -7.64819,8.38693 -10.73363,9.296764 -22.675758,13.754732 -0.844655,35.581013 13.864708,29.535183 22.678508,38.617363 8.8138,-9.08218 23.5149,-3.03635 22.67024,-38.617363 -11.94213,-4.457968 -15.02481,-5.367802 -22.67299,-13.754732 z"
         style="fill:#004455;fill-opacity:0;stroke:#ffffff;stroke-width:0.5;stroke-miterlimit:4;stroke-opacity:1;stroke-dasharray:none"
         inkscape:connector-curvature="0" />
      <path
         id="path3768"
         d="m 119.40212,78.107247 c -6.72602,7.375689 -9.43856,8.176218 -19.940786,12.096674 -0.102646,4.323948 0.05418,7.948407 0.424155,11.005989 l 39.030501,0 c 0.36973,-3.057582 0.5268,-6.682041 0.42415,-11.005989 -10.50222,-3.920456 -13.21201,-4.720985 -19.93802,-12.096674 z"
         style="fill:none;stroke:#ffffff;stroke-width:0.5;stroke-miterlimit:4;stroke-opacity:1;stroke-dasharray:none"
         inkscape:connector-curvature="0" />
      <path
         id="path3921"
         d="m 100.05901,101.91775 c 2.43516,17.95474 12.4557,15.54939 19.06217,21.88804 l 0,-21.88804 -19.06217,0 z"
         style="fill:#37abc8;fill-opacity:0;stroke:#ffffff;stroke-width:0.5;stroke-miterlimit:4;stroke-opacity:1;stroke-dasharray:none"
         inkscape:connector-curvature="0" />
      <path
         id="path3772"
         d="m 119.8428,101.91775 0,21.89355 c 6.60627,-6.34545 16.62785,-3.93369 19.06217,-21.89355 l -19.06217,0 z"
         style="fill:#ff0000;fill-opacity:0;stroke:#ffffff;stroke-width:0.5;stroke-miterlimit:4;stroke-opacity:1;stroke-dasharray:none"
         inkscape:connector-curvature="0" />
      <path
         sodipodi:nodetypes="ccc"
         inkscape:connector-curvature="0"
         id="path5792"
         d="m 117.86451,103.74375 c -2.80525,0.99236 -5.57233,0.68449 -8.32837,0 -2.54454,-0.74871 -5.01514,-0.88668 -7.36168,0"
         style="fill:none;stroke:#ffffff;stroke-width:0.1;stroke-linecap:round;stroke-linejoin:round;stroke-miterlimit:4;stroke-opacity:1;stroke-dasharray:none" />
      <path
         style="fill:none;stroke:#ffffff;stroke-width:0.1;stroke-linecap:round;stroke-linejoin:round;stroke-miterlimit:4;stroke-opacity:1;stroke-dasharray:none"
         d="m 117.86451,104.72261 c -2.80525,0.99236 -5.57233,0.68449 -8.32837,0 -2.54454,-0.74871 -5.01514,-0.88668 -7.36168,0"
         id="path5794"
         inkscape:connector-curvature="0"
         sodipodi:nodetypes="ccc" />
      <path
         sodipodi:nodetypes="ccc"
         inkscape:connector-curvature="0"
         id="path5796"
         d="m 117.86451,105.75905 c -2.80525,0.99236 -5.57233,0.68449 -8.32837,0 -2.54454,-0.74871 -4.85361,-0.88668 -7.20015,0"
         style="fill:none;stroke:#ffffff;stroke-width:0.1;stroke-linecap:round;stroke-linejoin:round;stroke-miterlimit:4;stroke-opacity:1;stroke-dasharray:none" />
      <path
         style="fill:none;stroke:#ffffff;stroke-width:0.1;stroke-linecap:round;stroke-linejoin:round;stroke-miterlimit:4;stroke-opacity:1;stroke-dasharray:none"
         d="m 117.86451,106.75967 c -2.80525,0.99236 -5.57233,0.6845 -8.32837,0 -2.39366,-0.70431 -4.72188,-0.86817 -6.94296,-0.147"
         id="path5798"
         inkscape:connector-curvature="0"
         sodipodi:nodetypes="ccc" />
      <path
         sodipodi:nodetypes="ccc"
         inkscape:connector-curvature="0"
         id="path5800"
         d="m 117.86451,107.7603 c -2.80525,0.99236 -5.57233,0.68449 -8.32837,0 -2.29858,-0.67634 -4.53682,-0.8543 -6.67779,-0.22878"
         style="fill:none;stroke:#ffffff;stroke-width:0.1;stroke-linecap:round;stroke-linejoin:round;stroke-miterlimit:4;stroke-opacity:1;stroke-dasharray:none" />
      <path
         style="fill:none;stroke:#ffffff;stroke-width:0.1;stroke-linecap:round;stroke-linejoin:round;stroke-miterlimit:4;stroke-opacity:1;stroke-dasharray:none"
         d="m 117.86451,108.76093 c -2.80525,0.99236 -5.57233,0.68449 -8.32837,0 -2.23771,-0.65843 -4.41825,-0.84453 -6.50751,-0.27678"
         id="path5802"
         inkscape:connector-curvature="0"
         sodipodi:nodetypes="ccc" />
      <path
         sodipodi:nodetypes="ccc"
         inkscape:connector-curvature="0"
         id="path5804"
         d="m 117.86451,109.76155 c -2.80525,0.99236 -5.57233,0.6845 -8.32837,0 -2.11567,-0.62251 -4.18022,-0.82282 -6.16484,-0.36299"
         style="fill:none;stroke:#ffffff;stroke-width:0.1;stroke-linecap:round;stroke-linejoin:round;stroke-miterlimit:4;stroke-opacity:1;stroke-dasharray:none" />
      <path
         style="fill:none;stroke:#ffffff;stroke-width:0.1;stroke-linecap:round;stroke-linejoin:round;stroke-miterlimit:4;stroke-opacity:1;stroke-dasharray:none"
         d="m 117.86451,110.76218 c -2.80525,0.99236 -5.57233,0.68449 -8.32837,0 -1.97592,-0.5814 -3.90726,-0.79452 -5.77054,-0.44554"
         id="path5806"
         inkscape:connector-curvature="0"
         sodipodi:nodetypes="ccc" />
      <path
         sodipodi:nodetypes="ccc"
         inkscape:connector-curvature="0"
         id="path5808"
         d="m 117.86451,111.76281 c -2.80525,0.99235 -5.57233,0.68449 -8.32837,0 -1.7724,-0.52152 -3.50894,-0.74671 -5.19266,-0.5357"
         style="fill:none;stroke:#ffffff;stroke-width:0.1;stroke-linecap:round;stroke-linejoin:round;stroke-miterlimit:4;stroke-opacity:1;stroke-dasharray:none" />
      <path
         style="fill:none;stroke:#ffffff;stroke-width:0.1;stroke-linecap:round;stroke-linejoin:round;stroke-miterlimit:4;stroke-opacity:1;stroke-dasharray:none"
         d="m 117.86451,112.76343 c -2.80525,0.99236 -5.57233,0.68449 -8.32837,0 -1.62282,-0.4775 -3.21557,-0.70659 -4.76525,-0.57988"
         id="path5810"
         inkscape:connector-curvature="0"
         sodipodi:nodetypes="ccc" />
      <path
         sodipodi:nodetypes="ccc"
         inkscape:connector-curvature="0"
         id="path5812"
         d="m 117.86451,113.76406 c -2.80525,0.99236 -5.57233,0.68449 -8.32837,0 -1.40942,-0.41471 -2.79616,-0.64205 -4.15169,-0.61166"
         style="fill:none;stroke:#ffffff;stroke-width:0.1;stroke-linecap:round;stroke-linejoin:round;stroke-miterlimit:4;stroke-opacity:1;stroke-dasharray:none" />
      <path
         style="fill:none;stroke:#ffffff;stroke-width:0.1;stroke-linecap:round;stroke-linejoin:round;stroke-miterlimit:4;stroke-opacity:1;stroke-dasharray:none"
         d="m 117.86451,114.76468 c -2.80525,0.99236 -5.57233,0.6845 -8.32837,0 -1.12104,-0.32985 -2.22773,-0.54117 -3.31579,-0.59854"
         id="path5814"
         inkscape:connector-curvature="0"
         sodipodi:nodetypes="ccc" />
      <path
         sodipodi:nodetypes="ccc"
         inkscape:connector-curvature="0"
         id="path5816"
         d="m 117.86451,115.76531 c -2.80525,0.99236 -5.57233,0.68449 -8.32837,0 -0.68938,-0.20285 -1.37335,-0.36086 -2.05089,-0.46582"
         style="fill:none;stroke:#ffffff;stroke-width:0.1;stroke-linecap:round;stroke-linejoin:round;stroke-miterlimit:4;stroke-opacity:1;stroke-dasharray:none" />
      <path
         style="fill:none;stroke:#ffffff;stroke-width:0.1;stroke-linecap:round;stroke-linejoin:round;stroke-miterlimit:4;stroke-opacity:1;stroke-dasharray:none"
         d="m 117.86451,116.76594 c -2.80525,0.99235 -5.4108,0.68449 -8.16684,0"
         id="path5818"
         inkscape:connector-curvature="0"
         sodipodi:nodetypes="cc" />
      <path
         sodipodi:nodetypes="cc"
         inkscape:connector-curvature="0"
         id="path5820"
         d="m 117.86451,117.76656 c -1.85729,0.65702 -3.37478,0.74409 -5.20648,0.52926"
         style="fill:none;stroke:#ffffff;stroke-width:0.1;stroke-linecap:round;stroke-linejoin:round;stroke-miterlimit:4;stroke-opacity:1;stroke-dasharray:none" />
      <rect
         y="105.04429"
         x="123.34418"
         height="4.2391496"
         width="4.2391496"
         id="rect5962"
         style="fill:#ffffff;stroke:none" />
      <rect
         style="fill:#ffffff;stroke:none"
         id="rect5964"
         width="4.2391496"
         height="4.2391496"
         x="127.58334"
         y="109.28343" />
      <g
         transform="matrix(0.11488208,0,0,0.11477395,138.65496,52.970528)"
         style="fill:#ffffff;fill-opacity:1;stroke-width:0.87086773;stroke-miterlimit:4;stroke-dasharray:none"
         id="g4252">
        <path
           inkscape:connector-curvature="0"
           style="fill:#ffffff;fill-opacity:1;stroke-width:0.87086773;stroke-miterlimit:4;stroke-dasharray:none"
           d="m -75.6875,314.15625 c -2.284023,0.13768 -4.405,1.04125 -6.09375,2.625 -1.931,1.8 -3.07625,4.25625 -3.15625,6.90625 -0.179,5.47 4.1025,10.08125 9.5625,10.28125 2.66,0.08 5.185,-0.85625 7.125,-2.65625 1.93,-1.81 3.045,-4.26625 3.125,-6.90625 0.18,-5.47 -4.0925,-10.06 -9.5625,-10.25 -0.33125,-0.0125 -0.673711,-0.0197 -1,0 z m 2.625,4.96875 c 2.43,0 4.40625,1.3075 4.40625,2.9375 0,1.61 -1.97725,2.90625 -4.40625,2.90625 -1.518125,0 -2.868252,-0.50146 -3.65625,-1.28125 -0.157559,-0.15596 -0.295391,-0.32492 -0.40625,-0.5 -0.221797,-0.35016 -0.34375,-0.7225 -0.34375,-1.125 0,-1.63 1.97625,-2.9375 4.40625,-2.9375 z"
           id="path4158" />
        <path
           style="fill:#ffffff;fill-opacity:1;stroke-width:0.87086773;stroke-miterlimit:4;stroke-dasharray:none"
           inkscape:connector-curvature="0"
           d="m -52.68894,343.52289 1.021,-0.19 c 0.279,0.22 0.239,0.67 0.149,1.07 -0.189,0.93 -0.64,2.62 -0.95,3.42 l -0.26,0.66 c -0.359,0.98 -0.72,1.91 -1.41,2.47 -1.899,1.73 -4.939,3.11 -9.699,5.19 -7.36,3.22 -19.29,5.25 -30.37,5.18 -3.971,-0.09 -7.811,-0.53 -11.181,-0.91 -10.319,-1.18 -17.779,-2.02 -19.33,7.36 -1.96,11.76 9.101,26.04 9.211,26.169 l -0.011,0.391 -0.359,0.09 c 0,0 -17.63,-8.12 -18.061,-8.36 l -0.56,-0.399 -0.45,-0.431 c -1.33,-1.279 -4,-4.149 -9.42,-10.43 -10.51,-12.15 -22.81,-13.75 -32.29,-11.44 -2.31,0.55 -5.25,2.24 -7.16,4.14 -4.95,4.88 -4.39,14.71 -4.11,18.29 0.33,4.05 0.54,4.35 0.63,4.68 l -0.06,0.41 -0.35,0.04 -0.2,-0.14 -14.46,-7.07 -0.55,-2.36 c -0.37,-1.56 -0.8,-3.29 -1.62,-5.46 -5.17,-13.63 -16.79,-23.88 -29.59,-26.09 -8.65,-1.49 -24.42,-1.66 -32.77,14.1 -3.49,6.58 -3.28,15.15 0.55,22.37 3.9,7.391 10.87,12.13 19.12,13.04 8.18,0.891 14.33,-1 17.78,-5.47 3.48,-4.51 4.13,-10.65 1.66,-15.65 -2.65,-5.369 -6.65,-8.22 -12.21,-8.689 -4.23,-0.38 -7.37,1.38 -8.5,3.18 -0.33,0.561 -0.93,1.601 -0.94,3.08 v 0.05 c 0,4.03 3.69,5.13 4.44,5.181 0.23,0 1.34,-0.03 2.81,-0.4 l 0.71,-0.229 0.49,-0.171 0.36,-0.069 c 2.68,-0.49 5.26,1.09 6.01,3.7 0.13,0.479 0.2,0.96 0.2,1.439 0,1.73 -0.88,3.34 -2.34,4.32 l 0.06,-0.021 -0.16,0.09 -0.24,0.15 c -0.77,0.49 -1.48,0.76 -2.23,0.99 -2.1,0.689 -3.96,1.01 -5.83,1.01 -6.38,-0.01 -15.27,-5.5 -15.39,-15.81 -0.06,-5.82 2.86,-11.12 8,-14.53 5.92,-3.91 16.15,-5.24 25.64,0.58 11.68,7.15 14.73,21.149 11.68,30.7 -4.43,13.83 -16.89,21.22 -33.34,19.75 -11.65,-1.04 -22.47,-7.19 -28.91,-16.45 -2.86,-4.101 -4.98,-8.67 -6.12,-13.23 -2.63,-10.43 0.03,-21.51 2.01,-26.42 6.3,-15.61 18.36,-29.04 35.81,-39.93 l 1.1,-0.69 c 37.12,-22.811 63.39,-21.891 82.62,-21.221 22.681,0.79 46.87,8.61 50.21,9.72 0.011,-0.75 0.141,-7.51 0.141,-7.51 l 0.1,-0.23 0.26,-0.07 c 1.521,0.21 34.11,5.05 47.841,13.05 1.699,1 2.539,2.04 3.59,3.12 3.79,3.92 8.81,20.25 9.34,23.62 l -0.2,0.34 c -0.2,0.07 -0.67,0.42 -1.3,0.84 -3.2,2.24 -10.69,7.48 -20.29,6.62 -8.63,-0.76 -19.9,-5.71 -33.49,-14.66 0.601,1.41 3.43,8.11 3.91,9.24 l 0.18,0.22 c 1.971,1.02 20.851,10.64 30.221,10.45 7.557,-0.15 15.627,-3.84 18.857,-5.78 z m -8.78,-18.83 c 0.261,-7.68 -5.77,-14.16 -13.46,-14.43 -3.72,-0.13 -7.27,1.19 -9.989,3.73 -2.73,2.54 -4.29,5.99 -4.42,9.71 -0.25,7.68 5.77,14.15 13.449,14.43 3.74,0.13 7.28,-1.19 10,-3.74 2.72,-2.54 4.28,-5.98 4.42,-9.7 z"
           id="path4168" />
      </g>
    </g>
  </g>
</svg>
