<svg xmlns="http://www.w3.org/2000/svg" viewBox="0 0 500 494.11"><defs><style>.cls-1{fill:#fff;}</style></defs><title>Design 5_bw_outline</title><g id="Line_Art" data-name="Line Art"><path class="cls-1" d="M245.5,319.05a58.56,58.56,0,0,1-58.5-58.5c0-33.54,23.32-55.69,45.87-57.74.22,0,.45,0,.67,0A7.46,7.46,0,0,1,241,210.2v5.35a30.8,30.8,0,0,0,1,9,1,1,0,0,1,.05.25l0,.18c4.59,12.58,16.21,21.41,28.94,22.05l11.25.06h16.48a4.5,4.5,0,0,1,0,9h-16.5L272.5,256h-6.44L262.7,256l-17.22-.1h-.15c-2.55,0-4.62.1-6.34.21-2.31.14-4.79,1.61-4.79,4.5a4.5,4.5,0,0,1-9,0c0-7.22,5.69-13,13.24-13.49,2-.12,4.4-.19,7.24-.23H247l-1-.87a43.54,43.54,0,0,1-10.9-14.3l-.21-.45-.45.21c-5.73,2.69-10.4,7.37-13.31,10.82-7.31,11.14-7.49,24.86-.48,35a4.52,4.52,0,0,1,.72,3.37,4.5,4.5,0,0,1-8.13,1.74c-9.17-13.28-9-31.06.52-45.28l.3-.41c3.81-4.57,10-10.73,18-14l.35-.14,0-.38a53.72,53.72,0,0,1-.36-6.57V212l-.58.09C214.25,214.89,196,232.85,196,260.55a49.56,49.56,0,0,0,49.5,49.5,18,18,0,0,0,18-18,14.92,14.92,0,0,0-.07-1.5A17.87,17.87,0,0,0,248,274.25a19.19,19.19,0,0,0-2-.18h-.57c-.31,0-.54,0-.76,0l-.45,0-.34.05A9.41,9.41,0,0,0,238.76,289a9,9,0,0,0,4,2.58c.27.08.53.16.8.22h.06a4.5,4.5,0,0,1-1,8.88,4.59,4.59,0,0,1-1-.1c-.54-.12-1-.26-1.56-.42s-.91-.32-1.35-.5a17.24,17.24,0,0,1-5.15-3.19c-.34-.31-.61-.57-.88-.84l-.5-.54-.29-.34A18,18,0,0,1,235.68,268l.11-.07c.16-.11.32-.22.49-.32l.36-.2c.39-.22.79-.43,1.19-.63l.14-.06c.46-.21.94-.41,1.41-.58l.13,0a14.78,14.78,0,0,1,1.42-.43l.46-.11c.37-.09.75-.16,1.13-.23l.69-.09c.33,0,.66-.08,1-.1l.37,0h1.79a26.75,26.75,0,0,1,18.57,8.21c.56.57,1.09,1.18,1.6,1.8a27,27,0,0,1,4.62,8.51c.26.78.48,1.59.66,2.39a27,27,0,0,1,.58,3.71v.07c.07.78.1,1.54.1,2.28a26.84,26.84,0,0,1-4.62,15.09c-.24.36-.49.71-.75,1.06a27.09,27.09,0,0,1-14.89,10,26.78,26.78,0,0,1-4,.72C247.35,319,246.42,319.05,245.5,319.05Z"/><path d="M233.54,203.28h0a6.95,6.95,0,0,1,7,6.92v5.36a31.37,31.37,0,0,0,1,9.09,1.16,1.16,0,0,1,0,.18l0,.21,0,.07,0,.08c4.63,12.69,16.44,21.65,29.41,22.3l11.24.07h16.47a4,4,0,0,1,0,8H282.23l-9.73-.06h-6.42l-2.38,0h-1l-17.18-.09-.17,0h0c-2.53,0-4.61.1-6.34.21-2.53.15-5.26,1.79-5.26,5a4,4,0,0,1-8,0c0-7,5.49-12.55,12.77-13,2-.12,4.38-.19,7.21-.23l2.65,0-2-1.73a42.86,42.86,0,0,1-10.76-14.13l-.43-.9-.9.42c-5.82,2.72-10.54,7.46-13.48,10.95l0,0,0,.05c-7.39,11.26-7.56,25.2-.45,35.52a4,4,0,0,1,.65,3,4,4,0,0,1-7.23,1.55c-9.05-13.11-8.85-30.65.51-44.7l.28-.39c3.8-4.54,10-10.63,17.81-13.87l.7-.29-.09-.76a52.4,52.4,0,0,1-.36-6.5v-4.17l-1.16.19c-17.38,2.86-35.84,21-35.84,49a50.06,50.06,0,0,0,50,50,18.52,18.52,0,0,0,18.5-18.5c0-.53,0-1.05-.07-1.55a18.37,18.37,0,0,0-15.82-16.75,17.69,17.69,0,0,0-2-.19h-.66c-.25,0-.49,0-.73,0l-.47,0-.32,0h-.06a9.15,9.15,0,0,0-3.14,1.15,10.2,10.2,0,0,0-2.31,14.53,9.45,9.45,0,0,0,4.18,2.72c.23.07.5.15.81.22h0a4,4,0,0,1-.87,7.9,4.09,4.09,0,0,1-.85-.09h0c-.5-.11-1-.24-1.5-.4s-.81-.28-1.31-.48l-.09,0a17,17,0,0,1-4.92-3.07l-.05,0h0c-.28-.25-.54-.51-.8-.78s-.33-.34-.48-.51l-.06-.06-.24-.28A17.51,17.51,0,0,1,236,268.4l.13-.09.44-.29.2-.11.17-.09q.6-.35,1.14-.6l.05,0,.09,0c.45-.21.91-.4,1.37-.57l.09,0,.11,0c.46-.16.88-.29,1.31-.4l.29-.07.15,0a10.84,10.84,0,0,1,1.11-.22l.66-.1c.32,0,.64-.07,1-.09l.22,0h1.89a26.26,26.26,0,0,1,18.22,8.06c.55.56,1.07,1.16,1.57,1.77a26.13,26.13,0,0,1,4.53,8.34,22.18,22.18,0,0,1,.65,2.35,27.24,27.24,0,0,1,.57,3.6h0v.09h0c.06.71.1,1.49.1,2.26a26.34,26.34,0,0,1-4.53,14.8c-.24.35-.49.7-.74,1a26.69,26.69,0,0,1-14.62,9.82,27,27,0,0,1-3.9.7c-.9.09-1.81.14-2.71.14a58.07,58.07,0,0,1-58-58c0-33.26,23.09-55.23,45.41-57.25q.32,0,.63,0m0-1q-.36,0-.72,0c-22.77,2.07-46.32,24.42-46.32,58.25a59.07,59.07,0,0,0,59,59,26.17,26.17,0,0,0,2.81-.15,27,27,0,0,0,4.05-.72,27.62,27.62,0,0,0,15.17-10.19c.26-.35.52-.71.77-1.08a27.33,27.33,0,0,0,4.7-15.36c0-.81,0-1.62-.11-2.35v0h0a27.66,27.66,0,0,0-.59-3.77c-.19-.83-.42-1.64-.68-2.44a27.18,27.18,0,0,0-4.71-8.66c-.51-.64-1.05-1.25-1.62-1.84a27.37,27.37,0,0,0-18.91-8.36h-1.83l-.38,0c-.35,0-.69.06-1,.1l-.71.1c-.39.06-.78.14-1.17.23l-.46.11q-.7.18-1.38.42l-.22.07c-.5.18-1,.38-1.45.6l-.14.06c-.42.2-.83.41-1.22.64-.13.07-.26.14-.38.22s-.41.26-.61.39a18.52,18.52,0,0,0-4,27.56l.31.35.51.55c.27.28.55.56.84.82l.07.06a17.91,17.91,0,0,0,5.21,3.25l.08,0c.46.18.92.35,1.39.5s1,.31,1.58.43h0a4.5,4.5,0,0,0,1.09.12,5,5,0,0,0,1.09-9.87h0l-.76-.2a8.51,8.51,0,0,1-3.72-2.43,8.78,8.78,0,0,1-1.76-6.48,8.66,8.66,0,0,1,3.84-6.54,8.4,8.4,0,0,1,2.79-1l.33-.05.43-.05c.21,0,.43,0,.66,0h.61a17.64,17.64,0,0,1,16.88,16h0a13.87,13.87,0,0,1,.07,1.46,17.53,17.53,0,0,1-17.5,17.5,49.06,49.06,0,0,1-49-49c0-27,17.42-45.11,35-48v3a51.81,51.81,0,0,0,.37,6.62c-7.9,3.26-14.15,9.3-18.21,14.17l-.32.43c-9.6,14.4-9.8,32.39-.51,45.85a5,5,0,0,0,4.12,2.16,4.94,4.94,0,0,0,2.83-.89,5,5,0,0,0,1.28-6.95c-6.9-10-6.71-23.47.45-34.4,2.62-3.11,7.34-8,13.14-10.68a43.76,43.76,0,0,0,11,14.46c-2.67,0-5.14.11-7.26.24-7.82.47-13.71,6.49-13.71,14a5,5,0,0,0,10,0c0-2.58,2.24-3.89,4.32-4,1.83-.12,4-.18,6.3-.21l.15,0,17.23.09,3.36.05h6.44l9.72.06h16.53a5,5,0,0,0,0-10H282.28l-11.23-.07c-12.52-.62-24-9.3-28.48-21.64a4,4,0,0,0-.09-.48,30.21,30.21,0,0,1-1-8.81V210.2a8,8,0,0,0-8-7.92Z"/><path class="cls-1" d="M292.49,238.05h-2a4.5,4.5,0,0,1,0-9H301l.13-.29a31.51,31.51,0,0,0-28.6-44.71H259V200l.73-.38a18.12,18.12,0,0,1,3.76-1.43l.22-.06c.23-.06.45-.11.68-.15l.37-.08.62-.1.45-.06.57-.06.51,0c.32,0,.65,0,1,0H268a18,18,0,1,1,0,36,17.62,17.62,0,0,1-6-1l-.08,0h-.28l-1-.52-.47-.22-.18-.09a17.85,17.85,0,0,1-10-16.12v-38a2.5,2.5,0,0,1,2.49-2.49h20.17l.33,0a40.64,40.64,0,0,1,40,40.48v20a2.47,2.47,0,0,1-2.47,2.47Zm-24.58-31.49a7.5,7.5,0,0,0-1,.06l-.15,0-.81.15-.26.06c-.28.08-.55.16-.81.26l-.11,0c-.29.11-.58.25-.86.39l-.19.09c-.26.15-.48.28-.69.42l-.19.12a8.34,8.34,0,0,0-.75.58l-.09.08c-.25.23-.44.41-.62.6l-.18.19c-.21.25-.42.5-.6.76a10.29,10.29,0,0,0-.61,1l-.21.44c-.09.19-.16.39-.24.59a9.78,9.78,0,0,0-.41,1.48c0,.17-.05.33-.08.5a10.49,10.49,0,0,0-.09,1.16,9,9,0,0,0,4.91,8c.22.1.41.18.6.28a8.81,8.81,0,0,0,3.49.7,9,9,0,0,0,8.56-6.21,9.35,9.35,0,0,0,.3-1.26l0-.19a9.32,9.32,0,0,0,.09-1.22v-.31c0-.14,0-.29,0-.43,0-.3-.06-.6-.11-.9l0-.22a10,10,0,0,0-.29-1.07l-.06-.18c-.13-.34-.24-.61-.37-.88a2,2,0,0,0-.13-.26,8.29,8.29,0,0,0-.53-.91l-.13-.17-.06-.09c-.14-.19-.29-.38-.45-.56l-.35-.39-.32-.3a7.91,7.91,0,0,0-.82-.69l-.09-.07-.26-.18c-.16-.11-.33-.21-.5-.31l-.54-.28-.11-.05-.29-.14-.12-.05c-.25-.1-.44-.17-.64-.23l-.33-.1-.48-.12-.39-.08-.46-.07-.37,0-.53,0h-.3Z"/><path d="M272,175.56h1a40.14,40.14,0,0,1,39.51,40v20a2,2,0,0,1-2,2h-20a4,4,0,0,1,0-8h10.79l.27-.59a32,32,0,0,0-29.06-45.41h-14v17.21L260,200a17.2,17.2,0,0,1,3.66-1.4l.13,0,.09,0,.64-.14h.07l.16,0,.15,0,.59-.09.11,0,.17,0,.16,0,.56-.05h.14l.17,0h.18c.31,0,.63,0,.95,0H268a17.52,17.52,0,0,1,17.5,17.5,17.25,17.25,0,0,1-.84,5.35h0l0,.07A17.43,17.43,0,0,1,268,233.06a17.16,17.16,0,0,1-5.84-1L262,232h-.23l-.88-.46-.48-.23-.17-.08a17.38,17.38,0,0,1-9.73-15.67v-38a2,2,0,0,1,2-2H272m-13.32,38.2v.05c0,.18-.05.37-.08.56v0h0a9.63,9.63,0,0,0-.08,1.09h0v0a9.45,9.45,0,0,0,5.22,8.47l.61.29.05,0h0A9.49,9.49,0,0,0,277,218.5a9.06,9.06,0,0,0,.33-1.34v0a.78.78,0,0,1,0-.14,9,9,0,0,0,.1-1.3v-.32c0-.15,0-.3,0-.46a7.55,7.55,0,0,0-.12-.94v-.06l0-.18c-.08-.37-.18-.75-.3-1.13l-.07-.18,0-.08a7.72,7.72,0,0,0-.36-.85l0-.07a2,2,0,0,0-.1-.21,9.73,9.73,0,0,0-.57-1l-.14-.2-.06-.07c-.15-.21-.3-.4-.47-.6s-.24-.27-.37-.4-.24-.24-.38-.37a9.1,9.1,0,0,0-.83-.68l-.08-.06-.29-.21c-.17-.11-.34-.22-.52-.32l-.57-.3-.1-.05-.33-.15-.14-.06-.05,0-.61-.22-.33-.1h-.06a3.45,3.45,0,0,0-.46-.12l-.41-.08-.49-.08-.38,0-.57,0h-.32a8.35,8.35,0,0,0-1,.06l-.14,0c-.28,0-.57.09-.86.15l-.28.07c-.3.08-.58.17-.86.27l-.11,0a9.77,9.77,0,0,0-.91.4l-.19.1,0,0a6.82,6.82,0,0,0-.68.41l-.06,0-.14.1a9.9,9.9,0,0,0-.8.61l-.11.1,0,0a8.28,8.28,0,0,0-.6.59l-.18.2a8,8,0,0,0-.64.8,8.15,8.15,0,0,0-.64,1.07c-.08.15-.15.3-.22.45s-.18.42-.26.64a11.28,11.28,0,0,0-.43,1.51M273,174.56H252.49a3,3,0,0,0-3,3v38a18.38,18.38,0,0,0,10.28,16.57l.2.09a4.39,4.39,0,0,1,.44.21l1.09.57h.31a18.51,18.51,0,0,0,23.77-11.71h0A18.5,18.5,0,0,0,268,197.06h-.13q-.5,0-1,0l-.38,0-.73.07-.35.05c-.25,0-.5.07-.74.12l-.33.07-.75.16-.23.06a18.3,18.3,0,0,0-3.87,1.48V184.56h13a31,31,0,0,1,28.15,44H290.5a5,5,0,0,0,0,10h20a3,3,0,0,0,3-3v-20a41,41,0,0,0-40.5-41Zm-5,49.5a8.35,8.35,0,0,1-3.23-.64l0,0-.6-.28a8.42,8.42,0,0,1-4.63-7.56h0a8.59,8.59,0,0,1,.08-1,5.21,5.21,0,0,1,.08-.55h0a9.22,9.22,0,0,1,.39-1.39,5.48,5.48,0,0,1,.23-.56c.06-.14.12-.28.19-.41.18-.33.36-.65.57-1s.38-.48.58-.71a1.54,1.54,0,0,1,.17-.19c.17-.18.34-.35.53-.52l.14-.12a7.36,7.36,0,0,1,.7-.55l.19-.12c.2-.13.4-.25.61-.36l.21-.12c.27-.13.54-.25.82-.36l.1,0a6.86,6.86,0,0,1,.77-.24l.24-.06a6.53,6.53,0,0,1,.77-.14l.13,0a7,7,0,0,1,.91-.06h.29l.5,0,.34,0c.15,0,.3,0,.44.06l.37.08.41.1.36.1.54.2.17.07c.13,0,.25.12.38.18l.51.27c.16.09.32.18.47.28l.33.24a8.55,8.55,0,0,1,.74.61l.34.33a3.8,3.8,0,0,1,.33.37,5.43,5.43,0,0,1,.42.53c.06.08.13.16.18.24a7.48,7.48,0,0,1,.51.86l.12.25a6.56,6.56,0,0,1,.32.77l.09.23a8.68,8.68,0,0,1,.27,1l0,.22a8,8,0,0,1,.1.84c0,.14,0,.28,0,.41v.29a7.68,7.68,0,0,1-.09,1.17l0,.17a8.25,8.25,0,0,1-.29,1.19,8.46,8.46,0,0,1-8.08,5.87Z"/></g></svg>