<?xml version="1.0" encoding="UTF-8" standalone="no"?>
<!-- Created with Inkscape (http://www.inkscape.org/) -->
<svg
   xmlns:dc="http://purl.org/dc/elements/1.1/"
   xmlns:cc="http://web.resource.org/cc/"
   xmlns:rdf="http://www.w3.org/1999/02/22-rdf-syntax-ns#"
   xmlns:svg="http://www.w3.org/2000/svg"
   xmlns="http://www.w3.org/2000/svg"
   xmlns:sodipodi="http://sodipodi.sourceforge.net/DTD/sodipodi-0.dtd"
   xmlns:inkscape="http://www.inkscape.org/namespaces/inkscape"
   width="400"
   height="300"
   id="svg4578"
   sodipodi:version="0.32"
   inkscape:version="0.45+devel"
   version="1.0"
   sodipodi:docname="official-logo-monochrome.svg"
   inkscape:output_extension="org.inkscape.output.svg.inkscape">
  <defs
     id="defs4580" />
  <sodipodi:namedview
     id="base"
     pagecolor="#ffffff"
     bordercolor="#d6d6d6"
     borderopacity="1"
     gridtolerance="10000"
     guidetolerance="10"
     objecttolerance="10"
     inkscape:pageopacity="0.0"
     inkscape:pageshadow="2"
     inkscape:zoom="1"
     inkscape:cx="169.28571"
     inkscape:cy="91.428571"
     inkscape:document-units="px"
     inkscape:current-layer="layer1"
     width="400px"
     height="300px"
     borderlayer="true"
     inkscape:showpageshadow="false"
     inkscape:window-width="774"
     inkscape:window-height="738"
     inkscape:window-x="458"
     inkscape:window-y="276" />
  <metadata
     id="metadata4583">
    <rdf:RDF>
      <cc:Work
         rdf:about="">
        <dc:format>image/svg+xml</dc:format>
        <dc:type
           rdf:resource="http://purl.org/dc/dcmitype/StillImage" />
        <dc:title>openSUSE official logo</dc:title>
      </cc:Work>
    </rdf:RDF>
  </metadata>
  <g
     inkscape:label="Layer 1"
     inkscape:groupmode="layer"
     id="layer1">
    <path
       id="path1977"
       d="M 290.12328,115.07966 C 284.66264,114.87914 280.37624,110.27594 280.55862,104.80748 C 280.64272,102.15994 281.77445,99.71278 283.69767,97.90599 C 285.62868,96.09972 288.1508,95.15951 290.79835,95.25911 C 296.2668,95.45048 300.55439,100.04601 300.37069,105.52281 C 300.28792,108.16201 299.17168,110.60903 297.24065,112.42364 C 295.30063,114.22209 292.7785,115.16244 290.12314,115.07966 L 290.12328,115.07966 z M 292.42158,106.09708 C 294.8519,106.09708 296.82425,104.78232 296.82425,103.16757 C 296.82425,101.54434 294.85178,100.22891 292.42158,100.22891 C 289.99004,100.22891 288.02538,101.54434 288.02538,103.16757 C 288.02538,104.78232 289.99004,106.09708 292.42158,106.09708"
       style="fill:#000000;fill-opacity:1;fill-rule:nonzero;stroke:none;stroke-miterlimit:4" />
    <path
       id="path1979"
       d="M 177.77915,172.0346 L 178.13058,172.00161 L 178.18762,171.58547 C 178.09759,171.25873 177.88569,170.96511 177.55829,166.91462 C 177.28039,163.32977 176.71706,153.49891 181.66517,148.62383 C 183.58472,146.72128 186.51558,145.03078 188.82722,144.48395 C 198.30728,142.17295 210.61282,143.77342 221.12173,155.92424 C 226.54429,162.20323 229.2062,165.06938 230.53709,166.35142 L 230.99389,166.77586 L 231.54955,167.17615 C 231.98218,167.42104 249.6113,175.53774 249.6113,175.53774 L 249.9704,175.44771 L 249.97923,175.06458 C 249.86504,174.93388 238.80918,160.65161 240.76823,148.88535 C 242.31985,139.51129 249.78267,140.35239 260.0963,141.5279 C 263.4686,141.91168 267.30655,142.35263 271.27519,142.44266 C 282.35509,142.50801 294.29402,140.47491 301.65147,137.25733 C 306.41183,135.17537 309.44922,133.80316 311.35227,132.07199 C 312.03733,131.50866 312.39643,130.57806 312.76435,129.59794 L 313.01809,128.93691 C 313.32768,128.14454 313.77682,126.44636 313.97352,125.52342 C 314.06354,125.11547 314.1042,124.67401 313.81748,124.45392 L 312.79735,124.64166 C 309.57224,126.57706 301.49543,130.26793 293.93492,130.41501 C 284.56904,130.6104 265.69023,120.99145 263.72234,119.97068 L 263.5346,119.75059 C 263.06015,118.62329 260.227,111.91932 259.63068,110.50723 C 273.21892,119.45632 284.48654,124.40508 293.11785,125.17263 C 302.72095,126.02971 310.2091,120.78786 313.41005,118.54974 C 314.03808,118.1253 314.51254,117.78219 314.70794,117.70917 L 314.91217,117.37424 C 314.38055,114.00193 309.3589,97.6707 305.57048,93.75091 C 304.51747,92.6731 303.67625,91.62829 301.97743,90.63168 C 288.25095,82.629702 255.66203,77.79515 254.13573,77.575063 L 253.87434,77.648595 L 253.77664,77.876994 C 253.77664,77.876994 253.65362,84.638117 253.6371,85.389829 C 250.30533,84.27902 226.11179,76.464255 203.4266,75.67253 C 184.19767,74.994872 157.92842,74.080112 120.80753,96.89469 L 119.71322,97.5804 C 102.25533,108.47322 90.202861,121.89777 83.899183,137.51027 C 81.923113,142.41771 79.261329,153.49891 81.890113,163.92609 C 83.033272,168.49106 85.148226,173.06357 88.006707,177.1629 C 94.449398,186.42224 105.26855,192.57184 116.92074,193.60833 C 133.36616,195.07758 145.8271,187.68843 150.26072,173.85529 C 153.30628,164.30988 150.26072,150.30615 138.58384,143.16124 C 129.08727,137.33904 118.86381,138.66994 112.94378,142.58142 C 107.79963,145.99439 104.88477,151.28561 104.9418,157.10793 C 105.056,167.42092 113.94858,172.90818 120.33423,172.91649 C 122.19545,172.91649 124.05732,172.59806 126.16409,171.91235 C 126.90762,171.6833 127.6175,171.40618 128.39325,170.92405 L 128.63048,170.76932 L 128.78521,170.67929 L 128.72818,170.70397 C 130.18977,169.72386 131.07153,168.10753 131.07153,166.37623 C 131.07153,165.90242 130.998,165.42081 130.8673,164.93881 C 130.11623,162.33407 127.53552,160.75008 124.85724,161.23975 L 124.49814,161.31328 L 124.00834,161.47633 L 123.29782,161.71356 C 121.82804,162.08085 120.71723,162.10567 120.48884,162.1132 C 119.73777,162.06435 116.05456,160.96251 116.05456,156.92851 L 116.05456,156.87967 C 116.0634,155.40157 116.65908,154.36443 116.98582,153.8011 C 118.12067,152.00458 121.2564,150.24105 125.49397,150.61652 C 131.04723,151.08981 135.04822,153.93999 137.70182,159.31305 C 140.16821,164.31 139.52316,170.45076 136.04419,174.95792 C 132.59002,179.42519 126.44173,181.31941 118.25955,180.42868 C 110.01215,179.52275 103.03913,174.77836 99.135843,167.38857 C 95.314401,160.17 95.101853,151.60417 98.589013,145.02325 C 106.94243,129.26353 122.70967,129.42658 131.35748,130.92117 C 144.16101,133.13383 155.78072,143.38145 160.94956,157.01037 C 161.77428,159.18248 162.1986,160.90534 162.56588,162.47295 L 163.12154,164.8328 L 177.58207,171.89585 L 177.77876,172.03473 L 177.77915,172.0346 z M 280.56753,95.11467 C 277.84104,97.64575 276.28045,101.09992 276.14975,104.82366 C 275.89733,112.4989 281.92375,118.96627 289.59847,119.25248 C 293.33872,119.37486 296.88225,118.05982 299.6012,115.51224 C 302.32015,112.97283 303.88062,109.52699 304.01897,105.81143 C 304.28037,98.12789 298.25382,91.65233 290.56273,91.37507 C 286.83899,91.2527 283.28648,92.56709 280.56753,95.11467"
       style="fill:#000000;fill-opacity:1;fill-rule:evenodd;stroke:none;stroke-miterlimit:4" />
    <path
       style="fill:#000000;fill-opacity:1;stroke:none"
       d="M 320.78054,191.07184 L 320.61902,191.07184 C 320.43232,191.07184 320.27048,190.90999 320.27048,190.7233 L 320.27048,188.22198 L 319.7228,189.05574 C 319.66067,189.14271 319.54852,189.18 319.44912,189.18 L 319.38667,189.18 C 319.28727,189.18 319.17513,189.14271 319.113,189.05574 L 318.5529,188.22198 L 318.5529,190.7233 C 318.5529,190.90999 318.39105,191.07184 318.19193,191.07184 L 318.03039,191.07184 C 317.8437,191.07184 317.68185,190.90999 317.68185,190.7233 L 317.68185,187.73643 L 316.00155,187.73643 L 316.00155,190.7233 C 316.00155,190.90999 315.82728,191.07184 315.62848,191.07184 L 315.47905,191.07184 C 315.29235,191.07184 315.1305,190.90999 315.1305,190.7233 L 315.1305,187.73643 L 313.87363,187.73643 C 313.68694,187.73643 313.53752,187.61185 313.53752,187.41304 L 313.53752,187.23878 C 313.53752,187.03965 313.68694,186.91508 313.87363,186.91508 L 318.27922,186.91508 C 318.4535,186.91508 318.56533,186.9772 318.62778,187.07693 L 319.46154,188.3338 L 320.29532,187.07693 C 320.35745,186.98963 320.45717,186.91508 320.64387,186.91508 L 321.20397,186.91508 L 321.20397,190.74815 C 321.20397,190.93484 321.02969,191.09669 320.83057,191.09669"
       id="path2095" />
    <path
       style="fill:#000000;fill-opacity:1;stroke:none"
       d="M 176.72658,185.83248 C 170.70314,185.83248 167.36773,190.93484 167.36773,194.46938 L 167.36773,198.99955 C 167.36773,204.18921 171.61147,207.41248 175.55668,207.41248 L 189.37083,207.41248 C 191.10082,207.41248 191.46179,208.54478 191.46179,209.50311 L 191.46179,212.42785 C 191.46179,212.73881 191.41209,215.55173 189.37083,215.55173 L 170.51645,215.55173 C 168.64945,215.55173 167.29318,216.84588 167.29318,218.62556 L 167.29318,219.4345 C 167.29318,221.20176 168.63703,222.50866 170.51645,222.50866 L 190.40404,222.50866 C 195.5937,222.50866 198.95397,218.89925 198.95397,213.29891 L 198.95397,208.40809 C 198.95397,203.15599 195.1706,200.80409 191.42452,200.80409 L 177.83435,200.80409 C 175.78066,200.80409 174.85991,199.28564 174.85991,198.19061 L 174.85991,195.50228 C 174.85991,193.79746 175.99221,192.82669 177.98345,192.82669 L 193.04235,192.82669 C 194.88419,192.82669 196.26563,191.50738 196.26563,189.75253 L 196.26563,188.9436 C 196.26563,187.20119 194.85933,185.86975 192.98024,185.86975 L 176.75143,185.86975"
       id="path2097" />
    <path
       style="fill:#000000;fill-opacity:1;stroke:none"
       d="M 233.2655,185.83248 C 231.4858,185.83248 230.04224,187.27605 230.04224,189.05574 L 230.04224,212.20389 C 230.04224,214.0457 228.53623,215.5393 226.70682,215.5393 L 216.20293,215.5393 C 214.3611,215.5393 212.8675,214.0457 212.8675,212.20389 L 212.8675,189.05574 C 212.8675,187.27605 211.43637,185.83248 209.64424,185.83248 L 208.62377,185.83248 C 206.83165,185.83248 205.4005,187.2512 205.4005,189.05574 L 205.4005,213.08736 C 205.4005,218.67528 209.79367,222.73263 215.85438,222.73263 L 227.08022,222.73263 C 233.14093,222.73263 237.53409,218.67528 237.53409,213.08736 L 237.53409,189.05574 C 237.53409,187.2512 236.11538,185.83248 234.31083,185.83248 L 233.29035,185.83248"
       id="path2099" />
    <path
       style="fill:#000000;fill-opacity:1;stroke:none"
       d="M 253.38949,185.83248 C 247.36607,185.83248 244.03065,190.93484 244.03065,194.46938 L 244.03065,198.99955 C 244.03065,204.18921 248.28682,207.41248 252.2196,207.41248 L 266.03374,207.41248 C 267.76374,207.41248 268.13714,208.54478 268.13714,209.50311 L 268.13714,212.42785 C 268.13714,212.73881 268.075,215.55173 266.03374,215.55173 L 247.17937,215.55173 C 245.31238,215.55173 243.9561,216.84588 243.9561,218.62556 L 243.9561,219.4345 C 243.9561,221.20176 245.31238,222.50866 247.17937,222.50866 L 267.05453,222.50866 C 272.25662,222.50866 275.60414,218.89925 275.60414,213.29891 L 275.60414,208.40809 C 275.60414,203.15599 271.83353,200.80409 268.075,200.80409 L 254.48452,200.80409 C 252.43115,200.80409 251.5104,199.28564 251.5104,198.19061 L 251.5104,195.50228 C 251.5104,193.79746 252.6427,192.82669 254.62152,192.82669 L 269.68043,192.82669 C 271.50983,192.82669 272.9037,191.50738 272.9037,189.75253 L 272.9037,188.9436 C 272.9037,187.20119 271.4974,185.86975 269.60557,185.86975 L 253.38949,185.86975"
       id="path2101" />
    <path
       style="fill:#000000;fill-opacity:1;stroke:none"
       d="M 285.16212,185.83248 C 283.38274,185.83248 282.01372,187.15148 282.01372,188.90631 L 282.01372,219.4345 C 282.01372,221.17691 283.33272,222.50866 285.09999,222.50866 L 309.43045,222.50866 C 311.29744,222.50866 312.65404,221.21419 312.65404,219.4345 L 312.65404,218.62556 C 312.65404,216.8583 311.30987,215.55173 309.43045,215.55173 C 309.43045,215.55173 290.4018,215.55173 289.50558,215.55173 C 289.50558,214.75523 289.50558,208.56994 289.50558,207.77344 C 290.4018,207.77344 304.10412,207.77344 304.10412,207.77344 C 305.97079,207.77344 307.32738,206.47898 307.32738,204.68685 L 307.32738,203.89036 C 307.32738,202.11066 305.97079,200.80409 304.10412,200.80409 C 304.10412,200.80409 290.4018,200.80409 289.50558,200.80409 C 289.50558,200.0076 289.50558,193.61075 289.50558,192.81426 C 290.4018,192.81426 308.4224,192.81426 308.4224,192.81426 C 310.2894,192.81426 311.64599,191.5198 311.64599,189.7401 L 311.64599,188.93118 C 311.64599,187.15148 310.2894,185.85734 308.4224,185.85734 L 285.17487,185.85734"
       id="path2103" />
    <path
       style="fill:#000000;fill-opacity:1;stroke:none"
       d="M 78.309297,200.35583 C 75.272646,200.35583 72.796034,202.72046 72.796034,205.6452 L 72.796034,217.15715 C 72.796034,220.11916 75.185528,222.53351 78.122631,222.53351 L 85.564883,222.53351 C 88.501986,222.53351 90.903903,220.11916 90.903903,217.15715 L 90.903903,205.6452 C 90.903903,202.73289 88.427304,200.35583 85.390642,200.35583 L 78.309297,200.35583 z M 76.703844,216.70888 L 76.703844,206.2053 C 76.703844,204.97296 77.711924,203.96491 78.944011,203.96491 L 84.743503,203.96491 C 85.950707,203.96491 86.983637,204.9857 86.983637,206.2053 L 86.983637,216.70888 C 86.983637,217.94123 85.975589,218.94926 84.743503,218.94926 L 78.894213,218.94926 C 77.662127,218.94926 76.703844,217.96608 76.703844,216.70888"
       id="path2105" />
    <path
       style="fill:#000000;fill-opacity:1;stroke:none"
       d="M 107.77981,200.21914 C 105.62672,200.21914 104.02124,200.99079 102.71447,201.61301 C 101.93043,201.9861 101.24595,202.30979 100.7108,202.30979 C 100.48679,202.30979 100.27521,202.21039 100.16319,202.03611 L 99.677837,201.09019 C 99.565818,200.84136 99.068007,200.35583 98.445751,200.35583 L 97.723933,200.35583 C 97.026997,200.35583 96.454506,200.97836 96.454506,201.76211 L 96.454506,230.94644 C 96.454506,231.85476 97.163899,232.57671 98.084842,232.57671 L 98.719554,232.57671 C 99.615614,232.57671 100.34989,231.84234 100.34989,230.94644 L 100.34989,221.26389 C 100.34989,220.97779 100.53656,220.67894 100.7108,220.67894 C 101.24595,220.67894 101.93043,220.97779 102.72693,221.35119 C 104.02124,221.93613 105.63915,222.68261 107.79224,222.68261 L 108.46416,222.68261 C 112.25995,222.68261 114.6246,220.51741 114.6246,217.03258 L 114.6246,205.89403 C 114.6246,202.45921 112.21025,200.23156 108.46416,200.23156 L 107.77981,200.23156 L 107.77981,200.23156 L 107.77981,200.21914 z M 100.33743,216.4849 L 100.33743,206.4417 C 100.33743,205.06026 101.42019,203.97734 102.80161,203.97734 L 108.22776,203.97734 C 109.60921,203.97734 110.69181,205.06026 110.69181,206.4417 L 110.69181,216.4849 C 110.69181,217.84149 109.59678,218.94926 108.22776,218.94926 L 102.80161,218.94926 C 101.44507,218.94926 100.33743,217.84149 100.33743,216.4849"
       id="path2107" />
    <path
       style="fill:#000000;fill-opacity:1;stroke:none"
       d="M 125.651,200.35583 C 122.61443,200.35583 120.13796,202.72046 120.13796,205.6452 L 120.13796,217.06985 C 120.13796,220.03186 122.53987,222.54593 125.37732,222.54593 L 133.05619,222.54593 C 134.0018,222.54593 134.68647,221.89854 134.68647,221.00264 L 134.68647,220.50466 C 134.68647,219.60876 134.0018,218.9617 133.05619,218.9617 L 126.75876,218.9617 C 124.99149,218.9617 124.058,218.10275 124.058,216.44763 C 124.058,216.44763 124.058,213.5729 124.058,213.11221 C 124.5684,213.11221 135.43326,213.11221 135.43326,213.11221 C 137.25023,213.11221 138.34526,211.99234 138.34526,210.1005 L 138.34526,205.67006 C 138.34526,202.75774 135.86879,200.38099 132.83222,200.38099 L 125.66374,200.38099 L 125.651,200.35583 z M 124.04557,206.15529 C 124.04557,204.93568 125.00392,203.96491 126.23594,203.96491 L 132.2221,203.96491 C 133.45444,203.96491 134.41247,204.92325 134.41247,206.15529 C 134.41247,206.15529 134.41247,209.25429 134.41247,209.71468 C 133.92725,209.71468 124.53112,209.71468 124.04557,209.71468 C 124.04557,209.25429 124.04557,206.15529 124.04557,206.15529"
       id="path2109" />
    <path
       style="fill:#000000;fill-opacity:1;stroke:none"
       d="M 154.17581,200.21914 C 152.03515,200.21914 150.4173,200.97836 149.12283,201.60059 C 148.31391,201.97368 147.61713,202.30979 147.05703,202.30979 C 146.80821,202.30979 146.70849,202.28494 146.52179,201.94881 L 146.07384,201.12746 C 145.82501,200.61739 145.38949,200.35583 144.79211,200.35583 L 144.15714,200.35583 C 143.39824,200.35583 142.85057,200.94076 142.85057,201.76211 L 142.85057,220.90291 C 142.85057,221.81156 143.5722,222.54593 144.48084,222.54593 L 145.11549,222.54593 C 146.01171,222.54593 146.74576,221.81156 146.74576,220.90291 L 146.74576,206.41685 C 146.74576,205.06026 147.85353,203.95249 149.21013,203.95249 L 154.63619,203.95249 C 155.99278,203.95249 157.10024,205.06026 157.10024,206.41685 L 157.10024,220.90291 C 157.10024,221.81156 157.82218,222.54593 158.73083,222.54593 L 159.36548,222.54593 C 160.26138,222.54593 160.99575,221.81156 160.99575,220.90291 L 160.99575,205.8816 C 160.99575,202.44679 158.5814,200.21914 154.83531,200.21914 L 154.15096,200.21914"
       id="path2111" />
  </g>
</svg>
