<?xml version="1.0" encoding="UTF-8"?>
<svg enable-background="new 0 0 841.89 595.28" version="1.1" viewBox="0 0 841.89 595.28" xmlns="http://www.w3.org/2000/svg">
 <g id="Dark_Green_Hex">
  <polygon points="141.05 435.64 87.642 343.13 141.05 250.62 247.88 250.62 301.29 343.13 247.88 435.64" fill="#6CA743"/>
 </g>
 <g id="Blue_Hex">
  <polygon points="142.05 237.64 88.642 145.13 142.05 52.623 248.88 52.623 302.29 145.13 248.88 237.64" fill="#35B8AA"/>
 </g>
 <g id="Green_Hex">
  <polyline points="288.15 194.29 311.05 154.62 417.88 154.62 471.29 247.13 417.88 339.64 311.05 339.64 257.64 247.13 288.15 194.29" fill="#72BA44"/>
 </g>
 <text x="125.11379" y="388.75919" fill="#ffffff" font-family="OpenSans-Bold" font-size="118.49px" stroke-width=".88425">18</text>
 <g id="openSUSE">
  <g fill="#72BA44">
   <path d="m500.14 344.21c-11.702 0-18.139 9.894-18.139 16.733v8.781c0 10.072 8.229 16.313 15.858 16.313h26.791c3.376 0 4.083 2.208 4.083 4.073v5.666c0 .603-.121 6.045-4.083 6.045h-36.538c-3.631 0-6.255 2.526-6.255 5.981v1.566c0 3.446 2.624 5.956 6.255 5.956h38.524c10.071 0 16.568-7.007 16.568-17.86v-9.475c0-10.191-7.321-14.748-14.593-14.748h-26.362c-3.967 0-5.767-2.977-5.767-5.08v-5.23c0-3.295 2.203-5.204 6.053-5.204h29.18c3.577 0 6.27-2.57 6.27-5.969v-1.564c0-3.411-2.736-5.985-6.392-5.985h-31.453z"/>
   <path d="m609.69 344.21c-3.463 0-6.247 2.811-6.247 6.27v44.862c0 3.594-2.935 6.48-6.481 6.48h-20.366c-3.561 0-6.48-2.887-6.48-6.48v-44.862c0-3.459-2.809-6.27-6.266-6.27h-1.971c-3.508 0-6.268 2.767-6.268 6.27v46.561c0 10.839 8.525 18.702 20.277 18.702h21.776c11.737 0 20.258-7.861 20.258-18.702v-46.561c0-3.503-2.746-6.27-6.251-6.27h-1.981z"/>
   <path d="m648.68 344.21c-11.695 0-18.148 9.894-18.148 16.733v8.781c0 10.072 8.245 16.313 15.879 16.313h26.781c3.381 0 4.091 2.208 4.091 4.073v5.666c0 .603-.122 6.045-4.091 6.045h-36.554c-3.613 0-6.254 2.526-6.254 5.981v1.566c0 3.446 2.641 5.956 6.254 5.956h38.539c10.072 0 16.599-7.007 16.599-17.86v-9.475c0-10.191-7.344-14.748-14.615-14.748h-26.359c-3.981 0-5.771-2.977-5.771-5.08v-5.23c0-3.295 2.202-5.204 6.049-5.204h29.197c3.569 0 6.253-2.57 6.253-5.969v-1.564c0-3.411-2.734-5.985-6.406-5.985h-31.444z"/>
   <path d="m710.26 344.21c-3.469 0-6.096 2.574-6.096 5.985v59.174c0 3.396 2.564 5.954 5.961 5.954h47.152c3.633 0 6.259-2.51 6.259-5.954v-1.566c0-3.456-2.626-5.983-6.259-5.983h-38.618v-15.065h28.302c3.621 0 6.252-2.542 6.252-5.984v-1.563c0-3.459-2.631-5.971-6.252-5.971h-28.302v-15.514h36.657c3.621 0 6.256-2.494 6.256-5.971v-1.563c0-3.46-2.635-5.984-6.256-5.984h-45.057v.005z"/>
   <path d="m309.43 372.36c-5.909 0-10.718 4.597-10.718 10.267v22.311c0 5.759 4.653 10.449 10.36 10.449h14.431c5.707 0 10.36-4.69 10.36-10.449v-22.311c0-5.666-4.812-10.267-10.719-10.267h-13.714zm-3.121 31.693v-20.375c0-2.388 1.962-4.34 4.36-4.34h11.245c2.346 0 4.346 1.996 4.346 4.34v20.375c0 2.402-1.948 4.358-4.346 4.358h-11.329c-2.404 0-4.276-1.913-4.276-4.358"/>
   <path d="m366.53 372.1c-4.161 0-7.297 1.486-9.815 2.704-1.536.736-2.863 1.372-3.894 1.372-.466 0-.866-.211-1.077-.558l-.96-1.834c-.239-.482-1.201-1.428-2.391-1.428h-1.427c-1.371 0-2.468 1.231-2.468 2.735v56.589c0 1.776 1.4 3.173 3.173 3.173h1.233c1.759 0 3.189-1.415 3.189-3.173v-18.776c0-.558.359-1.158.728-1.158 1.031 0 2.358.604 3.894 1.308 2.518 1.158 5.655 2.584 9.815 2.584h1.333c7.367 0 11.951-4.211 11.951-10.974v-21.602c0-6.661-4.681-10.961-11.951-10.961h-1.333v-.001zm-14.436 31.515v-19.487c0-2.692 2.104-4.794 4.793-4.794h10.539c2.694 0 4.794 2.104 4.794 4.794v19.487c0 2.645-2.156 4.792-4.794 4.792h-10.539c-2.639 0-4.793-2.147-4.793-4.792z"/>
   <path d="m401.17 372.36c-5.909 0-10.705 4.599-10.705 10.267v22.145c0 5.745 4.661 10.615 10.162 10.615h14.891c1.841 0 3.173-1.274 3.173-3.009v-.975c0-1.744-1.332-2.994-3.173-2.994h-12.233c-3.428 0-5.235-1.683-5.235-4.889v-6.479h22.066c3.55 0 5.649-2.166 5.649-5.832v-8.586c0-5.669-4.805-10.27-10.69-10.27h-13.904v.007zm-3.119 11.247c0-2.392 1.88-4.27 4.274-4.27h11.593c2.389 0 4.252 1.878 4.252 4.27v6.914h-20.121c.002-.903.002-6.914.002-6.914z"/>
   <path d="m456.42 372.1c-4.147 0-7.277 1.486-9.803 2.69-1.572.739-2.915 1.386-4.012 1.386-.48 0-.678-.062-1.052-.71l-.873-1.594c-.5-1.008-1.352-1.514-2.501-1.514h-1.228c-1.481 0-2.562 1.154-2.562 2.733v37.118c0 1.758 1.39 3.173 3.18 3.173h1.226c1.759 0 3.193-1.43 3.193-3.173v-28.082c0-2.63 2.15-4.794 4.782-4.794h10.543c2.641 0 4.79 2.164 4.79 4.794v28.082c0 1.758 1.397 3.173 3.17 3.173h1.24c1.759 0 3.188-1.43 3.188-3.173v-29.149c0-6.661-4.683-10.961-11.956-10.961h-1.325z"/>
   <path d="m774.05 400.99c3.211 0 5.771 2.612 5.771 5.88 0 3.314-2.562 5.897-5.799 5.897-3.211 0-5.819-2.583-5.819-5.897 0-3.266 2.608-5.88 5.819-5.88h.028zm-.028.913c-2.583 0-4.697 2.222-4.697 4.963 0 2.796 2.114 4.987 4.725 4.987 2.611.028 4.701-2.191 4.701-4.962 0-2.767-2.09-4.988-4.701-4.988h-.028zm-1.096 8.384h-1.044v-6.552c.551-.08 1.071-.158 1.856-.158.992 0 1.643.205 2.032.495.394.284.605.727.605 1.358 0 .86-.576 1.379-1.277 1.592v.055c.575.103.964.625 1.097 1.592.154 1.021.31 1.412.417 1.619h-1.097c-.16-.207-.316-.809-.446-1.67-.156-.834-.573-1.149-1.407-1.149h-.732v2.818h-.004zm0-3.632h.758c.863 0 1.594-.312 1.594-1.122 0-.576-.419-1.151-1.594-1.151-.341 0-.574.025-.758.057v2.216z"/>
  </g>
  <rect x="242.67" y="58.614" width="584" height="425.24" fill="none"/>
 </g>
 <g id="Conference">
  <text transform="translate(292 484.33)" fill="#72BA44" font-family="'OpenSans'" font-size="65">Conference</text>
 </g>
 <g id="Prague">
  <text transform="translate(295.33 518.33)" fill="#72BA44" font-family="'OpenSans'" font-size="28">Prague, Czech Republic</text>
 </g>
 <g id="Bridge_Shadow">
  <path d="m251.21 233.76l-2.221 3.853-.036.062-77.305-.008s-2.843-12.466-2.997-13.078h9.398c-.154.612-.237 1.254-.237 1.918 0 4.147 3.216 7.51 7.183 7.51s7.182-3.362 7.182-7.51c0-.664-.083-1.306-.237-1.918h8.408c-.154.612-.237 1.254-.237 1.918 0 4.147 3.216 7.51 7.183 7.51s7.183-3.362 7.183-7.51c0-.664-.083-1.306-.237-1.918h9.398c-.154.612-.237 1.254-.237 1.918 0 4.147 3.216 7.51 7.183 7.51s7.183-3.362 7.183-7.51c0-.664-.083-1.306-.238-1.918h8.855c-.155.612-.134 1.263-.238 1.918-.679 4.274 1.494 6.077 5.064 7.253 0-.663.154.613 0 0z" fill="#6CA743"/>
 </g>
 <g id="Building_Showdow">
  <rect x="170.5" y="212" width="89.154" height="6.945" fill="#72BA44"/>
 </g>
 <g id="Building">
  <g fill="#72BA44">
   <polygon points="167.61 205.25 167.61 194.88 166.15 194.15 183.96 175.46 184.84 160.72 184.84 175.46 203.67 194.44 202.5 195.32 202.65 212.11 167.47 211.08"/>
   <path d="m240.85 186.19h-1.321l.66-2.31h-1.815l5.447-4.292s-1.98-1.651-1.65-3.466 5.281-3.631 5.281-3.631l.991-2.311-1.155-1.32 1.155-.826v-5.941l-1.815-2.476 1.815-1.321s-.991-1.155 0-2.641c.99-1.485 2.476-2.64 2.476-2.64l-.99-2.312 1.485-10.838v-10.289h.495v10.398l.22 4.126.991 6.933-.605 2.2s2.916 2.147 2.586 3.742-.66 1.54-.66 1.54l2.091 1.321-1.431 2.09v5.942l1.045.991-1.266 1.209 1.211 2.366s4.787 1.211 4.731 3.852c-.055 2.641-2.201 3.081-2.201 3.081l5.666 4.182-1.98.384.771 2.367h-1.156l.551 14.964 2.421 2.751-.007 5.913-.87 1.472-23.276.427.109-25.637z"/>
   <path d="m258.18 212.11v-7.104s.706-.282.329-.8c-.376-.517-6.963-6.069-6.963-6.069s-.282-.612-.753 0c-.47.611-6.445 5.881-6.445 5.881l-2.212-2.07v-6.022h.8v-1.082s.376.094.399-.283c.024-.376-.446-.164-.446-.164l-.047-.8h.283s.047-.588-.611-.635c-.659-.046-.941 0-.941 0l-.847-2.258s.518-.353.376-.964c-.141-.612-.965-.494-.965-.494l-20.725-.047v-3.717h.282v-.423s.353.094.353-.4-.447-.376-.447-.376l-.918-.012v-3.917s.33.07.4-.399c.07-.471-.518-.424-.518-.424v-1.247h.471v-.329h-.471v-2h.259s.07-2.211-2.376-2.399v-.612h.235l.024-.447h-.259v-.423l-.94-.612v-2.588h-.283v2.611l-1.035.659v.33l-.235.023v.376h.329v.612s-2.423.142-2.375 2.799c0 0-.047.4.094.4v1.2l-.4.023v.447l.4.023v1.129s-.377-.047-.4.448c-.023.494.353.352.353.352l-.024 3.953-.965.023s-.376.071-.353.447c.024.377.4.306.4.306l.047.4.212.047-.023 2.141-.306.635.33.023v3.247l-2.447-.047v-1.247l-.799-.07v1.412l-2.353-.047-3.082 3.505-3.835.024-5.787 5.905s-.188.376 0 .635.518.024.518.024l.258.282.353-.023-.141 10.233h64.222z"/>
  </g>
  <path d="m171.12 188.94l-.142-7.18 3.098.14v-8.166l-6.054-.282-.141-26.328 4.083-3.238-5.632-3.379s1.549-.281 1.69-5.914c.141-5.631-8.447-9.574-8.447-9.574l1.408-1.831-9.152-6.757 1.267-2.112s-2.815-1.408-3.942-2.534 1.126-3.237 1.126-3.237c-2.534-2.394 0-6.617 0-6.617l-.181-1.672c1.126-.743 1.871-2.018 1.871-3.468 0-1.769-1.108-3.275-2.666-3.874l-.779-7.193 1.521.338c.231.394.656.662 1.146.662.737 0 1.335-.597 1.335-1.334s-.598-1.335-1.335-1.335c-.561 0-1.04.348-1.236.838h-1.521l-.549-5.068v5.068h-3.097l3.097.688v7.059c-.023-.001-.046-.004-.069-.004-2.294 0-4.154 1.86-4.154 4.153 0 2.294 1.859 4.153 4.154 4.153.023 0 .046-.003.069-.003v.708s-2.111-.141-2.394 2.957c-.281 3.097 1.549 6.195 1.549 6.195l-4.505 4.083 1.971 1.689-9.433 6.617 1.408 1.831s-7.744 5.631-8.447 9.433c-.704 3.801 1.408 5.914 1.408 5.914l-4.927 3.378 4.223 3.239v26.469h-6.828v8.166h3.45v7.603s-.704.422-2.394 1.268c-1.69.845-.845 3.379-.845 3.379h3.239v14.995s11.431 19.807 11.431 19.807l5.167 9.083 29.626.063-.196-26.598-.129-17.631 3.66-.282c.14-3.239-3.802-4.365-3.802-4.365z" fill="#fff"/>
  <path d="m263.4 212.05" fill="#72BA44"/>
 </g>
 <g id="Bridge">
  <path d="m264.19 211.18l-7.918-.11v-.612l-1.265-7.59-1.388 7.713v.693h-20.08v-.693l-1.428-8.162-1.224 8.162v.816l-21.631-.205v-.693l-1.306-7.632-1.428 7.713v.816l-7.021-.062v-.061l-3.407.03-3.407-.03v.061l-7.021.062v-.816l-1.429-7.713-1.306 7.632v.693l-11.515.044s-.003 12.692-.131 13.252c-.013.058 6.714.09 6.714.09-.154-.612-.237-1.254-.237-1.918 0-4.147 3.216-7.509 7.183-7.509s7.182 3.362 7.182 7.509c0 .664-.083 1.306-.237 1.918h8.408c-.154-.612-.237-1.254-.237-1.918 0-4.147 3.216-7.509 7.183-7.509s7.183 3.362 7.183 7.509c0 .664-.083 1.306-.237 1.918h9.398c-.154-.612-.237-1.254-.237-1.918 0-4.147 3.216-7.509 7.183-7.509s7.183 3.362 7.183 7.509c0 .664-.083 1.306-.238 1.918h8.855c-.155-.612-.238-1.254-.238-1.918 0-4.147 3.216-7.509 7.183-7.509 2.662 0 5.13 1.543 6.371 3.792.124.225 4.54-7.763 4.54-7.763z" fill="#fff"/>
  <line x1="251.1" x2="251.13" y1="233.56" y2="233.73" fill="#6CA743"/>
 </g>
 <path id="Geeko" d="m323.57 187.83c-.09067.00876-.20353.03973-.29688.13086-.14495.14157-.17383.41601-.17383.41601s-.22001 11.866-.2539 13.193c-3.0512-1.025-16.126-5.2509-33.555-9.2578l-1.1406 1.9746-30.51 52.848 42.26 73.195c-.13577-2.4192-.05094-4.826.3418-7.1738 2.7242-16.472 15.833-14.979 33.967-12.932 5.9189.69135 12.658 1.4658 19.635 1.6211 19.48.12387 40.462-3.4739 53.395-9.1309 8.3665-3.6362 13.705-6.0577 17.051-9.0996 1.2032-.99701 1.8265-2.6138 2.4766-4.3555l.45703-1.1504c.54094-1.4118 1.3362-4.3855 1.6856-6.0156.14066-.71806.30497-1.4219-.28907-1.8809-.5431-.4196-1.7891.33203-1.7891.33203-5.6788 3.418-19.874 9.8915-33.146 10.168-16.479.33231-49.869-16.682-53.328-18.479-2.3152-5.5127-4.6261-11.029-6.9746-16.527 23.887 15.739 43.697 24.438 58.863 25.779 16.884 1.504 30.046-7.7067 35.758-11.539.74778-.49716 1.4941-1.0549 2.1797-1.5898h.00391c.12273-.0959.4083-.34558.37109-.57812-.94704-5.918-9.7642-34.62-16.438-41.521-1.8387-1.88-3.3116-3.7324-6.293-5.4766-24.141-14.068-81.414-22.557-84.098-22.945 0 0-.06754-.01462-.1582-.00586zm62.971 24.242c.40652-.00655.81544-.00328 1.2246.00976 13.5.48274 24.108 11.879 23.645 25.363-.25462 6.5424-2.994 12.613-7.7656 17.053-4.786 4.495-11.015 6.8047-17.592 6.584-13.485-.49728-24.081-11.866-23.629-25.363.24248-6.5424 2.9799-12.615 7.7637-17.068 4.4869-4.189 10.256-6.48 16.354-6.5781zm1.0195 7.2246c-4.5799-.16495-8.9238 1.4541-12.242 4.5664-3.3186 3.1123-5.2757 7.3273-5.4141 11.893-.3177 9.4339 7.07 17.372 16.482 17.719 4.5774.13831 8.9414-1.4795 12.279-4.5918 3.333-3.1268 5.2489-7.3463 5.3945-11.895.3177-9.4315-7.0657-17.357-16.5-17.691zm2.793 8.5781c4.1917 0 7.5879 2.2559 7.5879 5.0625 0 2.78-3.3986 5.0488-7.5879 5.0488-4.1918 0-7.5781-2.2687-7.5781-5.0488 0-2.8066 3.3863-5.0625 7.5781-5.0625z" clip-rule="evenodd" fill="#fff" fill-rule="evenodd" stroke-width="1.3831"/>
</svg>
