<?xml version="1.0" encoding="utf-8"?>
<!-- Generator: Adobe Illustrator 14.0.0, SVG Export Plug-In . SVG Version: 6.00 Build 43363)  -->
<!DOCTYPE svg PUBLIC "-//W3C//DTD SVG 1.1//EN" "http://www.w3.org/Graphics/SVG/1.1/DTD/svg11.dtd">
<svg version="1.1" xmlns="http://www.w3.org/2000/svg" xmlns:xlink="http://www.w3.org/1999/xlink" x="0px" y="0px"
	 width="841.89px" height="595.28px" viewBox="0 0 841.89 595.28" enable-background="new 0 0 841.89 595.28" xml:space="preserve">
<g id="Dark_Green_Hex">
	<polygon fill="#6CA743" points="141.053,435.645 87.642,343.134 141.053,250.623 247.875,250.623 301.286,343.134 247.875,435.645 
			"/>
</g>
<g id="Blue_Hex">
	<polygon fill="#35B8AA" points="142.053,237.645 88.642,145.134 142.053,52.623 248.875,52.623 302.286,145.134 248.875,237.645 	
		"/>
</g>
<g id="Green_Hex">
	<polyline fill="#72BA44" points="288.152,194.288 311.053,154.623 417.875,154.623 471.286,247.134 417.875,339.645 
		311.053,339.645 257.642,247.134 288.152,194.288 	"/>
</g>
<g id="Geeko_Face">
	<path fill="#FFFFFF" d="M385.976,221.585c-4.533-0.164-8.825,1.437-12.108,4.516s-5.219,7.249-5.357,11.766
		c-0.314,9.332,6.992,17.183,16.304,17.526c4.529,0.135,8.843-1.465,12.145-4.544c3.298-3.092,5.194-7.264,5.339-11.765
		C402.608,229.756,395.308,221.916,385.976,221.585z M388.737,240.072c-4.147,0-7.493-2.244-7.493-4.994
		c0-2.776,3.346-5.009,7.493-5.009s7.507,2.233,7.507,5.009C396.242,237.828,392.885,240.072,388.737,240.072z"/>
	<path fill="#FFFFFF" d="M429.506,257.65c-0.932-5.856-9.658-34.245-16.258-41.072c-1.819-1.86-3.276-3.693-6.223-5.419
		c-23.884-13.914-80.537-22.312-83.191-22.698l-0.45,0.126l-0.171,0.41c0,0-0.219,11.739-0.253,13.051
		c-3.562-1.197-12.896-3.799-34.345-9.244c-15.51,27.056-15.51,27.221-31.349,54.113c0,0,0.165,0.165,11.88,21.12
		c6.599,11.713,13.196,21.779,16.829,28.048c5.762,10.7,8.084,14.849,14.188,24.748c-1.32-1.815-0.33-1.65,0.441-8.403
		c1.76-15.425,15.662-14.818,33.601-12.794c5.854,0.686,12.518,1.45,19.418,1.604c19.272,0.122,40.027-3.437,52.818-9.034
		c8.277-3.595,13.561-5.99,16.869-9c1.189-0.985,1.805-2.586,2.447-4.309l0.453-1.137c0.535-1.397,1.322-4.338,1.666-5.953
		c0.139-0.709,0.222-1.461-0.286-1.858l-1.77,0.327c-5.615,3.381-19.659,9.783-32.786,10.058
		c-16.301,0.329-49.115-16.392-52.537-18.169l-0.331-0.382c-0.804-1.971-5.731-13.614-6.784-16.075
		c23.629,15.568,43.225,24.173,58.228,25.5c16.7,1.49,29.721-7.625,35.28-11.522h-0.002c1.101-0.727,1.91-1.329,2.251-1.463
		L429.506,257.65z M410.566,237.537c-0.253,6.472-2.961,12.477-7.681,16.868c-4.735,4.447-10.896,6.732-17.401,6.512
		c-13.34-0.49-23.82-11.738-23.375-25.089c0.24-6.472,2.949-12.479,7.682-16.883c4.734-4.422,10.91-6.704,17.389-6.499
		C400.533,212.923,411.026,224.196,410.566,237.537z"/>
</g>
<g id="_x31_8">
	<text transform="matrix(1 0 0 1 112.665 391.666)" fill="#FFFFFF" font-family="'OpenSans-Bold'" font-size="134">18</text>
</g>
<g id="openSUSE">
	<path fill="#72BA44" d="M500.145,344.213c-11.702,0-18.139,9.894-18.139,16.733v8.781c0,10.072,8.229,16.313,15.858,16.313h26.791
		c3.376,0,4.083,2.208,4.083,4.073v5.666c0,0.603-0.121,6.045-4.083,6.045h-36.538c-3.631,0-6.255,2.526-6.255,5.981v1.566
		c0,3.446,2.624,5.956,6.255,5.956h38.524c10.071,0,16.568-7.007,16.568-17.86v-9.475c0-10.191-7.321-14.748-14.593-14.748h-26.362
		c-3.967,0-5.767-2.977-5.767-5.08v-5.23c0-3.295,2.203-5.204,6.053-5.204h29.18c3.577,0,6.27-2.57,6.27-5.969v-1.564
		c0-3.411-2.736-5.985-6.392-5.985H500.145z"/>
	<path fill="#72BA44" d="M609.691,344.213c-3.463,0-6.247,2.811-6.247,6.27v44.862c0,3.594-2.935,6.48-6.481,6.48h-20.366
		c-3.561,0-6.48-2.887-6.48-6.48v-44.862c0-3.459-2.809-6.27-6.266-6.27h-1.971c-3.508,0-6.268,2.767-6.268,6.27v46.561
		c0,10.839,8.525,18.702,20.277,18.702h21.776c11.737,0,20.258-7.861,20.258-18.702v-46.561c0-3.503-2.746-6.27-6.251-6.27H609.691z
		"/>
	<path fill="#72BA44" d="M648.677,344.213c-11.695,0-18.148,9.894-18.148,16.733v8.781c0,10.072,8.245,16.313,15.879,16.313h26.781
		c3.381,0,4.091,2.208,4.091,4.073v5.666c0,0.603-0.122,6.045-4.091,6.045h-36.554c-3.613,0-6.254,2.526-6.254,5.981v1.566
		c0,3.446,2.641,5.956,6.254,5.956h38.539c10.072,0,16.599-7.007,16.599-17.86v-9.475c0-10.191-7.344-14.748-14.615-14.748h-26.359
		c-3.981,0-5.771-2.977-5.771-5.08v-5.23c0-3.295,2.202-5.204,6.049-5.204h29.197c3.569,0,6.253-2.57,6.253-5.969v-1.564
		c0-3.411-2.734-5.985-6.406-5.985H648.677z"/>
	<path fill="#72BA44" d="M710.265,344.213c-3.469,0-6.096,2.574-6.096,5.985v59.174c0,3.396,2.564,5.954,5.961,5.954h47.152
		c3.633,0,6.259-2.51,6.259-5.954v-1.566c0-3.456-2.626-5.983-6.259-5.983h-38.618v-15.065h28.302c3.621,0,6.252-2.542,6.252-5.984
		v-1.563c0-3.459-2.631-5.971-6.252-5.971h-28.302v-15.514h36.657c3.621,0,6.256-2.494,6.256-5.971v-1.563
		c0-3.46-2.635-5.984-6.256-5.984h-45.057V344.213z"/>
	<path fill="#72BA44" d="M309.431,372.359c-5.909,0-10.718,4.597-10.718,10.267v22.311c0,5.759,4.653,10.449,10.36,10.449h14.431
		c5.707,0,10.36-4.69,10.36-10.449v-22.311c0-5.666-4.812-10.267-10.719-10.267H309.431z M306.31,404.052v-20.375
		c0-2.388,1.962-4.34,4.36-4.34h11.245c2.346,0,4.346,1.996,4.346,4.34v20.375c0,2.402-1.948,4.358-4.346,4.358h-11.329
		C308.182,408.41,306.31,406.497,306.31,404.052"/>
	<path fill="#72BA44" d="M366.534,372.101c-4.161,0-7.297,1.486-9.815,2.704c-1.536,0.736-2.863,1.372-3.894,1.372
		c-0.466,0-0.866-0.211-1.077-0.558l-0.96-1.834c-0.239-0.482-1.201-1.428-2.391-1.428h-1.427c-1.371,0-2.468,1.231-2.468,2.735
		v56.589c0,1.776,1.4,3.173,3.173,3.173h1.233c1.759,0,3.189-1.415,3.189-3.173v-18.776c0-0.558,0.359-1.158,0.728-1.158
		c1.031,0,2.358,0.604,3.894,1.308c2.518,1.158,5.655,2.584,9.815,2.584h1.333c7.367,0,11.951-4.211,11.951-10.974v-21.602
		c0-6.661-4.681-10.961-11.951-10.961h-1.333V372.101z M352.098,403.616v-19.487c0-2.692,2.104-4.794,4.793-4.794h10.539
		c2.694,0,4.794,2.104,4.794,4.794v19.487c0,2.645-2.156,4.792-4.794,4.792h-10.539
		C354.252,408.408,352.098,406.261,352.098,403.616z"/>
	<path fill="#72BA44" d="M401.167,372.357c-5.909,0-10.705,4.599-10.705,10.267v22.145c0,5.745,4.661,10.615,10.162,10.615h14.891
		c1.841,0,3.173-1.274,3.173-3.009V411.4c0-1.744-1.332-2.994-3.173-2.994h-12.233c-3.428,0-5.235-1.683-5.235-4.889v-6.479h22.066
		c3.55,0,5.649-2.166,5.649-5.832v-8.586c0-5.669-4.805-10.27-10.69-10.27h-13.904V372.357z M398.048,383.604
		c0-2.392,1.88-4.27,4.274-4.27h11.593c2.389,0,4.252,1.878,4.252,4.27v6.914h-20.121
		C398.048,389.615,398.048,383.604,398.048,383.604z"/>
	<path fill="#72BA44" d="M456.417,372.101c-4.147,0-7.277,1.486-9.803,2.69c-1.572,0.739-2.915,1.386-4.012,1.386
		c-0.48,0-0.678-0.062-1.052-0.71l-0.873-1.594c-0.5-1.008-1.352-1.514-2.501-1.514h-1.228c-1.481,0-2.562,1.154-2.562,2.733v37.118
		c0,1.758,1.39,3.173,3.18,3.173h1.226c1.759,0,3.193-1.43,3.193-3.173v-28.082c0-2.63,2.15-4.794,4.782-4.794h10.543
		c2.641,0,4.79,2.164,4.79,4.794v28.082c0,1.758,1.397,3.173,3.17,3.173h1.24c1.759,0,3.188-1.43,3.188-3.173v-29.149
		c0-6.661-4.683-10.961-11.956-10.961H456.417z"/>
	<path fill="#72BA44" d="M774.049,400.993c3.211,0,5.771,2.612,5.771,5.88c0,3.314-2.562,5.897-5.799,5.897
		c-3.211,0-5.819-2.583-5.819-5.897c0-3.266,2.608-5.88,5.819-5.88H774.049z M774.021,401.906c-2.583,0-4.697,2.222-4.697,4.963
		c0,2.796,2.114,4.987,4.725,4.987c2.611,0.028,4.701-2.191,4.701-4.962c0-2.767-2.09-4.988-4.701-4.988H774.021z M772.925,410.29
		h-1.044v-6.552c0.551-0.08,1.071-0.158,1.856-0.158c0.992,0,1.643,0.205,2.032,0.495c0.394,0.284,0.605,0.727,0.605,1.358
		c0,0.86-0.576,1.379-1.277,1.592v0.055c0.575,0.103,0.964,0.625,1.097,1.592c0.154,1.021,0.31,1.412,0.417,1.619h-1.097
		c-0.16-0.207-0.316-0.809-0.446-1.67c-0.156-0.834-0.573-1.149-1.407-1.149h-0.732v2.818H772.925z M772.925,406.658h0.758
		c0.863,0,1.594-0.312,1.594-1.122c0-0.576-0.419-1.151-1.594-1.151c-0.341,0-0.574,0.025-0.758,0.057V406.658z"/>
	<rect x="242.667" y="58.614" fill="none" width="584" height="425.245"/>
</g>
<g id="Conference">
	<text transform="matrix(1 0 0 1 291.999 484.332)" fill="#72BA44" font-family="'OpenSans'" font-size="65">Conference</text>
</g>
<g id="Prague">
	<text transform="matrix(1 0 0 1 295.3315 518.333)" fill="#72BA44" font-family="'OpenSans'" font-size="28">Prague, Czech Republic</text>
</g>
<g id="Bridge_Shadow">
	<path fill="#6CA743" d="M251.212,233.762L251.212,233.762l-2.221,3.853l-0.036,0.062l-77.305-0.008c0,0-2.843-12.466-2.997-13.078
		h9.398c-0.154,0.612-0.237,1.254-0.237,1.918c0,4.147,3.216,7.51,7.183,7.51s7.182-3.362,7.182-7.51
		c0-0.664-0.083-1.306-0.237-1.918h0.797h6.814h0.797c-0.154,0.612-0.237,1.254-0.237,1.918c0,4.147,3.216,7.51,7.183,7.51
		s7.183-3.362,7.183-7.51c0-0.664-0.083-1.306-0.237-1.918h9.398c-0.154,0.612-0.237,1.254-0.237,1.918
		c0,4.147,3.216,7.51,7.183,7.51c3.967,0,7.183-3.362,7.183-7.51c0-0.664-0.083-1.306-0.238-1.918h8.855
		c-0.155,0.612-0.134,1.263-0.238,1.918C245.469,230.783,247.642,232.586,251.212,233.762L251.212,233.762
		C251.212,233.099,251.366,234.375,251.212,233.762L251.212,233.762z"/>
</g>
<g id="Building_Showdow">
	<rect x="170.5" y="211.999" fill="#72BA44" width="89.154" height="6.945"/>
</g>
<g id="Building">
	<g>
		<polygon fill="#72BA44" points="167.613,205.246 167.613,194.879 166.153,194.15 183.964,175.462 184.84,160.717 184.84,175.462 
			203.674,194.441 202.505,195.317 202.651,212.107 167.467,211.085 		"/>
		<path fill="#72BA44" d="M240.854,186.194h-1.321l0.66-2.31h-1.815l5.447-4.292c0,0-1.98-1.651-1.65-3.466
			c0.33-1.815,5.281-3.631,5.281-3.631l0.991-2.311l-1.155-1.32l1.155-0.826v-5.941l-1.815-2.476l1.815-1.321
			c0,0-0.991-1.155,0-2.641c0.99-1.485,2.476-2.64,2.476-2.64l-0.99-2.312l1.485-10.838v-10.289h0.495v10.398l0.22,4.126
			l0.991,6.933l-0.605,2.2c0,0,2.916,2.147,2.586,3.742c-0.33,1.595-0.66,1.54-0.66,1.54l2.091,1.321l-1.431,2.09v5.942l1.045,0.991
			l-1.266,1.209l1.211,2.366c0,0,4.787,1.211,4.731,3.852c-0.055,2.641-2.201,3.081-2.201,3.081l5.666,4.182l-1.98,0.384
			l0.771,2.367h-1.156l0.551,14.964l2.421,2.751l-0.007,5.913l-0.87,1.472l-23.276,0.427L240.854,186.194z"/>
		<path fill="#72BA44" d="M258.18,212.107v-7.104c0,0,0.706-0.282,0.329-0.8c-0.376-0.517-6.963-6.069-6.963-6.069
			s-0.282-0.612-0.753,0c-0.47,0.611-6.445,5.881-6.445,5.881l-2.212-2.07v-6.022h0.8v-1.082c0,0,0.376,0.094,0.399-0.283
			c0.024-0.376-0.446-0.164-0.446-0.164l-0.047-0.8h0.283c0,0,0.047-0.588-0.611-0.635c-0.659-0.046-0.941,0-0.941,0l-0.847-2.258
			c0,0,0.518-0.353,0.376-0.964c-0.141-0.612-0.965-0.494-0.965-0.494l-20.725-0.047v-3.717h0.282v-0.423c0,0,0.353,0.094,0.353-0.4
			s-0.447-0.376-0.447-0.376l-0.918-0.012v-3.917c0,0,0.33,0.07,0.4-0.399c0.07-0.471-0.518-0.424-0.518-0.424v-1.247h0.471v-0.329
			h-0.471v-2h0.259c0,0,0.07-2.211-2.376-2.399v-0.612h0.235l0.024-0.447h-0.259v-0.423l-0.94-0.612v-2.588h-0.283v2.611
			l-1.035,0.659v0.33l-0.235,0.023v0.376h0.329v0.612c0,0-2.423,0.142-2.375,2.799c0,0-0.047,0.4,0.094,0.4v1.2l-0.4,0.023v0.447
			l0.4,0.023v1.129c0,0-0.377-0.047-0.4,0.448c-0.023,0.494,0.353,0.352,0.353,0.352l-0.024,3.953l-0.965,0.023
			c0,0-0.376,0.071-0.353,0.447c0.024,0.377,0.4,0.306,0.4,0.306l0.047,0.4l0.212,0.047l-0.023,2.141l-0.306,0.635l0.33,0.023v3.247
			l-2.447-0.047v-1.247l-0.799-0.07v1.412l-2.353-0.047l-3.082,3.505l-3.835,0.024l-5.787,5.905c0,0-0.188,0.376,0,0.635
			c0.188,0.259,0.518,0.024,0.518,0.024l0.258,0.282l0.353-0.023l-0.141,10.233H258.18z"/>
	</g>
	<path fill="#FFFFFF" d="M171.118,188.939l-0.142-7.18l3.098,0.14v-8.166l-6.054-0.282l-0.141-26.328l4.083-3.238l-5.632-3.379
		c0,0,1.549-0.281,1.69-5.914c0.141-5.631-8.447-9.574-8.447-9.574l1.408-1.831l-9.152-6.757l1.267-2.112
		c0,0-2.815-1.408-3.942-2.534s1.126-3.237,1.126-3.237c-2.534-2.394,0-6.617,0-6.617l-0.181-1.672
		c1.126-0.743,1.871-2.018,1.871-3.468c0-1.769-1.108-3.275-2.666-3.874l-0.779-7.193l1.521,0.338
		c0.231,0.394,0.656,0.662,1.146,0.662c0.737,0,1.335-0.597,1.335-1.334c0-0.737-0.598-1.335-1.335-1.335
		c-0.561,0-1.04,0.348-1.236,0.838h-1.521l-0.549-5.068v5.068h-3.097l3.097,0.688v7.059c-0.023-0.001-0.046-0.004-0.069-0.004
		c-2.294,0-4.154,1.86-4.154,4.153c0,2.294,1.859,4.153,4.154,4.153c0.023,0,0.046-0.003,0.069-0.003v0.708
		c0,0-2.111-0.141-2.394,2.957c-0.281,3.097,1.549,6.195,1.549,6.195l-4.505,4.083l1.971,1.689l-9.433,6.617l1.408,1.831
		c0,0-7.744,5.631-8.447,9.433c-0.704,3.801,1.408,5.914,1.408,5.914l-4.927,3.378l4.223,3.239v26.469h-6.828v8.166h3.45v7.603
		c0,0-0.704,0.422-2.394,1.268c-1.69,0.845-0.845,3.379-0.845,3.379h3.239c0,0,0,14.995,0,14.995s11.431,19.807,11.431,19.807
		l5.167,9.083l29.626,0.063c0,0-0.196-26.598-0.196-26.598l-0.129-17.631l3.66-0.282
		C175.06,190.065,171.118,188.939,171.118,188.939z"/>
	<path fill="#72BA44" d="M263.396,212.051"/>
</g>
<g id="Bridge">
	<path fill="#FFFFFF" d="M264.194,211.181c0,0-7.918-0.11-7.918-0.11v-0.612l-1.265-7.59l-1.388,7.713v0.693h-20.08v-0.693
		l-1.428-8.162l-1.224,8.162v0.816l-21.631-0.205V210.5l-1.306-7.632l-1.428,7.713v0.816l-7.021-0.062v-0.061l-3.407,0.03
		l-3.407-0.03v0.061l-7.021,0.062v-0.816l-1.429-7.713l-1.306,7.632v0.693l-11.515,0.044c0,0-0.003,12.692-0.131,13.252
		c-0.013,0.058,6.714,0.09,6.714,0.09c-0.154-0.612-0.237-1.254-0.237-1.918c0-4.147,3.216-7.509,7.183-7.509
		s7.182,3.362,7.182,7.509c0,0.664-0.083,1.306-0.237,1.918h0.797h6.814h0.797c-0.154-0.612-0.237-1.254-0.237-1.918
		c0-4.147,3.216-7.509,7.183-7.509s7.183,3.362,7.183,7.509c0,0.664-0.083,1.306-0.237,1.918h9.398
		c-0.154-0.612-0.237-1.254-0.237-1.918c0-4.147,3.216-7.509,7.183-7.509c3.967,0,7.183,3.362,7.183,7.509
		c0,0.664-0.083,1.306-0.238,1.918h8.855c-0.155-0.612-0.238-1.254-0.238-1.918c0-4.147,3.216-7.509,7.183-7.509
		c2.662,0,5.13,1.543,6.371,3.792C259.778,219.169,264.194,211.181,264.194,211.181z"/>
	<line fill="#6CA743" x1="251.097" y1="233.556" x2="251.132" y2="233.73"/>
</g>
</svg>
