<?xml version="1.0" encoding="UTF-8"?>
<!-- Created with Inkscape (http://www.inkscape.org/) -->
<svg width="16" height="16" version="1.1" viewBox="0 0 16 16" xmlns="http://www.w3.org/2000/svg">
 <path d="m3.5 0a0.50005 0.50005 0 0 0-0.5 0.5v3c0 2.0265 1.2426 3.7161 2.9824 4.5-1.7396 0.784-2.9824 2.4736-2.9824 4.5v3a0.50005 0.50005 0 0 0 0.5 0.5h9a0.50005 0.50005 0 0 0 0.5-0.5v-3c0-2.0266-1.2425-3.7162-2.9824-4.5 1.7402-0.78375 2.9824-2.4732 2.9824-4.5v-3a0.50005 0.50005 0 0 0-0.5-0.5h-9zm0.5 1h8v2.5c0 1.9082-1.3302 3.496-3.1094 3.9004a0.50005 0.50005 0 0 0-0.38867 0.49219l0.0019531 0.22266a0.50005 0.50005 0 0 0 0.38867 0.48438c1.7784 0.40498 3.1074 1.9927 3.1074 3.9004v2.5h-8v-2.5c0-1.9084 1.33-3.4962 3.1094-3.9004a0.50005 0.50005 0 0 0 0.38867-0.48633l0.0019531-0.22461a0.50005 0.50005 0 0 0-0.39062-0.48828c-1.7796-0.40405-3.1094-1.9918-3.1094-3.9004v-2.5zm2.5 2a0.5 0.5 0 0 0-0.5 0.5c0 1.0986 0.90136 2 2 2s2-0.90136 2-2a0.5 0.5 0 0 0-0.5-0.5 0.5 0.5 0 0 0-0.5 0.5c0 0.55821-0.44179 1-1 1s-1-0.44179-1-1a0.5 0.5 0 0 0-0.5-0.5zm1.5 7.5c-1.0986 0-2 0.90136-2 2a0.5 0.5 0 0 0 0.5 0.5 0.5 0.5 0 0 0 0.5-0.5c0-0.5582 0.44179-1 1-1s1 0.4418 1 1a0.5 0.5 0 0 0 0.5 0.5 0.5 0.5 0 0 0 0.5-0.5c0-1.0986-0.90136-2-2-2z" color="#000000" fill="#9141ac" stroke-linecap="round" stroke-linejoin="round" style="-inkscape-stroke:none"/>
</svg>
