<?xml version="1.0" encoding="UTF-8"?>
<svg width="144" height="44" preserveAspectRatio="xMidYMid" version="1.1" viewBox="0 0 144 44" xmlns="http://www.w3.org/2000/svg">
 <path d="m13 6a1.0001 1.0001 0 0 0-1 1v6c0 4.053 2.4852 7.4322 5.9648 9-3.4791 1.568-5.9648 4.9473-5.9648 9v6a1.0001 1.0001 0 0 0 1 1h18a1.0001 1.0001 0 0 0 1-1v-6c0-4.0533-2.4849-7.4323-5.9648-9 3.4803-1.5675 5.9648-4.9464 5.9648-9v-6a1.0001 1.0001 0 0 0-1-1zm1 2h16v5c0 3.8164-2.6605 6.992-6.2188 7.8008a1.0001 1.0001 0 0 0-0.77734 0.98438l0.0039 0.44531a1.0001 1.0001 0 0 0 0.77734 0.96875c3.5568 0.80996 6.2149 3.9855 6.2149 7.8008v5h-16v-5c0-3.8168 2.6599-6.9924 6.2188-7.8008a1.0001 1.0001 0 0 0 0.77734-0.97266l0.0039-0.44922a1.0001 1.0001 0 0 0-0.78132-0.97656c-3.5592-0.8081-6.2187-3.9837-6.2187-7.8008zm5 4a1 1 0 0 0-1 1c0 2.1973 1.8027 4 4 4s4-1.8027 4-4a1 1 0 0 0-1-1 1 1 0 0 0-1 1c0 1.1164-0.88359 2-2 2s-2-0.88359-2-2a1 1 0 0 0-1-1zm3 15c-2.1973 0-4 1.8027-4 4a1 1 0 0 0 1 1 1 1 0 0 0 1-1c0-1.1164 0.88359-2 2-2s2 0.88359 2 2a1 1 0 0 0 1 1 1 1 0 0 0 1-1c0-2.1973-1.8027-4-4-4z" color="#000000" fill="#9141ac" stroke-linecap="round" stroke-linejoin="round" stroke-width="2" style="-inkscape-stroke:none"/>
 <path d="m56.359 7.7598-8.8809 26.24h3.4004l2.5195-8h9.5605l2.4805 8h3.5605l-8.8809-26.24h-3.7598zm1.7207 2.7207h0.16016c0.84 3.04 1.6787 5.9198 2.6387 8.8398l1.2402 4h-7.8789l1.2383-4c0.96-2.92 1.8016-5.7998 2.6016-8.8398zm21.6 3.5996c-4.44 0-8.7207 3.8802-8.7207 10.24 0 6.36 4.1203 10.16 9.3203 10.16 2.64 0 4.7204-0.92 6.4004-2l-1.1602-2.1602c-1.44 0.92-2.9998 1.5195-4.8398 1.5195-3.72 0-6.2405-2.6398-6.4805-6.7598h13.121c0.08-0.48 0.11914-1.2009 0.11914-1.8809 0-5.56-2.7998-9.1191-7.7598-9.1191zm20.119 0c-4.76 0-9 3.7202-9 10.24 0 6.44 4.24 10.16 9 10.16 4.76 0 9-3.7202 9-10.16 0-6.52-4.24-10.24-9-10.24zm23.76 0c-2.68 0-4.6795 1.4393-6.5195 3.2793h-0.11914l-0.28125-2.7988h-2.7188v19.439h3.2793v-14.08c1.96-1.96 3.3203-3 5.3203-3 2.56 0 3.6797 1.5592 3.6797 5.1992v11.881h3.2793v-12.32c0-4.96-1.8399-7.5996-5.9199-7.5996zm-43.799 2.5996c3.04 0 4.7988 2.121 4.7988 6.041h-10.398c0.4-3.84 2.8796-6.041 5.5996-6.041zm20.039 0.12109c3.36 0 5.5996 3.0395 5.5996 7.5195 0 4.44-2.2396 7.4395-5.5996 7.4395-3.32 0-5.5996-2.9995-5.5996-7.4395 0-4.48 2.2796-7.5195 5.5996-7.5195z" fill="#9141ac"/>
</svg>
