<?xml version="1.0" encoding="UTF-8" standalone="no"?>
<svg
   xmlns:dc="http://purl.org/dc/elements/1.1/"
   xmlns:cc="http://creativecommons.org/ns#"
   xmlns:rdf="http://www.w3.org/1999/02/22-rdf-syntax-ns#"
   xmlns:svg="http://www.w3.org/2000/svg"
   xmlns="http://www.w3.org/2000/svg"
   xmlns:sodipodi="http://sodipodi.sourceforge.net/DTD/sodipodi-0.dtd"
   xmlns:inkscape="http://www.inkscape.org/namespaces/inkscape"
   width="33mm"
   height="40mm"
   preserveAspectRatio="xMidYMid"
   version="1.1"
   viewBox="0 0 124.72442 151.18111"
   id="svg867"
   sodipodi:docname="Aeon-vertical-label.svg"
   inkscape:version="1.0.1 (3bc2e813f5, 2020-09-07)">
  <metadata
     id="metadata873">
    <rdf:RDF>
      <cc:Work
         rdf:about="">
        <dc:format>image/svg+xml</dc:format>
        <dc:type
           rdf:resource="http://purl.org/dc/dcmitype/StillImage" />
        <dc:title></dc:title>
      </cc:Work>
    </rdf:RDF>
  </metadata>
  <defs
     id="defs871">
    <rect
       x="92.38002"
       y="181.07281"
       width="96.628067"
       height="56.284878"
       id="rect423" />
  </defs>
  <sodipodi:namedview
     pagecolor="#ffffff"
     bordercolor="#666666"
     borderopacity="1"
     objecttolerance="10"
     gridtolerance="10"
     guidetolerance="10"
     inkscape:pageopacity="0"
     inkscape:pageshadow="2"
     inkscape:window-width="1920"
     inkscape:window-height="1011"
     id="namedview869"
     showgrid="true"
     units="mm"
     inkscape:zoom="4.2770139"
     inkscape:cx="-4.0485611"
     inkscape:cy="72.038606"
     inkscape:window-x="0"
     inkscape:window-y="32"
     inkscape:window-maximized="1"
     inkscape:current-layer="svg867"
     inkscape:document-rotation="0">
    <inkscape:grid
       type="xygrid"
       id="grid900" />
  </sodipodi:namedview>
  <path
     d="m 32.726643,3.144313 a 3.4281874,3.4281874 0 0 0 -3.427845,3.427843 v 20.567067 c 0,13.893056 8.518879,25.476427 20.446408,30.850603 -11.925814,5.374859 -20.446408,16.958574 -20.446408,30.8506 v 20.567064 a 3.4281874,3.4281874 0 0 0 3.427845,3.42785 H 94.427845 A 3.4281874,3.4281874 0 0 0 97.8557,109.40749 V 88.840426 c 0,-13.894082 -8.51786,-25.476768 -20.446417,-30.8506 C 89.33921,52.616678 97.8557,41.034336 97.8557,27.139223 V 6.572156 A 3.4281874,3.4281874 0 0 0 94.427845,3.144313 Z M 36.154488,10 H 91 v 17.139223 c 0,13.082028 -9.11978,23.967491 -21.317079,26.73993 a 3.4281874,3.4281874 0 0 0 -2.664601,3.374302 l 0.01337,1.526455 a 3.4281874,3.4281874 0 0 0 2.664602,3.320723 c 12.192157,2.776417 21.30371,13.661675 21.30371,26.739931 V 105.97978 H 36.154488 V 88.840564 c 0,-13.083398 9.117723,-23.968861 21.317079,-26.73993 a 3.4281874,3.4281874 0 0 0 2.664601,-3.334127 l 0.01337,-1.539856 A 3.4281874,3.4281874 0 0 0 57.471292,53.879153 C 45.270908,51.109113 36.154555,40.223649 36.154555,27.139223 Z M 53.29371,23.711379 a 3.4278446,3.4278446 0 0 0 -3.427844,3.427844 c 0,7.532005 6.179375,13.711379 13.711378,13.711379 7.532003,0 13.711378,-6.179374 13.711378,-13.711379 a 3.4278446,3.4278446 0 0 0 -3.427844,-3.427844 3.4278446,3.4278446 0 0 0 -3.427845,3.427844 c 0,3.826847 -3.028809,6.855692 -6.855689,6.855692 -3.82688,0 -6.855689,-3.028811 -6.855689,-6.855692 A 3.4278446,3.4278446 0 0 0 53.29371,23.711379 Z m 10.283534,51.417669 c -7.532003,0 -13.711378,6.179376 -13.711378,13.711378 a 3.4278446,3.4278446 0 0 0 3.427844,3.427845 3.4278446,3.4278446 0 0 0 3.427845,-3.427845 c 0,-3.826845 3.028809,-6.855689 6.855689,-6.855689 3.82688,0 6.855689,3.028809 6.855689,6.855689 a 3.4278446,3.4278446 0 0 0 3.427845,3.427845 3.4278446,3.4278446 0 0 0 3.427844,-3.427845 c 0,-7.532003 -6.179375,-13.711378 -13.711378,-13.711378 z"
     color="#000000"
     fill="#9141ac"
     stroke-linecap="round"
     stroke-linejoin="round"
     stroke-width="6.85571"
     id="path863" />
  <path
     d="m 28.65094,122.0486 -9.1327,26.98399 h 3.496813 l 2.590933,-8.22682 h 9.831573 l 2.55083,8.22682 h 3.661452 L 32.517138,122.0486 h -3.866403 z m 1.769488,2.79785 h 0.164708 c 0.863817,3.12619 1.726297,6.08764 2.713516,9.09043 l 1.275364,4.11342 h -8.102293 l 1.27341,-4.11342 c 0.987219,-3.00279 1.852681,-5.96424 2.675363,-9.09043 z m 22.212429,3.70165 c -4.565885,0 -8.967958,3.99022 -8.967958,10.53034 0,6.54033 4.237125,10.44807 9.584559,10.44807 2.714853,0 4.85424,-0.94609 6.581873,-2.05671 l -1.193095,-2.22144 c -1.48083,0.94608 -3.084855,1.56258 -4.977025,1.56258 -3.825475,0 -6.417436,-2.71465 -6.664241,-6.95146 h 13.493022 c 0.08227,-0.49361 0.122511,-1.23495 0.122511,-1.93423 0,-5.71764 -2.879184,-9.37766 -7.979817,-9.37766 z m 20.689442,0 c -4.894962,0 -9.255181,3.82569 -9.255181,10.53034 0,6.6226 4.360219,10.44807 9.255181,10.44807 4.894962,0 9.25518,-3.82567 9.25518,-10.44807 0,-6.70486 -4.360218,-10.53034 -9.25518,-10.53034 z m 24.433681,0 c -2.75599,0 -4.812182,1.48011 -6.704358,3.37228 h -0.122507 l -0.289208,-2.87815 h -2.795888 v 19.99016 h 3.372278 v -14.47921 c 2.015575,-2.01558 3.414453,-3.08506 5.471163,-3.08506 2.63258,0 3.78403,1.6034 3.78403,5.34661 v 12.21786 h 3.37227 v -12.66931 c 0,-5.10063 -1.89206,-7.81507 -6.08774,-7.81507 z m -45.040854,2.67331 c 3.126194,0 4.934862,2.18114 4.934862,6.21229 H 46.957173 c 0.411341,-3.94888 2.961243,-6.21229 5.758364,-6.21229 z m 20.607177,0.12453 c 3.455264,0 5.758364,3.12569 5.758364,7.73271 0,4.56589 -2.3031,7.65043 -5.758364,7.65043 -3.414137,0 -5.758372,-3.08454 -5.758372,-7.65043 0,-4.60702 2.344235,-7.73271 5.758372,-7.73271 z"
     fill="#9141ac"
     id="path865"
     style="stroke-width:1.02835" />
</svg>
