<?xml version="1.0" encoding="UTF-8" standalone="no"?>
<!-- Created with Inkscape (http://www.inkscape.org/) -->

<svg
   xmlns:dc="http://purl.org/dc/elements/1.1/"
   xmlns:cc="http://creativecommons.org/ns#"
   xmlns:rdf="http://www.w3.org/1999/02/22-rdf-syntax-ns#"
   xmlns:svg="http://www.w3.org/2000/svg"
   xmlns="http://www.w3.org/2000/svg"
   xmlns:xlink="http://www.w3.org/1999/xlink"
   xmlns:sodipodi="http://sodipodi.sourceforge.net/DTD/sodipodi-0.dtd"
   xmlns:inkscape="http://www.inkscape.org/namespaces/inkscape"
   version="1.0"
   width="193"
   height="238"
   id="svg7854"
   sodipodi:docname="OpenSUSE_PC_Sticker_flat_colors.svg"
   inkscape:version="0.92.3 (2405546, 2018-03-11)"
   inkscape:export-filename="C:\Users\i.grimaldi\Desktop\OpenSUSE_PC_Sticker_flat_colors.svg.png"
   inkscape:export-xdpi="90"
   inkscape:export-ydpi="90">
  <sodipodi:namedview
     pagecolor="#ffffff"
     bordercolor="#666666"
     borderopacity="1"
     objecttolerance="10"
     gridtolerance="10"
     guidetolerance="10"
     inkscape:pageopacity="0"
     inkscape:pageshadow="2"
     inkscape:window-width="1920"
     inkscape:window-height="1058"
     id="namedview150"
     showgrid="false"
     inkscape:zoom="1.4023294"
     inkscape:cx="-164.43643"
     inkscape:cy="56.902884"
     inkscape:window-x="-8"
     inkscape:window-y="-8"
     inkscape:window-maximized="1"
     inkscape:current-layer="svg7854" />
  <defs
     id="defs7856">
    <linearGradient
       id="linearGradient5297">
      <stop
         id="stop5299"
         style="stop-color:#000000;stop-opacity:1"
         offset="0" />
      <stop
         id="stop5301"
         style="stop-color:#000000;stop-opacity:0"
         offset="1" />
    </linearGradient>
    <linearGradient
       id="linearGradient6140">
      <stop
         id="stop6142"
         style="stop-color:#ffffff;stop-opacity:1"
         offset="0" />
      <stop
         id="stop6144"
         style="stop-color:#ffffff;stop-opacity:0"
         offset="1" />
    </linearGradient>
    <linearGradient
       id="linearGradient6103">
      <stop
         id="stop6107"
         style="stop-color:#c9cac8;stop-opacity:1"
         offset="0" />
      <stop
         id="stop6105"
         style="stop-color:#555753;stop-opacity:1"
         offset="1" />
    </linearGradient>
    <linearGradient
       id="linearGradient6089">
      <stop
         id="stop6091"
         style="stop-color:#ffffff;stop-opacity:1"
         offset="0" />
      <stop
         id="stop6093"
         style="stop-color:#ffffff;stop-opacity:0"
         offset="1" />
    </linearGradient>
    <linearGradient
       id="linearGradient5975">
      <stop
         id="stop5979"
         style="stop-color:#6eda08;stop-opacity:1"
         offset="0" />
      <stop
         id="stop5977"
         style="stop-color:#4e9a06;stop-opacity:1"
         offset="1" />
    </linearGradient>
    <linearGradient
       id="linearGradient6139">
      <stop
         id="stop6141"
         style="stop-color:#ffffff;stop-opacity:1"
         offset="0" />
      <stop
         id="stop6143"
         style="stop-color:#ffffff;stop-opacity:0"
         offset="1" />
    </linearGradient>
    <linearGradient
       id="linearGradient5486">
      <stop
         id="stop5488"
         style="stop-color:#ffffff;stop-opacity:1"
         offset="0" />
      <stop
         id="stop5490"
         style="stop-color:#ffffff;stop-opacity:0"
         offset="1" />
    </linearGradient>
    <linearGradient
       id="linearGradient4871">
      <stop
         id="stop4873"
         style="stop-color:#ffffff;stop-opacity:1"
         offset="0" />
      <stop
         id="stop5460"
         style="stop-color:#d2d6ce;stop-opacity:1"
         offset="0.21496402" />
      <stop
         id="stop5458"
         style="stop-color:#cfd3cc;stop-opacity:1"
         offset="0.35827339" />
      <stop
         id="stop4879"
         style="stop-color:#e4e7e2;stop-opacity:1"
         offset="0.87165469" />
      <stop
         id="stop4875"
         style="stop-color:#cdcfca;stop-opacity:1"
         offset="1" />
    </linearGradient>
    <linearGradient
       id="linearGradient5841">
      <stop
         id="stop5843"
         style="stop-color:#ffffff;stop-opacity:1"
         offset="0" />
      <stop
         id="stop5845"
         style="stop-color:#ffffff;stop-opacity:0"
         offset="1" />
    </linearGradient>
    <linearGradient
       id="linearGradient5831">
      <stop
         id="stop5833"
         style="stop-color:#ffffff;stop-opacity:1"
         offset="0" />
      <stop
         id="stop5835"
         style="stop-color:#ffffff;stop-opacity:0"
         offset="1" />
    </linearGradient>
    <linearGradient
       id="linearGradient5767">
      <stop
         id="stop5769"
         style="stop-color:#ffffff;stop-opacity:1"
         offset="0" />
      <stop
         id="stop5771"
         style="stop-color:#ffffff;stop-opacity:0"
         offset="1" />
    </linearGradient>
    <linearGradient
       id="linearGradient5755">
      <stop
         id="stop5757"
         style="stop-color:#ffffff;stop-opacity:1"
         offset="0" />
      <stop
         id="stop5759"
         style="stop-color:#ffffff;stop-opacity:0"
         offset="1" />
    </linearGradient>
    <linearGradient
       id="linearGradient5745">
      <stop
         id="stop5747"
         style="stop-color:#ffffff;stop-opacity:1"
         offset="0" />
      <stop
         id="stop5749"
         style="stop-color:#ffffff;stop-opacity:0"
         offset="1" />
    </linearGradient>
    <linearGradient
       id="linearGradient5681">
      <stop
         id="stop5683"
         style="stop-color:#000000;stop-opacity:1"
         offset="0" />
      <stop
         id="stop5685"
         style="stop-color:#000000;stop-opacity:0.48124999"
         offset="1" />
    </linearGradient>
    <linearGradient
       id="linearGradient5565">
      <stop
         id="stop5567"
         style="stop-color:#8ae234;stop-opacity:1"
         offset="0" />
      <stop
         id="stop5569"
         style="stop-color:#8ae234;stop-opacity:0"
         offset="1" />
    </linearGradient>
    <linearGradient
       id="linearGradient5518">
      <stop
         id="stop5520"
         style="stop-color:#ffffff;stop-opacity:1"
         offset="0" />
      <stop
         id="stop5522"
         style="stop-color:#ffffff;stop-opacity:0"
         offset="1" />
    </linearGradient>
    <linearGradient
       id="linearGradient5478">
      <stop
         id="stop5480"
         style="stop-color:#3a7202;stop-opacity:1"
         offset="0" />
      <stop
         id="stop5626"
         style="stop-color:#4e9c04;stop-opacity:1"
         offset="0.69790977" />
      <stop
         id="stop5628"
         style="stop-color:#50a004;stop-opacity:1"
         offset="0.75" />
      <stop
         id="stop5482"
         style="stop-color:#7bf508;stop-opacity:1"
         offset="1" />
    </linearGradient>
    <linearGradient
       id="linearGradient5470">
      <stop
         id="stop5472"
         style="stop-color:#ffffff;stop-opacity:1"
         offset="0" />
      <stop
         id="stop5474"
         style="stop-color:#ffffff;stop-opacity:0"
         offset="1" />
    </linearGradient>
    <filter
       color-interpolation-filters="sRGB"
       id="filter5512">
      <feGaussianBlur
         stdDeviation="1.4966518"
         id="feGaussianBlur5514" />
    </filter>
    <filter
       color-interpolation-filters="sRGB"
       id="filter5556">
      <feGaussianBlur
         stdDeviation="2.8857142"
         id="feGaussianBlur5558" />
    </filter>
    <filter
       color-interpolation-filters="sRGB"
       id="filter5645">
      <feGaussianBlur
         stdDeviation="0.70516335"
         id="feGaussianBlur5647" />
    </filter>
    <filter
       x="-0.34697872"
       y="-0.049569897"
       width="1.6939574"
       height="1.0991398"
       color-interpolation-filters="sRGB"
       id="filter5825">
      <feGaussianBlur
         stdDeviation="1.3363274"
         id="feGaussianBlur5827" />
    </filter>
    <filter
       color-interpolation-filters="sRGB"
       id="filter5476">
      <feGaussianBlur
         stdDeviation="3.4879518"
         id="feGaussianBlur5478" />
    </filter>
    <filter
       x="-0.01485041"
       y="-0.5469085"
       width="1.0297008"
       height="2.093817"
       color-interpolation-filters="sRGB"
       id="filter6163">
      <feGaussianBlur
         stdDeviation="1.0773644"
         id="feGaussianBlur6165" />
    </filter>
    <filter
       color-interpolation-filters="sRGB"
       id="filter6015">
      <feGaussianBlur
         stdDeviation="0.42836867"
         id="feGaussianBlur6017" />
    </filter>
    <filter
       x="-0.50887299"
       y="-0.038908176"
       width="2.017746"
       height="1.0778162"
       color-interpolation-filters="sRGB"
       id="filter6078">
      <feGaussianBlur
         stdDeviation="2.9997622"
         id="feGaussianBlur6080" />
    </filter>
    <filter
       color-interpolation-filters="sRGB"
       id="filter6133">
      <feGaussianBlur
         stdDeviation="0.7378355"
         id="feGaussianBlur6135" />
    </filter>
    <filter
       color-interpolation-filters="sRGB"
       id="filter5325">
      <feGaussianBlur
         stdDeviation="0.86383053"
         id="feGaussianBlur5327" />
    </filter>
    <radialGradient
       cx="128"
       cy="180.50008"
       r="70"
       fx="128"
       fy="180.50008"
       id="radialGradient3155"
       xlink:href="#linearGradient6140"
       gradientUnits="userSpaceOnUse"
       gradientTransform="matrix(1.0942029,0,0,0.2660714,-44.057706,175.97367)" />
    <radialGradient
       cx="128.5"
       cy="10.5"
       r="96.5"
       fx="128.5"
       fy="10.5"
       id="radialGradient3158"
       xlink:href="#linearGradient6089"
       gradientUnits="userSpaceOnUse"
       gradientTransform="matrix(1.4332021,0,0,1.1437953,-87.666198,-3.010268)" />
    <radialGradient
       cx="128.1001"
       cy="41.361626"
       r="92.518204"
       fx="128.1001"
       fy="41.361626"
       id="radialGradient3163"
       xlink:href="#linearGradient6139"
       gradientUnits="userSpaceOnUse"
       gradientTransform="matrix(1.0105425,0,0,0.3076056,-33.31655,8.178582)" />
    <radialGradient
       cx="215.5"
       cy="126.5"
       r="93"
       fx="215.5"
       fy="126.5"
       id="radialGradient3204"
       xlink:href="#linearGradient5486"
       gradientUnits="userSpaceOnUse"
       gradientTransform="matrix(1.7617562,0,0,1.7620704,-201.76975,-125.51156)" />
    <linearGradient
       x1="125"
       y1="29.932093"
       x2="125"
       y2="223.03172"
       id="linearGradient3217"
       xlink:href="#linearGradient4871"
       gradientUnits="userSpaceOnUse"
       gradientTransform="matrix(0.9158031,0,0,0.9159664,-21.180427,-17.563448)" />
    <radialGradient
       cx="128.5"
       cy="172.5625"
       r="97.5"
       fx="128.5"
       fy="172.5625"
       id="radialGradient3221"
       xlink:href="#linearGradient6103"
       gradientUnits="userSpaceOnUse"
       gradientTransform="matrix(0.9158031,0,0,1.1273432,198.81957,-49.974563)" />
    <radialGradient
       cx="174.33194"
       cy="47.797749"
       r="92.518204"
       fx="174.33194"
       fy="47.797749"
       id="radialGradient3224"
       xlink:href="#linearGradient6139"
       gradientUnits="userSpaceOnUse"
       gradientTransform="matrix(0,-1.1034495,0.6647087,0,28.60666,247.27808)" />
    <radialGradient
       cx="128.1001"
       cy="36.926102"
       r="92.518204"
       fx="128.1001"
       fy="36.926102"
       id="radialGradient3226"
       xlink:href="#linearGradient6139"
       gradientUnits="userSpaceOnUse"
       gradientTransform="matrix(1.8165702,0,0,-2.1318194,-104.60272,289.64588)" />
    <radialGradient
       cx="695.23529"
       cy="-92.591293"
       r="38.670937"
       fx="695.23529"
       fy="-92.591293"
       id="radialGradient3228"
       xlink:href="#linearGradient5975"
       gradientUnits="userSpaceOnUse"
       gradientTransform="matrix(1.4932927,0,0,1.2526157,-342.95448,17.844423)" />
    <radialGradient
       cx="695.23529"
       cy="-92.591293"
       r="38.670937"
       fx="695.23529"
       fy="-92.591293"
       id="radialGradient3230"
       xlink:href="#linearGradient5975"
       gradientUnits="userSpaceOnUse"
       gradientTransform="matrix(1.4932927,0,0,1.2526157,-342.95448,17.844423)" />
    <radialGradient
       cx="695.23529"
       cy="-92.591293"
       r="38.670937"
       fx="695.23529"
       fy="-92.591293"
       id="radialGradient3232"
       xlink:href="#linearGradient5975"
       gradientUnits="userSpaceOnUse"
       gradientTransform="matrix(1.4932927,0,0,1.2526157,-342.95448,17.844423)" />
    <linearGradient
       x1="124.125"
       y1="180.79092"
       x2="124.125"
       y2="61.319553"
       id="linearGradient3234"
       xlink:href="#linearGradient5297"
       gradientUnits="userSpaceOnUse"
       gradientTransform="matrix(0.9773732,0,0,0.9773732,-29.092191,-4.570511)" />
    <linearGradient
       x1="60.836216"
       y1="18.832932"
       x2="148.27702"
       y2="153.70456"
       id="linearGradient3236"
       xlink:href="#linearGradient5478"
       gradientUnits="userSpaceOnUse" />
    <linearGradient
       x1="98.727234"
       y1="42.150482"
       x2="98.727234"
       y2="164.39177"
       id="linearGradient3238"
       xlink:href="#linearGradient5478"
       gradientUnits="userSpaceOnUse" />
    <linearGradient
       x1="100"
       y1="166.72182"
       x2="100"
       y2="39.739437"
       id="linearGradient3240"
       xlink:href="#linearGradient5681"
       gradientUnits="userSpaceOnUse" />
    <radialGradient
       cx="132"
       cy="293.59906"
       r="102"
       fx="132"
       fy="293.59906"
       id="radialGradient3242"
       xlink:href="#linearGradient5565"
       gradientUnits="userSpaceOnUse"
       gradientTransform="matrix(0.5168511,0,0,-0.2633953,350.77569,107.34721)" />
    <linearGradient
       x1="138.34358"
       y1="14.610992"
       x2="136.34358"
       y2="189.8972"
       id="linearGradient3244"
       xlink:href="#linearGradient5470"
       gradientUnits="userSpaceOnUse"
       gradientTransform="translate(287,-4)" />
    <radialGradient
       cx="132.01065"
       cy="37.250149"
       r="103.84375"
       fx="132.01065"
       fy="37.250149"
       id="radialGradient3246"
       xlink:href="#linearGradient5518"
       gradientUnits="userSpaceOnUse"
       gradientTransform="matrix(1,0,0,0.9452303,287,2.9568298)" />
    <radialGradient
       cx="132"
       cy="293.59906"
       r="102"
       fx="132"
       fy="293.59906"
       id="radialGradient3248"
       xlink:href="#linearGradient5565"
       gradientUnits="userSpaceOnUse"
       gradientTransform="matrix(1.2083955,0,0,0.6158168,259.4918,53.946753)" />
    <radialGradient
       cx="89.75"
       cy="20.619284"
       r="59.25"
       fx="89.75"
       fy="20.619284"
       id="radialGradient3250"
       xlink:href="#linearGradient5565"
       gradientUnits="userSpaceOnUse"
       gradientTransform="matrix(1.6080434,0,0,0.5936869,232.42811,45.383601)" />
    <radialGradient
       cx="105.75"
       cy="38.506714"
       r="59.25"
       fx="105.75"
       fy="38.506714"
       id="radialGradient3252"
       xlink:href="#linearGradient5745"
       gradientUnits="userSpaceOnUse"
       gradientTransform="matrix(1.3797726,0,0,0.5967372,246.83904,40.396617)" />
    <radialGradient
       cx="158.0618"
       cy="117.97007"
       r="12.438205"
       fx="158.0618"
       fy="117.97007"
       id="radialGradient3254"
       xlink:href="#linearGradient5755"
       gradientUnits="userSpaceOnUse"
       gradientTransform="matrix(1.663279,0,0,1.0392343,182.16093,-6.8270227)" />
    <radialGradient
       cx="40.807701"
       cy="81.171234"
       r="83.063797"
       fx="40.807701"
       fy="81.171234"
       id="radialGradient3256"
       xlink:href="#linearGradient5767"
       gradientUnits="userSpaceOnUse"
       gradientTransform="matrix(1,0,0,1.0653546,286.5,-10.197379)" />
    <radialGradient
       cx="40.807701"
       cy="81.171234"
       r="83.063797"
       fx="40.807701"
       fy="81.171234"
       id="radialGradient3258"
       xlink:href="#linearGradient5767"
       gradientUnits="userSpaceOnUse"
       gradientTransform="matrix(1,0,0,1.0653546,286.5,-10.197379)" />
    <radialGradient
       cx="98"
       cy="146.19427"
       r="13"
       fx="98"
       fy="146.19427"
       id="radialGradient3260"
       xlink:href="#linearGradient5831"
       gradientUnits="userSpaceOnUse"
       gradientTransform="matrix(1,0,0,0.7980769,291,28.950721)" />
    <radialGradient
       cx="164.25"
       cy="187.76793"
       r="26"
       fx="164.25"
       fy="187.76793"
       id="radialGradient3262"
       xlink:href="#linearGradient5841"
       gradientUnits="userSpaceOnUse"
       gradientTransform="matrix(1.3173077,0,0,0.2669041,238.88221,116.91987)" />
    <clipPath
       id="clipPath16"
       clipPathUnits="userSpaceOnUse">
      <path
         inkscape:connector-curvature="0"
         id="path18"
         d="M 0,200.303 H 320 V 0 H 0 Z" />
    </clipPath>
  </defs>
  <metadata
     id="metadata7859">
    <rdf:RDF>
      <cc:Work
         rdf:about="">
        <dc:format>image/svg+xml</dc:format>
        <dc:type
           rdf:resource="http://purl.org/dc/dcmitype/StillImage" />
        <dc:creator>
          <cc:Agent>
            <dc:title>Jakub Steiner</dc:title>
          </cc:Agent>
        </dc:creator>
        <dc:source>http://jimmac.musichall.cz</dc:source>
        <cc:license
           rdf:resource="http://creativecommons.org/licenses/by-sa/2.5/" />
        <dc:title></dc:title>
      </cc:Work>
      <cc:License
         rdf:about="http://creativecommons.org/licenses/by-sa/2.5/">
        <cc:permits
           rdf:resource="http://web.resource.org/cc/Reproduction" />
        <cc:permits
           rdf:resource="http://web.resource.org/cc/Distribution" />
        <cc:requires
           rdf:resource="http://web.resource.org/cc/Notice" />
        <cc:requires
           rdf:resource="http://web.resource.org/cc/Attribution" />
        <cc:permits
           rdf:resource="http://web.resource.org/cc/DerivativeWorks" />
        <cc:requires
           rdf:resource="http://web.resource.org/cc/ShareAlike" />
      </cc:License>
    </rdf:RDF>
  </metadata>
  <rect
     width="193"
     height="193"
     rx="20.836237"
     ry="16.910547"
     x="32"
     y="10"
     transform="matrix(0.9158031,0,0,1.1284016,-21.18043,-1.36847)"
     id="rect5462"
     style="opacity:0.53614454;fill:#868e96;fill-opacity:1;filter:url(#filter5476)" />
  <rect
     width="176.75"
     height="218"
     rx="19.08189"
     ry="19.08189"
     x="8.125267"
     y="8.9995804"
     id="rect6097"
     style="color:#000000;fill:#42474c;fill-opacity:1;stroke:#2e3436;stroke-width:1.99999988;stroke-linecap:butt;stroke-linejoin:miter;stroke-dashoffset:0" />
  <rect
     width="172.7507"
     height="172.78151"
     rx="19.08189"
     ry="19.08189"
     x="10.124907"
     y="13.99958"
     id="rect4718"
     style="opacity:0.78915663;fill:url(#linearGradient3234);filter:url(#filter5325)" />
  <rect
     width="176.75"
     height="176.78151"
     rx="19.08189"
     ry="19.08189"
     x="8.1252823"
     y="9.9155464"
     id="rect4869"
     style="color:#000000;fill:#d2d5d8;fill-opacity:1;opacity:1" />
  <g
     id="g970"
     transform="translate(0,-4.2872615)">
    <g
       style="fill:#8bc64a;fill-opacity:1"
       id="g6117"
       transform="matrix(0.5323871,0,0,0.532482,-136.15287,46.35024)">
      <path
         inkscape:connector-curvature="0"
         style="fill:#8bc64a;fill-opacity:1"
         id="path2095"
         d="m 560.78054,141.07184 h -0.16152 c -0.1867,0 -0.34854,-0.16185 -0.34854,-0.34854 v -2.50132 l -0.54768,0.83376 c -0.0621,0.087 -0.17428,0.12426 -0.27368,0.12426 h -0.0625 c -0.0994,0 -0.21154,-0.0373 -0.27367,-0.12426 l -0.5601,-0.83376 v 2.50132 c 0,0.18669 -0.16185,0.34854 -0.36097,0.34854 h -0.16154 c -0.18669,0 -0.34854,-0.16185 -0.34854,-0.34854 v -2.98687 h -1.6803 v 2.98687 c 0,0.18669 -0.17427,0.34854 -0.37307,0.34854 H 555.479 c -0.1867,0 -0.34855,-0.16185 -0.34855,-0.34854 v -2.98687 h -1.25687 c -0.18669,0 -0.33611,-0.12458 -0.33611,-0.32339 v -0.17426 c 0,-0.19913 0.14942,-0.3237 0.33611,-0.3237 h 4.40559 c 0.17428,0 0.28611,0.0621 0.34856,0.16185 l 0.83376,1.25687 0.83378,-1.25687 c 0.0621,-0.0873 0.16185,-0.16185 0.34855,-0.16185 h 0.5601 v 3.83307 c 0,0.18669 -0.17428,0.34854 -0.3734,0.34854" />
      <path
         inkscape:connector-curvature="0"
         style="fill:#8bc64a;fill-opacity:1"
         id="path2097"
         d="m 416.72658,135.83248 c -6.02344,0 -9.35885,5.10236 -9.35885,8.6369 v 4.53017 c 0,5.18966 4.24374,8.41293 8.18895,8.41293 h 13.81415 c 1.72999,0 2.09096,1.1323 2.09096,2.09063 v 2.92474 c 0,0.31096 -0.0497,3.12388 -2.09096,3.12388 h -18.85438 c -1.867,0 -3.22327,1.29415 -3.22327,3.07383 v 0.80894 c 0,1.76726 1.34385,3.07416 3.22327,3.07416 h 19.88759 c 5.18966,0 8.54993,-3.60941 8.54993,-9.20975 v -4.89082 c 0,-5.2521 -3.78337,-7.604 -7.52945,-7.604 h -13.59017 c -2.05369,0 -2.97444,-1.51845 -2.97444,-2.61348 v -2.68833 c 0,-1.70482 1.1323,-2.67559 3.12354,-2.67559 h 15.0589 c 1.84184,0 3.22328,-1.31931 3.22328,-3.07416 v -0.80893 c 0,-1.74241 -1.4063,-3.07385 -3.28539,-3.07385 h -16.22881" />
      <path
         inkscape:connector-curvature="0"
         style="fill:#8bc64a;fill-opacity:1"
         id="path2099"
         d="m 473.2655,135.83248 c -1.7797,0 -3.22326,1.44357 -3.22326,3.22326 v 23.14815 c 0,1.84181 -1.50601,3.33541 -3.33542,3.33541 h -10.50389 c -1.84183,0 -3.33543,-1.4936 -3.33543,-3.33541 v -23.14815 c 0,-1.77969 -1.43113,-3.22326 -3.22326,-3.22326 h -1.02047 c -1.79212,0 -3.22327,1.41872 -3.22327,3.22326 v 24.03162 c 0,5.58792 4.39317,9.64527 10.45388,9.64527 h 11.22584 c 6.06071,0 10.45387,-4.05735 10.45387,-9.64527 v -24.03162 c 0,-1.80454 -1.41871,-3.22326 -3.22326,-3.22326 h -1.02048" />
      <path
         inkscape:connector-curvature="0"
         style="fill:#8bc64a;fill-opacity:1"
         id="path2101"
         d="m 493.38949,135.83248 c -6.02342,0 -9.35884,5.10236 -9.35884,8.6369 v 4.53017 c 0,5.18966 4.25617,8.41293 8.18895,8.41293 h 13.81414 c 1.73,0 2.1034,1.1323 2.1034,2.09063 v 2.92474 c 0,0.31096 -0.0621,3.12388 -2.1034,3.12388 h -18.85437 c -1.86699,0 -3.22327,1.29415 -3.22327,3.07383 v 0.80894 c 0,1.76726 1.35628,3.07416 3.22327,3.07416 h 19.87516 c 5.20209,0 8.54961,-3.60941 8.54961,-9.20975 v -4.89082 c 0,-5.2521 -3.77061,-7.604 -7.52914,-7.604 h -13.59048 c -2.05337,0 -2.97412,-1.51845 -2.97412,-2.61348 v -2.68833 c 0,-1.70482 1.1323,-2.67559 3.11112,-2.67559 h 15.05891 c 1.8294,0 3.22327,-1.31931 3.22327,-3.07416 v -0.80893 c 0,-1.74241 -1.4063,-3.07385 -3.29813,-3.07385 h -16.21608" />
      <path
         inkscape:connector-curvature="0"
         style="fill:#8bc64a;fill-opacity:1"
         id="path2103"
         d="m 525.16212,135.83248 c -1.77938,0 -3.1484,1.319 -3.1484,3.07383 v 30.52819 c 0,1.74241 1.319,3.07416 3.08627,3.07416 h 24.33046 c 1.86699,0 3.22359,-1.29447 3.22359,-3.07416 v -0.80894 c 0,-1.76726 -1.34417,-3.07383 -3.22359,-3.07383 0,0 -19.02865,0 -19.92487,0 0,-0.7965 0,-6.98179 0,-7.77829 0.89622,0 14.59854,0 14.59854,0 1.86667,0 3.22326,-1.29446 3.22326,-3.08659 v -0.79649 c 0,-1.7797 -1.35659,-3.08627 -3.22326,-3.08627 0,0 -13.70232,0 -14.59854,0 0,-0.79649 0,-7.19334 0,-7.98983 0.89622,0 18.91682,0 18.91682,0 1.867,0 3.22359,-1.29446 3.22359,-3.07416 v -0.80892 c 0,-1.7797 -1.35659,-3.07384 -3.22359,-3.07384 h -23.24753" />
      <path
         inkscape:connector-curvature="0"
         style="fill:#8bc64a;fill-opacity:1"
         id="path2105"
         d="m 318.3093,150.35583 c -3.03665,0 -5.51327,2.36463 -5.51327,5.28937 v 11.51195 c 0,2.96201 2.3895,5.37636 5.3266,5.37636 h 7.44225 c 2.93711,0 5.33902,-2.41435 5.33902,-5.37636 V 155.6452 c 0,-2.91231 -2.4766,-5.28937 -5.51326,-5.28937 z m -1.60546,16.35305 V 156.2053 c 0,-1.23234 1.00808,-2.24039 2.24017,-2.24039 h 5.79949 c 1.20721,0 2.24014,1.02079 2.24014,2.24039 v 10.50358 c 0,1.23235 -1.00805,2.24038 -2.24014,2.24038 h -5.84929 c -1.23208,0 -2.19037,-0.98318 -2.19037,-2.24038" />
      <path
         inkscape:connector-curvature="0"
         style="fill:#8bc64a;fill-opacity:1"
         id="path2107"
         d="m 347.77981,150.21914 c -2.15309,0 -3.75857,0.77165 -5.06534,1.39387 -0.78404,0.37309 -1.46852,0.69678 -2.00367,0.69678 -0.22401,0 -0.43559,-0.0994 -0.54761,-0.27368 l -0.48535,-0.94592 c -0.11202,-0.24883 -0.60983,-0.73436 -1.23209,-0.73436 h -0.72182 c -0.69693,0 -1.26942,0.62253 -1.26942,1.40628 v 29.18433 c 0,0.90832 0.70939,1.63027 1.63033,1.63027 h 0.63471 c 0.89606,0 1.63034,-0.73437 1.63034,-1.63027 v -9.68255 c 0,-0.2861 0.18667,-0.58495 0.36091,-0.58495 0.53515,0 1.21963,0.29885 2.01613,0.67225 1.29431,0.58494 2.91222,1.33142 5.06531,1.33142 h 0.67192 c 3.79579,0 6.16044,-2.1652 6.16044,-5.65003 v -11.13855 c 0,-3.43482 -2.41435,-5.66247 -6.16044,-5.66247 h -0.68435 v 0 -0.0124 z m -7.44238,16.26576 v -10.0432 c 0,-1.38144 1.08276,-2.46436 2.46418,-2.46436 h 5.42615 c 1.38145,0 2.46405,1.08292 2.46405,2.46436 v 10.0432 c 0,1.35659 -1.09503,2.46436 -2.46405,2.46436 h -5.42615 c -1.35654,0 -2.46418,-1.10777 -2.46418,-2.46436" />
      <path
         inkscape:connector-curvature="0"
         style="fill:#8bc64a;fill-opacity:1"
         id="path2109"
         d="m 365.651,150.35583 c -3.03657,0 -5.51304,2.36463 -5.51304,5.28937 v 11.42465 c 0,2.96201 2.40191,5.47608 5.23936,5.47608 h 7.67887 c 0.94561,0 1.63028,-0.64739 1.63028,-1.54329 v -0.49798 c 0,-0.8959 -0.68467,-1.54296 -1.63028,-1.54296 h -6.29743 c -1.76727,0 -2.70076,-0.85895 -2.70076,-2.51407 0,0 0,-2.87473 0,-3.33542 0.5104,0 11.37526,0 11.37526,0 1.81697,0 2.912,-1.11987 2.912,-3.01171 v -4.43044 c 0,-2.91232 -2.47647,-5.28907 -5.51304,-5.28907 h -7.16848 l -0.0127,-0.0252 z m -1.60543,5.79946 c 0,-1.21961 0.95835,-2.19038 2.19037,-2.19038 h 5.98616 c 1.23234,0 2.19037,0.95834 2.19037,2.19038 0,0 0,3.099 0,3.55939 -0.48522,0 -9.88135,0 -10.3669,0 0,-0.46039 0,-3.55939 0,-3.55939" />
      <path
         inkscape:connector-curvature="0"
         style="fill:#8bc64a;fill-opacity:1"
         id="path2111"
         d="m 394.17581,150.21914 c -2.14066,0 -3.75851,0.75922 -5.05298,1.38145 -0.80892,0.37309 -1.5057,0.7092 -2.0658,0.7092 -0.24882,0 -0.34854,-0.0248 -0.53524,-0.36098 l -0.44795,-0.82135 c -0.24883,-0.51007 -0.68435,-0.77163 -1.28173,-0.77163 h -0.63497 c -0.7589,0 -1.30657,0.58493 -1.30657,1.40628 v 19.1408 c 0,0.90865 0.72163,1.64302 1.63027,1.64302 h 0.63465 c 0.89622,0 1.63027,-0.73437 1.63027,-1.64302 v -14.48606 c 0,-1.35659 1.10777,-2.46436 2.46437,-2.46436 h 5.42606 c 1.35659,0 2.46405,1.10777 2.46405,2.46436 v 14.48606 c 0,0.90865 0.72194,1.64302 1.63059,1.64302 h 0.63465 c 0.8959,0 1.63027,-0.73437 1.63027,-1.64302 V 155.8816 c 0,-3.43481 -2.41435,-5.66246 -6.16044,-5.66246 h -0.68435" />
    </g>
    <g
       id="g10"
       inkscape:label="openSUSElogo_rgb green"
       transform="matrix(0.41491515,0,0,-0.41491515,33.43318,124.05297)">
      <g
         clip-path="url(#clipPath16)"
         id="g14">
        <g
           transform="translate(262.6839,162.7228)"
           id="g20">
          <path
             inkscape:connector-curvature="0"
             id="path22"
             style="fill:#73ba25;fill-opacity:1;fill-rule:nonzero;stroke:none"
             d="m -10.085816,-49.826392 c 0.1749996,4.73 2.1559996,9.12 5.6139996,12.34 3.46,3.231 7.975,4.9 12.708,4.75 9.7610004,-0.349 17.4300004,-8.589 17.0950004,-18.339 -0.184,-4.73 -2.164,-9.12 -5.614,-12.329 -3.46,-3.25 -7.964,-4.92 -12.7190004,-4.76 -9.749,0.359 -17.4099996,8.58 -17.0839996,18.338 z m 47.347,-17.439 c 0.805,0.532 1.396,0.972 1.645,1.07 l 0.269,0.419 c -0.681,4.28 -7.06,25.03 -11.885,30.019 -1.329,1.36 -2.394,2.7 -4.549,3.961 -17.4550004,10.17 -58.863,16.309 -60.803,16.589 l -0.33,-0.091 -0.124,-0.3 c 0,0 -0.16,-8.58 -0.184,-9.539 -4.229,1.421 -34.972,11.351 -63.791004,12.351 -24.44,0.859 -60.033,4.0200012 -107.196,-24.981 l -1.395,-0.868 c -22.189,-13.841 -37.509,-30.91 -45.517,-50.739 -2.512,-6.24 -5.89,-20.319988 -2.542,-33.568988 1.442,-5.791 4.131,-11.61 7.756,-16.819 8.194,-11.77 21.944,-19.58 36.748,-20.899 20.905,-1.87 36.733,7.519 42.363,25.1 3.871,12.129 0,29.927 -14.839,39.006988 -12.07,7.391 -25.049,5.711 -32.578,0.73 -6.532,-4.330998 -10.231,-11.059988 -10.166,-18.450988 0.151,-13.11 11.444,-20.078 19.565,-20.099 2.359,0 4.728,0.41 7.399,1.28 0.951,0.29 1.845,0.649 2.831,1.259 l 0.309,0.181 0.194,0.13 -0.065,-0.039 c 1.851,1.261 2.964,3.312 2.964,5.511 0,0.6 -0.084,1.208 -0.256,1.82 -0.959,3.32 -4.239,5.329 -7.638,4.71 l -0.459,-0.109 -0.621,-0.19 -0.901,-0.31 c -1.87,-0.46 -3.27,-0.5 -3.569,-0.51 -0.951,0.061 -5.625,1.461 -5.625,6.58 v 0.07 c 0,1.88 0.754,3.199 1.17,3.92 1.454,2.28 5.435,4.518 10.814,4.05 7.059,-0.611 12.149,-4.231 15.52,-11.06 3.129,-6.349 2.31,-14.159 -2.11,-19.88 -4.39,-5.669 -12.205,-8.078 -22.598,-6.959 -10.481,1.159 -19.34,7.19 -24.304,16.579 -4.856,9.178 -5.121,20.059 -0.685,28.417988 10.609,20.029 30.648,19.82 41.636,17.921 16.26,-2.821 34.758,-17.82 41.319,-35.138988 1.06,-2.761 1.6,-4.949 2.072,-6.951 l 0.708,-2.99 18.37,-8.969 0.24,-0.181 0.446,0.041 0.081,0.529 c -0.114,0.411 -0.381,0.789 -0.805,5.93 -0.349,4.562 -1.06,17.051 5.228,23.24 2.441,2.41899 6.161,4.57799 9.099,5.26899 12.04,2.940998 26.159004,0.911998 39.507004,-14.53899 6.911,-7.981 10.28,-11.62 11.97,-13.249 l 0.59,-0.532 0.694,-0.519 c 0.554,-0.301 22.955,-10.621 22.955,-10.621 l 0.461,0.11 0.009,0.479 c -0.149,0.17 -14.199,18.328 -11.698,33.28 1.969,11.907988 11.447,10.829988 24.557,9.349988 4.28,-0.5 9.152,-1.06 14.196,-1.172 14.0829996,-0.089 29.254,2.511 38.604,6.601 6.049,2.63 9.909,4.38 12.328,6.579 0.87,0.721 1.32,1.891 1.791,3.15 l 0.329,0.831 c 0.391,1.021 0.967,3.171 1.219,4.35 0.102,0.519 0.162,1.068 -0.209,1.359 l -1.294,-0.24 c -4.106,-2.471 -14.369,-7.15 -23.965,-7.35 -11.91400043,-0.241 -35.898,11.98 -38.398,13.28 l -0.241,0.279 c -0.589,1.44 -4.19,9.949 -4.96,11.749 17.27,-11.379 31.59399957,-17.669 42.559,-18.639 12.207,-1.087 21.722,5.574 25.786,8.422 z m -27.153,15.799 c -3.0310004,0 -5.4790004,1.64 -5.4790004,3.65 0,2.029 2.448,3.66 5.4790004,3.66 3.031,0 5.486,-1.631 5.486,-3.66 -0.002,-2.01 -2.457,-3.65 -5.486,-3.65 m -2.0210004,13.512 c -3.311,0.119 -6.45,-1.051 -8.85000003,-3.301 -2.39899997,-2.25 -3.81399997,-5.298 -3.91399997,-8.599 -0.23,-6.821 5.11099997,-12.559 11.916,-12.81 3.3090004,-0.1 6.4640004,1.07 8.8780004,3.32 2.409,2.261 3.795,5.311 3.9,8.599 0.23,6.819 -5.109,12.549 -11.9300004,12.791 z" />
        </g>
        <g
           transform="translate(133.9789,60.2888)"
           id="g24" />
        <g
           transform="translate(206.8412,60.2888)"
           id="g28" />
        <g
           transform="translate(232.7736,60.2888)"
           id="g32" />
        <g
           transform="translate(273.7386,60.2888)"
           id="g36" />
        <g
           transform="translate(5.0529,20.4885)"
           id="g40" />
        <g
           transform="translate(35.5085,20.7779)"
           id="g44" />
        <g
           transform="translate(66.0714,34.088)"
           id="g48" />
        <g
           transform="translate(104.8947,41.74)"
           id="g52" />
        <g
           transform="translate(315.4154,18.754)"
           id="g56" />
      </g>
    </g>
  </g>
  <text
     xml:space="preserve"
     style="font-style:normal;font-weight:normal;font-size:40px;line-height:1.25;font-family:sans-serif;text-align:center;letter-spacing:0px;word-spacing:0px;writing-mode:lr-tb;text-anchor:middle;fill:#000000;fill-opacity:1;stroke:none"
     x="96.549637"
     y="218.83904"
     id="text4723"><tspan
       sodipodi:role="line"
       id="tspan4721"
       x="96.549637"
       y="218.83904"
       style="font-style:italic;font-variant:normal;font-weight:normal;font-stretch:normal;font-family:'source sans pro';-inkscape-font-specification:'source sans pro Italic';fill:#ffffff">inside</tspan></text>
</svg>
