<?xml version="1.0" encoding="UTF-8" standalone="no"?>
<!-- Created with Inkscape (http://www.inkscape.org/) -->

<svg
   width="159.147"
   height="177.78638"
   viewBox="0 0 149.20031 166.67473"
   id="svg4188"
   version="1.1"
   inkscape:version="1.2.2 (b0a8486541, 2022-12-01)"
   sodipodi:docname="leap-micro-logo.svg"
   xml:space="preserve"
   xmlns:inkscape="http://www.inkscape.org/namespaces/inkscape"
   xmlns:sodipodi="http://sodipodi.sourceforge.net/DTD/sodipodi-0.dtd"
   xmlns="http://www.w3.org/2000/svg"
   xmlns:svg="http://www.w3.org/2000/svg"
   xmlns:rdf="http://www.w3.org/1999/02/22-rdf-syntax-ns#"
   xmlns:cc="http://creativecommons.org/ns#"
   xmlns:dc="http://purl.org/dc/elements/1.1/"><defs
     id="defs4190"><rect
       x="92.38002"
       y="181.07281"
       width="191.11284"
       height="53.010761"
       id="rect423" /></defs><sodipodi:namedview
     id="base"
     pagecolor="#ffffff"
     bordercolor="#666666"
     borderopacity="1.0"
     inkscape:pageopacity="0.0"
     inkscape:pageshadow="2"
     inkscape:zoom="2.8"
     inkscape:cx="-17.5"
     inkscape:cy="136.78571"
     inkscape:document-units="px"
     inkscape:current-layer="layer1"
     showgrid="false"
     fit-margin-left="10"
     fit-margin-top="10"
     fit-margin-bottom="10"
     fit-margin-right="10"
     inkscape:window-width="1920"
     inkscape:window-height="1011"
     inkscape:window-x="0"
     inkscape:window-y="0"
     inkscape:window-maximized="1"
     inkscape:showpageshadow="2"
     inkscape:pagecheckerboard="0"
     inkscape:deskcolor="#d1d1d1"
     showguides="true"><sodipodi:guide
       position="82.596389,236.23148"
       orientation="0,-1"
       id="guide269"
       inkscape:locked="false" /><sodipodi:guide
       position="103.14311,203.10672"
       orientation="0,-1"
       id="guide271"
       inkscape:locked="false" /><sodipodi:guide
       position="74.746389,243.84932"
       orientation="1,0"
       id="guide742"
       inkscape:locked="false" /></sodipodi:namedview><metadata
     id="metadata4193"><rdf:RDF><cc:Work
         rdf:about=""><dc:format>image/svg+xml</dc:format><dc:type
           rdf:resource="http://purl.org/dc/dcmitype/StillImage" /></cc:Work></rdf:RDF></metadata><g
     inkscape:label="Layer 1"
     inkscape:groupmode="layer"
     id="layer1"
     transform="translate(161.45,-411.6622)"><g
       transform="translate(-419.45,382.3622)"
       id="g21"><g
         id="g23" /></g><text
       xml:space="preserve"
       transform="matrix(0.9375,0,0,0.9375,-263.60113,374.83171)"
       id="text421"
       style="font-size:33.3333px;font-family:'Source Sans Pro';-inkscape-font-specification:'Source Sans Pro';text-align:center;white-space:pre;shape-inside:url(#rect423);display:inline;fill:#df7320;fill-opacity:1"><tspan
         x="112.55325"
         y="210.2389"
         id="tspan1301">Leap Micro</tspan></text><path
       d="m -86.849901,411.6622 a 4.6629609,4.6629609 0 0 0 -3.296564,1.36592 l -45.258845,45.25884 h -21.3822 a 4.662495,4.662495 0 0 0 -4.66249,4.6625 4.662495,4.662495 0 0 0 4.66249,4.66249 h 21.3822 l 45.258845,45.25884 a 4.6629609,4.6629609 0 0 0 6.593225,0 l 45.258853,-45.25884 h 21.382203 a 4.662495,4.662495 0 0 0 4.662494,-4.66249 4.662495,4.662495 0 0 0 -4.662494,-4.6625 H -38.294387 L -83.55324,413.02812 a 4.6629609,4.6629609 0 0 0 -3.296555,-1.36592 z m 0,11.25526 40.032197,40.03218 -40.032197,40.03218 -40.032169,-40.03218 z m 0,21.38221 a 18.649979,18.649979 0 0 0 -18.649969,18.64997 18.649979,18.649979 0 0 0 18.649969,18.64998 18.649979,18.649979 0 0 0 18.649995,-18.64998 18.649979,18.649979 0 0 0 -18.649995,-18.64997 z m 0,9.32498 a 9.3249899,9.3249899 0 0 1 9.324973,9.32499 9.3249899,9.3249899 0 0 1 -9.324973,9.325 9.3249899,9.3249899 0 0 1 -9.324996,-9.325 9.3249899,9.3249899 0 0 1 9.324996,-9.32499 z m -46.624939,27.97497 a 4.662495,4.662495 0 0 0 -3.29658,1.36592 4.662495,4.662495 0 0 0 0,6.59324 l 49.921338,49.92134 49.921346,-49.92134 a 4.662495,4.662495 0 0 0 0,-6.59324 4.662495,4.662495 0 0 0 -6.593252,0 l -43.328554,43.32857 -43.328578,-43.32857 a 4.662495,4.662495 0 0 0 -3.29655,-1.36592 z"
       fill="#df7320"
       id="path27"
       style="fill:#df7320;fill-opacity:1;stroke-width:4.66249" /></g></svg>
