<?xml version="1.0" encoding="UTF-8" standalone="no"?>
<svg
   xmlns:dc="http://purl.org/dc/elements/1.1/"
   xmlns:cc="http://creativecommons.org/ns#"
   xmlns:rdf="http://www.w3.org/1999/02/22-rdf-syntax-ns#"
   xmlns:svg="http://www.w3.org/2000/svg"
   xmlns="http://www.w3.org/2000/svg"
   id="svg3390"
   version="1.1"
   width="964.01599"
   height="851.81201"
   viewBox="0 0 964.01599 851.81201">
  <metadata
     id="metadata3396">
    <rdf:RDF>
      <cc:Work
         rdf:about="">
        <dc:format>image/svg+xml</dc:format>
        <dc:type
           rdf:resource="http://purl.org/dc/dcmitype/StillImage" />
        <dc:title></dc:title>
      </cc:Work>
    </rdf:RDF>
  </metadata>
  <defs
     id="defs3394" />
  <path
     style="fill:#000000;fill-opacity:0.99543379"
     d="m 610.71093,0.00338 c -4.08379,0.47963 -5.16343,4.24662 -3.6914,12.88477 0.58577,3.4375 1.24328,8.21875 1.46093,10.625 0.21766,2.40625 0.82957,8.72134 1.35938,14.03515 0.87967,8.82261 0.75835,9.7355 -1.39453,10.4961 -1.29665,0.4581 -5.32728,2.15659 -8.95703,3.77539 -3.62974,1.6187 -6.80638,2.94336 -7.0586,2.94336 -0.25222,0 -10.50112,4.2612 -22.77539,9.4707 -21.87807,9.2855 -22.61403,9.49834 -37.39844,10.77734 l -15.08007,1.30469 -14.85352,-6.40234 c -8.16917,-3.5208 -15.30186,-6.40039 -15.85156,-6.40039 -0.5497,0 -7.04853,-4.74086 -14.44141,-10.53516 -8.71932,-6.834 -16.28999,-14.11244 -21.54883,-20.7168 -11.64851,-14.62889 -11.74711,-14.67483 -10.73828,-4.96875 1.2781,12.29678 11.95915,38.4008 20.32813,49.6836 3.70764,4.9985 7.05892,9.9204 7.44922,10.9375 0.89647,2.3365 -0.51612,2.33595 -22.05664,-0.0273 -43.28446,-4.7484 -74.54358,-14.55153 -93.42969,-29.30273 -6.97317,-5.4465 -9.81098,-7.04359 -10.10352,-5.68359 -0.22372,1.0402 1.23267,3.9957 3.23438,6.5664 2.00172,2.5706 6.08502,9.30395 9.07422,14.96485 3.06526,5.8049 9.66226,15.1264 15.13086,21.3789 8.84807,10.1163 10.63161,11.5073 20.39453,15.9043 5.88428,2.6501 10.6801,5.40449 10.6582,6.12109 -0.12523,4.1041 -3.63261,5.47297 -20.62109,8.04297 -12.84544,1.92312 -26.64255,3.45298 -40.58008,4.10938 -21.51432,-0.73975 -48.60551,-9.9721 -79.58985,-20.73243 59.32695,41.6275 66.36819,44.07393 67.12305,43.60743 2.46143,0.9665 5.42058,3.0869 8.08399,3.9414 3.78125,1.1919 6.875,2.55279 6.875,3.02539 0,0.4726 -2.46457,1.54928 -5.47657,2.39258 -4.51818,3.2164 -13.26776,2.90648 -25.94726,10.42578 -18.50644,6.308 -40.55981,6.22042 -60.42578,7.25781 -27.21509,1.44611 -28.98425,1.34995 -60.65039,-3.31445 l -4.375,-0.64453 5.26367,2.45117 c 2.89528,1.3481 10.88954,6.20838 17.76562,10.80078 10.68907,7.1391 14.82017,9.05575 28.48633,13.21485 10.86815,3.29154 25.27403,6.29611 38.17188,9.21289 6.70312,1.2012 12.1875,2.67885 12.1875,3.28515 0,0.6063 -0.44463,1.10352 -0.98828,1.10352 -0.54367,0 -23.46555,5.13175 -50.9375,11.40625 l -49.94922,11.4082 -20,-1.28515 c -11,-0.7071 -20.09568,-1.19715 -20.21289,-1.08985 -0.11725,0.1072 2.90147,3.84826 6.70898,8.31446 6.06924,7.119 8.25285,8.69164 17.71289,12.74804 13.05429,5.3955 19.27536,7.75785 30.16602,9.12305 11.99456,1.2578 33.74897,4.81357 33.73437,5.51367 -0.009,0.4049 -9.14908,2.91413 -20.3125,5.57813 -13.49601,3.23356 -30.88726,8.7159 -46.99609,11.51172 -6.43464,1.6612 -15.29401,3.02148 -19.6875,3.02148 -5.49824,0.7534 -19.49024,0.13102 -30.4336,0.16602 l -20.472646,0.0898 -18.978518,-8.97656 c -18.43441,-8.7183 -19.130709,-8.93648 -24.167969,-7.58008 -2.85253,0.7681 -5.185547,1.92707 -5.185547,2.57617 0,0.6491 1.396116,2.73607 3.103516,4.63867 1.7074,1.9025 5.310632,6.28669 8.007812,9.74219 3.87334,4.9619 9.186651,8.88138 25.275391,18.64648 17.191761,10.38108 37.897171,16.99252 53.613281,16.94532 l 10.9375,0.0879 c 17.91166,0.1438 17.88605,1.20416 -0.1875,7.82226 -10.01545,3.6675 -18.00877,5.83985 -21.47657,5.83985 -21.6177,0.95143 -46.030819,-1.66967 -68.974602,-8.8418 -23.7242,-5.9986 -24.18886,-6.1795 -31.875,-12.4707 -4.28992,-3.5113 -8.651497,-7.04286 -9.693359,-7.84766 -1.04185,-0.8049 -4.942188,-3.99374 -8.6679686,-7.08594 L 0,300.39598 l 4.7519534,9.04297 c 3.267736,6.16524 7.9335596,13.83071 11.7656246,20.6914 0.0437,0.5453 5.521918,6.8295 12.173828,13.96289 6.337784,6.77056 11.270722,11.68901 18.796875,17.36719 5.170147,2.45977 4.584865,3.0185 18.044922,8.96485 12.168576,6.10023 15.054187,4.82014 34.929687,7.79882 16.16227,-0.8449 20.24091,-1.46196 24.60351,-3.72656 8.9337,-9.4264 19.18292,-12.39664 30.47461,-17.89844 2.14659,-1.11 4.08887,-1.83497 4.31445,-1.60937 0.22556,0.2255 -3.19958,5.33361 -7.61132,11.34961 -8.31987,10.5644 -10.43453,24.33758 -12.89063,35.67578 -0.76508,3.6438 -2.25004,8.2844 -3.29883,10.3125 -0.69016,2.814 -6.69443,15.47945 -6.84179,18.25195 0,0.706 31.71317,-0.70007 48.97851,-2.17187 9.54362,-0.8136 17.60533,-1.22476 17.91602,-0.91406 1.13995,1.1399 -1.75059,23.32481 -4.99414,38.32421 -1.8349,8.4853 -3.15467,15.59539 -2.93164,15.80079 0.59431,0.5471 23.7231,-2.66087 26.65625,-3.69727 1.375,-0.4859 3.625,-1.35399 5,-1.92969 1.375,-0.5757 4.62542,-1.39827 7.22265,-1.82617 7.80859,-3.5214 13.9214,-3.25819 20.90235,-7.36719 7.62164,-4.5131 9.42926,-5.16437 9.66992,-3.48047 0.16283,1.1391 -2.4028,11.07227 -5.70313,22.07227 l -6.00195,20 7.89258,0.36914 c 9.7899,0.4585 9.9398,1.41205 1.86523,11.84375 -3.31454,4.2821 -11.25679,14.97135 -17.65039,23.75195 l -11.625,15.96485 3.44531,4.97265 c 2.55613,3.6885 4.29122,4.95974 6.71485,4.92774 5.61871,-0.076 19.4319,-3.44798 19.90234,-4.85938 0.86189,-2.5856 2.20956,-1.31805 2.48828,2.33985 0.4045,5.3086 -3.12766,13.39677 -9.34375,21.39257 -2.97289,3.824 -5.40429,7.63305 -5.40429,8.46485 0,0.8319 -2.25,5.98753 -5,11.45703 -2.75,5.4695 -5,10.78967 -5,11.82227 0,1.0325 -2.20128,4.78273 -4.89063,8.33593 -5.77493,7.4003 -8.92215,11.38506 -13.20312,18.47266 -0.73886,1.2448 -0.58325,1.47094 0.53906,0.77734 0.87059,-0.5381 1.94211,-0.41752 2.38086,0.26758 0.43876,0.6852 6.70508,2.62219 13.92383,4.30469 l 13.125,3.05859 16.51367,-6.40625 c 9.08232,-3.5236 17.56335,-7.35723 18.84765,-8.51953 5.27594,-4.7748 5.47777,-0.98547 0.26368,4.95313 -2.0625,2.349 -3.75,5.66434 -3.75,7.36914 0,1.7047 -1.96875,7.98182 -4.375,13.94922 -2.40625,5.9674 -4.375,12.36273 -4.375,14.21093 0,1.8481 -3.9676,11.02563 -8.81641,20.39453 -4.8488,9.3689 -8.51701,17.51743 -8.15234,18.10743 0.57189,0.9254 5.2046,1.72794 19.46875,3.37304 1.71875,0.1982 5.65625,0.85479 8.75,1.45899 4.16551,0.8134 9.03047,0.45966 18.75,-1.36524 7.21875,-1.3553 13.40625,-2.79752 13.75,-3.20312 0.34375,-0.4055 3.56719,-0.89279 7.16406,-1.08399 l 6.54101,-0.34765 0.33399,29.64059 0.33594,29.6426 7.94336,-10.5449 c 6.99301,-9.2816 9.23844,-11.2781 18.75,-16.6817 5.94308,-3.3763 12.00522,-6.2739 13.4707,-6.4375 3.3839,-0.3778 22.88433,-14.3996 22.92773,-16.4863 0.0179,-0.8594 1.20715,-1.5625 2.64258,-1.5625 2.722,0 2.75904,1.4639 0.34961,14.0625 -0.7574,5.0743 -1.72999,7.9238 -1.14062,12.6446 0.59679,4.545 3.32079,36.5093 3.60937,42.3554 -0.20032,11.1176 -1.71659,24.2913 2.07813,36.5781 0.28406,5.0772 8.47094,19.1286 13.00195,22.6563 -0.90355,-7.4625 0.89579,-15.4953 3.81641,-25.4844 0.47271,-3.2657 3.0682,-11.4785 5.76562,-18.25 5.39643,-13.661 9.60733,-32.992 18.67188,-47.7187 0.006,-0.6704 1.39496,-4.0313 3.08593,-7.4688 1.69096,-3.4375 3.09178,-6.9532 3.11328,-7.8125 0.0894,-3.5724 2.43789,-1.1449 4.53516,4.6875 5.21425,8.7453 6.5698,18.7301 10.10547,26.6094 7.57385,16.7706 9.54937,19.9578 7.80859,12.6055 -0.6303,-2.6622 -1.48117,-13.8399 -1.89062,-24.8399 -0.6133,-16.4765 -0.39608,-20.9591 1.23437,-25.4453 9.00758,-30.59579 10.15575,-28.62132 19.35742,-56.23632 3.52267,-15.5871 10.72893,-32.58536 15.26368,-46.13086 0.9625,-2.922 2.23084,-5.341 2.81836,-5.375 0.58752,-0.034 4.96185,8.2632 9.7207,18.4375 13.53193,28.9313 12.5649,27.5198 11.80664,17.25 -2.03104,-27.5081 -2.05512,-38.41091 -0.12305,-56.75391 1.17308,-11.1371 2.75261,-20.28863 3.7461,-21.70703 2.70424,-11.5515 10.91979,-21.70159 15.70703,-31.58789 7.11943,-14.7551 13.15572,-26.82617 13.41211,-26.82617 0.25639,0 1.30859,0.8438 2.33984,1.875 1.03124,1.0313 1.5732,1.875 1.20508,1.875 -1.00275,0 7.7498,17.61536 16.19531,32.59766 6.85554,8.8534 8.14531,14.37004 11.18164,19.90234 l 1.77539,3.125 0.0176,-3.125 c 0.0271,-4.9506 -4.74967,-45.1625 -5.93945,-50 -0.96603,-3.9276 -0.18245,-6.2281 7.65234,-22.5 6.65468,-13.8209 8.6699,-19.25481 8.48828,-22.87891 2.25849,-8.57586 7.19568,-14.09639 12.25782,-20.41797 2.594,0.1482 3.32478,1.28497 5.27343,8.19727 2.05535,7.2908 6.32142,15.14441 20.08594,36.97461 2.60091,4.125 4.73519,6.5157 4.74219,5.3125 -0.0226,-2.59965 -3.4556,-5.64024 -2.04688,-9.31836 -2.62525,-9.9839 -2.88107,-20.63839 -4.22461,-29.68359 -1.85712,-12.3754 -2.4102,-19.73099 -1.71875,-22.89649 2.42598,-12.39897 8.00288,-22.98791 11.75196,-36.17383 0,-1.0642 2.81818,-5.73706 6.26367,-10.38476 4.22645,-7.6633 6.79714,-8.76996 11.86133,-15.35156 9.77497,-12.87987 11.64968,-16.61153 31.38672,-21.75782 5.42495,-2.5458 10.14453,-4.67065 10.48828,-4.72265 14.28828,-6.485 24.125,-9.58292 35.66211,-12.54102 12.65621,-3.5843 40.43084,-6.29038 83.59961,-8.14648 22.40411,4.6351 40.68396,-3.30796 61.63671,-3.68946 6.73875,-0.8918 9.97064,-2.09998 17.22657,-3.17578 15.16484,-2.2302 15.745,-2.54866 25,-13.66406 4.8125,-5.7799 8.74432,-11.2511 8.73632,-12.1582 -0.01,-0.9071 1.50569,-4.1677 3.36329,-7.2461 1.8576,-3.0784 2.54242,-5.6051 2.32812,-6.25 -0.577,-1.7355 -1.4345,-4.02734 -1.9043,-8.15234 -1.0421,-9.1489 -1.75285,-11.875 -3.09765,-11.875 -0.5667,0 -1.37367,1.36641 -1.79297,3.03711 -0.41931,1.6707 -1.47691,3.78 -2.34961,4.6875 -0.8728,0.9075 -3.44871,4.58317 -5.72461,8.16797 -3.7483,5.9044 -14.0422,14.10742 -17.70313,14.10742 -3.1132,0.9879 -4.53175,-0.90297 -8.49414,-1.82227 -6.35112,-1.395 -12.03,-7.26567 -13.83203,-14.29687 -1.14994,-4.4868 -2.25026,-6.3698 -3.70703,-6.3418 -6.60958,4.0542 -13.01043,11.46134 -16.29297,15.99414 -2.48874,3.4952 -3.52509,3.9668 -8.71093,3.9668 -8.81441,0 -10.93114,-2.13507 -13.33204,-13.45117 -2.97806,-14.0365 -2.72501,-13.59783 -6.0371,-10.48633 -1.57324,1.478 -3.78175,2.6875 -4.90821,2.6875 -3.93155,1.2406 -11.47917,5.80819 -14.83789,8.05859 -2.3862,1.6215 -5.99378,3.14402 -8.01758,3.38282 -3.44288,0.4061 -3.72297,0.11179 -4.35351,-4.56641 -0.37065,-2.75 -1.99003,-7.7128 -3.59766,-11.0293 -1.60765,-3.3164 -2.92187,-7.3946 -2.92187,-9.0625 0,-2.6821 -0.55328,-3.0332 -4.78711,-3.0332 -3.24693,0 -5.74792,0.9048 -7.77149,2.8125 -8.05419,7.5929 -15.96788,13.4375 -18.19531,13.4375 -3.63408,3.17998 -4.21164,2.77836 -9.50977,-1.25 -2.65153,-0.6473 -10.67382,-7.8153 -10.67382,-10.5 0,-2.9918 -1.27567,-2.4608 -5.70508,2.375 -2.82394,3.083 -5.1043,4.0568 -7.65235,4.375 -2.00415,0.2502 -4.05182,0.77196 -4.83007,1.16016 -1.43464,0.7156 -9.81235,0.0343 -14.63868,-1.83594 -4.02339,-2.3729 -5.19803,-1.88005 -8.375,-4.56055 -4.83069,-7.1325 -1.08896,-1.99747 -6.39843,-8.57617 -2.0289,-1.2539 -5.97863,-0.43525 -12.97071,2.68555 -2.71958,1.2138 -5.36361,1.94686 -5.875,1.63086 0.0863,-15.9142 1.58082,-17.31237 2.87305,-21.04297 1.63,-5.1467 4.80533,-9.87887 13.00391,-19.38477 12.64697,-14.6635 15.56836,-15.89015 15.56836,-6.53515 0,3.3229 -0.3964,6.43747 -0.88086,6.92187 -0.48447,0.4845 -0.95989,3.81318 -1.05469,7.39649 -0.0949,3.5832 -0.5718,8.27638 -1.06055,10.42968 -0.70661,3.113 -0.2974,4.57593 1.99219,7.14063 1.58368,1.774 4.41569,3.58604 6.29492,4.02734 2.94713,0.6921 4.32499,-0.11782 10.02344,-5.89062 3.63359,-3.6811 8.20804,-9.24027 10.16601,-12.35547 3.38325,-5.3827 8.73117,-9.34511 10.84766,-8.03711 0.53804,0.3326 1.34053,2.25413 1.7832,4.26953 1.39421,4.771 -0.34117,6.37528 0.17969,9.89258 0.5956,0.4338 1.69382,1.89183 2.43945,3.24023 4.79499,4.5614 17.20637,12.08183 22.11133,7.23633 1.08867,-1.2032 3.09968,-4.80189 4.46875,-7.99609 2.01518,-4.7015 3.36414,-6.09522 7.08789,-7.32422 4.49982,-1.4851 3.94957,-0.48541 9.83594,3.61914 9.22569,5.62974 6.14204,6.9374 12.79297,18.67383 3.33652,-1.5875 9.07024,-2.99386 11.76758,-7.59766 1.67985,-4.2987 5.67185,-8.2563 10.23047,-9.0957 4.10795,-0.7563 5.05713,-0.41898 8.125,2.88672 6.11193,6.5857 6.59961,7.38928 6.59961,10.89648 3.94777,7.1985 3.81387,10.5756 6.54687,9.9707 3.66182,-0.9191 14.04361,-9.25698 18.42969,-14.80078 1.70604,-2.1564 5.60825,-6.4035 8.67187,-9.4375 l 5.57032,-5.51562 1.11914,3.01562 c 1.53369,4.1311 3.1442,7.09794 9.52734,17.55664 l 5.49023,8.99805 -1.42773,7.75 c -1.92485,10.4466 -1.90043,10.58789 1.86914,10.58789 2.57823,0 6.91449,-3.66679 19.87109,-16.80469 9.11481,-9.2421 18.45788,-17.59911 20.76368,-18.57031 2.3059,-0.9712 6.54351,-4.05692 9.41601,-6.85742 4.0513,-3.9497 5.41201,-6.35145 6.06641,-10.71485 0.4639,-3.0937 0.52035,-6.1467 0.12695,-6.7832 -0.3934,-0.6366 -0.79428,-6.44119 -0.89258,-12.90039 -0.2047,-13.4407 -3.62986,-27.08337 -10.57226,-42.10937 -2.3793,-5.1496 -4.32617,-10.20001 -4.32617,-11.22461 0,-1.5805 -3.36022,-11.48443 -11.38282,-30.01563 -4.8926,-15.5431 -11.41896,-30.892 -19.79296,-42.5918 C 908.28498,85.04213 894.13336,73.89028 883.9082,70.28268 825.44588,37.969 698.12366,-0.49783 610.71093,0.00533 Z m 209.75196,78.02539 c 13.45794,0.038 17.01191,0.5018 25.625,3.34571 17.61917,5.8175 34.00741,17.60622 40.77148,29.32812 6.60604,10.1761 4.21518,5.77347 8.23633,16.32617 4.25432,11.0685 5.31396,30.57048 2.34765,43.20508 -8.91131,37.9572 -48.45126,64.24248 -87.55664,58.20508 -32.44423,-5.0089 -54.56628,-22.20765 -65.4375,-50.87305 -2.78797,-7.3514 -3.20587,-10.42018 -3.26367,-24.05078 -0.0585,-13.8142 0.31319,-16.66298 3.19531,-24.58398 l 3.25977,-8.96094 c 17.21528,-27.3338 37.26521,-35.01694 47.61328,-38.68164 8.41161,-2.9004 11.49593,-3.29877 25.20899,-3.25977 z m -2.5293,22.53711 c -8.27664,0.029 -16.57971,1.4007 -24.19531,4.25 -14.7528,5.5198 -26.73691,20.93779 -29.50782,37.96289 -2.57805,15.8401 3.81983,34.91821 15.45118,46.07031 10.25891,9.8361 32.75375,19.01617 43.28125,17.66407 1.71875,-0.2208 5.69333,-0.72329 8.83398,-1.11719 8.86988,-1.1126 20.26752,-7.17174 27.67188,-14.71094 8.50089,-8.6557 12.81956,-13.98247 13.05664,-16.10547 0.10375,-0.9292 1.15938,-5.34575 2.34375,-9.81445 4.53755,-17.1206 0.76293,-34.13853 -10.28321,-46.36523 -10.36074,-11.4681 -28.44374,-17.89799 -46.65234,-17.83399 z m 18.19336,26.16406 c 2.316,0.0146 4.35108,0.20161 5.81445,0.59571 7.13957,1.9225 13.9375,8.51151 13.9375,13.50781 0,10.5366 -19.2002,19.43827 -32.92383,15.26367 -9.15392,-2.7845 -16.24218,-9.09353 -16.24218,-14.45703 0,-3.5353 4.16793,-8.88083 8.78711,-11.26953 4.19813,-2.171 13.67898,-3.68463 20.62695,-3.64063 z M 263.56445,255.8569 c 2.66673,0.054 5.33327,0.34667 8,0.875 10.69171,2.11329 16.03906,7.92374 16.03906,17.43359 0.17364,1.72906 -0.18704,3.92616 -1.08008,6.5918 -1.73647,5.30726 -5.23315,10.23074 -10.49218,14.76953 2.55509,2.2814 5.48194,5.77553 8.78125,10.48242 4.29156,6.12377 8.06281,10.72299 11.3125,13.79688 5.80478,5.47536 11.11326,7.73207 15.92578,6.77148 -0.22327,0.50431 -0.88116,1.02051 -1.97266,1.54883 -2.13338,1.05665 -5.33285,1.58594 -9.59961,1.58594 -4.26676,0 -9.45222,-3.5426 -15.55469,-10.62696 -3.05123,-3.55418 -5.66856,-7.10792 -7.85156,-10.66211 -0.96746,-1.70505 -2.59277,-3.39904 -4.875,-5.08008 -4.56444,-3.41009 -10.10864,-5.11523 -16.63281,-5.11523 v 24.71094 c 0.14884,1.99322 1.26584,3.7226 3.34961,5.1875 1.04188,0.72044 2.07081,1.24973 3.08789,1.58594 h -21.69336 c 1.01708,-0.33621 2.04601,-0.8655 3.08789,-1.58594 2.08377,-1.4649 3.20078,-3.19428 3.34961,-5.1875 v -59.75977 c -0.14883,-1.96921 -1.26584,-3.68549 -3.34961,-5.15039 -1.04188,-0.74445 -2.07081,-1.28488 -3.08789,-1.62109 h 15.25586 c 2.66672,-0.42026 5.33327,-0.60482 8,-0.55078 z m 90.9043,0.082 -2.86524,13.47265 c -0.0992,-1.34482 -0.50716,-2.67918 -1.22656,-4 -1.41399,-2.68965 -3.66029,-4.0332 -6.73633,-4.0332 h -14.47461 v 27.5918 h 15.92578 c 3.07604,-0.072 5.60726,-0.88826 7.5918,-2.44922 l -1.86133,14.44531 c -0.0496,-1.32082 -0.48218,-2.62898 -1.30078,-3.92578 -1.63725,-2.59359 -4.36726,-3.89062 -8.1875,-3.89062 h -12.16797 v 27.37695 c 0.81863,1.03263 1.98484,2.06502 3.49805,3.09766 3.05123,2.06527 6.33877,3.09765 9.86133,3.09765 3.54737,0 6.8595,-1.62129 9.93554,-4.86328 1.53802,-1.633 2.71653,-3.25429 3.53516,-4.86328 l -1.52734,12.7168 h -40.63282 c 1.06669,-0.36023 2.14678,-0.92489 3.23828,-1.69336 2.183,-1.58498 3.27344,-3.44668 3.27344,-5.58399 0,-3.4101 -0.0369,-23.47478 -0.11133,-60.19336 -1.1163,-2.20935 -3.69673,-3.87716 -7.74023,-5.00586 h 39.10742 z m 5.80468,0 h 24.70899 c -3.74582,1.05665 -6.32626,2.68907 -7.74024,4.89844 v 59.50976 c 0.81863,1.05665 2.00945,2.11327 3.57227,3.16992 3.07603,2.08929 6.42509,3.13282 10.04687,3.13282 3.59698,0 6.95833,-1.64553 10.08399,-4.93555 1.56282,-1.65702 2.76595,-3.30059 3.60937,-4.9336 l -1.5625,12.93165 h -41.3789 c 1.1163,-0.36023 2.221,-0.93603 3.3125,-1.72852 2.20779,-1.60899 3.31054,-3.49492 3.31054,-5.65625 0,-3.48214 -0.0369,-23.90647 -0.11132,-61.27344 -1.1163,-2.25739 -3.73364,-3.96253 -7.85157,-5.11523 z m 89.82618,0 -2.86524,13.47265 c -0.0992,-1.34482 -0.50912,-2.67918 -1.22852,-4 -1.41398,-2.68965 -3.65833,-4.0332 -6.73437,-4.0332 h -14.47461 v 27.5918 h 15.92578 c 3.07604,-0.072 5.60726,-0.88826 7.5918,-2.44922 l -1.86133,14.44531 c -0.0496,-1.32082 -0.48414,-2.62898 -1.30273,-3.92578 -1.63725,-2.59359 -4.36531,-3.89062 -8.18555,-3.89062 h -12.16797 v 27.37695 c 0.81863,1.03263 1.98483,2.06502 3.49805,3.09766 3.05123,2.06527 6.33682,3.09765 9.85937,3.09765 3.54737,0 6.85951,-1.62129 9.93555,-4.86328 1.53802,-1.633 2.71654,-3.25429 3.53516,-4.86328 l -1.52539,12.7168 h -40.63282 c 1.06669,-0.36023 2.14483,-0.92489 3.23633,-1.69336 2.18299,-1.58498 3.27539,-3.44668 3.27539,-5.58399 0,-3.4101 -0.0369,-23.47478 -0.11133,-60.19336 -1.1163,-2.20935 -3.69673,-3.87716 -7.74023,-5.00586 h 39.10742 z m 41.63867,0 c 17.71203,41.73766 27.4477,64.251 29.20898,67.54101 1.0915,2.06528 2.8541,3.72194 5.28516,4.97071 1.21553,0.62438 2.31827,1.04558 3.31054,1.26172 h -24.07421 c 1.16592,-1.60899 3.11305,-2.78679 5.84179,-3.53125 L 501.52343,301.7221 H 480.5 l -8.03711,23.30664 c 0,1.41687 0.97971,2.63006 2.93945,3.63867 0.96746,0.4803 1.93488,0.82879 2.90234,1.04493 h -22.32617 c 3.22488,-0.40826 5.793,-1.65681 7.70313,-3.7461 0.96746,-1.05665 1.61305,-2.06675 1.93554,-3.02734 z m 57.41406,0 c 5.30864,0 9.31559,0.46772 12.01953,1.40429 1.36437,0.45629 2.1822,0.924 2.45508,1.4043 l -2.34375,12.75196 c 0,-2.52155 -0.90591,-5.00557 -2.7168,-7.45508 -2.30703,-3.04988 -5.35691,-4.57618 -9.15234,-4.57618 -4.16754,0 -7.35666,0.81622 -9.56445,2.44922 -2.10858,1.60899 -3.16211,3.86765 -3.16211,6.77344 0,4.80296 4.34107,10.66188 13.02343,17.57813 5.30865,4.20258 8.84419,7.30169 10.60547,9.29492 3.77063,4.2266 5.65625,8.49961 5.65625,12.82226 0,6.84422 -3.21372,12.32121 -9.63867,16.42774 -5.135,3.26601 -10.5173,4.89844 -16.14844,4.89844 -3.59698,0 -6.72263,-0.87778 -9.37695,-2.63086 -1.33957,-0.88855 -2.30698,-1.77552 -2.90234,-2.66407 -0.42172,-3.50615 -0.0384,-7.85383 1.15234,-13.04101 0,4.73091 1.7872,8.33312 5.35937,10.80664 2.70394,1.87315 5.80498,2.81055 9.30274,2.81055 3.15046,0 6.30071,-1.02125 9.45117,-3.0625 3.6466,-2.35345 5.4707,-5.2102 5.4707,-8.57227 0,-3.31404 -1.46537,-6.76165 -4.39257,-10.33984 -1.88531,-2.28141 -5.44351,-5.67859 -10.67774,-10.19336 -5.11019,-4.3947 -8.59653,-7.79384 -10.45703,-10.19532 -2.80316,-3.55418 -4.20508,-7.16754 -4.20508,-10.84179 0,-4.27463 1.77491,-7.92531 5.32227,-10.95117 3.84505,-3.26601 8.81746,-4.89844 14.91992,-4.89844 z m 60.95117,0 -2.86523,13.47265 c -0.0992,-1.34482 -0.50913,-2.67918 -1.22852,-4 -1.41398,-2.68965 -3.65833,-4.0332 -6.73437,-4.0332 h -14.47461 v 27.5918 h 15.92578 c 3.07604,-0.072 5.6053,-0.88826 7.58984,-2.44922 l -1.85937,14.44531 c -0.0497,-1.32082 -0.48415,-2.62898 -1.30274,-3.92578 -1.63724,-2.59359 -4.36531,-3.89062 -8.18554,-3.89062 h -12.16797 v 27.37695 c 0.81862,1.03263 1.98483,2.06502 3.49804,3.09766 3.05124,2.06527 6.33682,3.09765 9.85938,3.09765 3.54737,0 6.85951,-1.62129 9.93555,-4.86328 1.53802,-1.633 2.71653,-3.25429 3.53515,-4.86328 l -1.52539,12.7168 H 569.4707 c 1.06669,-0.36023 2.14483,-0.92489 3.23633,-1.69336 2.183,-1.58498 3.27539,-3.44668 3.27539,-5.58399 0,-3.4101 -0.0389,-23.47478 -0.11328,-60.19336 -1.11631,-2.20935 -3.69478,-3.87716 -7.73829,-5.00586 h 39.10743 z m -346.50195,3.34961 c -3.59699,0 -5.61794,0.0969 -6.06445,0.28906 -1.11631,0.45628 -1.67383,1.99177 -1.67383,4.60938 0,3.81835 -0.10038,13.44913 -0.29883,28.89062 h 12.72656 c 1.73648,-0.072 3.47251,-0.72056 5.20899,-1.94531 3.44813,-2.44951 5.17187,-6.59215 5.17187,-12.42774 0,-6.36391 -1.77295,-11.35814 -5.32031,-14.98437 -2.90239,-2.95382 -6.15302,-4.43164 -9.75,-4.43164 z m 227.57812,13.07617 -9.48828,24.85547 18.67969,0.0723 z m -103.9414,65.50391 h 10.85351 c -0.50539,0.12732 -1.02269,0.33328 -1.55273,0.61523 -1.03543,0.55481 -1.5901,1.20799 -1.66406,1.96289 v 22.7832 c 0.074,0.7549 0.62863,1.41004 1.66406,1.96485 0.53004,0.28195 1.04734,0.4879 1.55273,0.61523 h -10.85351 c 0.50538,-0.12733 1.01743,-0.33328 1.53515,-0.61523 1.04776,-0.55481 1.60768,-1.20995 1.68164,-1.96485 v -22.7832 c -0.074,-0.7549 -0.63388,-1.40808 -1.68164,-1.96289 -0.51772,-0.28195 -1.02977,-0.48791 -1.53515,-0.61523 z m 21.26367,0 c 2.63788,0 4.62711,0.17849 5.9707,0.5332 0.67796,0.17281 1.08511,0.34935 1.2207,0.53125 l -1.16406,4.83008 c 0,-0.955 -0.44977,-1.89652 -1.34961,-2.82422 -1.14637,-1.15509 -2.66286,-1.73242 -4.54883,-1.73242 -2.07086,0 -3.65489,0.30926 -4.75195,0.92773 -1.04776,0.60938 -1.57226,1.46394 -1.57226,2.56445 0,1.81904 2.15836,4.0388 6.47265,6.65821 2.63789,1.59165 4.39435,2.76463 5.26953,3.51953 1.87364,1.60075 2.81055,3.21834 2.81055,4.85547 0,2.59211 -1.59649,4.66738 -4.78906,6.22265 -2.5516,1.23694 -5.22727,1.85547 -8.02539,1.85547 -1.78735,0 -3.33926,-0.33214 -4.65821,-0.99609 -0.66562,-0.33652 -1.14752,-0.67324 -1.44336,-1.00977 -0.20955,-1.32789 -0.0174,-2.9749 0.57422,-4.93945 0,1.79175 0.88709,3.15695 2.66211,4.09375 1.3436,0.70942 2.885,1.06445 4.62305,1.06445 1.56547,0 3.12985,-0.38707 4.69531,-1.16015 1.81201,-0.89133 2.71875,-1.97473 2.71875,-3.24805 0,-1.25513 -0.7271,-2.55888 -2.18164,-3.91406 -0.93681,-0.86404 -2.70573,-2.15144 -5.30664,-3.86133 -2.53927,-1.66442 -4.27082,-2.95181 -5.19531,-3.86133 -1.3929,-1.34608 -2.08984,-2.71391 -2.08985,-4.10547 10e-6,-1.61894 0.88184,-3.00245 2.64454,-4.14844 1.91061,-1.23694 4.38173,-1.85546 7.41406,-1.85546 z m -87.78125,13.94726 c 0.81862,-0.005 1.63645,0.0164 2.45508,0.0645 8.78159,0 16.93081,3.4699 24.44726,10.41016 8.26065,7.66071 12.39063,16.96724 12.39063,27.91797 0,10.71059 -4.25496,19.5232 -12.76367,26.43945 -7.36761,5.97968 -15.39186,8.96875 -24.07422,8.96875 -9.42657,0 -17.86071,-2.6052 -25.30274,-7.8164 -9.35215,-6.55604 -14.02929,-15.83832 -14.02929,-27.84571 0,-16.78631 6.56277,-28.16876 19.68554,-34.14843 5.73037,-2.62662 11.46104,-3.95609 17.19141,-3.99024 z m -62.77344,0.0273 c 14.11504,1.03264 22.93252,2.06698 26.45508,3.09961 l -2.5293,16.31641 c -0.52094,-2.68965 -1.87365,-5.37871 -4.05664,-8.06836 -4.34118,-5.37931 -10.6909,-8.06836 -19.05078,-8.06836 -10.09635,0 -18.05908,2.83252 -23.88867,8.5 -5.90401,5.76354 -8.85742,13.68919 -8.85742,23.77539 0,9.65393 4.04386,17.84228 12.13086,24.56641 7.46683,6.19581 15.72678,9.29492 24.78125,9.29492 1.78608,-0.12007 3.94431,-0.72012 6.47461,-1.80078 5.03576,-2.18535 9.37879,-5.71681 13.02539,-10.5918 l 1.9707,11.02344 c -1.21553,0.96059 -3.13806,1.92027 -5.76758,2.88086 -5.23422,1.89717 -11.32364,2.8457 -18.26953,2.8457 -0.76901,0 -1.58684,-0.0111 -2.45508,-0.0351 -11.90725,-0.40826 -21.34766,-3.54275 -28.31836,-9.40235 -7.93816,-6.65208 -11.90625,-16.29402 -11.90625,-28.92578 -0.29768,-5.90763 1.15344,-11.80193 4.35352,-17.68555 6.42495,-11.81526 18.39462,-17.7246 35.9082,-17.72461 z m 113.60156,0 30.66211,59.97852 31.58985,-59.11328 11.34961,66.17187 c 0.14884,1.96922 1.26583,3.68745 3.34961,5.15235 1.04188,0.72044 2.05851,1.24777 3.05078,1.58398 h -21.58203 c 0.99226,-0.33621 2.00889,-0.86354 3.05078,-1.58398 2.08376,-1.4649 3.20076,-3.18313 3.34961,-5.15235 v -2.37695 l -8.74414,-36.59766 -25.30274,44.23438 -0.0742,0.0723 v -0.0352 h -0.0371 l -0.26172,-0.25195 -25.11718,-45.71289 -5.2461,37.46289 v 2.34179 c 0.17364,1.99322 1.29065,3.70951 3.34961,5.15039 1.04188,0.74447 2.07081,1.28489 3.08789,1.6211 h -21.61914 c 1.01708,-0.33621 2.03371,-0.87663 3.05078,-1.6211 2.08377,-1.44088 3.20078,-3.15717 3.34961,-5.15039 z m 85.47266,0 h 21.8418 c -1.01709,0.33621 -2.05831,0.87664 -3.125,1.6211 -2.08377,1.4649 -3.20077,3.19427 -3.34961,5.1875 v 60.1582 c 0.14884,1.99323 1.26584,3.72065 3.34961,5.18555 1.06669,0.74445 2.10791,1.28488 3.125,1.62109 h -21.8418 c 1.01708,-0.33621 2.04601,-0.87664 3.08789,-1.62109 2.10857,-1.4649 3.23788,-3.19232 3.38672,-5.18555 v -60.1582 c -0.14884,-1.99323 -1.27815,-3.7226 -3.38672,-5.1875 -1.04188,-0.74446 -2.07081,-1.28489 -3.08789,-1.6211 z m 34.30664,0 55.44336,56.33985 v -49.53125 c -0.14884,-1.99323 -1.27815,-3.7226 -3.38672,-5.1875 -1.04189,-0.74446 -2.07081,-1.28489 -3.08789,-1.6211 h 21.8418 c -1.01708,0.33621 -2.04601,0.87664 -3.08789,1.6211 -2.10858,1.4649 -3.23788,3.19427 -3.38672,5.1875 v 66.96484 l -0.0371,-0.0723 v 0.0723 L 500.22071,369.9623 v 48.84765 c 0.14884,1.99323 1.27815,3.72065 3.38672,5.18555 1.04189,0.74445 2.07081,1.28488 3.08789,1.62109 h -21.8418 c 1.01708,-0.33621 2.04601,-0.87664 3.08789,-1.62109 2.10858,-1.4649 3.23788,-3.19232 3.38672,-5.18555 z m 110.14258,0 c 14.11505,1.03264 22.94677,2.06698 26.49414,3.09961 l -2.56836,16.31641 c -0.52094,-2.68965 -1.87365,-5.37871 -4.05664,-8.06836 -4.34118,-5.40333 -10.6909,-8.10547 -19.05078,-8.10547 -10.09635,0 -18.05909,2.84561 -23.88867,8.53711 -5.90402,5.76354 -8.85547,13.68919 -8.85547,23.77539 0,9.65393 4.0419,17.84228 12.1289,24.56641 7.46684,6.19581 15.72874,9.29492 24.78321,9.29492 5.01097,0.21613 8.91754,-0.92434 11.7207,-3.42187 v -22.80274 c 0.17365,-0.55234 -0.0128,-1.18972 -0.55859,-1.91015 -1.0915,-1.46491 -3.47313,-2.64076 -7.14453,-3.5293 h 24.37304 c -3.6714,0.88854 -6.05303,2.06439 -7.14453,3.5293 -0.57056,0.72043 -0.75705,1.35781 -0.55859,1.91015 v 25.4668 c -1.0915,0.84051 -2.87674,1.69406 -5.35742,2.55859 -4.98616,1.70505 -10.95254,2.55664 -17.89844,2.55664 -12.52741,0 -22.51109,-2.91636 -29.95313,-8.75195 -8.48391,-6.65209 -12.72656,-16.52328 -12.72656,-29.61133 -0.29768,-5.90763 1.15344,-11.80193 4.35352,-17.68555 6.42495,-11.81526 18.39463,-17.72461 35.9082,-17.72461 z m -278.03516,4.03516 v 66.10156 c 0.94266,-0.024 1.94894,-0.0967 3.01563,-0.21679 v -65.38086 c -1.01708,-0.21614 -2.02335,-0.38383 -3.01563,-0.50391 z m -3.75781,0.0371 c -0.84343,0.0961 -1.67356,0.22643 -2.49219,0.39453 v 65.05664 c 0.86824,0.16811 1.69838,0.31157 2.49219,0.43164 z m -4.76172,0.93555 c -5.70555,1.58497 -10.35809,4.3952 -13.95508,8.42968 -5.06057,5.71552 -7.58984,13.53113 -7.58984,23.44922 0,9.9181 2.52927,17.7599 7.58984,23.52344 3.59699,4.08251 8.24953,6.92812 13.95508,8.53711 z m 13.80469,0.14453 v 64.37109 c 5.73036,-1.17672 10.41785,-3.70922 14.06445,-7.59961 5.15981,-5.49938 7.74024,-13.35232 7.74024,-23.55859 0,-10.23029 -2.58043,-18.33673 -7.74024,-24.31641 -3.6466,-4.22659 -8.33409,-7.19143 -14.06445,-8.89648 z"
     id="path3404" />
  <flowRoot
     transform="translate(-7.8222656,-22.9849)"
     xml:space="preserve"
     id="flowRoot3424"
     style="font-style:normal;font-weight:normal;line-height:0.01%;font-family:sans-serif;letter-spacing:0px;word-spacing:0px;fill:#000000;fill-opacity:1;stroke:none;stroke-width:1px;stroke-linecap:butt;stroke-linejoin:miter;stroke-opacity:1"><flowRegion
       style="fill:#000000"
       id="flowRegion3426"><rect
         style="fill:#000000"
         id="rect3428"
         width="524.53461"
         height="286.95914"
         x="160.83058"
         y="417.35828" /></flowRegion><flowPara
       id="flowPara3430"
       style="font-size:40px;line-height:1.25;fill:#000000"> </flowPara></flowRoot>  <flowRoot
     transform="translate(-7.8222656,-22.9849)"
     xml:space="preserve"
     id="flowRoot3442"
     style="font-style:normal;font-weight:normal;line-height:0.01%;font-family:sans-serif;letter-spacing:0px;word-spacing:0px;fill:#000000;fill-opacity:1;stroke:none;stroke-width:1px;stroke-linecap:butt;stroke-linejoin:miter;stroke-opacity:1"><flowRegion
       style="fill:#000000"
       id="flowRegion3444"><rect
         style="fill:#000000"
         id="rect3446"
         width="409.75095"
         height="277.61627"
         x="169.50609"
         y="251.85628" /></flowRegion><flowPara
       id="flowPara3448"
       style="font-size:40px;line-height:1.25;fill:#000000"> </flowPara></flowRoot>  <g
     transform="matrix(1.0886578,0,0,1.0539005,-73.926874,-39.59874)"
     style="font-style:normal;font-variant:normal;font-weight:normal;font-stretch:normal;font-size:70.00030518px;line-height:150%;font-family:'Game of Thrones';-inkscape-font-specification:'Game of Thrones, Normal';text-align:center;letter-spacing:0px;word-spacing:0px;writing-mode:lr-tb;text-anchor:middle;fill:#000000;fill-opacity:1;stroke:none;stroke-width:1px;stroke-linecap:butt;stroke-linejoin:miter;stroke-opacity:1"
     id="flowRoot3483" />
  <g
     transform="matrix(0.94667891,0,0,0.69850825,-2.5856831,-17.68982)"
     style="font-style:normal;font-weight:normal;font-size:40px;line-height:125%;font-family:sans-serif;letter-spacing:0px;word-spacing:0px;fill:#000000;fill-opacity:1;stroke:none;stroke-width:1px;stroke-linecap:butt;stroke-linejoin:miter;stroke-opacity:1"
     id="flowRoot3493" />
</svg>
