<?xml version="1.0" encoding="UTF-8" standalone="no"?>
<!-- Created with Inkscape (http://www.inkscape.org/) -->

<svg
   xmlns:dc="http://purl.org/dc/elements/1.1/"
   xmlns:cc="http://creativecommons.org/ns#"
   xmlns:rdf="http://www.w3.org/1999/02/22-rdf-syntax-ns#"
   xmlns:svg="http://www.w3.org/2000/svg"
   xmlns="http://www.w3.org/2000/svg"
   xmlns:sodipodi="http://sodipodi.sourceforge.net/DTD/sodipodi-0.dtd"
   xmlns:inkscape="http://www.inkscape.org/namespaces/inkscape"
   width="51mm"
   height="51mm"
   viewBox="0 0 51 51"
   version="1.1"
   id="svg1207"
   inkscape:version="0.92.2 5c3e80d, 2017-08-06"
   sodipodi:docname="openSUSE-YaST.svg">
  <defs
     id="defs1201" />
  <sodipodi:namedview
     id="base"
     pagecolor="#ffffff"
     bordercolor="#666666"
     borderopacity="1.0"
     inkscape:pageopacity="0.0"
     inkscape:pageshadow="2"
     inkscape:zoom="1.4"
     inkscape:cx="42.329886"
     inkscape:cy="113.17677"
     inkscape:document-units="mm"
     inkscape:current-layer="layer1"
     showgrid="false"
     inkscape:window-width="1920"
     inkscape:window-height="1171"
     inkscape:window-x="1920"
     inkscape:window-y="0"
     inkscape:window-maximized="1" />
  <metadata
     id="metadata1204">
    <rdf:RDF>
      <cc:Work
         rdf:about="">
        <dc:format>image/svg+xml</dc:format>
        <dc:type
           rdf:resource="http://purl.org/dc/dcmitype/StillImage" />
        <dc:title></dc:title>
      </cc:Work>
    </rdf:RDF>
  </metadata>
  <g
     inkscape:label="Layer 1"
     inkscape:groupmode="layer"
     id="layer1"
     transform="translate(0,-246)">
    <circle
       style="opacity:1;fill:#35b9ab;fill-opacity:1;fill-rule:nonzero;stroke:none;stroke-width:0.13942671;stroke-miterlimit:4;stroke-dasharray:none;stroke-opacity:1"
       id="path1102"
       cx="25.523954"
       cy="271.47995"
       r="21.81818"
       inkscape:export-xdpi="299"
       inkscape:export-ydpi="299" />
    <circle
       style="opacity:1;fill:none;fill-opacity:1;fill-rule:nonzero;stroke:#ea272b;stroke-width:0.15925092;stroke-miterlimit:4;stroke-dasharray:none;stroke-opacity:1"
       id="path1102-6"
       cx="25.523954"
       cy="271.47995"
       r="24.920374"
       inkscape:export-xdpi="299"
       inkscape:export-ydpi="299" />
    <g
       id="g1140"
       transform="matrix(0.90909088,0,0,0.90909088,-52.525796,222.40912)"
       inkscape:export-xdpi="299"
       inkscape:export-ydpi="299">
      <path
         sodipodi:nodetypes="cccscccccccccscccccscccccccccccccscscccscccssccccccccccccccsccccsscccccccccccccccscscccccccccscscsccsccccccccccscsccsccsccccscsccccsscccssccscssscccccsccccscccsccscscscccccc"
         style="fill:#194150;fill-opacity:1;stroke:none;stroke-width:0.26458332;stroke-opacity:1"
         d="m 91.330544,71.414315 -2.35207,-0.92587 -5.54282,0.30241 c -3.04855,0.16633 -5.59698,0.24825 -5.66317,0.18206 -0.0662,-0.0662 0.30127,-0.81959 0.8166,-1.67421 l 0.93696,-1.55386 0.009,-3.96875 c 0.005,-2.18281 0.17262,-5.57609 0.37245,-7.54062 0.19984,-1.96453 0.33344,-3.60315 0.2969,-3.64137 -0.0365,-0.0382 -1.00751,0.11024 -2.15771,0.3299 -1.49463,0.28545 -3.09319,0.89129 -5.60309,2.12353 -2.59666,1.27484 -3.68185,1.68146 -4.16433,1.56036 -1.0006,-0.25113 -2.246461,-1.82344 -2.241671,-2.82902 0.005,-1.02125 0.184491,-1.3242 1.054281,-1.77815 0.3638,-0.18987 1.51111,-0.99718 2.54958,-1.79404 1.36858,-1.05016 2.12949,-1.87793 2.76529,-3.0083 0.85604,-1.5219 1.83502,-2.24346 4.03388,-2.97314 0.4166,-0.13825 0.27511,-0.40032 -1.00056,-1.85333 -0.95955,-1.09294 -1.81112,-2.44309 -2.4044,-3.81211 -0.94829,-2.18827 -0.96963,-2.96182 -0.0817,-2.96182 0.58816,0 4.38557,3.88003 6.272,6.40845 0.67938,0.91058 1.41798,1.6908 1.64134,1.73382 0.22336,0.043 1.37949,-0.88477 2.56918,-2.06174 2.3249,-2.30006 4.13272,-3.31844 8.72788,-4.91659 1.71231,-0.59552 2.28569,-0.69607 2.64584,-0.464 0.65746,0.42367 0.44809,1.05276 -0.99991,3.00423 -1.85373,2.49829 -2.48826,3.01305 -5.3514,4.34128 -1.96023,0.90937 -2.70266,1.4012 -3.09907,2.05305 -0.28671,0.47146 -0.48302,0.89547 -0.43625,0.94225 0.0468,0.0468 0.62424,-0.14608 1.28325,-0.42856 2.23905,-0.95977 5.3362,-1.70054 7.21108,-1.72474 1.52696,-0.0197 2.11914,0.10723 3.373385,0.72312 2.70981,1.33066 5.737641,4.61884 6.499331,7.05817 0.15904,0.50932 0.53772,3.24776 0.84151,6.08542 0.30379,2.83765 0.78558,6.69478 1.07063,8.57139 0.63244,4.16355 0.6368,3.86402 -0.0562,3.86402 -0.31596,0 -0.79221,0.19705 -1.05833,0.43788 -0.45134,0.40846 -0.52078,0.40447 -1.03329,-0.0593 -0.52512,-0.47523 -0.58471,-0.47698 -1.34634,-0.0399 -0.84768,0.4865 -1.27922,0.40757 -1.27922,-0.23398 0,-0.30613 -0.20517,-0.35476 -0.926041,-0.21952 -0.50934,0.0956 -0.92555,0.0712 -0.92492,-0.0542 5.3e-4,-0.12534 0.3361,-0.73274 0.74549,-1.34979 0.677121,-1.02056 0.728111,-1.25968 0.5645,-2.64727 -0.22432,-1.90248 -1.63722,-4.82978 -2.33116,-4.82978 -0.50984,0 -0.75794,0.82209 -1.357395,4.49792 -0.15426,0.94588 -0.33488,1.96906 -0.40138,2.27372 -0.0807,0.36991 0.1954,0.92347 0.831235,1.6663 0.52368,0.6118 0.90823,1.15162 0.85455,1.19961 -0.18245,0.16311 -3.087705,0.94587 -3.445615,0.92834 -0.19588,-0.01 -1.41458,-0.43408 -2.70822,-0.9433 z m 3.17046,-0.8252 -0.16501,-0.7276 0.52857,0.61891 c 0.74854,0.87645 1.24172,0.60061 0.53425,-0.2988 l -0.57073,-0.72557 0.71417,-4.26992 0.71417,-4.26992 -0.95939,-0.81902 c -1.1993,-1.02383 -2.02233,-2.62862 -1.97527,-3.85152 0.0268,-0.69502 0.067,-0.77181 0.15632,-0.29804 0.0931,0.49384 0.17378,0.55369 0.35679,0.26458 0.17272,-0.27284 0.2376,-0.17881 0.24056,0.34863 0.007,1.22751 0.76,2.68653 1.72751,3.34675 0.507305,0.34618 0.922375,0.72694 0.922375,0.84614 0,0.39116 1.53104,-0.30735 1.67589,-0.76459 0.0778,-0.24551 0.3226,-0.92263 0.54406,-1.50471 0.52775,-1.38715 0.54582,-0.36648 0.0202,1.14256 -0.3936,1.13007 -0.38783,1.16187 0.52846,2.91041 0.515731,0.98418 1.083651,2.60439 1.281141,3.65494 0.3353,1.7837 0.32528,1.9275 -0.18276,2.62493 l -0.5375,0.73786 0.60038,-0.157 c 0.37468,-0.098 0.65064,-0.026 0.73407,0.19137 0.0843,0.21964 0.46939,0.31717 1.04215,0.26394 0.56414,-0.0524 0.91166,0.0334 0.91689,0.2264 0.005,0.18187 0.14214,0.13653 0.33072,-0.10926 0.17728,-0.23105 0.44947,-0.46918 0.60487,-0.52917 0.1917,-0.074 0.0502,-1.78895 -0.43988,-5.33301 -0.39738,-2.87317 -0.83088,-6.5723 -0.96339,-8.22028 -0.30009,-3.73259 -0.83704,-4.94772 -3.265811,-7.39075 -2.91759,-2.93472 -5.362755,-3.67835 -8.985525,-2.73272 -2.26545,0.59135 -6.07486,2.02923 -6.07486,2.29301 0,0.49285 1.93605,2.35819 2.47819,2.38767 0.49027,0.0266 0.49962,0.0474 0.0711,0.15754 -0.58963,0.15159 -2.62178,-1.73154 -3.091,-2.86434 -0.26117,-0.63053 -0.21871,-0.92981 0.27723,-1.95432 0.6666,-1.37701 1.69313,-2.16387 4.00706,-3.0715 1.94477,-0.76284 3.43254,-2.01647 4.93497,-4.15833 l 1.12261,-1.60038 -2.18809,0.78928 c -4.31654,1.55702 -5.96257,2.49501 -8.24433,4.69802 -1.18022,1.1395 -2.36284,2.14908 -2.62805,2.24351 -0.72626,0.25859 -1.38133,-0.21428 -2.61109,-1.88486 -0.99271,-1.34854 -5.24109,-5.97591 -5.24109,-5.70862 0,0.69057 1.91219,3.83056 3.27986,5.38582 0.95977,1.0914 1.74552,2.04549 1.74613,2.12019 6.1e-4,0.0747 -0.59321,0.277 -1.31957,0.44954 -2.1298,0.50592 -3.15556,1.11298 -3.70698,2.19385 -0.72151,1.41428 -1.6882,2.48813 -3.48317,3.86933 -1.44879,1.11482 -1.53461,1.23774 -1.09467,1.56795 0.42075,0.31581 0.35657,0.33942 -0.54131,0.19917 -1.22147,-0.1908 -1.77009,0.33757 -0.94823,0.91323 0.63592,0.44541 0.67541,0.977 0.0549,0.73888 -0.33197,-0.12738 -0.28321,0.009 0.17841,0.50086 1.09598,1.16662 2.64015,0.66807 2.6764,-0.8641 0.0163,-0.68774 0.0238,-0.6911 0.25606,-0.11339 0.2968,0.73839 0.25151,0.74075 1.90941,-0.0994 2.19039,-1.10995 4.44217,-1.86978 6.15214,-2.07595 1.8326,-0.22095 3.29605,-0.76032 3.77031,-1.38959 0.1819,-0.24136 0.33073,-0.30304 0.33073,-0.13708 0,0.16595 -0.34305,0.63519 -0.76233,1.04275 -0.72296,0.70276 -0.77771,0.9186 -1.06024,4.1806 -0.16385,1.89177 -0.29705,5.40624 -0.296,7.80995 0.002,4.22726 -0.0197,4.40221 -0.65955,5.34376 -0.36381,0.53538 -0.66146,1.03927 -0.66146,1.11975 0,0.32464 0.62523,0.11721 0.9546,-0.31669 0.33475,-0.44097 0.35189,-0.44097 0.3599,0 0.007,0.39874 0.28176,0.46303 1.97717,0.46303 1.08282,0 2.03729,-0.1109 2.12106,-0.24644 0.0838,-0.13553 -0.15468,-2.27698 -0.52987,-4.75876 l -0.68216,-4.51234 0.70917,-0.92977 c 0.39004,-0.51138 0.8513,-0.92978 1.02501,-0.92978 0.17371,0 1.37254,0.35719 2.66408,0.79375 1.29152,0.43656 2.38961,0.79375 2.44019,0.79375 0.0506,0 -0.0452,-0.26789 -0.21281,-0.59531 -0.16763,-0.32743 0.31088,0.0595 1.06335,0.85989 l 1.36814,1.45521 -0.94037,3.76421 c -0.51721,2.07032 -0.94038,3.92283 -0.94038,4.11669 0,0.19386 0.60734,0.54669 1.34965,0.78407 l 1.34965,0.4316 -0.14586,-0.57953 c -0.14149,-0.56212 -0.13434,-0.5641 0.23785,-0.066 0.21104,0.28247 0.38371,0.6099 0.38371,0.7276 0,0.11771 0.1915,0.21403 0.42556,0.21403 0.32786,0 0.38767,-0.16704 0.26054,-0.72761 z m -26.0861,-16.23812 c 0,-0.70435 0.0585,-0.77759 0.39687,-0.49677 0.21828,0.18116 0.39688,0.55292 0.39688,0.82615 0,0.27322 -0.1786,0.49677 -0.39688,0.49677 -0.26804,0 -0.39687,-0.26819 -0.39687,-0.82615 z m 9.91629,-5.80604 c -0.19909,-0.62727 0.19511,-1.02975 1.01535,-1.03667 0.36891,-0.003 0.46114,0.16504 0.39687,0.72355 -0.10913,0.94848 -1.13815,1.17664 -1.41222,0.31312 z m 0.008,-1.30929 c 0.0886,-0.14333 0.53106,-0.2606 0.98329,-0.2606 0.99943,0 0.89849,0.13205 -0.27131,0.35489 -0.5455,0.10392 -0.81262,0.0685 -0.71198,-0.0943 z m -0.81179,-1.71944 c 0.28247,-0.21628 0.7488,-0.39324 1.03628,-0.39324 0.6707,0 0.5245,0.11396 -0.62383,0.48625 -0.84149,0.27282 -0.87915,0.26432 -0.41245,-0.093 z m 9.14369,-2.71201 c 0,-0.11706 0.65485,-0.85956 1.45522,-1.64998 1.48844,-1.46995 1.954924,-1.84776 0.66659,-0.342377 -0.554019,0.653255 -2.366447,2.06925 -0.10397,0.949097 0.104686,-0.05183 -0.33767,0.39897 -0.93386,0.70312 -0.59618,0.30415 -1.08398,0.45721 -1.08398,0.34014 z m 1.88325,23.79149 c 0.41943,-0.92307 0.76259,-1.87262 0.76259,-2.11012 0,-0.23749 -0.31237,-1.22799 -0.69417,-2.20111 -0.67047,-1.70893 -0.73478,-1.77955 -1.88424,-2.06898 -1.02312,-0.25763 -1.2598,-0.23657 -1.68709,0.15012 -0.27335,0.24738 -0.49821,0.69923 -0.49969,1.0041 -0.003,0.63438 1.04461,7.77052 1.22398,8.33706 0.20813,0.65736 1.95507,-1.29858 2.77862,-3.11107 z"
         id="path896-7"
         inkscape:connector-curvature="0" />
      <path
         transform="scale(0.26458333)"
         sodipodi:nodetypes="csccccccsccsszzssccsscscsccsccsccccscccscccccccccccsccsscccccsccccsccscssccscscccccsscsssscccccccccccccssccsccccsccccscccccssccsccccczccccccscccccccsccccccccscccscczssscc"
         inkscape:connector-curvature="0"
         id="path1043"
         d="m 354.91343,269.28528 c -0.24745,-0.15087 -0.3557,-0.44639 -0.3557,-0.60195 0,-0.67751 -2.3996,-4.16977 -2.62866,-4.0733 -0.0679,0.0679 0.1233,0.8267 0.3805,1.87488 0.23763,0.96845 0.49112,1.91648 0.46834,1.93928 -0.0228,0.0228 -1.6596,-0.49697 -3.38494,-1.05507 -3.37944,-1.0038 -4.97342,-1.81391 -6.01365,-2.56095 -0.86785,-0.62324 -1.08048,-0.68807 -0.54555,-2.61337 0.57362,-2.83355 2.04226,-8.87884 4.42924,-18.55299 1.26235,-5.11617 2.16079,-8.72516 2.38586,-9.49746 -1.17862,-1.19969 -4.94492,-5.5203 -7.20952,-7.71091 -1.3421,-1.24472 -1.89341,-1.6971 -2.0658,-1.52471 -0.032,0.032 0.21802,0.49549 0.45723,1.0422 0.2379,0.54371 0.32481,0.70988 0.48093,1.23578 0.15612,0.5259 10e-4,0.3785 -0.60239,0.21122 -0.60347,-0.16728 -3.60943,-1.17413 -7.15128,-2.34355 -6.12185,-2.02127 -9.63596,-3.09855 -10.96669,-3.39266 -0.84216,-0.18613 -1.22246,-0.0521 -2.53256,1.20568 -1.09574,1.05196 -4.51618,5.35483 -4.58134,5.76327 -0.0193,0.12123 0.5077,3.80015 1.17119,8.17537 2.5098,16.55027 3.45702,22.99406 3.45702,25.77214 0,0.90119 -0.0119,1.09145 -0.21634,1.20086 -0.89198,0.47737 -6.21362,0.96494 -10.31885,0.84464 -4.65333,-0.13636 -5.03254,-0.46658 -5.0373,-2.11403 -0.003,-0.9429 -0.0901,-1.16091 -0.51029,-0.76617 -0.18053,0.1696 -0.57068,0.68563 -0.8535,1.05222 -0.89123,1.1552 -2.35216,2.00583 -3.29752,1.74105 -0.67364,-0.16908 -0.43254,-0.81248 1.99562,-4.45961 0.70722,-1.06225 1.51257,-2.44959 1.70832,-2.95371 0.79414,-2.04516 0.9839,-4.72797 0.98756,-13.7514 0.006,-14.86947 0.5315,-28.13096 1.6101,-38.75679 0.68751,-6.77306 0.76051,-7.50753 3.21438,-10.10776 2.09235,-2.21714 3.35928,-3.83094 3.15505,-4.36316 -0.14199,-0.37 -0.39441,-0.1213 -1.35963,0.86986 -1.02466,1.10404 -1.65294,1.46089 -2.97862,2.12504 -2.63835,1.32177 -5.99653,2.18181 -11.04854,2.92501 -7.29949,1.07382 -14.55147,3.47064 -23.30446,7.85042 -4.70899,2.45393 -5.73726,2.7422 -6.31741,2.26761 -0.15734,-0.12871 -0.57878,-0.89811 -0.8532,-1.68547 -0.69293,-1.60839 -0.77861,-1.83824 -0.88835,-1.7285 -0.0438,0.0438 -0.0797,0.81671 -0.14047,1.74461 -0.098,1.96829 -0.33164,2.67469 -1.01449,3.7312 -0.96201,1.48841 -2.65948,2.30189 -4.49748,2.17228 -1.21098,-0.0854 -2.24568,-0.47691 -3.36724,-1.26455 -1.13789,-0.79911 -2.95076,-2.93705 -2.72958,-3.15824 0.14388,-0.16756 0.4032,-0.055 0.73663,0.088 1.50229,0.45573 1.98818,0.14059 1.60654,-0.92835 -0.16257,-0.36753 -0.56541,-0.83868 -1.17425,-1.37339 -1.57059,-1.20486 -1.93593,-1.66878 -2.02763,-2.15757 -0.10965,-0.58449 0.12439,-1.1205 0.91085,-1.51539 0.86765,-0.43565 2.28962,-0.53014 4.69983,-0.21119 1.86066,0.24622 2.42886,0.33886 2.42886,0.10479 0,-0.0535 -0.38157,-0.40023 -0.8343,-0.79771 -1.12192,-0.8772 -1.1152,-1.11268 -0.93712,-1.5858 0.32974,-0.83635 1.43663,-1.70272 5.10988,-4.56239 3.88827,-3.02706 7.16934,-6.10652 9.07327,-8.47741 1.16746,-1.45379 2.70271,-3.95036 3.65433,-5.71107 0.96995,-1.7946 1.38655,-2.41915 2.48564,-3.47396 1.13654,-1.09074 2.13862,-1.73001 4.00373,-2.62615 1.90595,-0.91575 3.9377,-1.51922 7.59274,-2.46195 2.92495,-0.75443 5.00262,-1.51367 5.15117,-1.73499 0.063,-0.19495 -1.87023,-2.53433 -5.27049,-6.49214 -3.21367,-3.74062 -4.81011,-5.85031 -7.09742,-9.28821 -3.60069,-5.31778 -6.20291,-10.34544 -6.53537,-12.1249 -0.17259,-0.72271 -0.0377,-0.63567 0.31581,-0.40016 0.35834,0.19385 5.20996,5.29909 7.65455,7.96803 5.63713,6.15449 9.57041,10.54725 11.84593,13.54094 4.74325,6.24026 7.06094,7.98882 9.59828,7.17349 1.27859,-0.44213 4.42093,-3.16453 10.8077,-9.18908 7.37454,-6.95628 13.01651,-10.38213 24.14748,-14.73651 2.13656,-0.83581 14.41115,-5.2572 14.44588,-5.21432 0.0545,0.0673 -5.21406,7.54556 -6.31955,8.94998 -3.11265,3.95433 -6.1679,6.85718 -9.69361,9.2101 -2.25183,1.50278 -3.7409,2.32253 -7.37629,3.80963 -3.02645,1.23801 -6.18098,2.76024 -7.9654,3.94019 -2.89557,1.91471 -5.10026,4.41565 -6.57733,7.50098 -1.82815,3.81868 -1.96128,5.01095 -0.85777,7.47413 1.88768,4.08565 9.1314,10.64382 11.22541,10.56718 0.63435,-0.0232 1.15089,-0.22469 1.4412,-0.39903 -0.0258,-0.0779 -0.45634,-0.11729 -0.95009,-0.16191 -1.0425,0.001 -1.77953,-0.44593 -3.285,-1.6032 -2.83093,-2.17617 -6.12696,-5.872 -6.51165,-7.25795 -0.10655,-0.44219 0.43379,-0.75206 2.23218,-1.59395 5.3887,-2.52266 16.84951,-6.44421 22.69688,-7.75567 3.18729,-0.71485 4.72823,-0.93451 8.20394,-0.9355 3.50465,-10e-4 4.35478,0.12025 7.13339,0.85397 5.80155,1.53188 11.80094,5.58454 18.0526,12.21601 4.83999,5.13403 6.87983,8.22066 8.39353,12.28382 1.27382,3.41927 1.89105,6.89119 2.59274,14.58408 0.70242,7.70094 1.96207,18.49475 3.46646,29.68428 0.8581,6.38249 1.39374,10.4161 1.71042,13.62601 0.34987,2.70776 0.5518,6.67753 0.31076,7.27235 -0.0546,0.36594 -0.16507,0.38208 -0.6654,0.63517 -0.30862,0.18087 -1.00861,0.82097 -1.54598,1.40811 -0.52174,0.64184 -0.75927,1.00657 -1.17151,1.17856 -0.22758,0.0394 -0.35363,-0.0471 -0.37787,-0.45139 -0.18222,-0.72889 -0.73317,-0.8199 -3.59026,-0.82394 -2.03429,0.21144 -3.23914,-0.0389 -3.78647,-0.9631 -0.6086,-0.9057 -1.47513,-1.09278 -3.55216,-0.56628 -0.69798,0.17693 -1.48972,0.41739 -1.50919,0.39672 -0.0195,-0.0207 0.7293,-1.01829 1.46094,-2.02528 0.73165,-1.007 1.4826,-2.12779 1.66414,-2.50975 0.30628,-0.64436 0.39231,-0.83316 0.38834,-2.41475 -0.14711,-3.71427 -1.50016,-9.86267 -3.74734,-15.46796 -0.41763,-1.04172 -1.56303,-3.47707 -2.55333,-5.36643 -1.00102,-1.90982 -1.83269,-3.61695 -1.94047,-4.10829 -0.51876,-1.6057 -0.51379,-2.53817 0.55503,-5.48403 1.10915,-3.33309 1.72153,-6.45107 1.43187,-6.8423 -0.17197,-0.23226 -0.41636,0.0878 -0.77995,0.80838 -0.3041,0.60268 -1.98451,5.00418 -2.44818,6.42031 -0.1478,0.45142 -0.29823,1.03632 -0.49382,1.27265 -0.76789,1.25897 -4.85503,3.31766 -5.78825,2.89245 -0.29641,-0.0745 -0.36129,-0.34614 -0.36129,-0.47479 0,-0.33238 -1.56876,-1.72547 -3.30157,-3.01494 -0.81359,-0.60544 -1.80772,-1.3929 -2.32457,-2.05928 -2.67676,-2.98971 -4.43657,-7.25516 -4.37469,-10.93904 -0.0232,-1.79037 -0.21381,-2.04667 -0.90394,-1.08569 -0.18754,0.45862 -0.56773,0.63703 -0.67111,0.63901 -0.28836,0.006 -0.45818,-0.656 -0.67025,-1.69245 -0.34997,-1.71032 -0.48501,-1.39854 -0.5833,0.87406 -0.0231,1.97361 0.13307,2.99 0.73225,4.91106 0.80982,2.59621 2.82703,5.90991 4.90176,8.09192 0.67319,0.70799 2.15328,2.08464 3.28908,3.0592 1.40032,1.20154 2.16453,1.6771 2.16453,1.8497 0,0.14 -1.27221,7.63424 -2.73589,16.36075 -1.98167,11.81474 -2.66338,15.88535 -2.5651,16.04399 0.0726,0.11717 0.77119,0.90199 1.43768,1.75082 1.3781,1.75512 1.99199,2.8954 1.93387,3.49453 -0.0318,0.32781 -0.166,0.51723 -0.44393,0.54933 -0.76424,0.0883 -1.78474,-0.7079 -3.54576,-2.76525 -0.77416,-0.86336 -1.23261,-1.47636 -1.34118,-1.60996 0.0204,0.11255 0.20042,0.76585 0.38305,1.67259 0.46977,2.02 0.71909,3.14966 0.16719,3.60043 -0.3716,0.2725 -1.17059,0.32026 -1.68621,0.12497 z m -93.86055,-61.19271 c 0.94498,-1.05752 0.55397,-2.79086 -0.73638,-4.3105 -0.30872,-0.33005 -0.74511,-0.6335 -0.96012,-0.72255 -0.34288,-0.14203 -0.38725,-0.1267 -0.52996,0.0685 -0.21673,0.29639 -0.32141,1.78421 -0.22275,2.82292 0.1138,1.1982 0.24382,1.87347 0.67408,2.2926 0.30501,0.29712 0.53072,0.28563 0.96667,0.27028 0.37552,-0.0503 0.50395,-0.1511 0.80846,-0.42123 z m 38.6371,-22.96762 c 0.97476,-0.56095 1.51542,-1.45486 1.71245,-3.00887 0.14878,-1.17352 0.0412,-1.89895 -0.41108,-2.28896 -0.73185,-0.51934 -3.20845,-0.22641 -4.21717,0.60823 -0.60499,0.50058 -0.94289,1.07678 -0.8964,1.9315 0.13258,2.43761 1.92167,3.84605 3.8122,2.7581 z m 0.29612,-6.48416 c 1.60117,-0.39909 1.75135,-0.43522 2.25468,-0.65686 0.36175,-0.30022 -0.15361,-0.33693 -1.63405,-0.41501 -1.72301,-0.0488 -2.9303,0.11213 -3.8525,0.50885 -0.6798,0.29244 -0.91595,0.65294 -0.55212,0.91898 0.1189,0.11528 0.78996,0.1174 1.55218,0.0307 z m -5.01747,-6.40004 c 2.42603,-0.80313 3.45645,-1.21868 3.47097,-1.47225 0.0123,-0.21465 -1.30338,-0.27904 -2.07185,-0.14274 -1.33477,0.23674 -2.92917,0.99193 -3.95847,1.88287 -1.00887,0.87324 -0.55453,0.76296 2.55935,-0.26788 z m 34.14571,-10.61485 c 1.7012,-0.59886 5.16585,-2.51604 6.10414,-3.71845 0.0296,-0.0991 -4.04164,2.09329 -4.20934,1.39135 -0.16771,-0.70194 3.04594,-3.26198 4.82518,-5.34903 4.8626,-5.70388 2.34964,-3.62507 -3.90955,2.75288 -2.72031,2.77193 -4.3911,4.81272 -4.35346,5.0632 0.0346,0.23036 0.29171,0.20631 1.08136,0.006 z"
         style="opacity:1;fill:#ffffff;fill-opacity:1;fill-rule:nonzero;stroke:none;stroke-width:0.06717514;stroke-miterlimit:4;stroke-dasharray:none;stroke-opacity:1" />
    </g>
  </g>
</svg>
