<?xml version="1.0" encoding="UTF-8"?>
<svg width="480" height="240" version="1.1" viewBox="0 0 480 240" xmlns="http://www.w3.org/2000/svg" xmlns:cc="http://creativecommons.org/ns#" xmlns:dc="http://purl.org/dc/elements/1.1/" xmlns:rdf="http://www.w3.org/1999/02/22-rdf-syntax-ns#">
 <metadata>
  <rdf:RDF>
   <cc:Work rdf:about="">
    <dc:format>image/svg+xml</dc:format>
    <dc:type rdf:resource="http://purl.org/dc/dcmitype/StillImage"/>
    <dc:title/>
   </cc:Work>
  </rdf:RDF>
 </metadata>
 <rect width="480" height="240" fill="#2f363d"/>
 <path d="m170.54 51.898-7.25 3.375 1.6875 3.625 7.2541-2.3784 4e-3 -0.99666zm32.977 4.4297-1.6875 3.625 7.8e-4 0.99718 7.2493 2.3778 1.6953-3.625zm-29.594 2.8203-7.25 3.375 1.6875 3.625 7.2501-2.3769-5e-5 -0.99811zm26.219 4.4297-1.6875 3.625-3e-3 0.99863 7.2531 2.3842 1.6875-3.6328zm-22.844 2.8203-7.25 3.3828 1.6875 3.625 7.2539-2.3833-4e-3 -0.99955zm19.461 4.4297-1.6875 3.625 9.5e-4 1.0001 7.2491 2.3828 1.6953-3.625zm-16.078 2.8203-7.25 3.3828 1.6875 3.625 7.25-2.3818 1e-4 -1.001zm12.703 4.4297-1.6875 3.625-3e-3 1.0015 7.2529 2.3813 1.6875-3.625zm-9.3282 2.8203-7.25 3.3829 1.6875 3.625 7.2538-2.3804-4e-3 -0.99464zm5.9454 4.4297-1.6875 3.6328 1e-3 0.99517 7.249 2.3798 1.6953-3.625zm-2.5625 2.8281-7.25 3.375 1.6875 3.625 7.2498-2.3789 2.6e-4 -0.99609z" fill="#77767b"/>
 <path d="m42.938 56.781v24.922h48.282l-49.453 70.235v19.063h88.985v-24.922h-50.703l49.453-70.313v-18.984zm91.797 0 37.578 70.547v43.672h31.094v-44.61l37.578-69.61h-33.438l-19.688 42.344-19.531-42.344zm170.86 24.141c-9.948 0-17.787 4.2709-23.516 12.813h-1.4063l-4.2969-11.25h-24.844v126.95h30.547v-35.547c0-1.5104-0.46875-5.3646-1.4062-11.563h1.4062c3.3854 3.75 6.823 6.4063 10.313 7.9688 3.5417 1.5104 7.6303 2.2656 12.266 2.2656 6.6146 0 12.344-1.849 17.188-5.5469 4.8438-3.6979 8.5678-9.0105 11.172-15.938 2.6562-6.9271 3.9844-15.104 3.9844-24.531 0-9.375-1.25-17.5-3.75-24.375s-6.1198-12.135-10.859-15.781c-4.6875-3.6458-10.287-5.4688-16.797-5.4688zm102.89 0c-9.948 0-17.787 4.2709-23.516 12.813h-1.4063l-4.2969-11.25h-24.844v126.95h30.547v-35.547c0-1.5104-0.46875-5.3646-1.4063-11.563h1.4063c3.3854 3.75 6.823 6.4063 10.313 7.9688 3.5417 1.5104 7.6303 2.2656 12.266 2.2656 6.6146 0 12.344-1.849 17.188-5.5469 4.8438-3.6979 8.5678-9.0105 11.172-15.938 2.6562-6.9271 3.9844-15.104 3.9844-24.531 0-9.375-1.25-17.5-3.75-24.375s-6.1198-12.135-10.859-15.781c-4.6875-3.6458-10.287-5.4688-16.797-5.4688zm-114.06 23.985c2.7604 0 4.974 0.72917 6.6407 2.1875 1.6667 1.4063 2.8906 3.6719 3.6719 6.7969 0.78125 3.125 1.1719 7.2396 1.1719 12.344 0 7.7084-0.88542 13.255-2.6563 16.641s-4.6094 5.0782-8.5157 5.0782c-4.375 0-7.5782-1.6927-9.6094-5.0782-2.0313-3.4375-3.0469-8.9324-3.0469-16.484v-2.4219c0.15624-6.5625 1.1719-11.38 3.0469-14.453s4.974-4.6094 9.2969-4.6094zm102.89 0c2.7604 0 4.974 0.72917 6.6407 2.1875 1.6667 1.4063 2.8906 3.6719 3.6719 6.7969 0.78125 3.125 1.1719 7.2396 1.1719 12.344 0 7.7084-0.88543 13.255-2.6563 16.641-1.7708 3.3854-4.6094 5.0782-8.5157 5.0782-4.375 0-7.5782-1.6927-9.6094-5.0782-2.0312-3.4375-3.0469-8.9324-3.0469-16.484v-2.4219c0.15624-6.5625 1.1719-11.38 3.0469-14.453 1.875-3.0729 4.974-4.6094 9.2969-4.6094z" fill="#fff"/>
 <g fill="#9a9996">
  <rect x="181.94" y="99.031" width="8" height="4"/>
  <rect x="185.94" y="103.03" width="8" height="4"/>
  <rect x="181.94" y="107.03" width="8" height="4"/>
  <rect x="185.94" y="111.03" width="8" height="4"/>
  <rect x="181.94" y="115.03" width="8" height="4"/>
  <rect x="185.94" y="119.03" width="8" height="4"/>
  <rect x="181.94" y="123.03" width="8" height="4"/>
  <rect x="185.94" y="127.03" width="8" height="4"/>
  <rect x="181.94" y="131.03" width="8" height="4"/>
  <rect x="185.94" y="135.03" width="8" height="4"/>
  <rect x="181.94" y="139.03" width="8" height="4"/>
  <rect x="185.94" y="143.03" width="8" height="4"/>
  <rect transform="rotate(-24.983)" x="124.24" y="119.97" width="8" height="4"/>
  <rect transform="rotate(-24.983)" x="124.24" y="127.97" width="8" height="4"/>
  <rect transform="rotate(-24.983)" x="124.24" y="135.97" width="8" height="4"/>
  <rect transform="rotate(-24.983)" x="124.24" y="143.97" width="8" height="4"/>
  <rect transform="rotate(-24.983)" x="124.24" y="151.97" width="8" height="4"/>
  <rect transform="matrix(-.90643 -.42235 -.42235 .90643 0 0)" x="-216.69" y="-33.997" width="8" height="4"/>
  <rect transform="matrix(-.90643 -.42235 -.42235 .90643 0 0)" x="-216.69" y="-25.997" width="8" height="4"/>
  <rect transform="matrix(-.90643 -.42235 -.42235 .90643 0 0)" x="-216.69" y="-17.997" width="8" height="4"/>
  <rect transform="matrix(-.90643 -.42235 -.42235 .90643 0 0)" x="-216.69" y="-9.9967" width="8" height="4"/>
  <rect transform="matrix(-.90643 -.42235 -.42235 .90643 0 0)" x="-216.69" y="6.0033" width="8" height="4"/>
 </g>
 <rect x="179.95" y="91.032" width="16" height="20" rx="4" fill="#77767b"/>
 <rect x="179.95" y="92.232" width="16" height="20" rx="4" fill="#5e5c64"/>
 <rect transform="rotate(-24.983)" x="124.24" y="159.97" width="8" height="4" fill="#9a9996"/>
 <rect x="179.95" y="93.432" width="16" height="20" rx="4" fill="#77767b"/>
 <rect transform="matrix(-.90643 -.42235 -.42235 .90643 0 0)" x="-216.69" y="-1.9967" width="8" height="4" fill="#9a9996"/>
 <rect x="179.95" y="95.031" width="16" height="20" rx="4" fill="#9a9996"/>
 <path d="m185.95 102a4.6121 4.6121 0 0 0-4.5703 3.961l-2.875 20.133a3.422 3.422 0 0 0 3.3906 3.9063h12.109a3.422 3.422 0 0 0 3.3828-3.9063l-2.8828-20.188a4.5493 4.5493 0 0 0-4.5-3.9063zm2 4a4 4 0 0 1 4 4 4 4 0 0 1-4 4 4 4 0 0 1-4-4 4 4 0 0 1 4-4z" fill="#3d3846"/>
 <path d="m185.95 103a4.6121 4.6121 0 0 0-4.5703 3.961l-2.875 20.133a3.422 3.422 0 0 0 3.3906 3.9063h12.109a3.422 3.422 0 0 0 3.3828-3.9063l-2.8828-20.188a4.5493 4.5493 0 0 0-4.5-3.9063zm2 4a4 4 0 0 1 4 4 4 4 0 0 1-4 4 4 4 0 0 1-4-4 4 4 0 0 1 4-4z" fill="#5e5c64"/>
 <path d="m187.95 119a4 4 45 0 1 4 4 4 4 135 0 1-4 4 4 4 45 0 1-4-4 4 4 135 0 1 4-4z" fill="#deddda"/>
 <rect x="185.95" y="99" width="4" height="12" rx="0" ry="0" fill="#9a9996"/>
 <rect x="185.95" y="107" width="4" height="4" fill="#77767b"/>
 <rect x="185.95" y="99" width="4" height="4" rx="0" fill="#c0bfbc"/>
</svg>
