<?xml version="1.0" encoding="utf-8"?>
<!-- Generator: Adobe Illustrator 15.0.2, SVG Export Plug-In . SVG Version: 6.00 Build 0)  -->
<!DOCTYPE svg PUBLIC "-//W3C//DTD SVG 1.1//EN" "http://www.w3.org/Graphics/SVG/1.1/DTD/svg11.dtd">
<svg version="1.1" id="Ebene_1" xmlns="http://www.w3.org/2000/svg" xmlns:xlink="http://www.w3.org/1999/xlink" x="0px" y="0px"
	 width="200px" height="90px" viewBox="0 0 200 90" enable-background="new 0 0 200 90" xml:space="preserve">
<g>
	<g>
		<g enable-background="new    ">
			<g>
				<polygon fill="#848484" points="176.852,52.175 152.591,39.979 152.711,29.789 176.971,41.984 				"/>
			</g>
			<g>
				<polygon fill="#B4B4B4" points="177.091,31.794 152.83,19.599 162.101,18.296 186.36,30.491 				"/>
			</g>
			<g>
				<polygon fill="#848484" points="158.206,64.969 133.946,52.773 134.065,42.583 158.326,54.778 				"/>
			</g>
			<g>
				<polygon fill="#B4B4B4" points="158.326,54.778 134.065,42.583 152.591,39.979 176.852,52.175 				"/>
			</g>
			<g>
				<polygon fill="#848484" points="167.708,43.286 143.447,31.091 143.567,20.901 167.827,33.096 				"/>
			</g>
			<g>
				<polygon fill="#B4B4B4" points="158.685,24.207 134.425,12.012 152.95,9.408 177.21,21.604 				"/>
			</g>
			<g>
				<polygon fill="#848484" points="158.565,34.398 134.305,22.203 134.425,12.012 158.685,24.207 				"/>
			</g>
			<g>
				<polygon fill="#DFDFDF" points="177.21,21.604 177.091,31.794 186.36,30.491 186.002,61.062 158.206,64.969 158.326,54.778 
					176.852,52.175 176.971,41.984 167.708,43.286 167.827,33.096 158.565,34.398 158.685,24.207 				"/>
			</g>
		</g>
		<g enable-background="new    ">
			<g>
				<polygon fill="#244287" points="148.943,66.271 139.682,67.572 139.801,57.382 149.063,56.08 				"/>
			</g>
			<g>
				<polygon fill="#152750" points="139.682,67.572 115.421,55.377 115.541,45.187 139.801,57.382 				"/>
			</g>
			<g>
				<polygon fill="#1D356D" points="139.801,57.382 115.541,45.187 124.804,43.885 149.063,56.08 				"/>
			</g>
		</g>
		<g enable-background="new    ">
			<g>
				<polygon fill="#244287" points="149.303,35.7 149.183,45.89 139.921,47.191 140.04,37.001 				"/>
			</g>
			<g>
				<polygon fill="#152750" points="139.921,47.191 115.661,34.997 115.78,24.807 140.04,37.001 				"/>
			</g>
			<g>
				<polygon fill="#1D356D" points="140.04,37.001 115.78,24.807 125.043,23.505 149.303,35.7 				"/>
			</g>
		</g>
		<g enable-background="new    ">
			<g>
				<polygon fill="#244287" points="130.658,48.494 139.921,47.191 139.801,57.382 130.539,58.684 				"/>
			</g>
			<g>
				<polygon fill="#1D356D" points="130.658,48.494 106.398,36.299 115.661,34.997 139.921,47.191 				"/>
			</g>
			<g>
				<polygon fill="#152750" points="130.539,58.684 106.278,46.489 106.398,36.299 130.658,48.494 				"/>
			</g>
		</g>
		<g enable-background="new    ">
			<g>
				<polygon fill="#244287" points="121.156,70.176 121.275,59.986 130.539,58.684 130.419,68.874 				"/>
			</g>
			<g>
				<polygon fill="#152750" points="121.156,70.176 96.896,57.981 97.016,47.791 121.275,59.986 				"/>
			</g>
			<g>
				<polygon fill="#1D356D" points="121.275,59.986 97.016,47.791 106.278,46.489 130.539,58.684 				"/>
			</g>
		</g>
		<g enable-background="new    ">
			<g>
				<polygon fill="#244287" points="121.515,39.605 130.778,38.303 130.658,48.494 121.396,49.796 				"/>
			</g>
			<g>
				<polygon fill="#1D356D" points="121.515,39.605 97.255,27.41 106.519,26.108 130.778,38.303 				"/>
			</g>
			<g>
				<polygon fill="#152750" points="121.396,49.796 97.135,37.601 97.255,27.41 121.515,39.605 				"/>
			</g>
		</g>
		<g enable-background="new    ">
			<g>
				<polygon fill="#487E20" points="93.48,63.893 69.221,51.697 78.491,50.395 102.751,62.59 				"/>
			</g>
			<g>
				<polygon fill="#487E20" points="102.99,42.209 78.73,30.014 87.993,28.712 112.253,40.907 				"/>
			</g>
			<g>
				<polygon fill="#355C18" points="102.751,62.59 78.491,50.395 78.73,30.014 102.99,42.209 				"/>
			</g>
			<g>
				<polygon fill="#487E20" points="74.956,66.496 50.695,54.302 59.958,53 84.218,65.194 				"/>
			</g>
			<g>
				<polygon fill="#355C18" points="84.218,65.194 59.958,53 60.197,32.619 84.457,44.814 				"/>
			</g>
			<g>
				<polygon fill="#487E20" points="84.457,44.814 60.197,32.619 69.46,31.317 93.72,43.512 				"/>
			</g>
			<g>
				<polygon fill="#599C28" points="112.253,40.907 111.894,71.478 65.573,77.988 65.932,47.418 75.195,46.116 74.956,66.496 
					84.218,65.194 84.457,44.814 93.72,43.512 93.48,63.893 102.751,62.59 102.99,42.209 				"/>
			</g>
			<g>
				<polygon fill="#487E20" points="65.932,47.418 41.672,35.223 50.935,33.921 75.195,46.116 				"/>
			</g>
			<g>
				<polygon fill="#355C18" points="65.573,77.988 41.313,65.794 41.672,35.223 65.932,47.418 				"/>
			</g>
		</g>
		<g enable-background="new    ">
			<g>
				<polygon fill="#C81F1C" points="56.67,48.72 56.55,58.91 47.287,60.212 47.048,80.592 37.786,81.895 38.145,51.323 				"/>
			</g>
			<g>
				<polygon fill="#761211" points="37.786,81.895 13.525,69.699 13.885,39.128 38.145,51.323 				"/>
			</g>
			<g>
				<polygon fill="#A11917" points="38.145,51.323 13.885,39.128 32.41,36.524 56.67,48.72 				"/>
			</g>
		</g>
	</g>
</g>
</svg>
