<?xml version="1.0" encoding="UTF-8" standalone="no"?>
<!-- Created with Inkscape (http://www.inkscape.org/) -->

<svg
   xmlns:dc="http://purl.org/dc/elements/1.1/"
   xmlns:cc="http://creativecommons.org/ns#"
   xmlns:rdf="http://www.w3.org/1999/02/22-rdf-syntax-ns#"
   xmlns:svg="http://www.w3.org/2000/svg"
   xmlns="http://www.w3.org/2000/svg"
   xmlns:sodipodi="http://sodipodi.sourceforge.net/DTD/sodipodi-0.dtd"
   xmlns:inkscape="http://www.inkscape.org/namespaces/inkscape"
   width="1052.3622"
   height="744.09448"
   id="svg2"
   version="1.1"
   inkscape:version="0.48.4 r9939"
   sodipodi:docname="BackPack_Final.svg"
   inkscape:export-filename="/home/CarlosRibeiro/git_repo/artwork/Marketing Materials/Events/openSUSE Conference/2013/Backpack/BackPack_Final.png"
   inkscape:export-xdpi="300"
   inkscape:export-ydpi="300">
  <defs
     id="defs4">
    <filter
       color-interpolation-filters="sRGB"
       inkscape:label="Drop Shadow"
       id="filter4153">
      <feFlood
         result="flood"
         flood-color="rgb(0,0,0)"
         flood-opacity="1"
         id="feFlood4155" />
      <feComposite
         result="composite1"
         operator="in"
         in="flood"
         in2="SourceGraphic"
         id="feComposite4157" />
      <feGaussianBlur
         result="blur"
         stdDeviation="2.9"
         id="feGaussianBlur4159" />
      <feOffset
         result="offset"
         dy="1.6"
         dx="5.5"
         id="feOffset4161" />
      <feComposite
         result="composite2"
         operator="over"
         in="SourceGraphic"
         in2="offset"
         id="feComposite4163" />
    </filter>
    <filter
       color-interpolation-filters="sRGB"
       inkscape:label="Drop Shadow"
       id="filter3961">
      <feFlood
         result="flood"
         flood-color="rgb(0,0,0)"
         flood-opacity="1"
         id="feFlood3963" />
      <feComposite
         result="composite1"
         operator="in"
         in="flood"
         in2="SourceGraphic"
         id="feComposite3965" />
      <feGaussianBlur
         result="blur"
         stdDeviation="2.2"
         id="feGaussianBlur3967" />
      <feOffset
         result="offset"
         dy="4"
         dx="4"
         id="feOffset3969" />
      <feComposite
         result="composite2"
         operator="over"
         in="SourceGraphic"
         in2="offset"
         id="feComposite3971" />
    </filter>
    <filter
       color-interpolation-filters="sRGB"
       inkscape:label="Drop Shadow"
       id="filter4188">
      <feFlood
         result="flood"
         flood-color="rgb(0,0,0)"
         flood-opacity="1"
         id="feFlood4190" />
      <feComposite
         result="composite1"
         operator="in"
         in="flood"
         in2="SourceGraphic"
         id="feComposite4192" />
      <feGaussianBlur
         result="blur"
         stdDeviation="2.2"
         id="feGaussianBlur4194" />
      <feOffset
         result="offset"
         dy="4"
         dx="4"
         id="feOffset4196" />
      <feComposite
         result="composite2"
         operator="over"
         in="SourceGraphic"
         in2="offset"
         id="feComposite4198" />
    </filter>
    <filter
       color-interpolation-filters="sRGB"
       inkscape:label="Drop Shadow"
       id="filter4152">
      <feFlood
         result="flood"
         flood-color="rgb(0,0,0)"
         flood-opacity="1"
         id="feFlood4154" />
      <feComposite
         result="composite1"
         operator="in"
         in="flood"
         in2="SourceGraphic"
         id="feComposite4156" />
      <feGaussianBlur
         result="blur"
         stdDeviation="2.2"
         id="feGaussianBlur4158" />
      <feOffset
         result="offset"
         dy="4"
         dx="4"
         id="feOffset4160" />
      <feComposite
         result="fbSourceGraphic"
         operator="over"
         in="SourceGraphic"
         in2="offset"
         id="feComposite4162" />
      <feColorMatrix
         id="feColorMatrix4164"
         values="0 0 0 -1 0 0 0 0 -1 0 0 0 0 -1 0 0 0 0 1 0"
         in="fbSourceGraphic"
         result="fbSourceGraphicAlpha" />
      <feFlood
         in="fbSourceGraphic"
         result="flood"
         flood-color="rgb(0,0,0)"
         flood-opacity="1"
         id="feFlood4166" />
      <feComposite
         result="composite1"
         operator="in"
         in="flood"
         in2="fbSourceGraphic"
         id="feComposite4168" />
      <feGaussianBlur
         result="blur"
         stdDeviation="2.2"
         id="feGaussianBlur4170" />
      <feOffset
         result="offset"
         dy="4"
         dx="4"
         id="feOffset4172" />
      <feComposite
         result="composite2"
         operator="over"
         in="fbSourceGraphic"
         in2="offset"
         id="feComposite4174" />
    </filter>
    <path
       transform="matrix(0,1,-1,0,-162.43321,1102.3616)"
       d="m -316.53836,297.15201 a 266.55862,266.55862 0 1 1 -533.11725,0 266.55862,266.55862 0 1 1 533.11725,0 z"
       sodipodi:ry="266.55862"
       sodipodi:rx="266.55862"
       sodipodi:cy="297.15201"
       sodipodi:cx="-583.09698"
       id="path3809-3"
       style="fill:#b3b3b3;stroke:none"
       sodipodi:type="arc" />
    <filter
       color-interpolation-filters="sRGB"
       inkscape:label="Drop Shadow"
       id="filter8133">
      <feFlood
         result="flood"
         flood-color="rgb(0,0,0)"
         flood-opacity="1"
         id="feFlood8135" />
      <feComposite
         result="composite1"
         operator="in"
         in="flood"
         in2="SourceGraphic"
         id="feComposite8137" />
      <feGaussianBlur
         result="blur"
         stdDeviation="2.2"
         id="feGaussianBlur8139" />
      <feOffset
         result="offset"
         dy="4"
         dx="4"
         id="feOffset8141" />
      <feComposite
         result="fbSourceGraphic"
         operator="over"
         in="SourceGraphic"
         in2="offset"
         id="feComposite8143" />
      <feColorMatrix
         id="feColorMatrix8145"
         values="0 0 0 -1 0 0 0 0 -1 0 0 0 0 -1 0 0 0 0 1 0"
         in="fbSourceGraphic"
         result="fbSourceGraphicAlpha" />
      <feFlood
         in="fbSourceGraphic"
         result="flood"
         flood-color="rgb(0,0,0)"
         flood-opacity="1"
         id="feFlood8147" />
      <feComposite
         result="composite1"
         operator="in"
         in="flood"
         in2="fbSourceGraphic"
         id="feComposite8149" />
      <feGaussianBlur
         result="blur"
         stdDeviation="2.2"
         id="feGaussianBlur8151" />
      <feOffset
         result="offset"
         dy="4"
         dx="4"
         id="feOffset8153" />
      <feComposite
         result="composite2"
         operator="over"
         in="fbSourceGraphic"
         in2="offset"
         id="feComposite8155" />
    </filter>
    <filter
       color-interpolation-filters="sRGB"
       inkscape:label="Drop Shadow"
       id="filter8109">
      <feFlood
         result="flood"
         flood-color="rgb(0,0,0)"
         flood-opacity="1"
         id="feFlood8111" />
      <feComposite
         result="composite1"
         operator="in"
         in="flood"
         in2="SourceGraphic"
         id="feComposite8113" />
      <feGaussianBlur
         result="blur"
         stdDeviation="2.2"
         id="feGaussianBlur8115" />
      <feOffset
         result="offset"
         dy="4"
         dx="4"
         id="feOffset8117" />
      <feComposite
         result="fbSourceGraphic"
         operator="over"
         in="SourceGraphic"
         in2="offset"
         id="feComposite8119" />
      <feColorMatrix
         id="feColorMatrix8121"
         values="0 0 0 -1 0 0 0 0 -1 0 0 0 0 -1 0 0 0 0 1 0"
         in="fbSourceGraphic"
         result="fbSourceGraphicAlpha" />
      <feFlood
         in="fbSourceGraphic"
         result="flood"
         flood-color="rgb(0,0,0)"
         flood-opacity="1"
         id="feFlood8123" />
      <feComposite
         result="composite1"
         operator="in"
         in="flood"
         in2="fbSourceGraphic"
         id="feComposite8125" />
      <feGaussianBlur
         result="blur"
         stdDeviation="2.2"
         id="feGaussianBlur8127" />
      <feOffset
         result="offset"
         dy="4"
         dx="4"
         id="feOffset8129" />
      <feComposite
         result="composite2"
         operator="over"
         in="fbSourceGraphic"
         in2="offset"
         id="feComposite8131" />
    </filter>
    <path
       sodipodi:type="arc"
       style="color:#000000;fill:none;stroke:none;stroke-width:1;marker:none;visibility:visible;display:inline;overflow:visible;enable-background:accumulate"
       id="path7423-4"
       sodipodi:cx="884.41559"
       sodipodi:cy="315.63318"
       sodipodi:rx="71.767273"
       sodipodi:ry="72.838425"
       d="m 956.18286,315.63318 a 71.767273,72.838425 0 1 1 -143.53454,0 71.767273,72.838425 0 1 1 143.53454,0 z"
       transform="matrix(-0.03231966,1.2034638,-1.2034638,-0.03231966,1278.5202,-427.89601)" />
    <path
       sodipodi:type="arc"
       style="color:#000000;fill:none;stroke:none;stroke-width:1;marker:none;visibility:visible;display:inline;overflow:visible;enable-background:accumulate"
       id="path7423-4-1"
       sodipodi:cx="884.41559"
       sodipodi:cy="315.63318"
       sodipodi:rx="71.767273"
       sodipodi:ry="72.838425"
       d="m 956.18286,315.63318 a 71.767273,72.838425 0 1 1 -143.53454,0 71.767273,72.838425 0 1 1 143.53454,0 z"
       transform="matrix(-0.03231966,1.2034638,-1.2034638,-0.03231966,1278.5202,-427.89601)" />
  </defs>
  <sodipodi:namedview
     id="base"
     pagecolor="#ffffff"
     bordercolor="#666666"
     borderopacity="1.0"
     inkscape:pageopacity="0.0"
     inkscape:pageshadow="2"
     inkscape:zoom="0.16966931"
     inkscape:cx="-1365.2728"
     inkscape:cy="668.09408"
     inkscape:document-units="px"
     inkscape:current-layer="layer1"
     showgrid="false"
     inkscape:window-width="1280"
     inkscape:window-height="742"
     inkscape:window-x="0"
     inkscape:window-y="27"
     inkscape:window-maximized="1"
     showguides="true"
     inkscape:guide-bbox="true" />
  <metadata
     id="metadata7">
    <rdf:RDF>
      <cc:Work
         rdf:about="">
        <dc:format>image/svg+xml</dc:format>
        <dc:type
           rdf:resource="http://purl.org/dc/dcmitype/StillImage" />
        <dc:title></dc:title>
      </cc:Work>
    </rdf:RDF>
  </metadata>
  <g
     inkscape:label="Camada 1"
     inkscape:groupmode="layer"
     id="layer1"
     transform="translate(0,-308.2677)">
    <text
       inkscape:export-ydpi="300"
       inkscape:export-xdpi="300"
       inkscape:export-filename="/home/CarlosRibeiro/git_repo/artwork/Marketing Materials/Events/openSUSE Conference/2013/Backpack/BackPack_Final.png"
       sodipodi:linespacing="125%"
       id="text6219-3"
       y="172.77527"
       x="265.52112"
       style="font-size:3.75638127px;font-style:normal;font-weight:normal;line-height:125%;letter-spacing:0px;word-spacing:0px;fill:#000000;fill-opacity:1;stroke:none;font-family:Sans"
       xml:space="preserve"><tspan
         id="tspan6221-5"
         y="172.77527"
         x="265.52112"
         sodipodi:role="line" /></text>
    <text
       inkscape:export-ydpi="300"
       inkscape:export-xdpi="300"
       inkscape:export-filename="/home/CarlosRibeiro/git_repo/artwork/Marketing Materials/Events/openSUSE Conference/2013/Backpack/BackPack_Final.png"
       y="34.802441"
       x="437.82938"
       xml:space="preserve"
       style="font-size:17.34701538px;font-style:normal;font-variant:normal;font-weight:bold;font-stretch:normal;text-align:center;line-height:125%;letter-spacing:0px;word-spacing:0px;text-anchor:middle;fill:#000000;fill-opacity:1;stroke:none;font-family:FifthLeg;-inkscape-font-specification:FifthLeg Bold"
       id="text4225"
       sodipodi:linespacing="125%" />
    <text
       inkscape:export-ydpi="300"
       inkscape:export-xdpi="300"
       inkscape:export-filename="/home/CarlosRibeiro/git_repo/artwork/Marketing Materials/Events/openSUSE Conference/2013/Backpack/BackPack_Final.png"
       xml:space="preserve"
       style="font-size:2.02568316px;font-style:normal;font-weight:normal;line-height:125%;letter-spacing:0px;word-spacing:0px;color:#000000;fill:#6eb927;fill-opacity:1;fill-rule:nonzero;stroke:none;stroke-width:3.85548687;marker:none;visibility:visible;display:inline;overflow:visible;enable-background:accumulate;font-family:Sans"
       x="523.95459"
       y="140.2406"
       id="text3761"
       sodipodi:linespacing="125%"><tspan
         sodipodi:role="line"
         id="tspan3763"
         x="523.95459"
         y="140.2406" /></text>
    <text
       inkscape:export-ydpi="300"
       inkscape:export-xdpi="300"
       inkscape:export-filename="/home/CarlosRibeiro/git_repo/artwork/Marketing Materials/Events/openSUSE Conference/2013/Backpack/BackPack_Final.png"
       xml:space="preserve"
       style="font-size:3.0385251px;font-style:normal;font-weight:normal;line-height:125%;letter-spacing:0px;word-spacing:0px;color:#000000;fill:#6eb927;fill-opacity:1;fill-rule:nonzero;stroke:none;stroke-width:3.85548687;marker:none;visibility:visible;display:inline;overflow:visible;enable-background:accumulate;font-family:Sans"
       x="524.13562"
       y="139.20067"
       id="text3765"
       sodipodi:linespacing="125%"><tspan
         sodipodi:role="line"
         x="524.13562"
         y="139.20067"
         id="tspan3773" /></text>
    <flowRoot
       inkscape:export-ydpi="300"
       inkscape:export-xdpi="300"
       inkscape:export-filename="/home/CarlosRibeiro/git_repo/artwork/Marketing Materials/Events/openSUSE Conference/2013/Backpack/BackPack_Final.png"
       transform="matrix(0.23579462,0,0,0.23579462,437.82932,81.961512)"
       style="font-size:40px;font-style:normal;font-weight:normal;line-height:125%;letter-spacing:0px;word-spacing:0px;fill:#000000;fill-opacity:1;stroke:none;font-family:Sans"
       id="flowRoot4175"
       xml:space="preserve"><flowRegion
         id="flowRegion4177"><rect
           y="931.19714"
           x="0"
           height="208.09729"
           width="398.85315"
           id="rect4179" /></flowRegion><flowPara
         id="flowPara4181" /></flowRoot>    <g
       id="layer3"
       inkscape:label="text"
       transform="matrix(3.2139578,0,0,3.2139578,-3104.5841,141.86333)"
       inkscape:export-filename="/home/CarlosRibeiro/git_repo/artwork/Marketing Materials/Events/openSUSE Conference/2013/Backpack/BackPack_Final.png"
       inkscape:export-xdpi="300"
       inkscape:export-ydpi="300" />
    <text
       xml:space="preserve"
       style="font-size:154.08792114px;font-style:normal;font-weight:normal;line-height:125%;letter-spacing:0px;word-spacing:0px;fill:#000000;fill-opacity:1;stroke:none;font-family:Sans"
       x="-755.10413"
       y="1234.9044"
       id="text4587"
       sodipodi:linespacing="125%"
       inkscape:export-filename="/home/CarlosRibeiro/git_repo/artwork/Marketing Materials/Events/openSUSE Conference/2013/Backpack/BackPack_Final.png"
       inkscape:export-xdpi="300"
       inkscape:export-ydpi="300"><tspan
         sodipodi:role="line"
         x="-755.10413"
         y="1234.9044"
         id="tspan4591" /></text>
    <text
       xml:space="preserve"
       style="font-size:3.75638127px;font-style:normal;font-weight:normal;line-height:125%;letter-spacing:0px;word-spacing:0px;fill:#000000;fill-opacity:1;stroke:none;font-family:Sans"
       x="265.52112"
       y="1734.567"
       id="text4796"
       sodipodi:linespacing="125%"
       inkscape:export-filename="/home/CarlosRibeiro/git_repo/artwork/Marketing Materials/Events/openSUSE Conference/2013/Backpack/BackPack_Final.png"
       inkscape:export-xdpi="300"
       inkscape:export-ydpi="300"><tspan
         sodipodi:role="line"
         x="265.52112"
         y="1734.567"
         id="tspan4798" /></text>
    <text
       sodipodi:linespacing="125%"
       id="text4800"
       style="font-size:17.34701538px;font-style:normal;font-variant:normal;font-weight:bold;font-stretch:normal;text-align:center;line-height:125%;letter-spacing:0px;word-spacing:0px;text-anchor:middle;fill:#000000;fill-opacity:1;stroke:none;font-family:FifthLeg;-inkscape-font-specification:FifthLeg Bold"
       xml:space="preserve"
       x="437.82938"
       y="1596.5944"
       inkscape:export-filename="/home/CarlosRibeiro/git_repo/artwork/Marketing Materials/Events/openSUSE Conference/2013/Backpack/BackPack_Final.png"
       inkscape:export-xdpi="300"
       inkscape:export-ydpi="300" />
    <text
       sodipodi:linespacing="125%"
       id="text4802"
       y="1702.0322"
       x="523.95459"
       style="font-size:2.02568316px;font-style:normal;font-weight:normal;line-height:125%;letter-spacing:0px;word-spacing:0px;color:#000000;fill:#6eb927;fill-opacity:1;fill-rule:nonzero;stroke:none;stroke-width:3.85548687;marker:none;visibility:visible;display:inline;overflow:visible;enable-background:accumulate;font-family:Sans"
       xml:space="preserve"
       inkscape:export-filename="/home/CarlosRibeiro/git_repo/artwork/Marketing Materials/Events/openSUSE Conference/2013/Backpack/BackPack_Final.png"
       inkscape:export-xdpi="300"
       inkscape:export-ydpi="300"><tspan
         y="1702.0322"
         x="523.95459"
         id="tspan4804"
         sodipodi:role="line" /></text>
    <text
       sodipodi:linespacing="125%"
       id="text4806"
       y="1700.9926"
       x="524.13562"
       style="font-size:3.0385251px;font-style:normal;font-weight:normal;line-height:125%;letter-spacing:0px;word-spacing:0px;color:#000000;fill:#6eb927;fill-opacity:1;fill-rule:nonzero;stroke:none;stroke-width:3.85548687;marker:none;visibility:visible;display:inline;overflow:visible;enable-background:accumulate;font-family:Sans"
       xml:space="preserve"
       inkscape:export-filename="/home/CarlosRibeiro/git_repo/artwork/Marketing Materials/Events/openSUSE Conference/2013/Backpack/BackPack_Final.png"
       inkscape:export-xdpi="300"
       inkscape:export-ydpi="300"><tspan
         id="tspan4808"
         y="1700.9926"
         x="524.13562"
         sodipodi:role="line" /></text>
    <flowRoot
       xml:space="preserve"
       id="flowRoot4810"
       style="font-size:40px;font-style:normal;font-weight:normal;line-height:125%;letter-spacing:0px;word-spacing:0px;fill:#000000;fill-opacity:1;stroke:none;font-family:Sans"
       transform="matrix(0.23579462,0,0,0.23579462,437.82932,1643.7531)"
       inkscape:export-filename="/home/CarlosRibeiro/git_repo/artwork/Marketing Materials/Events/openSUSE Conference/2013/Backpack/BackPack_Final.png"
       inkscape:export-xdpi="300"
       inkscape:export-ydpi="300"><flowRegion
         id="flowRegion4812"><rect
           id="rect4814"
           width="398.85315"
           height="208.09729"
           x="0"
           y="931.19714" /></flowRegion><flowPara
         id="flowPara4816" /></flowRoot>    <g
       transform="matrix(3.2139578,0,0,3.2139578,-3104.5841,1703.655)"
       inkscape:label="text"
       id="g4818"
       inkscape:export-filename="/home/CarlosRibeiro/git_repo/artwork/Marketing Materials/Events/openSUSE Conference/2013/Backpack/BackPack_Final.png"
       inkscape:export-xdpi="300"
       inkscape:export-ydpi="300" />
    <text
       sodipodi:linespacing="125%"
       id="text4820"
       y="2796.6958"
       x="-755.10413"
       style="font-size:154.08792114px;font-style:normal;font-weight:normal;line-height:125%;letter-spacing:0px;word-spacing:0px;fill:#000000;fill-opacity:1;stroke:none;font-family:Sans"
       xml:space="preserve"
       inkscape:export-filename="/home/CarlosRibeiro/git_repo/artwork/Marketing Materials/Events/openSUSE Conference/2013/Backpack/BackPack_Final.png"
       inkscape:export-xdpi="300"
       inkscape:export-ydpi="300"><tspan
         id="tspan4822"
         y="2796.6958"
         x="-755.10413"
         sodipodi:role="line" /></text>
    <g
       id="g3583"
       transform="matrix(6.2970498,0,0,6.2970498,-2964.5831,-3329.6011)"
       style="fill:#000000"
       inkscape:export-filename="/home/CarlosRibeiro/git_repo/artwork/Marketing Materials/Events/openSUSE Conference/2013/Backpack/BackPack_Final.png"
       inkscape:export-xdpi="300"
       inkscape:export-ydpi="300">
      <g
         id="g3585"
         style="fill:#000000"
         transform="matrix(2.1427401,0,0,2.1427401,-540.42766,1128.9508)">
        <path
           inkscape:connector-curvature="0"
           id="path3587"
           d="m 491.92559,-234.88029 c -0.5231,-0.83204 -1.27823,-2.35135 -1.46932,-2.95624 -0.17534,-0.55505 -0.22659,-0.9747 -0.16028,-1.31229 0.12893,-0.65636 1.11377,-3.58877 1.25155,-3.72655 0.0809,-0.0809 0.28475,0.21356 0.61389,0.88646 0.44423,0.90817 0.70184,1.57504 0.9197,2.38077 0.22168,0.81987 0.25162,1.04865 0.18249,1.39453 -0.0992,0.49636 -0.32171,1.43277 -0.43713,1.83972 -0.13648,0.48123 -0.63865,1.77435 -0.68904,1.77435 -0.0195,0 -0.11479,-0.12634 -0.21186,-0.28075 z"
           style="fill:#000000;fill-opacity:1;stroke:none" />
        <path
           inkscape:connector-curvature="0"
           id="path3589"
           d="m 494.01356,-239.54347 c -0.56971,-0.87204 -0.76364,-1.48799 -0.76993,-2.44544 -0.004,-0.57897 0.006,-0.65919 0.12433,-1.01071 0.14235,-0.4231 0.63933,-1.41292 1.03826,-2.06786 0.14244,-0.23386 0.41292,-0.68157 0.60106,-0.9949 0.18814,-0.31333 0.3481,-0.56366 0.35546,-0.5563 0.10271,0.10271 0.83224,3.21699 0.83199,3.55168 -3.7e-4,0.37649 -0.20236,1.14904 -0.4054,1.54975 -0.21711,0.42851 -1.24664,2.23287 -1.35686,2.37806 l -0.0832,0.10959 -0.33571,-0.51387 z"
           style="fill:#000000;fill-opacity:1;stroke:none" />
        <path
           inkscape:connector-curvature="0"
           id="path3591"
           d="m 497.16796,-242.93224 c -0.16755,-0.40981 -0.22737,-0.82951 -0.27533,-1.93203 l -0.0489,-1.12346 0.18057,-0.3589 c 0.23753,-0.4721 0.62589,-0.99278 1.34654,-1.80531 0.6578,-0.74168 1.07559,-1.16598 1.11212,-1.12945 0.048,0.048 0.24208,1.50926 0.27056,2.03682 0.0258,0.47814 0.018,0.57456 -0.0687,0.85348 -0.12793,0.41122 -0.48,1.11382 -0.76402,1.52466 -0.27145,0.39266 -1.05907,1.37102 -1.43055,1.77697 l -0.26719,0.29199 -0.0551,-0.13477 0,0 z"
           style="fill:#000000;fill-opacity:1;stroke:none" />
        <path
           inkscape:connector-curvature="0"
           id="path3593"
           d="m 501.31048,-246.92074 c -0.0609,-0.0733 -0.10821,-0.28686 -0.25605,-1.15486 -0.10168,-0.597 -0.11435,-0.76991 -0.0889,-1.21284 0.0559,-0.97344 0.15369,-1.25913 0.63805,-1.86419 0.34841,-0.43524 1.67561,-1.85797 1.90566,-2.04285 l 0.16524,-0.13279 0.0281,0.11181 c 0.0592,0.23567 0.11497,1.28863 0.11873,2.23997 0.004,0.95755 0,1.00419 -0.115,1.35114 -0.0654,0.19765 -0.1771,0.48065 -0.2482,0.62889 -0.25886,0.53966 -0.97904,1.31614 -1.75611,1.89339 -0.17793,0.13218 -0.32797,0.24032 -0.33342,0.24032 -0.005,0 -0.0316,-0.0261 -0.058,-0.058 l 0,0 z"
           style="fill:#000000;fill-opacity:1;stroke:none" />
        <path
           inkscape:connector-curvature="0"
           id="path3595"
           d="m 505.14654,-250.2182 c -0.0424,-0.31629 -0.0888,-0.97233 -0.10312,-1.45786 l -0.026,-0.88279 0.12736,-0.21776 c 0.18216,-0.3114 1.16389,-1.27314 1.79262,-1.75611 0.5483,-0.42118 1.14535,-0.76497 1.23368,-0.71038 0.069,0.0426 0.0624,0.26887 -0.0407,1.39759 -0.10686,1.17053 -0.17458,1.51332 -0.38621,1.9549 -0.20094,0.4193 -0.45705,0.71851 -1.01514,1.18603 -0.4147,0.34739 -1.29452,0.98052 -1.44032,1.03646 -0.0525,0.0202 -0.08,-0.0862 -0.14217,-0.55008 l 0,0 z"
           style="fill:#000000;fill-opacity:1;stroke:none" />
        <path
           inkscape:connector-curvature="0"
           id="path3597"
           d="m 508.72926,-251.3362 c -0.0497,-0.12945 0.0247,-1.1097 0.11734,-1.54586 0.16467,-0.77561 0.31227,-1.16544 0.51985,-1.37302 0.35036,-0.35036 0.9872,-0.73326 1.94825,-1.17137 l 0.33173,-0.15123 -0.0223,0.30342 c -0.0168,0.22786 -0.0896,0.47679 -0.29262,0.99967 -0.14865,0.38295 -0.33486,0.89285 -0.41379,1.13313 -0.10704,0.32585 -0.19375,0.49789 -0.34123,0.67703 -0.28824,0.35012 -1.12923,0.93779 -1.59567,1.11503 -0.20232,0.0769 -0.22659,0.0781 -0.25152,0.0132 l 0,0 z"
           style="fill:#000000;fill-opacity:1;stroke:none" />
        <path
           inkscape:connector-curvature="0"
           id="path3599"
           d="m 512.18884,-252.68192 c -0.0778,-0.20271 0.15093,-1.16634 0.38854,-1.63706 0.1565,-0.31002 0.37245,-0.47751 0.90545,-0.70231 0.34102,-0.14382 1.34978,-0.51106 1.40383,-0.51106 0.10846,0 -0.22735,0.71782 -0.67373,1.44013 -0.35218,0.56988 -0.85692,0.99451 -1.60004,1.34606 -0.32132,0.15201 -0.38657,0.16189 -0.42405,0.0642 l 0,0 z"
           style="fill:#000000;fill-opacity:1;stroke:none" />
        <path
           inkscape:connector-curvature="0"
           id="path3601"
           d="m 514.95842,-253.50928 c 0,-0.0932 0.19301,-0.52538 0.36973,-0.82797 0.36188,-0.61963 0.77319,-0.95526 1.35212,-1.10332 0.37801,-0.0967 0.97282,-0.16376 1.08168,-0.12199 0.0695,0.0267 -0.0831,0.25682 -0.76127,1.14796 l -0.2262,0.29723 -0.51498,0.18248 c -0.28323,0.10036 -0.66364,0.24691 -0.84535,0.32567 -0.34327,0.14879 -0.45573,0.17345 -0.45573,0.0999 z"
           style="fill:#000000;fill-opacity:1;stroke:none" />
        <path
           inkscape:connector-curvature="0"
           id="path3603"
           d="m 519.27076,-253.73534 c -0.21651,-0.0293 -0.44321,-0.1318 -0.53429,-0.24154 -0.0472,-0.0568 -0.0217,-0.0926 0.16049,-0.2254 0.33352,-0.24305 0.85739,-0.53189 1.13409,-0.62531 0.19886,-0.0671 0.31881,-0.0784 0.58707,-0.0551 0.38483,0.0334 1.44504,0.19617 1.47532,0.22645 0.0408,0.0408 -1.55144,0.78654 -1.81197,0.84867 -0.33193,0.0792 -0.74268,0.1085 -1.01071,0.0722 z"
           style="fill:#000000;fill-opacity:1;stroke:none" />
        <path
           inkscape:connector-curvature="0"
           id="path3605"
           d="m 492.23084,-232.31754 c -0.003,-0.53794 0.10595,-1.39127 0.23012,-1.8103 0.44912,-1.51567 2.12099,-4.8694 3.15747,-6.33378 0.22732,-0.32118 0.56895,-0.81003 0.75916,-1.08633 0.19429,-0.28222 0.45564,-0.59717 0.5964,-0.71872 0.55108,-0.47586 0.99563,-0.91955 1.522,-1.51905 0.30369,-0.34588 0.73096,-0.80305 0.94948,-1.01591 0.71621,-0.69769 1.85785,-1.69945 2.1994,-1.92993 0.1842,-0.1243 0.62232,-0.45229 0.97359,-0.72887 0.78529,-0.61831 1.40296,-1.03756 2.16554,-1.46987 0.32118,-0.18208 0.81642,-0.47163 1.10054,-0.64344 0.28412,-0.17182 0.76926,-0.43877 1.07809,-0.59323 0.84552,-0.42287 3.99828,-1.66579 5.33785,-2.10434 3.35165,-1.09727 5.83768,-1.75557 6.06469,-1.60592 0.0617,0.0407 0.0265,0.0515 -0.96339,0.2952 -0.2497,0.0615 -0.91676,0.27658 -1.48237,0.47802 -0.5656,0.20144 -1.83693,0.64464 -2.82518,0.9849 -2.64309,0.91003 -2.7516,0.94926 -3.70591,1.33975 -1.50861,0.6173 -2.16158,0.90482 -2.69522,1.18678 -1.5773,0.83341 -3.23737,1.9904 -5.2332,3.64729 -1.35191,1.12232 -2.04809,1.75716 -3.437,3.13418 l -1.10115,1.09172 -0.91283,1.39253 c -1.05982,1.61676 -2.0085,3.34177 -2.4457,4.4471 -0.23853,0.60305 -0.50531,1.65651 -0.6344,2.5051 -0.063,0.41426 -0.14355,0.80844 -0.17897,0.87594 -0.0354,0.0675 -0.16623,0.23391 -0.29069,0.36979 l -0.22628,0.24706 -0.002,-0.43567 0,0 z"
           style="fill:#000000;fill-opacity:1;stroke:none" />
        <path
           inkscape:connector-curvature="0"
           id="path3607"
           d="m 493.32418,-234.09843 c 0.031,-0.23362 0.28398,-1.02212 0.39981,-1.24611 0.13753,-0.26597 0.69143,-0.74834 1.09674,-0.95511 0.302,-0.15406 0.89602,-0.30723 1.57819,-0.40693 0.65983,-0.0964 1.47157,-0.28599 2.53072,-0.59099 0.33779,-0.0973 0.62612,-0.17686 0.64075,-0.17686 0.12868,0 -1.24529,1.68797 -1.74782,2.14725 -0.34499,0.3153 -0.96458,0.75229 -1.32587,0.93511 -0.16085,0.0814 -0.60578,0.22963 -0.98872,0.3294 -0.68005,0.17718 -0.71393,0.18141 -1.45447,0.18163 l -0.7582,2.3e-4 0.0289,-0.21762 z"
           style="fill:#000000;fill-opacity:1;stroke:none" />
        <path
           inkscape:connector-curvature="0"
           id="path3609"
           d="m 495.97964,-237.27086 c -0.0247,-0.0114 -0.28645,-0.0517 -0.58166,-0.0896 -0.29521,-0.0379 -0.55518,-0.0874 -0.57772,-0.1099 -0.0247,-0.0247 0.0101,-0.13502 0.0875,-0.27756 0.18343,-0.3377 0.30515,-0.42946 2.14127,-1.61436 0.90634,-0.5849 1.26935,-0.72313 2.58519,-0.98446 0.50966,-0.10123 1.21922,-0.12573 1.21922,-0.0421 0,0.0277 -0.16846,0.24497 -0.37435,0.48289 -0.2059,0.23792 -0.56697,0.67515 -0.80238,0.97162 -0.49593,0.62457 -0.91907,1.10752 -1.08412,1.23734 -0.20839,0.16392 -0.53247,0.27751 -0.96992,0.33997 -0.44652,0.0637 -1.56445,0.12238 -1.64307,0.0862 z"
           style="fill:#000000;fill-opacity:1;stroke:none" />
        <path
           inkscape:connector-curvature="0"
           id="path3611"
           d="m 496.97352,-240.97229 -0.12912,-0.0284 0.29423,-0.36424 c 0.35408,-0.43832 0.6021,-0.6561 1.06793,-0.93771 0.88637,-0.53583 1.85259,-0.68889 3.96193,-0.62758 0.93,0.027 1.0609,0.0395 1.0134,0.0968 -0.1075,0.12953 -1.45363,1.06728 -1.74207,1.21357 -0.72452,0.36747 -1.7208,0.57673 -3.05695,0.6421 -0.96206,0.0471 -1.21556,0.0481 -1.40935,0.005 z"
           style="fill:#000000;fill-opacity:1;stroke:none" />
        <path
           inkscape:connector-curvature="0"
           id="path3613"
           d="m 501.4116,-243.75622 c -0.2927,-0.0998 -0.88107,-0.43634 -1.09121,-0.62409 -0.13633,-0.12181 -0.15209,-0.15331 -0.0958,-0.1915 0.77421,-0.52515 1.42166,-0.73879 2.40323,-0.79297 0.56885,-0.0314 1.0209,0.0404 2.20943,0.35115 l 0.90674,0.23704 -0.35658,0.14385 c -0.19612,0.0791 -0.56373,0.20738 -0.8169,0.28504 -0.25318,0.0777 -0.61275,0.19911 -0.79905,0.2699 -0.39725,0.15096 -1.09273,0.29786 -1.59588,0.33709 -0.19598,0.0153 -0.39676,0.0355 -0.44617,0.045 -0.0494,0.009 -0.19243,-0.0178 -0.31782,-0.0605 z"
           style="fill:#000000;fill-opacity:1;stroke:none" />
        <path
           inkscape:connector-curvature="0"
           id="path3615"
           d="m 505.6824,-246.48317 c -1.2625,-0.40608 -1.63134,-0.53325 -1.81584,-0.62606 l -0.19871,-0.1 0.19871,-0.11633 c 0.47442,-0.27771 1.83044,-0.84424 2.28545,-0.95483 0.38762,-0.0942 0.72979,-0.0515 1.2746,0.15915 0.19343,0.0748 0.66341,0.1999 1.0444,0.27805 0.40038,0.0821 0.69271,0.16346 0.69271,0.19275 0,0.0659 -0.27738,0.32619 -0.56151,0.52682 -0.48435,0.342 -1.6059,0.75826 -2.11125,0.78358 -0.26409,0.0132 -0.39355,-0.01 -0.80856,-0.14318 z"
           style="fill:#000000;fill-opacity:1;stroke:none" />
        <path
           inkscape:connector-curvature="0"
           id="path3617"
           d="m 508.53483,-248.36512 c -0.59463,-0.12321 -1.16827,-0.46597 -1.37952,-0.82428 -0.0626,-0.10612 -0.1056,-0.20111 -0.0956,-0.21108 0.01,-0.01 0.18587,-0.10209 0.39087,-0.2047 0.2581,-0.12918 0.45169,-0.19372 0.62947,-0.20983 0.24759,-0.0225 0.27719,-0.0127 0.83102,0.27398 0.61455,0.31811 0.95903,0.41485 1.86979,0.52507 0.23471,0.0284 0.45707,0.0617 0.49413,0.0741 0.17962,0.0598 -1.60567,0.56736 -2.15618,0.61305 -0.17009,0.0141 -0.41386,-0.001 -0.58396,-0.0363 l 0,0 z"
           style="fill:#000000;fill-opacity:1;stroke:none" />
        <path
           inkscape:connector-curvature="0"
           id="path3619"
           d="m 511.33311,-249.67863 c -0.40221,-0.22758 -1.18115,-0.94076 -1.18115,-1.08143 0,-0.0512 0.70855,-0.27041 0.99829,-0.3089 0.16358,-0.0217 0.24075,-0.01 0.3369,0.0531 0.2296,0.1497 1.44987,1.14594 1.44987,1.18369 0,0.0501 -0.65528,0.17373 -1.10055,0.20763 -0.29856,0.0227 -0.38373,0.0136 -0.50336,-0.0541 l 0,0 z"
           style="fill:#000000;fill-opacity:1;stroke:none" />
        <path
           inkscape:connector-curvature="0"
           id="path3621"
           d="m 514.34559,-251.15864 c -0.29426,-0.11422 -0.49541,-0.22974 -0.70953,-0.40748 -0.16437,-0.13643 -0.29132,-0.27064 -0.28212,-0.29824 0.009,-0.0276 0.16678,-0.097 0.35017,-0.15423 0.58449,-0.18237 0.83206,-0.0954 1.55052,0.54504 l 0.46084,0.41076 -0.21007,0.0298 c -0.47783,0.0677 -0.73311,0.04 -1.15981,-0.1256 z"
           style="fill:#000000;fill-opacity:1;stroke:none" />
        <path
           inkscape:connector-curvature="0"
           id="path3623"
           d="m 517.06967,-252.16143 c -0.16059,-0.0156 -0.36273,-0.0601 -0.4492,-0.0988 -0.17697,-0.0793 -0.71872,-0.47695 -0.71872,-0.52758 0,-0.0462 0.45349,-0.18408 0.6054,-0.18408 0.1514,0 0.44605,0.17588 0.90307,0.53906 0.31874,0.25329 0.33108,0.2695 0.20511,0.2695 -0.0737,0 -0.16095,0.007 -0.19385,0.0151 -0.0329,0.008 -0.19122,0.002 -0.35181,-0.0132 z"
           style="fill:#000000;fill-opacity:1;stroke:none" />
        <path
           inkscape:connector-curvature="0"
           id="path3625"
           d="m 518.29068,-253.11929 c -0.0263,-0.0317 -0.15152,-0.0949 -0.27832,-0.14046 -0.1268,-0.0456 -0.2139,-0.0995 -0.19356,-0.11981 0.0581,-0.058 0.5555,-0.17651 0.73145,-0.17434 0.19752,0.002 0.59639,0.13678 0.61927,0.20857 0.0104,0.0326 -0.12481,0.0981 -0.34748,0.16845 -0.41663,0.13161 -0.46553,0.13691 -0.53136,0.0576 l 0,0 z"
           style="fill:#000000;fill-opacity:1;stroke:none" />
      </g>
      <g
         style="fill:#000000"
         id="g3627"
         transform="matrix(0.08018487,0,0,0.08018487,760.56967,680.56243)">
        <path
           sodipodi:nodetypes="csssscssscsssssssscscssscssssssssscssssssssssssccccscssssssssssscsscssscssssssssccssssc"
           inkscape:connector-curvature="0"
           id="path3629"
           d="m -2529.7285,-101.77425 c -38.7457,-6.38438 -104.8538,-19.06543 -124.8396,-23.94707 -73.2954,-17.90283 -191.9274,-62.22412 -266.4843,-99.55938 -65.705,-32.90255 -133.6855,-71.33334 -165.8327,-93.74873 -22.0146,-15.35025 -74.3692,-59.83921 -90.8052,-77.16293 l -8.1592,-8.5999 9.9818,-28.04724 c 6.3277,-17.77973 15.0272,-36.04277 23.7641,-49.88827 20.5289,-32.53227 83.7496,-111.94586 118.9805,-149.45515 l 13.9693,-14.87263 19.8636,-2.81964 c 23.0779,-3.27592 30.5549,-1.87514 60.2321,11.28409 33.1817,14.71326 112.4583,55.07272 145.7213,74.18639 17.5642,10.0928 37.3366,20.82366 43.9387,23.84641 11.1708,5.11451 11.504,5.50751 4.8015,5.66279 -8.5801,0.19877 -33.6457,-6.83514 -88.5194,-24.84057 -39.5829,-12.98812 -90.6086,-25.34884 -104.6415,-25.34884 -12.5512,0 -84.3817,69.72575 -120.5794,117.04619 -8.3367,10.89848 -15.5034,18.77841 -15.9258,17.51099 -1.8371,-5.51118 43.0129,-90.60248 64.9949,-123.31108 5.1607,-7.67903 8.8479,-15.35677 8.1936,-17.0616 -1.4098,-3.67396 -16.3365,-6.03594 -27.6071,-4.36852 -6.6554,0.98461 -10.9069,4.85863 -25.3384,23.08908 -48.0983,60.7593 -66.0888,89.00788 -86.8456,136.36414 -7.1327,16.27307 -12.9893,30.74361 -13.0147,32.15669 -0.069,3.82291 51.9596,47.2074 87.3362,72.82648 17.0304,12.33317 49.4407,33.22823 72.0228,46.4335 38.4258,22.47016 133.5204,68.85732 165.8978,80.92493 43.6494,16.26886 91.9731,31.80034 115.2365,37.03756 59.1957,13.32654 97.2319,20.71581 118.8376,23.08659 12.544,1.37644 34.691,4.33732 49.2156,6.57975 55.1836,8.51971 224.4711,3.78842 224.4711,-6.27361 0,-0.97676 -6.9061,-6.84676 -15.347,-13.04445 -23.3201,-17.12287 -61.8236,-64.07789 -89.7323,-109.42881 l -16.8262,-27.34202 3.9746,-8.66938 c 16.5338,-36.06409 34.5137,-60.64315 74.2343,-101.48048 23.0171,-23.66432 36.5716,-35.15509 61.2362,-51.91308 17.4218,-11.83696 40.3187,-25.88312 50.8821,-31.21373 10.5633,-5.33057 23.0869,-13.83977 27.8301,-18.90934 18.2362,-19.49089 69.447,-96.19961 95.9074,-143.65994 24.6402,-44.19553 49.783,-82.44466 85.2184,-129.64106 32.021,-42.64853 97.646,-119.62067 124.3725,-145.87752 20.8499,-20.48359 21.3352,-22.17302 12.0131,-41.81798 -3.7715,-7.94787 -4.5487,-8.36976 -12.945,-7.02714 -18.0112,2.88012 -78.8528,24.02937 -112.727,39.18524 -65.3097,29.22066 -122.0319,105.46966 -165.4972,142.30391 -46.1062,39.07223 -23.0081,15.05597 -84.4779,71.89184 -83.1555,99.55732 -238.1697,96.55813 -240.4535,61.69372 0.1923,-3.4251 1.3347,8.12778 34.4904,6.89284 83.4482,-15.03115 136.8532,-18.51146 160.2328,-46.83201 67.3178,-69.06377 91.2672,-75.18081 143.5255,-121.72489 68.6505,-61.14382 193.9835,-167.14169 271.6177,-185.46469 6.9322,-1.6362 12.604,-3.8983 12.604,-5.027 0,-1.1287 2.5839,0.3295 5.7419,3.2404 3.158,2.9109 10.6923,9.3948 16.7428,14.40861 19.3444,16.02977 19.6397,28.0521 2.1942,89.31516 -7.3228,25.71541 -32.5513,93.05553 -44.9714,120.03799 -4.8623,10.56336 -17.8815,40.27275 -28.9317,66.0209 -11.0501,25.74817 -28.609,63.01996 -39.0197,82.82624 -10.4107,19.80627 -31.6899,60.31909 -47.2869,90.02849 -56.195,107.04061 -59.5449,112.81311 -77.1647,132.96592 -24.3956,27.90271 -52.7135,54.20217 -73.373,68.143 -25.7259,17.35966 -80.4105,48.28378 -118.8812,67.22719 -38.5606,18.98772 -68.7704,37.82687 -67.3958,42.02877 1.5264,4.66618 38.4617,26.67272 75.0197,44.69775 40.0142,19.72915 72.1474,31.90597 108.0303,40.93799 l 26.4045,6.64623 -31.206,7.33983 c -44.9524,10.5731 -66.7402,14.43823 -91.225,16.18316 -11.8837,0.8469 -59.3733,5.23679 -105.5322,9.75531 -74.9995,7.34171 -120.3755,9.500604 -138.1449,6.57261 z m 425.1923,-464.70479 c 1.5551,-2.97093 14.9569,-23.76752 29.7817,-46.21463 26.8278,-40.62144 41.0204,-59.2044 69.6812,-91.23637 14.9077,-16.66119 31.1782,-45.49645 45.2713,-80.2317 10.117,-24.93502 8.4694,-25.34601 -14.894,-3.71516 -21.9177,20.2925 -44.8872,50.84248 -73.0501,97.15854 -24.3818,40.09772 -69.0517,122.11516 -69.0517,126.78437 0,5.00327 9.3235,3.06807 12.2616,-2.54505 z m 123.7405,-242.5231 c 12.0813,-10.86796 28.8266,-25.23925 37.2118,-31.93617 14.7402,-11.77245 15.5156,-12.95166 23.3823,-35.55735 5.1582,-14.82267 7.2988,-24.21877 5.848,-25.66958 -2.9139,-2.91388 -33.3957,23.27338 -48.708,41.84555 -10.4671,12.69555 -38.8107,57.60596 -42.265,66.96882 -2.8064,7.60704 2.2922,4.354 24.5309,-15.65127 z"
           style="fill:#000000;fill-opacity:1;stroke:none" />
        <path
           inkscape:connector-curvature="0"
           id="path3631"
           d="m -2545.3593,-421.32457 c -9.3634,-2.43335 -24.8298,-8.56486 -34.6705,-13.74479 -11.8979,-6.26278 -67.5165,-38.90627 -89.2912,-52.4065 -7.5245,-4.6652 -19.4452,-11.67186 -26.4902,-15.57033 -7.045,-3.89848 -19.0165,-10.52393 -26.6033,-14.72316 -7.5869,-4.19926 -16.2107,-9.15183 -19.1639,-11.0057 -4.9997,-3.13851 -5.1446,-3.3448 -2.1037,-2.99517 12.0865,1.38963 82.7769,23.45345 111.6038,34.83364 38.4968,15.19769 51.9062,18.69373 77.203,20.12795 11.462,0.64983 15.9534,0.41104 23.4466,-1.24668 14.9235,-3.30157 30.2352,-8.82871 48.3306,-17.44618 9.3046,-4.43108 23.9976,-11.12981 32.6512,-14.88606 8.6536,-3.75627 26.7631,-12.39409 40.2434,-19.19515 23.4261,-11.81903 47.8425,-23.24536 49.2655,-23.05519 0.368,0.0491 -2.6903,2.37853 -6.7965,5.17628 -4.106,2.79777 -17.6768,12.29353 -30.157,21.10172 -39.8328,28.11282 -42.4123,29.87291 -61.2382,41.78312 -16.7307,10.58468 -27.2934,16.29516 -46.4791,25.12784 -9.0652,4.17344 -8.9148,5.86288 0.6346,7.12894 9.4755,1.25502 20.0571,0.99107 24.5617,-0.61547 5.3243,-1.89888 29.8564,-13.57913 48.1605,-22.93021 14.4612,-7.38784 20.2676,-11.27396 47.6475,-31.89041 45.0151,-33.89542 54.2135,-40.25578 70.0143,-48.41351 16.0492,-8.28585 31.4117,-15.19503 32.019,-14.40034 0.2248,0.29401 -3.5438,2.59907 -8.3746,5.12235 -10.3818,5.42279 -42.2474,28.92567 -55.1983,40.71226 -9.4233,8.576 -24.9785,24.30286 -45.7848,46.28984 -14.351,15.16552 -28.2469,26.86678 -38.7642,32.64202 -23.4743,12.8901 -52.3771,23.65976 -71.5733,26.6692 -9.7292,1.52528 -13.3584,1.56231 -25.4311,0.25954 -7.7453,-0.83588 -15.6932,-1.93818 -17.6618,-2.44981 l 0,-2e-5 z"
           style="fill:#000000;fill-opacity:1;stroke:#ffffff;stroke-width:0;stroke-linecap:round;stroke-linejoin:round;stroke-miterlimit:4;stroke-opacity:1;stroke-dasharray:none" />
        <path
           inkscape:connector-curvature="0"
           id="path3633"
           d="m -3115.4142,-687.68642 c -5.2816,-1.8927 -15.0047,-5.38274 -21.6068,-7.75566 -14.1955,-5.10212 -41.1763,-13.39076 -65.4207,-20.09753 -31.5957,-8.7404 -31.478,-8.68806 -39.7217,-17.66354 -9.8199,-10.69155 -23.0629,-28.36384 -31.6138,-42.18737 -6.6253,-10.71051 -6.9377,-11.56522 -6.2744,-17.16525 0.8453,-7.13742 10.1855,-35.06063 16.1533,-48.29161 6.3516,-14.08186 25.2744,-46.83629 37.7915,-65.41537 9.6021,-14.25232 39.4553,-54.70437 51.2738,-69.47764 7.7809,-9.72618 47.4036,-40.05421 66.0209,-50.53391 9.4178,-5.3012 48.9903,-23.3706 62.4198,-28.5019 7.2376,-2.7654 31.4201,-10.5958 97.8309,-31.6782 14.5246,-4.6109 37.4356,-11.3443 50.9134,-14.9631 l 24.5049,-6.5796 16.308,0.3327 16.308,0.3327 -4.8016,5.0405 c -4.7037,4.938 -5.437,5.2263 -36.0114,14.162 -62.852,18.3691 -66.1273,19.4611 -157.2497,52.427 -21.2462,7.6864 -59.1206,26.0587 -73.2232,35.5197 -20.7325,13.90855 -39.4963,32.56962 -54.3903,54.09241 -20.7669,30.00957 -55.8975,85.89588 -63.8927,101.64157 -9.9708,19.63646 -21.5397,47.82201 -22.3974,54.56709 -0.459,3.60974 0.3194,5.42933 5.1565,12.054 9.6715,13.24571 17.386,21.45942 28.6591,30.51368 13.9433,11.19887 16.7834,12.82624 31.2408,17.9007 6.6021,2.31731 21.0063,7.46775 32.0094,11.44549 11.003,3.97771 25.8269,8.928 32.9419,11.00063 19.9983,5.82565 23.0665,7.59064 26.4348,15.207 1.5641,3.53661 2.8438,6.68491 2.8438,6.99617 0,1.89846 -13.8343,0.0776 -22.2071,-2.92266 l 0,0 z"
           style="fill:#000000;fill-opacity:1;stroke:#ffffff;stroke-width:0;stroke-linecap:round;stroke-linejoin:round;stroke-miterlimit:4;stroke-opacity:1;stroke-dasharray:none" />
        <path
           inkscape:connector-curvature="0"
           id="path3635"
           d="m -2975.4485,-807.24969 c 4.7667,-6.9393 9.2552,-13.08945 9.9744,-13.66699 0.7193,-0.57753 6.9796,-2.67131 13.9118,-4.65286 6.9322,-1.98156 19.086,-5.58847 27.0086,-8.01535 12.2087,-3.7399 17.1493,-4.59101 32.4102,-5.58312 40.7322,-2.64802 52.6415,-6.72814 87.9873,-30.14437 26.0342,-17.24738 39.4693,-27.02156 40.3705,-29.37009 0.9332,-2.43184 -1.0808,-4.80073 -6.4024,-7.5309 l -4.2556,-2.18327 13.7731,-8.97035 c 16.404,-10.68382 20.7063,-12.91638 31.7788,-16.49094 10.7405,-3.46739 27.3264,-11.45864 30.0665,-14.48641 2.0191,-2.2311 2.0193,-2.4443 0,-4.67089 -1.1612,-1.28318 -3.5407,-2.53616 -5.2876,-2.7844 -2.9663,-0.42148 -2.2561,-1.36137 10.743,-14.21691 l 13.9192,-13.76561 12.0467,-3.94549 c 17.5675,-5.75371 39.299,-16.67936 46.9698,-23.61446 11.3886,-10.2962 14.9938,-18.8564 9.5479,-22.6708 -1.4456,-1.0126 -2.3909,-2.0425 -2.1006,-2.2887 0.2902,-0.2462 5.3893,-1.63 11.3311,-3.075 18.2403,-4.4359 44.4811,-13.2978 50.2967,-16.9859 7.7571,-4.9194 7.3736,-9.2625 -0.9948,-11.2677 -1.9332,-0.4633 -13.4688,-1.8551 -25.6348,-3.0931 -12.1659,-1.238 -22.4371,-2.5681 -22.8248,-2.9558 -0.7954,-0.7949 12.9314,-15.0468 14.4919,-15.0468 0.5528,0 4.3509,2.7144 8.4402,6.032 11.4245,9.2686 17.7046,11.9747 27.7771,11.9689 17.4583,-0.011 41.4025,-5.7435 43.1648,-10.3361 0.9954,-2.594 -6.6897,-10.3739 -22.091,-22.3634 -7.5939,-5.9117 -13.9775,-11.2058 -14.1857,-11.7647 -0.5862,-1.5732 24.8139,-16.6915 28.1138,-16.7335 0.7298,-0.01 4.8677,3.2276 9.1953,7.1932 7.0013,6.4153 12.3194,9.6453 25.782,15.6585 l 3.8939,1.7393 -6.7136,8.4026 c -13.1395,16.4453 -21.4117,33.5736 -27.0446,55.9982 -2.5212,10.037 -2.8104,13.8237 -2.7364,35.8309 0.079,23.56652 0.2407,25.20532 3.8133,38.72903 6.423,24.31378 23.9622,54.64401 42.239,73.04298 18.1405,18.26186 47.6638,38.33049 67.2813,45.73489 l 9.0028,3.39801 -6.0019,-0.73161 c -3.301,-0.40237 -14.6446,-2.88564 -25.2079,-5.51839 -16.5556,-4.12617 -21.886,-6.10046 -38.6246,-14.30558 -19.0343,-9.33042 -23.162,-12.0732 -56.3967,-37.47397 -8.9568,-6.84557 -24.6266,-14.4884 -35.22,-17.17837 -9.2649,-2.35262 -27.8489,-1.67697 -38.4121,1.39651 -3.6312,1.05655 -18.6554,7.33638 -33.387,13.95519 -14.7318,6.61882 -27.0354,11.78383 -27.3414,11.47782 -0.306,-0.30602 1.3609,-2.01876 3.7042,-3.8061 5.8489,-4.46115 38.9406,-41.13339 47.7376,-52.90274 15.8026,-21.14209 32.3956,-64.73807 25.6283,-67.33497 -2.7304,-1.0477 -4.3155,0.5292 -13.8194,13.7487 -24.146,33.58597 -72.1861,85.13626 -93.7512,100.60141 -17.1002,12.26317 -58.6205,37.61163 -61.6072,37.61163 -0.6109,0 9.3546,-10.94608 22.1456,-24.32463 34.6348,-36.22571 38.2612,-40.1678 38.2612,-41.59236 0,-0.71736 -0.6269,-1.30429 -1.393,-1.30429 -2.1109,0 -17.6617,10.83851 -36.4864,25.43021 -34.2561,26.55303 -45.2307,33.67659 -78.484,50.94361 l -31.8824,16.55515 -18.0062,0.10685 c -17.0002,0.10088 -19.0796,0.38294 -37.2124,5.04639 -32.6059,8.38565 -43.6439,13.17367 -63.2526,27.43728 -5.7397,4.17516 -11.9626,8.38068 -13.8286,9.34563 -3.105,1.60564 -15.2907,4.37886 -19.241,4.37886 -0.9567,0 1.9946,-5.30783 7.0153,-12.61693 z"
           style="fill:#000000;fill-opacity:1;stroke:#ffffff;stroke-width:0;stroke-linecap:round;stroke-linejoin:round;stroke-miterlimit:4;stroke-opacity:1;stroke-dasharray:none" />
        <path
           inkscape:connector-curvature="0"
           id="path3637"
           d="m -2354.9734,-864.97436 c -27.7144,-2.39941 -33.1033,-3.94037 -52.2667,-14.94559 -24.4857,-14.06169 -40.9903,-26.91 -48.495,-37.75175 -6.4763,-9.35623 -21.7193,-46.98228 -24.0834,-59.4479 -1.665,-8.77979 -1.4862,-22.67688 0.5665,-44.0133 2.0336,-21.1392 3.7942,-29.5018 9.1699,-43.5579 4.4869,-11.732 5.5907,-11.2261 3.006,1.3777 -7.5722,36.9249 1.4666,86.83332 22.681,125.23493 5.667,10.25817 28.4335,34.55099 39.6059,42.26125 11.2691,7.7769 35.7239,17.42106 52.8167,20.82912 12.8948,2.57103 39.3155,-0.83562 61.9601,-7.98904 5.328,-1.68312 9.8767,-2.87072 10.1083,-2.63911 0.599,0.59894 -30.4044,17.07047 -35.4568,18.83757 -4.2714,1.49396 -29.7771,2.65553 -39.6125,1.80402 z"
           style="fill:#000000;fill-opacity:1;stroke:#ffffff;stroke-width:0;stroke-linecap:round;stroke-linejoin:round;stroke-miterlimit:4;stroke-opacity:1;stroke-dasharray:none" />
        <path
           inkscape:connector-curvature="0"
           id="path3639"
           d="m -2155.19,-941.07912 c 1.224,-5.04187 2.2835,-35.28727 1.4009,-39.99197 -0.4824,-2.57128 -1.5264,-4.42209 -2.4943,-4.42209 -0.9156,0 -5.6784,4.72651 -10.584,10.50334 -12.6157,14.8563 -32.0566,32.96188 -32.0566,29.85469 0,-0.29663 3.6219,-6.93273 8.0487,-14.74687 4.4269,-7.81416 9.5118,-17.79487 11.2999,-22.17939 7.4199,-18.19439 12.0621,-45.44509 7.7416,-45.44509 -0.9454,0 -4.3215,4.3773 -7.5024,9.7273 -11.4131,19.19593 -24.056,34.4862 -39.3941,47.64313 -19.0459,16.33749 -21.81,17.58642 -45.6144,20.61052 -10.5634,1.34195 -20.5565,2.4044 -22.2071,2.36098 l -3.0009,-0.0789 3.0009,-1.29265 c 13.4277,-5.7839 19.0842,-9.05432 30.6097,-17.69775 15.7308,-11.79707 27.6583,-23.14926 34.9408,-33.25537 17.2229,-23.90106 23.6509,-57.27766 15.8037,-82.05946 -1.7814,-5.6255 -5.1319,-12.8908 -7.4455,-16.145 -4.5851,-6.4491 -4.7146,-7.593 -0.6108,-5.3967 2.5808,1.3812 2.6511,1.2839 1.8792,-2.6036 -0.4411,-2.2211 -3.3569,-8.2924 -6.4795,-13.4917 -8.3991,-13.9848 -17.5622,-21.7415 -41.0902,-34.784 -18.4389,-10.2214 -19.6703,-11.1176 -17.8184,-12.9681 1.8517,-1.8504 2.4332,-1.7813 8.4041,0.9976 3.5281,1.6421 10.466,3.7094 15.4176,4.594 4.9515,0.8847 18.1308,4.8921 29.2871,8.9055 11.1564,4.0134 21.2846,7.297 22.5072,7.297 3.4596,0 2.6219,-3.1826 -1.6784,-6.3761 -23.9756,-17.8053 -65.0497,-29.5026 -104.4202,-29.7373 -16.0789,-0.096 -16.7539,-0.1913 -11.1164,-1.5716 3.301,-0.8082 11.6737,-4.086 18.6059,-7.2841 7.0162,-3.2369 14.9987,-6.038 18.0057,-6.3183 13.1428,-1.2252 51.398,14.3449 82.226,33.4664 72.3822,44.896 93.6625,54.8864 136.4992,64.0818 62.6656,13.4519 138.1269,33.985 153.682,41.8171 13.0377,6.5645 14.8318,9.498 14.4072,23.5575 -0.3603,11.9271 -1.5679,18.2309 -3.624,18.9163 -0.8083,0.2694 -1.4696,-0.3464 -1.4696,-1.3685 0,-3.014 -4.3732,-4.5483 -10.549,-3.7011 -3.1109,0.4268 -13.1244,2.6665 -22.2524,4.9773 -9.1279,2.3107 -16.9154,3.8821 -17.3054,3.492 -0.3901,-0.39 -0.01,-0.7092 0.8524,-0.7092 0.8589,0 6.4857,-2.339 12.5039,-5.1978 11.0644,-5.2559 18.733,-11.8641 21.1524,-18.2274 2.2752,-5.9842 -2.4057,-12.4299 -12.9829,-17.878 -5.1243,-2.6395 -44.264,-16.6734 -59.0467,-21.1718 -17.2749,-5.2568 -67.2797,-16.3331 -92.3464,-20.4551 -31.0493,-5.1058 -44.5762,-10.1788 -71.5055,-26.8172 -16.0777,-9.9336 -21.585,-8.9293 -11.5854,2.1126 6.8656,7.5811 13.1662,16.6842 21.0727,30.4453 7.7192,13.4351 14.7502,19.2628 28.0246,23.2286 2.8059,0.8383 5.1016,1.703 5.1016,1.9217 0,0.2187 -4.366,4.5689 -9.7021,9.667 -14.6641,14.0099 -14.003,12.4759 -15.4621,35.8789 -1.7449,27.98772 -3.3364,38.93056 -7.4911,51.50749 -4.1612,12.59672 -15.7601,34.54421 -13.6392,25.80816 l 0,0 z"
           style="fill:#000000;fill-opacity:1;stroke:#ffffff;stroke-width:0;stroke-linecap:round;stroke-linejoin:round;stroke-miterlimit:4;stroke-opacity:1;stroke-dasharray:none" />
        <path
           inkscape:connector-curvature="0"
           id="path3641"
           d="m -2328.357,-1077.2384 c -6.8064,-2.2089 -13.5458,-6.9566 -16.1622,-11.3858 l -2.0994,-3.5541 5.1255,-6.2309 c 2.8191,-3.427 7.3232,-7.8072 10.0092,-9.734 4.6972,-3.3694 5.5216,-3.5274 21.6068,-4.1413 15.5384,-0.593 17.0048,-0.4595 20.6967,1.8834 8.8593,5.6224 8.8263,15.8374 -0.076,23.4572 -11.0234,9.4356 -27.4038,13.5015 -39.1008,9.7055 l 0,0 z m 26.2792,-6.7282 c 3.374,-1.8057 2.9629,-5.753 -0.6947,-6.671 -3.436,-0.8624 -6.5865,1.175 -6.5865,4.2594 0,3.7706 2.9292,4.7408 7.2812,2.4116 z m -29.5758,-3.0426 c 3.7734,-3.7733 3.928,-11.3197 0.232,-11.3197 -2.2651,0 -7.9469,6.7887 -7.9469,9.4951 0,4.0986 4.4003,5.1392 7.7149,1.8246 z m 14.5467,-1.0619 c 1.6205,-1.6205 2.9464,-3.4987 2.9464,-4.1737 0,-2.1656 -5.7376,-5.0707 -9.2253,-4.6708 -2.8594,0.3277 -3.4378,1.0045 -3.7634,4.4028 -0.2115,2.2085 -0.093,4.7743 0.2625,5.7018 1.0263,2.6745 6.558,1.9617 9.7798,-1.2601 z"
           style="fill:#000000;fill-opacity:1;stroke:#ffffff;stroke-width:0;stroke-linecap:round;stroke-linejoin:round;stroke-miterlimit:4;stroke-opacity:1;stroke-dasharray:none" />
        <path
           inkscape:connector-curvature="0"
           id="path3643"
           d="m -1957.4151,-1040.8638 c 2.2998,-1.7676 13.831,-7.3254 15.8872,-7.6573 1.3447,-0.217 2.9177,0.2522 5.71,1.7036 2.1197,1.1017 3.9665,2.3446 4.1041,2.7619 0.6348,1.9253 -11.2007,4.3453 -21.1623,4.3271 -5.988,-0.011 -5.9985,-0.013 -4.539,-1.1353 z"
           style="fill:#000000;fill-opacity:1;stroke:none" />
      </g>
      <path
         style="fill:#000000;fill-opacity:1;stroke:#ffffff;stroke-width:0;stroke-linecap:round;stroke-linejoin:round;stroke-miterlimit:4;stroke-opacity:1;stroke-dasharray:none"
         d="m 563.4961,589.13177 c -0.32201,-0.26055 -0.7268,-0.55968 -0.89952,-0.66472 -0.28636,-0.1742 -0.29825,-0.19949 -0.135,-0.28642 0.30061,-0.16027 1.40125,-0.50018 1.61946,-0.50018 0.20185,0 1.22919,0.68712 1.47742,0.98817 0.11078,0.13456 0.0394,0.20185 -0.57751,0.54389 -0.38723,0.21475 -0.74799,0.39101 -0.8017,0.39172 -0.0538,7.9e-4 -0.3611,-0.21192 -0.68313,-0.47246 l 0,0 z"
         id="path3645"
         inkscape:connector-curvature="0" />
      <path
         style="fill:#000000;fill-opacity:1;stroke:#ffffff;stroke-width:0;stroke-linecap:round;stroke-linejoin:round;stroke-miterlimit:4;stroke-opacity:1;stroke-dasharray:none"
         d="m 567.9497,587.06844 -0.74096,-0.51575 0.49428,-0.20549 0.49429,-0.20549 0.39797,0.30517 c 0.21888,0.16777 0.43273,0.33439 0.47526,0.37013 0.0611,0.0512 -0.27343,0.76704 -0.35839,0.76704 -0.0129,0 -0.3549,-0.23208 -0.76245,-0.51576 z"
         id="path3647"
         inkscape:connector-curvature="0" />
      <path
         style="fill:#000000;fill-opacity:1;stroke:#ffffff;stroke-width:0;stroke-linecap:round;stroke-linejoin:round;stroke-miterlimit:4;stroke-opacity:1;stroke-dasharray:none"
         d="m 539.85072,590.83272 c -0.0287,-0.3838 -0.0236,-0.72662 0.0107,-0.7618 0.0347,-0.0351 0.31222,-0.0943 0.61661,-0.13135 l 0.55347,-0.0675 0,0.38267 c 0,0.21042 0.0274,0.58362 0.0613,0.82924 l 0.0613,0.44657 -0.62579,0 -0.62581,0 -0.0521,-0.69783 z"
         id="path3649"
         inkscape:connector-curvature="0" />
      <path
         style="fill:#000000;fill-opacity:1;stroke:none"
         d="m 528.74771,593.57423 0,-0.0313 0.71737,-0.21021 c 1.18223,-0.34628 1.62722,-0.48031 1.93858,-0.58389 0.51535,-0.17142 0.70706,-0.26896 0.90672,-0.46129 0.10221,-0.0986 0.4927,-0.51205 0.48756,-0.51642 -0.002,-0.002 -0.59343,-0.015 -1.31305,-0.0294 l -1.30844,-0.0255 -0.71287,0.19221 -0.71287,0.1922 -0.002,-0.024 c -10e-4,-0.0129 -10e-4,-0.0246 0,-0.0257 0.004,-0.004 0.81672,-0.23227 1.22307,-0.3437 1.18185,-0.32413 2.14585,-0.5618 2.65332,-0.6542 0.40375,-0.0735 0.62407,-0.0883 0.66047,-0.0443 0.0366,0.0441 -0.0501,0.20656 -0.30784,0.57607 -0.3765,0.53976 -0.70773,0.92865 -0.84606,0.99334 -0.0129,0.006 -0.15835,0.0508 -0.32208,0.099 -0.5903,0.17356 -2.85377,0.85928 -3.03646,0.91981 l -0.0255,0.009 0,-0.0313 0,0 z"
         id="path3651"
         inkscape:connector-curvature="0" />
      <path
         style="fill:#000000;fill-opacity:1;stroke:none"
         d="m 517.32661,617.55957 c -0.22204,-0.004 -0.22553,-0.004 -0.23123,-0.0304 -0.002,-0.015 -0.0193,-0.12427 -0.0368,-0.24337 -0.0418,-0.2909 -0.0919,-0.5365 -0.14528,-0.71042 -0.0566,-0.18449 -0.0591,-0.23879 -0.0129,-0.27535 0.0193,-0.015 0.0626,-0.036 0.0975,-0.0471 0.0806,-0.0255 0.40127,-0.0801 0.46971,-0.0801 0.13992,0 0.19884,0.0668 0.52265,0.59349 0.26971,0.43868 0.40715,0.7259 0.36673,0.76631 -0.0311,0.0311 -0.3084,0.0381 -1.03007,0.0268 z"
         id="path3653"
         inkscape:connector-curvature="0" />
      <path
         style="fill:#000000;fill-opacity:1;stroke:none"
         d="m 546.57469,591.66428 c 0.30887,-0.31648 0.49478,-0.41522 0.77997,-0.41421 0.33719,10e-4 0.37706,0.0643 0.1365,0.2162 -0.25276,0.15963 -0.78161,0.38591 -1.01005,0.43227 l -0.16842,0.0343 0.26202,-0.26849 z"
         id="path3655"
         inkscape:connector-curvature="0" />
    </g>
    <text
       sodipodi:linespacing="125%"
       id="text3657"
       y="1031.2968"
       x="38.147636"
       style="font-size:191.01318359px;font-style:normal;font-weight:normal;line-height:125%;letter-spacing:0px;word-spacing:0px;fill:#000000;fill-opacity:1;stroke:none;font-family:Sans"
       xml:space="preserve"
       inkscape:export-filename="/home/CarlosRibeiro/git_repo/artwork/Marketing Materials/Events/openSUSE Conference/2013/Backpack/BackPack_Final.png"
       inkscape:export-xdpi="300"
       inkscape:export-ydpi="300"><tspan
         style="font-size:47.7532959px;font-style:normal;font-variant:normal;font-weight:bold;font-stretch:normal;fill:#000000;font-family:Stalinist One;-inkscape-font-specification:Stalinist One Bold"
         y="1031.2968"
         x="38.147636"
         id="tspan3659"
         sodipodi:role="line">POWER TO THE GEEKO</tspan></text>
    <text
       xml:space="preserve"
       style="font-size:3.75638127px;font-style:normal;font-weight:normal;line-height:125%;letter-spacing:0px;word-spacing:0px;fill:#000000;fill-opacity:1;stroke:none;font-family:Sans"
       x="1515.0105"
       y="131.51854"
       id="text4641"
       sodipodi:linespacing="125%"
       inkscape:export-filename="/home/CarlosRibeiro/git_repo/artwork/Marketing Materials/Events/openSUSE Conference/2013/Backpack/BackPack_Final.png"
       inkscape:export-xdpi="300"
       inkscape:export-ydpi="300"><tspan
         sodipodi:role="line"
         x="1515.0105"
         y="131.51854"
         id="tspan4643" /></text>
    <text
       sodipodi:linespacing="125%"
       id="text4645"
       style="font-size:17.34701538px;font-style:normal;font-variant:normal;font-weight:bold;font-stretch:normal;text-align:center;line-height:125%;letter-spacing:0px;word-spacing:0px;text-anchor:middle;fill:#000000;fill-opacity:1;stroke:none;font-family:FifthLeg;-inkscape-font-specification:FifthLeg Bold"
       xml:space="preserve"
       x="1687.3187"
       y="-6.4542832"
       inkscape:export-filename="/home/CarlosRibeiro/git_repo/artwork/Marketing Materials/Events/openSUSE Conference/2013/Backpack/BackPack_Final.png"
       inkscape:export-xdpi="300"
       inkscape:export-ydpi="300" />
    <text
       sodipodi:linespacing="125%"
       id="text4647"
       y="98.983879"
       x="1773.444"
       style="font-size:2.02568316px;font-style:normal;font-weight:normal;line-height:125%;letter-spacing:0px;word-spacing:0px;color:#000000;fill:#6eb927;fill-opacity:1;fill-rule:nonzero;stroke:none;stroke-width:3.85548687;marker:none;visibility:visible;display:inline;overflow:visible;enable-background:accumulate;font-family:Sans"
       xml:space="preserve"
       inkscape:export-filename="/home/CarlosRibeiro/git_repo/artwork/Marketing Materials/Events/openSUSE Conference/2013/Backpack/BackPack_Final.png"
       inkscape:export-xdpi="300"
       inkscape:export-ydpi="300"><tspan
         y="98.983879"
         x="1773.444"
         id="tspan4649"
         sodipodi:role="line" /></text>
    <text
       sodipodi:linespacing="125%"
       id="text4651"
       y="97.943947"
       x="1773.625"
       style="font-size:3.0385251px;font-style:normal;font-weight:normal;line-height:125%;letter-spacing:0px;word-spacing:0px;color:#000000;fill:#6eb927;fill-opacity:1;fill-rule:nonzero;stroke:none;stroke-width:3.85548687;marker:none;visibility:visible;display:inline;overflow:visible;enable-background:accumulate;font-family:Sans"
       xml:space="preserve"
       inkscape:export-filename="/home/CarlosRibeiro/git_repo/artwork/Marketing Materials/Events/openSUSE Conference/2013/Backpack/BackPack_Final.png"
       inkscape:export-xdpi="300"
       inkscape:export-ydpi="300"><tspan
         id="tspan4653"
         y="97.943947"
         x="1773.625"
         sodipodi:role="line" /></text>
    <flowRoot
       xml:space="preserve"
       id="flowRoot4655"
       style="font-size:40px;font-style:normal;font-weight:normal;line-height:125%;letter-spacing:0px;word-spacing:0px;fill:#000000;fill-opacity:1;stroke:none;font-family:Sans"
       transform="matrix(0.23579462,0,0,0.23579462,1687.3187,40.704788)"
       inkscape:export-filename="/home/CarlosRibeiro/git_repo/artwork/Marketing Materials/Events/openSUSE Conference/2013/Backpack/BackPack_Final.png"
       inkscape:export-xdpi="300"
       inkscape:export-ydpi="300"><flowRegion
         id="flowRegion4657"><rect
           id="rect4659"
           width="398.85315"
           height="208.09729"
           x="0"
           y="931.19714" /></flowRegion><flowPara
         id="flowPara4661" /></flowRoot>    <g
       inkscape:export-ydpi="300"
       inkscape:export-xdpi="300"
       inkscape:export-filename="/home/CarlosRibeiro/git_repo/artwork/Marketing Materials/Events/openSUSE Conference/2013/Backpack/BackPack_Final.png"
       transform="matrix(3.2139578,0,0,3.2139578,-1855.0947,100.60661)"
       inkscape:label="text"
       id="g4663" />
    <text
       inkscape:export-ydpi="300"
       inkscape:export-xdpi="300"
       inkscape:export-filename="/home/CarlosRibeiro/git_repo/artwork/Marketing Materials/Events/openSUSE Conference/2013/Backpack/BackPack_Final.png"
       sodipodi:linespacing="125%"
       id="text4665"
       y="1193.6477"
       x="494.38522"
       style="font-size:154.08792114px;font-style:normal;font-weight:normal;line-height:125%;letter-spacing:0px;word-spacing:0px;fill:#000000;fill-opacity:1;stroke:none;font-family:Sans"
       xml:space="preserve"><tspan
         id="tspan4667"
         y="1193.6477"
         x="494.38522"
         sodipodi:role="line" /></text>
    <text
       inkscape:export-ydpi="300"
       inkscape:export-xdpi="300"
       inkscape:export-filename="/home/CarlosRibeiro/git_repo/artwork/Marketing Materials/Events/openSUSE Conference/2013/Backpack/BackPack_Final.png"
       sodipodi:linespacing="125%"
       id="text4671"
       y="1693.3103"
       x="1515.0105"
       style="font-size:3.75638127px;font-style:normal;font-weight:normal;line-height:125%;letter-spacing:0px;word-spacing:0px;fill:#000000;fill-opacity:1;stroke:none;font-family:Sans"
       xml:space="preserve"><tspan
         id="tspan4673"
         y="1693.3103"
         x="1515.0105"
         sodipodi:role="line" /></text>
    <text
       inkscape:export-ydpi="300"
       inkscape:export-xdpi="300"
       inkscape:export-filename="/home/CarlosRibeiro/git_repo/artwork/Marketing Materials/Events/openSUSE Conference/2013/Backpack/BackPack_Final.png"
       y="1555.3376"
       x="1687.3187"
       xml:space="preserve"
       style="font-size:17.34701538px;font-style:normal;font-variant:normal;font-weight:bold;font-stretch:normal;text-align:center;line-height:125%;letter-spacing:0px;word-spacing:0px;text-anchor:middle;fill:#000000;fill-opacity:1;stroke:none;font-family:FifthLeg;-inkscape-font-specification:FifthLeg Bold"
       id="text4675"
       sodipodi:linespacing="125%" />
    <text
       inkscape:export-ydpi="300"
       inkscape:export-xdpi="300"
       inkscape:export-filename="/home/CarlosRibeiro/git_repo/artwork/Marketing Materials/Events/openSUSE Conference/2013/Backpack/BackPack_Final.png"
       xml:space="preserve"
       style="font-size:2.02568316px;font-style:normal;font-weight:normal;line-height:125%;letter-spacing:0px;word-spacing:0px;color:#000000;fill:#6eb927;fill-opacity:1;fill-rule:nonzero;stroke:none;stroke-width:3.85548687;marker:none;visibility:visible;display:inline;overflow:visible;enable-background:accumulate;font-family:Sans"
       x="1773.444"
       y="1660.7755"
       id="text4677"
       sodipodi:linespacing="125%"><tspan
         sodipodi:role="line"
         id="tspan4679"
         x="1773.444"
         y="1660.7755" /></text>
    <text
       inkscape:export-ydpi="300"
       inkscape:export-xdpi="300"
       inkscape:export-filename="/home/CarlosRibeiro/git_repo/artwork/Marketing Materials/Events/openSUSE Conference/2013/Backpack/BackPack_Final.png"
       xml:space="preserve"
       style="font-size:3.0385251px;font-style:normal;font-weight:normal;line-height:125%;letter-spacing:0px;word-spacing:0px;color:#000000;fill:#6eb927;fill-opacity:1;fill-rule:nonzero;stroke:none;stroke-width:3.85548687;marker:none;visibility:visible;display:inline;overflow:visible;enable-background:accumulate;font-family:Sans"
       x="1773.625"
       y="1659.7358"
       id="text4681"
       sodipodi:linespacing="125%"><tspan
         sodipodi:role="line"
         x="1773.625"
         y="1659.7358"
         id="tspan4683" /></text>
    <flowRoot
       inkscape:export-ydpi="300"
       inkscape:export-xdpi="300"
       inkscape:export-filename="/home/CarlosRibeiro/git_repo/artwork/Marketing Materials/Events/openSUSE Conference/2013/Backpack/BackPack_Final.png"
       transform="matrix(0.23579462,0,0,0.23579462,1687.3187,1602.4964)"
       style="font-size:40px;font-style:normal;font-weight:normal;line-height:125%;letter-spacing:0px;word-spacing:0px;fill:#000000;fill-opacity:1;stroke:none;font-family:Sans"
       id="flowRoot4685"
       xml:space="preserve"><flowRegion
         id="flowRegion4687"><rect
           y="931.19714"
           x="0"
           height="208.09729"
           width="398.85315"
           id="rect4689" /></flowRegion><flowPara
         id="flowPara4691" /></flowRoot>    <g
       inkscape:export-ydpi="300"
       inkscape:export-xdpi="300"
       inkscape:export-filename="/home/CarlosRibeiro/git_repo/artwork/Marketing Materials/Events/openSUSE Conference/2013/Backpack/BackPack_Final.png"
       id="g4693"
       inkscape:label="text"
       transform="matrix(3.2139578,0,0,3.2139578,-1855.0947,1662.3983)" />
    <text
       inkscape:export-ydpi="300"
       inkscape:export-xdpi="300"
       inkscape:export-filename="/home/CarlosRibeiro/git_repo/artwork/Marketing Materials/Events/openSUSE Conference/2013/Backpack/BackPack_Final.png"
       xml:space="preserve"
       style="font-size:154.08792114px;font-style:normal;font-weight:normal;line-height:125%;letter-spacing:0px;word-spacing:0px;fill:#000000;fill-opacity:1;stroke:none;font-family:Sans"
       x="494.38522"
       y="2755.439"
       id="text4695"
       sodipodi:linespacing="125%"><tspan
         sodipodi:role="line"
         x="494.38522"
         y="2755.439"
         id="tspan4697" /></text>
  </g>
</svg>
