<?xml version="1.0" encoding="UTF-8" standalone="no"?>
<!-- Created with Inkscape (http://www.inkscape.org/) -->

<svg
   xmlns:dc="http://purl.org/dc/elements/1.1/"
   xmlns:cc="http://creativecommons.org/ns#"
   xmlns:rdf="http://www.w3.org/1999/02/22-rdf-syntax-ns#"
   xmlns:svg="http://www.w3.org/2000/svg"
   xmlns="http://www.w3.org/2000/svg"
   xmlns:sodipodi="http://sodipodi.sourceforge.net/DTD/sodipodi-0.dtd"
   xmlns:inkscape="http://www.inkscape.org/namespaces/inkscape"
   width="210mm"
   height="297mm"
   id="svg7125"
   version="1.1"
   inkscape:version="0.48.1 r9760"
   sodipodi:docname="Nouveau document 6">
  <defs
     id="defs7127" />
  <sodipodi:namedview
     id="base"
     pagecolor="#ffffff"
     bordercolor="#666666"
     borderopacity="1.0"
     inkscape:pageopacity="0.0"
     inkscape:pageshadow="2"
     inkscape:zoom="0.35"
     inkscape:cx="375"
     inkscape:cy="520"
     inkscape:document-units="px"
     inkscape:current-layer="layer1"
     showgrid="false"
     inkscape:window-width="624"
     inkscape:window-height="427"
     inkscape:window-x="738"
     inkscape:window-y="0"
     inkscape:window-maximized="0" />
  <metadata
     id="metadata7130">
    <rdf:RDF>
      <cc:Work
         rdf:about="">
        <dc:format>image/svg+xml</dc:format>
        <dc:type
           rdf:resource="http://purl.org/dc/dcmitype/StillImage" />
        <dc:title></dc:title>
      </cc:Work>
    </rdf:RDF>
  </metadata>
  <g
     inkscape:label="Calque 1"
     inkscape:groupmode="layer"
     id="layer1">
    <path
       inkscape:connector-curvature="0"
       id="path3292"
       style="fill:#4b22fc;fill-opacity:1;fill-rule:nonzero;stroke:none"
       d="m 376.84453,720.70022 5.96875,-0.5725 -0.0625,10.79875 7.8775,-10.545 6.35125,1.4625 -8.195,10.54375 8.13125,11.18 -6.225,1.9675 -7.94,-11.62375 0,10.48 -5.90625,0.89125 0,-24.5825" />
    <path
       inkscape:connector-curvature="0"
       id="path3294"
       style="fill:#4b22fc;fill-opacity:1;fill-rule:nonzero;stroke:none"
       d="m 391.08328,747.07897 -0.51625,0.16375 -0.20001,-0.0712 c 0,0 -1.01874,-1.48875 -2.33249,-3.4125 -1.57,3.075 -4.76625,5.18125 -8.45625,5.18125 -5.24251,0 -9.49375,-4.25125 -9.49375,-9.495 0,-3.85625 2.30125,-7.1725 5.6025,-8.65875 l 0,-2.44875 c -0.60126,0.21 -1.1825,0.46375 -1.7325,0.76375 l -0.004,-0.002 -4.4725,-2.9325 c -0.12,-0.0788 -0.27875,-0.0625 -0.37875,0.0412 l -2.34501,2.3425 c -0.0975,0.0975 -0.11624,0.25125 -0.0438,0.37125 l 2.74124,4.51625 c -0.48624,0.81875 -0.87624,1.70125 -1.15375,2.6325 l -5.03749,1.04625 c -0.13875,0.0288 -0.24,0.15375 -0.24,0.29625 l 0,3.31375 c 0,0.14125 0.0962,0.26375 0.23,0.29625 l 4.88625,1.19375 c 0.2625,1.0775 0.66625,2.09875 1.1975,3.03875 l -2.82625,4.3125 c -0.0787,0.12125 -0.0637,0.28 0.0388,0.38125 l 2.34375,2.34375 c 0.0987,0.0987 0.2525,0.11625 0.3725,0.0437 l 4.434,-2.6917 c 0.86875,0.5025 1.81125,0.8975 2.80125,1.16625 l 1.03499,4.97375 c 0.03,0.14 0.15501,0.24 0.29751,0.24 l 3.31375,0 c 0.14,0 0.2625,-0.095 0.29499,-0.23125 l 1.22001,-4.98375 c 1.02249,-0.2775 1.9875,-0.68875 2.88375,-1.21375 l 4.3675,2.865 c 0.11999,0.0775 0.27874,0.0638 0.38,-0.0387 l 2.3425,-2.34375 c 0.1,-0.0987 0.1175,-0.2525 0.045,-0.37125 l -1.595,-2.62875" />
  </g>
</svg>
