<?xml version="1.0" encoding="UTF-8" standalone="no"?>
<!-- Created with Inkscape (http://www.inkscape.org/) -->

<svg
   xmlns:dc="http://purl.org/dc/elements/1.1/"
   xmlns:cc="http://creativecommons.org/ns#"
   xmlns:rdf="http://www.w3.org/1999/02/22-rdf-syntax-ns#"
   xmlns:svg="http://www.w3.org/2000/svg"
   xmlns="http://www.w3.org/2000/svg"
   xmlns:sodipodi="http://sodipodi.sourceforge.net/DTD/sodipodi-0.dtd"
   xmlns:inkscape="http://www.inkscape.org/namespaces/inkscape"
   width="210mm"
   height="297mm"
   id="svg4305"
   version="1.1"
   inkscape:version="0.48.1 r9760"
   sodipodi:docname="Nouveau document 8">
  <defs
     id="defs4307" />
  <sodipodi:namedview
     id="base"
     pagecolor="#ffffff"
     bordercolor="#666666"
     borderopacity="1.0"
     inkscape:pageopacity="0.0"
     inkscape:pageshadow="2"
     inkscape:zoom="0.35"
     inkscape:cx="375"
     inkscape:cy="520"
     inkscape:document-units="px"
     inkscape:current-layer="layer1"
     showgrid="false"
     inkscape:window-width="624"
     inkscape:window-height="427"
     inkscape:window-x="738"
     inkscape:window-y="0"
     inkscape:window-maximized="0" />
  <metadata
     id="metadata4310">
    <rdf:RDF>
      <cc:Work
         rdf:about="">
        <dc:format>image/svg+xml</dc:format>
        <dc:type
           rdf:resource="http://purl.org/dc/dcmitype/StillImage" />
        <dc:title></dc:title>
      </cc:Work>
    </rdf:RDF>
  </metadata>
  <g
     inkscape:label="Calque 1"
     inkscape:groupmode="layer"
     id="layer1">
    <g
       transform="matrix(1.25,0,0,-1.25,-619.95309,2067.9308)"
       id="g3264">
      <text
         id="text3266"
         transform="matrix(0,1,1,0,640.146,1083.09)">
        <tspan
           id="tspan3268"
           sodipodi:role="line"
           y="0"
           x="0 24.001162 49.231106 72.229637"
           style="font-size:45.54299927px;font-variant:normal;font-weight:bold;writing-mode:lr-tb;fill:#fbfcfc;fill-opacity:1;fill-rule:nonzero;stroke:none;font-family:FifthLeg;-inkscape-font-specification:FifthLeg-Bold">open</tspan>
      </text>
    </g>
    <path
       inkscape:connector-curvature="0"
       id="path3270"
       style="fill:none;stroke:#2b4834;stroke-width:0.36812499;stroke-linecap:butt;stroke-linejoin:miter;stroke-miterlimit:4;stroke-opacity:1;stroke-dasharray:none"
       d="m 152.62066,694.49327 0,8.5875 c 0,4.95 3.69875,8.7125 8.42375,8.7125 l 11.1575,0 c 4.725,0 8.42625,-3.7625 8.42625,-8.7125 l 0,-8.5875 c 0,-4.9625 -3.70125,-8.7125 -8.42625,-8.7125 l -11.1575,0 c -4.725,0 -8.42375,3.7 -8.42375,8.7125 z m 6.4875,-0.7375 c 0,-0.4625 0.22875,-1.375 1.0825,-1.375 l 12.865,0 c 0.6275,0 1.0825,0.5125 1.0825,1.375 l 0,10.125 c 0,0.7375 -0.5125,1.3125 -1.0825,1.3125 l -12.865,0 c -0.625,0 -1.0825,-0.5125 -1.0825,-1.3125 l 0,-10.125 z m 14.63125,-30.8625 0,11.4375 -14.4025,0 0,-11.55 c 0,-0.1125 0.17,-1.25 1.0825,-1.25 l 12.18125,0 c 0.68375,0 1.13875,0.5125 1.13875,1.3625 z m -21.0625,17.025 c 0,0.625 0.455,1.1375 1.195,1.1375 l 39.395,0 0,-5.125 c 0,-0.9125 -0.74,-1.5375 -1.48125,-1.5375 l -12.92375,0 1.59625,-8.5375 c 0.0563,-0.625 0.17,-2.3375 0.17,-3.3625 0,-4.3875 -3.6425,-7.575 -7.68625,-7.575 l -12.8075,0 c -3.47375,0 -7.4575,3.075 -7.4575,7.9125 0,2.225 0.17,3.3625 0.22625,3.7125 l 2.05125,7.7875 -2.2775,0 0,5.5875 z m 21.11875,-38.0875 c 0,1.075 -0.85375,2.05 -1.935,2.05 l -2.6175,0 0,-18.675 -7.8575,0 c -4.6675,0 -8.70875,3.7625 -8.70875,8.8875 l 0,7.625 c 0,5.0625 3.9275,8.825 8.595,8.825 l 10.02,0 c 4.6675,0 8.9375,-3.3625 8.9375,-8.7125 l 0,-3.9875 c 0,-5.0125 -2.7325,-10.7 -5.63625,-10.7 l -0.7975,0 0,14.6875 z m -12.75125,2.05 c -1.02375,0 -1.9925,-0.9125 -1.9925,-2.05 l 0,-7.9125 c 0,-1.1375 0.96875,-2.05 1.9925,-2.05 l 2.61875,0 0,12.0125 -2.61875,0 z m 19.12875,-49.125 -21.74625,0 c -3.53,0 -6.32,1.1875 -6.32,6.0875 0,1.2 0.115,2.5 0.34125,3.9875 l 1.59375,9.3875 -1.47875,0 0,6.6625 27.61,0 0,-6.6625 -19.9825,0 c -0.455,0 -1.13875,-0.5125 -1.13875,-1.3125 l 0,-10.2375 c 0,-0.6875 0.57,-1.375 1.195,-1.375 l 19.92625,0 0,-6.5375 z" />
    <g
       transform="matrix(1.25,0,0,-1.25,-619.95309,2067.9308)"
       id="g3272">
      <text
         id="text3274"
         transform="matrix(0,1,1,0,640.146,1180.27)">
        <tspan
           id="tspan3276"
           sodipodi:role="line"
           y="0"
           x="0 27.188488 55.607319 82.795807"
           style="font-size:45.54299927px;font-variant:normal;font-weight:bold;writing-mode:lr-tb;fill:#61bf32;fill-opacity:1;fill-rule:nonzero;stroke:none;font-family:FifthLeg;-inkscape-font-specification:FifthLeg-Bold">SUSE</tspan>
      </text>
      <text
         id="text3278"
         transform="matrix(0,1,1,0,640.65694,1291.904)">
        <tspan
           id="tspan3280"
           y="0"
           x="0"
           style="font-size:13.54300022px;font-variant:normal;font-weight:bold;writing-mode:lr-tb;fill:#61bf32;fill-opacity:1;fill-rule:nonzero;stroke:none;font-family:FifthLeg;-inkscape-font-specification:FifthLeg-Bold">®</tspan>
      </text>
    </g>
  </g>
</svg>
