<?xml version="1.0" encoding="UTF-8" standalone="no"?>
<!-- Created with Inkscape (http://www.inkscape.org/) -->

<svg
   xmlns:dc="http://purl.org/dc/elements/1.1/"
   xmlns:cc="http://creativecommons.org/ns#"
   xmlns:rdf="http://www.w3.org/1999/02/22-rdf-syntax-ns#"
   xmlns:svg="http://www.w3.org/2000/svg"
   xmlns="http://www.w3.org/2000/svg"
   xmlns:sodipodi="http://sodipodi.sourceforge.net/DTD/sodipodi-0.dtd"
   xmlns:inkscape="http://www.inkscape.org/namespaces/inkscape"
   width="210mm"
   height="297mm"
   id="svg3001"
   version="1.1"
   inkscape:version="0.48.2 r9819"
   sodipodi:docname="credits.svg">
  <defs
     id="defs3">
    <linearGradient
       id="linearGradient4055">
      <stop
         style="stop-color:#aedd7b;stop-opacity:0.2923077;"
         offset="0"
         id="stop4057" />
      <stop
         style="stop-color:#aedd7b;stop-opacity:0.07692308;"
         offset="1"
         id="stop4059" />
    </linearGradient>
  </defs>
  <sodipodi:namedview
     inkscape:document-units="mm"
     id="base"
     pagecolor="#ffffff"
     bordercolor="#666666"
     borderopacity="1.0"
     inkscape:pageopacity="1"
     inkscape:pageshadow="2"
     inkscape:zoom="0.7"
     inkscape:cx="317.57671"
     inkscape:cy="593.71037"
     inkscape:current-layer="layer1"
     showgrid="false"
     inkscape:window-width="1916"
     inkscape:window-height="1043"
     inkscape:window-x="1024"
     inkscape:window-y="17"
     inkscape:window-maximized="0"
     units="mm"
     inkscape:snap-bbox="true"
     inkscape:snap-page="true"
     showguides="true"
     inkscape:guide-bbox="true"
     inkscape:bbox-nodes="true"
     inkscape:bbox-paths="true"
     inkscape:object-nodes="true"
     inkscape:snap-smooth-nodes="true"
     inkscape:object-paths="true"
     inkscape:snap-intersection-paths="true"
     inkscape:snap-object-midpoints="true"
     inkscape:snap-global="true"
     inkscape:snap-nodes="false" />
  <metadata
     id="metadata4">
    <rdf:RDF>
      <cc:Work
         rdf:about="">
        <dc:format>image/svg+xml</dc:format>
        <dc:type
           rdf:resource="http://purl.org/dc/dcmitype/StillImage" />
        <dc:title></dc:title>
      </cc:Work>
    </rdf:RDF>
  </metadata>
  <g
     inkscape:label="Layer 1"
     inkscape:groupmode="layer"
     id="layer1">
    <g
       id="g4741"
       transform="translate(0,8)">
      <rect
         y="141.82143"
         x="0"
         height="87.707085"
         width="744.09454"
         id="rect4067"
         style="fill:#73ba25;fill-opacity:1;stroke:none" />
      <text
         sodipodi:linespacing="125%"
         id="text4069"
         y="201.67497"
         x="372.04727"
         style="font-size:40px;font-style:normal;font-weight:normal;line-height:125%;letter-spacing:0px;word-spacing:0px;fill:#ffffff;fill-opacity:1;stroke:none;font-family:Sans"
         xml:space="preserve"><tspan
           id="tspan4087"
           style="font-size:48px;font-style:normal;font-variant:normal;font-weight:normal;font-stretch:normal;text-align:center;text-anchor:middle;fill:#ffffff;fill-opacity:1;font-family:FifthLeg;-inkscape-font-specification:FifthLeg"
           y="201.67497"
           x="372.04727"
           sodipodi:role="line">Credits</tspan></text>
    </g>
    <text
       xml:space="preserve"
       style="font-size:40px;font-style:normal;font-weight:normal;line-height:125%;letter-spacing:0px;word-spacing:0px;fill:#000000;fill-opacity:1;stroke:none;font-family:Sans"
       x="352.54324"
       y="199.79343"
       id="text4091"
       sodipodi:linespacing="125%"><tspan
         sodipodi:role="line"
         id="tspan4093" /></text>
    <flowRoot
       xml:space="preserve"
       id="flowRoot4222"
       style="font-size:16px;font-style:normal;font-variant:normal;font-weight:normal;font-stretch:normal;text-align:end;text-anchor:end;fill:#000000;fill-opacity:0.21568627;stroke:none;font-family:FifthLeg;-inkscape-font-specification:FifthLeg"><flowRegion
         id="flowRegion4224"><rect
           id="rect4226"
           width="638.57141"
           height="140"
           x="52.857143"
           y="136.6479"
           style="fill:#000000;fill-opacity:0.21568627" /></flowRegion><flowPara
         id="flowPara4228"
         style="text-align:start;text-anchor:start;fill:#000000;fill-opacity:0.21568627" /></flowRoot>    <text
       xml:space="preserve"
       style="font-size:16px;font-style:normal;font-variant:normal;font-weight:normal;font-stretch:normal;text-align:start;text-anchor:start;fill:#000000;fill-opacity:1;stroke:none;font-family:FifthLeg;-inkscape-font-specification:FifthLeg"
       x="51.42857"
       y="245.21933"
       id="text4234"><tspan
         sodipodi:role="line"
         x="51.42857"
         y="245.21933"
         id="tspan4240" /></text>
    <text
       xml:space="preserve"
       style="font-size:16px;font-style:normal;font-variant:normal;font-weight:normal;font-stretch:normal;text-align:justify;line-height:125%;writing-mode:lr-tb;text-anchor:start;fill:#000000;fill-opacity:1;stroke:none;font-family:FifthLeg;-inkscape-font-specification:FifthLeg"
       x="205.71429"
       y="265.21933"
       id="text4248"
       sodipodi:linespacing="125%"><tspan
         sodipodi:role="line"
         x="205.71429"
         y="265.21933"
         id="tspan4252"
         style="font-size:16px;font-style:normal;font-variant:normal;font-weight:normal;font-stretch:normal;text-align:justify;line-height:125%;writing-mode:lr-tb;text-anchor:start;font-family:FifthLeg;-inkscape-font-specification:FifthLeg" /></text>
    <text
       xml:space="preserve"
       style="font-size:18px;font-style:italic;font-variant:normal;font-weight:normal;font-stretch:normal;text-align:justify;line-height:125%;writing-mode:lr-tb;text-anchor:start;fill:#000000;fill-opacity:1;stroke:none;font-family:Serif;-inkscape-font-specification:Serif Italic"
       x="1042.8571"
       y="266.64789"
       id="text4272"
       sodipodi:linespacing="125%"><tspan
         sodipodi:role="line"
         id="tspan4274" /></text>
    <text
       xml:space="preserve"
       style="font-size:20px;font-style:normal;font-variant:normal;font-weight:normal;font-stretch:normal;text-align:justify;line-height:125%;writing-mode:lr-tb;text-anchor:start;fill:#000000;fill-opacity:1;stroke:none;font-family:Serif;-inkscape-font-specification:Serif"
       x="971.42859"
       y="405.21933"
       id="text4304"
       sodipodi:linespacing="125%"><tspan
         sodipodi:role="line"
         id="tspan4306" /></text>
    <text
       xml:space="preserve"
       style="font-size:14px;font-style:normal;font-variant:normal;font-weight:normal;font-stretch:normal;text-align:justify;line-height:125%;writing-mode:lr-tb;text-anchor:start;fill:#000000;fill-opacity:1;stroke:none;font-family:Serif;-inkscape-font-specification:Serif"
       x="212.85715"
       y="790.93359"
       id="text4326"
       sodipodi:linespacing="125%"><tspan
         sodipodi:role="line"
         id="tspan4328" /></text>
    <text
       xml:space="preserve"
       style="font-size:16px;font-style:normal;font-variant:normal;font-weight:normal;font-stretch:normal;text-align:justify;line-height:125%;writing-mode:lr-tb;text-anchor:start;fill:#638c38;fill-opacity:1;stroke:none;font-family:FifthLeg;-inkscape-font-specification:FifthLeg"
       x="-238.396"
       y="934.17432"
       id="text3078"
       sodipodi:linespacing="125%"><tspan
         sodipodi:role="line"
         id="tspan3080" /></text>
    <text
       xml:space="preserve"
       style="font-size:16px;font-style:normal;font-variant:normal;font-weight:normal;font-stretch:normal;text-align:justify;line-height:125%;writing-mode:lr-tb;text-anchor:start;fill:#73ba25;fill-opacity:1;stroke:none;font-family:FifthLeg;-inkscape-font-specification:FifthLeg"
       x="-264.28571"
       y="748.07648"
       id="text3171"
       sodipodi:linespacing="125%"><tspan
         sodipodi:role="line"
         id="tspan3173" /></text>
    <text
       xml:space="preserve"
       style="font-size:36px;font-style:normal;font-variant:normal;font-weight:normal;font-stretch:normal;text-align:end;line-height:135.00000238%;writing-mode:lr-tb;text-anchor:end;fill:#73ba25;fill-opacity:1;stroke:none;font-family:FifthLeg;-inkscape-font-specification:FifthLeg"
       x="371.43411"
       y="397.92633"
       id="text4629"
       sodipodi:linespacing="135%"><tspan
         sodipodi:role="line"
         id="tspan4631"
         x="371.43411"
         y="397.92633"
         style="font-size:24px;text-align:center;line-height:135.00000238%;text-anchor:middle;fill:#73ba25">Editor: Lorem Ipsum</tspan><tspan
         sodipodi:role="line"
         x="371.43411"
         y="430.32632"
         id="tspan4633"
         style="font-size:24px;text-align:center;line-height:135.00000238%;text-anchor:middle;fill:#73ba25">Graphics: Dolor Sit Amet</tspan><tspan
         sodipodi:role="line"
         x="371.43411"
         y="462.72632"
         style="font-size:24px;text-align:center;line-height:135.00000238%;text-anchor:middle;fill:#73ba25"
         id="tspan4637">Review p.4: Consectetur Adipisicing</tspan><tspan
         sodipodi:role="line"
         x="371.43411"
         y="495.12634"
         style="font-size:24px;text-align:center;line-height:135.00000238%;text-anchor:middle;fill:#73ba25"
         id="tspan4639">Elit: Suspendisse semper</tspan><tspan
         sodipodi:role="line"
         x="371.43411"
         y="527.52631"
         style="font-size:24px;text-align:center;line-height:135.00000238%;text-anchor:middle;fill:#73ba25"
         id="tspan4641">Nibh at leo: lobortis convallis</tspan><tspan
         sodipodi:role="line"
         x="371.43411"
         y="559.92633"
         style="font-size:24px;text-align:center;line-height:135.00000238%;text-anchor:middle;fill:#73ba25"
         id="tspan4735">Nunc ac venenatis: Magna Proin</tspan><tspan
         sodipodi:role="line"
         x="371.43411"
         y="592.32635"
         style="font-size:24px;text-align:center;line-height:135.00000238%;text-anchor:middle;fill:#73ba25"
         id="tspan5348">sed: ante elit</tspan><tspan
         sodipodi:role="line"
         x="371.43411"
         y="624.72632"
         style="font-size:24px;text-align:center;line-height:135.00000238%;text-anchor:middle;fill:#73ba25"
         id="tspan5350">sapien a eros: aliquam rutrum</tspan><tspan
         sodipodi:role="line"
         x="371.43411"
         y="657.12634"
         style="font-size:24px;text-align:center;line-height:135.00000238%;text-anchor:middle;fill:#73ba25"
         id="tspan5352">quis: interdum libero</tspan></text>
    <path
       inkscape:connector-curvature="0"
       d="m 372.04759,791.85603 c -32.78326,0 -59.36328,26.57719 -59.36328,59.36258 0,32.7861 26.58073,59.364 59.36328,59.364 32.78185,0 59.36258,-26.5779 59.36258,-59.364 0,-32.78539 -26.58073,-59.36258 -59.36258,-59.36258 z m 0.28387,8.22084 c 28.24705,0 51.16446,22.89896 51.16446,51.14174 0,28.24704 -22.92025,51.14245 -51.16446,51.14245 -15.25225,0 -28.93826,-6.68439 -38.30734,-17.27339 3.8521,-2.99056 10.29733,-2.26101 18.235,-1.35618 3.80384,0.4329 8.14064,0.92896 12.61583,1.02831 12.5044,0.0724 25.95906,-2.20921 34.26292,-5.83846 5.36796,-2.35469 8.8056,-3.90462 10.95449,-5.86047 0.77496,-0.63516 1.18089,-1.69682 1.59534,-2.79823 l 0.28387,-0.74303 c 0.34774,-0.88993 0.84805,-2.80391 1.0716,-3.84855 0.10006,-0.45702 0.14974,-0.94883 -0.17458,-1.20218 l -1.15889,0.21858 c -3.64416,2.18508 -12.74641,6.34588 -21.27523,6.5162 -10.56772,0.22142 -31.86566,-10.63868 -34.08693,-11.7848 l -0.21858,-0.26258 c -0.53225,-1.27102 -3.7201,-8.83753 -4.39499,-10.42933 15.33102,10.09579 28.04123,15.68374 37.78289,16.55167 10.831,0.96231 19.27893,-4.95138 22.89257,-7.47781 0.70542,-0.48116 1.24335,-0.8587 1.46477,-0.94031 l 0.23986,-0.39387 c -0.59896,-3.80597 -6.282,-22.22832 -10.56061,-26.65312 -1.18657,-1.21354 -2.12902,-2.39514 -4.04442,-3.51997 -15.48786,-9.02702 -52.26302,-14.46381 -53.98469,-14.71503 l -0.28457,0.088 -0.10929,0.24057 c 0,0 -0.13768,7.63607 -0.15329,8.48341 -1.2618,-0.41728 -5.17493,-1.69895 -10.7792,-3.2361 7.31387,-9.04901 18.521,-17.07752 38.13347,-17.07752 z m 13.51285,27.06898 c 0.26045,-0.004 0.52374,-0.009 0.78703,0 8.67573,0.31155 15.49212,7.61903 15.19548,16.28909 -0.154,4.19415 -1.9225,8.06967 -4.98544,10.93248 -3.07146,2.87772 -7.06336,4.37796 -11.28094,4.24171 -8.66153,-0.32361 -15.47792,-7.6311 -15.19689,-16.28909 0.14832,-4.20054 1.92604,-8.10089 5.00744,-10.95448 2.87629,-2.69746 6.55807,-4.1608 10.47332,-4.21971 z m -0.41586,4.63558 c -2.52714,0.15399 -4.91093,1.18018 -6.77807,2.93023 -2.1276,1.99701 -3.38372,4.70157 -3.47597,7.63109 -0.20084,6.05208 4.5355,11.14539 10.58261,11.36964 2.93875,0.0901 5.72421,-0.93889 7.87026,-2.93023 2.14036,-2.00695 3.38584,-4.73563 3.47739,-7.65238 0.20225,-6.06201 -4.55609,-11.13616 -10.60462,-11.34835 -0.36548,-0.0135 -0.71109,-0.022 -1.0716,0 z m 2.88623,5.48788 c 2.68752,0 4.85415,1.46051 4.85415,3.2581 0,1.78908 -2.16663,3.2581 -4.85415,3.2581 -2.69604,0 -4.87615,-1.47185 -4.87615,-3.2581 0,-1.79759 2.18011,-3.2581 4.87615,-3.2581 z"
       id="path4709"
       style="fill:#73ba25" />
    <text
       xml:space="preserve"
       style="font-size:24px;font-style:normal;font-variant:normal;font-weight:normal;font-stretch:normal;text-align:center;line-height:125%;writing-mode:lr-tb;text-anchor:middle;fill:#73ba25;fill-opacity:1;stroke:none;font-family:FifthLeg;-inkscape-font-specification:FifthLeg"
       x="-182.85715"
       y="525.21936"
       id="text4737"
       sodipodi:linespacing="125%"><tspan
         sodipodi:role="line"
         id="tspan4739"
         x="-182.85715"
         y="525.21936" /></text>
    <g
       id="g5279"
       transform="translate(-2,-12)">
      <path
         style="fill:#73ba25;fill-opacity:1;fill-rule:nonzero;stroke:none"
         d="m 70.4225,147.36804 c -1.46224,-0.0537 -2.61004,-1.28632 -2.5612,-2.75065 0.0225,-0.70896 0.32557,-1.36425 0.84056,-1.84807 0.51708,-0.48368 1.19245,-0.73544 1.9014,-0.70877 1.46433,0.0512 2.61245,1.28182 2.56326,2.74838 -0.0222,0.70672 -0.32107,1.36198 -0.83815,1.84789 -0.5195,0.48159 -1.19487,0.73339 -1.90591,0.71122 l 4e-5,0 z m 0.61543,-2.40533 c 0.65078,0 1.17894,-0.35206 1.17894,-0.78446 0,-0.43466 -0.52819,-0.7869 -1.17894,-0.7869 -0.65111,0 -1.1772,0.35224 -1.1772,0.7869 0,0.4324 0.52609,0.78446 1.1772,0.78446"
         id="path1977"
         inkscape:connector-curvature="0" />
      <path
         inkscape:connector-curvature="0"
         id="path5277"
         d="m 40.33926,162.6193 0.0941,-0.009 0.0153,-0.11143 c -0.0241,-0.0875 -0.0808,-0.16612 -0.16852,-1.25075 -0.0744,-0.95994 -0.22526,-3.59243 1.09973,-4.89786 0.51402,-0.50946 1.29883,-0.96214 1.91784,-1.10857 2.53855,-0.61884 5.83369,-0.19027 8.64774,3.06345 1.45204,1.68137 2.16484,2.44886 2.52122,2.79217 l 0.12232,0.11365 0.1488,0.10719 c 0.11585,0.0656 4.83653,2.23905 4.83653,2.23905 l 0.0962,-0.0241 0.002,-0.1026 c -0.0306,-0.035 -2.99109,-3.85947 -2.4665,-7.01021 0.41549,-2.51016 2.41386,-2.28493 5.17562,-1.97016 0.90303,0.10277 1.93074,0.22085 2.99346,0.24496 2.96694,0.0175 6.16392,-0.52692 8.13408,-1.38852 1.27472,-0.5575 2.08806,-0.92495 2.59766,-1.38852 0.18344,-0.15084 0.2796,-0.40004 0.37812,-0.66249 l 0.0679,-0.17701 c 0.0829,-0.21218 0.20317,-0.66691 0.25584,-0.91406 0.0241,-0.10924 0.035,-0.22745 -0.0418,-0.28638 l -0.27317,0.0503 c -0.86361,0.51825 -3.0264,1.50659 -5.05094,1.54597 -2.50797,0.0523 -7.56329,-2.52342 -8.09025,-2.79676 l -0.0503,-0.0589 c -0.12705,-0.30187 -0.8857,-2.09704 -1.04538,-2.47516 3.63862,2.39636 6.65584,3.72153 8.96711,3.92706 2.57149,0.22951 4.57665,-1.17414 5.43379,-1.77346 0.16818,-0.11366 0.29523,-0.20553 0.34755,-0.22509 l 0.0547,-0.0897 c -0.14236,-0.90303 -1.48704,-5.27617 -2.5015,-6.3258 -0.28197,-0.28861 -0.50723,-0.56839 -0.96213,-0.83526 -3.67565,-2.14275 -12.40223,-3.43733 -12.81094,-3.49627 l -0.07,0.0197 -0.0262,0.0612 c 0,0 -0.0329,1.81047 -0.0374,2.01176 -0.89217,-0.29745 -7.37066,-2.39006 -13.44524,-2.60207 -5.14907,-0.18146 -12.18339,-0.42642 -22.12353,5.68282 l -0.29303,0.18361 c -4.67483,2.91686 -7.90221,6.51165 -9.59019,10.69232 -0.52915,1.31411 -1.24192,4.2814 -0.53799,7.07357 0.30611,1.22239 0.87245,2.44681 1.63789,3.54452 1.72521,2.47944 4.62233,4.12616 7.74253,4.40371 4.40371,0.39344 7.74047,-1.58521 8.92769,-5.28942 0.81554,-2.55604 0,-6.30593 -3.1268,-8.21917 -2.54297,-1.55906 -5.28058,-1.20267 -6.86583,-0.15527 -1.37749,0.91392 -2.15803,2.33079 -2.14275,3.88988 0.0306,2.76158 2.41181,4.23095 4.12174,4.23317 0.49839,0 0.99696,-0.0853 1.56111,-0.26888 0.1991,-0.0613 0.38919,-0.13554 0.59692,-0.26465 l 0.0635,-0.0414 0.0414,-0.0241 -0.0153,0.007 c 0.39138,-0.26245 0.6275,-0.69526 0.6275,-1.15887 0,-0.12687 -0.0197,-0.25584 -0.0547,-0.38491 -0.20112,-0.69749 -0.89218,-1.12164 -1.60936,-0.99052 l -0.0962,0.0197 -0.13116,0.0437 -0.19026,0.0635 c -0.39357,0.0984 -0.69102,0.10499 -0.75218,0.10701 -0.20112,-0.0131 -1.1874,-0.30813 -1.1874,-1.38834 l 0,-0.0131 c 0.002,-0.3958 0.16188,-0.67352 0.24937,-0.82437 0.30389,-0.48107 1.14357,-0.9533 2.27829,-0.85276 1.48704,0.12674 2.55842,0.88995 3.26899,2.32873 0.66044,1.33808 0.48771,2.98243 -0.44388,4.18935 -0.92494,1.19623 -2.57132,1.70346 -4.76232,1.46495 -2.20847,-0.24259 -4.07569,-1.51303 -5.1209,-3.49185 -1.0233,-1.93297 -1.08021,-4.22671 -0.14643,-5.98893 2.23686,-4.2201 6.45897,-4.17644 8.77466,-3.77622 3.4285,0.5925 6.53999,3.33658 7.92409,6.9861 0.22084,0.58164 0.33447,1.04298 0.43282,1.46275 l 0.14879,0.63192 3.8722,1.89133 0.0527,0.0372 1.1e-4,-3e-5 z m 27.52442,-20.59743 c -0.73009,0.67776 -1.14798,1.60271 -1.18298,2.59985 -0.0676,2.05525 1.54615,3.78707 3.60126,3.86371 1.00156,0.0328 1.95044,-0.31937 2.67851,-1.00155 0.72807,-0.68 1.14593,-1.60272 1.18298,-2.59766 0.07,-2.05748 -1.54378,-3.79149 -3.60328,-3.86573 -0.99713,-0.0328 -1.94841,0.31919 -2.67649,1.00138"
         style="fill:#ffffff;fill-opacity:1;fill-rule:evenodd;stroke:#ffffff;stroke-width:2.77086616;stroke-miterlimit:4;stroke-opacity:1;stroke-dasharray:none" />
      <path
         style="fill:#73ba25;fill-opacity:1;fill-rule:evenodd;stroke:none"
         d="m 40.33926,162.6193 0.0941,-0.009 0.0153,-0.11143 c -0.0241,-0.0875 -0.0808,-0.16612 -0.16852,-1.25075 -0.0744,-0.95994 -0.22526,-3.59243 1.09973,-4.89786 0.51402,-0.50946 1.29883,-0.96214 1.91784,-1.10857 2.53855,-0.61884 5.83369,-0.19027 8.64774,3.06345 1.45204,1.68137 2.16484,2.44886 2.52122,2.79217 l 0.12232,0.11365 0.1488,0.10719 c 0.11585,0.0656 4.83653,2.23905 4.83653,2.23905 l 0.0962,-0.0241 0.002,-0.1026 c -0.0306,-0.035 -2.99109,-3.85947 -2.4665,-7.01021 0.41549,-2.51016 2.41386,-2.28493 5.17562,-1.97016 0.90303,0.10277 1.93074,0.22085 2.99346,0.24496 2.96694,0.0175 6.16392,-0.52692 8.13408,-1.38852 1.27472,-0.5575 2.08806,-0.92495 2.59766,-1.38852 0.18344,-0.15084 0.2796,-0.40004 0.37812,-0.66249 l 0.0679,-0.17701 c 0.0829,-0.21218 0.20317,-0.66691 0.25584,-0.91406 0.0241,-0.10924 0.035,-0.22745 -0.0418,-0.28638 l -0.27317,0.0503 c -0.86361,0.51825 -3.0264,1.50659 -5.05094,1.54597 -2.50797,0.0523 -7.56329,-2.52342 -8.09025,-2.79676 l -0.0503,-0.0589 c -0.12705,-0.30187 -0.8857,-2.09704 -1.04538,-2.47516 3.63862,2.39636 6.65584,3.72153 8.96711,3.92706 2.57149,0.22951 4.57665,-1.17414 5.43379,-1.77346 0.16818,-0.11366 0.29523,-0.20553 0.34755,-0.22509 l 0.0547,-0.0897 c -0.14236,-0.90303 -1.48704,-5.27617 -2.5015,-6.3258 -0.28197,-0.28861 -0.50723,-0.56839 -0.96213,-0.83526 -3.67565,-2.14275 -12.40223,-3.43733 -12.81094,-3.49627 l -0.07,0.0197 -0.0262,0.0612 c 0,0 -0.0329,1.81047 -0.0374,2.01176 -0.89217,-0.29745 -7.37066,-2.39006 -13.44524,-2.60207 -5.14907,-0.18146 -12.18339,-0.42642 -22.12353,5.68282 l -0.29303,0.18361 c -4.67483,2.91686 -7.90221,6.51165 -9.59019,10.69232 -0.52915,1.31411 -1.24192,4.2814 -0.53799,7.07357 0.30611,1.22239 0.87245,2.44681 1.63789,3.54452 1.72521,2.47944 4.62233,4.12616 7.74253,4.40371 4.40371,0.39344 7.74047,-1.58521 8.92769,-5.28942 0.81554,-2.55604 0,-6.30593 -3.1268,-8.21917 -2.54297,-1.55906 -5.28058,-1.20267 -6.86583,-0.15527 -1.37749,0.91392 -2.15803,2.33079 -2.14275,3.88988 0.0306,2.76158 2.41181,4.23095 4.12174,4.23317 0.49839,0 0.99696,-0.0853 1.56111,-0.26888 0.1991,-0.0613 0.38919,-0.13554 0.59692,-0.26465 l 0.0635,-0.0414 0.0414,-0.0241 -0.0153,0.007 c 0.39138,-0.26245 0.6275,-0.69526 0.6275,-1.15887 0,-0.12687 -0.0197,-0.25584 -0.0547,-0.38491 -0.20112,-0.69749 -0.89218,-1.12164 -1.60936,-0.99052 l -0.0962,0.0197 -0.13116,0.0437 -0.19026,0.0635 c -0.39357,0.0984 -0.69102,0.10499 -0.75218,0.10701 -0.20112,-0.0131 -1.1874,-0.30813 -1.1874,-1.38834 l 0,-0.0131 c 0.002,-0.3958 0.16188,-0.67352 0.24937,-0.82437 0.30389,-0.48107 1.14357,-0.9533 2.27829,-0.85276 1.48704,0.12674 2.55842,0.88995 3.26899,2.32873 0.66044,1.33808 0.48771,2.98243 -0.44388,4.18935 -0.92494,1.19623 -2.57132,1.70346 -4.76232,1.46495 -2.20847,-0.24259 -4.07569,-1.51303 -5.1209,-3.49185 -1.0233,-1.93297 -1.08021,-4.22671 -0.14643,-5.98893 2.23686,-4.2201 6.45897,-4.17644 8.77466,-3.77622 3.4285,0.5925 6.53999,3.33658 7.92409,6.9861 0.22084,0.58164 0.33447,1.04298 0.43282,1.46275 l 0.14879,0.63192 3.8722,1.89133 0.0527,0.0372 1.1e-4,-3e-5 z m 27.52442,-20.59743 c -0.73009,0.67776 -1.14798,1.60271 -1.18298,2.59985 -0.0676,2.05525 1.54615,3.78707 3.60126,3.86371 1.00156,0.0328 1.95044,-0.31937 2.67851,-1.00155 0.72807,-0.68 1.14593,-1.60272 1.18298,-2.59766 0.07,-2.05748 -1.54378,-3.79149 -3.60328,-3.86573 -0.99713,-0.0328 -1.94841,0.31919 -2.67649,1.00138"
         id="path1979"
         inkscape:connector-curvature="0" />
    </g>
    <g
       transform="translate(80,-12)"
       id="g5284">
      <path
         inkscape:connector-curvature="0"
         id="path5286"
         d="m 70.4225,147.36804 c -1.46224,-0.0537 -2.61004,-1.28632 -2.5612,-2.75065 0.0225,-0.70896 0.32557,-1.36425 0.84056,-1.84807 0.51708,-0.48368 1.19245,-0.73544 1.9014,-0.70877 1.46433,0.0512 2.61245,1.28182 2.56326,2.74838 -0.0222,0.70672 -0.32107,1.36198 -0.83815,1.84789 -0.5195,0.48159 -1.19487,0.73339 -1.90591,0.71122 l 4e-5,0 z m 0.61543,-2.40533 c 0.65078,0 1.17894,-0.35206 1.17894,-0.78446 0,-0.43466 -0.52819,-0.7869 -1.17894,-0.7869 -0.65111,0 -1.1772,0.35224 -1.1772,0.7869 0,0.4324 0.52609,0.78446 1.1772,0.78446"
         style="fill:#73ba25;fill-opacity:1;fill-rule:nonzero;stroke:none" />
      <path
         style="fill:#ffffff;fill-opacity:1;fill-rule:evenodd;stroke:#ffffff;stroke-width:2.77086616;stroke-miterlimit:4;stroke-opacity:1;stroke-dasharray:none"
         d="m 40.33926,162.6193 0.0941,-0.009 0.0153,-0.11143 c -0.0241,-0.0875 -0.0808,-0.16612 -0.16852,-1.25075 -0.0744,-0.95994 -0.22526,-3.59243 1.09973,-4.89786 0.51402,-0.50946 1.29883,-0.96214 1.91784,-1.10857 2.53855,-0.61884 5.83369,-0.19027 8.64774,3.06345 1.45204,1.68137 2.16484,2.44886 2.52122,2.79217 l 0.12232,0.11365 0.1488,0.10719 c 0.11585,0.0656 4.83653,2.23905 4.83653,2.23905 l 0.0962,-0.0241 0.002,-0.1026 c -0.0306,-0.035 -2.99109,-3.85947 -2.4665,-7.01021 0.41549,-2.51016 2.41386,-2.28493 5.17562,-1.97016 0.90303,0.10277 1.93074,0.22085 2.99346,0.24496 2.96694,0.0175 6.16392,-0.52692 8.13408,-1.38852 1.27472,-0.5575 2.08806,-0.92495 2.59766,-1.38852 0.18344,-0.15084 0.2796,-0.40004 0.37812,-0.66249 l 0.0679,-0.17701 c 0.0829,-0.21218 0.20317,-0.66691 0.25584,-0.91406 0.0241,-0.10924 0.035,-0.22745 -0.0418,-0.28638 l -0.27317,0.0503 c -0.86361,0.51825 -3.0264,1.50659 -5.05094,1.54597 -2.50797,0.0523 -7.56329,-2.52342 -8.09025,-2.79676 l -0.0503,-0.0589 c -0.12705,-0.30187 -0.8857,-2.09704 -1.04538,-2.47516 3.63862,2.39636 6.65584,3.72153 8.96711,3.92706 2.57149,0.22951 4.57665,-1.17414 5.43379,-1.77346 0.16818,-0.11366 0.29523,-0.20553 0.34755,-0.22509 l 0.0547,-0.0897 c -0.14236,-0.90303 -1.48704,-5.27617 -2.5015,-6.3258 -0.28197,-0.28861 -0.50723,-0.56839 -0.96213,-0.83526 -3.67565,-2.14275 -12.40223,-3.43733 -12.81094,-3.49627 l -0.07,0.0197 -0.0262,0.0612 c 0,0 -0.0329,1.81047 -0.0374,2.01176 -0.89217,-0.29745 -7.37066,-2.39006 -13.44524,-2.60207 -5.14907,-0.18146 -12.18339,-0.42642 -22.12353,5.68282 l -0.29303,0.18361 c -4.67483,2.91686 -7.90221,6.51165 -9.59019,10.69232 -0.52915,1.31411 -1.24192,4.2814 -0.53799,7.07357 0.30611,1.22239 0.87245,2.44681 1.63789,3.54452 1.72521,2.47944 4.62233,4.12616 7.74253,4.40371 4.40371,0.39344 7.74047,-1.58521 8.92769,-5.28942 0.81554,-2.55604 0,-6.30593 -3.1268,-8.21917 -2.54297,-1.55906 -5.28058,-1.20267 -6.86583,-0.15527 -1.37749,0.91392 -2.15803,2.33079 -2.14275,3.88988 0.0306,2.76158 2.41181,4.23095 4.12174,4.23317 0.49839,0 0.99696,-0.0853 1.56111,-0.26888 0.1991,-0.0613 0.38919,-0.13554 0.59692,-0.26465 l 0.0635,-0.0414 0.0414,-0.0241 -0.0153,0.007 c 0.39138,-0.26245 0.6275,-0.69526 0.6275,-1.15887 0,-0.12687 -0.0197,-0.25584 -0.0547,-0.38491 -0.20112,-0.69749 -0.89218,-1.12164 -1.60936,-0.99052 l -0.0962,0.0197 -0.13116,0.0437 -0.19026,0.0635 c -0.39357,0.0984 -0.69102,0.10499 -0.75218,0.10701 -0.20112,-0.0131 -1.1874,-0.30813 -1.1874,-1.38834 l 0,-0.0131 c 0.002,-0.3958 0.16188,-0.67352 0.24937,-0.82437 0.30389,-0.48107 1.14357,-0.9533 2.27829,-0.85276 1.48704,0.12674 2.55842,0.88995 3.26899,2.32873 0.66044,1.33808 0.48771,2.98243 -0.44388,4.18935 -0.92494,1.19623 -2.57132,1.70346 -4.76232,1.46495 -2.20847,-0.24259 -4.07569,-1.51303 -5.1209,-3.49185 -1.0233,-1.93297 -1.08021,-4.22671 -0.14643,-5.98893 2.23686,-4.2201 6.45897,-4.17644 8.77466,-3.77622 3.4285,0.5925 6.53999,3.33658 7.92409,6.9861 0.22084,0.58164 0.33447,1.04298 0.43282,1.46275 l 0.14879,0.63192 3.8722,1.89133 0.0527,0.0372 1.1e-4,-3e-5 z m 27.52442,-20.59743 c -0.73009,0.67776 -1.14798,1.60271 -1.18298,2.59985 -0.0676,2.05525 1.54615,3.78707 3.60126,3.86371 1.00156,0.0328 1.95044,-0.31937 2.67851,-1.00155 0.72807,-0.68 1.14593,-1.60272 1.18298,-2.59766 0.07,-2.05748 -1.54378,-3.79149 -3.60328,-3.86573 -0.99713,-0.0328 -1.94841,0.31919 -2.67649,1.00138"
         id="path5288"
         inkscape:connector-curvature="0" />
      <path
         inkscape:connector-curvature="0"
         id="path5290"
         d="m 40.33926,162.6193 0.0941,-0.009 0.0153,-0.11143 c -0.0241,-0.0875 -0.0808,-0.16612 -0.16852,-1.25075 -0.0744,-0.95994 -0.22526,-3.59243 1.09973,-4.89786 0.51402,-0.50946 1.29883,-0.96214 1.91784,-1.10857 2.53855,-0.61884 5.83369,-0.19027 8.64774,3.06345 1.45204,1.68137 2.16484,2.44886 2.52122,2.79217 l 0.12232,0.11365 0.1488,0.10719 c 0.11585,0.0656 4.83653,2.23905 4.83653,2.23905 l 0.0962,-0.0241 0.002,-0.1026 c -0.0306,-0.035 -2.99109,-3.85947 -2.4665,-7.01021 0.41549,-2.51016 2.41386,-2.28493 5.17562,-1.97016 0.90303,0.10277 1.93074,0.22085 2.99346,0.24496 2.96694,0.0175 6.16392,-0.52692 8.13408,-1.38852 1.27472,-0.5575 2.08806,-0.92495 2.59766,-1.38852 0.18344,-0.15084 0.2796,-0.40004 0.37812,-0.66249 l 0.0679,-0.17701 c 0.0829,-0.21218 0.20317,-0.66691 0.25584,-0.91406 0.0241,-0.10924 0.035,-0.22745 -0.0418,-0.28638 l -0.27317,0.0503 c -0.86361,0.51825 -3.0264,1.50659 -5.05094,1.54597 -2.50797,0.0523 -7.56329,-2.52342 -8.09025,-2.79676 l -0.0503,-0.0589 c -0.12705,-0.30187 -0.8857,-2.09704 -1.04538,-2.47516 3.63862,2.39636 6.65584,3.72153 8.96711,3.92706 2.57149,0.22951 4.57665,-1.17414 5.43379,-1.77346 0.16818,-0.11366 0.29523,-0.20553 0.34755,-0.22509 l 0.0547,-0.0897 c -0.14236,-0.90303 -1.48704,-5.27617 -2.5015,-6.3258 -0.28197,-0.28861 -0.50723,-0.56839 -0.96213,-0.83526 -3.67565,-2.14275 -12.40223,-3.43733 -12.81094,-3.49627 l -0.07,0.0197 -0.0262,0.0612 c 0,0 -0.0329,1.81047 -0.0374,2.01176 -0.89217,-0.29745 -7.37066,-2.39006 -13.44524,-2.60207 -5.14907,-0.18146 -12.18339,-0.42642 -22.12353,5.68282 l -0.29303,0.18361 c -4.67483,2.91686 -7.90221,6.51165 -9.59019,10.69232 -0.52915,1.31411 -1.24192,4.2814 -0.53799,7.07357 0.30611,1.22239 0.87245,2.44681 1.63789,3.54452 1.72521,2.47944 4.62233,4.12616 7.74253,4.40371 4.40371,0.39344 7.74047,-1.58521 8.92769,-5.28942 0.81554,-2.55604 0,-6.30593 -3.1268,-8.21917 -2.54297,-1.55906 -5.28058,-1.20267 -6.86583,-0.15527 -1.37749,0.91392 -2.15803,2.33079 -2.14275,3.88988 0.0306,2.76158 2.41181,4.23095 4.12174,4.23317 0.49839,0 0.99696,-0.0853 1.56111,-0.26888 0.1991,-0.0613 0.38919,-0.13554 0.59692,-0.26465 l 0.0635,-0.0414 0.0414,-0.0241 -0.0153,0.007 c 0.39138,-0.26245 0.6275,-0.69526 0.6275,-1.15887 0,-0.12687 -0.0197,-0.25584 -0.0547,-0.38491 -0.20112,-0.69749 -0.89218,-1.12164 -1.60936,-0.99052 l -0.0962,0.0197 -0.13116,0.0437 -0.19026,0.0635 c -0.39357,0.0984 -0.69102,0.10499 -0.75218,0.10701 -0.20112,-0.0131 -1.1874,-0.30813 -1.1874,-1.38834 l 0,-0.0131 c 0.002,-0.3958 0.16188,-0.67352 0.24937,-0.82437 0.30389,-0.48107 1.14357,-0.9533 2.27829,-0.85276 1.48704,0.12674 2.55842,0.88995 3.26899,2.32873 0.66044,1.33808 0.48771,2.98243 -0.44388,4.18935 -0.92494,1.19623 -2.57132,1.70346 -4.76232,1.46495 -2.20847,-0.24259 -4.07569,-1.51303 -5.1209,-3.49185 -1.0233,-1.93297 -1.08021,-4.22671 -0.14643,-5.98893 2.23686,-4.2201 6.45897,-4.17644 8.77466,-3.77622 3.4285,0.5925 6.53999,3.33658 7.92409,6.9861 0.22084,0.58164 0.33447,1.04298 0.43282,1.46275 l 0.14879,0.63192 3.8722,1.89133 0.0527,0.0372 1.1e-4,-3e-5 z m 27.52442,-20.59743 c -0.73009,0.67776 -1.14798,1.60271 -1.18298,2.59985 -0.0676,2.05525 1.54615,3.78707 3.60126,3.86371 1.00156,0.0328 1.95044,-0.31937 2.67851,-1.00155 0.72807,-0.68 1.14593,-1.60272 1.18298,-2.59766 0.07,-2.05748 -1.54378,-3.79149 -3.60328,-3.86573 -0.99713,-0.0328 -1.94841,0.31919 -2.67649,1.00138"
         style="fill:#73ba25;fill-opacity:1;fill-rule:evenodd;stroke:none" />
    </g>
    <g
       id="g5292"
       transform="translate(162,-12)">
      <path
         style="fill:#73ba25;fill-opacity:1;fill-rule:nonzero;stroke:none"
         d="m 70.4225,147.36804 c -1.46224,-0.0537 -2.61004,-1.28632 -2.5612,-2.75065 0.0225,-0.70896 0.32557,-1.36425 0.84056,-1.84807 0.51708,-0.48368 1.19245,-0.73544 1.9014,-0.70877 1.46433,0.0512 2.61245,1.28182 2.56326,2.74838 -0.0222,0.70672 -0.32107,1.36198 -0.83815,1.84789 -0.5195,0.48159 -1.19487,0.73339 -1.90591,0.71122 l 4e-5,0 z m 0.61543,-2.40533 c 0.65078,0 1.17894,-0.35206 1.17894,-0.78446 0,-0.43466 -0.52819,-0.7869 -1.17894,-0.7869 -0.65111,0 -1.1772,0.35224 -1.1772,0.7869 0,0.4324 0.52609,0.78446 1.1772,0.78446"
         id="path5294"
         inkscape:connector-curvature="0" />
      <path
         inkscape:connector-curvature="0"
         id="path5296"
         d="m 40.33926,162.6193 0.0941,-0.009 0.0153,-0.11143 c -0.0241,-0.0875 -0.0808,-0.16612 -0.16852,-1.25075 -0.0744,-0.95994 -0.22526,-3.59243 1.09973,-4.89786 0.51402,-0.50946 1.29883,-0.96214 1.91784,-1.10857 2.53855,-0.61884 5.83369,-0.19027 8.64774,3.06345 1.45204,1.68137 2.16484,2.44886 2.52122,2.79217 l 0.12232,0.11365 0.1488,0.10719 c 0.11585,0.0656 4.83653,2.23905 4.83653,2.23905 l 0.0962,-0.0241 0.002,-0.1026 c -0.0306,-0.035 -2.99109,-3.85947 -2.4665,-7.01021 0.41549,-2.51016 2.41386,-2.28493 5.17562,-1.97016 0.90303,0.10277 1.93074,0.22085 2.99346,0.24496 2.96694,0.0175 6.16392,-0.52692 8.13408,-1.38852 1.27472,-0.5575 2.08806,-0.92495 2.59766,-1.38852 0.18344,-0.15084 0.2796,-0.40004 0.37812,-0.66249 l 0.0679,-0.17701 c 0.0829,-0.21218 0.20317,-0.66691 0.25584,-0.91406 0.0241,-0.10924 0.035,-0.22745 -0.0418,-0.28638 l -0.27317,0.0503 c -0.86361,0.51825 -3.0264,1.50659 -5.05094,1.54597 -2.50797,0.0523 -7.56329,-2.52342 -8.09025,-2.79676 l -0.0503,-0.0589 c -0.12705,-0.30187 -0.8857,-2.09704 -1.04538,-2.47516 3.63862,2.39636 6.65584,3.72153 8.96711,3.92706 2.57149,0.22951 4.57665,-1.17414 5.43379,-1.77346 0.16818,-0.11366 0.29523,-0.20553 0.34755,-0.22509 l 0.0547,-0.0897 c -0.14236,-0.90303 -1.48704,-5.27617 -2.5015,-6.3258 -0.28197,-0.28861 -0.50723,-0.56839 -0.96213,-0.83526 -3.67565,-2.14275 -12.40223,-3.43733 -12.81094,-3.49627 l -0.07,0.0197 -0.0262,0.0612 c 0,0 -0.0329,1.81047 -0.0374,2.01176 -0.89217,-0.29745 -7.37066,-2.39006 -13.44524,-2.60207 -5.14907,-0.18146 -12.18339,-0.42642 -22.12353,5.68282 l -0.29303,0.18361 c -4.67483,2.91686 -7.90221,6.51165 -9.59019,10.69232 -0.52915,1.31411 -1.24192,4.2814 -0.53799,7.07357 0.30611,1.22239 0.87245,2.44681 1.63789,3.54452 1.72521,2.47944 4.62233,4.12616 7.74253,4.40371 4.40371,0.39344 7.74047,-1.58521 8.92769,-5.28942 0.81554,-2.55604 0,-6.30593 -3.1268,-8.21917 -2.54297,-1.55906 -5.28058,-1.20267 -6.86583,-0.15527 -1.37749,0.91392 -2.15803,2.33079 -2.14275,3.88988 0.0306,2.76158 2.41181,4.23095 4.12174,4.23317 0.49839,0 0.99696,-0.0853 1.56111,-0.26888 0.1991,-0.0613 0.38919,-0.13554 0.59692,-0.26465 l 0.0635,-0.0414 0.0414,-0.0241 -0.0153,0.007 c 0.39138,-0.26245 0.6275,-0.69526 0.6275,-1.15887 0,-0.12687 -0.0197,-0.25584 -0.0547,-0.38491 -0.20112,-0.69749 -0.89218,-1.12164 -1.60936,-0.99052 l -0.0962,0.0197 -0.13116,0.0437 -0.19026,0.0635 c -0.39357,0.0984 -0.69102,0.10499 -0.75218,0.10701 -0.20112,-0.0131 -1.1874,-0.30813 -1.1874,-1.38834 l 0,-0.0131 c 0.002,-0.3958 0.16188,-0.67352 0.24937,-0.82437 0.30389,-0.48107 1.14357,-0.9533 2.27829,-0.85276 1.48704,0.12674 2.55842,0.88995 3.26899,2.32873 0.66044,1.33808 0.48771,2.98243 -0.44388,4.18935 -0.92494,1.19623 -2.57132,1.70346 -4.76232,1.46495 -2.20847,-0.24259 -4.07569,-1.51303 -5.1209,-3.49185 -1.0233,-1.93297 -1.08021,-4.22671 -0.14643,-5.98893 2.23686,-4.2201 6.45897,-4.17644 8.77466,-3.77622 3.4285,0.5925 6.53999,3.33658 7.92409,6.9861 0.22084,0.58164 0.33447,1.04298 0.43282,1.46275 l 0.14879,0.63192 3.8722,1.89133 0.0527,0.0372 1.1e-4,-3e-5 z m 27.52442,-20.59743 c -0.73009,0.67776 -1.14798,1.60271 -1.18298,2.59985 -0.0676,2.05525 1.54615,3.78707 3.60126,3.86371 1.00156,0.0328 1.95044,-0.31937 2.67851,-1.00155 0.72807,-0.68 1.14593,-1.60272 1.18298,-2.59766 0.07,-2.05748 -1.54378,-3.79149 -3.60328,-3.86573 -0.99713,-0.0328 -1.94841,0.31919 -2.67649,1.00138"
         style="fill:#ffffff;fill-opacity:1;fill-rule:evenodd;stroke:#ffffff;stroke-width:2.77086616;stroke-miterlimit:4;stroke-opacity:1;stroke-dasharray:none" />
      <path
         style="fill:#73ba25;fill-opacity:1;fill-rule:evenodd;stroke:none"
         d="m 40.33926,162.6193 0.0941,-0.009 0.0153,-0.11143 c -0.0241,-0.0875 -0.0808,-0.16612 -0.16852,-1.25075 -0.0744,-0.95994 -0.22526,-3.59243 1.09973,-4.89786 0.51402,-0.50946 1.29883,-0.96214 1.91784,-1.10857 2.53855,-0.61884 5.83369,-0.19027 8.64774,3.06345 1.45204,1.68137 2.16484,2.44886 2.52122,2.79217 l 0.12232,0.11365 0.1488,0.10719 c 0.11585,0.0656 4.83653,2.23905 4.83653,2.23905 l 0.0962,-0.0241 0.002,-0.1026 c -0.0306,-0.035 -2.99109,-3.85947 -2.4665,-7.01021 0.41549,-2.51016 2.41386,-2.28493 5.17562,-1.97016 0.90303,0.10277 1.93074,0.22085 2.99346,0.24496 2.96694,0.0175 6.16392,-0.52692 8.13408,-1.38852 1.27472,-0.5575 2.08806,-0.92495 2.59766,-1.38852 0.18344,-0.15084 0.2796,-0.40004 0.37812,-0.66249 l 0.0679,-0.17701 c 0.0829,-0.21218 0.20317,-0.66691 0.25584,-0.91406 0.0241,-0.10924 0.035,-0.22745 -0.0418,-0.28638 l -0.27317,0.0503 c -0.86361,0.51825 -3.0264,1.50659 -5.05094,1.54597 -2.50797,0.0523 -7.56329,-2.52342 -8.09025,-2.79676 l -0.0503,-0.0589 c -0.12705,-0.30187 -0.8857,-2.09704 -1.04538,-2.47516 3.63862,2.39636 6.65584,3.72153 8.96711,3.92706 2.57149,0.22951 4.57665,-1.17414 5.43379,-1.77346 0.16818,-0.11366 0.29523,-0.20553 0.34755,-0.22509 l 0.0547,-0.0897 c -0.14236,-0.90303 -1.48704,-5.27617 -2.5015,-6.3258 -0.28197,-0.28861 -0.50723,-0.56839 -0.96213,-0.83526 -3.67565,-2.14275 -12.40223,-3.43733 -12.81094,-3.49627 l -0.07,0.0197 -0.0262,0.0612 c 0,0 -0.0329,1.81047 -0.0374,2.01176 -0.89217,-0.29745 -7.37066,-2.39006 -13.44524,-2.60207 -5.14907,-0.18146 -12.18339,-0.42642 -22.12353,5.68282 l -0.29303,0.18361 c -4.67483,2.91686 -7.90221,6.51165 -9.59019,10.69232 -0.52915,1.31411 -1.24192,4.2814 -0.53799,7.07357 0.30611,1.22239 0.87245,2.44681 1.63789,3.54452 1.72521,2.47944 4.62233,4.12616 7.74253,4.40371 4.40371,0.39344 7.74047,-1.58521 8.92769,-5.28942 0.81554,-2.55604 0,-6.30593 -3.1268,-8.21917 -2.54297,-1.55906 -5.28058,-1.20267 -6.86583,-0.15527 -1.37749,0.91392 -2.15803,2.33079 -2.14275,3.88988 0.0306,2.76158 2.41181,4.23095 4.12174,4.23317 0.49839,0 0.99696,-0.0853 1.56111,-0.26888 0.1991,-0.0613 0.38919,-0.13554 0.59692,-0.26465 l 0.0635,-0.0414 0.0414,-0.0241 -0.0153,0.007 c 0.39138,-0.26245 0.6275,-0.69526 0.6275,-1.15887 0,-0.12687 -0.0197,-0.25584 -0.0547,-0.38491 -0.20112,-0.69749 -0.89218,-1.12164 -1.60936,-0.99052 l -0.0962,0.0197 -0.13116,0.0437 -0.19026,0.0635 c -0.39357,0.0984 -0.69102,0.10499 -0.75218,0.10701 -0.20112,-0.0131 -1.1874,-0.30813 -1.1874,-1.38834 l 0,-0.0131 c 0.002,-0.3958 0.16188,-0.67352 0.24937,-0.82437 0.30389,-0.48107 1.14357,-0.9533 2.27829,-0.85276 1.48704,0.12674 2.55842,0.88995 3.26899,2.32873 0.66044,1.33808 0.48771,2.98243 -0.44388,4.18935 -0.92494,1.19623 -2.57132,1.70346 -4.76232,1.46495 -2.20847,-0.24259 -4.07569,-1.51303 -5.1209,-3.49185 -1.0233,-1.93297 -1.08021,-4.22671 -0.14643,-5.98893 2.23686,-4.2201 6.45897,-4.17644 8.77466,-3.77622 3.4285,0.5925 6.53999,3.33658 7.92409,6.9861 0.22084,0.58164 0.33447,1.04298 0.43282,1.46275 l 0.14879,0.63192 3.8722,1.89133 0.0527,0.0372 1.1e-4,-3e-5 z m 27.52442,-20.59743 c -0.73009,0.67776 -1.14798,1.60271 -1.18298,2.59985 -0.0676,2.05525 1.54615,3.78707 3.60126,3.86371 1.00156,0.0328 1.95044,-0.31937 2.67851,-1.00155 0.72807,-0.68 1.14593,-1.60272 1.18298,-2.59766 0.07,-2.05748 -1.54378,-3.79149 -3.60328,-3.86573 -0.99713,-0.0328 -1.94841,0.31919 -2.67649,1.00138"
         id="path5298"
         inkscape:connector-curvature="0" />
    </g>
    <g
       transform="translate(244,-12)"
       id="g5300">
      <path
         inkscape:connector-curvature="0"
         id="path5302"
         d="m 70.4225,147.36804 c -1.46224,-0.0537 -2.61004,-1.28632 -2.5612,-2.75065 0.0225,-0.70896 0.32557,-1.36425 0.84056,-1.84807 0.51708,-0.48368 1.19245,-0.73544 1.9014,-0.70877 1.46433,0.0512 2.61245,1.28182 2.56326,2.74838 -0.0222,0.70672 -0.32107,1.36198 -0.83815,1.84789 -0.5195,0.48159 -1.19487,0.73339 -1.90591,0.71122 l 4e-5,0 z m 0.61543,-2.40533 c 0.65078,0 1.17894,-0.35206 1.17894,-0.78446 0,-0.43466 -0.52819,-0.7869 -1.17894,-0.7869 -0.65111,0 -1.1772,0.35224 -1.1772,0.7869 0,0.4324 0.52609,0.78446 1.1772,0.78446"
         style="fill:#73ba25;fill-opacity:1;fill-rule:nonzero;stroke:none" />
      <path
         style="fill:#ffffff;fill-opacity:1;fill-rule:evenodd;stroke:#ffffff;stroke-width:2.77086616;stroke-miterlimit:4;stroke-opacity:1;stroke-dasharray:none"
         d="m 40.33926,162.6193 0.0941,-0.009 0.0153,-0.11143 c -0.0241,-0.0875 -0.0808,-0.16612 -0.16852,-1.25075 -0.0744,-0.95994 -0.22526,-3.59243 1.09973,-4.89786 0.51402,-0.50946 1.29883,-0.96214 1.91784,-1.10857 2.53855,-0.61884 5.83369,-0.19027 8.64774,3.06345 1.45204,1.68137 2.16484,2.44886 2.52122,2.79217 l 0.12232,0.11365 0.1488,0.10719 c 0.11585,0.0656 4.83653,2.23905 4.83653,2.23905 l 0.0962,-0.0241 0.002,-0.1026 c -0.0306,-0.035 -2.99109,-3.85947 -2.4665,-7.01021 0.41549,-2.51016 2.41386,-2.28493 5.17562,-1.97016 0.90303,0.10277 1.93074,0.22085 2.99346,0.24496 2.96694,0.0175 6.16392,-0.52692 8.13408,-1.38852 1.27472,-0.5575 2.08806,-0.92495 2.59766,-1.38852 0.18344,-0.15084 0.2796,-0.40004 0.37812,-0.66249 l 0.0679,-0.17701 c 0.0829,-0.21218 0.20317,-0.66691 0.25584,-0.91406 0.0241,-0.10924 0.035,-0.22745 -0.0418,-0.28638 l -0.27317,0.0503 c -0.86361,0.51825 -3.0264,1.50659 -5.05094,1.54597 -2.50797,0.0523 -7.56329,-2.52342 -8.09025,-2.79676 l -0.0503,-0.0589 c -0.12705,-0.30187 -0.8857,-2.09704 -1.04538,-2.47516 3.63862,2.39636 6.65584,3.72153 8.96711,3.92706 2.57149,0.22951 4.57665,-1.17414 5.43379,-1.77346 0.16818,-0.11366 0.29523,-0.20553 0.34755,-0.22509 l 0.0547,-0.0897 c -0.14236,-0.90303 -1.48704,-5.27617 -2.5015,-6.3258 -0.28197,-0.28861 -0.50723,-0.56839 -0.96213,-0.83526 -3.67565,-2.14275 -12.40223,-3.43733 -12.81094,-3.49627 l -0.07,0.0197 -0.0262,0.0612 c 0,0 -0.0329,1.81047 -0.0374,2.01176 -0.89217,-0.29745 -7.37066,-2.39006 -13.44524,-2.60207 -5.14907,-0.18146 -12.18339,-0.42642 -22.12353,5.68282 l -0.29303,0.18361 c -4.67483,2.91686 -7.90221,6.51165 -9.59019,10.69232 -0.52915,1.31411 -1.24192,4.2814 -0.53799,7.07357 0.30611,1.22239 0.87245,2.44681 1.63789,3.54452 1.72521,2.47944 4.62233,4.12616 7.74253,4.40371 4.40371,0.39344 7.74047,-1.58521 8.92769,-5.28942 0.81554,-2.55604 0,-6.30593 -3.1268,-8.21917 -2.54297,-1.55906 -5.28058,-1.20267 -6.86583,-0.15527 -1.37749,0.91392 -2.15803,2.33079 -2.14275,3.88988 0.0306,2.76158 2.41181,4.23095 4.12174,4.23317 0.49839,0 0.99696,-0.0853 1.56111,-0.26888 0.1991,-0.0613 0.38919,-0.13554 0.59692,-0.26465 l 0.0635,-0.0414 0.0414,-0.0241 -0.0153,0.007 c 0.39138,-0.26245 0.6275,-0.69526 0.6275,-1.15887 0,-0.12687 -0.0197,-0.25584 -0.0547,-0.38491 -0.20112,-0.69749 -0.89218,-1.12164 -1.60936,-0.99052 l -0.0962,0.0197 -0.13116,0.0437 -0.19026,0.0635 c -0.39357,0.0984 -0.69102,0.10499 -0.75218,0.10701 -0.20112,-0.0131 -1.1874,-0.30813 -1.1874,-1.38834 l 0,-0.0131 c 0.002,-0.3958 0.16188,-0.67352 0.24937,-0.82437 0.30389,-0.48107 1.14357,-0.9533 2.27829,-0.85276 1.48704,0.12674 2.55842,0.88995 3.26899,2.32873 0.66044,1.33808 0.48771,2.98243 -0.44388,4.18935 -0.92494,1.19623 -2.57132,1.70346 -4.76232,1.46495 -2.20847,-0.24259 -4.07569,-1.51303 -5.1209,-3.49185 -1.0233,-1.93297 -1.08021,-4.22671 -0.14643,-5.98893 2.23686,-4.2201 6.45897,-4.17644 8.77466,-3.77622 3.4285,0.5925 6.53999,3.33658 7.92409,6.9861 0.22084,0.58164 0.33447,1.04298 0.43282,1.46275 l 0.14879,0.63192 3.8722,1.89133 0.0527,0.0372 1.1e-4,-3e-5 z m 27.52442,-20.59743 c -0.73009,0.67776 -1.14798,1.60271 -1.18298,2.59985 -0.0676,2.05525 1.54615,3.78707 3.60126,3.86371 1.00156,0.0328 1.95044,-0.31937 2.67851,-1.00155 0.72807,-0.68 1.14593,-1.60272 1.18298,-2.59766 0.07,-2.05748 -1.54378,-3.79149 -3.60328,-3.86573 -0.99713,-0.0328 -1.94841,0.31919 -2.67649,1.00138"
         id="path5304"
         inkscape:connector-curvature="0" />
      <path
         inkscape:connector-curvature="0"
         id="path5306"
         d="m 40.33926,162.6193 0.0941,-0.009 0.0153,-0.11143 c -0.0241,-0.0875 -0.0808,-0.16612 -0.16852,-1.25075 -0.0744,-0.95994 -0.22526,-3.59243 1.09973,-4.89786 0.51402,-0.50946 1.29883,-0.96214 1.91784,-1.10857 2.53855,-0.61884 5.83369,-0.19027 8.64774,3.06345 1.45204,1.68137 2.16484,2.44886 2.52122,2.79217 l 0.12232,0.11365 0.1488,0.10719 c 0.11585,0.0656 4.83653,2.23905 4.83653,2.23905 l 0.0962,-0.0241 0.002,-0.1026 c -0.0306,-0.035 -2.99109,-3.85947 -2.4665,-7.01021 0.41549,-2.51016 2.41386,-2.28493 5.17562,-1.97016 0.90303,0.10277 1.93074,0.22085 2.99346,0.24496 2.96694,0.0175 6.16392,-0.52692 8.13408,-1.38852 1.27472,-0.5575 2.08806,-0.92495 2.59766,-1.38852 0.18344,-0.15084 0.2796,-0.40004 0.37812,-0.66249 l 0.0679,-0.17701 c 0.0829,-0.21218 0.20317,-0.66691 0.25584,-0.91406 0.0241,-0.10924 0.035,-0.22745 -0.0418,-0.28638 l -0.27317,0.0503 c -0.86361,0.51825 -3.0264,1.50659 -5.05094,1.54597 -2.50797,0.0523 -7.56329,-2.52342 -8.09025,-2.79676 l -0.0503,-0.0589 c -0.12705,-0.30187 -0.8857,-2.09704 -1.04538,-2.47516 3.63862,2.39636 6.65584,3.72153 8.96711,3.92706 2.57149,0.22951 4.57665,-1.17414 5.43379,-1.77346 0.16818,-0.11366 0.29523,-0.20553 0.34755,-0.22509 l 0.0547,-0.0897 c -0.14236,-0.90303 -1.48704,-5.27617 -2.5015,-6.3258 -0.28197,-0.28861 -0.50723,-0.56839 -0.96213,-0.83526 -3.67565,-2.14275 -12.40223,-3.43733 -12.81094,-3.49627 l -0.07,0.0197 -0.0262,0.0612 c 0,0 -0.0329,1.81047 -0.0374,2.01176 -0.89217,-0.29745 -7.37066,-2.39006 -13.44524,-2.60207 -5.14907,-0.18146 -12.18339,-0.42642 -22.12353,5.68282 l -0.29303,0.18361 c -4.67483,2.91686 -7.90221,6.51165 -9.59019,10.69232 -0.52915,1.31411 -1.24192,4.2814 -0.53799,7.07357 0.30611,1.22239 0.87245,2.44681 1.63789,3.54452 1.72521,2.47944 4.62233,4.12616 7.74253,4.40371 4.40371,0.39344 7.74047,-1.58521 8.92769,-5.28942 0.81554,-2.55604 0,-6.30593 -3.1268,-8.21917 -2.54297,-1.55906 -5.28058,-1.20267 -6.86583,-0.15527 -1.37749,0.91392 -2.15803,2.33079 -2.14275,3.88988 0.0306,2.76158 2.41181,4.23095 4.12174,4.23317 0.49839,0 0.99696,-0.0853 1.56111,-0.26888 0.1991,-0.0613 0.38919,-0.13554 0.59692,-0.26465 l 0.0635,-0.0414 0.0414,-0.0241 -0.0153,0.007 c 0.39138,-0.26245 0.6275,-0.69526 0.6275,-1.15887 0,-0.12687 -0.0197,-0.25584 -0.0547,-0.38491 -0.20112,-0.69749 -0.89218,-1.12164 -1.60936,-0.99052 l -0.0962,0.0197 -0.13116,0.0437 -0.19026,0.0635 c -0.39357,0.0984 -0.69102,0.10499 -0.75218,0.10701 -0.20112,-0.0131 -1.1874,-0.30813 -1.1874,-1.38834 l 0,-0.0131 c 0.002,-0.3958 0.16188,-0.67352 0.24937,-0.82437 0.30389,-0.48107 1.14357,-0.9533 2.27829,-0.85276 1.48704,0.12674 2.55842,0.88995 3.26899,2.32873 0.66044,1.33808 0.48771,2.98243 -0.44388,4.18935 -0.92494,1.19623 -2.57132,1.70346 -4.76232,1.46495 -2.20847,-0.24259 -4.07569,-1.51303 -5.1209,-3.49185 -1.0233,-1.93297 -1.08021,-4.22671 -0.14643,-5.98893 2.23686,-4.2201 6.45897,-4.17644 8.77466,-3.77622 3.4285,0.5925 6.53999,3.33658 7.92409,6.9861 0.22084,0.58164 0.33447,1.04298 0.43282,1.46275 l 0.14879,0.63192 3.8722,1.89133 0.0527,0.0372 1.1e-4,-3e-5 z m 27.52442,-20.59743 c -0.73009,0.67776 -1.14798,1.60271 -1.18298,2.59985 -0.0676,2.05525 1.54615,3.78707 3.60126,3.86371 1.00156,0.0328 1.95044,-0.31937 2.67851,-1.00155 0.72807,-0.68 1.14593,-1.60272 1.18298,-2.59766 0.07,-2.05748 -1.54378,-3.79149 -3.60328,-3.86573 -0.99713,-0.0328 -1.94841,0.31919 -2.67649,1.00138"
         style="fill:#73ba25;fill-opacity:1;fill-rule:evenodd;stroke:none" />
    </g>
    <g
       id="g5308"
       transform="translate(326,-12)">
      <path
         style="fill:#73ba25;fill-opacity:1;fill-rule:nonzero;stroke:none"
         d="m 70.4225,147.36804 c -1.46224,-0.0537 -2.61004,-1.28632 -2.5612,-2.75065 0.0225,-0.70896 0.32557,-1.36425 0.84056,-1.84807 0.51708,-0.48368 1.19245,-0.73544 1.9014,-0.70877 1.46433,0.0512 2.61245,1.28182 2.56326,2.74838 -0.0222,0.70672 -0.32107,1.36198 -0.83815,1.84789 -0.5195,0.48159 -1.19487,0.73339 -1.90591,0.71122 l 4e-5,0 z m 0.61543,-2.40533 c 0.65078,0 1.17894,-0.35206 1.17894,-0.78446 0,-0.43466 -0.52819,-0.7869 -1.17894,-0.7869 -0.65111,0 -1.1772,0.35224 -1.1772,0.7869 0,0.4324 0.52609,0.78446 1.1772,0.78446"
         id="path5310"
         inkscape:connector-curvature="0" />
      <path
         inkscape:connector-curvature="0"
         id="path5312"
         d="m 40.33926,162.6193 0.0941,-0.009 0.0153,-0.11143 c -0.0241,-0.0875 -0.0808,-0.16612 -0.16852,-1.25075 -0.0744,-0.95994 -0.22526,-3.59243 1.09973,-4.89786 0.51402,-0.50946 1.29883,-0.96214 1.91784,-1.10857 2.53855,-0.61884 5.83369,-0.19027 8.64774,3.06345 1.45204,1.68137 2.16484,2.44886 2.52122,2.79217 l 0.12232,0.11365 0.1488,0.10719 c 0.11585,0.0656 4.83653,2.23905 4.83653,2.23905 l 0.0962,-0.0241 0.002,-0.1026 c -0.0306,-0.035 -2.99109,-3.85947 -2.4665,-7.01021 0.41549,-2.51016 2.41386,-2.28493 5.17562,-1.97016 0.90303,0.10277 1.93074,0.22085 2.99346,0.24496 2.96694,0.0175 6.16392,-0.52692 8.13408,-1.38852 1.27472,-0.5575 2.08806,-0.92495 2.59766,-1.38852 0.18344,-0.15084 0.2796,-0.40004 0.37812,-0.66249 l 0.0679,-0.17701 c 0.0829,-0.21218 0.20317,-0.66691 0.25584,-0.91406 0.0241,-0.10924 0.035,-0.22745 -0.0418,-0.28638 l -0.27317,0.0503 c -0.86361,0.51825 -3.0264,1.50659 -5.05094,1.54597 -2.50797,0.0523 -7.56329,-2.52342 -8.09025,-2.79676 l -0.0503,-0.0589 c -0.12705,-0.30187 -0.8857,-2.09704 -1.04538,-2.47516 3.63862,2.39636 6.65584,3.72153 8.96711,3.92706 2.57149,0.22951 4.57665,-1.17414 5.43379,-1.77346 0.16818,-0.11366 0.29523,-0.20553 0.34755,-0.22509 l 0.0547,-0.0897 c -0.14236,-0.90303 -1.48704,-5.27617 -2.5015,-6.3258 -0.28197,-0.28861 -0.50723,-0.56839 -0.96213,-0.83526 -3.67565,-2.14275 -12.40223,-3.43733 -12.81094,-3.49627 l -0.07,0.0197 -0.0262,0.0612 c 0,0 -0.0329,1.81047 -0.0374,2.01176 -0.89217,-0.29745 -7.37066,-2.39006 -13.44524,-2.60207 -5.14907,-0.18146 -12.18339,-0.42642 -22.12353,5.68282 l -0.29303,0.18361 c -4.67483,2.91686 -7.90221,6.51165 -9.59019,10.69232 -0.52915,1.31411 -1.24192,4.2814 -0.53799,7.07357 0.30611,1.22239 0.87245,2.44681 1.63789,3.54452 1.72521,2.47944 4.62233,4.12616 7.74253,4.40371 4.40371,0.39344 7.74047,-1.58521 8.92769,-5.28942 0.81554,-2.55604 0,-6.30593 -3.1268,-8.21917 -2.54297,-1.55906 -5.28058,-1.20267 -6.86583,-0.15527 -1.37749,0.91392 -2.15803,2.33079 -2.14275,3.88988 0.0306,2.76158 2.41181,4.23095 4.12174,4.23317 0.49839,0 0.99696,-0.0853 1.56111,-0.26888 0.1991,-0.0613 0.38919,-0.13554 0.59692,-0.26465 l 0.0635,-0.0414 0.0414,-0.0241 -0.0153,0.007 c 0.39138,-0.26245 0.6275,-0.69526 0.6275,-1.15887 0,-0.12687 -0.0197,-0.25584 -0.0547,-0.38491 -0.20112,-0.69749 -0.89218,-1.12164 -1.60936,-0.99052 l -0.0962,0.0197 -0.13116,0.0437 -0.19026,0.0635 c -0.39357,0.0984 -0.69102,0.10499 -0.75218,0.10701 -0.20112,-0.0131 -1.1874,-0.30813 -1.1874,-1.38834 l 0,-0.0131 c 0.002,-0.3958 0.16188,-0.67352 0.24937,-0.82437 0.30389,-0.48107 1.14357,-0.9533 2.27829,-0.85276 1.48704,0.12674 2.55842,0.88995 3.26899,2.32873 0.66044,1.33808 0.48771,2.98243 -0.44388,4.18935 -0.92494,1.19623 -2.57132,1.70346 -4.76232,1.46495 -2.20847,-0.24259 -4.07569,-1.51303 -5.1209,-3.49185 -1.0233,-1.93297 -1.08021,-4.22671 -0.14643,-5.98893 2.23686,-4.2201 6.45897,-4.17644 8.77466,-3.77622 3.4285,0.5925 6.53999,3.33658 7.92409,6.9861 0.22084,0.58164 0.33447,1.04298 0.43282,1.46275 l 0.14879,0.63192 3.8722,1.89133 0.0527,0.0372 1.1e-4,-3e-5 z m 27.52442,-20.59743 c -0.73009,0.67776 -1.14798,1.60271 -1.18298,2.59985 -0.0676,2.05525 1.54615,3.78707 3.60126,3.86371 1.00156,0.0328 1.95044,-0.31937 2.67851,-1.00155 0.72807,-0.68 1.14593,-1.60272 1.18298,-2.59766 0.07,-2.05748 -1.54378,-3.79149 -3.60328,-3.86573 -0.99713,-0.0328 -1.94841,0.31919 -2.67649,1.00138"
         style="fill:#ffffff;fill-opacity:1;fill-rule:evenodd;stroke:#ffffff;stroke-width:2.77086616;stroke-miterlimit:4;stroke-opacity:1;stroke-dasharray:none" />
      <path
         style="fill:#73ba25;fill-opacity:1;fill-rule:evenodd;stroke:none"
         d="m 40.33926,162.6193 0.0941,-0.009 0.0153,-0.11143 c -0.0241,-0.0875 -0.0808,-0.16612 -0.16852,-1.25075 -0.0744,-0.95994 -0.22526,-3.59243 1.09973,-4.89786 0.51402,-0.50946 1.29883,-0.96214 1.91784,-1.10857 2.53855,-0.61884 5.83369,-0.19027 8.64774,3.06345 1.45204,1.68137 2.16484,2.44886 2.52122,2.79217 l 0.12232,0.11365 0.1488,0.10719 c 0.11585,0.0656 4.83653,2.23905 4.83653,2.23905 l 0.0962,-0.0241 0.002,-0.1026 c -0.0306,-0.035 -2.99109,-3.85947 -2.4665,-7.01021 0.41549,-2.51016 2.41386,-2.28493 5.17562,-1.97016 0.90303,0.10277 1.93074,0.22085 2.99346,0.24496 2.96694,0.0175 6.16392,-0.52692 8.13408,-1.38852 1.27472,-0.5575 2.08806,-0.92495 2.59766,-1.38852 0.18344,-0.15084 0.2796,-0.40004 0.37812,-0.66249 l 0.0679,-0.17701 c 0.0829,-0.21218 0.20317,-0.66691 0.25584,-0.91406 0.0241,-0.10924 0.035,-0.22745 -0.0418,-0.28638 l -0.27317,0.0503 c -0.86361,0.51825 -3.0264,1.50659 -5.05094,1.54597 -2.50797,0.0523 -7.56329,-2.52342 -8.09025,-2.79676 l -0.0503,-0.0589 c -0.12705,-0.30187 -0.8857,-2.09704 -1.04538,-2.47516 3.63862,2.39636 6.65584,3.72153 8.96711,3.92706 2.57149,0.22951 4.57665,-1.17414 5.43379,-1.77346 0.16818,-0.11366 0.29523,-0.20553 0.34755,-0.22509 l 0.0547,-0.0897 c -0.14236,-0.90303 -1.48704,-5.27617 -2.5015,-6.3258 -0.28197,-0.28861 -0.50723,-0.56839 -0.96213,-0.83526 -3.67565,-2.14275 -12.40223,-3.43733 -12.81094,-3.49627 l -0.07,0.0197 -0.0262,0.0612 c 0,0 -0.0329,1.81047 -0.0374,2.01176 -0.89217,-0.29745 -7.37066,-2.39006 -13.44524,-2.60207 -5.14907,-0.18146 -12.18339,-0.42642 -22.12353,5.68282 l -0.29303,0.18361 c -4.67483,2.91686 -7.90221,6.51165 -9.59019,10.69232 -0.52915,1.31411 -1.24192,4.2814 -0.53799,7.07357 0.30611,1.22239 0.87245,2.44681 1.63789,3.54452 1.72521,2.47944 4.62233,4.12616 7.74253,4.40371 4.40371,0.39344 7.74047,-1.58521 8.92769,-5.28942 0.81554,-2.55604 0,-6.30593 -3.1268,-8.21917 -2.54297,-1.55906 -5.28058,-1.20267 -6.86583,-0.15527 -1.37749,0.91392 -2.15803,2.33079 -2.14275,3.88988 0.0306,2.76158 2.41181,4.23095 4.12174,4.23317 0.49839,0 0.99696,-0.0853 1.56111,-0.26888 0.1991,-0.0613 0.38919,-0.13554 0.59692,-0.26465 l 0.0635,-0.0414 0.0414,-0.0241 -0.0153,0.007 c 0.39138,-0.26245 0.6275,-0.69526 0.6275,-1.15887 0,-0.12687 -0.0197,-0.25584 -0.0547,-0.38491 -0.20112,-0.69749 -0.89218,-1.12164 -1.60936,-0.99052 l -0.0962,0.0197 -0.13116,0.0437 -0.19026,0.0635 c -0.39357,0.0984 -0.69102,0.10499 -0.75218,0.10701 -0.20112,-0.0131 -1.1874,-0.30813 -1.1874,-1.38834 l 0,-0.0131 c 0.002,-0.3958 0.16188,-0.67352 0.24937,-0.82437 0.30389,-0.48107 1.14357,-0.9533 2.27829,-0.85276 1.48704,0.12674 2.55842,0.88995 3.26899,2.32873 0.66044,1.33808 0.48771,2.98243 -0.44388,4.18935 -0.92494,1.19623 -2.57132,1.70346 -4.76232,1.46495 -2.20847,-0.24259 -4.07569,-1.51303 -5.1209,-3.49185 -1.0233,-1.93297 -1.08021,-4.22671 -0.14643,-5.98893 2.23686,-4.2201 6.45897,-4.17644 8.77466,-3.77622 3.4285,0.5925 6.53999,3.33658 7.92409,6.9861 0.22084,0.58164 0.33447,1.04298 0.43282,1.46275 l 0.14879,0.63192 3.8722,1.89133 0.0527,0.0372 1.1e-4,-3e-5 z m 27.52442,-20.59743 c -0.73009,0.67776 -1.14798,1.60271 -1.18298,2.59985 -0.0676,2.05525 1.54615,3.78707 3.60126,3.86371 1.00156,0.0328 1.95044,-0.31937 2.67851,-1.00155 0.72807,-0.68 1.14593,-1.60272 1.18298,-2.59766 0.07,-2.05748 -1.54378,-3.79149 -3.60328,-3.86573 -0.99713,-0.0328 -1.94841,0.31919 -2.67649,1.00138"
         id="path5314"
         inkscape:connector-curvature="0" />
    </g>
    <g
       transform="translate(408,-12)"
       id="g5316">
      <path
         inkscape:connector-curvature="0"
         id="path5318"
         d="m 70.4225,147.36804 c -1.46224,-0.0537 -2.61004,-1.28632 -2.5612,-2.75065 0.0225,-0.70896 0.32557,-1.36425 0.84056,-1.84807 0.51708,-0.48368 1.19245,-0.73544 1.9014,-0.70877 1.46433,0.0512 2.61245,1.28182 2.56326,2.74838 -0.0222,0.70672 -0.32107,1.36198 -0.83815,1.84789 -0.5195,0.48159 -1.19487,0.73339 -1.90591,0.71122 l 4e-5,0 z m 0.61543,-2.40533 c 0.65078,0 1.17894,-0.35206 1.17894,-0.78446 0,-0.43466 -0.52819,-0.7869 -1.17894,-0.7869 -0.65111,0 -1.1772,0.35224 -1.1772,0.7869 0,0.4324 0.52609,0.78446 1.1772,0.78446"
         style="fill:#73ba25;fill-opacity:1;fill-rule:nonzero;stroke:none" />
      <path
         style="fill:#ffffff;fill-opacity:1;fill-rule:evenodd;stroke:#ffffff;stroke-width:2.77086616;stroke-miterlimit:4;stroke-opacity:1;stroke-dasharray:none"
         d="m 40.33926,162.6193 0.0941,-0.009 0.0153,-0.11143 c -0.0241,-0.0875 -0.0808,-0.16612 -0.16852,-1.25075 -0.0744,-0.95994 -0.22526,-3.59243 1.09973,-4.89786 0.51402,-0.50946 1.29883,-0.96214 1.91784,-1.10857 2.53855,-0.61884 5.83369,-0.19027 8.64774,3.06345 1.45204,1.68137 2.16484,2.44886 2.52122,2.79217 l 0.12232,0.11365 0.1488,0.10719 c 0.11585,0.0656 4.83653,2.23905 4.83653,2.23905 l 0.0962,-0.0241 0.002,-0.1026 c -0.0306,-0.035 -2.99109,-3.85947 -2.4665,-7.01021 0.41549,-2.51016 2.41386,-2.28493 5.17562,-1.97016 0.90303,0.10277 1.93074,0.22085 2.99346,0.24496 2.96694,0.0175 6.16392,-0.52692 8.13408,-1.38852 1.27472,-0.5575 2.08806,-0.92495 2.59766,-1.38852 0.18344,-0.15084 0.2796,-0.40004 0.37812,-0.66249 l 0.0679,-0.17701 c 0.0829,-0.21218 0.20317,-0.66691 0.25584,-0.91406 0.0241,-0.10924 0.035,-0.22745 -0.0418,-0.28638 l -0.27317,0.0503 c -0.86361,0.51825 -3.0264,1.50659 -5.05094,1.54597 -2.50797,0.0523 -7.56329,-2.52342 -8.09025,-2.79676 l -0.0503,-0.0589 c -0.12705,-0.30187 -0.8857,-2.09704 -1.04538,-2.47516 3.63862,2.39636 6.65584,3.72153 8.96711,3.92706 2.57149,0.22951 4.57665,-1.17414 5.43379,-1.77346 0.16818,-0.11366 0.29523,-0.20553 0.34755,-0.22509 l 0.0547,-0.0897 c -0.14236,-0.90303 -1.48704,-5.27617 -2.5015,-6.3258 -0.28197,-0.28861 -0.50723,-0.56839 -0.96213,-0.83526 -3.67565,-2.14275 -12.40223,-3.43733 -12.81094,-3.49627 l -0.07,0.0197 -0.0262,0.0612 c 0,0 -0.0329,1.81047 -0.0374,2.01176 -0.89217,-0.29745 -7.37066,-2.39006 -13.44524,-2.60207 -5.14907,-0.18146 -12.18339,-0.42642 -22.12353,5.68282 l -0.29303,0.18361 c -4.67483,2.91686 -7.90221,6.51165 -9.59019,10.69232 -0.52915,1.31411 -1.24192,4.2814 -0.53799,7.07357 0.30611,1.22239 0.87245,2.44681 1.63789,3.54452 1.72521,2.47944 4.62233,4.12616 7.74253,4.40371 4.40371,0.39344 7.74047,-1.58521 8.92769,-5.28942 0.81554,-2.55604 0,-6.30593 -3.1268,-8.21917 -2.54297,-1.55906 -5.28058,-1.20267 -6.86583,-0.15527 -1.37749,0.91392 -2.15803,2.33079 -2.14275,3.88988 0.0306,2.76158 2.41181,4.23095 4.12174,4.23317 0.49839,0 0.99696,-0.0853 1.56111,-0.26888 0.1991,-0.0613 0.38919,-0.13554 0.59692,-0.26465 l 0.0635,-0.0414 0.0414,-0.0241 -0.0153,0.007 c 0.39138,-0.26245 0.6275,-0.69526 0.6275,-1.15887 0,-0.12687 -0.0197,-0.25584 -0.0547,-0.38491 -0.20112,-0.69749 -0.89218,-1.12164 -1.60936,-0.99052 l -0.0962,0.0197 -0.13116,0.0437 -0.19026,0.0635 c -0.39357,0.0984 -0.69102,0.10499 -0.75218,0.10701 -0.20112,-0.0131 -1.1874,-0.30813 -1.1874,-1.38834 l 0,-0.0131 c 0.002,-0.3958 0.16188,-0.67352 0.24937,-0.82437 0.30389,-0.48107 1.14357,-0.9533 2.27829,-0.85276 1.48704,0.12674 2.55842,0.88995 3.26899,2.32873 0.66044,1.33808 0.48771,2.98243 -0.44388,4.18935 -0.92494,1.19623 -2.57132,1.70346 -4.76232,1.46495 -2.20847,-0.24259 -4.07569,-1.51303 -5.1209,-3.49185 -1.0233,-1.93297 -1.08021,-4.22671 -0.14643,-5.98893 2.23686,-4.2201 6.45897,-4.17644 8.77466,-3.77622 3.4285,0.5925 6.53999,3.33658 7.92409,6.9861 0.22084,0.58164 0.33447,1.04298 0.43282,1.46275 l 0.14879,0.63192 3.8722,1.89133 0.0527,0.0372 1.1e-4,-3e-5 z m 27.52442,-20.59743 c -0.73009,0.67776 -1.14798,1.60271 -1.18298,2.59985 -0.0676,2.05525 1.54615,3.78707 3.60126,3.86371 1.00156,0.0328 1.95044,-0.31937 2.67851,-1.00155 0.72807,-0.68 1.14593,-1.60272 1.18298,-2.59766 0.07,-2.05748 -1.54378,-3.79149 -3.60328,-3.86573 -0.99713,-0.0328 -1.94841,0.31919 -2.67649,1.00138"
         id="path5320"
         inkscape:connector-curvature="0" />
      <path
         inkscape:connector-curvature="0"
         id="path5322"
         d="m 40.33926,162.6193 0.0941,-0.009 0.0153,-0.11143 c -0.0241,-0.0875 -0.0808,-0.16612 -0.16852,-1.25075 -0.0744,-0.95994 -0.22526,-3.59243 1.09973,-4.89786 0.51402,-0.50946 1.29883,-0.96214 1.91784,-1.10857 2.53855,-0.61884 5.83369,-0.19027 8.64774,3.06345 1.45204,1.68137 2.16484,2.44886 2.52122,2.79217 l 0.12232,0.11365 0.1488,0.10719 c 0.11585,0.0656 4.83653,2.23905 4.83653,2.23905 l 0.0962,-0.0241 0.002,-0.1026 c -0.0306,-0.035 -2.99109,-3.85947 -2.4665,-7.01021 0.41549,-2.51016 2.41386,-2.28493 5.17562,-1.97016 0.90303,0.10277 1.93074,0.22085 2.99346,0.24496 2.96694,0.0175 6.16392,-0.52692 8.13408,-1.38852 1.27472,-0.5575 2.08806,-0.92495 2.59766,-1.38852 0.18344,-0.15084 0.2796,-0.40004 0.37812,-0.66249 l 0.0679,-0.17701 c 0.0829,-0.21218 0.20317,-0.66691 0.25584,-0.91406 0.0241,-0.10924 0.035,-0.22745 -0.0418,-0.28638 l -0.27317,0.0503 c -0.86361,0.51825 -3.0264,1.50659 -5.05094,1.54597 -2.50797,0.0523 -7.56329,-2.52342 -8.09025,-2.79676 l -0.0503,-0.0589 c -0.12705,-0.30187 -0.8857,-2.09704 -1.04538,-2.47516 3.63862,2.39636 6.65584,3.72153 8.96711,3.92706 2.57149,0.22951 4.57665,-1.17414 5.43379,-1.77346 0.16818,-0.11366 0.29523,-0.20553 0.34755,-0.22509 l 0.0547,-0.0897 c -0.14236,-0.90303 -1.48704,-5.27617 -2.5015,-6.3258 -0.28197,-0.28861 -0.50723,-0.56839 -0.96213,-0.83526 -3.67565,-2.14275 -12.40223,-3.43733 -12.81094,-3.49627 l -0.07,0.0197 -0.0262,0.0612 c 0,0 -0.0329,1.81047 -0.0374,2.01176 -0.89217,-0.29745 -7.37066,-2.39006 -13.44524,-2.60207 -5.14907,-0.18146 -12.18339,-0.42642 -22.12353,5.68282 l -0.29303,0.18361 c -4.67483,2.91686 -7.90221,6.51165 -9.59019,10.69232 -0.52915,1.31411 -1.24192,4.2814 -0.53799,7.07357 0.30611,1.22239 0.87245,2.44681 1.63789,3.54452 1.72521,2.47944 4.62233,4.12616 7.74253,4.40371 4.40371,0.39344 7.74047,-1.58521 8.92769,-5.28942 0.81554,-2.55604 0,-6.30593 -3.1268,-8.21917 -2.54297,-1.55906 -5.28058,-1.20267 -6.86583,-0.15527 -1.37749,0.91392 -2.15803,2.33079 -2.14275,3.88988 0.0306,2.76158 2.41181,4.23095 4.12174,4.23317 0.49839,0 0.99696,-0.0853 1.56111,-0.26888 0.1991,-0.0613 0.38919,-0.13554 0.59692,-0.26465 l 0.0635,-0.0414 0.0414,-0.0241 -0.0153,0.007 c 0.39138,-0.26245 0.6275,-0.69526 0.6275,-1.15887 0,-0.12687 -0.0197,-0.25584 -0.0547,-0.38491 -0.20112,-0.69749 -0.89218,-1.12164 -1.60936,-0.99052 l -0.0962,0.0197 -0.13116,0.0437 -0.19026,0.0635 c -0.39357,0.0984 -0.69102,0.10499 -0.75218,0.10701 -0.20112,-0.0131 -1.1874,-0.30813 -1.1874,-1.38834 l 0,-0.0131 c 0.002,-0.3958 0.16188,-0.67352 0.24937,-0.82437 0.30389,-0.48107 1.14357,-0.9533 2.27829,-0.85276 1.48704,0.12674 2.55842,0.88995 3.26899,2.32873 0.66044,1.33808 0.48771,2.98243 -0.44388,4.18935 -0.92494,1.19623 -2.57132,1.70346 -4.76232,1.46495 -2.20847,-0.24259 -4.07569,-1.51303 -5.1209,-3.49185 -1.0233,-1.93297 -1.08021,-4.22671 -0.14643,-5.98893 2.23686,-4.2201 6.45897,-4.17644 8.77466,-3.77622 3.4285,0.5925 6.53999,3.33658 7.92409,6.9861 0.22084,0.58164 0.33447,1.04298 0.43282,1.46275 l 0.14879,0.63192 3.8722,1.89133 0.0527,0.0372 1.1e-4,-3e-5 z m 27.52442,-20.59743 c -0.73009,0.67776 -1.14798,1.60271 -1.18298,2.59985 -0.0676,2.05525 1.54615,3.78707 3.60126,3.86371 1.00156,0.0328 1.95044,-0.31937 2.67851,-1.00155 0.72807,-0.68 1.14593,-1.60272 1.18298,-2.59766 0.07,-2.05748 -1.54378,-3.79149 -3.60328,-3.86573 -0.99713,-0.0328 -1.94841,0.31919 -2.67649,1.00138"
         style="fill:#73ba25;fill-opacity:1;fill-rule:evenodd;stroke:none" />
    </g>
    <g
       id="g5324"
       transform="translate(490,-12)">
      <path
         style="fill:#73ba25;fill-opacity:1;fill-rule:nonzero;stroke:none"
         d="m 70.4225,147.36804 c -1.46224,-0.0537 -2.61004,-1.28632 -2.5612,-2.75065 0.0225,-0.70896 0.32557,-1.36425 0.84056,-1.84807 0.51708,-0.48368 1.19245,-0.73544 1.9014,-0.70877 1.46433,0.0512 2.61245,1.28182 2.56326,2.74838 -0.0222,0.70672 -0.32107,1.36198 -0.83815,1.84789 -0.5195,0.48159 -1.19487,0.73339 -1.90591,0.71122 l 4e-5,0 z m 0.61543,-2.40533 c 0.65078,0 1.17894,-0.35206 1.17894,-0.78446 0,-0.43466 -0.52819,-0.7869 -1.17894,-0.7869 -0.65111,0 -1.1772,0.35224 -1.1772,0.7869 0,0.4324 0.52609,0.78446 1.1772,0.78446"
         id="path5326"
         inkscape:connector-curvature="0" />
      <path
         inkscape:connector-curvature="0"
         id="path5328"
         d="m 40.33926,162.6193 0.0941,-0.009 0.0153,-0.11143 c -0.0241,-0.0875 -0.0808,-0.16612 -0.16852,-1.25075 -0.0744,-0.95994 -0.22526,-3.59243 1.09973,-4.89786 0.51402,-0.50946 1.29883,-0.96214 1.91784,-1.10857 2.53855,-0.61884 5.83369,-0.19027 8.64774,3.06345 1.45204,1.68137 2.16484,2.44886 2.52122,2.79217 l 0.12232,0.11365 0.1488,0.10719 c 0.11585,0.0656 4.83653,2.23905 4.83653,2.23905 l 0.0962,-0.0241 0.002,-0.1026 c -0.0306,-0.035 -2.99109,-3.85947 -2.4665,-7.01021 0.41549,-2.51016 2.41386,-2.28493 5.17562,-1.97016 0.90303,0.10277 1.93074,0.22085 2.99346,0.24496 2.96694,0.0175 6.16392,-0.52692 8.13408,-1.38852 1.27472,-0.5575 2.08806,-0.92495 2.59766,-1.38852 0.18344,-0.15084 0.2796,-0.40004 0.37812,-0.66249 l 0.0679,-0.17701 c 0.0829,-0.21218 0.20317,-0.66691 0.25584,-0.91406 0.0241,-0.10924 0.035,-0.22745 -0.0418,-0.28638 l -0.27317,0.0503 c -0.86361,0.51825 -3.0264,1.50659 -5.05094,1.54597 -2.50797,0.0523 -7.56329,-2.52342 -8.09025,-2.79676 l -0.0503,-0.0589 c -0.12705,-0.30187 -0.8857,-2.09704 -1.04538,-2.47516 3.63862,2.39636 6.65584,3.72153 8.96711,3.92706 2.57149,0.22951 4.57665,-1.17414 5.43379,-1.77346 0.16818,-0.11366 0.29523,-0.20553 0.34755,-0.22509 l 0.0547,-0.0897 c -0.14236,-0.90303 -1.48704,-5.27617 -2.5015,-6.3258 -0.28197,-0.28861 -0.50723,-0.56839 -0.96213,-0.83526 -3.67565,-2.14275 -12.40223,-3.43733 -12.81094,-3.49627 l -0.07,0.0197 -0.0262,0.0612 c 0,0 -0.0329,1.81047 -0.0374,2.01176 -0.89217,-0.29745 -7.37066,-2.39006 -13.44524,-2.60207 -5.14907,-0.18146 -12.18339,-0.42642 -22.12353,5.68282 l -0.29303,0.18361 c -4.67483,2.91686 -7.90221,6.51165 -9.59019,10.69232 -0.52915,1.31411 -1.24192,4.2814 -0.53799,7.07357 0.30611,1.22239 0.87245,2.44681 1.63789,3.54452 1.72521,2.47944 4.62233,4.12616 7.74253,4.40371 4.40371,0.39344 7.74047,-1.58521 8.92769,-5.28942 0.81554,-2.55604 0,-6.30593 -3.1268,-8.21917 -2.54297,-1.55906 -5.28058,-1.20267 -6.86583,-0.15527 -1.37749,0.91392 -2.15803,2.33079 -2.14275,3.88988 0.0306,2.76158 2.41181,4.23095 4.12174,4.23317 0.49839,0 0.99696,-0.0853 1.56111,-0.26888 0.1991,-0.0613 0.38919,-0.13554 0.59692,-0.26465 l 0.0635,-0.0414 0.0414,-0.0241 -0.0153,0.007 c 0.39138,-0.26245 0.6275,-0.69526 0.6275,-1.15887 0,-0.12687 -0.0197,-0.25584 -0.0547,-0.38491 -0.20112,-0.69749 -0.89218,-1.12164 -1.60936,-0.99052 l -0.0962,0.0197 -0.13116,0.0437 -0.19026,0.0635 c -0.39357,0.0984 -0.69102,0.10499 -0.75218,0.10701 -0.20112,-0.0131 -1.1874,-0.30813 -1.1874,-1.38834 l 0,-0.0131 c 0.002,-0.3958 0.16188,-0.67352 0.24937,-0.82437 0.30389,-0.48107 1.14357,-0.9533 2.27829,-0.85276 1.48704,0.12674 2.55842,0.88995 3.26899,2.32873 0.66044,1.33808 0.48771,2.98243 -0.44388,4.18935 -0.92494,1.19623 -2.57132,1.70346 -4.76232,1.46495 -2.20847,-0.24259 -4.07569,-1.51303 -5.1209,-3.49185 -1.0233,-1.93297 -1.08021,-4.22671 -0.14643,-5.98893 2.23686,-4.2201 6.45897,-4.17644 8.77466,-3.77622 3.4285,0.5925 6.53999,3.33658 7.92409,6.9861 0.22084,0.58164 0.33447,1.04298 0.43282,1.46275 l 0.14879,0.63192 3.8722,1.89133 0.0527,0.0372 1.1e-4,-3e-5 z m 27.52442,-20.59743 c -0.73009,0.67776 -1.14798,1.60271 -1.18298,2.59985 -0.0676,2.05525 1.54615,3.78707 3.60126,3.86371 1.00156,0.0328 1.95044,-0.31937 2.67851,-1.00155 0.72807,-0.68 1.14593,-1.60272 1.18298,-2.59766 0.07,-2.05748 -1.54378,-3.79149 -3.60328,-3.86573 -0.99713,-0.0328 -1.94841,0.31919 -2.67649,1.00138"
         style="fill:#ffffff;fill-opacity:1;fill-rule:evenodd;stroke:#ffffff;stroke-width:2.77086616;stroke-miterlimit:4;stroke-opacity:1;stroke-dasharray:none" />
      <path
         style="fill:#73ba25;fill-opacity:1;fill-rule:evenodd;stroke:none"
         d="m 40.33926,162.6193 0.0941,-0.009 0.0153,-0.11143 c -0.0241,-0.0875 -0.0808,-0.16612 -0.16852,-1.25075 -0.0744,-0.95994 -0.22526,-3.59243 1.09973,-4.89786 0.51402,-0.50946 1.29883,-0.96214 1.91784,-1.10857 2.53855,-0.61884 5.83369,-0.19027 8.64774,3.06345 1.45204,1.68137 2.16484,2.44886 2.52122,2.79217 l 0.12232,0.11365 0.1488,0.10719 c 0.11585,0.0656 4.83653,2.23905 4.83653,2.23905 l 0.0962,-0.0241 0.002,-0.1026 c -0.0306,-0.035 -2.99109,-3.85947 -2.4665,-7.01021 0.41549,-2.51016 2.41386,-2.28493 5.17562,-1.97016 0.90303,0.10277 1.93074,0.22085 2.99346,0.24496 2.96694,0.0175 6.16392,-0.52692 8.13408,-1.38852 1.27472,-0.5575 2.08806,-0.92495 2.59766,-1.38852 0.18344,-0.15084 0.2796,-0.40004 0.37812,-0.66249 l 0.0679,-0.17701 c 0.0829,-0.21218 0.20317,-0.66691 0.25584,-0.91406 0.0241,-0.10924 0.035,-0.22745 -0.0418,-0.28638 l -0.27317,0.0503 c -0.86361,0.51825 -3.0264,1.50659 -5.05094,1.54597 -2.50797,0.0523 -7.56329,-2.52342 -8.09025,-2.79676 l -0.0503,-0.0589 c -0.12705,-0.30187 -0.8857,-2.09704 -1.04538,-2.47516 3.63862,2.39636 6.65584,3.72153 8.96711,3.92706 2.57149,0.22951 4.57665,-1.17414 5.43379,-1.77346 0.16818,-0.11366 0.29523,-0.20553 0.34755,-0.22509 l 0.0547,-0.0897 c -0.14236,-0.90303 -1.48704,-5.27617 -2.5015,-6.3258 -0.28197,-0.28861 -0.50723,-0.56839 -0.96213,-0.83526 -3.67565,-2.14275 -12.40223,-3.43733 -12.81094,-3.49627 l -0.07,0.0197 -0.0262,0.0612 c 0,0 -0.0329,1.81047 -0.0374,2.01176 -0.89217,-0.29745 -7.37066,-2.39006 -13.44524,-2.60207 -5.14907,-0.18146 -12.18339,-0.42642 -22.12353,5.68282 l -0.29303,0.18361 c -4.67483,2.91686 -7.90221,6.51165 -9.59019,10.69232 -0.52915,1.31411 -1.24192,4.2814 -0.53799,7.07357 0.30611,1.22239 0.87245,2.44681 1.63789,3.54452 1.72521,2.47944 4.62233,4.12616 7.74253,4.40371 4.40371,0.39344 7.74047,-1.58521 8.92769,-5.28942 0.81554,-2.55604 0,-6.30593 -3.1268,-8.21917 -2.54297,-1.55906 -5.28058,-1.20267 -6.86583,-0.15527 -1.37749,0.91392 -2.15803,2.33079 -2.14275,3.88988 0.0306,2.76158 2.41181,4.23095 4.12174,4.23317 0.49839,0 0.99696,-0.0853 1.56111,-0.26888 0.1991,-0.0613 0.38919,-0.13554 0.59692,-0.26465 l 0.0635,-0.0414 0.0414,-0.0241 -0.0153,0.007 c 0.39138,-0.26245 0.6275,-0.69526 0.6275,-1.15887 0,-0.12687 -0.0197,-0.25584 -0.0547,-0.38491 -0.20112,-0.69749 -0.89218,-1.12164 -1.60936,-0.99052 l -0.0962,0.0197 -0.13116,0.0437 -0.19026,0.0635 c -0.39357,0.0984 -0.69102,0.10499 -0.75218,0.10701 -0.20112,-0.0131 -1.1874,-0.30813 -1.1874,-1.38834 l 0,-0.0131 c 0.002,-0.3958 0.16188,-0.67352 0.24937,-0.82437 0.30389,-0.48107 1.14357,-0.9533 2.27829,-0.85276 1.48704,0.12674 2.55842,0.88995 3.26899,2.32873 0.66044,1.33808 0.48771,2.98243 -0.44388,4.18935 -0.92494,1.19623 -2.57132,1.70346 -4.76232,1.46495 -2.20847,-0.24259 -4.07569,-1.51303 -5.1209,-3.49185 -1.0233,-1.93297 -1.08021,-4.22671 -0.14643,-5.98893 2.23686,-4.2201 6.45897,-4.17644 8.77466,-3.77622 3.4285,0.5925 6.53999,3.33658 7.92409,6.9861 0.22084,0.58164 0.33447,1.04298 0.43282,1.46275 l 0.14879,0.63192 3.8722,1.89133 0.0527,0.0372 1.1e-4,-3e-5 z m 27.52442,-20.59743 c -0.73009,0.67776 -1.14798,1.60271 -1.18298,2.59985 -0.0676,2.05525 1.54615,3.78707 3.60126,3.86371 1.00156,0.0328 1.95044,-0.31937 2.67851,-1.00155 0.72807,-0.68 1.14593,-1.60272 1.18298,-2.59766 0.07,-2.05748 -1.54378,-3.79149 -3.60328,-3.86573 -0.99713,-0.0328 -1.94841,0.31919 -2.67649,1.00138"
         id="path5330"
         inkscape:connector-curvature="0" />
    </g>
    <g
       transform="translate(572,-12)"
       id="g5332">
      <path
         inkscape:connector-curvature="0"
         id="path5334"
         d="m 70.4225,147.36804 c -1.46224,-0.0537 -2.61004,-1.28632 -2.5612,-2.75065 0.0225,-0.70896 0.32557,-1.36425 0.84056,-1.84807 0.51708,-0.48368 1.19245,-0.73544 1.9014,-0.70877 1.46433,0.0512 2.61245,1.28182 2.56326,2.74838 -0.0222,0.70672 -0.32107,1.36198 -0.83815,1.84789 -0.5195,0.48159 -1.19487,0.73339 -1.90591,0.71122 l 4e-5,0 z m 0.61543,-2.40533 c 0.65078,0 1.17894,-0.35206 1.17894,-0.78446 0,-0.43466 -0.52819,-0.7869 -1.17894,-0.7869 -0.65111,0 -1.1772,0.35224 -1.1772,0.7869 0,0.4324 0.52609,0.78446 1.1772,0.78446"
         style="fill:#73ba25;fill-opacity:1;fill-rule:nonzero;stroke:none" />
      <path
         style="fill:#ffffff;fill-opacity:1;fill-rule:evenodd;stroke:#ffffff;stroke-width:2.77086616;stroke-miterlimit:4;stroke-opacity:1;stroke-dasharray:none"
         d="m 40.33926,162.6193 0.0941,-0.009 0.0153,-0.11143 c -0.0241,-0.0875 -0.0808,-0.16612 -0.16852,-1.25075 -0.0744,-0.95994 -0.22526,-3.59243 1.09973,-4.89786 0.51402,-0.50946 1.29883,-0.96214 1.91784,-1.10857 2.53855,-0.61884 5.83369,-0.19027 8.64774,3.06345 1.45204,1.68137 2.16484,2.44886 2.52122,2.79217 l 0.12232,0.11365 0.1488,0.10719 c 0.11585,0.0656 4.83653,2.23905 4.83653,2.23905 l 0.0962,-0.0241 0.002,-0.1026 c -0.0306,-0.035 -2.99109,-3.85947 -2.4665,-7.01021 0.41549,-2.51016 2.41386,-2.28493 5.17562,-1.97016 0.90303,0.10277 1.93074,0.22085 2.99346,0.24496 2.96694,0.0175 6.16392,-0.52692 8.13408,-1.38852 1.27472,-0.5575 2.08806,-0.92495 2.59766,-1.38852 0.18344,-0.15084 0.2796,-0.40004 0.37812,-0.66249 l 0.0679,-0.17701 c 0.0829,-0.21218 0.20317,-0.66691 0.25584,-0.91406 0.0241,-0.10924 0.035,-0.22745 -0.0418,-0.28638 l -0.27317,0.0503 c -0.86361,0.51825 -3.0264,1.50659 -5.05094,1.54597 -2.50797,0.0523 -7.56329,-2.52342 -8.09025,-2.79676 l -0.0503,-0.0589 c -0.12705,-0.30187 -0.8857,-2.09704 -1.04538,-2.47516 3.63862,2.39636 6.65584,3.72153 8.96711,3.92706 2.57149,0.22951 4.57665,-1.17414 5.43379,-1.77346 0.16818,-0.11366 0.29523,-0.20553 0.34755,-0.22509 l 0.0547,-0.0897 c -0.14236,-0.90303 -1.48704,-5.27617 -2.5015,-6.3258 -0.28197,-0.28861 -0.50723,-0.56839 -0.96213,-0.83526 -3.67565,-2.14275 -12.40223,-3.43733 -12.81094,-3.49627 l -0.07,0.0197 -0.0262,0.0612 c 0,0 -0.0329,1.81047 -0.0374,2.01176 -0.89217,-0.29745 -7.37066,-2.39006 -13.44524,-2.60207 -5.14907,-0.18146 -12.18339,-0.42642 -22.12353,5.68282 l -0.29303,0.18361 c -4.67483,2.91686 -7.90221,6.51165 -9.59019,10.69232 -0.52915,1.31411 -1.24192,4.2814 -0.53799,7.07357 0.30611,1.22239 0.87245,2.44681 1.63789,3.54452 1.72521,2.47944 4.62233,4.12616 7.74253,4.40371 4.40371,0.39344 7.74047,-1.58521 8.92769,-5.28942 0.81554,-2.55604 0,-6.30593 -3.1268,-8.21917 -2.54297,-1.55906 -5.28058,-1.20267 -6.86583,-0.15527 -1.37749,0.91392 -2.15803,2.33079 -2.14275,3.88988 0.0306,2.76158 2.41181,4.23095 4.12174,4.23317 0.49839,0 0.99696,-0.0853 1.56111,-0.26888 0.1991,-0.0613 0.38919,-0.13554 0.59692,-0.26465 l 0.0635,-0.0414 0.0414,-0.0241 -0.0153,0.007 c 0.39138,-0.26245 0.6275,-0.69526 0.6275,-1.15887 0,-0.12687 -0.0197,-0.25584 -0.0547,-0.38491 -0.20112,-0.69749 -0.89218,-1.12164 -1.60936,-0.99052 l -0.0962,0.0197 -0.13116,0.0437 -0.19026,0.0635 c -0.39357,0.0984 -0.69102,0.10499 -0.75218,0.10701 -0.20112,-0.0131 -1.1874,-0.30813 -1.1874,-1.38834 l 0,-0.0131 c 0.002,-0.3958 0.16188,-0.67352 0.24937,-0.82437 0.30389,-0.48107 1.14357,-0.9533 2.27829,-0.85276 1.48704,0.12674 2.55842,0.88995 3.26899,2.32873 0.66044,1.33808 0.48771,2.98243 -0.44388,4.18935 -0.92494,1.19623 -2.57132,1.70346 -4.76232,1.46495 -2.20847,-0.24259 -4.07569,-1.51303 -5.1209,-3.49185 -1.0233,-1.93297 -1.08021,-4.22671 -0.14643,-5.98893 2.23686,-4.2201 6.45897,-4.17644 8.77466,-3.77622 3.4285,0.5925 6.53999,3.33658 7.92409,6.9861 0.22084,0.58164 0.33447,1.04298 0.43282,1.46275 l 0.14879,0.63192 3.8722,1.89133 0.0527,0.0372 1.1e-4,-3e-5 z m 27.52442,-20.59743 c -0.73009,0.67776 -1.14798,1.60271 -1.18298,2.59985 -0.0676,2.05525 1.54615,3.78707 3.60126,3.86371 1.00156,0.0328 1.95044,-0.31937 2.67851,-1.00155 0.72807,-0.68 1.14593,-1.60272 1.18298,-2.59766 0.07,-2.05748 -1.54378,-3.79149 -3.60328,-3.86573 -0.99713,-0.0328 -1.94841,0.31919 -2.67649,1.00138"
         id="path5336"
         inkscape:connector-curvature="0" />
      <path
         inkscape:connector-curvature="0"
         id="path5338"
         d="m 40.33926,162.6193 0.0941,-0.009 0.0153,-0.11143 c -0.0241,-0.0875 -0.0808,-0.16612 -0.16852,-1.25075 -0.0744,-0.95994 -0.22526,-3.59243 1.09973,-4.89786 0.51402,-0.50946 1.29883,-0.96214 1.91784,-1.10857 2.53855,-0.61884 5.83369,-0.19027 8.64774,3.06345 1.45204,1.68137 2.16484,2.44886 2.52122,2.79217 l 0.12232,0.11365 0.1488,0.10719 c 0.11585,0.0656 4.83653,2.23905 4.83653,2.23905 l 0.0962,-0.0241 0.002,-0.1026 c -0.0306,-0.035 -2.99109,-3.85947 -2.4665,-7.01021 0.41549,-2.51016 2.41386,-2.28493 5.17562,-1.97016 0.90303,0.10277 1.93074,0.22085 2.99346,0.24496 2.96694,0.0175 6.16392,-0.52692 8.13408,-1.38852 1.27472,-0.5575 2.08806,-0.92495 2.59766,-1.38852 0.18344,-0.15084 0.2796,-0.40004 0.37812,-0.66249 l 0.0679,-0.17701 c 0.0829,-0.21218 0.20317,-0.66691 0.25584,-0.91406 0.0241,-0.10924 0.035,-0.22745 -0.0418,-0.28638 l -0.27317,0.0503 c -0.86361,0.51825 -3.0264,1.50659 -5.05094,1.54597 -2.50797,0.0523 -7.56329,-2.52342 -8.09025,-2.79676 l -0.0503,-0.0589 c -0.12705,-0.30187 -0.8857,-2.09704 -1.04538,-2.47516 3.63862,2.39636 6.65584,3.72153 8.96711,3.92706 2.57149,0.22951 4.57665,-1.17414 5.43379,-1.77346 0.16818,-0.11366 0.29523,-0.20553 0.34755,-0.22509 l 0.0547,-0.0897 c -0.14236,-0.90303 -1.48704,-5.27617 -2.5015,-6.3258 -0.28197,-0.28861 -0.50723,-0.56839 -0.96213,-0.83526 -3.67565,-2.14275 -12.40223,-3.43733 -12.81094,-3.49627 l -0.07,0.0197 -0.0262,0.0612 c 0,0 -0.0329,1.81047 -0.0374,2.01176 -0.89217,-0.29745 -7.37066,-2.39006 -13.44524,-2.60207 -5.14907,-0.18146 -12.18339,-0.42642 -22.12353,5.68282 l -0.29303,0.18361 c -4.67483,2.91686 -7.90221,6.51165 -9.59019,10.69232 -0.52915,1.31411 -1.24192,4.2814 -0.53799,7.07357 0.30611,1.22239 0.87245,2.44681 1.63789,3.54452 1.72521,2.47944 4.62233,4.12616 7.74253,4.40371 4.40371,0.39344 7.74047,-1.58521 8.92769,-5.28942 0.81554,-2.55604 0,-6.30593 -3.1268,-8.21917 -2.54297,-1.55906 -5.28058,-1.20267 -6.86583,-0.15527 -1.37749,0.91392 -2.15803,2.33079 -2.14275,3.88988 0.0306,2.76158 2.41181,4.23095 4.12174,4.23317 0.49839,0 0.99696,-0.0853 1.56111,-0.26888 0.1991,-0.0613 0.38919,-0.13554 0.59692,-0.26465 l 0.0635,-0.0414 0.0414,-0.0241 -0.0153,0.007 c 0.39138,-0.26245 0.6275,-0.69526 0.6275,-1.15887 0,-0.12687 -0.0197,-0.25584 -0.0547,-0.38491 -0.20112,-0.69749 -0.89218,-1.12164 -1.60936,-0.99052 l -0.0962,0.0197 -0.13116,0.0437 -0.19026,0.0635 c -0.39357,0.0984 -0.69102,0.10499 -0.75218,0.10701 -0.20112,-0.0131 -1.1874,-0.30813 -1.1874,-1.38834 l 0,-0.0131 c 0.002,-0.3958 0.16188,-0.67352 0.24937,-0.82437 0.30389,-0.48107 1.14357,-0.9533 2.27829,-0.85276 1.48704,0.12674 2.55842,0.88995 3.26899,2.32873 0.66044,1.33808 0.48771,2.98243 -0.44388,4.18935 -0.92494,1.19623 -2.57132,1.70346 -4.76232,1.46495 -2.20847,-0.24259 -4.07569,-1.51303 -5.1209,-3.49185 -1.0233,-1.93297 -1.08021,-4.22671 -0.14643,-5.98893 2.23686,-4.2201 6.45897,-4.17644 8.77466,-3.77622 3.4285,0.5925 6.53999,3.33658 7.92409,6.9861 0.22084,0.58164 0.33447,1.04298 0.43282,1.46275 l 0.14879,0.63192 3.8722,1.89133 0.0527,0.0372 1.1e-4,-3e-5 z m 27.52442,-20.59743 c -0.73009,0.67776 -1.14798,1.60271 -1.18298,2.59985 -0.0676,2.05525 1.54615,3.78707 3.60126,3.86371 1.00156,0.0328 1.95044,-0.31937 2.67851,-1.00155 0.72807,-0.68 1.14593,-1.60272 1.18298,-2.59766 0.07,-2.05748 -1.54378,-3.79149 -3.60328,-3.86573 -0.99713,-0.0328 -1.94841,0.31919 -2.67649,1.00138"
         style="fill:#73ba25;fill-opacity:1;fill-rule:evenodd;stroke:none" />
    </g>
    <g
       id="g5340"
       transform="translate(654,-12)">
      <path
         style="fill:#73ba25;fill-opacity:1;fill-rule:nonzero;stroke:none"
         d="m 70.4225,147.36804 c -1.46224,-0.0537 -2.61004,-1.28632 -2.5612,-2.75065 0.0225,-0.70896 0.32557,-1.36425 0.84056,-1.84807 0.51708,-0.48368 1.19245,-0.73544 1.9014,-0.70877 1.46433,0.0512 2.61245,1.28182 2.56326,2.74838 -0.0222,0.70672 -0.32107,1.36198 -0.83815,1.84789 -0.5195,0.48159 -1.19487,0.73339 -1.90591,0.71122 l 4e-5,0 z m 0.61543,-2.40533 c 0.65078,0 1.17894,-0.35206 1.17894,-0.78446 0,-0.43466 -0.52819,-0.7869 -1.17894,-0.7869 -0.65111,0 -1.1772,0.35224 -1.1772,0.7869 0,0.4324 0.52609,0.78446 1.1772,0.78446"
         id="path5342"
         inkscape:connector-curvature="0" />
      <path
         inkscape:connector-curvature="0"
         id="path5344"
         d="m 40.33926,162.6193 0.0941,-0.009 0.0153,-0.11143 c -0.0241,-0.0875 -0.0808,-0.16612 -0.16852,-1.25075 -0.0744,-0.95994 -0.22526,-3.59243 1.09973,-4.89786 0.51402,-0.50946 1.29883,-0.96214 1.91784,-1.10857 2.53855,-0.61884 5.83369,-0.19027 8.64774,3.06345 1.45204,1.68137 2.16484,2.44886 2.52122,2.79217 l 0.12232,0.11365 0.1488,0.10719 c 0.11585,0.0656 4.83653,2.23905 4.83653,2.23905 l 0.0962,-0.0241 0.002,-0.1026 c -0.0306,-0.035 -2.99109,-3.85947 -2.4665,-7.01021 0.41549,-2.51016 2.41386,-2.28493 5.17562,-1.97016 0.90303,0.10277 1.93074,0.22085 2.99346,0.24496 2.96694,0.0175 6.16392,-0.52692 8.13408,-1.38852 1.27472,-0.5575 2.08806,-0.92495 2.59766,-1.38852 0.18344,-0.15084 0.2796,-0.40004 0.37812,-0.66249 l 0.0679,-0.17701 c 0.0829,-0.21218 0.20317,-0.66691 0.25584,-0.91406 0.0241,-0.10924 0.035,-0.22745 -0.0418,-0.28638 l -0.27317,0.0503 c -0.86361,0.51825 -3.0264,1.50659 -5.05094,1.54597 -2.50797,0.0523 -7.56329,-2.52342 -8.09025,-2.79676 l -0.0503,-0.0589 c -0.12705,-0.30187 -0.8857,-2.09704 -1.04538,-2.47516 3.63862,2.39636 6.65584,3.72153 8.96711,3.92706 2.57149,0.22951 4.57665,-1.17414 5.43379,-1.77346 0.16818,-0.11366 0.29523,-0.20553 0.34755,-0.22509 l 0.0547,-0.0897 c -0.14236,-0.90303 -1.48704,-5.27617 -2.5015,-6.3258 -0.28197,-0.28861 -0.50723,-0.56839 -0.96213,-0.83526 -3.67565,-2.14275 -12.40223,-3.43733 -12.81094,-3.49627 l -0.07,0.0197 -0.0262,0.0612 c 0,0 -0.0329,1.81047 -0.0374,2.01176 -0.89217,-0.29745 -7.37066,-2.39006 -13.44524,-2.60207 -5.14907,-0.18146 -12.18339,-0.42642 -22.12353,5.68282 l -0.29303,0.18361 c -4.67483,2.91686 -7.90221,6.51165 -9.59019,10.69232 -0.52915,1.31411 -1.24192,4.2814 -0.53799,7.07357 0.30611,1.22239 0.87245,2.44681 1.63789,3.54452 1.72521,2.47944 4.62233,4.12616 7.74253,4.40371 4.40371,0.39344 7.74047,-1.58521 8.92769,-5.28942 0.81554,-2.55604 0,-6.30593 -3.1268,-8.21917 -2.54297,-1.55906 -5.28058,-1.20267 -6.86583,-0.15527 -1.37749,0.91392 -2.15803,2.33079 -2.14275,3.88988 0.0306,2.76158 2.41181,4.23095 4.12174,4.23317 0.49839,0 0.99696,-0.0853 1.56111,-0.26888 0.1991,-0.0613 0.38919,-0.13554 0.59692,-0.26465 l 0.0635,-0.0414 0.0414,-0.0241 -0.0153,0.007 c 0.39138,-0.26245 0.6275,-0.69526 0.6275,-1.15887 0,-0.12687 -0.0197,-0.25584 -0.0547,-0.38491 -0.20112,-0.69749 -0.89218,-1.12164 -1.60936,-0.99052 l -0.0962,0.0197 -0.13116,0.0437 -0.19026,0.0635 c -0.39357,0.0984 -0.69102,0.10499 -0.75218,0.10701 -0.20112,-0.0131 -1.1874,-0.30813 -1.1874,-1.38834 l 0,-0.0131 c 0.002,-0.3958 0.16188,-0.67352 0.24937,-0.82437 0.30389,-0.48107 1.14357,-0.9533 2.27829,-0.85276 1.48704,0.12674 2.55842,0.88995 3.26899,2.32873 0.66044,1.33808 0.48771,2.98243 -0.44388,4.18935 -0.92494,1.19623 -2.57132,1.70346 -4.76232,1.46495 -2.20847,-0.24259 -4.07569,-1.51303 -5.1209,-3.49185 -1.0233,-1.93297 -1.08021,-4.22671 -0.14643,-5.98893 2.23686,-4.2201 6.45897,-4.17644 8.77466,-3.77622 3.4285,0.5925 6.53999,3.33658 7.92409,6.9861 0.22084,0.58164 0.33447,1.04298 0.43282,1.46275 l 0.14879,0.63192 3.8722,1.89133 0.0527,0.0372 1.1e-4,-3e-5 z m 27.52442,-20.59743 c -0.73009,0.67776 -1.14798,1.60271 -1.18298,2.59985 -0.0676,2.05525 1.54615,3.78707 3.60126,3.86371 1.00156,0.0328 1.95044,-0.31937 2.67851,-1.00155 0.72807,-0.68 1.14593,-1.60272 1.18298,-2.59766 0.07,-2.05748 -1.54378,-3.79149 -3.60328,-3.86573 -0.99713,-0.0328 -1.94841,0.31919 -2.67649,1.00138"
         style="fill:#ffffff;fill-opacity:1;fill-rule:evenodd;stroke:#ffffff;stroke-width:2.77086616;stroke-miterlimit:4;stroke-opacity:1;stroke-dasharray:none" />
      <path
         style="fill:#73ba25;fill-opacity:1;fill-rule:evenodd;stroke:none"
         d="m 40.33926,162.6193 0.0941,-0.009 0.0153,-0.11143 c -0.0241,-0.0875 -0.0808,-0.16612 -0.16852,-1.25075 -0.0744,-0.95994 -0.22526,-3.59243 1.09973,-4.89786 0.51402,-0.50946 1.29883,-0.96214 1.91784,-1.10857 2.53855,-0.61884 5.83369,-0.19027 8.64774,3.06345 1.45204,1.68137 2.16484,2.44886 2.52122,2.79217 l 0.12232,0.11365 0.1488,0.10719 c 0.11585,0.0656 4.83653,2.23905 4.83653,2.23905 l 0.0962,-0.0241 0.002,-0.1026 c -0.0306,-0.035 -2.99109,-3.85947 -2.4665,-7.01021 0.41549,-2.51016 2.41386,-2.28493 5.17562,-1.97016 0.90303,0.10277 1.93074,0.22085 2.99346,0.24496 2.96694,0.0175 6.16392,-0.52692 8.13408,-1.38852 1.27472,-0.5575 2.08806,-0.92495 2.59766,-1.38852 0.18344,-0.15084 0.2796,-0.40004 0.37812,-0.66249 l 0.0679,-0.17701 c 0.0829,-0.21218 0.20317,-0.66691 0.25584,-0.91406 0.0241,-0.10924 0.035,-0.22745 -0.0418,-0.28638 l -0.27317,0.0503 c -0.86361,0.51825 -3.0264,1.50659 -5.05094,1.54597 -2.50797,0.0523 -7.56329,-2.52342 -8.09025,-2.79676 l -0.0503,-0.0589 c -0.12705,-0.30187 -0.8857,-2.09704 -1.04538,-2.47516 3.63862,2.39636 6.65584,3.72153 8.96711,3.92706 2.57149,0.22951 4.57665,-1.17414 5.43379,-1.77346 0.16818,-0.11366 0.29523,-0.20553 0.34755,-0.22509 l 0.0547,-0.0897 c -0.14236,-0.90303 -1.48704,-5.27617 -2.5015,-6.3258 -0.28197,-0.28861 -0.50723,-0.56839 -0.96213,-0.83526 -3.67565,-2.14275 -12.40223,-3.43733 -12.81094,-3.49627 l -0.07,0.0197 -0.0262,0.0612 c 0,0 -0.0329,1.81047 -0.0374,2.01176 -0.89217,-0.29745 -7.37066,-2.39006 -13.44524,-2.60207 -5.14907,-0.18146 -12.18339,-0.42642 -22.12353,5.68282 l -0.29303,0.18361 c -4.67483,2.91686 -7.90221,6.51165 -9.59019,10.69232 -0.52915,1.31411 -1.24192,4.2814 -0.53799,7.07357 0.30611,1.22239 0.87245,2.44681 1.63789,3.54452 1.72521,2.47944 4.62233,4.12616 7.74253,4.40371 4.40371,0.39344 7.74047,-1.58521 8.92769,-5.28942 0.81554,-2.55604 0,-6.30593 -3.1268,-8.21917 -2.54297,-1.55906 -5.28058,-1.20267 -6.86583,-0.15527 -1.37749,0.91392 -2.15803,2.33079 -2.14275,3.88988 0.0306,2.76158 2.41181,4.23095 4.12174,4.23317 0.49839,0 0.99696,-0.0853 1.56111,-0.26888 0.1991,-0.0613 0.38919,-0.13554 0.59692,-0.26465 l 0.0635,-0.0414 0.0414,-0.0241 -0.0153,0.007 c 0.39138,-0.26245 0.6275,-0.69526 0.6275,-1.15887 0,-0.12687 -0.0197,-0.25584 -0.0547,-0.38491 -0.20112,-0.69749 -0.89218,-1.12164 -1.60936,-0.99052 l -0.0962,0.0197 -0.13116,0.0437 -0.19026,0.0635 c -0.39357,0.0984 -0.69102,0.10499 -0.75218,0.10701 -0.20112,-0.0131 -1.1874,-0.30813 -1.1874,-1.38834 l 0,-0.0131 c 0.002,-0.3958 0.16188,-0.67352 0.24937,-0.82437 0.30389,-0.48107 1.14357,-0.9533 2.27829,-0.85276 1.48704,0.12674 2.55842,0.88995 3.26899,2.32873 0.66044,1.33808 0.48771,2.98243 -0.44388,4.18935 -0.92494,1.19623 -2.57132,1.70346 -4.76232,1.46495 -2.20847,-0.24259 -4.07569,-1.51303 -5.1209,-3.49185 -1.0233,-1.93297 -1.08021,-4.22671 -0.14643,-5.98893 2.23686,-4.2201 6.45897,-4.17644 8.77466,-3.77622 3.4285,0.5925 6.53999,3.33658 7.92409,6.9861 0.22084,0.58164 0.33447,1.04298 0.43282,1.46275 l 0.14879,0.63192 3.8722,1.89133 0.0527,0.0372 1.1e-4,-3e-5 z m 27.52442,-20.59743 c -0.73009,0.67776 -1.14798,1.60271 -1.18298,2.59985 -0.0676,2.05525 1.54615,3.78707 3.60126,3.86371 1.00156,0.0328 1.95044,-0.31937 2.67851,-1.00155 0.72807,-0.68 1.14593,-1.60272 1.18298,-2.59766 0.07,-2.05748 -1.54378,-3.79149 -3.60328,-3.86573 -0.99713,-0.0328 -1.94841,0.31919 -2.67649,1.00138"
         id="path5346"
         inkscape:connector-curvature="0" />
    </g>
  </g>
</svg>
