<?xml version="1.0" encoding="UTF-8" standalone="no"?>
<!-- Created with Inkscape (http://www.inkscape.org/) -->

<svg
   xmlns:dc="http://purl.org/dc/elements/1.1/"
   xmlns:cc="http://creativecommons.org/ns#"
   xmlns:rdf="http://www.w3.org/1999/02/22-rdf-syntax-ns#"
   xmlns:svg="http://www.w3.org/2000/svg"
   xmlns="http://www.w3.org/2000/svg"
   xmlns:sodipodi="http://sodipodi.sourceforge.net/DTD/sodipodi-0.dtd"
   xmlns:inkscape="http://www.inkscape.org/namespaces/inkscape"
   width="7086.6138"
   height="14173.228"
   id="svg2"
   version="1.1"
   inkscape:version="0.48.4 r9939"
   sodipodi:docname="Big_Banner_4x2m_11.svg"
   inkscape:export-filename="/home/CarlosRibeiro/git_repo/artwork/Marketing Materials/Events/openSUSE Conference/2013-oS-Conference/Banners/Big_Banner_4x2m_11.png"
   inkscape:export-xdpi="71.996307"
   inkscape:export-ydpi="71.996307">
  <defs
     id="defs4">
    <path
       sodipodi:type="arc"
       style="color:#000000;fill:none;stroke:none;stroke-width:0.5;marker:none;visibility:visible;display:inline;overflow:visible;enable-background:accumulate"
       id="path4342"
       sodipodi:cx="607.81238"
       sodipodi:cy="304.80777"
       sodipodi:rx="27.219366"
       sodipodi:ry="27.219366"
       d="m 635.03174,304.80777 a 27.219366,27.219366 0 1 1 -54.43873,0 27.219366,27.219366 0 1 1 54.43873,0 z"
       transform="matrix(-1.1177078,0,0,-1.1177078,1256.9567,951.59946)" />
    <path
       sodipodi:type="arc"
       style="color:#000000;fill:none;stroke:none;stroke-width:0.5;marker:none;visibility:visible;display:inline;overflow:visible;enable-background:accumulate"
       id="path4342-6"
       sodipodi:cx="607.81238"
       sodipodi:cy="304.80777"
       sodipodi:rx="27.219366"
       sodipodi:ry="27.219366"
       d="m 635.03174,304.80777 a 27.219366,27.219366 0 1 1 -54.43873,0 27.219366,27.219366 0 1 1 54.43873,0 z"
       transform="matrix(-1.1177078,0,0,-1.1177078,1256.9567,951.59946)" />
    <path
       transform="matrix(-1,0,0,-1,1236.1913,210.5532)"
       d="m 567.54987,105.2766 a 59.454872,59.454872 0 1 1 -118.90974,0 59.454872,59.454872 0 1 1 118.90974,0 z"
       sodipodi:ry="59.454872"
       sodipodi:rx="59.454872"
       sodipodi:cy="105.2766"
       sodipodi:cx="508.095"
       id="path3048"
       style="opacity:0;fill:#999999;fill-opacity:1;stroke:#000000;stroke-opacity:1"
       sodipodi:type="arc" />
    <path
       transform="matrix(0,-1,1,0,622.83064,613.38133)"
       d="m 508.09375,33.6875 c -39.39808,0 -71.59375,32.195673 -71.59375,71.59375 0,39.39808 32.20337,71.5625 71.59375,71.5625 39.39038,0 71.59375,-32.16442 71.59375,-71.5625 0,-39.398077 -32.19567,-71.59375 -71.59375,-71.59375 z"
       id="path3883"
       style="opacity:0;fill:#999999;fill-opacity:1;stroke:none"
       inkscape:original="M 508.09375 45.8125 C 475.25773 45.8125 448.625 72.445231 448.625 105.28125 C 448.625 138.11727 475.25773 164.71875 508.09375 164.71875 C 540.92977 164.71875 567.5625 138.11727 567.5625 105.28125 C 567.5625 72.445231 540.92977 45.8125 508.09375 45.8125 z "
       inkscape:radius="12.135736"
       sodipodi:type="inkscape:offset" />
    <path
       transform="matrix(-1,0,0,-1,1236.1913,210.5532)"
       d="m 567.54987,105.2766 a 59.454872,59.454872 0 1 1 -118.90974,0 59.454872,59.454872 0 1 1 118.90974,0 z"
       sodipodi:ry="59.454872"
       sodipodi:rx="59.454872"
       sodipodi:cy="105.2766"
       sodipodi:cx="508.095"
       id="path3048-2"
       style="opacity:0;fill:#999999;fill-opacity:1;stroke:#000000;stroke-opacity:1"
       sodipodi:type="arc" />
    <path
       transform="matrix(0,-1,1,0,622.83064,613.38133)"
       d="m 508.09375,33.6875 c -39.39808,0 -71.59375,32.195673 -71.59375,71.59375 0,39.39808 32.20337,71.5625 71.59375,71.5625 39.39038,0 71.59375,-32.16442 71.59375,-71.5625 0,-39.398077 -32.19567,-71.59375 -71.59375,-71.59375 z"
       id="path3883-9"
       style="opacity:0;fill:#999999;fill-opacity:1;stroke:none"
       inkscape:original="M 508.09375 45.8125 C 475.25773 45.8125 448.625 72.445231 448.625 105.28125 C 448.625 138.11727 475.25773 164.71875 508.09375 164.71875 C 540.92977 164.71875 567.5625 138.11727 567.5625 105.28125 C 567.5625 72.445231 540.92977 45.8125 508.09375 45.8125 z "
       inkscape:radius="12.135736"
       sodipodi:type="inkscape:offset" />
    <clipPath
       clipPathUnits="userSpaceOnUse"
       id="clipPath19016">
      <rect
         width="14123.893"
         height="7037.2783"
         y="-6009.5957"
         x="24.66748"
         id="rect19018"
         style="opacity:0.5;color:#000000;fill:none;stroke:#ffffff;stroke-width:49.33598709;stroke-linecap:butt;stroke-linejoin:miter;stroke-miterlimit:4;stroke-opacity:1;stroke-dasharray:none;stroke-dashoffset:0;marker:none;visibility:visible;display:inline;overflow:visible;enable-background:accumulate" />
    </clipPath>
    <filter
       id="filter20021"
       inkscape:label="Drop Shadow"
       color-interpolation-filters="sRGB">
      <feFlood
         id="feFlood20023"
         flood-opacity="0.75"
         flood-color="rgb(0,0,0)"
         result="flood" />
      <feComposite
         in2="SourceGraphic"
         id="feComposite20025"
         in="flood"
         operator="in"
         result="composite1" />
      <feGaussianBlur
         id="feGaussianBlur20027"
         stdDeviation="10"
         result="blur" />
      <feOffset
         id="feOffset20029"
         dx="0"
         dy="0"
         result="offset" />
      <feComposite
         in2="offset"
         id="feComposite20031"
         in="SourceGraphic"
         operator="over"
         result="composite2" />
    </filter>
  </defs>
  <sodipodi:namedview
     id="base"
     pagecolor="#ffffff"
     bordercolor="#666666"
     borderopacity="1.0"
     inkscape:pageopacity="0.0"
     inkscape:pageshadow="2"
     inkscape:zoom="0.035630558"
     inkscape:cx="-21.049291"
     inkscape:cy="9331.8775"
     inkscape:document-units="mm"
     inkscape:current-layer="layer1"
     showgrid="false"
     units="cm"
     inkscape:window-width="1280"
     inkscape:window-height="742"
     inkscape:window-x="0"
     inkscape:window-y="27"
     inkscape:window-maximized="1" />
  <metadata
     id="metadata7">
    <rdf:RDF>
      <cc:Work
         rdf:about="">
        <dc:format>image/svg+xml</dc:format>
        <dc:type
           rdf:resource="http://purl.org/dc/dcmitype/StillImage" />
        <dc:title />
      </cc:Work>
    </rdf:RDF>
  </metadata>
  <g
     inkscape:label="Layer 1"
     inkscape:groupmode="layer"
     id="layer1"
     transform="translate(0,13120.877)">
    <rect
       style="color:#000000;fill:#ffffff;fill-opacity:1;fill-rule:nonzero;stroke:#ffffff;stroke-width:64.79621887;stroke-linecap:butt;stroke-linejoin:miter;stroke-miterlimit:4;stroke-opacity:1;stroke-dasharray:none;stroke-dashoffset:0;marker:none;visibility:visible;display:inline;overflow:visible;enable-background:accumulate"
       id="rect5371"
       width="7021.8179"
       height="14108.432"
       x="32.397949"
       y="-13088.479" />
    <path
       inkscape:connector-curvature="0"
       id="path6103"
       d="m 6976.2569,-8809.9269 c 0,455.0425 0,910.0846 0,1365.1263 -455.0422,0 -910.0843,0 -1365.1264,0 0,-455.0417 0,-910.0838 0,-1365.1263 455.0421,0 910.0842,0 1365.1264,0 z"
       style="color:#000000;fill:#008000;fill-opacity:1;fill-rule:nonzero;stroke:#ffffff;stroke-width:30.34559631;stroke-linecap:butt;stroke-linejoin:miter;stroke-miterlimit:4;stroke-opacity:1;stroke-dasharray:none;stroke-dashoffset:0;marker:none;visibility:visible;display:inline;overflow:visible;enable-background:accumulate" />
    <text
       inkscape:export-ydpi="149.97067"
       inkscape:export-xdpi="149.97067"
       inkscape:export-filename="/home/CarlosRibeiro/Desktop/Layout.png"
       sodipodi:linespacing="81.999999%"
       id="text20041"
       y="-5010.3726"
       x="11233.322"
       style="font-size:279.15411377px;font-style:normal;font-variant:normal;font-weight:bold;font-stretch:normal;text-indent:0;text-align:start;text-decoration:none;line-height:81.99999928%;letter-spacing:0px;word-spacing:0px;text-transform:none;direction:ltr;block-progression:tb;writing-mode:lr-tb;text-anchor:start;baseline-shift:baseline;color:#000000;fill:#000000;fill-opacity:1;fill-rule:nonzero;stroke:none;stroke-width:4.14025307;marker:none;visibility:visible;display:inline;overflow:visible;filter:url(#filter20021);enable-background:accumulate;font-family:FifthLeg;-inkscape-font-specification:FifthLeg Bold"
       xml:space="preserve"
       transform="matrix(1.2278245,0,0,1.2278245,-2237.7746,7026.1287)"><tspan
         style="text-align:center;text-anchor:middle;fill:#000000"
         id="tspan20043"
         y="-5010.3726"
         x="11233.322"
         sodipodi:role="line" /></text>
    <text
       inkscape:export-ydpi="149.97067"
       inkscape:export-xdpi="149.97067"
       inkscape:export-filename="/home/CarlosRibeiro/Desktop/Layout3.png"
       sodipodi:linespacing="125%"
       id="text6219-3"
       y="-3187.7517"
       x="-531.01416"
       style="font-size:19.69123459px;font-style:normal;font-weight:normal;line-height:125%;letter-spacing:0px;word-spacing:0px;fill:#000000;fill-opacity:1;stroke:none;font-family:Sans"
       xml:space="preserve"><tspan
         id="tspan6221-5"
         y="-3187.7517"
         x="-531.01416"
         sodipodi:role="line" /></text>
    <text
       inkscape:export-ydpi="149.97067"
       inkscape:export-xdpi="149.97067"
       inkscape:export-filename="/home/CarlosRibeiro/Desktop/Layout3.png"
       y="-3911.0156"
       x="372.2395"
       xml:space="preserve"
       style="font-size:90.93436432px;font-style:normal;font-variant:normal;font-weight:bold;font-stretch:normal;text-align:center;line-height:125%;letter-spacing:0px;word-spacing:0px;text-anchor:middle;fill:#000000;fill-opacity:1;stroke:none;font-family:FifthLeg;-inkscape-font-specification:FifthLeg Bold"
       id="text4225"
       sodipodi:linespacing="125%" />
    <text
       inkscape:export-ydpi="149.97067"
       inkscape:export-xdpi="149.97067"
       inkscape:export-filename="/home/CarlosRibeiro/Desktop/Layout3.png"
       xml:space="preserve"
       style="font-size:10.6187849px;font-style:normal;font-weight:normal;line-height:125%;letter-spacing:0px;word-spacing:0px;color:#000000;fill:#6eb927;fill-opacity:1;fill-rule:nonzero;stroke:none;stroke-width:3.85548687;marker:none;visibility:visible;display:inline;overflow:visible;enable-background:accumulate;font-family:Sans"
       x="823.71313"
       y="-3358.3013"
       id="text3761"
       sodipodi:linespacing="125%"><tspan
         sodipodi:role="line"
         id="tspan3763"
         x="823.71313"
         y="-3358.3013" /></text>
    <text
       inkscape:export-ydpi="149.97067"
       inkscape:export-xdpi="149.97067"
       inkscape:export-filename="/home/CarlosRibeiro/Desktop/Layout3.png"
       xml:space="preserve"
       style="font-size:15.92817783px;font-style:normal;font-weight:normal;line-height:125%;letter-spacing:0px;word-spacing:0px;color:#000000;fill:#6eb927;fill-opacity:1;fill-rule:nonzero;stroke:none;stroke-width:3.85548687;marker:none;visibility:visible;display:inline;overflow:visible;enable-background:accumulate;font-family:Sans"
       x="824.66333"
       y="-3363.7524"
       id="text3765"
       sodipodi:linespacing="125%"><tspan
         sodipodi:role="line"
         x="824.66333"
         y="-3363.7524"
         id="tspan3773" /></text>
    <flowRoot
       inkscape:export-ydpi="149.97067"
       inkscape:export-xdpi="149.97067"
       inkscape:export-filename="/home/CarlosRibeiro/Desktop/Layout3.png"
       transform="matrix(1.2360533,0,0,1.2360533,372.23686,-3663.8046)"
       style="font-size:40px;font-style:normal;font-weight:normal;line-height:125%;letter-spacing:0px;word-spacing:0px;fill:#000000;fill-opacity:1;stroke:none;font-family:Sans"
       id="flowRoot4175"
       xml:space="preserve"><flowRegion
         id="flowRegion4177"><rect
           y="931.19714"
           x="0"
           height="208.09729"
           width="398.85315"
           id="rect4179" /></flowRegion><flowPara
         id="flowPara4181" /></flowRoot>    <text
       xml:space="preserve"
       style="font-size:807.74060059px;font-style:normal;font-weight:normal;line-height:125%;letter-spacing:0px;word-spacing:0px;fill:#000000;fill-opacity:1;stroke:none;font-family:Sans"
       x="-5881.209"
       y="2380.0093"
       id="text4587"
       sodipodi:linespacing="125%"
       inkscape:export-filename="/home/CarlosRibeiro/Desktop/Layout3.png"
       inkscape:export-xdpi="149.97067"
       inkscape:export-ydpi="149.97067"><tspan
         sodipodi:role="line"
         x="-5881.209"
         y="2380.0093"
         id="tspan4591" /></text>
    <path
       sodipodi:type="arc"
       style="color:#000000;fill:none;stroke:none;stroke-width:1;marker:none;visibility:visible;display:inline;overflow:visible;enable-background:accumulate"
       id="path7423"
       sodipodi:cx="884.41559"
       sodipodi:cy="315.63318"
       sodipodi:rx="71.767273"
       sodipodi:ry="72.838425"
       d="m 956.18286,315.63318 c 0,40.22755 -32.1313,72.83842 -71.76727,72.83842 -39.63597,0 -71.76727,-32.61087 -71.76727,-72.83842 0,-40.22755 32.1313,-72.83843 71.76727,-72.83843 39.63597,0 71.76727,32.61088 71.76727,72.83843 z"
       transform="matrix(-0.46042818,17.14463,-17.14463,-0.46042818,8551.6382,-15627.001)"
       inkscape:export-filename="/home/CarlosRibeiro/Desktop/Layout3.png"
       inkscape:export-xdpi="149.97067"
       inkscape:export-ydpi="149.97067" />
    <text
       inkscape:export-ydpi="149.97067"
       inkscape:export-xdpi="149.97067"
       inkscape:export-filename="/home/CarlosRibeiro/Desktop/Layout3.png"
       sodipodi:linespacing="125%"
       id="text6219-3-3"
       y="-3414.0146"
       x="-13907.679"
       style="font-size:19.69123459px;font-style:normal;font-weight:normal;line-height:125%;letter-spacing:0px;word-spacing:0px;fill:#000000;fill-opacity:1;stroke:none;font-family:Sans"
       xml:space="preserve"><tspan
         id="tspan6221-5-2"
         y="-3414.0146"
         x="-13907.679"
         sodipodi:role="line" /></text>
    <text
       inkscape:export-ydpi="149.97067"
       inkscape:export-xdpi="149.97067"
       inkscape:export-filename="/home/CarlosRibeiro/Desktop/Layout3.png"
       y="-4137.2798"
       x="-13004.43"
       xml:space="preserve"
       style="font-size:90.93436432px;font-style:normal;font-variant:normal;font-weight:bold;font-stretch:normal;text-align:center;line-height:125%;letter-spacing:0px;word-spacing:0px;text-anchor:middle;fill:#000000;fill-opacity:1;stroke:none;font-family:FifthLeg;-inkscape-font-specification:FifthLeg Bold"
       id="text4225-6"
       sodipodi:linespacing="125%" />
    <text
       inkscape:export-ydpi="149.97067"
       inkscape:export-xdpi="149.97067"
       inkscape:export-filename="/home/CarlosRibeiro/Desktop/Layout3.png"
       xml:space="preserve"
       style="font-size:10.6187849px;font-style:normal;font-weight:normal;line-height:125%;letter-spacing:0px;word-spacing:0px;color:#000000;fill:#6eb927;fill-opacity:1;fill-rule:nonzero;stroke:none;stroke-width:3.85548687;marker:none;visibility:visible;display:inline;overflow:visible;enable-background:accumulate;font-family:Sans"
       x="-12552.951"
       y="-3584.5642"
       id="text3761-1"
       sodipodi:linespacing="125%"><tspan
         sodipodi:role="line"
         id="tspan3763-0"
         x="-12552.951"
         y="-3584.5642" /></text>
    <text
       inkscape:export-ydpi="149.97067"
       inkscape:export-xdpi="149.97067"
       inkscape:export-filename="/home/CarlosRibeiro/Desktop/Layout3.png"
       xml:space="preserve"
       style="font-size:15.92817783px;font-style:normal;font-weight:normal;line-height:125%;letter-spacing:0px;word-spacing:0px;color:#000000;fill:#6eb927;fill-opacity:1;fill-rule:nonzero;stroke:none;stroke-width:3.85548687;marker:none;visibility:visible;display:inline;overflow:visible;enable-background:accumulate;font-family:Sans"
       x="-12552.001"
       y="-3590.0154"
       id="text3765-0"
       sodipodi:linespacing="125%"><tspan
         sodipodi:role="line"
         x="-12552.001"
         y="-3590.0154"
         id="tspan3773-3" /></text>
    <flowRoot
       inkscape:export-ydpi="149.97067"
       inkscape:export-xdpi="149.97067"
       inkscape:export-filename="/home/CarlosRibeiro/Desktop/Layout3.png"
       transform="matrix(1.2360533,0,0,1.2360533,-13004.428,-3890.0676)"
       style="font-size:40px;font-style:normal;font-weight:normal;line-height:125%;letter-spacing:0px;word-spacing:0px;fill:#000000;fill-opacity:1;stroke:none;font-family:Sans"
       id="flowRoot4175-0"
       xml:space="preserve"><flowRegion
         id="flowRegion4177-1"><rect
           y="931.19714"
           x="0"
           height="208.09729"
           width="398.85315"
           id="rect4179-1" /></flowRegion><flowPara
         id="flowPara4181-8" /></flowRoot>    <text
       xml:space="preserve"
       style="font-size:807.74060059px;font-style:normal;font-weight:normal;line-height:125%;letter-spacing:0px;word-spacing:0px;fill:#000000;fill-opacity:1;stroke:none;font-family:Sans"
       x="-19257.873"
       y="2153.7461"
       id="text4587-1"
       sodipodi:linespacing="125%"
       inkscape:export-filename="/home/CarlosRibeiro/Desktop/Layout3.png"
       inkscape:export-xdpi="149.97067"
       inkscape:export-ydpi="149.97067"><tspan
         sodipodi:role="line"
         x="-19257.873"
         y="2153.7461"
         id="tspan4591-8" /></text>
    <text
       transform="matrix(20.329554,5.7165783,-5.7165783,20.329554,-2390.7553,-10031.854)"
       sodipodi:linespacing="125%"
       id="text8930"
       style="font-size:40px;font-style:normal;font-weight:normal;line-height:125%;letter-spacing:0px;word-spacing:0px;fill:#000000;fill-opacity:1;stroke:none;font-family:Sans"
       xml:space="preserve"
       x="10705.212"
       y="912.92065">Power to the Geeko</text>
    <text
       xml:space="preserve"
       style="font-size:932.13214111px;font-style:normal;font-weight:normal;line-height:125%;letter-spacing:0px;word-spacing:0px;fill:#008000;fill-opacity:1;stroke:none;font-family:Sans"
       x="2572.5481"
       y="695.99982"
       id="text20050"
       sodipodi:linespacing="125%"
       transform="matrix(0,-1,1,0,0,0)"><tspan
         sodipodi:role="line"
         id="tspan20052"
         x="2572.5481"
         y="695.99982"
         style="font-style:normal;font-variant:normal;font-weight:bold;font-stretch:normal;fill:#008000;font-family:FifthLeg;-inkscape-font-specification:FifthLeg Bold">opeSUSE Conference 2013</tspan></text>
    <text
       xml:space="preserve"
       style="font-size:647.99865723px;font-style:normal;font-weight:normal;line-height:125%;letter-spacing:0px;word-spacing:0px;fill:#008000;fill-opacity:1;stroke:none;font-family:Sans"
       x="3543.8557"
       y="1391.017"
       id="text20059"
       sodipodi:linespacing="125%"
       transform="matrix(0,-1,1,0,0,0)"><tspan
         sodipodi:role="line"
         id="tspan20061"
         x="3543.8557"
         y="1391.017"
         style="font-style:normal;font-variant:normal;font-weight:bold;font-stretch:normal;fill:#008000;font-family:FifthLeg;-inkscape-font-specification:FifthLeg Bold">18-22 July @ Thessaloniki, Greece</tspan></text>
    <path
       style="color:#000000;fill:#008000;fill-opacity:1;fill-rule:nonzero;stroke:#ffffff;stroke-width:30.34559631;stroke-linecap:butt;stroke-linejoin:miter;stroke-miterlimit:4;stroke-opacity:1;stroke-dasharray:none;stroke-dashoffset:0;marker:none;visibility:visible;display:inline;overflow:visible;enable-background:accumulate"
       d="m 5595.1871,-12995.218 c 0,455.041 0,910.084 0,1365.126 -455.0421,0 -910.0843,0 -1365.1264,0 0,-455.042 0,-910.085 0,-1365.126 455.0421,0 910.0843,0 1365.1264,0 z"
       id="path5804"
       inkscape:connector-curvature="0" />
    <path
       style="color:#000000;fill:#008000;fill-opacity:1;fill-rule:nonzero;stroke:#ffffff;stroke-width:30.34559631;stroke-linecap:butt;stroke-linejoin:miter;stroke-miterlimit:4;stroke-opacity:1;stroke-dasharray:none;stroke-dashoffset:0;marker:none;visibility:visible;display:inline;overflow:visible;enable-background:accumulate"
       d="m 6976.2569,-12995.218 c 0,455.041 0,910.084 0,1365.126 -455.0422,0 -910.0843,0 -1365.1264,0 0,-455.042 0,-910.085 0,-1365.126 455.0421,0 910.0842,0 1365.1264,0 z"
       id="path5806"
       inkscape:connector-curvature="0" />
    <path
       style="color:#000000;fill:#008000;fill-opacity:1;fill-rule:nonzero;stroke:#ffffff;stroke-width:30.34559631;stroke-linecap:butt;stroke-linejoin:miter;stroke-miterlimit:4;stroke-opacity:1;stroke-dasharray:none;stroke-dashoffset:0;marker:none;visibility:visible;display:inline;overflow:visible;enable-background:accumulate"
       d="m 2831.3767,-12995.218 c 0,455.041 0,910.084 0,1365.126 -455.0421,0 -910.0842,0 -1365.1264,0 0,-455.042 0,-910.085 0,-1365.126 455.0422,0 910.0843,0 1365.1264,0 z"
       id="path5808"
       inkscape:connector-curvature="0" />
    <path
       style="color:#000000;fill:#008000;fill-opacity:1;fill-rule:nonzero;stroke:#ffffff;stroke-width:30.34559631;stroke-linecap:butt;stroke-linejoin:miter;stroke-miterlimit:4;stroke-opacity:1;stroke-dasharray:none;stroke-dashoffset:0;marker:none;visibility:visible;display:inline;overflow:visible;enable-background:accumulate"
       d="m 4212.4463,-12995.218 c 0,455.041 0,910.084 0,1365.126 -455.0421,0 -910.0842,0 -1365.1263,0 0,-455.042 0,-910.085 0,-1365.126 455.0421,0 910.0842,0 1365.1263,0 z"
       id="path5810"
       inkscape:connector-curvature="0" />
    <path
       style="color:#000000;fill:#008000;fill-opacity:1;fill-rule:nonzero;stroke:#ffffff;stroke-width:30.34559631;stroke-linecap:butt;stroke-linejoin:miter;stroke-miterlimit:4;stroke-opacity:1;stroke-dasharray:none;stroke-dashoffset:0;marker:none;visibility:visible;display:inline;overflow:visible;enable-background:accumulate"
       d="m 5595.1871,-11595.417 c 0,455.042 0,910.084 0,1365.126 -455.0421,0 -910.0843,0 -1365.1264,0 0,-455.042 0,-910.084 0,-1365.126 455.0421,0 910.0843,0 1365.1264,0 z"
       id="path5814"
       inkscape:connector-curvature="0" />
    <path
       style="color:#000000;fill:#008000;fill-opacity:1;fill-rule:nonzero;stroke:#ffffff;stroke-width:30.34559631;stroke-linecap:butt;stroke-linejoin:miter;stroke-miterlimit:4;stroke-opacity:1;stroke-dasharray:none;stroke-dashoffset:0;marker:none;visibility:visible;display:inline;overflow:visible;enable-background:accumulate"
       d="m 6976.2569,-11595.417 c 0,455.042 0,910.084 0,1365.126 -455.0422,0 -910.0843,0 -1365.1264,0 0,-455.042 0,-910.084 0,-1365.126 455.0421,0 910.0842,0 1365.1264,0 z"
       id="path5816"
       inkscape:connector-curvature="0" />
    <path
       style="color:#000000;fill:#008000;fill-opacity:1;fill-rule:nonzero;stroke:#ffffff;stroke-width:30.34559631;stroke-linecap:butt;stroke-linejoin:miter;stroke-miterlimit:4;stroke-opacity:1;stroke-dasharray:none;stroke-dashoffset:0;marker:none;visibility:visible;display:inline;overflow:visible;enable-background:accumulate"
       d="m 4212.4463,-11595.417 c 0,455.042 0,910.084 0,1365.126 -455.0421,0 -910.0842,0 -1365.1263,0 0,-455.042 0,-910.084 0,-1365.126 455.0421,0 910.0842,0 1365.1263,0 z"
       id="path5820"
       inkscape:connector-curvature="0" />
    <path
       inkscape:connector-curvature="0"
       id="path6019"
       d="m 5319.4209,932.14429 c 0,0 15.0196,-22.7831 -25.4853,-15.6151 -39.4647,6.984 -48.3206,2.1065 -48.3206,-26.6105 0,-19.3391 12.9213,-44.6103 28.7145,-56.1583 36.1298,-26.4189 44.8631,-174.2048 12.7892,-216.4198 -12.5482,-16.5157 -23.0668,-40.8877 -23.3744,-54.1603 -0.3065,-13.2725 -36.1403,-82.7402 -79.6292,-154.3727 -78.718,-129.6594 -79.07,-130.9638 -78.642,-292.15274 0.2358,-89.05146 8.078,-195.04775 17.4254,-235.5473 23.0087,-99.68352 -34.3158,-236.67868 -111.1755,-265.68997 -37.7418,-14.24577 -48.532,-27.34571 -40.266,-48.88529 12.7395,-33.1993 -41.287,-305.85888 -60.6045,-305.85888 -37.3264,0 -69.9974,302.96881 -35.004,324.59603 9.2427,5.71184 12.5873,21.375 7.4332,34.80653 -5.1553,13.43174 -0.2706,41.42595 10.8515,62.20933 11.1233,20.78337 44.2225,118.00484 73.5534,216.04762 52.4082,175.17849 53.0846,182.36966 39.1529,416.04757 -7.7978,130.7836 -14.5894,281.2774 -15.0935,334.4307 -0.8648,91.1267 -3.4229,96.6425 -44.8441,96.6425 -38.6762,0 -44.546,-8.4037 -49.086,-70.2855 -5.9045,-80.4757 -46.3544,-178.0708 -78.4611,-189.3049 -16.1843,-5.6629 -14.4508,-16.2254 6.7186,-40.9485 20.902,-24.409 28.8488,-70.9018 29.723,-173.888 1.1279,-132.8444 -2.9111,-148.23569 -73.4899,-280.0216203 C 4662.1397,-233.373 4647.1086,-214.37264 4644.3666,165.36239 c -1.6469,227.9795 1.6141,258.3193 30.0062,279.0789 23.0816,16.8784 26.0466,26.8805 10.7671,36.3241 -16.2182,10.0232 -15.8186,19.5354 1.7304,41.1979 17.1685,21.1925 17.3714,24.8937 0.8203,14.9496 -28.4123,-17.0701 -62.5939,69.3125 -51.1387,129.2361 8.8294,46.1855 -13.9351,105.6617 -40.4414,105.6617 -42.7564,0 -67.2069,-56.4636 -66.3253,-153.1691 0.5095,-55.8887 -7.6203,-129.2905 -18.0648,-163.1155 -23.8206,-77.1372 -56.2125,-293.069 -58.6988,-391.28886 l -1.8815,-74.35222 -16.0184,71.11165 c -15.5333,68.95654 -17.9286,70.88853 -79.0532,63.7526 -54.8024,-6.39786 -61.8443,-3.06351 -53.9197,25.53083 28.1131,101.445 50.0828,220.4901 42.1538,228.419 -12.9445,12.9438 -117.8276,-43.655 -117.8276,-63.5836 0,-9.0798 -24.3489,-44.2413 -54.11,-78.1367 l -54.1101,-61.6278 36.1203,-66.37609 c 47.1854,-86.71149 88.1605,-201.23578 114.907,-321.16052 l 21.553,-96.64252 -159.5722,-5.15139 c -218.4539,-7.05249 -225.2402,-4.25947 -274.8576,113.11389 -46.4755,109.94202 -51.0831,139.86597 -28.876,187.53619 9.8756,21.1988897 5.2477,46.61931 -13.7718,75.64667 -19.9417,30.43482 -27.16,74.12317 -23.7566,143.78537 5.4306,111.1596 -6.9765,143.9954 -54.4093,143.9954 -50.3956,0 -68.9652,-37.1737 -73.4064,-146.9484 -2.9399,-72.6634 3.0687,-106.5257 20.9047,-117.81388 16.999,-10.75847 18.0902,-15.92774 3.4007,-16.1105 -11.8962,-0.14058 -26.5908,-20.03678 -32.6548,-44.19741 -6.0638,-24.16063032 -16.9969,-43.92851 -24.2955,-43.92851 -25.2868,0 -105.9196,92.78388 -105.9196,121.88133 0,30.34347 -32.0743,71.40367 -55.7771,71.40367 -24.8721,0 -69.2015,-106.65427 -58.4322,-140.58504 5.8306,-18.37036 1.8172,-66.02144 -8.9186,-105.89121 -14.6512,-54.41026 -14.3817,-78.68177 1.0805,-97.31301 11.3305,-13.65234 27.2647,-20.70387 35.4092,-15.67023 8.1448,5.03374 28.1849,-11.2627 44.5336,-36.214 29.1188,-44.44116 28.5076,-46.64923 -29.978,-108.27253 -32.8367,-34.5983 -94.7422,-85.52717 -137.5679,-113.17541 -93.169,-60.14915 -88.7034,-62.74007 -257.465,149.38507 -81.6034,102.57148 -106.3291,145.85296 -95.3625,166.92797 27.3128,52.48855 88.0509,258.93079 88.0509,299.27569 0,21.9549 16.3217,60.668 36.2707,86.0289 31.766,40.3839 32.9763,48.5199 9.7444,65.5075 -23.1539,16.9304 -21.1332,28.1745 15.8951,88.4458 23.3317,37.9771 42.6681,74.9797 42.9695,82.228 0.9682,23.2875 -136.6551,14.0356 -161.5511,-10.8604 -13.2214,-13.2214 -41.4611,-29.5684 -62.7548,-36.3269 -43.5145,-13.8109 -45.9535,-23.7392 -21.5796,-87.8469 9.8219,-25.8327 10.3713,-45.0724 1.2879,-45.0724 -20.9802,0 -71.1374,-101.826 -71.1374,-144.4193 0,-48.11233 -254.5624,-498.09621 -327.164,-578.31999 -16.3406,-18.0562 -39.938,-32.82933 -52.4388,-32.82933 -23.2444,0 -200.2523,334.93497 -200.2523,378.9177 0,13.36991 -24.6761,85.79481 -54.8361,160.94436 -39.041,97.27916 -56.0243,170.66476 -58.9617,254.77656 -2.2692,64.9777 -13.1066,128.9621 -24.0827,142.1877 -10.9764,13.2256 -14.324,29.6793 -7.4396,36.5637 19.9368,19.9369 -33.962,45.1867 -97.0824,45.4801 -55.8588,0.2601 -57.5246,-1.75 -47.1787,-56.8977 10.4509,-55.708 7.9839,-58.4681 -96.7042,-108.1862 -59.0856,-28.0609 -114.997,-65.1616 -124.2475,-82.4458 -11.7582,-21.9707 -41.8994,-33.0362 -100.1772,-36.7774 l -83.3588,-5.3514 5.0862,-114.2139 c 2.7976,-62.81751 13.1252,-173.51712032 22.9507,-245.999 52.7266,-388.96078 53.1715,-423.76403 6.4367,-503.51087 -33.9672,-57.96064 -43.2592,-98.37025 -43.2592,-188.12707 0,-111.21915 -1.2881,-114.46088 -47.631,-119.87062 -39.5649,-4.61843 -49.9884,-16.98585 -61.5535,-73.03261 -11.6751,-56.58082 -6.6212,-79.27282 31.307,-140.57092 24.8763,-40.2041 40.3931,-55.9727 34.4818,-35.0415 -5.9113,20.9314 -2.5193,43.1425 7.5382,49.3583 10.0574,6.2159 18.286,30.136 18.286,53.1559 0,23.0198 7.4472,46.45692 16.5491,52.0822 9.9692,6.16139 13.2388,-30.1052 8.2234,-91.2126 -4.579,-55.7922 -15.9166,-104.0551 -25.1943,-107.2509 -10.5603,-3.6374 -10.1392,-18.3844 1.1264,-39.4331 9.8969,-18.4926 16.9907,-126.5774 15.7641,-240.1888 -1.8163,-168.204 3.6866,-217.9873 29.6308,-268.0657 41.9512,-80.9751 64.5823,-456.1879 36.3623,-602.8684 -16.4644,-85.5775 -15.4851,-104.665 6.0563,-118.0436 19.3163,-11.9966 29.6587,-4.2126 41.6543,31.3509 12.7386,37.7665 18.0555,41.3365 26.357,17.6984 5.7196,-16.2864 12.1058,101.5926 14.1913,261.9535 2.0859,160.3611 7.339,295.1119 11.6738,299.4467 4.3347,4.3349 23.3155,-0.3777 42.1793,-10.4739 36.1847,-19.3658 140.4382,6.9081 166.1208,41.8653 19.2764,26.2379 16.1,114.2138 -4.1238,114.2138 -9.6642,0 -17.4381,13.8375 -17.2752,30.7499 0.209,21.7192 10.3493,15.0641 34.5282,-22.6613 24.6691,-38.4902 37.518,-100.1546 45.9939,-220.7338 l 11.7616,-167.3227 -55.2026,-62.8723 c -44.8858,-51.1219 -50.1284,-64.8192 -28.0534,-73.2901 15.5147,-5.9535 31.4347,0.7502 37.1496,15.6426 16.3316,42.5594 41.2529,29.6941 43.1206,-22.2603 1.4689,-40.871 5.8198,-36.1299 28.2163,30.7497 16.9271,50.5472 27.3928,155.1355 29.0126,289.9277 2.4629,204.9831 0.9576,213.9627 -54.0225,322.3814 -53.2338,104.9739 -55.4459,116.6998 -37.6624,199.6221 10.5262,49.0817 14.0104,143.6538 7.8673,213.5452 -6.0643,68.9964 -10.544,159.05328 -9.9547,200.12639 0.8662,60.43318 -4.9287,74.68392 -30.3826,74.70749 -28.5699,0.0349 -31.1264,18.15029 -27.8838,197.67778 16.6727,923.09693 19.1178,950.32883 81.2475,904.89863 26.0424,-19.0426 27.5698,-30.7485 10.4276,-79.9225 -17.6815,-50.72137 -13.2861,-74.86963 36.7493,-201.89886 31.2581,-79.35774 63.7665,-151.7985 72.2404,-160.97945 8.4739,-9.18106 15.6889,-52.67026 16.0332,-96.64253 0.6554,-83.76149 31.0174,-224.52097 74.0965,-343.52026 13.9944,-38.65692 22.0392,-80.09863 17.8774,-92.09269 -4.1619,-11.99406 4.4194,-33.79378 19.0693,-48.44376 22.6178,-22.61767 25.5571,-83.7486 19.4815,-405.17054 -3.9354,-208.1935 -11.6984,-385.8853 -17.2513,-394.87 -5.5531,-8.9848 -0.3654,-34.2905 11.5259,-56.2347 25.1421,-46.3937 43.1047,-136.2037 71.239,-356.1833 26.0843,-203.9515 24.5085,-299.8416 -5.5575,-338.1728 -21.9265,-27.9548 -21.3146,-28.5798 6.5712,-6.7103 35.2595,27.6527 38.7806,16.3694 11.9992,-38.4493 -16.0117,-32.7741 -13.5021,-31.9637 17.1806,5.548 l 35.9313,43.9284 2.4291,-43.9284 c 1.6659,-30.1242 4.954,-34.2653 10.4649,-13.1785 9.3328,35.7139 34.7185,40.6289 45.3756,8.7858 4.0431,-12.0804 3.923,0.1056 -0.267,27.0822 -7.1581,46.0854 -4.6068,48.3088 42.2589,36.83 27.4321,-6.7191 54.7944,-19.7113 60.8053,-28.8718 6.0107,-9.1605 22.958,0.5183 37.6604,21.5095 19.2546,27.4898 29.3256,31.6765 36.0054,14.9681 6.2194,-15.5573 9.7304,-13.2516 10.6607,7.0017 0.9752,21.2353 10.514,26.7778 32.1372,18.6741 25.7506,-9.6506 27.2137,-7.1673 8.999,15.2733 -11.9626,14.7384 -22.712,53.7776 -23.8873,86.7538 -4.079,114.4561 33.3852,429.3753 60.2135,506.1481 22.5631,64.5669 24.3572,117.7353 10.9686,325.0702 -8.8034,136.3325 -16.1754,285.4362 -16.3822,331.3414 -0.2583,57.24811 -7.2749,82.0843 -22.3403,79.07119 -40.0413,-8.00837 -34.0095,91.7594 12.9826,214.73645 25.4186,66.51974 57.6058,130.39782 71.527,141.95151 13.9214,11.55349 25.913,45.73648 26.6482,75.96189 0.7346,30.22552 11.6994,82.63045 24.3646,116.45531 26.3032,70.24676 21.4749,77.98961 98.6145,-158.14235 29.9929,-91.81035 61.9971,-175.96188 71.1204,-187.00323 9.9525,-12.0448 11.6897,-113.9645 4.3429,-254.78477 -6.7346,-129.0904 -10.9742,-260.1735 -9.4211,-291.2965 1.5534,-31.1227 -12.986,-96.6971 -32.3093,-145.721 -50.7079,-128.6471 -87.6427,-362.8987 -75.6065,-479.5189 6.5894,-63.8447 2.9969,-108.1968 -10.0356,-123.8999 -11.1642,-13.4523 -15.3629,-37.3216 -9.3299,-53.0429 12.7932,-33.3393 94.9374,-39.0434 95.3346,-6.62 0.1828,14.8643 6.2341,13.4444 18.7224,-4.3928 13.7721,-19.6708 14.8183,-15.2133 4.1238,17.5714 -24.705,75.735 -10.6863,367.3188 19.9045,414.0062 14.9962,22.8871 27.2657,52.7836 27.2657,66.4364 0,13.6532 11.1567,34.083 24.7926,45.3999 37.7572,31.3358 53.2792,-2.9711 60.8218,-134.4285 1.3863,-24.1771 22.0234,-49.3135 54.1054,-65.9036 66.1238,-34.1942 137.311,-6.4363 153.0518,59.6791 5.9331,24.9199 18.7667,55.427 28.5192,67.7934 12.0596,15.292 11.0986,37.0432 -3.0044,67.9957 -18.0146,39.538 -17.012,44.082 7.6394,34.6225 15.6067,-5.9889 35.6361,-10.8889 44.5099,-10.8889 8.8738,0 16.1407,-9.8838 16.1481,-21.9641 0.013,-12.0804 22.4233,-69.407 49.8125,-127.3924 52.7499,-111.6766 106.1319,-306.7168 114.6156,-418.7682 8.0076,-105.7633 68.2702,-127.1343 116.6291,-41.3602 24.4029,43.2832 23.6268,48.4865 -10.8286,72.62 -24.9469,17.4736 -40.9658,53.5726 -48.8609,110.1098 -6.4603,46.2624 -45.4114,199.4228 -86.5581,340.3563 -52.7151,180.5576 -72.7031,278.3556 -67.6724,331.1084 l 7.1395,74.8652 48.9464,-73.9343 c 26.9206,-40.6638 62.8023,-104.661 79.7373,-142.2159 22.4826,-49.8572 41.4168,-68.2819 70.1707,-68.2819 61.1033,0 63.6624,44.1608 5.7556,99.3175 -52.588,50.0904 -104.779,148.1966 -127.1077,238.9313 -10.9696,44.5754 -7.8268,48.3213 40.5434,48.3213 28.8392,0 87.5164,-11.9106 130.3941,-26.468 42.8777,-14.5573 89.5878,-22.0054 103.8006,-16.5515 19.7647,7.5843 23.8145,-0.6853 17.2225,-35.1696 -20.9566,-109.6275 69.0746,-207.8704 166.7603,-181.9699 58.1626,15.4213 121.1699,87.1571 102.7424,116.9741 -13.4657,21.7877 34.1383,39.2662 73.0628,26.8263 25.7739,-8.2375 105.3101,-41.8844 124.0091,-52.4611 2.9703,-1.6798 -30.9617,-42.532 -75.4072,-90.7809 -48.1854,-52.3103 -101.4096,-91.8453 -131.8388,-97.9312 -69.2342,-13.8469 -101.0374,-73.4572 -62.1298,-116.4507 37.7026,-41.6601 91.6932,-26.6195 123.2079,34.3223 13.6148,26.3293 46.2224,61.9369 72.4593,79.1283 80.8374,52.9672 200.0909,170.3639 200.0909,196.9762 0,13.8894 -24.4018,45.7866 -54.2263,70.8824 -29.8255,25.0959 -61.2578,64.121 -69.8505,86.7224 -8.5938,22.6015 -26.8341,41.0936 -40.5365,41.0936 -37.968,0 -48.8207,45.7094 -55.9589,235.67948 -3.5992,95.79868 -14.7468,182.38162 -24.7718,192.40642 -10.025,10.02458 -18.2266,36.41313 -18.2266,58.64085 0,33.0102 9.467,40.41415 51.6768,40.41415 28.4228,0 55.8933,6.82247 61.0474,15.16117 5.1531,8.33849 45.1558,25.18025 88.8931,37.42631 43.7383,12.24585 79.5245,29.14469 79.5245,37.55294 0,8.40825 8.4723,15.28781 18.8292,15.28781 10.3558,0 17.087,-17.79099 14.9582,-39.53554 -2.1289,-21.74464 0.9502,-51.39629 6.8423,-65.89269 13.6781,-33.6551 50.1291,-324.24826 60.0611,-478.8196 5.0146,-78.0489 1.1194,-118.6067 -11.3928,-118.6067 -29.0983,0 -22.6059,-87.581 7.3443,-99.0739 14.4963,-5.5629 26.3574,-28.2168 26.3574,-50.3421 0,-22.1252 24.7898,-98.3737 55.0899,-169.4409 30.2991,-71.067 60.7652,-172.7021 67.7015,-225.8555 6.9364,-53.1533 14.3303,-84.7817 16.4307,-70.2854 2.7632,19.0701 7.9934,16.6409 18.9201,-8.7857 15.1008,-35.1427 15.1008,-35.1427 17.5712,0 2.4703,35.1427 2.4703,35.1427 17.5713,0 15.1008,-35.1427 15.1008,-35.1427 16.605,0 1.2515,29.2333 4.3688,30.7108 18.5375,8.7857 23.7855,-36.8058 23.4378,8.9197 -0.406,53.4739 -15.0259,28.0754 -12.8611,31.9827 13.1792,23.7926 19.4602,-6.1208 12.675,6.0916 -18.0754,32.531 -34.0294,29.2598 -65.226,90.2426 -101.0355,197.5015 -28.4915,85.3442 -51.8035,157.1091 -51.8035,159.4777 0,2.3684 31.7145,0.053 70.4783,-5.1471 53.3596,-7.1569 89.6373,0.7099 149.3561,32.3918 74.716,39.6367 104.7434,85.2043 56.9144,86.3679 -28.5423,0.6941 32.4417,37.0722 105.6282,63.0096 70.99,25.1584 81.4864,10.2359 48.4391,-68.8589 -26.4568,-63.3189 -57.665,-366.9571 -47.177,-458.9966 4.3761,-38.3975 9.859,-45.0588 21.6958,-26.357 23.8183,37.6355 20.8058,-6.6061 -9.0653,-133.1148 -22.7442,-96.3278 -21.9621,-116.3966 9.06,-232.4976 37.7967,-141.4483 42.6644,-208.115 16.3831,-224.3578 -9.6645,-5.9729 -17.5712,-17.6006 -17.5712,-25.8393 0,-23.427 53.7284,-9.6675 71.4213,18.2901 12.5988,19.909 16.0638,17.8297 16.7002,-10.0223 0.7717,-33.763 1.5539,-33.8526 19.8936,-2.2845 15.4138,26.5308 22.0267,28.2226 34.339,8.7856 12.0366,-19.0011 15.306,-19.2267 15.5185,-1.0719 0.1405,12.6507 8.1763,18.1143 17.8408,12.1415 31.4808,-19.4565 18.4803,23.7087 -14.2543,47.3251 -46.6991,33.6911 -53.0075,49.4527 -74.0363,184.985 -16.696,107.6147 -14.8705,135.869 14.3874,222.5307 41.9699,124.3198 64.7037,147.7595 49.9738,51.5257 -6.1868,-40.4189 -3.6129,-93.5711 5.7187,-118.1159 33.1234,-87.1205 181.21,-76.0258 204.1299,15.2931 8.9509,35.6627 22.164,44.6325 66.378,45.0604 43.0608,0.4165 48.9612,4.181 26.8289,17.1142 -24.4781,14.3041 -28.4357,39.1804 -17.7986,111.8953 4.484,30.6501 56.2621,-30.7035 92.7492,-109.901 47.5839,-103.283 56.8985,-282.9949 19.5099,-376.4374 -24.2476,-60.5997 -24.2676,-70.3401 -0.2008,-94.4078 55.7199,-55.7198 150.7999,31.0333 100.473,91.6736 -16.3514,19.7021 -16.2394,50.8114 0.5021,139.5362 11.8494,62.7997 17.0543,125.8835 11.5661,140.1863 -5.4892,14.3029 2.2695,47.9942 17.2414,74.87 22.6208,40.6051 25.7401,42.1822 18.456,9.3292 -4.8201,-21.7446 -1.9555,-39.5357 6.3655,-39.5357 8.3222,0 20.3227,27.675 26.6682,61.4998 11.8082,62.9437 31.7281,78.6166 50.2497,39.5356 5.725,-12.0803 6.3021,17.2977 1.2811,65.2844 -19.7814,189.0877 113.0952,447.7875 241.6296,470.4338 26.5761,4.6824 48.3206,6.1713 48.3206,3.3086 0,-2.8629 -7.7408,-25.5669 -17.2034,-50.4532 -12.8864,-33.8947 -9.8654,-60.6353 12.0408,-106.5721 24.5837,-51.5523 38.3813,-61.3241 86.594,-61.3241 83.0066,0 146.6088,87.4854 148.1109,203.7293 0.8656,67.0376 4.5188,77.7534 16.4328,48.2079 15.8662,-39.3437 34.8538,-48.1431 143.2051,-66.3653 100.0904,-16.8326 154.7341,-73.7421 236.3146,-246.1089 64.1827,-135.6082 73.9508,-170.7823 66.1466,-238.1763 -6.2418,-53.8963 -3.7249,-71.3331 7.9035,-54.7674 12.9996,18.5182 20.0415,10.7354 29.5804,-32.6924 11.2047,-51.0173 15.3218,-54.1919 39.2491,-30.2655 14.7013,14.702 26.7304,47.0605 26.7304,71.9077 0,24.8473 6.9184,40.9008 15.3747,35.6746 25.3702,-15.6799 17.3757,15.4326 -19.5141,75.9348 -19.1166,31.3533 -53.982,125.27 -77.4791,208.7039 -36.5081,129.6309 -54.4473,163.6009 -123.32,233.5251 -46.8756,47.592 -80.5964,98.1156 -80.5964,120.7592 0,21.563 -10.9202,38.9319 -24.4768,38.9319 -40.0408,0 -43.5016,35.671 -29.1703,300.67814 7.5199,139.05098 10.4616,261.39719 6.5368,271.88042 -3.9247,10.48344 19.6504,58.86389 52.3882,107.51219 47.2614,70.22954 62.0611,113.36114 71.8419,209.367 6.7757,66.50377 19.7804,168.35846 28.8996,226.34395 27.4525,174.54709 39.2606,521.02889 21.1197,619.67769 -14.5206,78.9592 -11.9361,102.8077 17.6146,162.5351 l 34.633,69.9983 z m 725.2596,-23.6709 c 6.6626,-16.9124 15.4096,-166.5347 19.4369,-321.1627 4.0274,-154.628 21.1662,-379.9808 38.0863,-500.7839 16.9212,-120.80314 30.7653,-272.26847 30.7653,-336.58945 0,-64.32119 5.3476,-113.63385 11.8844,-109.58379 6.5356,4.04996 16.8534,-34.25539 22.9272,-85.12328 10.6042,-88.80305 -16.1421,-269.67025 -57.8488,-391.2001 -9.9489,-28.9927 -24.7622,-76.43545 -32.9174,-105.42813 -8.1551,-28.99281 -31.65,-60.15034 -52.2095,-69.23894 -20.5605,-9.0888 -51.0066,-47.4042 -67.6581,-85.1454 -16.6516,-37.7412 -53.4442,-95.0086 -81.7624,-127.2607 -37.3474,-42.5368 -62.6487,-103.7202 -92.135,-222.7953 -63.0442,-254.6021 -133.0342,-355.5513 -133.7984,-192.9844 -0.1755,35.6706 -11.693,118.5972 -25.6111,184.2815 -18.5184,87.3962 -20.3979,132.1656 -7.0082,166.9279 10.0641,26.1262 29.7283,106.7413 43.7002,179.1447 23.7085,122.86667 23.3174,133.1721 -5.8656,154.58547 -36.0842,26.47704 -32.5959,72.53083 11.414,150.71377 17.0459,30.28091 57.3172,102.49906 89.4925,160.48455 32.1743,57.98549 60.4217,108.08056 62.7704,111.32251 2.3498,3.24206 33.1468,-7.80753 68.4383,-24.55426 44.9825,-21.3453 57.3763,-34.64491 41.4551,-44.48472 -17.3069,-10.69623 -15.1833,-16.92454 8.9235,-26.17535 22.5743,-8.66226 46.3376,3.95905 82.9717,44.06782 41.972,45.95368 51.3374,71.77355 51.3374,141.54201 0,46.93441 -4.8001,97.84268 -10.6657,113.12943 -13.586,35.4027 -66.1835,35.87309 -95.2491,0.85218 -19.8396,-23.90545 -26.9027,-22.6741 -62.6667,10.92444 -39.9911,37.56933 -94.2206,40.12971 -169.2665,7.99146 -27.4535,-11.75718 -29.9671,0.15813 -26.3564,124.90734 2.3181,80.10707 -3.3729,140.2504 -13.5808,143.50261 -9.6635,3.07928 -37.8486,-32.01361 -62.632,-77.98432 -24.7834,-45.97051 -54.0518,-86.58021 -65.043,-90.24391 -21.311,-7.10376 -107.218,151.5241 -145.1701,268.05772 -36.6266,112.46214 -33.874,179.53734 11.2004,272.97154 23.1017,47.888 42.0027,95.567 42.0027,105.9536 0,10.3864 24.1354,53.9637 53.6343,96.8381 49.0004,71.22 51.4083,81.1305 27.8775,114.7263 -19.7212,28.1559 -21.5626,48.8026 -7.8591,88.1142 12.6464,36.2777 12.1116,58.3143 -1.8234,75.1048 -10.8463,13.0696 -15.176,35.6062 -9.6223,50.0814 5.5548,14.4752 -3.3001,39.7187 -19.6779,56.0964 32.8392,14.4897 194.3649,-13.0469 528.1094,-11.5831 z m 496.8221,4.0325 c 114.0929,-0.1236 140.8986,-22.7438 83.4641,-70.4103 -14.4963,-12.031 -26.3574,-40.9222 -26.3574,-64.2028 0,-23.2807 -11.3643,-46.6894 -25.2548,-52.0196 -20.7181,-7.9503 -23.3512,-43.3615 -14.6571,-197.1264 11.1551,-197.3168 10.636,-291.9284 -1.965,-358.2038 -12.5555,-66.03473 -154.1856,-334.42141 -168.0498,-318.45171 -11.988,13.80826 -36.4024,117.53149 -71.7256,304.72101 -14.8018,78.4354 -49.1284,404.9885 -55.8733,531.5338 -1.9862,37.2544 -12.5989,65.8926 -24.4198,65.8926 -11.4985,0 -21.1092,17.791 -21.3565,39.5356 -0.2473,21.7445 -6.1985,62.5318 -13.2247,90.6387 l -12.7744,51.103 121.1869,-11.4424 c 66.6519,-6.2936 170.6058,-11.4991 231.0074,-11.5677 z M 3716.9059,-451.59199 c 0,-53.21843 -8.5693,-112.77247 -19.0428,-132.34246 -14.0923,-26.33137 -13.0436,-50.01347 4.0332,-91.09452 24.1706,-58.14605 23.5852,-83.46752 -4.4302,-191.69079 -10.9431,-42.27264 -27.3415,-65.89258 -45.7466,-65.89258 -15.7789,0 -43.4861,-13.39127 -61.5718,-29.75853 -18.0854,-16.36716 -60.2204,-39.15673 -93.6332,-50.64343 -55.267,-19 -60.7504,-17.8784 -60.7504,12.4256 0,18.32079 -9.4117,48.38098 -20.9148,66.80029 -17.6119,28.20118 -9.156,56.02244 53.5467,176.17772 40.9536,78.47828 97.5948,179.16558 125.8687,223.74923 28.2742,44.58365 60.1653,107.59739 70.869,140.03023 27.4672,83.22567 51.7722,56.10923 51.7722,-57.76076 z m 1401.0034,-144.74433 c 6.7186,-121.9235 3.3994,-184.89326 -10.6391,-201.80764 -23.1197,-27.85743 -11.0208,-74.0517 32.9163,-125.68268 43.3345,-50.92273 57.2019,-97.26196 25.462,-85.08196 -14.0037,5.3738 -25.462,1.5972 -25.462,-8.391 0,-16.4962 -173.6913,-126.1691 -199.8172,-126.1691 -6.0716,0 -11.0397,8.9772 -11.0397,19.9492 0,10.9722 -20.2127,38.682 -44.917,61.5776 -50.0256,46.3623 -43.6135,76.61544 16.2395,76.61544 81.6533,0 102.1314,36.1401 120.2207,212.17036 9.3611,91.08776 17.2086,204.4638 17.439,251.94692 0.4207,86.24966 27.2907,142.93023 55.1037,116.2328 8.1012,-7.77603 19.123,-93.88807 24.4938,-191.35994 z m 447.2108,169.48633 c -12.6085,-12.60841 -20.7921,-13.6459 -20.7921,-2.63563 0,23.45389 20.7793,44.23399 32.5073,32.50704 4.9924,-4.99315 -0.2781,-18.43526 -11.7152,-29.87141 z m -355.1868,-532.11942 c 0,-9.66423 -7.6645,-5.71067 -17.0331,8.78572 -9.3675,14.4964 -17.0332,34.26416 -17.0332,43.9284 0,9.66423 7.6657,5.71067 17.0332,-8.78562 9.3686,-14.4964 17.0331,-34.26416 17.0331,-43.9285 z m -78.257,-499.52729 c -6.5188,-29.6839 -18.5807,-53.9706 -26.8024,-53.9706 -8.2218,0 -7.5928,25.6459 1.3974,56.9909 8.9891,31.345 16.344,60.3378 16.344,64.4283 0,4.0905 4.706,2.7314 10.4583,-3.0204 5.7514,-5.7518 5.1235,-34.7446 -1.3973,-64.4282 z m -1045.7721,-98.9361 c 0,-4.2618 -7.9067,-7.7486 -17.5712,-7.7486 -9.6635,0 -17.5713,8.3738 -17.5713,18.6084 0,10.2346 7.9078,13.7215 17.5713,7.7486 9.6645,-5.9729 17.5712,-14.3467 17.5712,-18.6084 z m 1013.6802,-56.0699 c -4.4195,-16.9125 -8.0357,-3.075 -8.0357,30.7499 0,33.8249 3.6162,47.6623 8.0357,30.7499 4.4196,-16.9124 4.4196,-44.5873 0,-61.4998 z m 602.8858,-144.9637 c 0,-9.6643 -8.3739,-17.5714 -18.6083,-17.5714 -10.2353,0 -13.7215,7.9071 -7.7491,17.5714 5.9733,9.6641 14.3472,17.5712 18.6081,17.5712 4.2621,0 7.7493,-7.9071 7.7493,-17.5712 z m 6.0631,-62.2576 c -5.7227,-14.9133 -14.1729,-23.3464 -18.7794,-18.7405 -4.6056,4.6061 -3.1627,16.8077 3.2082,27.1149 17.326,28.0345 27.4524,22.5882 15.5712,-8.3744 z m -3200.5093,-63.2564 66.7432,3.938 0,-138.1525 c 0,-136.1342 -39.5692,-302.5551 -71.9372,-302.5551 -33.251,0 -86.236,72.2664 -86.9615,118.6067 -0.4164,26.5767 -5.0703,114.4545 -10.3426,195.2841 -7.6527,117.3216 -5.0136,144.1369 13.0845,132.9517 12.4688,-7.706 52.705,-12.239 89.4136,-10.0729 z m 1138.5964,-297.2358 c 0,-10.2346 -7.9071,-13.7215 -17.5714,-7.7486 -22.5156,13.9154 -22.5156,26.3569 0,26.3569 9.6643,0 17.5714,-8.3737 17.5714,-18.6083 z M 1154.8666,696.33679 c -21.1874,-22.553 -38.5227,-56.7757 -38.5227,-76.0503 0,-19.2745 -11.6125,-50.3933 -25.8058,-69.1529 -18.2069,-24.0645 -22.8042,-58.0093 -15.6124,-115.2754 19.6459,-156.4331 -81.37113,-919.83809 -116.80855,-882.7437 -17.29921,18.10821 -166.62681,463.90197 -184.5629,550.98375 -6.96691,33.82485 -31.42665,106.48585 -54.35477,161.46865 -28.26015,67.7691 -38.24563,117.1791 -31.00142,153.4005 8.67954,43.3979 0.38841,65.1606 -44.15429,115.8918 -30.16255,34.353 -54.84077,73.5972 -54.84077,87.2093 0,28.2577 -66.0306,79.456 -102.47465,79.456 -17.50442,0 -22.34711,-17.3253 -17.19004,-61.4997 3.94898,-33.8248 0.5008,-61.4997 -7.66184,-61.4997 -37.96614,0 -101.13459,-89.5571 -101.68586,-144.1652 -0.51651,-51.1573 -48.70269,-136.9767 -76.91019,-136.9767 -5.69907,0 -10.36204,18.2565 -10.36204,40.57 0,56.694 -39.8348,105.0399 -80.23259,97.3749 -42.22138,-8.0109 -54.50616,-98.4778 -24.29508,-178.9116 13.2233,-35.2048 23.59911,-213.96217 28.21999,-486.17418 7.81878,-460.58624 14.36625,-589.16511 32.35435,-635.3746 7.80436,-20.04863 -0.0348,-32.77426 -25.06135,-40.71974 -43.79588,-13.90012 -49.52675,-90.56314 -10.61527,-142.00857 30.82479,-40.754 34.95477,-241.3362 8.48102,-411.8927 -39.02644,-251.4258 -40.38028,-295.57 -10.4662,-341.2251 26.26855,-40.0907 63.52095,-309.3267 74.3489,-537.3431 2.06512,-43.4891 4.54505,-89.9655 5.51047,-103.2811 1.34431,-18.5235 19.29597,-21.4077 76.43411,-12.279 41.07315,6.5618 81.39395,18.6371 89.60242,26.8338 25.69643,25.6608 -6.52468,88.1536 -51.23796,99.376 -42.41206,10.6448 -42.75734,12.4864 -42.75734,228.0294 l 0,217.2979 57.10698,-9.8669 c 31.40875,-5.4269 67.43272,-13.0579 80.05338,-16.9575 12.6204,-3.8998 49.13126,3.8502 81.13531,17.2223 l 58.18891,24.3127 -14.91211,94.1194 c -9.48326,59.8538 -8.5956,96.2648 2.43796,100.0128 9.54261,3.2417 13.04087,12.8668 7.77346,21.3895 -5.26741,8.5228 6.54387,25.5637 26.24756,37.8687 19.70356,12.3051 35.82454,28.8446 35.82454,36.7544 0,7.91 -7.90722,9.4949 -17.57137,3.5219 -9.66427,-5.9728 -17.57136,-2.5851 -17.57136,7.5283 0,10.1134 31.62838,38.3541 70.28547,62.7572 38.65696,24.4031 70.28547,56.1307 70.28547,70.5059 0,74.9768 113.43546,-31.5872 130.51041,-122.6046 15.77055,-84.0644 76.38055,-115.4111 141.12594,-72.9883 24.5566,16.0901 44.6481,45.1349 44.6481,64.5439 0,19.4089 13.8374,40.4812 30.7499,46.8271 16.9125,6.3461 38.6571,21.0314 48.3212,32.6339 9.6643,11.6028 49.1999,27.2458 87.8569,34.7623 l 70.2854,13.6667 -52.7139,12.569 -52.7143,12.5687 61.4999,2.1446 c 64.9408,2.2648 175.7137,59.0892 175.7137,90.138 0,10.0956 -21.7446,2.7706 -48.3214,-16.2777 -50.9083,-36.4872 -73.5221,-42.4648 -144.9637,-38.3185 l -43.9285,2.5495 48.3214,29.9593 c 26.5766,16.4775 48.3212,37.0032 48.3212,45.6123 0,8.6439 -9.8352,8.2135 -21.9642,-0.9612 -12.0804,-9.1376 -40.0641,-17.5448 -62.1864,-18.6824 l -40.2222,-2.0685 44.615,53.0219 c 24.5384,29.1622 44.6151,60.7891 44.6151,70.2822 0,9.4931 7.9071,12.3733 17.5712,6.4005 26.3342,-16.2755 21.1563,39.6626 -7.7832,84.0822 -33.4902,51.4046 -36.2166,175.30206 -11.0588,502.5353 11.4308,148.68329 16.6411,281.12744 11.5785,294.3204 -16.4066,42.75465 -40.8397,25.36132 -31.6805,-22.55255 5.3848,-28.16841 2.0454,-42.30562 -8.4593,-35.81337 -10.4327,6.44776 -18.6344,-25.39567 -20.5611,-79.83024 -4.4743,-126.41994 -19.3477,-128.58402 -22.5448,-3.28021 -1.4584,57.18023 -4.8413,131.63889 -7.5164,165.46375 -12.8621,162.63649 -5.5326,268.88719 22.1961,321.76453 37.2398,71.01365 41.2032,416.95788 5.2751,460.41648 -8.1056,9.8047 -13.3379,64.4789 -11.627,121.4985 3.5029,116.7529 -15.2456,136.1596 -72.5808,75.1291 z M 513.24961,414.46559 c -6.81061,-49.6881 -2.43975,-87.9 12.56183,-109.821 12.65362,-18.4902 28.20866,-72.7826 34.56624,-120.6497 10.53224,-79.29667 9.2532,-83.98171 -14.39149,-52.7141 -14.27304,18.8744 -26.20262,47.1865 -26.50993,62.9156 -0.30743,15.729 -13.34637,39.211 -28.97556,52.1822 -22.13585,18.3711 -26.31064,43.992 -18.88761,115.9136 5.24102,50.7814 14.54173,100.4402 20.66809,110.3529 23.1359,37.4345 31.06012,15.4478 20.96843,-58.1795 z M 414.40904,-49.65125 c 21.41028,-65.23363 43.13661,-125.90792 48.28081,-134.83159 14.4807,-25.11978 15.81625,-120.40655 2.23544,-159.48882 -9.14326,-26.31182 -15.43389,-14.16945 -25.0334,48.32126 -7.05175,45.90527 -19.47235,83.46404 -27.60152,83.46404 -8.12892,0 -18.74394,25.69809 -23.58895,57.10698 -20.96715,135.92625 -29.48151,224.03483 -21.64973,224.03483 4.6362,0 25.94708,-53.37297 47.35735,-118.6067 z m 364.64847,-894.98444 c 24.56441,-44.89093 27.09905,-75.83351 6.21184,-75.83351 -21.48867,0 -55.86128,125.9713 -53.29601,195.3237 2.18846,59.17001 2.25772,59.11694 14.14083,-10.82433 6.56807,-38.65704 21.39251,-87.5567 32.94334,-108.66586 z"
       style="fill:#008000"
       sodipodi:nodetypes="csscscsscscscccsssssscsssccsscsscscssccsscsscsssssssscssssssssssssssssscssssssssssssssssscssssssssssssccsssssssccssssscsssssssssccssssssscssscssssscscsssccssssssssssscssssssssccssssscsssssscssssssscssssssssssccccsccssccsssssccssscsscscsscssccccccscccscccscsscscsccsccscssscsscsscscssccsscssscssccccscssssssssscsscccssscccscssscsccssccsscssccssscsssssscccccccsscsssscssscscsssssssssssssscssssssssccscsccscscscscsccssscssssssscssccccscsscssssssssssssssssssssssssssscsssscsssscssscssssssssssssssscccsssscsscscssssssssssssssssssscsssssssssssssssss" />
    <path
       style="color:#000000;fill:#008000;fill-opacity:1;fill-rule:nonzero;stroke:#ffffff;stroke-width:30.34559631;stroke-linecap:butt;stroke-linejoin:miter;stroke-miterlimit:4;stroke-opacity:1;stroke-dasharray:none;stroke-dashoffset:0;marker:none;visibility:visible;display:inline;overflow:visible;enable-background:accumulate"
       d="m 5595.1871,-10185.151 c 0,455.0425 0,910.0846 0,1365.1263 -455.0421,0 -910.0842,0 -1365.1263,0 0,-455.0417 0,-910.0838 0,-1365.1263 455.0421,0 910.0842,0 1365.1263,0 z"
       id="rect5529"
       inkscape:connector-curvature="0" />
    <path
       style="color:#000000;fill:#008000;fill-opacity:1;fill-rule:nonzero;stroke:#ffffff;stroke-width:30.34559631;stroke-linecap:butt;stroke-linejoin:miter;stroke-miterlimit:4;stroke-opacity:1;stroke-dasharray:none;stroke-dashoffset:0;marker:none;visibility:visible;display:inline;overflow:visible;enable-background:accumulate"
       d="m 6976.2569,-10185.151 c 0,455.0425 0,910.0846 0,1365.1263 -455.0422,0 -910.0843,0 -1365.1264,0 0,-455.0417 0,-910.0838 0,-1365.1263 455.0421,0 910.0842,0 1365.1264,0 z"
       id="rect5533"
       inkscape:connector-curvature="0" />
    <g
       id="g3086"
       transform="matrix(0.76659112,0,0,0.76659112,5055.1738,-4906.3912)"
       style="fill:#ffffff">
      <g
         id="g7369"
         transform="matrix(3.1166572,0,0,3.1166572,466.35598,-6300.0607)"
         style="fill:#ffffff">
        <path
           inkscape:connector-curvature="0"
           style="fill:#ffffff;fill-opacity:1;fill-rule:evenodd;stroke:none"
           id="path3327"
           d="m 338.19283,600.6123 0.66968,-0.063 0.10869,-0.793 c -0.17165,-0.6226 -0.57533,-1.1822 -1.19927,-8.9009 -0.52954,-6.8312 -1.60309,-25.565 7.82609,-34.8549 3.6579,-3.6256 9.24293,-6.8469 13.64802,-7.889 18.06525,-4.4039 41.5148,-1.3541 61.5406,21.8007 10.33323,11.9653 15.40577,17.427 17.94193,19.8701 l 0.87046,0.8088 1.05889,0.7627 c 0.82438,0.4667 34.41853,15.934 34.41853,15.934 l 0.68427,-0.1717 0.0204,-0.7302 c -0.21762,-0.2488 -21.28569,-27.4653 -17.55253,-49.8872 2.95678,-17.8632 17.17797,-16.2605 36.83166,-14.0203 6.42628,0.7313 13.73988,1.5715 21.30256,1.7431 21.11389,0.1247 43.86477,-3.7498 57.88519,-9.8812 9.07132,-3.9673 14.85938,-6.5823 18.48583,-9.8812 1.30545,-1.0735 1.98978,-2.8468 2.6909,-4.7145 l 0.48354,-1.2598 c 0.58993,-1.5099 1.44582,-4.7459 1.82067,-6.5048 0.17165,-0.7772 0.24894,-1.6186 -0.29745,-2.0379 l -1.94397,0.3576 c -6.14578,3.688 -21.53701,10.7214 -35.94429,11.0017 -17.8477,0.3725 -53.8232,-17.9576 -57.57322,-19.9028 l -0.35806,-0.4195 c -0.90407,-2.1483 -6.30295,-14.9233 -7.43926,-17.6143 25.8938,17.0535 47.36543,26.4839 63.81327,27.9464 18.29973,1.6333 32.56913,-8.3555 38.66888,-12.6206 1.19679,-0.8087 2.10093,-1.4625 2.47329,-1.6017 l 0.38928,-0.6383 c -1.01305,-6.4262 -10.58234,-37.5471 -17.80161,-45.0167 -2.00657,-2.0539 -3.60964,-4.0449 -6.84687,-5.9439 -26.15729,-15.2487 -88.25881,-24.4614 -91.16735,-24.8808 l -0.49807,0.1404 -0.18635,0.4354 c 0,0 -0.23447,12.884 -0.26624,14.3164 -6.34898,-2.1166 -52.45233,-17.0085 -95.68131,-18.5172 -36.64272,-1.2914 -86.70155,-3.0346 -157.43922,40.441 l -2.08536,1.3067 c -33.26775,20.7574 -56.23506,46.3392 -68.24735,76.0906 -3.76563,9.3515 -8.8379,30.4679 -3.82853,50.338 2.17841,8.699 6.20868,17.4125 11.65582,25.2241 12.27725,17.6446 32.89427,29.3633 55.09872,31.3385 31.33845,2.7998 55.08407,-11.281 63.53282,-37.6414 5.80365,-18.1898 0,-44.8754 -22.25157,-58.4908 -18.09668,-11.0947 -37.57856,-8.5587 -48.85975,-1.1049 -9.80272,6.5038 -15.35727,16.5868 -15.24862,27.6819 0.2176,19.6524 17.16335,30.1089 29.33188,30.1247 3.54678,0 7.09473,-0.6067 11.10941,-1.9134 1.41685,-0.4364 2.76967,-0.9646 4.24787,-1.8834 l 0.45222,-0.2947 0.2946,-0.1715 -0.10868,0.047 c 2.7852,-1.8677 4.46552,-4.9478 4.46552,-8.247 0,-0.9029 -0.1404,-1.8206 -0.3893,-2.7391 -1.43122,-4.9637 -6.34904,-7.9821 -11.45279,-7.049 l -0.68431,0.1404 -0.93335,0.3105 -1.354,0.4522 c -2.80081,0.7 -4.91755,0.7472 -5.35279,0.7616 -1.43123,-0.094 -8.44992,-2.1927 -8.44992,-9.8799 l 0,-0.094 c 0.0203,-2.8167 1.15193,-4.793 1.77453,-5.8665 2.1626,-3.4235 8.13806,-6.7841 16.21319,-6.0686 10.58234,0.9019 18.20662,6.3332 23.26337,16.5722 4.69992,9.5221 3.47072,21.224 -3.15883,29.8129 -6.58225,8.5129 -18.29847,12.1224 -33.89046,10.425 -15.71627,-1.7263 -29.00409,-10.7672 -36.44227,-24.8492 -7.28206,-13.7557 -7.68719,-30.0789 -1.04206,-42.6195 15.91838,-30.0317 45.96448,-29.721 62.44376,-26.8729 24.39851,4.2164 46.54103,23.7444 56.39079,49.7157 1.57158,4.1391 2.38021,7.4223 3.08009,10.4095 l 1.05887,4.497 27.55604,13.4592 0.37484,0.2649 7.4e-4,-3e-4 z m 195.87401,-146.579 c -5.19566,4.8233 -8.16952,11.4055 -8.41858,18.5015 -0.48101,14.6259 11.00296,26.9503 25.62793,27.4956 7.12744,0.2335 13.87998,-2.2728 19.06123,-7.1274 5.18124,-4.8391 8.1549,-11.4055 8.41854,-18.4859 0.49813,-14.6417 -10.98611,-26.9817 -25.64225,-27.5101 -7.096,-0.2331 -13.86564,2.2716 -19.04687,7.1263 m 18.20947,38.0454 c -10.40581,-0.3823 -18.57399,-9.154 -18.22645,-19.5747 0.16032,-5.0451 2.3169,-9.7085 5.98175,-13.1515 3.67975,-3.4421 8.48592,-5.2337 13.53107,-5.0439 10.4207,0.3645 18.59117,9.1218 18.24109,19.5585 -0.1576,5.0293 -2.28478,9.6923 -5.9646,13.1503 -3.69693,3.4271 -8.50309,5.2191 -13.56314,5.0613 l 2.8e-4,0 z m 4.37963,-17.1173 c 4.63121,0 8.38975,-2.5054 8.38975,-5.5824 0,-3.0933 -3.75877,-5.6 -8.38975,-5.6 -4.63354,0 -8.37742,2.5067 -8.37742,5.6 0,3.077 3.74388,5.5824 8.37742,5.5824" />
      </g>
    </g>
    <rect
       transform="matrix(0,1,-1,0,0,0)"
       style="color:#000000;fill:#008000;fill-opacity:1;fill-rule:nonzero;stroke:#ffffff;stroke-width:35.3224144;stroke-linecap:butt;stroke-linejoin:miter;stroke-miterlimit:4;stroke-opacity:1;stroke-dasharray:none;stroke-dashoffset:0;marker:none;visibility:visible;display:inline;overflow:visible;enable-background:accumulate"
       id="rect5718"
       width="1589.0134"
       height="1589.0134"
       x="-11060.03"
       y="-6215.9629" />
    <g
       style="fill:#ffffff"
       id="g5720"
       transform="matrix(1.0291622,-0.19460434,0.19460434,1.0291622,8211.4826,-10054.28)">
      <path
         style="fill:#ffffff;fill-opacity:1;stroke:none"
         d="m -3079.4918,-684.6555 c -13.9785,-22.23429 -34.1574,-62.83404 -39.2637,-78.99809 -4.6855,-14.83249 -6.0552,-26.0465 -4.2832,-35.06771 3.4454,-17.53955 29.7628,-95.9009 33.4446,-99.58267 2.1608,-2.16075 7.6092,5.70671 16.4047,23.68832 11.8708,24.26867 18.7548,42.08905 24.5766,63.62013 5.9239,21.90904 6.7239,28.02248 4.8765,37.26532 -2.6512,13.264 -8.5968,38.2872 -11.681,49.16205 -3.6472,12.85963 -17.0663,47.41501 -18.413,47.41501 -0.5196,0 -3.0673,-3.37607 -5.6615,-7.50236 z"
         id="path5722"
         inkscape:connector-curvature="0" />
      <path
         style="fill:#ffffff;fill-opacity:1;stroke:none"
         d="m -3023.696,-809.2674 c -15.2241,-23.30315 -20.4063,-39.76285 -20.5743,-65.34825 -0.1015,-15.47145 0.1621,-17.61518 3.3224,-27.00855 3.8038,-11.30636 17.0844,-37.757 27.7448,-55.25859 3.8065,-6.24938 11.0344,-18.21311 16.0619,-26.58607 5.0275,-8.37296 9.302,-15.06253 9.4988,-14.8657 2.7446,2.74454 22.2394,85.96604 22.2329,94.90979 -0.01,10.06071 -5.4077,30.70503 -10.8333,41.41311 -5.8019,11.45082 -33.3134,59.66786 -36.2588,63.54767 l -2.2232,2.92848 -8.9712,-13.73189 z"
         id="path5724"
         inkscape:connector-curvature="0" />
      <path
         style="fill:#ffffff;fill-opacity:1;stroke:none"
         d="m -2939.4024,-899.82364 c -4.4775,-10.95118 -6.0759,-22.1666 -7.3576,-51.62867 l -1.3062,-30.02183 4.8254,-9.59071 c 6.3473,-12.61555 16.7254,-26.52955 35.9828,-48.24245 17.578,-19.8194 28.7425,-31.1578 29.7186,-30.1816 1.282,1.2819 6.4691,40.3312 7.2301,54.4288 0.6897,12.7771 0.4822,15.35389 -1.8364,22.80721 -3.4185,10.98886 -12.8268,29.76399 -20.4164,40.74275 -7.2538,10.49293 -28.3011,36.637 -38.228,47.48518 l -7.1399,7.80247 -1.4724,-3.60115 0,0 z"
         id="path5726"
         inkscape:connector-curvature="0" />
      <path
         style="fill:#ffffff;fill-opacity:1;stroke:none"
         d="m -2828.7041,-1006.4065 c -1.6265,-1.9599 -2.8916,-7.6657 -6.8421,-30.8606 -2.7172,-15.9534 -3.0559,-20.5739 -2.3762,-32.4103 1.494,-26.0127 4.1069,-33.647 17.0503,-49.8158 9.3104,-11.6305 44.7764,-49.6496 50.924,-54.59 l 4.4157,-3.5485 0.7498,2.9878 c 1.5807,6.2977 3.0721,34.4354 3.1727,59.8577 0.1013,25.588 0,26.8344 -3.0731,36.1059 -1.7479,5.2817 -4.7326,12.8441 -6.6326,16.8054 -6.9174,14.4212 -26.1623,35.1706 -46.9277,50.5962 -4.7547,3.532 -8.7641,6.4218 -8.9098,6.4218 -0.1456,0 -0.8436,-0.6973 -1.551,-1.5496 l 0,0 z"
         id="path5728"
         inkscape:connector-curvature="0" />
      <path
         style="fill:#ffffff;fill-opacity:1;stroke:none"
         d="m -2726.1948,-1094.5229 c -1.1329,-8.452 -2.3729,-25.9829 -2.7556,-38.9576 l -0.6958,-23.5904 3.4036,-5.8189 c 4.8676,-8.3215 31.1019,-34.0216 47.9033,-46.9278 14.6518,-11.2549 30.6065,-20.442 32.9669,-18.9832 1.8429,1.139 1.667,7.185 -1.0867,37.3473 -2.8557,31.2794 -4.6654,40.4395 -10.3205,52.2398 -5.3697,11.2046 -12.2135,19.2004 -27.1272,31.6935 -11.0819,9.2832 -34.5929,26.202 -38.4889,27.697 -1.4029,0.5384 -2.1377,-2.3047 -3.7991,-14.6997 l 0,0 z"
         id="path5730"
         inkscape:connector-curvature="0" />
      <path
         style="fill:#ffffff;fill-opacity:1;stroke:none"
         d="m -2630.4555,-1124.3986 c -1.3274,-3.4592 0.6609,-29.6539 3.1355,-41.3092 4.4005,-20.7263 8.3447,-31.1436 13.8916,-36.6905 9.3626,-9.3626 26.3806,-19.5946 52.0623,-31.3021 l 8.8645,-4.041 -0.5969,8.108 c -0.4482,6.0889 -2.3954,12.7411 -7.8195,26.7138 -3.9724,10.2332 -8.9483,23.8592 -11.0575,30.2799 -2.8604,8.7077 -5.1775,13.3049 -9.1185,18.092 -7.7025,9.3562 -30.1759,25.0602 -42.6404,29.7963 -5.4066,2.0544 -6.055,2.0884 -6.7211,0.3528 l 0,0 z"
         id="path5732"
         inkscape:connector-curvature="0" />
      <path
         style="fill:#ffffff;fill-opacity:1;stroke:none"
         d="m -2538.0069,-1160.3597 c -2.0786,-5.4168 4.0331,-31.1675 10.3827,-43.7461 4.1821,-8.2845 9.9527,-12.7605 24.1958,-18.7675 9.113,-3.8434 36.0696,-13.6569 37.5139,-13.6569 2.8983,0 -6.0755,19.1819 -18.0038,38.4838 -9.4112,15.2288 -22.8991,26.5758 -42.7571,35.9702 -8.5863,4.062 -10.3301,4.3262 -11.3315,1.7165 l 0,0 z"
         id="path5734"
         inkscape:connector-curvature="0" />
      <path
         style="fill:#ffffff;fill-opacity:1;stroke:none"
         d="m -2463.9968,-1182.4687 c 0,-2.4896 5.1575,-14.0396 9.88,-22.1255 9.6703,-16.5579 20.6617,-25.5268 36.1319,-29.4834 10.1014,-2.5835 25.9964,-4.3761 28.9054,-3.2598 1.8583,0.7131 -2.2198,6.8628 -20.343,30.6763 l -6.0448,7.9428 -13.7614,4.8762 c -7.5688,2.6819 -17.7343,6.5981 -22.5899,8.7027 -9.1731,3.976 -12.1782,4.635 -12.1782,2.6707 z"
         id="path5736"
         inkscape:connector-curvature="0" />
      <path
         style="fill:#ffffff;fill-opacity:1;stroke:none"
         d="m -2348.7604,-1188.5095 c -5.7858,-0.7834 -11.8437,-3.522 -14.2775,-6.4546 -1.261,-1.5193 -0.5804,-2.4752 4.2887,-6.0234 8.9123,-6.4947 22.9114,-14.2134 30.3056,-16.7097 5.3142,-1.7941 8.5195,-2.0948 15.6881,-1.472 10.2836,0.8935 38.6149,5.2423 39.4242,6.0515 1.0899,1.09 -41.4585,21.0182 -48.4205,22.6785 -8.8699,2.1153 -19.8461,2.8995 -27.0086,1.9297 z"
         id="path5738"
         inkscape:connector-curvature="0" />
      <path
         style="fill:#ffffff;fill-opacity:1;stroke:none"
         d="m -3071.3347,-616.17236 c -0.067,-14.37515 2.8314,-37.1783 6.1494,-48.37576 12.0016,-40.50244 56.6783,-130.12274 84.3755,-169.2546 6.0747,-8.58273 15.2037,-21.64586 20.2867,-29.02925 5.1918,-7.54161 12.1758,-15.95792 15.9373,-19.20608 14.7262,-12.71627 26.6056,-24.57266 40.6716,-40.59279 8.1154,-9.24294 19.533,-21.45943 25.3724,-27.14777 19.1391,-18.64408 49.6465,-45.41356 58.7735,-51.57249 4.9224,-3.3215 16.6299,-12.0863 26.0167,-19.4771 20.985,-16.523 37.4908,-27.7264 57.8687,-39.2787 8.5827,-4.8656 21.8169,-12.6031 29.4093,-17.1944 7.5924,-4.5914 20.5565,-11.7249 28.8091,-15.8524 22.5944,-11.3003 106.8442,-44.5141 142.6407,-56.2333 89.5645,-29.3218 155.9976,-46.9132 162.0637,-42.9142 1.6497,1.0876 0.7092,1.3757 -25.7441,7.8883 -6.6726,1.6427 -24.4982,7.391 -39.6126,12.774 -15.1143,5.3829 -49.0874,17.2265 -75.4958,26.3191 -70.6301,24.3183 -73.5297,25.3666 -99.0314,35.8015 -40.3138,16.4957 -57.7626,24.179 -72.0228,31.7137 -42.1495,22.2707 -86.5106,53.1883 -139.8443,97.46453 -36.1263,29.9912 -54.7301,46.95589 -91.8453,83.75317 l -29.4255,29.17352 -24.3931,37.21179 c -28.321,43.2039 -53.672,89.30046 -65.3551,118.83762 -6.3742,16.11511 -13.5032,44.26606 -16.9527,66.94251 -1.684,11.0702 -3.8362,21.60355 -4.7827,23.4074 -0.9465,1.80387 -4.442,6.25068 -7.7678,9.88182 l -6.0469,6.6021 -0.055,-11.64222 0,0 z"
         id="path5740"
         inkscape:connector-curvature="0" />
      <path
         style="fill:#ffffff;fill-opacity:1;stroke:none"
         d="m -3042.1179,-663.76236 c 0.8281,-6.24271 7.5886,-27.3135 10.6839,-33.29914 3.6753,-7.10727 18.4769,-19.99738 29.3076,-25.52281 8.0702,-4.11706 23.9439,-8.21005 42.1734,-10.87419 17.6323,-2.57687 39.324,-7.64252 67.6271,-15.7929 9.0264,-2.59933 16.7315,-4.72606 17.1224,-4.72606 3.4387,0 -33.2774,45.10688 -46.7062,57.38001 -9.219,8.42561 -25.776,20.10303 -35.4305,24.98849 -4.2984,2.17514 -16.188,6.1362 -26.4212,8.80237 -18.1724,4.73466 -19.0779,4.84773 -38.8669,4.85356 l -20.261,0.006 0.7714,-5.81531 z"
         id="path5742"
         inkscape:connector-curvature="0" />
      <path
         style="fill:#ffffff;fill-opacity:1;stroke:none"
         d="m -2971.1574,-748.53755 c -0.6602,-0.30404 -7.6547,-1.38163 -15.5434,-2.39462 -7.8887,-1.01301 -14.8357,-2.33458 -15.438,-2.9368 -0.6597,-0.6597 0.2702,-3.60815 2.3392,-7.41717 4.9018,-9.02408 8.1544,-11.47626 57.2201,-43.13973 24.2198,-15.62977 33.9202,-19.32372 69.0827,-26.30727 13.6193,-2.7049 32.5806,-3.3596 32.5806,-1.12498 0,0.73942 -4.5016,6.54627 -10.0036,12.90408 -5.502,6.35783 -15.1507,18.04173 -21.4415,25.96423 -13.2525,16.68994 -24.56,29.59551 -28.9705,33.06478 -5.5687,4.38032 -14.2288,7.41578 -25.9185,9.08469 -11.9323,1.70353 -41.8061,3.27031 -43.9071,2.30279 z"
         id="path5744"
         inkscape:connector-curvature="0" />
      <path
         style="fill:#ffffff;fill-opacity:1;stroke:none"
         d="m -2944.5984,-847.44903 -3.4504,-0.75825 7.8626,-9.73349 c 9.4619,-11.71316 16.0896,-17.53271 28.5376,-25.05785 23.6862,-14.31895 49.506,-18.40886 105.8727,-16.77051 24.8519,0.72236 28.35,1.05637 27.0807,2.58579 -2.8727,3.46144 -38.8447,28.52037 -46.5526,32.42974 -19.361,9.81954 -45.9839,15.4116 -81.6893,17.15852 -25.7085,1.25783 -32.4826,1.2841 -37.6613,0.14609 z"
         id="path5746"
         inkscape:connector-curvature="0" />
      <path
         style="fill:#ffffff;fill-opacity:1;stroke:none"
         d="m -2826.0017,-921.84246 c -7.8217,-2.6679 -23.5445,-11.66019 -29.1599,-16.67734 -3.6431,-3.255 -4.0643,-4.09686 -2.5599,-5.11728 20.6889,-14.03349 37.9903,-19.74229 64.2203,-21.19028 15.2013,-0.83916 27.2812,1.08072 59.0415,9.38363 l 24.2304,6.33441 -9.5287,3.84397 c -5.2408,2.1142 -15.0641,5.54181 -21.8296,7.61691 -6.7656,2.07513 -16.3742,5.32076 -21.3525,7.21254 -10.6156,4.034 -29.2006,7.95957 -42.646,9.00777 -5.2371,0.4083 -10.6023,0.94963 -11.9227,1.20299 -1.3204,0.25336 -5.1422,-0.47445 -8.4929,-1.61732 z"
         id="path5748"
         inkscape:connector-curvature="0" />
      <path
         style="fill:#ffffff;fill-opacity:1;stroke:none"
         d="m -2711.8753,-994.71354 c -33.7371,-10.85146 -43.5935,-14.24976 -48.5238,-16.72976 l -5.3101,-2.6711 5.3101,-3.1084 c 12.6777,-7.4213 48.914,-22.5604 61.073,-25.5156 10.358,-2.5176 19.5016,-1.3759 34.0605,4.2529 5.1689,1.9984 17.7279,5.3419 27.9088,7.4301 10.6992,2.1944 18.5109,4.3682 18.5109,5.1509 0,1.7624 -7.4121,8.7166 -15.0047,14.0778 -12.9433,9.1392 -42.9139,20.26264 -56.4179,20.93927 -7.0573,0.35359 -10.5168,-0.25901 -21.6068,-3.82611 z"
         id="path5750"
         inkscape:connector-curvature="0" />
      <path
         style="fill:#ffffff;fill-opacity:1;stroke:none"
         d="m -2635.6512,-1045.0038 c -15.89,-3.2925 -31.2192,-12.4519 -36.8644,-22.027 -1.6719,-2.8357 -2.8217,-5.374 -2.555,-5.6406 0.2666,-0.2666 4.9668,-2.7281 10.4449,-5.47 6.8971,-3.4521 12.0702,-5.1766 16.8209,-5.6073 6.6163,-0.6 7.4074,-0.3392 22.207,7.3216 16.4224,8.5007 25.6277,11.0857 49.9656,14.0312 6.272,0.7591 12.2139,1.6497 13.2042,1.9792 4.8,1.5971 -42.9075,15.1614 -57.6183,16.3822 -4.5453,0.3772 -11.0595,-0.027 -15.6049,-0.9693 l 0,0 z"
         id="path5752"
         inkscape:connector-curvature="0" />
      <path
         style="fill:#ffffff;fill-opacity:1;stroke:none"
         d="m -2560.8743,-1080.1041 c -10.7479,-6.0815 -31.5632,-25.1396 -31.5632,-28.8986 0,-1.3674 18.9341,-7.2261 26.6768,-8.2545 4.3713,-0.5805 6.4335,-0.2553 9.0028,1.4199 6.1355,4.0004 38.744,30.6225 38.744,31.6313 0,1.3388 -17.5107,4.6423 -29.4094,5.5482 -7.9781,0.6074 -10.2541,0.3627 -13.451,-1.4463 l 0,0 z"
         id="path5754"
         inkscape:connector-curvature="0" />
      <path
         style="fill:#ffffff;fill-opacity:1;stroke:none"
         d="m -2480.3732,-1119.6537 c -7.8634,-3.0524 -13.2386,-6.1393 -18.9606,-10.8888 -4.3923,-3.6458 -7.7848,-7.2322 -7.5389,-7.9699 0.2459,-0.7377 4.4568,-2.5923 9.3576,-4.1214 15.619,-4.8733 22.2346,-2.5478 41.4336,14.5648 l 12.3149,10.9766 -5.6137,0.7951 c -12.7688,1.8086 -19.5904,1.0698 -30.9929,-3.3564 z"
         id="path5756"
         inkscape:connector-curvature="0" />
      <path
         style="fill:#ffffff;fill-opacity:1;stroke:none"
         d="m -2407.579,-1146.4509 c -4.2914,-0.4171 -9.693,-1.6052 -12.0038,-2.6403 -4.729,-2.1184 -19.2061,-12.7454 -19.2061,-14.0984 0,-1.2343 12.1185,-4.919 16.1779,-4.919 4.0457,0 11.9195,4.7 24.1322,14.405 8.5177,6.7687 8.8474,7.2019 5.4812,7.2019 -1.9699,0 -4.301,0.1821 -5.1803,0.4045 -0.8792,0.2225 -5.1097,0.063 -9.4011,-0.3537 z"
         id="path5758"
         inkscape:connector-curvature="0" />
      <path
         style="fill:#ffffff;fill-opacity:1;stroke:none"
         d="m -2374.9507,-1172.0472 c -0.702,-0.8459 -4.0488,-2.5349 -7.4372,-3.7534 -3.3885,-1.2184 -5.7161,-2.6592 -5.1726,-3.2017 1.5515,-1.5485 14.8444,-4.7168 19.5462,-4.6587 5.2782,0.065 15.9371,3.6551 16.5486,5.5735 0.2774,0.8703 -3.3354,2.6217 -9.2857,4.5014 -11.1334,3.517 -12.4401,3.6586 -14.1993,1.5389 l 0,0 z"
         id="path5760"
         inkscape:connector-curvature="0" />
      <path
         style="fill:#ffffff;fill-opacity:1;stroke:none"
         d="m -2529.7285,-101.77425 c -38.7457,-6.38438 -104.8538,-19.06543 -124.8396,-23.94707 -73.2954,-17.90283 -191.9274,-62.22412 -266.4843,-99.55938 -65.705,-32.90255 -133.6855,-71.33334 -165.8327,-93.74873 -22.0146,-15.35025 -74.3692,-59.83921 -90.8052,-77.16293 l -8.1592,-8.5999 9.9818,-28.04724 c 6.3277,-17.77973 15.0272,-36.04277 23.7641,-49.88827 20.5289,-32.53227 83.7496,-111.94586 118.9805,-149.45515 l 13.9693,-14.87263 19.8636,-2.81964 c 23.0779,-3.27592 30.5549,-1.87514 60.2321,11.28409 33.1817,14.71326 112.4583,55.07272 145.7213,74.18639 17.5642,10.0928 37.3366,20.82366 43.9387,23.84641 11.1708,5.11451 11.504,5.50751 4.8015,5.66279 -8.5801,0.19877 -33.6457,-6.83514 -88.5194,-24.84057 -39.5829,-12.98812 -90.6086,-25.34884 -104.6415,-25.34884 -12.5512,0 -84.3817,69.72575 -120.5794,117.04619 -8.3367,10.89848 -15.5034,18.77841 -15.9258,17.51099 -1.8371,-5.51118 43.0129,-90.60248 64.9949,-123.31108 5.1607,-7.67903 8.8479,-15.35677 8.1936,-17.0616 -1.4098,-3.67396 -16.3365,-6.03594 -27.6071,-4.36852 -6.6554,0.98461 -10.9069,4.85863 -25.3384,23.08908 -48.0983,60.7593 -66.0888,89.00788 -86.8456,136.36414 -7.1327,16.27307 -12.9893,30.74361 -13.0147,32.15669 -0.069,3.82291 51.9596,47.2074 87.3362,72.82648 17.0304,12.33317 49.4407,33.22823 72.0228,46.4335 38.4258,22.47016 133.5204,68.85732 165.8978,80.92493 43.6494,16.26886 91.9731,31.80034 115.2365,37.03756 59.1957,13.32654 97.2319,20.71581 118.8376,23.08659 12.544,1.37644 34.691,4.33732 49.2156,6.57975 55.1836,8.51971 224.4711,3.78842 224.4711,-6.27361 0,-0.97676 -6.9061,-6.84676 -15.347,-13.04445 -23.3201,-17.12287 -61.8236,-64.07789 -89.7323,-109.42881 l -16.8262,-27.34202 3.9746,-8.66938 c 16.5338,-36.06409 34.5137,-60.64315 74.2343,-101.48048 23.0171,-23.66432 36.5716,-35.15509 61.2362,-51.91308 17.4218,-11.83696 40.3187,-25.88312 50.8821,-31.21373 10.5633,-5.33057 23.0869,-13.83977 27.8301,-18.90934 18.2362,-19.49089 69.447,-96.19961 95.9074,-143.65994 24.6402,-44.19553 49.783,-82.44466 85.2184,-129.64106 32.021,-42.64853 97.646,-119.62067 124.3725,-145.87752 20.8499,-20.48359 21.3352,-22.17302 12.0131,-41.81798 -3.7715,-7.94787 -4.5487,-8.36976 -12.945,-7.02714 -18.0112,2.88012 -78.8528,24.02937 -112.727,39.18524 -65.3097,29.22066 -122.0319,105.46966 -165.4972,142.30391 -46.1062,39.07223 -23.0081,15.05597 -84.4779,71.89184 -83.1555,99.55732 -238.1697,96.55813 -240.4535,61.69372 0.1923,-3.4251 1.3347,8.12778 34.4904,6.89284 83.4482,-15.03115 136.8532,-18.51146 160.2328,-46.83201 67.3178,-69.06377 91.2672,-75.18081 143.5255,-121.72489 68.6505,-61.14382 193.9835,-167.14169 271.6177,-185.46469 6.9322,-1.6362 12.604,-3.8983 12.604,-5.027 0,-1.1287 2.5839,0.3295 5.7419,3.2404 3.158,2.9109 10.6923,9.3948 16.7428,14.40861 19.3444,16.02977 19.6397,28.0521 2.1942,89.31516 -7.3228,25.71541 -32.5513,93.05553 -44.9714,120.03799 -4.8623,10.56336 -17.8815,40.27275 -28.9317,66.0209 -11.0501,25.74817 -28.609,63.01996 -39.0197,82.82624 -10.4107,19.80627 -31.6899,60.31909 -47.2869,90.02849 -56.195,107.04061 -59.5449,112.81311 -77.1647,132.96592 -24.3956,27.90271 -52.7135,54.20217 -73.373,68.143 -25.7259,17.35966 -80.4105,48.28378 -118.8812,67.22719 -38.5606,18.98772 -68.7704,37.82687 -67.3958,42.02877 1.5264,4.66618 38.4617,26.67272 75.0197,44.69775 40.0142,19.72915 72.1474,31.90597 108.0303,40.93799 l 26.4045,6.64623 -31.206,7.33983 c -44.9524,10.5731 -66.7402,14.43823 -91.225,16.18316 -11.8837,0.8469 -59.3733,5.23679 -105.5322,9.75531 -74.9995,7.34171 -120.3755,9.500604 -138.1449,6.57261 z m 425.1923,-464.70479 c 1.5551,-2.97093 14.9569,-23.76752 29.7817,-46.21463 26.8278,-40.62144 41.0204,-59.2044 69.6812,-91.23637 14.9077,-16.66119 31.1782,-45.49645 45.2713,-80.2317 10.117,-24.93502 8.4694,-25.34601 -14.894,-3.71516 -21.9177,20.2925 -44.8872,50.84248 -73.0501,97.15854 -24.3818,40.09772 -69.0517,122.11516 -69.0517,126.78437 0,5.00327 9.3235,3.06807 12.2616,-2.54505 z m 123.7405,-242.5231 c 12.0813,-10.86796 28.8266,-25.23925 37.2118,-31.93617 14.7402,-11.77245 15.5156,-12.95166 23.3823,-35.55735 5.1582,-14.82267 7.2988,-24.21877 5.848,-25.66958 -2.9139,-2.91388 -33.3957,23.27338 -48.708,41.84555 -10.4671,12.69555 -38.8107,57.60596 -42.265,66.96882 -2.8064,7.60704 2.2922,4.354 24.5309,-15.65127 z"
         id="path5762"
         inkscape:connector-curvature="0"
         sodipodi:nodetypes="csssscssscsssssssscscssscssssssssscssssssssssssccccscssssssssssscsscssscssssssssccssssc" />
      <path
         style="fill:#ffffff;fill-opacity:1;stroke:#ffffff;stroke-width:0;stroke-linecap:round;stroke-linejoin:round;stroke-miterlimit:4;stroke-opacity:1;stroke-dasharray:none"
         d="m -3115.4142,-687.68642 c -5.2816,-1.8927 -15.0047,-5.38274 -21.6068,-7.75566 -14.1955,-5.10212 -41.1763,-13.39076 -65.4207,-20.09753 -31.5957,-8.7404 -31.478,-8.68806 -39.7217,-17.66354 -9.8199,-10.69155 -23.0629,-28.36384 -31.6138,-42.18737 -6.6253,-10.71051 -6.9377,-11.56522 -6.2744,-17.16525 0.8453,-7.13742 10.1855,-35.06063 16.1533,-48.29161 6.3516,-14.08186 25.2744,-46.83629 37.7915,-65.41537 9.6021,-14.25232 39.4553,-54.70437 51.2738,-69.47764 7.7809,-9.72618 47.4036,-40.05421 66.0209,-50.53391 9.4178,-5.3012 48.9903,-23.3706 62.4198,-28.5019 7.2376,-2.7654 31.4201,-10.5958 97.8309,-31.6782 14.5246,-4.6109 37.4356,-11.3443 50.9134,-14.9631 l 24.5049,-6.5796 16.308,0.3327 16.308,0.3327 -4.8016,5.0405 c -4.7037,4.938 -5.437,5.2263 -36.0114,14.162 -62.852,18.3691 -66.1273,19.4611 -157.2497,52.427 -21.2462,7.6864 -59.1206,26.0587 -73.2232,35.5197 -20.7325,13.90855 -39.4963,32.56962 -54.3903,54.09241 -20.7669,30.00957 -55.8975,85.89588 -63.8927,101.64157 -9.9708,19.63646 -21.5397,47.82201 -22.3974,54.56709 -0.459,3.60974 0.3194,5.42933 5.1565,12.054 9.6715,13.24571 17.386,21.45942 28.6591,30.51368 13.9433,11.19887 16.7834,12.82624 31.2408,17.9007 6.6021,2.31731 21.0063,7.46775 32.0094,11.44549 11.003,3.97771 25.8269,8.928 32.9419,11.00063 19.9983,5.82565 23.0665,7.59064 26.4348,15.207 1.5641,3.53661 2.8438,6.68491 2.8438,6.99617 0,1.89846 -13.8343,0.0776 -22.2071,-2.92266 l 0,0 z"
         id="path5764"
         inkscape:connector-curvature="0" />
      <path
         style="fill:#ffffff;fill-opacity:1;stroke:#ffffff;stroke-width:0;stroke-linecap:round;stroke-linejoin:round;stroke-miterlimit:4;stroke-opacity:1;stroke-dasharray:none"
         d="m -2975.4485,-807.24969 c 4.7667,-6.9393 9.2552,-13.08945 9.9744,-13.66699 0.7193,-0.57753 6.9796,-2.67131 13.9118,-4.65286 6.9322,-1.98156 19.086,-5.58847 27.0086,-8.01535 12.2087,-3.7399 17.1493,-4.59101 32.4102,-5.58312 40.7322,-2.64802 52.6415,-6.72814 87.9873,-30.14437 26.0342,-17.24738 39.4693,-27.02156 40.3705,-29.37009 0.9332,-2.43184 -1.0808,-4.80073 -6.4024,-7.5309 l -4.2556,-2.18327 13.7731,-8.97035 c 16.404,-10.68382 20.7063,-12.91638 31.7788,-16.49094 10.7405,-3.46739 27.3264,-11.45864 30.0665,-14.48641 2.0191,-2.2311 2.0193,-2.4443 0,-4.67089 -1.1612,-1.28318 -3.5407,-2.53616 -5.2876,-2.7844 -2.9663,-0.42148 -2.2561,-1.36137 10.743,-14.21691 l 13.9192,-13.76561 12.0467,-3.94549 c 17.5675,-5.75371 39.299,-16.67936 46.9698,-23.61446 11.3886,-10.2962 14.9938,-18.8564 9.5479,-22.6708 -1.4456,-1.0126 -2.3909,-2.0425 -2.1006,-2.2887 0.2902,-0.2462 5.3893,-1.63 11.3311,-3.075 18.2403,-4.4359 44.4811,-13.2978 50.2967,-16.9859 7.7571,-4.9194 7.3736,-9.2625 -0.9948,-11.2677 -1.9332,-0.4633 -13.4688,-1.8551 -25.6348,-3.0931 -12.1659,-1.238 -22.4371,-2.5681 -22.8248,-2.9558 -0.7954,-0.7949 12.9314,-15.0468 14.4919,-15.0468 0.5528,0 4.3509,2.7144 8.4402,6.032 11.4245,9.2686 17.7046,11.9747 27.7771,11.9689 17.4583,-0.011 41.4025,-5.7435 43.1648,-10.3361 0.9954,-2.594 -6.6897,-10.3739 -22.091,-22.3634 -7.5939,-5.9117 -13.9775,-11.2058 -14.1857,-11.7647 -0.5862,-1.5732 24.8139,-16.6915 28.1138,-16.7335 0.7298,-0.01 4.8677,3.2276 9.1953,7.1932 7.0013,6.4153 12.3194,9.6453 25.782,15.6585 l 3.8939,1.7393 -6.7136,8.4026 c -13.1395,16.4453 -21.4117,33.5736 -27.0446,55.9982 -2.5212,10.037 -2.8104,13.8237 -2.7364,35.8309 0.079,23.56652 0.2407,25.20532 3.8133,38.72903 6.423,24.31378 23.9622,54.64401 42.239,73.04298 18.1405,18.26186 47.6638,38.33049 67.2813,45.73489 l 9.0028,3.39801 -6.0019,-0.73161 c -3.301,-0.40237 -14.6446,-2.88564 -25.2079,-5.51839 -16.5556,-4.12617 -21.886,-6.10046 -38.6246,-14.30558 -19.0343,-9.33042 -23.162,-12.0732 -56.3967,-37.47397 -8.9568,-6.84557 -24.6266,-14.4884 -35.22,-17.17837 -9.2649,-2.35262 -27.8489,-1.67697 -38.4121,1.39651 -3.6312,1.05655 -18.6554,7.33638 -33.387,13.95519 -14.7318,6.61882 -27.0354,11.78383 -27.3414,11.47782 -0.306,-0.30602 1.3609,-2.01876 3.7042,-3.8061 5.8489,-4.46115 38.9406,-41.13339 47.7376,-52.90274 15.8026,-21.14209 32.3956,-64.73807 25.6283,-67.33497 -2.7304,-1.0477 -4.3155,0.5292 -13.8194,13.7487 -24.146,33.58597 -72.1861,85.13626 -93.7512,100.60141 -17.1002,12.26317 -58.6205,37.61163 -61.6072,37.61163 -0.6109,0 9.3546,-10.94608 22.1456,-24.32463 34.6348,-36.22571 38.2612,-40.1678 38.2612,-41.59236 0,-0.71736 -0.6269,-1.30429 -1.393,-1.30429 -2.1109,0 -17.6617,10.83851 -36.4864,25.43021 -34.2561,26.55303 -45.2307,33.67659 -78.484,50.94361 l -31.8824,16.55515 -18.0062,0.10685 c -17.0002,0.10088 -19.0796,0.38294 -37.2124,5.04639 -32.6059,8.38565 -43.6439,13.17367 -63.2526,27.43728 -5.7397,4.17516 -11.9626,8.38068 -13.8286,9.34563 -3.105,1.60564 -15.2907,4.37886 -19.241,4.37886 -0.9567,0 1.9946,-5.30783 7.0153,-12.61693 z"
         id="path5766"
         inkscape:connector-curvature="0" />
      <path
         style="fill:#ffffff;fill-opacity:1;stroke:#ffffff;stroke-width:0;stroke-linecap:round;stroke-linejoin:round;stroke-miterlimit:4;stroke-opacity:1;stroke-dasharray:none"
         d="m -2354.9734,-864.97436 c -27.7144,-2.39941 -33.1033,-3.94037 -52.2667,-14.94559 -24.4857,-14.06169 -40.9903,-26.91 -48.495,-37.75175 -6.4763,-9.35623 -21.7193,-46.98228 -24.0834,-59.4479 -1.665,-8.77979 -1.4862,-22.67688 0.5665,-44.0133 2.0336,-21.1392 3.7942,-29.5018 9.1699,-43.5579 4.4869,-11.732 5.5907,-11.2261 3.006,1.3777 -7.5722,36.9249 1.4666,86.83332 22.681,125.23493 5.667,10.25817 28.4335,34.55099 39.6059,42.26125 11.2691,7.7769 35.7239,17.42106 52.8167,20.82912 12.8948,2.57103 39.3155,-0.83562 61.9601,-7.98904 5.328,-1.68312 9.8767,-2.87072 10.1083,-2.63911 0.599,0.59894 -30.4044,17.07047 -35.4568,18.83757 -4.2714,1.49396 -29.7771,2.65553 -39.6125,1.80402 z"
         id="path5768"
         inkscape:connector-curvature="0" />
      <path
         style="fill:#ffffff;fill-opacity:1;stroke:#ffffff;stroke-width:0;stroke-linecap:round;stroke-linejoin:round;stroke-miterlimit:4;stroke-opacity:1;stroke-dasharray:none"
         d="m -2155.19,-941.07912 c 1.224,-5.04187 2.2835,-35.28727 1.4009,-39.99197 -0.4824,-2.57128 -1.5264,-4.42209 -2.4943,-4.42209 -0.9156,0 -5.6784,4.72651 -10.584,10.50334 -12.6157,14.8563 -32.0566,32.96188 -32.0566,29.85469 0,-0.29663 3.6219,-6.93273 8.0487,-14.74687 4.4269,-7.81416 9.5118,-17.79487 11.2999,-22.17939 7.4199,-18.19439 12.0621,-45.44509 7.7416,-45.44509 -0.9454,0 -4.3215,4.3773 -7.5024,9.7273 -11.4131,19.19593 -24.056,34.4862 -39.3941,47.64313 -19.0459,16.33749 -21.81,17.58642 -45.6144,20.61052 -10.5634,1.34195 -20.5565,2.4044 -22.2071,2.36098 l -3.0009,-0.0789 3.0009,-1.29265 c 13.4277,-5.7839 19.0842,-9.05432 30.6097,-17.69775 15.7308,-11.79707 27.6583,-23.14926 34.9408,-33.25537 17.2229,-23.90106 23.6509,-57.27766 15.8037,-82.05946 -1.7814,-5.6255 -5.1319,-12.8908 -7.4455,-16.145 -4.5851,-6.4491 -4.7146,-7.593 -0.6108,-5.3967 2.5808,1.3812 2.6511,1.2839 1.8792,-2.6036 -0.4411,-2.2211 -3.3569,-8.2924 -6.4795,-13.4917 -8.3991,-13.9848 -17.5622,-21.7415 -41.0902,-34.784 -18.4389,-10.2214 -19.6703,-11.1176 -17.8184,-12.9681 1.8517,-1.8504 2.4332,-1.7813 8.4041,0.9976 3.5281,1.6421 10.466,3.7094 15.4176,4.594 4.9515,0.8847 18.1308,4.8921 29.2871,8.9055 11.1564,4.0134 21.2846,7.297 22.5072,7.297 3.4596,0 2.6219,-3.1826 -1.6784,-6.3761 -23.9756,-17.8053 -65.0497,-29.5026 -104.4202,-29.7373 -16.0789,-0.096 -16.7539,-0.1913 -11.1164,-1.5716 3.301,-0.8082 11.6737,-4.086 18.6059,-7.2841 7.0162,-3.2369 14.9987,-6.038 18.0057,-6.3183 13.1428,-1.2252 51.398,14.3449 82.226,33.4664 72.3822,44.896 93.6625,54.8864 136.4992,64.0818 62.6656,13.4519 138.1269,33.985 153.682,41.8171 13.0377,6.5645 14.8318,9.498 14.4072,23.5575 -0.3603,11.9271 -1.5679,18.2309 -3.624,18.9163 -0.8083,0.2694 -1.4696,-0.3464 -1.4696,-1.3685 0,-3.014 -4.3732,-4.5483 -10.549,-3.7011 -3.1109,0.4268 -13.1244,2.6665 -22.2524,4.9773 -9.1279,2.3107 -16.9154,3.8821 -17.3054,3.492 -0.3901,-0.39 -0.01,-0.7092 0.8524,-0.7092 0.8589,0 6.4857,-2.339 12.5039,-5.1978 11.0644,-5.2559 18.733,-11.8641 21.1524,-18.2274 2.2752,-5.9842 -2.4057,-12.4299 -12.9829,-17.878 -5.1243,-2.6395 -44.264,-16.6734 -59.0467,-21.1718 -17.2749,-5.2568 -67.2797,-16.3331 -92.3464,-20.4551 -31.0493,-5.1058 -44.5762,-10.1788 -71.5055,-26.8172 -16.0777,-9.9336 -21.585,-8.9293 -11.5854,2.1126 6.8656,7.5811 13.1662,16.6842 21.0727,30.4453 7.7192,13.4351 14.7502,19.2628 28.0246,23.2286 2.8059,0.8383 5.1016,1.703 5.1016,1.9217 0,0.2187 -4.366,4.5689 -9.7021,9.667 -14.6641,14.0099 -14.003,12.4759 -15.4621,35.8789 -1.7449,27.98772 -3.3364,38.93056 -7.4911,51.50749 -4.1612,12.59672 -15.7601,34.54421 -13.6392,25.80816 l 0,0 z"
         id="path5770"
         inkscape:connector-curvature="0" />
      <path
         style="fill:#ffffff;fill-opacity:1;stroke:#ffffff;stroke-width:0;stroke-linecap:round;stroke-linejoin:round;stroke-miterlimit:4;stroke-opacity:1;stroke-dasharray:none"
         d="m -2328.357,-1077.2384 c -6.8064,-2.2089 -13.5458,-6.9566 -16.1622,-11.3858 l -2.0994,-3.5541 5.1255,-6.2309 c 2.8191,-3.427 7.3232,-7.8072 10.0092,-9.734 4.6972,-3.3694 5.5216,-3.5274 21.6068,-4.1413 15.5384,-0.593 17.0048,-0.4595 20.6967,1.8834 8.8593,5.6224 8.8263,15.8374 -0.076,23.4572 -11.0234,9.4356 -27.4038,13.5015 -39.1008,9.7055 l 0,0 z m 26.2792,-6.7282 c 3.374,-1.8057 2.9629,-5.753 -0.6947,-6.671 -3.436,-0.8624 -6.5865,1.175 -6.5865,4.2594 0,3.7706 2.9292,4.7408 7.2812,2.4116 z m -29.5758,-3.0426 c 3.7734,-3.7733 3.928,-11.3197 0.232,-11.3197 -2.2651,0 -7.9469,6.7887 -7.9469,9.4951 0,4.0986 4.4003,5.1392 7.7149,1.8246 z m 14.5467,-1.0619 c 1.6205,-1.6205 2.9464,-3.4987 2.9464,-4.1737 0,-2.1656 -5.7376,-5.0707 -9.2253,-4.6708 -2.8594,0.3277 -3.4378,1.0045 -3.7634,4.4028 -0.2115,2.2085 -0.093,4.7743 0.2625,5.7018 1.0263,2.6745 6.558,1.9617 9.7798,-1.2601 z"
         id="path5772"
         inkscape:connector-curvature="0" />
      <path
         style="fill:#ffffff;fill-opacity:1;stroke:#ffffff;stroke-width:0;stroke-linecap:round;stroke-linejoin:round;stroke-miterlimit:4;stroke-opacity:1;stroke-dasharray:none"
         d="m -2457.74,-1140.2483 c -4.0159,-3.2495 -9.0641,-6.9799 -11.2181,-8.2898 -3.5713,-2.1718 -3.7197,-2.4867 -1.6839,-3.5719 3.7489,-1.9983 17.4753,-6.2379 20.1965,-6.2379 2.5176,0 15.3295,8.5691 18.4253,12.3235 1.3828,1.6771 0.492,2.5162 -7.2023,6.7831 -4.8292,2.6781 -9.3284,4.8764 -9.9981,4.8851 -0.6698,0.01 -4.5035,-2.6427 -8.5194,-5.8921 l 0,0 z"
         id="path5774"
         inkscape:connector-curvature="0" />
      <path
         style="fill:#ffffff;fill-opacity:1;stroke:#ffffff;stroke-width:0;stroke-linecap:round;stroke-linejoin:round;stroke-miterlimit:4;stroke-opacity:1;stroke-dasharray:none"
         d="m -2402.1984,-1165.9804 -9.2408,-6.4321 6.1645,-2.5618 6.1644,-2.5618 4.9631,3.8058 c 2.7296,2.0932 5.3967,4.1704 5.9269,4.6161 0.7608,0.6397 -3.4099,9.5659 -4.4696,9.5659 -0.1472,0 -4.426,-2.8944 -9.5085,-6.4321 z"
         id="path5776"
         inkscape:connector-curvature="0" />
      <path
         style="fill:#ffffff;fill-opacity:1;stroke:#ffffff;stroke-width:0;stroke-linecap:round;stroke-linejoin:round;stroke-miterlimit:4;stroke-opacity:1;stroke-dasharray:none"
         d="m -2752.6257,-1119.0355 c -0.3569,-4.7865 -0.2945,-9.0618 0.1389,-9.5006 0.4333,-0.4389 3.8938,-1.1763 7.69,-1.6388 l 6.9022,-0.8409 0,4.7723 c 0,2.6248 0.3435,7.2785 0.7633,10.3415 l 0.7634,5.5693 -7.8043,0 -7.8044,0 -0.649,-8.7028 z"
         id="path5778"
         inkscape:connector-curvature="0" />
      <path
         style="fill:#ffffff;fill-opacity:1;stroke:none"
         d="m -2891.0935,-1084.8456 10e-5,-0.3894 8.9464,-2.6204 c 14.7439,-4.3186 20.2931,-5.99 24.1763,-7.2817 6.4269,-2.1379 8.8179,-3.3544 11.308,-5.753 1.2749,-1.228 6.1445,-6.3858 6.0804,-6.4403 -0.032,-0.027 -7.4008,-0.1922 -16.3755,-0.3669 l -16.3177,-0.3176 -8.8903,2.3965 -8.8904,2.3964 -0.023,-0.2985 c -0.013,-0.1642 -0.013,-0.3087 0,-0.3212 0.05,-0.048 10.1857,-2.8967 15.2533,-4.2864 14.7392,-4.0422 26.7613,-7.0063 33.09,-8.1586 5.0352,-0.9168 7.7829,-1.1012 8.237,-0.5528 0.4568,0.5516 -0.6257,2.5772 -3.8393,7.1843 -4.6954,6.7314 -8.8261,11.5811 -10.5513,12.3879 -0.1665,0.078 -1.9742,0.6333 -4.0167,1.2341 -7.3619,2.1654 -35.59,10.7164 -37.8682,11.4713 l -0.3189,0.1055 1e-4,-0.3893 0,0 z"
         id="path5780"
         inkscape:connector-curvature="0" />
      <path
         style="fill:#ffffff;fill-opacity:1;stroke:none"
         d="m -1957.4151,-1040.8638 c 2.2998,-1.7676 13.831,-7.3254 15.8872,-7.6573 1.3447,-0.217 2.9177,0.2522 5.71,1.7036 2.1197,1.1017 3.9665,2.3446 4.1041,2.7619 0.6348,1.9253 -11.2007,4.3453 -21.1623,4.3271 -5.988,-0.011 -5.9985,-0.013 -4.539,-1.1353 z"
         id="path5782"
         inkscape:connector-curvature="0" />
      <path
         style="fill:#ffffff;fill-opacity:1;stroke:none"
         d="m -3033.5283,-785.72012 c -2.769,-0.0437 -2.8124,-0.0493 -2.8834,-0.37863 -0.04,-0.18384 -0.2461,-1.5497 -0.4588,-3.03516 -0.5195,-3.62773 -1.1454,-6.69064 -1.8105,-8.85964 -0.7054,-2.30059 -0.7383,-2.97803 -0.1668,-3.43393 0.2321,-0.18511 0.7795,-0.44918 1.2164,-0.58693 1.0059,-0.31706 5.0042,-0.99889 5.8577,-0.99889 1.7461,0 2.4802,0.83366 6.5182,7.40166 3.3635,5.47081 5.0777,9.05277 4.5735,9.55689 -0.3864,0.38643 -3.846,0.47656 -12.8463,0.33463 z"
         id="path5784"
         inkscape:connector-curvature="0" />
      <path
         style="fill:#ffffff;fill-opacity:1;stroke:none"
         d="m -2668.77,-1108.665 c 3.8519,-3.9469 6.1704,-5.1782 9.7271,-5.1656 4.2052,0.015 4.7024,0.8025 1.7022,2.6964 -3.1522,1.99 -9.7476,4.8126 -12.5963,5.391 l -2.1007,0.4265 3.2677,-3.3483 z"
         id="path5786"
         inkscape:connector-curvature="0" />
    </g>
  </g>
</svg>
