<?xml version="1.0" encoding="UTF-8" standalone="no"?>
<!-- Created with Inkscape (http://www.inkscape.org/) -->

<svg
   xmlns:dc="http://purl.org/dc/elements/1.1/"
   xmlns:cc="http://creativecommons.org/ns#"
   xmlns:rdf="http://www.w3.org/1999/02/22-rdf-syntax-ns#"
   xmlns:svg="http://www.w3.org/2000/svg"
   xmlns="http://www.w3.org/2000/svg"
   xmlns:sodipodi="http://sodipodi.sourceforge.net/DTD/sodipodi-0.dtd"
   xmlns:inkscape="http://www.inkscape.org/namespaces/inkscape"
   width="7086.6138"
   height="14173.228"
   id="svg2"
   version="1.1"
   inkscape:version="0.48.4 r9939"
   sodipodi:docname="Big_Banner_4x2m_21.svg"
   inkscape:export-filename="/home/CarlosRibeiro/git_repo/artwork/Marketing Materials/Events/openSUSE Conference/2013-oS-Conference/Banners/Big_Banner_4x2m_03.png"
   inkscape:export-xdpi="71.996307"
   inkscape:export-ydpi="71.996307">
  <defs
     id="defs4">
    <path
       sodipodi:type="arc"
       style="color:#000000;fill:none;stroke:none;stroke-width:0.5;marker:none;visibility:visible;display:inline;overflow:visible;enable-background:accumulate"
       id="path4342"
       sodipodi:cx="607.81238"
       sodipodi:cy="304.80777"
       sodipodi:rx="27.219366"
       sodipodi:ry="27.219366"
       d="m 635.03174,304.80777 a 27.219366,27.219366 0 1 1 -54.43873,0 27.219366,27.219366 0 1 1 54.43873,0 z"
       transform="matrix(-1.1177078,0,0,-1.1177078,1256.9567,951.59946)" />
    <path
       sodipodi:type="arc"
       style="color:#000000;fill:none;stroke:none;stroke-width:0.5;marker:none;visibility:visible;display:inline;overflow:visible;enable-background:accumulate"
       id="path4342-6"
       sodipodi:cx="607.81238"
       sodipodi:cy="304.80777"
       sodipodi:rx="27.219366"
       sodipodi:ry="27.219366"
       d="m 635.03174,304.80777 a 27.219366,27.219366 0 1 1 -54.43873,0 27.219366,27.219366 0 1 1 54.43873,0 z"
       transform="matrix(-1.1177078,0,0,-1.1177078,1256.9567,951.59946)" />
    <path
       transform="matrix(-1,0,0,-1,1236.1913,210.5532)"
       d="m 567.54987,105.2766 a 59.454872,59.454872 0 1 1 -118.90974,0 59.454872,59.454872 0 1 1 118.90974,0 z"
       sodipodi:ry="59.454872"
       sodipodi:rx="59.454872"
       sodipodi:cy="105.2766"
       sodipodi:cx="508.095"
       id="path3048"
       style="opacity:0;fill:#999999;fill-opacity:1;stroke:#000000;stroke-opacity:1"
       sodipodi:type="arc" />
    <path
       transform="matrix(0,-1,1,0,622.83064,613.38133)"
       d="m 508.09375,33.6875 c -39.39808,0 -71.59375,32.195673 -71.59375,71.59375 0,39.39808 32.20337,71.5625 71.59375,71.5625 39.39038,0 71.59375,-32.16442 71.59375,-71.5625 0,-39.398077 -32.19567,-71.59375 -71.59375,-71.59375 z"
       id="path3883"
       style="opacity:0;fill:#999999;fill-opacity:1;stroke:none"
       inkscape:original="M 508.09375 45.8125 C 475.25773 45.8125 448.625 72.445231 448.625 105.28125 C 448.625 138.11727 475.25773 164.71875 508.09375 164.71875 C 540.92977 164.71875 567.5625 138.11727 567.5625 105.28125 C 567.5625 72.445231 540.92977 45.8125 508.09375 45.8125 z "
       inkscape:radius="12.135736"
       sodipodi:type="inkscape:offset" />
    <path
       transform="matrix(-1,0,0,-1,1236.1913,210.5532)"
       d="m 567.54987,105.2766 a 59.454872,59.454872 0 1 1 -118.90974,0 59.454872,59.454872 0 1 1 118.90974,0 z"
       sodipodi:ry="59.454872"
       sodipodi:rx="59.454872"
       sodipodi:cy="105.2766"
       sodipodi:cx="508.095"
       id="path3048-2"
       style="opacity:0;fill:#999999;fill-opacity:1;stroke:#000000;stroke-opacity:1"
       sodipodi:type="arc" />
    <path
       transform="matrix(0,-1,1,0,622.83064,613.38133)"
       d="m 508.09375,33.6875 c -39.39808,0 -71.59375,32.195673 -71.59375,71.59375 0,39.39808 32.20337,71.5625 71.59375,71.5625 39.39038,0 71.59375,-32.16442 71.59375,-71.5625 0,-39.398077 -32.19567,-71.59375 -71.59375,-71.59375 z"
       id="path3883-9"
       style="opacity:0;fill:#999999;fill-opacity:1;stroke:none"
       inkscape:original="M 508.09375 45.8125 C 475.25773 45.8125 448.625 72.445231 448.625 105.28125 C 448.625 138.11727 475.25773 164.71875 508.09375 164.71875 C 540.92977 164.71875 567.5625 138.11727 567.5625 105.28125 C 567.5625 72.445231 540.92977 45.8125 508.09375 45.8125 z "
       inkscape:radius="12.135736"
       sodipodi:type="inkscape:offset" />
    <clipPath
       clipPathUnits="userSpaceOnUse"
       id="clipPath19016">
      <rect
         width="14123.893"
         height="7037.2783"
         y="-6009.5957"
         x="24.66748"
         id="rect19018"
         style="opacity:0.5;color:#000000;fill:none;stroke:#ffffff;stroke-width:49.33598709;stroke-linecap:butt;stroke-linejoin:miter;stroke-miterlimit:4;stroke-opacity:1;stroke-dasharray:none;stroke-dashoffset:0;marker:none;visibility:visible;display:inline;overflow:visible;enable-background:accumulate" />
    </clipPath>
    <filter
       id="filter20021"
       inkscape:label="Drop Shadow"
       color-interpolation-filters="sRGB">
      <feFlood
         id="feFlood20023"
         flood-opacity="0.75"
         flood-color="rgb(0,0,0)"
         result="flood" />
      <feComposite
         in2="SourceGraphic"
         id="feComposite20025"
         in="flood"
         operator="in"
         result="composite1" />
      <feGaussianBlur
         id="feGaussianBlur20027"
         stdDeviation="10"
         result="blur" />
      <feOffset
         id="feOffset20029"
         dx="0"
         dy="0"
         result="offset" />
      <feComposite
         in2="offset"
         id="feComposite20031"
         in="SourceGraphic"
         operator="over"
         result="composite2" />
    </filter>
    <clipPath
       clipPathUnits="userSpaceOnUse"
       id="clipPath7248">
      <rect
         style="opacity:0.5;color:#000000;fill:none;stroke:#ffffff;stroke-width:28.13416481;stroke-linecap:butt;stroke-linejoin:miter;stroke-miterlimit:4;stroke-opacity:1;stroke-dasharray:none;stroke-dashoffset:0;marker:none;visibility:visible;display:inline;overflow:visible;enable-background:accumulate"
         id="rect7250"
         width="7058.48"
         height="14145.094"
         x="14.067082"
         y="-13106.811" />
    </clipPath>
    <clipPath
       clipPathUnits="userSpaceOnUse"
       id="clipPath7248-2">
      <rect
         style="opacity:0.5;color:#000000;fill:none;stroke:#ffffff;stroke-width:28.13416481;stroke-linecap:butt;stroke-linejoin:miter;stroke-miterlimit:4;stroke-opacity:1;stroke-dasharray:none;stroke-dashoffset:0;marker:none;visibility:visible;display:inline;overflow:visible;enable-background:accumulate"
         id="rect7250-4"
         width="7058.48"
         height="14145.094"
         x="14.067082"
         y="-13106.811" />
    </clipPath>
    <path
       transform="matrix(-1,0,0,-1,1236.1913,210.5532)"
       d="m 567.54987,105.2766 a 59.454872,59.454872 0 1 1 -118.90974,0 59.454872,59.454872 0 1 1 118.90974,0 z"
       sodipodi:ry="59.454872"
       sodipodi:rx="59.454872"
       sodipodi:cy="105.2766"
       sodipodi:cx="508.095"
       id="path3048-2-3"
       style="opacity:0;fill:#999999;fill-opacity:1;stroke:#000000;stroke-opacity:1"
       sodipodi:type="arc" />
  </defs>
  <sodipodi:namedview
     id="base"
     pagecolor="#ffffff"
     bordercolor="#666666"
     borderopacity="1.0"
     inkscape:pageopacity="0.0"
     inkscape:pageshadow="2"
     inkscape:zoom="0.025194609"
     inkscape:cx="4673.3843"
     inkscape:cy="8375.3892"
     inkscape:document-units="mm"
     inkscape:current-layer="layer1"
     showgrid="false"
     units="cm"
     inkscape:window-width="1280"
     inkscape:window-height="742"
     inkscape:window-x="0"
     inkscape:window-y="27"
     inkscape:window-maximized="1" />
  <metadata
     id="metadata7">
    <rdf:RDF>
      <cc:Work
         rdf:about="">
        <dc:format>image/svg+xml</dc:format>
        <dc:type
           rdf:resource="http://purl.org/dc/dcmitype/StillImage" />
        <dc:title></dc:title>
      </cc:Work>
    </rdf:RDF>
  </metadata>
  <g
     inkscape:label="Layer 1"
     inkscape:groupmode="layer"
     id="layer1"
     transform="translate(0,13120.877)">
    <rect
       y="-13339.878"
       x="7390.1895"
       height="14611.23"
       width="7257.9912"
       id="rect11299"
       style="color:#000000;fill:#000000;fill-opacity:1;fill-rule:nonzero;stroke:#ffffff;stroke-width:188.2151947;stroke-linecap:butt;stroke-linejoin:miter;stroke-miterlimit:4;stroke-opacity:1;stroke-dasharray:none;stroke-dashoffset:0;marker:none;visibility:visible;display:inline;overflow:visible;enable-background:accumulate" />
    <rect
       style="color:#000000;fill:#000000;fill-opacity:1;fill-rule:nonzero;stroke:#ffffff;stroke-width:188.2151947;stroke-linecap:butt;stroke-linejoin:miter;stroke-miterlimit:4;stroke-opacity:1;stroke-dasharray:none;stroke-dashoffset:0;marker:none;visibility:visible;display:inline;overflow:visible;enable-background:accumulate"
       id="rect10711"
       width="7257.9912"
       height="14611.23"
       x="-78.672478"
       y="-13339.878" />
    <text
       x="2478.3784"
       y="295.03506"
       id="text6571"
       xml:space="preserve"
       style="font-size:20.78612137px;font-style:normal;font-variant:normal;font-weight:bold;font-stretch:normal;line-height:125%;letter-spacing:0px;word-spacing:0px;opacity:0.5;fill:#ffffff;fill-opacity:1;stroke:none;font-family:FifthLeg;-inkscape-font-specification:Sans Bold"
       sodipodi:linespacing="125%"><tspan
         x="2478.3784"
         y="295.03506"
         id="tspan6573"
         style="font-size:207.86120605px;fill:#ffffff">conference.opensuse.org</tspan></text>
    <text
       xml:space="preserve"
       style="font-size:453.0171814px;font-style:normal;font-weight:normal;line-height:125%;letter-spacing:0px;word-spacing:0px;fill:#000000;fill-opacity:1;stroke:none;font-family:Sans"
       x="1101.2092"
       y="-4619.3735"
       id="text20050"
       sodipodi:linespacing="125%"><tspan
         sodipodi:role="line"
         id="tspan20052"
         x="1101.2092"
         y="-4619.3735"
         style="font-style:normal;font-variant:normal;font-weight:bold;font-stretch:normal;fill:#ffffff;font-family:FifthLeg;-inkscape-font-specification:FifthLeg Bold">openSUSE Conference 2013</tspan></text>
    <text
       xml:space="preserve"
       style="font-size:497.0078125px;font-style:normal;font-weight:normal;line-height:125%;letter-spacing:0px;word-spacing:0px;fill:#000000;fill-opacity:1;stroke:none;font-family:Sans"
       x="3691.5242"
       y="-4035.5962"
       id="text20059"
       sodipodi:linespacing="125%"><tspan
         sodipodi:role="line"
         id="tspan20061"
         x="3691.5242"
         y="-4035.5962"
         style="font-style:normal;font-variant:normal;font-weight:bold;font-stretch:normal;text-align:center;text-anchor:middle;fill:#ffffff;font-family:FifthLeg;-inkscape-font-specification:FifthLeg Bold">18-22 July @</tspan><tspan
         sodipodi:role="line"
         x="3691.5242"
         y="-3414.3364"
         style="font-style:normal;font-variant:normal;font-weight:bold;font-stretch:normal;text-align:center;text-anchor:middle;fill:#ffffff;font-family:FifthLeg;-inkscape-font-specification:FifthLeg Bold"
         id="tspan10865">Thessaloniki, Greece</tspan></text>
    <g
       id="g10758"
       transform="matrix(2.1662417,0,0,2.1662417,13712.589,-7413.9952)">
      <path
         d="m -4989.0125,375.28929 c -40.8968,-2.91214 -88.4241,-8.00382 -93.8035,-10.04889 -3.4873,-1.32584 -2.5297,-3.51265 4.6185,-10.54638 6.8827,-6.77209 23.3481,-20.21653 35.6363,-29.09822 16.2471,-11.74245 35.7012,-23.39173 52.178,-31.24397 15.4098,-7.34395 13.7193,-7.06611 45.1148,-7.41013 27.4171,-0.30083 37.8346,0.16661 55.8113,2.50736 15.497,2.01738 28.6634,4.31894 29.9064,5.22778 1.1154,0.81568 1.1109,1.0487 -0.056,2.82931 -1.7908,2.73357 -20.6957,20.45753 -33.2444,31.16817 -31.291,26.70796 -48.6639,38.3014 -66.2224,44.19257 -6.0479,2.02888 -8.1425,2.35201 -16.3633,2.52237 -5.1851,0.1056 -11.2943,0.0657 -13.5757,-0.1009 z m 458.85,-0.29191 c -14.0569,-2.54889 -30.8885,-11.83843 -53.0864,-29.2998 -19.9403,-15.68593 -50.6484,-43.09741 -53.9851,-48.19002 -1.1668,-1.78061 -1.1714,-2.01363 -0.056,-2.82978 1.243,-0.90838 14.4093,-3.20993 29.9063,-5.22731 17.9768,-2.34028 28.3942,-2.8082 55.8114,-2.50759 31.3955,0.34424 29.705,0.068 45.1147,7.41036 16.4769,7.85223 35.931,19.50152 52.178,31.24397 20.9605,15.14949 42.2356,33.90877 42.2356,37.24143 0,2.81312 -2.7794,3.41409 -30.1683,6.52217 -39.768,4.51301 -79.9459,7.08771 -87.9503,5.63657 z m -574.6207,-60.7674 c -17.8874,-2.7683 -40.6045,-8.83217 -76.1382,-20.32213 -26.8536,-8.6834 -31.3364,-10.34269 -31.3364,-11.59906 0,-0.35622 0.8874,-1.22939 1.9719,-1.93995 7.0581,-4.6247 69.9295,-35.85975 85.5162,-42.4847 l 6.4107,-2.72512 13.7185,-0.28723 c 21.2712,-0.44585 25.5455,0.48692 82.6813,18.03841 19.5875,6.01741 25.4047,8.11224 25.4047,9.14873 0,1.22048 -16.0694,17.9774 -22.6127,23.58064 -18.0704,15.47309 -33.6764,22.7145 -60.8457,28.23185 -8.7285,1.7724 -15.0459,1.86415 -24.7703,0.35669 z m 689.5102,0.0469 c -27.9273,-5.55467 -44.365,-13.12742 -62.6675,-28.87154 -6.904,-5.93904 -22.3456,-22.09664 -22.3456,-23.38165 0,-0.4306 1.7818,-1.44785 3.9596,-2.26072 9.3789,-3.50091 57.4417,-18.26603 70.5197,-21.66392 15.5608,-4.04321 40.1054,-4.43745 50.8887,-0.81756 13.8894,4.66248 89.2619,42.12614 90.1572,44.81231 0.465,1.39482 -3.1406,2.76337 -31.081,11.79688 -36.854,11.91563 -58.4466,17.64606 -76.7176,20.35874 -9.4654,1.40586 -15.7454,1.41336 -22.7135,0.0469 z m -442.5073,-32.40625 c -52.0475,-6.28446 -127.8257,-24.80345 -184.4164,-45.06809 -8.718,-3.12169 -17.6887,-6.2218 -19.9347,-6.88894 -3.5758,-1.06185 -10.4134,-1.2125 -54.9538,-1.2125 l -50.8699,0 -8.7642,1.9444 c -4.8202,1.06959 -13.3924,3.10082 -19.0491,4.51348 l -10.285,2.56883 -9.4117,-2.57939 c -11.4207,-3.13015 -18.9824,-5.96251 -31.8217,-11.91915 -22.5592,-10.46659 -63.8999,-33.62624 -66.196,-37.08421 -0.2962,-0.44633 -0.1265,-1.20545 0.3771,-1.68768 2.4866,-2.38134 47.7904,-18.75295 61.252,-22.13489 6.0575,-1.52178 7.8835,-1.65201 16.9697,-1.20944 5.6,0.27314 11.3697,0.75701 12.8215,1.07592 l 2.6397,0.58008 0.2,22.1553 c 0.1339,14.809 0.4769,22.48876 1.035,23.16106 0.6922,0.83399 34.8527,1.00717 199.6648,1.01163 109.3564,0 201.1488,0.22292 203.9831,0.49185 l 5.1533,0.48668 -0.5028,2.71316 c -0.7615,4.10962 -3.876,9.2907 -6.7789,11.27758 -5.0095,3.42887 -8.3664,4.13262 -21.3144,4.47029 l -12.2559,0.31914 0,2.67139 c 0,1.46944 1.0629,7.89494 2.3619,14.2789 1.299,6.38419 2.1183,11.85015 1.8204,12.14676 -0.2979,0.29638 -5.6879,0.49303 -11.978,0.43647 -12.3749,-0.11029 -27.7048,-1.82425 -32.9814,-3.68582 -6.7781,-2.39167 -20.8204,-12.2939 -30.6187,-21.59165 l -4.6485,-4.41092 -13.5531,0 c -15.2458,0 -14.4485,-0.33792 -14.4729,6.12982 -0.014,3.79212 -1.4202,4.7364 -6.1232,4.11267 -5.1688,-0.68592 -8.9507,-2.22764 -16.1794,-6.59586 l -6.077,-3.67221 -19.9432,0.20181 -19.9432,0.20181 4.1481,1.97655 c 22.7179,10.82398 91.8359,29.4535 123.3129,33.23717 9.001,1.08179 51.6715,1.27046 75.4207,0.33393 l 16.5926,-0.65447 9.239,4.64723 c 5.4579,2.7453 9.2391,5.09684 9.2391,5.74544 0,0.60378 -0.2609,1.09798 -0.5794,1.09798 -0.3188,0 -4.3066,0.8483 -8.8619,1.88503 -20.2901,4.61767 -47.1474,6.52429 -63.7168,4.5238 z m 189.6831,0.60027 c -8.0481,-0.55756 -26.7841,-3.32515 -34.6798,-5.12313 -4.5554,-1.0372 -8.5432,-1.88597 -8.862,-1.88597 -0.3188,0 -0.5794,-0.49419 -0.5794,-1.09798 0,-0.64907 3.7783,-2.99615 9.2391,-5.73911 l 9.239,-4.64066 11.6902,0.45384 c 65.8197,2.5571 84.4687,1.25379 124.0671,-8.67167 18.5696,-4.65427 45.1914,-12.92467 46.0438,-14.30401 0.2571,-0.41605 -7.6671,-0.69413 -19.7837,-0.69413 -11.117,0 -26.5293,-0.38484 -34.2495,-0.85604 l -14.0369,-0.85604 -9.2931,6.18942 c -12.0872,8.05029 -15.0903,9.51504 -22.2861,10.87021 -14.2854,2.69109 -39.5442,3.3275 -39.536,0.99661 0,-0.48575 1.0185,-5.80411 2.2595,-11.81895 1.2411,-6.0146 2.2578,-12.14935 2.2596,-13.63264 l 0,-2.69673 -9.8794,-2.07863 c -25.9608,-5.46244 -55.8803,-15.9173 -77.9858,-27.2512 -15.5757,-7.98576 -21.7639,-12.53818 -25.9005,-19.05379 -3.5418,-5.57906 -5.9252,-15.23279 -3.7606,-15.23279 0.4864,0 8.3773,4.03969 17.5353,8.97696 39.0103,21.03128 71.9643,31.29442 128.6508,40.06652 36.9932,5.7248 56.8364,7.03163 99.1783,6.53133 33.4687,-0.39517 40.6913,-0.80888 62.5097,-3.57788 48.9392,-6.21148 89.6258,-20.14566 122.5304,-41.96399 31.2049,-20.69149 57.1134,-51.9141 69.9126,-84.252052 1.5745,-3.978211 2.966,-7.129711 3.0921,-7.003698 0.2798,0.279951 -3.8184,16.09213 -5.4749,21.12373 -0.6575,1.99697 -1.0227,3.80386 -0.8116,4.01505 0.7198,0.71971 4.9505,-1.97561 15.7517,-10.035282 50.5955,-37.752996 103.0457,-86.662959 133.1536,-124.165806 10.04,-12.506268 45.2051,-61.322601 57.1557,-79.344112 9.7258,-14.66632 92.1923,-145.1478 102.7229,-162.53174 5.841,-9.64222 11.8476,-20.44227 19.4001,-34.88191 2.7663,-5.28903 5.3501,-9.61618 5.7417,-9.61618 6.8007,0 -28.4018,67.77437 -76.8798,148.01442 -29.8106,49.34221 -84.1198,128.075495 -104.9577,152.160181 -7.7254,8.9288585 -47.2639,50.975685 -57.5609,61.21231 -10.5873,10.525728 -23.5585,22.027881 -43.4714,38.548498 -9.3333,7.74335 -20.8727,17.365631 -25.643,21.382801 -4.7704,4.01716 -14.7825,11.90225 -22.2491,17.52215 -16.5568,12.46168 -19.5424,15.2037 -25.9856,23.86574 -2.7769,3.73323 -6.9769,8.99339 -9.3334,11.68895 -2.3564,2.69555 -4.0041,4.99476 -3.6615,5.10881 0.3424,0.11263 6.1609,-1.00365 12.9295,-2.48389 24.912,-5.44884 34.4999,-6.08148 46.1434,-3.04567 13.9854,3.64663 57.6056,19.48744 60.0148,21.79439 1.2528,1.19959 0.5604,2.01598 -4.6865,5.52393 -14.8388,9.92124 -53.7977,30.52472 -72.0268,38.09184 -8.0669,3.34885 -26.9824,8.92417 -30.2761,8.92417 -4.5099,0 -55.1111,-14.75338 -71.333,-20.79779 l -6.9562,-2.59207 -6.6195,2.7561 c -17.3432,7.22146 -42.1241,14.24088 -63.3285,17.93821 -6.5609,1.14397 -15.6082,3.46289 -23.3805,5.99254 -43.8635,14.27679 -91.2007,26.54816 -133.7284,34.66697 -35.4484,6.76739 -54.3269,8.73549 -72.0268,7.50962 z m -692.591,-137.08884 c -7.008,-1.59569 -12.1811,-3.66353 -23.5288,-9.40592 -21.9978,-11.13186 -67.174,-37.807672 -68.982,-40.733193 -0.7466,-1.207801 2.4939,-2.823209 12.0393,-6.001225 15.4543,-5.145416 52.7807,-14.883151 71.2726,-18.59338 13.1726,-2.643223 34.2383,-0.199462 49.4006,5.733712 14.5497,5.692411 36.1824,19.188245 51.5892,32.184486 9.1458,7.71472 9.8499,8.59916 8.3265,10.45838 -2.2462,2.74178 -38.3677,18.42348 -50.111,21.75497 -16.4634,4.67093 -40.1368,6.84953 -50.0064,4.60217 z m 1194.5159,-0.47401 c -18.0921,-2.75657 -26.7114,-5.56523 -53.9381,-17.57519 -18.6234,-8.21478 -19.1662,-8.77327 -13.5074,-13.89733 16.5081,-14.947923 40.5881,-30.529191 57.2637,-37.053476 15.1623,-5.932 36.228,-8.376935 49.4006,-5.733712 18.4918,3.710229 55.8182,13.447964 71.2726,18.59338 9.5453,3.178016 12.7859,4.793424 12.0393,6.001225 -2.6884,4.350149 -69.3017,42.246523 -83.4107,47.452483 -10.9709,4.04814 -22.7147,4.71247 -39.12,2.21262 z M -5234.56,126.25769 c -7.4958,-5.67552 -16.9989,-13.15464 -21.1178,-16.62059 -4.1189,-3.46571 -15.1125,-12.629226 -24.4303,-20.363659 -20.2905,-16.842103 -33.9223,-28.916829 -44.2539,-39.198509 -10.3585,-10.308197 -49.8771,-52.3395358 -57.5609,-61.220523 -20.8379,-24.084217 -75.1471,-102.817969 -104.9577,-152.159949 -48.4781,-80.24028 -83.6805,-148.01442 -76.8799,-148.01442 0.3917,0 2.9755,4.32715 5.7418,9.61618 7.5525,14.43964 13.5591,25.23992 19.4001,34.88215 10.5305,17.3837 92.9971,147.86494 102.7229,162.5315 11.9506,18.021748 47.1156,66.838081 57.1557,79.344114 22.1101,27.5407761 58.2052,63.244007 94.4554,93.429884 22.0767,18.383357 46.1056,37.219612 57.6969,45.228832 3.5259,2.43602 6.6601,4.78216 6.9648,5.21323 0.3048,0.43084 0.5594,4.60171 0.5657,9.26865 0.01,6.31802 -0.2291,8.4715 -0.9312,8.43349 -0.5185,-0.0282 -7.0757,-4.69487 -14.5716,-10.37038 z m 11.4624,-45.955346 c -5.6839,-17.594896 -7.2612,-29.030171 -7.2612,-52.645065 0,-24.2301757 0.8184,-44.086267 1.816,-44.062801 1.1933,0.02816 7.5535,9.5863791 22.283,33.489672 15.1261,24.546734 25.3246,44.022908 23.8347,45.517231 -0.2975,0.298254 -8.5741,0.712431 -18.3922,0.919872 l -17.8513,0.3771 -0.2074,12.255885 c -0.1159,6.857269 -0.5146,12.255885 -0.905,12.255885 -0.3837,0 -1.8763,-3.648513 -3.3169,-8.107779 z m 68.035,-17.67163 c -1.2258,-0.971263 -4.4007,-15.20628 -4.4007,-19.731252 0,-3.515929 1.0021,-2.915196 16.0442,9.61665 6.9502,5.790734 9.7356,8.932379 8.725,9.841925 -0.1417,0.126717 -4.4998,0.464629 -9.6851,0.749508 -7.2957,0.400801 -9.7115,0.292857 -10.6834,-0.476831 z M -5292.5007,45.23176 c -14.1159,-16.768889 -32.5855,-43.2159091 -37.3555,-53.4903146 -4.7692,-10.2729974 -5.413,-16.2690604 -3.7916,-35.3179174 0.4413,-5.185073 1.0377,-18.756703 1.3253,-30.15889 0.4575,-18.140249 0.6737,-20.760711 1.7295,-20.962754 2.0994,-0.402209 12.8658,7.431251 19.942,14.509805 13.815,13.819198 29.6882,38.909642 33.2848,52.612447 0.7919,3.017274 1.2192,7.481703 1.1754,12.282402 -0.089,9.7804433 -4.3772,56.064078 -5.8367,63.00254 -0.6192,2.94359 -1.1258,5.499285 -1.1258,5.679505 0,0.180689 -0.4961,0.327821 -1.1024,0.327821 -0.6063,0 -4.3165,-3.818407 -8.245,-8.484879 z m 1078.8133,8.156823 c 0,-0.180689 -0.5066,-2.735915 -1.1258,-5.679505 -1.4595,-6.938462 -5.7472,-53.2220967 -5.8366,-63.00254 -0.042,-4.800699 0.3832,-9.265128 1.1754,-12.282402 3.5966,-13.702805 19.4698,-38.793249 33.2847,-52.612447 7.0762,-7.078554 17.8427,-14.912014 19.9421,-14.509805 1.0558,0.201809 1.272,2.822505 1.7295,20.962754 0.2877,11.402187 0.884,24.973817 1.3253,30.15889 1.6213,19.048857 0.9776,25.04492 -3.7916,35.3179174 -6.4356,13.8619058 -41.8366,61.9751936 -45.6005,61.9751936 -0.6064,0 -1.1025,-0.147837 -1.1025,-0.327822 z M -5446.529,50.348547 c -6.2913,-2.012924 -10.3021,-4.028898 -21.6442,-10.878893 -18.9184,-11.425419 -34.1488,-22.389259 -48.4475,-34.8760499 -8.3669,-7.3066455 -17.8158,-17.4625471 -19.4059,-20.8576251 -1.6731,-3.572482 2.3163,-4.949943 23.2172,-8.016496 31.4514,-4.614612 37.4713,-5.221211 52.4174,-5.282692 13.0615,-0.05397 15.4666,0.136103 21.4949,1.692376 16.2229,4.188702 32.416,14.491033 58.4511,37.1879322 13.5421,11.8060388 17.684,16.0351028 17.1265,17.4878908 -0.4357,1.13576 -15.0539,7.128772 -25.7999,10.577118 -7.6701,2.461596 -29.4851,8.662518 -42.3255,12.031314 l -9.8945,2.595822 z m 1382.5518,-0.550985 c -12.9612,-3.423002 -34.7279,-9.587317 -42.6127,-12.068155 -11.2759,-3.547608 -26.4649,-9.708872 -26.9313,-10.924417 -0.5575,-1.452788 3.5844,-5.681852 17.1266,-17.4878908 26.0351,-22.6968992 42.2282,-32.9992302 58.451,-37.1879322 6.0284,-1.556508 8.4335,-1.745879 21.4949,-1.692376 14.9462,0.06101 20.966,0.66808 52.4174,5.282692 20.9009,3.066553 24.8904,4.444014 23.2173,8.016496 -1.5901,3.395078 -11.039,13.5509796 -19.4058,20.8576251 -22.8842,19.9842159 -57.2959,42.2181289 -71.6901,46.3204759 -3.5729,1.017961 -4.207,0.959295 -12.0673,-1.116518 z M -5372.568,-32.074553 c -6.9043,-8.090414 -10.67,-14.059726 -12.4209,-19.688778 -1.879,-6.041353 -1.8714,-6.322477 0.4406,-16.324441 5.5531,-24.022735 5.706,-25.038818 5.6755,-37.710518 -0.016,-6.63693 -0.5509,-17.98491 -1.1888,-25.21763 -0.6785,-7.69454 -0.8809,-13.42919 -0.4877,-13.82249 0.3932,-0.39329 1.4145,0.36185 2.4617,1.8198 5.7034,7.94047 21.4417,37.23416 25.8724,48.156466 6.8764,16.950751 6.1982,36.893667 -1.8399,54.101137 -3.1007,6.637861 -9.6996,14.531864 -12.1481,14.531864 -0.7853,0 -3.5195,-2.510875 -6.3648,-5.84541 z m 1236.6184,1.683928 c -4.3312,-4.579413 -8.979,-13.592045 -10.8837,-21.104723 -3.9303,-15.502188 -3.189,-30.062915 2.2078,-43.366796 4.4308,-10.922306 20.1691,-40.215996 25.8725,-48.156466 1.0471,-1.45795 2.0685,-2.21285 2.4616,-1.8198 0.3934,0.39353 0.191,6.12795 -0.4876,13.82249 -0.638,7.23272 -1.1729,18.5807 -1.1888,25.21763 -0.032,12.6717 0.1229,13.687783 5.6754,37.710518 1.0548,4.562987 1.9209,9.024131 1.9246,9.913732 0.014,3.22401 -3.041,11.304802 -5.9458,15.729339 -4.5217,6.887541 -12.7616,16.215558 -14.3238,16.215558 -0.7573,0 -3.1477,-1.872597 -5.3122,-4.161482 z m -1363.6612,-23.025894 c -7.2613,-0.87646 -11.7489,-2.040145 -15.8163,-4.101174 -5.7079,-2.892668 -14.3706,-10.281915 -23.7463,-20.255719 -9.9548,-10.590025 -28.51,-33.476298 -28.1112,-34.672838 1.1577,-3.47298 18.1238,-3.05528 52.2126,1.28548 31.8655,4.05799 32.7831,4.23587 40.0908,7.76681 13.8038,6.669779 44.0033,35.793814 44.0033,42.435899 0,1.961064 -2.9962,2.967995 -14.6545,4.9246 -19.5372,3.279156 -40.1944,4.280689 -53.9784,2.616942 z m 1466.179,-0.02347 c -9.877,-1.085074 -28.1341,-4.269192 -30.4001,-5.301466 -1.1169,-0.50898 -2.0308,-1.510983 -2.0308,-2.2267 0,-6.642085 30.1995,-35.76612 44.0033,-42.436125 7.3076,-3.53118 8.2252,-3.70859 40.0908,-7.76658 34.0888,-4.34076 51.0549,-4.75846 52.2125,-1.28548 0.399,1.19631 -18.1564,24.082574 -28.1111,34.672599 -14.1524,15.055627 -22.4948,21.022357 -32.5826,23.304202 -6.224,1.407733 -33.7903,2.071589 -43.182,1.03955 z m -1395.0524,-54.055141 c -1.5576,-2.38533 -4.962,-8.54237 -7.5652,-13.68262 -6.3784,-12.59474 -6.3679,-13.10959 0.5766,-28.16568 8.6458,-18.74427 17.5718,-35.64645 18.8248,-35.64645 2.1898,0 11.9371,22.91584 14.356,33.75085 1.3483,6.03901 0.2974,10.07002 -5.9635,22.87689 -7.2842,14.89981 -13.9971,25.20355 -16.4199,25.20355 -0.5372,0 -2.2511,-1.95144 -3.8088,-4.33654 z m 1353.7883,2.6397 c -5.1396,-5.61215 -18.2808,-30.69603 -19.9209,-38.0252 -1.1194,-5.00204 -0.3184,-9.00113 4.3555,-21.74558 4.2263,-11.52445 8.5969,-20.36367 10.0686,-20.36367 1.2531,0 10.179,16.90218 18.8248,35.64645 6.9445,15.05609 6.9551,15.57094 0.5767,28.16568 -5.5576,10.97393 -10.0048,18.01916 -11.374,18.01916 -0.5372,0 -1.676,-0.76359 -2.5307,-1.69684 z m -1453.1667,-40.59145 c -16.0899,-1.65483 -23.3994,-5.36976 -32.2954,-16.41408 -4.202,-5.21676 -20.0322,-28.59277 -25.0381,-36.97346 -3.0828,-5.1609 -2.8248,-6.50457 1.1141,-5.80411 1.0371,0.18539 3.4128,0.55287 5.2795,0.81874 8.9231,1.27045 32.5402,8.1763 42.2356,12.35045 15.2569,6.56793 29.6921,18.56686 42.1695,35.05181 7.1854,9.49345 5.1252,11.14899 -14.2638,11.46367 -6.8445,0.11029 -15.4851,-0.11029 -19.2014,-0.49302 z m 1528.2733,0.0939 c -7.9512,-1.47203 -8.5014,-3.6051 -2.8539,-11.06662 12.4774,-16.48518 26.9126,-28.48388 42.1695,-35.05205 9.6954,-4.17415 33.3125,-11.07999 42.2356,-12.35045 1.8666,-0.26587 4.2424,-0.63405 5.2794,-0.81873 3.9391,-0.70047 4.1969,0.6432 1.1142,5.80434 -5.006,8.38046 -20.8361,31.7567 -25.0382,36.97322 -7.4583,9.25973 -14.2408,13.44843 -24.9376,15.40199 -6.9265,1.26482 -33.0105,2.02606 -37.969,1.1083 z m -1480.0082,-43.59653 c -8.0887,-11.0279 -10.3771,-20.79403 -7.2697,-31.02455 2.3077,-7.59786 16.0239,-34.12021 17.7497,-34.32202 0.9836,-0.11498 4.8757,10.94366 6.2094,17.643 1.6996,8.53698 0.5112,21.79369 -2.9073,32.43088 -2.6855,8.35629 -8.5019,18.85526 -10.446,18.85526 -0.3897,0 -1.8909,-1.61212 -3.3361,-3.58257 z m 1456.469,1.1313 c -8.5153,-11.33906 -13.6491,-34.544 -10.804,-48.83487 1.3343,-6.70263 5.1182,-17.45644 6.1642,-17.51839 1.6666,-0.0986 15.3856,26.26539 17.7949,34.19741 2.3781,7.829 1.8106,14.48962 -1.8625,21.86267 -3.0131,6.0484 -7.607,12.74445 -8.7433,12.74445 -0.3897,0 -1.5369,-1.10314 -2.5493,-2.45127 z M -5547.5029,-221.169 c -20.0491,-4.67163 -33.3756,-11.71077 -42.4833,-22.43994 -4.652,-5.48028 -11.7714,-19.41634 -15.1902,-29.73439 -2.7536,-8.31053 -2.9276,-10.82492 -0.7491,-10.82492 2.1623,0 12.987,4.27505 30.0496,11.86752 l 14.6168,6.5041 6.9827,10.61208 c 3.8405,5.83673 10.4144,15.65566 14.6087,21.81951 4.1943,6.16408 7.626,11.84874 7.626,12.63298 0,1.22376 -0.5608,1.41829 -3.9596,1.373 -2.1777,-0.0282 -7.3535,-0.84337 -11.5016,-1.80994 z m 1582.704,0.43671 c 0,-0.78401 3.4316,-6.46867 7.626,-12.63299 4.1943,-6.16385 10.7682,-15.98254 14.6087,-21.8195 l 6.9826,-10.61185 14.6169,-6.50434 c 17.0626,-7.59246 27.8872,-11.86728 30.0496,-11.86728 2.1785,0 2.0045,2.51439 -0.7491,10.82468 -3.4189,10.31805 -10.5382,24.25411 -15.1902,29.73439 -9.1968,10.83431 -22.6001,17.86499 -42.8604,22.48383 -10.0184,2.28372 -15.0841,2.41584 -15.0841,0.39329 z m -1558.0767,-35.34162 c -4.2722,-7.32871 -5.0934,-10.55178 -3.9688,-15.57728 1.7295,-7.7281 11.9371,-31.37233 13.544,-31.37233 1.1223,0 3.6971,8.61301 4.7001,15.72277 1.2904,9.14639 0.6381,14.30213 -2.9727,23.49616 -3.5955,9.15531 -5.6617,12.82142 -7.2257,12.82142 -0.61,0 -2.4446,-2.29076 -4.0769,-5.09074 z m 1542.2213,2.6397 c -3.0186,-4.92225 -7.7186,-18.22942 -8.0987,-22.93039 -0.6511,-8.05052 2.9875,-26.65892 5.2128,-26.65892 0.8447,0 7.1218,12.98803 10.433,21.58719 3.4226,8.8885 4.2054,13.24475 3.0662,17.0648 -1.3334,4.47147 -6.6623,13.38836 -8.0009,13.38836 -0.61,0 -1.7856,-1.10291 -2.6124,-2.45104 z m -1592.4917,-67.84383 c -3.0411,-1.73227 -11.5986,-9.82926 -17.784,-16.82756 -8.0122,-9.06519 -13.1449,-16.66071 -14.624,-21.64139 -1.9734,-6.64561 -5.7441,-46.93013 -4.5705,-48.82924 0.3975,-0.64297 0.9698,-0.51015 2.071,0.48035 3.8613,3.47369 26.11,31.90759 31.1111,39.75982 3.2089,5.03841 7.4475,15.92552 9.0817,23.32696 1.7048,7.72083 1.3237,17.9666 -0.8039,21.60948 -1.7257,2.95486 -2.4318,3.28925 -4.4814,2.12158 z m 1645.6715,-0.88515 c -2.9131,-4.44612 -3.4944,-14.05385 -1.4109,-23.32391 1.582,-7.0396 5.8839,-17.97646 8.9871,-22.84896 5.0012,-7.85223 27.2498,-36.28613 31.1112,-39.75982 1.1012,-0.9905 1.6735,-1.12332 2.0709,-0.48035 1.1737,1.89911 -2.597,42.18363 -4.5704,48.82924 -0.6342,2.13542 -2.7552,6.2617 -4.7133,9.16938 -7.8088,11.59602 -26.225,30.20747 -29.8904,30.20747 -0.2253,0 -0.938,-0.807 -1.5842,-1.79305 z"
         id="path3122"
         style="fill:#ffffff"
         inkscape:connector-curvature="0" />
      <path
         d="m -4419.6312,178.13916 c 66.046,-4.21216 114.7507,-15.52002 160.136,-37.17831 52.4144,-25.01277 94.1361,-66.107104 114.2433,-112.52473 22.5143,-51.974403 27.6156,-121.399386 12.3827,-168.51912 -6.3259,-19.56839 -17.1506,-41.13564 -28.2982,-56.38251 -15.7663,-21.56372 -34.5476,-38.537 -65.4591,-59.15785 -7.8588,-5.24233 -14.5997,-10.00572 -14.9798,-10.58487 -0.3805,-0.57961 -0.6976,-3.10644 -0.7055,-5.61567 -0.016,-5.3017 -0.4639,-4.79061 18.1279,-20.70932 15.1187,-12.94438 29.8738,-27.40374 36.6078,-35.8736 21.8914,-27.53444 37.0685,-59.362 43.0215,-90.21878 5.7716,-29.91812 4.7874,-72.62716 -2.4194,-104.97544 -8.273,-37.13467 -25.4288,-70.58539 -48.5555,-94.67477 -4.1596,-4.33255 -8.9913,-8.76037 -10.7371,-9.83934 l -3.1744,-1.962 -11.9744,3.38381 c -13.529,3.82287 -29.5707,7.19753 -45.9791,9.6718 -16.023,2.41654 -67.6634,2.44071 -82.5152,0.0422 -59.3292,-9.59366 -103.0304,-34.27532 -135.2985,-76.41413 -3.5657,-4.65615 -7.4173,-8.98894 -8.5591,-9.62839 -7.1485,-4.00074 -85.9975,3.44788 -100.3419,9.47938 -1.4785,0.62161 -5.5734,4.87344 -9.2171,9.57042 -17.0633,21.99596 -41.3457,40.46826 -67.8804,51.6386 -24.9754,10.514 -58.9249,17.4548 -85.6078,17.50244 -4.4373,0 -8.7026,0.41605 -9.4788,0.90626 -1.2374,0.78236 -1.4415,13.33674 -1.6587,102.0511 l -0.2471,101.15916 109.133,0 109.1332,0 7e-4,-11.99401 c 0,-34.73853 5.7504,-54.8375 19.6613,-68.74868 14.6486,-14.64826 39.4338,-21.77257 66.3306,-19.06552 20.7136,2.08473 33.4987,7.44298 44.8724,18.80621 8.5052,8.49756 13.0371,16.7405 16.5701,30.13848 3.2469,12.31291 4.1486,39.81919 1.7019,51.91433 -3.0526,15.09012 -11.1737,29.98125 -20.9001,38.32463 -4.732,4.0587 -14.3808,9.49228 -20.0951,11.3156 -12.4318,3.96695 -15.0963,4.16148 -64.8699,4.72842 l -48.4458,0.55192 -0.2587,80.42919 c -0.142,44.23621 -0.037,81.35797 0.2396,82.49256 l 0.498,2.0629 49.1468,0.32947 c 47.2164,0.31609 49.4379,0.41019 56.5578,2.39777 26.815,7.48452 42.9845,26.10629 48.0898,55.38309 1.8214,10.4443 1.8356,38.717452 0.021,52.310436 -5.0701,38.091378 -21.2383,56.644865 -54.3911,62.41448 -12.0339,2.094351 -35.6953,1.368544 -46.2892,-1.42017 -18.5198,-4.875321 -31.9731,-15.369135 -39.0421,-30.453625 -6.7915,-14.492675 -7.7102,-20.0992 -8.36,-51.017455 l -0.5733,-27.280066 -109.0696,-0.23842 c -59.9883,-0.13141 -109.3311,0.0798 -109.6506,0.47003 -0.3194,0.39024 -0.4028,52.619486 -0.185,116.064597 l 0.3959,115.355213 13.7741,8.01627 c 31.1825,18.14846 49.9338,26.6974 81.9745,37.37331 24.9715,8.32015 53.6869,14.76629 91.7177,20.58823 30.4613,4.66319 39.231,5.61897 72.9039,7.9461 10.98,0.7589 74.6082,0.51438 87.9711,-0.33721 z M -4814.0067,74.9164 c 0.3178,-50.384573 0.2044,-89.493207 -0.2593,-89.963938 -0.466,-0.472138 -20.1789,-0.644379 -45.5394,-0.397281 -29.9221,0.29098 -45.038,0.114984 -45.6846,-0.531508 -0.657,-0.656816 -1.0021,-99.462553 -1.0776,-308.620533 -0.061,-169.20996 -0.3784,-308.84815 -0.7056,-310.30774 -0.5303,-2.36867 -1.6505,-3.05154 -10.4464,-6.36683 -14.2782,-5.38219 -29.7266,-13.08377 -36.4277,-18.16113 -7.4326,-5.6314 -12.7609,-13.52611 -15.0029,-22.22899 -1.4418,-5.5969 -2.0796,-6.739 -4.0782,-7.30312 -3.0616,-0.8645 -27.0376,-0.85534 -30.1485,0 -1.4003,0.39 -4.1697,3.09799 -6.7255,6.57614 -21.915,29.82567 -57.9643,51.7916 -100.6614,61.33645 -39.168,8.75615 -82.5053,8.91736 -121.9461,0.45407 -19.6264,-4.2117 -44.1713,-13.68263 -59.3398,-22.89707 -6.5251,-3.9639 -8.4189,-4.08146 -22.3853,-1.39037 -14.6185,2.81664 -42.7178,9.19661 -45.2011,10.26291 l -2.1166,0.90861 0,60.6395 c 0,43.89877 0.292,60.82019 1.0582,61.2935 0.5819,0.35997 31.3019,0.56929 68.2666,0.46604 50.699,-0.14314 67.5389,0.0845 68.5533,0.92785 1.1596,0.96235 1.3427,34.99151 1.3303,247.22753 0,135.36149 -0.3253,246.561801 -0.7055,247.111612 -0.4721,0.683333 -17.0281,1.033917 -52.282,1.107131 -28.3749,0.06101 -51.8159,0.332046 -52.0909,0.606834 -0.75,0.750212 -1.0484,87.32353 -0.468,135.803593 l 0.5096,42.56637 256.5066,0 256.5066,0 0.5617,-89.130659 z"
         id="path3124"
         style="fill:#ffffff"
         inkscape:connector-curvature="0" />
      <path
         d="m -5131.6193,-667.71704 c 32.6838,-5.19071 61.0387,-15.81898 82.4918,-30.9206 15.7944,-11.11825 31.5737,-28.94006 42.3477,-47.82935 16.0354,-28.11358 24.1274,-68.14373 22.5065,-111.33617 -2.4505,-65.29824 -24.5327,-110.49257 -69.0963,-141.41575 -20.5519,-14.26149 -49.436,-24.35949 -82.9532,-29.00159 -16.4742,-2.2816 -56.9,-2.2816 -73.3741,0 -45.2012,6.2603 -79.2997,21.6011 -104.886,47.1883 -11.8176,11.81777 -19.7038,22.94822 -27.3258,38.56656 -9.7697,20.01918 -14.5707,36.52408 -17.923,61.61546 -1.8908,14.15218 -2.1418,48.29304 -0.4633,63.02648 7.1072,62.38538 35.6332,107.08036 83.7188,131.17208 21.3238,10.68342 45.2442,17.08029 77.2269,20.65206 1.8108,0.20181 15.5684,0.25156 30.5725,0.10795 19.8002,-0.18773 29.9885,-0.68826 37.1575,-1.82684 z m -51.2669,-108.78212 c -7.8416,-1.30988 -16.4579,-6.29385 -19.982,-11.55848 -6.19,-9.24635 -6.2465,-9.73491 -6.6083,-56.99591 -0.3675,-48.02764 0.046,-52.45922 5.7196,-60.94503 3.2432,-4.85256 10.01,-9.9128 15.5291,-11.61292 5.4765,-1.68651 20.474,-2.19056 26.4113,-0.88749 13.4463,2.9511 21.3837,11.04551 24.6122,25.09866 1.3943,6.06951 1.2111,85.21275 -0.2131,91.93369 -4.1223,19.4574 -21.4605,28.97807 -45.469,24.96748 z m 454.3546,108.86519 c 45.5144,-7.01215 77.4825,-21.92604 103.9905,-48.51503 18.983,-19.04088 32.2925,-41.26611 41.7724,-69.75468 11.6725,-35.07715 16.204,-70.41877 15.3079,-119.38294 -0.7008,-38.29131 -4.0569,-61.1696 -12.8367,-87.50633 -11.6175,-34.84905 -26.4004,-59.28265 -50.3834,-83.27375 -21.5458,-21.5534 -48.6742,-39.184 -98.7913,-64.2038 -37.7597,-18.8505 -43.6971,-22.7783 -47.6137,-31.4976 -3.1205,-6.9469 -3.1285,-22.9973 -0.016,-30.9617 4.7696,-12.2021 18.6285,-18.6246 37.7955,-17.5148 13.6052,0.7877 24.699,8.5259 29.189,20.3603 1.1085,2.9218 2.4828,9.6514 3.054,14.9545 l 1.0384,9.642 63.7668,0 63.7668,0 0,-80.9083 0,-80.9084 -8.2009,-6.0639 c -36.9959,-27.3561 -91.3514,-46.0093 -147.0141,-50.4505 -16.6512,-1.3287 -50.3637,-0.5773 -66.7893,1.4887 -69.8914,8.7897 -115.1371,36.4896 -140.4915,86.0099 -15.5745,30.4189 -22.5958,60.9239 -25.1377,109.2151 -2.2976,43.6476 2.4181,86.9891 12.9139,118.6895 13.5226,40.8425 37.4887,72.4455 78.3286,103.28868 9.6458,7.28505 39.6765,26.20907 62.628,39.46578 9.3129,5.37914 20.8131,12.02921 25.5561,14.77779 18.9329,10.97182 30.1719,21.55481 34.3107,32.30769 2.7062,7.03092 2.6738,19.59374 -0.073,28.36514 -2.6181,8.35933 -8.4335,14.92069 -15.8558,17.89033 -4.7722,1.90897 -6.9905,2.1502 -19.95,2.16898 -13.2485,0.0258 -15.0106,-0.17835 -19.2842,-2.14176 -6.0786,-2.79505 -11.1568,-7.7945 -13.5361,-13.325 -2.3134,-5.37773 -4.579,-17.45222 -5.3454,-28.48927 l -0.5716,-8.23122 -67.1753,0 -67.1752,0 0,88.85892 0,88.85892 2.1165,1.97913 c 2.8954,2.70705 24.0375,12.97958 38.3334,18.62553 36.4294,14.38708 76.879,23.83407 117.4129,27.42133 14.436,1.2775 63.9343,0.45971 74.9592,-1.23924 z m 462.8515,-0.45243 c 40.6679,-6.30839 76.4807,-18.58211 103.4605,-35.45848 8.559,-5.35379 30.7494,-21.79322 35.4977,-26.29777 l 2.5867,-2.45385 0,-116.61394 0,-116.61394 -73.5612,0.24099 -73.5613,0.241 0.2572,39.5092 c 0.1572,24.42729 -0.1478,43.45925 -0.802,49.85682 -3.0624,29.96577 -11.8907,44.00531 -30.7619,48.92076 -17.2176,4.48461 -35.1486,-1.99885 -43.2902,-15.65308 -3.7348,-6.26357 -7.2826,-18.36904 -8.6473,-29.50489 -1.4106,-11.51083 -1.4614,-304.27902 -0.053,-315.62772 3.5056,-28.284 15.1622,-43.5219 35.1323,-45.926 13.8418,-1.6666 25.1069,1.8972 33.2654,10.524 5.6421,5.9654 8.9479,12.1677 11.4579,21.4955 3.0831,11.4578 3.8189,23.4729 3.8189,62.3457 l 0,37.2004 73.1392,-0.241 73.1388,-0.241 0.2376,-112.6031 0.2375,-112.6031 -7.2942,-5.5132 c -9.9891,-7.5502 -28.0567,-20.0386 -35.7444,-24.707 -23.185,-14.0787 -61.8113,-27.5569 -94.044,-32.8157 -25.514,-4.1624 -64.5454,-4.8589 -87.2807,-1.5577 -64.8113,9.4109 -112.022,40.097 -144.1045,93.6648 -23.3425,38.9744 -40.8059,95.4825 -48.6947,157.5663 -7.3437,57.7928 -8.2798,135.5856 -2.3999,199.42752 11.1052,120.57549 49.2105,203.65353 112.148,244.50734 23.5445,15.28301 54.7754,26.00679 87.9993,30.21685 15.5234,1.96693 61.8233,1.20264 77.8625,-1.28524 z"
         id="path3348"
         style="fill:#ffffff"
         inkscape:connector-curvature="0" />
      <path
         d="m -4827.8635,-467.23003 1.5715,-0.14784 0.2551,-1.86086 c -0.4028,-1.461 -1.3501,-2.77416 -2.8143,-20.88696 -1.2426,-16.03017 -3.7618,-59.99113 18.3648,-81.79092 8.5837,-8.50788 21.6896,-16.06702 32.0266,-18.51242 42.3922,-10.33425 97.4192,-3.17755 144.4119,51.15778 24.2481,28.07792 36.1514,40.89441 42.1028,46.62741 l 2.0426,1.89794 2.4848,1.78976 c 1.9345,1.09517 80.767,37.39092 80.767,37.39092 l 1.6057,-0.40292 0.048,-1.71349 c -0.5106,-0.58384 -49.9492,-64.4504 -41.1889,-117.0659 6.9384,-41.918 40.31,-38.15708 86.4296,-32.9002 15.08,1.71608 32.2421,3.6877 49.9888,4.09038 49.5461,0.29262 102.9336,-8.79933 135.8341,-23.18734 21.2869,-9.30972 34.8692,-15.44611 43.3791,-23.18734 3.0633,-2.51909 4.6692,-6.68034 6.3145,-11.06311 l 1.1346,-2.95626 c 1.3844,-3.54315 3.3928,-11.13678 4.2724,-15.26424 0.4028,-1.82379 0.5842,-3.79823 -0.698,-4.78216 l -4.5617,0.83915 c -14.4218,8.6543 -50.539,25.15896 -84.3473,25.81672 -41.8816,0.87411 -126.3022,-42.13952 -135.102,-46.70415 l -0.8402,-0.9844 c -2.1215,-5.04123 -14.7906,-35.0192 -17.4571,-41.33393 60.7627,40.01795 111.1483,62.14744 149.745,65.57936 42.9424,3.83272 76.4271,-19.60712 90.7408,-29.61565 2.8084,-1.89771 4.9301,-3.43192 5.8039,-3.75857 l 0.9135,-1.49784 c -2.3772,-15.0798 -24.8327,-88.10848 -41.7735,-105.63673 -4.7086,-4.8197 -8.4704,-9.49181 -16.0669,-13.94802 -61.381,-35.78279 -207.1092,-57.40142 -213.9344,-58.38559 l -1.1688,0.32947 -0.4373,1.02171 c 0,0 -0.5502,30.23375 -0.6247,33.59504 -14.8986,-4.96684 -123.0853,-39.91235 -224.5269,-43.45268 -85.9863,-3.03042 -203.4549,-7.12103 -369.4488,94.89933 l -4.8935,3.06632 c -78.0665,48.70956 -131.9619,108.74011 -160.1501,178.5551 -8.8364,21.94434 -20.7391,71.49634 -8.984,118.12375 5.1118,20.41318 14.5693,40.86038 27.3516,59.19118 28.81,41.40502 77.1901,68.90427 129.2954,73.53929 73.5391,6.57005 129.2609,-26.47213 149.0868,-88.32975 13.6189,-42.68441 0,-105.30515 -52.2158,-137.25521 -42.4659,-26.03496 -88.1823,-20.08395 -114.6548,-2.59277 -23.0032,15.26189 -36.0376,38.92278 -35.7826,64.95867 0.5106,46.11656 40.2757,70.65391 68.8305,70.69098 8.3229,0 16.6486,-1.42369 26.0695,-4.49 3.3248,-1.02407 6.4993,-2.26355 9.9681,-4.41961 l 1.0612,-0.69155 0.6913,-0.40244 -0.2551,0.11029 c 6.5358,-4.38277 10.4789,-11.61057 10.4789,-19.35251 0,-2.11876 -0.3295,-4.27224 -0.9135,-6.42761 -3.3586,-11.64787 -14.8988,-18.73089 -26.8753,-16.54126 l -1.6058,0.32946 -2.1902,0.72862 -3.1773,1.06114 c -6.5724,1.64263 -11.5396,1.75339 -12.561,1.78718 -3.3585,-0.22058 -19.8286,-5.14541 -19.8286,-23.18429 l 0,-0.22058 c 0.048,-6.6097 2.7031,-11.24731 4.1641,-13.7664 5.0748,-8.03363 19.0969,-15.91965 38.0461,-14.24065 24.8326,2.11641 42.7238,14.86156 54.5901,38.88852 11.0288,22.34468 8.1444,49.80449 -7.4126,69.95931 -15.446,19.97647 -42.9394,28.44657 -79.5277,24.46343 -36.88,-4.05096 -68.0614,-25.26644 -85.5159,-58.31143 -17.0882,-32.27929 -18.0389,-70.58351 -2.4453,-100.01143 37.3542,-70.47274 107.8608,-69.74365 146.5313,-63.06026 57.2538,9.89425 109.2137,55.71889 132.3273,116.66345 3.6878,9.71286 5.5854,17.41726 7.2277,24.42706 l 2.4848,10.55271 64.6633,31.58352 0.8796,0.62162 0,-7.1e-4 z m 459.6403,-343.96403 c -12.1922,11.31842 -19.1707,26.76429 -19.7551,43.41584 -1.1288,34.32132 25.8196,63.2419 60.1388,64.52151 16.7253,0.54793 32.5709,-5.33338 44.7293,-16.72524 12.1583,-11.35549 19.1364,-26.76429 19.755,-43.37924 1.1689,-34.35839 -25.7801,-63.31558 -60.1724,-64.55553 -16.6515,-0.54699 -32.5373,5.33057 -44.6956,16.72266 m 42.7306,89.27779 c -24.4184,-0.89711 -43.586,-21.48088 -42.7704,-45.93422 0.3762,-11.83889 5.4368,-22.78208 14.0368,-30.86147 8.6349,-8.07727 19.9132,-12.28146 31.7522,-11.83607 24.4533,0.85534 43.6262,21.40532 42.8047,45.89621 -0.3698,11.80181 -5.3615,22.74406 -13.9966,30.85865 -8.6752,8.04207 -19.9534,12.2472 -31.8274,11.8769 l 7e-4,0 z m 10.2773,-40.16766 c 10.8676,0 19.6874,-5.8792 19.6874,-13.09972 0,-7.25878 -8.8203,-13.14103 -19.6874,-13.14103 -10.8732,0 -19.6586,5.88225 -19.6586,13.14103 0,7.22052 8.7854,13.09972 19.6586,13.09972"
         id="path3327"
         style="fill:#008000;fill-opacity:1;fill-rule:evenodd;stroke:none"
         inkscape:connector-curvature="0" />
    </g>
    <text
       inkscape:export-ydpi="71"
       inkscape:export-xdpi="71"
       inkscape:export-filename="/home/CarlosRibeiro/git_repo/artwork/Marketing Materials/Events/openSUSE Conference/2013-oS-Conference/Banners/Big_Banner_4x2m_19.png"
       xml:space="preserve"
       style="font-size:32147.21289062px;font-style:normal;font-weight:normal;line-height:85.00000238%;letter-spacing:0px;word-spacing:0px;fill:#ffffff;fill-opacity:1;stroke:none;font-family:Sans"
       x="3508.7715"
       y="-11684.379"
       id="text4897"
       sodipodi:linespacing="85.000002%"><tspan
         sodipodi:role="line"
         x="3508.7715"
         y="-11684.379"
         style="font-size:813.28082275px;font-style:normal;font-variant:normal;font-weight:100;font-stretch:normal;text-align:center;line-height:85.00000238%;writing-mode:lr-tb;text-anchor:middle;fill:#ffffff;font-family:Adonais;-inkscape-font-specification:Adonais Thin"
         id="tspan4905">This</tspan><tspan
         id="tspan10857"
         sodipodi:role="line"
         x="3508.7715"
         y="-10993.09"
         style="font-size:813.28082275px;font-style:normal;font-variant:normal;font-weight:100;font-stretch:normal;text-align:center;line-height:85.00000238%;writing-mode:lr-tb;text-anchor:middle;fill:#ffffff;font-family:Adonais;-inkscape-font-specification:Adonais Thin">SUMMER</tspan></text>
    <g
       id="g11500"
       transform="translate(90.934657,308.72376)">
      <g
         transform="matrix(1.1862173,0,0,1.1862173,-2137.6418,1289.4197)"
         id="g11467">
        <path
           style="fill:#0d5eaf;fill-opacity:1;stroke:none"
           d="m 9791.4579,-8016.6346 c -47.134,-50.7851 -119.344,-146.1388 -140.503,-185.5372 -19.417,-36.1529 -28.464,-64.5511 -28.293,-88.8049 0.334,-47.1558 30.145,-263.1883 37.885,-274.537 4.542,-6.6604 22.522,11.0634 54.136,53.365 42.668,57.0918 69.248,99.9125 94.894,152.8728 26.095,53.8901 31.165,69.3455 30.907,94.2109 -0.371,35.6831 -3.518,103.464 -6.182,133.1661 -3.151,35.1232 -20.999,131.2771 -24.49,131.9372 -1.347,0.2547 -9.606,-7.2481 -18.354,-16.6729 z"
           id="path8858-1"
           inkscape:connector-curvature="0" />
        <path
           style="fill:#0d5eaf;fill-opacity:1;stroke:none"
           d="m 9875.0139,-8367.0096 c -50.887,-52.9453 -72.388,-93.0729 -85.365,-159.3144 -7.847,-40.0561 -8.214,-45.7424 -4.626,-71.6415 4.318,-31.1735 25.779,-106.25 44.835,-156.8439 6.804,-18.0658 19.677,-52.6217 28.605,-76.7909 8.928,-24.1692 16.73,-43.6055 17.337,-43.1917 8.46,5.7692 99.788,211.9447 104.155,235.1324 4.905,26.0848 1.032,82.2459 -7.784,112.6634 -9.427,32.5273 -57.109,171.0034 -62.842,182.5046 l -4.328,8.6811 -29.987,-31.1991 z"
           id="path8860-0"
           inkscape:connector-curvature="0" />
        <path
           style="fill:#0d5eaf;fill-opacity:1;stroke:none"
           d="m 10049.137,-8643.0725 c -16.975,-26.1935 -26.616,-54.4832 -44.38,-130.2281 l -18.1011,-77.184 7.807,-27.2268 c 10.2701,-35.8139 30.3531,-76.9696 69.6301,-142.6943 35.851,-59.9931 59.235,-94.8576 62.244,-92.8056 3.951,2.695 36.538,101.3778 45.421,137.5494 8.051,32.7834 8.776,39.5648 6.419,60.0222 -3.475,30.1615 -18.661,83.4431 -32.953,115.623 -13.661,30.7559 -55.406,108.8447 -75.821,141.8318 l -14.684,23.7258 -5.582,-8.6134 0,0 z"
           id="path8862-6"
           inkscape:connector-curvature="0" />
        <path
           style="fill:#0d5eaf;fill-opacity:1;stroke:none"
           d="m 10283.851,-8973.6232 c -5.177,-4.2833 -11.253,-18.4541 -32.863,-76.6447 -14.864,-40.0234 -18.006,-51.8344 -22.046,-82.8514 -8.878,-68.163 -5.847,-89.234 19.78,-137.492 18.434,-34.713 91.735,-150.653 105.25,-166.473 l 9.707,-11.363 3.408,7.378 c 7.185,15.55 24.843,87.759 37.565,153.611 12.805,66.281 13.153,69.561 9.732,95.102 -1.942,14.548 -5.973,35.615 -8.956,46.815 -10.863,40.774 -50.58,103.9949 -96.848,154.1606 -10.594,11.4864 -19.571,20.9428 -19.949,21.0142 -0.377,0.071 -2.528,-1.3941 -4.78,-3.2567 l 0,0 z"
           id="path8864-9"
           inkscape:connector-curvature="0" />
        <path
           style="fill:#0d5eaf;fill-opacity:1;stroke:none"
           d="m 10506.389,-9252.2903 c -7.079,-21.354 -18.887,-66.191 -26.239,-99.637 l -13.367,-60.811 5.971,-16.753 c 8.539,-23.957 63.948,-103.438 101.175,-145.129 32.464,-36.358 69.32,-67.993 76.154,-65.369 5.335,2.049 7.843,17.808 15.489,97.346 7.93,82.484 7.728,107.117 -1.147,140.478 -8.427,31.677 -22.249,55.759 -54.785,95.455 -24.177,29.496 -76.83,84.878 -86.197,90.663 -3.373,2.084 -6.671,-4.926 -17.054,-36.243 l 0,0 z"
           id="path8866-4"
           inkscape:connector-curvature="0" />
        <path
           style="fill:#0d5eaf;fill-opacity:1;stroke:none"
           d="m 10739.926,-9376.6643 c -5.137,-8.316 -12.822,-77.194 -12.121,-108.621 1.248,-55.884 6.366,-84.822 18.026,-101.92 19.681,-28.859 58.781,-63.725 119.616,-106.662 l 20.998,-14.821 2.427,21.311 c 1.823,16.004 0.04,34.202 -7.176,73.082 -5.281,28.474 -11.501,66.235 -13.822,83.913 -3.146,23.975 -6.899,37.028 -14.769,51.369 -15.381,28.029 -65.94,79.753 -95.929,98.14 -13.009,7.976 -14.673,8.382 -17.25,4.209 l 0,0 z"
           id="path8868-6"
           inkscape:connector-curvature="0" />
        <path
           style="fill:#0d5eaf;fill-opacity:1;stroke:none"
           d="m 10961.949,-9515.1993 c -8.043,-13.023 -4.823,-82.771 5.472,-118.491 6.78,-23.525 19.545,-37.957 53.522,-60.51 21.739,-14.43 86.807,-53.082 90.551,-53.79 7.513,-1.421 -6.347,52.702 -27.807,108.584 -16.931,44.09 -46.333,80.116 -93.205,114.203 -20.267,14.738 -24.658,16.278 -28.533,10.004 l 0,0 z"
           id="path8870-2"
           inkscape:connector-curvature="0" />
        <path
           style="fill:#0d5eaf;fill-opacity:1;stroke:none"
           d="m 11142.965,-9608.7893 c -1.221,-6.454 6.488,-38.922 14.766,-62.198 16.952,-47.662 41.048,-76.3 79.211,-94.139 24.919,-11.649 65.244,-24.087 73.332,-22.619 5.167,0.938 -2.39,18.878 -37.697,89.492 l -11.777,23.553 -33.282,19.386 c -18.306,10.662 -42.738,25.797 -54.293,33.632 -21.83,14.804 -29.297,17.985 -30.26,12.893 z"
           id="path8872-8"
           inkscape:connector-curvature="0" />
        <path
           style="fill:#0d5eaf;fill-opacity:1;stroke:none"
           d="m 11438.726,-9680.9343 c -15.383,0.806 -32.429,-3.324 -40.175,-9.733 -4.014,-3.321 -2.718,-6.132 8.165,-17.717 19.919,-21.204 52.425,-48.075 70.369,-58.17 12.896,-7.256 21.058,-9.607 39.946,-11.506 27.096,-2.724 102.669,-5.338 105.164,-3.637 3.359,2.291 -97.169,74.806 -114.402,82.522 -21.956,9.831 -50.025,17.244 -69.067,18.241 z"
           id="path8874-7"
           inkscape:connector-curvature="0" />
        <path
           style="fill:#0d5eaf;fill-opacity:1;stroke:none"
           d="m 9846.1719,-7843.1073 c -7.22,-37.2312 -10.884,-97.7634 -7.771,-128.4165 11.258,-110.8754 83.142,-365.0931 135.759,-480.1091 11.54,-25.2262 28.8021,-63.5639 38.3591,-85.1951 9.762,-22.0946 23.741,-47.3352 31.899,-57.599 31.941,-40.1821 56.924,-76.7398 85.534,-125.1628 16.506,-27.9379 40.116,-65.2027 52.465,-82.8106 40.474,-57.7116 106.436,-142.0587 127.076,-162.498 11.132,-11.023 37.185,-39.4822 57.895,-63.2421 46.299,-53.118 83.595,-90.2508 130.757,-130.1858 19.864,-16.82 50.377,-43.364 67.808,-58.988 17.431,-15.623 47.541,-40.47 66.91,-55.215 53.032,-40.368 255.148,-167.763 342.197,-215.689 217.802,-119.911 381.39,-198.076 399.075,-190.683 4.81,2.011 2.513,3.219 -62.868,33.068 -16.492,7.529 -59.883,31.167 -96.425,52.53 -36.541,21.362 -118.803,68.717 -182.803,105.231 -171.171,97.66 -178.174,101.799 -239.166,141.349 -96.418,62.522 -137.883,90.992 -171.156,117.513 -98.346,78.392 -198.186,180.2829 -314.738,321.2007 -78.948,95.4528 -118.858,148.5485 -197.033,262.1292 l -61.978,90.0486 -44.993,108.4191 c -52.2381,125.8776 -95.3591,257.7978 -111.1671,340.0923 -8.624,44.8989 -13.306,121.3677 -11.132,181.8417 1.061,29.5222 0.645,57.8823 -0.925,63.0222 -1.569,5.1401 -8.451,18.3807 -15.292,29.4238 l -12.439,20.0783 -5.849,-30.1526 0,0 z"
           id="path8876-3"
           inkscape:connector-curvature="0" />
        <path
           style="fill:#0d5eaf;fill-opacity:1;stroke:none"
           d="m 9898.5819,-7980.7938 c -0.913,-16.5886 6.284,-74.5232 11.373,-91.5567 6.044,-20.2254 38.095,-60.8951 63.463,-80.5273 18.902,-14.6283 58.0441,-33.0191 103.9941,-48.8608 44.444,-15.3227 98.191,-39.0868 167.565,-74.0879 22.125,-11.1626 41.056,-20.4524 42.069,-20.6441 8.914,-1.6855 -64.153,133.2401 -92.948,171.6375 -19.768,26.3602 -56.964,64.7468 -79.597,82.1435 -10.076,7.7454 -38.955,23.8414 -64.175,35.7688 -44.787,21.181 -47.079,21.918 -98.3741,31.633 l -52.519,9.9469 -0.851,-15.4529 z"
           id="path8878-9"
           inkscape:connector-curvature="0" />
        <path
           style="fill:#0d5eaf;fill-opacity:1;stroke:none"
           d="m 10040.976,-8235.3353 c -1.861,-0.4645 -20.52,0.1706 -41.4671,1.4115 -20.946,1.2408 -39.602,1.2202 -41.458,-0.046 -2.034,-1.3868 -1.068,-9.4857 2.428,-20.3738 8.283,-25.7954 15.513,-33.7464 127.1831,-139.8767 55.123,-52.3881 78.458,-66.7186 166.185,-102.0573 33.979,-13.6876 82.81,-24.6789 83.906,-18.8862 0.362,1.9167 -8.461,19.1761 -19.607,38.3541 -11.146,19.178 -30.431,54.1951 -42.855,77.8158 -26.173,49.7605 -49.159,88.7576 -58.891,99.9127 -12.289,14.0845 -33.25,26.1981 -62.735,36.2543 -30.096,10.2648 -106.769,28.9695 -112.689,27.4913 z"
           id="path8880-2"
           inkscape:connector-curvature="0" />
        <path
           style="fill:#0d5eaf;fill-opacity:1;stroke:none"
           d="m 10061.34,-8504.7573 -9.316,-0.2743 15.611,-29.0857 c 18.786,-35.0014 33.114,-53.3358 61.694,-78.9445 54.382,-48.7286 119.309,-71.9868 266.228,-95.369 64.777,-10.3091 74.009,-11.1579 71.468,-6.5711 -5.75,10.381 -86.716,92.9725 -104.78,106.8848 -45.376,34.9449 -111.648,62.4906 -203.349,84.5208 -66.026,15.8621 -83.574,19.2507 -97.556,18.8391 z"
           id="path8882-8"
           inkscape:connector-curvature="0" />
        <path
           style="fill:#0d5eaf;fill-opacity:1;stroke:none"
           d="m 10332.307,-8755.7364 c -21.583,-3.0819 -66.749,-18.6854 -83.764,-28.9386 -11.04,-6.6521 -12.544,-8.6279 -9.145,-12.0105 46.753,-46.5194 88.804,-69.7987 156.089,-86.4094 38.994,-9.6265 71.249,-10.5709 157.65,-4.6156 l 65.916,4.5434 -22.816,14.6352 c -12.549,8.0494 -36.334,21.7498 -52.855,30.4452 -16.521,8.6955 -39.838,21.8189 -51.815,29.1631 -25.541,15.6606 -71.794,34.9464 -106.134,44.2541 -13.376,3.6255 -27.019,7.6587 -30.317,8.9626 -3.299,1.304 -13.563,1.2907 -22.809,-0.03 z"
           id="path8884-9"
           inkscape:connector-curvature="0" />
        <path
           style="fill:#0d5eaf;fill-opacity:1;stroke:none"
           d="m 10592.433,-9000.578 c -92.775,-11.5928 -119.991,-15.5708 -133.987,-19.5829 l -15.074,-4.3213 12.241,-10.6606 c 29.226,-25.4521 115.739,-82.4585 145.81,-96.0795 25.617,-11.603 49.879,-13.125 90.378,-5.67 14.379,2.646 48.574,5.158 75.989,5.58 28.811,0.444 50.126,2.25 50.51,4.279 0.863,4.569 -14.942,26.229 -31.996,43.8484 -29.072,30.0355 -101.311,73.5609 -135.986,81.9342 -18.121,4.3758 -27.389,4.4836 -57.885,0.6727 z"
           id="path8886-2"
           inkscape:connector-curvature="0" />
        <path
           style="fill:#0d5eaf;fill-opacity:1;stroke:none"
           d="m 10765.374,-9168.3053 c -42.805,-0.747 -87.032,-16.976 -106.359,-39.03 -5.724,-6.532 -9.948,-12.548 -9.388,-13.37 0.561,-0.822 11.538,-9.506 24.395,-19.299 16.187,-12.33 28.751,-19.336 40.855,-22.781 16.857,-4.798 19.036,-4.51 61.155,8.094 46.738,13.987 71.868,16.176 136.401,11.881 16.631,-1.106 32.471,-1.71 35.199,-1.341 13.226,1.787 -103.795,60.334 -141.331,70.709 -11.598,3.206 -28.682,5.351 -40.927,5.137 l 0,0 z"
           id="path8888-7"
           inkscape:connector-curvature="0" />
        <path
           style="fill:#0d5eaf;fill-opacity:1;stroke:none"
           d="m 10942.01,-9295.9483 c -30.843,-10.496 -94.143,-49.697 -95.985,-59.441 -0.671,-3.545 45.54,-28.013 65.107,-34.474 11.047,-3.647 16.552,-3.815 24.033,-0.732 17.866,7.363 115.445,60.39 115.939,63.005 0.656,3.471 -43.117,20.617 -73.517,28.798 -20.383,5.485 -26.403,5.967 -35.577,2.844 l 0,0 z"
           id="path8890-8"
           inkscape:connector-curvature="0" />
        <path
           style="fill:#0d5eaf;fill-opacity:1;stroke:none"
           d="m 11131.303,-9437.9293 c -21.88,-4.059 -37.327,-9.426 -54.488,-18.933 -13.173,-7.298 -23.725,-14.932 -23.449,-16.965 0.275,-2.033 10.282,-8.904 22.237,-15.27 38.099,-20.289 56.389,-17.504 114.545,17.446 l 37.304,22.418 -14.162,4.812 c -32.214,10.948 -50.259,12.376 -81.987,6.492 z"
           id="path8892-0"
           inkscape:connector-curvature="0" />
        <path
           style="fill:#0d5eaf;fill-opacity:1;stroke:none"
           d="m 11306.869,-9543.0763 c -11.329,1.022 -25.914,0.59 -32.411,-0.961 -13.297,-3.173 -56.035,-23.625 -56.698,-27.132 -0.605,-3.2 29.003,-18.691 39.526,-20.681 10.488,-1.983 33.202,6.341 69.618,25.512 25.398,13.371 26.465,14.333 17.739,15.983 -5.107,0.965 -11.06,2.58 -13.231,3.588 -2.17,1.007 -13.215,2.668 -24.543,3.691 z"
           id="path8894-2"
           inkscape:connector-curvature="0" />
      </g>
      <g
         transform="matrix(1.1862173,0,0,1.1862173,-2137.6418,1289.4197)"
         style="fill:#ffffff"
         id="g11450">
        <path
           style="fill:#ffffff;fill-opacity:1;stroke:none"
           d="m 11378.903,-9625.4223 c -2.234,-1.848 -11.738,-4.586 -21.119,-6.084 -9.381,-1.497 -16.121,-4.091 -14.978,-5.764 3.263,-4.775 36.169,-19.503 48.385,-21.658 13.715,-2.418 43.105,1.664 45.63,6.337 1.146,2.12 -7.361,8.431 -21.864,16.22 -27.137,14.574 -30.455,15.582 -36.054,10.949 l 0,0 z"
           id="path8896-2"
           inkscape:connector-curvature="0" />
        <path
           style="fill:#ffffff;fill-opacity:1;stroke:none"
           d="m 11502.295,-6775.1358 c -103.568,2.4421 -281.153,1.9737 -335.354,-0.8843 -198.776,-10.4815 -528.025,-67.2237 -739.596,-127.4607 -186.452,-53.0852 -381.512,-119.3856 -475.8331,-161.7344 -64.592,-29.0008 -222.115,-118.6649 -273.213,-155.5159 l -25.366,-18.2937 12.127,-77.5984 c 7.688,-49.1912 21.287,-100.7978 37.149,-140.9714 37.27,-94.3946 162.228,-331.2436 235.169,-445.7463 l 28.922,-45.4009 50.1101,-17.0458 c 58.218,-19.8041 78.286,-19.8379 161.668,-0.2727 93.227,21.8759 318.515,87.6389 414.11,120.8818 50.478,17.5537 106.993,35.679 125.589,40.2786 31.465,7.7825 32.521,8.6379 15.222,12.3258 -22.144,4.721 -90.568,-1.2263 -241.64,-21.0036 -108.976,-14.2661 -247.306,-21.297 -283.683,-14.4185 -32.536,6.1522 -184.561,222.1081 -255.2001,362.5177 -16.269,32.338 -30.984,56.2777 -32.7,53.1993 -7.464,-13.3859 67.09,-255.9482 108.0401,-351.5121 9.614,-22.4356 15.408,-44.1456 12.877,-48.2443 -5.456,-8.8328 -45.3071,-7.639 -73.7061,2.2079 -16.77,5.8146 -25.892,17.941 -54.366,72.2728 -94.901,181.0799 -127.69,263.1257 -158.285,396.0595 -10.513,45.6802 -18.602,86.0622 -17.975,89.7377 1.695,9.9438 157.832,96.9046 262.095,145.9752 50.1931,23.6229 144.4501,61.9017 209.4621,85.064 110.623,39.4132 379.87,113.048 469.716,128.4599 121.125,20.7774 254.005,37.3522 316.877,39.5254 159.982,5.5298 262.204,6.0405 319.373,1.5957 33.192,-2.5806 92.054,-5.761 130.805,-7.0676 147.226,-4.9641 583.743,-100.2083 578.811,-126.2916 -0.479,-2.532 -21.259,-14.3634 -46.178,-26.2919 -68.844,-32.956 -191.671,-135.8021 -286.247,-239.6832 l -57.02,-62.6298 6.054,-24.4214 c 25.182,-101.5917 59.742,-174.12 142.691,-299.4505 48.067,-72.6262 77.571,-109.0572 133.294,-164.588 39.359,-39.224 91.829,-86.8586 116.599,-105.8548 24.77,-18.996 53.063,-47.1926 62.874,-62.6592 37.719,-59.4642 132.87,-283.4146 178.198,-419.4139 42.211,-126.6439 88.639,-238.1195 157.362,-377.8339 62.102,-126.2515 194.489,-357.95 250.9,-439.115 44.008,-63.319 44.438,-67.936 10.643,-114.291 -13.672,-18.755 -15.894,-19.467 -37.001,-11.871 -45.278,16.294 -192.628,100.941 -273.009,156.833 -154.977,107.7603 -264.64,333.2205 -359.258,450.0096 -100.367,123.885 -52.263,50.3068 -183.749,227.7704 -166.76,298.838 -570.066,367.0466 -593.076,277.7887 -1.18,-8.973 7.444,20.415 92.786,0.9618 208.952,-79.8683 345.685,-115.0676 392.409,-199.9416 140.652,-212.028 199.736,-239.6242 312.389,-385.8936 147.988,-192.1507 420.926,-528.3583 613.192,-613.9103 17.168,-7.639 30.762,-16.283 30.209,-19.209 -0.553,-2.926 6.86,-0.413 16.473,5.585 9.613,5.998 32.322,19.113 50.464,29.144 58.003,32.071 64.661,63.092 49.468,230.452 -6.378,70.25 -38.769,257.1793 -57.739,333.2127 -7.426,29.7662 -26.613,113.1621 -42.637,185.3243 -16.023,72.1622 -43.271,177.387 -60.55,233.8329 -17.278,56.4459 -52.581,171.8958 -78.45,256.5552 -93.204,305.0215 -99.058,321.6273 -134.855,382.5052 -49.562,84.2889 -110.078,166.3443 -156.8,212.6091 -58.178,57.6107 -184.777,164.5786 -275.217,232.5418 -90.652,68.1223 -159.729,131.766 -154.106,141.9846 6.244,11.3478 112.777,50.2897 216.38,79.0956 113.397,31.5292 202.663,47.3439 300.108,53.1685 l 71.705,4.286 -77.296,34.3229 c -111.345,49.4425 -165.93,70.1416 -228.546,86.6666 -30.39,8.0204 -151.344,42.678 -268.784,77.0169 -190.819,55.794 -307.387,83.6323 -354.885,84.7522 z m 874.422,-1413.0488 c 2.575,-8.4637 27.122,-68.9429 54.549,-134.3981 49.633,-118.4513 77.315,-173.5798 135.91,-270.6634 30.478,-50.4973 58.521,-133.2209 78.027,-230.1715 14.004,-69.597 9.531,-69.8547 -40.43,-2.3301 -46.869,63.3467 -91.437,153.7989 -141.74,287.6665 -43.549,115.8947 -119.142,350.4005 -116.854,362.5043 2.453,12.9697 25.673,3.3831 30.538,-12.6077 z m 201.889,-689.3352 c 25.991,-34.0944 62.355,-79.5564 80.809,-101.0267 32.439,-37.7424 33.872,-41.1793 43.183,-103.635 6.106,-40.9528 7.049,-66.3588 2.577,-69.4088 -8.981,-6.125 -75.162,76.7003 -105.752,132.3497 -20.91,38.0408 -72.37,168.3531 -76.735,194.3172 -3.546,21.095 8.076,10.1631 55.918,-52.5964 z"
           id="path8898-6"
           inkscape:connector-curvature="0"
           sodipodi:nodetypes="csssscssscsssssssscscssscssssssssscssssssssssssccccscssssssssssscsscssscssssssssccssssc" />
        <path
           style="fill:#ffffff;fill-opacity:1;stroke:#ffffff;stroke-width:0;stroke-linecap:round;stroke-linejoin:round;stroke-miterlimit:4;stroke-opacity:1;stroke-dasharray:none"
           d="m 11305.142,-7595.8295 c -25.465,-1.7182 -68.563,-10.0314 -96.612,-18.6355 -33.912,-10.4027 -194.09,-67.7604 -257.153,-92.0831 -21.793,-8.4051 -56.129,-20.725 -76.302,-27.3776 -20.173,-6.6526 -54.454,-17.9594 -76.179,-25.126 -21.726,-7.1667 -46.508,-15.7779 -55.073,-19.136 -14.498,-5.6852 -14.975,-6.1489 -6.921,-6.7331 32.012,-2.3222 226.075,20.2226 306.38,35.5928 107.243,20.5264 143.717,23.0161 209.996,14.3343 30.031,-3.9338 41.556,-6.7544 60.168,-14.7246 37.067,-15.8735 74.05,-37.7066 116.734,-68.9151 21.948,-16.0473 56.752,-40.6141 77.343,-54.593 20.591,-13.979 63.302,-45.2471 94.912,-69.4848 54.933,-42.1207 112.626,-83.7088 116.408,-83.9133 0.978,-0.053 -5.808,7.4844 -15.081,16.7496 -9.272,9.2652 -39.797,40.5326 -67.831,69.4831 -89.477,92.4003 -95.301,98.2273 -138.264,138.3295 -38.182,35.6391 -62.764,55.6196 -108.169,87.9204 -21.454,15.2621 -20.236,19.5678 5.139,18.1689 25.179,-1.3912 52.479,-7.2622 63.369,-13.6348 12.871,-7.5322 70.739,-49.8353 113.604,-83.0477 33.866,-26.2396 47.013,-39.1596 107.883,-106.0234 100.076,-109.9306 120.803,-130.927 157.764,-159.819 37.542,-29.3458 73.979,-54.7864 75.943,-53.024 0.727,0.6519 -7.913,8.4745 -19.198,17.3834 -24.255,19.1461 -95.338,95.691 -123.132,132.593 -20.224,26.8502 -52.839,75.2429 -95.996,142.4373 -29.768,46.3473 -60.054,83.4913 -84.487,103.6174 -54.533,44.9208 -124.177,87.0057 -172.464,104.2164 -24.473,8.7228 -33.862,10.5977 -65.796,13.1383 -20.488,1.6297 -41.631,2.6681 -46.985,2.3068 l 0,-10e-5 z"
           id="path8900-4"
           inkscape:connector-curvature="0" />
        <path
           style="fill:#ffffff;fill-opacity:1;stroke:#ffffff;stroke-width:0;stroke-linecap:round;stroke-linejoin:round;stroke-miterlimit:4;stroke-opacity:1;stroke-dasharray:none"
           d="m 9696.8529,-8006.8834 c -14.619,-2.3175 -41.535,-6.5986 -59.812,-9.5137 -39.299,-6.2678 -113.303,-14.5289 -179.438,-20.0307 -86.189,-7.17 -85.858,-7.0921 -111.627,-26.318 -30.696,-22.9018 -73.688,-62.2215 -102.63,-93.8642 -22.425,-24.5169 -23.653,-26.5793 -24.679,-41.4212 -1.307,-18.9163 9.218,-95.8786 18.203,-133.1019 9.562,-39.6171 42.56,-133.8003 65.9,-188.0975 17.905,-41.6523 75.464,-161.1474 98.859,-205.2365 15.403,-29.0267 103.249,-127.0664 146.373,-163.3581 21.815,-18.3584 115.539,-84.5961 147.837,-104.4804 17.406,-10.7163 76.255,-42.8682 238.075,-130.0717 35.391,-19.072 91.4821,-47.757 124.6461,-63.744 l 60.298,-29.068 42.437,-7.131 42.438,-7.131 -9.977,15.42 c -9.772,15.106 -11.532,16.212 -86.409,54.363 -153.9241,78.4252 -161.8791,82.8614 -381.9331,212.9828 -51.307,30.3393 -140.482,96.5298 -172.402,127.9678 -46.926,46.2169 -86.42,103.7886 -114.479,166.8817 -39.123,87.9717 -102.797,250.0631 -115.804,294.799 -16.222,55.79 -32.396,134.5248 -31.313,152.4302 0.579,9.5824 3.489,13.9176 19.275,28.7195 31.564,29.5955 55.588,47.1061 89.249,65.0514 41.634,22.1957 49.794,25.0221 89.758,31.0898 18.251,2.7709 58.114,9.0617 88.587,13.9796 30.472,4.9179 71.326,10.4841 90.786,12.3693 54.696,5.299 63.515,8.3704 75.98,26.4629 5.788,8.4011 10.648,15.935 10.801,16.7419 0.93,4.9213 -35.824,6.9823 -58.999,3.309 l 0,0 z"
           id="path8902-4"
           inkscape:connector-curvature="0" />
        <path
           style="fill:#ffffff;fill-opacity:1;stroke:#ffffff;stroke-width:0;stroke-linecap:round;stroke-linejoin:round;stroke-miterlimit:4;stroke-opacity:1;stroke-dasharray:none"
           d="m 10001.073,-8385.4286 c 8.955,-20.325 17.576,-38.4678 19.157,-40.3175 1.582,-1.8497 16.784,-10.3459 33.782,-18.8805 16.999,-8.5347 46.737,-23.8421 66.085,-34.0166 29.815,-15.6791 42.205,-20.3072 81.278,-30.3594 104.291,-26.83 133.163,-43.2443 213.31,-121.2705 59.033,-57.4708 89.069,-89.3934 90.254,-95.9231 1.227,-6.7614 -5.155,-11.9149 -20.288,-16.3838 l -12.102,-3.5736 31.307,-30.0045 c 37.286,-35.736 47.345,-43.6322 74.295,-58.3257 26.143,-14.2531 65.22,-43.0983 70.839,-52.2902 4.141,-6.7732 4.037,-7.326 -2.289,-12.1081 -3.639,-2.7571 -10.422,-4.8388 -15.072,-4.626 -7.896,0.3614 -6.516,-2.4232 20.88,-42.1198 l 29.335,-42.5067 29.294,-16.1326 c 42.719,-23.5261 93.697,-62.5003 110.182,-84.2381 24.476,-32.272 29.625,-56.23 13.638,-63.448 -4.243,-1.917 -7.199,-4.123 -6.567,-4.904 0.632,-0.78 13.172,-6.867 27.866,-13.525 45.109,-20.44 108.788,-56.274 122.056,-68.686 17.697,-16.554 14.574,-27.625 -8.102,-28.721 -5.238,-0.253 -35.824,1.793 -67.968,4.548 -32.144,2.754 -59.421,4.34 -60.616,3.525 -2.452,-1.67 26.145,-45.343 30.191,-46.108 1.433,-0.271 12.609,4.904 24.836,11.499 34.158,18.427 51.764,22.363 77.872,17.411 45.251,-8.586 104.51,-35.183 106.827,-47.952 1.309,-7.212 -22.426,-23.612 -68.227,-47.143 -22.583,-11.602 -41.726,-22.197 -42.54,-23.544 -2.29,-3.79 56.143,-55.431 64.676,-57.158 1.887,-0.383 14.201,5.981 27.363,14.14 21.293,13.198 36.662,18.964 74.508,27.953 l 10.947,2.6 -13.285,25.072 c -26,49.071 -39.048,97.527 -42.658,158.418 -1.615,27.255 -0.509,37.213 10.47,94.224 11.757,61.0522 12.979,65.2211 28.869,98.5268 28.568,59.8791 88.901,129.9056 145.298,168.6417 55.976,38.4474 142.345,75.999 196.828,85.5772 l 25.003,4.3956 -15.917,1.0454 c -8.755,0.575 -39.377,-0.302 -68.05,-1.9489 -44.939,-2.5811 -59.725,-5.0861 -107.137,-18.1511 -53.916,-14.8568 -65.96,-19.9435 -164.564,-69.4981 -26.573,-13.3551 -70.94,-25.4864 -99.719,-27.267 -25.17,-1.5572 -73.013,9.3036 -98.889,22.4486 -8.895,4.5187 -44.764,28.1621 -79.708,52.5407 -34.944,24.3787 -64.306,43.7986 -65.249,43.1553 -0.944,-0.6433 2.538,-5.9002 7.736,-11.6821 12.975,-14.4313 80.782,-125.7156 97.817,-160.5368 30.601,-62.5516 52.245,-183.6973 33.429,-187.1113 -7.591,-1.378 -10.927,3.487 -29.084,42.414 -46.129,98.8987 -145.393,256.0779 -193.715,306.7381 -38.317,40.1712 -133.523,126.2328 -141.265,127.6968 -1.584,0.2995 18.884,-32.9603 45.484,-73.9107 72.025,-110.8831 79.493,-122.8796 78.795,-126.5724 -0.352,-1.8596 -2.264,-3.0737 -4.25,-2.6982 -5.472,1.0347 -40.471,36.7534 -82.117,83.806 -75.785,85.6235 -100.742,109.469 -178.48,170.5292 l -74.532,58.543 -46.624,9.103 c -44.02,8.5945 -49.272,10.3449 -93.991,31.3219 -80.412,37.7202 -106.678,55.5424 -150.518,102.1289 -12.832,13.6365 -26.902,27.5885 -31.266,31.0046 -7.262,5.6842 -37.4911,18.8461 -47.7311,20.7825 -2.48,0.4689 2.569,-14.737 12.0011,-36.145 z"
           id="path8904-4"
           inkscape:connector-curvature="0" />
        <path
           style="fill:#ffffff;fill-opacity:1;stroke:#ffffff;stroke-width:0;stroke-linecap:round;stroke-linejoin:round;stroke-miterlimit:4;stroke-opacity:1;stroke-dasharray:none"
           d="m 11581.207,-8839.2035 c -73.019,7.3649 -87.744,6.0118 -142.814,-13.1232 -70.366,-24.4494 -119.448,-49.6654 -144.216,-74.0914 -21.375,-21.0792 -79.332,-111.1438 -91.57,-142.2991 -8.62,-21.9431 -14.968,-58.0561 -20.106,-114.3711 -5.09,-55.795 -4.625,-78.336 2.42,-117.408 5.881,-32.612 8.99,-31.841 8.468,2.098 -1.53,99.43 46.365,224.3749 120.181,313.523 19.719,23.8139 90.643,75.6277 123.384,90.1382 33.024,14.636 101.144,27.6491 147.124,28.1053 34.687,0.3441 101.506,-21.4374 156.7,-51.0806 12.987,-6.9747 24.196,-12.2829 24.91,-11.796 1.846,1.259 -70.449,59.1543 -82.68,66.2116 -10.34,5.9664 -75.888,21.4796 -101.801,24.0933 z"
           id="path8906-1"
           inkscape:connector-curvature="0" />
        <path
           style="fill:#ffffff;fill-opacity:1;stroke:#ffffff;stroke-width:0;stroke-linecap:round;stroke-linejoin:round;stroke-miterlimit:4;stroke-opacity:1;stroke-dasharray:none"
           d="m 12061.792,-9134.4143 c 0.702,-13.67 -11.377,-92.593 -15.971,-104.356 -2.511,-6.429 -6.125,-10.715 -8.634,-10.24 -2.373,0.449 -12.403,15.035 -22.288,32.415 -25.421,44.695 -66.942,101.159 -68.465,93.104 -0.145,-0.769 5.991,-19.747 13.636,-42.173 7.645,-22.426 15.935,-50.791 18.421,-63.033 10.316,-50.802 8.992,-123.718 -2.208,-121.6 -2.451,0.463 -9.057,13.465 -14.68,28.893 -20.176,55.355 -45.455,101.188 -78.766,142.813 -41.364,51.686 -47.917,56.279 -108.142,75.786 -26.725,8.657 -52.109,16.3092 -56.409,17.0058 l -7.818,1.2664 7.146,-4.8222 c 31.973,-21.575 45.033,-32.825 70.673,-60.881 34.996,-38.291 60.35,-73.566 74.275,-103.333 32.93,-70.4 33.233,-160.071 0.744,-220.465 -7.376,-13.71 -19.622,-30.901 -27.215,-38.203 -15.047,-14.47 -15.943,-17.372 -4.228,-13.69 7.367,2.315 7.501,2.029 3.595,-7.67 -2.232,-5.542 -12.767,-19.851 -23.41,-31.798 -28.627,-32.135 -56.183,-47.751 -123.566,-70.028 -52.809,-17.458 -56.44,-19.178 -52.546,-24.882 3.893,-5.705 5.434,-5.811 22.274,-1.534 9.951,2.528 28.949,4.486 42.218,4.352 13.269,-0.134 49.398,3.794 80.285,8.729 30.887,4.936 58.752,8.483 61.921,7.884 8.968,-1.696 5.237,-9.536 -7.476,-15.706 -70.879,-34.404 -183.087,-44.593 -285.26,-25.903 -41.728,7.632 -43.524,7.716 -29.587,1.375 8.161,-3.713 28.258,-16.314 44.661,-28.002 16.601,-11.83 35.921,-23.004 43.578,-25.205 33.469,-9.618 140.268,11.992 229.555,46.449 209.64,80.902 269.701,96.369 385.251,99.208 169.039,4.154 374.719,20.393 418.881,33.071 37.014,10.626 43.103,17.351 48.894,54.005 4.912,31.094 4.872,48.027 -0.122,50.812 -1.963,1.095 -3.98,-0.178 -4.481,-2.827 -1.477,-7.813 -13.565,-9.647 -29.159,-4.424 -7.855,2.632 -32.715,13.346 -55.245,23.81 -22.529,10.464 -41.946,18.355 -43.148,17.535 -1.202,-0.82 -0.373,-1.833 1.862,-2.256 2.227,-0.421 15.666,-9.243 29.866,-19.603 26.105,-19.048 42.745,-39.937 45.897,-57.619 2.965,-16.627 -12.328,-31.042 -42.418,-39.98 -14.577,-4.331 -122.916,-21.525 -163.442,-25.94 -47.357,-5.159 -182.412,-9.361 -249.411,-7.759 -82.991,1.984 -120.542,-4.536 -198.506,-34.467 -46.546,-17.87 -60.33,-12.567 -28.996,11.155 21.513,16.287 42.308,36.796 69.549,68.593 26.595,31.043 47.678,42.703 84.033,46.477 7.684,0.798 14.059,1.914 14.166,2.481 0.107,0.567 -9.078,13.984 -20.412,29.815 -31.146,43.505 -30.184,39.205 -22.495,100.586 9.196,73.407 10.434,102.554 5.829,137.193 -4.612,34.693 -23.922,97.272 -22.706,73.586 l 0,0 z"
           id="path8908-7"
           inkscape:connector-curvature="0" />
        <path
           style="fill:#ffffff;fill-opacity:1;stroke:#ffffff;stroke-width:0;stroke-linecap:round;stroke-linejoin:round;stroke-miterlimit:4;stroke-opacity:1;stroke-dasharray:none"
           d="m 11546.158,-9402.4923 c -18.726,-2.39 -38.524,-11.393 -47.477,-21.593 l -7.185,-8.184 10.233,-18.664 c 5.628,-10.266 15.157,-23.828 21.175,-30.139 10.525,-11.037 12.584,-11.851 53.98,-21.327 39.989,-9.153 43.856,-9.526 54.574,-5.262 25.722,10.232 30.644,36.728 11.301,60.844 -23.95,29.863 -64.419,48.432 -96.601,44.325 l 0,0 z m 64.825,-30.322 c 7.861,-6.335 4.86,-16.366 -5.071,-16.953 -9.33,-0.551 -16.498,6.275 -14.986,14.27 1.848,9.774 9.917,10.854 20.057,2.683 z m -78.16,6.61 c 7.932,-11.631 4.634,-31.269 -4.947,-29.458 -5.872,1.111 -17.273,21.494 -15.946,28.509 2.009,10.625 13.926,11.166 20.893,0.949 z m 37.188,-9.884 c 3.407,-4.995 5.923,-10.513 5.592,-12.263 -1.061,-5.614 -17.358,-10.332 -26.203,-7.586 -7.252,2.251 -8.42,4.289 -7.598,13.258 0.534,5.829 2.099,12.422 3.475,14.652 3.972,6.43 17.962,1.87 24.734,-8.061 z"
           id="path8910-3"
           inkscape:connector-curvature="0" />
        <path
           style="fill:#ffffff;fill-opacity:1;stroke:#ffffff;stroke-width:0;stroke-linecap:round;stroke-linejoin:round;stroke-miterlimit:4;stroke-opacity:1;stroke-dasharray:none"
           d="m 11179.879,-9502.4103 c -12.003,-6.455 -26.918,-13.651 -33.143,-15.99 -10.323,-3.88 -10.862,-4.623 -6.116,-8.434 8.738,-7.018 42.242,-24.736 49.296,-26.07 6.527,-1.234 43.939,14.699 53.804,22.914 4.407,3.669 2.509,6.281 -15.345,21.114 -11.206,9.309 -21.792,17.213 -23.523,17.564 -1.732,0.354 -12.97,-4.643 -24.973,-11.098 l 0,0 z"
           id="path8912-4"
           inkscape:connector-curvature="0" />
        <path
           style="fill:#ffffff;fill-opacity:1;stroke:#ffffff;stroke-width:0;stroke-linecap:round;stroke-linejoin:round;stroke-miterlimit:4;stroke-opacity:1;stroke-dasharray:none"
           d="m 11311.244,-9596.3393 -27.107,-12.144 14.724,-9.662 14.724,-9.663 14.731,7.433 c 8.102,4.088 16.034,8.165 17.627,9.061 2.285,1.285 -4.151,26.469 -6.898,26.988 -0.381,0.07 -12.892,-5.334 -27.801,-12.013 z"
           id="path8914-9"
           inkscape:connector-curvature="0" />
        <path
           style="fill:#ffffff;fill-opacity:1;stroke:#ffffff;stroke-width:0;stroke-linecap:round;stroke-linejoin:round;stroke-miterlimit:4;stroke-opacity:1;stroke-dasharray:none"
           d="m 10425.858,-9302.8773 c -3.271,-12.233 -5.205,-23.346 -4.296,-24.696 0.908,-1.35 9.517,-4.958 19.131,-8.018 l 17.48,-5.563 2.339,12.371 c 1.287,6.804 4.458,18.7 7.048,26.434 l 4.709,14.063 -20.231,3.825 -20.231,3.826 -5.948,-22.242 z"
           id="path8916-2"
           inkscape:connector-curvature="0" />
        <path
           style="fill:#ffffff;fill-opacity:1;stroke:none"
           d="m 10083.674,-9146.3763 -0.191,-1.009 21.907,-11.178 c 36.103,-18.422 49.669,-25.475 59.102,-30.727 15.612,-8.692 21.214,-13.017 26.493,-20.456 2.703,-3.808 12.798,-19.565 12.605,-19.675 -0.1,-0.05 -19.279,3.13 -42.629,7.076 l -42.455,7.175 -21.872,10.57 -21.871,10.57 -0.206,-0.763 c -0.114,-0.419 -0.185,-0.793 -0.158,-0.832 0.107,-0.149 24.984,-12.502 37.44,-18.588 36.226,-17.704 65.938,-31.28 81.778,-37.369 12.604,-4.845 19.636,-6.67 21.082,-5.471 1.454,1.206 -0.359,6.988 -6.431,20.506 -8.872,19.751 -17.203,34.347 -21.28,37.284 -0.393,0.284 -4.807,2.61 -9.807,5.168 -18.022,9.222 -87.005,45.225 -92.541,48.298 l -0.775,0.43 -0.191,-1.009 0,0 z"
           id="path8918-5"
           inkscape:connector-curvature="0" />
        <path
           style="fill:#ffffff;fill-opacity:1;stroke:none"
           d="m 12525.563,-9490.0243 c 5.096,-5.709 32.263,-25.769 37.431,-27.637 3.379,-1.222 7.687,-0.777 15.636,1.617 6.035,1.817 11.432,4.134 11.993,5.148 2.589,4.68 -26.905,16.754 -52.737,21.59 -15.528,2.907 -15.556,2.907 -12.323,-0.718 z"
           id="path8920-0"
           inkscape:connector-curvature="0" />
        <path
           style="fill:#ffffff;fill-opacity:1;stroke:none"
           d="m 9861.0689,-8301.1496 c -7.2,1.244 -7.315,1.2507 -7.66,0.4318 -0.194,-0.4569 -1.398,-3.8965 -2.677,-7.643 -3.125,-9.1493 -6.249,-16.7824 -9.036,-22.079 -2.957,-5.6179 -3.374,-7.3579 -2.116,-8.8198 0.511,-0.5936 1.8,-1.5465 2.865,-2.1177 2.453,-1.315 12.483,-5.0423 14.695,-5.4607 4.527,-0.8558 6.838,0.9454 20.525,15.992 11.401,12.533 17.6,20.9781 16.541,22.5321 -0.813,1.1911 -9.737,3.1205 -33.137,7.1643 z"
           id="path8922-5"
           inkscape:connector-curvature="0" />
        <path
           style="fill:#ffffff;fill-opacity:1;stroke:none"
           d="m 10648.317,-9317.0983 c 8.05,-12.119 13.457,-16.447 22.683,-18.158 10.908,-2.022 12.583,-0.225 5.734,6.155 -7.196,6.704 -22.909,17.254 -30.01,20.149 l -5.236,2.136 6.829,-10.282 z"
           id="path8924-3"
           inkscape:connector-curvature="0" />
      </g>
    </g>
    <text
       sodipodi:linespacing="125%"
       style="font-size:20.78612137px;font-style:normal;font-variant:normal;font-weight:bold;font-stretch:normal;line-height:125%;letter-spacing:0px;word-spacing:0px;opacity:0.5;fill:#ffffff;fill-opacity:1;stroke:none;font-family:FifthLeg;-inkscape-font-specification:Sans Bold"
       xml:space="preserve"
       id="text11301"
       y="295.03506"
       x="9847.6377"><tspan
         style="font-size:207.86120605px;fill:#ffffff"
         id="tspan11303"
         y="295.03506"
         x="9847.6377">conference.opensuse.org</tspan></text>
    <text
       sodipodi:linespacing="125%"
       id="text11305"
       y="-4619.3735"
       x="8394.0605"
       style="font-size:453.0171814px;font-style:normal;font-weight:normal;line-height:125%;letter-spacing:0px;word-spacing:0px;fill:#000000;fill-opacity:1;stroke:none;font-family:Sans"
       xml:space="preserve"><tspan
         style="font-style:normal;font-variant:normal;font-weight:bold;font-stretch:normal;fill:#ffffff;font-family:FifthLeg;-inkscape-font-specification:FifthLeg Bold"
         y="-4619.3735"
         x="8394.0605"
         id="tspan11307"
         sodipodi:role="line">openSUSE Conference 2013</tspan></text>
    <text
       sodipodi:linespacing="125%"
       id="text11309"
       y="-4035.5962"
       x="11022.63"
       style="font-size:497.0078125px;font-style:normal;font-weight:normal;line-height:125%;letter-spacing:0px;word-spacing:0px;fill:#000000;fill-opacity:1;stroke:none;font-family:Sans"
       xml:space="preserve"><tspan
         style="font-style:normal;font-variant:normal;font-weight:bold;font-stretch:normal;text-align:center;text-anchor:middle;fill:#ffffff;font-family:FifthLeg;-inkscape-font-specification:FifthLeg Bold"
         y="-4035.5962"
         x="11022.63"
         id="tspan11311"
         sodipodi:role="line">18-22 July @</tspan><tspan
         id="tspan11313"
         style="font-style:normal;font-variant:normal;font-weight:bold;font-stretch:normal;text-align:center;text-anchor:middle;fill:#ffffff;font-family:FifthLeg;-inkscape-font-specification:FifthLeg Bold"
         y="-3414.3364"
         x="11022.63"
         sodipodi:role="line">Thessaloniki, Greece</tspan></text>
    <text
       sodipodi:linespacing="85.000002%"
       id="text11325"
       y="-11684.379"
       x="11008.708"
       style="font-size:32147.21289062px;font-style:normal;font-weight:normal;line-height:85.00000238%;letter-spacing:0px;word-spacing:0px;fill:#ffffff;fill-opacity:1;stroke:none;font-family:Sans"
       xml:space="preserve"
       inkscape:export-filename="/home/CarlosRibeiro/git_repo/artwork/Marketing Materials/Events/openSUSE Conference/2013-oS-Conference/Banners/Big_Banner_4x2m_19.png"
       inkscape:export-xdpi="71"
       inkscape:export-ydpi="71"><tspan
         style="font-size:813.28082275px;font-style:normal;font-variant:normal;font-weight:100;font-stretch:normal;text-align:center;line-height:85.00000238%;writing-mode:lr-tb;text-anchor:middle;fill:#ffffff;font-family:Adonais;-inkscape-font-specification:Adonais Thin"
         y="-11684.379"
         x="11008.708"
         sodipodi:role="line"
         id="tspan11490">POWER TO</tspan><tspan
         style="font-size:813.28082275px;font-style:normal;font-variant:normal;font-weight:100;font-stretch:normal;text-align:center;line-height:85.00000238%;writing-mode:lr-tb;text-anchor:middle;fill:#ffffff;font-family:Adonais;-inkscape-font-specification:Adonais Thin"
         y="-10993.09"
         x="11008.708"
         sodipodi:role="line"
         id="tspan11496">THE GEEKO</tspan></text>
  </g>
</svg>
