<?xml version="1.0" encoding="UTF-8" standalone="no"?>
<svg
   xmlns:dc="http://purl.org/dc/elements/1.1/"
   xmlns:cc="http://creativecommons.org/ns#"
   xmlns:rdf="http://www.w3.org/1999/02/22-rdf-syntax-ns#"
   xmlns:svg="http://www.w3.org/2000/svg"
   xmlns="http://www.w3.org/2000/svg"
   xmlns:sodipodi="http://sodipodi.sourceforge.net/DTD/sodipodi-0.dtd"
   xmlns:inkscape="http://www.inkscape.org/namespaces/inkscape"
   id="svg8"
   version="1.1"
   viewBox="0 0 180 82.000005"
   height="82"
   width="180"
   sodipodi:docname="video-team.svg"
   inkscape:version="0.92.3 (2405546, 2018-03-11)">
  <sodipodi:namedview
     pagecolor="#ffffff"
     bordercolor="#666666"
     borderopacity="1"
     objecttolerance="10"
     gridtolerance="10"
     guidetolerance="10"
     inkscape:pageopacity="0"
     inkscape:pageshadow="2"
     inkscape:window-width="1366"
     inkscape:window-height="713"
     id="namedview25"
     showgrid="false"
     inkscape:zoom="3.8183766"
     inkscape:cx="45.430183"
     inkscape:cy="54.914672"
     inkscape:window-x="0"
     inkscape:window-y="27"
     inkscape:window-maximized="1"
     inkscape:current-layer="layer1" />
  <defs
     id="defs2" />
  <metadata
     id="metadata5">
    <rdf:RDF>
      <cc:Work
         rdf:about="">
        <dc:format>image/svg+xml</dc:format>
        <dc:type
           rdf:resource="http://purl.org/dc/dcmitype/StillImage" />
        <dc:title />
      </cc:Work>
    </rdf:RDF>
  </metadata>
  <g
     transform="translate(0,-1040.5197)"
     id="layer1">
    <path
       id="rect817-2"
       d="m 18,1059.3947 v 45 h 1.542969 c 0.08469,-0.2191 0.293307,-0.375 0.542969,-0.375 h 3.328124 c 0.249663,0 0.458277,0.1559 0.542969,0.375 H 25.5 h 30 1.542969 c 0.08469,-0.2191 0.293307,-0.375 0.542969,-0.375 h 3.328124 c 0.24966,0 0.458278,0.1559 0.542969,0.375 H 63 v -45 h -1.5 v 0.1641 c 0,0.3246 -0.261328,0.5859 -0.585938,0.5859 H 57.585938 C 57.26133,1060.1447 57,1059.8834 57,1059.5588 v -0.1641 H 55.5 25.5 24 v 0.1641 c 0,0.3246 -0.261328,0.5859 -0.585938,0.5859 h -3.328124 c -0.324609,0 -0.585938,-0.2613 -0.585938,-0.5859 v -0.1641 z m 2.085938,4.125 h 3.328124 c 0.32461,0 0.585938,0.2613 0.585938,0.5859 v 2.2032 c 0,0.3246 -0.261328,0.5859 -0.585938,0.5859 h -3.328124 c -0.324609,0 -0.585938,-0.2613 -0.585938,-0.5859 v -2.2032 c 0,-0.3246 0.261328,-0.5859 0.585938,-0.5859 z m 37.5,0 h 3.328124 c 0.32461,0 0.585938,0.2613 0.585938,0.5859 v 2.2032 c 0,0.3246 -0.261328,0.5859 -0.585938,0.5859 H 57.585938 C 57.26133,1066.8947 57,1066.6334 57,1066.3088 v -2.2032 c 0,-0.3246 0.261329,-0.5859 0.585938,-0.5859 z m -37.5,6.75 h 3.328124 c 0.32461,0 0.585938,0.2613 0.585938,0.5859 v 2.2032 c 0,0.3246 -0.261328,0.5859 -0.585938,0.5859 h -3.328124 c -0.324609,0 -0.585938,-0.2613 -0.585938,-0.5859 v -2.2032 c 0,-0.3246 0.261328,-0.5859 0.585938,-0.5859 z m 37.5,0 h 3.328124 c 0.32461,0 0.585938,0.2613 0.585938,0.5859 v 2.2032 c 0,0.3246 -0.261328,0.5859 -0.585938,0.5859 H 57.585938 C 57.26133,1073.6447 57,1073.3834 57,1073.0588 v -2.2032 c 0,-0.3246 0.261329,-0.5859 0.585938,-0.5859 z m -37.5,6.75 h 3.328124 c 0.32461,0 0.585938,0.2613 0.585938,0.5859 v 2.2032 c 0,0.3246 -0.261328,0.5859 -0.585938,0.5859 h -3.328124 c -0.324609,0 -0.585938,-0.2613 -0.585938,-0.5859 v -2.2032 c 0,-0.3246 0.261328,-0.5859 0.585938,-0.5859 z m 37.5,0 h 3.328124 c 0.32461,0 0.585938,0.2613 0.585938,0.5859 v 2.2032 c 0,0.3246 -0.261328,0.5859 -0.585938,0.5859 H 57.585938 C 57.26133,1080.3947 57,1080.1334 57,1079.8088 v -2.2032 c 0,-0.3246 0.261329,-0.5859 0.585938,-0.5859 z m -37.5,6.75 h 3.328124 c 0.32461,0 0.585938,0.2613 0.585938,0.5859 v 2.2032 c 0,0.3246 -0.261328,0.5859 -0.585938,0.5859 h -3.328124 c -0.324609,0 -0.585938,-0.2613 -0.585938,-0.5859 v -2.2032 c 0,-0.3246 0.261328,-0.5859 0.585938,-0.5859 z m 37.5,0 h 3.328124 c 0.32461,0 0.585938,0.2613 0.585938,0.5859 v 2.2032 c 0,0.3246 -0.261328,0.5859 -0.585938,0.5859 H 57.585938 C 57.26133,1087.1447 57,1086.8834 57,1086.5588 v -2.2032 c 0,-0.3246 0.261329,-0.5859 0.585938,-0.5859 z m -37.5,6.75 h 3.328124 c 0.32461,0 0.585938,0.2613 0.585938,0.5859 v 2.2032 c 0,0.3246 -0.261328,0.5859 -0.585938,0.5859 h -3.328124 c -0.324609,0 -0.585938,-0.2613 -0.585938,-0.5859 v -2.2032 c 0,-0.3246 0.261328,-0.5859 0.585938,-0.5859 z m 37.5,0 h 3.328124 c 0.32461,0 0.585938,0.2613 0.585938,0.5859 v 2.2032 c 0,0.3246 -0.261328,0.5859 -0.585938,0.5859 H 57.585938 C 57.26133,1093.8947 57,1093.6334 57,1093.3088 v -2.2032 c 0,-0.3246 0.261329,-0.5859 0.585938,-0.5859 z m -37.5,6.75 h 3.328124 c 0.32461,0 0.585938,0.2613 0.585938,0.5859 v 2.2032 c 0,0.3246 -0.261328,0.5859 -0.585938,0.5859 h -3.328124 c -0.324609,0 -0.585938,-0.2613 -0.585938,-0.5859 v -2.2032 c 0,-0.3246 0.261328,-0.5859 0.585938,-0.5859 z m 37.5,0 h 3.328124 c 0.32461,0 0.585938,0.2613 0.585938,0.5859 v 2.2032 c 0,0.3246 -0.261328,0.5859 -0.585938,0.5859 H 57.585938 C 57.26133,1100.6447 57,1100.3834 57,1100.0588 v -2.2032 c 0,-0.3246 0.261329,-0.5859 0.585938,-0.5859 z"
       style="opacity:0.2;fill:#000000;fill-opacity:1;stroke:none;stroke-width:0.31813714;stroke-miterlimit:4;stroke-dasharray:none;stroke-opacity:1" />
    <path
       id="rect1349"
       d="m 18,1058.6447 v 45 h 1.542969 c 0.08469,-0.2192 0.293308,-0.375 0.542969,-0.375 h 3.328124 c 0.249663,0 0.458277,0.1558 0.542969,0.375 H 25.5 h 30 1.542969 c 0.08469,-0.219 0.293307,-0.375 0.542969,-0.375 h 3.328124 c 0.24966,0 0.458278,0.156 0.542969,0.375 H 63 v -45 h -1.5 v 0.1641 c 0,0.3246 -0.261328,0.5859 -0.585938,0.5859 H 57.585938 C 57.26133,1059.3947 57,1059.1334 57,1058.8088 v -0.1641 H 55.5 25.5 24 v 0.1641 c 0,0.3246 -0.261329,0.5859 -0.585938,0.5859 h -3.328124 c -0.32461,0 -0.585938,-0.2613 -0.585938,-0.5859 v -0.1641 z m 2.085938,4.125 h 3.328124 c 0.324609,0 0.585938,0.2612 0.585938,0.5859 v 2.2032 c 0,0.3246 -0.261329,0.5859 -0.585938,0.5859 h -3.328124 c -0.32461,0 -0.585938,-0.2613 -0.585938,-0.5859 v -2.2032 c 0,-0.3247 0.261328,-0.5859 0.585938,-0.5859 z m 37.5,0 h 3.328124 c 0.32461,0 0.585938,0.2612 0.585938,0.5859 v 2.2032 c 0,0.3246 -0.261328,0.5859 -0.585938,0.5859 H 57.585938 C 57.26133,1066.1447 57,1065.8834 57,1065.5588 v -2.2032 c 0,-0.3247 0.261329,-0.5859 0.585938,-0.5859 z m -37.5,6.75 h 3.328124 c 0.324609,0 0.585938,0.2613 0.585938,0.5859 v 2.2032 c 0,0.3246 -0.261329,0.5859 -0.585938,0.5859 h -3.328124 c -0.32461,0 -0.585938,-0.2613 -0.585938,-0.5859 v -2.2032 c 0,-0.3246 0.261328,-0.5859 0.585938,-0.5859 z m 37.5,0 h 3.328124 c 0.32461,0 0.585938,0.2613 0.585938,0.5859 v 2.2032 c 0,0.3246 -0.261328,0.5859 -0.585938,0.5859 H 57.585938 C 57.26133,1072.8947 57,1072.6334 57,1072.3088 v -2.2032 c 0,-0.3246 0.261329,-0.5859 0.585938,-0.5859 z m -37.5,6.75 h 3.328124 c 0.324609,0 0.585938,0.2613 0.585938,0.5859 v 2.2032 c 0,0.3246 -0.261329,0.5859 -0.585938,0.5859 h -3.328124 c -0.32461,0 -0.585938,-0.2613 -0.585938,-0.5859 v -2.2032 c 0,-0.3246 0.261328,-0.5859 0.585938,-0.5859 z m 37.5,0 h 3.328124 c 0.32461,0 0.585938,0.2613 0.585938,0.5859 v 2.2032 c 0,0.3246 -0.261328,0.5859 -0.585938,0.5859 H 57.585938 C 57.26133,1079.6447 57,1079.3834 57,1079.0588 v -2.2032 c 0,-0.3246 0.261329,-0.5859 0.585938,-0.5859 z m -37.5,6.75 h 3.328124 c 0.324609,0 0.585938,0.2613 0.585938,0.5859 v 2.2032 c 0,0.3246 -0.261329,0.5859 -0.585938,0.5859 h -3.328124 c -0.32461,0 -0.585938,-0.2613 -0.585938,-0.5859 v -2.2032 c 0,-0.3246 0.261328,-0.5859 0.585938,-0.5859 z m 37.5,0 h 3.328124 c 0.32461,0 0.585938,0.2613 0.585938,0.5859 v 2.2032 c 0,0.3246 -0.261328,0.5859 -0.585938,0.5859 H 57.585938 C 57.26133,1086.3947 57,1086.1334 57,1085.8088 v -2.2032 c 0,-0.3246 0.261329,-0.5859 0.585938,-0.5859 z m -37.5,6.75 h 3.328124 c 0.324609,0 0.585938,0.2613 0.585938,0.5859 v 2.2032 c 0,0.3246 -0.261329,0.5859 -0.585938,0.5859 h -3.328124 c -0.32461,0 -0.585938,-0.2613 -0.585938,-0.5859 v -2.2032 c 0,-0.3246 0.261328,-0.5859 0.585938,-0.5859 z m 37.5,0 h 3.328124 c 0.32461,0 0.585938,0.2613 0.585938,0.5859 v 2.2032 c 0,0.3246 -0.261328,0.5859 -0.585938,0.5859 H 57.585938 C 57.26133,1093.1447 57,1092.8834 57,1092.5588 v -2.2032 c 0,-0.3246 0.261329,-0.5859 0.585938,-0.5859 z m -37.5,6.75 h 3.328124 c 0.324609,0 0.585938,0.2613 0.585938,0.5859 v 2.2032 c 0,0.3246 -0.261329,0.5859 -0.585938,0.5859 h -3.328124 c -0.32461,0 -0.585938,-0.2613 -0.585938,-0.5859 v -2.2032 c 0,-0.3246 0.261328,-0.5859 0.585938,-0.5859 z m 37.5,0 h 3.328124 c 0.32461,0 0.585938,0.2613 0.585938,0.5859 v 2.2032 c 0,0.3246 -0.261328,0.5859 -0.585938,0.5859 H 57.585938 C 57.26133,1099.8947 57,1099.6334 57,1099.3088 v -2.2032 c 0,-0.3246 0.261329,-0.5859 0.585938,-0.5859 z"
       style="opacity:1;fill:#061c2a;fill-opacity:1;stroke:none;stroke-width:1.49999988;stroke-miterlimit:4;stroke-dasharray:none;stroke-opacity:1" />
    <rect
       ry="0"
       y="1094.2697"
       x="27.000071"
       height="20.25"
       width="26.999998"
       id="rect1059-9-4-0"
       style="opacity:0.2;fill:#000000;fill-opacity:1;stroke:none;stroke-width:0.39679703;stroke-miterlimit:4;stroke-dasharray:none;stroke-opacity:1" />
    <rect
       ry="0"
       y="1071.7695"
       x="27.000071"
       height="20.25"
       width="26.999998"
       id="rect1059-9-3"
       style="opacity:0.2;fill:#000000;fill-opacity:1;stroke:none;stroke-width:0.39679703;stroke-miterlimit:4;stroke-dasharray:none;stroke-opacity:1" />
    <rect
       ry="0"
       y="1049.2698"
       x="27.000071"
       height="20.249998"
       width="26.999998"
       id="rect1059-6"
       style="opacity:0.2;fill:#000000;fill-opacity:1;stroke:none;stroke-width:0.39679703;stroke-miterlimit:4;stroke-dasharray:none;stroke-opacity:1" />
    <rect
       ry="0"
       y="1048.5198"
       x="27.000071"
       height="20.249998"
       width="26.999998"
       id="rect1059"
       style="opacity:1;fill:#173f4f;fill-opacity:1;stroke:none;stroke-width:0.39679703;stroke-miterlimit:4;stroke-dasharray:none;stroke-opacity:1" />
    <rect
       ry="0"
       y="1071.0195"
       x="27.000071"
       height="20.25"
       width="26.999998"
       id="rect1059-9"
       style="opacity:1;fill:#73ba25;fill-opacity:1;stroke:none;stroke-width:0.39679703;stroke-miterlimit:4;stroke-dasharray:none;stroke-opacity:1" />
    <rect
       ry="0"
       y="1093.5197"
       x="27.000071"
       height="20.25"
       width="26.999998"
       id="rect1059-9-4"
       style="opacity:1;fill:#173f4f;fill-opacity:1;stroke:none;stroke-width:0.39679703;stroke-miterlimit:4;stroke-dasharray:none;stroke-opacity:1" />
    <path
       id="path1671"
       d="m 40.5,1097.5197 a 6.5,6.5 0 0 0 -6.5,6.5 6.5,6.5 0 0 0 6.5,6.5 6.5,6.5 0 0 0 6.5,-6.5 6.5,6.5 0 0 0 -6.5,-6.5 z m -1.875,3.5 5.25,3 -5.25,3 z"
       style="opacity:1;fill:#ffffff;fill-opacity:1;stroke:none;stroke-width:2.14482522;stroke-miterlimit:4;stroke-dasharray:none;stroke-opacity:1" />
    <path
       style="opacity:1;fill:#ffffff;fill-opacity:1;stroke:none;stroke-width:0.23640315;stroke-miterlimit:4;stroke-dasharray:none;stroke-opacity:1"
       d="m 40.503718,1074.0284 c -2.309168,0 -4.488163,1.0692 -5.907649,2.8896 0.915295,0.2443 1.563127,0.4545 1.757146,0.5196 0.003,-0.1185 0.02278,-1.1831 0.02278,-1.1831 0,0 0.0024,-0.025 0.0156,-0.036 0.01666,-0.018 0.04096,-0.018 0.04096,-0.018 0.240737,0.036 5.379185,0.7961 7.545069,2.0574 0.267477,0.156 0.399503,0.3228 0.564469,0.4913 0.598714,0.6189 1.389824,3.1924 1.474792,3.723 0.0035,0.021 -0.02244,0.045 -0.03344,0.051 h -2.49e-4 c -0.0615,0.048 -0.128505,0.097 -0.195588,0.141 -0.512498,0.3438 -1.693168,1.1697 -3.207946,1.0348 -1.360655,-0.12 -3.138328,-0.9003 -5.281378,-2.3116 0.210708,0.493 0.418313,0.9877 0.62603,1.482 0.310351,0.1612 3.305866,1.6866 4.784288,1.6569 1.190774,-0.025 2.464326,-0.6053 2.973818,-0.9117 0,0 0.111961,-0.067 0.16069,-0.03 0.05329,0.041 0.03922,0.1051 0.02593,0.1683 -0.03066,0.1456 -0.102705,0.4126 -0.151241,0.5394 l -0.04096,0.1035 c -0.05832,0.1558 -0.1143,0.3012 -0.222249,0.3907 -0.300137,0.2727 -0.779181,0.4896 -1.529807,0.8159 -1.16025,0.5071 -3.04265,0.8298 -4.790346,0.8185 -0.625965,-0.018 -1.230718,-0.084 -1.761752,-0.1455 -1.089799,-0.123 -1.976515,-0.2227 -2.517206,0.1683 1.422306,1.6336 3.481658,2.573 5.648319,2.5766 4.144494,0 7.50424,-3.358 7.504106,-7.5002 -8.7e-5,-4.1421 -3.359768,-7.4998 -7.504106,-7.4998 z m 1.673775,4.3518 c -0.587361,-0.02 -1.147438,0.1882 -1.576829,0.589 -0.429194,0.3993 -0.674804,0.9438 -0.696557,1.5303 -0.04057,1.2102 0.910119,2.2299 2.119968,2.2746 0.590028,0.019 1.14889,-0.1873 1.57828,-0.5904 0.428101,-0.3982 0.673713,-0.9427 0.696558,-1.5292 0.04156,-1.2093 -0.910269,-2.2311 -2.12142,-2.2743 z m -0.01842,0.6471 c 0.846425,0.03 1.50911,0.7408 1.480606,1.5864 -0.01305,0.4078 -0.185209,0.7858 -0.484242,1.0663 -0.29947,0.279 -0.690873,0.4242 -1.101553,0.4118 -0.844462,-0.033 -1.507172,-0.7425 -1.478668,-1.5885 0.01245,-0.4095 0.187969,-0.7875 0.485698,-1.0665 0.297721,-0.2793 0.687256,-0.4242 1.098159,-0.4095 z m 0.250846,0.7692 c -0.376081,0 -0.679833,0.2022 -0.679833,0.4539 0,0.2493 0.303752,0.4527 0.679833,0.4527 0.375859,0 0.680805,-0.2036 0.680805,-0.4527 0,-0.2517 -0.304735,-0.4539 -0.680805,-0.4539 z"
       id="path819" />
    <path
       style="fill:#ffffff;fill-opacity:1;stroke-width:0.15259878"
       id="path2"
       d="m 40.499843,1051.5415 c -4.141837,0 -7.499774,3.3579 -7.499774,7.5002 a 7.5002298,7.5002298 0 0 0 0.490148,2.6583 c 0.109875,-0.2877 0.235918,-0.5685 0.394772,-0.8322 0.08088,-0.135 0.169843,-0.2645 0.229204,-0.4089 0.05952,-0.1455 0.08698,-0.3086 0.04151,-0.4583 -0.02595,-0.086 -0.07478,-0.162 -0.127575,-0.2334 -0.05295,-0.072 -0.11094,-0.1395 -0.159161,-0.2145 -0.122685,-0.1902 -0.178998,-0.4245 -0.147105,-0.6486 0.03204,-0.2242 0.152905,-0.4363 0.335108,-0.5709 0.162365,-0.12 0.367458,-0.174 0.570109,-0.1663 a 1.0163079,1.0163079 0 0 1 0.199904,0.029 c 0.261859,0.063 0.492894,0.2274 0.664262,0.4348 0.212419,0.258 0.337244,0.5843 0.367763,0.9168 0.03083,0.3327 -0.03051,0.6716 -0.159007,0.9798 -0.230425,0.5523 -0.665636,0.9983 -0.905216,1.5467 -0.195632,0.448 -0.251787,0.9477 -0.225084,1.436 0.0036,0.045 0.0098,0.09 0.0138,0.1365 a 7.5002298,7.5002298 0 0 0 2.093808,1.8399 10.198177,10.198177 0 0 1 -0.07446,-1.2209 c 10e-4,-0.3247 0.01755,-0.6486 0.04883,-0.969 -0.19731,-0.1365 -0.376461,-0.2946 -0.503576,-0.4964 -0.226153,-0.3597 -0.26888,-0.8149 -0.175795,-1.2295 0.09309,-0.4146 0.312828,-0.7923 0.576825,-1.1252 0.435517,-0.5485 1.004405,-0.9924 1.640131,-1.2864 -0.01832,-0.025 -0.03662,-0.051 -0.05188,-0.072 -0.234086,-0.3789 -0.372341,-0.8155 -0.405913,-1.2597 -0.03419,-0.4492 0.03662,-0.8991 0.06638,-1.3485 0.02136,-0.3135 0.02259,-0.6271 0.04089,-0.9408 0.02136,-0.3627 0.06561,-0.7258 0.1674,-1.0746 0.03693,-0.126 0.08209,-0.2526 0.153819,-0.3631 a 0.81029957,0.81029957 0 0 1 0.343805,-0.2982 c 0.158246,-0.063 0.295738,-0.077 0.448642,-0.051 0.127875,0.027 0.246141,0.091 0.349756,0.1708 0.10377,0.08 0.193344,0.176 0.278036,0.2757 a 4.2216454,4.2216454 0 0 1 0.600322,0.935 2.0658824,2.0658824 0 0 1 0.63176,0 4.2152362,4.2152362 0 0 1 0.600628,-0.9351 c 0.08454,-0.1005 0.174421,-0.1961 0.278036,-0.2759 0.10377,-0.08 0.221878,-0.144 0.349909,-0.1705 a 0.73354237,0.73354237 0 0 1 0.451235,0.051 0.81121518,0.81121518 0 0 1 0.343804,0.2991 c 0.07171,0.1095 0.116895,0.2359 0.15382,0.3624 0.101626,0.3487 0.145891,0.7119 0.167248,1.0743 0.01832,0.3138 0.01983,0.6283 0.04119,0.9415 0.02976,0.4496 0.101175,0.8988 0.06715,1.3479 a 2.8085806,2.8085806 0 0 1 -0.407134,1.26 c -0.01832,0.028 -0.04059,0.055 -0.05951,0.084 0.14253,0.1605 0.345941,0.2969 0.519446,0.3552 a 1.1313674,1.1313674 0 0 0 0.606427,0.024 0.95481061,0.95481061 0 0 0 0.30886,-0.1305 0.72484429,0.72484429 0 0 0 0.229661,-0.2418 c 0.06867,-0.12 0.09614,-0.2593 0.111405,-0.3975 0.03891,-0.3522 0,-0.708 -0.029,-1.0611 -0.01983,-0.2292 -0.03585,-0.4624 0.01555,-0.6867 0.0348,-0.1518 0.102855,-0.3003 0.216692,-0.4063 a 0.63969412,0.63969412 0 0 1 0.268878,-0.147 0.75902635,0.75902635 0 0 1 0.306724,-0.016 c 0.219743,0.033 0.425446,0.1578 0.548135,0.3426 0.06974,0.105 0.112156,0.2263 0.137641,0.3499 0.02533,0.123 0.03465,0.2495 0.04151,0.3753 0.0238,0.44 0.02289,0.8805 0.01065,1.3211 -0.0102,0.3846 -0.03204,0.7798 -0.185866,1.1323 -0.197767,0.4524 -0.596051,0.7902 -1.026226,1.0328 a 4.0794233,4.0794233 0 0 1 -0.918035,0.3754 c 0.278798,0.89 0.423919,1.8748 0.423919,2.8735 a 10.180933,10.180933 0 0 1 -0.07782,1.2297 7.4999253,7.4999253 0 0 0 3.69289,-6.4517 c -4.59e-4,-4.1424 -3.358388,-7.5002 -7.500225,-7.5002 z m -2.097624,9.2453 v 0.858 a 1.0875716,1.0875716 0 0 1 0.626723,0.2095 1.0053208,1.0053208 0 0 1 0.321679,0.3938 c 0.07019,0.1564 0.09613,0.3331 0.06714,0.502 a 0.86370916,0.86370916 0 0 1 -0.191969,0.4097 0.95267424,0.95267424 0 0 1 -0.367763,0.2649 1.005626,1.005626 0 0 1 -0.455813,0.071 v 2.1585 l 4.490373,-2.4348 -4.490526,-2.4324 z" />
    <text
       id="text1624"
       y="1080.2151"
       x="84"
       style="font-style:normal;font-weight:normal;font-size:31.18781662px;line-height:1.25;font-family:sans-serif;letter-spacing:0px;word-spacing:0px;fill:#000000;fill-opacity:1;stroke:none;stroke-width:0.77969539"
       xml:space="preserve"><tspan
         style="font-style:normal;font-variant:normal;font-weight:normal;font-stretch:normal;font-family:'Open Sans Condensed';-inkscape-font-specification:'Open Sans Condensed, ';stroke-width:0.77969539"
         y="1080.2151"
         x="84"
         id="tspan1622">Video</tspan></text>
    <text
       id="text1628"
       y="1108.0905"
       x="82.962746"
       style="font-style:normal;font-weight:normal;font-size:35.76750946px;line-height:1.25;font-family:sans-serif;letter-spacing:0px;word-spacing:0px;fill:#000000;fill-opacity:1;stroke:none;stroke-width:0.89418781"
       xml:space="preserve"><tspan
         style="font-style:normal;font-variant:normal;font-weight:300;font-stretch:normal;font-family:'Source Sans Pro';-inkscape-font-specification:'Source Sans Pro Light';stroke-width:0.89418781"
         y="1108.0905"
         x="82.962746"
         id="tspan1626">Team</tspan></text>
  </g>
</svg>
