<?xml version="1.0" encoding="UTF-8" standalone="no"?>
<svg
   xmlns:dc="http://purl.org/dc/elements/1.1/"
   xmlns:cc="http://creativecommons.org/ns#"
   xmlns:rdf="http://www.w3.org/1999/02/22-rdf-syntax-ns#"
   xmlns:svg="http://www.w3.org/2000/svg"
   xmlns="http://www.w3.org/2000/svg"
   id="svg8"
   version="1.1"
   viewBox="0 0 256 256.00001"
   height="256"
   width="256">
  <defs
     id="defs2" />
  <metadata
     id="metadata5">
    <rdf:RDF>
      <cc:Work
         rdf:about="">
        <dc:format>image/svg+xml</dc:format>
        <dc:type
           rdf:resource="http://purl.org/dc/dcmitype/StillImage" />
        <dc:title></dc:title>
      </cc:Work>
    </rdf:RDF>
  </metadata>
  <path
     id="path1004-3"
     d="m 108,12 a 96,96 0 0 0 -96,96 96,96 0 0 0 36,74.82812 V 216 c 0,8.864 7.136,16 16,16 h 152 c 8.864,0 16,-7.136 16,-16 V 64 c 0,-8.864002 -7.136,-16 -16,-16 H 182.91211 A 96,96 0 0 0 108,12 Z"
     style="opacity:1;fill:#73ba25;fill-opacity:1;stroke:none;stroke-width:2.045362;stroke-linecap:round;stroke-linejoin:round;stroke-miterlimit:4;stroke-dasharray:none;stroke-opacity:1" />
  <path
     id="path1004"
     d="M 108 12 A 96 96 0 0 0 12 108 A 96 96 0 0 0 48 182.82812 L 48 216 C 48 224.864 55.135998 232 64 232 L 216 232 C 224.864 232 232 224.864 232 216 L 232 64 C 232 55.135998 224.864 48 216 48 L 182.91211 48 A 96 96 0 0 0 108 12 z M 108 24 A 84 84 0 0 1 192 108 A 84 84 0 0 1 108 192 A 84 84 0 0 1 24 108 A 84 84 0 0 1 108 24 z M 108 34.5 A 73.499186 73.499744 0 0 0 50.136719 62.818359 C 59.101629 65.213489 65.449257 67.271696 67.349609 67.910156 C 67.379389 66.744196 67.572266 56.316406 67.572266 56.316406 C 67.572266 56.316406 67.597233 56.077595 67.724609 55.953125 C 67.888655 55.792915 68.125 55.841797 68.125 55.841797 C 70.482908 56.183337 120.81151 63.643769 142.02539 76.005859 C 144.64521 77.538509 145.93892 79.168302 147.55469 80.820312 C 153.41883 86.885283 161.16584 112.10229 161.99805 117.30273 C 162.03073 117.50704 161.77969 117.7284 161.67188 117.8125 L 161.66992 117.8125 C 161.06743 118.28264 160.40903 118.77216 159.75195 119.20898 C 154.73227 122.5768 143.16863 130.67321 128.33203 129.35156 C 115.005 128.17259 97.593755 120.5276 76.603516 106.69727 C 78.667293 111.52932 80.701842 116.37638 82.736328 121.2207 C 85.776084 122.79954 115.11522 137.74909 129.5957 137.45703 C 141.25882 137.21407 153.73241 131.52504 158.72266 128.52148 C 158.72266 128.52148 159.81966 127.86171 160.29688 128.23047 C 160.8189 128.63375 160.67439 129.25176 160.55078 129.88281 C 160.24377 131.31531 159.54565 133.92933 159.07031 135.16992 L 158.66797 136.17969 C 158.09673 137.71015 157.54752 139.13369 156.49023 140.00977 C 153.55051 142.68285 148.85986 144.80856 141.50781 148.00391 C 130.14366 152.975 111.70581 156.13612 94.587891 156.02734 C 88.456843 155.89084 82.533271 155.21112 77.332031 154.60352 C 66.657954 153.39843 57.973558 152.42166 52.677734 156.25195 A 73.499186 73.499744 0 0 0 108 181.5 A 73.499186 73.499744 0 0 0 181.5 108 A 73.499186 73.499744 0 0 0 108 34.5 z M 123.32031 77.138672 C 117.96197 77.224962 112.89206 79.238782 108.94922 82.919922 C 104.74545 86.833472 102.34001 92.168759 102.12695 97.917969 C 101.72951 109.77821 111.04068 119.77203 122.89062 120.20898 C 128.66967 120.40296 134.1439 118.37189 138.34961 114.42188 C 142.54268 110.52048 144.95007 105.18475 145.17383 99.435547 C 145.581 87.585877 136.25724 77.570674 124.39453 77.146484 C 124.03497 77.134484 123.67753 77.132672 123.32031 77.138672 z M 123.46094 83.480469 C 123.71067 83.477669 123.9633 83.481234 124.21484 83.490234 C 132.50519 83.784374 138.99402 90.749119 138.71484 99.037109 C 138.58686 103.03403 136.90157 106.73862 133.97266 109.48633 C 131.03949 112.22128 127.20601 113.64302 123.18359 113.52148 C 114.91244 113.21641 108.42199 106.2433 108.70117 97.953125 C 108.82272 93.941245 110.5409 90.236903 113.45703 87.501953 C 116.19081 84.937933 119.71492 83.529122 123.46094 83.482422 L 123.46094 83.480469 z M 126.67188 91.027344 C 122.98833 91.027344 120.01172 93.010212 120.01172 95.476562 C 120.01172 97.919562 122.98834 99.912109 126.67188 99.912109 C 130.35325 99.912109 133.33789 97.919443 133.33789 95.476562 C 133.33789 93.010213 130.35531 91.027344 126.67188 91.027344 z M 197.43164 198.60352 L 212.04102 198.60352 C 213.21401 198.60352 214.06836 199.42126 214.06836 200.54297 L 214.06836 201.05078 C 214.06836 202.17761 213.21401 202.98633 212.04102 202.98633 L 200.15625 202.98633 L 200.15625 208.01758 L 209.33008 208.01758 C 210.50478 208.01758 211.35742 208.83142 211.35742 209.95312 L 211.35742 210.45898 C 211.35742 211.57557 210.50478 212.40039 209.33008 212.40039 L 200.15625 212.40039 L 200.15625 217.28516 L 212.67773 217.28516 C 213.85501 217.28516 214.70508 218.10378 214.70508 219.22461 L 214.70508 219.73242 C 214.70508 220.84896 213.85501 221.66211 212.67773 221.66211 L 197.38867 221.66211 C 196.28748 221.66211 195.45508 220.8336 195.45508 219.73242 L 195.45508 200.54688 C 195.45508 199.44057 196.30569 198.60547 197.43164 198.60547 L 197.43164 198.60352 z M 129.30469 198.60547 L 139.50391 198.60547 C 140.68885 198.60547 141.57617 199.44056 141.57617 200.54688 L 141.57617 201.05273 C 141.57617 202.15475 140.70314 202.98828 139.54297 202.98828 L 130.08203 202.98828 C 128.83377 202.98828 128.11914 203.60794 128.11914 204.67578 L 128.11914 206.37109 C 128.11914 207.05335 128.70356 208.01953 129.99023 208.01953 L 138.53711 208.01953 C 140.89415 208.01953 143.26758 209.49644 143.26758 212.80078 L 143.26758 215.87305 C 143.26758 219.39207 141.16153 221.66406 137.89648 221.66406 L 125.4043 221.66406 C 124.22702 221.66406 123.37695 220.84897 123.37695 219.73242 L 123.37695 219.22461 C 123.37695 218.10378 124.22702 217.28516 125.4043 217.28516 L 137.25195 217.28516 C 138.53588 217.28516 138.57422 215.5211 138.57422 215.32617 L 138.57422 213.48828 C 138.57422 212.88382 138.34627 212.16797 137.25195 212.16797 L 128.56641 212.16797 C 126.09194 212.16797 123.42187 210.14479 123.42188 206.87891 L 123.42188 204.03125 C 123.42185 201.81352 125.51044 198.60547 129.30469 198.60547 z M 149.32031 198.60547 L 149.95898 198.60547 C 151.07981 198.60547 151.99023 199.51696 151.99023 200.63867 L 151.99023 215.18359 C 151.99023 216.34888 152.9368 217.28516 154.0918 217.28516 L 160.69336 217.28516 C 161.84412 217.28516 162.79492 216.34888 162.79492 215.18359 L 162.79492 200.63867 C 162.79492 199.51696 163.69865 198.60547 164.82031 198.60547 L 165.46484 198.60547 C 166.60107 198.60547 167.49219 199.50331 167.49219 200.63867 L 167.49219 215.73438 C 167.49219 219.24988 164.72837 221.79883 160.92383 221.79883 L 153.86328 221.79883 C 150.05358 221.79883 147.28711 219.24905 147.28711 215.73438 L 147.28711 200.63867 C 147.28711 199.50331 148.18237 198.60547 149.32031 198.60547 z M 177.46094 198.60547 L 187.65625 198.60547 C 188.8463 198.60547 189.73242 199.44056 189.73242 200.54688 L 189.73242 201.05273 C 189.73242 202.15475 188.86267 202.98828 187.70508 202.98828 L 178.24023 202.98828 C 176.99202 202.98828 176.27734 203.60794 176.27734 204.67578 L 176.27734 206.37109 C 176.27734 207.05335 176.85831 208.01953 178.14844 208.01953 L 186.69531 208.01953 C 189.05241 208.01953 191.43359 209.49644 191.43359 212.80078 L 191.43359 215.87305 C 191.43359 219.39207 189.31671 221.66406 186.05078 221.66406 L 173.55664 221.66406 C 172.38453 221.66406 171.5293 220.84897 171.5293 219.73242 L 171.5293 219.22461 C 171.5293 218.10378 172.38453 217.28516 173.55664 217.28516 L 185.4082 217.28516 C 186.69476 217.28516 186.73438 215.5211 186.73438 215.32617 L 186.73438 213.48828 C 186.73437 212.88382 186.50427 212.16797 185.4082 212.16797 L 176.72461 212.16797 C 174.24842 212.16797 171.57617 210.14479 171.57617 206.87891 L 171.57617 204.03125 C 171.57617 201.81352 173.6684 198.60547 177.46094 198.60547 z M 85.994141 207.65234 L 85.994141 207.6543 L 86.425781 207.6543 C 88.782927 207.6543 90.300781 209.04738 90.300781 211.20703 L 90.300781 218.21094 C 90.300781 220.40393 88.814561 221.76953 86.425781 221.76953 L 85.994141 221.76953 C 84.645002 221.76953 83.627041 221.30697 82.810547 220.93164 C 82.312955 220.70336 81.883121 220.50781 81.548828 220.50781 C 81.429988 220.50781 81.3125 220.70242 81.3125 220.88281 L 81.3125 226.9707 C 81.3125 227.54096 80.84956 228 80.279297 228 L 79.878906 228 C 79.304368 228 78.849609 227.54609 78.849609 226.9707 L 78.849609 208.62305 C 78.849609 208.13571 79.205807 207.73633 79.650391 207.73633 L 80.113281 207.73633 C 80.498872 207.73633 80.810872 208.04276 80.888672 208.19922 L 81.199219 208.79492 C 81.267617 208.90692 81.397499 208.97461 81.548828 208.97461 C 81.883121 208.97461 82.312955 208.76784 82.810547 208.5293 C 83.627041 208.13431 84.645002 207.65234 85.994141 207.65234 z M 115.14062 207.65234 L 115.56836 207.65234 C 117.92722 207.65234 119.44727 209.04738 119.44727 211.20703 L 119.44727 220.6582 C 119.44727 221.22333 118.98237 221.6875 118.41211 221.6875 L 118.01172 221.6875 C 117.43633 221.6875 116.98242 221.22846 116.98242 220.6582 L 116.98242 211.55273 C 116.98242 210.69947 116.28552 209.99805 115.42969 209.99805 L 112.00977 209.99805 C 111.15651 209.99805 110.46094 210.69947 110.46094 211.55273 L 110.46094 220.6582 C 110.46094 221.22333 109.99605 221.6875 109.42578 221.6875 L 109.02734 221.6875 C 108.44682 221.6875 107.99609 221.22846 107.99609 220.6582 L 107.99609 208.62305 C 107.99609 208.11092 108.34764 207.73633 108.82812 207.73633 L 109.22461 207.73633 C 109.59738 207.73633 109.87466 207.90192 110.03711 208.22852 L 110.32031 208.74414 C 110.44172 208.95443 110.5037 208.97461 110.66016 208.97461 C 111.01583 208.97461 111.45138 208.76478 111.96094 208.52539 C 112.78 208.13467 113.79575 207.65234 115.14062 207.65234 z M 97.220703 207.73633 L 101.72852 207.73633 C 103.63681 207.73633 105.19336 209.22908 105.19336 211.06641 L 105.19336 213.84961 C 105.19336 215.03887 104.51406 215.74023 103.36328 215.74023 L 96.207031 215.74023 L 96.207031 217.8418 C 96.207031 218.88058 96.794792 219.42578 97.90625 219.42578 L 101.87109 219.42578 C 102.46786 219.42578 102.90039 219.83134 102.90039 220.39648 L 102.90039 220.71289 C 102.90039 221.2746 102.46786 221.68945 101.87109 221.68945 L 97.042969 221.68945 C 95.259506 221.68945 93.748047 220.11017 93.748047 218.24805 L 93.748047 211.06641 C 93.748047 209.22823 95.30472 207.73828 97.220703 207.73828 L 97.220703 207.73633 z M 67.474609 207.73828 L 71.921875 207.73828 C 73.837003 207.73828 75.398438 209.22908 75.398438 211.06641 L 75.398438 218.30078 C 75.398437 220.16803 73.889212 221.68945 72.039062 221.68945 L 67.359375 221.68945 C 65.509224 221.68945 64 220.16803 64 218.30078 L 64 211.06641 C 64 209.22823 65.558626 207.73828 67.474609 207.73828 z M 82.867188 209.99805 C 81.995119 209.99805 81.3125 210.67981 81.3125 211.55273 L 81.3125 217.87109 C 81.3125 218.72863 82.011364 219.42578 82.867188 219.42578 L 86.285156 219.42578 C 87.140124 219.42578 87.839844 218.72863 87.839844 217.87109 L 87.839844 211.55273 C 87.839844 210.68066 87.158078 209.99805 86.285156 209.99805 L 82.867188 209.99805 z M 67.876953 210 C 67.098932 210 66.462891 210.6336 66.462891 211.4082 L 66.462891 218.01367 C 66.462891 218.80708 67.069878 219.42773 67.849609 219.42773 L 71.523438 219.42773 C 72.301457 219.42773 72.931641 218.7934 72.931641 218.01367 L 72.931641 211.4082 C 72.931641 210.64813 72.284356 210 71.523438 210 L 67.876953 210 z M 97.59375 210 C 96.817439 210 96.208984 210.60932 96.208984 211.38477 C 96.208984 211.38477 96.207886 213.33455 96.207031 213.62695 L 102.73242 213.62695 L 102.73242 211.38477 C 102.73242 210.60932 102.12812 210 101.35352 210 L 97.59375 210 z M 218.12109 217.02344 L 218.12891 217.02344 C 219.17026 217.02344 220 217.87038 220 218.92969 C 220 220.00438 219.17013 220.8418 218.12109 220.8418 C 217.07974 220.8418 216.23242 220.00438 216.23242 218.92969 C 216.23242 217.87124 217.07974 217.02344 218.12109 217.02344 z M 218.12109 217.31836 C 217.28322 217.31836 216.59766 218.03857 216.59766 218.92773 C 216.59766 219.834 217.28249 220.54492 218.12891 220.54492 C 218.97533 220.55392 219.65234 219.83327 219.65234 218.93555 C 219.65234 218.03784 218.97533 217.31836 218.12891 217.31836 L 218.12109 217.31836 z M 218.02734 217.86133 C 218.34966 217.86133 218.56097 217.92834 218.6875 218.02148 C 218.81489 218.11378 218.88281 218.25855 218.88281 218.46289 C 218.88281 218.7416 218.69703 218.91012 218.46875 218.97852 L 218.46875 218.99609 C 218.65513 219.02939 218.78147 219.1999 218.82422 219.51367 C 218.87552 219.84454 218.92478 219.96957 218.95898 220.03711 L 218.60352 220.03711 C 218.55222 219.96961 218.50087 219.77567 218.45898 219.49609 C 218.40768 219.22592 218.27298 219.12305 218.00195 219.12305 L 217.76562 219.12305 L 217.76562 220.03711 L 217.42578 220.03711 L 217.42578 217.91211 C 217.60362 217.88651 217.77341 217.86133 218.02734 217.86133 z M 218.00977 218.12305 C 217.89948 218.12305 217.82462 218.13162 217.76562 218.14062 L 217.76562 218.85938 L 218.00977 218.85938 C 218.28934 218.85938 218.52734 218.75942 218.52734 218.49609 C 218.52734 218.30971 218.39108 218.12305 218.00977 218.12305 z "
     style="opacity:1;fill:#173f4f;fill-opacity:1;stroke:none;stroke-width:2.045362;stroke-linecap:round;stroke-linejoin:round;stroke-miterlimit:4;stroke-dasharray:none;stroke-opacity:1" />
  <circle
     r="0"
     cy="-1251.2444"
     cx="881.72729"
     id="path872"
     style="opacity:0.3;fill:#ffffff;fill-opacity:1;stroke:none;stroke-width:3.52957368;stroke-miterlimit:4;stroke-dasharray:none;stroke-opacity:1" />
</svg>
