<svg xmlns="http://www.w3.org/2000/svg" width="841.89" height="595.281">
    <path fill="#6CA743" d="M141.053 435.644L87.642 343.134 141.053 250.623 247.875 250.623 301.286 343.134 247.875 435.644z"/>
    <path fill="#35B8AA" d="M142.053 237.645L88.642 145.134 142.053 52.623 248.875 52.623 302.286 145.134 248.875 237.645z"/>
    <path fill="#72BA44" d="M288.152 194.288L311.053 154.623 417.875 154.623 471.287 247.134 417.875 339.645 311.053 339.645 257.642 247.134 288.152 194.288"/>
    <path fill="#FFF" d="M385.976,219.585c-4.533-0.164-8.825,1.437-12.108,4.516c-3.283,3.079-5.219,7.249-5.357,11.766 c-0.312,9.332,6.992,17.183,16.304,17.526c4.529,0.135,8.843-1.465,12.145-4.544c3.298-3.092,5.194-7.264,5.339-11.765 C402.608,227.756,395.308,219.916,385.976,219.585z M388.737,238.072c-4.147,0-7.493-2.244-7.493-4.994 c0-2.776,3.346-5.009,7.493-5.009s7.507,2.233,7.507,5.009C396.242,235.828,392.885,238.072,388.737,238.072z"/>
    <path fill="#FFF" d="M428.505,257.65c-0.932-5.856-9.659-34.245-16.257-41.072c-1.819-1.86-3.276-3.693-6.223-5.419 c-23.884-13.914-80.537-22.312-83.191-22.698l-0.45,0.126l-0.171,0.41c0,0-0.219,11.739-0.253,13.051 c-3.562-1.197-12.896-3.799-34.345-9.244c-15.51,27.056-15.51,27.221-31.349,54.113c0,0,0.165,0.165,11.88,21.12 c6.599,11.713,13.196,21.779,16.829,28.048c5.762,10.7,8.084,14.848,14.188,24.749c-1.32-1.816-0.33-1.65,0.441-8.404 c1.76-15.424,15.662-14.816,33.601-12.793c5.854,0.687,12.518,1.449,19.418,1.604c19.272,0.122,40.027-3.438,52.818-9.034 c8.275-3.595,13.561-5.99,16.869-9c1.189-0.985,1.805-2.586,2.447-4.309l0.453-1.137c0.535-1.396,1.322-4.338,1.666-5.953 c0.139-0.709,0.221-1.461-0.287-1.858l-1.77,0.327c-5.616,3.381-19.66,9.783-32.787,10.058 c-16.301,0.329-49.115-16.392-52.537-18.169l-0.331-0.382c-0.804-1.971-5.731-13.614-6.784-16.075 c23.629,15.568,43.225,24.173,58.228,25.5c16.702,1.49,29.721-7.625,35.279-11.522h-0.002c1.104-0.727,1.91-1.329,2.25-1.463 L428.505,257.65z M409.566,237.537c-0.254,6.472-2.961,12.477-7.683,16.868c-4.733,4.447-10.896,6.73-17.401,6.512 c-13.34-0.49-23.82-11.738-23.375-25.089c0.24-6.472,2.949-12.479,7.682-16.883c4.734-4.422,10.91-6.704,17.389-6.499 C399.533,212.923,410.026,224.196,409.566,237.537z"/>
    <text transform="matrix(.9662 0 0 1 112.665 395.99)" fill="#FFF" font-family="'OpenSans-Bold'" font-size="138.684">
        19
    </text>
    <path fill="none" d="M591.355 196.452L591.46 197.305"/>
    <path fill="#26A2DC" d="M178.541,104.739c-0.051,1.837-0.718,3.765-0.803,4c-0.097,0.269-0.176,0.963-0.176,1.542 c0,1.026-0.033,1.055-1.165,1.055c-1.121,0-1.157,0.03-0.974,0.849c0.599,2.689,1.62,4.163,3.513,5.071l1.23,0.59 c0,0-0.775,57.858-0.996,65.929l-0.204,9.845h6.087c0,0-0.988-75.803-0.093-76.118c1.428-0.502,2.859-2.126,3.419-3.877 c0.684-2.141,0.639-2.289-0.688-2.289h-1.158c0,0-0.082-2.97-0.177-5.575c-0.028-0.749-0.46-1.406-0.489-2.017 c-0.011-0.254,0.618-0.466,0.607-0.678c-0.027-0.49-0.091-0.879-0.113-1.029c-0.086-0.542-0.444-1.272-0.551-1.559 c-0.158-0.425-0.521-1.77-1.317-3.26l-0.866-1.62l-0.215-0.925c0,0-0.931-24.534-0.931-26.121c0-1.987-1.682,25.975-1.708,26.042 c-0.016,0.043-0.317,1.107-0.374,1.235c-0.378,0.85-0.841,1.733-1.177,2.582c-0.598,1.511-1.152,2.899-1.42,3.803 c-0.12,0.409-0.103,0.731-0.144,0.9C177.531,103.664,178.578,103.443,178.541,104.739z M183.931,103.004 M185.766,101.48 c0.103,0.31,0.145,0.586,0.189,0.823c0.043,0.222,0.066,0.561,0.066,0.726c0,0.094-0.308-0.024-0.607-0.024 c-0.376,0-0.598-0.295-0.724-0.964c-0.281-1.497-0.216-2.122,0.219-2.122C185.107,99.918,185.501,100.686,185.766,101.48z M183.508,96.524c0.179,0,1.288,1.923,1.29,2.237c0.002,0.463-0.601,0.217-0.756-0.309c-0.087-0.297-0.275-0.852-0.419-1.234 C183.481,96.837,183.429,96.524,183.508,96.524z M179.891,97.728c0.363-0.755,0.604-1.119,0.696-1.097 c0.093,0.022,0.038,0.432-0.188,1.22c-0.181,0.628-0.504,1.142-0.719,1.142C179.385,98.993,179.438,98.679,179.891,97.728z M178.316,102.842c0.036-0.207,0.151-0.986,0.247-1.382c0.235-0.991,0.511-1.422,0.869-1.495c1.435,0.002,0.042-0.03,0.107-0.022 c0.192,0.023,0.35,0.197,0.24,0.639c0.441,0.178,0.149-2.11,0.146-1.642c-0.003,0.546-0.147,2.907-0.549,3.81 c-0.104,0.236-0.364,0.253-0.481,0.254C178.549,103.006,178.223,103.39,178.316,102.842z"/>
    <path fill="#26A2DC" d="M178.789,103.676c-1.14,1.582-1.862,3.917-1.862,6.526c0,4.763,2.407,8.625,5.378,8.625 c2.971,0,5.379-3.862,5.379-8.625c0-2.608-0.722-4.944-1.863-6.526H178.789z"/>
    <path fill="#26A2DC" d="M189.553,110.441c0,4.45-3.294,8.058-7.358,8.058s-7.359-3.607-7.359-8.058 C174.835,110.195,189.553,110.054,189.553,110.441z"/>
    <ellipse fill="#26A2DC" cx="182.552" cy="107.98" rx="8.193" ry=".994"/>
    <ellipse fill="#26A2DC" cx="182.194" cy="103.744" rx="6.316" ry=".994"/>
    <ellipse fill="#26A2DC" cx="181.826" cy="98.94" rx="4.899" ry=".479"/>
    <path fill="#26A2DC" d="M217.92 181.788L237.146 158.111 257.176 182.182 257.327 223.006 256.032 225.249 217.92 225.249z"/>
    <path fill="#173F4F" d="M240.905 149.847L236.976 146.739 233.523 150.11 233.523 177.971 240.905 177.971z"/>
    <path fill="#26A2DC" d="M240.905 153.52L240.905 150.412 236.976 150.412 233.523 150.412 233.523 153.782 233.523 181.643 240.905 181.643zM218.431 181.007L218.009 174.716 217.636 180.841 217.636 231.471 218.431 231.471zM221.543 176.018L221.121 172.556 220.75 175.927 220.75 203.789 221.543 203.789z"/>
    <ellipse fill="#26A2DC" cx="221.146" cy="172.667" rx=".397" ry=".411"/>
    <path fill="#26A2DC" d="M224.116 174.379L223.693 170.918 223.322 174.289 223.322 202.15 224.116 202.15z"/>
    <ellipse fill="#26A2DC" cx="223.719" cy="171.029" rx=".397" ry=".41"/>
    <path fill="#26A2DC" d="M226.656 171.683L226.234 168.223 225.863 171.593 225.863 199.455 226.656 199.455z"/>
    <ellipse fill="#26A2DC" cx="226.26" cy="168.333" rx=".396" ry=".411"/>
    <path fill="#26A2DC" d="M229.149 167.167L228.726 163.706 228.355 167.077 228.355 194.938 229.149 194.938z"/>
    <ellipse fill="#26A2DC" cx="228.752" cy="163.817" rx=".397" ry=".411"/>
    <path fill="#26A2DC" d="M231.547 165.47L231.125 162.008 230.753 165.379 230.753 193.24 231.547 193.24z"/>
    <ellipse fill="#26A2DC" cx="231.15" cy="162.119" rx=".397" ry=".412"/>
    <path fill="#26A2DC" d="M243.267 165.466L242.844 162.004 242.473 165.375 242.473 193.235 243.267 193.235z"/>
    <ellipse fill="#26A2DC" cx="242.87" cy="162.116" rx=".397" ry=".41"/>
    <path fill="#26A2DC" d="M245.936 167.579L245.512 164.117 245.141 167.487 245.141 195.349 245.936 195.349z"/>
    <ellipse fill="#26A2DC" cx="245.538" cy="164.228" rx=".397" ry=".411"/>
    <path fill="#26A2DC" d="M249.175 171.683L248.752 168.223 248.38 171.593 248.38 199.455 249.175 199.455z"/>
    <ellipse fill="#26A2DC" cx="248.778" cy="168.333" rx=".397" ry=".411"/>
    <path fill="#26A2DC" d="M252.081 174.396L251.658 170.935 251.287 174.306 251.287 202.167 252.081 202.167z"/>
    <ellipse fill="#26A2DC" cx="251.684" cy="171.046" rx=".397" ry=".411"/>
    <path fill="#26A2DC" d="M254.701 176.429L254.279 172.967 253.907 176.339 253.907 204.199 254.701 204.199z"/>
    <ellipse fill="#26A2DC" cx="254.304" cy="173.078" rx=".397" ry=".411"/>
    <path fill="#26A2DC" d="M257.327 223.006L257.327 180.661 256.905 174.372 256.533 180.496 256.533 224.381z"/>
    <path fill="#73AB43" d="M219.241 188.173H223.95700000000002V226.032H219.241z"/>
    <ellipse fill="#73AB43" cx="221.599" cy="187.701" rx="2.358" ry="4.589"/>
    <path fill="#73AB43" d="M250.691 188.129H255.407V225.987H250.691z"/>
    <ellipse fill="#73AB43" cx="253.049" cy="187.657" rx="2.358" ry="4.59"/>
    <path fill="#73AB43" d="M231.582 183.412H243.142V226.75400000000002H231.582z"/>
    <ellipse fill="#73AB43" cx="237.361" cy="183.317" rx="5.78" ry="7.511"/>
    <path fill="#173F4F" d="M247.947,226.426c0.052-0.679,0.084-1.368,0.084-2.07c0-9.385-4.763-16.995-10.638-16.995 c-5.876,0-10.638,7.61-10.638,16.995c0,0.702,0.031,1.392,0.083,2.07H247.947z"/>
    <ellipse fill="#FFF" cx="237.378" cy="169.658" rx="2.454" ry="2.54"/>
    <path fill="#72B944" d="M160.236 191.462H216.998V224.914H160.236z"/>
    <path fill="#72B944" d="M177.026 179.421L168.915 165.333 160.236 180.079 160.236 191.856 177.026 191.856z"/>
    <path fill="#26A2DC" d="M158.499 177.837L133.269 177.837 133.269 222.432 135.462 226.228 158.499 226.226z"/>
    <path fill="#173F4F" d="M256.032 225.249L248.875 237.645 142.053 237.645 135.462 226.228 134.668 224.854 256.259 224.854z"/>
    <path fill="#26A2DC" d="M158.499 176.47L160.945 174.425 160.945 164.482 130.701 164.482 130.522 174.472 132.678 176.47 133.269 180.271 158.499 179.022z"/>
    <path fill="#26A2DC" d="M130.522 164.53L130.522 174.472 160.766 174.472 160.945 164.482 158.375 159.163 156.307 163.774 145.921 149.653 135.494 163.839 132.966 159.163z"/>
    <path fill="#FFF" d="M186.754,241.835c0.165,0.161,0.333,0.317,0.501,0.473c0.52-0.056,1.042-0.105,1.567-0.149 C188.13,242.07,187.441,241.964,186.754,241.835z"/>
    <path fill="#173F4F" d="M215.401 224.914c-2.029-8.079-9.733-14.094-18.933-14.094-9.2 0-16.898 6.016-18.927 14.094H215.401zM189.143 185.983H216.998V190.104H189.143z"/>
    <path fill="#173F4F" d="M189.143 183.11H216.998V186.50500000000002H189.143zM189.143 136.276H216.998V139.67000000000002H189.143zM189.143 140.431H216.998V143.82600000000002H189.143zM189.143 144.538H216.998V147.93200000000002H189.143zM189.143 148.641H216.998V152.035H189.143z"/>
    <path fill="#173F4F" d="M189.143 151.861H216.998V155.255H189.143zM189.143 155.831H216.998V159.224H189.143zM189.143 160.012H216.998V163.406H189.143zM189.143 163.94H216.998V167.333H189.143zM189.143 167.923H216.998V171.317H189.143z"/>
    <path fill="#173F4F" d="M189.143 171.139H216.998V174.53400000000002H189.143zM189.143 175.142H216.998V178.53799999999998H189.143zM189.143 179.273H216.998V182.667H189.143zM196.272 131.439H216.998V136.94899999999998H196.272z"/>
    <path fill="#FFF" d="M132.693 169.79c0 .358-.281.649-.627.649l0 0c-.347 0-.627-.291-.627-.649v-1.334c0-.359.28-.65.627-.65l0 0c.347 0 .627.291.627.65V169.79zM135.473 169.79c0 .358-.281.649-.628.649l0 0c-.347 0-.628-.291-.628-.649v-1.334c0-.359.282-.65.628-.65l0 0c.347 0 .628.291.628.65V169.79zM138.007 169.79c0 .358-.281.649-.628.649l0 0c-.347 0-.628-.291-.628-.649v-1.334c0-.359.281-.65.628-.65l0 0c.347 0 .628.291.628.65V169.79zM141.048 169.79c0 .358-.281.649-.627.649l0 0c-.347 0-.629-.291-.629-.649v-1.334c0-.359.282-.65.629-.65l0 0c.346 0 .627.291.627.65V169.79zM146.361 169.79c0 .358-.281.649-.628.649l0 0c-.346 0-.627-.291-.627-.649v-1.334c0-.359.281-.65.627-.65l0 0c.347 0 .628.291.628.65V169.79zM151.982 169.79c0 .358-.281.649-.628.649l0 0c-.346 0-.628-.291-.628-.649v-1.334c0-.359.282-.65.628-.65l0 0c.347 0 .628.291.628.65V169.79zM154.141 169.79c0 .358-.281.649-.627.649l0 0c-.347 0-.628-.291-.628-.649v-1.334c0-.359.282-.65.628-.65l0 0c.346 0 .627.291.627.65V169.79zM156.428 169.79c0 .358-.281.649-.627.649l0 0c-.347 0-.628-.291-.628-.649v-1.334c0-.359.282-.65.628-.65l0 0c.347 0 .627.291.627.65V169.79zM159.28 169.818c0 .359-.282.649-.628.649l0 0c-.347 0-.628-.29-.628-.649v-1.334c0-.36.281-.65.628-.65l0 0c.346 0 .628.291.628.65V169.818zM143.592 169.818c0 .359-.28.649-.627.649l0 0c-.346 0-.628-.29-.628-.649v-1.334c0-.36.282-.65.628-.65l0 0c.347 0 .627.291.627.65V169.818z"/>
    <path fill="#FFF" d="M146.126 169.818c0 .359-.281.649-.628.649l0 0c-.347 0-.628-.29-.628-.649v-1.334c0-.36.282-.65.628-.65l0 0c.348 0 .628.291.628.65V169.818zM149.167 169.818c0 .359-.281.649-.628.649l0 0c-.346 0-.628-.29-.628-.649v-1.334c0-.36.282-.65.628-.65l0 0c.347 0 .628.291.628.65V169.818zM135.787 179.927c0 .358-.281.649-.626.649l0 0c-.347 0-.628-.291-.628-.649v-1.334c0-.359.281-.649.628-.649l0 0c.346 0 .626.29.626.649V179.927zM138.568 179.927c0 .358-.281.649-.628.649l0 0c-.348 0-.628-.291-.628-.649v-1.334c0-.359.28-.649.628-.649l0 0c.347 0 .628.29.628.649V179.927zM141.102 179.927c0 .358-.281.649-.628.649l0 0c-.347 0-.628-.291-.628-.649v-1.334c0-.359.281-.649.628-.649l0 0c.347 0 .628.29.628.649V179.927zM144.143 179.927c0 .358-.28.649-.628.649l0 0c-.346 0-.626-.291-.626-.649v-1.334c0-.359.28-.649.626-.649l0 0c.348 0 .628.29.628.649V179.927zM155.076 179.927c0 .358-.281.649-.628.649l0 0c-.347 0-.629-.291-.629-.649v-1.334c0-.359.282-.649.629-.649l0 0c.347 0 .628.29.628.649V179.927zM157.235 179.927c0 .358-.281.649-.627.649l0 0c-.347 0-.628-.291-.628-.649v-1.334c0-.359.281-.649.628-.649l0 0c.347 0 .627.29.627.649V179.927zM146.687 179.955c0 .359-.281.649-.628.649l0 0c-.347 0-.628-.291-.628-.649v-1.335c0-.358.281-.649.628-.649l0 0c.347 0 .628.291.628.649V179.955zM149.221 179.955c0 .359-.282.649-.628.649l0 0c-.346 0-.627-.291-.627-.649v-1.335c0-.358.282-.649.627-.649l0 0c.347 0 .628.291.628.649V179.955zM152.262 179.955c0 .359-.281.649-.628.649l0 0c-.346 0-.627-.291-.627-.649v-1.335c0-.358.281-.649.627-.649l0 0c.348 0 .628.291.628.649V179.955zM135.787 184.762c0 .36-.281.65-.626.65l0 0c-.347 0-.628-.291-.628-.65v-1.334c0-.359.281-.649.628-.649l0 0c.346 0 .626.29.626.649V184.762zM138.568 184.762c0 .36-.281.65-.627.65l0 0c-.347 0-.628-.291-.628-.65v-1.334c0-.359.282-.649.628-.649l0 0c.347 0 .627.29.627.649V184.762zM141.102 184.762c0 .36-.281.65-.628.65l0 0c-.347 0-.628-.291-.628-.65v-1.334c0-.359.281-.649.628-.649l0 0c.347 0 .628.29.628.649V184.762zM144.144 184.762c0 .36-.281.65-.629.65l0 0c-.346 0-.626-.291-.626-.65v-1.334c0-.359.28-.649.626-.649l0 0c.348 0 .629.29.629.649V184.762zM155.076 184.762c0 .36-.28.65-.628.65l0 0c-.347 0-.628-.291-.628-.65v-1.334c0-.359.281-.649.628-.649l0 0c.348 0 .628.29.628.649V184.762zM157.235 184.762c0 .36-.281.65-.627.65l0 0c-.347 0-.628-.291-.628-.65v-1.334c0-.359.281-.649.628-.649l0 0c.346 0 .627.29.627.649V184.762zM146.687 184.79c0 .359-.281.65-.628.65l0 0c-.346 0-.628-.292-.628-.65v-1.334c0-.359.282-.649.628-.649l0 0c.347 0 .628.291.628.649V184.79zM149.221 184.79c0 .359-.282.65-.628.65l0 0c-.346 0-.628-.292-.628-.65v-1.334c0-.359.282-.649.628-.649l0 0c.346 0 .628.291.628.649V184.79zM152.263 184.79c0 .359-.281.65-.629.65l0 0c-.346 0-.627-.292-.627-.65v-1.334c0-.359.281-.649.627-.649l0 0c.348 0 .629.291.629.649V184.79zM135.963 196.328c0 .36-.282.651-.628.651l0 0c-.347 0-.627-.291-.627-.651v-1.333c0-.358.281-.65.627-.65l0 0c.347 0 .628.292.628.65V196.328zM138.743 196.328c0 .36-.28.651-.627.651l0 0c-.347 0-.629-.291-.629-.651v-1.333c0-.358.282-.65.629-.65l0 0c.347 0 .627.292.627.65V196.328zM141.277 196.328c0 .36-.28.651-.628.651l0 0c-.348 0-.628-.291-.628-.651v-1.333c0-.358.281-.65.628-.65l0 0c.348 0 .628.292.628.65V196.328zM144.318 196.328c0 .36-.281.651-.628.651l0 0c-.347 0-.628-.291-.628-.651v-1.333c0-.358.281-.65.628-.65l0 0c.347 0 .628.292.628.65V196.328zM155.251 196.328c0 .36-.281.651-.628.651l0 0c-.347 0-.628-.291-.628-.651v-1.333c0-.358.281-.65.628-.65l0 0c.347 0 .628.292.628.65V196.328zM157.411 196.328c0 .36-.28.651-.627.651l0 0c-.347 0-.628-.291-.628-.651v-1.333c0-.358.281-.65.628-.65l0 0c.347 0 .627.292.627.65V196.328zM146.862 196.356c0 .359-.281.649-.628.649l0 0c-.346 0-.627-.291-.627-.649v-1.333c0-.359.281-.651.627-.651l0 0c.347 0 .628.292.628.651V196.356zM149.396 196.356c0 .359-.281.649-.628.649l0 0c-.347 0-.627-.291-.627-.649v-1.333c0-.359.28-.651.627-.651l0 0c.347 0 .628.292.628.651V196.356zM152.438 196.356c0 .359-.282.649-.628.649l0 0c-.347 0-.627-.291-.627-.649v-1.333c0-.359.281-.651.627-.651l0 0c.347 0 .628.292.628.651V196.356zM135.963 200.687c0 .358-.282.649-.628.649l0 0c-.347 0-.627-.291-.627-.649v-1.335c0-.358.281-.649.627-.649l0 0c.347 0 .628.292.628.649V200.687zM138.743 200.687c0 .358-.28.649-.627.649l0 0c-.347 0-.629-.291-.629-.649v-1.335c0-.358.282-.649.629-.649l0 0c.347 0 .627.292.627.649V200.687zM141.277 200.687c0 .358-.28.649-.628.649l0 0c-.348 0-.628-.291-.628-.649v-1.335c0-.358.281-.649.628-.649l0 0c.348 0 .628.292.628.649V200.687zM144.318 200.687c0 .358-.281.649-.628.649l0 0c-.347 0-.628-.291-.628-.649v-1.335c0-.358.281-.649.628-.649l0 0c.347 0 .628.292.628.649V200.687zM155.251 200.687c0 .358-.281.649-.628.649l0 0c-.347 0-.628-.291-.628-.649v-1.335c0-.358.281-.649.628-.649l0 0c.347 0 .628.292.628.649V200.687zM157.411 200.687c0 .358-.28.649-.627.649l0 0c-.347 0-.628-.291-.628-.649v-1.335c0-.358.281-.649.628-.649l0 0c.347 0 .627.292.627.649V200.687zM146.862 200.715c0 .358-.281.65-.628.65l0 0c-.346 0-.627-.292-.627-.65v-1.334c0-.36.281-.65.627-.65l0 0c.347 0 .628.291.628.65V200.715zM149.396 200.715c0 .358-.281.65-.628.65l0 0c-.347 0-.627-.292-.627-.65v-1.334c0-.36.28-.65.627-.65l0 0c.347 0 .628.291.628.65V200.715zM152.438 200.715c0 .358-.282.65-.628.65l0 0c-.347 0-.627-.292-.627-.65v-1.334c0-.36.281-.65.627-.65l0 0c.347 0 .628.291.628.65V200.715z"/>
    <path fill="#35B9AB" d="M182.525,191.45v1.1c0,0.358,0.28,0.648,0.627,0.648c0.347,0,0.628-0.291,0.628-0.648v-1.1H182.525z"/>
    <path fill="#FFF" d="M166.72 175.097c0 .358-.282.65-.628.65l0 0c-.347 0-.628-.292-.628-.65v-1.334c0-.361.281-.65.628-.65l0 0c.346 0 .628.29.628.65V175.097zM169.264 175.124c0 .359-.281.65-.628.65l0 0c-.347 0-.627-.291-.627-.65v-1.334c0-.359.281-.65.627-.65l0 0c.347 0 .628.291.628.65V175.124zM171.797 175.124c0 .359-.281.65-.629.65l0 0c-.345 0-.627-.291-.627-.65v-1.334c0-.359.282-.65.627-.65l0 0c.348 0 .629.291.629.65V175.124zM162.2 182.414c0 .359-.281.65-.628.65l0 0c-.347 0-.627-.291-.627-.65v-1.334c0-.358.281-.649.627-.649l0 0c.347 0 .628.291.628.649V182.414zM164.744 182.441c0 .358-.281.65-.628.65l0 0c-.346 0-.627-.292-.627-.65v-1.334c0-.36.281-.649.627-.649l0 0c.347 0 .628.29.628.649V182.441zM167.278 182.441c0 .358-.282.65-.629.65l0 0c-.346 0-.627-.292-.627-.65v-1.334c0-.36.281-.649.627-.649l0 0c.347 0 .629.29.629.649V182.441zM170.519 182.428c0 .358-.28.649-.628.649l0 0c-.346 0-.627-.291-.627-.649v-1.336c0-.358.281-.649.627-.649l0 0c.348 0 .628.292.628.649V182.428zM173.063 182.456c0 .357-.281.649-.628.649l0 0c-.347 0-.627-.292-.627-.649v-1.335c0-.359.281-.65.627-.65l0 0c.348 0 .628.291.628.65V182.456zM175.597 182.456c0 .357-.281.649-.628.649l0 0c-.347 0-.628-.292-.628-.649v-1.335c0-.359.281-.65.628-.65l0 0c.347 0 .628.291.628.65V182.456z"/>
    <path fill="#35B9AB" d="M178.735 191.45v1.1c0 .358.28.648.627.648.347 0 .628-.291.628-.648v-1.1H178.735zM186.329 191.45v1.1c0 .358.28.648.627.648.347 0 .628-.291.628-.648v-1.1H186.329zM190.668 191.456v1.1c0 .358.28.648.627.648.347 0 .628-.291.628-.648v-1.1H190.668zM213.981 191.456v1.1c0 .358.28.648.627.648.347 0 .628-.291.628-.648v-1.1H213.981zM210.304 191.417v1.1c0 .358.28.648.627.648.347 0 .628-.291.628-.648v-1.1H210.304zM206.243 191.456v1.1c0 .358.28.648.627.648.347 0 .628-.291.628-.648v-1.1H206.243zM202.073 191.456v1.1c0 .358.28.648.627.648.347 0 .628-.291.628-.648v-1.1H202.073zM198.659 191.456v1.1c0 .358.28.648.627.648.347 0 .628-.291.628-.648v-1.1H198.659zM194.448 191.456v1.1c0 .358.28.648.627.648.347 0 .628-.291.628-.648v-1.1H194.448z"/>
    <path fill="#72BA44" d="M506.542 338.223c-11.701 0-18.139 9.894-18.139 16.732v8.781c0 10.072 8.23 16.313 15.859 16.313h26.791c3.375 0 4.082 2.208 4.082 4.072v5.666c0 .604-.121 6.045-4.082 6.045h-36.539c-3.631 0-6.254 2.526-6.254 5.981v1.565c0 3.446 2.623 5.956 6.254 5.956h38.523c10.072 0 16.568-7.007 16.568-17.859v-9.475c0-10.191-7.32-14.748-14.592-14.748h-26.363c-3.967 0-5.766-2.978-5.766-5.08v-5.23c0-3.295 2.203-5.204 6.053-5.204h29.18c3.576 0 6.27-2.569 6.27-5.969v-1.564c0-3.41-2.736-5.984-6.393-5.984L506.542 338.223 506.542 338.223zM616.089 338.223c-3.463 0-6.246 2.811-6.246 6.27v44.862c0 3.594-2.936 6.479-6.482 6.479h-20.365c-3.561 0-6.48-2.887-6.48-6.479v-44.862c0-3.459-2.809-6.27-6.266-6.27h-1.971c-3.508 0-6.268 2.767-6.268 6.27v46.562c0 10.839 8.523 18.701 20.275 18.701h21.777c11.736 0 20.258-7.86 20.258-18.701v-46.562c0-3.503-2.746-6.27-6.252-6.27H616.089zM655.076 338.223c-11.695 0-18.148 9.894-18.148 16.732v8.781c0 10.072 8.246 16.313 15.879 16.313h26.781c3.381 0 4.092 2.208 4.092 4.072v5.666c0 .604-.123 6.045-4.092 6.045h-36.555c-3.611 0-6.254 2.526-6.254 5.981v1.565c0 3.446 2.641 5.956 6.254 5.956h38.539c10.072 0 16.6-7.007 16.6-17.859v-9.475c0-10.191-7.344-14.748-14.615-14.748h-26.359c-3.98 0-5.77-2.978-5.77-5.08v-5.23c0-3.295 2.201-5.204 6.049-5.204h29.197c3.568 0 6.252-2.569 6.252-5.969v-1.564c0-3.41-2.734-5.984-6.406-5.984L655.076 338.223 655.076 338.223zM716.664 338.223c-3.469 0-6.096 2.574-6.096 5.984v59.174c0 3.396 2.564 5.954 5.961 5.954h47.152c3.633 0 6.258-2.51 6.258-5.954v-1.565c0-3.456-2.625-5.983-6.258-5.983h-38.619v-15.064h28.303c3.621 0 6.252-2.542 6.252-5.984v-1.562c0-3.459-2.631-5.972-6.252-5.972h-28.303v-15.514h36.658c3.621 0 6.256-2.494 6.256-5.971v-1.563c0-3.46-2.635-5.983-6.256-5.983h-45.059v.005H716.664zM315.829 366.368c-5.909 0-10.718 4.598-10.718 10.268v22.311c0 5.759 4.653 10.449 10.36 10.449h14.431c5.707 0 10.36-4.69 10.36-10.449v-22.311c0-5.666-4.812-10.268-10.72-10.268H315.829zM312.708 398.062v-20.375c0-2.388 1.963-4.34 4.36-4.34h11.245c2.346 0 4.346 1.996 4.346 4.34v20.375c0 2.401-1.948 4.357-4.346 4.357h-11.329C314.58 402.419 312.708 400.506 312.708 398.062M372.933 366.11c-4.161 0-7.297 1.486-9.815 2.704-1.536.736-2.862 1.372-3.894 1.372-.466 0-.866-.211-1.077-.558l-.96-1.834c-.239-.482-1.201-1.429-2.391-1.429h-1.428c-1.371 0-2.468 1.231-2.468 2.735v56.589c0 1.775 1.4 3.173 3.173 3.173h1.233c1.759 0 3.188-1.415 3.188-3.173v-18.776c0-.558.359-1.158.729-1.158 1.031 0 2.357.604 3.894 1.309 2.519 1.158 5.655 2.584 9.815 2.584h1.333c7.367 0 11.951-4.211 11.951-10.975v-21.602c0-6.661-4.682-10.961-11.951-10.961L372.933 366.11 372.933 366.11 372.933 366.11zM358.496 397.625v-19.486c0-2.692 2.104-4.794 4.793-4.794h10.539c2.694 0 4.794 2.104 4.794 4.794v19.486c0 2.646-2.155 4.792-4.794 4.792h-10.539C360.65 402.417 358.496 400.271 358.496 397.625zM407.565 366.366c-5.909 0-10.705 4.6-10.705 10.268v22.145c0 5.745 4.661 10.615 10.162 10.615h14.891c1.842 0 3.172-1.274 3.172-3.01v-.975c0-1.744-1.33-2.994-3.172-2.994h-12.233c-3.429 0-5.235-1.683-5.235-4.889v-6.479h22.066c3.551 0 5.648-2.165 5.648-5.831v-8.586c0-5.669-4.805-10.271-10.689-10.271h-13.904L407.565 366.366 407.565 366.366zM404.446 377.613c0-2.392 1.88-4.27 4.274-4.27h11.593c2.389 0 4.252 1.878 4.252 4.27v6.914h-20.122C404.446 383.624 404.446 377.613 404.446 377.613zM462.816 366.11c-4.148 0-7.277 1.486-9.803 2.69-1.572.738-2.916 1.386-4.014 1.386-.479 0-.678-.062-1.051-.71l-.873-1.594c-.5-1.008-1.352-1.515-2.502-1.515h-1.227c-1.482 0-2.562 1.154-2.562 2.733v37.118c0 1.758 1.391 3.173 3.18 3.173h1.227c1.758 0 3.193-1.431 3.193-3.173v-28.082c0-2.63 2.148-4.794 4.781-4.794h10.543c2.641 0 4.789 2.164 4.789 4.794v28.082c0 1.758 1.398 3.173 3.17 3.173h1.24c1.76 0 3.189-1.431 3.189-3.173V377.07c0-6.661-4.684-10.961-11.957-10.961L462.816 366.11 462.816 366.11zM780.447 395.002c3.211 0 5.771 2.612 5.771 5.88 0 3.314-2.562 5.897-5.799 5.897-3.211 0-5.818-2.583-5.818-5.897 0-3.266 2.607-5.88 5.818-5.88H780.447zM780.419 395.915c-2.584 0-4.697 2.223-4.697 4.963 0 2.796 2.113 4.987 4.725 4.987 2.611.028 4.701-2.191 4.701-4.962 0-2.767-2.09-4.988-4.701-4.988H780.419zM779.324 404.299h-1.045v-6.552c.551-.08 1.072-.158 1.857-.158.99 0 1.643.205 2.031.495.395.284.605.728.605 1.358 0 .86-.576 1.379-1.277 1.592v.055c.574.104.963.625 1.098 1.593.152 1.021.309 1.412.416 1.619h-1.098c-.16-.207-.314-.81-.445-1.671-.156-.834-.572-1.148-1.406-1.148h-.732v2.817H779.324zM779.324 400.667h.758c.863 0 1.594-.312 1.594-1.122 0-.575-.418-1.15-1.594-1.15-.342 0-.574.024-.758.057V400.667z"/>
    <path fill="none" d="M249.065 52.623H833.065V477.868H249.065z"/>
    <text transform="translate(298.397 478.34)" fill="#72BA44" font-family="'OpenSans'" font-size="65">
        Conference
    </text>
    <text transform="translate(305.111 520.113)" fill="#72BA44" font-family="'OpenSans'" font-size="28">
        Nuremberg, Germany
    </text>
</svg>
