<?xml version="1.0" encoding="utf-8"?>
<!-- Generator: Adobe Illustrator 14.0.0, SVG Export Plug-In . SVG Version: 6.00 Build 43363)  -->
<!DOCTYPE svg PUBLIC "-//W3C//DTD SVG 1.1//EN" "http://www.w3.org/Graphics/SVG/1.1/DTD/svg11.dtd">
<svg version="1.1" xmlns="http://www.w3.org/2000/svg" xmlns:xlink="http://www.w3.org/1999/xlink" x="0px" y="0px"
	 width="841.89px" height="595.281px" viewBox="0 0 841.89 595.281" enable-background="new 0 0 841.89 595.281"
	 xml:space="preserve">
<g id="Layer_1">
	<g id="Dark_Green_Hex">
		<polygon fill="#6CA743" points="141.053,435.644 87.642,343.134 141.053,250.623 247.875,250.623 301.286,343.134 
			247.875,435.644 		"/>
	</g>
	<g id="Blue_Hex">
		<polygon fill="#35B8AA" points="142.053,237.645 88.642,145.134 142.053,52.623 248.875,52.623 302.286,145.134 248.875,237.645 
					"/>
	</g>
	<g id="Green_Hex">
		<polyline fill="#72BA44" points="288.152,194.288 311.053,154.623 417.875,154.623 471.287,247.134 417.875,339.645 
			311.053,339.645 257.642,247.134 288.152,194.288 		"/>
	</g>
	<path fill="#FFFFFF" d="M385.976,219.585c-4.533-0.164-8.825,1.437-12.108,4.516c-3.283,3.079-5.219,7.249-5.357,11.766
		c-0.312,9.332,6.992,17.183,16.304,17.526c4.529,0.135,8.843-1.465,12.145-4.544c3.298-3.092,5.194-7.264,5.339-11.765
		C402.608,227.756,395.308,219.916,385.976,219.585z M388.737,238.072c-4.147,0-7.493-2.244-7.493-4.994
		c0-2.776,3.346-5.009,7.493-5.009s7.507,2.233,7.507,5.009C396.242,235.828,392.885,238.072,388.737,238.072z"/>
	<path fill="#FFFFFF" d="M428.505,257.65c-0.932-5.856-9.659-34.245-16.257-41.072c-1.819-1.86-3.276-3.693-6.223-5.419
		c-23.884-13.914-80.537-22.312-83.191-22.698l-0.45,0.126l-0.171,0.41c0,0-0.219,11.739-0.253,13.051
		c-3.562-1.197-12.896-3.799-34.345-9.244c-15.51,27.056-15.51,27.221-31.349,54.113c0,0,0.165,0.165,11.88,21.12
		c6.599,11.713,13.196,21.779,16.829,28.048c5.762,10.7,8.084,14.848,14.188,24.749c-1.32-1.816-0.33-1.65,0.441-8.404
		c1.76-15.424,15.662-14.816,33.601-12.793c5.854,0.687,12.518,1.449,19.418,1.604c19.272,0.122,40.027-3.438,52.818-9.034
		c8.275-3.595,13.561-5.99,16.869-9c1.189-0.985,1.805-2.586,2.447-4.309l0.453-1.137c0.535-1.396,1.322-4.338,1.666-5.953
		c0.139-0.709,0.221-1.461-0.287-1.858l-1.77,0.327c-5.616,3.381-19.66,9.783-32.787,10.058
		c-16.301,0.329-49.115-16.392-52.537-18.169l-0.331-0.382c-0.804-1.971-5.731-13.614-6.784-16.075
		c23.629,15.568,43.225,24.173,58.228,25.5c16.702,1.49,29.721-7.625,35.279-11.522h-0.002c1.104-0.727,1.91-1.329,2.25-1.463
		L428.505,257.65z M409.566,237.537c-0.254,6.472-2.961,12.477-7.683,16.868c-4.733,4.447-10.896,6.73-17.401,6.512
		c-13.34-0.49-23.82-11.738-23.375-25.089c0.24-6.472,2.949-12.479,7.682-16.883c4.734-4.422,10.91-6.704,17.389-6.499
		C399.533,212.923,410.026,224.196,409.566,237.537z"/>
	<g id="_x31_9">
		<text transform="matrix(0.9662 0 0 1 112.665 395.9893)" fill="#FFFFFF" font-family="'OpenSans-Bold'" font-size="138.684">19</text>
	</g>
	<g id="openSUSE" display="none">
		<path display="inline" fill="#72BA44" d="M500.144,344.212c-11.701,0-18.139,9.896-18.139,16.734v8.778
			c0,10.072,8.23,16.314,15.859,16.314h26.791c3.375,0,4.082,2.207,4.082,4.072v5.666c0,0.604-0.121,6.045-4.082,6.045h-36.539
			c-3.631,0-6.254,2.524-6.254,5.979v1.566c0,3.447,2.623,5.957,6.254,5.957h38.521c10.072,0,16.568-7.008,16.568-17.861v-9.475
			c0-10.191-7.32-14.748-14.592-14.748h-26.363c-3.967,0-5.766-2.978-5.766-5.08v-5.23c0-3.295,2.201-5.202,6.053-5.202h29.18
			c3.576,0,6.271-2.57,6.271-5.97v-1.563c0-3.41-2.736-5.984-6.395-5.984L500.144,344.212L500.144,344.212z"/>
		<path display="inline" fill="#72BA44" d="M609.691,344.212c-3.463,0-6.246,2.812-6.246,6.271v44.86c0,3.594-2.936,6.48-6.482,6.48
			h-20.365c-3.561,0-6.479-2.887-6.479-6.48v-44.86c0-3.459-2.811-6.271-6.268-6.271h-1.971c-3.508,0-6.268,2.769-6.268,6.271
			v46.561c0,10.838,8.523,18.701,20.275,18.701h21.777c11.736,0,20.258-7.861,20.258-18.701v-46.561
			c0-3.505-2.746-6.271-6.252-6.271H609.691z"/>
		<path display="inline" fill="#72BA44" d="M648.677,344.212c-11.695,0-18.148,9.896-18.148,16.734v8.778
			c0,10.072,8.246,16.314,15.879,16.314h26.781c3.381,0,4.092,2.207,4.092,4.072v5.666c0,0.604-0.123,6.045-4.092,6.045h-36.555
			c-3.611,0-6.254,2.524-6.254,5.979v1.566c0,3.447,2.641,5.957,6.254,5.957h38.539c10.072,0,16.6-7.008,16.6-17.861v-9.475
			c0-10.191-7.344-14.748-14.615-14.748h-26.359c-3.979,0-5.77-2.978-5.77-5.08v-5.23c0-3.295,2.201-5.202,6.049-5.202h29.197
			c3.568,0,6.252-2.57,6.252-5.97v-1.563c0-3.41-2.734-5.984-6.406-5.984L648.677,344.212L648.677,344.212z"/>
		<path display="inline" fill="#72BA44" d="M710.265,344.212c-3.469,0-6.096,2.574-6.096,5.986v59.174
			c0,3.395,2.564,5.953,5.961,5.953h47.152c3.633,0,6.258-2.51,6.258-5.953v-1.566c0-3.457-2.625-5.981-6.258-5.981h-38.619v-15.066
			h28.303c3.621,0,6.252-2.541,6.252-5.981v-1.564c0-3.459-2.631-5.971-6.252-5.971h-28.303v-15.515h36.658
			c3.617,0,6.256-2.493,6.256-5.971v-1.562c0-3.461-2.639-5.984-6.256-5.984h-45.061v0.004h0.004V344.212z"/>
		<path display="inline" fill="#72BA44" d="M309.431,372.359c-5.909,0-10.718,4.598-10.718,10.268v22.312
			c0,5.76,4.653,10.448,10.36,10.448h14.431c5.707,0,10.36-4.688,10.36-10.448v-22.312c0-5.666-4.812-10.268-10.719-10.268H309.431z
			 M306.31,404.052v-20.375c0-2.389,1.962-4.34,4.36-4.34h11.245c2.346,0,4.346,1.996,4.346,4.34v20.375
			c0,2.402-1.948,4.357-4.346,4.357h-11.329C308.182,408.41,306.31,406.498,306.31,404.052"/>
		<path display="inline" fill="#72BA44" d="M366.534,372.101c-4.161,0-7.297,1.486-9.815,2.703
			c-1.536,0.736-2.863,1.373-3.894,1.373c-0.466,0-0.866-0.211-1.077-0.559l-0.96-1.834c-0.239-0.482-1.201-1.428-2.391-1.428
			h-1.427c-1.371,0-2.468,1.229-2.468,2.733v56.59c0,1.775,1.4,3.172,3.173,3.172h1.233c1.759,0,3.189-1.414,3.189-3.172v-18.774
			c0-0.56,0.359-1.158,0.728-1.158c1.031,0,2.358,0.604,3.894,1.307c2.52,1.158,5.655,2.584,9.815,2.584h1.333
			c7.367,0,11.951-4.211,11.951-10.973v-21.602c0-6.662-4.681-10.964-11.951-10.964L366.534,372.101L366.534,372.101
			L366.534,372.101z M352.098,403.617v-19.488c0-2.691,2.104-4.793,4.793-4.793h10.539c2.694,0,4.794,2.104,4.794,4.793v19.488
			c0,2.645-2.156,4.791-4.794,4.791h-10.539C354.252,408.408,352.098,406.261,352.098,403.617z"/>
		<path display="inline" fill="#72BA44" d="M401.167,372.357c-5.909,0-10.705,4.6-10.705,10.268v22.145
			c0,5.744,4.661,10.615,10.162,10.615h14.891c1.841,0,3.173-1.272,3.173-3.01V411.4c0-1.744-1.332-2.994-3.173-2.994h-12.231
			c-3.43,0-5.235-1.685-5.235-4.89v-6.479h22.066c3.549,0,5.647-2.166,5.647-5.832v-8.586c0-5.67-4.803-10.271-10.688-10.271
			h-13.904L401.167,372.357L401.167,372.357z M398.048,383.603c0-2.391,1.88-4.27,4.274-4.27h11.593c2.389,0,4.252,1.879,4.252,4.27
			v6.914h-20.121C398.048,389.615,398.048,383.603,398.048,383.603z"/>
		<path display="inline" fill="#72BA44" d="M456.417,372.101c-4.148,0-7.277,1.486-9.803,2.689c-1.572,0.74-2.916,1.387-4.016,1.387
			c-0.479,0-0.678-0.062-1.051-0.711l-0.873-1.594c-0.5-1.008-1.352-1.514-2.502-1.514h-1.227c-1.482,0-2.562,1.153-2.562,2.731
			v37.119c0,1.758,1.393,3.172,3.18,3.172h1.229c1.758,0,3.193-1.43,3.193-3.172v-28.082c0-2.631,2.146-4.795,4.779-4.795h10.543
			c2.643,0,4.789,2.164,4.789,4.795v28.082c0,1.758,1.398,3.172,3.17,3.172h1.24c1.76,0,3.189-1.43,3.189-3.172v-29.15
			c0-6.659-4.684-10.961-11.957-10.961h-1.324v0.003H456.417z"/>
		<path display="inline" fill="#72BA44" d="M774.048,400.994c3.211,0,5.771,2.611,5.771,5.879c0,3.313-2.562,5.896-5.801,5.896
			c-3.211,0-5.816-2.582-5.816-5.896c0-3.266,2.605-5.879,5.816-5.879H774.048z M774.021,401.906c-2.584,0-4.697,2.223-4.697,4.963
			c0,2.797,2.113,4.988,4.725,4.988c2.611,0.026,4.701-2.191,4.701-4.964c0-2.768-2.09-4.987-4.701-4.987H774.021z M772.925,410.291
			h-1.045v-6.553c0.551-0.08,1.072-0.158,1.857-0.158c0.988,0,1.643,0.205,2.029,0.496c0.396,0.283,0.605,0.727,0.605,1.356
			c0,0.859-0.576,1.379-1.277,1.593v0.055c0.574,0.104,0.963,0.625,1.1,1.592c0.15,1.021,0.309,1.412,0.416,1.619h-1.1
			c-0.16-0.207-0.312-0.809-0.443-1.67c-0.156-0.834-0.572-1.148-1.406-1.148h-0.732v2.818H772.925L772.925,410.291z
			 M772.925,406.658h0.758c0.863,0,1.594-0.312,1.594-1.121c0-0.576-0.42-1.152-1.594-1.152c-0.342,0-0.574,0.025-0.758,0.06
			V406.658z"/>
		<rect x="242.667" y="58.614" display="inline" fill="none" width="584" height="425.245"/>
	</g>
	<g id="Conference" display="none">
		
			<text transform="matrix(0.4923 0 0 1 28.0625 577.3164)" display="inline" fill="#72BA44" font-family="'OpenSans'" font-size="231.8843">Conference</text>
	</g>
	<g id="Prague" display="none">
		
			<text transform="matrix(0.4923 0 0 1 33.916 698.6074)" display="inline" fill="#72BA44" font-family="'OpenSans'" font-size="99.8886">Nuremberg, Germany</text>
	</g>
	<g id="Bridge">
		<path fill="#FFFFFF" d="M279.387,144.166"/>
		<line fill="none" x1="591.355" y1="196.452" x2="591.46" y2="197.305"/>
	</g>
</g>
<g id="Layer_2">
	<path fill="#26A2DC" d="M178.541,104.739c-0.051,1.837-0.718,3.765-0.803,4c-0.097,0.269-0.176,0.963-0.176,1.542
		c0,1.026-0.033,1.055-1.165,1.055c-1.121,0-1.157,0.03-0.974,0.849c0.599,2.689,1.62,4.163,3.513,5.071l1.23,0.59
		c0,0-0.775,57.858-0.996,65.929l-0.204,9.845h6.087c0,0-0.988-75.803-0.093-76.118c1.428-0.502,2.859-2.126,3.419-3.877
		c0.684-2.141,0.639-2.289-0.688-2.289h-1.158c0,0-0.082-2.97-0.177-5.575c-0.028-0.749-0.46-1.406-0.489-2.017
		c-0.011-0.254,0.618-0.466,0.607-0.678c-0.027-0.49-0.091-0.879-0.113-1.029c-0.086-0.542-0.444-1.272-0.551-1.559
		c-0.158-0.425-0.521-1.77-1.317-3.26l-0.866-1.62l-0.215-0.925c0,0-0.931-24.534-0.931-26.121c0-1.987-1.682,25.975-1.708,26.042
		c-0.016,0.043-0.317,1.107-0.374,1.235c-0.378,0.85-0.841,1.733-1.177,2.582c-0.598,1.511-1.152,2.899-1.42,3.803
		c-0.12,0.409-0.103,0.731-0.144,0.9C177.531,103.664,178.578,103.443,178.541,104.739z M183.931,103.004 M185.766,101.48
		c0.103,0.31,0.145,0.586,0.189,0.823c0.043,0.222,0.066,0.561,0.066,0.726c0,0.094-0.308-0.024-0.607-0.024
		c-0.376,0-0.598-0.295-0.724-0.964c-0.281-1.497-0.216-2.122,0.219-2.122C185.107,99.918,185.501,100.686,185.766,101.48z
		 M183.508,96.524c0.179,0,1.288,1.923,1.29,2.237c0.002,0.463-0.601,0.217-0.756-0.309c-0.087-0.297-0.275-0.852-0.419-1.234
		C183.481,96.837,183.429,96.524,183.508,96.524z M179.891,97.728c0.363-0.755,0.604-1.119,0.696-1.097
		c0.093,0.022,0.038,0.432-0.188,1.22c-0.181,0.628-0.504,1.142-0.719,1.142C179.385,98.993,179.438,98.679,179.891,97.728z
		 M178.316,102.842c0.036-0.207,0.151-0.986,0.247-1.382c0.235-0.991,0.511-1.422,0.869-1.495c1.435,0.002,0.042-0.03,0.107-0.022
		c0.192,0.023,0.35,0.197,0.24,0.639c0.441,0.178,0.149-2.11,0.146-1.642c-0.003,0.546-0.147,2.907-0.549,3.81
		c-0.104,0.236-0.364,0.253-0.481,0.254C178.549,103.006,178.223,103.39,178.316,102.842z"/>
	<path fill="#26A2DC" d="M178.789,103.676c-1.14,1.582-1.862,3.917-1.862,6.526c0,4.763,2.407,8.625,5.378,8.625
		c2.971,0,5.379-3.862,5.379-8.625c0-2.608-0.722-4.944-1.863-6.526H178.789z"/>
	<path fill="#26A2DC" d="M189.553,110.441c0,4.45-3.294,8.058-7.358,8.058s-7.359-3.607-7.359-8.058
		C174.835,110.195,189.553,110.054,189.553,110.441z"/>
	<ellipse fill="#26A2DC" cx="182.552" cy="107.98" rx="8.193" ry="0.994"/>
	<ellipse fill="#26A2DC" cx="182.194" cy="103.744" rx="6.316" ry="0.994"/>
	<ellipse fill="#26A2DC" cx="181.826" cy="98.94" rx="4.899" ry="0.479"/>
	<polygon fill="#26A2DC" points="217.92,181.788 237.146,158.111 257.176,182.182 257.327,223.006 256.032,225.249 217.92,225.249 	
		"/>
	<polygon fill="#173F4F" points="240.905,149.847 236.976,146.739 233.523,150.11 233.523,177.971 240.905,177.971 	"/>
	<polygon fill="#26A2DC" points="240.905,153.52 240.905,150.412 236.976,150.412 233.523,150.412 233.523,153.782 233.523,181.643 
		240.905,181.643 	"/>
	<polygon fill="#26A2DC" points="218.431,181.007 218.009,174.716 217.636,180.841 217.636,231.471 218.431,231.471 	"/>
	<polygon fill="#26A2DC" points="221.543,176.018 221.121,172.556 220.75,175.927 220.75,203.789 221.543,203.789 	"/>
	<ellipse fill="#26A2DC" cx="221.146" cy="172.667" rx="0.397" ry="0.411"/>
	<polygon fill="#26A2DC" points="224.116,174.379 223.693,170.918 223.322,174.289 223.322,202.15 224.116,202.15 	"/>
	<ellipse fill="#26A2DC" cx="223.719" cy="171.029" rx="0.397" ry="0.41"/>
	<polygon fill="#26A2DC" points="226.656,171.683 226.234,168.223 225.863,171.593 225.863,199.455 226.656,199.455 	"/>
	<ellipse fill="#26A2DC" cx="226.26" cy="168.333" rx="0.396" ry="0.411"/>
	<polygon fill="#26A2DC" points="229.149,167.167 228.726,163.706 228.355,167.077 228.355,194.938 229.149,194.938 	"/>
	<ellipse fill="#26A2DC" cx="228.752" cy="163.817" rx="0.397" ry="0.411"/>
	<polygon fill="#26A2DC" points="231.547,165.47 231.125,162.008 230.753,165.379 230.753,193.24 231.547,193.24 	"/>
	<ellipse fill="#26A2DC" cx="231.15" cy="162.119" rx="0.397" ry="0.412"/>
	<polygon fill="#26A2DC" points="243.267,165.466 242.844,162.004 242.473,165.375 242.473,193.235 243.267,193.235 	"/>
	<ellipse fill="#26A2DC" cx="242.87" cy="162.116" rx="0.397" ry="0.41"/>
	<polygon fill="#26A2DC" points="245.936,167.579 245.512,164.117 245.141,167.487 245.141,195.349 245.936,195.349 	"/>
	<ellipse fill="#26A2DC" cx="245.538" cy="164.228" rx="0.397" ry="0.411"/>
	<polygon fill="#26A2DC" points="249.175,171.683 248.752,168.223 248.38,171.593 248.38,199.455 249.175,199.455 	"/>
	<ellipse fill="#26A2DC" cx="248.778" cy="168.333" rx="0.397" ry="0.411"/>
	<polygon fill="#26A2DC" points="252.081,174.396 251.658,170.935 251.287,174.306 251.287,202.167 252.081,202.167 	"/>
	<ellipse fill="#26A2DC" cx="251.684" cy="171.046" rx="0.397" ry="0.411"/>
	<polygon fill="#26A2DC" points="254.701,176.429 254.279,172.967 253.907,176.339 253.907,204.199 254.701,204.199 	"/>
	<ellipse fill="#26A2DC" cx="254.304" cy="173.078" rx="0.397" ry="0.411"/>
	<polygon fill="#26A2DC" points="257.327,223.006 257.327,180.661 256.905,174.372 256.533,180.496 256.533,224.381 	"/>
	<rect x="219.241" y="188.173" fill="#73AB43" width="4.716" height="37.859"/>
	<ellipse fill="#73AB43" cx="221.599" cy="187.701" rx="2.358" ry="4.589"/>
	<rect x="250.691" y="188.129" fill="#73AB43" width="4.716" height="37.858"/>
	<ellipse fill="#73AB43" cx="253.049" cy="187.657" rx="2.358" ry="4.59"/>
	<rect x="231.582" y="183.412" fill="#73AB43" width="11.56" height="43.342"/>
	<ellipse fill="#73AB43" cx="237.361" cy="183.317" rx="5.78" ry="7.511"/>
	<path fill="#173F4F" d="M247.947,226.426c0.052-0.679,0.084-1.368,0.084-2.07c0-9.385-4.763-16.995-10.638-16.995
		c-5.876,0-10.638,7.61-10.638,16.995c0,0.702,0.031,1.392,0.083,2.07H247.947z"/>
	<ellipse fill="#FFFFFF" cx="237.378" cy="169.658" rx="2.454" ry="2.54"/>
	<rect x="160.236" y="191.462" fill="#72B944" width="56.762" height="33.452"/>
	<polygon fill="#72B944" points="177.026,179.421 168.915,165.333 160.236,180.079 160.236,191.856 177.026,191.856 	"/>
	<polygon fill="#26A2DC" points="158.499,177.837 133.269,177.837 133.269,222.432 135.462,226.228 158.499,226.226 	"/>
	<polygon fill="#173F4F" points="256.032,225.249 248.875,237.645 142.053,237.645 135.462,226.228 134.668,224.854 
		256.259,224.854 	"/>
	<polygon fill="#26A2DC" points="158.499,176.47 160.945,174.425 160.945,164.482 130.701,164.482 130.522,174.472 132.678,176.47 
		133.269,180.271 158.499,179.022 	"/>
	<polygon fill="#26A2DC" points="130.522,164.53 130.522,174.472 160.766,174.472 160.945,164.482 158.375,159.163 156.307,163.774 
		145.921,149.653 135.494,163.839 132.966,159.163 	"/>
	<path fill="#FFFFFF" d="M186.754,241.835c0.165,0.161,0.333,0.317,0.501,0.473c0.52-0.056,1.042-0.105,1.567-0.149
		C188.13,242.07,187.441,241.964,186.754,241.835z"/>
	<path fill="#173F4F" d="M215.401,224.914c-2.029-8.079-9.733-14.094-18.933-14.094c-9.2,0-16.898,6.016-18.927,14.094H215.401z"/>
	<rect x="189.143" y="185.983" fill="#173F4F" width="27.855" height="4.121"/>
	<rect x="189.143" y="183.11" fill="#173F4F" width="27.855" height="3.395"/>
	<rect x="189.143" y="136.276" fill="#173F4F" width="27.855" height="3.394"/>
	<rect x="189.143" y="140.431" fill="#173F4F" width="27.855" height="3.395"/>
	<rect x="189.143" y="144.538" fill="#173F4F" width="27.855" height="3.394"/>
	<rect x="189.143" y="148.641" fill="#173F4F" width="27.855" height="3.394"/>
	<rect x="189.143" y="151.861" fill="#173F4F" width="27.855" height="3.394"/>
	<rect x="189.143" y="155.831" fill="#173F4F" width="27.855" height="3.393"/>
	<rect x="189.143" y="160.012" fill="#173F4F" width="27.855" height="3.394"/>
	<rect x="189.143" y="163.94" fill="#173F4F" width="27.855" height="3.393"/>
	<rect x="189.143" y="167.923" fill="#173F4F" width="27.855" height="3.394"/>
	<rect x="189.143" y="171.139" fill="#173F4F" width="27.855" height="3.395"/>
	<rect x="189.143" y="175.142" fill="#173F4F" width="27.855" height="3.396"/>
	<rect x="189.143" y="179.273" fill="#173F4F" width="27.855" height="3.394"/>
	<rect x="196.272" y="131.439" fill="#173F4F" width="20.726" height="5.51"/>
	<path fill="#FFFFFF" d="M132.693,169.79c0,0.358-0.281,0.649-0.627,0.649l0,0c-0.347,0-0.627-0.291-0.627-0.649v-1.334
		c0-0.359,0.28-0.65,0.627-0.65l0,0c0.347,0,0.627,0.291,0.627,0.65V169.79z"/>
	<path fill="#FFFFFF" d="M135.473,169.79c0,0.358-0.281,0.649-0.628,0.649l0,0c-0.347,0-0.628-0.291-0.628-0.649v-1.334
		c0-0.359,0.282-0.65,0.628-0.65l0,0c0.347,0,0.628,0.291,0.628,0.65V169.79z"/>
	<path fill="#FFFFFF" d="M138.007,169.79c0,0.358-0.281,0.649-0.628,0.649l0,0c-0.347,0-0.628-0.291-0.628-0.649v-1.334
		c0-0.359,0.281-0.65,0.628-0.65l0,0c0.347,0,0.628,0.291,0.628,0.65V169.79z"/>
	<path fill="#FFFFFF" d="M141.048,169.79c0,0.358-0.281,0.649-0.627,0.649l0,0c-0.347,0-0.629-0.291-0.629-0.649v-1.334
		c0-0.359,0.282-0.65,0.629-0.65l0,0c0.346,0,0.627,0.291,0.627,0.65V169.79z"/>
	<path fill="#FFFFFF" d="M146.361,169.79c0,0.358-0.281,0.649-0.628,0.649l0,0c-0.346,0-0.627-0.291-0.627-0.649v-1.334
		c0-0.359,0.281-0.65,0.627-0.65l0,0c0.347,0,0.628,0.291,0.628,0.65V169.79z"/>
	<path fill="#FFFFFF" d="M151.982,169.79c0,0.358-0.281,0.649-0.628,0.649l0,0c-0.346,0-0.628-0.291-0.628-0.649v-1.334
		c0-0.359,0.282-0.65,0.628-0.65l0,0c0.347,0,0.628,0.291,0.628,0.65V169.79z"/>
	<path fill="#FFFFFF" d="M154.141,169.79c0,0.358-0.281,0.649-0.627,0.649l0,0c-0.347,0-0.628-0.291-0.628-0.649v-1.334
		c0-0.359,0.282-0.65,0.628-0.65l0,0c0.346,0,0.627,0.291,0.627,0.65V169.79z"/>
	<path fill="#FFFFFF" d="M156.428,169.79c0,0.358-0.281,0.649-0.627,0.649l0,0c-0.347,0-0.628-0.291-0.628-0.649v-1.334
		c0-0.359,0.282-0.65,0.628-0.65l0,0c0.347,0,0.627,0.291,0.627,0.65V169.79z"/>
	<path fill="#FFFFFF" d="M159.28,169.818c0,0.359-0.282,0.649-0.628,0.649l0,0c-0.347,0-0.628-0.29-0.628-0.649v-1.334
		c0-0.36,0.281-0.65,0.628-0.65l0,0c0.346,0,0.628,0.291,0.628,0.65V169.818z"/>
	<path fill="#FFFFFF" d="M143.592,169.818c0,0.359-0.28,0.649-0.627,0.649l0,0c-0.346,0-0.628-0.29-0.628-0.649v-1.334
		c0-0.36,0.282-0.65,0.628-0.65l0,0c0.347,0,0.627,0.291,0.627,0.65V169.818z"/>
	<path fill="#FFFFFF" d="M146.126,169.818c0,0.359-0.281,0.649-0.628,0.649l0,0c-0.347,0-0.628-0.29-0.628-0.649v-1.334
		c0-0.36,0.282-0.65,0.628-0.65l0,0c0.348,0,0.628,0.291,0.628,0.65V169.818z"/>
	<path fill="#FFFFFF" d="M149.167,169.818c0,0.359-0.281,0.649-0.628,0.649l0,0c-0.346,0-0.628-0.29-0.628-0.649v-1.334
		c0-0.36,0.282-0.65,0.628-0.65l0,0c0.347,0,0.628,0.291,0.628,0.65V169.818z"/>
	<path fill="#FFFFFF" d="M135.787,179.927c0,0.358-0.281,0.649-0.626,0.649l0,0c-0.347,0-0.628-0.291-0.628-0.649v-1.334
		c0-0.359,0.281-0.649,0.628-0.649l0,0c0.346,0,0.626,0.29,0.626,0.649V179.927z"/>
	<path fill="#FFFFFF" d="M138.568,179.927c0,0.358-0.281,0.649-0.628,0.649l0,0c-0.348,0-0.628-0.291-0.628-0.649v-1.334
		c0-0.359,0.28-0.649,0.628-0.649l0,0c0.347,0,0.628,0.29,0.628,0.649V179.927z"/>
	<path fill="#FFFFFF" d="M141.102,179.927c0,0.358-0.281,0.649-0.628,0.649l0,0c-0.347,0-0.628-0.291-0.628-0.649v-1.334
		c0-0.359,0.281-0.649,0.628-0.649l0,0c0.347,0,0.628,0.29,0.628,0.649V179.927z"/>
	<path fill="#FFFFFF" d="M144.143,179.927c0,0.358-0.28,0.649-0.628,0.649l0,0c-0.346,0-0.626-0.291-0.626-0.649v-1.334
		c0-0.359,0.28-0.649,0.626-0.649l0,0c0.348,0,0.628,0.29,0.628,0.649V179.927z"/>
	<path fill="#FFFFFF" d="M155.076,179.927c0,0.358-0.281,0.649-0.628,0.649l0,0c-0.347,0-0.629-0.291-0.629-0.649v-1.334
		c0-0.359,0.282-0.649,0.629-0.649l0,0c0.347,0,0.628,0.29,0.628,0.649V179.927z"/>
	<path fill="#FFFFFF" d="M157.235,179.927c0,0.358-0.281,0.649-0.627,0.649l0,0c-0.347,0-0.628-0.291-0.628-0.649v-1.334
		c0-0.359,0.281-0.649,0.628-0.649l0,0c0.347,0,0.627,0.29,0.627,0.649V179.927z"/>
	<path fill="#FFFFFF" d="M146.687,179.955c0,0.359-0.281,0.649-0.628,0.649l0,0c-0.347,0-0.628-0.291-0.628-0.649v-1.335
		c0-0.358,0.281-0.649,0.628-0.649l0,0c0.347,0,0.628,0.291,0.628,0.649V179.955z"/>
	<path fill="#FFFFFF" d="M149.221,179.955c0,0.359-0.282,0.649-0.628,0.649l0,0c-0.346,0-0.627-0.291-0.627-0.649v-1.335
		c0-0.358,0.282-0.649,0.627-0.649l0,0c0.347,0,0.628,0.291,0.628,0.649V179.955z"/>
	<path fill="#FFFFFF" d="M152.262,179.955c0,0.359-0.281,0.649-0.628,0.649l0,0c-0.346,0-0.627-0.291-0.627-0.649v-1.335
		c0-0.358,0.281-0.649,0.627-0.649l0,0c0.348,0,0.628,0.291,0.628,0.649V179.955z"/>
	<path fill="#FFFFFF" d="M135.787,184.762c0,0.36-0.281,0.65-0.626,0.65l0,0c-0.347,0-0.628-0.291-0.628-0.65v-1.334
		c0-0.359,0.281-0.649,0.628-0.649l0,0c0.346,0,0.626,0.29,0.626,0.649V184.762z"/>
	<path fill="#FFFFFF" d="M138.568,184.762c0,0.36-0.281,0.65-0.627,0.65l0,0c-0.347,0-0.628-0.291-0.628-0.65v-1.334
		c0-0.359,0.282-0.649,0.628-0.649l0,0c0.347,0,0.627,0.29,0.627,0.649V184.762z"/>
	<path fill="#FFFFFF" d="M141.102,184.762c0,0.36-0.281,0.65-0.628,0.65l0,0c-0.347,0-0.628-0.291-0.628-0.65v-1.334
		c0-0.359,0.281-0.649,0.628-0.649l0,0c0.347,0,0.628,0.29,0.628,0.649V184.762z"/>
	<path fill="#FFFFFF" d="M144.144,184.762c0,0.36-0.281,0.65-0.629,0.65l0,0c-0.346,0-0.626-0.291-0.626-0.65v-1.334
		c0-0.359,0.28-0.649,0.626-0.649l0,0c0.348,0,0.629,0.29,0.629,0.649V184.762z"/>
	<path fill="#FFFFFF" d="M155.076,184.762c0,0.36-0.28,0.65-0.628,0.65l0,0c-0.347,0-0.628-0.291-0.628-0.65v-1.334
		c0-0.359,0.281-0.649,0.628-0.649l0,0c0.348,0,0.628,0.29,0.628,0.649V184.762z"/>
	<path fill="#FFFFFF" d="M157.235,184.762c0,0.36-0.281,0.65-0.627,0.65l0,0c-0.347,0-0.628-0.291-0.628-0.65v-1.334
		c0-0.359,0.281-0.649,0.628-0.649l0,0c0.346,0,0.627,0.29,0.627,0.649V184.762z"/>
	<path fill="#FFFFFF" d="M146.687,184.79c0,0.359-0.281,0.65-0.628,0.65l0,0c-0.346,0-0.628-0.292-0.628-0.65v-1.334
		c0-0.359,0.282-0.649,0.628-0.649l0,0c0.347,0,0.628,0.291,0.628,0.649V184.79z"/>
	<path fill="#FFFFFF" d="M149.221,184.79c0,0.359-0.282,0.65-0.628,0.65l0,0c-0.346,0-0.628-0.292-0.628-0.65v-1.334
		c0-0.359,0.282-0.649,0.628-0.649l0,0c0.346,0,0.628,0.291,0.628,0.649V184.79z"/>
	<path fill="#FFFFFF" d="M152.263,184.79c0,0.359-0.281,0.65-0.629,0.65l0,0c-0.346,0-0.627-0.292-0.627-0.65v-1.334
		c0-0.359,0.281-0.649,0.627-0.649l0,0c0.348,0,0.629,0.291,0.629,0.649V184.79z"/>
	<path fill="#FFFFFF" d="M135.963,196.328c0,0.36-0.282,0.651-0.628,0.651l0,0c-0.347,0-0.627-0.291-0.627-0.651v-1.333
		c0-0.358,0.281-0.65,0.627-0.65l0,0c0.347,0,0.628,0.292,0.628,0.65V196.328z"/>
	<path fill="#FFFFFF" d="M138.743,196.328c0,0.36-0.28,0.651-0.627,0.651l0,0c-0.347,0-0.629-0.291-0.629-0.651v-1.333
		c0-0.358,0.282-0.65,0.629-0.65l0,0c0.347,0,0.627,0.292,0.627,0.65V196.328z"/>
	<path fill="#FFFFFF" d="M141.277,196.328c0,0.36-0.28,0.651-0.628,0.651l0,0c-0.348,0-0.628-0.291-0.628-0.651v-1.333
		c0-0.358,0.281-0.65,0.628-0.65l0,0c0.348,0,0.628,0.292,0.628,0.65V196.328z"/>
	<path fill="#FFFFFF" d="M144.318,196.328c0,0.36-0.281,0.651-0.628,0.651l0,0c-0.347,0-0.628-0.291-0.628-0.651v-1.333
		c0-0.358,0.281-0.65,0.628-0.65l0,0c0.347,0,0.628,0.292,0.628,0.65V196.328z"/>
	<path fill="#FFFFFF" d="M155.251,196.328c0,0.36-0.281,0.651-0.628,0.651l0,0c-0.347,0-0.628-0.291-0.628-0.651v-1.333
		c0-0.358,0.281-0.65,0.628-0.65l0,0c0.347,0,0.628,0.292,0.628,0.65V196.328z"/>
	<path fill="#FFFFFF" d="M157.411,196.328c0,0.36-0.28,0.651-0.627,0.651l0,0c-0.347,0-0.628-0.291-0.628-0.651v-1.333
		c0-0.358,0.281-0.65,0.628-0.65l0,0c0.347,0,0.627,0.292,0.627,0.65V196.328z"/>
	<path fill="#FFFFFF" d="M146.862,196.356c0,0.359-0.281,0.649-0.628,0.649l0,0c-0.346,0-0.627-0.291-0.627-0.649v-1.333
		c0-0.359,0.281-0.651,0.627-0.651l0,0c0.347,0,0.628,0.292,0.628,0.651V196.356z"/>
	<path fill="#FFFFFF" d="M149.396,196.356c0,0.359-0.281,0.649-0.628,0.649l0,0c-0.347,0-0.627-0.291-0.627-0.649v-1.333
		c0-0.359,0.28-0.651,0.627-0.651l0,0c0.347,0,0.628,0.292,0.628,0.651V196.356z"/>
	<path fill="#FFFFFF" d="M152.438,196.356c0,0.359-0.282,0.649-0.628,0.649l0,0c-0.347,0-0.627-0.291-0.627-0.649v-1.333
		c0-0.359,0.281-0.651,0.627-0.651l0,0c0.347,0,0.628,0.292,0.628,0.651V196.356z"/>
	<path fill="#FFFFFF" d="M135.963,200.687c0,0.358-0.282,0.649-0.628,0.649l0,0c-0.347,0-0.627-0.291-0.627-0.649v-1.335
		c0-0.358,0.281-0.649,0.627-0.649l0,0c0.347,0,0.628,0.292,0.628,0.649V200.687z"/>
	<path fill="#FFFFFF" d="M138.743,200.687c0,0.358-0.28,0.649-0.627,0.649l0,0c-0.347,0-0.629-0.291-0.629-0.649v-1.335
		c0-0.358,0.282-0.649,0.629-0.649l0,0c0.347,0,0.627,0.292,0.627,0.649V200.687z"/>
	<path fill="#FFFFFF" d="M141.277,200.687c0,0.358-0.28,0.649-0.628,0.649l0,0c-0.348,0-0.628-0.291-0.628-0.649v-1.335
		c0-0.358,0.281-0.649,0.628-0.649l0,0c0.348,0,0.628,0.292,0.628,0.649V200.687z"/>
	<path fill="#FFFFFF" d="M144.318,200.687c0,0.358-0.281,0.649-0.628,0.649l0,0c-0.347,0-0.628-0.291-0.628-0.649v-1.335
		c0-0.358,0.281-0.649,0.628-0.649l0,0c0.347,0,0.628,0.292,0.628,0.649V200.687z"/>
	<path fill="#FFFFFF" d="M155.251,200.687c0,0.358-0.281,0.649-0.628,0.649l0,0c-0.347,0-0.628-0.291-0.628-0.649v-1.335
		c0-0.358,0.281-0.649,0.628-0.649l0,0c0.347,0,0.628,0.292,0.628,0.649V200.687z"/>
	<path fill="#FFFFFF" d="M157.411,200.687c0,0.358-0.28,0.649-0.627,0.649l0,0c-0.347,0-0.628-0.291-0.628-0.649v-1.335
		c0-0.358,0.281-0.649,0.628-0.649l0,0c0.347,0,0.627,0.292,0.627,0.649V200.687z"/>
	<path fill="#FFFFFF" d="M146.862,200.715c0,0.358-0.281,0.65-0.628,0.65l0,0c-0.346,0-0.627-0.292-0.627-0.65v-1.334
		c0-0.36,0.281-0.65,0.627-0.65l0,0c0.347,0,0.628,0.291,0.628,0.65V200.715z"/>
	<path fill="#FFFFFF" d="M149.396,200.715c0,0.358-0.281,0.65-0.628,0.65l0,0c-0.347,0-0.627-0.292-0.627-0.65v-1.334
		c0-0.36,0.28-0.65,0.627-0.65l0,0c0.347,0,0.628,0.291,0.628,0.65V200.715z"/>
	<path fill="#FFFFFF" d="M152.438,200.715c0,0.358-0.282,0.65-0.628,0.65l0,0c-0.347,0-0.627-0.292-0.627-0.65v-1.334
		c0-0.36,0.281-0.65,0.627-0.65l0,0c0.347,0,0.628,0.291,0.628,0.65V200.715z"/>
	<path fill="#35B9AB" d="M182.525,191.45v1.1c0,0.358,0.28,0.648,0.627,0.648c0.347,0,0.628-0.291,0.628-0.648v-1.1H182.525z"/>
	<path fill="#FFFFFF" d="M166.72,175.097c0,0.358-0.282,0.65-0.628,0.65l0,0c-0.347,0-0.628-0.292-0.628-0.65v-1.334
		c0-0.361,0.281-0.65,0.628-0.65l0,0c0.346,0,0.628,0.29,0.628,0.65V175.097z"/>
	<path fill="#FFFFFF" d="M169.264,175.124c0,0.359-0.281,0.65-0.628,0.65l0,0c-0.347,0-0.627-0.291-0.627-0.65v-1.334
		c0-0.359,0.281-0.65,0.627-0.65l0,0c0.347,0,0.628,0.291,0.628,0.65V175.124z"/>
	<path fill="#FFFFFF" d="M171.797,175.124c0,0.359-0.281,0.65-0.629,0.65l0,0c-0.345,0-0.627-0.291-0.627-0.65v-1.334
		c0-0.359,0.282-0.65,0.627-0.65l0,0c0.348,0,0.629,0.291,0.629,0.65V175.124z"/>
	<path fill="#FFFFFF" d="M162.2,182.414c0,0.359-0.281,0.65-0.628,0.65l0,0c-0.347,0-0.627-0.291-0.627-0.65v-1.334
		c0-0.358,0.281-0.649,0.627-0.649l0,0c0.347,0,0.628,0.291,0.628,0.649V182.414z"/>
	<path fill="#FFFFFF" d="M164.744,182.441c0,0.358-0.281,0.65-0.628,0.65l0,0c-0.346,0-0.627-0.292-0.627-0.65v-1.334
		c0-0.36,0.281-0.649,0.627-0.649l0,0c0.347,0,0.628,0.29,0.628,0.649V182.441z"/>
	<path fill="#FFFFFF" d="M167.278,182.441c0,0.358-0.282,0.65-0.629,0.65l0,0c-0.346,0-0.627-0.292-0.627-0.65v-1.334
		c0-0.36,0.281-0.649,0.627-0.649l0,0c0.347,0,0.629,0.29,0.629,0.649V182.441z"/>
	<path fill="#FFFFFF" d="M170.519,182.428c0,0.358-0.28,0.649-0.628,0.649l0,0c-0.346,0-0.627-0.291-0.627-0.649v-1.336
		c0-0.358,0.281-0.649,0.627-0.649l0,0c0.348,0,0.628,0.292,0.628,0.649V182.428z"/>
	<path fill="#FFFFFF" d="M173.063,182.456c0,0.357-0.281,0.649-0.628,0.649l0,0c-0.347,0-0.627-0.292-0.627-0.649v-1.335
		c0-0.359,0.281-0.65,0.627-0.65l0,0c0.348,0,0.628,0.291,0.628,0.65V182.456z"/>
	<path fill="#FFFFFF" d="M175.597,182.456c0,0.357-0.281,0.649-0.628,0.649l0,0c-0.347,0-0.628-0.292-0.628-0.649v-1.335
		c0-0.359,0.281-0.65,0.628-0.65l0,0c0.347,0,0.628,0.291,0.628,0.65V182.456z"/>
	<path fill="#35B9AB" d="M178.735,191.45v1.1c0,0.358,0.28,0.648,0.627,0.648c0.347,0,0.628-0.291,0.628-0.648v-1.1H178.735z"/>
	<path fill="#35B9AB" d="M186.329,191.45v1.1c0,0.358,0.28,0.648,0.627,0.648c0.347,0,0.628-0.291,0.628-0.648v-1.1H186.329z"/>
	<path fill="#35B9AB" d="M190.668,191.456v1.1c0,0.358,0.28,0.648,0.627,0.648c0.347,0,0.628-0.291,0.628-0.648v-1.1H190.668z"/>
	<path fill="#35B9AB" d="M213.981,191.456v1.1c0,0.358,0.28,0.648,0.627,0.648c0.347,0,0.628-0.291,0.628-0.648v-1.1H213.981z"/>
	<path fill="#35B9AB" d="M210.304,191.417v1.1c0,0.358,0.28,0.648,0.627,0.648c0.347,0,0.628-0.291,0.628-0.648v-1.1H210.304z"/>
	<path fill="#35B9AB" d="M206.243,191.456v1.1c0,0.358,0.28,0.648,0.627,0.648c0.347,0,0.628-0.291,0.628-0.648v-1.1H206.243z"/>
	<path fill="#35B9AB" d="M202.073,191.456v1.1c0,0.358,0.28,0.648,0.627,0.648c0.347,0,0.628-0.291,0.628-0.648v-1.1H202.073z"/>
	<path fill="#35B9AB" d="M198.659,191.456v1.1c0,0.358,0.28,0.648,0.627,0.648c0.347,0,0.628-0.291,0.628-0.648v-1.1H198.659z"/>
	<path fill="#35B9AB" d="M194.448,191.456v1.1c0,0.358,0.28,0.648,0.627,0.648c0.347,0,0.628-0.291,0.628-0.648v-1.1H194.448z"/>
</g>
<g id="Layer_3">
	<g id="openSUSE_1_">
		<path fill="#72BA44" d="M506.542,338.223c-11.701,0-18.139,9.894-18.139,16.732v8.781c0,10.072,8.23,16.313,15.859,16.313h26.791
			c3.375,0,4.082,2.208,4.082,4.072v5.666c0,0.604-0.121,6.045-4.082,6.045h-36.539c-3.631,0-6.254,2.526-6.254,5.981v1.565
			c0,3.446,2.623,5.956,6.254,5.956h38.523c10.072,0,16.568-7.007,16.568-17.859v-9.475c0-10.191-7.32-14.748-14.592-14.748h-26.363
			c-3.967,0-5.766-2.978-5.766-5.08v-5.23c0-3.295,2.203-5.204,6.053-5.204h29.18c3.576,0,6.27-2.569,6.27-5.969v-1.564
			c0-3.41-2.736-5.984-6.393-5.984L506.542,338.223L506.542,338.223z"/>
		<path fill="#72BA44" d="M616.089,338.223c-3.463,0-6.246,2.811-6.246,6.27v44.862c0,3.594-2.936,6.479-6.482,6.479h-20.365
			c-3.561,0-6.48-2.887-6.48-6.479v-44.862c0-3.459-2.809-6.27-6.266-6.27h-1.971c-3.508,0-6.268,2.767-6.268,6.27v46.562
			c0,10.839,8.523,18.701,20.275,18.701h21.777c11.736,0,20.258-7.86,20.258-18.701v-46.562c0-3.503-2.746-6.27-6.252-6.27H616.089z
			"/>
		<path fill="#72BA44" d="M655.076,338.223c-11.695,0-18.148,9.894-18.148,16.732v8.781c0,10.072,8.246,16.313,15.879,16.313h26.781
			c3.381,0,4.092,2.208,4.092,4.072v5.666c0,0.604-0.123,6.045-4.092,6.045h-36.555c-3.611,0-6.254,2.526-6.254,5.981v1.565
			c0,3.446,2.641,5.956,6.254,5.956h38.539c10.072,0,16.6-7.007,16.6-17.859v-9.475c0-10.191-7.344-14.748-14.615-14.748h-26.359
			c-3.98,0-5.77-2.978-5.77-5.08v-5.23c0-3.295,2.201-5.204,6.049-5.204h29.197c3.568,0,6.252-2.569,6.252-5.969v-1.564
			c0-3.41-2.734-5.984-6.406-5.984L655.076,338.223L655.076,338.223z"/>
		<path fill="#72BA44" d="M716.664,338.223c-3.469,0-6.096,2.574-6.096,5.984v59.174c0,3.396,2.564,5.954,5.961,5.954h47.152
			c3.633,0,6.258-2.51,6.258-5.954v-1.565c0-3.456-2.625-5.983-6.258-5.983h-38.619v-15.064h28.303c3.621,0,6.252-2.542,6.252-5.984
			v-1.562c0-3.459-2.631-5.972-6.252-5.972h-28.303v-15.514h36.658c3.621,0,6.256-2.494,6.256-5.971v-1.563
			c0-3.46-2.635-5.983-6.256-5.983h-45.059v0.005H716.664z"/>
		<path fill="#72BA44" d="M315.829,366.368c-5.909,0-10.718,4.598-10.718,10.268v22.311c0,5.759,4.653,10.449,10.36,10.449h14.431
			c5.707,0,10.36-4.69,10.36-10.449v-22.311c0-5.666-4.812-10.268-10.72-10.268H315.829z M312.708,398.062v-20.375
			c0-2.388,1.963-4.34,4.36-4.34h11.245c2.346,0,4.346,1.996,4.346,4.34v20.375c0,2.401-1.948,4.357-4.346,4.357h-11.329
			C314.58,402.419,312.708,400.506,312.708,398.062"/>
		<path fill="#72BA44" d="M372.933,366.11c-4.161,0-7.297,1.486-9.815,2.704c-1.536,0.736-2.862,1.372-3.894,1.372
			c-0.466,0-0.866-0.211-1.077-0.558l-0.96-1.834c-0.239-0.482-1.201-1.429-2.391-1.429h-1.428c-1.371,0-2.468,1.231-2.468,2.735
			v56.589c0,1.775,1.4,3.173,3.173,3.173h1.233c1.759,0,3.188-1.415,3.188-3.173v-18.776c0-0.558,0.359-1.158,0.729-1.158
			c1.031,0,2.357,0.604,3.894,1.309c2.519,1.158,5.655,2.584,9.815,2.584h1.333c7.367,0,11.951-4.211,11.951-10.975v-21.602
			c0-6.661-4.682-10.961-11.951-10.961L372.933,366.11L372.933,366.11L372.933,366.11z M358.496,397.625v-19.486
			c0-2.692,2.104-4.794,4.793-4.794h10.539c2.694,0,4.794,2.104,4.794,4.794v19.486c0,2.646-2.155,4.792-4.794,4.792h-10.539
			C360.65,402.417,358.496,400.271,358.496,397.625z"/>
		<path fill="#72BA44" d="M407.565,366.366c-5.909,0-10.705,4.6-10.705,10.268v22.145c0,5.745,4.661,10.615,10.162,10.615h14.891
			c1.842,0,3.172-1.274,3.172-3.01v-0.975c0-1.744-1.33-2.994-3.172-2.994h-12.233c-3.429,0-5.235-1.683-5.235-4.889v-6.479h22.066
			c3.551,0,5.648-2.165,5.648-5.831v-8.586c0-5.669-4.805-10.271-10.689-10.271h-13.904L407.565,366.366L407.565,366.366z
			 M404.446,377.613c0-2.392,1.88-4.27,4.274-4.27h11.593c2.389,0,4.252,1.878,4.252,4.27v6.914h-20.122
			C404.446,383.624,404.446,377.613,404.446,377.613z"/>
		<path fill="#72BA44" d="M462.816,366.11c-4.148,0-7.277,1.486-9.803,2.69c-1.572,0.738-2.916,1.386-4.014,1.386
			c-0.479,0-0.678-0.062-1.051-0.71l-0.873-1.594c-0.5-1.008-1.352-1.515-2.502-1.515h-1.227c-1.482,0-2.562,1.154-2.562,2.733
			v37.118c0,1.758,1.391,3.173,3.18,3.173h1.227c1.758,0,3.193-1.431,3.193-3.173v-28.082c0-2.63,2.148-4.794,4.781-4.794h10.543
			c2.641,0,4.789,2.164,4.789,4.794v28.082c0,1.758,1.398,3.173,3.17,3.173h1.24c1.76,0,3.189-1.431,3.189-3.173V377.07
			c0-6.661-4.684-10.961-11.957-10.961L462.816,366.11L462.816,366.11z"/>
		<path fill="#72BA44" d="M780.447,395.002c3.211,0,5.771,2.612,5.771,5.88c0,3.314-2.562,5.897-5.799,5.897
			c-3.211,0-5.818-2.583-5.818-5.897c0-3.266,2.607-5.88,5.818-5.88H780.447z M780.419,395.915c-2.584,0-4.697,2.223-4.697,4.963
			c0,2.796,2.113,4.987,4.725,4.987c2.611,0.028,4.701-2.191,4.701-4.962c0-2.767-2.09-4.988-4.701-4.988H780.419z M779.324,404.299
			h-1.045v-6.552c0.551-0.08,1.072-0.158,1.857-0.158c0.99,0,1.643,0.205,2.031,0.495c0.395,0.284,0.605,0.728,0.605,1.358
			c0,0.86-0.576,1.379-1.277,1.592v0.055c0.574,0.104,0.963,0.625,1.098,1.593c0.152,1.021,0.309,1.412,0.416,1.619h-1.098
			c-0.16-0.207-0.314-0.81-0.445-1.671c-0.156-0.834-0.572-1.148-1.406-1.148h-0.732v2.817H779.324z M779.324,400.667h0.758
			c0.863,0,1.594-0.312,1.594-1.122c0-0.575-0.418-1.15-1.594-1.15c-0.342,0-0.574,0.024-0.758,0.057V400.667z"/>
		<rect x="249.065" y="52.623" fill="none" width="584" height="425.245"/>
	</g>
	<g id="Conference_1_">
		<text transform="matrix(1 0 0 1 298.397 478.3408)" fill="#72BA44" font-family="'OpenSans'" font-size="65">Conference</text>
	</g>
	<g id="Prague_1_">
		<text transform="matrix(1 0 0 1 305.1113 520.1133)" fill="#72BA44" font-family="'OpenSans'" font-size="28">Nuremberg, Germany</text>
	</g>
</g>
</svg>
