<?xml version="1.0" encoding="UTF-8" standalone="no"?>
<!-- Generator: Adobe Illustrator 17.1.0, SVG Export Plug-In . SVG Version: 6.00 Build 0)  -->

<svg
   xmlns:dc="http://purl.org/dc/elements/1.1/"
   xmlns:cc="http://creativecommons.org/ns#"
   xmlns:rdf="http://www.w3.org/1999/02/22-rdf-syntax-ns#"
   xmlns:svg="http://www.w3.org/2000/svg"
   xmlns="http://www.w3.org/2000/svg"
   xmlns:sodipodi="http://sodipodi.sourceforge.net/DTD/sodipodi-0.dtd"
   xmlns:inkscape="http://www.inkscape.org/namespaces/inkscape"
   version="1.1"
   x="0px"
   y="0px"
   viewBox="0 0 1920 1080"
   enable-background="new 0 0 1920 1200"
   xml:space="preserve"
   id="svg2"
   inkscape:version="0.48.5 r10040"
   width="100%"
   height="100%"
   sodipodi:docname="background-169.svg"
   inkscape:export-filename="/home/marcel/Pictures/13.2/Google_Cover.png"
   inkscape:export-xdpi="90"
   inkscape:export-ydpi="90"><sodipodi:namedview
     pagecolor="#ffffff"
     bordercolor="#666666"
     borderopacity="1"
     objecttolerance="10"
     gridtolerance="10"
     guidetolerance="10"
     inkscape:pageopacity="0"
     inkscape:pageshadow="2"
     inkscape:window-width="1366"
     inkscape:window-height="743"
     id="namedview54"
     showgrid="false"
     inkscape:zoom="0.421875"
     inkscape:cx="960"
     inkscape:cy="540"
     inkscape:window-x="0"
     inkscape:window-y="0"
     inkscape:window-maximized="1"
     inkscape:current-layer="layer1"
     borderlayer="true" /><metadata
     id="metadata58"><rdf:RDF><cc:Work
         rdf:about=""><dc:format>image/svg+xml</dc:format><dc:type
           rdf:resource="http://purl.org/dc/dcmitype/StillImage" /><dc:title></dc:title></cc:Work></rdf:RDF></metadata><defs
     id="defs56"><filter
       id="filter4756"
       inkscape:label="Drop Shadow"
       color-interpolation-filters="sRGB"><feFlood
         id="feFlood4758"
         flood-opacity="0.25"
         flood-color="rgb(0,0,0)"
         result="flood" /><feComposite
         id="feComposite4760"
         in2="SourceGraphic"
         in="flood"
         operator="in"
         result="composite1" /><feGaussianBlur
         id="feGaussianBlur4762"
         stdDeviation="2.1"
         result="blur" /><feOffset
         id="feOffset4764"
         dx="2.7"
         dy="2.8"
         result="offset" /><feComposite
         id="feComposite4766"
         in2="offset"
         in="SourceGraphic"
         operator="over"
         result="composite2" /></filter></defs><g
     style="display:inline"
     inkscape:label="BG"
     id="layer2"
     inkscape:groupmode="layer"
     transform="translate(0,-120)"><g
       inkscape:export-ydpi="90"
       inkscape:export-xdpi="90"
       id="Layer_1"
       transform="matrix(1.215,0,0,1.215,-91.89399,33.862282)"
       style="fill:#0d6967;fill-opacity:1;display:inline"><rect
         id="rect5"
         height="1212.2"
         width="1989.2"
         y="-12.2"
         x="-24.299999"
         style="fill:#0d6967;fill-opacity:1" /></g></g><g
     style="display:inline"
     inkscape:label="circles"
     id="layer1"
     inkscape:groupmode="layer"
     transform="translate(0,-120)"><path
       inkscape:connector-curvature="0"
       style="fill:#173d4a;filter:url(#filter4756)"
       id="path10"
       d="m 548.10004,1379.1997 c 142.9,70.3 314.3,135.9 455.09996,61.5 46,-24.3 86,-62.8 137,-72.9 90.7,-18 197.4,56.5 270,-0.8 27,-21.3 39.7,-55.5 60.2,-83.1 118.1,-158.2 406.2,-29.5 549.5,-165.2 52.9,-50.1 72.7,-127.99998 66.7,-200.69998 -6,-72.7 34.9,-140.2 2.9,-205.7 62.9,-73.5 60.4,-163 41.9,-258 -38,-194.6 -104.1,-249.00005 -162.8,-438.40005 -14.7,-47.399999 -341.7,-119.5 -363.6,-132.7 -107.6,-65 -223.5,-116.4 -343.9,-152.5 -70.4,-21.1 -144.4,-37.2 -217.1,-26.1 -52.79996,8.1 -102.29996,30.1 -152.59996,48.2 -319.1,114.5 -703.80003,81 -959.400031,303.700001 -90.699999,79.099999 -157.799999,213.800049 -97.599999,318.000049 10.7,18.5 24.9,35.1 31.9,55.2 10.3,29.5 3.5,61.9 -4.5,92.1 -22,82.4 -53,163 -61.7,247.8 -8.7,84.8 8.9,177.8 70.7,236.49998 80.299999,76.4 56.999999,211.8 165.699999,233.9 24.2,4.9 189.800031,-7.2 208.400031,9 16.8,14.6 205,81.9 303.2,130.2 z"
       transform="matrix(0.81,0,0,0.81,82.095862,125.33343)" /><path
       inkscape:connector-curvature="0"
       style="fill:#529479;filter:url(#filter4756)"
       id="path52"
       d="m 280.30004,374.39972 c 0.6,13.5 8.2,25.6 15.8,36.8 11.1,16.3 25.6,33.8 45.3,34.3 6.4,0.2 13.1,-1.5 19.2,0.5 10.9,3.6 17.8,18.1 29.2,16.3 4.2,-0.7 7.7,-3.6 11.6,-5.3 22.4,-9.9 45.6,21.6 69.3,15.6 8.8,-2.2 15.6,-9.4 19.4,-17.6 3.8,-8.2 4.9,-17.4 5.4,-26.4 11.3,-4.1 23.9,-9.5 27.7,-20.9 7.8,-23.3 -28.4,-43.1 -23.2,-67.1 1.3,-6 5.2,-11.6 4.6,-17.7 -0.3,-3.2 -1.8,-6 -3.4,-8.8 -7.6,-13.6 -17,-26.2 -27.8,-37.4 -6.3,-6.6 -13.3,-12.8 -21.8,-16 -6.2,-2.3 -12.9,-3.00005 -19.4,-4.10005 -41.4,-7.1 -3.9,-0.7 -30.7,-6.9 -14.5,-3.4 -121.2,-5.3 -121.1,9.60005 0,2.6 0.6,5.3 0.1,7.9 -0.7,3.8 -3.4,6.9 -6.1,9.6 -7.4,7.5 -15.6,14.3 -21.7,23 -6.1,8.6 -9.9,19.7 -6.8,29.8 4,13.1 17.6,20.3 28,29.3 2.3,2 4.6,4.3 5.6,7.1 0.8,2.8 0.7,5.6 0.8,8.4 z"
       transform="matrix(1.215,0,0,1.215,-91.893998,33.862323)" /><path
       inkscape:connector-curvature="0"
       d="m 574.04755,1709.5901 c 173.6235,85.4145 381.87447,165.1185 552.94635,74.7225 55.89,-29.5245 104.49,-76.302 166.455,-88.5735 110.2005,-21.87 239.841,68.6475 328.05,-0.972 32.805,-25.8795 48.2355,-67.4325 73.143,-100.9665 71.7458,-96.1065 195.129,-105.0672 322.3395,-110.6106 127.2105,-5.5434 258.2483,-7.6697 345.303,-90.1074 64.2735,-60.8715 88.3305,-155.52 81.0405,-243.8505 -7.29,-88.3305 42.4035,-170.34303 3.5235,-249.92562 76.4235,-89.3025 73.386,-198.045 50.9085,-313.47 -46.17,-236.439 -126.4815,-302.53506 -197.802,-532.656055 -17.8605,-57.5909989 -415.1655,-145.192505 -441.774,-161.230505 -130.734,-78.975 -271.5525,-141.426 -417.8385,-185.2875 -85.536,-25.6365 -175.446,-45.198 -263.7765,-31.7115 -64.1519,9.8415 -124.2944,36.5715 -185.40888,58.563 -193.85322,69.55875 -407.63249,94.1625 -611.76768,135.19913 -204.13519,41.03662 -398.62633,98.506124 -553.90332,233.79637 -110.20051,96.1065 -191.72701,259.76706 -118.58401,386.37006 13.0005,22.4775 30.2535,42.6465 38.7585,67.068 12.5145,35.8425 4.2525,75.2085 -5.4675,111.9015 -26.73,100.116 -64.395,198.045 -74.9655,301.07709 -10.5705,103.03203 10.8135,216.02703 85.9005,287.34753 97.56451,92.826 69.25501,257.337 201.3255,284.1885 29.403,5.9535 230.60704,-8.748 253.20603,10.935 20.412,17.739 249.07501,99.5085 368.38801,158.193 0,0 0,0 0,0"
       style="fill:#0d6967;fill-opacity:1"
       id="path4243" /><path
       inkscape:connector-curvature="0"
       d="m 280.30004,374.39972 c 0.6,13.5 8.2,25.6 15.8,36.8 11.1,16.3 25.6,33.8 45.3,34.3 6.4,0.2 13.1,-1.5 19.2,0.5 10.9,3.6 17.8,18.1 29.2,16.3 4.2,-0.7 7.7,-3.6 11.6,-5.3 22.4,-9.9 45.6,21.6 69.3,15.6 8.8,-2.2 15.6,-9.4 19.4,-17.6 3.8,-8.2 4.9,-17.4 5.4,-26.4 11.3,-4.1 23.9,-9.5 27.7,-20.9 7.8,-23.3 -28.4,-43.1 -23.2,-67.1 1.3,-6 5.2,-11.6 4.6,-17.7 -0.3,-3.2 -1.8,-6 -3.4,-8.8 -7.6,-13.6 -17,-26.2 -27.8,-37.4 -6.3,-6.6 -13.3,-12.8 -21.8,-16 -6.2,-2.3 -12.9,-3.00005 -19.4,-4.10005 -41.4,-7.1 -3.9,-0.7 -30.7,-6.9 -14.5,-3.4 -121.2,-5.3 -121.1,9.60005 0,2.6 0.6,5.3 0.1,7.9 -0.7,3.8 -3.4,6.9 -6.1,9.6 -7.4,7.5 -15.6,14.3 -21.7,23 -6.1,8.6 -9.9,19.7 -6.8,29.8 4,13.1 17.6,20.3 28,29.3 2.3,2 4.6,4.3 5.6,7.1 0.8,2.8 0.7,5.6 0.8,8.4 0,0 0,0 0,0"
       style="fill:#22a472;fill-opacity:1;filter:url(#filter4756)"
       id="path4285"
       transform="matrix(1.215,0,0,1.215,-91.893998,33.862323)" /><path
       inkscape:connector-curvature="0"
       d="m 531.36254,1316.3997 c 134.00625,66.75 295.16875,129.0063 427.64371,59.9563 43.81875,-21.7625 82.22505,-56.7625 131.26875,-66.2 85.4313,-16.8625 185.8813,52.875 254.325,-0.7188 25.9938,-19.7437 38.3313,-50.9 58.2625,-76.8875 55.6219,-74.2 151.0438,-81.2953 249.4438,-85.6789 99.5562,-4.8961 202.1156,-4.568 270.7687,-68.5523 50.1438,-47.1063 69.1313,-120.58753 63.7438,-189.25628 -5.3875,-68.66875 33.025,-132.525 3.0562,-194.49375 59.675,-69.1625 58.1188,-153.40625 41.0125,-243.18125 -35.1375,-183.89375 -99.3687,-236.1313 -154.075,-415.193796 -13.7,-44.8125003 -320.0187,-112.756257 -340.5875,-125.512507 -100.8937,-61.137497 -209.6437,-109.499997 -322.6187,-143.518747 -66.475,-20.63125 -136.4375,-36.5125 -205.2688,-26.80625 -49.89371,7.18125 -96.73746,27.41875 -144.42496,44.1875 -149.96563,53.52813 -315.33751,72.46875 -473.25549,104.06406 C 230.55783,-80.172213 82.831262,-35.428456 -38.656239,68.574671 -124.59374,142.51842 -194.16874,268.68097 -137.72499,367.29972 c 10.03125,17.50625 23.38125,33.2375 29.9125,52.24375 9.612502,27.89375 3.06875,58.4625 -4.6,86.94375 -21.0875,77.71875 -50.6625,153.70625 -59.2,233.75 -8.5375,80.0375 7.725,167.91875 65.85625,223.58125 75.531251,72.44373 54.537501,199.83123 157.093751,221.11253 22.83125,4.7187 178.225029,-6.4813 195.725029,8.8812 15.8,13.8625 192.23125,77.1313 284.3,122.5875 0,0 0,0 0,0"
       style="fill:#0e6c67;fill-opacity:1;filter:url(#filter4756)"
       id="path12308"
       transform="matrix(0.81,0,0,0.81,82.095862,125.33343)" /><path
       inkscape:connector-curvature="0"
       d="m 514.62504,1253.5997 c 125.1125,63.2 276.0375,122.1125 400.18746,58.4125 41.63751,-19.225 78.45001,-50.725 125.5375,-59.5 80.1625,-15.725 174.3625,49.25 238.65,-0.6375 24.9875,-18.1875 36.9625,-46.3 56.325,-70.675 52.1938,-69.3 141.4875,-76.1156 233.5875,-80.3203 94.4125,-5.2297 191.6813,-2.8234 257.3375,-62.9422 47.3875,-44.11249 65.5625,-113.17498 60.7875,-177.81248 -4.775,-64.6375 31.15,-124.85 3.2125,-183.2875 56.45,-64.825 55.8375,-143.8125 40.125,-228.3625 -32.275,-173.1875 -94.6375,-223.26254 -145.35,-391.987544 -12.7,-42.224999 -298.3375,-106.012503 -317.575,-118.325003 -94.1875,-57.274993 -195.7875,-102.599993 -301.3375,-134.537493 -62.55,-20.1625 -128.475,-35.825 -193.43749,-27.5125 -46.98747,6.2625 -91.17497,24.7375 -136.24997,40.175 -140.38125,49.80625 -295.17501,67.43749 -442.99846,96.853107 C 241.24065,-58.194083 105.86251,-16.006581 -9.3124871,80.64967 -90.487486,149.43717 -162.53749,267.06221 -109.84999,360.09972 c 9.3625,16.5125 21.862504,31.375 27.925004,49.2875 8.925,26.2875 2.6375,55.025 -4.7,81.7875 -20.175004,73.0375 -48.325004,144.4125 -56.700004,219.7 -8.375,75.275 6.55,158.0375 61.012504,210.6625 70.762499,68.48749 52.074999,187.86248 148.487499,208.32498 21.4625,4.5375 166.650027,-5.7625 183.050027,8.7625 14.8,13.125 179.4625,72.3625 265.4,114.975 0,0 0,0 0,0"
       style="fill:#0f7068;fill-opacity:1;filter:url(#filter4756)"
       id="path12310"
       transform="matrix(1.215,0,0,1.215,-91.893998,33.862323)" /><path
       inkscape:connector-curvature="0"
       d="m 497.88754,1190.7997 c 116.21875,59.65 256.90625,115.2188 372.73122,56.8688 39.45625,-16.6875 74.675,-44.6875 119.80625,-52.8 74.89379,-14.5875 162.84379,45.625 222.97499,-0.5563 23.9813,-16.6312 35.5938,-41.7 54.3875,-64.4625 48.7656,-64.4 131.9313,-70.9359 217.7313,-74.9617 89.2687,-5.5633 181.2468,-1.0789 243.9062,-57.33204 44.6313,-41.11875 61.9938,-105.76249 57.8313,-166.36874 -4.1625,-60.60625 29.275,-117.175 3.3687,-172.08125 53.225,-60.4875 53.5563,-134.21875 39.2375,-213.54375 -29.4125,-162.48125 -89.9062,-210.39379 -136.625,-368.781291 -11.7,-39.637499 -276.6562,-99.268753 -294.5625,-111.137503 -87.4812,-53.412499 -181.9312,-95.699996 -280.0562,-125.556246 -58.625,-19.69375 -120.51254,-35.1375 -181.60629,-28.21875 -44.08122,5.34375 -85.61247,22.05625 -128.07497,36.1625 C 678.14067,-105.8847 533.92503,-89.562833 396.19612,-62.326896 251.92346,-36.215958 128.89377,3.4152937 20.031265,92.72467 -56.381234,156.35592 -130.90623,265.44346 -81.974984,352.89972 c 8.69375,15.51875 20.34375,29.5125 25.9375,46.33125 8.2375,24.68125 2.20625,51.5875 -4.8,76.63125 -19.2625,68.35625 -45.987496,135.11875 -54.199996,205.65 -8.2125,70.5125 5.375,148.15625 56.168746,197.74375 65.9937488,64.53124 49.6124988,175.89373 139.881249,195.53753 20.093745,4.3562 155.075025,-5.0438 170.375025,8.6437 13.8,12.3875 166.69375,67.5938 246.5,107.3625 0,0 0,0 0,0"
       style="fill:#107469;fill-opacity:1;filter:url(#filter4756)"
       id="path12312"
       transform="matrix(1.215,0,0,1.215,-91.893998,33.862323)" /><path
       inkscape:connector-curvature="0"
       d="m 481.15004,1127.9997 c 107.325,56.1 237.775,108.325 345.27497,55.325 37.275,-14.15 70.9,-38.65 114.075,-46.1 69.62499,-13.45 151.32499,42 207.29999,-0.475 22.975,-15.075 34.225,-37.1 52.45,-58.25 45.3375,-59.5 122.375,-65.7562 201.875,-69.6031 84.125,-5.8969 170.8125,0.6656 230.475,-51.72189 41.875,-38.125 58.425,-98.34999 54.875,-154.92499 -3.55,-56.575 27.4,-109.5 3.525,-160.875 50,-56.15 51.275,-124.625 38.35,-198.725 -26.55,-151.775 -85.175,-197.52504 -127.9,-345.575038 -10.7,-37.05 -254.975,-92.5250023 -271.55,-103.9500033 -80.775,-49.5499987 -168.075,-88.8000017 -258.775,-116.5749987 -54.7,-19.225 -112.54999,-34.45 -169.77499,-28.925 -41.17497,4.425 -80.04997,19.375 -119.89997,32.15 -121.2125,42.362497 -254.85001,57.374987 -382.48439,82.431237 -136.35938,23.55625 -247.04063,60.631251 -349.590633,142.593753 -71.649999,58.475 -148.649999,159.02504 -103.475,240.90005 8.025001,14.525 18.825001,27.65 23.950001,43.375 7.55,23.075 1.774999,48.15 -4.9,71.475 -18.35,63.675 -43.650001,125.825 -51.700001,191.6 -8.049999,65.75 4.200001,138.275 51.325001,184.825 61.224999,60.57499 47.149999,163.92498 131.274999,182.74998 18.725003,4.175 143.500023,-4.325 157.700023,8.525 12.8,11.65 153.925,62.825 227.6,99.75 0,0 0,0 0,0"
       style="fill:#127769;fill-opacity:1;filter:url(#filter4756)"
       id="path12314"
       transform="matrix(1.215,0,0,1.215,-91.893998,33.862323)" /><path
       inkscape:connector-curvature="0"
       d="m 464.41254,1065.1997 c 98.43125,52.55 218.64375,101.4313 317.81872,53.7813 35.09375,-11.6125 67.125,-32.6125 108.34375,-39.4 64.35625,-12.3125 139.80629,38.375 191.62499,-0.3938 21.9688,-13.5187 32.8563,-32.5 50.5125,-52.0375 41.9094,-54.59999 112.8188,-60.57655 186.0188,-64.24452 78.9812,-6.23047 160.3781,2.41016 217.0437,-46.11172 39.1188,-35.13125 54.8563,-90.93749 51.9188,-143.48124 -2.9375,-52.54375 25.525,-101.825 3.6812,-149.66875 46.775,-51.8125 48.9938,-115.03125 37.4625,-183.90625 -23.6875,-141.06875 -80.4437,-184.65628 -119.175,-322.36879 -9.7,-34.462495 -233.2937,-85.781248 -248.5375,-96.762498 -74.0687,-45.687499 -154.2187,-81.899999 -237.4937,-107.593745 -50.77504,-18.756247 -104.58754,-33.762497 -157.94379,-29.631247 -38.26872,3.50625 -74.48747,16.693747 -111.72497,28.137497 -111.62812,38.640621 -234.68751,52.34373 -352.22736,75.220292 C 273.28909,7.7402917 174.95627,42.259043 78.718769,116.87467 c -66.8875,53.31875 -146.3625,145.33128 -104.94375,221.62505 7.35625,13.53125 17.3062504,25.7875 21.9625004,40.41875 6.8625,21.46875 1.34375,44.7125 -5,66.31875 -17.4375004,58.99375 -41.3125004,116.53125 -49.2000004,177.55 -7.8875,60.9875 3.025,128.39375 46.48125,171.90625 56.45625,56.61874 44.6875,151.95624 122.668751,169.96249 17.35625,3.99375 131.92502,-3.60625 145.02502,8.40625 11.8,10.9125 141.15625,58.05629 208.7,92.13749 0,0 0,0 0,0"
       style="fill:#137b6a;fill-opacity:1;filter:url(#filter4756)"
       id="path12316"
       transform="matrix(1.215,0,0,1.215,-91.893998,33.862323)" /><path
       inkscape:connector-curvature="0"
       d="m 447.67504,1002.3997 c 89.5375,49 199.5125,94.5375 290.36247,52.2375 32.9125,-9.075 63.35,-26.575 102.61251,-32.7 59.0875,-11.175 128.28749,34.75 175.94998,-0.3125 20.9625,-11.9625 31.4875,-27.89999 48.575,-45.82499 38.4813,-49.7 103.2625,-55.39687 170.1625,-58.88593 73.8375,-6.56407 149.9438,4.15468 203.6125,-40.50157 36.3625,-32.1375 51.2875,-83.52499 48.9625,-132.03749 -2.325,-48.5125 23.65,-94.15 3.8375,-138.4625 43.55,-47.475 46.7125,-105.4375 36.575,-169.0875 -20.825,-130.3625 -75.7125,-171.78753 -110.45,-299.16253 -8.7,-31.875 -211.6125,-79.037504 -225.525,-89.575004 -67.3625,-41.8250003 -140.3625,-75 -216.21249,-98.6125 -46.85,-18.2875 -96.625,-33.074999 -146.11249,-30.337499 -35.36248,2.5875 -68.92498,14.012499 -103.54998,24.124999 C 624.43129,-21.819064 511.95003,-9.4253333 404.50471,11.271542 283.9719,29.718417 197.98752,61.680918 108.06252,128.94967 45.937521,177.11217 -36.012479,260.5872 1.6500212,331.29972 c 6.6875001,12.5375 15.7874998,23.925 19.9749998,37.4625 6.175,19.8625 0.9125,41.275 -5.1,61.1625 -16.52499975,54.3125 -38.975,107.2375 -46.7,163.5 -7.725,56.225 1.85,118.5125 41.6375,158.9875 51.6875,52.66249 42.225,139.98749 114.062499,157.17499 15.9875,3.8125 120.35002,-2.8875 132.35002,8.2875 10.8,10.175 128.3875,53.2875 189.8,84.52499 0,0 0,0 0,0"
       style="fill:#147f6b;fill-opacity:1;filter:url(#filter4756)"
       id="path12318"
       transform="matrix(1.215,0,0,1.215,-91.893998,33.862323)" /><path
       inkscape:connector-curvature="0"
       d="m 430.93754,939.59971 c 80.64375,45.45 180.38125,87.64379 262.90623,50.69375 30.73125,-6.5375 59.575,-20.5375 96.88125,-26 53.81875,-10.0375 116.76875,31.125 160.275,-0.23125 19.95625,-10.40625 30.11875,-23.3 46.6375,-39.6125 35.05308,-44.8 93.70628,-50.21718 154.30628,-53.52734 68.6937,-6.89766 139.5093,5.89922 190.1812,-34.89141 33.6063,-29.14375 47.7188,-76.11249 46.0063,-120.59374 -1.7125,-44.48125 21.775,-86.475 3.9937,-127.25625 40.325,-43.1375 44.4313,-95.84375 35.6875,-154.26875 -17.9625,-119.65625 -70.9812,-158.91878 -101.725,-275.95628 -7.7,-29.2875 -189.9312,-72.293751 -202.5125,-82.387501 -60.6562,-37.9625 -126.50623,-68.1000003 -194.93123,-89.63125 -42.925,-17.81875 -88.6625,-32.3875 -134.28125,-31.04375 -32.45623,1.66875 -63.36248,11.33125 -95.37498,20.1125 C 606.52816,6.2028137 504.62503,17.287167 407.27425,35.804355 294.65472,51.696542 221.01877,81.102793 137.40627,141.02467 80.043773,184.03092 -4.3812269,258.96845 29.525023,324.09972 c 6.01875,11.54375 14.26875,22.0625 17.9875,34.50625 5.4875,18.25625 0.48125,37.8375 -5.2,56.00625 -15.6125,49.63125 -36.6374999,97.94375 -44.1999999,149.45 -7.5625,51.4625 0.675,108.63125 36.7937499,146.06875 46.91875,48.70624 39.7625,128.01874 105.456247,144.38749 14.61875,3.63125 108.77502,-2.16875 119.67502,8.16875 9.8,9.4375 115.61875,48.51875 170.9,76.9125 0,0 0,0 0,0"
       style="fill:#16826b;fill-opacity:1;filter:url(#filter4756)"
       id="path12320"
       transform="matrix(1.215,0,0,1.215,-91.893998,33.862323)" /><path
       inkscape:connector-curvature="0"
       d="m 414.20004,876.79972 c 71.75,41.9 161.25,80.75 235.44998,49.15 28.55,-4 55.8,-14.5 91.15,-19.30001 48.55,-8.9 105.25,27.5 144.6,-0.15 18.95,-8.85 28.75,-18.69999 44.7,-33.4 31.625,-39.89999 84.14998,-45.0375 138.44998,-48.16875 63.55,-7.23124 129.075,7.64376 176.75,-29.28125 30.85,-26.15 44.15,-68.69999 43.05,-109.14999 -1.1,-40.45 19.9,-78.8 4.15,-116.05 37.1,-38.8 42.15,-86.25 34.8,-139.45 -15.1,-108.95 -66.25,-146.05002 -93,-252.75002 -6.7,-26.7 -168.25,-65.55001 -179.5,-75.20001 -53.95,-34.099998 -112.64998,-61.199998 -173.64998,-80.649998 -39,-17.3500003 -80.7,-31.7000003 -122.45,-31.7500003 -29.54998,0.75 -57.79998,8.64999996 -87.19998,16.1 -82.875,27.4750003 -174.20001,37.2499753 -261.45626,53.5874753 -104.70625,13.3375 -165.99376,40.187503 -243.29376,92.762503 -52.59999,37.85 -139.499995,104.25002 -109.349995,163.80005 5.35,10.55 12.75,20.2 16,31.55 4.8,16.65 0.05,34.4 -5.3,50.85 -14.7,44.95 -34.3,88.65 -41.7,135.4 -7.4,46.7 -0.5,98.75 31.95,133.15 42.149995,44.74999 37.299999,116.04999 96.849995,131.6 13.25,3.44999 97.20002,-1.45001 107.00002,8.04999 8.8,8.70001 102.85,43.75 152,69.30001 0,0 0,0 0,0"
       style="fill:#17866c;fill-opacity:1;filter:url(#filter4756)"
       id="path12322"
       transform="matrix(1.215,0,0,1.215,-91.893998,33.862323)" /><path
       inkscape:connector-curvature="0"
       d="m 397.46254,813.99972 c 62.85625,38.35 142.11875,73.85625 207.99373,47.60625 26.36875,-1.4625 52.025,-8.4625 85.41875,-12.6 43.28125,-7.7625 93.73125,23.875 128.925,-0.0688 17.94375,-7.29375 27.38125,-14.1 42.7625,-27.1875 28.19688,-35 74.59375,-39.85782 122.59375,-42.81016 58.40623,-7.56484 118.64063,9.38828 163.31873,-23.67109 28.0938,-23.15625 40.5813,-61.2875 40.0938,-97.70625 -0.4875,-36.41875 18.025,-71.125 4.3062,-104.84375 33.875,-34.4625 39.8688,-76.65625 33.9125,-124.63125 -12.2375,-98.24375 -61.5187,-133.18127 -84.275,-229.54377 -5.7,-24.1125 -146.56873,-58.80625 -156.48748,-68.0125 -47.24375,-30.23746 -98.79375,-54.299955 -152.36875,-71.668705 -35.075,-16.88125 -72.7375,-31.0125 -110.61875,-32.45625 -26.64373,-0.16875 -52.23748,5.96875 -79.02498,12.0875 C 570.72191,62.24657 489.97504,70.712167 412.81331,84.869979 316.02034,95.652792 267.08128,119.94654 196.09378,165.17467 148.25628,197.86842 58.881277,255.73094 85.275027,309.69972 c 4.68125,9.55625 11.23125,18.3375 14.0125,28.59375 4.112503,15.04375 -0.38125,30.9625 -5.4,45.69375 -13.7875,40.26875 -31.9625,79.35625 -39.2,121.35 -7.2375,41.9375 -1.675,88.86875 27.10625,120.23125 37.381253,40.79375 34.837503,104.08125 88.243753,118.8125 11.88125,3.26875 85.62501,-0.73125 94.32501,7.93125 7.8,7.9625 90.08125,38.98125 133.1,61.6875 0,0 0,0 0,0"
       style="fill:#188a6d;fill-opacity:1;filter:url(#filter4756)"
       id="path12324"
       transform="matrix(1.215,0,0,1.215,-91.893998,33.862323)" /><path
       inkscape:connector-curvature="0"
       d="m 380.72504,751.19972 c 53.9625,34.8 122.9875,66.9625 180.53748,46.0625 24.1875,1.075 48.25,-2.425 79.6875,-5.9 38.01251,-6.625 82.2125,20.25 113.25,0.0125 16.9375,-5.7375 26.01251,-9.5 40.82501,-20.975 24.76874,-30.1 65.0375,-34.67813 106.73749,-37.45157 53.26251,-7.89843 108.20628,11.13282 149.88748,-18.06093 25.3375,-20.1625 37.0125,-53.875 37.1375,-86.2625 0.125,-32.3875 16.15,-63.45 4.4625,-93.6375 30.65,-30.125 37.5875,-67.0625 33.025,-109.8125 -9.375,-87.5375 -56.7875,-120.31252 -75.55,-206.33752 -4.7,-21.525 -124.88747,-52.0625 -133.47497,-60.825 -40.5375,-26.375 -84.9375,-47.4 -131.08751,-62.687502 -31.15,-16.4125 -64.775,-30.325 -98.78749,-33.1625 -23.73749,-1.0875 -46.67499,3.2875 -70.84999,8.075 -63.70625,20.03125 -133.875,27.187469 -200.94219,39.165592 -88.87969,8.22813 -125.47032,29.96563 -190.14532,67.84688 -43.075,27.5375 -134.925001,76.86252 -112.2875,125.25005 4.0125,8.5625 9.7125,16.475 12.025,25.6375 3.425,13.4375 -0.8125,27.525 -5.5,40.5375 -12.875,35.5875 -29.625001,70.0625 -36.700001,107.3 -7.075,37.175 -2.85,78.9875 22.262501,107.3125 32.6125,36.8375 32.375,92.1125 79.6375,106.025 10.5125,3.0875 74.05001,-0.0125 81.65001,7.8125 6.8,7.225 77.3125,34.2125 114.2,54.075 0,0 0,0 0,0"
       style="fill:#1a8d6d;fill-opacity:1;filter:url(#filter4756)"
       id="path12326"
       transform="matrix(1.215,0,0,1.215,-91.893998,33.862323)" /><path
       inkscape:connector-curvature="0"
       d="m 363.98754,688.39972 c 45.06875,31.25 103.85625,60.06875 153.08124,44.51875 22.00625,3.6125 44.475,3.6125 73.95625,0.8 32.74375,-5.4875 70.69375,16.625 97.575,0.0937 15.93125,-4.18125 24.64375,-4.9 38.8875,-14.7625 21.34062,-25.2 55.48125,-29.49844 90.88125,-32.09297 48.11875,-8.23203 97.77187,12.87734 136.45625,-12.45078 22.58125,-17.16875 33.44375,-46.4625 34.18125,-74.81875 0.7375,-28.35625 14.27502,-55.775 4.61875,-82.43125 27.42497,-25.7875 35.30627,-57.46875 32.13747,-94.99375 -6.5125,-76.83125 -52.05622,-107.44377 -66.82497,-183.13126 -3.7,-18.9375 -103.20625,-45.31876 -110.4625,-53.63751 -33.83125,-22.5125 -71.08125,-40.5 -109.80625,-53.70625 -27.225,-15.94375 -56.8125,-29.6375 -86.95625,-33.868749 -20.83124,-2.00625 -41.11249,0.60625 -62.67499,4.062499 -54.12188,16.30938 -113.7125,22.15622 -170.68516,31.95466 -80.96641,5.67344 -105.2086,24.85469 -163.5711,55.38906 -38.3125,22.38125 -132.6375,63.16877 -113.75625,105.97505 3.34375,7.56875 8.19375,14.6125 10.0375,22.68125 2.7375,11.83125 -1.24375,24.0875 -5.6,35.38125 -11.9625,30.90625 -27.2875,60.76875 -34.2,93.25 -6.9125,32.4125 -4.025,69.10625 17.41875,94.39375 27.84375,32.88125 29.9125,80.14375 71.03125,93.2375 9.14375,2.90625 62.47501,0.70625 68.97501,7.69375 5.8,6.4875 64.54375,29.44375 95.3,46.4625 0,0 0,0 0,0"
       style="fill:#1b916e;fill-opacity:1;filter:url(#filter4756)"
       id="path12328"
       transform="matrix(1.215,0,0,1.215,-91.893998,33.862323)" /><path
       inkscape:connector-curvature="0"
       d="m 347.25004,625.59972 c 36.175,27.7 84.725,53.175 125.62499,42.975 19.825,6.15 40.7,9.65 68.225,7.5 27.475,-4.35 59.175,13 81.9,0.175 14.925,-2.625 23.275,-0.3 36.95,-8.55 17.9125,-20.3 45.925,-24.31875 75.025,-26.73438 42.975,-8.56562 87.3375,14.62188 123.025,-6.84062 19.825,-14.175 29.875,-39.05 31.225,-63.375 1.35,-24.325 12.4,-48.1 4.775,-71.225 24.2,-21.45 33.025,-47.875 31.25,-80.175 -3.65,-66.125 -47.325,-94.57501 -58.1,-159.92501 -2.7,-16.35 -81.525,-38.575 -87.45,-46.45 -27.125,-18.65 -57.225,-33.6 -88.525,-44.725 -23.3,-15.475 -48.85,-28.95 -75.125,-34.575 -17.92499,-2.925 -35.54999,-2.075 -54.49999,0.05 -44.5375,12.5875 -93.55,17.12496 -140.42813,24.74371 -73.05313,3.11875 -84.94688,19.74375 -136.99688,42.93125 -33.55,17.225 -130.35,49.47501 -115.225,86.70005 2.675,6.575 6.675,12.75 8.05,19.725 2.05,10.225 -1.675,20.65 -5.7,30.225 -11.05,26.225 -24.95,51.475 -31.7,79.2 -6.75,27.65 -5.2,59.225 12.575,81.475 23.075,28.925 27.45,68.175 62.425,80.45 7.775,2.725 50.90001,1.425 56.30001,7.575 4.8,5.75 51.775,24.675 76.4,38.85 0,0 0,0 0,0"
       style="fill:#1c956f;fill-opacity:1;filter:url(#filter4756)"
       id="path12330"
       transform="matrix(1.215,0,0,1.215,-91.893998,33.862323)" /><path
       inkscape:connector-curvature="0"
       d="m 330.51254,562.79972 c 27.28125,24.15 65.59375,46.28125 98.16874,41.43125 17.64375,8.6875 36.925,15.6875 62.49375,14.2 22.20625,-3.2125 47.65625,9.375 66.225,0.25625 13.91875,-1.06875 21.90625,4.3 35.0125,-2.3375 14.48438,-15.4 36.36875,-19.13906 59.16875,-21.37578 37.83125,-8.89922 76.90313,16.3664 109.59375,-1.23047 17.06875,-11.18125 26.30625,-31.6375 28.26875,-51.93125 1.9625,-20.29375 10.525,-40.425 4.93125,-60.01875 20.975,-17.1125 30.74375,-38.28125 30.3625,-65.35625 -0.7875,-55.41875 -42.59375,-81.70626 -49.375,-136.71876 -1.7,-13.7625 -59.84375,-31.83125 -64.4375,-39.2625 -20.41875,-14.7875 -43.36875,-26.7 -67.24375,-35.74375 -19.375,-15.00625 -40.8875,-28.2625 -63.29375,-35.28125 -15.01874,-3.84375 -29.98749,-4.75625 -46.32499,-3.9625 -34.95312,8.86563 -73.3875,12.09371 -110.1711,17.53277 -65.13984,0.56406 -64.68516,14.63282 -110.42266,30.47344 -28.7875,12.06875 -128.0625,35.78126 -116.69375,67.42505 2.00625,5.58125 5.15625,10.8875 6.0625,16.76875 1.3625,8.61875 -2.10625,17.2125 -5.8,25.06875 -10.1375,21.54375 -22.6125,42.18125 -29.2,65.15 -6.5875,22.8875 -6.375,49.34375 7.73125,68.55625 18.30625,24.96875 24.9875,56.20625 53.81875,67.6625 6.40625,2.54375 39.32501,2.14375 43.62501,7.45625 3.8,5.0125 39.00625,19.90625 57.5,31.2375 0,0 0,0 0,0"
       style="fill:#1e986f;fill-opacity:1;filter:url(#filter4756)"
       id="path12332"
       transform="matrix(1.215,0,0,1.215,-91.893998,33.862323)" /><g
       transform="matrix(0.81,0,0,0.81,182.24398,-60.325429)"
       id="layer1-4"
       inkscape:label="Layer 1"
       style="fill:#dddddd;fill-opacity:1"><path
         inkscape:connector-curvature="0"
         style="fill:#dddddd;fill-opacity:1;fill-rule:evenodd"
         id="Geeko"
         d="m 523.71454,442.05319 c -3.3113,-0.11926 -6.4507,1.05056 -8.8499,3.30076 -2.3993,2.2502 -3.8147,5.2984 -3.9147,8.59916 -0.2297,6.82075 5.1108,12.55937 11.9158,12.81017 3.3095,0.1 6.4647,-1.06985 8.878,-3.32005 2.4098,-2.26072 3.7953,-5.31068 3.9006,-8.59916 0.2297,-6.819 -5.109,-12.54885 -11.9298,-12.79088 z m 2.0205,13.51171 c -3.0307,0 -5.4791,-1.63985 -5.4791,-3.64977 0,-2.02922 2.4484,-3.6603 5.4791,-3.6603 3.0306,0 5.486,1.63108 5.486,3.6603 0,2.00992 -2.4571,3.64977 -5.486,3.64977 z m 27.1532,15.79875 c 0.805,-0.53142 1.3961,-0.97164 1.6451,-1.06985 l 0.2683,-0.41918 c -0.6805,-4.27941 -7.0592,-25.02929 -11.8841,-30.01901 -1.3294,-1.35924 -2.394,-2.69919 -4.5495,-3.96021 -17.4544,-10.17062 -58.863,-16.30912 -60.8027,-16.58974 l -0.3297,0.0912 -0.1246,0.29991 c 0,0 -0.1596,8.57987 -0.1841,9.53923 -4.2286,-1.42062 -34.9719,-11.35096 -63.7913,-12.35066 -24.44,-0.85939 -60.0328,-4.01984 -107.1958,24.98019 l -1.3943,0.86815 c -22.1898,13.84145 -37.5097,30.90998 -45.5178,50.73909 -2.5116,6.24022 -5.8895,20.32019 -2.5414,33.56882 1.4417,5.79123 4.1304,11.61053 7.7556,16.81949 8.194,11.77013 21.9442,19.58006 36.7486,20.89896 20.9042,1.86961 36.7327,-7.51879 42.3626,-25.09945 3.8708,-12.12968 0,-29.92781 -14.8394,-39.00753 -12.07,-7.39075 -25.0486,-5.71056 -32.5779,-0.7296 -6.5313,4.33027 -10.2302,11.05982 -10.1653,18.45056 0.1508,13.11009 11.4439,20.07816 19.5643,20.09921 2.3589,0 4.7284,-0.41041 7.3995,-1.28032 0.9506,-0.28939 1.845,-0.64893 2.8307,-1.25927 l 0.3087,-0.18065 0.1947,-0.12978 -0.065,0.0386 c 1.8503,-1.26102 2.964,-3.31128 2.964,-5.51062 0,-0.59981 -0.084,-1.2084 -0.2561,-1.8205 -0.9593,-3.32005 -4.239,-5.32822 -7.638,-4.70911 l -0.4595,0.10874 -0.6209,0.18942 -0.9015,0.31043 c -1.8696,0.45951 -3.2692,0.49985 -3.5691,0.51038 -0.9506,-0.0614 -5.6246,-1.46097 -5.6246,-6.58048 v -0.0702 c 0,-1.88013 0.7542,-3.19903 1.1698,-3.91986 1.454,-2.28002 5.4352,-4.51794 10.8143,-4.04966 7.0593,0.61034 12.149,4.23031 15.5199,11.05982 3.1289,6.34896 2.3098,14.15888 -2.1099,19.87997 -4.3899,5.66846 -12.2051,8.07826 -22.5985,6.9593 -10.481,-1.1593 -19.3397,-7.19081 -24.3031,-16.57921 -4.8565,-9.17793 -5.1213,-20.05885 -0.6858,-28.41774 10.6091,-20.02905 30.6486,-19.82034 41.6366,-17.92091 16.26,2.8202 34.7579,17.81919 41.3191,35.13852 1.0593,2.76057 1.5995,4.94938 2.0713,6.95053 l 0.7085,2.99033 18.3699,8.96923 0.2403,0.18064 0.4455,-0.0403 0.081,-0.52966 c -0.114,-0.4104 -0.3806,-0.78924 -0.805,-5.92979 -0.3491,-4.56178 -1.0594,-17.05099 5.2282,-23.24035 2.4414,-2.41857 6.1613,-4.57757 9.099,-5.26859 12.0402,-2.94122 26.1588,-0.912 39.5074,14.53947 6.9102,7.98005 10.2794,11.6193 11.9701,13.24863 l 0.5893,0.53142 0.6945,0.51914 c 0.5542,0.30167 22.9545,10.62136 22.9545,10.62136 l 0.4612,-0.11049 0.01,-0.4788 c -0.1491,-0.17013 -14.1992,-18.32781 -11.6982,-33.27943 1.9696,-11.90869 11.4474,-10.83007 24.5575,-9.34981 4.2794,0.49984 9.1516,1.05932 14.1957,1.17157 14.0835,0.0895 29.2544,-2.51152 38.6042,-6.60152 6.049,-2.62903 9.9093,-4.37938 12.3278,-6.57871 0.8699,-0.72084 1.3207,-1.89066 1.7907,-3.14993 l 0.3297,-0.83133 c 0.3911,-1.02074 0.9664,-3.17097 1.219,-4.34957 0.1017,-0.51914 0.1613,-1.06809 -0.2087,-1.35923 l -1.2944,0.24027 c -4.1058,2.47119 -14.3693,7.15048 -23.9647,7.35042 -11.9139,0.24028 -35.8979,-11.9806 -38.3989,-13.28021 l -0.2403,-0.27886 c -0.5893,-1.43992 -4.19,-9.94963 -4.9599,-11.74909 17.2702,11.37903 31.594,17.66836 42.5591,18.63824 12.2068,1.08739 21.7215,-5.57376 25.7852,-8.42202 z m -47.3471,-17.4386 c 0.1753,-4.73016 2.1554,-9.12006 5.6141,-12.34014 3.4603,-3.23061 7.9747,-4.90028 12.7084,-4.74945 9.7602,0.34902 17.4298,8.58864 17.0948,18.33833 -0.1841,4.73016 -2.1642,9.12006 -5.6141,12.32962 -3.4603,3.2499 -7.9642,4.91957 -12.7189,4.75997 -9.7497,-0.35954 -17.4106,-8.57987 -17.0843,-18.33833 z"
         clip-rule="evenodd" /><path
         inkscape:connector-curvature="0"
         style="fill:#dddddd;fill-opacity:1"
         id="path7"
         d="m 376.83604,556.35906 c -7.7836,0 -12.0648,6.58047 -12.0648,11.12998 v 5.84034 c 0,6.69974 5.4738,10.85112 10.5495,10.85112 h 17.8192 c 2.2449,0 2.7149,1.46973 2.7149,2.70971 v 3.76903 c 0,0.39988 -0.081,4.01984 -2.7149,4.01984 h -24.3032 c -2.4151,0 -4.1602,1.6802 -4.1602,3.97951 v 1.04179 c 0,2.29054 1.7451,3.96021 4.1602,3.96021 h 25.6238 c 6.698,0 11.0195,-4.66 11.0195,-11.87888 v -6.30161 c 0,-6.77865 -4.8705,-9.80932 -9.7058,-9.80932 h -17.5334 c -2.6395,0 -3.8356,-1.9801 -3.8356,-3.37968 v -3.47965 c 0,-2.19057 1.4644,-3.46036 4.0251,-3.46036 h 19.4081 c 2.38,0 4.1707,-1.71001 4.1707,-3.97074 v -1.04003 c 0,-2.26949 -1.8205,-3.98126 -4.2513,-3.98126 h -20.9218 z" /><path
         inkscape:connector-curvature="0"
         style="fill:#dddddd;fill-opacity:1"
         id="path9"
         d="m 449.69824,556.35906 c -2.301,0 -4.1548,1.86961 -4.1548,4.17067 v 29.83837 c 0,2.39051 -1.9503,4.31098 -4.311,4.31098 h -13.5451 c -2.3694,0 -4.3092,-1.92047 -4.3092,-4.31098 v -29.83837 c 0,-2.30106 -1.8696,-4.17067 -4.1689,-4.17067 h -1.3101 c -2.3344,0 -4.1707,1.84155 -4.1707,4.17067 v 30.96786 c 0,7.2101 5.6737,12.44011 13.4889,12.44011 h 14.4851 c 7.8047,0 13.4749,-5.22825 13.4749,-12.44011 v -30.96786 c 0,-2.32912 -1.8293,-4.17067 -4.1602,-4.17067 h -1.3189 z" /><path
         inkscape:connector-curvature="0"
         style="fill:#dddddd;fill-opacity:1"
         id="path11"
         d="m 475.63084,556.35906 c -7.7801,0 -12.0736,6.58047 -12.0736,11.12998 v 5.84034 c 0,6.69974 5.4843,10.85112 10.5635,10.85112 h 17.8139 c 2.2485,0 2.7203,1.46973 2.7203,2.70971 v 3.76903 c 0,0.39988 -0.081,4.01984 -2.7203,4.01984 h -24.3137 c -2.4045,0 -4.1601,1.6802 -4.1601,3.97951 v 1.04179 c 0,2.29054 1.7556,3.96021 4.1601,3.96021 h 25.6326 c 6.6998,0 11.0406,-4.66 11.0406,-11.87888 v -6.30161 c 0,-6.77865 -4.8845,-9.80932 -9.7199,-9.80932 h -17.5333 c -2.6466,0 -3.8392,-1.9801 -3.8392,-3.37968 v -3.47965 c 0,-2.19057 1.4645,-3.46036 4.0251,-3.46036 h 19.4187 c 2.3747,0 4.1584,-1.71001 4.1584,-3.97074 v -1.04003 c 0,-2.26949 -1.8188,-3.98126 -4.2601,-3.98126 h -20.913 z" /><path
         inkscape:connector-curvature="0"
         style="fill:#dddddd;fill-opacity:1"
         id="path13"
         d="m 516.59564,556.35906 c -2.3098,0 -4.0549,1.71177 -4.0549,3.98126 v 39.3583 c 0,2.25897 1.7047,3.96021 3.9637,3.96021 h 31.3642 c 2.4151,0 4.1602,-1.66967 4.1602,-3.96021 v -1.04179 c 0,-2.2993 -1.7451,-3.9795 -4.1602,-3.9795 0,0 -24.5329,0 -25.6869,0 0,-1.02074 0,-9.01132 0,-10.01978 1.1435,0 18.8223,0 18.8223,0 2.4098,0 4.1602,-1.69072 4.1602,-3.98126 v -1.04004 c 0,-2.30106 -1.7504,-3.97073 -4.1602,-3.97073 0,0 -17.6788,0 -18.8223,0 0,-1.02951 0,-9.29018 0,-10.3197 1.1435,0 24.3821,0 24.3821,0 2.4063,0 4.1601,-1.65914 4.1601,-3.97073 v -1.04003 c 0,-2.30107 -1.7538,-3.98126 -4.1601,-3.98126 h -29.9682 z" /><g
         transform="matrix(1.7538571,0,0,1.7538571,-611.60275,-134.12571)"
         style="fill:#dddddd;fill-opacity:1"
         id="g15"><path
           inkscape:connector-curvature="0"
           style="fill:#dddddd;fill-opacity:1"
           id="path17"
           d="m 491.254,404.369 c -2.241,0 -4.065,1.744 -4.065,3.894 v 8.461 c 0,2.184 1.765,3.963 3.929,3.963 h 5.473 c 2.164,0 3.929,-1.779 3.929,-3.963 v -8.461 c 0,-2.149 -1.825,-3.894 -4.065,-3.894 h -5.201 z m -1.184,12.019 v -7.726 c 0,-0.906 0.744,-1.647 1.654,-1.647 h 4.264 c 0.89,0 1.648,0.758 1.648,1.647 v 7.726 c 0,0.912 -0.738,1.653 -1.648,1.653 h -4.296 c -0.912,0 -1.622,-0.725 -1.622,-1.653 z" /><path
           inkscape:connector-curvature="0"
           style="fill:#dddddd;fill-opacity:1"
           id="path19"
           d="m 512.91,404.271 c -1.578,0 -2.768,0.564 -3.723,1.026 -0.582,0.279 -1.086,0.52 -1.477,0.52 -0.177,0 -0.328,-0.08 -0.408,-0.211 l -0.364,-0.696 c -0.091,-0.183 -0.456,-0.541 -0.907,-0.541 h -0.541 c -0.52,0 -0.936,0.467 -0.936,1.037 v 21.461 c 0,0.673 0.531,1.203 1.203,1.203 h 0.468 c 0.667,0 1.209,-0.536 1.209,-1.203 v -7.121 c 0,-0.211 0.137,-0.439 0.276,-0.439 0.391,0 0.895,0.229 1.477,0.496 0.955,0.439 2.145,0.98 3.723,0.98 h 0.505 c 2.794,0 4.532,-1.597 4.532,-4.162 v -8.192 c 0,-2.526 -1.775,-4.157 -4.532,-4.157 h -0.505 z m -5.475,11.952 v -7.39 c 0,-1.021 0.798,-1.818 1.818,-1.818 h 3.997 c 1.021,0 1.818,0.798 1.818,1.818 v 7.39 c 0,1.003 -0.818,1.818 -1.818,1.818 h -3.997 c -1.001,0 -1.818,-0.815 -1.818,-1.818 z" /><path
           inkscape:connector-curvature="0"
           style="fill:#dddddd;fill-opacity:1"
           id="path21"
           d="m 526.044,404.369 c -2.241,0 -4.06,1.744 -4.06,3.894 v 8.398 c 0,2.178 1.768,4.025 3.854,4.025 h 5.647 c 0.698,0 1.203,-0.484 1.203,-1.141 v -0.37 c 0,-0.661 -0.505,-1.135 -1.203,-1.135 h -4.639 c -1.3,0 -1.986,-0.639 -1.986,-1.854 0,0 0,-2.115 0,-2.457 0.379,0 8.369,0 8.369,0 1.346,0 2.142,-0.821 2.142,-2.212 v -3.256 c 0,-2.149 -1.822,-3.894 -4.054,-3.894 h -5.273 z m -1.183,4.265 c 0,-0.907 0.713,-1.619 1.621,-1.619 h 4.396 c 0.906,0 1.613,0.712 1.613,1.619 0,0 0,2.28 0,2.622 -0.364,0 -7.258,0 -7.631,0 10e-4,-0.342 10e-4,-2.622 10e-4,-2.622 z" /><path
           inkscape:connector-curvature="0"
           style="fill:#dddddd;fill-opacity:1"
           id="path23"
           d="m 546.997,404.271 c -1.573,0 -2.76,0.564 -3.718,1.021 -0.596,0.28 -1.105,0.525 -1.521,0.525 -0.183,0 -0.257,-0.023 -0.399,-0.269 l -0.331,-0.604 c -0.19,-0.382 -0.513,-0.575 -0.949,-0.575 h -0.465 c -0.562,0 -0.972,0.438 -0.972,1.037 v 14.077 c 0,0.667 0.527,1.203 1.206,1.203 h 0.465 c 0.667,0 1.211,-0.542 1.211,-1.203 v -10.65 c 0,-0.998 0.815,-1.818 1.813,-1.818 h 3.999 c 1.001,0 1.816,0.82 1.816,1.818 v 10.65 c 0,0.667 0.53,1.203 1.203,1.203 h 0.47 c 0.667,0 1.209,-0.542 1.209,-1.203 v -11.055 c 0,-2.526 -1.776,-4.157 -4.535,-4.157 h -0.502 z" /></g><g
         transform="matrix(1.7538571,0,0,1.7538571,-611.60275,-134.12571)"
         style="fill:#dddddd;fill-opacity:1"
         id="g25"><path
           inkscape:connector-curvature="0"
           style="fill:#dddddd;fill-opacity:1"
           id="path27"
           d="m 667.456,415.229 c 1.218,0 2.188,0.99 2.188,2.229 0,1.257 -0.971,2.237 -2.198,2.237 -1.218,0 -2.208,-0.98 -2.208,-2.237 0,-1.238 0.99,-2.229 2.208,-2.229 h 0.01 z m -0.01,0.346 c -0.98,0 -1.782,0.842 -1.782,1.882 0,1.06 0.802,1.891 1.792,1.891 0.99,0.011 1.782,-0.831 1.782,-1.881 0,-1.05 -0.792,-1.892 -1.782,-1.892 h -0.01 z m -0.416,3.179 h -0.396 v -2.485 c 0.208,-0.03 0.406,-0.06 0.703,-0.06 0.377,0 0.624,0.079 0.772,0.188 0.149,0.108 0.229,0.276 0.229,0.515 0,0.326 -0.218,0.524 -0.485,0.604 v 0.021 c 0.218,0.039 0.366,0.237 0.416,0.604 0.06,0.387 0.118,0.535 0.158,0.614 h -0.416 c -0.06,-0.079 -0.119,-0.307 -0.168,-0.634 -0.06,-0.316 -0.218,-0.436 -0.535,-0.436 h -0.277 v 1.069 z m 0,-1.377 h 0.287 c 0.327,0 0.604,-0.118 0.604,-0.426 0,-0.218 -0.158,-0.436 -0.604,-0.436 -0.129,0 -0.218,0.01 -0.287,0.021 v 0.841 z" /></g></g><text
       xml:space="preserve"
       style="font-size:32.40000153px;font-style:normal;font-weight:normal;line-height:125%;letter-spacing:0px;word-spacing:0px;fill:#000000;fill-opacity:1;stroke:none;font-family:Sans"
       x="416.16968"
       y="553.67242"
       id="text3809"
       sodipodi:linespacing="125%"><tspan
         sodipodi:role="line"
         id="tspan3811"
         x="416.16968"
         y="553.67242"
         style="font-size:129.6000061px;font-style:normal;font-variant:normal;font-weight:normal;font-stretch:normal;fill:#dddddd;fill-opacity:1;font-family:FifthLeg;-inkscape-font-specification:FifthLeg">13.2</tspan></text>
<text
       xml:space="preserve"
       style="font-size:32.40000153px;font-style:normal;font-weight:normal;line-height:125%;letter-spacing:0px;word-spacing:0px;fill:#000000;fill-opacity:1;stroke:none;font-family:Sans"
       x="428.15942"
       y="673.11316"
       id="text3813"
       sodipodi:linespacing="125%"><tspan
         sodipodi:role="line"
         id="tspan3815"
         x="428.15942"
         y="673.11316"
         style="font-size:38.88000107px;fill:#ffff66;fill-opacity:1">Out Now!</tspan></text>
<text
       xml:space="preserve"
       style="font-size:32.40000153px;font-style:normal;font-weight:normal;line-height:125%;letter-spacing:0px;word-spacing:0px;fill:#000000;fill-opacity:1;stroke:none;font-family:Sans"
       x="394.15607"
       y="710.18091"
       id="text3817"
       sodipodi:linespacing="125%"><tspan
         sodipodi:role="line"
         id="tspan3819"
         x="394.15607"
         y="710.18091"
         style="font-size:22.68000031px;fill:#ffff66;fill-opacity:1">software.opensuse.org</tspan></text>
</g></svg>