<?xml version="1.0" encoding="UTF-8" standalone="no"?>
<!-- Created with Inkscape (http://www.inkscape.org/) -->

<svg
   xmlns:dc="http://purl.org/dc/elements/1.1/"
   xmlns:cc="http://creativecommons.org/ns#"
   xmlns:rdf="http://www.w3.org/1999/02/22-rdf-syntax-ns#"
   xmlns:svg="http://www.w3.org/2000/svg"
   xmlns="http://www.w3.org/2000/svg"
   xmlns:xlink="http://www.w3.org/1999/xlink"
   xmlns:sodipodi="http://sodipodi.sourceforge.net/DTD/sodipodi-0.dtd"
   xmlns:inkscape="http://www.inkscape.org/namespaces/inkscape"
   width="660"
   height="660"
   id="svg2"
   version="1.1"
   inkscape:version="0.48.2 r9819"
   sodipodi:docname="LogoSunIdea.svg"
   inkscape:export-filename="/Users/josh-andy/Documents/artwork/Marketing Materials/Events/openSUSE Summit/Summit 2013/LogoSunIdea.png"
   inkscape:export-xdpi="300"
   inkscape:export-ydpi="300">
  <defs
     id="defs4">
    <linearGradient
       inkscape:collect="always"
       id="linearGradient5036">
      <stop
         style="stop-color:#5dbece;stop-opacity:1;"
         offset="0"
         id="stop5038" />
      <stop
         style="stop-color:#5dbece;stop-opacity:0;"
         offset="1"
         id="stop5040" />
    </linearGradient>
    <linearGradient
       id="linearGradient5028">
      <stop
         style="stop-color:#5dbece;stop-opacity:1;"
         offset="0"
         id="stop5030" />
      <stop
         style="stop-color:#9ed4de icc-color(Generic-CMYK-Profile, 0.57012284, 0.03767453, 0.11544976, 0.00262455);stop-opacity:1;"
         offset="1"
         id="stop5032" />
    </linearGradient>
    <linearGradient
       id="linearGradient5020">
      <stop
         style="stop-color:#5dbece;stop-opacity:1;"
         offset="0"
         id="stop5022" />
      <stop
         style="stop-color:#9bd7e1;stop-opacity:1;"
         offset="1"
         id="stop5024" />
    </linearGradient>
    <linearGradient
       id="linearGradient5012">
      <stop
         style="stop-color:#ff9900;stop-opacity:1;"
         offset="0"
         id="stop5014" />
      <stop
         style="stop-color:#e68a00;stop-opacity:1;"
         offset="1"
         id="stop5016" />
    </linearGradient>
    <linearGradient
       id="linearGradient3757">
      <stop
         style="stop-color:#ff7f2a;stop-opacity:1;"
         offset="0"
         id="stop3759" />
      <stop
         style="stop-color:#f5c9af icc-color(Generic-CMYK-Profile, 0.0002594, 0.55423819, 0.81283284, 0.00125124);stop-opacity:1;"
         offset="1"
         id="stop3761" />
    </linearGradient>
    <color-profile
       name="Generic-CMYK-Profile"
       xlink:href="/System/Library/ColorSync/Profiles/Generic CMYK Profile.icc"
       id="color-profile2987" />
    <linearGradient
       y2="169.85095"
       x2="402.51791"
       y1="352.34821"
       x1="402.51791"
       gradientUnits="userSpaceOnUse"
       id="linearGradient4037"
       xlink:href="#linearGradient3988"
       inkscape:collect="always" />
    <filter
       color-interpolation-filters="sRGB"
       y="-0.25"
       x="-0.25"
       height="1.5"
       width="1.5"
       inkscape:menu-tooltip="Draws a colored outline around"
       inkscape:menu="Morphology"
       inkscape:label="Color outline"
       id="filter3171">
      <feGaussianBlur
         result="blur"
         stdDeviation="3"
         in="SourceAlpha"
         id="feGaussianBlur3173" />
      <feColorMatrix
         result="result4"
         values="1 0 0 0 0 0 1 0 0 0 0 0 1 0 0 0 0 0 10 -1 "
         id="feColorMatrix3175" />
      <feFlood
         in="blur"
         flood-color="rgb(154,27,74)"
         result="result1"
         id="feFlood3177" />
      <feComposite
         operator="atop"
         in="result1"
         result="result2"
         in2="result4"
         id="feComposite3179" />
      <feComposite
         operator="atop"
         result="result3"
         in="SourceGraphic"
         in2="result2"
         id="feComposite3181" />
    </filter>
    <linearGradient
       y2="169.85095"
       x2="402.51791"
       y1="352.34821"
       x1="402.51791"
       gradientUnits="userSpaceOnUse"
       id="linearGradient3111"
       xlink:href="#linearGradient3988"
       inkscape:collect="always" />
    <linearGradient
       y2="169.85095"
       x2="402.51791"
       y1="352.34821"
       x1="402.51791"
       gradientUnits="userSpaceOnUse"
       id="linearGradient3109"
       xlink:href="#linearGradient3988"
       inkscape:collect="always" />
    <linearGradient
       y2="169.85095"
       x2="402.51791"
       y1="352.34821"
       x1="402.51791"
       gradientUnits="userSpaceOnUse"
       id="linearGradient3107"
       xlink:href="#linearGradient3988"
       inkscape:collect="always" />
    <linearGradient
       y2="169.85095"
       x2="402.51791"
       y1="352.34821"
       x1="402.51791"
       gradientUnits="userSpaceOnUse"
       id="linearGradient3105"
       xlink:href="#linearGradient3988"
       inkscape:collect="always" />
    <linearGradient
       y2="169.85095"
       x2="402.51791"
       y1="352.34821"
       x1="402.51791"
       gradientUnits="userSpaceOnUse"
       id="linearGradient3103"
       xlink:href="#linearGradient3988"
       inkscape:collect="always" />
    <linearGradient
       y2="169.85095"
       x2="402.51791"
       y1="352.34821"
       x1="402.51791"
       gradientUnits="userSpaceOnUse"
       id="linearGradient3101"
       xlink:href="#linearGradient3988"
       inkscape:collect="always" />
    <linearGradient
       y2="169.85095"
       x2="402.51791"
       y1="352.34821"
       x1="402.51791"
       gradientUnits="userSpaceOnUse"
       id="linearGradient3099"
       xlink:href="#linearGradient3988"
       inkscape:collect="always" />
    <linearGradient
       y2="169.85095"
       x2="402.51791"
       y1="352.34821"
       x1="402.51791"
       gradientUnits="userSpaceOnUse"
       id="linearGradient4504"
       xlink:href="#linearGradient3988"
       inkscape:collect="always" />
    <linearGradient
       y2="169.85095"
       x2="402.51791"
       y1="352.34821"
       x1="402.51791"
       gradientUnits="userSpaceOnUse"
       id="linearGradient4183"
       xlink:href="#linearGradient3988"
       inkscape:collect="always" />
    <linearGradient
       y2="169.85095"
       x2="402.51791"
       y1="352.34821"
       x1="402.51791"
       gradientUnits="userSpaceOnUse"
       id="linearGradient4149"
       xlink:href="#linearGradient3988"
       inkscape:collect="always" />
    <linearGradient
       y2="169.85095"
       x2="402.51791"
       y1="352.34821"
       x1="402.51791"
       gradientUnits="userSpaceOnUse"
       id="linearGradient4147"
       xlink:href="#linearGradient3988"
       inkscape:collect="always" />
    <linearGradient
       y2="169.85095"
       x2="402.51791"
       y1="352.34821"
       x1="402.51791"
       gradientUnits="userSpaceOnUse"
       id="linearGradient4145"
       xlink:href="#linearGradient3988"
       inkscape:collect="always" />
    <linearGradient
       y2="169.85095"
       x2="402.51791"
       y1="352.34821"
       x1="402.51791"
       gradientUnits="userSpaceOnUse"
       id="linearGradient4143"
       xlink:href="#linearGradient3988"
       inkscape:collect="always" />
    <linearGradient
       y2="169.85095"
       x2="402.51791"
       y1="352.34821"
       x1="402.51791"
       gradientUnits="userSpaceOnUse"
       id="linearGradient4141"
       xlink:href="#linearGradient3988"
       inkscape:collect="always" />
    <linearGradient
       y2="169.85095"
       x2="402.51791"
       y1="352.34821"
       x1="402.51791"
       gradientUnits="userSpaceOnUse"
       id="linearGradient4139"
       xlink:href="#linearGradient3988"
       inkscape:collect="always" />
    <linearGradient
       y2="169.85095"
       x2="402.51791"
       y1="352.34821"
       x1="402.51791"
       gradientUnits="userSpaceOnUse"
       id="linearGradient4137"
       xlink:href="#linearGradient3988"
       inkscape:collect="always" />
    <linearGradient
       y2="169.85095"
       x2="402.51791"
       y1="352.34821"
       x1="402.51791"
       gradientUnits="userSpaceOnUse"
       id="linearGradient4113"
       xlink:href="#linearGradient3988"
       inkscape:collect="always" />
    <linearGradient
       y2="169.85095"
       x2="402.51791"
       y1="352.34821"
       x1="402.51791"
       gradientUnits="userSpaceOnUse"
       id="linearGradient4111"
       xlink:href="#linearGradient3988"
       inkscape:collect="always" />
    <linearGradient
       y2="169.85095"
       x2="402.51791"
       y1="352.34821"
       x1="402.51791"
       gradientUnits="userSpaceOnUse"
       id="linearGradient4109"
       xlink:href="#linearGradient3988"
       inkscape:collect="always" />
    <linearGradient
       y2="169.85095"
       x2="402.51791"
       y1="352.34821"
       x1="402.51791"
       gradientUnits="userSpaceOnUse"
       id="linearGradient4107"
       xlink:href="#linearGradient3988"
       inkscape:collect="always" />
    <linearGradient
       y2="169.85095"
       x2="402.51791"
       y1="352.34821"
       x1="402.51791"
       gradientUnits="userSpaceOnUse"
       id="linearGradient4105"
       xlink:href="#linearGradient3988"
       inkscape:collect="always" />
    <linearGradient
       y2="169.85095"
       x2="402.51791"
       y1="352.34821"
       x1="402.51791"
       gradientUnits="userSpaceOnUse"
       id="linearGradient4103"
       xlink:href="#linearGradient3988"
       inkscape:collect="always" />
    <linearGradient
       y2="169.85095"
       x2="402.51791"
       y1="352.34821"
       x1="402.51791"
       gradientUnits="userSpaceOnUse"
       id="linearGradient4101"
       xlink:href="#linearGradient3988"
       inkscape:collect="always" />
    <linearGradient
       gradientUnits="userSpaceOnUse"
       y2="169.85095"
       x2="402.51791"
       y1="352.34821"
       x1="402.51791"
       id="linearGradient3994"
       xlink:href="#linearGradient3988"
       inkscape:collect="always" />
    <font
       vert-adv-y="90"
       vert-origin-y="90"
       vert-origin-x="45"
       horiz-origin-y="0"
       horiz-origin-x="0"
       inkscape:label="font 1"
       id="font3017"
       horiz-adv-x="1024">
      <font-face
         font-family="SVGFont 1"
         id="font-face3019"
         units-per-em="1024" />
      <missing-glyph
         id="missing-glyph3021"
         d="M0,0h1000v1024h-1000z" />
    </font>
    <inkscape:path-effect
       is_visible="true"
       id="path-effect4035"
       effect="spiro" />
    <inkscape:path-effect
       fuse_tolerance="0"
       vertical_pattern="false"
       prop_units="false"
       tang_offset="0"
       normal_offset="0"
       spacing="0"
       scale_y_rel="false"
       prop_scale="1"
       copytype="single_stretched"
       pattern="M 0,0 0,10 10,5 z"
       is_visible="true"
       id="path-effect4037"
       effect="skeletal" />
    <inkscape:path-effect
       is_visible="true"
       id="path-effect3025"
       effect="spiro" />
    <inkscape:path-effect
       fuse_tolerance="0"
       vertical_pattern="false"
       prop_units="false"
       tang_offset="0"
       normal_offset="0"
       spacing="0"
       scale_y_rel="false"
       prop_scale="1"
       copytype="single_stretched"
       pattern="M 0,0 0,10 10,5 z"
       is_visible="true"
       id="path-effect3027"
       effect="skeletal" />
    <inkscape:path-effect
       is_visible="true"
       id="path-effect3805"
       effect="spiro" />
    <inkscape:path-effect
       fuse_tolerance="0"
       vertical_pattern="false"
       prop_units="false"
       tang_offset="0"
       normal_offset="0"
       spacing="0"
       scale_y_rel="false"
       prop_scale="1"
       copytype="single_stretched"
       pattern="M 0,0 0,10 10,5 z"
       is_visible="true"
       id="path-effect3807"
       effect="skeletal" />
    <inkscape:path-effect
       is_visible="true"
       id="path-effect3914"
       effect="spiro" />
    <inkscape:path-effect
       fuse_tolerance="0"
       vertical_pattern="false"
       prop_units="false"
       tang_offset="0"
       normal_offset="0"
       spacing="0"
       scale_y_rel="false"
       prop_scale="1"
       copytype="single_stretched"
       pattern="M 0,0 0,10 10,5 z"
       is_visible="true"
       id="path-effect3916"
       effect="skeletal" />
    <inkscape:path-effect
       is_visible="true"
       id="path-effect3946"
       effect="spiro" />
    <inkscape:path-effect
       fuse_tolerance="0"
       vertical_pattern="false"
       prop_units="false"
       tang_offset="0"
       normal_offset="0"
       spacing="0"
       scale_y_rel="false"
       prop_scale="1"
       copytype="single_stretched"
       pattern="M 0,0 0,10 10,5 z"
       is_visible="true"
       id="path-effect3948"
       effect="skeletal" />
    <inkscape:path-effect
       is_visible="true"
       id="path-effect3952"
       effect="spiro" />
    <inkscape:path-effect
       fuse_tolerance="0"
       vertical_pattern="false"
       prop_units="false"
       tang_offset="0"
       normal_offset="0"
       spacing="0"
       scale_y_rel="false"
       prop_scale="1"
       copytype="single_stretched"
       pattern="M 0,0 0,10 10,5 z"
       is_visible="true"
       id="path-effect3954"
       effect="skeletal" />
    <inkscape:path-effect
       is_visible="true"
       id="path-effect3958"
       effect="spiro" />
    <inkscape:path-effect
       fuse_tolerance="0"
       vertical_pattern="false"
       prop_units="false"
       tang_offset="0"
       normal_offset="0"
       spacing="0"
       scale_y_rel="false"
       prop_scale="1"
       copytype="single_stretched"
       pattern="M 0,0 0,10 10,5 z"
       is_visible="true"
       id="path-effect3960"
       effect="skeletal" />
    <inkscape:path-effect
       is_visible="true"
       id="path-effect3964"
       effect="spiro" />
    <inkscape:path-effect
       fuse_tolerance="0"
       vertical_pattern="false"
       prop_units="false"
       tang_offset="0"
       normal_offset="0"
       spacing="0"
       scale_y_rel="false"
       prop_scale="1"
       copytype="single_stretched"
       pattern="M 0,0 0,10 10,5 z"
       is_visible="true"
       id="path-effect3966"
       effect="skeletal" />
    <inkscape:path-effect
       is_visible="true"
       id="path-effect3970"
       effect="spiro" />
    <inkscape:path-effect
       fuse_tolerance="0"
       vertical_pattern="false"
       prop_units="false"
       tang_offset="0"
       normal_offset="0"
       spacing="0"
       scale_y_rel="false"
       prop_scale="1"
       copytype="single_stretched"
       pattern="M 0,0 0,10 10,5 z"
       is_visible="true"
       id="path-effect3972"
       effect="skeletal" />
    <inkscape:path-effect
       is_visible="true"
       id="path-effect3976"
       effect="spiro" />
    <inkscape:path-effect
       fuse_tolerance="0"
       vertical_pattern="false"
       prop_units="false"
       tang_offset="0"
       normal_offset="0"
       spacing="0"
       scale_y_rel="false"
       prop_scale="1"
       copytype="single_stretched"
       pattern="M 0,0 0,10 10,5 z"
       is_visible="true"
       id="path-effect3978"
       effect="skeletal" />
    <linearGradient
       id="linearGradient3980">
      <stop
         id="stop3982"
         offset="0"
         style="stop-color:#d6ed00;stop-opacity:1;" />
      <stop
         id="stop3984"
         offset="1"
         style="stop-color:#d6ed00;stop-opacity:0;" />
    </linearGradient>
    <linearGradient
       id="linearGradient3988">
      <stop
         id="stop3990"
         offset="0"
         style="stop-color:#f3ffc5;stop-opacity:1;" />
      <stop
         id="stop3992"
         offset="1"
         style="stop-color:#ffffff;stop-opacity:1;" />
    </linearGradient>
    <linearGradient
       inkscape:collect="always"
       xlink:href="#linearGradient3988"
       id="linearGradient4213"
       gradientUnits="userSpaceOnUse"
       x1="402.51791"
       y1="352.34821"
       x2="402.51791"
       y2="169.85095" />
    <linearGradient
       inkscape:collect="always"
       xlink:href="#linearGradient3988"
       id="linearGradient4265"
       gradientUnits="userSpaceOnUse"
       x1="402.51791"
       y1="352.34821"
       x2="402.51791"
       y2="169.85095" />
    <linearGradient
       inkscape:collect="always"
       xlink:href="#linearGradient3988"
       id="linearGradient4669"
       gradientUnits="userSpaceOnUse"
       x1="402.51791"
       y1="352.34821"
       x2="402.51791"
       y2="169.85095" />
    <linearGradient
       inkscape:collect="always"
       xlink:href="#linearGradient3988"
       id="linearGradient4763"
       gradientUnits="userSpaceOnUse"
       x1="402.51791"
       y1="352.34821"
       x2="402.51791"
       y2="169.85095" />
    <linearGradient
       inkscape:collect="always"
       xlink:href="#linearGradient3988"
       id="linearGradient4797"
       gradientUnits="userSpaceOnUse"
       x1="402.51791"
       y1="352.34821"
       x2="402.51791"
       y2="169.85095" />
    <linearGradient
       inkscape:collect="always"
       xlink:href="#linearGradient3988"
       id="linearGradient4886"
       gradientUnits="userSpaceOnUse"
       x1="402.51791"
       y1="352.34821"
       x2="402.51791"
       y2="169.85095" />
    <linearGradient
       inkscape:collect="always"
       xlink:href="#linearGradient3988"
       id="linearGradient4894"
       gradientUnits="userSpaceOnUse"
       x1="402.51791"
       y1="352.34821"
       x2="402.51791"
       y2="169.85095" />
    <linearGradient
       inkscape:collect="always"
       xlink:href="#linearGradient3988"
       id="linearGradient4924"
       gradientUnits="userSpaceOnUse"
       x1="402.51791"
       y1="352.34821"
       x2="402.51791"
       y2="169.85095" />
    <linearGradient
       inkscape:collect="always"
       xlink:href="#linearGradient3988"
       id="linearGradient4932"
       gradientUnits="userSpaceOnUse"
       x1="402.51791"
       y1="352.34821"
       x2="402.51791"
       y2="169.85095" />
    <linearGradient
       inkscape:collect="always"
       xlink:href="#linearGradient3988"
       id="linearGradient4974"
       gradientUnits="userSpaceOnUse"
       x1="402.51791"
       y1="352.34821"
       x2="402.51791"
       y2="169.85095" />
    <linearGradient
       inkscape:collect="always"
       xlink:href="#linearGradient3988"
       id="linearGradient4976"
       gradientUnits="userSpaceOnUse"
       x1="402.51791"
       y1="352.34821"
       x2="402.51791"
       y2="169.85095" />
    <linearGradient
       inkscape:collect="always"
       xlink:href="#linearGradient3988"
       id="linearGradient4978"
       gradientUnits="userSpaceOnUse"
       x1="402.51791"
       y1="352.34821"
       x2="402.51791"
       y2="169.85095" />
    <linearGradient
       inkscape:collect="always"
       xlink:href="#linearGradient3988"
       id="linearGradient4980"
       gradientUnits="userSpaceOnUse"
       x1="402.51791"
       y1="352.34821"
       x2="402.51791"
       y2="169.85095" />
    <linearGradient
       inkscape:collect="always"
       xlink:href="#linearGradient3988"
       id="linearGradient4982"
       gradientUnits="userSpaceOnUse"
       x1="402.51791"
       y1="352.34821"
       x2="402.51791"
       y2="169.85095" />
    <linearGradient
       inkscape:collect="always"
       xlink:href="#linearGradient3988"
       id="linearGradient4984"
       gradientUnits="userSpaceOnUse"
       x1="402.51791"
       y1="352.34821"
       x2="402.51791"
       y2="169.85095" />
    <linearGradient
       inkscape:collect="always"
       xlink:href="#linearGradient3988"
       id="linearGradient4986"
       gradientUnits="userSpaceOnUse"
       x1="402.51791"
       y1="352.34821"
       x2="402.51791"
       y2="169.85095" />
    <linearGradient
       inkscape:collect="always"
       xlink:href="#linearGradient3988"
       id="linearGradient4988"
       gradientUnits="userSpaceOnUse"
       x1="402.51791"
       y1="352.34821"
       x2="402.51791"
       y2="169.85095" />
    <radialGradient
       inkscape:collect="always"
       xlink:href="#linearGradient5012"
       id="radialGradient5018"
       cx="370.40399"
       cy="592.07043"
       fx="370.40399"
       fy="592.07043"
       r="240"
       gradientTransform="matrix(1.4570089,0,0,1.276116,-169.29088,-174.69957)"
       gradientUnits="userSpaceOnUse" />
    <linearGradient
       inkscape:collect="always"
       xlink:href="#linearGradient5020"
       id="linearGradient5026"
       x1="225.64099"
       y1="692.53665"
       x2="444.34076"
       y2="692.53662"
       gradientUnits="userSpaceOnUse" />
    <linearGradient
       inkscape:collect="always"
       xlink:href="#linearGradient5028"
       id="linearGradient5034"
       x1="254.64099"
       y1="721.97417"
       x2="383.26685"
       y2="721.97418"
       gradientUnits="userSpaceOnUse" />
    <linearGradient
       inkscape:collect="always"
       xlink:href="#linearGradient5036"
       id="linearGradient5042"
       x1="295.54724"
       y1="751.80228"
       x2="521.02417"
       y2="751.80231"
       gradientUnits="userSpaceOnUse" />
  </defs>
  <sodipodi:namedview
     id="base"
     pagecolor="#ffffff"
     bordercolor="#666666"
     borderopacity="1.0"
     inkscape:pageopacity="0.0"
     inkscape:pageshadow="2"
     inkscape:zoom="1.2075758"
     inkscape:cx="330"
     inkscape:cy="330"
     inkscape:document-units="px"
     inkscape:current-layer="layer1"
     showgrid="false"
     inkscape:window-width="1920"
     inkscape:window-height="985"
     inkscape:window-x="0"
     inkscape:window-y="0"
     inkscape:window-maximized="1"
     fit-margin-top="1"
     fit-margin-left="1"
     fit-margin-right="1"
     fit-margin-bottom="1"
     units="in" />
  <metadata
     id="metadata7">
    <rdf:RDF>
      <cc:Work
         rdf:about="">
        <dc:format>image/svg+xml</dc:format>
        <dc:type
           rdf:resource="http://purl.org/dc/dcmitype/StillImage" />
        <dc:title></dc:title>
      </cc:Work>
    </rdf:RDF>
  </metadata>
  <g
     inkscape:label="Layer 1"
     inkscape:groupmode="layer"
     id="layer1"
     transform="translate(-42.04724,-196.18109)">
    <g
       id="g3850"
       transform="matrix(1.0984236,0,0,1.0984236,1040.7148,1376.0597)"
       style="fill:#000000;fill-opacity:1;stroke:none">
      <g
         style="font-size:154.62028503px;font-style:normal;font-weight:normal;line-height:125%;letter-spacing:0px;word-spacing:0px;fill:#000000;fill-opacity:1;stroke:none;font-family:Sans"
         id="g3854" />
      <g
         id="g3868"
         transform="matrix(2.9344043,0,0,2.9344043,-1890.4451,-343.22392)"
         style="fill:#000000;fill-opacity:1;stroke:none" />
    </g>
    <text
       xml:space="preserve"
       style="font-size:21.54137993px;font-style:normal;font-weight:normal;line-height:125%;letter-spacing:0px;word-spacing:0px;fill:#000000;fill-opacity:1;stroke:none;font-family:Sans"
       x="-456.96356"
       y="28.553192"
       id="text4725"
       sodipodi:linespacing="125%"><tspan
         sodipodi:role="line"
         id="tspan4727"
         x="-456.96356"
         y="28.553192">002356,31658D,5DBECE,A9FFFC,FF9900</tspan></text>
    <path
       inkscape:connector-curvature="0"
       style="fill:url(#radialGradient5018);fill-opacity:1;stroke:none"
       d="m 372.04724,286.18109 c -132.54834,0 -240,107.45166 -240,240 0,71.90029 31.62895,136.42018 81.71875,180.40625 48.75263,-38.52068 99.12828,-61.09997 151.375,-63.21875 4.19129,-0.17 8.38806,-0.2221 12.59375,-0.125 50.04244,1.15549 101.10143,21.36767 153,63 49.8591,-43.97793 81.3125,-108.35294 81.3125,-180.0625 0,-132.54834 -107.45166,-240 -240,-240 z"
       id="path4723" />
    <path
       inkscape:connector-curvature="0"
       style="fill:url(#linearGradient5026);fill-opacity:1;stroke:none"
       d="m 371.57849,658.21234 c -1.94308,0.0177 -3.87438,0.0776 -5.8125,0.15625 -47.41717,1.92293 -94.04477,22.18985 -140.125,58 4.77879,3.68416 9.69545,7.17775 14.75,10.5 40.41267,-26.68925 81.96774,-42.14004 124.75,-43.875 4.19129,-0.17 8.38806,-0.2221 12.59375,-0.125 41.5318,0.95898 83.76211,15.01662 126.59375,43.5625 5.00147,-3.3117 9.86355,-6.80217 14.59375,-10.46875 -51.01933,-40.34783 -99.93267,-58.18116 -147.34375,-57.75 z"
       id="path4721" />
    <path
       inkscape:connector-curvature="0"
       style="fill:url(#linearGradient5034);fill-opacity:1;stroke:none"
       d="m 371.57849,697.80609 c -1.94308,0.0177 -3.87438,0.0776 -5.8125,0.15625 -37.48938,1.52032 -74.49758,14.52248 -111.125,37.59375 6.88129,3.86705 13.97032,7.40721 21.25,10.59375 29.14961,-14.16648 58.88937,-22.33128 89.25,-23.5625 4.19129,-0.1699 8.38806,-0.19085 12.59375,-0.0937 30.06818,0.69428 60.51668,8.2678 91.28125,23.21875 7.26275,-3.21717 14.35544,-6.76216 21.21875,-10.65625 -40.75206,-25.94186 -80.19997,-37.59972 -118.65625,-37.25 z"
       id="path4719" />
    <path
       inkscape:connector-curvature="0"
       style="fill:url(#linearGradient5042);fill-opacity:1;stroke:none"
       d="m 371.57849,737.43109 c -1.94308,0.0177 -3.87438,0.0776 -5.8125,0.15625 -23.5849,0.95645 -46.98955,6.44363 -70.21875,16.125 24.0276,8.0739 49.75081,12.46875 76.5,12.46875 27.16452,0 53.25522,-4.54706 77.59375,-12.875 -26.51256,-11.03006 -52.51352,-16.10734 -78.0625,-15.875 z"
       id="path2985" />
    <g
       id="g4837"
       transform="matrix(0.8828807,0,0,0.8828807,31.503081,104.22769)">
      <path
         sodipodi:nodetypes="cscccccssccccccsssssscsssccccszzzsssc"
         inkscape:connector-curvature="0"
         id="path3912"
         d="m 301.07539,425.53712 c -11.6295,-0.009 -48.6982,-1.10558 -48.6982,-1.10558 -17.8952,-0.15037 -52.02969,-12.11177 -57.80061,21.02003 0.21375,9.30674 0.29589,22.29308 19.34932,28.27195 1.13991,0.74404 5.37145,16.58711 1.93362,27.89299 -7.48697,0.0922 -9.45448,0.1877 -14.22254,-6.24518 -2.93817,0.61116 -6.74965,6.17775 -7.58086,10.1158 1.0284,6.03314 2.03203,15.75952 5.6551,21.35936 2.51223,3.88286 28.25256,20.6678 49.0901,0.88385 2.64051,-2.50701 7.59402,-5.64081 7.98373,-9.40319 l 1.84829,-11.06149 5.83276,1.5253 c 6.16013,2.64801 9.85239,3.02293 16.30275,3.18071 2.41877,-0.61117 6.46735,-0.23363 9.639,-3.10331 1.30406,-1.42759 3.14626,-3.9314 4.97792,-6.41414 0,0 23.64305,0.15085 25.20019,-0.85576 3.31677,-2.14403 1.86209,-3.01345 6.91925,-5.88476 5.17871,-2.94043 12.23515,-3.53886 10.91935,-1.0117 -9.93065,19.07268 -7.36167,35.10473 -3.61245,46.51907 7.14827,21.76279 29.2378,31.55242 51.30001,34.06685 26.48957,3.01905 46.30217,-18.5694 47.11677,-39.95232 0.9235,-24.23724 -12.6053,-43.2681 -48.55787,-40.27247 3.49351,0.59616 3.68787,-3.00553 11.75597,-2.6882 8.0682,0.3174 25.5217,0.90748 34.8347,-0.88102 15.4759,-2.97207 12.664,9.07693 18.092,9.94925 7.6455,1.2287 20.4243,0.56546 23.2583,-0.0389 0.9215,3.547 1.5614,9.88755 6.7636,11.67393 l 31.6999,-0.15983 c 8.0991,-0.0106 6.4008,1.79805 7.3282,3.23385 -0.7482,5.95884 0.063,15.50133 4.7129,17.37361 6.4333,2.59034 32.7534,6.00872 37.7116,-1.75624 4.9583,-7.76496 0.8481,-67.33178 4.4358,-70.26239 3.5877,-2.9306 7.9192,1.88862 10.4068,-3.63947 2.4877,-5.5281 2.5376,-31.08934 -1.8049,-31.12875 -32.296,-0.29318 -69.0588,-2.8734 -101.356,-2.91052 -64.0517,-0.0736 -107.38276,1.76067 -171.4345,1.70862 z"
         style="fill:#002356;fill-opacity:1;fill-rule:evenodd;stroke:none" />
      <path
         sodipodi:nodetypes="cccccccccccccsccccccscccccccccccc"
         inkscape:connector-curvature="0"
         id="rect4030"
         d="m 343.65754,498.57341 c -2.39967,5.95077 -5.61137,19.36269 -2.42393,32.0034 1.38167,5.52661 3.95709,11.05039 7.42329,16.02066 7.805,11.22282 20.91396,18.6991 35.03327,19.9595 19.93682,1.78164 35.04242,-7.17481 40.41142,-23.93626 3.6965,-11.57544 -0.01,-28.56443 -14.1648,-37.23001 -11.5015,-7.05361 -23.88177,-5.42048 -31.05657,-0.68171 -6.22947,4.13284 -9.76841,10.55773 -9.69575,17.61134 0.14547,12.49538 10.90167,19.15206 18.63401,19.16416 2.26637,0 4.53726,-0.41476 7.08241,-1.24979 0.909,-0.27877 1.7558,-0.58025 2.689,-1.17408 l 0.303,-0.1894 0.1136,-0.0757 c 1.7694,-1.18774 2.8405,-3.16777 2.8406,-5.26447 0,-0.58053 -0.1077,-1.16163 -0.2652,-1.74216 -0.9089,-3.16323 -4.0237,-5.06296 -7.27175,-4.46913 l -0.4166,0.0757 -0.606,0.22726 -0.87112,0.26511 c -1.78156,0.44844 -3.12991,0.49237 -3.40868,0.4923 -0.90896,-0.0616 -5.37802,-1.40282 -5.37802,-6.28699 l 0,-0.0757 c 0.012,-1.79253 0.73626,-3.03177 1.13622,-3.71171 1.3695,-2.18147 5.17504,-4.32366 10.30165,-3.86313 6.7385,0.56843 11.597,4.0219 14.8087,10.529 2.9936,6.05974 2.2103,13.50878 -2.0073,18.97476 -4.1813,5.41751 -11.6364,7.70779 -21.55022,6.62795 -9.99871,-1.1029 -18.45217,-6.83583 -23.17885,-15.7934 -4.64176,-8.75041 -4.04977,-17.70686 -0.6817,-27.11768 21.06827,-45.92092 21.27048,-40.04203 29.67668,-42.7303 -18.61137,-12.32841 -9.68598,-33.20443 -2.5583,-24.74306 l -3.12057,-3.67457 c -10.95254,3.90855 -32.92178,39.56926 -41.79849,62.05819 z"
         style="fill:#8dbf20;fill-opacity:1;stroke:none" />
      <g
         transform="matrix(0.49546419,0,0,0.49546419,201.30904,352.17479)"
         id="text3146"
         style="font-size:154.62028503px;font-style:normal;font-weight:normal;line-height:125%;letter-spacing:0px;word-spacing:0px;fill:url(#linearGradient4988);fill-opacity:1;stroke:#8dbf20;stroke-width:6.00043344;stroke-linecap:round;stroke-linejoin:round;stroke-miterlimit:4;stroke-opacity:1;stroke-dasharray:none;font-family:Sans">
        <path
           sodipodi:nodetypes="ccccccscccccccccccccccccccsccccccccccccccccccccccccccccccccccccccc"
           inkscape:connector-curvature="0"
           id="path3825"
           style="font-variant:normal;font-weight:bold;font-stretch:normal;fill:url(#linearGradient4974);fill-opacity:1;stroke:#8dbf20;stroke-width:6.00043344;stroke-linecap:round;stroke-linejoin:round;stroke-miterlimit:4;stroke-opacity:1;stroke-dasharray:none;font-family:Sigmar One;-inkscape-font-specification:Sigmar One Bold"
           d="m 98.44076,315.99759 c -0.402761,4.17759 -1.409402,7.9525 -3.019928,11.32473 -1.560395,3.32194 -3.573678,6.26636 -6.039855,8.83329 -2.416034,2.56694 -5.23463,4.78156 -8.455797,6.64384 -3.221338,1.86229 -6.669085,3.37225 -10.343251,4.52989 -3.674317,1.20797 -7.549887,2.08878 -11.626721,2.64244 -4.02663,0.55365 -8.078362,0.83047 -12.155208,0.83048 -3.774957,-10e-6 -7.524697,-0.2265 -11.249229,-0.67949 -3.724615,-0.40266 -7.323358,-1.00664 -10.796241,-1.81195 -3.472943,-0.75499 -6.769694,-1.7113 -9.890262,-2.86894 -3.070277,-1.20796 -5.8385409,-2.56693 -8.3048009,-4.0769 C 5.2004895,337.03643 4.1686819,332.60721 3.4640415,328.0773 2.7593839,323.4971 2.1050669,318.86655 1.5010887,314.18564 l 0,-0.45299 c 0.1006575,-0.50329 0.3019858,-1.00661 0.6039855,-1.50997 0.3523172,-0.55362 0.8053059,-0.98144 1.3589673,-1.28347 3.7245649,2.31531 7.3988065,4.07694 11.0227355,5.28488 3.674221,1.208 7.751119,1.81198 12.230706,1.81195 0.905945,3e-5 2.164247,0.0504 3.774909,0.151 1.610591,0.10069 3.246383,0.0755 4.907382,-0.0755 1.660918,-0.15097 3.196046,-0.50329 4.60539,-1.05697 1.459585,-0.55363 6.499067,-4.35818 7.002436,-5.61652 7.28635,-73.55801 -9.629819,-74.52801 -10.395864,-77.59219 -4.267915,-1.61059 -16.236126,-11.46306 -18.803039,-13.3254 -2.566959,-1.86224 -4.831902,-3.97618 -6.794837,-6.34184 -1.9126348,-2.41589 -3.4477631,-5.13382 -4.6053892,-8.15381 -1.1073172,-3.01986 -1.66097,-6.46761 -1.6609601,-10.34325 -9.9e-6,-4.9828 0.7549712,-9.33653 2.2649456,-13.06119 1.50995,-3.72448 3.5483987,-6.92057 6.1153527,-9.58827 2.61725,-2.6675 5.66234,-4.85695 9.135281,-6.56834 3.472886,-1.76152 7.147127,-3.12049 11.022735,-4.0769 3.925863,-1.00654 7.952429,-1.71119 12.07971,-2.11395 4.127179,-0.40255 8.153745,-0.60388 12.07971,-0.60398 4.127167,1e-4 7.952405,0.17627 11.475724,0.52848 3.523171,0.35243 6.794756,0.78026 9.814764,1.28347 3.070173,0.4531 5.913935,0.93125 8.531295,1.43447 2.667508,0.45309 5.209277,0.80541 7.625317,1.05697 0.25156,0.0504 0.478054,0.20143 0.679483,0.45299 0.25156,0.20143 0.478054,0.45309 0.679484,0.75498 0.201227,0.25177 0.402555,0.50343 0.603986,0.75498 0.201226,0.20143 0.42772,0.32726 0.679483,0.3775 0.100562,1e-4 0.150894,-0.0251 0.150997,-0.0755 -1.03e-4,-0.0502 0.05023,-0.0754 0.150996,-0.0755 0.150893,2.76836 0.377388,5.51146 0.679484,8.2293 0.352221,2.71803 0.528383,5.48629 0.528487,8.3048 -1.04e-4,0.90606 -0.02527,1.83721 -0.0755,2.79344 -0.05044,0.95639 -0.201433,1.88753 -0.452989,2.79343 -0.201432,0.90605 -0.528591,1.7617 -0.981477,2.56694 -0.453091,0.75505 -1.082242,1.3842 -1.887454,1.88745 l -14.193659,-1.73646 c -0.402743,8e-5 -0.906064,-0.0251 -1.509964,-0.0755 -0.60407,-0.0503 -1.333885,-0.0754 -2.189447,-0.0755 -1.661042,7e-5 -3.598827,0.1259 -5.813361,0.37749 -2.214688,0.2014 -4.328635,0.47823 -6.341847,0.83048 -1.963022,0.30206 -3.62398,0.60406 -4.982881,0.90598 -1.359031,0.30206 -2.038514,0.52856 -2.038451,0.67948 -6.3e-5,1.51003 0.478091,2.84383 1.434466,4.0014 1.006576,1.15771 2.18938,2.16435 3.548415,3.01993 1.358897,0.80538 2.717863,1.48486 4.076902,2.03845 1.409225,0.50339 2.491365,0.88088 3.246422,1.13247 3.925825,1.10737 9.600067,4.66767 13.022735,6.68089 3.472826,1.96301 6.467584,4.20279 8.984284,6.71934 2.516508,2.46632 5.664056,8.85174 7.123791,11.61996 3.19867,6.82632 -0.970091,79.66776 -0.969987,82.23466 -1.04e-4,0.85568 -0.05044,1.63583 -0.150996,2.34044 -0.05044,0.70469 -0.201433,1.56033 -0.452989,2.56694" />
        <path
           sodipodi:nodetypes="ccccscccccsccscccccccccccccccccccccccccccccccccccccccccccccccsccccccc"
           inkscape:connector-curvature="0"
           id="path3827"
           style="font-variant:normal;font-weight:bold;font-stretch:normal;fill:url(#linearGradient4976);fill-opacity:1;stroke:#8dbf20;stroke-width:6.00043344;stroke-linecap:round;stroke-linejoin:round;stroke-miterlimit:4;stroke-opacity:1;stroke-dasharray:none;font-family:Sigmar One;-inkscape-font-specification:Sigmar One Bold"
           d="m 183.98021,281.66697 c -2.61735,1.30864 -5.41078,16.51661 -8.3803,17.62392 -2.96966,1.10731 -6.01475,2.06361 -9.13528,2.86893 -3.12065,0.80531 -6.31674,1.4093 -9.58827,1.81196 -3.2213,0.45298 -6.41739,0.67948 -9.58827,0.67948 -5.18425,0 -9.5883,-0.60399 -13.21218,-1.81196 -3.62394,-1.15764 -6.64387,-2.79343 -9.05979,-4.90738 -2.41595,-2.16428 -4.30341,-4.70605 -5.66236,-7.62532 -1.35898,-2.96958 -2.39079,-6.216 -3.09543,-9.73926 -0.65432,-3.57356 -1.05698,-7.34846 -1.20797,-11.32473 -0.151,-4.02653 -0.2265,-8.15376 -0.22649,-12.3817 -1e-5,-4.07686 0.10065,-42.17892 0.30199,-46.30621 0.20132,-4.1775 0.42782,-8.38023 0.67949,-12.60819 0.30198,-4.22783 0.55364,-8.50606 0.75498,-12.8347 0.20132,-4.32847 0.30198,-8.70736 0.30199,-13.13668 -1e-5,-1.15754 -0.10067,-2.23968 -0.30199,-3.24642 -0.20134,-1.00655 -0.30201,-2.08868 -0.302,-3.24642 -1e-5,-1.10721 0.52848,-1.81186 1.58547,-2.11395 1.10729,-0.30189 2.31526,-0.45289 3.62391,-0.45299 3.01991,1e-4 6.065,-0.0251 9.13528,-0.0755 3.12056,-0.0502 6.26632,-0.0251 9.43727,0.0755 3.17089,0.0504 6.36698,0.2266 9.58827,0.52848 3.27154,0.3021 6.5683,0.78026 9.89027,1.43447 1.40924,0.40276 2.54171,0.85575 3.39741,1.35897 0.90592,0.45309 1.58541,1.08224 2.03845,1.88745 0.50327,0.75508 0.83043,1.78689 0.98148,3.09543 0.15094,1.2584 0.22644,2.86902 0.2265,4.83188 -6e-5,4.12732 -0.0504,8.35522 -0.151,12.6837 -0.10072,4.2783 -0.22655,8.83335 -0.37749,13.66517 -0.15106,4.83194 -0.27689,43.99098 -0.37749,49.47713 -0.10073,5.48624 -0.15106,11.47576 -0.151,17.96857 -6e-5,3.77493 0.12577,6.5432 0.37749,8.3048 0.30194,1.71131 1.15758,2.56695 2.56694,2.56693 1.61056,2e-5 3.19603,-0.22647 4.75639,-0.67948 1.56022,-0.5033 2.99469,-1.03179 4.30339,-1.58546 1.50989,-0.6543 2.96952,-15.40928 4.3789,-16.26495 l 0,-82.135 c -0.20141,-1.15755 -0.3524,-2.34036 -0.45299,-3.54842 -0.10074,-1.20788 -0.17624,-2.31518 -0.2265,-3.32192 -0.0504,-1.05688 -0.0756,-1.93769 -0.0755,-2.64244 -8e-5,-0.75488 -8e-5,-1.23303 0,-1.43446 -8e-5,-0.95621 0.0503,-1.73636 0.15099,-2.34045 0.15092,-0.60388 0.42775,-1.08203 0.83048,-1.43446 0.45292,-0.40256 1.08207,-0.67938 1.88746,-0.83048 0.80523,-0.15089 1.91254,-0.22639 3.32192,-0.2265 1.05689,1.1e-4 2.64235,-0.0251 4.75638,-0.0755 2.1642,-0.10056 4.42914,-0.20123 6.79484,-0.302 2.36551,-0.15089 4.60529,-0.27672 6.71934,-0.37749 2.11385,-0.10056 3.64897,-0.20122 4.60539,-0.30199 0.20122,1e-4 0.80521,0.0253 1.81195,0.0755 1.05687,0.0504 2.18934,0.10077 3.39742,0.15099 1.35886,0.10077 2.91915,0.17627 4.68089,0.2265 3.52313,0.40276 6.26623,0.83058 8.2293,1.28347 2.01316,0.40276 3.49796,0.80541 4.45439,1.20797 1.00652,0.40276 1.6105,0.83058 1.81196,1.28347 0.25153,0.40275 0.37736,0.83058 0.37749,1.28347 -1.3e-4,7.80157 -0.10079,15.52754 -0.30199,23.17794 -0.20146,7.60022 -0.42795,15.20036 -0.67948,22.80045 -0.20146,7.54987 -0.40279,35.12484 -0.60399,42.72496 -0.20145,7.60017 -0.30212,15.27581 -0.30199,23.02694 -1.3e-4,2.11396 -0.45312,3.67425 -1.35897,4.68089 -0.9061,1.00664 -2.36573,1.50997 -4.37889,1.50997 -0.75511,0 -1.83725,0.0252 -3.24643,0.0755 -1.35908,0 -2.91937,0.0503 -4.68088,0.151 -1.71141,0.0503 -3.54853,0.12583 -5.51137,0.22649 -1.96306,0.0503 -3.90084,0.10067 -5.81336,0.151 -4.52999,0.20133 -9.38704,0.40266 -14.57115,0.60399 -2.56702,0 -4.58031,-0.47816 -6.03986,-1.43447 -1.45971,-0.95631 -2.49152,-2.54177 -3.09542,-4.75639" />
        <g
           style="fill:url(#linearGradient4980)"
           id="g4834">
          <path
             d="m 323.34986,199.98496 c 0.0503,-0.20126 0.40257,-0.98141 1.05697,-2.34045 0.65424,-1.40923 1.43438,-3.12052 2.34045,-5.13387 0.90589,-2.01321 1.88736,-4.20266 2.94442,-6.56835 1.10722,-2.36552 2.13903,-4.6053 3.09543,-6.71933 1.00655,-2.11386 1.8622,-3.97615 2.56694,-5.58687 0.75489,-1.61053 1.23304,-2.66751 1.43446,-3.17092 0.35224,-0.75489 0.78006,-1.5602 1.28347,-2.41595 0.55356,-0.85554 1.08205,-1.63569 1.58547,-2.34044 0.50322,-0.75488 0.98137,-1.35886 1.43446,-1.81196 0.45289,-0.45288 0.80522,-0.67938 1.05698,-0.67948 1.81185,1e-4 5.81325,-0.0251 12.00421,-0.0755 6.24106,-0.0502 14.97368,-0.0754 26.19787,-0.0755 0.95617,1.1e-4 1.71115,0.0253 2.26494,0.0755 0.55352,1.1e-4 1.10717,1.1e-4 1.66096,0 0.55351,1.1e-4 1.20783,0.0253 1.96296,0.0755 0.80517,1e-4 1.93764,1e-4 3.39741,0 0.25152,1e-4 0.45285,0.78025 0.60399,2.34044 0.15085,1.5604 0.27668,3.62401 0.37749,6.19086 0.10052,2.56703 0.17602,5.51145 0.2265,8.83328 0.10051,3.27167 0.15084,6.64392 0.15099,10.11676 0.0502,3.47299 0.0753,6.8704 0.0755,10.19226 -1.5e-4,3.32198 -1.5e-4,6.31674 0,8.98428 -1.5e-4,3.82529 -0.15114,7.70086 -0.45299,11.62672 -0.25181,3.92595 -0.52863,7.77635 -0.83048,11.55122 -1.5e-4,1.51 0.025,3.34712 0.0755,5.51137 0.0502,2.11398 0.0754,4.32859 0.0755,6.64384 0.0502,2.3153 0.10051,4.60541 0.15099,6.87034 0.0502,2.26495 0.0753,4.3034 0.0755,6.11535 0.0502,1.81196 0.0754,3.29676 0.0755,4.45439 0.0502,1.10731 0.10052,1.66096 0.151,1.66096 l -0.45299,1.28347 -6.94584,1.66096 c -0.0505,0 -0.45312,0 -1.20797,0 -0.75512,0.0503 -1.63593,0.0755 -2.64243,0.0755 -1.00678,0 -2.06375,0 -3.17093,0 -1.0571,0.0503 -1.91275,0.0755 -2.56694,0.0755 -2.06374,0 -4.07702,-0.0503 -6.03985,-0.151 -1.91274,-0.0503 -3.82536,-0.12583 -5.73786,-0.22649 -1.86241,-0.10067 -3.77503,-0.2265 -5.73786,-0.37749 -1.91274,-0.151 -3.90085,-0.302 -5.96436,-0.45299 -0.10077,0 -0.32727,0.0252 -0.67948,0.0755 -0.35244,0.0503 -0.70476,0.0755 -1.05698,0.0755 -0.35243,0 -0.65442,-0.52848 -0.90598,-1.58546 -0.25176,-1.1073 -0.47826,-2.56693 -0.67948,-4.37889 -0.1511,-1.81195 -0.27693,-3.9259 -0.37749,-6.34185 -0.0504,-2.41593 -0.10077,-4.98286 -0.151,-7.70082 -0.0504,-2.71791 -0.10077,-5.46101 -0.151,-8.2293 -10e-5,-2.81857 -10e-5,-5.5365 0,-8.1538 -10e-5,-0.30196 -0.12593,-0.57879 -0.37749,-0.83048 -0.20143,-0.25163 -0.50342,-0.37746 -0.90597,-0.37749 -0.25177,3e-5 -0.60409,0.52852 -1.05698,1.58546 -0.45309,1.00668 -0.95641,2.21465 -1.50996,3.62391 -0.55375,1.40933 -1.10741,2.86896 -1.66096,4.3789 -0.50342,1.50999 -0.93124,2.74312 -1.28347,3.69941 -0.15109,0.20135 -0.42792,0.755 -0.83048,1.66096 -0.35242,0.906 -0.85574,1.96297 -1.50997,3.17092 -0.60407,1.20799 -1.30872,2.49146 -2.11394,3.85041 -0.75508,1.35898 -1.61072,2.61728 -2.56694,3.77491 -0.9564,1.10732 -1.96304,2.03846 -3.01993,2.79343 -1.05706,0.75499 -2.16437,1.13248 -3.32192,1.13247 -0.55374,10e-6 -1.33388,10e-6 -2.34044,0 -0.95639,10e-6 -1.9882,10e-6 -3.09543,0 -1.10738,-0.0503 -2.23985,-0.0755 -3.39742,-0.0755 -1.10738,-0.0503 -2.11402,-0.12582 -3.01993,-0.22649 -2.91933,-4.58021 -5.3101,-8.68227 -7.17232,-12.3062 -1.81202,-3.62389 -3.27165,-6.69415 -4.3789,-9.21078 -1.10736,-2.56691 -1.93784,-4.50469 -2.49144,-5.81336 -0.50338,-1.35893 -0.88087,-2.03842 -1.13247,-2.03845 -0.40271,3e-5 -0.70471,0.12586 -0.90598,0.37749 -0.20138,0.25169 -0.30205,0.52852 -0.30199,0.83048 -6e-5,2.21465 -6e-5,4.65575 0,7.32332 -6e-5,2.66763 -0.0252,11.3604 -0.0755,14.07831 -5e-5,2.66762 -0.0504,5.28489 -0.151,7.85181 -0.0504,2.51662 -0.17621,4.75639 -0.37749,6.71934 -0.15105,1.91262 -0.37754,3.47292 -0.67948,4.68088 -0.25172,1.15764 -0.60404,1.73646 -1.05698,1.73646 -0.30204,0 -0.65437,-0.0252 -1.05697,-0.0755 -0.35238,-0.0503 -0.57887,-0.0755 -0.67948,-0.0755 -4.07695,0.30199 -7.97769,0.57882 -11.70222,0.83048 -3.72462,0.25166 -7.65052,0.37749 -11.77772,0.37749 -0.65434,0 -1.53516,-0.0252 -2.64244,-0.0755 -1.05699,0 -2.0888,0 -3.09542,0 -1.00667,0 -1.88748,-0.0252 -2.64244,-0.0755 -0.755,0 -1.15766,0 -1.20797,0 l -6.94583,-1.66096 -0.45299,-1.28347 c -0.0503,0 -0.10068,-0.55365 -0.151,-1.66096 -0.0503,-1.15763 -0.12584,-2.64243 -0.22649,-4.45439 -0.0503,-1.81195 -0.10068,-3.8504 -0.151,-6.11535 -0.0503,-2.26493 -0.10067,-4.55504 -0.151,-6.87034 -0.0503,-2.31525 -0.10067,-10.52986 -0.15099,-12.64384 -0.0503,-2.16425 -0.10068,-4.00137 -0.151,-5.51137 0.10066,-5.33516 0.25165,-10.5697 0.45299,-15.70362 0.25165,-5.13382 0.37748,-10.54452 0.37749,-16.23211 -1e-5,-0.20126 -0.0252,-0.60392 -0.0755,-1.20797 -0.0503,-0.60392 -0.10067,-1.23307 -0.15099,-1.88746 -0.0503,-0.65424 -0.10068,-1.25823 -0.151,-1.81195 -0.0503,-0.60392 -0.0755,-0.98141 -0.0755,-1.13248 -1e-5,-1.56022 0.0252,-2.94435 0.0755,-4.1524 0.10066,-1.25822 0.20132,-2.54169 0.30199,-3.8504 0.10066,-1.30856 0.17616,-2.71785 0.2265,-4.2279 0.10065,-1.50988 0.15098,-3.32183 0.15099,-5.43587 -1e-5,-0.3019 -0.0252,-0.83039 -0.0755,-1.58546 -1e-5,-0.80522 -0.0252,-1.66087 -0.0755,-2.56694 -0.0503,-0.90588 -0.10068,-1.73636 -0.151,-2.49144 -1e-5,-0.80522 -1e-5,-1.35887 0,-1.66096 -0.10067,-0.10057 -0.20134,-0.27673 -0.30199,-0.52849 -0.10067,-0.25156 -0.15101,-0.45289 -0.151,-0.60398 -1e-5,-1.10721 0.42782,-1.98802 1.28347,-2.64244 0.85564,-0.65422 1.86228,-1.13237 3.01993,-1.43447 1.20796,-0.35222 2.39076,-0.57871 3.54841,-0.67948 1.20796,-0.10056 2.1391,-0.15089 2.79344,-0.151 11.22403,1.1e-4 19.95664,0.0253 26.19787,0.0755 6.24113,0.0504 10.24253,0.0756 12.00421,0.0755 0.2516,1e-4 0.60393,0.2266 1.05697,0.67948 0.45293,0.4531 0.93109,1.05708 1.43447,1.81196 0.50326,0.70475 1.00658,1.4849 1.50996,2.34044 0.50326,0.85575 0.95625,1.66106 1.35897,2.41595 0.20126,0.50341 0.60392,1.58555 1.20797,3.24642 0.65425,1.61072 1.38407,3.49817 2.18945,5.66236 0.85558,2.11404 1.76155,4.35381 2.71793,6.71934 0.95624,2.36569 1.83705,4.55513 2.64244,6.56834 0.80524,2.01336 1.48472,3.72465 2.03845,5.13388 0.60391,1.35903 0.9814,2.08885 1.13247,2.18945 0.70458,1.66102 1.48472,2.4915 2.34045,2.49144 0.55357,6e-5 1.03173,-0.2516 1.43446,-0.75498 0.45291,-0.50326 0.80524,-1.08208 1.05698,-1.73646"
             style="font-variant:normal;font-weight:bold;font-stretch:normal;fill:url(#linearGradient4978);fill-opacity:1;stroke:#8dbf20;stroke-width:6.00043344;stroke-linecap:round;stroke-linejoin:round;stroke-miterlimit:4;stroke-opacity:1;stroke-dasharray:none;font-family:Sigmar One;-inkscape-font-specification:Sigmar One Bold"
             id="path3829"
             inkscape:connector-curvature="0"
             sodipodi:nodetypes="ccccccccccccccccccccccccccccccccccscscccccscccccccccccccccccccccccccccccccccsccsscsccccccsccccccccscsccccccccccccccccccccccccccc" />
        </g>
        <path
           sodipodi:nodetypes="ccccccccccccccccccccccccccccccccccscscccccscccccccccccccccccccccccccccccccccsccsscscccccccscccccccsccccccccccccccccccccccccccccc"
           inkscape:connector-curvature="0"
           id="path3831"
           style="font-variant:normal;font-weight:bold;font-stretch:normal;fill:url(#linearGradient4982);fill-opacity:1;stroke:#8dbf20;stroke-width:6.00043344;stroke-linecap:round;stroke-linejoin:round;stroke-miterlimit:4;stroke-opacity:1;stroke-dasharray:none;font-family:Sigmar One;-inkscape-font-specification:Sigmar One Bold"
           d="m 480.38608,199.98496 c 0.0503,-0.20126 0.40258,-0.98141 1.05698,-2.34045 0.65423,-1.40923 1.43438,-3.12052 2.34044,-5.13387 0.90589,-2.01321 1.88737,-4.20266 2.94443,-6.56835 1.10722,-2.36552 2.13903,-4.6053 3.09542,-6.71933 1.00656,-2.11386 1.8622,-3.97615 2.56694,-5.58687 0.75489,-1.61053 1.23305,-2.66751 1.43447,-3.17092 0.35223,-0.75489 0.78005,-1.5602 1.28347,-2.41595 0.55356,-0.85554 1.08204,-1.63569 1.58546,-2.34044 0.50322,-0.75488 0.98138,-1.35886 1.43447,-1.81196 0.45289,-0.45288 0.80521,-0.67938 1.05697,-0.67948 1.81186,1e-4 5.81326,-0.0251 12.00421,-0.0755 6.24107,-0.0502 14.97368,-0.0754 26.19787,-0.0755 0.95617,1.1e-4 1.71116,0.0253 2.26495,0.0755 0.55351,1.1e-4 1.10716,1.1e-4 1.66096,0 0.55351,1.1e-4 1.20783,0.0253 1.96295,0.0755 0.80517,1e-4 1.93764,1e-4 3.39742,0 0.25151,1e-4 0.45284,0.78025 0.60398,2.34044 0.15085,1.5604 0.27668,3.62401 0.3775,6.19086 0.10051,2.56703 0.17601,5.51145 0.22649,8.83328 0.10052,3.27167 0.15085,6.64392 0.151,10.11676 0.0502,3.47299 0.0753,6.8704 0.0755,10.19226 -1.4e-4,3.32198 -1.4e-4,6.31674 0,8.98428 -1.4e-4,3.82529 -0.15114,7.70086 -0.45298,11.62672 -0.25181,3.92595 -0.52864,7.77635 -0.83048,11.55122 -1.5e-4,1.51 0.025,3.34712 0.0755,5.51137 0.0502,2.11398 0.0753,20.32859 0.0755,22.64384 0.0502,2.3153 0.10052,4.60541 0.151,6.87034 0.0502,2.26495 0.0753,4.3034 0.0755,6.11535 0.0502,1.81196 0.0753,3.29676 0.0755,4.45439 0.0502,1.10731 0.10052,1.66096 0.151,1.66096 l -0.45299,1.28347 -6.94583,1.66096 c -0.0505,0 -0.45313,0 -1.20797,0 -0.75512,0.0503 -1.63593,0.0755 -2.64244,0.0755 -1.00678,0 -2.06375,0 -3.17092,0 -1.05711,0.0503 -1.91275,0.0755 -2.56694,0.0755 -2.06375,0 -4.07703,-0.0503 -6.03986,-0.151 -1.91274,-0.0503 -3.82536,-0.12583 -5.73786,-0.22649 -1.8624,-0.10067 -3.77502,-0.2265 -5.73786,-0.37749 -1.91273,-0.151 -3.90085,-0.302 -5.96436,-0.45299 -0.10077,0 -0.32726,0.0252 -0.67948,0.0755 -0.35243,0.0503 -0.70476,0.0755 -1.05698,0.0755 -0.35242,0 -0.65442,-0.52848 -0.90597,-1.58546 -0.25177,-1.1073 -0.47826,-2.56693 -0.67949,-4.37889 -0.1511,-1.81195 -0.27693,-3.9259 -0.37749,-6.34185 -0.0504,-2.41593 -0.10077,-4.98286 -0.15099,-7.70082 -0.0504,-2.71791 -0.10077,-21.46101 -0.151,-24.2293 -10e-5,-2.81857 -10e-5,-5.5365 0,-8.1538 -10e-5,-0.30196 -0.12593,-0.57879 -0.37749,-0.83048 -0.20143,-0.25163 -0.50342,-0.37746 -0.90598,-0.37749 -0.25176,3e-5 -0.60409,0.52852 -1.05697,1.58546 -0.45309,1.00668 -0.95641,2.21465 -1.50997,3.62391 -0.55375,1.40933 -1.1074,2.86896 -1.66096,4.3789 -0.50342,1.50999 -0.93124,2.74312 -1.28347,3.69941 -0.15109,0.20135 -0.42792,0.755 -0.83048,1.66096 -0.35242,0.906 -0.85574,1.96297 -1.50996,3.17092 -0.60408,1.20799 -1.30873,2.49146 -2.11395,3.85041 -0.75507,1.35898 -1.61072,2.61728 -2.56694,3.77491 -0.9564,1.10732 -1.96304,2.03846 -3.01993,2.79343 -1.05706,0.75499 -2.16436,1.13248 -3.32192,1.13247 -0.55373,10e-6 -1.33388,10e-6 -2.34044,0 -0.95639,10e-6 -1.9882,10e-6 -3.09543,0 -1.10738,-0.0503 -2.23985,-0.0755 -3.39741,-0.0755 -1.10738,-0.0503 -2.11403,-0.12582 -3.01993,-0.22649 -2.91933,-4.58021 -5.31011,-8.68227 -7.17233,-12.3062 -1.81202,-3.62389 -3.27165,-6.69415 -4.37889,-9.21078 -1.10737,-2.56691 -1.93785,-4.50469 -2.49144,-5.81336 -0.50338,-1.35893 -0.88087,-2.03842 -1.13248,-2.03845 -0.40271,3e-5 -0.7047,0.12586 -0.90598,0.37749 -0.20138,0.25169 -0.30204,0.52852 -0.30199,0.83048 -5e-5,2.21465 -5e-5,4.65575 0,7.32332 -5e-5,2.66763 -0.0252,7.3604 -0.0755,10.07831 -5e-5,2.66762 -0.0504,5.28489 -0.15099,7.85181 -0.0504,2.51662 -0.17622,4.75639 -0.37749,6.71934 -0.15105,1.91262 -0.37755,3.47292 -0.67949,4.68088 -0.25171,1.15764 -0.60404,1.73646 -1.05697,1.73646 -0.30205,0 -0.65437,-0.0252 -1.05698,-0.0755 -0.35237,-0.0503 -0.57887,-0.0755 -0.67948,-0.0755 -4.07695,0.30199 -7.97768,0.57882 -11.70222,0.83048 -3.72461,0.25166 -7.65051,0.37749 -11.77772,0.37749 -0.65434,0 -1.53515,-0.0252 -2.64243,-0.0755 -1.057,0 -2.08881,0 -3.09543,0 -1.00666,0 -1.88747,-0.0252 -2.64243,-0.0755 -0.755,0 -1.15766,0 -1.20798,0 l -6.94583,-1.66096 -0.45299,-1.28347 c -0.0503,0 -0.10067,-0.55365 -0.15099,-1.66096 -0.0504,-1.15763 -0.12584,-2.64243 -0.2265,-4.45439 -0.0503,-1.81195 -0.10067,-3.8504 -0.151,-6.11535 -0.0503,-2.26493 -0.10067,-4.55504 -0.15099,-6.87034 -0.0503,-2.31525 -0.10067,-6.52986 -0.151,-8.64384 -0.0503,-2.16425 -0.10067,-4.00137 -0.15099,-5.51137 0.10065,-5.33516 0.25165,-10.5697 0.45298,-15.70362 0.25166,-5.13382 0.37749,-10.54452 0.3775,-16.23211 -1e-5,-0.20126 -0.0252,-0.60392 -0.0755,-1.20797 -0.0503,-0.60392 -0.10068,-1.23307 -0.151,-1.88746 -0.0503,-0.65424 -0.10067,-1.25823 -0.151,-1.81195 -0.0503,-0.60392 -0.0755,-0.98141 -0.0755,-1.13248 -10e-6,-1.56022 0.0251,-2.94435 0.0755,-4.1524 0.10066,-1.25822 0.20132,-2.54169 0.302,-3.8504 0.10065,-1.30856 0.17615,-2.71785 0.22649,-4.2279 0.10066,-1.50988 0.15099,-3.32183 0.151,-5.43587 -10e-6,-0.3019 -0.0252,-0.83039 -0.0755,-1.58546 -1e-5,-0.80522 -0.0252,-1.66087 -0.0755,-2.56694 -0.0503,-0.90588 -0.10067,-1.73636 -0.15099,-2.49144 -1e-5,-0.80522 -1e-5,-1.35887 0,-1.66096 -0.10068,-0.10057 -0.20134,-0.27673 -0.302,-0.52849 -0.10067,-0.25156 -0.151,-0.45289 -0.15099,-0.60398 -1e-5,-1.10721 0.42781,-1.98802 1.28347,-2.64244 0.85563,-0.65422 1.86227,-1.13237 3.01992,-1.43447 1.20796,-0.35222 2.39076,-0.57871 3.54842,-0.67948 1.20795,-0.10056 2.13909,-0.15089 2.79343,-0.151 11.22403,1.1e-4 19.95665,0.0253 26.19787,0.0755 6.24113,0.0504 10.24253,0.0756 12.00421,0.0755 0.25161,1e-4 0.60393,0.2266 1.05698,0.67948 0.45293,0.4531 0.93108,1.05708 1.43446,1.81196 0.50326,0.70475 1.00658,1.4849 1.50997,2.34044 0.50326,0.85575 0.95624,1.66106 1.35896,2.41595 0.20127,0.50341 0.60393,1.58555 1.20798,3.24642 0.65425,1.61072 1.38406,3.49817 2.18944,5.66236 0.85558,2.11404 1.76156,4.35381 2.71794,6.71934 0.95624,2.36569 1.83705,4.55513 2.64243,6.56834 0.80524,2.01336 1.48473,3.72465 2.03845,5.13388 0.60392,1.35903 0.98141,2.08885 1.13248,2.18945 0.70457,1.66102 1.48472,2.4915 2.34044,2.49144 0.55358,6e-5 1.03173,-0.2516 1.43447,-0.75498 0.45291,-0.50326 0.80523,-1.08208 1.05697,-1.73646" />
        <path
           sodipodi:nodetypes="ccccccccssccccccccscccccccccccccccccccccccccccccc"
           inkscape:connector-curvature="0"
           id="path3833"
           style="font-variant:normal;font-weight:bold;font-stretch:normal;fill:url(#linearGradient4984);fill-opacity:1;stroke:#8dbf20;stroke-width:6.00043344;stroke-linecap:round;stroke-linejoin:round;stroke-miterlimit:4;stroke-opacity:1;stroke-dasharray:none;font-family:Sigmar One;-inkscape-font-specification:Sigmar One Bold"
           d="m 621.86968,272.29958 c -0.10073,3.42262 -0.17623,6.74453 -0.22649,9.96576 -0.0504,3.17095 -0.1259,6.11537 -0.2265,8.83329 -0.0504,2.66761 -0.20139,4.98289 -0.45299,6.94584 -0.20139,1.96295 -0.52855,3.39742 -0.98148,4.30339 -1.1577,0 -2.46633,0.0503 -3.9259,0.151 -1.45969,0.0503 -2.84382,0.12583 -4.1524,0.22649 -1.30869,0.0503 -2.416,0.10067 -3.32192,0.151 -0.90603,0.0503 -1.38418,0.0755 -1.43447,0.0755 l -0.45299,0 c -0.60403,0 -1.08218,-0.10067 -1.43446,-0.30199 -0.30204,-0.20133 -0.65437,-0.302 -1.05698,-0.302 -0.20137,0.0503 -0.4027,0.12583 -0.60398,0.2265 -0.4027,0.20133 -0.60403,0.32716 -0.60399,0.37749 l -14.34465,0 c -0.15103,0.0503 -1.05701,0.10066 -2.71794,0.15099 -1.61065,0 -3.44777,0 -5.51136,0 -2.06364,0.0503 -4.02659,0.0755 -5.88886,0.0755 -1.86231,0.0503 -3.09544,0.0755 -3.69941,0.0755 -0.85566,0 -1.56031,-0.27683 -2.11395,-0.83048 -0.55367,-0.60398 -1.00666,-1.35896 -1.35897,-2.26495 -0.302,-0.90597 -0.5285,-1.88744 -0.67948,-2.94442 -0.15101,-1.1073 -0.27684,-2.18944 -0.3775,-3.24643 -0.0503,-1.05696 -0.0755,-2.01327 -0.0755,-2.86893 -1e-5,-0.90596 -1e-5,-1.58545 0,-2.03845 0.10065,-6.24116 0.15098,-12.63333 0.15099,-19.17654 0.0503,-6.54313 0.20132,-48.93531 0.45299,-55.17654 l 0,-48.84732 c -10e-6,-0.85555 0.27682,-1.3337 0.83048,-1.43447 0.55364,-0.10056 1.15763,-0.15089 1.81196,-0.151 5.18419,1.1e-4 10.31806,-0.0251 15.40163,-0.0755 5.08351,-0.0502 10.24255,-0.0754 15.47713,-0.0755 0.45294,1e-4 0.9311,-0.0502 1.43446,-0.151 0.50328,-0.15089 1.20793,-0.25156 2.11395,-0.30199 0.90593,-0.10056 2.08874,-0.12573 3.54842,-0.0755 1.45958,0.0504 3.32186,0.2266 5.58686,0.52849 0.45293,0.40276 0.85559,0.55375 1.20797,0.45299 0.4026,-0.1509 0.83042,-0.30189 1.28347,-0.45299 1.40924,1e-4 2.56688,0.10077 3.47292,0.30199 0.95625,0.1511 1.71123,0.62925 2.26494,1.43447 0.55359,0.75508 0.93108,1.91272 1.13248,3.47291 0.25159,1.51006 0.37742,3.62401 0.37749,6.34185 l 0,30.19928 c -7e-5,0.0504 -0.0252,0.83054 -0.0755,2.34044 -0.0504,1.45969 -0.10073,3.32197 -0.151,5.58686 -0.0504,2.21467 -0.12589,40.60544 -0.22649,43.17233 -0.10073,2.56698 -0.17623,4.98292 -0.2265,7.24783 -0.0504,2.21465 -0.10072,4.1021 -0.15099,5.66236 -0.0504,1.51 -0.0756,2.31531 -0.0755,2.41594" />
        <path
           sodipodi:nodetypes="ccccccccccsccccccccccccccccccccccccccccccccccccscccccc"
           inkscape:connector-curvature="0"
           id="path3835"
           style="font-variant:normal;font-weight:bold;font-stretch:normal;fill:url(#linearGradient4986);fill-opacity:1;stroke:#8dbf20;stroke-width:6.00043344;stroke-linecap:round;stroke-linejoin:round;stroke-miterlimit:4;stroke-opacity:1;stroke-dasharray:none;font-family:Sigmar One;-inkscape-font-specification:Sigmar One Bold"
           d="m 660.75125,199.22997 c -3e-5,-0.10059 -0.20136,-0.25159 -0.60398,-0.45298 l -17.06259,0 c -1.45964,6e-5 -2.59212,-0.83042 -3.39742,-2.49144 -0.75499,-1.71122 -1.33381,-3.74967 -1.73646,-6.11536 -0.35233,-2.36553 -0.55366,-4.78147 -0.60399,-7.24782 -0.0503,-2.46619 -0.0755,-4.50464 -0.0755,-6.11536 -10e-6,-0.40256 -10e-6,-1.03171 0,-1.88745 0.0503,-0.90589 0.0755,-1.81186 0.0755,-2.71794 0.0503,-0.90588 0.0755,-1.71119 0.0755,-2.41594 0.0503,-0.70455 0.0755,-1.08204 0.0755,-1.13247 0,-0.75488 0.27682,-1.3337 0.83048,-1.73646 0.60398,-0.45289 1.30863,-0.78005 2.11395,-0.98148 0.85564,-0.25155 1.71128,-0.40255 2.56694,-0.45298 0.90596,-0.10057 1.66095,-0.1509 2.26494,-0.151 3.7749,1e-4 7.65047,0.0504 11.62673,0.151 3.9762,0.10076 7.85177,0.15109 11.62672,0.15099 l 55.64216,0 c 3.42249,10e-5 6.06492,0.10077 7.92731,0.30199 1.86218,0.1511 3.22115,0.42793 4.0769,0.83048 0.85554,0.35243 1.35886,0.80542 1.50996,1.35897 0.15089,0.55375 0.22639,1.20807 0.2265,1.96296 l 0,25.59388 c -1.1e-4,0.60406 -0.1511,1.08221 -0.45299,1.43447 -0.3021,0.30206 -0.67959,0.52855 -1.13247,0.67948 -0.40276,0.15106 -0.85575,0.25173 -1.35897,0.30199 -0.45309,7e-5 -0.85575,7e-5 -1.20797,0 -1.4094,7e-5 -2.9697,7e-5 -4.68089,0 -1.71139,7e-5 -3.47301,7e-5 -5.28487,0 -1.76172,7e-5 -3.52334,7e-5 -5.28488,0 -1.71137,-0.0503 -3.29683,-0.0754 -4.75638,-0.0755 -0.40274,7e-5 -0.7299,0.0252 -0.98148,0.0755 -0.20141,7e-5 -0.37757,0.1259 -0.52848,0.37749 -0.10075,0.2014 -0.17625,0.55372 -0.2265,1.05698 -0.0504,0.50339 -0.0756,1.2332 -0.0755,2.18945 -8e-5,0.75504 -0.0252,2.51666 -0.0755,5.28487 -8e-5,2.76832 -0.0756,6.14057 -0.22649,10.11676 -0.10074,3.97628 -0.27691,88.33 -0.52849,93.06118 -0.20141,4.73125 -0.47823,9.41214 -0.83048,14.04266 l 0,14.87315 c -8e-5,1.91262 -0.2014,3.37225 -0.60398,4.37889 -0.35241,0.95631 -0.90606,1.66096 -1.66096,2.11395 -0.70473,0.45299 -1.63587,0.72982 -2.79344,0.83048 -1.10738,0.10067 -2.41601,0.2265 -3.9259,0.37749 -3.12066,0 -5.93926,0.0252 -8.4558,0.0755 -2.46633,0.0503 -5.03327,0.10066 -7.70081,0.151 -2.61732,0.0503 -5.48625,0.10066 -8.6068,0.15099 -3.0703,0.0503 -6.71937,0.0755 -10.94723,0.0755 -1.40934,0 -2.49148,-0.88081 -3.24643,-2.64244 -0.75501,-1.81195 -1.33383,-4.30339 -1.73645,-7.47432 -0.35236,-3.17091 -0.55369,-6.89548 -0.60399,-11.17373 -3e-5,-4.32854 0.0503,-9.00942 0.151,-14.04266 0.10063,-5.03317 0.22646,-90.31804 0.37749,-95.85462 0.15097,-5.58681 0.22646,-11.19883 0.22649,-16.8361" />
      </g>
      <text
         xml:space="preserve"
         style="font-size:49.06095123px;font-style:normal;font-weight:normal;line-height:125%;letter-spacing:0px;word-spacing:0px;fill:#002356;fill-opacity:1;stroke:#002356;stroke-width:12.73558903;stroke-linecap:round;stroke-linejoin:round;stroke-miterlimit:4;stroke-opacity:1;stroke-dasharray:none;font-family:Sans"
         x="293.15558"
         y="423.38977"
         id="text3989"
         sodipodi:linespacing="125%"><tspan
           sodipodi:role="line"
           id="tspan3991"
           x="293.15558"
           y="423.38977"
           style="font-style:normal;font-variant:normal;font-weight:normal;font-stretch:normal;fill:#002356;fill-opacity:1;stroke:#002356;stroke-width:12.73558903;stroke-linecap:round;stroke-linejoin:round;stroke-miterlimit:4;stroke-opacity:1;stroke-dasharray:none;font-family:FifthLeg;-inkscape-font-specification:FifthLeg">openSUSE</tspan></text>
      <text
         sodipodi:linespacing="125%"
         id="text3153"
         y="423.38977"
         x="293.15558"
         style="font-size:49.06095123px;font-style:normal;font-weight:normal;line-height:125%;letter-spacing:0px;word-spacing:0px;fill:#8dbf20;fill-opacity:1;stroke:none;font-family:Sans"
         xml:space="preserve"><tspan
           style="font-style:normal;font-variant:normal;font-weight:normal;font-stretch:normal;fill:#8dbf20;fill-opacity:1;font-family:FifthLeg;-inkscape-font-specification:FifthLeg"
           y="423.38977"
           x="293.15558"
           id="tspan3155"
           sodipodi:role="line">openSUSE</tspan></text>
      <g
         id="g4830">
        <path
           style="fill:none;stroke:#8dbf20;stroke-width:2.5;stroke-linecap:butt;stroke-linejoin:miter;stroke-miterlimit:4;stroke-opacity:1;stroke-dasharray:none"
           d="m 312.33395,433.05254 c -0.28933,5.42365 2.35654,7.49279 5.28162,9.24283 l 0,0"
           id="path4820"
           inkscape:connector-curvature="0"
           sodipodi:nodetypes="ccc" />
        <path
           sodipodi:nodetypes="ccc"
           inkscape:connector-curvature="0"
           id="path4828"
           d="m 332.00733,432.64406 c 0.28933,5.42365 -2.35654,7.49279 -5.28162,9.24283 l 0,0"
           style="fill:none;stroke:#8dbf20;stroke-width:2.5;stroke-linecap:butt;stroke-linejoin:miter;stroke-miterlimit:4;stroke-opacity:1;stroke-dasharray:none" />
      </g>
    </g>
  </g>
</svg>
