<?xml version="1.0" encoding="UTF-8" standalone="no"?>
<!-- Created with Inkscape (http://www.inkscape.org/) -->

<svg
   xmlns:dc="http://purl.org/dc/elements/1.1/"
   xmlns:cc="http://creativecommons.org/ns#"
   xmlns:rdf="http://www.w3.org/1999/02/22-rdf-syntax-ns#"
   xmlns:svg="http://www.w3.org/2000/svg"
   xmlns="http://www.w3.org/2000/svg"
   xmlns:xlink="http://www.w3.org/1999/xlink"
   xmlns:sodipodi="http://sodipodi.sourceforge.net/DTD/sodipodi-0.dtd"
   xmlns:inkscape="http://www.inkscape.org/namespaces/inkscape"
   width="744.09448"
   height="1052.3622"
   id="svg2"
   version="1.1"
   inkscape:version="0.48.4 r9939"
   sodipodi:docname="T-Shirt-Volunteer-FINAL_Back.svg"
   inkscape:export-filename="/home/CarlosRibeiro/Desktop/Layout3.png"
   inkscape:export-xdpi="149.97067"
   inkscape:export-ydpi="149.97067">
  <defs
     id="defs4">
    <filter
       color-interpolation-filters="sRGB"
       inkscape:label="Drop Shadow"
       id="filter4153">
      <feFlood
         result="flood"
         flood-color="rgb(0,0,0)"
         flood-opacity="1"
         id="feFlood4155" />
      <feComposite
         result="composite1"
         operator="in"
         in="flood"
         in2="SourceGraphic"
         id="feComposite4157" />
      <feGaussianBlur
         result="blur"
         stdDeviation="2.9"
         id="feGaussianBlur4159" />
      <feOffset
         result="offset"
         dy="1.6"
         dx="5.5"
         id="feOffset4161" />
      <feComposite
         result="composite2"
         operator="over"
         in="SourceGraphic"
         in2="offset"
         id="feComposite4163" />
    </filter>
    <filter
       color-interpolation-filters="sRGB"
       inkscape:label="Drop Shadow"
       id="filter3961">
      <feFlood
         result="flood"
         flood-color="rgb(0,0,0)"
         flood-opacity="1"
         id="feFlood3963" />
      <feComposite
         result="composite1"
         operator="in"
         in="flood"
         in2="SourceGraphic"
         id="feComposite3965" />
      <feGaussianBlur
         result="blur"
         stdDeviation="2.2"
         id="feGaussianBlur3967" />
      <feOffset
         result="offset"
         dy="4"
         dx="4"
         id="feOffset3969" />
      <feComposite
         result="composite2"
         operator="over"
         in="SourceGraphic"
         in2="offset"
         id="feComposite3971" />
    </filter>
    <filter
       color-interpolation-filters="sRGB"
       inkscape:label="Drop Shadow"
       id="filter4188">
      <feFlood
         result="flood"
         flood-color="rgb(0,0,0)"
         flood-opacity="1"
         id="feFlood4190" />
      <feComposite
         result="composite1"
         operator="in"
         in="flood"
         in2="SourceGraphic"
         id="feComposite4192" />
      <feGaussianBlur
         result="blur"
         stdDeviation="2.2"
         id="feGaussianBlur4194" />
      <feOffset
         result="offset"
         dy="4"
         dx="4"
         id="feOffset4196" />
      <feComposite
         result="composite2"
         operator="over"
         in="SourceGraphic"
         in2="offset"
         id="feComposite4198" />
    </filter>
    <filter
       color-interpolation-filters="sRGB"
       inkscape:label="Drop Shadow"
       id="filter4152">
      <feFlood
         result="flood"
         flood-color="rgb(0,0,0)"
         flood-opacity="1"
         id="feFlood4154" />
      <feComposite
         result="composite1"
         operator="in"
         in="flood"
         in2="SourceGraphic"
         id="feComposite4156" />
      <feGaussianBlur
         result="blur"
         stdDeviation="2.2"
         id="feGaussianBlur4158" />
      <feOffset
         result="offset"
         dy="4"
         dx="4"
         id="feOffset4160" />
      <feComposite
         result="fbSourceGraphic"
         operator="over"
         in="SourceGraphic"
         in2="offset"
         id="feComposite4162" />
      <feColorMatrix
         id="feColorMatrix4164"
         values="0 0 0 -1 0 0 0 0 -1 0 0 0 0 -1 0 0 0 0 1 0"
         in="fbSourceGraphic"
         result="fbSourceGraphicAlpha" />
      <feFlood
         in="fbSourceGraphic"
         result="flood"
         flood-color="rgb(0,0,0)"
         flood-opacity="1"
         id="feFlood4166" />
      <feComposite
         result="composite1"
         operator="in"
         in="flood"
         in2="fbSourceGraphic"
         id="feComposite4168" />
      <feGaussianBlur
         result="blur"
         stdDeviation="2.2"
         id="feGaussianBlur4170" />
      <feOffset
         result="offset"
         dy="4"
         dx="4"
         id="feOffset4172" />
      <feComposite
         result="composite2"
         operator="over"
         in="fbSourceGraphic"
         in2="offset"
         id="feComposite4174" />
    </filter>
    <path
       transform="matrix(0,1,-1,0,-162.43321,1102.3616)"
       d="m -316.53836,297.15201 a 266.55862,266.55862 0 1 1 -533.11725,0 266.55862,266.55862 0 1 1 533.11725,0 z"
       sodipodi:ry="266.55862"
       sodipodi:rx="266.55862"
       sodipodi:cy="297.15201"
       sodipodi:cx="-583.09698"
       id="path3809-3"
       style="fill:#b3b3b3;stroke:none"
       sodipodi:type="arc" />
    <filter
       color-interpolation-filters="sRGB"
       inkscape:label="Drop Shadow"
       id="filter8133">
      <feFlood
         result="flood"
         flood-color="rgb(0,0,0)"
         flood-opacity="1"
         id="feFlood8135" />
      <feComposite
         result="composite1"
         operator="in"
         in="flood"
         in2="SourceGraphic"
         id="feComposite8137" />
      <feGaussianBlur
         result="blur"
         stdDeviation="2.2"
         id="feGaussianBlur8139" />
      <feOffset
         result="offset"
         dy="4"
         dx="4"
         id="feOffset8141" />
      <feComposite
         result="fbSourceGraphic"
         operator="over"
         in="SourceGraphic"
         in2="offset"
         id="feComposite8143" />
      <feColorMatrix
         id="feColorMatrix8145"
         values="0 0 0 -1 0 0 0 0 -1 0 0 0 0 -1 0 0 0 0 1 0"
         in="fbSourceGraphic"
         result="fbSourceGraphicAlpha" />
      <feFlood
         in="fbSourceGraphic"
         result="flood"
         flood-color="rgb(0,0,0)"
         flood-opacity="1"
         id="feFlood8147" />
      <feComposite
         result="composite1"
         operator="in"
         in="flood"
         in2="fbSourceGraphic"
         id="feComposite8149" />
      <feGaussianBlur
         result="blur"
         stdDeviation="2.2"
         id="feGaussianBlur8151" />
      <feOffset
         result="offset"
         dy="4"
         dx="4"
         id="feOffset8153" />
      <feComposite
         result="composite2"
         operator="over"
         in="fbSourceGraphic"
         in2="offset"
         id="feComposite8155" />
    </filter>
    <filter
       color-interpolation-filters="sRGB"
       inkscape:label="Drop Shadow"
       id="filter8109">
      <feFlood
         result="flood"
         flood-color="rgb(0,0,0)"
         flood-opacity="1"
         id="feFlood8111" />
      <feComposite
         result="composite1"
         operator="in"
         in="flood"
         in2="SourceGraphic"
         id="feComposite8113" />
      <feGaussianBlur
         result="blur"
         stdDeviation="2.2"
         id="feGaussianBlur8115" />
      <feOffset
         result="offset"
         dy="4"
         dx="4"
         id="feOffset8117" />
      <feComposite
         result="fbSourceGraphic"
         operator="over"
         in="SourceGraphic"
         in2="offset"
         id="feComposite8119" />
      <feColorMatrix
         id="feColorMatrix8121"
         values="0 0 0 -1 0 0 0 0 -1 0 0 0 0 -1 0 0 0 0 1 0"
         in="fbSourceGraphic"
         result="fbSourceGraphicAlpha" />
      <feFlood
         in="fbSourceGraphic"
         result="flood"
         flood-color="rgb(0,0,0)"
         flood-opacity="1"
         id="feFlood8123" />
      <feComposite
         result="composite1"
         operator="in"
         in="flood"
         in2="fbSourceGraphic"
         id="feComposite8125" />
      <feGaussianBlur
         result="blur"
         stdDeviation="2.2"
         id="feGaussianBlur8127" />
      <feOffset
         result="offset"
         dy="4"
         dx="4"
         id="feOffset8129" />
      <feComposite
         result="composite2"
         operator="over"
         in="fbSourceGraphic"
         in2="offset"
         id="feComposite8131" />
    </filter>
    <path
       sodipodi:type="arc"
       style="color:#000000;fill:none;stroke:none;stroke-width:1;marker:none;visibility:visible;display:inline;overflow:visible;enable-background:accumulate"
       id="path7423-4"
       sodipodi:cx="884.41559"
       sodipodi:cy="315.63318"
       sodipodi:rx="71.767273"
       sodipodi:ry="72.838425"
       d="m 956.18286,315.63318 a 71.767273,72.838425 0 1 1 -143.53454,0 71.767273,72.838425 0 1 1 143.53454,0 z"
       transform="matrix(-0.03231966,1.2034638,-1.2034638,-0.03231966,1278.5202,-427.89601)" />
    <path
       sodipodi:type="arc"
       style="color:#000000;fill:none;stroke:none;stroke-width:0.5;marker:none;visibility:visible;display:inline;overflow:visible;enable-background:accumulate"
       id="path4342"
       sodipodi:cx="607.81238"
       sodipodi:cy="304.80777"
       sodipodi:rx="27.219366"
       sodipodi:ry="27.219366"
       d="m 635.03174,304.80777 a 27.219366,27.219366 0 1 1 -54.43873,0 27.219366,27.219366 0 1 1 54.43873,0 z"
       transform="matrix(-1.1177078,0,0,-1.1177078,1256.9567,951.59946)" />
    <path
       sodipodi:type="arc"
       style="color:#000000;fill:none;stroke:none;stroke-width:0.5;marker:none;visibility:visible;display:inline;overflow:visible;enable-background:accumulate"
       id="path4924"
       sodipodi:cx="607.81238"
       sodipodi:cy="304.80777"
       sodipodi:rx="27.219366"
       sodipodi:ry="27.219366"
       d="m 635.03174,304.80777 a 27.219366,27.219366 0 1 1 -54.43873,0 27.219366,27.219366 0 1 1 54.43873,0 z"
       transform="matrix(-1.1177078,0,0,-1.1177078,1256.9567,951.59946)" />
  </defs>
  <sodipodi:namedview
     id="base"
     pagecolor="#ffffff"
     bordercolor="#666666"
     borderopacity="1.0"
     inkscape:pageopacity="0.0"
     inkscape:pageshadow="2"
     inkscape:zoom="0.30447295"
     inkscape:cx="25.416499"
     inkscape:cy="493.67531"
     inkscape:document-units="px"
     inkscape:current-layer="layer1"
     showgrid="false"
     inkscape:window-width="1280"
     inkscape:window-height="742"
     inkscape:window-x="0"
     inkscape:window-y="27"
     inkscape:window-maximized="1" />
  <metadata
     id="metadata7">
    <rdf:RDF>
      <cc:Work
         rdf:about="">
        <dc:format>image/svg+xml</dc:format>
        <dc:type
           rdf:resource="http://purl.org/dc/dcmitype/StillImage" />
        <dc:title />
      </cc:Work>
    </rdf:RDF>
  </metadata>
  <g
     inkscape:label="Camada 1"
     inkscape:groupmode="layer"
     id="layer1">
    <path
       inkscape:connector-curvature="0"
       style="fill:#000000"
       id="path3122-7"
       d="m 277.96851,865.63079 c -14.32797,-1.02025 -30.97892,-2.80409 -32.86356,-3.52057 -1.22177,-0.4645 -0.88625,-1.23064 1.61808,-3.69487 2.41131,-2.37256 8.17985,-7.08275 12.48498,-10.1944 5.69207,-4.1139 12.50769,-8.19516 18.28028,-10.94615 5.39871,-2.57291 4.80647,-2.47558 15.8057,-2.5961 9.60545,-0.10539 13.25514,0.0584 19.5532,0.87844 5.42928,0.70678 10.04204,1.51312 10.47751,1.83152 0.39081,0.28577 0.38921,0.36741 -0.0197,0.99124 -0.6274,0.95769 -7.25061,7.16718 -11.64698,10.91959 -10.96263,9.35699 -17.04914,13.41869 -23.20066,15.48263 -2.11883,0.7108 -2.85268,0.82401 -5.73278,0.8837 -1.81659,0.037 -3.95689,0.023 -4.75618,-0.0354 z m 160.75557,-0.10227 c -4.92479,-0.89299 -10.82164,-4.14752 -18.59855,-10.26502 -6.98597,-5.49548 -17.74438,-15.09894 -18.91339,-16.88311 -0.40876,-0.62383 -0.41037,-0.70546 -0.0196,-0.9914 0.43548,-0.31824 5.04823,-1.12458 10.47753,-1.83136 6.29806,-0.8199 9.94775,-0.98383 19.5532,-0.87852 10.99923,0.12061 10.40697,0.0238 15.80568,2.59618 5.77259,2.75099 12.58823,6.83225 18.28028,10.94615 7.34342,5.30755 14.79702,11.87976 14.79702,13.04734 0,0.98556 -0.97375,1.1961 -10.56929,2.285 -13.93253,1.58111 -28.00861,2.48314 -30.81291,1.97474 z M 237.40885,844.239 c -6.26675,-0.96986 -14.22554,-3.0943 -26.67459,-7.11975 -9.40801,-3.04218 -10.97853,-3.6235 -10.97853,-4.06367 0,-0.12479 0.31088,-0.43071 0.69084,-0.67964 2.47275,-1.62024 24.49943,-12.56327 29.96012,-14.88429 l 2.24597,-0.95473 4.80618,-0.10063 c 7.45226,-0.1562 8.94974,0.17059 28.96696,6.31966 6.86236,2.10817 8.90039,2.84208 8.90039,3.20521 0,0.42759 -5.62984,6.29828 -7.92224,8.26135 -6.33087,5.42091 -11.79833,7.9579 -21.31696,9.89087 -3.05799,0.62095 -5.27122,0.65309 -8.67814,0.12496 z m 241.56613,0.0164 c -9.78418,-1.94604 -15.54304,-4.59912 -21.95521,-10.11498 -2.4188,-2.08071 -7.82867,-7.74144 -7.82867,-8.19163 0,-0.15086 0.62422,-0.50725 1.38721,-0.79203 3.28586,-1.22653 20.12441,-6.39941 24.70619,-7.58984 5.45164,-1.41652 14.05072,-1.55463 17.82858,-0.28643 4.86607,1.63348 31.27241,14.75866 31.5861,15.69975 0.16291,0.48867 -1.10029,0.96813 -10.88909,4.13297 -12.91158,4.17458 -20.47642,6.1822 -26.87756,7.13257 -3.31615,0.49254 -5.51633,0.49517 -7.95755,0.0164 z M 323.94495,832.90209 c -18.23453,-2.20172 -44.78303,-8.68975 -64.60925,-15.78935 -3.0543,-1.09367 -6.19713,-2.17978 -6.98403,-2.41351 -1.25275,-0.37201 -3.64825,-0.42479 -19.25275,-0.42479 l -17.82197,0 -3.07049,0.68121 c -1.68876,0.37473 -4.69196,1.08635 -6.67376,1.58127 l -3.60329,0.89998 -3.29735,-0.90368 c -4.00117,-1.09663 -6.65037,-2.08893 -11.14856,-4.1758 -7.90348,-3.66692 -22.38697,-11.78077 -23.19141,-12.99225 -0.10375,-0.15637 -0.0443,-0.42233 0.13211,-0.59127 0.87117,-0.83429 16.74314,-6.57 21.45933,-7.75484 2.12219,-0.53315 2.76193,-0.57877 5.94522,-0.42372 1.96193,0.0957 3.98331,0.26521 4.49194,0.37694 l 0.92482,0.20323 0.0701,7.76199 c 0.0469,5.18825 0.1671,7.87881 0.36264,8.11435 0.24247,0.29218 12.21045,0.35285 69.95146,0.35441 38.3124,0 70.47136,0.0781 71.46433,0.17232 l 1.80543,0.17051 -0.17615,0.95054 c -0.26677,1.43978 -1.35792,3.25495 -2.37494,3.95104 -1.75504,1.20128 -2.93111,1.44784 -7.46738,1.56614 l -4.29378,0.11181 0,0.9359 c 0,0.51482 0.37237,2.76595 0.82747,5.00254 0.4551,2.23666 0.74212,4.15163 0.63778,4.25555 -0.10438,0.10383 -1.99272,0.17273 -4.19643,0.15291 -4.33548,-0.0386 -9.70622,-0.63911 -11.55485,-1.2913 -2.37468,-0.83791 -7.29431,-4.3071 -10.7271,-7.56452 l -1.62858,-1.54534 -4.74825,0 c -5.34127,0 -5.06196,-0.11839 -5.07049,2.14755 -0.005,1.32855 -0.49757,1.65937 -2.14526,1.44085 -1.81086,-0.24031 -3.13582,-0.78044 -5.66835,-2.31082 l -2.12903,-1.28654 -6.987,0.0707 -6.987,0.0707 1.45328,0.69248 c 7.95909,3.79212 32.17418,10.31887 43.20198,11.64446 3.15346,0.379 18.10282,0.4451 26.42325,0.11699 l 5.81311,-0.22929 3.23685,1.62813 c 1.91211,0.9618 3.23685,1.78565 3.23685,2.01288 0,0.21154 -0.0914,0.38467 -0.20299,0.38467 -0.11169,0 -1.50879,0.2972 -3.10473,0.66042 -7.10853,1.61777 -16.51783,2.28574 -22.32282,1.58488 z m 66.45444,0.2103 c -2.81961,-0.19533 -9.38366,-1.16494 -12.14988,-1.79485 -1.59594,-0.36338 -2.99306,-0.66074 -3.10473,-0.66074 -0.11169,0 -0.203,-0.17314 -0.203,-0.38468 0,-0.22739 1.32371,-1.04968 3.23686,-2.01066 l 3.23684,-1.62583 4.0956,0.159 c 23.05956,0.89586 29.59316,0.43926 43.46624,-3.03807 6.50575,-1.6306 15.83254,-4.52809 16.13117,-5.01133 0.0901,-0.14577 -2.68611,-0.24319 -6.9311,-0.24319 -3.89479,0 -9.2944,-0.13483 -11.99914,-0.29991 l -4.91775,-0.29991 -3.25578,2.16843 c -4.23467,2.82038 -5.28681,3.33354 -7.80781,3.80832 -5.0048,0.94281 -13.85407,1.16577 -13.85121,0.34916 0,-0.17018 0.35681,-2.03344 0.79161,-4.14071 0.4348,-2.10718 0.79101,-4.25645 0.79161,-4.77612 l 0,-0.94478 -3.46118,-0.72824 c -9.09523,-1.91373 -19.57736,-5.57654 -27.32189,-9.54731 -5.45685,-2.79776 -7.62487,-4.39268 -9.07412,-6.67539 -1.24084,-1.95459 -2.07584,-5.33672 -1.31749,-5.33672 0.17039,0 2.93493,1.41528 6.14338,3.14503 13.66706,7.36819 25.2123,10.96382 45.07213,14.03708 12.96036,2.00565 19.91231,2.46349 34.74656,2.28822 11.72558,-0.13845 14.25599,-0.28339 21.89994,-1.25349 17.14556,-2.17616 31.39988,-7.05793 42.92783,-14.70186 10.93247,-7.24915 20.00939,-18.18781 24.49349,-29.51724 0.55165,-1.39374 1.03912,-2.49785 1.08331,-2.45371 0.098,0.0981 -1.33776,5.63779 -1.91808,7.40059 -0.23036,0.69962 -0.35831,1.33266 -0.28435,1.40665 0.25216,0.25214 1.73437,-0.69215 5.51852,-3.51581 17.72584,-13.22655 36.10148,-30.36189 46.64961,-43.50081 3.5175,-4.3815 15.83738,-21.48403 20.0242,-27.79777 3.40737,-5.13827 32.29907,-50.85173 35.98841,-56.9421 2.04636,-3.3781 4.15073,-7.16184 6.79673,-12.22069 0.96915,-1.85298 1.87435,-3.36897 2.01157,-3.36897 2.38257,0 -9.95042,23.74438 -26.93442,51.85604 -10.44399,17.28677 -29.47092,44.87054 -36.77136,53.30848 -2.70655,3.12817 -16.55863,17.85905 -20.16614,21.44539 -3.70922,3.68764 -8.25359,7.71735 -15.22996,13.50526 -3.26987,2.71284 -7.31264,6.08395 -8.98389,7.49134 -1.67127,1.4074 -5.17897,4.16989 -7.79486,6.13879 -5.80056,4.36589 -6.84658,5.32654 -9.10391,8.36124 -0.97286,1.30791 -2.44432,3.15078 -3.26989,4.09515 -0.82556,0.94438 -1.40284,1.74989 -1.28279,1.78985 0.11996,0.0395 2.15843,-0.35162 4.52978,-0.87022 8.72776,-1.90897 12.08685,-2.13061 16.16609,-1.06703 4.8997,1.27758 20.18181,6.82731 21.02584,7.63554 0.43892,0.42027 0.19632,0.70629 -1.64189,1.93528 -5.19869,3.47585 -18.84773,10.69417 -25.23418,13.34527 -2.82622,1.17325 -9.45316,3.12653 -10.60709,3.12653 -1.58,0 -19.30784,-5.16877 -24.99111,-7.28639 l -2.43705,-0.90812 -2.31914,0.96559 c -6.07609,2.53 -14.75794,4.98921 -22.18678,6.28455 -2.29855,0.40078 -5.46824,1.21321 -8.19121,2.09945 -15.36735,5.0018 -31.95168,9.301 -46.85103,12.14538 -12.41914,2.37092 -19.03311,3.06044 -25.23419,2.63096 z M 147.75396,785.08407 c -2.45521,-0.55904 -4.2676,-1.28349 -8.2432,-3.29531 -7.70681,-3.89998 -23.53404,-13.24571 -24.16748,-14.27065 -0.26155,-0.42315 0.87374,-0.9891 4.21793,-2.1025 5.41433,-1.80266 18.49141,-5.21423 24.96995,-6.51408 4.61495,-0.92604 11.99521,-0.0699 17.30722,2.00877 5.09741,1.9943 12.67632,6.7225 18.07402,11.27566 3.20417,2.70281 3.45084,3.01267 2.91714,3.66403 -0.78696,0.96057 -13.44191,6.45457 -17.55613,7.62174 -5.76785,1.63643 -14.0617,2.39969 -17.51945,1.61234 z m 418.49207,-0.16606 c -6.33845,-0.96575 -9.35819,-1.94975 -18.89693,-6.15737 -6.5246,-2.87801 -6.71477,-3.07367 -4.73224,-4.86886 5.78352,-5.23692 14.21983,-10.69573 20.06203,-12.98148 5.31202,-2.07824 12.69228,-2.93481 17.30722,-2.00877 6.47852,1.29985 19.55563,4.71142 24.96997,6.51408 3.34416,1.1134 4.47947,1.67935 4.2179,2.1025 -0.94187,1.52405 -24.27947,14.80084 -29.22248,16.62472 -3.8436,1.41824 -7.95797,1.65098 -13.70547,0.77518 z m -374.30376,-6.53407 c -2.62612,-1.98839 -5.95545,-4.60865 -7.3985,-5.82293 -1.44305,-1.21419 -5.2946,-4.42458 -8.55901,-7.1343 -7.10867,-5.90054 -11.8845,-10.13085 -15.50414,-13.73298 -3.62901,-3.61142 -17.47417,-18.33687 -20.16612,-21.44827 -7.30047,-8.43778 -26.32739,-36.02172 -36.77138,-53.3084 -16.984015,-28.11175 -29.316998,-51.85604 -26.934417,-51.85604 0.137218,0 1.04243,1.51599 2.011581,3.36897 2.64598,5.05885 4.750366,8.84267 6.796718,12.22077 3.689328,6.09029 32.581028,51.80367 35.988428,56.94202 4.1868,6.31382 16.50668,23.41635 20.02418,27.79777 7.74616,9.64876 20.39186,22.15719 33.09193,32.73265 7.73444,6.44051 16.15282,13.03969 20.21378,15.84567 1.23528,0.85345 2.33332,1.67541 2.4401,1.82643 0.10678,0.15094 0.19595,1.61218 0.19816,3.24722 0.002,2.21348 -0.0802,2.96794 -0.32624,2.95463 -0.18165,-0.01 -2.47894,-1.64482 -5.10507,-3.63321 z m 4.01578,-16.1002 c -1.99133,-6.16428 -2.5439,-10.17056 -2.5439,-18.44391 0,-8.48891 0.28671,-15.44538 0.63623,-15.43716 0.41805,0.01 2.64633,3.35853 7.80671,11.73292 5.29934,8.59981 8.87234,15.42319 8.35037,15.94671 -0.10424,0.10449 -3.0039,0.2496 -6.44363,0.32227 l -6.25408,0.13212 -0.0727,4.29378 c -0.0406,2.40241 -0.18028,4.29378 -0.31706,4.29378 -0.13444,0 -0.65737,-1.27823 -1.16205,-2.84051 z m 23.8357,-6.19116 c -0.42946,-0.34028 -1.54175,-5.32744 -1.54175,-6.91274 0,-1.23178 0.35107,-1.02132 5.62098,3.36914 2.43495,2.02876 3.41081,3.12941 3.05676,3.44807 -0.0497,0.0444 -1.5765,0.16278 -3.39311,0.26258 -2.55603,0.14042 -3.40238,0.10261 -3.74288,-0.16705 z m -48.15067,-6.09563 c -4.94545,-5.87489 -11.41615,-15.14045 -13.0873,-18.74004 -1.67089,-3.59908 -1.89641,-5.69977 -1.32837,-12.37343 0.15461,-1.81657 0.36356,-6.57131 0.46431,-10.56601 0.16029,-6.35533 0.23602,-7.2734 0.6059,-7.34418 0.73554,-0.14091 4.50749,2.6035 6.9866,5.08343 4.83999,4.84148 10.40108,13.63178 11.66114,18.43248 0.27745,1.05709 0.42714,2.62117 0.41178,4.30307 -0.0313,3.42653 -1.5335,19.64174 -2.04485,22.0726 -0.21692,1.03127 -0.3944,1.92664 -0.3944,1.98978 0,0.0633 -0.17381,0.11485 -0.38623,0.11485 -0.21242,0 -1.51228,-1.33776 -2.88858,-2.97263 z m 377.9563,2.8577 c 0,-0.0633 -0.17748,-0.95851 -0.39441,-1.98978 -0.51133,-2.43086 -2.01352,-18.64607 -2.04484,-22.0726 -0.0146,-1.6819 0.13425,-3.24598 0.41178,-4.30307 1.26007,-4.8007 6.82116,-13.591 11.66115,-18.43248 2.47911,-2.47993 6.25106,-5.22434 6.98659,-5.08343 0.36988,0.0707 0.44563,0.98885 0.60591,7.34418 0.10081,3.9947 0.3097,8.74944 0.46432,10.56601 0.56802,6.67366 0.34249,8.77435 -1.32837,12.37343 -2.25468,4.85645 -14.65722,21.71267 -15.97588,21.71267 -0.21243,0 -0.38625,-0.0518 -0.38625,-0.11485 z M 117.6801,751.78959 c -2.20412,-0.70522 -3.60928,-1.4115 -7.58292,-3.81136 -6.62795,-4.00283 -11.963836,-7.84395 -16.973335,-12.21863 -2.931302,-2.55985 -6.241669,-6.11791 -6.798753,-7.30736 -0.586147,-1.2516 0.811517,-1.73418 8.134039,-2.80853 11.018819,-1.61671 13.127849,-1.82923 18.364149,-1.85076 4.576,-0.0189 5.41862,0.0477 7.53062,0.59291 5.68359,1.46749 11.35675,5.07685 20.47801,13.02859 4.74442,4.13618 6.1955,5.61781 6.00019,6.12678 -0.15267,0.39791 -5.27406,2.49753 -9.03886,3.70564 -2.6872,0.86241 -10.32995,3.03486 -14.8285,4.2151 l -3.4665,0.90944 z m 484.36942,-0.19303 c -4.54089,-1.19923 -12.16672,-3.35887 -14.92913,-4.22802 -3.95044,-1.24288 -9.27181,-3.40145 -9.43522,-3.82731 -0.19531,-0.50897 1.25577,-1.9906 6.0002,-6.12678 9.12124,-7.95174 14.79441,-11.5611 20.478,-13.02859 2.112,-0.54531 2.95462,-0.61166 7.53062,-0.59291 5.2363,0.0214 7.34531,0.23405 18.36415,1.85076 7.32252,1.07435 8.72021,1.55693 8.13405,2.80853 -0.55708,1.18945 -3.86745,4.74751 -6.79874,7.30736 -8.01734,7.00136 -20.07329,14.79089 -25.11622,16.22812 -1.25173,0.35664 -1.47391,0.33609 -4.22771,-0.39116 z M 143.59193,722.91311 c -2.41889,-2.83443 -3.73818,-4.92575 -4.35158,-6.89786 -0.65831,-2.11655 -0.65565,-2.21504 0.15436,-5.71917 1.94547,-8.41624 1.99904,-8.77222 1.98837,-13.21168 -0.006,-2.32521 -0.19301,-6.30091 -0.41648,-8.83486 -0.23773,-2.69574 -0.30862,-4.70484 -0.17087,-4.84263 0.13776,-0.13778 0.49557,0.12677 0.86245,0.63756 1.99815,2.7819 7.51196,13.04478 9.06424,16.87135 2.4091,5.9386 2.1715,12.9255 -0.64459,18.95404 -1.08631,2.32554 -3.39821,5.09116 -4.25602,5.09116 -0.27513,0 -1.23303,-0.87967 -2.22988,-2.04791 z m 433.24244,0.58995 c -1.5174,-1.60437 -3.14572,-4.76189 -3.81302,-7.39392 -1.37698,-5.43111 -1.11726,-10.53238 0.7735,-15.19332 1.5523,-3.82657 7.06611,-14.08945 9.06427,-16.87135 0.36685,-0.51079 0.72468,-0.77526 0.86241,-0.63756 0.13782,0.13787 0.0669,2.14689 -0.17084,4.84263 -0.2235,2.53395 -0.41089,6.50965 -0.41649,8.83486 -0.0113,4.43946 0.0431,4.79544 1.98837,13.21168 0.36953,1.59861 0.67295,3.16155 0.67425,3.47322 0.005,1.12951 -1.06538,3.96057 -2.08306,5.51069 -1.58417,2.41301 -4.47097,5.68103 -5.01829,5.68103 -0.26528,0 -1.10277,-0.65606 -1.8611,-1.45796 z M 99.083198,715.43607 c -2.54396,-0.30706 -4.116185,-0.71475 -5.541182,-1.43682 -1.999735,-1.01343 -5.034666,-3.60222 -8.319384,-7.09648 -3.487592,-3.71016 -9.988314,-11.72824 -9.84859,-12.14744 0.40558,-1.21674 6.349565,-1.0704 18.292393,0.45036 11.163905,1.42169 11.485395,1.48401 14.045605,2.72106 4.83607,2.33672 15.4163,12.54016 15.4163,14.86718 0,0.68705 -1.04971,1.03982 -5.13411,1.72531 -6.84477,1.14883 -14.08189,1.49971 -18.911032,0.91683 z m 513.667722,-0.008 c -3.46032,-0.38015 -9.85662,-1.49569 -10.65051,-1.85734 -0.3913,-0.17832 -0.71148,-0.52937 -0.71148,-0.78011 0,-2.32702 10.58023,-12.53047 15.41632,-14.86727 2.5602,-1.23713 2.88167,-1.29928 14.04559,-2.72098 11.94284,-1.52076 17.88683,-1.6671 18.29239,-0.45036 0.13976,0.41912 -6.36101,8.4372 -9.84858,12.14736 -4.95824,5.27465 -7.88094,7.36507 -11.41514,8.1645 -2.18053,0.49319 -11.83823,0.72577 -15.12859,0.3642 z M 124.00201,696.48993 c -0.54572,-0.83569 -1.73842,-2.99278 -2.65044,-4.79364 -2.23464,-4.41249 -2.23095,-4.59287 0.20202,-9.86769 3.029,-6.56695 6.15617,-12.48853 6.59517,-12.48853 0.76717,0 4.18209,8.02844 5.02954,11.82442 0.47236,2.11573 0.10419,3.52798 -2.08928,8.01479 -2.55198,5.22007 -4.90381,8.82993 -5.75264,8.82993 -0.18819,0 -0.78866,-0.68368 -1.33437,-1.51928 z m 474.29226,0.9248 c -1.80063,-1.96619 -6.40455,-10.75418 -6.97918,-13.32192 -0.39217,-1.75244 -0.11152,-3.1535 1.52594,-7.61845 1.48067,-4.03752 3.01187,-7.13429 3.52749,-7.13429 0.43899,0 3.56616,5.92158 6.59515,12.48853 2.43298,5.27482 2.43668,5.4552 0.20204,9.86769 -1.94707,3.84466 -3.50511,6.31292 -3.98481,6.31292 -0.18819,0 -0.58718,-0.26752 -0.88663,-0.59448 z M 89.185318,683.19374 c -5.636997,-0.57976 -8.197843,-1.88127 -11.314519,-5.75059 -1.472132,-1.82766 -7.018166,-10.01731 -8.771948,-12.95344 -1.080035,-1.8081 -0.989672,-2.27884 0.390322,-2.03344 0.36332,0.0649 1.19565,0.19369 1.849626,0.28684 3.12617,0.4451 11.400269,2.86452 14.797013,4.32691 5.345156,2.30104 10.402451,6.5048 14.773868,12.28021 2.51734,3.32598 1.79556,3.90599 -4.99727,4.01624 -2.397909,0.0386 -5.4251,-0.0386 -6.727092,-0.17273 z m 535.422162,0.0329 c -2.78569,-0.51572 -2.97842,-1.26302 -0.99986,-3.87713 4.37139,-5.77549 9.42868,-9.97917 14.77385,-12.28029 3.39673,-1.46239 11.67084,-3.88182 14.79701,-4.32691 0.65397,-0.0932 1.4863,-0.22214 1.84962,-0.28684 1.38002,-0.24541 1.47035,0.22534 0.39033,2.03352 -1.7538,2.93604 -7.29981,11.12578 -8.77196,12.95336 -2.613,3.2441 -4.98921,4.71159 -8.73677,5.396 -2.42666,0.44313 -11.56505,0.70982 -13.30222,0.38829 z m -518.51276,-15.2738 c -2.83383,-3.86357 -3.63556,-7.28508 -2.5469,-10.86929 0.80851,-2.66186 5.6139,-11.95382 6.21854,-12.02452 0.34459,-0.0403 1.70816,3.83405 2.17542,6.18112 0.59543,2.99089 0.17907,7.6353 -1.01856,11.36198 -0.94085,2.92758 -2.9786,6.60584 -3.6597,6.60584 -0.13652,0 -0.66248,-0.5648 -1.1688,-1.25513 z m 510.26591,0.39634 c -2.98329,-3.97258 -4.78187,-12.1023 -3.78512,-17.10903 0.46747,-2.34822 1.79315,-6.11577 2.15959,-6.13747 0.58391,-0.0345 5.39028,9.20194 6.23435,11.98087 0.83315,2.74285 0.63436,5.07637 -0.6525,7.65947 -1.05563,2.11903 -2.6651,4.46495 -3.06319,4.46495 -0.13651,0 -0.53843,-0.38648 -0.89313,-0.85879 z M 82.304443,656.66491 c -7.024103,-1.63668 -11.692956,-4.1028 -14.883792,-7.86171 -1.629799,-1.91999 -4.124026,-6.80241 -5.321805,-10.41728 -0.964701,-2.91155 -1.025665,-3.79245 -0.262451,-3.79245 0.75758,0 4.549936,1.49774 10.527729,4.15772 l 5.120927,2.27868 2.446336,3.71788 c 1.345485,2.04487 3.648621,5.48487 5.118078,7.64434 1.469458,2.15955 2.671741,4.15115 2.671741,4.4259 0,0.42874 -0.196488,0.49689 -1.38722,0.48102 -0.762971,-0.01 -2.576267,-0.29547 -4.029543,-0.6341 z m 554.491637,0.153 c 0,-0.27467 1.20227,-2.26627 2.67173,-4.4259 1.46947,-2.15947 3.7726,-5.59939 5.11807,-7.64434 l 2.44635,-3.7178 5.12093,-2.27876 c 5.97779,-2.65998 9.77014,-4.15764 10.52772,-4.15764 0.76321,0 0.70225,0.8809 -0.26245,3.79237 -1.19779,3.61487 -3.69199,8.49729 -5.32181,10.41728 -3.22203,3.79574 -7.91779,6.2589 -15.01591,7.87708 -3.50986,0.80009 -5.28463,0.84638 -5.28463,0.13779 z M 90.932491,644.43617 c -1.496763,-2.56758 -1.784462,-3.69676 -1.39044,-5.45742 0.605905,-2.70749 4.182075,-10.99112 4.745039,-10.99112 0.393217,0 1.295275,3.01752 1.646676,5.50839 0.452063,3.20438 0.223537,5.01067 -1.041468,8.23174 -1.259654,3.20752 -1.983547,4.49192 -2.531485,4.49192 -0.21372,0 -0.856463,-0.80256 -1.428322,-1.78351 z m 540.308759,0.9248 c -1.05757,-1.72448 -2.70417,-6.38658 -2.83736,-8.03353 -0.2281,-2.82046 1.04668,-9.33981 1.82629,-9.33981 0.29594,0 2.49509,4.55028 3.65514,7.56295 1.19911,3.11404 1.47335,4.64023 1.07423,5.97856 -0.46715,1.56655 -2.3341,4.69054 -2.80308,4.69054 -0.21372,0 -0.62557,-0.3864 -0.91522,-0.85871 z M 73.320542,621.59226 c -1.065459,-0.60689 -4.063527,-3.44363 -6.230542,-5.89544 -2.807038,-3.17595 -4.605227,-5.83699 -5.123434,-7.58195 -0.691387,-2.32825 -2.012431,-16.44171 -1.601236,-17.10705 0.139235,-0.22526 0.339734,-0.17873 0.725533,0.16829 1.352812,1.21698 9.147508,11.17864 10.89963,13.92963 1.124203,1.76518 2.609169,5.57942 3.181723,8.17247 0.597271,2.70495 0.463729,6.2945 -0.281667,7.57077 -0.604576,1.03521 -0.851947,1.15236 -1.570007,0.74328 z m 576.551968,-0.31011 c -1.0206,-1.55767 -1.22425,-4.92369 -0.49433,-8.1714 0.55426,-2.46629 2.06139,-6.29796 3.14859,-8.00501 1.75213,-2.75099 9.54683,-12.71265 10.89964,-13.92963 0.38581,-0.34702 0.5863,-0.39355 0.72553,-0.16829 0.4112,0.66534 -0.90985,14.7788 -1.60122,17.10705 -0.22219,0.74813 -0.96527,2.19375 -1.65128,3.21245 -2.73578,4.0626 -9.18778,10.58302 -10.47193,10.58302 -0.0789,0 -0.32861,-0.28273 -0.555,-0.62819 z" />
    <path
       inkscape:connector-curvature="0"
       id="path6579"
       style="fill:#000000;fill-opacity:1;fill-rule:evenodd;stroke:none"
       d="m 494.99237,447.96604 c -4.27147,3.96534 -6.71635,9.37672 -6.92111,15.2105 -0.39545,12.02428 9.04578,22.15645 21.0693,22.60475 5.85963,0.19197 11.41105,-1.86852 15.67067,-5.85959 4.25961,-3.97834 6.70433,-9.37672 6.92107,-15.19768 0.40953,-12.03727 -9.03193,-22.18226 -21.08107,-22.61667 -5.83378,-0.19164 -11.39926,1.86753 -15.65886,5.85869 m 14.97041,31.27798 c -8.55485,-0.3143 -15.27009,-7.52571 -14.98437,-16.0928 0.1318,-4.14769 1.90477,-7.98158 4.91773,-10.81215 3.02521,-2.82982 6.97647,-4.30274 11.1242,-4.1467 8.56709,0.29966 15.28422,7.49924 14.99641,16.07948 -0.12957,4.1347 -1.87837,7.96826 -4.90363,10.81116 -3.03933,2.8175 -6.99058,4.29074 -11.15057,4.16101 z m 3.6006,-14.07252 c 3.80742,0 6.8974,-2.05974 6.8974,-4.58941 0,-2.54308 -3.09017,-4.60389 -6.8974,-4.60389 -3.80934,0 -6.88727,2.06081 -6.88727,4.60389 0,2.52967 3.07793,4.58941 6.88727,4.58941 M 358.50286,243.70115 c -5.39026,0.0271 -11.37211,0.29763 -14.96875,0.75 -24.48605,3.07942 -40.33596,12.77583 -49.21875,30.125 -5.45645,10.6571 -7.89069,21.33146 -8.78125,38.25 -0.80495,15.29173 0.82289,30.4877 4.5,41.59375 4.73759,14.30897 13.12947,25.38177 27.4375,36.1875 3.37934,2.55228 13.92779,9.16808 21.96875,13.8125 3.26271,1.88455 7.27581,4.22455 8.9375,5.1875 4.4018,2.55089 7.59589,5.04501 9.6875,7.53125 5.67684,0.023 11.0293,0.19761 16.0625,0.375 17.8875,0.62427 36.38366,4.01199 51,7.46875 0.101,-3.15047 0.12676,-6.4577 0.0625,-9.96875 -0.24554,-13.41515 -1.42405,-21.42932 -4.5,-30.65625 -4.07011,-12.20917 -9.25397,-20.78236 -17.65625,-29.1875 -7.54848,-7.55111 -17.03548,-13.73445 -34.59375,-22.5 -13.22889,-6.6042 -15.31536,-7.97649 -16.6875,-11.03125 -1.09327,-2.43381 -1.09007,-8.05346 0,-10.84375 1.67101,-4.27495 6.50369,-6.51378 13.21875,-6.125 4.76651,0.27599 8.67693,2.97887 10.25,7.125 0.38835,1.02362 0.8624,3.39209 1.0625,5.25 l 0.375,3.375 22.3125,0 22.34375,0 0,-28.34375 0,-28.375 -2.875,-2.125 c -12.96132,-9.58405 -31.9989,-16.1003 -51.5,-17.65625 -2.18763,-0.17455 -5.20334,-0.23501 -8.4375,-0.21875 z m 154.21875,0 c -4.04186,0.0496 -7.82554,0.28504 -10.8125,0.71875 -22.70626,3.29704 -39.2601,14.04533 -50.5,32.8125 -8.17792,13.65447 -14.2987,33.46801 -17.0625,55.21875 -2.57281,20.2474 -2.87248,47.47708 -0.8125,69.84375 0.85215,9.25225 2.15521,17.86739 3.90625,25.84375 7.96959,2.17831 13.59809,4.00137 15.375,4.59375 0.0261,-1.17761 0.21875,-11.78125 0.21875,-11.78125 l 0.15625,-0.34375 0.40625,-0.125 c 1.60249,0.23107 25.03942,3.70765 46.8125,9.75 -0.26119,-1.16418 -0.48207,-2.36489 -0.625,-3.53125 -0.49421,-4.03276 -0.4933,-106.6178 0,-110.59375 1.22817,-9.90912 5.31606,-15.25149 12.3125,-16.09375 4.84938,-0.58388 8.79796,0.66513 11.65625,3.6875 1.97668,2.08992 3.12066,4.26331 4,7.53125 1.08016,4.01418 1.34375,8.22488 1.34375,21.84375 l 0,13.03125 25.625,-0.0625 25.625,-0.0937 0.0937,-39.4375 0.0625,-39.46875 -2.5625,-1.9375 c -3.49962,-2.64517 -9.80668,-7.02072 -12.5,-8.65625 -8.12277,-4.93241 -21.67621,-9.65762 -32.96875,-11.5 -5.58668,-0.91143 -13.01356,-1.33271 -19.75,-1.25 z m -299.6875,127.625 c -4.98365,0 -9.95793,0.19407 -12.84375,0.59375 -15.83599,2.19326 -27.78599,7.5669 -36.75,16.53125 -4.14025,4.14029 -6.89218,8.05945 -9.5625,13.53125 -3.42276,7.01361 -5.10679,12.80312 -6.28125,21.59375 -0.66244,4.95814 -0.7443,16.90072 -0.15625,22.0625 2.48995,21.85637 12.46598,37.52834 29.3125,45.96875 5.47446,2.74275 11.44942,4.67338 18.65625,6 10.76945,-17.40937 26.71613,-32.75466 47.59375,-45.78125 l 1.71875,-1.0625 c 12.22963,-7.51637 23.68723,-13.39124 34.46875,-17.96875 -0.0101,-0.38733 -0.0167,-0.76739 -0.0313,-1.15625 -0.85853,-22.87687 -8.60613,-38.69748 -24.21875,-49.53125 -7.20026,-4.99645 -17.31994,-8.56117 -29.0625,-10.1875 -2.88584,-0.39968 -7.8601,-0.59375 -12.84375,-0.59375 z m 367.46875,22.5625 -25.78125,0.0937 -25.75,0.0937 0.0937,13.84375 c 0.0551,8.55797 -0.0521,15.2274 -0.28125,17.46875 -0.64217,6.28357 -2.0256,10.55096 -4.4375,13.34375 1.49319,0.71883 2.89177,1.46339 4.1875,2.21875 2.6614,1.56121 3.97536,3.18645 5.625,4.875 5.93513,6.14093 13.8234,31.71687 14.65625,37 l -0.34375,0.53125 c -0.30612,0.11444 -1.04735,0.64765 -2.03125,1.3125 -5.01475,3.50644 -16.73663,11.71778 -31.78125,10.375 -13.52214,-1.20235 -31.18088,-8.94869 -52.46875,-22.96875 0.75713,1.79304 3.44073,8.13034 4.96875,11.75 1.81875,1.50204 3.69987,2.88633 5.65625,4.15625 8.24869,5.35432 19.17268,9.08753 30.8125,10.5625 5.43851,0.6891 21.662,0.43412 27.28125,-0.4375 4.18296,-0.64886 8.20764,-1.50114 12.0625,-2.5 0.95692,-0.49775 1.83846,-0.95926 2.53125,-1.375 l 1.59375,-0.3125 c 0.15229,0.11687 0.22987,0.28769 0.28125,0.46875 7.48409,-2.27594 14.18089,-5.21563 19.78125,-8.71875 2.9986,-1.87568 10.77397,-7.60936 12.4375,-9.1875 l 0.90625,-0.875 0,-40.84375 0,-40.875 z m -366.875,16.21875 c 1.32949,0.005 2.56372,0.0788 3.34375,0.25 4.71086,1.0339 7.49392,3.88906 8.625,8.8125 0.48848,2.12642 0.40515,29.86411 -0.0937,32.21875 -1.44423,6.8168 -7.52627,10.12384 -15.9375,8.71875 -2.74726,-0.45891 -5.76534,-2.18682 -7,-4.03125 -2.16862,-3.23941 -2.18577,-3.41112 -2.3125,-19.96875 -0.12877,-16.82622 0.0123,-18.37079 2,-21.34375 1.13622,-1.70006 3.53517,-3.49812 5.46875,-4.09375 1.19916,-0.36929 3.69044,-0.57029 5.90625,-0.5625 z m 73.5625,9.5 0,9.96875 c 13.38588,-5.0643 25.68018,-8.13979 36.9375,-9.96875 l -13.40625,0 -23.53125,0 z m -27.875,84.15625 c -6.85413,5.01416 -15.21617,8.74411 -24.46875,10.8125 -5.97395,1.3355 -12.2377,2.08861 -18.53125,2.28125 -2.3415,2.61647 -4.49094,5.66782 -6.40625,9.28125 -5.46312,10.30991 -5.143,23.75363 0.84375,35.0625 6.11509,11.57713 17.04805,18.98702 29.96875,20.40625 12.81853,1.39547 22.43234,-1.56386 27.84375,-8.5625 5.45031,-7.06113 6.48891,-16.67167 2.625,-24.5 -4.15727,-8.41771 -10.42502,-12.88353 -19.125,-13.625 -6.63875,-0.58823 -11.56583,2.18547 -13.34375,5 -0.51186,0.88255 -1.45205,2.49683 -1.46875,4.8125 l 0,0.0625 c 0,6.31982 5.7921,8.0477 6.96875,8.125 0.35782,-0.0118 2.0724,-0.0495 4.375,-0.625 l 1.125,-0.375 0.78125,-0.25 0.5625,-0.125 c 4.19591,-0.76713 8.22961,1.73173 9.40625,5.8125 0.20463,0.75512 0.3125,1.50771 0.3125,2.25 0,2.71235 -1.36648,5.24577 -3.65625,6.78125 l -0.15625,0.0937 -0.375,0.25 c -1.21526,0.75537 -2.33518,1.20372 -3.5,1.5625 -3.30056,1.07427 -6.20911,1.5625 -9.125,1.5625 -10.00402,-0.013 -23.9461,-8.62457 -24.125,-24.78125 -0.0893,-9.12153 4.47221,-17.40308 12.53125,-22.75 9.27452,-6.12794 25.30981,-8.21495 40.1875,0.90625 18.29352,11.19353 23.05256,33.1395 18.28125,48.09375 -6.94591,21.67148 -26.4547,33.23928 -52.21875,30.9375 -16.93015,-1.50602 -32.74329,-9.90514 -43,-22.6875 0.0378,13.02141 0.0642,30.78358 0.0625,60.40625 -0.002,47.42315 -0.11682,86.36988 -0.25,86.5625 -0.16542,0.23941 -5.96148,0.34935 -18.3125,0.375 -9.94101,0.0214 -18.15365,0.12248 -18.25,0.21875 -0.26277,0.26284 -0.3596,30.60903 -0.15625,47.59375 l 0.15625,14.90625 89.875,0 89.875,0 0.1875,-31.21875 c 0.11133,-17.65196 0.0686,-31.36634 -0.0937,-31.53125 -0.16326,-0.16542 -7.05258,-0.21157 -15.9375,-0.125 -10.48304,0.10194 -15.80473,0.039 -16.03125,-0.1875 -0.23018,-0.23011 -0.34852,-34.84765 -0.375,-108.125 -0.0108,-29.85825 -0.0478,-57.00874 -0.0937,-76.75 -8.64322,-19.72984 -26.02823,-34.33562 -45.0625,-37.625 -0.60759,-0.10501 -1.25585,-0.21794 -1.90625,-0.3125 z m -91.78125,1.84375 c -0.95414,0.0554 -2.19635,0.27145 -4.03125,0.625 -5.12148,0.98679 -14.97374,3.22018 -15.84375,3.59375 l -0.75,0.3125 0,21.25 c 0,15.3797 0.10657,21.30293 0.375,21.46875 0.20388,0.12612 10.95586,0.19242 23.90625,0.15625 4.89402,-0.0138 8.71091,-0.01 11.9375,0 -3.03631,-15.49509 0.82804,-31.36865 3.75,-38.625 0.12212,-0.30246 0.25013,-0.60484 0.375,-0.90625 -5.72606,-1.70438 -11.79192,-4.25067 -15.90625,-6.75 -1.42878,-0.86796 -2.22226,-1.21728 -3.8125,-1.125 z m 383.09375,5.8125 -4.1875,1.1875 c -4.73983,1.33932 -10.37641,2.50816 -16.125,3.375 -1.93903,0.29244 -5.41038,0.46794 -9.28125,0.5625 -11.33087,3.52543 -26.40955,5.64627 -40.59375,5.5625 -6.21745,-0.14107 -12.24806,-0.83628 -17.53125,-1.4375 -16.15774,-1.84172 -27.81916,-3.15449 -30.25,11.53125 -1.53705,9.23175 2.02338,19.44596 6,27.375 5.17899,-4.85245 13.64586,-7.20384 22.8125,-6.28125 7.25689,0.73037 11.73403,2.6127 15.71875,6.59375 2.97974,2.97707 4.54351,5.86859 5.78125,10.5625 1.13753,4.31376 1.45094,13.95003 0.59375,18.1875 -1.06946,5.28674 -3.90488,10.51445 -7.3125,13.4375 -1.65782,1.42195 -5.02928,3.32996 -7.03125,3.96875 -4.35543,1.3898 -5.28085,1.45762 -22.71875,1.65625 l -16.96875,0.1875 -0.0937,28.15625 c -0.0497,15.49792 -0.0345,28.50875 0.0625,28.90625 l 0.1875,0.71875 17.21875,0.125 c 16.542,0.11074 17.31807,0.14741 19.8125,0.84375 9.39448,2.62216 15.05511,9.14928 16.84375,19.40625 0.63809,3.6591 0.63608,13.55028 0,18.3125 -1.77628,13.34511 -7.41635,19.85365 -19.03125,21.875 -4.21601,0.73375 -12.50721,0.47701 -16.21875,-0.5 -6.48832,-1.70804 -11.21092,-5.37148 -13.6875,-10.65625 -2.37938,-5.07743 -2.70985,-7.04296 -2.9375,-17.875 l -0.1875,-9.5625 -38.21875,-0.0937 c -21.01656,-0.046 -38.2943,0.0507 -38.40625,0.1875 -0.11189,0.13672 -0.13882,18.42861 -0.0625,40.65625 l 0.125,40.40625 4.8125,2.8125 c 10.92462,6.35822 17.49345,9.3535 28.71875,13.09375 8.74863,2.91492 18.83237,5.17907 32.15625,7.21875 10.67193,1.63373 13.73412,1.96595 25.53125,2.78125 3.84677,0.26587 26.13088,0.17334 30.8125,-0.125 23.13886,-1.47571 40.2245,-5.44339 56.125,-13.03125 18.36309,-8.76309 32.95555,-23.14409 40,-39.40625 7.88777,-18.20895 9.68051,-42.55436 4.34375,-59.0625 -2.21626,-6.85568 -6.00074,-14.40835 -9.90625,-19.75 -5.52363,-7.55474 -12.10783,-13.49435 -22.9375,-20.71875 -2.75329,-1.83662 -5.11682,-3.51585 -5.25,-3.71875 -0.13329,-0.20307 -0.24724,-1.08966 -0.25,-1.96875 -0.006,-1.85742 -0.16977,-1.67297 6.34375,-7.25 5.29677,-4.53499 10.48455,-9.59513 12.84375,-12.5625 7.66954,-9.64654 12.97692,-20.78325 15.0625,-31.59375 2.02205,-10.48165 1.68109,-25.44821 -0.84375,-36.78125 -2.89839,-13.00993 -8.89769,-24.74792 -17,-33.1875 -1.4573,-1.51789 -3.16962,-3.05949 -3.78125,-3.4375 l -1.09375,-0.6875 z m -189.0625,12.5 c -2.21885,0.0596 -4.37123,0.28486 -6.46875,0.625 -0.0758,5.14758 -0.12024,13.57421 -0.15625,28.28125 l -0.0625,35.4375 38.21875,0 38.25,0 0,-4.1875 c 0,-6.83047 0.64775,-12.03114 2.0625,-16.15625 -7.36271,-3.39831 -14.86007,-6.85944 -15.21875,-7.0625 l -0.875,-0.625 -0.6875,-0.65625 c -2.08503,-2.00853 -6.28607,-6.50681 -14.78125,-16.34375 -12.86224,-14.87194 -27.43597,-19.65774 -40.28125,-19.3125 z" />
    <text
       transform="matrix(10.951664,1.7693279,-1.7693279,10.951664,-4870.6256,-7216.6666)"
       xml:space="preserve"
       style="font-size:4.16176462px;font-style:normal;font-weight:normal;line-height:125%;letter-spacing:0px;word-spacing:0px;fill:#000000;fill-opacity:1;stroke:#000000;stroke-width:0.21790999;stroke-miterlimit:4;stroke-dasharray:none;font-family:Sans"
       id="text4384"
       sodipodi:linespacing="125%"
       inkscape:export-filename="/home/CarlosRibeiro/Desktop/Layout3.png"
       inkscape:export-xdpi="149.97067"
       inkscape:export-ydpi="149.97067"><textPath
         id="textPath4386"
         xlink:href="#path4342"><tspan
   style="font-style:normal;font-variant:normal;font-weight:normal;font-stretch:normal;text-align:center;text-anchor:middle;fill:#000000;stroke:#000000;stroke-width:0.21790999;stroke-miterlimit:4;stroke-dasharray:none;font-family:Stalinist One;-inkscape-font-specification:Stalinist One"
   id="tspan4388">POWER TO THE GEEKO</tspan></textPath></text>
    <text
       sodipodi:linespacing="125%"
       style="font-size:5.31010818000000029px;font-style:normal;font-variant:normal;font-weight:bold;font-stretch:normal;line-height:125%;letter-spacing:0px;word-spacing:0px;fill:#000000;fill-opacity:1;stroke:none;font-family:FifthLeg;-inkscape-font-specification:Sans Bold"
       xml:space="preserve"
       id="text3131-1"
       y="922.04175"
       x="62.970139"><tspan
         style="font-size:53.10108184999999992px;fill:#000000"
         id="tspan3133-0"
         y="922.04175"
         x="62.970139">conference.opensuse.org</tspan></text>
    <path
       sodipodi:type="arc"
       style="color:#000000;fill:none;stroke:none;stroke-width:1;marker:none;visibility:visible;display:inline;overflow:visible;enable-background:accumulate"
       id="path7423-5"
       sodipodi:cx="884.41559"
       sodipodi:cy="315.63318"
       sodipodi:rx="71.767273"
       sodipodi:ry="72.838425"
       d="m 956.18286,315.63318 a 71.767273,72.838425 0 1 1 -143.53454,0 71.767273,72.838425 0 1 1 143.53454,0 z"
       transform="matrix(-0.13077407,4.8695398,-4.8695398,-0.13077407,2004.1573,-3730.111)"
       inkscape:export-filename="/home/CarlosRibeiro/Desktop/Layout3.png"
       inkscape:export-xdpi="149.97067"
       inkscape:export-ydpi="149.97067" />
    <text
       inkscape:export-ydpi="149.97067"
       inkscape:export-xdpi="149.97067"
       inkscape:export-filename="/home/CarlosRibeiro/Desktop/Layout3.png"
       xml:space="preserve"
       style="font-size:184.67572021px;font-style:normal;font-variant:normal;font-weight:bold;font-stretch:normal;line-height:81.99999928%;letter-spacing:0px;word-spacing:0px;color:#000000;fill:#ff0000;fill-opacity:1;fill-rule:nonzero;stroke:none;stroke-width:4.14025307;marker:none;visibility:visible;display:inline;overflow:visible;enable-background:accumulate;font-family:FifthLeg;-inkscape-font-specification:FifthLeg Bold"
       x="591.90167"
       y="1010.3768"
       id="text7430"
       sodipodi:linespacing="81.999999%"><tspan
         id="tspan7432"
         style="font-size:106.24737549px;text-align:end;line-height:81.99999928%;text-anchor:end;color:#000000;fill:#ff0000;fill-opacity:1;fill-rule:nonzero;stroke-width:4.14025307;marker:none;visibility:visible;display:inline;overflow:visible;enable-background:accumulate"
         sodipodi:role="line"
         x="591.90167"
         y="1010.3768">Volunteer</tspan></text>
    <text
       inkscape:export-ydpi="149.97067"
       inkscape:export-xdpi="149.97067"
       inkscape:export-filename="/home/CarlosRibeiro/Desktop/Layout3.png"
       sodipodi:linespacing="125%"
       id="text6219-3"
       y="464.40472"
       x="-1349.7379"
       style="font-size:3.94562626px;font-style:normal;font-weight:normal;line-height:125%;letter-spacing:0px;word-spacing:0px;fill:#000000;fill-opacity:1;stroke:none;font-family:Sans"
       xml:space="preserve"><tspan
         id="tspan6221-5"
         y="464.40472"
         x="-1349.7379"
         sodipodi:role="line" /></text>
    <text
       inkscape:export-ydpi="149.97067"
       inkscape:export-xdpi="149.97067"
       inkscape:export-filename="/home/CarlosRibeiro/Desktop/Layout3.png"
       y="319.48083"
       x="-1168.7489"
       xml:space="preserve"
       style="font-size:18.22095108px;font-style:normal;font-variant:normal;font-weight:bold;font-stretch:normal;text-align:center;line-height:125%;letter-spacing:0px;word-spacing:0px;text-anchor:middle;fill:#000000;fill-opacity:1;stroke:none;font-family:FifthLeg;-inkscape-font-specification:FifthLeg Bold"
       id="text4225"
       sodipodi:linespacing="125%" />
    <text
       inkscape:export-ydpi="149.97067"
       inkscape:export-xdpi="149.97067"
       inkscape:export-filename="/home/CarlosRibeiro/Desktop/Layout3.png"
       xml:space="preserve"
       style="font-size:2.12773633px;font-style:normal;font-weight:normal;line-height:125%;letter-spacing:0px;word-spacing:0px;color:#000000;fill:#6eb927;fill-opacity:1;fill-rule:nonzero;stroke:none;stroke-width:3.85548687;marker:none;visibility:visible;display:inline;overflow:visible;enable-background:accumulate;font-family:Sans"
       x="-1078.2847"
       y="430.2309"
       id="text3761"
       sodipodi:linespacing="125%"><tspan
         sodipodi:role="line"
         id="tspan3763"
         x="-1078.2847"
         y="430.2309" /></text>
    <text
       inkscape:export-ydpi="149.97067"
       inkscape:export-xdpi="149.97067"
       inkscape:export-filename="/home/CarlosRibeiro/Desktop/Layout3.png"
       xml:space="preserve"
       style="font-size:3.19160461px;font-style:normal;font-weight:normal;line-height:125%;letter-spacing:0px;word-spacing:0px;color:#000000;fill:#6eb927;fill-opacity:1;fill-rule:nonzero;stroke:none;stroke-width:3.85548687;marker:none;visibility:visible;display:inline;overflow:visible;enable-background:accumulate;font-family:Sans"
       x="-1078.0946"
       y="429.13864"
       id="text3765"
       sodipodi:linespacing="125%"><tspan
         sodipodi:role="line"
         x="-1078.0946"
         y="429.13864"
         id="tspan3773" /></text>
    <flowRoot
       inkscape:export-ydpi="149.97067"
       inkscape:export-xdpi="149.97067"
       inkscape:export-filename="/home/CarlosRibeiro/Desktop/Layout3.png"
       transform="matrix(0.24767387,0,0,0.24767387,-1168.7488,369.01563)"
       style="font-size:40px;font-style:normal;font-weight:normal;line-height:125%;letter-spacing:0px;word-spacing:0px;fill:#000000;fill-opacity:1;stroke:none;font-family:Sans"
       id="flowRoot4175"
       xml:space="preserve"><flowRegion
         id="flowRegion4177"><rect
           y="931.19714"
           x="0"
           height="208.09729"
           width="398.85315"
           id="rect4179" /></flowRegion><flowPara
         id="flowPara4181" /></flowRoot>    <g
       id="layer3"
       inkscape:label="text"
       transform="matrix(3.375876,0,0,3.375876,-4889.6279,431.93525)"
       inkscape:export-filename="/home/CarlosRibeiro/Desktop/Layout3.png"
       inkscape:export-xdpi="149.97067"
       inkscape:export-ydpi="149.97067" />
    <text
       xml:space="preserve"
       style="font-size:161.85081482px;font-style:normal;font-weight:normal;line-height:125%;letter-spacing:0px;word-spacing:0px;fill:#000000;fill-opacity:1;stroke:none;font-family:Sans"
       x="-2421.7817"
       y="1580.0433"
       id="text4587"
       sodipodi:linespacing="125%"
       inkscape:export-filename="/home/CarlosRibeiro/Desktop/Layout3.png"
       inkscape:export-xdpi="149.97067"
       inkscape:export-ydpi="149.97067"><tspan
         sodipodi:role="line"
         x="-2421.7817"
         y="1580.0433"
         id="tspan4591" /></text>
    <text
       inkscape:export-ydpi="149.97067"
       inkscape:export-xdpi="149.97067"
       inkscape:export-filename="/home/CarlosRibeiro/Desktop/Layout3.png"
       sodipodi:linespacing="125%"
       id="text6219-3-3"
       y="419.06714"
       x="-4030.0833"
       style="font-size:3.94562626px;font-style:normal;font-weight:normal;line-height:125%;letter-spacing:0px;word-spacing:0px;fill:#000000;fill-opacity:1;stroke:none;font-family:Sans"
       xml:space="preserve"><tspan
         id="tspan6221-5-2"
         y="419.06714"
         x="-4030.0833"
         sodipodi:role="line" /></text>
    <text
       inkscape:export-ydpi="149.97067"
       inkscape:export-xdpi="149.97067"
       inkscape:export-filename="/home/CarlosRibeiro/Desktop/Layout3.png"
       y="274.14331"
       x="-3849.0947"
       xml:space="preserve"
       style="font-size:18.22095108px;font-style:normal;font-variant:normal;font-weight:bold;font-stretch:normal;text-align:center;line-height:125%;letter-spacing:0px;word-spacing:0px;text-anchor:middle;fill:#000000;fill-opacity:1;stroke:none;font-family:FifthLeg;-inkscape-font-specification:FifthLeg Bold"
       id="text4225-6"
       sodipodi:linespacing="125%" />
    <text
       inkscape:export-ydpi="149.97067"
       inkscape:export-xdpi="149.97067"
       inkscape:export-filename="/home/CarlosRibeiro/Desktop/Layout3.png"
       xml:space="preserve"
       style="font-size:2.12773633px;font-style:normal;font-weight:normal;line-height:125%;letter-spacing:0px;word-spacing:0px;color:#000000;fill:#6eb927;fill-opacity:1;fill-rule:nonzero;stroke:none;stroke-width:3.85548687;marker:none;visibility:visible;display:inline;overflow:visible;enable-background:accumulate;font-family:Sans"
       x="-3758.6304"
       y="384.89337"
       id="text3761-1"
       sodipodi:linespacing="125%"><tspan
         sodipodi:role="line"
         id="tspan3763-0"
         x="-3758.6304"
         y="384.89337" /></text>
    <text
       inkscape:export-ydpi="149.97067"
       inkscape:export-xdpi="149.97067"
       inkscape:export-filename="/home/CarlosRibeiro/Desktop/Layout3.png"
       xml:space="preserve"
       style="font-size:3.19160461px;font-style:normal;font-weight:normal;line-height:125%;letter-spacing:0px;word-spacing:0px;color:#000000;fill:#6eb927;fill-opacity:1;fill-rule:nonzero;stroke:none;stroke-width:3.85548687;marker:none;visibility:visible;display:inline;overflow:visible;enable-background:accumulate;font-family:Sans"
       x="-3758.4402"
       y="383.80109"
       id="text3765-0"
       sodipodi:linespacing="125%"><tspan
         sodipodi:role="line"
         x="-3758.4402"
         y="383.80109"
         id="tspan3773-3" /></text>
    <flowRoot
       inkscape:export-ydpi="149.97067"
       inkscape:export-xdpi="149.97067"
       inkscape:export-filename="/home/CarlosRibeiro/Desktop/Layout3.png"
       transform="matrix(0.24767387,0,0,0.24767387,-3849.0948,323.67822)"
       style="font-size:40px;font-style:normal;font-weight:normal;line-height:125%;letter-spacing:0px;word-spacing:0px;fill:#000000;fill-opacity:1;stroke:none;font-family:Sans"
       id="flowRoot4175-0"
       xml:space="preserve"><flowRegion
         id="flowRegion4177-1"><rect
           y="931.19714"
           x="0"
           height="208.09729"
           width="398.85315"
           id="rect4179-1" /></flowRegion><flowPara
         id="flowPara4181-8" /></flowRoot>    <g
       id="layer3-6"
       inkscape:label="text"
       transform="matrix(3.375876,0,0,3.375876,-7569.9741,386.59784)"
       inkscape:export-filename="/home/CarlosRibeiro/Desktop/Layout3.png"
       inkscape:export-xdpi="149.97067"
       inkscape:export-ydpi="149.97067" />
    <text
       xml:space="preserve"
       style="font-size:161.85081482px;font-style:normal;font-weight:normal;line-height:125%;letter-spacing:0px;word-spacing:0px;fill:#000000;fill-opacity:1;stroke:none;font-family:Sans"
       x="-5102.1274"
       y="1534.7059"
       id="text4587-1"
       sodipodi:linespacing="125%"
       inkscape:export-filename="/home/CarlosRibeiro/Desktop/Layout3.png"
       inkscape:export-xdpi="149.97067"
       inkscape:export-ydpi="149.97067"><tspan
         sodipodi:role="line"
         x="-5102.1274"
         y="1534.7059"
         id="tspan4591-8" /></text>
  </g>
</svg>
