<?xml version="1.0" encoding="UTF-8" standalone="no"?>
<!-- Created with Inkscape (http://www.inkscape.org/) -->

<svg
   xmlns:dc="http://purl.org/dc/elements/1.1/"
   xmlns:cc="http://creativecommons.org/ns#"
   xmlns:rdf="http://www.w3.org/1999/02/22-rdf-syntax-ns#"
   xmlns:svg="http://www.w3.org/2000/svg"
   xmlns="http://www.w3.org/2000/svg"
   xmlns:sodipodi="http://sodipodi.sourceforge.net/DTD/sodipodi-0.dtd"
   xmlns:inkscape="http://www.inkscape.org/namespaces/inkscape"
   width="744.09448819"
   height="1052.3622047"
   id="svg2"
   version="1.1"
   inkscape:version="0.48.2 r9819"
   sodipodi:docname="tshirtlogoGreenAttendee.svg"
   inkscape:export-filename="/Users/josh-andy/Documents/artwork/Marketing Materials/Events/openSUSE Conference/2013/T-shirts/tshirtlogoGreenAttendee.png"
   inkscape:export-xdpi="75"
   inkscape:export-ydpi="75">
  <defs
     id="defs4" />
  <sodipodi:namedview
     id="base"
     pagecolor="#7ee500"
     bordercolor="#282c00"
     borderopacity="1"
     inkscape:pageopacity="1"
     inkscape:pageshadow="2"
     inkscape:zoom="0.49497474"
     inkscape:cx="106.68188"
     inkscape:cy="429.65241"
     inkscape:document-units="px"
     inkscape:current-layer="layer1"
     showgrid="false"
     inkscape:window-width="1920"
     inkscape:window-height="984"
     inkscape:window-x="0"
     inkscape:window-y="0"
     inkscape:window-maximized="1" />
  <metadata
     id="metadata7">
    <rdf:RDF>
      <cc:Work
         rdf:about="">
        <dc:format>image/svg+xml</dc:format>
        <dc:type
           rdf:resource="http://purl.org/dc/dcmitype/StillImage" />
        <dc:title></dc:title>
      </cc:Work>
    </rdf:RDF>
  </metadata>
  <g
     inkscape:label="Layer 1"
     inkscape:groupmode="layer"
     id="layer1">
    <g
       transform="matrix(3.3694941,0,0,3.3694941,-1304.0698,-103.86333)"
       id="layer1-5"
       inkscape:label="Layer 1">
      <g
         style="stroke:#000000"
         transform="translate(-28.569025,-500.62579)"
         id="g3219">
        <path
           style="fill:none;stroke:#000000;stroke-width:2;stroke-linecap:butt;stroke-linejoin:miter;stroke-miterlimit:4;stroke-opacity:1;stroke-dasharray:none"
           d="m 67.613793,570.41735 c 24.468075,-13.10042 45.356037,-11.77452 66.041377,-23.06206 11.09637,2.43104 19.357,1.4592 26.99311,-0.26207 23.42862,10.78637 44.02825,12.51579 66.04138,23.5862 -1.82964,11.55946 -5.85886,21.54778 -12.57932,29.6138 -8.15361,-4.36994 -15.86829,-6.10632 -23.32413,-6.28966 l -0.52414,78.62069 c -32.1215,5.98273 -59.34716,3.39775 -85.95862,-0.26207 l -0.26207,-78.09655 c -9.370679,-0.2722 -16.500436,3.19047 -23.848277,6.28966 -7.067215,-9.63539 -10.36885,-19.80873 -12.57931,-30.13794 z"
           id="path2427"
           sodipodi:nodetypes="ccccccccccc"
           inkscape:connector-curvature="0" />
        <path
           style="fill:none;stroke:#000000;stroke-width:1px;stroke-linecap:butt;stroke-linejoin:miter;stroke-opacity:1"
           d="m 71.282759,569.10701 c 2.214678,10.74851 6.083496,20.78686 13.627586,29.35172"
           id="path3199"
           sodipodi:nodetypes="cc"
           inkscape:connector-curvature="0" />
        <path
           style="fill:none;stroke:#000000;stroke-width:1px;stroke-linecap:butt;stroke-linejoin:miter;stroke-opacity:1"
           d="m 105.35172,668.16908 c 28.12874,4.60443 56.25747,5.59295 84.38621,-0.26207"
           id="path3203"
           sodipodi:nodetypes="cc"
           inkscape:connector-curvature="0" />
        <path
           style="fill:none;stroke:#000000;stroke-width:1px;stroke-linecap:butt;stroke-linejoin:miter;stroke-opacity:1"
           d="m 133.3931,547.61736 c -0.22816,2.3247 1.69237,12.73282 13.88965,13.36551 11.93593,0.61914 14.27527,-11.53603 13.88966,-13.10345"
           id="path3205"
           sodipodi:nodetypes="czc"
           inkscape:connector-curvature="0" />
        <path
           sodipodi:nodetypes="czc"
           id="path3207"
           d="m 128.21194,550.41871 c -0.22816,2.3247 4.57424,15.11165 18.34482,15.46206 14.03248,0.35707 19.77872,-14.68086 19.39311,-16.24828"
           style="fill:none;stroke:#000000;stroke-width:1px;stroke-linecap:butt;stroke-linejoin:miter;stroke-opacity:1"
           inkscape:connector-curvature="0" />
        <path
           style="fill:none;stroke:#000000;stroke-width:1px;stroke-linecap:butt;stroke-linejoin:miter;stroke-opacity:1"
           d="m 134.52279,552.33459 c 8.53814,2.23324 16.08174,1.75419 25.31809,-0.20185"
           id="path3209"
           sodipodi:nodetypes="cc"
           inkscape:connector-curvature="0" />
        <path
           style="fill:none;stroke:#000000;stroke-width:1px;stroke-linecap:butt;stroke-linejoin:miter;stroke-opacity:1"
           d="m 104.16182,558.28077 c 2.57594,9.88539 6.83803,21.48891 -0.26207,35.37931"
           id="path3213"
           sodipodi:nodetypes="cc"
           inkscape:connector-curvature="0" />
        <path
           sodipodi:nodetypes="cc"
           id="path3215"
           d="m 190.37521,558.48262 c -2.57594,9.88539 -6.83803,21.48891 0.26207,35.37931"
           style="fill:none;stroke:#000000;stroke-width:1px;stroke-linecap:butt;stroke-linejoin:miter;stroke-opacity:1"
           inkscape:connector-curvature="0" />
        <path
           sodipodi:nodetypes="cc"
           id="path3217"
           d="m 223.28276,568.84494 c -2.21468,10.74851 -6.0835,20.78686 -13.62759,29.35172"
           style="fill:none;stroke:#000000;stroke-width:1px;stroke-linecap:butt;stroke-linejoin:miter;stroke-opacity:1"
           inkscape:connector-curvature="0" />
      </g>
      <g
         style="stroke:#000000"
         id="g3272"
         transform="translate(137.76557,-500.62579)">
        <path
           sodipodi:nodetypes="ccccccccccc"
           id="path3274"
           d="m 67.613793,570.41735 c 24.468075,-13.10042 45.356037,-11.77452 66.041377,-23.06206 11.09637,2.43104 19.357,1.4592 26.99311,-0.26207 23.42862,10.78637 44.02825,12.51579 66.04138,23.5862 -1.82964,11.55946 -5.85886,21.54778 -12.57932,29.6138 -8.15361,-4.36994 -15.86829,-6.10632 -23.32413,-6.28966 l -0.52414,78.62069 c -32.1215,5.98273 -59.34716,3.39775 -85.95862,-0.26207 l -0.26207,-78.09655 c -9.370679,-0.2722 -16.500436,3.19047 -23.848277,6.28966 -7.067215,-9.63539 -10.36885,-19.80873 -12.57931,-30.13794 z"
           style="fill:none;stroke:#000000;stroke-width:2;stroke-linecap:butt;stroke-linejoin:miter;stroke-miterlimit:4;stroke-opacity:1;stroke-dasharray:none"
           inkscape:connector-curvature="0" />
        <path
           sodipodi:nodetypes="cc"
           id="path3276"
           d="m 71.282759,569.10701 c 2.214678,10.74851 6.083496,20.78686 13.627586,29.35172"
           style="fill:none;stroke:#000000;stroke-width:1px;stroke-linecap:butt;stroke-linejoin:miter;stroke-opacity:1"
           inkscape:connector-curvature="0" />
        <path
           sodipodi:nodetypes="cc"
           id="path3278"
           d="m 105.35172,668.16908 c 28.12874,4.60443 56.25747,5.59295 84.38621,-0.26207"
           style="fill:none;stroke:#000000;stroke-width:1px;stroke-linecap:butt;stroke-linejoin:miter;stroke-opacity:1"
           inkscape:connector-curvature="0" />
        <path
           sodipodi:nodetypes="cc"
           id="path3284"
           d="m 128.66915,549.91239 c 8.00755,6.19134 27.90788,6.57541 36.62167,-0.20184"
           style="fill:none;stroke:#000000;stroke-width:1px;stroke-linecap:butt;stroke-linejoin:miter;stroke-opacity:1"
           inkscape:connector-curvature="0" />
        <path
           sodipodi:nodetypes="cc"
           id="path3286"
           d="m 104.16182,558.28077 c 2.57594,9.88539 6.83803,21.48891 -0.26207,35.37931"
           style="fill:none;stroke:#000000;stroke-width:1px;stroke-linecap:butt;stroke-linejoin:miter;stroke-opacity:1"
           inkscape:connector-curvature="0" />
        <path
           style="fill:none;stroke:#000000;stroke-width:1px;stroke-linecap:butt;stroke-linejoin:miter;stroke-opacity:1"
           d="m 190.37521,558.48262 c -2.57594,9.88539 -6.83803,21.48891 0.26207,35.37931"
           id="path3288"
           sodipodi:nodetypes="cc"
           inkscape:connector-curvature="0" />
        <path
           style="fill:none;stroke:#000000;stroke-width:1px;stroke-linecap:butt;stroke-linejoin:miter;stroke-opacity:1"
           d="m 223.28276,568.84494 c -2.21468,10.74851 -6.0835,20.78686 -13.62759,29.35172"
           id="path3290"
           sodipodi:nodetypes="cc"
           inkscape:connector-curvature="0" />
      </g>
      <text
         id="text3455"
         y="42.352989"
         x="160.34122"
         style="font-size:14px;font-style:normal;font-weight:normal;fill:#000000;fill-opacity:1;stroke:none;font-family:Bitstream Vera Sans"
         xml:space="preserve"><tspan
           y="42.352989"
           x="160.34122"
           id="tspan3457"
           sodipodi:role="line">Male T-Shirt</tspan></text>
      <text
         id="text3463"
         y="190.35298"
         x="104.11591"
         style="font-size:12px;font-style:normal;font-variant:normal;font-weight:normal;font-stretch:normal;fill:#000000;fill-opacity:1;stroke:none;font-family:Liberation Sans;-inkscape-font-specification:Liberation Sans"
         xml:space="preserve"><tspan
           y="190.35298"
           x="104.11591"
           id="tspan3465"
           sodipodi:role="line">Front</tspan></text>
      <text
         xml:space="preserve"
         style="font-size:12px;font-style:normal;font-variant:normal;font-weight:normal;font-stretch:normal;fill:#000000;fill-opacity:1;stroke:none;font-family:Liberation Sans;-inkscape-font-specification:Liberation Sans"
         x="271.06866"
         y="190.35298"
         id="text3467"><tspan
           sodipodi:role="line"
           id="tspan3469"
           x="271.06866"
           y="190.35298">Back</tspan></text>
    </g>
    <text
       xml:space="preserve"
       style="font-size:31.9395504px;font-style:normal;font-weight:normal;line-height:125%;letter-spacing:0px;word-spacing:0px;fill:#0d5eaf;fill-opacity:1;stroke:none;font-family:Sans"
       x="170.81093"
       y="794.24146"
       id="text4182"
       sodipodi:linespacing="125%"><tspan
         sodipodi:role="line"
         id="tspan4184"
         x="170.81093"
         y="794.24146"
         style="fill:#0d5eaf;fill-opacity:1">conference.opensuse.org</tspan></text>
    <g
       id="g11890"
       transform="translate(26.553133,1.3907811)"
       style="stroke:#7ee500;stroke-opacity:1">
      <g
         id="g11863"
         style="stroke:#7ee500;stroke-opacity:1">
        <g
           transform="matrix(0,-0.83509185,-1.3215746,0,2050.1343,1607.6784)"
           id="g10862"
           style="stroke:#7ee500;stroke-opacity:1">
          <path
             inkscape:connector-curvature="0"
             id="path10864"
             d="m 1107.3566,1377.9999 c -6.5544,-10.4256 -16.0163,-29.4627 -18.4106,-37.042 -2.197,-6.9549 -2.8393,-12.2132 -2.0084,-16.4432 1.6156,-8.2242 13.9557,-44.9677 15.6821,-46.694 1.0132,-1.0132 3.5679,2.6758 7.6921,11.1074 5.5662,11.3795 8.7941,19.7354 11.5239,29.8313 2.7777,10.2731 3.1529,13.1396 2.2866,17.4736 -1.2431,6.2194 -4.031,17.9528 -5.4772,23.0519 -1.7101,6.0299 -8.0023,22.2328 -8.6338,22.2328 -0.2436,0 -1.4382,-1.583 -2.6547,-3.5178 z"
             style="fill:#0d5eaf;fill-opacity:1;stroke:#7ee500;stroke-opacity:1" />
          <path
             inkscape:connector-curvature="0"
             id="path10866"
             d="m 1133.5192,1319.5697 c -7.1386,-10.9268 -9.5685,-18.6447 -9.6473,-30.6416 -0.048,-7.2546 0.076,-8.2598 1.5579,-12.6643 1.7836,-5.3015 8.0108,-17.7041 13.0095,-25.9106 1.7848,-2.9303 5.174,-8.5401 7.5313,-12.4661 2.3574,-3.9261 4.3617,-7.0628 4.454,-6.9705 1.2869,1.2869 10.428,40.3092 10.4249,44.5029 0,4.7175 -2.5356,14.3975 -5.0797,19.4185 -2.7205,5.3693 -15.6205,27.9781 -17.0016,29.7974 l -1.0425,1.3731 -4.2065,-6.4388 z"
             style="fill:#0d5eaf;fill-opacity:1;stroke:#7ee500;stroke-opacity:1" />
          <path
             inkscape:connector-curvature="0"
             id="path10868"
             d="m 1173.0442,1277.1081 c -2.0995,-5.135 -2.849,-10.3939 -3.4499,-24.2086 l -0.6125,-14.0771 2.2626,-4.4971 c 2.9762,-5.9154 7.8425,-12.4396 16.8722,-22.6207 8.2423,-9.2933 13.4773,-14.6099 13.935,-14.1521 0.6011,0.6011 3.0334,18.9112 3.3902,25.5215 0.3234,5.9912 0.2261,7.1994 -0.8611,10.6943 -1.6029,5.1526 -6.0144,13.9562 -9.5732,19.1041 -3.4013,4.9201 -13.2703,17.179 -17.925,22.2657 l -3.3479,3.6586 -0.6904,-1.6886 0,0 z"
             style="fill:#0d5eaf;fill-opacity:1;stroke:#7ee500;stroke-opacity:1" />
          <path
             inkscape:connector-curvature="0"
             id="path10870"
             d="m 1224.9504,1227.1317 c -0.7627,-0.919 -1.3559,-3.5945 -3.2083,-14.4705 -1.2741,-7.4805 -1.4329,-9.647 -1.1142,-15.1971 0.7006,-12.1973 1.9257,-15.777 7.9949,-23.3585 4.3656,-5.4535 20.9955,-23.2806 23.8781,-25.5971 l 2.0705,-1.6639 0.3516,1.401 c 0.7412,2.9529 1.4405,16.1466 1.4877,28.0671 0.048,11.9981 0,12.5826 -1.441,16.93 -0.8196,2.4765 -2.2191,6.0225 -3.11,7.88 -3.2436,6.762 -12.2675,16.4914 -22.0043,23.7244 -2.2295,1.6561 -4.1095,3.0112 -4.1778,3.0112 -0.068,0 -0.3955,-0.327 -0.7272,-0.7266 l 0,0 z"
             style="fill:#0d5eaf;fill-opacity:1;stroke:#7ee500;stroke-opacity:1" />
          <path
             inkscape:connector-curvature="0"
             id="path10872"
             d="m 1273.0167,1185.8141 c -0.5312,-3.9631 -1.1126,-12.1833 -1.2921,-18.2671 l -0.3262,-11.0615 1.5959,-2.7285 c 2.2824,-3.9019 14.5836,-15.9526 22.4617,-22.0043 6.8702,-5.2774 14.3513,-9.5852 15.4581,-8.9012 0.8642,0.5341 0.7817,3.3691 -0.5095,17.5121 -1.3391,14.6668 -2.1876,18.962 -4.8393,24.4951 -2.5178,5.2538 -5.7269,9.003 -12.7199,14.861 -5.1962,4.3529 -16.2205,12.2861 -18.0473,12.9871 -0.6578,0.2524 -1.0024,-1.0807 -1.7814,-6.8927 l 0,0 z"
             style="fill:#0d5eaf;fill-opacity:1;stroke:#7ee500;stroke-opacity:1" />
          <path
             inkscape:connector-curvature="0"
             id="path10874"
             d="m 1317.9086,1171.8055 c -0.6224,-1.622 0.3099,-13.9047 1.4703,-19.3698 2.0633,-9.7185 3.9128,-14.6032 6.5137,-17.2041 4.3901,-4.3901 12.3698,-9.1879 24.4119,-14.6775 l 4.1565,-1.8948 -0.2799,3.8018 c -0.2101,2.8551 -1.1232,5.9743 -3.6665,12.5261 -1.8627,4.7983 -4.1959,11.1875 -5.1849,14.1981 -1.3412,4.0831 -2.4277,6.2387 -4.2756,8.4833 -3.6117,4.3871 -14.1494,11.7507 -19.994,13.9714 -2.5351,0.9633 -2.8391,0.9793 -3.1515,0.1655 l 0,0 z"
             style="fill:#0d5eaf;fill-opacity:1;stroke:#7ee500;stroke-opacity:1" />
          <path
             inkscape:connector-curvature="0"
             id="path10876"
             d="m 1361.2575,1154.9434 c -0.9746,-2.5399 1.8911,-14.6144 4.8685,-20.5124 1.9609,-3.8846 4.6668,-5.9834 11.3453,-8.8001 4.2731,-1.8021 16.913,-6.4037 17.5902,-6.4037 1.359,0 -2.8488,8.9944 -8.442,18.045 -4.4128,7.1407 -10.7373,12.4613 -20.0487,16.8663 -4.026,1.9047 -4.8437,2.0286 -5.3133,0.8049 l 0,0 z"
             style="fill:#0d5eaf;fill-opacity:1;stroke:#7ee500;stroke-opacity:1" />
          <path
             inkscape:connector-curvature="0"
             id="path10878"
             d="m 1395.9607,1144.5765 c 0,-1.1673 2.4183,-6.5831 4.6327,-10.3745 4.5344,-7.764 9.6882,-11.9695 16.9421,-13.8247 4.7366,-1.2114 12.1897,-2.052 13.5537,-1.5286 0.8714,0.3344 -1.0408,3.218 -9.5388,14.3841 l -2.8344,3.7243 -6.4526,2.2865 c -3.549,1.2575 -8.3156,3.0938 -10.5924,4.0807 -4.3012,1.8643 -5.7103,2.1733 -5.7103,1.2522 z"
             style="fill:#0d5eaf;fill-opacity:1;stroke:#7ee500;stroke-opacity:1" />
          <path
             inkscape:connector-curvature="0"
             id="path10880"
             d="m 1449.9947,1141.744 c -2.7129,-0.3673 -5.5534,-1.6514 -6.6946,-3.0265 -0.5913,-0.7124 -0.2722,-1.1606 2.0109,-2.8244 4.179,-3.0453 10.7431,-6.6646 14.2102,-7.8351 2.4918,-0.8413 3.9948,-0.9823 7.3561,-0.6902 4.822,0.4189 18.1065,2.4581 18.486,2.8375 0.511,0.5111 -19.4398,9.8554 -22.7043,10.6339 -4.1591,0.9919 -9.3058,1.3596 -12.6643,0.9048 z"
             style="fill:#0d5eaf;fill-opacity:1;stroke:#7ee500;stroke-opacity:1" />
          <path
             inkscape:connector-curvature="0"
             id="path10882"
             d="m 1111.1815,1410.1115 c -0.031,-6.7405 1.3276,-17.4329 2.8834,-22.6833 5.6275,-18.9915 26.5763,-61.0142 39.5635,-79.3631 2.8484,-4.0244 7.129,-10.1497 9.5124,-13.6117 2.4344,-3.5363 5.7092,-7.4826 7.4729,-9.0057 6.9051,-5.9626 12.4753,-11.5221 19.0708,-19.0338 3.8053,-4.334 9.159,-10.0623 11.8971,-12.7296 8.9743,-8.7421 23.2791,-21.2943 27.5587,-24.1822 2.3081,-1.5574 7.7978,-5.6672 12.1992,-9.1327 9.8398,-7.7476 17.5793,-13.0009 27.1345,-18.4177 4.0244,-2.2815 10.2299,-5.9096 13.7899,-8.0624 3.5601,-2.1529 9.6389,-5.4978 13.5085,-7.4332 10.5945,-5.2987 50.099,-20.8725 66.8839,-26.3676 41.9966,-13.749 73.1469,-21.9975 75.9913,-20.1224 0.7735,0.51 0.3325,0.6451 -12.0714,3.6988 -3.1287,0.7703 -11.4871,3.4656 -18.5742,5.9897 -7.0871,2.524 -23.017,8.0775 -35.3998,12.341 -33.1183,11.4028 -34.4779,11.8943 -46.4356,16.7872 -18.903,7.7348 -27.0847,11.3375 -33.7713,14.8705 -19.7638,10.4426 -40.5646,24.9398 -65.5726,45.7008 -16.9396,14.0628 -25.6628,22.0175 -43.0661,39.2717 l -13.7975,13.6794 -11.4379,17.4485 c -13.2796,20.2582 -25.1666,41.8727 -30.6448,55.7226 -2.9888,7.5564 -6.3316,20.7563 -7.9491,31.3892 -0.7896,5.1908 -1.7988,10.1299 -2.2426,10.9757 -0.4438,0.8458 -2.0828,2.9309 -3.6423,4.6336 l -2.8354,3.0957 -0.026,-5.459 0,0 z"
             style="fill:#0d5eaf;fill-opacity:1;stroke:#7ee500;stroke-opacity:1" />
          <path
             inkscape:connector-curvature="0"
             id="path10884"
             d="m 1124.8812,1387.7966 c 0.3883,-2.9272 3.5582,-12.8072 5.0096,-15.6139 1.7234,-3.3325 8.6638,-9.3767 13.7423,-11.9675 3.7841,-1.9305 11.2272,-3.8497 19.775,-5.0989 8.2677,-1.2083 18.4389,-3.5836 31.7102,-7.4053 4.2324,-1.2188 7.8453,-2.216 8.0286,-2.216 1.6124,0 -15.6037,21.1505 -21.9004,26.9053 -4.3228,3.9508 -12.0863,9.4263 -16.6133,11.7171 -2.0155,1.0199 -7.5905,2.8772 -12.3888,4.1274 -8.521,2.2201 -8.9456,2.2731 -18.2246,2.2758 l -9.5003,0 0.3617,-2.7268 z"
             style="fill:#0d5eaf;fill-opacity:1;stroke:#7ee500;stroke-opacity:1" />
          <path
             inkscape:connector-curvature="0"
             id="path10886"
             d="m 1158.1544,1348.0458 c -0.3096,-0.1426 -3.5893,-0.6479 -7.2883,-1.1229 -3.699,-0.475 -6.9564,-1.0947 -7.2388,-1.377 -0.3094,-0.3094 0.1267,-1.6919 1.0968,-3.4779 2.2985,-4.2314 3.8236,-5.3812 26.8304,-20.2281 11.3566,-7.3288 15.9051,-9.0609 32.3927,-12.3355 6.386,-1.2683 15.2769,-1.5753 15.2769,-0.5275 0,0.3468 -2.1108,3.0696 -4.6906,6.0507 -2.5799,2.9812 -7.1041,8.4598 -10.0539,12.1746 -6.2141,7.8259 -11.5161,13.8773 -13.5842,15.504 -2.6111,2.0539 -6.6718,3.4772 -12.1531,4.2598 -5.595,0.7988 -19.6028,1.5334 -20.5879,1.0798 z"
             style="fill:#0d5eaf;fill-opacity:1;stroke:#7ee500;stroke-opacity:1" />
          <path
             inkscape:connector-curvature="0"
             id="path10888"
             d="m 1170.6078,1301.6664 -1.6179,-0.3555 3.6868,-4.564 c 4.4366,-5.4923 7.5444,-8.2211 13.3812,-11.7496 11.1064,-6.7141 23.2132,-8.6319 49.6434,-7.8637 11.653,0.3388 13.2933,0.4954 12.6981,1.2125 -1.347,1.6231 -18.2142,13.3731 -21.8284,15.2062 -9.0783,4.6044 -21.5617,7.2265 -38.3039,8.0456 -12.0546,0.5898 -15.231,0.6021 -17.6593,0.069 z"
             style="fill:#0d5eaf;fill-opacity:1;stroke:#7ee500;stroke-opacity:1" />
          <path
             inkscape:connector-curvature="0"
             id="path10890"
             d="m 1226.2175,1266.7835 c -3.6676,-1.251 -11.0399,-5.4674 -13.673,-7.8199 -1.7082,-1.5263 -1.9057,-1.921 -1.2003,-2.3995 9.7009,-6.5803 17.8135,-9.2571 30.1127,-9.9361 7.1279,-0.3935 12.7921,0.5068 27.6844,4.4 l 11.3616,2.9702 -4.468,1.8024 c -2.4574,0.9913 -7.0635,2.5985 -10.2358,3.5715 -3.1724,0.9731 -7.6779,2.4949 -10.0122,3.382 -4.9776,1.8915 -13.6921,3.7322 -19.9966,4.2237 -2.4556,0.1915 -4.9714,0.4453 -5.5905,0.5641 -0.6191,0.1188 -2.4112,-0.2225 -3.9823,-0.7584 z"
             style="fill:#0d5eaf;fill-opacity:1;stroke:#7ee500;stroke-opacity:1" />
          <path
             inkscape:connector-curvature="0"
             id="path10892"
             d="m 1279.7311,1232.6145 c -15.8193,-5.0883 -20.4409,-6.6817 -22.7527,-7.8446 l -2.4899,-1.2525 2.4899,-1.4575 c 5.9445,-3.4798 22.9357,-10.5785 28.637,-11.9642 4.8568,-1.1805 9.1442,-0.6451 15.9709,1.9942 2.4236,0.937 8.3125,2.5048 13.0863,3.484 5.0168,1.0289 8.6797,2.0482 8.6797,2.4152 0,0.8264 -3.4755,4.0872 -7.0356,6.601 -6.0691,4.2854 -20.1222,9.5011 -26.4542,9.8184 -3.3092,0.1658 -4.9313,-0.1214 -10.1314,-1.794 z"
             style="fill:#0d5eaf;fill-opacity:1;stroke:#7ee500;stroke-opacity:1" />
          <path
             inkscape:connector-curvature="0"
             id="path10894"
             d="m 1315.4724,1209.0335 c -7.4508,-1.5439 -14.6386,-5.8387 -17.2856,-10.3284 -0.784,-1.3297 -1.3231,-2.5199 -1.1981,-2.6449 0.125,-0.125 2.3289,-1.2792 4.8976,-2.5649 3.234,-1.6186 5.6597,-2.4272 7.8873,-2.6292 3.1023,-0.2813 3.4733,-0.1591 10.4128,3.4331 7.7004,3.9859 12.0168,5.198 23.4287,6.5792 2.941,0.3559 5.7271,0.7735 6.1914,0.928 2.2508,0.7489 -20.1192,7.1092 -27.017,7.6816 -2.1313,0.1769 -5.1858,-0.013 -7.3171,-0.4545 l 0,0 z"
             style="fill:#0d5eaf;fill-opacity:1;stroke:#7ee500;stroke-opacity:1" />
          <path
             inkscape:connector-curvature="0"
             id="path10896"
             d="m 1350.5351,1192.575 c -5.0397,-2.8516 -14.7999,-11.7879 -14.7999,-13.5504 0,-0.6412 8.8781,-3.3883 12.5087,-3.8706 2.0496,-0.2721 3.0166,-0.1197 4.2213,0.6658 2.877,1.8758 18.167,14.3588 18.167,14.8319 0,0.6277 -8.2107,2.1767 -13.79,2.6015 -3.7409,0.2848 -4.8081,0.1701 -6.3071,-0.6782 l 0,0 z"
             style="fill:#0d5eaf;fill-opacity:1;stroke:#7ee500;stroke-opacity:1" />
          <path
             inkscape:connector-curvature="0"
             id="path10898"
             d="m 1388.2818,1174.0303 c -3.6871,-1.4312 -6.2075,-2.8787 -8.8905,-5.1057 -2.0596,-1.7095 -3.6503,-3.3912 -3.535,-3.7371 0.1153,-0.3459 2.0898,-1.2155 4.3877,-1.9325 7.3237,-2.2851 10.4258,-1.1946 19.4281,6.8294 l 5.7745,5.1469 -2.6323,0.3728 c -5.9872,0.8481 -9.1859,0.5017 -14.5325,-1.5738 z"
             style="fill:#0d5eaf;fill-opacity:1;stroke:#7ee500;stroke-opacity:1" />
          <path
             inkscape:connector-curvature="0"
             id="path10900"
             d="m 1422.4148,1161.4652 c -2.0122,-0.1956 -4.545,-0.7527 -5.6285,-1.238 -2.2174,-0.9933 -9.0057,-5.9763 -9.0057,-6.6107 0,-0.5788 5.6823,-2.3065 7.5858,-2.3065 1.897,0 5.589,2.2038 11.3155,6.7544 3.9939,3.1739 4.1485,3.377 2.5701,3.377 -0.9237,0 -2.0167,0.085 -2.429,0.1896 -0.4123,0.1044 -2.3959,0.03 -4.4082,-0.1658 z"
             style="fill:#0d5eaf;fill-opacity:1;stroke:#7ee500;stroke-opacity:1" />
        </g>
        <g
           id="g3275"
           style="fill:#ffffff;stroke:#7ee500;stroke-opacity:1"
           transform="matrix(0.63648279,0,0,0.63648279,124.40313,164.01042)">
          <text
             sodipodi:linespacing="125%"
             id="text2985"
             y="903.06061"
             x="50.908154"
             style="font-size:314.26342772999993258px;font-style:normal;font-weight:normal;line-height:125%;letter-spacing:0px;word-spacing:0px;fill:#ffffff;fill-opacity:1;stroke:#7ee500;font-family:Sans;stroke-opacity:1"
             xml:space="preserve"><tspan
               style="font-style:normal;font-variant:normal;font-weight:normal;font-stretch:normal;fill:#ffffff;font-family:Alfa Slab One;-inkscape-font-specification:Alfa Slab One;stroke:#7ee500;stroke-opacity:1"
               y="903.06061"
               x="50.908154"
               id="tspan2987"
               sodipodi:role="line">o</tspan></text>
          <text
             transform="scale(0.82378575,1.2139079)"
             sodipodi:linespacing="125%"
             id="text3271"
             y="742.31696"
             x="296.94604"
             style="font-size:373.99069213999996464px;font-style:normal;font-weight:normal;line-height:125%;letter-spacing:0px;word-spacing:0px;fill:#ffffff;fill-opacity:1;stroke:#7ee500;font-family:Sans;stroke-opacity:1"
             xml:space="preserve"><tspan
               style="font-style:normal;font-variant:normal;font-weight:normal;font-stretch:normal;fill:#ffffff;font-family:Alfa Slab One;-inkscape-font-specification:Alfa Slab One;stroke:#7ee500;stroke-opacity:1"
               y="742.31696"
               x="296.94604"
               id="tspan3273"
               sodipodi:role="line">SC</tspan></text>
        </g>
      </g>
      <g
         id="g11839"
         style="stroke:#7ee500;stroke-opacity:1">
        <text
           xml:space="preserve"
           style="font-size:350.67004395000003569px;font-style:normal;font-weight:normal;line-height:125%;letter-spacing:0px;word-spacing:0px;fill:#ffffff;fill-opacity:1;stroke:#7ee500;font-family:Sans;stroke-opacity:1"
           x="153.49611"
           y="484.60873"
           id="text2989"
           sodipodi:linespacing="125%"><tspan
             sodipodi:role="line"
             id="tspan2991"
             x="153.49611"
             y="484.60873"
             style="font-style:normal;font-variant:normal;font-weight:normal;font-stretch:normal;fill:#ffffff;font-family:Alfa Slab One;-inkscape-font-specification:Alfa Slab One;stroke:#7ee500;stroke-opacity:1">13</tspan></text>
        <g
           id="g3250"
           transform="matrix(1.1002084,0,0,1.1002084,-1076.2027,-887.55688)"
           style="stroke:#7ee500;stroke-opacity:1">
          <path
             style="fill:#0d5eaf;fill-opacity:1;stroke:#7ee500;stroke-opacity:1"
             d="m 1107.3566,1377.9999 c -6.5544,-10.4256 -16.0163,-29.4627 -18.4106,-37.042 -2.197,-6.9549 -2.8393,-12.2132 -2.0084,-16.4432 1.6156,-8.2242 13.9557,-44.9677 15.6821,-46.694 1.0132,-1.0132 3.5679,2.6758 7.6921,11.1074 5.5662,11.3795 8.7941,19.7354 11.5239,29.8313 2.7777,10.2731 3.1529,13.1396 2.2866,17.4736 -1.2431,6.2194 -4.031,17.9528 -5.4772,23.0519 -1.7101,6.0299 -8.0023,22.2328 -8.6338,22.2328 -0.2436,0 -1.4382,-1.583 -2.6547,-3.5178 z"
             id="path4258"
             inkscape:connector-curvature="0" />
          <path
             style="fill:#0d5eaf;fill-opacity:1;stroke:#7ee500;stroke-opacity:1"
             d="m 1133.5192,1319.5697 c -7.1386,-10.9268 -9.5685,-18.6447 -9.6473,-30.6416 -0.048,-7.2546 0.076,-8.2598 1.5579,-12.6643 1.7836,-5.3015 8.0108,-17.7041 13.0095,-25.9106 1.7848,-2.9303 5.174,-8.5401 7.5313,-12.4661 2.3574,-3.9261 4.3617,-7.0628 4.454,-6.9705 1.2869,1.2869 10.428,40.3092 10.4249,44.5029 0,4.7175 -2.5356,14.3975 -5.0797,19.4185 -2.7205,5.3693 -15.6205,27.9781 -17.0016,29.7974 l -1.0425,1.3731 -4.2065,-6.4388 z"
             id="path4260"
             inkscape:connector-curvature="0" />
          <path
             style="fill:#0d5eaf;fill-opacity:1;stroke:#7ee500;stroke-opacity:1"
             d="m 1173.0442,1277.1081 c -2.0995,-5.135 -2.849,-10.3939 -3.4499,-24.2086 l -0.6125,-14.0771 2.2626,-4.4971 c 2.9762,-5.9154 7.8425,-12.4396 16.8722,-22.6207 8.2423,-9.2933 13.4773,-14.6099 13.935,-14.1521 0.6011,0.6011 3.0334,18.9112 3.3902,25.5215 0.3234,5.9912 0.2261,7.1994 -0.8611,10.6943 -1.6029,5.1526 -6.0144,13.9562 -9.5732,19.1041 -3.4013,4.9201 -13.2703,17.179 -17.925,22.2657 l -3.3479,3.6586 -0.6904,-1.6886 0,0 z"
             id="path4262"
             inkscape:connector-curvature="0" />
          <path
             style="fill:#0d5eaf;fill-opacity:1;stroke:#7ee500;stroke-opacity:1"
             d="m 1224.9504,1227.1317 c -0.7627,-0.919 -1.3559,-3.5945 -3.2083,-14.4705 -1.2741,-7.4805 -1.4329,-9.647 -1.1142,-15.1971 0.7006,-12.1973 1.9257,-15.777 7.9949,-23.3585 4.3656,-5.4535 20.9955,-23.2806 23.8781,-25.5971 l 2.0705,-1.6639 0.3516,1.401 c 0.7412,2.9529 1.4405,16.1466 1.4877,28.0671 0.048,11.9981 0,12.5826 -1.441,16.93 -0.8196,2.4765 -2.2191,6.0225 -3.11,7.88 -3.2436,6.762 -12.2675,16.4914 -22.0043,23.7244 -2.2295,1.6561 -4.1095,3.0112 -4.1778,3.0112 -0.068,0 -0.3955,-0.327 -0.7272,-0.7266 l 0,0 z"
             id="path4264"
             inkscape:connector-curvature="0" />
          <path
             style="fill:#0d5eaf;fill-opacity:1;stroke:#7ee500;stroke-opacity:1"
             d="m 1273.0167,1185.8141 c -0.5312,-3.9631 -1.1126,-12.1833 -1.2921,-18.2671 l -0.3262,-11.0615 1.5959,-2.7285 c 2.2824,-3.9019 14.5836,-15.9526 22.4617,-22.0043 6.8702,-5.2774 14.3513,-9.5852 15.4581,-8.9012 0.8642,0.5341 0.7817,3.3691 -0.5095,17.5121 -1.3391,14.6668 -2.1876,18.962 -4.8393,24.4951 -2.5178,5.2538 -5.7269,9.003 -12.7199,14.861 -5.1962,4.3529 -16.2205,12.2861 -18.0473,12.9871 -0.6578,0.2524 -1.0024,-1.0807 -1.7814,-6.8927 l 0,0 z"
             id="path4266"
             inkscape:connector-curvature="0" />
          <path
             style="fill:#0d5eaf;fill-opacity:1;stroke:#7ee500;stroke-opacity:1"
             d="m 1317.9086,1171.8055 c -0.6224,-1.622 0.3099,-13.9047 1.4703,-19.3698 2.0633,-9.7185 3.9128,-14.6032 6.5137,-17.2041 4.3901,-4.3901 12.3698,-9.1879 24.4119,-14.6775 l 4.1565,-1.8948 -0.2799,3.8018 c -0.2101,2.8551 -1.1232,5.9743 -3.6665,12.5261 -1.8627,4.7983 -4.1959,11.1875 -5.1849,14.1981 -1.3412,4.0831 -2.4277,6.2387 -4.2756,8.4833 -3.6117,4.3871 -14.1494,11.7507 -19.994,13.9714 -2.5351,0.9633 -2.8391,0.9793 -3.1515,0.1655 l 0,0 z"
             id="path4268"
             inkscape:connector-curvature="0" />
          <path
             style="fill:#0d5eaf;fill-opacity:1;stroke:#7ee500;stroke-opacity:1"
             d="m 1361.2575,1154.9434 c -0.9746,-2.5399 1.8911,-14.6144 4.8685,-20.5124 1.9609,-3.8846 4.6668,-5.9834 11.3453,-8.8001 4.2731,-1.8021 16.913,-6.4037 17.5902,-6.4037 1.359,0 -2.8488,8.9944 -8.442,18.045 -4.4128,7.1407 -10.7373,12.4613 -20.0487,16.8663 -4.026,1.9047 -4.8437,2.0286 -5.3133,0.8049 l 0,0 z"
             id="path4270"
             inkscape:connector-curvature="0" />
          <path
             style="fill:#0d5eaf;fill-opacity:1;stroke:#7ee500;stroke-opacity:1"
             d="m 1395.9607,1144.5765 c 0,-1.1673 2.4183,-6.5831 4.6327,-10.3745 4.5344,-7.764 9.6882,-11.9695 16.9421,-13.8247 4.7366,-1.2114 12.1897,-2.052 13.5537,-1.5286 0.8714,0.3344 -1.0408,3.218 -9.5388,14.3841 l -2.8344,3.7243 -6.4526,2.2865 c -3.549,1.2575 -8.3156,3.0938 -10.5924,4.0807 -4.3012,1.8643 -5.7103,2.1733 -5.7103,1.2522 z"
             id="path4272"
             inkscape:connector-curvature="0" />
          <path
             style="fill:#0d5eaf;fill-opacity:1;stroke:#7ee500;stroke-opacity:1"
             d="m 1449.9947,1141.744 c -2.7129,-0.3673 -5.5534,-1.6514 -6.6946,-3.0265 -0.5913,-0.7124 -0.2722,-1.1606 2.0109,-2.8244 4.179,-3.0453 10.7431,-6.6646 14.2102,-7.8351 2.4918,-0.8413 3.9948,-0.9823 7.3561,-0.6902 4.822,0.4189 18.1065,2.4581 18.486,2.8375 0.511,0.5111 -19.4398,9.8554 -22.7043,10.6339 -4.1591,0.9919 -9.3058,1.3596 -12.6643,0.9048 z"
             id="path4274"
             inkscape:connector-curvature="0" />
          <path
             style="fill:#0d5eaf;fill-opacity:1;stroke:#7ee500;stroke-opacity:1"
             d="m 1111.1815,1410.1115 c -0.031,-6.7405 1.3276,-17.4329 2.8834,-22.6833 5.6275,-18.9915 26.5763,-61.0142 39.5635,-79.3631 2.8484,-4.0244 7.129,-10.1497 9.5124,-13.6117 2.4344,-3.5363 5.7092,-7.4826 7.4729,-9.0057 6.9051,-5.9626 12.4753,-11.5221 19.0708,-19.0338 3.8053,-4.334 9.159,-10.0623 11.8971,-12.7296 8.9743,-8.7421 23.2791,-21.2943 27.5587,-24.1822 2.3081,-1.5574 7.7978,-5.6672 12.1992,-9.1327 9.8398,-7.7476 17.5793,-13.0009 27.1345,-18.4177 4.0244,-2.2815 10.2299,-5.9096 13.7899,-8.0624 3.5601,-2.1529 9.6389,-5.4978 13.5085,-7.4332 10.5945,-5.2987 50.099,-20.8725 66.8839,-26.3676 41.9966,-13.749 73.1469,-21.9975 75.9913,-20.1224 0.7735,0.51 0.3325,0.6451 -12.0714,3.6988 -3.1287,0.7703 -11.4871,3.4656 -18.5742,5.9897 -7.0871,2.524 -23.017,8.0775 -35.3998,12.341 -33.1183,11.4028 -34.4779,11.8943 -46.4356,16.7872 -18.903,7.7348 -27.0847,11.3375 -33.7713,14.8705 -19.7638,10.4426 -40.5646,24.9398 -65.5726,45.7008 -16.9396,14.0628 -25.6628,22.0175 -43.0661,39.2717 l -13.7975,13.6794 -11.4379,17.4485 c -13.2796,20.2582 -25.1666,41.8727 -30.6448,55.7226 -2.9888,7.5564 -6.3316,20.7563 -7.9491,31.3892 -0.7896,5.1908 -1.7988,10.1299 -2.2426,10.9757 -0.4438,0.8458 -2.0828,2.9309 -3.6423,4.6336 l -2.8354,3.0957 -0.026,-5.459 0,0 z"
             id="path4276"
             inkscape:connector-curvature="0" />
          <path
             style="fill:#0d5eaf;fill-opacity:1;stroke:#7ee500;stroke-opacity:1"
             d="m 1124.8812,1387.7966 c 0.3883,-2.9272 3.5582,-12.8072 5.0096,-15.6139 1.7234,-3.3325 8.6638,-9.3767 13.7423,-11.9675 3.7841,-1.9305 11.2272,-3.8497 19.775,-5.0989 8.2677,-1.2083 18.4389,-3.5836 31.7102,-7.4053 4.2324,-1.2188 7.8453,-2.216 8.0286,-2.216 1.6124,0 -15.6037,21.1505 -21.9004,26.9053 -4.3228,3.9508 -12.0863,9.4263 -16.6133,11.7171 -2.0155,1.0199 -7.5905,2.8772 -12.3888,4.1274 -8.521,2.2201 -8.9456,2.2731 -18.2246,2.2758 l -9.5003,0 0.3617,-2.7268 z"
             id="path4278"
             inkscape:connector-curvature="0" />
          <path
             style="fill:#0d5eaf;fill-opacity:1;stroke:#7ee500;stroke-opacity:1"
             d="m 1158.1544,1348.0458 c -0.3096,-0.1426 -3.5893,-0.6479 -7.2883,-1.1229 -3.699,-0.475 -6.9564,-1.0947 -7.2388,-1.377 -0.3094,-0.3094 0.1267,-1.6919 1.0968,-3.4779 2.2985,-4.2314 3.8236,-5.3812 26.8304,-20.2281 11.3566,-7.3288 15.9051,-9.0609 32.3927,-12.3355 6.386,-1.2683 15.2769,-1.5753 15.2769,-0.5275 0,0.3468 -2.1108,3.0696 -4.6906,6.0507 -2.5799,2.9812 -7.1041,8.4598 -10.0539,12.1746 -6.2141,7.8259 -11.5161,13.8773 -13.5842,15.504 -2.6111,2.0539 -6.6718,3.4772 -12.1531,4.2598 -5.595,0.7988 -19.6028,1.5334 -20.5879,1.0798 z"
             id="path4280"
             inkscape:connector-curvature="0" />
          <path
             style="fill:#0d5eaf;fill-opacity:1;stroke:#7ee500;stroke-opacity:1"
             d="m 1170.6078,1301.6664 -1.6179,-0.3555 3.6868,-4.564 c 4.4366,-5.4923 7.5444,-8.2211 13.3812,-11.7496 11.1064,-6.7141 23.2132,-8.6319 49.6434,-7.8637 11.653,0.3388 13.2933,0.4954 12.6981,1.2125 -1.347,1.6231 -18.2142,13.3731 -21.8284,15.2062 -9.0783,4.6044 -21.5617,7.2265 -38.3039,8.0456 -12.0546,0.5898 -15.231,0.6021 -17.6593,0.069 z"
             id="path4282"
             inkscape:connector-curvature="0" />
          <path
             style="fill:#0d5eaf;fill-opacity:1;stroke:#7ee500;stroke-opacity:1"
             d="m 1226.2175,1266.7835 c -3.6676,-1.251 -11.0399,-5.4674 -13.673,-7.8199 -1.7082,-1.5263 -1.9057,-1.921 -1.2003,-2.3995 9.7009,-6.5803 17.8135,-9.2571 30.1127,-9.9361 7.1279,-0.3935 12.7921,0.5068 27.6844,4.4 l 11.3616,2.9702 -4.468,1.8024 c -2.4574,0.9913 -7.0635,2.5985 -10.2358,3.5715 -3.1724,0.9731 -7.6779,2.4949 -10.0122,3.382 -4.9776,1.8915 -13.6921,3.7322 -19.9966,4.2237 -2.4556,0.1915 -4.9714,0.4453 -5.5905,0.5641 -0.6191,0.1188 -2.4112,-0.2225 -3.9823,-0.7584 z"
             id="path4284"
             inkscape:connector-curvature="0" />
          <path
             style="fill:#0d5eaf;fill-opacity:1;stroke:#7ee500;stroke-opacity:1"
             d="m 1279.7311,1232.6145 c -15.8193,-5.0883 -20.4409,-6.6817 -22.7527,-7.8446 l -2.4899,-1.2525 2.4899,-1.4575 c 5.9445,-3.4798 22.9357,-10.5785 28.637,-11.9642 4.8568,-1.1805 9.1442,-0.6451 15.9709,1.9942 2.4236,0.937 8.3125,2.5048 13.0863,3.484 5.0168,1.0289 8.6797,2.0482 8.6797,2.4152 0,0.8264 -3.4755,4.0872 -7.0356,6.601 -6.0691,4.2854 -20.1222,9.5011 -26.4542,9.8184 -3.3092,0.1658 -4.9313,-0.1214 -10.1314,-1.794 z"
             id="path4286"
             inkscape:connector-curvature="0" />
          <path
             style="fill:#0d5eaf;fill-opacity:1;stroke:#7ee500;stroke-opacity:1"
             d="m 1315.4724,1209.0335 c -7.4508,-1.5439 -14.6386,-5.8387 -17.2856,-10.3284 -0.784,-1.3297 -1.3231,-2.5199 -1.1981,-2.6449 0.125,-0.125 2.3289,-1.2792 4.8976,-2.5649 3.234,-1.6186 5.6597,-2.4272 7.8873,-2.6292 3.1023,-0.2813 3.4733,-0.1591 10.4128,3.4331 7.7004,3.9859 12.0168,5.198 23.4287,6.5792 2.941,0.3559 5.7271,0.7735 6.1914,0.928 2.2508,0.7489 -20.1192,7.1092 -27.017,7.6816 -2.1313,0.1769 -5.1858,-0.013 -7.3171,-0.4545 l 0,0 z"
             id="path4288"
             inkscape:connector-curvature="0" />
          <path
             style="fill:#0d5eaf;fill-opacity:1;stroke:#7ee500;stroke-opacity:1"
             d="m 1350.5351,1192.575 c -5.0397,-2.8516 -14.7999,-11.7879 -14.7999,-13.5504 0,-0.6412 8.8781,-3.3883 12.5087,-3.8706 2.0496,-0.2721 3.0166,-0.1197 4.2213,0.6658 2.877,1.8758 18.167,14.3588 18.167,14.8319 0,0.6277 -8.2107,2.1767 -13.79,2.6015 -3.7409,0.2848 -4.8081,0.1701 -6.3071,-0.6782 l 0,0 z"
             id="path4290"
             inkscape:connector-curvature="0" />
          <path
             style="fill:#0d5eaf;fill-opacity:1;stroke:#7ee500;stroke-opacity:1"
             d="m 1388.2818,1174.0303 c -3.6871,-1.4312 -6.2075,-2.8787 -8.8905,-5.1057 -2.0596,-1.7095 -3.6503,-3.3912 -3.535,-3.7371 0.1153,-0.3459 2.0898,-1.2155 4.3877,-1.9325 7.3237,-2.2851 10.4258,-1.1946 19.4281,6.8294 l 5.7745,5.1469 -2.6323,0.3728 c -5.9872,0.8481 -9.1859,0.5017 -14.5325,-1.5738 z"
             id="path4292"
             inkscape:connector-curvature="0" />
          <path
             style="fill:#0d5eaf;fill-opacity:1;stroke:#7ee500;stroke-opacity:1"
             d="m 1422.4148,1161.4652 c -2.0122,-0.1956 -4.545,-0.7527 -5.6285,-1.238 -2.2174,-0.9933 -9.0057,-5.9763 -9.0057,-6.6107 0,-0.5788 5.6823,-2.3065 7.5858,-2.3065 1.897,0 5.589,2.2038 11.3155,6.7544 3.9939,3.1739 4.1485,3.377 2.5701,3.377 -0.9237,0 -2.0167,0.085 -2.429,0.1896 -0.4123,0.1044 -2.3959,0.03 -4.4082,-0.1658 z"
             id="path4294"
             inkscape:connector-curvature="0" />
        </g>
      </g>
    </g>
    <text
       xml:space="preserve"
       style="font-size:40px;font-style:normal;font-weight:normal;line-height:125%;letter-spacing:0px;word-spacing:0px;fill:#000000;fill-opacity:1;stroke:none;font-family:Sans"
       x="172.32376"
       y="843.64124"
       id="text11835"
       sodipodi:linespacing="125%"><tspan
         sodipodi:role="line"
         id="tspan11837"
         x="172.32376"
         y="843.64124"
         style="font-size:31.93000031px">Attendee</tspan></text>
    <g
       transform="matrix(0.31846898,0,0,0.31846898,-1017.8452,85.816048)"
       id="g12214"
       style="stroke:#7ee500;stroke-opacity:1">
      <text
         xml:space="preserve"
         style="font-size:31.93955040000000167px;font-style:normal;font-weight:normal;line-height:125%;letter-spacing:0px;word-spacing:0px;fill:#0d5eaf;fill-opacity:1;stroke:#7ee500;font-family:Sans;stroke-opacity:1"
         x="144.2578"
         y="792.85065"
         id="text12216"
         sodipodi:linespacing="125%"><tspan
           sodipodi:role="line"
           id="tspan12218"
           x="144.2578"
           y="792.85065"
           style="fill:#0d5eaf;fill-opacity:1;stroke:#7ee500;stroke-opacity:1">conference.opensuse.org</tspan></text>
      <g
         id="g12220"
         style="stroke:#7ee500;stroke-opacity:1">
        <g
           id="g12222"
           style="stroke:#7ee500;stroke-opacity:1">
          <g
             transform="matrix(0,-0.83509185,-1.3215746,0,2050.1343,1607.6784)"
             id="g12224"
             style="stroke:#7ee500;stroke-opacity:1">
            <path
               inkscape:connector-curvature="0"
               id="path12226"
               d="m 1107.3566,1377.9999 c -6.5544,-10.4256 -16.0163,-29.4627 -18.4106,-37.042 -2.197,-6.9549 -2.8393,-12.2132 -2.0084,-16.4432 1.6156,-8.2242 13.9557,-44.9677 15.6821,-46.694 1.0132,-1.0132 3.5679,2.6758 7.6921,11.1074 5.5662,11.3795 8.7941,19.7354 11.5239,29.8313 2.7777,10.2731 3.1529,13.1396 2.2866,17.4736 -1.2431,6.2194 -4.031,17.9528 -5.4772,23.0519 -1.7101,6.0299 -8.0023,22.2328 -8.6338,22.2328 -0.2436,0 -1.4382,-1.583 -2.6547,-3.5178 z"
               style="fill:#0d5eaf;fill-opacity:1;stroke:#7ee500;stroke-opacity:1" />
            <path
               inkscape:connector-curvature="0"
               id="path12228"
               d="m 1133.5192,1319.5697 c -7.1386,-10.9268 -9.5685,-18.6447 -9.6473,-30.6416 -0.048,-7.2546 0.076,-8.2598 1.5579,-12.6643 1.7836,-5.3015 8.0108,-17.7041 13.0095,-25.9106 1.7848,-2.9303 5.174,-8.5401 7.5313,-12.4661 2.3574,-3.9261 4.3617,-7.0628 4.454,-6.9705 1.2869,1.2869 10.428,40.3092 10.4249,44.5029 0,4.7175 -2.5356,14.3975 -5.0797,19.4185 -2.7205,5.3693 -15.6205,27.9781 -17.0016,29.7974 l -1.0425,1.3731 -4.2065,-6.4388 z"
               style="fill:#0d5eaf;fill-opacity:1;stroke:#7ee500;stroke-opacity:1" />
            <path
               inkscape:connector-curvature="0"
               id="path12230"
               d="m 1173.0442,1277.1081 c -2.0995,-5.135 -2.849,-10.3939 -3.4499,-24.2086 l -0.6125,-14.0771 2.2626,-4.4971 c 2.9762,-5.9154 7.8425,-12.4396 16.8722,-22.6207 8.2423,-9.2933 13.4773,-14.6099 13.935,-14.1521 0.6011,0.6011 3.0334,18.9112 3.3902,25.5215 0.3234,5.9912 0.2261,7.1994 -0.8611,10.6943 -1.6029,5.1526 -6.0144,13.9562 -9.5732,19.1041 -3.4013,4.9201 -13.2703,17.179 -17.925,22.2657 l -3.3479,3.6586 -0.6904,-1.6886 0,0 z"
               style="fill:#0d5eaf;fill-opacity:1;stroke:#7ee500;stroke-opacity:1" />
            <path
               inkscape:connector-curvature="0"
               id="path12232"
               d="m 1224.9504,1227.1317 c -0.7627,-0.919 -1.3559,-3.5945 -3.2083,-14.4705 -1.2741,-7.4805 -1.4329,-9.647 -1.1142,-15.1971 0.7006,-12.1973 1.9257,-15.777 7.9949,-23.3585 4.3656,-5.4535 20.9955,-23.2806 23.8781,-25.5971 l 2.0705,-1.6639 0.3516,1.401 c 0.7412,2.9529 1.4405,16.1466 1.4877,28.0671 0.048,11.9981 0,12.5826 -1.441,16.93 -0.8196,2.4765 -2.2191,6.0225 -3.11,7.88 -3.2436,6.762 -12.2675,16.4914 -22.0043,23.7244 -2.2295,1.6561 -4.1095,3.0112 -4.1778,3.0112 -0.068,0 -0.3955,-0.327 -0.7272,-0.7266 l 0,0 z"
               style="fill:#0d5eaf;fill-opacity:1;stroke:#7ee500;stroke-opacity:1" />
            <path
               inkscape:connector-curvature="0"
               id="path12234"
               d="m 1273.0167,1185.8141 c -0.5312,-3.9631 -1.1126,-12.1833 -1.2921,-18.2671 l -0.3262,-11.0615 1.5959,-2.7285 c 2.2824,-3.9019 14.5836,-15.9526 22.4617,-22.0043 6.8702,-5.2774 14.3513,-9.5852 15.4581,-8.9012 0.8642,0.5341 0.7817,3.3691 -0.5095,17.5121 -1.3391,14.6668 -2.1876,18.962 -4.8393,24.4951 -2.5178,5.2538 -5.7269,9.003 -12.7199,14.861 -5.1962,4.3529 -16.2205,12.2861 -18.0473,12.9871 -0.6578,0.2524 -1.0024,-1.0807 -1.7814,-6.8927 l 0,0 z"
               style="fill:#0d5eaf;fill-opacity:1;stroke:#7ee500;stroke-opacity:1" />
            <path
               inkscape:connector-curvature="0"
               id="path12236"
               d="m 1317.9086,1171.8055 c -0.6224,-1.622 0.3099,-13.9047 1.4703,-19.3698 2.0633,-9.7185 3.9128,-14.6032 6.5137,-17.2041 4.3901,-4.3901 12.3698,-9.1879 24.4119,-14.6775 l 4.1565,-1.8948 -0.2799,3.8018 c -0.2101,2.8551 -1.1232,5.9743 -3.6665,12.5261 -1.8627,4.7983 -4.1959,11.1875 -5.1849,14.1981 -1.3412,4.0831 -2.4277,6.2387 -4.2756,8.4833 -3.6117,4.3871 -14.1494,11.7507 -19.994,13.9714 -2.5351,0.9633 -2.8391,0.9793 -3.1515,0.1655 l 0,0 z"
               style="fill:#0d5eaf;fill-opacity:1;stroke:#7ee500;stroke-opacity:1" />
            <path
               inkscape:connector-curvature="0"
               id="path12238"
               d="m 1361.2575,1154.9434 c -0.9746,-2.5399 1.8911,-14.6144 4.8685,-20.5124 1.9609,-3.8846 4.6668,-5.9834 11.3453,-8.8001 4.2731,-1.8021 16.913,-6.4037 17.5902,-6.4037 1.359,0 -2.8488,8.9944 -8.442,18.045 -4.4128,7.1407 -10.7373,12.4613 -20.0487,16.8663 -4.026,1.9047 -4.8437,2.0286 -5.3133,0.8049 l 0,0 z"
               style="fill:#0d5eaf;fill-opacity:1;stroke:#7ee500;stroke-opacity:1" />
            <path
               inkscape:connector-curvature="0"
               id="path12240"
               d="m 1395.9607,1144.5765 c 0,-1.1673 2.4183,-6.5831 4.6327,-10.3745 4.5344,-7.764 9.6882,-11.9695 16.9421,-13.8247 4.7366,-1.2114 12.1897,-2.052 13.5537,-1.5286 0.8714,0.3344 -1.0408,3.218 -9.5388,14.3841 l -2.8344,3.7243 -6.4526,2.2865 c -3.549,1.2575 -8.3156,3.0938 -10.5924,4.0807 -4.3012,1.8643 -5.7103,2.1733 -5.7103,1.2522 z"
               style="fill:#0d5eaf;fill-opacity:1;stroke:#7ee500;stroke-opacity:1" />
            <path
               inkscape:connector-curvature="0"
               id="path12242"
               d="m 1449.9947,1141.744 c -2.7129,-0.3673 -5.5534,-1.6514 -6.6946,-3.0265 -0.5913,-0.7124 -0.2722,-1.1606 2.0109,-2.8244 4.179,-3.0453 10.7431,-6.6646 14.2102,-7.8351 2.4918,-0.8413 3.9948,-0.9823 7.3561,-0.6902 4.822,0.4189 18.1065,2.4581 18.486,2.8375 0.511,0.5111 -19.4398,9.8554 -22.7043,10.6339 -4.1591,0.9919 -9.3058,1.3596 -12.6643,0.9048 z"
               style="fill:#0d5eaf;fill-opacity:1;stroke:#7ee500;stroke-opacity:1" />
            <path
               inkscape:connector-curvature="0"
               id="path12244"
               d="m 1111.1815,1410.1115 c -0.031,-6.7405 1.3276,-17.4329 2.8834,-22.6833 5.6275,-18.9915 26.5763,-61.0142 39.5635,-79.3631 2.8484,-4.0244 7.129,-10.1497 9.5124,-13.6117 2.4344,-3.5363 5.7092,-7.4826 7.4729,-9.0057 6.9051,-5.9626 12.4753,-11.5221 19.0708,-19.0338 3.8053,-4.334 9.159,-10.0623 11.8971,-12.7296 8.9743,-8.7421 23.2791,-21.2943 27.5587,-24.1822 2.3081,-1.5574 7.7978,-5.6672 12.1992,-9.1327 9.8398,-7.7476 17.5793,-13.0009 27.1345,-18.4177 4.0244,-2.2815 10.2299,-5.9096 13.7899,-8.0624 3.5601,-2.1529 9.6389,-5.4978 13.5085,-7.4332 10.5945,-5.2987 50.099,-20.8725 66.8839,-26.3676 41.9966,-13.749 73.1469,-21.9975 75.9913,-20.1224 0.7735,0.51 0.3325,0.6451 -12.0714,3.6988 -3.1287,0.7703 -11.4871,3.4656 -18.5742,5.9897 -7.0871,2.524 -23.017,8.0775 -35.3998,12.341 -33.1183,11.4028 -34.4779,11.8943 -46.4356,16.7872 -18.903,7.7348 -27.0847,11.3375 -33.7713,14.8705 -19.7638,10.4426 -40.5646,24.9398 -65.5726,45.7008 -16.9396,14.0628 -25.6628,22.0175 -43.0661,39.2717 l -13.7975,13.6794 -11.4379,17.4485 c -13.2796,20.2582 -25.1666,41.8727 -30.6448,55.7226 -2.9888,7.5564 -6.3316,20.7563 -7.9491,31.3892 -0.7896,5.1908 -1.7988,10.1299 -2.2426,10.9757 -0.4438,0.8458 -2.0828,2.9309 -3.6423,4.6336 l -2.8354,3.0957 -0.026,-5.459 0,0 z"
               style="fill:#0d5eaf;fill-opacity:1;stroke:#7ee500;stroke-opacity:1" />
            <path
               inkscape:connector-curvature="0"
               id="path12246"
               d="m 1124.8812,1387.7966 c 0.3883,-2.9272 3.5582,-12.8072 5.0096,-15.6139 1.7234,-3.3325 8.6638,-9.3767 13.7423,-11.9675 3.7841,-1.9305 11.2272,-3.8497 19.775,-5.0989 8.2677,-1.2083 18.4389,-3.5836 31.7102,-7.4053 4.2324,-1.2188 7.8453,-2.216 8.0286,-2.216 1.6124,0 -15.6037,21.1505 -21.9004,26.9053 -4.3228,3.9508 -12.0863,9.4263 -16.6133,11.7171 -2.0155,1.0199 -7.5905,2.8772 -12.3888,4.1274 -8.521,2.2201 -8.9456,2.2731 -18.2246,2.2758 l -9.5003,0 0.3617,-2.7268 z"
               style="fill:#0d5eaf;fill-opacity:1;stroke:#7ee500;stroke-opacity:1" />
            <path
               inkscape:connector-curvature="0"
               id="path12248"
               d="m 1158.1544,1348.0458 c -0.3096,-0.1426 -3.5893,-0.6479 -7.2883,-1.1229 -3.699,-0.475 -6.9564,-1.0947 -7.2388,-1.377 -0.3094,-0.3094 0.1267,-1.6919 1.0968,-3.4779 2.2985,-4.2314 3.8236,-5.3812 26.8304,-20.2281 11.3566,-7.3288 15.9051,-9.0609 32.3927,-12.3355 6.386,-1.2683 15.2769,-1.5753 15.2769,-0.5275 0,0.3468 -2.1108,3.0696 -4.6906,6.0507 -2.5799,2.9812 -7.1041,8.4598 -10.0539,12.1746 -6.2141,7.8259 -11.5161,13.8773 -13.5842,15.504 -2.6111,2.0539 -6.6718,3.4772 -12.1531,4.2598 -5.595,0.7988 -19.6028,1.5334 -20.5879,1.0798 z"
               style="fill:#0d5eaf;fill-opacity:1;stroke:#7ee500;stroke-opacity:1" />
            <path
               inkscape:connector-curvature="0"
               id="path12250"
               d="m 1170.6078,1301.6664 -1.6179,-0.3555 3.6868,-4.564 c 4.4366,-5.4923 7.5444,-8.2211 13.3812,-11.7496 11.1064,-6.7141 23.2132,-8.6319 49.6434,-7.8637 11.653,0.3388 13.2933,0.4954 12.6981,1.2125 -1.347,1.6231 -18.2142,13.3731 -21.8284,15.2062 -9.0783,4.6044 -21.5617,7.2265 -38.3039,8.0456 -12.0546,0.5898 -15.231,0.6021 -17.6593,0.069 z"
               style="fill:#0d5eaf;fill-opacity:1;stroke:#7ee500;stroke-opacity:1" />
            <path
               inkscape:connector-curvature="0"
               id="path12252"
               d="m 1226.2175,1266.7835 c -3.6676,-1.251 -11.0399,-5.4674 -13.673,-7.8199 -1.7082,-1.5263 -1.9057,-1.921 -1.2003,-2.3995 9.7009,-6.5803 17.8135,-9.2571 30.1127,-9.9361 7.1279,-0.3935 12.7921,0.5068 27.6844,4.4 l 11.3616,2.9702 -4.468,1.8024 c -2.4574,0.9913 -7.0635,2.5985 -10.2358,3.5715 -3.1724,0.9731 -7.6779,2.4949 -10.0122,3.382 -4.9776,1.8915 -13.6921,3.7322 -19.9966,4.2237 -2.4556,0.1915 -4.9714,0.4453 -5.5905,0.5641 -0.6191,0.1188 -2.4112,-0.2225 -3.9823,-0.7584 z"
               style="fill:#0d5eaf;fill-opacity:1;stroke:#7ee500;stroke-opacity:1" />
            <path
               inkscape:connector-curvature="0"
               id="path12254"
               d="m 1279.7311,1232.6145 c -15.8193,-5.0883 -20.4409,-6.6817 -22.7527,-7.8446 l -2.4899,-1.2525 2.4899,-1.4575 c 5.9445,-3.4798 22.9357,-10.5785 28.637,-11.9642 4.8568,-1.1805 9.1442,-0.6451 15.9709,1.9942 2.4236,0.937 8.3125,2.5048 13.0863,3.484 5.0168,1.0289 8.6797,2.0482 8.6797,2.4152 0,0.8264 -3.4755,4.0872 -7.0356,6.601 -6.0691,4.2854 -20.1222,9.5011 -26.4542,9.8184 -3.3092,0.1658 -4.9313,-0.1214 -10.1314,-1.794 z"
               style="fill:#0d5eaf;fill-opacity:1;stroke:#7ee500;stroke-opacity:1" />
            <path
               inkscape:connector-curvature="0"
               id="path12256"
               d="m 1315.4724,1209.0335 c -7.4508,-1.5439 -14.6386,-5.8387 -17.2856,-10.3284 -0.784,-1.3297 -1.3231,-2.5199 -1.1981,-2.6449 0.125,-0.125 2.3289,-1.2792 4.8976,-2.5649 3.234,-1.6186 5.6597,-2.4272 7.8873,-2.6292 3.1023,-0.2813 3.4733,-0.1591 10.4128,3.4331 7.7004,3.9859 12.0168,5.198 23.4287,6.5792 2.941,0.3559 5.7271,0.7735 6.1914,0.928 2.2508,0.7489 -20.1192,7.1092 -27.017,7.6816 -2.1313,0.1769 -5.1858,-0.013 -7.3171,-0.4545 l 0,0 z"
               style="fill:#0d5eaf;fill-opacity:1;stroke:#7ee500;stroke-opacity:1" />
            <path
               inkscape:connector-curvature="0"
               id="path12258"
               d="m 1350.5351,1192.575 c -5.0397,-2.8516 -14.7999,-11.7879 -14.7999,-13.5504 0,-0.6412 8.8781,-3.3883 12.5087,-3.8706 2.0496,-0.2721 3.0166,-0.1197 4.2213,0.6658 2.877,1.8758 18.167,14.3588 18.167,14.8319 0,0.6277 -8.2107,2.1767 -13.79,2.6015 -3.7409,0.2848 -4.8081,0.1701 -6.3071,-0.6782 l 0,0 z"
               style="fill:#0d5eaf;fill-opacity:1;stroke:#7ee500;stroke-opacity:1" />
            <path
               inkscape:connector-curvature="0"
               id="path12260"
               d="m 1388.2818,1174.0303 c -3.6871,-1.4312 -6.2075,-2.8787 -8.8905,-5.1057 -2.0596,-1.7095 -3.6503,-3.3912 -3.535,-3.7371 0.1153,-0.3459 2.0898,-1.2155 4.3877,-1.9325 7.3237,-2.2851 10.4258,-1.1946 19.4281,6.8294 l 5.7745,5.1469 -2.6323,0.3728 c -5.9872,0.8481 -9.1859,0.5017 -14.5325,-1.5738 z"
               style="fill:#0d5eaf;fill-opacity:1;stroke:#7ee500;stroke-opacity:1" />
            <path
               inkscape:connector-curvature="0"
               id="path12262"
               d="m 1422.4148,1161.4652 c -2.0122,-0.1956 -4.545,-0.7527 -5.6285,-1.238 -2.2174,-0.9933 -9.0057,-5.9763 -9.0057,-6.6107 0,-0.5788 5.6823,-2.3065 7.5858,-2.3065 1.897,0 5.589,2.2038 11.3155,6.7544 3.9939,3.1739 4.1485,3.377 2.5701,3.377 -0.9237,0 -2.0167,0.085 -2.429,0.1896 -0.4123,0.1044 -2.3959,0.03 -4.4082,-0.1658 z"
               style="fill:#0d5eaf;fill-opacity:1;stroke:#7ee500;stroke-opacity:1" />
          </g>
          <g
             id="g12264"
             style="fill:#ffffff;stroke:#7ee500;stroke-opacity:1"
             transform="matrix(0.63648279,0,0,0.63648279,124.40313,164.01042)">
            <text
               sodipodi:linespacing="125%"
               id="text12266"
               y="903.06061"
               x="50.908154"
               style="font-size:314.26342772999993258px;font-style:normal;font-weight:normal;line-height:125%;letter-spacing:0px;word-spacing:0px;fill:#ffffff;fill-opacity:1;stroke:#7ee500;font-family:Sans;stroke-opacity:1"
               xml:space="preserve"><tspan
                 style="font-style:normal;font-variant:normal;font-weight:normal;font-stretch:normal;fill:#ffffff;font-family:Alfa Slab One;-inkscape-font-specification:Alfa Slab One;stroke:#7ee500;stroke-opacity:1"
                 y="903.06061"
                 x="50.908154"
                 id="tspan12268"
                 sodipodi:role="line">o</tspan></text>
            <text
               transform="scale(0.82378575,1.2139079)"
               sodipodi:linespacing="125%"
               id="text12270"
               y="742.31696"
               x="296.94604"
               style="font-size:373.99069213999996464px;font-style:normal;font-weight:normal;line-height:125%;letter-spacing:0px;word-spacing:0px;fill:#ffffff;fill-opacity:1;stroke:#7ee500;font-family:Sans;stroke-opacity:1"
               xml:space="preserve"><tspan
                 style="font-style:normal;font-variant:normal;font-weight:normal;font-stretch:normal;fill:#ffffff;font-family:Alfa Slab One;-inkscape-font-specification:Alfa Slab One;stroke:#7ee500;stroke-opacity:1"
                 y="742.31696"
                 x="296.94604"
                 id="tspan12272"
                 sodipodi:role="line">SC</tspan></text>
          </g>
        </g>
        <g
           id="g12274"
           style="stroke:#7ee500;stroke-opacity:1">
          <text
             xml:space="preserve"
             style="font-size:350.67004395000003569px;font-style:normal;font-weight:normal;line-height:125%;letter-spacing:0px;word-spacing:0px;fill:#ffffff;fill-opacity:1;stroke:#7ee500;font-family:Sans;stroke-opacity:1"
             x="153.49611"
             y="484.60873"
             id="text12276"
             sodipodi:linespacing="125%"><tspan
               sodipodi:role="line"
               id="tspan12278"
               x="153.49611"
               y="484.60873"
               style="font-style:normal;font-variant:normal;font-weight:normal;font-stretch:normal;fill:#ffffff;font-family:Alfa Slab One;-inkscape-font-specification:Alfa Slab One;stroke:#7ee500;stroke-opacity:1">13</tspan></text>
          <g
             id="g12280"
             transform="matrix(1.1002084,0,0,1.1002084,-1076.2027,-887.55688)"
             style="stroke:#7ee500;stroke-opacity:1">
            <path
               style="fill:#0d5eaf;fill-opacity:1;stroke:#7ee500;stroke-opacity:1"
               d="m 1107.3566,1377.9999 c -6.5544,-10.4256 -16.0163,-29.4627 -18.4106,-37.042 -2.197,-6.9549 -2.8393,-12.2132 -2.0084,-16.4432 1.6156,-8.2242 13.9557,-44.9677 15.6821,-46.694 1.0132,-1.0132 3.5679,2.6758 7.6921,11.1074 5.5662,11.3795 8.7941,19.7354 11.5239,29.8313 2.7777,10.2731 3.1529,13.1396 2.2866,17.4736 -1.2431,6.2194 -4.031,17.9528 -5.4772,23.0519 -1.7101,6.0299 -8.0023,22.2328 -8.6338,22.2328 -0.2436,0 -1.4382,-1.583 -2.6547,-3.5178 z"
               id="path12282"
               inkscape:connector-curvature="0" />
            <path
               style="fill:#0d5eaf;fill-opacity:1;stroke:#7ee500;stroke-opacity:1"
               d="m 1133.5192,1319.5697 c -7.1386,-10.9268 -9.5685,-18.6447 -9.6473,-30.6416 -0.048,-7.2546 0.076,-8.2598 1.5579,-12.6643 1.7836,-5.3015 8.0108,-17.7041 13.0095,-25.9106 1.7848,-2.9303 5.174,-8.5401 7.5313,-12.4661 2.3574,-3.9261 4.3617,-7.0628 4.454,-6.9705 1.2869,1.2869 10.428,40.3092 10.4249,44.5029 0,4.7175 -2.5356,14.3975 -5.0797,19.4185 -2.7205,5.3693 -15.6205,27.9781 -17.0016,29.7974 l -1.0425,1.3731 -4.2065,-6.4388 z"
               id="path12284"
               inkscape:connector-curvature="0" />
            <path
               style="fill:#0d5eaf;fill-opacity:1;stroke:#7ee500;stroke-opacity:1"
               d="m 1173.0442,1277.1081 c -2.0995,-5.135 -2.849,-10.3939 -3.4499,-24.2086 l -0.6125,-14.0771 2.2626,-4.4971 c 2.9762,-5.9154 7.8425,-12.4396 16.8722,-22.6207 8.2423,-9.2933 13.4773,-14.6099 13.935,-14.1521 0.6011,0.6011 3.0334,18.9112 3.3902,25.5215 0.3234,5.9912 0.2261,7.1994 -0.8611,10.6943 -1.6029,5.1526 -6.0144,13.9562 -9.5732,19.1041 -3.4013,4.9201 -13.2703,17.179 -17.925,22.2657 l -3.3479,3.6586 -0.6904,-1.6886 0,0 z"
               id="path12286"
               inkscape:connector-curvature="0" />
            <path
               style="fill:#0d5eaf;fill-opacity:1;stroke:#7ee500;stroke-opacity:1"
               d="m 1224.9504,1227.1317 c -0.7627,-0.919 -1.3559,-3.5945 -3.2083,-14.4705 -1.2741,-7.4805 -1.4329,-9.647 -1.1142,-15.1971 0.7006,-12.1973 1.9257,-15.777 7.9949,-23.3585 4.3656,-5.4535 20.9955,-23.2806 23.8781,-25.5971 l 2.0705,-1.6639 0.3516,1.401 c 0.7412,2.9529 1.4405,16.1466 1.4877,28.0671 0.048,11.9981 0,12.5826 -1.441,16.93 -0.8196,2.4765 -2.2191,6.0225 -3.11,7.88 -3.2436,6.762 -12.2675,16.4914 -22.0043,23.7244 -2.2295,1.6561 -4.1095,3.0112 -4.1778,3.0112 -0.068,0 -0.3955,-0.327 -0.7272,-0.7266 l 0,0 z"
               id="path12288"
               inkscape:connector-curvature="0" />
            <path
               style="fill:#0d5eaf;fill-opacity:1;stroke:#7ee500;stroke-opacity:1"
               d="m 1273.0167,1185.8141 c -0.5312,-3.9631 -1.1126,-12.1833 -1.2921,-18.2671 l -0.3262,-11.0615 1.5959,-2.7285 c 2.2824,-3.9019 14.5836,-15.9526 22.4617,-22.0043 6.8702,-5.2774 14.3513,-9.5852 15.4581,-8.9012 0.8642,0.5341 0.7817,3.3691 -0.5095,17.5121 -1.3391,14.6668 -2.1876,18.962 -4.8393,24.4951 -2.5178,5.2538 -5.7269,9.003 -12.7199,14.861 -5.1962,4.3529 -16.2205,12.2861 -18.0473,12.9871 -0.6578,0.2524 -1.0024,-1.0807 -1.7814,-6.8927 l 0,0 z"
               id="path12290"
               inkscape:connector-curvature="0" />
            <path
               style="fill:#0d5eaf;fill-opacity:1;stroke:#7ee500;stroke-opacity:1"
               d="m 1317.9086,1171.8055 c -0.6224,-1.622 0.3099,-13.9047 1.4703,-19.3698 2.0633,-9.7185 3.9128,-14.6032 6.5137,-17.2041 4.3901,-4.3901 12.3698,-9.1879 24.4119,-14.6775 l 4.1565,-1.8948 -0.2799,3.8018 c -0.2101,2.8551 -1.1232,5.9743 -3.6665,12.5261 -1.8627,4.7983 -4.1959,11.1875 -5.1849,14.1981 -1.3412,4.0831 -2.4277,6.2387 -4.2756,8.4833 -3.6117,4.3871 -14.1494,11.7507 -19.994,13.9714 -2.5351,0.9633 -2.8391,0.9793 -3.1515,0.1655 l 0,0 z"
               id="path12292"
               inkscape:connector-curvature="0" />
            <path
               style="fill:#0d5eaf;fill-opacity:1;stroke:#7ee500;stroke-opacity:1"
               d="m 1361.2575,1154.9434 c -0.9746,-2.5399 1.8911,-14.6144 4.8685,-20.5124 1.9609,-3.8846 4.6668,-5.9834 11.3453,-8.8001 4.2731,-1.8021 16.913,-6.4037 17.5902,-6.4037 1.359,0 -2.8488,8.9944 -8.442,18.045 -4.4128,7.1407 -10.7373,12.4613 -20.0487,16.8663 -4.026,1.9047 -4.8437,2.0286 -5.3133,0.8049 l 0,0 z"
               id="path12294"
               inkscape:connector-curvature="0" />
            <path
               style="fill:#0d5eaf;fill-opacity:1;stroke:#7ee500;stroke-opacity:1"
               d="m 1395.9607,1144.5765 c 0,-1.1673 2.4183,-6.5831 4.6327,-10.3745 4.5344,-7.764 9.6882,-11.9695 16.9421,-13.8247 4.7366,-1.2114 12.1897,-2.052 13.5537,-1.5286 0.8714,0.3344 -1.0408,3.218 -9.5388,14.3841 l -2.8344,3.7243 -6.4526,2.2865 c -3.549,1.2575 -8.3156,3.0938 -10.5924,4.0807 -4.3012,1.8643 -5.7103,2.1733 -5.7103,1.2522 z"
               id="path12296"
               inkscape:connector-curvature="0" />
            <path
               style="fill:#0d5eaf;fill-opacity:1;stroke:#7ee500;stroke-opacity:1"
               d="m 1449.9947,1141.744 c -2.7129,-0.3673 -5.5534,-1.6514 -6.6946,-3.0265 -0.5913,-0.7124 -0.2722,-1.1606 2.0109,-2.8244 4.179,-3.0453 10.7431,-6.6646 14.2102,-7.8351 2.4918,-0.8413 3.9948,-0.9823 7.3561,-0.6902 4.822,0.4189 18.1065,2.4581 18.486,2.8375 0.511,0.5111 -19.4398,9.8554 -22.7043,10.6339 -4.1591,0.9919 -9.3058,1.3596 -12.6643,0.9048 z"
               id="path12298"
               inkscape:connector-curvature="0" />
            <path
               style="fill:#0d5eaf;fill-opacity:1;stroke:#7ee500;stroke-opacity:1"
               d="m 1111.1815,1410.1115 c -0.031,-6.7405 1.3276,-17.4329 2.8834,-22.6833 5.6275,-18.9915 26.5763,-61.0142 39.5635,-79.3631 2.8484,-4.0244 7.129,-10.1497 9.5124,-13.6117 2.4344,-3.5363 5.7092,-7.4826 7.4729,-9.0057 6.9051,-5.9626 12.4753,-11.5221 19.0708,-19.0338 3.8053,-4.334 9.159,-10.0623 11.8971,-12.7296 8.9743,-8.7421 23.2791,-21.2943 27.5587,-24.1822 2.3081,-1.5574 7.7978,-5.6672 12.1992,-9.1327 9.8398,-7.7476 17.5793,-13.0009 27.1345,-18.4177 4.0244,-2.2815 10.2299,-5.9096 13.7899,-8.0624 3.5601,-2.1529 9.6389,-5.4978 13.5085,-7.4332 10.5945,-5.2987 50.099,-20.8725 66.8839,-26.3676 41.9966,-13.749 73.1469,-21.9975 75.9913,-20.1224 0.7735,0.51 0.3325,0.6451 -12.0714,3.6988 -3.1287,0.7703 -11.4871,3.4656 -18.5742,5.9897 -7.0871,2.524 -23.017,8.0775 -35.3998,12.341 -33.1183,11.4028 -34.4779,11.8943 -46.4356,16.7872 -18.903,7.7348 -27.0847,11.3375 -33.7713,14.8705 -19.7638,10.4426 -40.5646,24.9398 -65.5726,45.7008 -16.9396,14.0628 -25.6628,22.0175 -43.0661,39.2717 l -13.7975,13.6794 -11.4379,17.4485 c -13.2796,20.2582 -25.1666,41.8727 -30.6448,55.7226 -2.9888,7.5564 -6.3316,20.7563 -7.9491,31.3892 -0.7896,5.1908 -1.7988,10.1299 -2.2426,10.9757 -0.4438,0.8458 -2.0828,2.9309 -3.6423,4.6336 l -2.8354,3.0957 -0.026,-5.459 0,0 z"
               id="path12300"
               inkscape:connector-curvature="0" />
            <path
               style="fill:#0d5eaf;fill-opacity:1;stroke:#7ee500;stroke-opacity:1"
               d="m 1124.8812,1387.7966 c 0.3883,-2.9272 3.5582,-12.8072 5.0096,-15.6139 1.7234,-3.3325 8.6638,-9.3767 13.7423,-11.9675 3.7841,-1.9305 11.2272,-3.8497 19.775,-5.0989 8.2677,-1.2083 18.4389,-3.5836 31.7102,-7.4053 4.2324,-1.2188 7.8453,-2.216 8.0286,-2.216 1.6124,0 -15.6037,21.1505 -21.9004,26.9053 -4.3228,3.9508 -12.0863,9.4263 -16.6133,11.7171 -2.0155,1.0199 -7.5905,2.8772 -12.3888,4.1274 -8.521,2.2201 -8.9456,2.2731 -18.2246,2.2758 l -9.5003,0 0.3617,-2.7268 z"
               id="path12302"
               inkscape:connector-curvature="0" />
            <path
               style="fill:#0d5eaf;fill-opacity:1;stroke:#7ee500;stroke-opacity:1"
               d="m 1158.1544,1348.0458 c -0.3096,-0.1426 -3.5893,-0.6479 -7.2883,-1.1229 -3.699,-0.475 -6.9564,-1.0947 -7.2388,-1.377 -0.3094,-0.3094 0.1267,-1.6919 1.0968,-3.4779 2.2985,-4.2314 3.8236,-5.3812 26.8304,-20.2281 11.3566,-7.3288 15.9051,-9.0609 32.3927,-12.3355 6.386,-1.2683 15.2769,-1.5753 15.2769,-0.5275 0,0.3468 -2.1108,3.0696 -4.6906,6.0507 -2.5799,2.9812 -7.1041,8.4598 -10.0539,12.1746 -6.2141,7.8259 -11.5161,13.8773 -13.5842,15.504 -2.6111,2.0539 -6.6718,3.4772 -12.1531,4.2598 -5.595,0.7988 -19.6028,1.5334 -20.5879,1.0798 z"
               id="path12304"
               inkscape:connector-curvature="0" />
            <path
               style="fill:#0d5eaf;fill-opacity:1;stroke:#7ee500;stroke-opacity:1"
               d="m 1170.6078,1301.6664 -1.6179,-0.3555 3.6868,-4.564 c 4.4366,-5.4923 7.5444,-8.2211 13.3812,-11.7496 11.1064,-6.7141 23.2132,-8.6319 49.6434,-7.8637 11.653,0.3388 13.2933,0.4954 12.6981,1.2125 -1.347,1.6231 -18.2142,13.3731 -21.8284,15.2062 -9.0783,4.6044 -21.5617,7.2265 -38.3039,8.0456 -12.0546,0.5898 -15.231,0.6021 -17.6593,0.069 z"
               id="path12306"
               inkscape:connector-curvature="0" />
            <path
               style="fill:#0d5eaf;fill-opacity:1;stroke:#7ee500;stroke-opacity:1"
               d="m 1226.2175,1266.7835 c -3.6676,-1.251 -11.0399,-5.4674 -13.673,-7.8199 -1.7082,-1.5263 -1.9057,-1.921 -1.2003,-2.3995 9.7009,-6.5803 17.8135,-9.2571 30.1127,-9.9361 7.1279,-0.3935 12.7921,0.5068 27.6844,4.4 l 11.3616,2.9702 -4.468,1.8024 c -2.4574,0.9913 -7.0635,2.5985 -10.2358,3.5715 -3.1724,0.9731 -7.6779,2.4949 -10.0122,3.382 -4.9776,1.8915 -13.6921,3.7322 -19.9966,4.2237 -2.4556,0.1915 -4.9714,0.4453 -5.5905,0.5641 -0.6191,0.1188 -2.4112,-0.2225 -3.9823,-0.7584 z"
               id="path12308"
               inkscape:connector-curvature="0" />
            <path
               style="fill:#0d5eaf;fill-opacity:1;stroke:#7ee500;stroke-opacity:1"
               d="m 1279.7311,1232.6145 c -15.8193,-5.0883 -20.4409,-6.6817 -22.7527,-7.8446 l -2.4899,-1.2525 2.4899,-1.4575 c 5.9445,-3.4798 22.9357,-10.5785 28.637,-11.9642 4.8568,-1.1805 9.1442,-0.6451 15.9709,1.9942 2.4236,0.937 8.3125,2.5048 13.0863,3.484 5.0168,1.0289 8.6797,2.0482 8.6797,2.4152 0,0.8264 -3.4755,4.0872 -7.0356,6.601 -6.0691,4.2854 -20.1222,9.5011 -26.4542,9.8184 -3.3092,0.1658 -4.9313,-0.1214 -10.1314,-1.794 z"
               id="path12310"
               inkscape:connector-curvature="0" />
            <path
               style="fill:#0d5eaf;fill-opacity:1;stroke:#7ee500;stroke-opacity:1"
               d="m 1315.4724,1209.0335 c -7.4508,-1.5439 -14.6386,-5.8387 -17.2856,-10.3284 -0.784,-1.3297 -1.3231,-2.5199 -1.1981,-2.6449 0.125,-0.125 2.3289,-1.2792 4.8976,-2.5649 3.234,-1.6186 5.6597,-2.4272 7.8873,-2.6292 3.1023,-0.2813 3.4733,-0.1591 10.4128,3.4331 7.7004,3.9859 12.0168,5.198 23.4287,6.5792 2.941,0.3559 5.7271,0.7735 6.1914,0.928 2.2508,0.7489 -20.1192,7.1092 -27.017,7.6816 -2.1313,0.1769 -5.1858,-0.013 -7.3171,-0.4545 l 0,0 z"
               id="path12312"
               inkscape:connector-curvature="0" />
            <path
               style="fill:#0d5eaf;fill-opacity:1;stroke:#7ee500;stroke-opacity:1"
               d="m 1350.5351,1192.575 c -5.0397,-2.8516 -14.7999,-11.7879 -14.7999,-13.5504 0,-0.6412 8.8781,-3.3883 12.5087,-3.8706 2.0496,-0.2721 3.0166,-0.1197 4.2213,0.6658 2.877,1.8758 18.167,14.3588 18.167,14.8319 0,0.6277 -8.2107,2.1767 -13.79,2.6015 -3.7409,0.2848 -4.8081,0.1701 -6.3071,-0.6782 l 0,0 z"
               id="path12314"
               inkscape:connector-curvature="0" />
            <path
               style="fill:#0d5eaf;fill-opacity:1;stroke:#7ee500;stroke-opacity:1"
               d="m 1388.2818,1174.0303 c -3.6871,-1.4312 -6.2075,-2.8787 -8.8905,-5.1057 -2.0596,-1.7095 -3.6503,-3.3912 -3.535,-3.7371 0.1153,-0.3459 2.0898,-1.2155 4.3877,-1.9325 7.3237,-2.2851 10.4258,-1.1946 19.4281,6.8294 l 5.7745,5.1469 -2.6323,0.3728 c -5.9872,0.8481 -9.1859,0.5017 -14.5325,-1.5738 z"
               id="path12316"
               inkscape:connector-curvature="0" />
            <path
               style="fill:#0d5eaf;fill-opacity:1;stroke:#7ee500;stroke-opacity:1"
               d="m 1422.4148,1161.4652 c -2.0122,-0.1956 -4.545,-0.7527 -5.6285,-1.238 -2.2174,-0.9933 -9.0057,-5.9763 -9.0057,-6.6107 0,-0.5788 5.6823,-2.3065 7.5858,-2.3065 1.897,0 5.589,2.2038 11.3155,6.7544 3.9939,3.1739 4.1485,3.377 2.5701,3.377 -0.9237,0 -2.0167,0.085 -2.429,0.1896 -0.4123,0.1044 -2.3959,0.03 -4.4082,-0.1658 z"
               id="path12318"
               inkscape:connector-curvature="0" />
          </g>
        </g>
      </g>
      <text
         xml:space="preserve"
         style="font-size:40px;font-style:normal;font-weight:normal;line-height:125%;letter-spacing:0px;word-spacing:0px;fill:#000000;fill-opacity:1;stroke:#7ee500;stroke-opacity:1;font-family:Sans"
         x="145.77063"
         y="842.25043"
         id="text12320"
         sodipodi:linespacing="125%"><tspan
           sodipodi:role="line"
           id="tspan12322"
           x="145.77063"
           y="842.25043"
           style="font-size:31.93000031px;stroke:#7ee500;stroke-opacity:1">Attendee</tspan></text>
    </g>
    <text
       sodipodi:linespacing="125%"
       id="text12390"
       y="130.47353"
       x="-421.64594"
       style="font-size:40px;font-style:normal;font-weight:normal;line-height:125%;letter-spacing:0px;word-spacing:0px;fill:#000000;fill-opacity:1;stroke:none;font-family:Sans"
       xml:space="preserve"><tspan
         style="font-size:31.93000031px"
         y="130.47353"
         x="-421.64594"
         id="tspan12392"
         sodipodi:role="line">Attendee</tspan></text>
  </g>
</svg>
