<?xml version="1.0" encoding="UTF-8" standalone="no"?>
<!-- Created with Inkscape (http://www.inkscape.org/) -->

<svg
   xmlns:dc="http://purl.org/dc/elements/1.1/"
   xmlns:cc="http://creativecommons.org/ns#"
   xmlns:rdf="http://www.w3.org/1999/02/22-rdf-syntax-ns#"
   xmlns:svg="http://www.w3.org/2000/svg"
   xmlns="http://www.w3.org/2000/svg"
   xmlns:sodipodi="http://sodipodi.sourceforge.net/DTD/sodipodi-0.dtd"
   xmlns:inkscape="http://www.inkscape.org/namespaces/inkscape"
   width="210mm"
   height="297mm"
   id="svg10563"
   version="1.1"
   inkscape:version="0.48.4 r9939"
   sodipodi:docname="Proposal_09.svg">
  <defs
     id="defs10565">
    <clipPath
       clipPathUnits="userSpaceOnUse"
       id="clipPath3326">
      <path
         inkscape:connector-curvature="0"
         d="m 4030.1,1745.54 c 52.72,-113.56 109,-158.41 136.93,-253.41 31.11,-105.8 -89.85,-133.88 -116.47,-31.49 -24.88,95.7 -1.07,169.5 -20.46,284.9"
         clip-rule="evenodd"
         id="path3328" />
    </clipPath>
    <clipPath
       clipPathUnits="userSpaceOnUse"
       id="clipPath3288">
      <path
         inkscape:connector-curvature="0"
         d="m 4646.2,577.793 c -29.6,20.703 -59.21,41.395 -88.82,62.098 -90.66,-7.657 -181.31,-20.039 -271.98,-45.594 -28.55,-28.555 -57.12,-57.121 -85.68,-85.676 27.51,-13.691 55.03,-30.035 82.54,-51.101 88.5,22.761 180.85,33.945 276.69,34.589 29.09,28.567 58.17,57.118 87.25,85.684"
         clip-rule="evenodd"
         id="path3290" />
    </clipPath>
    <clipPath
       clipPathUnits="userSpaceOnUse"
       id="clipPath3272">
      <path
         inkscape:connector-curvature="0"
         d="m 3845.37,283.254 c -2.62,30.094 -6.18,70.308 -9.57,105.465 54.19,61.742 117.35,106.664 186.27,128.547 28.5,-7.383 56.13,-19.043 82.54,-36.946 -26.1,-22.898 -48.87,-49.129 -67.61,-79.394 -70.06,-13.574 -132.07,-64.266 -191.63,-117.672"
         clip-rule="evenodd"
         id="path3274" />
    </clipPath>
    <clipPath
       clipPathUnits="userSpaceOnUse"
       id="clipPath3256">
      <path
         inkscape:connector-curvature="0"
         d="m 4941.02,503.074 -121.1,5.547 c -24.1,23.574 -48.2,47.16 -72.31,70.742 27.77,24.629 55.54,49.258 83.32,73.891 l 110.09,0 110.09,0 c 27.78,-24.633 55.55,-49.262 83.32,-73.891 -24.1,-23.582 -48.21,-47.168 -72.31,-70.742 l -121.1,-5.547"
         clip-rule="evenodd"
         id="path3258" />
    </clipPath>
    <clipPath
       clipPathUnits="userSpaceOnUse"
       id="clipPath3234">
      <path
         inkscape:connector-curvature="0"
         d="m 3829.28,453.719 c -2.38,22.531 -4.83,44.511 -7.3,64.961 122.31,95.254 279.88,161.535 467.52,203.125 188.44,41.781 407.4,58.672 651.52,55.109 244.12,3.563 463.08,-13.328 651.52,-55.109 187.64,-41.59 345.21,-107.871 467.52,-203.125 -2.47,-20.45 -4.92,-42.43 -7.29,-64.961 l -13.73,11.562 -0.04,-0.027 c -117.28,95.5 -271.96,161.66 -458.31,202.961 -184.3,40.855 -399.34,57.351 -639.67,53.805 -240.33,3.546 -455.37,-12.95 -639.67,-53.805 -186.34,-41.301 -341.02,-107.461 -458.31,-202.961 l -0.02,0.027 -13.74,-11.562"
         clip-rule="evenodd"
         id="path3236" />
    </clipPath>
    <clipPath
       clipPathUnits="userSpaceOnUse"
       id="clipPath2974">
      <path
         inkscape:connector-curvature="0"
         d="m 4914.3,448.586 c -573.57,0 -1040.98,-132.492 -1060.95,-244.438 l -0.1,-0.039 -0.02,-0.523 c -0.38,-2.285 -0.63,-4.574 -0.63,-6.848 0,-1.418 0.09,-2.824 0.23,-4.218 -0.45,-13.711 -1.02,-35.45 -0.23,-41.575 0,37.832 58.73,78.606 160.33,115.578 l 0.97,0.352 c 3.5,1.27 7.05,2.539 10.66,3.801 l 0.92,0.32 c 14.9,5.203 30.65,10.32 47.22,15.344 l 1.84,0.555 c 3.67,1.113 7.4,2.214 11.15,3.308 l 2.86,0.832 c 3.67,1.074 7.37,2.129 11.12,3.184 l 2.86,0.808 c 16.38,4.571 33.43,9.055 51.12,13.43 l 5.74,1.406 c 3.2,0.782 6.43,1.563 9.68,2.332 l 6.77,1.594 c 3.3,0.781 6.61,1.543 9.95,2.313 l 6.5,1.476 c 3.54,0.801 7.1,1.602 10.69,2.391 l 1.78,0.383 c 8.31,1.824 16.74,3.621 25.28,5.402 1.96,0.398 3.91,0.808 5.89,1.211 3.61,0.738 7.25,1.461 10.89,2.195 2.28,0.457 4.57,0.918 6.85,1.367 3.87,0.762 7.78,1.512 11.68,2.266 l 6.33,1.211 c 3.78,0.711 7.57,1.426 11.39,2.129 2.85,0.527 5.71,1.043 8.57,1.562 3.32,0.594 6.62,1.2 9.97,1.797 6.08,1.074 12.2,2.149 18.38,3.192 1.97,0.332 3.97,0.664 5.97,0.996 4.42,0.746 8.86,1.484 13.32,2.218 2.98,0.481 5.97,0.957 8.97,1.438 3.73,0.594 7.48,1.187 11.25,1.773 l 8.92,1.379 c 3.88,0.598 7.78,1.172 11.69,1.758 2.96,0.438 5.93,0.879 8.91,1.316 4.12,0.598 8.28,1.184 12.43,1.778 2.79,0.39 5.56,0.793 8.37,1.183 6.66,0.918 13.36,1.836 20.11,2.723 l 6.77,0.883 c 4.79,0.613 9.58,1.226 14.41,1.844 2.93,0.363 5.87,0.722 8.81,1.082 4.21,0.519 8.43,1.027 12.67,1.535 l 9.64,1.133 c 4.39,0.507 8.81,1.004 13.22,1.504 2.69,0.3 5.39,0.605 8.1,0.898 5.27,0.586 10.57,1.141 15.88,1.699 2.26,0.235 4.51,0.477 6.77,0.711 7.27,0.754 14.57,1.485 21.92,2.188 2.37,0.226 4.74,0.441 7.11,0.664 4.98,0.48 9.97,0.937 15,1.398 3.18,0.281 6.36,0.567 9.54,0.84 4.71,0.41 9.43,0.82 14.17,1.219 l 8.94,0.734 c 4.82,0.391 9.69,0.781 14.54,1.152 2.98,0.235 5.94,0.458 8.93,0.684 5.79,0.438 11.62,0.848 17.45,1.262 2.01,0.144 4.02,0.289 6.04,0.426 7.6,0.531 15.25,1.027 22.91,1.496 2.75,0.175 5.51,0.332 8.26,0.496 5.37,0.324 10.76,0.636 16.17,0.949 l 8.2,0.437 c 5.26,0.286 10.55,0.559 15.83,0.821 l 9.73,0.469 c 5.24,0.246 10.51,0.488 15.78,0.703 l 7.91,0.351 c 7.27,0.293 14.58,0.567 21.91,0.832 l 2.91,0.106 c 8.34,0.285 16.69,0.547 25.08,0.785 l 5.83,0.144 c 6.12,0.164 12.25,0.313 18.4,0.45 l 9.47,0.195 c 5.38,0.098 10.79,0.195 16.2,0.273 l 9.21,0.137 c 5.66,0.066 11.33,0.125 17,0.176 2.79,0.027 5.57,0.058 8.36,0.078 8.41,0.051 16.84,0.078 25.3,0.078 8.85,0 17.68,-0.019 26.48,-0.09 l 0.24,0 0.24,0 c 8.8,0.071 17.63,0.09 26.49,0.09 8.45,0 16.88,-0.027 25.29,-0.078 2.79,-0.02 5.57,-0.051 8.37,-0.078 5.67,-0.051 11.34,-0.11 17,-0.176 l 9.22,-0.137 c 5.4,-0.078 10.8,-0.175 16.19,-0.273 l 9.47,-0.195 c 6.14,-0.137 12.28,-0.286 18.39,-0.45 l 5.83,-0.144 c 8.39,-0.238 16.75,-0.5 25.08,-0.785 l 2.92,-0.106 c 7.32,-0.265 14.63,-0.539 21.9,-0.832 l 7.91,-0.351 c 5.28,-0.215 10.54,-0.457 15.79,-0.703 l 9.72,-0.469 c 5.29,-0.262 10.57,-0.535 15.83,-0.821 l 8.22,-0.437 c 5.39,-0.313 10.78,-0.625 16.16,-0.949 2.75,-0.164 5.5,-0.321 8.25,-0.496 7.67,-0.469 15.31,-0.965 22.91,-1.496 2.03,-0.137 4.03,-0.282 6.05,-0.426 5.82,-0.414 11.65,-0.824 17.44,-1.262 2.99,-0.226 5.96,-0.449 8.93,-0.684 4.86,-0.371 9.72,-0.761 14.55,-1.152 l 8.94,-0.734 c 4.73,-0.399 9.45,-0.809 14.16,-1.219 3.18,-0.273 6.37,-0.559 9.54,-0.84 5.03,-0.461 10.02,-0.918 15.01,-1.398 2.36,-0.223 4.73,-0.438 7.1,-0.664 7.34,-0.703 14.65,-1.434 21.92,-2.188 2.27,-0.234 4.51,-0.476 6.77,-0.711 5.31,-0.558 10.61,-1.113 15.89,-1.699 2.7,-0.293 5.4,-0.598 8.09,-0.898 4.42,-0.5 8.83,-0.997 13.21,-1.504 l 9.65,-1.133 c 4.24,-0.508 8.46,-1.016 12.67,-1.535 2.94,-0.36 5.89,-0.719 8.81,-1.082 4.83,-0.618 9.63,-1.231 14.41,-1.844 l 6.77,-0.883 c 6.75,-0.887 13.45,-1.805 20.11,-2.723 2.81,-0.39 5.58,-0.793 8.38,-1.183 4.15,-0.594 8.3,-1.18 12.42,-1.778 2.99,-0.437 5.96,-0.878 8.91,-1.316 3.92,-0.586 7.82,-1.16 11.69,-1.758 l 8.92,-1.379 c 3.77,-0.586 7.51,-1.179 11.25,-1.773 3,-0.481 6,-0.957 8.98,-1.438 4.46,-0.734 8.89,-1.472 13.32,-2.218 1.99,-0.332 3.99,-0.664 5.97,-0.996 6.17,-1.043 12.29,-2.118 18.37,-3.192 3.35,-0.597 6.65,-1.203 9.97,-1.797 2.86,-0.519 5.73,-1.035 8.58,-1.562 3.81,-0.703 7.6,-1.418 11.38,-2.129 l 6.33,-1.211 c 3.92,-0.754 7.81,-1.504 11.68,-2.266 2.29,-0.449 4.57,-0.91 6.84,-1.367 3.65,-0.734 7.3,-1.457 10.9,-2.195 1.98,-0.403 3.93,-0.813 5.89,-1.211 8.55,-1.781 16.98,-3.578 25.29,-5.402 l 1.77,-0.383 c 3.6,-0.789 7.15,-1.59 10.7,-2.391 l 6.49,-1.476 c 3.34,-0.77 6.66,-1.532 9.95,-2.313 l 6.77,-1.594 c 3.25,-0.769 6.48,-1.55 9.69,-2.332 l 5.73,-1.406 c 17.7,-4.375 34.75,-8.859 51.12,-13.43 l 2.87,-0.808 c 3.74,-1.055 7.44,-2.11 11.13,-3.184 l 2.84,-0.832 c 3.75,-1.094 7.48,-2.195 11.15,-3.308 l 1.86,-0.555 c 16.55,-5.024 32.3,-10.141 47.2,-15.344 l 0.92,-0.32 c 3.61,-1.262 7.17,-2.531 10.67,-3.801 l 0.97,-0.352 c 101.59,-36.972 160.32,-77.746 160.32,-115.578 0.79,6.125 0.23,27.864 -0.23,41.575 0.15,1.394 0.23,2.8 0.23,4.218 0,2.274 -0.25,4.563 -0.63,6.848 l -0.02,0.523 -0.09,0.039 c -19.98,111.946 -487.38,244.438 -1060.95,244.438 -8.95,0 -17.85,-0.031 -26.73,-0.109 -8.88,0.078 -17.78,0.109 -26.72,0.109"
         clip-rule="evenodd"
         id="path2976" />
    </clipPath>
    <clipPath
       clipPathUnits="userSpaceOnUse"
       id="clipPath2908">
      <path
         inkscape:connector-curvature="0"
         d="m 5851.94,1745.54 c -52.71,-113.56 -108.99,-158.41 -136.93,-253.41 -31.1,-105.8 89.87,-133.88 116.47,-31.49 24.88,95.7 1.07,169.5 20.46,284.9"
         clip-rule="evenodd"
         id="path2910" />
    </clipPath>
    <clipPath
       clipPathUnits="userSpaceOnUse"
       id="clipPath2870">
      <path
         inkscape:connector-curvature="0"
         d="m 5235.84,577.793 c 29.6,20.703 59.21,41.395 88.82,62.098 90.66,-7.657 181.32,-20.039 271.98,-45.594 28.56,-28.555 57.12,-57.121 85.68,-85.676 -27.52,-13.691 -55.02,-30.035 -82.53,-51.101 -88.51,22.761 -180.85,33.945 -276.69,34.589 -29.1,28.567 -58.18,57.118 -87.26,85.684"
         clip-rule="evenodd"
         id="path2872" />
    </clipPath>
    <clipPath
       clipPathUnits="userSpaceOnUse"
       id="clipPath2854">
      <path
         inkscape:connector-curvature="0"
         d="m 5061.99,1821.17 0.01,-0.02 c 0,0 25,-45.71 431.09,-102.37 92.68,-12.94 166.47,-19.96 227.31,-24.89 -113.9,-196.17 -248.44,-453.34 -279.26,-551.19 -37,-117.45 -75.54,-116.33 -110.17,1.58 l -268.98,676.89 0,0 z m -241.94,0 0,-0.02 c 0,0 -25,-45.71 -431.1,-102.37 -92.68,-12.94 -166.46,-19.96 -227.31,-24.89 113.9,-196.17 248.44,-453.34 279.26,-551.19 37,-117.45 75.55,-116.33 110.17,1.58 l 268.98,676.89 0,0 z m -860.14,-147.21 c -68.16,-13.21 -120.05,-39.13 -197.39,-104.71 -63.26,-53.66 -78.13,-141.14 -71.19,-231.27 86.64,-153.82 184.31,-335.01 208.12,-373.136 39.36,-62.961 74.67,-101.711 85.68,-19.168 7.88,59.124 -12.83,479.504 -25.22,728.284 l 0,0 z m 1962.23,0 c 68.15,-13.21 120.06,-39.13 197.38,-104.71 63.27,-53.66 78.13,-141.14 71.19,-231.27 -86.64,-153.82 -184.3,-335.01 -208.12,-373.136 -39.35,-62.961 -74.67,-101.711 -85.68,-19.168 -7.87,59.124 12.84,479.504 25.23,728.284"
         clip-rule="evenodd"
         id="path2856" />
    </clipPath>
    <clipPath
       clipPathUnits="userSpaceOnUse"
       id="clipPath2838">
      <path
         inkscape:connector-curvature="0"
         d="m 6036.67,283.254 c 2.62,30.094 6.18,70.308 9.58,105.465 -54.2,61.742 -117.36,106.664 -186.28,128.547 -28.49,-7.383 -56.13,-19.043 -82.54,-36.946 26.11,-22.898 48.87,-49.129 67.61,-79.394 70.06,-13.574 132.07,-64.266 191.63,-117.672"
         clip-rule="evenodd"
         id="path2840" />
    </clipPath>
    <clipPath
       clipPathUnits="userSpaceOnUse"
       id="clipPath2646">
      <path
         inkscape:connector-curvature="0"
         d="M 4967.75,390.078 C 5554,390.078 6029.44,258.641 6029.44,150.945 6029.44,43.2422 5554,0 4967.75,0 4958.8,0 4949.9,0.0195312 4941.02,0.0507812 4932.14,0.0195312 4923.24,0 4914.3,0 4328.04,0 3852.6,43.2422 3852.6,150.945 c 0,107.696 475.44,239.133 1061.7,239.133 8.94,0 17.84,-0.027 26.72,-0.098 8.88,0.071 17.78,0.098 26.73,0.098"
         clip-rule="evenodd"
         id="path2648" />
    </clipPath>
    <clipPath
       clipPathUnits="userSpaceOnUse"
       id="clipPath2624">
      <path
         inkscape:connector-curvature="0"
         d="m 3847.36,260.008 c -3.84,45.5 -9.37,108.195 -15.57,169.375 58.89,59.367 127.88,95.683 201.45,121.504 37.26,-18.883 74.5,-37.774 111.76,-56.66 34.62,42.5 69.25,85 103.88,127.492 110.16,35.789 220.34,49.207 330.51,53.543 38.51,-32.489 77.04,-64.981 115.55,-97.469 37.99,35.371 75.99,70.742 113.98,106.113 44.04,1.356 88.06,0.598 132.1,-3.73 44.04,4.328 88.06,5.086 132.1,3.73 37.99,-35.371 75.99,-70.742 113.98,-106.113 38.51,32.488 77.03,64.98 115.56,97.469 110.17,-4.336 220.34,-17.754 330.5,-53.543 34.63,-42.492 69.26,-84.992 103.88,-127.492 37.26,18.886 74.51,37.777 111.76,56.66 73.58,-25.821 142.56,-62.137 201.45,-121.504 -6.2,-61.18 -11.73,-123.875 -15.56,-169.375 -63.28,61.387 -135.74,99.855 -215.79,119.328 -28.24,35.234 -56.47,70.469 -84.7,105.703 -35.63,-18.867 -71.27,-37.734 -106.9,-56.601 -111.34,21.914 -221.69,35.8 -330.93,40.878 -36.94,33.536 -73.9,67.079 -110.84,100.614 -34.05,-31.446 -68.13,-62.879 -102.19,-94.325 -45.01,4.524 -92.23,5.36 -142.32,1.415 -50.09,3.945 -97.31,3.109 -142.32,-1.415 -34.06,31.446 -68.12,62.879 -102.18,94.325 -36.95,-33.535 -73.9,-67.078 -110.84,-100.614 -109.24,-5.078 -219.59,-18.964 -330.93,-40.878 -35.64,18.867 -71.27,37.734 -106.91,56.601 -28.23,-35.234 -56.46,-70.469 -84.7,-105.703 -80.04,-19.473 -152.5,-57.941 -215.78,-119.328"
         clip-rule="evenodd"
         id="path2626" />
    </clipPath>
    <clipPath
       clipPathUnits="userSpaceOnUse"
       id="clipPath2602">
      <path
         inkscape:connector-curvature="0"
         d="m 3852.65,195.02 c -2.18,27.929 -22.62,286.804 -40.46,394.558 -18.87,113.984 -114.2,436.652 -162.99,572.012 -27.89,77.38 -109.27,252.98 -173.88,389.24 143.98,-142.54 263.12,-365.67 398.96,-625.334 75.25,-143.863 157.75,-67.117 157.39,67.688 -0.78,286.116 -20.99,571.866 -31.47,857.796 139.55,-214.59 281.16,-458.44 418.67,-779.1 38.86,-90.669 100.81,-119.157 151.1,-6.29 97.73,219.36 178.38,445.94 267.57,668.92 -3.65,-83.77 -3.64,-166.06 103.48,-205.52 107.13,39.46 107.13,121.75 103.48,205.52 89.19,-222.98 169.84,-449.56 267.58,-668.92 50.28,-112.867 112.22,-84.379 151.1,6.29 137.5,320.66 279.12,564.51 418.68,779.1 -10.5,-285.93 -30.71,-571.68 -31.49,-857.796 -0.36,-134.805 82.14,-211.551 157.4,-67.688 135.84,259.664 254.98,482.794 398.95,625.334 -64.6,-136.26 -145.98,-311.86 -173.88,-389.24 -48.79,-135.36 -144.12,-458.028 -162.98,-572.012 -17.85,-107.754 -38.29,-366.629 -40.46,-394.558 0.14,3.046 -0.13,6.132 -0.7,9.128 -19.98,111.946 -487.38,244.438 -1060.95,244.438 -8.95,0 -17.85,-0.051 -26.73,-0.121 -8.88,0.07 -17.78,0.121 -26.72,0.121 -573.57,0 -1040.98,-132.492 -1060.95,-244.438 -0.58,-2.996 -0.84,-6.082 -0.7,-9.128"
         clip-rule="evenodd"
         id="path2604" />
    </clipPath>
    <clipPath
       clipPathUnits="userSpaceOnUse"
       id="clipPath2586">
      <path
         inkscape:connector-curvature="0"
         d="m 3852.65,195.02 c -2.18,27.929 -22.62,286.804 -40.46,394.558 -18.87,113.984 -114.2,436.652 -162.99,572.012 -48.8,135.36 -261.28,571.35 -261.28,571.35 0,0 111.75,-100.73 171.56,-176.28 59.82,-75.56 300.63,-528.86 339.97,-591.816 39.36,-62.961 74.67,-101.711 85.68,-19.168 11,82.524 -33.73,869.114 -33.73,910.034 0,40.92 -15.74,144.81 53.51,78.69 69.26,-66.1 386.47,-634.48 435.99,-791.7 37,-117.45 75.55,-116.33 110.17,1.58 110.71,278.59 221.41,557.18 332.11,835.77 -109.36,-73.85 -264.85,3.65 -269.14,99.16 -3.98,88.58 131.12,135.01 262.85,40.93 -78.77,186.12 5.78,247.13 64.13,335.04 58.36,-87.91 142.9,-148.92 64.14,-335.04 131.73,94.08 266.83,47.65 262.85,-40.93 -4.3,-95.51 -159.79,-173.01 -269.15,-99.16 110.7,-278.59 221.41,-557.18 332.11,-835.77 34.63,-117.91 73.17,-119.03 110.17,-1.58 49.52,157.22 366.74,725.6 435.99,791.7 69.26,66.12 53.51,-37.77 53.51,-78.69 0,-40.92 -44.73,-827.51 -33.73,-910.034 11.01,-82.543 46.33,-43.793 85.68,19.168 39.34,62.956 280.16,516.256 339.97,591.816 59.82,75.55 171.57,176.28 171.57,176.28 0,0 -212.49,-435.99 -261.29,-571.35 -48.79,-135.36 -144.12,-458.028 -162.98,-572.012 -17.85,-107.754 -38.29,-366.629 -40.46,-394.558 0.14,3.046 -0.13,6.132 -0.7,9.128 -19.98,111.946 -487.38,244.438 -1060.95,244.438 -8.95,0 -17.85,-0.051 -26.73,-0.121 -8.88,0.07 -17.78,0.121 -26.72,0.121 -573.57,0 -1040.98,-132.492 -1060.95,-244.438 -0.58,-2.996 -0.84,-6.082 -0.7,-9.128"
         clip-rule="evenodd"
         id="path2588" />
    </clipPath>
  </defs>
  <sodipodi:namedview
     id="base"
     pagecolor="#ffffff"
     bordercolor="#666666"
     borderopacity="1.0"
     inkscape:pageopacity="0.0"
     inkscape:pageshadow="2"
     inkscape:zoom="0.49497475"
     inkscape:cx="890.05798"
     inkscape:cy="340.12499"
     inkscape:document-units="px"
     inkscape:current-layer="layer1"
     showgrid="false"
     inkscape:window-width="1280"
     inkscape:window-height="734"
     inkscape:window-x="0"
     inkscape:window-y="27"
     inkscape:window-maximized="1" />
  <metadata
     id="metadata10568">
    <rdf:RDF>
      <cc:Work
         rdf:about="">
        <dc:format>image/svg+xml</dc:format>
        <dc:type
           rdf:resource="http://purl.org/dc/dcmitype/StillImage" />
        <dc:title />
      </cc:Work>
    </rdf:RDF>
  </metadata>
  <g
     inkscape:label="Camada 1"
     inkscape:groupmode="layer"
     id="layer1">
    <g
       id="g2620"
       transform="matrix(0.125,0,0,-0.125,-267.62813,658.53543)"
       style="fill:#73ba25"
       inkscape:export-filename="/home/Carlos/git_repo/artwork/Marketing Materials/Events/openSUSE Conference/2014-oS-Conference/Logo/Proposal_08.png"
       inkscape:export-xdpi="300"
       inkscape:export-ydpi="300">
      <g
         clip-path="url(#clipPath2624)"
         id="g2622"
         style="fill:#73ba25" />
    </g>
    <g
       id="g20884">
      <text
         xml:space="preserve"
         style="font-size:386.63131714px;font-style:normal;font-weight:normal;line-height:125%;letter-spacing:0px;word-spacing:0px;fill:#000000;fill-opacity:1;stroke:none;font-family:Sans"
         x="965.92108"
         y="942.04858"
         id="text20760"
         sodipodi:linespacing="125%"
         transform="scale(0.94822259,1.0546047)"><tspan
           sodipodi:role="line"
           id="tspan20762"
           x="965.92108"
           y="942.04858"
           style="font-style:normal;font-variant:normal;font-weight:bold;font-stretch:normal;font-family:FifthLeg;-inkscape-font-specification:FifthLeg Bold">oSC14</tspan></text>
      <path
         id="path20764"
         style="fill:#73ba25;fill-opacity:1;fill-rule:evenodd;stroke:none"
         d="m 1234.1744,729.69904 1.3313,-0.15375 0.1779,-1.58664 c -0.3727,-1.23246 -1.2035,-2.32934 -2.8147,-17.68781 -1.3815,-13.59379 -4.4144,-50.89065 13.9415,-69.86051 7.1193,-7.40233 18.1007,-14.09073 26.8329,-16.37791 35.8054,-9.6402 82.7003,-4.67739 123.7277,40.53014 21.1709,23.36196 31.5436,34.00912 36.7161,38.75862 l 1.7738,1.57161 2.1475,1.46828 c 1.6654,0.89163 69.3764,30.12613 69.3764,30.12613 l 1.3557,-0.37582 0.01,-1.45611 c -0.4458,-0.48539 -43.7441,-53.74173 -37.37,-98.62028 5.0437,-35.75343 33.4716,-33.23572 72.7604,-29.7062 12.8464,1.15029 27.467,2.47859 42.5525,2.4602 42.0987,-0.75774 87.2711,-9.56581 114.9304,-22.4574 17.8958,-8.34172 29.3106,-13.8307 36.3832,-20.57997 2.5516,-2.20242 3.8313,-5.77045 5.1399,-9.52731 l 0.9068,-2.5335 c 1.0986,-3.04111 2.6557,-9.53097 3.32,-13.05501 0.3074,-1.55714 0.42,-3.23861 -0.6907,-4.04868 l -3.8589,0.80489 c -12.0763,7.64546 -42.4256,22.4008 -71.1349,23.64603 -35.564,1.59427 -108.1588,-33.23631 -115.7279,-36.9355 l -0.7334,-0.82012 c -1.9045,-4.23962 -13.2766,-29.45117 -15.6701,-34.76151 52.435,32.76434 95.6906,50.5419 128.5511,52.67422 36.5605,2.3841 64.5325,-18.20971 76.4895,-27.00316 2.3475,-1.66945 4.119,-3.01601 4.8548,-3.31119 l 0.7441,-1.29027 c -2.3259,-12.76349 -22.886,-74.35075 -37.6344,-88.89839 -4.0986,-3.99877 -7.3894,-7.8921 -13.9335,-11.52373 -52.8745,-29.15399 -177.1205,-44.56163 -182.9387,-45.25909 l -0.9875,0.30278 -0.3515,0.87641 c 0,0 0.1522,25.69692 0.1522,28.55422 -12.758,-3.91768 -105.3806,-31.40954 -191.6352,-32.35746 -73.1128,-0.82925 -172.9945,-1.91898 -311.947,88.12541 l -4.0956,2.70426 c -65.33433,42.96749 -109.90374,95.06262 -132.43384,154.9477 -7.06225,18.82304 -16.16811,61.16307 -5.23474,100.53744 4.75743,17.23894 13.20779,34.41826 24.43937,49.73216 25.31683,34.592 66.97793,56.9719 111.33951,59.8516 62.6103,4.0893 109.2793,-25.1143 124.8667,-78.06952 10.7038,-36.54019 -2.138,-89.46441 -47.1478,-115.54823 -36.607,-21.25659 -75.3255,-15.27221 -97.46083,0.12175 -19.23307,13.43309 -29.82653,33.79944 -29.08097,55.91358 1.3694,39.16927 35.65192,59.2083 59.9117,58.66011 7.0711,-0.16883 14.1155,-1.54741 22.0574,-4.34402 2.8036,-0.93728 5.4754,-2.05484 8.3786,-3.95725 l 0.8855,-0.60859 0.5797,-0.35301 -0.2146,0.0913 c 5.4638,-3.85619 8.6668,-10.07704 8.5097,-16.65436 -0.046,-1.80014 -0.3682,-3.62265 -0.9069,-5.44225 -3.0896,-9.82736 -13.0378,-15.61076 -23.1685,-13.50737 l -1.3572,0.31344 -1.8461,0.66338 -2.6776,0.96465 c -5.5506,1.52978 -9.7681,1.72333 -10.6355,1.77306 -2.8576,-0.12174 -16.95,-3.96908 -17.31622,-19.29425 l -9.4e-4,-0.18418 c -0.0913,-5.61647 2.06826,-9.61021 3.25826,-11.78025 4.1486,-6.92804 15.9012,-13.91284 32.0341,-12.87091 21.1402,1.29332 36.5984,11.75897 47.1678,31.93039 9.8238,18.75972 7.9307,42.14754 -4.8769,59.58622 -12.7169,17.2853 -35.903,25.0397 -67.0683,22.3984 -31.41443,-2.6931 -58.33481,-20.0877 -73.83587,-47.80374 -15.17343,-27.07664 -16.75875,-59.5995 -4.10831,-84.91739 30.30431,-60.63083 90.21998,-61.44288 123.20888,-56.54989 48.8424,7.24346 93.9168,45.11989 114.7908,96.42775 3.3302,8.17692 5.0989,14.6838 6.6364,20.6058 l 2.3253,8.91489 55.5778,25.51966 0.7593,0.50972 0,-7.6e-4 z m 383.5155,-301.55571 c -10.1285,9.86312 -15.7436,23.12733 -15.9017,37.28606 -0.2632,29.18155 23.2196,53.20447 52.4025,53.59504 14.2203,0.12175 27.5628,-5.19242 37.661,-15.11776 10.0989,-9.89416 15.7143,-23.12671 15.903,-37.25501 0.2952,-29.21398 -23.1876,-53.26778 -52.4323,-53.62305 -14.1574,-0.12175 -27.5343,5.18937 -37.6325,15.11472 m 38.1156,74.9805 c -20.7636,-0.26625 -37.4658,-17.36462 -37.2693,-38.15624 0.076,-10.06577 4.1565,-19.46542 11.2988,-26.50408 7.1718,-7.03745 16.6684,-10.83825 26.7355,-10.7004 20.7923,0.23126 37.4985,17.29994 37.2978,38.12335 -0.076,10.03382 -4.0934,19.43182 -11.2646,26.50091 -7.2072,7.00837 -16.7032,10.80995 -26.7988,10.73661 l 6e-4,-1.5e-4 z m 7.9155,-34.33411 c 9.2331,-0.22059 16.6066,-5.39462 16.4601,-11.52905 -0.1522,-6.16682 -7.7603,-10.98508 -16.9928,-10.76433 -9.2374,0.2206 -16.5816,5.39647 -16.4342,11.56314 0.1522,6.13456 7.7295,10.95102 16.9669,10.73024"
         inkscape:connector-curvature="0"
         inkscape:export-filename="/home/Carlos/git_repo/artwork/Marketing Materials/Events/openSUSE Conference/2014-oS-Conference/Logo/Proposal_08.png"
         inkscape:export-xdpi="300"
         inkscape:export-ydpi="300" />
      <g
         id="g20766"
         transform="matrix(0.78705786,0.1430812,-0.1430812,0.78705786,1427.6924,-144.97169)">
        <g
           inkscape:export-ydpi="300"
           inkscape:export-xdpi="300"
           inkscape:export-filename="/home/Carlos/git_repo/artwork/Marketing Materials/Events/openSUSE Conference/2014-oS-Conference/Logo/Proposal_08.png"
           style="fill:#73ba25"
           transform="matrix(0.125,0,0,-0.125,-267.62813,658.53543)"
           id="g20768">
          <g
             style="fill:#73ba25"
             id="g20770"
             clip-path="url(#clipPath2586)">
            <path
               sodipodi:nodetypes="cccccccsccccccccsccccccccscscc"
               inkscape:connector-curvature="0"
               d="m 3852.65,195.02 c -2.18,27.929 -22.62,286.804 -40.46,394.558 -18.87,113.984 -114.2,436.652 -162.99,572.012 -48.8,135.36 -261.28,571.35 -261.28,571.35 0,0 111.75,-100.73 171.56,-176.28 59.82,-75.56 300.63,-528.86 339.97,-591.816 39.36,-62.961 74.67,-101.711 85.68,-19.168 11,82.524 -33.73,869.114 -33.73,910.034 0,40.92 -15.74,144.81 53.51,78.69 69.26,-66.1 386.47,-634.48 435.99,-791.7 37,-117.45 75.55,-116.33 110.17,1.58 110.71,278.59 221.41,557.18 332.11,835.77 32.5582,74.1523 100.0637,23.1327 115.68,0 110.7,-278.59 221.41,-557.18 332.11,-835.77 34.63,-117.91 73.17,-119.03 110.17,-1.58 49.52,157.22 366.74,725.6 435.99,791.7 69.26,66.12 53.51,-37.77 53.51,-78.69 0,-40.92 -44.73,-827.51 -33.73,-910.034 11.01,-82.543 46.33,-43.793 85.68,19.168 39.34,62.956 280.16,516.256 339.97,591.816 59.82,75.55 171.57,176.28 171.57,176.28 0,0 -212.49,-435.99 -261.29,-571.35 -48.79,-135.36 -144.12,-458.028 -162.98,-572.012 -17.85,-107.754 -38.29,-366.629 -40.46,-394.558 0.14,3.046 -0.13,6.132 -0.7,9.128 -19.98,111.946 -487.38,244.438 -1060.95,244.438 -8.95,0 -17.85,-0.051 -26.73,-0.121 -8.88,0.07 -17.78,0.121 -26.72,0.121 -573.57,0 -1040.98,-132.492 -1060.95,-244.438 -0.58,-2.996 -0.84,-6.082 -0.7,-9.128"
               style="fill:#73ba25;fill-opacity:1;fill-rule:nonzero;stroke:none"
               id="path20772" />
          </g>
        </g>
        <g
           inkscape:export-ydpi="300"
           inkscape:export-xdpi="300"
           inkscape:export-filename="/home/Carlos/git_repo/artwork/Marketing Materials/Events/openSUSE Conference/2014-oS-Conference/Logo/Proposal_08.png"
           style="fill:#578c1c;fill-opacity:1"
           transform="matrix(0.125,0,0,-0.125,-267.62813,658.53543)"
           id="g20774">
          <g
             style="fill:#578c1c;fill-opacity:1"
             id="g20776"
             clip-path="url(#clipPath2602)">
            <path
               sodipodi:nodetypes="ccccccccccccsccscccccscscc"
               inkscape:connector-curvature="0"
               d="m 3852.65,195.02 c -2.18,27.929 -22.62,286.804 -40.46,394.558 -18.87,113.984 -114.2,436.652 -162.99,572.012 -27.89,77.38 -109.27,252.98 -173.88,389.24 143.98,-142.54 263.12,-365.67 398.96,-625.334 75.25,-143.863 157.75,-67.117 157.39,67.688 -0.78,286.116 -20.99,571.866 -31.47,857.796 139.55,-214.59 281.16,-458.44 418.67,-779.1 38.86,-90.669 100.81,-119.157 151.1,-6.29 97.73,219.36 178.38,445.94 267.57,668.92 23.4918,61.6311 176.9259,63.5466 206.96,0 89.19,-222.98 169.84,-449.56 267.58,-668.92 50.28,-112.867 112.22,-84.379 151.1,6.29 137.5,320.66 279.12,564.51 418.68,779.1 -10.5,-285.93 -30.71,-571.68 -31.49,-857.796 -0.36,-134.805 82.14,-211.551 157.4,-67.688 135.84,259.664 254.98,482.794 398.95,625.334 -64.6,-136.26 -145.98,-311.86 -173.88,-389.24 -48.79,-135.36 -144.12,-458.028 -162.98,-572.012 -17.85,-107.754 -38.29,-366.629 -40.46,-394.558 0.14,3.046 -0.13,6.132 -0.7,9.128 -19.98,111.946 -487.38,244.438 -1060.95,244.438 -8.95,0 -17.85,-0.051 -26.73,-0.121 -8.88,0.07 -17.78,0.121 -26.72,0.121 -573.57,0 -1040.98,-132.492 -1060.95,-244.438 -0.58,-2.996 -0.84,-6.082 -0.7,-9.128"
               style="fill:#578c1c;fill-opacity:1;fill-rule:nonzero;stroke:none"
               id="path20778" />
          </g>
        </g>
        <g
           inkscape:export-ydpi="300"
           inkscape:export-xdpi="300"
           inkscape:export-filename="/home/Carlos/git_repo/artwork/Marketing Materials/Events/openSUSE Conference/2014-oS-Conference/Logo/Proposal_08.png"
           style="fill:#005600;fill-opacity:1"
           transform="matrix(0.125,0,0,-0.125,-267.62813,658.53543)"
           id="g20780">
          <g
             style="fill:#005600;fill-opacity:1"
             id="g20782"
             clip-path="url(#clipPath2646)" />
        </g>
        <g
           inkscape:export-ydpi="300"
           inkscape:export-xdpi="300"
           inkscape:export-filename="/home/Carlos/git_repo/artwork/Marketing Materials/Events/openSUSE Conference/2014-oS-Conference/Logo/Proposal_08.png"
           style="fill:#ffffff"
           transform="matrix(0.125,0,0,-0.125,-267.62813,658.53543)"
           id="g20784">
          <g
             style="fill:#ffffff"
             id="g20786"
             clip-path="url(#clipPath2838)">
            <path
               inkscape:connector-curvature="0"
               d="m 6036.67,283.254 c 2.62,30.094 6.18,70.308 9.58,105.465 -54.2,61.742 -117.36,106.664 -186.28,128.547 -28.49,-7.383 -56.13,-19.043 -82.54,-36.946 26.11,-22.898 48.87,-49.129 67.61,-79.394 70.06,-13.574 132.07,-64.266 191.63,-117.672"
               style="fill:#ff0000;fill-opacity:1;fill-rule:nonzero;stroke:none"
               id="path20788" />
          </g>
        </g>
        <g
           inkscape:export-ydpi="300"
           inkscape:export-xdpi="300"
           inkscape:export-filename="/home/Carlos/git_repo/artwork/Marketing Materials/Events/openSUSE Conference/2014-oS-Conference/Logo/Proposal_08.png"
           style="fill:#73ba25;stroke:#ffffff;stroke-width:40;stroke-miterlimit:4;stroke-dasharray:none"
           transform="matrix(0.125,0,0,-0.125,-267.62813,658.53543)"
           id="g20790">
          <g
             style="fill:#73ba25;stroke:#ffffff;stroke-width:40;stroke-miterlimit:4;stroke-dasharray:none"
             id="g20792"
             clip-path="url(#clipPath2854)">
            <path
               inkscape:connector-curvature="0"
               d="m 5061.99,1821.17 0.01,-0.02 c 0,0 25,-45.71 431.09,-102.37 92.68,-12.94 166.47,-19.96 227.31,-24.89 -113.9,-196.17 -248.44,-453.34 -279.26,-551.19 -37,-117.45 -75.54,-116.33 -110.17,1.58 l -268.98,676.89 0,0 z m -241.94,0 0,-0.02 c 0,0 -25,-45.71 -431.1,-102.37 -92.68,-12.94 -166.46,-19.96 -227.31,-24.89 113.9,-196.17 248.44,-453.34 279.26,-551.19 37,-117.45 75.55,-116.33 110.17,1.58 l 268.98,676.89 0,0 z m -860.14,-147.21 c -68.16,-13.21 -120.05,-39.13 -197.39,-104.71 -63.26,-53.66 -78.13,-141.14 -71.19,-231.27 86.64,-153.82 184.31,-335.01 208.12,-373.136 39.36,-62.961 74.67,-101.711 85.68,-19.168 7.88,59.124 -12.83,479.504 -25.22,728.284 l 0,0 z m 1962.23,0 c 68.15,-13.21 120.06,-39.13 197.38,-104.71 63.27,-53.66 78.13,-141.14 71.19,-231.27 -86.64,-153.82 -184.3,-335.01 -208.12,-373.136 -39.35,-62.961 -74.67,-101.711 -85.68,-19.168 -7.87,59.124 12.84,479.504 25.23,728.284"
               style="fill:#73ba25;fill-opacity:1;fill-rule:nonzero;stroke:#ffffff;stroke-width:40;stroke-miterlimit:4;stroke-dasharray:none"
               id="path20794" />
          </g>
        </g>
        <g
           inkscape:export-ydpi="300"
           inkscape:export-xdpi="300"
           inkscape:export-filename="/home/Carlos/git_repo/artwork/Marketing Materials/Events/openSUSE Conference/2014-oS-Conference/Logo/Proposal_08.png"
           style="fill:#ffffff"
           transform="matrix(0.125,0,0,-0.125,-267.62813,658.53543)"
           id="g20796">
          <g
             style="fill:#ffffff"
             id="g20798"
             clip-path="url(#clipPath2870)">
            <path
               inkscape:connector-curvature="0"
               d="m 5235.84,577.793 c 29.6,20.703 59.21,41.395 88.82,62.098 90.66,-7.657 181.32,-20.039 271.98,-45.594 28.56,-28.555 57.12,-57.121 85.68,-85.676 -27.52,-13.691 -55.02,-30.035 -82.53,-51.101 -88.51,22.761 -180.85,33.945 -276.69,34.589 -29.1,28.567 -58.18,57.118 -87.26,85.684"
               style="fill:#ffffff;fill-opacity:1;fill-rule:nonzero;stroke:none"
               id="path20800" />
          </g>
        </g>
        <g
           inkscape:export-ydpi="300"
           inkscape:export-xdpi="300"
           inkscape:export-filename="/home/Carlos/git_repo/artwork/Marketing Materials/Events/openSUSE Conference/2014-oS-Conference/Logo/Proposal_08.png"
           transform="matrix(0.125,0,0,-0.125,-267.62813,658.53543)"
           id="g20802">
          <g
             id="g20804"
             clip-path="url(#clipPath2908)">
            <path
               inkscape:connector-curvature="0"
               d="m 5851.94,1745.54 c -52.71,-113.56 -108.99,-158.41 -136.93,-253.41 -31.1,-105.8 89.87,-133.88 116.47,-31.49 24.88,95.7 1.07,169.5 20.46,284.9"
               style="fill:#73ba25;fill-opacity:1;fill-rule:nonzero;stroke:none"
               id="path20806" />
          </g>
        </g>
        <g
           inkscape:export-ydpi="300"
           inkscape:export-xdpi="300"
           inkscape:export-filename="/home/Carlos/git_repo/artwork/Marketing Materials/Events/openSUSE Conference/2014-oS-Conference/Logo/Proposal_08.png"
           style="fill:#e6e6e6"
           transform="matrix(0.125,0,0,-0.125,-267.62813,658.53543)"
           id="g20808">
          <g
             style="fill:#e6e6e6"
             id="g20810"
             clip-path="url(#clipPath2974)">
            <path
               inkscape:connector-curvature="0"
               d="m 4914.3,448.586 c -573.57,0 -1040.98,-132.492 -1060.95,-244.438 l -0.1,-0.039 -0.02,-0.523 c -0.38,-2.285 -0.63,-4.574 -0.63,-6.848 0,-1.418 0.09,-2.824 0.23,-4.218 -0.45,-13.711 -1.02,-35.45 -0.23,-41.575 0,37.832 58.73,78.606 160.33,115.578 l 0.97,0.352 c 3.5,1.27 7.05,2.539 10.66,3.801 l 0.92,0.32 c 14.9,5.203 30.65,10.32 47.22,15.344 l 1.84,0.555 c 3.67,1.113 7.4,2.214 11.15,3.308 l 2.86,0.832 c 3.67,1.074 7.37,2.129 11.12,3.184 l 2.86,0.808 c 16.38,4.571 33.43,9.055 51.12,13.43 l 5.74,1.406 c 3.2,0.782 6.43,1.563 9.68,2.332 l 6.77,1.594 c 3.3,0.781 6.61,1.543 9.95,2.313 l 6.5,1.476 c 3.54,0.801 7.1,1.602 10.69,2.391 l 1.78,0.383 c 8.31,1.824 16.74,3.621 25.28,5.402 1.96,0.398 3.91,0.808 5.89,1.211 3.61,0.738 7.25,1.461 10.89,2.195 2.28,0.457 4.57,0.918 6.85,1.367 3.87,0.762 7.78,1.512 11.68,2.266 l 6.33,1.211 c 3.78,0.711 7.57,1.426 11.39,2.129 2.85,0.527 5.71,1.043 8.57,1.562 3.32,0.594 6.62,1.2 9.97,1.797 6.08,1.074 12.2,2.149 18.38,3.192 1.97,0.332 3.97,0.664 5.97,0.996 4.42,0.746 8.86,1.484 13.32,2.218 2.98,0.481 5.97,0.957 8.97,1.438 3.73,0.594 7.48,1.187 11.25,1.773 l 8.92,1.379 c 3.88,0.598 7.78,1.172 11.69,1.758 2.96,0.438 5.93,0.879 8.91,1.316 4.12,0.598 8.28,1.184 12.43,1.778 2.79,0.39 5.56,0.793 8.37,1.183 6.66,0.918 13.36,1.836 20.11,2.723 l 6.77,0.883 c 4.79,0.613 9.58,1.226 14.41,1.844 2.93,0.363 5.87,0.722 8.81,1.082 4.21,0.519 8.43,1.027 12.67,1.535 l 9.64,1.133 c 4.39,0.507 8.81,1.004 13.22,1.504 2.69,0.3 5.39,0.605 8.1,0.898 5.27,0.586 10.57,1.141 15.88,1.699 2.26,0.235 4.51,0.477 6.77,0.711 7.27,0.754 14.57,1.485 21.92,2.188 2.37,0.226 4.74,0.441 7.11,0.664 4.98,0.48 9.97,0.937 15,1.398 3.18,0.281 6.36,0.567 9.54,0.84 4.71,0.41 9.43,0.82 14.17,1.219 l 8.94,0.734 c 4.82,0.391 9.69,0.781 14.54,1.152 2.98,0.235 5.94,0.458 8.93,0.684 5.79,0.438 11.62,0.848 17.45,1.262 2.01,0.144 4.02,0.289 6.04,0.426 7.6,0.531 15.25,1.027 22.91,1.496 2.75,0.175 5.51,0.332 8.26,0.496 5.37,0.324 10.76,0.636 16.17,0.949 l 8.2,0.437 c 5.26,0.286 10.55,0.559 15.83,0.821 l 9.73,0.469 c 5.24,0.246 10.51,0.488 15.78,0.703 l 7.91,0.351 c 7.27,0.293 14.58,0.567 21.91,0.832 l 2.91,0.106 c 8.34,0.285 16.69,0.547 25.08,0.785 l 5.83,0.144 c 6.12,0.164 12.25,0.313 18.4,0.45 l 9.47,0.195 c 5.38,0.098 10.79,0.195 16.2,0.273 l 9.21,0.137 c 5.66,0.066 11.33,0.125 17,0.176 2.79,0.027 5.57,0.058 8.36,0.078 8.41,0.051 16.84,0.078 25.3,0.078 8.85,0 17.68,-0.019 26.48,-0.09 l 0.48,0 c 8.8,0.071 17.63,0.09 26.49,0.09 8.45,0 16.88,-0.027 25.29,-0.078 2.79,-0.02 5.57,-0.051 8.37,-0.078 5.67,-0.051 11.34,-0.11 17,-0.176 l 9.22,-0.137 c 5.4,-0.078 10.8,-0.175 16.19,-0.273 l 9.47,-0.195 c 6.14,-0.137 12.28,-0.286 18.39,-0.45 l 5.83,-0.144 c 8.39,-0.238 16.75,-0.5 25.08,-0.785 l 2.92,-0.106 c 7.32,-0.265 14.63,-0.539 21.9,-0.832 l 7.91,-0.351 c 5.28,-0.215 10.54,-0.457 15.79,-0.703 l 9.72,-0.469 c 5.29,-0.262 10.57,-0.535 15.83,-0.821 l 8.22,-0.437 c 5.39,-0.313 10.78,-0.625 16.16,-0.949 2.75,-0.164 5.5,-0.321 8.25,-0.496 7.67,-0.469 15.31,-0.965 22.91,-1.496 2.03,-0.137 4.03,-0.282 6.05,-0.426 5.82,-0.414 11.65,-0.824 17.44,-1.262 2.99,-0.226 5.96,-0.449 8.93,-0.684 4.86,-0.371 9.72,-0.761 14.55,-1.152 l 8.94,-0.734 c 4.73,-0.399 9.45,-0.809 14.16,-1.219 3.18,-0.273 6.37,-0.559 9.54,-0.84 5.03,-0.461 10.02,-0.918 15.01,-1.398 2.36,-0.223 4.73,-0.438 7.1,-0.664 7.34,-0.703 14.65,-1.434 21.92,-2.188 2.27,-0.234 4.51,-0.476 6.77,-0.711 5.31,-0.558 10.61,-1.113 15.89,-1.699 2.7,-0.293 5.4,-0.598 8.09,-0.898 4.42,-0.5 8.83,-0.997 13.21,-1.504 l 9.65,-1.133 c 4.24,-0.508 8.46,-1.016 12.67,-1.535 2.94,-0.36 5.89,-0.719 8.81,-1.082 4.83,-0.618 9.63,-1.231 14.41,-1.844 l 6.77,-0.883 c 6.75,-0.887 13.45,-1.805 20.11,-2.723 2.81,-0.39 5.58,-0.793 8.38,-1.183 4.15,-0.594 8.3,-1.18 12.42,-1.778 2.99,-0.437 5.96,-0.878 8.91,-1.316 3.92,-0.586 7.82,-1.16 11.69,-1.758 l 8.92,-1.379 c 3.77,-0.586 7.51,-1.179 11.25,-1.773 3,-0.481 6,-0.957 8.98,-1.438 4.46,-0.734 8.89,-1.472 13.32,-2.218 1.99,-0.332 3.99,-0.664 5.97,-0.996 6.17,-1.043 12.29,-2.118 18.37,-3.192 3.35,-0.597 6.65,-1.203 9.97,-1.797 2.86,-0.519 5.73,-1.035 8.58,-1.562 3.81,-0.703 7.6,-1.418 11.38,-2.129 l 6.33,-1.211 c 3.92,-0.754 7.81,-1.504 11.68,-2.266 2.29,-0.449 4.57,-0.91 6.84,-1.367 3.65,-0.734 7.3,-1.457 10.9,-2.195 1.98,-0.403 3.93,-0.813 5.89,-1.211 8.55,-1.781 16.98,-3.578 25.29,-5.402 l 1.77,-0.383 c 3.6,-0.789 7.15,-1.59 10.7,-2.391 l 6.49,-1.476 c 3.34,-0.77 6.66,-1.532 9.95,-2.313 l 6.77,-1.594 c 3.25,-0.769 6.48,-1.55 9.69,-2.332 l 5.73,-1.406 c 17.7,-4.375 34.75,-8.859 51.12,-13.43 l 2.87,-0.808 c 3.74,-1.055 7.44,-2.11 11.13,-3.184 l 2.84,-0.832 c 3.75,-1.094 7.48,-2.195 11.15,-3.308 l 1.86,-0.555 c 16.55,-5.024 32.3,-10.141 47.2,-15.344 l 0.92,-0.32 c 3.61,-1.262 7.17,-2.531 10.67,-3.801 l 0.97,-0.352 c 101.59,-36.972 160.32,-77.746 160.32,-115.578 0.79,6.125 0.23,27.864 -0.23,41.575 0.15,1.394 0.23,2.8 0.23,4.218 0,2.274 -0.25,4.563 -0.63,6.848 l -0.02,0.523 -0.09,0.039 c -19.98,111.946 -487.38,244.438 -1060.95,244.438 -8.95,0 -17.85,-0.031 -26.73,-0.109 -8.88,0.078 -17.78,0.109 -26.72,0.109"
               style="fill:#e6e6e6;fill-opacity:1;fill-rule:nonzero;stroke:none"
               id="path20812" />
          </g>
        </g>
        <g
           inkscape:export-ydpi="300"
           inkscape:export-xdpi="300"
           inkscape:export-filename="/home/Carlos/git_repo/artwork/Marketing Materials/Events/openSUSE Conference/2014-oS-Conference/Logo/Proposal_08.png"
           style="fill:#e6e6e6"
           transform="matrix(0.125,0,0,-0.125,-267.62813,658.53543)"
           id="g20814">
          <g
             style="fill:#e6e6e6"
             id="g20816"
             clip-path="url(#clipPath3234)">
            <path
               inkscape:connector-curvature="0"
               d="m 3829.28,453.719 c -2.38,22.531 -4.83,44.511 -7.3,64.961 122.31,95.254 279.88,161.535 467.52,203.125 188.44,41.781 407.4,58.672 651.52,55.109 244.12,3.563 463.08,-13.328 651.52,-55.109 187.64,-41.59 345.21,-107.871 467.52,-203.125 -2.47,-20.45 -4.92,-42.43 -7.29,-64.961 l -13.73,11.562 -0.04,-0.027 c -117.28,95.5 -271.96,161.66 -458.31,202.961 -184.3,40.855 -399.34,57.351 -639.67,53.805 -240.33,3.546 -455.37,-12.95 -639.67,-53.805 -186.34,-41.301 -341.02,-107.461 -458.31,-202.961 l -0.02,0.027 -13.74,-11.562"
               style="fill:#e6e6e6;fill-opacity:1;fill-rule:nonzero;stroke:none"
               id="path20818" />
          </g>
        </g>
        <g
           inkscape:export-ydpi="300"
           inkscape:export-xdpi="300"
           inkscape:export-filename="/home/Carlos/git_repo/artwork/Marketing Materials/Events/openSUSE Conference/2014-oS-Conference/Logo/Proposal_08.png"
           style="fill:#ffffff"
           transform="matrix(0.125,0,0,-0.125,-267.62813,658.53543)"
           id="g20820">
          <g
             style="fill:#ffffff"
             id="g20822"
             clip-path="url(#clipPath3256)">
            <path
               inkscape:connector-curvature="0"
               d="m 4941.02,503.074 -121.1,5.547 c -24.1,23.574 -48.2,47.16 -72.31,70.742 27.77,24.629 55.54,49.258 83.32,73.891 l 220.18,0 c 27.78,-24.633 55.55,-49.262 83.32,-73.891 -24.1,-23.582 -48.21,-47.168 -72.31,-70.742 l -121.1,-5.547"
               style="fill:#ff0000;fill-opacity:1;fill-rule:nonzero;stroke:none"
               id="path20824" />
          </g>
        </g>
        <g
           inkscape:export-ydpi="300"
           inkscape:export-xdpi="300"
           inkscape:export-filename="/home/Carlos/git_repo/artwork/Marketing Materials/Events/openSUSE Conference/2014-oS-Conference/Logo/Proposal_08.png"
           style="fill:#ffffff"
           transform="matrix(0.125,0,0,-0.125,-267.62813,658.53543)"
           id="g20826">
          <g
             style="fill:#ffffff"
             id="g20828"
             clip-path="url(#clipPath3272)">
            <path
               inkscape:connector-curvature="0"
               d="m 3845.37,283.254 c -2.62,30.094 -6.18,70.308 -9.57,105.465 54.19,61.742 117.35,106.664 186.27,128.547 28.5,-7.383 56.13,-19.043 82.54,-36.946 -26.1,-22.898 -48.87,-49.129 -67.61,-79.394 -70.06,-13.574 -132.07,-64.266 -191.63,-117.672"
               style="fill:#ff0000;fill-opacity:1;fill-rule:nonzero;stroke:none"
               id="path20830" />
          </g>
        </g>
        <g
           inkscape:export-ydpi="300"
           inkscape:export-xdpi="300"
           inkscape:export-filename="/home/Carlos/git_repo/artwork/Marketing Materials/Events/openSUSE Conference/2014-oS-Conference/Logo/Proposal_08.png"
           style="fill:#ffffff"
           transform="matrix(0.125,0,0,-0.125,-267.62813,658.53543)"
           id="g20832">
          <g
             style="fill:#ffffff"
             id="g20834"
             clip-path="url(#clipPath3288)">
            <path
               inkscape:connector-curvature="0"
               d="m 4646.2,577.793 c -29.6,20.703 -59.21,41.395 -88.82,62.098 -90.66,-7.657 -181.31,-20.039 -271.98,-45.594 -28.55,-28.555 -57.12,-57.121 -85.68,-85.676 27.51,-13.691 55.03,-30.035 82.54,-51.101 88.5,22.761 180.85,33.945 276.69,34.589 29.09,28.567 58.17,57.118 87.25,85.684"
               style="fill:#ffffff;fill-opacity:1;fill-rule:nonzero;stroke:none"
               id="path20836" />
          </g>
        </g>
        <g
           inkscape:export-ydpi="300"
           inkscape:export-xdpi="300"
           inkscape:export-filename="/home/Carlos/git_repo/artwork/Marketing Materials/Events/openSUSE Conference/2014-oS-Conference/Logo/Proposal_08.png"
           style="fill:#73ba25"
           transform="matrix(0.125,0,0,-0.125,-267.62813,658.53543)"
           id="g20838">
          <g
             style="fill:#73ba25"
             id="g20840"
             clip-path="url(#clipPath3326)">
            <path
               inkscape:connector-curvature="0"
               d="m 4030.1,1745.54 c 52.72,-113.56 109,-158.41 136.93,-253.41 31.11,-105.8 -89.85,-133.88 -116.47,-31.49 -24.88,95.7 -1.07,169.5 -20.46,284.9"
               style="fill:#73ba25;fill-opacity:1;fill-rule:nonzero;stroke:none"
               id="path20842" />
          </g>
        </g>
        <path
           inkscape:export-ydpi="300"
           inkscape:export-xdpi="300"
           inkscape:export-filename="/home/Carlos/git_repo/artwork/Marketing Materials/Events/openSUSE Conference/2014-oS-Conference/Logo/Proposal_08.png"
           style="fill:#0093dd;fill-rule:evenodd"
           inkscape:connector-curvature="0"
           class="fil2"
           d="m 368.54791,488.88523 -0.0446,0.0255 -18.53555,-15.33336 -18.6451,15.07011 0.93308,11.97319 2.37991,30.29245 c 9.97024,-0.79702 20.06521,-0.77908 30.19412,0.10596 l 3.71811,-42.1341 z"
           id="path20848" />
        <path
           inkscape:export-ydpi="300"
           inkscape:export-xdpi="300"
           inkscape:export-filename="/home/Carlos/git_repo/artwork/Marketing Materials/Events/openSUSE Conference/2014-oS-Conference/Logo/Proposal_08.png"
           style="fill:#ffffff;fill-rule:evenodd;stroke:#000000;stroke-width:0.3681477"
           inkscape:connector-curvature="0"
           class="fil1 str0"
           d="m 277.22033,516.78629 c -0.42051,2.74298 -1.49083,5.42285 -3.25124,7.80074 -5.79243,7.82431 -16.90031,9.48181 -24.72464,3.68933 -6.89495,-5.10443 -9.00075,-14.33651 -5.43784,-21.81276 -0.75666,6.15384 1.72497,12.5403 7.04675,16.4801 7.8624,5.82063 19.02324,4.15679 24.84518,-3.70732 0.58165,-0.7857 1.08733,-1.60629 1.52181,-2.45009 z"
           id="path20850" />
        <g
           inkscape:export-ydpi="300"
           inkscape:export-xdpi="300"
           inkscape:export-filename="/home/Carlos/git_repo/artwork/Marketing Materials/Events/openSUSE Conference/2014-oS-Conference/Logo/Proposal_08.png"
           id="g20852"
           transform="matrix(2.9101477,1.6801744,-1.6801744,2.9101477,2260.7081,-1613.6428)">
          <polygon
             id="polygon20854"
             class="fil4"
             points="14353,20715 16618,22684 19459,21714 19590,21670 19564,21805 18991,24751 21251,26726 21355,26817 21224,26863 18387,27840 17806,30784 17779,30920 17675,30829 15410,28860 12570,29830 12439,29875 12465,29739 13038,26793 10778,24818 10673,24727 10804,24682 13642,23704 14223,20760 14249,20624 "
             style="fill:#000000;fill-rule:nonzero"
             transform="matrix(9.5000609e-4,0,0,9.5000609e-4,-167.59599,795.4606)" />
          <polygon
             id="polygon20856"
             class="fil5"
             points="20969,26693 18858,24848 16200,25759 "
             style="fill:#f7db17;fill-rule:nonzero"
             transform="matrix(9.5000609e-4,0,0,9.5000609e-4,-167.59599,795.4606)" />
          <polygon
             id="polygon20858"
             class="fil5"
             points="15847,25690 13729,23844 11078,24757 "
             style="fill:#f7db17;fill-rule:nonzero"
             transform="matrix(9.5000609e-4,0,0,9.5000609e-4,-167.59599,795.4606)" />
          <polygon
             id="polygon20860"
             class="fil5"
             points="11059,24851 13171,26696 15829,25785 "
             style="fill:#f7db17;fill-rule:nonzero"
             transform="matrix(9.5000609e-4,0,0,9.5000609e-4,-167.59599,795.4606)" />
          <polygon
             id="polygon20862"
             class="fil5"
             points="16181,25854 18300,27700 20951,26787 "
             style="fill:#f7db17;fill-rule:nonzero"
             transform="matrix(9.5000609e-4,0,0,9.5000609e-4,-167.59599,795.4606)" />
          <polygon
             id="polygon20864"
             class="fil5"
             points="19289,21942 16636,22847 16096,25605 "
             style="fill:#f7db17;fill-rule:nonzero"
             transform="matrix(9.5000609e-4,0,0,9.5000609e-4,-167.59599,795.4606)" />
          <polygon
             id="polygon20866"
             class="fil5"
             points="15861,25876 13202,26787 12667,29540 "
             style="fill:#f7db17;fill-rule:nonzero"
             transform="matrix(9.5000609e-4,0,0,9.5000609e-4,-167.59599,795.4606)" />
          <polygon
             id="polygon20868"
             class="fil5"
             points="12739,29603 15393,28697 15933,25939 "
             style="fill:#f7db17;fill-rule:nonzero"
             transform="matrix(9.5000609e-4,0,0,9.5000609e-4,-167.59599,795.4606)" />
          <polygon
             id="polygon20870"
             class="fil5"
             points="16168,25668 18827,24757 19362,22004 "
             style="fill:#f7db17;fill-rule:nonzero"
             transform="matrix(9.5000609e-4,0,0,9.5000609e-4,-167.59599,795.4606)" />
          <polygon
             id="polygon20872"
             class="fil5"
             points="14334,21020 13792,23771 15911,25618 "
             style="fill:#f7db17;fill-rule:nonzero"
             transform="matrix(9.5000609e-4,0,0,9.5000609e-4,-167.59599,795.4606)" />
          <polygon
             id="polygon20874"
             class="fil5"
             points="16027,25957 15487,28715 17603,30555 "
             style="fill:#f7db17;fill-rule:nonzero"
             transform="matrix(9.5000609e-4,0,0,9.5000609e-4,-167.59599,795.4606)" />
          <polygon
             id="polygon20876"
             class="fil5"
             points="17694,30524 18237,27773 16118,25926 "
             style="fill:#f7db17;fill-rule:nonzero"
             transform="matrix(9.5000609e-4,0,0,9.5000609e-4,-167.59599,795.4606)" />
          <polygon
             id="polygon20878"
             class="fil5"
             points="16002,25587 16541,22829 14425,20989 "
             style="fill:#f7db17;fill-rule:nonzero"
             transform="matrix(9.5000609e-4,0,0,9.5000609e-4,-167.59599,795.4606)" />
        </g>
      </g>
      <text
         sodipodi:linespacing="125%"
         id="text20880"
         y="1021.9958"
         x="996.14081"
         style="font-size:102.73039246px;font-style:normal;font-weight:normal;line-height:125%;letter-spacing:0px;word-spacing:0px;fill:#000000;fill-opacity:1;stroke:none;font-family:Sans"
         xml:space="preserve"
         transform="scale(0.94822259,1.0546047)"><tspan
           style="font-style:normal;font-variant:normal;font-weight:bold;font-stretch:normal;font-family:FifthLeg;-inkscape-font-specification:FifthLeg Bold"
           y="1021.9958"
           x="996.14081"
           id="tspan20882"
           sodipodi:role="line">Dubrovinik - Croatia</tspan></text>
    </g>
  </g>
</svg>
