<?xml version="1.0" encoding="UTF-8" standalone="no"?>
<!-- Created with Inkscape (http://www.inkscape.org/) -->

<svg
   xmlns:dc="http://purl.org/dc/elements/1.1/"
   xmlns:cc="http://creativecommons.org/ns#"
   xmlns:rdf="http://www.w3.org/1999/02/22-rdf-syntax-ns#"
   xmlns:svg="http://www.w3.org/2000/svg"
   xmlns="http://www.w3.org/2000/svg"
   xmlns:sodipodi="http://sodipodi.sourceforge.net/DTD/sodipodi-0.dtd"
   xmlns:inkscape="http://www.inkscape.org/namespaces/inkscape"
   width="210mm"
   height="297mm"
   id="svg2"
   version="1.1"
   inkscape:version="0.48.4 r9939"
   sodipodi:docname="Proposal_17.svg">
  <defs
     id="defs4">
    <clipPath
       clipPathUnits="userSpaceOnUse"
       id="clipPath9502">
      <path
         style="fill:#73ba25;stroke:none"
         d="m 564.88232,413.8125 c -2.74011,15.81579 -8.33633,27.42813 -18.28125,39.375 -8.74621,10.50685 -33.25602,24.53925 -39.8125,28.1875 l 0,-67.5625 z"
         id="path9504"
         inkscape:connector-curvature="0"
         sodipodi:nodetypes="csccc" />
    </clipPath>
  </defs>
  <sodipodi:namedview
     id="base"
     pagecolor="#ffffff"
     bordercolor="#666666"
     borderopacity="1.0"
     inkscape:pageopacity="0.0"
     inkscape:pageshadow="2"
     inkscape:zoom="1.1652942"
     inkscape:cx="410.75342"
     inkscape:cy="589.13999"
     inkscape:document-units="px"
     inkscape:current-layer="g8181"
     showgrid="false"
     showguides="true"
     inkscape:guide-bbox="true"
     inkscape:window-width="1280"
     inkscape:window-height="734"
     inkscape:window-x="0"
     inkscape:window-y="27"
     inkscape:window-maximized="1" />
  <metadata
     id="metadata7">
    <rdf:RDF>
      <cc:Work
         rdf:about="">
        <dc:format>image/svg+xml</dc:format>
        <dc:type
           rdf:resource="http://purl.org/dc/dcmitype/StillImage" />
        <dc:title></dc:title>
      </cc:Work>
    </rdf:RDF>
  </metadata>
  <g
     inkscape:label="Camada 1"
     inkscape:groupmode="layer"
     id="layer1">
    <g
       id="g9601"
       inkscape:export-filename="/home/Carlos/git_repo/artwork/Marketing Materials/Events/openSUSE Conference/2014-oS-Conference/Logo/Proposal_16.png"
       inkscape:export-xdpi="300"
       inkscape:export-ydpi="300">
      <g
         id="g8187"
         transform="matrix(0.90482465,0,0,0.90482465,54.54866,-10.256395)">
        <text
           sodipodi:linespacing="79.000002%"
           id="text8189"
           y="454.53046"
           x="453.55411"
           style="font-size:14.99464893px;font-style:normal;font-weight:normal;line-height:79.00000215%;letter-spacing:0px;word-spacing:0px;fill:#ffffff;fill-opacity:1;stroke:none;font-family:Sans"
           xml:space="preserve"><tspan
             style="font-size:37.65724564px;font-style:normal;font-variant:normal;font-weight:bold;font-stretch:normal;text-align:start;line-height:79.00000215%;text-anchor:start;fill:#ffffff;font-family:FifthLeg;-inkscape-font-specification:FifthLeg Bold"
             id="tspan8191"
             y="454.53046"
             x="453.55411"
             sodipodi:role="line" /></text>
      </g>
      <g
         inkscape:export-ydpi="300"
         inkscape:export-xdpi="300"
         inkscape:export-filename="/home/Carlos/git_repo/artwork/Marketing Materials/Events/openSUSE Conference/2014-oS-Conference/Logo/Proposal_16.png"
         id="g9571">
        <g
           id="g8181"
           transform="matrix(0.8050877,0,0,0.8050877,87.006124,47.819366)">
          <text
             sodipodi:linespacing="79.000002%"
             id="text19187"
             y="583.03558"
             x="469.46533"
             style="font-size:12.67487812px;font-style:normal;font-weight:normal;line-height:79.00000215%;letter-spacing:0px;word-spacing:0px;fill:#73ba25;fill-opacity:1;stroke:none;font-family:Sans"
             xml:space="preserve"><tspan
               style="font-size:31.8314209px;font-style:normal;font-variant:normal;font-weight:bold;font-stretch:normal;text-align:start;line-height:79.00000215%;text-anchor:start;fill:#73ba25;font-family:FifthLeg;-inkscape-font-specification:FifthLeg Bold"
               y="583.03558"
               x="469.46533"
               sodipodi:role="line"
               id="tspan9506">oSC2014</tspan></text>
          <text
             xml:space="preserve"
             style="font-size:6.19283056px;font-style:normal;font-weight:normal;line-height:79.00000215%;letter-spacing:0px;word-spacing:0px;fill:#73ba25;fill-opacity:1;stroke:none;font-family:Sans"
             x="523.84387"
             y="598.09595"
             id="text9702"
             sodipodi:linespacing="79.000002%"><tspan
               sodipodi:role="line"
               x="523.84387"
               y="598.09595"
               style="font-size:15.55254364px;font-style:normal;font-variant:normal;font-weight:bold;font-stretch:normal;text-align:center;line-height:79.00000215%;text-anchor:middle;fill:#73ba25;font-family:FifthLeg;-inkscape-font-specification:FifthLeg Bold"
               id="tspan9708">DUBROVNIK</tspan></text>
          <text
             sodipodi:linespacing="79.000002%"
             id="text9714"
             y="612.48578"
             x="523.80231"
             style="font-size:6.19283056px;font-style:normal;font-weight:normal;line-height:79.00000215%;letter-spacing:0px;word-spacing:0px;fill:#73ba25;fill-opacity:1;stroke:none;font-family:Sans"
             xml:space="preserve"><tspan
               id="tspan9716"
               style="font-size:15.55254364px;font-style:normal;font-variant:normal;font-weight:bold;font-stretch:normal;text-align:center;line-height:79.00000215%;text-anchor:middle;fill:#73ba25;font-family:FifthLeg;-inkscape-font-specification:FifthLeg Bold"
               y="612.48578"
               x="523.80231"
               sodipodi:role="line">CROATIA</tspan></text>
        </g>
        <g
           id="g9681">
          <path
             sodipodi:nodetypes="czczzczzczc"
             inkscape:connector-curvature="0"
             id="path3010"
             d="m 505.06249,325.05235 c 0,0 17.24547,12.07071 27.7792,16.16244 10.53373,4.09173 35.18791,8.24585 35.18791,8.24585 0,0 10.80339,45.2443 7.66823,63.9991 -3.13516,18.7548 -9.38003,30.41871 -20.63279,44.42767 -11.25276,14.00896 -47.98224,37.37564 -47.98224,37.37564 0,0 -37.04561,-19.99346 -48.9924,-34.34518 -11.94679,-14.35172 -18.55244,-28.28845 -21.71828,-47.47717 -3.16584,-19.18872 6.56599,-63.98006 6.56599,-63.98006 0,0 21.23875,-1.70481 31.81981,-5.72047 10.58106,-4.01566 30.30457,-18.68782 30.30457,-18.68782 z"
             style="fill:#ffffff;stroke:#73ba25;stroke-width:2;stroke-linecap:butt;stroke-linejoin:miter;stroke-miterlimit:4;stroke-opacity:1;stroke-dasharray:none" />
          <path
             clip-path="url(#clipPath9502)"
             inkscape:connector-curvature="0"
             id="polygon19159"
             d="m 506.94366,413.64239 0,13.66071 12.45027,0 0,-13.66071 -12.45027,0 z m 12.45027,13.66071 0,13.6607 12.45026,0 0,-13.6607 -12.45026,0 z m 12.45026,0 12.45027,0 0,-13.66071 -12.45027,0 0,13.66071 z m 12.45027,0 0,13.6607 12.45026,0 0,-13.6607 -12.45026,0 z m 12.45026,0 12.41568,0 0,-13.66071 -12.41568,0 0,13.66071 z m 0,13.6607 0,13.6953 12.20818,0 c 0.40802,-4.54443 0.13318,-9.13743 0.2075,-13.6953 l -12.41568,0 z m 0,13.6953 -12.45026,0 0,13.62612 -12.45027,0 0,-13.62612 -12.45026,0 0,13.62612 -12.45027,0 c 3.9e-4,3.33437 -0.001,6.66139 0,9.99479 -0.0328,1.92114 -0.3364,4.43137 2.24797,3.66592 l 10.2023,0 0,-13.62613 12.45026,0 0,13.62613 12.45027,0 0,-13.62613 12.45026,0 0,13.62613 12.20818,0 c 0.40802,-4.54443 0.13318,-9.13743 0.2075,-13.6953 l -12.41568,0 0,-13.59153 z m -37.35079,0 0,-13.6953 -12.45027,0 c 3.9e-4,3.33437 -0.001,6.69598 0,10.02938 -0.0328,1.92114 -0.3364,4.43137 2.24797,3.66592 l 10.2023,0 z m 12.45026,0 12.45027,0 0,-13.6953 -12.45027,0 0,13.6953 z"
             style="fill:#ff0000;fill-rule:evenodd" />
          <path
             style="fill:#2caae1;stroke:none"
             d="m 447.125,413.8125 c 2.74011,15.81579 8.33633,27.42813 18.28125,39.375 8.74621,10.50685 33.25602,24.53925 39.8125,28.1875 l 0,-67.5625 z"
             id="path3029"
             inkscape:connector-curvature="0"
             sodipodi:nodetypes="csccc" />
          <g
             id="g8965">
            <path
               style="fill:#73ba25;stroke:none"
               d="m 505.21875,338 c 0,0 -17.9738,11.17085 -26.94512,14.57559 -8.97132,3.40474 -27,4.84375 -27,4.84375 0,0 -6.74518,38.16802 -4.39863,54.79941 l 58.34375,0 z"
               id="path3016"
               inkscape:connector-curvature="0"
               sodipodi:nodetypes="czcccc" />
            <path
               sodipodi:nodetypes="czcccc"
               inkscape:connector-curvature="0"
               id="path3031"
               d="m 506.78857,338 c 0,0 17.9738,11.17085 26.94512,14.57559 8.97132,3.40474 27,4.84375 27,4.84375 0,0 6.74518,38.16802 4.39863,54.79941 l -58.34375,0 z"
               style="fill:#2caae1;stroke:none" />
          </g>
          <path
             id="path19185"
             style="fill:#ffffff;fill-opacity:1;fill-rule:evenodd;stroke:none"
             d="m 506.2292,429.68088 0.15032,-0.0701 -0.0423,-0.19302 c -0.0932,-0.13066 -0.23154,-0.22679 -1.01691,-1.96607 -0.68923,-1.54144 -2.4929,-5.79966 -1.07517,-8.73778 0.5482,-1.14465 1.57706,-2.3557 2.51288,-2.9628 3.82705,-2.52056 9.52163,-3.75841 16.08989,-0.0459 3.39052,1.91961 5.02069,2.76629 5.81188,3.1228 l 0.26953,0.11551 0.30888,0.0894 c 0.2298,0.0399 9.30909,0.84278 9.30909,0.84278 l 0.14419,-0.0977 -0.0575,-0.1711 c -0.0666,-0.0396 -7.21799,-4.60792 -8.21157,-10.1211 -0.79609,-4.39056 2.63753,-5.19833 7.38423,-6.30896 1.55207,-0.36297 3.31939,-0.77357 5.08835,-1.36186 4.91099,-1.72055 9.8686,-4.50875 12.61345,-7.09493 1.77602,-1.67322 2.90237,-2.76007 3.47036,-3.82648 0.21393,-0.3581 0.22618,-0.82634 0.23293,-1.31723 l 0.008,-0.33145 c 0.0134,-0.3984 -0.0585,-1.22123 -0.11715,-1.66065 -0.0237,-0.19519 -0.0781,-0.39642 -0.24094,-0.44692 l -0.42008,0.24765 c -1.12034,1.36546 -4.1085,4.27482 -7.42879,5.53495 -4.11086,1.56695 -13.98015,0.29736 -15.01173,0.15703 l -0.11781,-0.0667 c -0.3884,-0.42382 -2.7006,-2.94037 -3.18754,-3.47053 7.4237,1.8095 13.18875,2.21689 17.12707,1.19182 4.38193,-1.1396 6.86499,-4.64081 7.92675,-6.1364 0.21037,-0.28713 0.36678,-0.51369 0.44057,-0.57726 l 0.0371,-0.17962 c -0.76787,-1.4074 -5.57045,-7.83567 -7.86541,-8.97021 -0.63583,-0.31036 -1.1733,-0.63955 -2.08194,-0.81134 -7.33519,-1.36884 -22.51093,1.64465 -23.22076,1.78825 l -0.10414,0.072 -0.007,0.1154 c 0,0 1.01249,3.00991 1.12315,3.34526 -1.649,0.036 -13.58326,0.40401 -23.74044,3.63983 -8.61035,2.74047 -20.37179,6.48854 -33.18136,22.4449 l -0.37539,0.47674 c -5.99838,7.57674 -9.20621,15.41853 -9.52579,23.31938 -0.0986,2.4825 0.47632,7.80364 3.28713,11.9993 1.2272,1.83797 2.88519,3.52577 4.79734,4.8867 4.31275,3.07635 10.06944,4.0855 15.38617,2.70191 7.50503,-1.94896 11.84717,-7.18736 11.62117,-14.00548 -0.16218,-4.70259 -3.7226,-10.41396 -10.01576,-11.72772 -5.11995,-1.07352 -9.43061,1.131 -11.43006,3.79713 -1.73541,2.32237 -2.18801,5.12313 -1.24238,7.68894 1.67654,4.5439 6.48056,5.56343 9.30585,4.5577 0.82305,-0.29421 1.59593,-0.72968 2.4192,-1.36587 0.29257,-0.21949 0.5626,-0.45365 0.8295,-0.78945 l 0.0823,-0.10202 0.0495,-0.0643 -0.0226,0.0195 c 0.49179,-0.66463 0.62583,-1.51872 0.35225,-2.28436 -0.0748,-0.21007 -0.18206,-0.41157 -0.31699,-0.60414 -0.74387,-1.03337 -2.13559,-1.32576 -3.24257,-0.68584 l -0.14826,0.0881 -0.1938,0.14205 -0.27724,0.21683 c -0.59187,0.39453 -1.07956,0.58039 -1.17886,0.62106 -0.33727,0.10343 -2.14307,0.19135 -2.78046,-1.59183 l -0.004,-0.0147 c -0.22978,-0.65432 -0.13014,-1.2077 -0.0754,-1.50841 0.21788,-0.97374 1.32585,-2.24942 3.25908,-2.75322 2.5307,-0.66839 4.7505,-0.0403 6.77324,1.91606 1.88072,1.81992 2.56615,4.63747 1.73983,7.18074 -0.82132,2.52162 -3.24093,4.33109 -7.00001,5.23066 -3.79053,0.90272 -7.62402,-0.0928 -10.51826,-2.74367 -2.83108,-2.58824 -4.27912,-6.34252 -3.77682,-9.80423 1.20285,-8.28981 8.20134,-10.71013 12.26176,-11.41617 6.01186,-1.04536 12.77025,1.64945 17.21043,6.85958 0.70833,0.82995 1.16758,1.52506 1.57836,2.16016 l 0.61844,0.95564 7.5114,0.83774 0.10754,0.0238 8e-5,-1.4e-4 z m 33.2965,-50.26397 c -0.80573,1.55031 -0.94984,3.32444 -0.41917,4.99187 1.10154,3.43405 4.78896,5.34144 8.22826,4.25488 1.67051,-0.5449 3.0323,-1.67927 3.83209,-3.23532 0.80093,-1.55267 0.94642,-3.32323 0.4204,-4.98812 -1.09927,-3.43904 -4.78776,-5.35023 -8.23281,-4.25703 -1.66324,0.54223 -3.02929,1.67728 -3.8289,3.23371 m 7.3816,7.31834 c -2.44565,0.77676 -5.06969,-0.58356 -5.85339,-3.03054 -0.37739,-1.18554 -0.26774,-2.44511 0.29721,-3.54814 0.5684,-1.10437 1.53514,-1.91861 2.72173,-2.29299 2.44909,-0.77801 5.07099,0.57462 5.85549,3.02562 0.37599,1.18192 0.2736,2.43883 -0.29324,3.54646 -0.57373,1.10177 -1.5404,1.9166 -2.72777,2.29965 l 5e-5,-5e-5 z m -0.4036,-4.33551 c 1.07483,-0.38407 1.73913,-1.27759 1.48401,-1.99136 -0.25623,-0.7173 -1.33688,-0.98783 -2.41159,-0.60364 -1.07517,0.38437 -1.73583,1.27736 -1.4795,1.99451 0.25493,0.71405 1.33194,0.98485 2.40708,0.60049"
             inkscape:connector-curvature="0" />
          <path
             style="fill:none;stroke:#73ba25;stroke-width:0.75;stroke-linecap:butt;stroke-linejoin:miter;stroke-miterlimit:4;stroke-opacity:1;stroke-dasharray:none"
             d="m 505.1501,332.97481 c 0,0 15.64009,10.94705 25.19324,14.65788 9.55314,3.71083 31.91226,7.47825 31.91226,7.47825 0,0 9.7977,41.0325 6.9544,58.04142 -2.84331,17.0089 -8.50685,27.58703 -18.71209,40.29189 -10.20524,12.70486 -43.51557,33.89634 -43.51557,33.89634 0,0 -33.59703,-18.13227 -44.43169,-31.14799 -10.83466,-13.01572 -16.82539,-25.65507 -19.69652,-43.05752 -2.87113,-17.40243 5.95476,-58.02414 5.95476,-58.02414 0,0 19.26164,-1.54611 28.8577,-5.18796 9.59606,-3.64184 27.48351,-16.94817 27.48351,-16.94817 z"
             id="path8980"
             inkscape:connector-curvature="0"
             sodipodi:nodetypes="czczzczzczc" />
          <text
             xml:space="preserve"
             style="font-size:5.61856365px;font-style:normal;font-weight:normal;line-height:110.00000238%;letter-spacing:0px;word-spacing:0px;fill:#ffffff;fill-opacity:1;stroke:none;font-family:Sans"
             x="507.34387"
             y="369.60587"
             id="text8984"
             sodipodi:linespacing="110%"><tspan
               sodipodi:role="line"
               x="507.34387"
               y="369.60587"
               style="font-size:14.11034298px;font-style:normal;font-variant:normal;font-weight:bold;font-stretch:normal;text-align:start;line-height:110.00000238%;text-anchor:start;fill:#ffffff;font-family:Bitstream Vera Serif;-inkscape-font-specification:Bitstream Vera Serif Bold"
               id="tspan8994" /></text>
          <g
             style="stroke:#73ba25;stroke-width:1.8006624;stroke-miterlimit:4;stroke-dasharray:none"
             transform="matrix(0.55535119,0,0,0.55535119,423.9671,175.68936)"
             id="g9531">
            <path
               inkscape:connector-curvature="0"
               id="path9517"
               style="color:#000000;fill:#ffffff;stroke:#73ba25;stroke-width:1.8006624;stroke-miterlimit:4;stroke-dasharray:none;marker:none;visibility:visible;display:inline;overflow:visible;enable-background:accumulate"
               d="m 285.99964,537.08396 -46.00772,7.75084 -21.45108,3.82178 -2.03805,-17.24808 -2.03804,-17.24807 67.4588,-11.57261 -17.11613,20.686 z m -261.603306,6.54446 46.007724,-7.75084 21.451081,-3.82178 2.038045,17.24808 2.038045,17.24807 -67.458808,11.57261 17.116138,-20.686 z" />
            <path
               style="color:#000000;fill:#ffffff;stroke:#73ba25;stroke-width:1.8006624;stroke-miterlimit:4;stroke-dasharray:none;marker:none;visibility:visible;display:inline;overflow:visible;enable-background:accumulate"
               d="m 64.14197,522.95103 171.15841,-24.32838 4.07776,28.68848 -171.158401,24.32838 z"
               id="rect9510"
               inkscape:connector-curvature="0" />
            <path
               inkscape:connector-curvature="0"
               id="path9522"
               d="m 68.06754,551.66639 27.435386,14.5859"
               style="fill:none;stroke:#73ba25;stroke-width:1.8006624;stroke-linecap:butt;stroke-linejoin:miter;stroke-miterlimit:4;stroke-opacity:1;stroke-dasharray:none" />
            <path
               style="fill:none;stroke:#73ba25;stroke-width:1.8006624;stroke-linecap:butt;stroke-linejoin:miter;stroke-miterlimit:4;stroke-opacity:1;stroke-dasharray:none"
               d="m 218.84533,548.22846 20.31395,-21.02123"
               id="path9526"
               inkscape:connector-curvature="0"
               sodipodi:nodetypes="cc" />
          </g>
          <text
             transform="matrix(0.98635644,-0.16462375,0.16462375,0.98635644,0,0)"
             sodipodi:linespacing="125%"
             id="text9537"
             y="547.07739"
             x="380.15192"
             style="font-size:6.6995101px;font-style:normal;font-weight:normal;line-height:125%;letter-spacing:0px;word-spacing:0px;fill:#73ba25;fill-opacity:1;stroke:none;font-family:Sans"
             xml:space="preserve"><tspan
               style="font-style:normal;font-variant:normal;font-weight:bold;font-stretch:normal;fill:#73ba25;font-family:Bitstream Vera Serif;-inkscape-font-specification:Bitstream Vera Serif Bold"
               y="547.07739"
               x="380.15192"
               id="tspan9539"
               sodipodi:role="line">THE GEEKO KINGDOM</tspan></text>
        </g>
      </g>
    </g>
  </g>
</svg>
