<?xml version="1.0" encoding="UTF-8" standalone="no"?>
<!-- Created with Inkscape (http://www.inkscape.org/) -->

<svg
   xmlns:dc="http://purl.org/dc/elements/1.1/"
   xmlns:cc="http://creativecommons.org/ns#"
   xmlns:rdf="http://www.w3.org/1999/02/22-rdf-syntax-ns#"
   xmlns:svg="http://www.w3.org/2000/svg"
   xmlns="http://www.w3.org/2000/svg"
   xmlns:sodipodi="http://sodipodi.sourceforge.net/DTD/sodipodi-0.dtd"
   xmlns:inkscape="http://www.inkscape.org/namespaces/inkscape"
   width="210mm"
   height="297mm"
   id="svg2"
   version="1.1"
   inkscape:version="0.48.4 r9939"
   sodipodi:docname="Proposal_20.svg">
  <defs
     id="defs4">
    <clipPath
       clipPathUnits="userSpaceOnUse"
       id="clipPath9502">
      <path
         style="fill:#73ba25;stroke:none"
         d="m 564.88232,413.8125 c -2.74011,15.81579 -8.33633,27.42813 -18.28125,39.375 -8.74621,10.50685 -33.25602,24.53925 -39.8125,28.1875 l 0,-67.5625 z"
         id="path9504"
         inkscape:connector-curvature="0"
         sodipodi:nodetypes="csccc" />
    </clipPath>
  </defs>
  <sodipodi:namedview
     id="base"
     pagecolor="#ffffff"
     bordercolor="#666666"
     borderopacity="1.0"
     inkscape:pageopacity="0.0"
     inkscape:pageshadow="2"
     inkscape:zoom="0.49427946"
     inkscape:cx="613.7997"
     inkscape:cy="502.04448"
     inkscape:document-units="px"
     inkscape:current-layer="layer1"
     showgrid="false"
     showguides="true"
     inkscape:guide-bbox="true"
     inkscape:window-width="1280"
     inkscape:window-height="734"
     inkscape:window-x="0"
     inkscape:window-y="27"
     inkscape:window-maximized="1" />
  <metadata
     id="metadata7">
    <rdf:RDF>
      <cc:Work
         rdf:about="">
        <dc:format>image/svg+xml</dc:format>
        <dc:type
           rdf:resource="http://purl.org/dc/dcmitype/StillImage" />
        <dc:title />
      </cc:Work>
    </rdf:RDF>
  </metadata>
  <g
     inkscape:label="Camada 1"
     inkscape:groupmode="layer"
     id="layer1">
    <path
       sodipodi:nodetypes="czczzczzczc"
       inkscape:connector-curvature="0"
       id="path14518"
       d="m 366.63091,108.60999 c 0,0 70.22449,49.15258 113.1184,65.81432 42.89392,16.66175 143.28706,33.57755 143.28706,33.57755 0,0 43.99199,184.23722 31.22545,260.60777 -12.76654,76.37056 -38.19599,123.86663 -84.01783,180.91186 -45.82185,57.04524 -195.38626,152.19562 -195.38626,152.19562 0,0 -150.85172,-81.41444 -199.49969,-139.85542 C 126.71007,603.42072 99.811508,546.6696 86.920038,468.5321 74.028568,390.3946 113.6571,208.00186 113.6571,208.00186 c 0,0 86.48533,-6.94208 129.57198,-23.29406 43.08664,-16.35199 123.40183,-76.09781 123.40183,-76.09781 z"
       style="fill:#ffffff;stroke:#73ba25;stroke-width:8.14410782;stroke-linecap:butt;stroke-linejoin:miter;stroke-miterlimit:4;stroke-opacity:1;stroke-dasharray:none"
       inkscape:export-filename="/home/Carlos/git_repo/artwork/Marketing Materials/Events/openSUSE Conference/2014-oS-Conference/Logo/Proposal_19.png"
       inkscape:export-xdpi="300"
       inkscape:export-ydpi="300" />
    <g
       id="g8581">
      <path
         inkscape:export-ydpi="300"
         inkscape:export-xdpi="300"
         inkscape:export-filename="/home/Carlos/git_repo/artwork/Marketing Materials/Events/openSUSE Conference/2014-oS-Conference/Logo/Proposal_19.png"
         style="fill:#2caae1;stroke:none"
         d="m 130.70634,470.04609 c 11.15788,64.40275 33.94598,111.68882 74.44223,160.33712 35.61504,42.78446 135.4203,99.92514 162.11864,114.78101 l 0,-275.11813 z"
         id="path3029"
         inkscape:connector-curvature="0"
         sodipodi:nodetypes="csccc" />
      <path
         inkscape:export-ydpi="300"
         inkscape:export-xdpi="300"
         inkscape:export-filename="/home/Carlos/git_repo/artwork/Marketing Materials/Events/openSUSE Conference/2014-oS-Conference/Logo/Proposal_19.png"
         id="path14260"
         style="fill:none;stroke:#ffffff;stroke-width:1.01801348;stroke-linecap:butt;stroke-linejoin:miter;stroke-miterlimit:4;stroke-opacity:1;stroke-dasharray:none"
         d="m 327.95312,749.45161 c 13.65645,0 27.04801,4.69915 40.7045,4.69915 m -40.7045,-12.81667 c 13.65645,0 27.04801,4.69911 40.7045,4.69911 m -40.7045,-4.69911 c 13.65645,0 27.04801,4.69911 40.7045,4.69911 m -40.7045,-12.81667 c 13.65645,0 27.04801,4.69911 40.7045,4.69911 m -40.7045,-12.81666 c 13.65645,0 27.04801,4.6991 40.7045,4.6991 m -122.11361,-12.8167 c 28.19641,8.28952 55.43075,0.31884 81.40911,0 13.65645,0 27.04801,4.69915 40.7045,4.69915 M 246.54401,708.86386 c 13.65645,0 27.04809,4.69911 40.70458,4.69911 13.6564,0 27.04805,-4.69911 40.70453,-4.69911 13.65645,0 27.04801,4.69911 40.7045,4.69911 M 246.54401,700.7463 c 13.65645,0 27.04809,4.69911 40.70458,4.69911 13.6564,0 27.04805,-4.69911 40.70453,-4.69911 13.65645,0 27.04801,4.69911 40.7045,4.69911 M 246.54401,692.62874 c 13.65645,0 27.04809,4.69911 40.70458,4.69911 13.6564,0 27.04805,-4.69911 40.70453,-4.69911 13.65645,0 27.04801,4.69911 40.7045,4.69911 M 246.54401,684.51119 c 13.65645,0 27.04809,4.69915 40.70458,4.69915 13.6564,0 27.04805,-4.69915 40.70453,-4.69915 13.65645,0 27.04801,4.69915 40.7045,4.69915 M 246.54401,676.39363 c 13.65645,0 27.04809,4.69911 40.70458,4.69911 13.6564,0 27.04805,-4.69911 40.70453,-4.69911 13.65645,0 27.04801,4.69911 40.7045,4.69911 M 246.54401,668.27607 c 13.65645,0 27.04809,4.69911 40.70458,4.69911 13.6564,0 27.04805,-4.69911 40.70453,-4.69911 13.65645,0 27.04801,4.69911 40.7045,4.69911 m -122.11361,-4.69911 c 13.65645,0 27.04809,4.69911 40.70458,4.69911 13.6564,0 27.04805,-4.69911 40.70453,-4.69911 13.65645,0 27.04801,4.69911 40.7045,4.69911 m -162.8181,-8.11752 c 13.65645,0 27.04801,-4.69911 40.70449,-4.69911 13.65645,0 27.04809,4.69911 40.70458,4.69911 13.6564,0 27.04805,-4.69911 40.70453,-4.69911 13.65645,0 27.04801,4.69911 40.7045,4.69911 m -162.8181,-8.11755 c 13.65645,0 27.04801,-4.69915 40.70449,-4.69915 13.65645,0 27.04809,4.69915 40.70458,4.69915 13.6564,0 27.04805,-4.69915 40.70453,-4.69915 13.65645,0 27.04801,4.69915 40.7045,4.69915 m -162.8181,-8.1176 c 13.65645,0 27.04801,-4.69911 40.70449,-4.69911 13.65645,0 27.04809,4.69911 40.70458,4.69911 13.6564,0 27.04805,-4.69911 40.70453,-4.69911 13.65645,0 27.04801,4.69911 40.7045,4.69911 m -162.8181,-8.11752 c 13.65645,0 27.04801,-4.69911 40.70449,-4.69911 13.65645,0 27.04809,4.69911 40.70458,4.69911 13.6564,0 27.04805,-4.69911 40.70453,-4.69911 13.65645,0 27.04801,4.69911 40.7045,4.69911 m -162.8181,-8.11756 c 13.65645,0 27.04801,-4.69911 40.70449,-4.69911 13.65645,0 27.04809,4.69911 40.70458,4.69911 13.6564,0 27.04805,-4.69911 40.70453,-4.69911 13.65645,0 27.04801,4.69911 40.7045,4.69911 m -162.8181,-8.11751 c 13.65645,0 27.04801,-4.6992 40.70449,-4.6992 13.65645,0 27.04809,4.6992 40.70458,4.6992 13.6564,0 27.04805,-4.6992 40.70453,-4.6992 13.65645,0 27.04801,4.6992 40.7045,4.6992 M 165.13499,611.45321 c 13.65644,0 27.04804,4.69911 40.70453,4.69911 13.65645,0 27.04801,-4.69911 40.70449,-4.69911 13.65645,0 27.04809,4.69911 40.70458,4.69911 13.6564,0 27.04805,-4.69911 40.70453,-4.69911 13.65645,0 27.04801,4.69911 40.7045,4.69911 M 165.13499,603.33569 c 13.65644,0 27.04804,4.69911 40.70453,4.69911 13.65645,0 27.04801,-4.69911 40.70449,-4.69911 13.65645,0 27.04809,4.69911 40.70458,4.69911 13.6564,0 27.04805,-4.69911 40.70453,-4.69911 13.65645,0 27.04801,4.69911 40.7045,4.69911 M 165.13499,595.21813 c 13.65644,0 27.04804,4.69911 40.70453,4.69911 13.65645,0 27.04801,-4.69911 40.70449,-4.69911 13.65645,0 27.04809,4.69911 40.70458,4.69911 13.6564,0 27.04805,-4.69911 40.70453,-4.69911 13.65645,0 27.04801,4.69911 40.7045,4.69911 m -203.52263,-4.69911 c 13.65644,0 27.04804,4.69911 40.70453,4.69911 13.65645,0 27.04801,-4.69911 40.70449,-4.69911 13.65645,0 27.04809,4.69911 40.70458,4.69911 13.6564,0 27.04805,-4.69911 40.70453,-4.69911 13.65645,0 27.04801,4.69911 40.7045,4.69911 M 165.13499,587.10058 c 13.65644,0 27.04804,4.69915 40.70453,4.69915 13.65645,0 27.04801,-4.69915 40.70449,-4.69915 13.65645,0 27.04809,4.69915 40.70458,4.69915 13.6564,0 27.04805,-4.69915 40.70453,-4.69915 13.65645,0 27.04801,4.69915 40.7045,4.69915 M 165.13499,578.98302 c 13.65644,0 27.04804,4.69911 40.70453,4.69911 13.65645,0 27.04801,-4.69911 40.70449,-4.69911 13.65645,0 27.04809,4.69911 40.70458,4.69911 13.6564,0 27.04805,-4.69911 40.70453,-4.69911 13.65645,0 27.04801,4.69911 40.7045,4.69911 M 165.13499,570.86546 c 13.65644,0 27.04804,4.69911 40.70453,4.69911 13.65645,0 27.04801,-4.69911 40.70449,-4.69911 13.65645,0 27.04809,4.69911 40.70458,4.69911 13.6564,0 27.04805,-4.69911 40.70453,-4.69911 13.65645,0 27.04801,4.69911 40.7045,4.69911 m -244.22717,-8.11756 c 0,0 27.04805,-4.69911 40.70454,-4.69911 13.65644,0 27.04804,4.69911 40.70453,4.69911 13.65645,0 27.04801,-4.69911 40.70449,-4.69911 13.65645,0 27.04809,4.69911 40.70458,4.69911 13.6564,0 27.04805,-4.69911 40.70453,-4.69911 13.65645,0 27.04801,4.69911 40.7045,4.69911 m -244.22717,-8.11752 c 0,0 27.04805,-4.69915 40.70454,-4.69915 13.65644,0 27.04804,4.69915 40.70453,4.69915 13.65645,0 27.04801,-4.69915 40.70449,-4.69915 13.65645,0 27.04809,4.69915 40.70458,4.69915 13.6564,0 27.04805,-4.69915 40.70453,-4.69915 13.65645,0 27.04801,4.69915 40.7045,4.69915 M 124.43045,551.2119 c 0,0 27.04805,-4.69911 40.70454,-4.69911 13.65644,0 27.04804,4.69911 40.70453,4.69911 13.65645,0 27.04801,-4.69911 40.70449,-4.69911 13.65645,0 27.04809,4.69911 40.70458,4.69911 13.6564,0 27.04805,-4.69911 40.70453,-4.69911 13.65645,0 27.04801,4.69911 40.7045,4.69911 m -244.22717,-8.11752 c 0,0 27.04805,-4.69911 40.70454,-4.69911 13.65644,0 27.04804,4.69911 40.70453,4.69911 13.65645,0 27.04801,-4.69911 40.70449,-4.69911 13.65645,0 27.04809,4.69911 40.70458,4.69911 13.6564,0 27.04805,-4.69911 40.70453,-4.69911 13.65645,0 27.04801,4.69911 40.7045,4.69911 m -244.22717,-8.11756 c 0,0 27.04805,-4.69911 40.70454,-4.69911 13.65644,0 27.04804,4.69911 40.70453,4.69911 13.65645,0 27.04801,-4.69911 40.70449,-4.69911 13.65645,0 27.04809,4.69911 40.70458,4.69911 13.6564,0 27.04805,-4.69911 40.70453,-4.69911 13.65645,0 27.04801,4.69911 40.7045,4.69911 m -244.22717,-8.11756 c 0,0 27.04805,-4.69915 40.70454,-4.69915 13.65644,0 27.04804,4.69915 40.70453,4.69915 13.65645,0 27.04801,-4.69915 40.70449,-4.69915 13.65645,0 27.04809,4.69915 40.70458,4.69915 13.6564,0 27.04805,-4.69915 40.70453,-4.69915 13.65645,0 27.04801,4.69915 40.7045,4.69915 m -244.22717,-8.11759 c 0,0 27.04805,-4.69911 40.70454,-4.69911 13.65644,0 27.04804,4.69911 40.70453,4.69911 13.65645,0 27.04801,-4.69911 40.70449,-4.69911 13.65645,0 27.04809,4.69911 40.70458,4.69911 13.6564,0 27.04805,-4.69911 40.70453,-4.69911 13.65645,0 27.04801,4.69911 40.7045,4.69911 m -244.22717,-8.11752 c 0,0 27.04805,-4.69911 40.70454,-4.69911 13.65644,0 27.04804,4.69911 40.70453,4.69911 13.65645,0 27.04801,-4.69911 40.70449,-4.69911 13.65645,0 27.04809,4.69911 40.70458,4.69911 13.6564,0 27.04805,-4.69911 40.70453,-4.69911 13.65645,0 27.04801,4.69911 40.7045,4.69911 m -244.22717,-8.11756 c 0,0 27.04805,-4.69911 40.70454,-4.69911 13.65644,0 27.04804,4.69911 40.70453,4.69911 13.65645,0 27.04801,-4.69911 40.70449,-4.69911 13.65645,0 27.04809,4.69911 40.70458,4.69911 13.6564,0 27.04805,-4.69911 40.70453,-4.69911 13.65645,0 27.04801,4.69911 40.7045,4.69911 m -244.22717,-8.11752 c 0,0 27.04805,-4.69915 40.70454,-4.69915 13.65644,0 27.04804,4.69915 40.70453,4.69915 13.65645,0 27.04801,-4.69915 40.70449,-4.69915 13.65645,0 27.04809,4.69915 40.70458,4.69915 13.6564,0 27.04805,-4.69915 40.70453,-4.69915 13.65645,0 27.04801,4.69915 40.7045,4.69915 m -244.22717,-8.11759 c 0,0 27.04805,-4.69915 40.70454,-4.69915 13.65644,0 27.04804,4.69915 40.70453,4.69915 13.65645,0 27.04801,-4.69915 40.70449,-4.69915 13.65645,0 27.04809,4.69915 40.70458,4.69915 13.6564,0 27.04805,-4.69915 40.70453,-4.69915 13.65645,0 27.04801,4.69915 40.7045,4.69915 m -244.22717,-8.11752 c 0,0 27.04805,-4.69915 40.70454,-4.69915 13.65644,0 27.04804,4.69915 40.70453,4.69915 13.65645,0 27.04801,-4.69915 40.70449,-4.69915 13.65645,0 27.04809,4.69915 40.70458,4.69915 13.6564,0 27.04805,-4.69915 40.70453,-4.69915 13.65645,0 27.04801,4.69915 40.7045,4.69915 M 124.43045,470.0364 c 0,0 27.04805,-4.69911 40.70454,-4.69911 13.65644,0 27.04804,4.69911 40.70453,4.69911 13.65645,0 27.04801,-4.69911 40.70449,-4.69911 13.65645,0 27.04809,4.69911 40.70458,4.69911 13.6564,0 27.04805,-4.69911 40.70453,-4.69911 13.65645,0 27.04801,4.69911 40.7045,4.69911 m -244.22717,-8.11752 c 0,0 27.04805,-4.69915 40.70454,-4.69915 13.65644,0 27.04804,4.69915 40.70453,4.69915 13.65645,0 27.04801,-4.69915 40.70449,-4.69915 13.65645,0 27.04809,4.69915 40.70458,4.69915 13.6564,0 27.04805,-4.69915 40.70453,-4.69915 13.65645,0 27.04801,4.69915 40.7045,4.69915"
         inkscape:connector-curvature="0"
         sodipodi:nodetypes="cccccccccccccczzcczzcczzcczzcczzcczzcczzcczzzcczzzcczzzcczzzcczzzcczzzcczzzzcczzzzcczzzzcczzzzcczzzzcczzzzcczzzzcczzzzzcczzzzzcczzzzzcczzzzzcczzzzzcczzzzzcczzzzzcczzzzzcczzzzzcczzzzzcczzzzzcczzzzzcczzzzzcczzzzzc" />
    </g>
    <path
       sodipodi:nodetypes="czcccc"
       inkscape:connector-curvature="0"
       id="path3031"
       d="m 373.65961,161.33352 c 0,0 73.19028,45.4883 109.72197,59.35258 36.5317,13.86429 109.94545,19.72401 109.94545,19.72401 0,0 27.46674,155.42223 17.91146,223.14615 l -237.57888,0 z"
       style="fill:#2caae1;stroke:none"
       inkscape:export-filename="/home/Carlos/git_repo/artwork/Marketing Materials/Events/openSUSE Conference/2014-oS-Conference/Logo/Proposal_19.png"
       inkscape:export-xdpi="300"
       inkscape:export-ydpi="300" />
    <path
       id="path13731"
       style="fill:none;stroke:#ffffff;stroke-width:1.01801348;stroke-linecap:butt;stroke-linejoin:miter;stroke-miterlimit:4;stroke-opacity:1;stroke-dasharray:none"
       d="m 371.64105,462.08368 c 0,0 27.04804,-4.69915 40.70453,-4.69915 13.65645,0 27.04805,4.69915 40.70454,4.69915 13.65644,0 27.048,-4.69915 40.70449,-4.69915 13.65645,0 27.04809,4.69915 40.70458,4.69915 13.6564,0 27.04804,-4.69915 40.70453,-4.69915 13.65645,0 27.04801,4.69915 40.70449,4.69915 m -244.22716,-8.11756 c 0,0 27.04804,-4.69911 40.70453,-4.69911 13.65645,0 27.04805,4.69911 40.70454,4.69911 13.65644,0 27.048,-4.69911 40.70449,-4.69911 13.65645,0 27.04809,4.69911 40.70458,4.69911 13.6564,0 27.04804,-4.69911 40.70453,-4.69911 13.65645,0 27.04801,4.69911 40.70449,4.69911 m -244.22716,0 c 0,0 27.04804,-4.69911 40.70453,-4.69911 13.65645,0 27.04805,4.69911 40.70454,4.69911 13.65644,0 27.048,-4.69911 40.70449,-4.69911 13.65645,0 27.04809,4.69911 40.70458,4.69911 13.6564,0 27.04804,-4.69911 40.70453,-4.69911 13.65645,0 27.04801,4.69911 40.70449,4.69911 m -244.22716,-8.11756 c 0,0 27.04804,-4.69911 40.70453,-4.69911 13.65645,0 27.04805,4.69911 40.70454,4.69911 13.65644,0 27.048,-4.69911 40.70449,-4.69911 13.65645,0 27.04809,4.69911 40.70458,4.69911 13.6564,0 27.04804,-4.69911 40.70453,-4.69911 13.65645,0 27.04801,4.69911 40.70449,4.69911 m -244.22716,-8.11755 c 0,0 27.04804,-4.69911 40.70453,-4.69911 13.65645,0 27.04805,4.69911 40.70454,4.69911 13.65644,0 27.048,-4.69911 40.70449,-4.69911 13.65645,0 27.04809,4.69911 40.70458,4.69911 13.6564,0 27.04804,-4.69911 40.70453,-4.69911 13.65645,0 27.04801,4.69911 40.70449,4.69911 m -244.22716,-8.11756 c 0,0 27.04804,-4.69915 40.70453,-4.69915 13.65645,0 27.04805,4.69915 40.70454,4.69915 13.65644,0 27.048,-4.69915 40.70449,-4.69915 13.65645,0 27.04809,4.69915 40.70458,4.69915 13.6564,0 27.04804,-4.69915 40.70453,-4.69915 13.65645,0 27.04801,4.69915 40.70449,4.69915 m -244.22716,-8.11756 c 0,0 27.04804,-4.69911 40.70453,-4.69911 13.65645,0 27.04805,4.69911 40.70454,4.69911 13.65644,0 27.048,-4.69911 40.70449,-4.69911 13.65645,0 27.04809,4.69911 40.70458,4.69911 13.6564,0 27.04804,-4.69911 40.70453,-4.69911 13.65645,0 27.04801,4.69911 40.70449,4.69911 m -244.22716,-8.11756 c 0,0 27.04804,-4.69911 40.70453,-4.69911 13.65645,0 27.04805,4.69911 40.70454,4.69911 13.65644,0 27.048,-4.69911 40.70449,-4.69911 13.65645,0 27.04809,4.69911 40.70458,4.69911 13.6564,0 27.04804,-4.69911 40.70453,-4.69911 13.65645,0 27.04801,4.69911 40.70449,4.69911 m -244.22716,-8.11755 c 0,0 27.04804,-4.69911 40.70453,-4.69911 13.65645,0 27.04805,4.69911 40.70454,4.69911 13.65644,0 27.048,-4.69911 40.70449,-4.69911 13.65645,0 27.04809,4.69911 40.70458,4.69911 13.6564,0 27.04804,-4.69911 40.70453,-4.69911 13.65645,0 27.04801,4.69911 40.70449,4.69911 m -244.22716,-8.11752 c 0,0 27.04804,-4.69915 40.70453,-4.69915 13.65645,0 27.04805,4.69915 40.70454,4.69915 13.65644,0 27.048,-4.69915 40.70449,-4.69915 13.65645,0 27.04809,4.69915 40.70458,4.69915 13.6564,0 27.04804,-4.69915 40.70453,-4.69915 13.65645,0 27.04801,4.69915 40.70449,4.69915 m -244.22716,-8.1176 c 0,0 27.04804,-4.69911 40.70453,-4.69911 13.65645,0 27.04805,4.69911 40.70454,4.69911 13.65644,0 27.048,-4.69911 40.70449,-4.69911 13.65645,0 27.04809,4.69911 40.70458,4.69911 13.6564,0 27.04804,-4.69911 40.70453,-4.69911 13.65645,0 27.04801,4.69911 40.70449,4.69911 M 371.64105,380.9081 c 0,0 27.04804,-4.69911 40.70453,-4.69911 13.65645,0 27.04805,4.69911 40.70454,4.69911 13.65644,0 27.048,-4.69911 40.70449,-4.69911 13.65645,0 27.04809,4.69911 40.70458,4.69911 13.6564,0 27.04804,-4.69911 40.70453,-4.69911 13.65645,0 27.04801,4.69911 40.70449,4.69911 m -244.22716,0 c 0,0 27.04804,-4.69911 40.70453,-4.69911 13.65645,0 27.04805,4.69911 40.70454,4.69911 13.65644,0 27.048,-4.69911 40.70449,-4.69911 13.65645,0 27.04809,4.69911 40.70458,4.69911 13.6564,0 27.04804,-4.69911 40.70453,-4.69911 13.65645,0 27.04801,4.69911 40.70449,4.69911 m -244.22716,-8.11751 c 0,0 27.04804,-4.69911 40.70453,-4.69911 13.65645,0 27.04805,4.69911 40.70454,4.69911 13.65644,0 27.048,-4.69911 40.70449,-4.69911 13.65645,0 27.04809,4.69911 40.70458,4.69911 13.6564,0 27.04804,-4.69911 40.70453,-4.69911 13.65645,0 27.04801,4.69911 40.70449,4.69911 m -244.22716,-8.11756 c 0,0 27.04804,-4.69915 40.70453,-4.69915 13.65645,0 27.04805,4.69915 40.70454,4.69915 13.65644,0 27.048,-4.69915 40.70449,-4.69915 13.65645,0 27.04809,4.69915 40.70458,4.69915 13.6564,0 27.04804,-4.69915 40.70453,-4.69915 13.65645,0 27.04801,4.69915 40.70449,4.69915 m -244.22716,-8.1176 c 0,0 27.04804,-4.69911 40.70453,-4.69911 13.65645,0 27.04805,4.69911 40.70454,4.69911 13.65644,0 27.048,-4.69911 40.70449,-4.69911 13.65645,0 27.04809,4.69911 40.70458,4.69911 13.6564,0 27.04804,-4.69911 40.70453,-4.69911 13.65645,0 27.04801,4.69911 40.70449,4.69911 m -244.22716,-8.11752 c 0,0 27.04804,-4.69911 40.70453,-4.69911 13.65645,0 27.04805,4.69911 40.70454,4.69911 13.65644,0 27.048,-4.69911 40.70449,-4.69911 13.65645,0 27.04809,4.69911 40.70458,4.69911 13.6564,0 27.04804,-4.69911 40.70453,-4.69911 13.65645,0 27.04801,4.69911 40.70449,4.69911 m -244.22716,-8.11756 c 0,0 27.04804,-4.6991 40.70453,-4.6991 13.65645,0 27.04805,4.6991 40.70454,4.6991 13.65644,0 27.048,-4.6991 40.70449,-4.6991 13.65645,0 27.04809,4.6991 40.70458,4.6991 13.6564,0 27.04804,-4.6991 40.70453,-4.6991 13.65645,0 27.04801,4.6991 40.70449,4.6991 m -244.22716,-8.11751 c 0,0 27.04804,-4.69919 40.70453,-4.69919 13.65645,0 27.04805,4.69919 40.70454,4.69919 13.65644,0 27.048,-4.69919 40.70449,-4.69919 13.65645,0 27.04809,4.69919 40.70458,4.69919 13.6564,0 27.04804,-4.69919 40.70453,-4.69919 13.65645,0 27.04801,4.69919 40.70449,4.69919 m -244.22716,-8.1176 c 0,0 27.04804,-4.69911 40.70453,-4.69911 13.65645,0 27.04805,4.69911 40.70454,4.69911 13.65644,0 27.048,-4.69911 40.70449,-4.69911 13.65645,0 27.04809,4.69911 40.70458,4.69911 13.6564,0 27.04804,-4.69911 40.70453,-4.69911 13.65645,0 27.04801,4.69911 40.70449,4.69911 m -244.22716,-8.11752 c 0,0 27.04804,-4.69911 40.70453,-4.69911 13.65645,0 27.04805,4.69911 40.70454,4.69911 13.65644,0 27.048,-4.69911 40.70449,-4.69911 13.65645,0 27.04809,4.69911 40.70458,4.69911 13.6564,0 27.04804,-4.69911 40.70453,-4.69911 13.65645,0 27.04801,4.69911 40.70449,4.69911 m -244.22716,-8.11756 c 0,0 27.04804,-4.69911 40.70453,-4.69911 13.65645,0 27.04805,4.69911 40.70454,4.69911 13.65644,0 27.048,-4.69911 40.70449,-4.69911 13.65645,0 27.04809,4.69911 40.70458,4.69911 13.6564,0 27.04804,-4.69911 40.70453,-4.69911 13.65645,0 27.04801,4.69911 40.70449,4.69911 m -244.22716,0 c 0,0 27.04804,-4.69911 40.70453,-4.69911 13.65645,0 27.04805,4.69911 40.70454,4.69911 13.65644,0 27.048,-4.69911 40.70449,-4.69911 13.65645,0 27.04809,4.69911 40.70458,4.69911 13.6564,0 27.04804,-4.69911 40.70453,-4.69911 13.65645,0 27.04801,4.69911 40.70449,4.69911 m -244.22716,-8.11751 c 0,0 27.04804,-4.69915 40.70453,-4.69915 13.65645,0 27.04805,4.69915 40.70454,4.69915 13.65644,0 27.048,-4.69915 40.70449,-4.69915 13.65645,0 27.04809,4.69915 40.70458,4.69915 13.6564,0 27.04804,-4.69915 40.70453,-4.69915 13.65645,0 27.04801,4.69915 40.70449,4.69915 m -244.22716,-8.1176 c 0,0 27.04804,-4.69911 40.70453,-4.69911 13.65645,0 27.04805,4.69911 40.70454,4.69911 13.65644,0 27.048,-4.69911 40.70449,-4.69911 13.65645,0 27.04809,4.69911 40.70458,4.69911 13.6564,0 27.04804,-4.69911 40.70453,-4.69911 13.65645,0 27.04801,4.69911 40.70449,4.69911 m -244.22716,-8.11756 c 0,0 27.04804,-4.69911 40.70453,-4.69911 13.65645,0 27.04805,4.69911 40.70454,4.69911 13.65644,0 27.048,-4.69911 40.70449,-4.69911 13.65645,0 27.04809,4.69911 40.70458,4.69911 13.6564,0 27.04804,-4.69911 40.70453,-4.69911 13.65645,0 27.04801,4.69911 40.70449,4.69911 m -244.22716,-8.11756 c 0,0 27.04804,-4.69911 40.70453,-4.69911 13.65645,0 27.04805,4.69911 40.70454,4.69911 13.65644,0 27.048,-4.69911 40.70449,-4.69911 13.65645,0 27.04809,4.69911 40.70458,4.69911 13.6564,0 27.04804,-4.69911 40.70453,-4.69911 13.65645,0 27.04801,4.69911 40.70449,4.69911 m -244.22716,-8.11751 c 0,0 27.04804,-4.69915 40.70453,-4.69915 13.65645,0 27.04805,4.69915 40.70454,4.69915 13.65644,0 27.048,-4.69915 40.70449,-4.69915 13.65645,0 27.04809,4.69915 40.70458,4.69915 13.6564,0 27.04804,-4.69915 40.70453,-4.69915 13.65645,0 27.04801,4.69915 40.70449,4.69915 m -244.22716,-8.1176 c 0,0 27.04804,-4.69911 40.70453,-4.69911 13.65645,0 27.04805,4.69911 40.70454,4.69911 13.65644,0 27.048,-4.69911 40.70449,-4.69911 13.65645,0 27.04809,4.69911 40.70458,4.69911 13.6564,0 27.04804,-4.69911 40.70453,-4.69911 13.65645,0 27.04801,4.69911 40.70449,4.69911 M 371.64105,251.0273 c 0,0 27.04804,-4.69911 40.70453,-4.69911 13.65645,0 27.04805,4.69911 40.70454,4.69911 13.65644,0 27.048,-4.69911 40.70449,-4.69911 13.65645,0 27.04809,4.69911 40.70458,4.69911 13.6564,0 27.04804,-4.69911 40.70453,-4.69911 13.65645,0 27.04801,4.69911 40.70449,4.69911 m -244.22716,-8.11756 c 0,0 27.04804,-4.69911 40.70453,-4.69911 13.65645,0 27.04805,4.69911 40.70454,4.69911 13.65644,0 27.048,-4.69911 40.70449,-4.69911 13.65645,0 27.04809,4.69911 40.70458,4.69911 13.6564,0 27.04804,-4.69911 40.70453,-4.69911 13.65645,0 27.04801,4.69911 40.70449,4.69911 m -244.22716,-8.11755 c 0,0 27.04804,-4.69915 40.70453,-4.69915 13.65645,0 27.04805,4.69915 40.70454,4.69915 13.65644,0 27.048,-4.69915 40.70449,-4.69915 13.65645,0 27.04809,4.69915 40.70458,4.69915 13.6564,0 27.04804,-4.69915 40.70453,-4.69915 13.65645,0 27.04801,4.69915 40.70449,4.69915 m -244.22716,-8.1176 c 0,0 27.04804,-4.69911 40.70453,-4.69911 13.65645,0 27.04805,4.69911 40.70454,4.69911 13.65644,0 27.048,-4.69911 40.70449,-4.69911 13.65645,0 27.04809,4.69911 40.70458,4.69911 13.6564,0 27.04804,-4.69911 40.70453,-4.69911 13.65645,0 27.04801,4.69911 40.70449,4.69911 m -244.22716,-8.11752 c 0,0 27.04804,-4.69911 40.70453,-4.69911 13.65645,0 27.04805,4.69911 40.70454,4.69911 13.65644,0 27.048,-4.69911 40.70449,-4.69911 13.65645,0 27.04809,4.69911 40.70458,4.69911 13.6564,0 27.04804,-4.69911 40.70453,-4.69911 13.65645,0 27.04801,4.69911 40.70449,4.69911 m -244.22716,-8.11756 c 0,0 27.04804,-4.69911 40.70453,-4.69911 13.65645,0 27.04805,4.69911 40.70454,4.69911 13.65644,0 27.048,-4.69911 40.70449,-4.69911 M 371.64105,202.322 c 0,0 27.04804,-4.69915 40.70453,-4.69915 13.65645,0 27.04805,4.69915 40.70454,4.69915 13.65644,0 27.048,-4.69915 40.70449,-4.69915 M 371.64105,194.2044 c 0,0 27.04804,-4.69915 40.70453,-4.69915 13.65645,0 27.04805,4.69915 40.70454,4.69915 13.65644,0 27.048,-4.69915 40.70449,-4.69915 m -122.11356,-3.41837 c 0,0 27.04804,-4.69915 40.70453,-4.69915 13.65645,0 27.04805,4.69915 40.70454,4.69915 m -81.40907,-8.11756 c 0,0 27.04804,-4.69911 40.70453,-4.69911 m -40.70453,-3.4184 c 0,0 27.04804,-4.69915 40.70453,-4.69915"
       inkscape:connector-curvature="0"
       sodipodi:nodetypes="czzzzzcczzzzzcczzzzzcczzzzzcczzzzzcczzzzzcczzzzzcczzzzzcczzzzzcczzzzzcczzzzzcczzzzzcczzzzzcczzzzzcczzzzzcczzzzzcczzzzzcczzzzzcczzzzzcczzzzzcczzzzzcczzzzzcczzzzzcczzzzzcczzzzzcczzzzzcczzzzzcczzzzzcczzzzzcczzzzzcczzzzzcczzzzzcczzzzzcczzzzzcczzcczzcczzcczccccc"
       inkscape:export-filename="/home/Carlos/git_repo/artwork/Marketing Materials/Events/openSUSE Conference/2014-oS-Conference/Logo/Proposal_19.png"
       inkscape:export-xdpi="300"
       inkscape:export-ydpi="300" />
    <path
       style="fill:none;stroke:#73ba25;stroke-width:8.14410782;stroke-linecap:butt;stroke-linejoin:miter;stroke-miterlimit:4;stroke-opacity:1;stroke-dasharray:none"
       d="m 366.63091,108.60999 c 0,0 70.22449,49.15258 113.1184,65.81432 42.89392,16.66175 143.28706,33.57755 143.28706,33.57755 0,0 43.99199,184.23722 31.22545,260.60777 -12.76654,76.37056 -38.19599,123.86663 -84.01783,180.91186 -45.82185,57.04524 -195.38626,152.19562 -195.38626,152.19562 0,0 -150.85172,-81.41444 -199.49969,-139.85542 C 126.71007,603.42072 99.811508,546.6696 86.920038,468.5321 74.028568,390.3946 113.6571,208.00186 113.6571,208.00186 c 0,0 86.48533,-6.94208 129.57198,-23.29406 43.08664,-16.35199 123.40183,-76.09781 123.40183,-76.09781 z"
       id="path3010"
       inkscape:connector-curvature="0"
       sodipodi:nodetypes="czczzczzczc"
       inkscape:export-filename="/home/Carlos/git_repo/artwork/Marketing Materials/Events/openSUSE Conference/2014-oS-Conference/Logo/Proposal_19.png"
       inkscape:export-xdpi="300"
       inkscape:export-ydpi="300" />
    <path
       sodipodi:nodetypes="czczzczzczc"
       inkscape:connector-curvature="0"
       id="path8980"
       d="m 366.98767,140.87067 c 0,0 63.68728,44.57698 102.58822,59.68768 38.9009,15.1107 129.94844,30.45183 129.94844,30.45183 0,0 39.89676,167.08655 28.31869,236.34779 -11.57811,69.26115 -34.64035,112.33587 -76.19663,164.07074 -41.55629,51.73487 -177.19774,138.02772 -177.19774,138.02772 0,0 -136.80891,-73.83558 -180.92823,-126.83629 -44.11932,-53.00071 -68.5139,-104.46883 -80.20529,-175.33254 -11.6914,-70.86363 24.2481,-236.27742 24.2481,-236.27742 0,0 78.43444,-6.29584 117.51011,-21.12565 39.07567,-14.82977 111.91433,-69.01386 111.91433,-69.01386 z"
       style="fill:none;stroke:#73ba25;stroke-width:3.05404043;stroke-linecap:butt;stroke-linejoin:miter;stroke-miterlimit:4;stroke-opacity:1;stroke-dasharray:none"
       inkscape:export-filename="/home/Carlos/git_repo/artwork/Marketing Materials/Events/openSUSE Conference/2014-oS-Conference/Logo/Proposal_19.png"
       inkscape:export-xdpi="300"
       inkscape:export-ydpi="300" />
    <text
       sodipodi:linespacing="79.000002%"
       id="text8189"
       y="401.01398"
       x="464.93561"
       style="font-size:13.56752777px;font-style:normal;font-weight:normal;line-height:79.00000215%;letter-spacing:0px;word-spacing:0px;fill:#ffffff;fill-opacity:1;stroke:none;font-family:Sans"
       xml:space="preserve"
       inkscape:export-filename="/home/Carlos/git_repo/artwork/Marketing Materials/Events/openSUSE Conference/2014-oS-Conference/Logo/Proposal_19.png"
       inkscape:export-xdpi="300"
       inkscape:export-ydpi="300"><tspan
         style="font-size:34.07320404px;font-style:normal;font-variant:normal;font-weight:bold;font-stretch:normal;text-align:start;line-height:79.00000215%;text-anchor:start;fill:#ffffff;font-family:FifthLeg;-inkscape-font-specification:FifthLeg Bold"
         id="tspan8191"
         y="401.01398"
         x="464.93561"
         sodipodi:role="line" /></text>
    <path
       style="fill:#73ba25;stroke:none"
       d="m 367.26721,161.33352 c 0,0 -73.19028,45.4883 -109.72197,59.35258 -36.5317,13.86429 -109.94545,19.72401 -109.94545,19.72401 0,0 -27.46674,155.42223 -17.91146,223.14615 l 237.57888,0 z"
       id="path3016"
       inkscape:connector-curvature="0"
       sodipodi:nodetypes="czcccc"
       inkscape:export-filename="/home/Carlos/git_repo/artwork/Marketing Materials/Events/openSUSE Conference/2014-oS-Conference/Logo/Proposal_19.png"
       inkscape:export-xdpi="300"
       inkscape:export-ydpi="300" />
    <path
       transform="matrix(4.0720538,0,0,4.0720538,-1693.0585,-1215.0206)"
       inkscape:export-ydpi="300"
       inkscape:export-xdpi="300"
       inkscape:export-filename="/home/Carlos/git_repo/artwork/Marketing Materials/Events/openSUSE Conference/2014-oS-Conference/Logo/Proposal_19.png"
       clip-path="url(#clipPath9502)"
       inkscape:connector-curvature="0"
       id="path8547"
       d="m 506.94366,413.64239 0,13.66071 12.45027,0 0,-13.66071 -12.45027,0 z m 12.45027,13.66071 0,13.6607 12.45026,0 0,-13.6607 -12.45026,0 z m 12.45026,0 12.45027,0 0,-13.66071 -12.45027,0 0,13.66071 z m 12.45027,0 0,13.6607 12.45026,0 0,-13.6607 -12.45026,0 z m 12.45026,0 12.41568,0 0,-13.66071 -12.41568,0 0,13.66071 z m 0,13.6607 0,13.6953 12.20818,0 c 0.40802,-4.54443 0.13318,-9.13743 0.2075,-13.6953 l -12.41568,0 z m 0,13.6953 -12.45026,0 0,13.62612 -12.45027,0 0,-13.62612 -12.45026,0 0,13.62612 -12.45027,0 c 3.9e-4,3.33437 -0.001,6.66139 0,9.99479 -0.0328,1.92114 -0.3364,4.43137 2.24797,3.66592 l 10.2023,0 0,-13.62613 12.45026,0 0,13.62613 12.45027,0 0,-13.62613 12.45026,0 0,13.62613 12.20818,0 c 0.40802,-4.54443 0.13318,-9.13743 0.2075,-13.6953 l -12.41568,0 0,-13.59153 z m -37.35079,0 0,-13.6953 -12.45027,0 c 3.9e-4,3.33437 -0.001,6.69598 0,10.02938 -0.0328,1.92114 -0.3364,4.43137 2.24797,3.66592 l 10.2023,0 z m 12.45026,0 12.45027,0 0,-13.6953 -12.45027,0 0,13.6953 z"
       style="fill:#ff0000;fill-rule:evenodd" />
    <g
       id="g6404"
       transform="matrix(4.0720538,0,0,4.0720538,-1690.0107,-1215.0206)">
      <g
         inkscape:export-ydpi="300"
         inkscape:export-xdpi="300"
         inkscape:export-filename="/home/Carlos/git_repo/artwork/Marketing Materials/Events/openSUSE Conference/2014-oS-Conference/Logo/Proposal_19.png"
         style="stroke:#73ba25;stroke-width:1.8006624;stroke-miterlimit:4;stroke-dasharray:none"
         transform="matrix(0.55535119,0,0,0.55535119,423.9671,175.68936)"
         id="g9531">
        <path
           inkscape:connector-curvature="0"
           id="path9517"
           style="color:#000000;fill:#ffffff;stroke:#73ba25;stroke-width:1.8006624;stroke-miterlimit:4;stroke-dasharray:none;marker:none;visibility:visible;display:inline;overflow:visible;enable-background:accumulate"
           d="m 285.99964,537.08396 -46.00772,7.75084 -21.45108,3.82178 -2.03805,-17.24808 -2.03804,-17.24807 67.4588,-11.57261 -17.11613,20.686 z m -261.603306,6.54446 46.007724,-7.75084 21.451081,-3.82178 2.038045,17.24808 2.038045,17.24807 -67.458808,11.57261 17.116138,-20.686 z" />
        <path
           style="color:#000000;fill:#ffffff;stroke:#73ba25;stroke-width:1.8006624;stroke-miterlimit:4;stroke-dasharray:none;marker:none;visibility:visible;display:inline;overflow:visible;enable-background:accumulate"
           d="m 64.14197,522.95103 171.15841,-24.32838 4.07776,28.68848 -171.158401,24.32838 z"
           id="rect9510"
           inkscape:connector-curvature="0" />
        <path
           inkscape:connector-curvature="0"
           id="path9522"
           d="m 68.06754,551.66639 27.435386,14.5859"
           style="fill:none;stroke:#73ba25;stroke-width:1.8006624;stroke-linecap:butt;stroke-linejoin:miter;stroke-miterlimit:4;stroke-opacity:1;stroke-dasharray:none" />
        <path
           style="fill:none;stroke:#73ba25;stroke-width:1.8006624;stroke-linecap:butt;stroke-linejoin:miter;stroke-miterlimit:4;stroke-opacity:1;stroke-dasharray:none"
           d="m 218.84533,548.22846 20.31395,-21.02123"
           id="path9526"
           inkscape:connector-curvature="0"
           sodipodi:nodetypes="cc" />
      </g>
      <text
         inkscape:export-ydpi="300"
         inkscape:export-xdpi="300"
         inkscape:export-filename="/home/Carlos/git_repo/artwork/Marketing Materials/Events/openSUSE Conference/2014-oS-Conference/Logo/Proposal_19.png"
         transform="matrix(0.988902,-0.14856931,0.14856931,0.988902,0,0)"
         sodipodi:linespacing="125%"
         id="text9537"
         y="537.63098"
         x="388.32669"
         style="font-size:8.46946907px;font-style:normal;font-weight:normal;line-height:125%;letter-spacing:0px;word-spacing:0px;fill:#73ba25;fill-opacity:1;stroke:none;font-family:Sans"
         xml:space="preserve"><tspan
           style="font-style:normal;font-variant:normal;font-weight:bold;font-stretch:normal;fill:#73ba25;font-family:FifthLeg;-inkscape-font-specification:FifthLeg Bold"
           y="537.63098"
           x="388.32669"
           id="tspan9539"
           sodipodi:role="line">openSUSE Conference 14</tspan></text>
      <text
         xml:space="preserve"
         style="font-size:6.02568579px;font-style:normal;font-weight:normal;line-height:125%;letter-spacing:0px;word-spacing:0px;fill:#73ba25;fill-opacity:1;stroke:none;font-family:Sans"
         x="400.55975"
         y="544.69171"
         id="text8593"
         sodipodi:linespacing="125%"
         transform="matrix(0.98842229,-0.15172799,0.15172799,0.98842229,0,0)"
         inkscape:export-filename="/home/Carlos/git_repo/artwork/Marketing Materials/Events/openSUSE Conference/2014-oS-Conference/Logo/Proposal_19.png"
         inkscape:export-xdpi="300"
         inkscape:export-ydpi="300"><tspan
           sodipodi:role="line"
           id="tspan8595"
           x="400.55975"
           y="544.69171"
           style="font-style:normal;font-variant:normal;font-weight:bold;font-stretch:normal;fill:#73ba25;font-family:Bitstream Vera Serif;-inkscape-font-specification:Bitstream Vera Serif Bold">Dubrovnik - Croatia</tspan></text>
    </g>
    <path
       inkscape:connector-curvature="0"
       d="m 373.05397,522.43625 0.56638,-0.22314 -0.10995,-0.71648 c -0.31182,-0.49962 -0.79631,-0.88298 -3.27718,-7.42964 -2.1737,-5.80053 -7.81149,-21.80148 -1.9534,-32.23764 2.26699,-4.06674 6.30905,-8.26749 9.87334,-10.278 14.58498,-8.36037 35.71683,-11.60025 58.92398,3.48416 11.97873,7.79826 17.75543,11.26838 20.57151,12.75331 l 0.96063,0.48431 1.11068,0.39764 c 0.83235,0.19845 33.89415,5.19883 33.89415,5.19883 l 0.55009,-0.32531 -0.17166,-0.63959 c -0.23456,-0.16025 -25.383,-18.51039 -27.76961,-38.92243 -1.91811,-16.25693 10.83735,-18.43517 28.46955,-21.42438 5.76536,-0.97659 12.32961,-2.07898 18.94026,-3.83156 18.37224,-5.18514 37.15749,-14.26891 47.79487,-23.11521 6.88266,-5.72344 11.25358,-9.4473 13.57525,-13.22302 0.86469,-1.26265 1.01579,-2.97428 1.15193,-4.77022 l 0.10643,-1.21167 c 0.13952,-1.45566 0.0628,-4.48478 -0.0519,-6.10704 -0.0417,-0.7202 -0.19646,-1.46921 -0.78075,-1.69109 l -1.59434,0.81143 c -4.41208,4.74537 -16.01369,14.71977 -28.45708,18.58013 -15.4076,4.80439 -51.25603,-2.08444 -55.00138,-2.83241 l -0.4161,-0.27052 c -1.32598,-1.64004 -9.22097,-11.37924 -10.88356,-13.43098 26.77138,8.3106 47.78775,11.11079 62.44061,8.25154 16.30323,-3.17804 26.18978,-15.43414 30.41684,-20.66926 0.83546,-1.00362 1.45958,-1.79771 1.74422,-2.01373 l 0.17621,-0.64933 c -2.49216,-5.32748 -18.6178,-29.95481 -26.76337,-34.62987 -2.2576,-1.28074 -4.15089,-2.60806 -7.43887,-3.44333 -26.54723,-6.67694 -82.7976,0.9124 -85.42922,1.27703 l -0.39767,0.23961 -0.0515,0.42103 c 0,0 3.02402,11.25061 3.35308,12.50362 -6.04598,-0.24253 -49.8271,-1.60383 -87.75234,7.93879 -32.14896,8.07986 -76.06457,19.13382 -126.58881,74.65094 l -1.48273,1.6604 c -23.68303,26.38088 -37.20845,54.36566 -40.17197,83.22225 -0.92413,9.06738 -0.0272,28.68132 9.31226,44.68186 4.07623,7.00831 9.76396,13.56458 16.45642,18.98167 15.0929,12.243 35.94213,17.24468 55.72351,13.38541 27.92221,-5.43259 45.01011,-23.62754 45.7302,-48.6436 0.47356,-17.25539 -11.26657,-38.9759 -34.01097,-45.21468 -18.50316,-5.09282 -34.78712,2.00063 -42.71329,11.30892 -6.88137,8.10949 -9.17439,18.26177 -6.29431,27.87115 5.10733,17.01816 22.46598,21.84168 33.0391,18.8004 3.08039,-0.89043 6.00918,-2.30948 9.16798,-4.45203 1.12103,-0.7373 2.16297,-1.53339 3.21645,-2.70233 l 0.32465,-0.35478 0.1956,-0.22381 -0.0874,0.0663 c 1.95157,-2.32197 2.63626,-5.41879 1.80831,-8.28427 -0.22664,-0.78617 -0.57319,-1.54834 -1.02361,-2.28406 -2.4891,-3.95251 -7.51851,-5.33902 -11.717,-3.2472 l -0.56286,0.28873 -0.74184,0.47602 -1.06435,0.73101 c -2.25672,1.31029 -4.08463,1.88007 -4.45744,2.00648 -1.25836,0.30223 -7.89026,0.21416 -9.81938,-6.45973 l -0.0122,-0.0542 c -0.69269,-2.448 -0.20249,-4.45158 0.0659,-5.54023 1.01876,-3.51588 5.3652,-7.93535 12.55809,-9.34121 9.41795,-1.8729 17.40322,0.9305 24.36554,8.55308 6.47318,7.09056 8.34341,17.56267 4.74044,26.68733 -3.57961,9.04652 -12.84973,15.12281 -26.81783,17.56334 -14.08408,2.44496 -27.89457,-2.07032 -37.89012,-12.43343 -9.77861,-10.11959 -14.22853,-24.19461 -11.60361,-36.7557 6.28591,-30.08032 32.46038,-37.35382 47.48797,-39.01742 22.24991,-2.46293 46.3842,8.93815 61.45941,29.02299 2.4052,3.19966 3.92902,5.84897 5.28888,8.26764 l 2.04763,3.63954 27.31292,4.77233 0.38842,0.11211 3.3e-4,-5.4e-4 z M 506.37881,345.95128 c -3.30211,5.49356 -4.23244,11.95694 -2.66822,18.18263 3.25386,12.82393 16.32247,20.64487 29.16222,17.44697 6.24027,-1.61595 11.48397,-5.46037 14.76564,-10.97639 3.28504,-5.50335 4.21963,-11.95323 2.67156,-18.16862 -3.24445,-12.8417 -16.31609,-20.67676 -29.17837,-17.45592 -6.21312,1.60788 -11.47256,5.4538 -14.75358,10.97123 m 25.36673,28.4717 c -9.13107,2.28909 -18.43024,-3.28747 -20.74453,-12.425 -1.11261,-4.42649 -0.42525,-9.01362 1.89408,-12.92408 2.33184,-3.9146 6.05647,-6.67658 10.48615,-7.77805 9.144,-2.29274 18.43711,3.25504 20.7533,12.4075 1.10842,4.41296 0.44823,8.99195 -1.87904,12.91883 -2.3509,3.90389 -6.07527,6.66801 -10.50982,7.80105 l 1.8e-4,-1.9e-4 z m -0.49369,-15.96616 c 4.02262,-1.16234 6.6578,-4.28319 5.88571,-6.95463 -0.77538,-2.68452 -4.67083,-3.92034 -8.69311,-2.75758 -4.0239,1.16341 -6.64571,4.28307 -5.86988,6.96718 0.77134,2.67234 4.65338,3.90837 8.67728,2.74503"
       style="fill:#ffffff;fill-opacity:1;fill-rule:evenodd;stroke:none"
       id="path19185"
       inkscape:export-filename="/home/Carlos/git_repo/artwork/Marketing Materials/Events/openSUSE Conference/2014-oS-Conference/Logo/Proposal_19.png"
       inkscape:export-xdpi="300"
       inkscape:export-ydpi="300" />
  </g>
</svg>
