<?xml version="1.0" encoding="UTF-8" standalone="no"?>
<!-- Created with Inkscape (http://www.inkscape.org/) -->

<svg
   xmlns:dc="http://purl.org/dc/elements/1.1/"
   xmlns:cc="http://creativecommons.org/ns#"
   xmlns:rdf="http://www.w3.org/1999/02/22-rdf-syntax-ns#"
   xmlns:svg="http://www.w3.org/2000/svg"
   xmlns="http://www.w3.org/2000/svg"
   xmlns:sodipodi="http://sodipodi.sourceforge.net/DTD/sodipodi-0.dtd"
   xmlns:inkscape="http://www.inkscape.org/namespaces/inkscape"
   width="210mm"
   height="297mm"
   id="svg11474"
   version="1.1"
   inkscape:version="0.48.4 r9939"
   sodipodi:docname="Novo documento 9">
  <defs
     id="defs11476" />
  <sodipodi:namedview
     id="base"
     pagecolor="#ffffff"
     bordercolor="#666666"
     borderopacity="1.0"
     inkscape:pageopacity="0.0"
     inkscape:pageshadow="2"
     inkscape:zoom="0.35"
     inkscape:cx="350"
     inkscape:cy="520"
     inkscape:document-units="px"
     inkscape:current-layer="layer1"
     showgrid="false"
     inkscape:window-width="596"
     inkscape:window-height="477"
     inkscape:window-x="0"
     inkscape:window-y="66"
     inkscape:window-maximized="0" />
  <metadata
     id="metadata11479">
    <rdf:RDF>
      <cc:Work
         rdf:about="">
        <dc:format>image/svg+xml</dc:format>
        <dc:type
           rdf:resource="http://purl.org/dc/dcmitype/StillImage" />
        <dc:title></dc:title>
      </cc:Work>
    </rdf:RDF>
  </metadata>
  <g
     inkscape:label="Camada 1"
     inkscape:groupmode="layer"
     id="layer1">
    <g
       id="g19151"
       transform="translate(262.37475,-450.161)">
      <path
         style="fill:#ff0000;fill-rule:evenodd"
         inkscape:connector-curvature="0"
         class="fil0"
         d="m 87.62715,1042.1014 c 29.94894,0 54.45245,-24.5035 54.45245,-54.45247 V 922.94496 H 33.170901 v 64.70397 c 0,29.94897 24.503509,54.45247 54.452449,54.45247 z"
         id="path19153" />
      <path
         style="fill:#ffffff;fill-rule:evenodd"
         inkscape:connector-curvature="0"
         class="fil1"
         d="m 87.62715,1041.2274 c 29.37799,0 53.41409,-24.0361 53.41409,-53.41412 V 923.98997 H 34.213057 v 63.82331 c 0,29.37802 24.036103,53.41412 53.414093,53.41412 z"
         id="path19155" />
      <path
         style="fill:#ffffff;fill-rule:evenodd"
         inkscape:connector-curvature="0"
         class="fil1"
         d="m 87.58345,1039.0519 c 28.25983,0 51.38108,-23.1213 51.38108,-51.38112 v -61.6668 H 36.20237 v 61.6668 c 0,28.25982 23.12125,51.38112 51.38108,51.38112 z"
         id="path19157" />
      <polygon
         style="fill:#ff0000;fill-rule:evenodd"
         points="15119,61242 15119,85014 36757,85014 36757,61242 "
         class="fil0"
         id="polygon19159"
         transform="matrix(9.5000609e-4,0,0,9.5000609e-4,21.839228,867.82276)" />
      <polygon
         style="fill:#ff0000;fill-rule:evenodd"
         points="58395,108790 58395,85014 36757,85014 36757,108790 "
         class="fil0"
         id="polygon19161"
         transform="matrix(9.5000609e-4,0,0,9.5000609e-4,21.839228,867.82276)" />
      <path
         style="fill:#ff0000;fill-rule:evenodd"
         inkscape:connector-curvature="0"
         class="fil0"
         d="m 36.20332,987.69453 c 9.5e-4,2.05106 0.126351,4.07362 0.363852,6.06294 H 56.7586 V 971.17392 H 36.20237 v 16.52061 z"
         id="path19163" />
      <polygon
         style="fill:#ff0000;fill-rule:evenodd"
         points="58395,108790 58395,132560 80033,132560 80033,108790 "
         class="fil0"
         id="polygon19165"
         transform="matrix(9.5000609e-4,0,0,9.5000609e-4,21.839228,867.82276)" />
      <polygon
         style="fill:#ff0000;fill-rule:evenodd"
         points="101670,156330 101670,132560 80033,132560 80033,156330 "
         class="fil0"
         id="polygon19167"
         transform="matrix(9.5000609e-4,0,0,9.5000609e-4,21.839228,867.82276)" />
      <path
         style="fill:#ff0000;fill-rule:evenodd"
         inkscape:connector-curvature="0"
         class="fil0"
         d="m 118.42635,1028.6968 c 4.55718,-3.44 8.53105,-7.6181 11.73542,-12.3529 h -11.73542 v 12.3529 z"
         id="path19169" />
      <polygon
         style="fill:#ff0000;fill-rule:evenodd"
         points="58395,156330 58395,132560 36757,132560 36757,156330 "
         class="fil0"
         id="polygon19171"
         transform="matrix(9.5000609e-4,0,0,9.5000609e-4,21.839228,867.82276)" />
      <path
         style="fill:#ff0000;fill-rule:evenodd"
         inkscape:connector-curvature="0"
         class="fil0"
         d="m 45.004176,1016.3372 c 3.209121,4.7424 7.189644,8.9253 11.755374,12.3681 v -12.3681 H 45.004176 z"
         id="path19173" />
      <path
         style="fill:#ff0000;fill-rule:evenodd"
         inkscape:connector-curvature="0"
         class="fil0"
         d="m 91.17352,1038.9189 c 2.27527,-0.1587 4.51158,-0.4655 6.69755,-0.9139 v -21.6697 H 77.31483 v 21.6735 c 2.18027,0.4465 4.40993,0.7514 6.67855,0.9101 2.39306,0.1482 4.78708,0.1396 7.18014,0 z"
         id="path19175" />
      <path
         style="fill:#ff0000;fill-rule:evenodd"
         inkscape:connector-curvature="0"
         class="fil0"
         d="m 138.59498,993.75557 c 0.23845,-1.99692 0.3648,-4.02708 0.3648,-6.08479 v -16.49876 h -20.53723 v 22.58355 h 20.17243 z"
         id="path19177" />
      <polygon
         style="fill:#ff0000;fill-rule:evenodd"
         points="101670,108790 101670,85014 80033,85014 80033,108790 "
         class="fil0"
         id="polygon19179"
         transform="matrix(9.5000609e-4,0,0,9.5000609e-4,21.839228,867.82276)" />
      <polygon
         style="fill:#ff0000;fill-rule:evenodd"
         points="58395,61242 58395,85014 80033,85014 80033,61242 "
         class="fil0"
         id="polygon19181"
         transform="matrix(9.5000609e-4,0,0,9.5000609e-4,21.839228,867.82276)" />
      <polygon
         style="fill:#ff0000;fill-rule:evenodd"
         points="123290,61242 101670,61242 101670,85014 123290,85014 "
         class="fil0"
         id="polygon19183"
         transform="matrix(9.5000609e-4,0,0,9.5000609e-4,21.839228,867.82276)" />
      <path
         inkscape:connector-curvature="0"
         d="m 127.27862,968.69523 0.0302,-0.003 0.005,-0.0358 c -0.008,-0.0282 -0.0259,-0.0533 -0.0541,-0.40121 -0.0238,-0.3079 -0.0723,-1.1523 0.35275,-1.57103 0.16488,-0.16339 0.41662,-0.30862 0.61516,-0.35557 0.81427,-0.19849 1.87121,-0.0611 2.77386,0.98263 0.46575,0.53932 0.69438,0.78549 0.80869,0.8956 l 0.0393,0.0365 0.0477,0.0344 c 0.0371,0.021 1.55135,0.71821 1.55135,0.71821 l 0.0309,-0.008 0.001,-0.033 c -0.009,-0.0109 -0.95943,-1.23795 -0.79115,-2.2486 0.13323,-0.80516 0.77426,-0.7329 1.66012,-0.63196 0.28965,0.033 0.6193,0.0711 0.96017,0.0787 0.95169,0.006 1.97715,-0.16898 2.60909,-0.44539 0.40888,-0.17884 0.66977,-0.29668 0.83323,-0.44537 0.0589,-0.0485 0.0898,-0.1284 0.12123,-0.21251 l 0.0218,-0.0566 c 0.0266,-0.0679 0.0651,-0.21393 0.0821,-0.2932 0.008,-0.0351 0.0109,-0.0731 -0.014,-0.0918 l -0.0876,0.0168 c -0.277,0.16619 -0.97074,0.48329 -1.62014,0.49591 -0.80445,0.0168 -2.42599,-0.80943 -2.59502,-0.8971 l -0.0162,-0.0188 c -0.0408,-0.0969 -0.28409,-0.67265 -0.33531,-0.79393 1.16713,0.76865 2.13492,1.19372 2.87629,1.25963 0.82482,0.0735 1.468,-0.37662 1.74292,-0.56883 0.0539,-0.0365 0.0948,-0.0659 0.11142,-0.0723 l 0.0174,-0.0287 c -0.0456,-0.28966 -0.47697,-1.6924 -0.80237,-2.02907 -0.0904,-0.0926 -0.1627,-0.18238 -0.30861,-0.26791 -1.17901,-0.68731 -3.97813,-1.10257 -4.10923,-1.12147 l -0.0224,0.006 -0.008,0.0196 c 0,0 -0.0109,0.58071 -0.0125,0.64528 -0.28618,-0.0954 -2.36421,-0.76663 -4.31271,-0.83464 -1.65159,-0.0581 -3.90792,-0.13666 -7.0963,1.82281 l -0.094,0.059 c -1.4995,0.93561 -2.53472,2.08866 -3.07614,3.42968 -0.16974,0.4215 -0.39837,1.37329 -0.17258,2.26891 0.0982,0.39209 0.27985,0.78484 0.52537,1.13693 0.55337,0.79531 1.48267,1.3235 2.4835,1.41252 1.41252,0.12638 2.48282,-0.50848 2.86363,-1.69663 0.2616,-0.81987 0,-2.02268 -1.00295,-2.63636 -0.81569,-0.50008 -1.69379,-0.38578 -2.20227,-0.0497 -0.44185,0.29313 -0.69222,0.74761 -0.68731,1.24771 0.009,0.88578 0.7736,1.35711 1.32209,1.35783 0.15986,0 0.31977,-0.0274 0.50073,-0.0863 0.0639,-0.0198 0.12482,-0.0435 0.19146,-0.0849 l 0.0204,-0.0125 0.0125,-0.008 -0.005,0.002 c 0.1256,-0.0842 0.20128,-0.22304 0.20128,-0.37174 0,-0.0408 -0.006,-0.0821 -0.0174,-0.12357 -0.0645,-0.22376 -0.28618,-0.35979 -0.51623,-0.31774 l -0.0309,0.006 -0.0421,0.0125 -0.0611,0.0203 c -0.12622,0.0315 -0.22165,0.0335 -0.24126,0.0344 -0.0645,-0.003 -0.38086,-0.099 -0.38086,-0.44532 l 0,-0.003 c 10e-4,-0.12684 0.0519,-0.21602 0.0799,-0.26442 0.0975,-0.15427 0.36682,-0.30578 0.73078,-0.27353 0.47699,0.0407 0.82063,0.28548 1.04855,0.74696 0.21186,0.42921 0.15646,0.95665 -0.14243,1.34379 -0.29668,0.38371 -0.82478,0.54639 -1.52756,0.4699 -0.70839,-0.0779 -1.30731,-0.48533 -1.64257,-1.12004 -0.32824,-0.62004 -0.3465,-1.35576 -0.0469,-1.92102 0.7175,-1.35363 2.07179,-1.33963 2.81455,-1.21126 1.09974,0.19006 2.09778,1.07023 2.54173,2.24087 0.0709,0.18654 0.10721,0.33453 0.13884,0.4692 l 0.0477,0.20266 1.24205,0.60669 0.017,0.0109 3e-5,-3e-5 z m 8.82873,-6.60679 c -0.2342,0.2174 -0.36824,0.51408 -0.37946,0.83393 -0.0217,0.65923 0.49594,1.21473 1.15515,1.23932 0.32125,0.009 0.62561,-0.10253 0.85915,-0.32128 0.23352,-0.2181 0.36757,-0.51406 0.37946,-0.83319 0.0224,-0.65996 -0.49519,-1.21617 -1.15581,-1.23998 -0.31982,-0.009 -0.62496,0.10238 -0.85849,0.3212 m 0.82075,1.71482 c -0.46902,-0.0168 -0.83719,-0.4126 -0.82152,-0.88229 0.008,-0.2274 0.10441,-0.43758 0.26961,-0.59277 0.16588,-0.1552 0.3825,-0.23592 0.6099,-0.22735 0.46969,0.0168 0.83797,0.41115 0.82219,0.88156 -0.008,0.2267 -0.103,0.43686 -0.26884,0.59272 -0.16664,0.15442 -0.38327,0.23525 -0.61135,0.22813 l 1e-5,0 z m 0.1974,-0.77152 c 0.20875,0 0.37817,-0.11297 0.37817,-0.25161 0,-0.13931 -0.16943,-0.25242 -0.37817,-0.25242 -0.20883,0 -0.37758,0.11313 -0.37758,0.25242 0,0.13869 0.16875,0.25161 0.37758,0.25161"
         style="fill:#73ba25;fill-opacity:1;fill-rule:evenodd;stroke:none"
         id="path19185" />
      <text
         xml:space="preserve"
         style="font-size:11.94562721px;font-style:normal;font-weight:normal;line-height:79.00000215%;letter-spacing:0px;word-spacing:0px;fill:#ffffff;fill-opacity:1;stroke:none;font-family:Sans"
         x="138.45164"
         y="981.52155"
         id="text19187"
         sodipodi:linespacing="79.000002%"><tspan
           sodipodi:role="line"
           id="tspan19189"
           x="138.45164"
           y="981.52155"
           style="font-style:normal;font-variant:normal;font-weight:bold;font-stretch:normal;text-align:end;line-height:79.00000215%;text-anchor:end;fill:#ffffff;font-family:FifthLeg;-inkscape-font-specification:FifthLeg Bold">oSC</tspan><tspan
           sodipodi:role="line"
           x="138.45164"
           y="990.95862"
           id="tspan19191"
           style="font-style:normal;font-variant:normal;font-weight:bold;font-stretch:normal;text-align:end;line-height:79.00000215%;text-anchor:end;fill:#ffffff;font-family:FifthLeg;-inkscape-font-specification:FifthLeg Bold">14</tspan></text>
    </g>
  </g>
</svg>
