<?xml version="1.0" encoding="UTF-8" standalone="no"?>
<!-- Created with Inkscape (http://www.inkscape.org/) -->

<svg
   xmlns:dc="http://purl.org/dc/elements/1.1/"
   xmlns:cc="http://creativecommons.org/ns#"
   xmlns:rdf="http://www.w3.org/1999/02/22-rdf-syntax-ns#"
   xmlns:svg="http://www.w3.org/2000/svg"
   xmlns="http://www.w3.org/2000/svg"
   xmlns:sodipodi="http://sodipodi.sourceforge.net/DTD/sodipodi-0.dtd"
   xmlns:inkscape="http://www.inkscape.org/namespaces/inkscape"
   width="210mm"
   height="297mm"
   id="svg2"
   version="1.1"
   inkscape:version="0.48.4 r9939"
   sodipodi:docname="Proposal_23.svg">
  <defs
     id="defs4">
    <clipPath
       clipPathUnits="userSpaceOnUse"
       id="clipPath9502">
      <path
         style="fill:#73ba25;stroke:none"
         d="m 564.88232,413.8125 c -2.74011,15.81579 -8.33633,27.42813 -18.28125,39.375 -8.74621,10.50685 -33.25602,24.53925 -39.8125,28.1875 l 0,-67.5625 z"
         id="path9504"
         inkscape:connector-curvature="0"
         sodipodi:nodetypes="csccc" />
    </clipPath>
  </defs>
  <sodipodi:namedview
     id="base"
     pagecolor="#ffffff"
     bordercolor="#666666"
     borderopacity="1.0"
     inkscape:pageopacity="0.0"
     inkscape:pageshadow="2"
     inkscape:zoom="0.46846989"
     inkscape:cx="392.18179"
     inkscape:cy="408.7029"
     inkscape:document-units="px"
     inkscape:current-layer="layer1"
     showgrid="false"
     showguides="true"
     inkscape:guide-bbox="true"
     inkscape:window-width="1280"
     inkscape:window-height="734"
     inkscape:window-x="0"
     inkscape:window-y="27"
     inkscape:window-maximized="1" />
  <metadata
     id="metadata7">
    <rdf:RDF>
      <cc:Work
         rdf:about="">
        <dc:format>image/svg+xml</dc:format>
        <dc:type
           rdf:resource="http://purl.org/dc/dcmitype/StillImage" />
        <dc:title></dc:title>
      </cc:Work>
    </rdf:RDF>
  </metadata>
  <g
     inkscape:label="Camada 1"
     inkscape:groupmode="layer"
     id="layer1">
    <path
       sodipodi:nodetypes="czczzczzczc"
       inkscape:connector-curvature="0"
       id="path14518"
       d="m 366.63091,108.60999 c 0,0 70.22449,49.15258 113.1184,65.81432 42.89392,16.66175 143.28706,33.57755 143.28706,33.57755 0,0 43.99199,184.23722 31.22545,260.60777 -12.76654,76.37056 -38.19599,123.86663 -84.01783,180.91186 -45.82185,57.04524 -195.38626,152.19562 -195.38626,152.19562 0,0 -150.85172,-81.41444 -199.49969,-139.85542 C 126.71007,603.42072 99.811508,546.6696 86.920038,468.5321 74.028568,390.3946 113.6571,208.00186 113.6571,208.00186 c 0,0 86.48533,-6.94208 129.57198,-23.29406 43.08664,-16.35199 123.40183,-76.09781 123.40183,-76.09781 z"
       style="fill:#ffffff;stroke:#73ba25;stroke-width:8.14410782;stroke-linecap:butt;stroke-linejoin:miter;stroke-miterlimit:4;stroke-opacity:1;stroke-dasharray:none"
       inkscape:export-filename="/home/Carlos/git_repo/artwork/Marketing Materials/Events/openSUSE Conference/2014-oS-Conference/Logo/Proposal_23.png"
       inkscape:export-xdpi="300"
       inkscape:export-ydpi="300" />
    <g
       id="g8581"
       inkscape:export-filename="/home/Carlos/git_repo/artwork/Marketing Materials/Events/openSUSE Conference/2014-oS-Conference/Logo/Proposal_23.png"
       inkscape:export-xdpi="300"
       inkscape:export-ydpi="300">
      <path
         inkscape:export-ydpi="300"
         inkscape:export-xdpi="300"
         inkscape:export-filename="/home/Carlos/git_repo/artwork/Marketing Materials/Events/openSUSE Conference/2014-oS-Conference/Logo/Proposal_19.png"
         style="fill:#2caae1;stroke:none"
         d="m 130.70634,470.04609 c 11.15788,64.40275 33.94598,111.68882 74.44223,160.33712 35.61504,42.78446 135.4203,99.92514 162.11864,114.78101 l 0,-275.11813 z"
         id="path3029"
         inkscape:connector-curvature="0"
         sodipodi:nodetypes="csccc" />
      <path
         inkscape:export-ydpi="300"
         inkscape:export-xdpi="300"
         inkscape:export-filename="/home/Carlos/git_repo/artwork/Marketing Materials/Events/openSUSE Conference/2014-oS-Conference/Logo/Proposal_19.png"
         id="path14260"
         style="fill:none;stroke:#ffffff;stroke-width:1.01801348;stroke-linecap:butt;stroke-linejoin:miter;stroke-miterlimit:4;stroke-opacity:1;stroke-dasharray:none"
         d="m 327.95312,749.45161 c 13.65645,0 27.04801,4.69915 40.7045,4.69915 m -40.7045,-12.81667 c 13.65645,0 27.04801,4.69911 40.7045,4.69911 m -40.7045,-4.69911 c 13.65645,0 27.04801,4.69911 40.7045,4.69911 m -40.7045,-12.81667 c 13.65645,0 27.04801,4.69911 40.7045,4.69911 m -40.7045,-12.81666 c 13.65645,0 27.04801,4.6991 40.7045,4.6991 m -122.11361,-12.8167 c 28.19641,8.28952 55.43075,0.31884 81.40911,0 13.65645,0 27.04801,4.69915 40.7045,4.69915 M 246.54401,708.86386 c 13.65645,0 27.04809,4.69911 40.70458,4.69911 13.6564,0 27.04805,-4.69911 40.70453,-4.69911 13.65645,0 27.04801,4.69911 40.7045,4.69911 M 246.54401,700.7463 c 13.65645,0 27.04809,4.69911 40.70458,4.69911 13.6564,0 27.04805,-4.69911 40.70453,-4.69911 13.65645,0 27.04801,4.69911 40.7045,4.69911 M 246.54401,692.62874 c 13.65645,0 27.04809,4.69911 40.70458,4.69911 13.6564,0 27.04805,-4.69911 40.70453,-4.69911 13.65645,0 27.04801,4.69911 40.7045,4.69911 M 246.54401,684.51119 c 13.65645,0 27.04809,4.69915 40.70458,4.69915 13.6564,0 27.04805,-4.69915 40.70453,-4.69915 13.65645,0 27.04801,4.69915 40.7045,4.69915 M 246.54401,676.39363 c 13.65645,0 27.04809,4.69911 40.70458,4.69911 13.6564,0 27.04805,-4.69911 40.70453,-4.69911 13.65645,0 27.04801,4.69911 40.7045,4.69911 M 246.54401,668.27607 c 13.65645,0 27.04809,4.69911 40.70458,4.69911 13.6564,0 27.04805,-4.69911 40.70453,-4.69911 13.65645,0 27.04801,4.69911 40.7045,4.69911 m -122.11361,-4.69911 c 13.65645,0 27.04809,4.69911 40.70458,4.69911 13.6564,0 27.04805,-4.69911 40.70453,-4.69911 13.65645,0 27.04801,4.69911 40.7045,4.69911 m -162.8181,-8.11752 c 13.65645,0 27.04801,-4.69911 40.70449,-4.69911 13.65645,0 27.04809,4.69911 40.70458,4.69911 13.6564,0 27.04805,-4.69911 40.70453,-4.69911 13.65645,0 27.04801,4.69911 40.7045,4.69911 m -162.8181,-8.11755 c 13.65645,0 27.04801,-4.69915 40.70449,-4.69915 13.65645,0 27.04809,4.69915 40.70458,4.69915 13.6564,0 27.04805,-4.69915 40.70453,-4.69915 13.65645,0 27.04801,4.69915 40.7045,4.69915 m -162.8181,-8.1176 c 13.65645,0 27.04801,-4.69911 40.70449,-4.69911 13.65645,0 27.04809,4.69911 40.70458,4.69911 13.6564,0 27.04805,-4.69911 40.70453,-4.69911 13.65645,0 27.04801,4.69911 40.7045,4.69911 m -162.8181,-8.11752 c 13.65645,0 27.04801,-4.69911 40.70449,-4.69911 13.65645,0 27.04809,4.69911 40.70458,4.69911 13.6564,0 27.04805,-4.69911 40.70453,-4.69911 13.65645,0 27.04801,4.69911 40.7045,4.69911 m -162.8181,-8.11756 c 13.65645,0 27.04801,-4.69911 40.70449,-4.69911 13.65645,0 27.04809,4.69911 40.70458,4.69911 13.6564,0 27.04805,-4.69911 40.70453,-4.69911 13.65645,0 27.04801,4.69911 40.7045,4.69911 m -162.8181,-8.11751 c 13.65645,0 27.04801,-4.6992 40.70449,-4.6992 13.65645,0 27.04809,4.6992 40.70458,4.6992 13.6564,0 27.04805,-4.6992 40.70453,-4.6992 13.65645,0 27.04801,4.6992 40.7045,4.6992 M 165.13499,611.45321 c 13.65644,0 27.04804,4.69911 40.70453,4.69911 13.65645,0 27.04801,-4.69911 40.70449,-4.69911 13.65645,0 27.04809,4.69911 40.70458,4.69911 13.6564,0 27.04805,-4.69911 40.70453,-4.69911 13.65645,0 27.04801,4.69911 40.7045,4.69911 M 165.13499,603.33569 c 13.65644,0 27.04804,4.69911 40.70453,4.69911 13.65645,0 27.04801,-4.69911 40.70449,-4.69911 13.65645,0 27.04809,4.69911 40.70458,4.69911 13.6564,0 27.04805,-4.69911 40.70453,-4.69911 13.65645,0 27.04801,4.69911 40.7045,4.69911 M 165.13499,595.21813 c 13.65644,0 27.04804,4.69911 40.70453,4.69911 13.65645,0 27.04801,-4.69911 40.70449,-4.69911 13.65645,0 27.04809,4.69911 40.70458,4.69911 13.6564,0 27.04805,-4.69911 40.70453,-4.69911 13.65645,0 27.04801,4.69911 40.7045,4.69911 m -203.52263,-4.69911 c 13.65644,0 27.04804,4.69911 40.70453,4.69911 13.65645,0 27.04801,-4.69911 40.70449,-4.69911 13.65645,0 27.04809,4.69911 40.70458,4.69911 13.6564,0 27.04805,-4.69911 40.70453,-4.69911 13.65645,0 27.04801,4.69911 40.7045,4.69911 M 165.13499,587.10058 c 13.65644,0 27.04804,4.69915 40.70453,4.69915 13.65645,0 27.04801,-4.69915 40.70449,-4.69915 13.65645,0 27.04809,4.69915 40.70458,4.69915 13.6564,0 27.04805,-4.69915 40.70453,-4.69915 13.65645,0 27.04801,4.69915 40.7045,4.69915 M 165.13499,578.98302 c 13.65644,0 27.04804,4.69911 40.70453,4.69911 13.65645,0 27.04801,-4.69911 40.70449,-4.69911 13.65645,0 27.04809,4.69911 40.70458,4.69911 13.6564,0 27.04805,-4.69911 40.70453,-4.69911 13.65645,0 27.04801,4.69911 40.7045,4.69911 M 165.13499,570.86546 c 13.65644,0 27.04804,4.69911 40.70453,4.69911 13.65645,0 27.04801,-4.69911 40.70449,-4.69911 13.65645,0 27.04809,4.69911 40.70458,4.69911 13.6564,0 27.04805,-4.69911 40.70453,-4.69911 13.65645,0 27.04801,4.69911 40.7045,4.69911 m -244.22717,-8.11756 c 0,0 27.04805,-4.69911 40.70454,-4.69911 13.65644,0 27.04804,4.69911 40.70453,4.69911 13.65645,0 27.04801,-4.69911 40.70449,-4.69911 13.65645,0 27.04809,4.69911 40.70458,4.69911 13.6564,0 27.04805,-4.69911 40.70453,-4.69911 13.65645,0 27.04801,4.69911 40.7045,4.69911 m -244.22717,-8.11752 c 0,0 27.04805,-4.69915 40.70454,-4.69915 13.65644,0 27.04804,4.69915 40.70453,4.69915 13.65645,0 27.04801,-4.69915 40.70449,-4.69915 13.65645,0 27.04809,4.69915 40.70458,4.69915 13.6564,0 27.04805,-4.69915 40.70453,-4.69915 13.65645,0 27.04801,4.69915 40.7045,4.69915 M 124.43045,551.2119 c 0,0 27.04805,-4.69911 40.70454,-4.69911 13.65644,0 27.04804,4.69911 40.70453,4.69911 13.65645,0 27.04801,-4.69911 40.70449,-4.69911 13.65645,0 27.04809,4.69911 40.70458,4.69911 13.6564,0 27.04805,-4.69911 40.70453,-4.69911 13.65645,0 27.04801,4.69911 40.7045,4.69911 m -244.22717,-8.11752 c 0,0 27.04805,-4.69911 40.70454,-4.69911 13.65644,0 27.04804,4.69911 40.70453,4.69911 13.65645,0 27.04801,-4.69911 40.70449,-4.69911 13.65645,0 27.04809,4.69911 40.70458,4.69911 13.6564,0 27.04805,-4.69911 40.70453,-4.69911 13.65645,0 27.04801,4.69911 40.7045,4.69911 m -244.22717,-8.11756 c 0,0 27.04805,-4.69911 40.70454,-4.69911 13.65644,0 27.04804,4.69911 40.70453,4.69911 13.65645,0 27.04801,-4.69911 40.70449,-4.69911 13.65645,0 27.04809,4.69911 40.70458,4.69911 13.6564,0 27.04805,-4.69911 40.70453,-4.69911 13.65645,0 27.04801,4.69911 40.7045,4.69911 m -244.22717,-8.11756 c 0,0 27.04805,-4.69915 40.70454,-4.69915 13.65644,0 27.04804,4.69915 40.70453,4.69915 13.65645,0 27.04801,-4.69915 40.70449,-4.69915 13.65645,0 27.04809,4.69915 40.70458,4.69915 13.6564,0 27.04805,-4.69915 40.70453,-4.69915 13.65645,0 27.04801,4.69915 40.7045,4.69915 m -244.22717,-8.11759 c 0,0 27.04805,-4.69911 40.70454,-4.69911 13.65644,0 27.04804,4.69911 40.70453,4.69911 13.65645,0 27.04801,-4.69911 40.70449,-4.69911 13.65645,0 27.04809,4.69911 40.70458,4.69911 13.6564,0 27.04805,-4.69911 40.70453,-4.69911 13.65645,0 27.04801,4.69911 40.7045,4.69911 m -244.22717,-8.11752 c 0,0 27.04805,-4.69911 40.70454,-4.69911 13.65644,0 27.04804,4.69911 40.70453,4.69911 13.65645,0 27.04801,-4.69911 40.70449,-4.69911 13.65645,0 27.04809,4.69911 40.70458,4.69911 13.6564,0 27.04805,-4.69911 40.70453,-4.69911 13.65645,0 27.04801,4.69911 40.7045,4.69911 m -244.22717,-8.11756 c 0,0 27.04805,-4.69911 40.70454,-4.69911 13.65644,0 27.04804,4.69911 40.70453,4.69911 13.65645,0 27.04801,-4.69911 40.70449,-4.69911 13.65645,0 27.04809,4.69911 40.70458,4.69911 13.6564,0 27.04805,-4.69911 40.70453,-4.69911 13.65645,0 27.04801,4.69911 40.7045,4.69911 m -244.22717,-8.11752 c 0,0 27.04805,-4.69915 40.70454,-4.69915 13.65644,0 27.04804,4.69915 40.70453,4.69915 13.65645,0 27.04801,-4.69915 40.70449,-4.69915 13.65645,0 27.04809,4.69915 40.70458,4.69915 13.6564,0 27.04805,-4.69915 40.70453,-4.69915 13.65645,0 27.04801,4.69915 40.7045,4.69915 m -244.22717,-8.11759 c 0,0 27.04805,-4.69915 40.70454,-4.69915 13.65644,0 27.04804,4.69915 40.70453,4.69915 13.65645,0 27.04801,-4.69915 40.70449,-4.69915 13.65645,0 27.04809,4.69915 40.70458,4.69915 13.6564,0 27.04805,-4.69915 40.70453,-4.69915 13.65645,0 27.04801,4.69915 40.7045,4.69915 m -244.22717,-8.11752 c 0,0 27.04805,-4.69915 40.70454,-4.69915 13.65644,0 27.04804,4.69915 40.70453,4.69915 13.65645,0 27.04801,-4.69915 40.70449,-4.69915 13.65645,0 27.04809,4.69915 40.70458,4.69915 13.6564,0 27.04805,-4.69915 40.70453,-4.69915 13.65645,0 27.04801,4.69915 40.7045,4.69915 M 124.43045,470.0364 c 0,0 27.04805,-4.69911 40.70454,-4.69911 13.65644,0 27.04804,4.69911 40.70453,4.69911 13.65645,0 27.04801,-4.69911 40.70449,-4.69911 13.65645,0 27.04809,4.69911 40.70458,4.69911 13.6564,0 27.04805,-4.69911 40.70453,-4.69911 13.65645,0 27.04801,4.69911 40.7045,4.69911 m -244.22717,-8.11752 c 0,0 27.04805,-4.69915 40.70454,-4.69915 13.65644,0 27.04804,4.69915 40.70453,4.69915 13.65645,0 27.04801,-4.69915 40.70449,-4.69915 13.65645,0 27.04809,4.69915 40.70458,4.69915 13.6564,0 27.04805,-4.69915 40.70453,-4.69915 13.65645,0 27.04801,4.69915 40.7045,4.69915"
         inkscape:connector-curvature="0"
         sodipodi:nodetypes="cccccccccccccczzcczzcczzcczzcczzcczzcczzcczzzcczzzcczzzcczzzcczzzcczzzcczzzzcczzzzcczzzzcczzzzcczzzzcczzzzcczzzzcczzzzzcczzzzzcczzzzzcczzzzzcczzzzzcczzzzzcczzzzzcczzzzzcczzzzzcczzzzzcczzzzzcczzzzzcczzzzzcczzzzzc" />
    </g>
    <path
       sodipodi:nodetypes="czcccc"
       inkscape:connector-curvature="0"
       id="path3031"
       d="m 373.65961,161.33352 c 0,0 73.19028,45.4883 109.72197,59.35258 36.5317,13.86429 109.94545,19.72401 109.94545,19.72401 0,0 27.46674,155.42223 17.91146,223.14615 l -237.57888,0 z"
       style="fill:#2caae1;stroke:none"
       inkscape:export-filename="/home/Carlos/git_repo/artwork/Marketing Materials/Events/openSUSE Conference/2014-oS-Conference/Logo/Proposal_23.png"
       inkscape:export-xdpi="300"
       inkscape:export-ydpi="300" />
    <path
       id="path13731"
       style="fill:none;stroke:#ffffff;stroke-width:1.01801348;stroke-linecap:butt;stroke-linejoin:miter;stroke-miterlimit:4;stroke-opacity:1;stroke-dasharray:none"
       d="m 371.64105,462.08368 c 0,0 27.04804,-4.69915 40.70453,-4.69915 13.65645,0 27.04805,4.69915 40.70454,4.69915 13.65644,0 27.048,-4.69915 40.70449,-4.69915 13.65645,0 27.04809,4.69915 40.70458,4.69915 13.6564,0 27.04804,-4.69915 40.70453,-4.69915 13.65645,0 27.04801,4.69915 40.70449,4.69915 m -244.22716,-8.11756 c 0,0 27.04804,-4.69911 40.70453,-4.69911 13.65645,0 27.04805,4.69911 40.70454,4.69911 13.65644,0 27.048,-4.69911 40.70449,-4.69911 13.65645,0 27.04809,4.69911 40.70458,4.69911 13.6564,0 27.04804,-4.69911 40.70453,-4.69911 13.65645,0 27.04801,4.69911 40.70449,4.69911 m -244.22716,0 c 0,0 27.04804,-4.69911 40.70453,-4.69911 13.65645,0 27.04805,4.69911 40.70454,4.69911 13.65644,0 27.048,-4.69911 40.70449,-4.69911 13.65645,0 27.04809,4.69911 40.70458,4.69911 13.6564,0 27.04804,-4.69911 40.70453,-4.69911 13.65645,0 27.04801,4.69911 40.70449,4.69911 m -244.22716,-8.11756 c 0,0 27.04804,-4.69911 40.70453,-4.69911 13.65645,0 27.04805,4.69911 40.70454,4.69911 13.65644,0 27.048,-4.69911 40.70449,-4.69911 13.65645,0 27.04809,4.69911 40.70458,4.69911 13.6564,0 27.04804,-4.69911 40.70453,-4.69911 13.65645,0 27.04801,4.69911 40.70449,4.69911 m -244.22716,-8.11755 c 0,0 27.04804,-4.69911 40.70453,-4.69911 13.65645,0 27.04805,4.69911 40.70454,4.69911 13.65644,0 27.048,-4.69911 40.70449,-4.69911 13.65645,0 27.04809,4.69911 40.70458,4.69911 13.6564,0 27.04804,-4.69911 40.70453,-4.69911 13.65645,0 27.04801,4.69911 40.70449,4.69911 m -244.22716,-8.11756 c 0,0 27.04804,-4.69915 40.70453,-4.69915 13.65645,0 27.04805,4.69915 40.70454,4.69915 13.65644,0 27.048,-4.69915 40.70449,-4.69915 13.65645,0 27.04809,4.69915 40.70458,4.69915 13.6564,0 27.04804,-4.69915 40.70453,-4.69915 13.65645,0 27.04801,4.69915 40.70449,4.69915 m -244.22716,-8.11756 c 0,0 27.04804,-4.69911 40.70453,-4.69911 13.65645,0 27.04805,4.69911 40.70454,4.69911 13.65644,0 27.048,-4.69911 40.70449,-4.69911 13.65645,0 27.04809,4.69911 40.70458,4.69911 13.6564,0 27.04804,-4.69911 40.70453,-4.69911 13.65645,0 27.04801,4.69911 40.70449,4.69911 m -244.22716,-8.11756 c 0,0 27.04804,-4.69911 40.70453,-4.69911 13.65645,0 27.04805,4.69911 40.70454,4.69911 13.65644,0 27.048,-4.69911 40.70449,-4.69911 13.65645,0 27.04809,4.69911 40.70458,4.69911 13.6564,0 27.04804,-4.69911 40.70453,-4.69911 13.65645,0 27.04801,4.69911 40.70449,4.69911 m -244.22716,-8.11755 c 0,0 27.04804,-4.69911 40.70453,-4.69911 13.65645,0 27.04805,4.69911 40.70454,4.69911 13.65644,0 27.048,-4.69911 40.70449,-4.69911 13.65645,0 27.04809,4.69911 40.70458,4.69911 13.6564,0 27.04804,-4.69911 40.70453,-4.69911 13.65645,0 27.04801,4.69911 40.70449,4.69911 m -244.22716,-8.11752 c 0,0 27.04804,-4.69915 40.70453,-4.69915 13.65645,0 27.04805,4.69915 40.70454,4.69915 13.65644,0 27.048,-4.69915 40.70449,-4.69915 13.65645,0 27.04809,4.69915 40.70458,4.69915 13.6564,0 27.04804,-4.69915 40.70453,-4.69915 13.65645,0 27.04801,4.69915 40.70449,4.69915 m -244.22716,-8.1176 c 0,0 27.04804,-4.69911 40.70453,-4.69911 13.65645,0 27.04805,4.69911 40.70454,4.69911 13.65644,0 27.048,-4.69911 40.70449,-4.69911 13.65645,0 27.04809,4.69911 40.70458,4.69911 13.6564,0 27.04804,-4.69911 40.70453,-4.69911 13.65645,0 27.04801,4.69911 40.70449,4.69911 M 371.64105,380.9081 c 0,0 27.04804,-4.69911 40.70453,-4.69911 13.65645,0 27.04805,4.69911 40.70454,4.69911 13.65644,0 27.048,-4.69911 40.70449,-4.69911 13.65645,0 27.04809,4.69911 40.70458,4.69911 13.6564,0 27.04804,-4.69911 40.70453,-4.69911 13.65645,0 27.04801,4.69911 40.70449,4.69911 m -244.22716,0 c 0,0 27.04804,-4.69911 40.70453,-4.69911 13.65645,0 27.04805,4.69911 40.70454,4.69911 13.65644,0 27.048,-4.69911 40.70449,-4.69911 13.65645,0 27.04809,4.69911 40.70458,4.69911 13.6564,0 27.04804,-4.69911 40.70453,-4.69911 13.65645,0 27.04801,4.69911 40.70449,4.69911 m -244.22716,-8.11751 c 0,0 27.04804,-4.69911 40.70453,-4.69911 13.65645,0 27.04805,4.69911 40.70454,4.69911 13.65644,0 27.048,-4.69911 40.70449,-4.69911 13.65645,0 27.04809,4.69911 40.70458,4.69911 13.6564,0 27.04804,-4.69911 40.70453,-4.69911 13.65645,0 27.04801,4.69911 40.70449,4.69911 m -244.22716,-8.11756 c 0,0 27.04804,-4.69915 40.70453,-4.69915 13.65645,0 27.04805,4.69915 40.70454,4.69915 13.65644,0 27.048,-4.69915 40.70449,-4.69915 13.65645,0 27.04809,4.69915 40.70458,4.69915 13.6564,0 27.04804,-4.69915 40.70453,-4.69915 13.65645,0 27.04801,4.69915 40.70449,4.69915 m -244.22716,-8.1176 c 0,0 27.04804,-4.69911 40.70453,-4.69911 13.65645,0 27.04805,4.69911 40.70454,4.69911 13.65644,0 27.048,-4.69911 40.70449,-4.69911 13.65645,0 27.04809,4.69911 40.70458,4.69911 13.6564,0 27.04804,-4.69911 40.70453,-4.69911 13.65645,0 27.04801,4.69911 40.70449,4.69911 m -244.22716,-8.11752 c 0,0 27.04804,-4.69911 40.70453,-4.69911 13.65645,0 27.04805,4.69911 40.70454,4.69911 13.65644,0 27.048,-4.69911 40.70449,-4.69911 13.65645,0 27.04809,4.69911 40.70458,4.69911 13.6564,0 27.04804,-4.69911 40.70453,-4.69911 13.65645,0 27.04801,4.69911 40.70449,4.69911 m -244.22716,-8.11756 c 0,0 27.04804,-4.6991 40.70453,-4.6991 13.65645,0 27.04805,4.6991 40.70454,4.6991 13.65644,0 27.048,-4.6991 40.70449,-4.6991 13.65645,0 27.04809,4.6991 40.70458,4.6991 13.6564,0 27.04804,-4.6991 40.70453,-4.6991 13.65645,0 27.04801,4.6991 40.70449,4.6991 m -244.22716,-8.11751 c 0,0 27.04804,-4.69919 40.70453,-4.69919 13.65645,0 27.04805,4.69919 40.70454,4.69919 13.65644,0 27.048,-4.69919 40.70449,-4.69919 13.65645,0 27.04809,4.69919 40.70458,4.69919 13.6564,0 27.04804,-4.69919 40.70453,-4.69919 13.65645,0 27.04801,4.69919 40.70449,4.69919 m -244.22716,-8.1176 c 0,0 27.04804,-4.69911 40.70453,-4.69911 13.65645,0 27.04805,4.69911 40.70454,4.69911 13.65644,0 27.048,-4.69911 40.70449,-4.69911 13.65645,0 27.04809,4.69911 40.70458,4.69911 13.6564,0 27.04804,-4.69911 40.70453,-4.69911 13.65645,0 27.04801,4.69911 40.70449,4.69911 m -244.22716,-8.11752 c 0,0 27.04804,-4.69911 40.70453,-4.69911 13.65645,0 27.04805,4.69911 40.70454,4.69911 13.65644,0 27.048,-4.69911 40.70449,-4.69911 13.65645,0 27.04809,4.69911 40.70458,4.69911 13.6564,0 27.04804,-4.69911 40.70453,-4.69911 13.65645,0 27.04801,4.69911 40.70449,4.69911 m -244.22716,-8.11756 c 0,0 27.04804,-4.69911 40.70453,-4.69911 13.65645,0 27.04805,4.69911 40.70454,4.69911 13.65644,0 27.048,-4.69911 40.70449,-4.69911 13.65645,0 27.04809,4.69911 40.70458,4.69911 13.6564,0 27.04804,-4.69911 40.70453,-4.69911 13.65645,0 27.04801,4.69911 40.70449,4.69911 m -244.22716,0 c 0,0 27.04804,-4.69911 40.70453,-4.69911 13.65645,0 27.04805,4.69911 40.70454,4.69911 13.65644,0 27.048,-4.69911 40.70449,-4.69911 13.65645,0 27.04809,4.69911 40.70458,4.69911 13.6564,0 27.04804,-4.69911 40.70453,-4.69911 13.65645,0 27.04801,4.69911 40.70449,4.69911 m -244.22716,-8.11751 c 0,0 27.04804,-4.69915 40.70453,-4.69915 13.65645,0 27.04805,4.69915 40.70454,4.69915 13.65644,0 27.048,-4.69915 40.70449,-4.69915 13.65645,0 27.04809,4.69915 40.70458,4.69915 13.6564,0 27.04804,-4.69915 40.70453,-4.69915 13.65645,0 27.04801,4.69915 40.70449,4.69915 m -244.22716,-8.1176 c 0,0 27.04804,-4.69911 40.70453,-4.69911 13.65645,0 27.04805,4.69911 40.70454,4.69911 13.65644,0 27.048,-4.69911 40.70449,-4.69911 13.65645,0 27.04809,4.69911 40.70458,4.69911 13.6564,0 27.04804,-4.69911 40.70453,-4.69911 13.65645,0 27.04801,4.69911 40.70449,4.69911 m -244.22716,-8.11756 c 0,0 27.04804,-4.69911 40.70453,-4.69911 13.65645,0 27.04805,4.69911 40.70454,4.69911 13.65644,0 27.048,-4.69911 40.70449,-4.69911 13.65645,0 27.04809,4.69911 40.70458,4.69911 13.6564,0 27.04804,-4.69911 40.70453,-4.69911 13.65645,0 27.04801,4.69911 40.70449,4.69911 m -244.22716,-8.11756 c 0,0 27.04804,-4.69911 40.70453,-4.69911 13.65645,0 27.04805,4.69911 40.70454,4.69911 13.65644,0 27.048,-4.69911 40.70449,-4.69911 13.65645,0 27.04809,4.69911 40.70458,4.69911 13.6564,0 27.04804,-4.69911 40.70453,-4.69911 13.65645,0 27.04801,4.69911 40.70449,4.69911 m -244.22716,-8.11751 c 0,0 27.04804,-4.69915 40.70453,-4.69915 13.65645,0 27.04805,4.69915 40.70454,4.69915 13.65644,0 27.048,-4.69915 40.70449,-4.69915 13.65645,0 27.04809,4.69915 40.70458,4.69915 13.6564,0 27.04804,-4.69915 40.70453,-4.69915 13.65645,0 27.04801,4.69915 40.70449,4.69915 m -244.22716,-8.1176 c 0,0 27.04804,-4.69911 40.70453,-4.69911 13.65645,0 27.04805,4.69911 40.70454,4.69911 13.65644,0 27.048,-4.69911 40.70449,-4.69911 13.65645,0 27.04809,4.69911 40.70458,4.69911 13.6564,0 27.04804,-4.69911 40.70453,-4.69911 13.65645,0 27.04801,4.69911 40.70449,4.69911 M 371.64105,251.0273 c 0,0 27.04804,-4.69911 40.70453,-4.69911 13.65645,0 27.04805,4.69911 40.70454,4.69911 13.65644,0 27.048,-4.69911 40.70449,-4.69911 13.65645,0 27.04809,4.69911 40.70458,4.69911 13.6564,0 27.04804,-4.69911 40.70453,-4.69911 13.65645,0 27.04801,4.69911 40.70449,4.69911 m -244.22716,-8.11756 c 0,0 27.04804,-4.69911 40.70453,-4.69911 13.65645,0 27.04805,4.69911 40.70454,4.69911 13.65644,0 27.048,-4.69911 40.70449,-4.69911 13.65645,0 27.04809,4.69911 40.70458,4.69911 13.6564,0 27.04804,-4.69911 40.70453,-4.69911 13.65645,0 27.04801,4.69911 40.70449,4.69911 m -244.22716,-8.11755 c 0,0 27.04804,-4.69915 40.70453,-4.69915 13.65645,0 27.04805,4.69915 40.70454,4.69915 13.65644,0 27.048,-4.69915 40.70449,-4.69915 13.65645,0 27.04809,4.69915 40.70458,4.69915 13.6564,0 27.04804,-4.69915 40.70453,-4.69915 13.65645,0 27.04801,4.69915 40.70449,4.69915 m -244.22716,-8.1176 c 0,0 27.04804,-4.69911 40.70453,-4.69911 13.65645,0 27.04805,4.69911 40.70454,4.69911 13.65644,0 27.048,-4.69911 40.70449,-4.69911 13.65645,0 27.04809,4.69911 40.70458,4.69911 13.6564,0 27.04804,-4.69911 40.70453,-4.69911 13.65645,0 27.04801,4.69911 40.70449,4.69911 m -244.22716,-8.11752 c 0,0 27.04804,-4.69911 40.70453,-4.69911 13.65645,0 27.04805,4.69911 40.70454,4.69911 13.65644,0 27.048,-4.69911 40.70449,-4.69911 13.65645,0 27.04809,4.69911 40.70458,4.69911 13.6564,0 27.04804,-4.69911 40.70453,-4.69911 13.65645,0 27.04801,4.69911 40.70449,4.69911 m -244.22716,-8.11756 c 0,0 27.04804,-4.69911 40.70453,-4.69911 13.65645,0 27.04805,4.69911 40.70454,4.69911 13.65644,0 27.048,-4.69911 40.70449,-4.69911 M 371.64105,202.322 c 0,0 27.04804,-4.69915 40.70453,-4.69915 13.65645,0 27.04805,4.69915 40.70454,4.69915 13.65644,0 27.048,-4.69915 40.70449,-4.69915 M 371.64105,194.2044 c 0,0 27.04804,-4.69915 40.70453,-4.69915 13.65645,0 27.04805,4.69915 40.70454,4.69915 13.65644,0 27.048,-4.69915 40.70449,-4.69915 m -122.11356,-3.41837 c 0,0 27.04804,-4.69915 40.70453,-4.69915 13.65645,0 27.04805,4.69915 40.70454,4.69915 m -81.40907,-8.11756 c 0,0 27.04804,-4.69911 40.70453,-4.69911 m -40.70453,-3.4184 c 0,0 27.04804,-4.69915 40.70453,-4.69915"
       inkscape:connector-curvature="0"
       sodipodi:nodetypes="czzzzzcczzzzzcczzzzzcczzzzzcczzzzzcczzzzzcczzzzzcczzzzzcczzzzzcczzzzzcczzzzzcczzzzzcczzzzzcczzzzzcczzzzzcczzzzzcczzzzzcczzzzzcczzzzzcczzzzzcczzzzzcczzzzzcczzzzzcczzzzzcczzzzzcczzzzzcczzzzzcczzzzzcczzzzzcczzzzzcczzzzzcczzzzzcczzzzzcczzzzzcczzcczzcczzcczccccc"
       inkscape:export-filename="/home/Carlos/git_repo/artwork/Marketing Materials/Events/openSUSE Conference/2014-oS-Conference/Logo/Proposal_23.png"
       inkscape:export-xdpi="300"
       inkscape:export-ydpi="300" />
    <path
       style="fill:none;stroke:#73ba25;stroke-width:8.14410782;stroke-linecap:butt;stroke-linejoin:miter;stroke-miterlimit:4;stroke-opacity:1;stroke-dasharray:none"
       d="m 366.63091,108.60999 c 0,0 70.22449,49.15258 113.1184,65.81432 42.89392,16.66175 143.28706,33.57755 143.28706,33.57755 0,0 43.99199,184.23722 31.22545,260.60777 -12.76654,76.37056 -38.19599,123.86663 -84.01783,180.91186 -45.82185,57.04524 -195.38626,152.19562 -195.38626,152.19562 0,0 -150.85172,-81.41444 -199.49969,-139.85542 C 126.71007,603.42072 99.811508,546.6696 86.920038,468.5321 74.028568,390.3946 113.6571,208.00186 113.6571,208.00186 c 0,0 86.48533,-6.94208 129.57198,-23.29406 43.08664,-16.35199 123.40183,-76.09781 123.40183,-76.09781 z"
       id="path3010"
       inkscape:connector-curvature="0"
       sodipodi:nodetypes="czczzczzczc"
       inkscape:export-filename="/home/Carlos/git_repo/artwork/Marketing Materials/Events/openSUSE Conference/2014-oS-Conference/Logo/Proposal_23.png"
       inkscape:export-xdpi="300"
       inkscape:export-ydpi="300" />
    <path
       sodipodi:nodetypes="czczzczzczc"
       inkscape:connector-curvature="0"
       id="path8980"
       d="m 366.98767,140.87067 c 0,0 63.68728,44.57698 102.58822,59.68768 38.9009,15.1107 129.94844,30.45183 129.94844,30.45183 0,0 39.89676,167.08655 28.31869,236.34779 -11.57811,69.26115 -34.64035,112.33587 -76.19663,164.07074 -41.55629,51.73487 -177.19774,138.02772 -177.19774,138.02772 0,0 -136.80891,-73.83558 -180.92823,-126.83629 -44.11932,-53.00071 -68.5139,-104.46883 -80.20529,-175.33254 -11.6914,-70.86363 24.2481,-236.27742 24.2481,-236.27742 0,0 78.43444,-6.29584 117.51011,-21.12565 39.07567,-14.82977 111.91433,-69.01386 111.91433,-69.01386 z"
       style="fill:none;stroke:#73ba25;stroke-width:3.05404043;stroke-linecap:butt;stroke-linejoin:miter;stroke-miterlimit:4;stroke-opacity:1;stroke-dasharray:none"
       inkscape:export-filename="/home/Carlos/git_repo/artwork/Marketing Materials/Events/openSUSE Conference/2014-oS-Conference/Logo/Proposal_23.png"
       inkscape:export-xdpi="300"
       inkscape:export-ydpi="300" />
    <text
       sodipodi:linespacing="79.000002%"
       id="text8189"
       y="401.01398"
       x="464.93561"
       style="font-size:13.56752777px;font-style:normal;font-weight:normal;line-height:79.00000215%;letter-spacing:0px;word-spacing:0px;fill:#ffffff;fill-opacity:1;stroke:none;font-family:Sans"
       xml:space="preserve"
       inkscape:export-filename="/home/Carlos/git_repo/artwork/Marketing Materials/Events/openSUSE Conference/2014-oS-Conference/Logo/Proposal_23.png"
       inkscape:export-xdpi="300"
       inkscape:export-ydpi="300"><tspan
         style="font-size:34.07320404px;font-style:normal;font-variant:normal;font-weight:bold;font-stretch:normal;text-align:start;line-height:79.00000215%;text-anchor:start;fill:#ffffff;font-family:FifthLeg;-inkscape-font-specification:FifthLeg Bold"
         id="tspan8191"
         y="401.01398"
         x="464.93561"
         sodipodi:role="line" /></text>
    <path
       style="fill:#73ba25;stroke:none"
       d="m 367.26721,161.33352 c 0,0 -73.19028,45.4883 -109.72197,59.35258 -36.5317,13.86429 -109.94545,19.72401 -109.94545,19.72401 0,0 -27.46674,155.42223 -17.91146,223.14615 l 237.57888,0 z"
       id="path3016"
       inkscape:connector-curvature="0"
       sodipodi:nodetypes="czcccc"
       inkscape:export-filename="/home/Carlos/git_repo/artwork/Marketing Materials/Events/openSUSE Conference/2014-oS-Conference/Logo/Proposal_23.png"
       inkscape:export-xdpi="300"
       inkscape:export-ydpi="300" />
    <path
       inkscape:export-ydpi="300"
       inkscape:export-xdpi="300"
       inkscape:export-filename="/home/Carlos/git_repo/artwork/Marketing Materials/Events/openSUSE Conference/2014-oS-Conference/Logo/Proposal_23.png"
       style="fill:#73ba25;stroke:none"
       d="m 609.59233,470.04609 c -11.15788,64.40275 -33.94598,111.68882 -74.44223,160.33712 -35.61504,42.78446 -135.4203,99.92514 -162.11864,114.78101 l 0,-275.11813 z"
       id="path8587"
       inkscape:connector-curvature="0"
       sodipodi:nodetypes="csccc" />
    <g
       id="g6404"
       transform="matrix(4.0720538,0,0,4.0720538,-1690.0107,-1215.0206)"
       inkscape:export-filename="/home/Carlos/git_repo/artwork/Marketing Materials/Events/openSUSE Conference/2014-oS-Conference/Logo/Proposal_23.png"
       inkscape:export-xdpi="300"
       inkscape:export-ydpi="300">
      <g
         inkscape:export-ydpi="300"
         inkscape:export-xdpi="300"
         inkscape:export-filename="/home/Carlos/git_repo/artwork/Marketing Materials/Events/openSUSE Conference/2014-oS-Conference/Logo/Proposal_23.png"
         style="stroke:#73ba25;stroke-width:1.8006624;stroke-miterlimit:4;stroke-dasharray:none"
         transform="matrix(0.55535119,0,0,0.55535119,423.9671,175.68936)"
         id="g9531">
        <path
           inkscape:connector-curvature="0"
           id="path9517"
           style="color:#000000;fill:#ffffff;stroke:#73ba25;stroke-width:1.8006624;stroke-miterlimit:4;stroke-dasharray:none;marker:none;visibility:visible;display:inline;overflow:visible;enable-background:accumulate"
           d="m 285.99964,537.08396 -46.00772,7.75084 -21.45108,3.82178 -2.03805,-17.24808 -2.03804,-17.24807 67.4588,-11.57261 -17.11613,20.686 z m -261.603306,6.54446 46.007724,-7.75084 21.451081,-3.82178 2.038045,17.24808 2.038045,17.24807 -67.458808,11.57261 17.116138,-20.686 z" />
        <path
           style="color:#000000;fill:#ffffff;stroke:#73ba25;stroke-width:1.8006624;stroke-miterlimit:4;stroke-dasharray:none;marker:none;visibility:visible;display:inline;overflow:visible;enable-background:accumulate"
           d="m 64.14197,522.95103 171.15841,-24.32838 4.07776,28.68848 -171.158401,24.32838 z"
           id="rect9510"
           inkscape:connector-curvature="0" />
        <path
           inkscape:connector-curvature="0"
           id="path9522"
           d="m 68.06754,551.66639 27.435386,14.5859"
           style="fill:none;stroke:#73ba25;stroke-width:1.8006624;stroke-linecap:butt;stroke-linejoin:miter;stroke-miterlimit:4;stroke-opacity:1;stroke-dasharray:none" />
        <path
           style="fill:none;stroke:#73ba25;stroke-width:1.8006624;stroke-linecap:butt;stroke-linejoin:miter;stroke-miterlimit:4;stroke-opacity:1;stroke-dasharray:none"
           d="m 218.84533,548.22846 20.31395,-21.02123"
           id="path9526"
           inkscape:connector-curvature="0"
           sodipodi:nodetypes="cc" />
      </g>
      <text
         xml:space="preserve"
         style="font-size:6.02568579px;font-style:normal;font-weight:normal;line-height:125%;letter-spacing:0px;word-spacing:0px;fill:#73ba25;fill-opacity:1;stroke:none;font-family:Sans"
         x="397.56906"
         y="539.98981"
         id="text8593"
         sodipodi:linespacing="125%"
         transform="matrix(0.98842229,-0.15172799,0.15172799,0.98842229,0,0)"
         inkscape:export-filename="/home/Carlos/git_repo/artwork/Marketing Materials/Events/openSUSE Conference/2014-oS-Conference/Logo/Proposal_23.png"
         inkscape:export-xdpi="300"
         inkscape:export-ydpi="300"><tspan
           sodipodi:role="line"
           id="tspan8595"
           x="397.56906"
           y="539.98981"
           style="font-style:normal;font-variant:normal;font-weight:bold;font-stretch:normal;fill:#73ba25;font-family:Bitstream Vera Serif;-inkscape-font-specification:Bitstream Vera Serif Bold">Dubrovnik - Croatia</tspan></text>
      <g
         id="g8695"
         transform="matrix(1.2596752,0,0,1.2596752,-104.24833,-101.24893)"
         inkscape:export-filename="/home/Carlos/git_repo/artwork/Marketing Materials/Events/openSUSE Conference/2014-oS-Conference/Logo/Proposal_23.png"
         inkscape:export-xdpi="300"
         inkscape:export-ydpi="300">
        <text
           xml:space="preserve"
           style="font-size:16.2489357px;font-style:normal;font-weight:normal;line-height:125%;letter-spacing:0px;word-spacing:0px;fill:#ffffff;fill-opacity:1;stroke:none;font-family:Sans"
           x="445.33713"
           y="383.95374"
           id="text9537"
           sodipodi:linespacing="125%"
           transform="matrix(0.99975797,-0.02199988,0.02199988,0.99975797,0,0)"
           inkscape:export-filename="/home/Carlos/git_repo/artwork/Marketing Materials/Events/openSUSE Conference/2014-oS-Conference/Logo/Proposal_19.png"
           inkscape:export-xdpi="300"
           inkscape:export-ydpi="300"><tspan
             id="tspan8687"
             sodipodi:role="line"
             x="445.33713"
             y="383.95374"
             style="font-style:normal;font-variant:normal;font-weight:bold;font-stretch:normal;fill:#ffffff;font-family:FifthLeg;-inkscape-font-specification:FifthLeg Bold">oSC</tspan></text>
        <text
           inkscape:export-ydpi="300"
           inkscape:export-xdpi="300"
           inkscape:export-filename="/home/Carlos/git_repo/artwork/Marketing Materials/Events/openSUSE Conference/2014-oS-Conference/Logo/Proposal_19.png"
           transform="matrix(0.99975797,-0.02199988,0.02199988,0.99975797,0,0)"
           sodipodi:linespacing="125%"
           id="text8691"
           y="396.58725"
           x="459.49722"
           style="font-size:16.2489357px;font-style:normal;font-weight:normal;line-height:125%;letter-spacing:0px;word-spacing:0px;fill:#ffffff;fill-opacity:1;stroke:none;font-family:Sans"
           xml:space="preserve"><tspan
             style="font-style:normal;font-variant:normal;font-weight:bold;font-stretch:normal;fill:#ffffff;font-family:FifthLeg;-inkscape-font-specification:FifthLeg Bold"
             y="396.58725"
             x="459.49722"
             sodipodi:role="line"
             id="tspan8693">14</tspan></text>
      </g>
    </g>
    <path
       inkscape:connector-curvature="0"
       d="m 359.24925,537.09871 0.55336,-0.21801 -0.10742,-0.7 c -0.30466,-0.48813 -0.778,-0.86267 -3.20182,-7.25878 -2.12372,-5.66714 -7.63185,-21.30013 -1.90848,-31.49629 2.21486,-3.97322 6.16396,-8.07737 9.64629,-10.04164 14.24958,-8.16812 34.89547,-11.3335 57.56894,3.40403 11.70326,7.61893 17.34712,11.00925 20.09844,12.46003 l 0.93854,0.47318 1.08514,0.38849 c 0.8132,0.19389 33.1147,5.07927 33.1147,5.07927 l 0.53745,-0.31782 -0.16772,-0.62489 c -0.22916,-0.15656 -24.79928,-18.08471 -27.13101,-38.02735 -1.874,-15.88308 10.58813,-18.01123 27.81486,-20.9317 5.63278,-0.95413 12.04607,-2.03117 18.5047,-3.74344 17.94974,-5.0659 36.303,-13.94078 46.69576,-22.58365 6.72438,-5.59182 10.99479,-9.23005 13.26307,-12.91894 0.8448,-1.23361 0.99243,-2.90588 1.12544,-4.66052 l 0.10398,-1.1838 c 0.13631,-1.42219 0.0614,-4.38165 -0.0507,-5.96661 -0.0407,-0.70363 -0.19194,-1.43542 -0.76279,-1.6522 l -1.55768,0.79277 c -4.31062,4.63625 -15.64544,14.38128 -27.80267,18.15286 -15.05329,4.6939 -50.07733,-2.03651 -53.73655,-2.76728 l -0.40653,-0.26429 c -1.29549,-1.60233 -9.00892,-11.11756 -10.63328,-13.12213 26.15574,8.11949 46.68881,10.85529 61.00471,8.06179 15.92831,-3.10495 25.58751,-15.07921 29.71736,-20.19394 0.81625,-0.98054 1.42601,-1.75637 1.70411,-1.96742 l 0.17215,-0.6344 c -2.43484,-5.20497 -18.18965,-29.26596 -26.14791,-33.8335 -2.20568,-1.25129 -4.05543,-2.54809 -7.2678,-3.36416 -25.93674,-6.52339 -80.89355,0.89143 -83.46466,1.24767 l -0.38852,0.2341 -0.0503,0.41135 c 0,0 2.95449,10.99189 3.27598,12.21608 -5.90695,-0.23695 -48.68126,-1.56695 -85.73435,7.75622 -31.40966,7.89406 -74.31537,18.69381 -123.67773,72.93424 l -1.44863,1.62222 c -23.13841,25.77421 -36.3528,53.11545 -39.24816,81.30844 -0.90288,8.85886 -0.0266,28.02175 9.0981,43.65434 3.9825,6.84715 9.53943,13.25265 16.07799,18.54516 14.74582,11.96145 35.11559,16.84812 54.44207,13.07759 27.2801,-5.30765 43.97504,-23.08419 44.67857,-47.52497 0.46267,-16.85858 -11.00748,-38.07959 -33.22884,-44.1749 -18.07766,-4.97571 -33.98714,1.95462 -41.73104,11.04885 -6.72312,7.923 -8.96341,17.84182 -6.14956,27.23021 4.98988,16.62681 21.94934,21.33941 32.27932,18.36806 3.00955,-0.86995 5.87098,-2.25637 8.95714,-4.34965 1.09526,-0.72034 2.11324,-1.49812 3.14249,-2.64018 l 0.31718,-0.34662 0.19111,-0.21867 -0.0854,0.0648 c 1.90669,-2.26857 2.57563,-5.29418 1.76673,-8.09376 -0.22144,-0.7681 -0.56002,-1.51273 -1.00008,-2.23153 -2.43186,-3.86162 -7.34561,-5.21625 -11.44755,-3.17253 l -0.54992,0.28209 -0.72478,0.46507 -1.03987,0.7142 c -2.20483,1.28016 -3.9907,1.83684 -4.35493,1.96034 -1.22942,0.29528 -7.70882,0.20924 -9.59357,-6.31118 l -0.0119,-0.053 c -0.67676,-2.39171 -0.19784,-4.34921 0.0644,-5.41283 0.99533,-3.43503 5.24181,-7.75286 12.2693,-9.12639 9.20137,-1.82983 17.003,0.9091 23.80522,8.35639 6.32432,6.9275 8.15154,17.15879 4.63143,26.07362 -3.4973,8.83848 -12.55424,14.77503 -26.20112,17.15944 -13.7602,2.38874 -27.2531,-2.0227 -37.01879,-12.1475 -9.55374,-9.88688 -13.90132,-23.63822 -11.33677,-35.91046 6.14136,-29.38858 31.71391,-36.49481 46.39592,-38.12015 21.73824,-2.40629 45.31753,8.7326 60.04607,28.35556 2.34989,3.12608 3.83867,5.71447 5.16725,8.07752 l 2.00054,3.55584 26.68482,4.66259 0.37949,0.10953 3.3e-4,-5.3e-4 z M 489.5081,364.67226 c -3.22617,5.36723 -4.13511,11.68197 -2.60686,17.7645 3.17904,12.52903 15.94712,20.17011 28.4916,17.04575 6.09676,-1.57879 11.21988,-5.3348 14.42608,-10.72397 3.20949,-5.3768 4.12259,-11.67835 2.61012,-17.75081 -3.16983,-12.54639 -15.94087,-20.20127 -28.50737,-17.05449 -6.07024,1.57089 -11.20873,5.32837 -14.4143,10.71892 m 24.78339,27.81696 c -8.9211,2.23644 -18.00642,-3.21187 -20.26748,-12.13927 -1.08703,-4.3247 -0.41548,-8.80634 1.85052,-12.62687 2.27822,-3.82458 5.91719,-6.52305 10.24501,-7.59919 8.93372,-2.24001 18.01312,3.18019 20.27604,12.12217 1.08294,4.31148 0.43792,8.78518 -1.83583,12.62175 -2.29683,3.81412 -5.93556,6.51467 -10.26813,7.62165 l 1.8e-4,-1.9e-4 z m -0.48234,-15.599 c 3.93011,-1.13561 6.5047,-4.18469 5.75036,-6.79469 -0.75755,-2.62279 -4.56342,-3.83019 -8.4932,-2.69417 -3.93137,1.13665 -6.49288,4.18457 -5.7349,6.80696 0.7536,2.61088 4.54637,3.81849 8.47774,2.6819"
       style="fill:#ffffff;fill-opacity:1;fill-rule:evenodd;stroke:none"
       id="path19185"
       inkscape:export-filename="/home/Carlos/git_repo/artwork/Marketing Materials/Events/openSUSE Conference/2014-oS-Conference/Logo/Proposal_23.png"
       inkscape:export-xdpi="300"
       inkscape:export-ydpi="300" />
  </g>
</svg>
