<?xml version="1.0" encoding="UTF-8" standalone="no"?>
<!-- Created with Inkscape (http://www.inkscape.org/) -->

<svg
   xmlns:dc="http://purl.org/dc/elements/1.1/"
   xmlns:cc="http://creativecommons.org/ns#"
   xmlns:rdf="http://www.w3.org/1999/02/22-rdf-syntax-ns#"
   xmlns:svg="http://www.w3.org/2000/svg"
   xmlns="http://www.w3.org/2000/svg"
   xmlns:sodipodi="http://sodipodi.sourceforge.net/DTD/sodipodi-0.dtd"
   xmlns:inkscape="http://www.inkscape.org/namespaces/inkscape"
   width="210mm"
   height="297mm"
   id="svg25832"
   version="1.1"
   inkscape:version="0.48.4 r9939"
   sodipodi:docname="Novo documento 34">
  <defs
     id="defs25834">
    <clipPath
       clipPathUnits="userSpaceOnUse"
       id="clipPath2586">
      <path
         inkscape:connector-curvature="0"
         d="m 3852.65,195.02 c -2.18,27.929 -22.62,286.804 -40.46,394.558 -18.87,113.984 -114.2,436.652 -162.99,572.012 -48.8,135.36 -261.28,571.35 -261.28,571.35 0,0 111.75,-100.73 171.56,-176.28 59.82,-75.56 300.63,-528.86 339.97,-591.816 39.36,-62.961 74.67,-101.711 85.68,-19.168 11,82.524 -33.73,869.114 -33.73,910.034 0,40.92 -15.74,144.81 53.51,78.69 69.26,-66.1 386.47,-634.48 435.99,-791.7 37,-117.45 75.55,-116.33 110.17,1.58 110.71,278.59 221.41,557.18 332.11,835.77 -109.36,-73.85 -264.85,3.65 -269.14,99.16 -3.98,88.58 131.12,135.01 262.85,40.93 -78.77,186.12 5.78,247.13 64.13,335.04 58.36,-87.91 142.9,-148.92 64.14,-335.04 131.73,94.08 266.83,47.65 262.85,-40.93 -4.3,-95.51 -159.79,-173.01 -269.15,-99.16 110.7,-278.59 221.41,-557.18 332.11,-835.77 34.63,-117.91 73.17,-119.03 110.17,-1.58 49.52,157.22 366.74,725.6 435.99,791.7 69.26,66.12 53.51,-37.77 53.51,-78.69 0,-40.92 -44.73,-827.51 -33.73,-910.034 11.01,-82.543 46.33,-43.793 85.68,19.168 39.34,62.956 280.16,516.256 339.97,591.816 59.82,75.55 171.57,176.28 171.57,176.28 0,0 -212.49,-435.99 -261.29,-571.35 -48.79,-135.36 -144.12,-458.028 -162.98,-572.012 -17.85,-107.754 -38.29,-366.629 -40.46,-394.558 0.14,3.046 -0.13,6.132 -0.7,9.128 -19.98,111.946 -487.38,244.438 -1060.95,244.438 -8.95,0 -17.85,-0.051 -26.73,-0.121 -8.88,0.07 -17.78,0.121 -26.72,0.121 -573.57,0 -1040.98,-132.492 -1060.95,-244.438 -0.58,-2.996 -0.84,-6.082 -0.7,-9.128"
         clip-rule="evenodd"
         id="path2588" />
    </clipPath>
    <clipPath
       clipPathUnits="userSpaceOnUse"
       id="clipPath2602">
      <path
         inkscape:connector-curvature="0"
         d="m 3852.65,195.02 c -2.18,27.929 -22.62,286.804 -40.46,394.558 -18.87,113.984 -114.2,436.652 -162.99,572.012 -27.89,77.38 -109.27,252.98 -173.88,389.24 143.98,-142.54 263.12,-365.67 398.96,-625.334 75.25,-143.863 157.75,-67.117 157.39,67.688 -0.78,286.116 -20.99,571.866 -31.47,857.796 139.55,-214.59 281.16,-458.44 418.67,-779.1 38.86,-90.669 100.81,-119.157 151.1,-6.29 97.73,219.36 178.38,445.94 267.57,668.92 -3.65,-83.77 -3.64,-166.06 103.48,-205.52 107.13,39.46 107.13,121.75 103.48,205.52 89.19,-222.98 169.84,-449.56 267.58,-668.92 50.28,-112.867 112.22,-84.379 151.1,6.29 137.5,320.66 279.12,564.51 418.68,779.1 -10.5,-285.93 -30.71,-571.68 -31.49,-857.796 -0.36,-134.805 82.14,-211.551 157.4,-67.688 135.84,259.664 254.98,482.794 398.95,625.334 -64.6,-136.26 -145.98,-311.86 -173.88,-389.24 -48.79,-135.36 -144.12,-458.028 -162.98,-572.012 -17.85,-107.754 -38.29,-366.629 -40.46,-394.558 0.14,3.046 -0.13,6.132 -0.7,9.128 -19.98,111.946 -487.38,244.438 -1060.95,244.438 -8.95,0 -17.85,-0.051 -26.73,-0.121 -8.88,0.07 -17.78,0.121 -26.72,0.121 -573.57,0 -1040.98,-132.492 -1060.95,-244.438 -0.58,-2.996 -0.84,-6.082 -0.7,-9.128"
         clip-rule="evenodd"
         id="path2604" />
    </clipPath>
    <clipPath
       clipPathUnits="userSpaceOnUse"
       id="clipPath2624">
      <path
         inkscape:connector-curvature="0"
         d="m 3847.36,260.008 c -3.84,45.5 -9.37,108.195 -15.57,169.375 58.89,59.367 127.88,95.683 201.45,121.504 37.26,-18.883 74.5,-37.774 111.76,-56.66 34.62,42.5 69.25,85 103.88,127.492 110.16,35.789 220.34,49.207 330.51,53.543 38.51,-32.489 77.04,-64.981 115.55,-97.469 37.99,35.371 75.99,70.742 113.98,106.113 44.04,1.356 88.06,0.598 132.1,-3.73 44.04,4.328 88.06,5.086 132.1,3.73 37.99,-35.371 75.99,-70.742 113.98,-106.113 38.51,32.488 77.03,64.98 115.56,97.469 110.17,-4.336 220.34,-17.754 330.5,-53.543 34.63,-42.492 69.26,-84.992 103.88,-127.492 37.26,18.886 74.51,37.777 111.76,56.66 73.58,-25.821 142.56,-62.137 201.45,-121.504 -6.2,-61.18 -11.73,-123.875 -15.56,-169.375 -63.28,61.387 -135.74,99.855 -215.79,119.328 -28.24,35.234 -56.47,70.469 -84.7,105.703 -35.63,-18.867 -71.27,-37.734 -106.9,-56.601 -111.34,21.914 -221.69,35.8 -330.93,40.878 -36.94,33.536 -73.9,67.079 -110.84,100.614 -34.05,-31.446 -68.13,-62.879 -102.19,-94.325 -45.01,4.524 -92.23,5.36 -142.32,1.415 -50.09,3.945 -97.31,3.109 -142.32,-1.415 -34.06,31.446 -68.12,62.879 -102.18,94.325 -36.95,-33.535 -73.9,-67.078 -110.84,-100.614 -109.24,-5.078 -219.59,-18.964 -330.93,-40.878 -35.64,18.867 -71.27,37.734 -106.91,56.601 -28.23,-35.234 -56.46,-70.469 -84.7,-105.703 -80.04,-19.473 -152.5,-57.941 -215.78,-119.328"
         clip-rule="evenodd"
         id="path2626" />
    </clipPath>
    <clipPath
       clipPathUnits="userSpaceOnUse"
       id="clipPath2646">
      <path
         inkscape:connector-curvature="0"
         d="M 4967.75,390.078 C 5554,390.078 6029.44,258.641 6029.44,150.945 6029.44,43.2422 5554,0 4967.75,0 4958.8,0 4949.9,0.0195312 4941.02,0.0507812 4932.14,0.0195312 4923.24,0 4914.3,0 4328.04,0 3852.6,43.2422 3852.6,150.945 c 0,107.696 475.44,239.133 1061.7,239.133 8.94,0 17.84,-0.027 26.72,-0.098 8.88,0.071 17.78,0.098 26.73,0.098"
         clip-rule="evenodd"
         id="path2648" />
    </clipPath>
    <clipPath
       clipPathUnits="userSpaceOnUse"
       id="clipPath2838">
      <path
         inkscape:connector-curvature="0"
         d="m 6036.67,283.254 c 2.62,30.094 6.18,70.308 9.58,105.465 -54.2,61.742 -117.36,106.664 -186.28,128.547 -28.49,-7.383 -56.13,-19.043 -82.54,-36.946 26.11,-22.898 48.87,-49.129 67.61,-79.394 70.06,-13.574 132.07,-64.266 191.63,-117.672"
         clip-rule="evenodd"
         id="path2840" />
    </clipPath>
    <clipPath
       clipPathUnits="userSpaceOnUse"
       id="clipPath2854">
      <path
         inkscape:connector-curvature="0"
         d="m 5061.99,1821.17 0.01,-0.02 c 0,0 25,-45.71 431.09,-102.37 92.68,-12.94 166.47,-19.96 227.31,-24.89 -113.9,-196.17 -248.44,-453.34 -279.26,-551.19 -37,-117.45 -75.54,-116.33 -110.17,1.58 l -268.98,676.89 0,0 z m -241.94,0 0,-0.02 c 0,0 -25,-45.71 -431.1,-102.37 -92.68,-12.94 -166.46,-19.96 -227.31,-24.89 113.9,-196.17 248.44,-453.34 279.26,-551.19 37,-117.45 75.55,-116.33 110.17,1.58 l 268.98,676.89 0,0 z m -860.14,-147.21 c -68.16,-13.21 -120.05,-39.13 -197.39,-104.71 -63.26,-53.66 -78.13,-141.14 -71.19,-231.27 86.64,-153.82 184.31,-335.01 208.12,-373.136 39.36,-62.961 74.67,-101.711 85.68,-19.168 7.88,59.124 -12.83,479.504 -25.22,728.284 l 0,0 z m 1962.23,0 c 68.15,-13.21 120.06,-39.13 197.38,-104.71 63.27,-53.66 78.13,-141.14 71.19,-231.27 -86.64,-153.82 -184.3,-335.01 -208.12,-373.136 -39.35,-62.961 -74.67,-101.711 -85.68,-19.168 -7.87,59.124 12.84,479.504 25.23,728.284"
         clip-rule="evenodd"
         id="path2856" />
    </clipPath>
    <clipPath
       clipPathUnits="userSpaceOnUse"
       id="clipPath2870">
      <path
         inkscape:connector-curvature="0"
         d="m 5235.84,577.793 c 29.6,20.703 59.21,41.395 88.82,62.098 90.66,-7.657 181.32,-20.039 271.98,-45.594 28.56,-28.555 57.12,-57.121 85.68,-85.676 -27.52,-13.691 -55.02,-30.035 -82.53,-51.101 -88.51,22.761 -180.85,33.945 -276.69,34.589 -29.1,28.567 -58.18,57.118 -87.26,85.684"
         clip-rule="evenodd"
         id="path2872" />
    </clipPath>
    <clipPath
       clipPathUnits="userSpaceOnUse"
       id="clipPath2908">
      <path
         inkscape:connector-curvature="0"
         d="m 5851.94,1745.54 c -52.71,-113.56 -108.99,-158.41 -136.93,-253.41 -31.1,-105.8 89.87,-133.88 116.47,-31.49 24.88,95.7 1.07,169.5 20.46,284.9"
         clip-rule="evenodd"
         id="path2910" />
    </clipPath>
    <clipPath
       clipPathUnits="userSpaceOnUse"
       id="clipPath2974">
      <path
         inkscape:connector-curvature="0"
         d="m 4914.3,448.586 c -573.57,0 -1040.98,-132.492 -1060.95,-244.438 l -0.1,-0.039 -0.02,-0.523 c -0.38,-2.285 -0.63,-4.574 -0.63,-6.848 0,-1.418 0.09,-2.824 0.23,-4.218 -0.45,-13.711 -1.02,-35.45 -0.23,-41.575 0,37.832 58.73,78.606 160.33,115.578 l 0.97,0.352 c 3.5,1.27 7.05,2.539 10.66,3.801 l 0.92,0.32 c 14.9,5.203 30.65,10.32 47.22,15.344 l 1.84,0.555 c 3.67,1.113 7.4,2.214 11.15,3.308 l 2.86,0.832 c 3.67,1.074 7.37,2.129 11.12,3.184 l 2.86,0.808 c 16.38,4.571 33.43,9.055 51.12,13.43 l 5.74,1.406 c 3.2,0.782 6.43,1.563 9.68,2.332 l 6.77,1.594 c 3.3,0.781 6.61,1.543 9.95,2.313 l 6.5,1.476 c 3.54,0.801 7.1,1.602 10.69,2.391 l 1.78,0.383 c 8.31,1.824 16.74,3.621 25.28,5.402 1.96,0.398 3.91,0.808 5.89,1.211 3.61,0.738 7.25,1.461 10.89,2.195 2.28,0.457 4.57,0.918 6.85,1.367 3.87,0.762 7.78,1.512 11.68,2.266 l 6.33,1.211 c 3.78,0.711 7.57,1.426 11.39,2.129 2.85,0.527 5.71,1.043 8.57,1.562 3.32,0.594 6.62,1.2 9.97,1.797 6.08,1.074 12.2,2.149 18.38,3.192 1.97,0.332 3.97,0.664 5.97,0.996 4.42,0.746 8.86,1.484 13.32,2.218 2.98,0.481 5.97,0.957 8.97,1.438 3.73,0.594 7.48,1.187 11.25,1.773 l 8.92,1.379 c 3.88,0.598 7.78,1.172 11.69,1.758 2.96,0.438 5.93,0.879 8.91,1.316 4.12,0.598 8.28,1.184 12.43,1.778 2.79,0.39 5.56,0.793 8.37,1.183 6.66,0.918 13.36,1.836 20.11,2.723 l 6.77,0.883 c 4.79,0.613 9.58,1.226 14.41,1.844 2.93,0.363 5.87,0.722 8.81,1.082 4.21,0.519 8.43,1.027 12.67,1.535 l 9.64,1.133 c 4.39,0.507 8.81,1.004 13.22,1.504 2.69,0.3 5.39,0.605 8.1,0.898 5.27,0.586 10.57,1.141 15.88,1.699 2.26,0.235 4.51,0.477 6.77,0.711 7.27,0.754 14.57,1.485 21.92,2.188 2.37,0.226 4.74,0.441 7.11,0.664 4.98,0.48 9.97,0.937 15,1.398 3.18,0.281 6.36,0.567 9.54,0.84 4.71,0.41 9.43,0.82 14.17,1.219 l 8.94,0.734 c 4.82,0.391 9.69,0.781 14.54,1.152 2.98,0.235 5.94,0.458 8.93,0.684 5.79,0.438 11.62,0.848 17.45,1.262 2.01,0.144 4.02,0.289 6.04,0.426 7.6,0.531 15.25,1.027 22.91,1.496 2.75,0.175 5.51,0.332 8.26,0.496 5.37,0.324 10.76,0.636 16.17,0.949 l 8.2,0.437 c 5.26,0.286 10.55,0.559 15.83,0.821 l 9.73,0.469 c 5.24,0.246 10.51,0.488 15.78,0.703 l 7.91,0.351 c 7.27,0.293 14.58,0.567 21.91,0.832 l 2.91,0.106 c 8.34,0.285 16.69,0.547 25.08,0.785 l 5.83,0.144 c 6.12,0.164 12.25,0.313 18.4,0.45 l 9.47,0.195 c 5.38,0.098 10.79,0.195 16.2,0.273 l 9.21,0.137 c 5.66,0.066 11.33,0.125 17,0.176 2.79,0.027 5.57,0.058 8.36,0.078 8.41,0.051 16.84,0.078 25.3,0.078 8.85,0 17.68,-0.019 26.48,-0.09 l 0.24,0 0.24,0 c 8.8,0.071 17.63,0.09 26.49,0.09 8.45,0 16.88,-0.027 25.29,-0.078 2.79,-0.02 5.57,-0.051 8.37,-0.078 5.67,-0.051 11.34,-0.11 17,-0.176 l 9.22,-0.137 c 5.4,-0.078 10.8,-0.175 16.19,-0.273 l 9.47,-0.195 c 6.14,-0.137 12.28,-0.286 18.39,-0.45 l 5.83,-0.144 c 8.39,-0.238 16.75,-0.5 25.08,-0.785 l 2.92,-0.106 c 7.32,-0.265 14.63,-0.539 21.9,-0.832 l 7.91,-0.351 c 5.28,-0.215 10.54,-0.457 15.79,-0.703 l 9.72,-0.469 c 5.29,-0.262 10.57,-0.535 15.83,-0.821 l 8.22,-0.437 c 5.39,-0.313 10.78,-0.625 16.16,-0.949 2.75,-0.164 5.5,-0.321 8.25,-0.496 7.67,-0.469 15.31,-0.965 22.91,-1.496 2.03,-0.137 4.03,-0.282 6.05,-0.426 5.82,-0.414 11.65,-0.824 17.44,-1.262 2.99,-0.226 5.96,-0.449 8.93,-0.684 4.86,-0.371 9.72,-0.761 14.55,-1.152 l 8.94,-0.734 c 4.73,-0.399 9.45,-0.809 14.16,-1.219 3.18,-0.273 6.37,-0.559 9.54,-0.84 5.03,-0.461 10.02,-0.918 15.01,-1.398 2.36,-0.223 4.73,-0.438 7.1,-0.664 7.34,-0.703 14.65,-1.434 21.92,-2.188 2.27,-0.234 4.51,-0.476 6.77,-0.711 5.31,-0.558 10.61,-1.113 15.89,-1.699 2.7,-0.293 5.4,-0.598 8.09,-0.898 4.42,-0.5 8.83,-0.997 13.21,-1.504 l 9.65,-1.133 c 4.24,-0.508 8.46,-1.016 12.67,-1.535 2.94,-0.36 5.89,-0.719 8.81,-1.082 4.83,-0.618 9.63,-1.231 14.41,-1.844 l 6.77,-0.883 c 6.75,-0.887 13.45,-1.805 20.11,-2.723 2.81,-0.39 5.58,-0.793 8.38,-1.183 4.15,-0.594 8.3,-1.18 12.42,-1.778 2.99,-0.437 5.96,-0.878 8.91,-1.316 3.92,-0.586 7.82,-1.16 11.69,-1.758 l 8.92,-1.379 c 3.77,-0.586 7.51,-1.179 11.25,-1.773 3,-0.481 6,-0.957 8.98,-1.438 4.46,-0.734 8.89,-1.472 13.32,-2.218 1.99,-0.332 3.99,-0.664 5.97,-0.996 6.17,-1.043 12.29,-2.118 18.37,-3.192 3.35,-0.597 6.65,-1.203 9.97,-1.797 2.86,-0.519 5.73,-1.035 8.58,-1.562 3.81,-0.703 7.6,-1.418 11.38,-2.129 l 6.33,-1.211 c 3.92,-0.754 7.81,-1.504 11.68,-2.266 2.29,-0.449 4.57,-0.91 6.84,-1.367 3.65,-0.734 7.3,-1.457 10.9,-2.195 1.98,-0.403 3.93,-0.813 5.89,-1.211 8.55,-1.781 16.98,-3.578 25.29,-5.402 l 1.77,-0.383 c 3.6,-0.789 7.15,-1.59 10.7,-2.391 l 6.49,-1.476 c 3.34,-0.77 6.66,-1.532 9.95,-2.313 l 6.77,-1.594 c 3.25,-0.769 6.48,-1.55 9.69,-2.332 l 5.73,-1.406 c 17.7,-4.375 34.75,-8.859 51.12,-13.43 l 2.87,-0.808 c 3.74,-1.055 7.44,-2.11 11.13,-3.184 l 2.84,-0.832 c 3.75,-1.094 7.48,-2.195 11.15,-3.308 l 1.86,-0.555 c 16.55,-5.024 32.3,-10.141 47.2,-15.344 l 0.92,-0.32 c 3.61,-1.262 7.17,-2.531 10.67,-3.801 l 0.97,-0.352 c 101.59,-36.972 160.32,-77.746 160.32,-115.578 0.79,6.125 0.23,27.864 -0.23,41.575 0.15,1.394 0.23,2.8 0.23,4.218 0,2.274 -0.25,4.563 -0.63,6.848 l -0.02,0.523 -0.09,0.039 c -19.98,111.946 -487.38,244.438 -1060.95,244.438 -8.95,0 -17.85,-0.031 -26.73,-0.109 -8.88,0.078 -17.78,0.109 -26.72,0.109"
         clip-rule="evenodd"
         id="path2976" />
    </clipPath>
    <clipPath
       clipPathUnits="userSpaceOnUse"
       id="clipPath3234">
      <path
         inkscape:connector-curvature="0"
         d="m 3829.28,453.719 c -2.38,22.531 -4.83,44.511 -7.3,64.961 122.31,95.254 279.88,161.535 467.52,203.125 188.44,41.781 407.4,58.672 651.52,55.109 244.12,3.563 463.08,-13.328 651.52,-55.109 187.64,-41.59 345.21,-107.871 467.52,-203.125 -2.47,-20.45 -4.92,-42.43 -7.29,-64.961 l -13.73,11.562 -0.04,-0.027 c -117.28,95.5 -271.96,161.66 -458.31,202.961 -184.3,40.855 -399.34,57.351 -639.67,53.805 -240.33,3.546 -455.37,-12.95 -639.67,-53.805 -186.34,-41.301 -341.02,-107.461 -458.31,-202.961 l -0.02,0.027 -13.74,-11.562"
         clip-rule="evenodd"
         id="path3236" />
    </clipPath>
    <clipPath
       clipPathUnits="userSpaceOnUse"
       id="clipPath3256">
      <path
         inkscape:connector-curvature="0"
         d="m 4941.02,503.074 -121.1,5.547 c -24.1,23.574 -48.2,47.16 -72.31,70.742 27.77,24.629 55.54,49.258 83.32,73.891 l 110.09,0 110.09,0 c 27.78,-24.633 55.55,-49.262 83.32,-73.891 -24.1,-23.582 -48.21,-47.168 -72.31,-70.742 l -121.1,-5.547"
         clip-rule="evenodd"
         id="path3258" />
    </clipPath>
    <clipPath
       clipPathUnits="userSpaceOnUse"
       id="clipPath3272">
      <path
         inkscape:connector-curvature="0"
         d="m 3845.37,283.254 c -2.62,30.094 -6.18,70.308 -9.57,105.465 54.19,61.742 117.35,106.664 186.27,128.547 28.5,-7.383 56.13,-19.043 82.54,-36.946 -26.1,-22.898 -48.87,-49.129 -67.61,-79.394 -70.06,-13.574 -132.07,-64.266 -191.63,-117.672"
         clip-rule="evenodd"
         id="path3274" />
    </clipPath>
    <clipPath
       clipPathUnits="userSpaceOnUse"
       id="clipPath3288">
      <path
         inkscape:connector-curvature="0"
         d="m 4646.2,577.793 c -29.6,20.703 -59.21,41.395 -88.82,62.098 -90.66,-7.657 -181.31,-20.039 -271.98,-45.594 -28.55,-28.555 -57.12,-57.121 -85.68,-85.676 27.51,-13.691 55.03,-30.035 82.54,-51.101 88.5,22.761 180.85,33.945 276.69,34.589 29.09,28.567 58.17,57.118 87.25,85.684"
         clip-rule="evenodd"
         id="path3290" />
    </clipPath>
    <clipPath
       clipPathUnits="userSpaceOnUse"
       id="clipPath3326">
      <path
         inkscape:connector-curvature="0"
         d="m 4030.1,1745.54 c 52.72,-113.56 109,-158.41 136.93,-253.41 31.11,-105.8 -89.85,-133.88 -116.47,-31.49 -24.88,95.7 -1.07,169.5 -20.46,284.9"
         clip-rule="evenodd"
         id="path3328" />
    </clipPath>
  </defs>
  <sodipodi:namedview
     id="base"
     pagecolor="#ffffff"
     bordercolor="#666666"
     borderopacity="1.0"
     inkscape:pageopacity="0.0"
     inkscape:pageshadow="2"
     inkscape:zoom="1.1150286"
     inkscape:cx="350"
     inkscape:cy="520"
     inkscape:document-units="px"
     inkscape:current-layer="layer1"
     showgrid="false"
     inkscape:window-width="596"
     inkscape:window-height="477"
     inkscape:window-x="4"
     inkscape:window-y="183"
     inkscape:window-maximized="0" />
  <metadata
     id="metadata25837">
    <rdf:RDF>
      <cc:Work
         rdf:about="">
        <dc:format>image/svg+xml</dc:format>
        <dc:type
           rdf:resource="http://purl.org/dc/dcmitype/StillImage" />
        <dc:title></dc:title>
      </cc:Work>
    </rdf:RDF>
  </metadata>
  <g
     inkscape:label="Camada 1"
     inkscape:groupmode="layer"
     id="layer1">
    <g
       id="g25684"
       transform="matrix(0.35400407,0,0,0.35400407,353.06295,394.76703)">
      <g
         style="fill:#73ba25"
         transform="matrix(0.125,0,0,-0.125,-626.28042,342.08636)"
         id="g2582">
        <g
           style="fill:#73ba25"
           id="g2584"
           clip-path="url(#clipPath2586)">
          <path
             sodipodi:nodetypes="cccccccsccccccccsccccccccscscc"
             inkscape:connector-curvature="0"
             d="m 3852.65,195.02 c -2.18,27.929 -22.62,286.804 -40.46,394.558 -18.87,113.984 -114.2,436.652 -162.99,572.012 -48.8,135.36 -261.28,571.35 -261.28,571.35 0,0 111.75,-100.73 171.56,-176.28 59.82,-75.56 300.63,-528.86 339.97,-591.816 39.36,-62.961 74.67,-101.711 85.68,-19.168 11,82.524 -33.73,869.114 -33.73,910.034 0,40.92 -15.74,144.81 53.51,78.69 69.26,-66.1 386.47,-634.48 435.99,-791.7 37,-117.45 75.55,-116.33 110.17,1.58 110.71,278.59 221.41,557.18 332.11,835.77 32.5582,74.1523 100.0637,23.1327 115.68,0 110.7,-278.59 221.41,-557.18 332.11,-835.77 34.63,-117.91 73.17,-119.03 110.17,-1.58 49.52,157.22 366.74,725.6 435.99,791.7 69.26,66.12 53.51,-37.77 53.51,-78.69 0,-40.92 -44.73,-827.51 -33.73,-910.034 11.01,-82.543 46.33,-43.793 85.68,19.168 39.34,62.956 280.16,516.256 339.97,591.816 59.82,75.55 171.57,176.28 171.57,176.28 0,0 -212.49,-435.99 -261.29,-571.35 -48.79,-135.36 -144.12,-458.028 -162.98,-572.012 -17.85,-107.754 -38.29,-366.629 -40.46,-394.558 0.14,3.046 -0.13,6.132 -0.7,9.128 -19.98,111.946 -487.38,244.438 -1060.95,244.438 -8.95,0 -17.85,-0.051 -26.73,-0.121 -8.88,0.07 -17.78,0.121 -26.72,0.121 -573.57,0 -1040.98,-132.492 -1060.95,-244.438 -0.58,-2.996 -0.84,-6.082 -0.7,-9.128"
             style="fill:#73ba25;fill-opacity:1;fill-rule:nonzero;stroke:none"
             id="path2596" />
        </g>
      </g>
      <g
         style="fill:#578c1c;fill-opacity:1"
         transform="matrix(0.125,0,0,-0.125,-626.28042,342.08636)"
         id="g2598">
        <g
           style="fill:#578c1c;fill-opacity:1"
           id="g2600"
           clip-path="url(#clipPath2602)">
          <path
             inkscape:connector-curvature="0"
             d="m 3852.65,195.02 c -2.18,27.929 -22.62,286.804 -40.46,394.558 -18.87,113.984 -114.2,436.652 -162.99,572.012 -27.89,77.38 -109.27,252.98 -173.88,389.24 143.98,-142.54 263.12,-365.67 398.96,-625.334 75.25,-143.863 157.75,-67.117 157.39,67.688 -0.78,286.116 -20.99,571.866 -31.47,857.796 139.55,-214.59 281.16,-458.44 418.67,-779.1 38.86,-90.669 100.81,-119.157 151.1,-6.29 97.73,219.36 178.38,445.94 267.57,668.92 -3.65,-83.77 -3.64,-166.06 103.48,-205.52 107.13,39.46 107.13,121.75 103.48,205.52 89.19,-222.98 169.84,-449.56 267.58,-668.92 50.28,-112.867 112.22,-84.379 151.1,6.29 137.5,320.66 279.12,564.51 418.68,779.1 -10.5,-285.93 -30.71,-571.68 -31.49,-857.796 -0.36,-134.805 82.14,-211.551 157.4,-67.688 135.84,259.664 254.98,482.794 398.95,625.334 -64.6,-136.26 -145.98,-311.86 -173.88,-389.24 -48.79,-135.36 -144.12,-458.028 -162.98,-572.012 -17.85,-107.754 -38.29,-366.629 -40.46,-394.558 0.14,3.046 -0.13,6.132 -0.7,9.128 -19.98,111.946 -487.38,244.438 -1060.95,244.438 -8.95,0 -17.85,-0.051 -26.73,-0.121 -8.88,0.07 -17.78,0.121 -26.72,0.121 -573.57,0 -1040.98,-132.492 -1060.95,-244.438 -0.58,-2.996 -0.84,-6.082 -0.7,-9.128"
             style="fill:#578c1c;fill-opacity:1;fill-rule:nonzero;stroke:none"
             id="path2618" />
        </g>
      </g>
      <g
         style="fill:#73ba25"
         transform="matrix(0.125,0,0,-0.125,-626.28042,342.08636)"
         id="g2620">
        <g
           style="fill:#73ba25"
           id="g2622"
           clip-path="url(#clipPath2624)">
          <path
             inkscape:connector-curvature="0"
             d="m 3847.36,260.008 c -3.84,45.5 -9.37,108.195 -15.57,169.375 58.89,59.367 127.88,95.683 201.45,121.504 37.26,-18.883 74.5,-37.774 111.76,-56.66 34.62,42.5 69.25,85 103.88,127.492 110.16,35.789 220.34,49.207 330.51,53.543 38.51,-32.489 77.04,-64.981 115.55,-97.469 37.99,35.371 75.99,70.742 113.98,106.113 44.04,1.356 88.06,0.598 132.1,-3.73 44.04,4.328 88.06,5.086 132.1,3.73 37.99,-35.371 75.99,-70.742 113.98,-106.113 38.51,32.488 77.03,64.98 115.56,97.469 110.17,-4.336 220.34,-17.754 330.5,-53.543 34.63,-42.492 69.26,-84.992 103.88,-127.492 37.26,18.886 74.51,37.777 111.76,56.66 73.58,-25.821 142.56,-62.137 201.45,-121.504 -6.2,-61.18 -11.73,-123.875 -15.56,-169.375 -63.28,61.387 -135.74,99.855 -215.79,119.328 -28.24,35.234 -56.47,70.469 -84.7,105.703 -35.63,-18.867 -71.27,-37.734 -106.9,-56.601 -111.34,21.914 -221.69,35.8 -330.93,40.878 -36.94,33.536 -73.9,67.079 -110.84,100.614 -34.05,-31.446 -68.13,-62.879 -102.19,-94.325 -45.01,4.524 -92.23,5.36 -142.32,1.415 -50.09,3.945 -97.31,3.109 -142.32,-1.415 -34.06,31.446 -68.12,62.879 -102.18,94.325 -36.95,-33.535 -73.9,-67.078 -110.84,-100.614 -109.24,-5.078 -219.59,-18.964 -330.93,-40.878 -35.64,18.867 -71.27,37.734 -106.91,56.601 -28.23,-35.234 -56.46,-70.469 -84.7,-105.703 -80.04,-19.473 -152.5,-57.941 -215.78,-119.328"
             style="fill:#73ba25;fill-opacity:1;fill-rule:nonzero;stroke:none"
             id="path2640" />
        </g>
      </g>
      <g
         style="fill:#005600;fill-opacity:1"
         transform="matrix(0.125,0,0,-0.125,-626.28042,342.08636)"
         id="g2642">
        <g
           style="fill:#005600;fill-opacity:1"
           id="g2644"
           clip-path="url(#clipPath2646)">
          <path
             inkscape:connector-curvature="0"
             d="M 4967.75,390.078 C 5554,390.078 6029.44,258.641 6029.44,150.945 6029.44,43.2422 5554,0 4967.75,0 4958.8,0 4949.9,0.0195312 4941.02,0.0507812 4932.14,0.0195312 4923.24,0 4914.3,0 4328.04,0 3852.6,43.2422 3852.6,150.945 c 0,107.696 475.44,239.133 1061.7,239.133 8.94,0 17.84,-0.027 26.72,-0.098 8.88,0.071 17.78,0.098 26.73,0.098"
             style="fill:#005600;fill-opacity:1;fill-rule:nonzero;stroke:none"
             id="path2656" />
        </g>
      </g>
      <g
         style="fill:#ffffff"
         transform="matrix(0.125,0,0,-0.125,-626.28042,342.08636)"
         id="g2834">
        <g
           style="fill:#ffffff"
           id="g2836"
           clip-path="url(#clipPath2838)">
          <path
             inkscape:connector-curvature="0"
             d="m 6036.67,283.254 c 2.62,30.094 6.18,70.308 9.58,105.465 -54.2,61.742 -117.36,106.664 -186.28,128.547 -28.49,-7.383 -56.13,-19.043 -82.54,-36.946 26.11,-22.898 48.87,-49.129 67.61,-79.394 70.06,-13.574 132.07,-64.266 191.63,-117.672"
             style="fill:#0093dd;fill-opacity:1;fill-rule:nonzero;stroke:none"
             id="path2848" />
        </g>
      </g>
      <g
         style="fill:#73ba25;stroke:#ffffff;stroke-width:40;stroke-miterlimit:4;stroke-dasharray:none"
         transform="matrix(0.125,0,0,-0.125,-626.28042,342.08636)"
         id="g2850">
        <g
           style="fill:#73ba25;stroke:#ffffff;stroke-width:40;stroke-miterlimit:4;stroke-dasharray:none"
           id="g2852"
           clip-path="url(#clipPath2854)">
          <path
             inkscape:connector-curvature="0"
             d="m 5061.99,1821.17 0.01,-0.02 c 0,0 25,-45.71 431.09,-102.37 92.68,-12.94 166.47,-19.96 227.31,-24.89 -113.9,-196.17 -248.44,-453.34 -279.26,-551.19 -37,-117.45 -75.54,-116.33 -110.17,1.58 l -268.98,676.89 0,0 z m -241.94,0 0,-0.02 c 0,0 -25,-45.71 -431.1,-102.37 -92.68,-12.94 -166.46,-19.96 -227.31,-24.89 113.9,-196.17 248.44,-453.34 279.26,-551.19 37,-117.45 75.55,-116.33 110.17,1.58 l 268.98,676.89 0,0 z m -860.14,-147.21 c -68.16,-13.21 -120.05,-39.13 -197.39,-104.71 -63.26,-53.66 -78.13,-141.14 -71.19,-231.27 86.64,-153.82 184.31,-335.01 208.12,-373.136 39.36,-62.961 74.67,-101.711 85.68,-19.168 7.88,59.124 -12.83,479.504 -25.22,728.284 l 0,0 z m 1962.23,0 c 68.15,-13.21 120.06,-39.13 197.38,-104.71 63.27,-53.66 78.13,-141.14 71.19,-231.27 -86.64,-153.82 -184.3,-335.01 -208.12,-373.136 -39.35,-62.961 -74.67,-101.711 -85.68,-19.168 -7.87,59.124 12.84,479.504 25.23,728.284"
             style="fill:#73ba25;fill-opacity:1;fill-rule:nonzero;stroke:#ffffff;stroke-width:40;stroke-miterlimit:4;stroke-dasharray:none"
             id="path2864" />
        </g>
      </g>
      <g
         style="fill:#ffffff"
         transform="matrix(0.125,0,0,-0.125,-626.28042,342.08636)"
         id="g2866">
        <g
           style="fill:#ffffff"
           id="g2868"
           clip-path="url(#clipPath2870)">
          <path
             inkscape:connector-curvature="0"
             d="m 5235.84,577.793 c 29.6,20.703 59.21,41.395 88.82,62.098 90.66,-7.657 181.32,-20.039 271.98,-45.594 28.56,-28.555 57.12,-57.121 85.68,-85.676 -27.52,-13.691 -55.02,-30.035 -82.53,-51.101 -88.51,22.761 -180.85,33.945 -276.69,34.589 -29.1,28.567 -58.18,57.118 -87.26,85.684"
             style="fill:#0093dd;fill-opacity:1;fill-rule:nonzero;stroke:none"
             id="path2880" />
        </g>
      </g>
      <g
         transform="matrix(0.125,0,0,-0.125,-626.28042,342.08636)"
         id="g2904">
        <g
           id="g2906"
           clip-path="url(#clipPath2908)">
          <path
             inkscape:connector-curvature="0"
             d="m 5851.94,1745.54 c -52.71,-113.56 -108.99,-158.41 -136.93,-253.41 -31.1,-105.8 89.87,-133.88 116.47,-31.49 24.88,95.7 1.07,169.5 20.46,284.9"
             style="fill:#73ba25;fill-opacity:1;fill-rule:nonzero;stroke:none"
             id="path2924" />
        </g>
      </g>
      <g
         style="fill:#e6e6e6"
         transform="matrix(0.125,0,0,-0.125,-626.28042,342.08636)"
         id="g2970">
        <g
           style="fill:#e6e6e6"
           id="g2972"
           clip-path="url(#clipPath2974)">
          <path
             inkscape:connector-curvature="0"
             d="m 4914.3,448.586 c -573.57,0 -1040.98,-132.492 -1060.95,-244.438 l -0.1,-0.039 -0.02,-0.523 c -0.38,-2.285 -0.63,-4.574 -0.63,-6.848 0,-1.418 0.09,-2.824 0.23,-4.218 -0.45,-13.711 -1.02,-35.45 -0.23,-41.575 0,37.832 58.73,78.606 160.33,115.578 l 0.97,0.352 c 3.5,1.27 7.05,2.539 10.66,3.801 l 0.92,0.32 c 14.9,5.203 30.65,10.32 47.22,15.344 l 1.84,0.555 c 3.67,1.113 7.4,2.214 11.15,3.308 l 2.86,0.832 c 3.67,1.074 7.37,2.129 11.12,3.184 l 2.86,0.808 c 16.38,4.571 33.43,9.055 51.12,13.43 l 5.74,1.406 c 3.2,0.782 6.43,1.563 9.68,2.332 l 6.77,1.594 c 3.3,0.781 6.61,1.543 9.95,2.313 l 6.5,1.476 c 3.54,0.801 7.1,1.602 10.69,2.391 l 1.78,0.383 c 8.31,1.824 16.74,3.621 25.28,5.402 1.96,0.398 3.91,0.808 5.89,1.211 3.61,0.738 7.25,1.461 10.89,2.195 2.28,0.457 4.57,0.918 6.85,1.367 3.87,0.762 7.78,1.512 11.68,2.266 l 6.33,1.211 c 3.78,0.711 7.57,1.426 11.39,2.129 2.85,0.527 5.71,1.043 8.57,1.562 3.32,0.594 6.62,1.2 9.97,1.797 6.08,1.074 12.2,2.149 18.38,3.192 1.97,0.332 3.97,0.664 5.97,0.996 4.42,0.746 8.86,1.484 13.32,2.218 2.98,0.481 5.97,0.957 8.97,1.438 3.73,0.594 7.48,1.187 11.25,1.773 l 8.92,1.379 c 3.88,0.598 7.78,1.172 11.69,1.758 2.96,0.438 5.93,0.879 8.91,1.316 4.12,0.598 8.28,1.184 12.43,1.778 2.79,0.39 5.56,0.793 8.37,1.183 6.66,0.918 13.36,1.836 20.11,2.723 l 6.77,0.883 c 4.79,0.613 9.58,1.226 14.41,1.844 2.93,0.363 5.87,0.722 8.81,1.082 4.21,0.519 8.43,1.027 12.67,1.535 l 9.64,1.133 c 4.39,0.507 8.81,1.004 13.22,1.504 2.69,0.3 5.39,0.605 8.1,0.898 5.27,0.586 10.57,1.141 15.88,1.699 2.26,0.235 4.51,0.477 6.77,0.711 7.27,0.754 14.57,1.485 21.92,2.188 2.37,0.226 4.74,0.441 7.11,0.664 4.98,0.48 9.97,0.937 15,1.398 3.18,0.281 6.36,0.567 9.54,0.84 4.71,0.41 9.43,0.82 14.17,1.219 l 8.94,0.734 c 4.82,0.391 9.69,0.781 14.54,1.152 2.98,0.235 5.94,0.458 8.93,0.684 5.79,0.438 11.62,0.848 17.45,1.262 2.01,0.144 4.02,0.289 6.04,0.426 7.6,0.531 15.25,1.027 22.91,1.496 2.75,0.175 5.51,0.332 8.26,0.496 5.37,0.324 10.76,0.636 16.17,0.949 l 8.2,0.437 c 5.26,0.286 10.55,0.559 15.83,0.821 l 9.73,0.469 c 5.24,0.246 10.51,0.488 15.78,0.703 l 7.91,0.351 c 7.27,0.293 14.58,0.567 21.91,0.832 l 2.91,0.106 c 8.34,0.285 16.69,0.547 25.08,0.785 l 5.83,0.144 c 6.12,0.164 12.25,0.313 18.4,0.45 l 9.47,0.195 c 5.38,0.098 10.79,0.195 16.2,0.273 l 9.21,0.137 c 5.66,0.066 11.33,0.125 17,0.176 2.79,0.027 5.57,0.058 8.36,0.078 8.41,0.051 16.84,0.078 25.3,0.078 8.85,0 17.68,-0.019 26.48,-0.09 l 0.48,0 c 8.8,0.071 17.63,0.09 26.49,0.09 8.45,0 16.88,-0.027 25.29,-0.078 2.79,-0.02 5.57,-0.051 8.37,-0.078 5.67,-0.051 11.34,-0.11 17,-0.176 l 9.22,-0.137 c 5.4,-0.078 10.8,-0.175 16.19,-0.273 l 9.47,-0.195 c 6.14,-0.137 12.28,-0.286 18.39,-0.45 l 5.83,-0.144 c 8.39,-0.238 16.75,-0.5 25.08,-0.785 l 2.92,-0.106 c 7.32,-0.265 14.63,-0.539 21.9,-0.832 l 7.91,-0.351 c 5.28,-0.215 10.54,-0.457 15.79,-0.703 l 9.72,-0.469 c 5.29,-0.262 10.57,-0.535 15.83,-0.821 l 8.22,-0.437 c 5.39,-0.313 10.78,-0.625 16.16,-0.949 2.75,-0.164 5.5,-0.321 8.25,-0.496 7.67,-0.469 15.31,-0.965 22.91,-1.496 2.03,-0.137 4.03,-0.282 6.05,-0.426 5.82,-0.414 11.65,-0.824 17.44,-1.262 2.99,-0.226 5.96,-0.449 8.93,-0.684 4.86,-0.371 9.72,-0.761 14.55,-1.152 l 8.94,-0.734 c 4.73,-0.399 9.45,-0.809 14.16,-1.219 3.18,-0.273 6.37,-0.559 9.54,-0.84 5.03,-0.461 10.02,-0.918 15.01,-1.398 2.36,-0.223 4.73,-0.438 7.1,-0.664 7.34,-0.703 14.65,-1.434 21.92,-2.188 2.27,-0.234 4.51,-0.476 6.77,-0.711 5.31,-0.558 10.61,-1.113 15.89,-1.699 2.7,-0.293 5.4,-0.598 8.09,-0.898 4.42,-0.5 8.83,-0.997 13.21,-1.504 l 9.65,-1.133 c 4.24,-0.508 8.46,-1.016 12.67,-1.535 2.94,-0.36 5.89,-0.719 8.81,-1.082 4.83,-0.618 9.63,-1.231 14.41,-1.844 l 6.77,-0.883 c 6.75,-0.887 13.45,-1.805 20.11,-2.723 2.81,-0.39 5.58,-0.793 8.38,-1.183 4.15,-0.594 8.3,-1.18 12.42,-1.778 2.99,-0.437 5.96,-0.878 8.91,-1.316 3.92,-0.586 7.82,-1.16 11.69,-1.758 l 8.92,-1.379 c 3.77,-0.586 7.51,-1.179 11.25,-1.773 3,-0.481 6,-0.957 8.98,-1.438 4.46,-0.734 8.89,-1.472 13.32,-2.218 1.99,-0.332 3.99,-0.664 5.97,-0.996 6.17,-1.043 12.29,-2.118 18.37,-3.192 3.35,-0.597 6.65,-1.203 9.97,-1.797 2.86,-0.519 5.73,-1.035 8.58,-1.562 3.81,-0.703 7.6,-1.418 11.38,-2.129 l 6.33,-1.211 c 3.92,-0.754 7.81,-1.504 11.68,-2.266 2.29,-0.449 4.57,-0.91 6.84,-1.367 3.65,-0.734 7.3,-1.457 10.9,-2.195 1.98,-0.403 3.93,-0.813 5.89,-1.211 8.55,-1.781 16.98,-3.578 25.29,-5.402 l 1.77,-0.383 c 3.6,-0.789 7.15,-1.59 10.7,-2.391 l 6.49,-1.476 c 3.34,-0.77 6.66,-1.532 9.95,-2.313 l 6.77,-1.594 c 3.25,-0.769 6.48,-1.55 9.69,-2.332 l 5.73,-1.406 c 17.7,-4.375 34.75,-8.859 51.12,-13.43 l 2.87,-0.808 c 3.74,-1.055 7.44,-2.11 11.13,-3.184 l 2.84,-0.832 c 3.75,-1.094 7.48,-2.195 11.15,-3.308 l 1.86,-0.555 c 16.55,-5.024 32.3,-10.141 47.2,-15.344 l 0.92,-0.32 c 3.61,-1.262 7.17,-2.531 10.67,-3.801 l 0.97,-0.352 c 101.59,-36.972 160.32,-77.746 160.32,-115.578 0.79,6.125 0.23,27.864 -0.23,41.575 0.15,1.394 0.23,2.8 0.23,4.218 0,2.274 -0.25,4.563 -0.63,6.848 l -0.02,0.523 -0.09,0.039 c -19.98,111.946 -487.38,244.438 -1060.95,244.438 -8.95,0 -17.85,-0.031 -26.73,-0.109 -8.88,0.078 -17.78,0.109 -26.72,0.109"
             style="fill:#e6e6e6;fill-opacity:1;fill-rule:nonzero;stroke:none"
             id="path2984" />
        </g>
      </g>
      <g
         style="fill:#e6e6e6"
         transform="matrix(0.125,0,0,-0.125,-626.28042,342.08636)"
         id="g3230">
        <g
           style="fill:#e6e6e6"
           id="g3232"
           clip-path="url(#clipPath3234)">
          <path
             inkscape:connector-curvature="0"
             d="m 3829.28,453.719 c -2.38,22.531 -4.83,44.511 -7.3,64.961 122.31,95.254 279.88,161.535 467.52,203.125 188.44,41.781 407.4,58.672 651.52,55.109 244.12,3.563 463.08,-13.328 651.52,-55.109 187.64,-41.59 345.21,-107.871 467.52,-203.125 -2.47,-20.45 -4.92,-42.43 -7.29,-64.961 l -13.73,11.562 -0.04,-0.027 c -117.28,95.5 -271.96,161.66 -458.31,202.961 -184.3,40.855 -399.34,57.351 -639.67,53.805 -240.33,3.546 -455.37,-12.95 -639.67,-53.805 -186.34,-41.301 -341.02,-107.461 -458.31,-202.961 l -0.02,0.027 -13.74,-11.562"
             style="fill:#e6e6e6;fill-opacity:1;fill-rule:nonzero;stroke:none"
             id="path3250" />
        </g>
      </g>
      <g
         style="fill:#ffffff"
         transform="matrix(0.125,0,0,-0.125,-626.28042,342.08636)"
         id="g3252">
        <g
           style="fill:#ffffff"
           id="g3254"
           clip-path="url(#clipPath3256)">
          <path
             inkscape:connector-curvature="0"
             d="m 4941.02,503.074 -121.1,5.547 c -24.1,23.574 -48.2,47.16 -72.31,70.742 27.77,24.629 55.54,49.258 83.32,73.891 l 220.18,0 c 27.78,-24.633 55.55,-49.262 83.32,-73.891 -24.1,-23.582 -48.21,-47.168 -72.31,-70.742 l -121.1,-5.547"
             style="fill:#0093dd;fill-opacity:1;fill-rule:nonzero;stroke:none"
             id="path3266" />
        </g>
      </g>
      <g
         style="fill:#ffffff"
         transform="matrix(0.125,0,0,-0.125,-626.28042,342.08636)"
         id="g3268">
        <g
           style="fill:#ffffff"
           id="g3270"
           clip-path="url(#clipPath3272)">
          <path
             inkscape:connector-curvature="0"
             d="m 3845.37,283.254 c -2.62,30.094 -6.18,70.308 -9.57,105.465 54.19,61.742 117.35,106.664 186.27,128.547 28.5,-7.383 56.13,-19.043 82.54,-36.946 -26.1,-22.898 -48.87,-49.129 -67.61,-79.394 -70.06,-13.574 -132.07,-64.266 -191.63,-117.672"
             style="fill:#0093dd;fill-opacity:1;fill-rule:nonzero;stroke:none"
             id="path3282" />
        </g>
      </g>
      <g
         style="fill:#ffffff"
         transform="matrix(0.125,0,0,-0.125,-626.28042,342.08636)"
         id="g3284">
        <g
           style="fill:#ffffff"
           id="g3286"
           clip-path="url(#clipPath3288)">
          <path
             inkscape:connector-curvature="0"
             d="m 4646.2,577.793 c -29.6,20.703 -59.21,41.395 -88.82,62.098 -90.66,-7.657 -181.31,-20.039 -271.98,-45.594 -28.55,-28.555 -57.12,-57.121 -85.68,-85.676 27.51,-13.691 55.03,-30.035 82.54,-51.101 88.5,22.761 180.85,33.945 276.69,34.589 29.09,28.567 58.17,57.118 87.25,85.684"
             style="fill:#0093dd;fill-opacity:1;fill-rule:nonzero;stroke:none"
             id="path3298" />
        </g>
      </g>
      <g
         style="fill:#73ba25"
         transform="matrix(0.125,0,0,-0.125,-626.28042,342.08636)"
         id="g3322">
        <g
           style="fill:#73ba25"
           id="g3324"
           clip-path="url(#clipPath3326)">
          <path
             inkscape:connector-curvature="0"
             d="m 4030.1,1745.54 c 52.72,-113.56 109,-158.41 136.93,-253.41 31.11,-105.8 -89.85,-133.88 -116.47,-31.49 -24.88,95.7 -1.07,169.5 -20.46,284.9"
             style="fill:#73ba25;fill-opacity:1;fill-rule:nonzero;stroke:none"
             id="path3342" />
        </g>
      </g>
      <path
         inkscape:connector-curvature="0"
         d="m -17.859575,227.05546 0.0877,-0.008 0.0142,-0.10396 c -0.0226,-0.0816 -0.0754,-0.15494 -0.15717,-1.16657 -0.0694,-0.89534 -0.21013,-3.35065 1.02571,-4.56822 0.4794,-0.47518 1.21142,-0.89739 1.78875,-1.03396 2.3677,-0.57718 5.4410797,-0.17747 8.0657497,2.85727 1.35433,1.56822 2.01914,2.28406 2.35154,2.60425 l 0.11409,0.10601 0.13878,0.0999 c 0.10803,0.0612 4.51099996,2.08835 4.51099996,2.08835 l 0.0897,-0.0225 0.003,-0.0957 c -0.0285,-0.0326 -2.78976996,-3.59974 -2.30048996,-6.53842 0.38754,-2.34123 2.25140996,-2.13117 4.82729,-1.83757 0.84225,0.0958 1.8008,0.20599 2.792,0.22847 2.76725,0.0163 5.7490803,-0.49147 7.5866503,-1.29507 1.18892,-0.51998 1.94753,-0.8627 2.42283,-1.29506 0.17111,-0.14069 0.26079,-0.37312 0.35267,-0.61791 l 0.0634,-0.16509 c 0.0774,-0.19791 0.1895,-0.62204 0.23865,-0.85255 0.0226,-0.10184 0.0326,-0.21214 -0.039,-0.2671 l -0.2548,0.0468 c -0.80547,0.48338 -2.82271,1.4052 -4.71098,1.44194 -2.3391903,0.0489 -7.0542703,-2.3536 -7.5457703,-2.60853 l -0.0469,-0.055 c -0.11848,-0.28155 -0.82607,-1.9559 -0.975,-2.30858 3.39374,2.23509 6.20788,3.47107 8.3636003,3.66276 2.39843,0.21406 4.26863,-1.09511 5.06807,-1.6541 0.15685,-0.106 0.27536,-0.1917 0.32418,-0.20994 l 0.051,-0.0836 c -0.13278,-0.84226 -1.38695,-4.92107 -2.33314,-5.90006 -0.26301,-0.26918 -0.47311,-0.53014 -0.89739,-0.77903 -3.4282803,-1.99856 -11.5675303,-3.20601 -11.9487203,-3.26097 l -0.0653,0.0184 -0.0244,0.0571 c 0,0 -0.0307,1.68862 -0.0349,1.87636 -0.83212004,-0.27742 -6.87461,-2.22921 -12.5403797,-2.42693 -4.8025,-0.16926 -11.36341,-0.39773 -20.63453,5.30034 l -0.27334,0.17125 c -4.36019,2.72055 -7.37037,6.07342 -8.94473,9.97272 -0.49355,1.22567 -1.15835,3.99326 -0.50181,6.59749 0.28551,1.14014 0.81375,2.28215 1.52767,3.30597 1.6091,2.31259 4.31125,3.84846 7.22145,4.10732 4.10733,0.367 7.21953,-1.47851 8.32684,-4.93341 0.76065,-2.38402 0,-5.88152 -2.91637,-7.666 -2.37184,-1.45412 -4.9252,-1.12173 -6.40375,-0.14482 -1.28478,0.8524 -2.01279,2.17392 -1.99854,3.62808 0.0285,2.57572 2.24951,3.9462 3.84433,3.94827 0.46486,0 0.92987,-0.0795 1.45607,-0.25078 0.18569,-0.0572 0.36299,-0.12642 0.55673,-0.24685 l 0.0592,-0.0386 0.0386,-0.0224 -0.0143,0.006 c 0.36505,-0.24479 0.58527,-0.64849 0.58527,-1.08089 0,-0.11833 -0.0185,-0.23861 -0.051,-0.359 -0.18757,-0.65055 -0.83213,-1.04616 -1.50105,-0.92387 l -0.0897,0.0185 -0.12234,0.0407 -0.17744,0.0592 c -0.36711,0.0918 -0.64451,0.0979 -0.70158,0.0998 -0.18756,-0.0122 -1.10745,-0.2874 -1.10745,-1.2949 l 0,-0.0122 c 0.003,-0.36917 0.15097,-0.6282 0.23256,-0.7689 0.28346,-0.44869 1.06662,-0.88916 2.12497,-0.79537 1.38697,0.11821 2.38621,0.83006 3.04897,2.17201 0.61601,1.24801 0.45491,2.78171 -0.41399,3.9074 -0.86269,1.11573 -2.39828,1.58882 -4.44182,1.36634 -2.05983,-0.22627 -3.80137,-1.4112 -4.77625,-3.25683 -0.95443,-1.80287 -1.00753,-3.94224 -0.13658,-5.58586 2.08631,-3.93609 6.02428,-3.89537 8.1841,-3.52208 3.19776,0.55262 6.09985,3.11203 7.39079,6.51593 0.20597,0.54249 0.31196,0.97279 0.40369,1.36431 l 0.13878,0.58939 3.6116,1.76402 0.0491,0.0347 8e-5,-4e-5 z M 7.8124247,207.84428 c -0.68097,0.63214 -1.07074,1.49484 -1.10335,2.42487 -0.0631,1.91693 1.44207,3.5322 3.3588803,3.60369 0.93414,0.0306 1.81914,-0.29788 2.49822,-0.93416 0.67907,-0.63423 1.06881,-1.49484 1.10339,-2.42283 0.0653,-1.91901 -1.43988,-3.53631 -3.3608,-3.60557 -0.9300003,-0.0305 -1.8172703,0.29772 -2.4963403,0.934 m 2.3866003,4.98637 c -1.3638303,-0.0501 -2.4343803,-1.19976 -2.3888303,-2.56554 0.0211,-0.66124 0.30367,-1.27243 0.784,-1.72369 0.48227,-0.45112 1.11219,-0.68594 1.7734303,-0.66107 1.36577,0.0478 2.43663,1.19556 2.39075,2.56342 -0.0208,0.65915 -0.29946,1.27032 -0.78174,1.72352 -0.48455,0.44917 -1.11444,0.68403 -1.77765,0.66336 l 4e-5,0 z m 0.574,-2.24346 c 0.60699,0 1.09959,-0.32837 1.09959,-0.73166 0,-0.40541 -0.49263,-0.73395 -1.09959,-0.73395 -0.60728,0 -1.0979503,0.32854 -1.0979503,0.73395 0,0.40329 0.4906703,0.73166 1.0979503,0.73166"
         style="fill:#ffffff;fill-opacity:1;fill-rule:evenodd;stroke:none"
         id="path13349" />
    </g>
    <g
       transform="translate(212.15279,-151.55016)"
       id="g25642">
      <path
         style="fill:#ff0000;fill-rule:evenodd"
         inkscape:connector-curvature="0"
         class="fil0"
         d="m 138.19193,789.73922 c 29.94894,0 54.45245,-24.50351 54.45245,-54.45245 V 670.5828 H 83.735681 v 64.70397 c 0,29.94894 24.503509,54.45245 54.452449,54.45245 z"
         id="path25644" />
      <path
         style="fill:#ffffff;fill-rule:evenodd"
         inkscape:connector-curvature="0"
         class="fil1"
         d="m 138.19193,788.86521 c 29.37799,0 53.41409,-24.0361 53.41409,-53.41409 V 671.62781 H 84.777837 v 63.82331 c 0,29.37799 24.036103,53.41409 53.414093,53.41409 z"
         id="path25646" />
      <path
         style="fill:#ffffff;fill-rule:evenodd"
         inkscape:connector-curvature="0"
         class="fil1"
         d="m 138.14823,786.6897 c 28.25983,0 51.38108,-23.12125 51.38108,-51.38108 v -61.6668 H 86.76715 v 61.6668 c 0,28.25983 23.12125,51.38108 51.38108,51.38108 z"
         id="path25648" />
      <polygon
         style="fill:#ff0000;fill-rule:evenodd"
         points="36757,85014 36757,61242 15119,61242 15119,85014 "
         class="fil0"
         id="polygon25650"
         transform="matrix(9.5000609e-4,0,0,9.5000609e-4,72.404008,615.4606)" />
      <polygon
         style="fill:#ff0000;fill-rule:evenodd"
         points="36757,85014 36757,108790 58395,108790 58395,85014 "
         class="fil0"
         id="polygon25652"
         transform="matrix(9.5000609e-4,0,0,9.5000609e-4,72.404008,615.4606)" />
      <path
         style="fill:#ff0000;fill-rule:evenodd"
         inkscape:connector-curvature="0"
         class="fil0"
         d="m 86.7681,735.33237 c 9.5e-4,2.05106 0.126351,4.07362 0.363852,6.06294 H 107.32338 V 718.81176 H 86.76715 v 16.52061 z"
         id="path25654" />
      <polygon
         style="fill:#ff0000;fill-rule:evenodd"
         points="80033,132560 80033,108790 58395,108790 58395,132560 "
         class="fil0"
         id="polygon25656"
         transform="matrix(9.5000609e-4,0,0,9.5000609e-4,72.404008,615.4606)" />
      <polygon
         style="fill:#ff0000;fill-rule:evenodd"
         points="80033,132560 80033,156330 101670,156330 101670,132560 "
         class="fil0"
         id="polygon25658"
         transform="matrix(9.5000609e-4,0,0,9.5000609e-4,72.404008,615.4606)" />
      <path
         style="fill:#ff0000;fill-rule:evenodd"
         inkscape:connector-curvature="0"
         class="fil0"
         d="m 168.99113,776.33463 c 4.55718,-3.43997 8.53105,-7.6181 11.73542,-12.35293 h -11.73542 v 12.35293 z"
         id="path25660" />
      <polygon
         style="fill:#ff0000;fill-rule:evenodd"
         points="36757,132560 36757,156330 58395,156330 58395,132560 "
         class="fil0"
         id="polygon25662"
         transform="matrix(9.5000609e-4,0,0,9.5000609e-4,72.404008,615.4606)" />
      <path
         style="fill:#ff0000;fill-rule:evenodd"
         inkscape:connector-curvature="0"
         class="fil0"
         d="m 95.568956,763.97505 c 3.209121,4.74243 7.189644,8.92531 11.755374,12.36813 V 763.97505 H 95.568956 z"
         id="path25664" />
      <path
         style="fill:#ff0000;fill-rule:evenodd"
         inkscape:connector-curvature="0"
         class="fil0"
         d="m 141.7383,786.5567 c 2.27527,-0.15865 4.51158,-0.46551 6.69755,-0.91391 v -21.66964 h -20.55624 v 21.67344 c 2.18027,0.4465 4.40993,0.75146 6.67855,0.91011 2.39306,0.1482 4.78708,0.13965 7.18014,0 z"
         id="path25666" />
      <path
         style="fill:#ff0000;fill-rule:evenodd"
         inkscape:connector-curvature="0"
         class="fil0"
         d="m 189.15976,741.39341 c 0.23845,-1.99692 0.3648,-4.02708 0.3648,-6.08479 v -16.49876 h -20.53723 v 22.58355 h 20.17243 z"
         id="path25668" />
      <polygon
         style="fill:#ff0000;fill-rule:evenodd"
         points="80033,85014 80033,108790 101670,108790 101670,85014 "
         class="fil0"
         id="polygon25670"
         transform="matrix(9.5000609e-4,0,0,9.5000609e-4,72.404008,615.4606)" />
      <polygon
         style="fill:#ff0000;fill-rule:evenodd"
         points="80033,85014 80033,61242 58395,61242 58395,85014 "
         class="fil0"
         id="polygon25672"
         transform="matrix(9.5000609e-4,0,0,9.5000609e-4,72.404008,615.4606)" />
      <polygon
         style="fill:#ff0000;fill-rule:evenodd"
         points="101670,85014 123290,85014 123290,61242 101670,61242 "
         class="fil0"
         id="polygon25674"
         transform="matrix(9.5000609e-4,0,0,9.5000609e-4,72.404008,615.4606)" />
      <path
         id="path25676"
         d="m 138.19142,773.97188 c 22.02298,0 40.04166,-18.01866 40.04166,-40.04163 l 0,-42.02427 -80.086097,0 0,42.02427 c 0,22.02297 18.018677,40.04163 40.041657,40.04163 z"
         class="fil0"
         inkscape:connector-curvature="0"
         style="fill:#ff0000;fill-rule:evenodd"
         sodipodi:nodetypes="ssccsss" />
      <path
         sodipodi:nodetypes="ssccss"
         clip-path="none"
         style="fill:#ffffff;fill-rule:evenodd"
         inkscape:connector-curvature="0"
         class="fil1"
         d="m 138.14823,772.54566 c 21.18834,0 38.52394,-17.3356 38.52394,-38.52395 l 0,-40.68001 -77.047877,0 0,40.68001 c 0,21.18835 17.335597,38.52395 38.523937,38.52395 z"
         id="path25678" />
      <g
         style="fill:#73ba25"
         transform="matrix(0.53225079,0,0,0.53225079,67.926152,777.45332)"
         inkscape:label="Layer 1"
         id="g25680">
        <path
           inkscape:connector-curvature="0"
           style="font-size:20.48839951px;fill:#73ba25;fill-opacity:1;fill-rule:evenodd;stroke:none;font-family:TrebuchetMS-Bold"
           d="m 132.25144,-152.83563 c -38.570678,0 -69.843748,31.26951 -69.843748,69.843751 0,38.57424 31.273072,69.84375 69.843748,69.84375 38.57068,0 69.84374,-31.26951 69.84375,-69.84375 0,-38.574241 -31.27307,-69.843751 -69.84375,-69.843751 z m 0.33443,9.67265 c 33.23352,0 60.19682,26.94115 60.19682,60.171101 0,33.23353 -26.96686,60.1711 -60.19682,60.1711 -17.94482,0 -34.047201,-7.86473 -45.070443,-20.32286 4.532491,-3.51775 12.115629,-2.65954 21.454763,-1.59496 4.47553,0.50915 9.57746,1.09159 14.84341,1.20908 14.71189,0.0855 30.54133,-2.5996 40.31129,-6.86861 6.31629,-2.77006 10.36035,-4.59427 12.88829,-6.89434 0.91149,-0.7477 1.39015,-1.99679 1.87794,-3.29281 l 0.33442,-0.87466 c 0.40946,-1.04678 0.99706,-3.29926 1.26053,-4.52762 0.1175,-0.53764 0.17517,-1.1158 -0.2058,-1.41489 l -1.36343,0.25726 c -4.28682,2.57066 -14.99713,7.4667 -25.03056,7.66609 -12.43319,0.25991 -37.49209,-12.51643 -40.10549,-13.86585 l -0.25725,-0.3087 c -0.62664,-1.49541 -4.37677,-10.39808 -5.17075,-12.270896 18.03739,11.877766 32.99186,18.452076 44.45304,19.473926 12.74296,1.13224 22.683,-5.82499 26.93421,-8.79799 0.8296,-0.56612 1.46367,-1.01005 1.72359,-1.10618 l 0.28298,-0.46306 c -0.70498,-4.47909 -7.39073,-26.153521 -12.42525,-31.358941 -1.39571,-1.42775 -2.50536,-2.81725 -4.75915,-4.14175 -18.22253,-10.62091 -61.48945,-17.0175 -63.51536,-17.31301 l -0.33443,0.1029 -0.12862,0.28297 c 0,0 -0.16228,8.98442 -0.18008,9.98136 -1.484721,-0.49135 -6.088484,-1.9986 -12.682492,-3.80732 8.603733,-10.64585 21.789032,-20.09134 44.864642,-20.09134 z m 15.89813,31.84772 c 0.30705,-0.005 0.61701,-0.0102 0.92611,0 10.20789,0.36673 18.22788,8.96446 17.87897,19.165232 -0.18159,4.934825 -2.26212,9.494349 -5.86533,12.862569 -3.6139,3.38602 -8.31087,5.1509 -13.27417,4.99068 -10.1901,-0.38097 -18.2101,-8.978697 -17.87897,-19.165231 0.17446,-4.941948 2.26648,-9.53076 5.89105,-12.88829 3.38468,-3.17439 7.71664,-4.89584 12.32234,-4.96496 z m -0.48878,5.45373 c -2.97293,0.18075 -5.77842,1.38788 -7.97479,3.44717 -2.50301,2.34992 -3.97993,5.531534 -4.0903,8.978075 -0.23499,7.120959 5.33713,13.113596 12.45097,13.377076 3.45722,0.10681 6.73667,-1.10438 9.26105,-3.447173 2.51726,-2.360599 3.98349,-5.571496 4.0903,-9.003798 0.23855,-7.131643 -5.35929,-13.10211 -12.47669,-13.35135 -0.43082,-0.016 -0.83583,-0.0258 -1.26054,0 z m 3.39572,6.457013 c 3.16171,0 5.71099,1.718121 5.71098,3.833045 0,2.104248 -2.54927,3.833044 -5.71098,3.833046 -3.17239,0 -5.7367,-1.732365 -5.7367,-3.833046 0,-2.114922 2.56431,-3.833043 5.7367,-3.833045 z"
           id="path25682" />
      </g>
    </g>
  </g>
</svg>
