<?xml version="1.0" encoding="UTF-8" standalone="no"?>
<!-- Created with Inkscape (http://www.inkscape.org/) -->

<svg
   xmlns:dc="http://purl.org/dc/elements/1.1/"
   xmlns:cc="http://creativecommons.org/ns#"
   xmlns:rdf="http://www.w3.org/1999/02/22-rdf-syntax-ns#"
   xmlns:svg="http://www.w3.org/2000/svg"
   xmlns="http://www.w3.org/2000/svg"
   xmlns:sodipodi="http://sodipodi.sourceforge.net/DTD/sodipodi-0.dtd"
   xmlns:inkscape="http://www.inkscape.org/namespaces/inkscape"
   width="744.09448819"
   height="1052.3622047"
   id="svg2"
   version="1.1"
   inkscape:version="0.48.2 r9819"
   sodipodi:docname="Logo_Proposal2.svg"
   inkscape:export-filename="/Users/josh-andy/Documents/artwork/Marketing Materials/Events/openSUSE Conference/2014-oS-Conference/Logo_Proposal3.png"
   inkscape:export-xdpi="75"
   inkscape:export-ydpi="75">
  <defs
     id="defs4" />
  <sodipodi:namedview
     id="base"
     pagecolor="#ffffff"
     bordercolor="#666666"
     borderopacity="1.0"
     inkscape:pageopacity="0"
     inkscape:pageshadow="2"
     inkscape:zoom="1.086128"
     inkscape:cx="196.65354"
     inkscape:cy="526.18109"
     inkscape:document-units="px"
     inkscape:current-layer="layer1"
     showgrid="false"
     inkscape:window-width="2560"
     inkscape:window-height="1331"
     inkscape:window-x="0"
     inkscape:window-y="0"
     inkscape:window-maximized="1" />
  <metadata
     id="metadata7">
    <rdf:RDF>
      <cc:Work
         rdf:about="">
        <dc:format>image/svg+xml</dc:format>
        <dc:type
           rdf:resource="http://purl.org/dc/dcmitype/StillImage" />
        <dc:title></dc:title>
      </cc:Work>
    </rdf:RDF>
  </metadata>
  <g
     inkscape:label="Layer 1"
     inkscape:groupmode="layer"
     id="layer1">
    <g
       style="fill:#ffffff;stroke:#fe0000;stroke-width:0.91081970999999995;stroke-opacity:1"
       transform="matrix(1.3303479,0,0,1.3303479,-388.16867,149.47455)"
       inkscape:label="Layer 1"
       id="g4935" />
    <g
       id="g4958"
       transform="translate(50.445402,175.36471)">
      <g
         transform="matrix(1.4736775,0,0,1.4736775,-193.34515,-166.11224)"
         id="g4587">
        <g
           id="g4558">
          <rect
             y="201.953"
             x="248.2"
             height="40.488255"
             width="40.488255"
             id="rect2991"
             style="fill:#5fd35f;fill-opacity:1;fill-rule:nonzero;stroke:none" />
          <rect
             y="242.44125"
             x="248.18149"
             height="40.488255"
             width="40.488255"
             id="rect2997"
             style="fill:#ffaaaa;fill-opacity:1;fill-rule:nonzero;stroke:none" />
          <rect
             style="fill:#ff0000;fill-opacity:1;fill-rule:nonzero;stroke:none"
             id="rect3904"
             width="40.488255"
             height="40.488255"
             x="248.2"
             y="201.953" />
          <rect
             style="fill:#ffffff;fill-opacity:1;fill-rule:nonzero;stroke:none"
             id="rect3910"
             width="40.488255"
             height="40.488255"
             x="248.18149"
             y="242.44125" />
          <rect
             style="fill:#ff0000;fill-opacity:1;fill-rule:nonzero;stroke:none"
             id="rect3916"
             width="40.488255"
             height="40.488255"
             x="248.2"
             y="282.9295" />
          <path
             inkscape:connector-curvature="0"
             id="rect3922"
             d="m 248.53125,323.40625 c 1.55998,14.85309 7.1233,28.64185 15.71875,40.5 l 24.40625,0 0,-40.5 -40.125,0 z"
             style="fill:#ffffff;fill-opacity:1;fill-rule:nonzero;stroke:none" />
          <path
             inkscape:connector-curvature="0"
             id="rect3928"
             d="m 264.25,363.90625 c 0.7999,1.10353 1.6173,2.21137 2.46875,3.28125 0.0181,0.0228 0.0443,0.0397 0.0625,0.0625 0.87071,1.09195 1.76462,2.16353 2.6875,3.21875 0.0538,0.0615 0.10224,0.12614 0.15625,0.1875 0.87214,0.99195 1.77052,1.94836 2.6875,2.90625 0.13793,0.1439 0.26732,0.29439 0.40625,0.4375 0.84257,0.86914 1.71508,1.72294 2.59375,2.5625 0.78909,0.75248 1.62013,1.49084 2.4375,2.21875 0.48325,0.43036 0.94458,0.85967 1.4375,1.28125 0.67991,0.5815 1.36454,1.15427 2.0625,1.71875 0.33415,0.27062 0.69301,0.51462 1.03125,0.78125 0.85132,0.67019 1.71717,1.35536 2.59375,2 0.21618,0.15914 0.43855,0.31121 0.65625,0.46875 1.0427,0.75457 2.07942,1.50143 3.15625,2.21875 l 0,-23.34375 -24.4375,0 z"
             style="fill:#ff0000;fill-opacity:1;fill-rule:nonzero;stroke:none" />
          <rect
             style="fill:#ff0000;fill-opacity:1;fill-rule:nonzero;stroke:none"
             id="rect3940"
             width="40.488255"
             height="40.488255"
             x="329.19504"
             y="201.953" />
          <rect
             y="201.953"
             x="288.70679"
             height="40.488255"
             width="40.488255"
             id="rect3942"
             style="fill:#ffffff;fill-opacity:1;fill-rule:nonzero;stroke:none" />
          <rect
             y="242.44125"
             x="288.68826"
             height="40.488255"
             width="40.488255"
             id="rect3944"
             style="fill:#ff0000;fill-opacity:1;fill-rule:nonzero;stroke:none" />
          <rect
             style="fill:#ffffff;fill-opacity:1;fill-rule:nonzero;stroke:none"
             id="rect3946"
             width="40.488255"
             height="40.488255"
             x="329.17651"
             y="242.44125" />
          <rect
             style="fill:#ff0000;fill-opacity:1;fill-rule:nonzero;stroke:none"
             id="rect3952"
             width="40.488255"
             height="40.488255"
             x="329.19504"
             y="282.9295" />
          <rect
             y="282.9295"
             x="288.70679"
             height="40.488255"
             width="40.488255"
             id="rect3954"
             style="fill:#ffffff;fill-opacity:1;fill-rule:nonzero;stroke:none" />
          <rect
             y="323.41779"
             x="288.68826"
             height="40.488255"
             width="40.488255"
             id="rect3956"
             style="fill:#ff0000;fill-opacity:1;fill-rule:nonzero;stroke:none" />
          <rect
             style="fill:#ffffff;fill-opacity:1;fill-rule:nonzero;stroke:none"
             id="rect3958"
             width="40.488255"
             height="40.488255"
             x="329.17651"
             y="323.41779" />
          <rect
             style="fill:#ff0000;fill-opacity:1;fill-rule:nonzero;stroke:none"
             id="rect3964"
             width="40.488255"
             height="40.488255"
             x="329.19504"
             y="363.90604" />
          <path
             inkscape:connector-curvature="0"
             id="rect3966"
             d="m 288.71875,363.90625 0,23.375 c 11.75966,7.82636 25.51227,13.41767 40.46875,16.09375 l 0,-39.46875 -40.46875,0 z"
             style="fill:#ffffff;fill-opacity:1;fill-rule:nonzero;stroke:none" />
          <rect
             style="fill:#ff0000;fill-opacity:1;fill-rule:nonzero;stroke:none"
             id="rect3976"
             width="40.488255"
             height="40.488255"
             x="410.19006"
             y="201.953" />
          <rect
             y="201.953"
             x="369.70181"
             height="40.488255"
             width="40.488255"
             id="rect3978"
             style="fill:#ffffff;fill-opacity:1;fill-rule:nonzero;stroke:none" />
          <rect
             y="242.44125"
             x="369.68329"
             height="40.488255"
             width="40.488255"
             id="rect3980"
             style="fill:#ff0000;fill-opacity:1;fill-rule:nonzero;stroke:none" />
          <rect
             style="fill:#ffffff;fill-opacity:1;fill-rule:nonzero;stroke:none"
             id="rect3982"
             width="40.488255"
             height="40.488255"
             x="410.17154"
             y="242.44125" />
          <rect
             style="fill:#ff0000;fill-opacity:1;fill-rule:nonzero;stroke:none"
             id="rect3988"
             width="40.488255"
             height="40.488255"
             x="410.19006"
             y="282.9295" />
          <rect
             y="282.9295"
             x="369.70181"
             height="40.488255"
             width="40.488255"
             id="rect3990"
             style="fill:#ffffff;fill-opacity:1;fill-rule:nonzero;stroke:none" />
          <rect
             y="323.41779"
             x="369.68329"
             height="40.488255"
             width="40.488255"
             id="rect3992"
             style="fill:#ff0000;fill-opacity:1;fill-rule:nonzero;stroke:none" />
          <path
             inkscape:connector-curvature="0"
             id="rect3994"
             d="m 410.15625,323.40625 0,40.5 24.3125,0 c 8.59545,-11.85815 14.15877,-25.64691 15.71875,-40.5 l -40.03125,0 z"
             style="fill:#ffffff;fill-opacity:1;fill-rule:nonzero;stroke:none" />
          <path
             inkscape:connector-curvature="0"
             id="rect4000"
             d="m 410.1875,363.90625 0,23.25 c 9.55637,-6.39073 17.77989,-14.28082 24.28125,-23.25 l -24.28125,0 z"
             style="fill:#ff0000;fill-opacity:1;fill-rule:nonzero;stroke:none" />
          <path
             inkscape:connector-curvature="0"
             id="rect4002"
             d="m 369.6875,363.90625 0,39.4375 c 14.97491,-2.70144 28.74031,-8.32331 40.5,-16.1875 l 0,-23.25 -40.5,0 z"
             style="fill:#ffffff;fill-opacity:1;fill-rule:nonzero;stroke:none" />
        </g>
        <path
           style="fill:none;stroke:#fe0000;stroke-width:0.6785745;stroke-opacity:1"
           d="m 248.16703,201.73649 c -0.003,0.30374 -0.0233,0.61004 -0.0233,0.9145 l 0,111.6318 c 0,50.03841 45.17735,90.32801 101.28617,90.32801 56.10883,0 101.28618,-40.2896 101.28618,-90.32801 l 0,-111.6318 c 0,-0.30446 -0.02,-0.61076 -0.0233,-0.9145 l -202.52574,0 z"
           id="rect4120"
           inkscape:connector-curvature="0" />
      </g>
      <g
         transform="matrix(0.93063758,0,0,0.93063758,559.03902,17.754132)"
         id="g4941">
        <path
           sodipodi:type="arc"
           style="fill:#ffffff;fill-opacity:1;fill-rule:nonzero;stroke:none"
           id="path4939"
           sodipodi:cx="-254.57405"
           sodipodi:cy="281.27441"
           sodipodi:rx="93.451233"
           sodipodi:ry="93.451233"
           d="m -161.12282,281.27441 c 0,51.61169 -41.83954,93.45124 -93.45123,93.45124 -51.61169,0 -93.45123,-41.83955 -93.45123,-93.45124 0,-51.61169 41.83954,-93.45123 93.45123,-93.45123 51.61169,0 93.45123,41.83954 93.45123,93.45123 z"
           transform="matrix(0.93103448,0,0,0.93103448,-18.116661,20.633162)" />
        <g
           id="layer1-2"
           inkscape:label="Layer 1"
           transform="matrix(1.3303479,0,0,1.3303479,-388.16867,149.47455)"
           style="fill:#44aa00;stroke:none">
          <path
             id="path2445"
             d="m 100,30.15625 c -38.57068,0 -69.84375,31.269508 -69.84375,69.84375 0,38.57424 31.273072,69.84375 69.84375,69.84375 38.57068,0 69.84374,-31.26951 69.84375,-69.84375 0,-38.57424 -31.27307,-69.84375 -69.84375,-69.84375 z m 0.33443,9.672652 c 33.23352,0 60.19682,26.941143 60.19682,60.171098 0,33.23353 -26.96686,60.1711 -60.19682,60.1711 -17.944821,0 -34.047203,-7.86473 -45.070445,-20.32286 4.532491,-3.51775 12.115629,-2.65954 21.454765,-1.59496 4.475525,0.50915 9.577453,1.09159 14.843405,1.20908 14.711895,0.0855 30.541335,-2.5996 40.311295,-6.86861 6.31629,-2.77006 10.36035,-4.59427 12.88829,-6.89434 0.91149,-0.7477 1.39015,-1.99679 1.87794,-3.29281 l 0.33442,-0.87466 c 0.40946,-1.04678 0.99706,-3.29926 1.26053,-4.52762 0.1175,-0.53764 0.17517,-1.1158 -0.2058,-1.41489 l -1.36343,0.25726 c -4.28682,2.57066 -14.99713,7.4667 -25.03056,7.66609 -12.43319,0.25991 -37.492093,-12.51643 -40.105489,-13.86585 l -0.257252,-0.3087 c -0.626644,-1.49541 -4.376768,-10.39808 -5.170752,-12.270896 18.037389,11.877766 32.991863,18.452076 44.453043,19.473926 12.74296,1.13224 22.683,-5.82499 26.93421,-8.79799 0.8296,-0.56612 1.46367,-1.01005 1.72359,-1.10618 l 0.28298,-0.46306 c -0.70498,-4.47909 -7.39073,-26.153517 -12.42525,-31.35894 -1.39571,-1.427752 -2.50536,-2.81725 -4.75915,-4.141747 C 114.08824,60.052429 70.821318,53.655843 68.795407,53.360325 l -0.334426,0.1029 -0.128626,0.282977 c 0,0 -0.162274,8.984421 -0.180076,9.981353 -1.484722,-0.491344 -6.088485,-1.998597 -12.682493,-3.80732 8.603733,-10.645844 21.789033,-20.091332 44.864644,-20.091333 z m 15.89813,31.847721 c 0.30705,-0.0046 0.61701,-0.01024 0.92611,0 10.20789,0.366729 18.22788,8.964457 17.87897,19.165228 -0.18159,4.934825 -2.26212,9.494349 -5.86533,12.862569 -3.6139,3.38602 -8.31087,5.1509 -13.27417,4.99068 -10.1901,-0.38097 -18.2101,-8.978697 -17.878976,-19.165231 0.174464,-4.941948 2.266486,-9.530764 5.891056,-12.888294 3.38468,-3.174391 7.71664,-4.895833 12.32234,-4.964952 z m -0.48878,5.453729 c -2.97293,0.180743 -5.77842,1.387872 -7.97479,3.447169 -2.50301,2.349915 -3.97993,5.531532 -4.0903,8.978073 -0.23499,7.120959 5.33713,13.113596 12.45097,13.377076 3.45722,0.10681 6.73667,-1.10438 9.26105,-3.447173 2.51726,-2.360599 3.98349,-5.571496 4.0903,-9.003798 0.23855,-7.131643 -5.35929,-13.102113 -12.47669,-13.351347 -0.43082,-0.01602 -0.83583,-0.02582 -1.26054,0 z m 3.39572,6.45701 c 3.16171,0 5.71099,1.718121 5.71098,3.833045 0,2.104248 -2.54927,3.833044 -5.71098,3.833046 -3.17239,0 -5.7367,-1.732365 -5.7367,-3.833046 0,-2.114922 2.56431,-3.833043 5.7367,-3.833045 z"
             style="font-size:20.48839951px;fill:#44aa00;fill-opacity:1;fill-rule:evenodd;stroke:none;font-family:TrebuchetMS-Bold"
             inkscape:connector-curvature="0" />
        </g>
      </g>
    </g>
    <text
       xml:space="preserve"
       style="font-size:74.06721496999998067px;font-style:normal;font-variant:normal;font-weight:normal;font-stretch:normal;text-align:start;line-height:125%;letter-spacing:0px;word-spacing:0px;writing-mode:lr-tb;text-anchor:start;fill:#44aa00;fill-opacity:1;stroke:none;font-family:Cuprum;-inkscape-font-specification:Cuprum"
       x="217.82541"
       y="266.12964"
       id="text4946"
       sodipodi:linespacing="125%"><tspan
         sodipodi:role="line"
         id="tspan4948"
         x="217.82541"
         y="266.12964"
         style="font-style:normal;font-variant:normal;font-weight:normal;font-stretch:normal;font-family:FifthLeg;-inkscape-font-specification:FifthLeg;fill:#44aa00;fill-opacity:1">openSUSE</tspan></text>
    <text
       xml:space="preserve"
       style="font-size:64.47496796000000074px;font-style:normal;font-variant:normal;font-weight:normal;font-stretch:normal;text-align:start;line-height:125%;letter-spacing:0px;word-spacing:0px;writing-mode:lr-tb;text-anchor:start;fill:#44aa00;fill-opacity:1;stroke:none;font-family:Cuprum;-inkscape-font-specification:Cuprum"
       x="218.82349"
       y="685.94476"
       id="text4950"
       sodipodi:linespacing="125%"><tspan
         sodipodi:role="line"
         id="tspan4952"
         x="218.82349"
         y="685.94476">CONFERENCE</tspan></text>
    <text
       xml:space="preserve"
       style="font-size:187.50915526999997951px;font-style:normal;font-variant:normal;font-weight:normal;font-stretch:normal;text-align:start;line-height:125%;letter-spacing:0px;word-spacing:0px;writing-mode:lr-tb;text-anchor:start;fill:#44aa00;fill-opacity:1;stroke:none;font-family:Cuprum;-inkscape-font-specification:Cuprum"
       x="220.17215"
       y="836.3526"
       id="text4954"
       sodipodi:linespacing="125%"><tspan
         sodipodi:role="line"
         id="tspan4956"
         x="220.17215"
         y="836.3526">2014</tspan></text>
  </g>
</svg>
