<?xml version="1.0" encoding="UTF-8" standalone="no"?>
<!-- Created with Inkscape (http://www.inkscape.org/) -->

<svg
   xmlns:dc="http://purl.org/dc/elements/1.1/"
   xmlns:cc="http://creativecommons.org/ns#"
   xmlns:rdf="http://www.w3.org/1999/02/22-rdf-syntax-ns#"
   xmlns:svg="http://www.w3.org/2000/svg"
   xmlns="http://www.w3.org/2000/svg"
   xmlns:xlink="http://www.w3.org/1999/xlink"
   xmlns:sodipodi="http://sodipodi.sourceforge.net/DTD/sodipodi-0.dtd"
   xmlns:inkscape="http://www.inkscape.org/namespaces/inkscape"
   width="744.09448819"
   height="1052.3622047"
   id="svg2"
   version="1.1"
   inkscape:version="0.48.2 r9819"
   sodipodi:docname="Logo_Proposal_3.svg"
   inkscape:export-filename="/Users/josh-andy/Documents/artwork/Marketing Materials/Events/openSUSE Conference/2014-oS-Conference/Logo_Proposal_4.png"
   inkscape:export-xdpi="75"
   inkscape:export-ydpi="75">
  <defs
     id="defs4">
    <linearGradient
       id="linearGradient4636">
      <stop
         style="stop-color:#d40000;stop-opacity:1;"
         offset="0"
         id="stop4638" />
      <stop
         style="stop-color:#fc0000;stop-opacity:1;"
         offset="1"
         id="stop4640" />
    </linearGradient>
    <linearGradient
       id="linearGradient4626">
      <stop
         style="stop-color:#98a02c;stop-opacity:1;"
         offset="0"
         id="stop4628" />
      <stop
         id="stop4634"
         offset="0.5"
         style="stop-color:#c6cf51;stop-opacity:1;" />
      <stop
         style="stop-color:#a5ae30;stop-opacity:1;"
         offset="1"
         id="stop4630" />
    </linearGradient>
    <linearGradient
       inkscape:collect="always"
       xlink:href="#linearGradient4626"
       id="linearGradient4632"
       x1="657.3114"
       y1="791.53021"
       x2="116.33968"
       y2="250.5585"
       gradientUnits="userSpaceOnUse" />
    <linearGradient
       inkscape:collect="always"
       xlink:href="#linearGradient4636"
       id="linearGradient4642"
       x1="-113.905"
       y1="520.60639"
       x2="135.16719"
       y2="520.60639"
       gradientUnits="userSpaceOnUse" />
    <linearGradient
       inkscape:collect="always"
       xlink:href="#linearGradient4636"
       id="linearGradient4650"
       x1="200.80162"
       y1="574.43225"
       x2="377.5303"
       y2="574.43225"
       gradientUnits="userSpaceOnUse" />
    <linearGradient
       inkscape:collect="always"
       xlink:href="#linearGradient4636"
       id="linearGradient4658"
       x1="377.65875"
       y1="574.48004"
       x2="554.38745"
       y2="574.48004"
       gradientUnits="userSpaceOnUse" />
    <linearGradient
       inkscape:collect="always"
       xlink:href="#linearGradient4636"
       id="linearGradient4667"
       gradientUnits="userSpaceOnUse"
       x1="377.65875"
       y1="574.48004"
       x2="554.38745"
       y2="574.48004" />
    <linearGradient
       inkscape:collect="always"
       xlink:href="#linearGradient4636"
       id="linearGradient4669"
       gradientUnits="userSpaceOnUse"
       x1="200.80162"
       y1="574.43225"
       x2="377.5303"
       y2="574.43225" />
    <linearGradient
       inkscape:collect="always"
       xlink:href="#linearGradient4626"
       id="linearGradient4671"
       gradientUnits="userSpaceOnUse"
       x1="657.3114"
       y1="791.53021"
       x2="116.33968"
       y2="250.5585" />
    <linearGradient
       inkscape:collect="always"
       xlink:href="#linearGradient4636"
       id="linearGradient4673"
       gradientUnits="userSpaceOnUse"
       x1="-113.905"
       y1="520.60639"
       x2="135.16719"
       y2="520.60639" />
    <linearGradient
       inkscape:collect="always"
       xlink:href="#linearGradient4636"
       id="linearGradient4688"
       gradientUnits="userSpaceOnUse"
       x1="377.65875"
       y1="574.48004"
       x2="554.38745"
       y2="574.48004" />
    <linearGradient
       inkscape:collect="always"
       xlink:href="#linearGradient4636"
       id="linearGradient4690"
       gradientUnits="userSpaceOnUse"
       x1="200.80162"
       y1="574.43225"
       x2="377.5303"
       y2="574.43225" />
    <linearGradient
       inkscape:collect="always"
       xlink:href="#linearGradient4626"
       id="linearGradient4692"
       gradientUnits="userSpaceOnUse"
       x1="657.3114"
       y1="791.53021"
       x2="116.33968"
       y2="250.5585" />
    <linearGradient
       inkscape:collect="always"
       xlink:href="#linearGradient4636"
       id="linearGradient4694"
       gradientUnits="userSpaceOnUse"
       x1="-113.905"
       y1="520.60639"
       x2="135.16719"
       y2="520.60639" />
    <linearGradient
       inkscape:collect="always"
       xlink:href="#linearGradient4636"
       id="linearGradient3055"
       gradientUnits="userSpaceOnUse"
       x1="377.65875"
       y1="574.48004"
       x2="554.38745"
       y2="574.48004" />
    <linearGradient
       inkscape:collect="always"
       xlink:href="#linearGradient4636"
       id="linearGradient3057"
       gradientUnits="userSpaceOnUse"
       x1="200.80162"
       y1="574.43225"
       x2="377.5303"
       y2="574.43225" />
    <linearGradient
       inkscape:collect="always"
       xlink:href="#linearGradient4626"
       id="linearGradient3059"
       gradientUnits="userSpaceOnUse"
       x1="657.3114"
       y1="791.53021"
       x2="116.33968"
       y2="250.5585" />
    <linearGradient
       inkscape:collect="always"
       xlink:href="#linearGradient4636"
       id="linearGradient3061"
       gradientUnits="userSpaceOnUse"
       x1="-113.905"
       y1="520.60639"
       x2="135.16719"
       y2="520.60639" />
    <linearGradient
       inkscape:collect="always"
       xlink:href="#linearGradient4636"
       id="linearGradient3064"
       gradientUnits="userSpaceOnUse"
       x1="-113.905"
       y1="520.60639"
       x2="135.16719"
       y2="520.60639"
       gradientTransform="matrix(0.71051321,-0.70368386,0.71051321,0.70368386,0,-63.51177)" />
    <linearGradient
       inkscape:collect="always"
       xlink:href="#linearGradient4626"
       id="linearGradient3067"
       gradientUnits="userSpaceOnUse"
       x1="657.3114"
       y1="791.53021"
       x2="116.33968"
       y2="250.5585"
       gradientTransform="translate(0,-63.51177)" />
    <linearGradient
       inkscape:collect="always"
       xlink:href="#linearGradient4636"
       id="linearGradient3071"
       gradientUnits="userSpaceOnUse"
       x1="200.80162"
       y1="574.43225"
       x2="377.5303"
       y2="574.43225"
       gradientTransform="translate(0,-63.51177)" />
    <linearGradient
       inkscape:collect="always"
       xlink:href="#linearGradient4636"
       id="linearGradient3074"
       gradientUnits="userSpaceOnUse"
       x1="377.65875"
       y1="574.48004"
       x2="554.38745"
       y2="574.48004"
       gradientTransform="translate(0,-63.51177)" />
  </defs>
  <sodipodi:namedview
     id="base"
     pagecolor="#e9e9e9"
     bordercolor="#666666"
     borderopacity="1.0"
     inkscape:pageopacity="1"
     inkscape:pageshadow="2"
     inkscape:zoom="0.76800845"
     inkscape:cx="462.16668"
     inkscape:cy="644.93029"
     inkscape:document-units="px"
     inkscape:current-layer="g4660"
     showgrid="false"
     inkscape:window-width="2560"
     inkscape:window-height="1331"
     inkscape:window-x="0"
     inkscape:window-y="0"
     inkscape:window-maximized="1" />
  <metadata
     id="metadata7">
    <rdf:RDF>
      <cc:Work
         rdf:about="">
        <dc:format>image/svg+xml</dc:format>
        <dc:type
           rdf:resource="http://purl.org/dc/dcmitype/StillImage" />
        <dc:title></dc:title>
      </cc:Work>
    </rdf:RDF>
  </metadata>
  <g
     inkscape:label="Layer 1"
     inkscape:groupmode="layer"
     id="layer1">
    <g
       id="g4660"
       transform="matrix(0.94470679,0,0,0.94470679,21.830759,75.487206)">
      <g
         id="g3844" />
      <g
         id="g3856">
        <path
           style="fill:url(#linearGradient3074);fill-opacity:1;fill-rule:nonzero;stroke:#ffffff;stroke-width:4.23411797999999973;stroke-miterlimit:4;stroke-opacity:1;stroke-dasharray:none"
           d="m 552.38743,550.08636 0,-249.39667 -172.72869,171.16045 0,249.39667 z"
           id="path3760"
           inkscape:connector-curvature="0"
           sodipodi:nodetypes="ccccc" />
        <path
           sodipodi:nodetypes="ccscscscccsssscc"
           inkscape:connector-curvature="0"
           d="M 644.7399,627.56069 C 885.51991,349.4468 512.24764,-141.25561 131.29292,160.88986 26.830238,244.99155 -60.371335,531.34952 145.58333,680.35061 c 249.38588,180.42209 443.69033,2.6746 443.69033,2.6746 0,0 147.48752,-110.99684 99.23816,-246.47675 -42.51306,-119.37289 -154.35073,-67.41609 -154.35073,-67.41609 0,0 -94.51709,68.71033 -47.19581,139.22098 55.61833,82.8736 137.45618,-8.55306 137.45618,-8.55306 M 499.94552,321.80002 c 30.11725,-74.33845 -334.54864,-172.45366 -309.6606,35.37541 -63.93801,329.55769 321.04344,350.86502 423.75418,167.917 54.87867,-97.74969 -33.10971,-118.90066 -46.15303,-116.3922 -53.53225,10.29517 -66.21957,94.31781 -24.07978,94.31781 42.13962,0 60.19946,-36.12171 42.13962,-44.14877 -18.05984,-8.02703 -34.11313,14.04735 -34.11313,14.04735 l 0,0"
           style="fill:none;stroke:#20800b;stroke-width:5.29264736000000013;stroke-linecap:round;stroke-linejoin:round;stroke-miterlimit:4;stroke-opacity:1;stroke-dasharray:none"
           id="path4530" />
        <path
           sodipodi:nodetypes="ccccc"
           inkscape:connector-curvature="0"
           id="rect3757"
           d="m 202.80162,550.03858 0,-249.39667 172.72869,171.16045 0,249.39667 z"
           style="fill:url(#linearGradient3071);fill-opacity:1;fill-rule:nonzero;stroke:#ffffff;stroke-width:4.23411797999999973;stroke-miterlimit:4;stroke-opacity:1;stroke-dasharray:none" />
        <path
           sodipodi:nodetypes="csssccsccssscssssccccccsssssssssscsscssssssssccccsscssssccc"
           inkscape:connector-curvature="0"
           id="path4605"
           d="M 356.55509,759.66054 C 290.71394,756.28565 224.50237,732.46013 160.17167,688.99407 129.13683,668.02488 106.87399,648.06415 86.525667,622.96351 54.549161,583.51893 33.619881,535.36385 25.501618,482.55648 21.408563,455.93213 20.541804,418.46161 23.414468,392.3277 40.386567,281.9116 87.297625,189.3403 169.03249,135.0455 223.4384,99.15066 274.26007,78.88479 331.99671,70.06121 c 16.47557,-2.51787 54.06121,-3.49934 72.30943,-1.88821 133.8667,13.79102 250.00552,123.95048 292.62903,233.15839 15.80723,42.22382 22.63038,79.26309 22.6142,122.76052 -0.0141,37.75394 -4.69698,66.22923 -16.613,101.01783 -4.11692,12.01926 -12.02135,30.63854 -16.52645,38.92885 -7.71794,14.2026 -8.89123,16.21762 -9.24,15.86886 -0.21035,-0.21035 1.45197,-4.30801 3.69404,-9.10592 24.07104,-51.5106 23.92191,-108.61498 -0.40541,-155.23345 -15.90976,-30.48793 -36.46415,-47.9005 -65.43426,-55.43241 -5.51711,-1.43439 -11.70116,-2.15874 -21.54826,-2.52398 -17.42425,-0.64629 -19.67284,-2.10147 -36.13318,2.89321 l 0.16184,-65.78381 C 524.49541,249.10174 471.55607,256.36787 421.30479,238.61294 328.33492,211.36551 273.1636,294.69724 197.3729,292.93389 l -0.60325,60.43053 c -18.47169,40.45723 -16.52436,83.8848 -11.99904,118.60399 13.27896,79.52907 65.10761,136.81258 144.00794,159.16449 22.77693,6.45254 43.53434,9.15432 69.96904,9.10715 31.56826,-0.0563 60.49026,-4.72944 88.84773,-14.35564 37.72191,-12.80506 67.9284,-31.2526 94.44025,-57.67602 30.1762,-30.07555 48.97549,-66.05748 50.28202,-96.23998 0.5753,-13.29034 -0.85154,-20.58174 -5.91221,-30.2122 -10.22505,-19.4583 -36.41821,-34.88989 -57.02905,-33.59842 -24.4378,1.53127 -47.09111,26.89056 -51.12033,57.22675 -2.38922,17.98855 5.06464,33.94032 17.46925,37.38539 4.87872,1.35495 15.23906,1.15952 22.7377,-0.42889 19.25015,-4.07771 34.88112,-18.33984 34.97641,-31.91345 0.0274,-3.91234 -0.44974,-5.87689 -1.90098,-7.82597 -5.03109,-6.75696 -14.89751,-8.20715 -24.5429,-3.60736 -5.52878,2.63662 -17.55678,13.34516 -15.76229,14.03319 0.56657,0.21724 3.4111,-1.89274 6.32116,-4.68885 12.44568,-11.95831 27.67854,-13.45706 32.97224,-3.24413 4.6251,8.92304 -4.77332,23.48533 -19.83177,30.72815 -13.79792,6.63654 -30.2919,7.94291 -38.62527,3.05923 -14.14546,-8.28979 -16.31781,-33.49911 -4.84371,-56.20907 7.82222,-15.48201 19.41369,-25.9831 34.35565,-31.12388 8.53284,-2.93573 17.78221,-1.95002 30.71355,3.27319 8.80648,3.55709 15.4649,7.96631 22.34063,14.79404 16.08277,15.97046 20.15486,36.64615 12.33067,62.60772 -11.81879,27.52968 -43.83097,40.57621 -64.79417,47.02253 -11.8152,3.49991 -25.35399,3.50882 -36.10487,0.0237 -42.24577,-15.69116 -56.28688,-48.93829 -49.93628,-86.42133 3.7138,-20.4804 17.84851,-44.05874 39.23003,-65.44027 14.56426,-14.56425 18.8836,-17.59248 30.29255,-21.23775 17.24606,-5.51029 23.81353,-6.52353 42.29822,-6.52587 18.48678,-0.003 25.95384,1.21574 38.20912,6.23303 23.72505,9.71298 42.23627,28.39487 54.74318,55.2479 27.17528,58.34688 19.82337,121.1914 -21.45796,183.42364 -28.27273,42.62158 -68.43891,80.8772 -111.80153,106.48353 -59.78091,35.30161 -125.38244,51.99556 -191.08954,48.62754 l 0,-10e-6 z"
           style="fill:url(#linearGradient3067);fill-opacity:1;fill-rule:nonzero;stroke:#20800b;stroke-width:5.29264736000000013;stroke-linecap:round;stroke-linejoin:round;stroke-miterlimit:4;stroke-opacity:1;stroke-dasharray:none" />
        <path
           sodipodi:nodetypes="ccccc"
           inkscape:connector-curvature="0"
           id="rect2985"
           d="M 203.32429,295.34961 377.45125,150.89634 551.57821,295.34962 377.45125,467.80289 z"
           style="fill:url(#linearGradient3064);fill-opacity:1;fill-rule:nonzero;stroke:#ffffff;stroke-width:4.23411797999999973;stroke-miterlimit:4;stroke-opacity:1" />
        <text
           sodipodi:linespacing="125%"
           id="text4675"
           y="875.63489"
           x="44.820507"
           style="font-size:78.34220886px;font-style:normal;font-variant:normal;font-weight:normal;font-stretch:normal;text-align:start;line-height:125%;letter-spacing:0px;word-spacing:0px;writing-mode:lr-tb;text-anchor:start;fill:#000000;fill-opacity:1;stroke:none;font-family:Cuprum;-inkscape-font-specification:Cuprum"
           xml:space="preserve"><tspan
             y="875.63489"
             x="44.820507"
             id="tspan4677"
             sodipodi:role="line"><tspan
   id="tspan4679"
   style="font-style:normal;font-variant:normal;font-weight:normal;font-stretch:normal;font-family:FifthLeg;-inkscape-font-specification:FifthLeg">openSUSE</tspan> Conference</tspan></text>
      </g>
    </g>
  </g>
</svg>
