<?xml version="1.0" encoding="UTF-8" standalone="no"?>
<!-- Created with Inkscape (http://www.inkscape.org/) -->

<svg
   xmlns:i="http://ns.adobe.com/AdobeIllustrator/10.0/"
   xmlns:dc="http://purl.org/dc/elements/1.1/"
   xmlns:cc="http://creativecommons.org/ns#"
   xmlns:rdf="http://www.w3.org/1999/02/22-rdf-syntax-ns#"
   xmlns:svg="http://www.w3.org/2000/svg"
   xmlns="http://www.w3.org/2000/svg"
   xmlns:sodipodi="http://sodipodi.sourceforge.net/DTD/sodipodi-0.dtd"
   xmlns:inkscape="http://www.inkscape.org/namespaces/inkscape"
   width="210mm"
   height="297mm"
   id="svg6043"
   version="1.1"
   inkscape:version="0.48.4 r9939"
   sodipodi:docname="Novo documento 8">
  <defs
     id="defs6045" />
  <sodipodi:namedview
     id="base"
     pagecolor="#ffffff"
     bordercolor="#666666"
     borderopacity="1.0"
     inkscape:pageopacity="0.0"
     inkscape:pageshadow="2"
     inkscape:zoom="0.7"
     inkscape:cx="595.01808"
     inkscape:cy="1220.0557"
     inkscape:document-units="px"
     inkscape:current-layer="layer1-7"
     showgrid="false"
     inkscape:window-width="596"
     inkscape:window-height="477"
     inkscape:window-x="2"
     inkscape:window-y="105"
     inkscape:window-maximized="0" />
  <metadata
     id="metadata6048">
    <rdf:RDF>
      <cc:Work
         rdf:about="">
        <dc:format>image/svg+xml</dc:format>
        <dc:type
           rdf:resource="http://purl.org/dc/dcmitype/StillImage" />
        <dc:title></dc:title>
      </cc:Work>
    </rdf:RDF>
  </metadata>
  <g
     inkscape:label="Camada 1"
     inkscape:groupmode="layer"
     id="layer1">
    <path
       style="fill:#73ba25;display:inline"
       d="m 160.39228,573.07666 c -0.43083,-0.0976 -2.50174,-0.4945 -4.60203,-0.88206 -5.46428,-1.0083 -8.12716,-1.69205 -13.12069,-3.36905 -7.82886,-2.62918 -14.12155,-5.28737 -20.61313,-8.7075 -5.91507,-3.11642 -10.41417,-5.78508 -12.77606,-7.57824 -3.40235,-2.58303 -7.73534,-6.54253 -7.73534,-7.06856 0,-0.50986 1.51151,-4.27511 2.28457,-5.69101 1.77063,-3.24299 11.66992,-15.60333 12.77833,-15.95512 0.8287,-0.26302 3.18974,-0.43658 3.96609,-0.29155 1.15678,0.21611 2.2077,0.6517 6.12761,2.53977 3.2923,1.5858 11.97751,6.15109 12.33526,6.4839 0.41062,0.38202 -0.70981,0.1238 -4.28529,-0.98758 -4.55349,-1.41539 -6.92419,-2.05312 -9.15306,-2.46223 -2.13314,-0.39154 -2.39781,-0.29447 -4.66622,1.7114 -1.82341,1.61236 -5.71744,5.55775 -7.00175,7.09408 -0.44701,0.53472 -0.87123,0.91375 -0.94268,0.84227 -0.16323,-0.16321 1.83983,-3.95844 3.76642,-7.13633 0.92102,-1.51924 1.44034,-2.57548 1.40097,-2.8495 -0.11791,-0.82099 -1.70284,-1.19596 -3.05812,-0.7235 -1.51081,0.52667 -7.58004,8.89475 -9.46672,13.05244 -1.11618,2.45978 -1.93126,4.44555 -1.93126,4.70512 0,0.36844 1.46384,1.74199 4.1938,3.93512 3.25101,2.61171 5.93803,4.4903 9.51438,6.65188 3.07462,1.85833 11.40184,6.07867 14.5396,7.36883 8.4008,3.45417 17.71747,5.71765 28.69077,6.97041 2.54414,0.29045 16.40438,0.14623 18.26061,-0.19 1.38673,-0.25119 1.90654,-0.58251 1.63691,-1.04333 -0.0925,-0.15808 -0.69849,-0.72635 -1.34662,-1.26283 -2.43437,-2.01498 -5.79197,-6.14566 -8.30896,-10.22213 l -1.258,-2.0374 1.01194,-1.97714 c 1.14892,-2.24477 2.29911,-3.83836 4.56328,-6.32239 3.35468,-3.68044 6.65769,-6.29158 11.33886,-8.96372 0.91552,-0.5226 1.95599,-1.17097 2.31218,-1.44082 1.38688,-1.05071 5.62758,-7.19979 9.34317,-13.54779 4.17992,-7.1413 6.95267,-11.0841 12.28349,-17.4669 2.81583,-3.37152 2.88087,-3.28901 0.42434,0.53842 -1.80084,2.80584 -2.16592,3.80779 -1.38737,3.80779 0.14945,0 1.77938,-1.28473 3.6221,-2.85497 3.62694,-3.09061 3.90592,-3.45719 4.64004,-6.097 0.56791,-2.04201 0.0633,-2.35053 -1.61338,-0.98645 -0.56267,0.45775 -1.39985,1.14019 -1.86039,1.51652 l -0.8374,0.68423 0.88124,-1.07589 c 0.48468,-0.59174 1.73986,-1.98352 2.78927,-3.09282 1.04944,-1.1093 1.96426,-2.24086 2.03295,-2.51459 0.16423,-0.65434 -0.21735,-1.88986 -0.78888,-2.5543 l -0.45668,-0.53093 -1.3153,0.24236 c -1.72738,0.31828 -3.6464,1.04728 -5.10091,1.93775 -2.73334,1.67336 -8.12697,5.73136 -10.11531,7.61046 -2.03082,1.91923 -3.46847,3.03481 -8.16739,6.33769 -2.72433,1.91495 -4.87206,3.72652 -8.16336,6.88571 -2.92051,2.80323 -4.19005,3.7016 -6.55148,4.63595 -1.36776,0.54117 -2.1892,0.76092 -6.70839,1.79463 -0.94305,0.21571 -2.06313,0.56998 -2.48904,0.78727 -0.50284,0.25653 -1.1577,0.39507 -1.86752,0.39507 -1.17905,0 -3.72977,-0.46976 -4.69265,-0.86423 -0.56203,-0.23026 -0.50671,-0.25029 1.018,-0.36866 0.96119,-0.0746 1.96583,-0.2862 2.48762,-0.5239 0.50618,-0.23059 2.42757,-0.64454 4.55633,-0.98162 4.60355,-0.72895 4.79015,-0.78387 6.54693,-1.92637 0.79336,-0.51594 2.13845,-1.32976 2.98909,-1.80849 0.99441,-0.55962 2.3229,-1.59648 3.72079,-2.90397 4.40713,-4.12213 5.32673,-4.8125 9.12996,-6.85408 2.39822,-1.28737 3.29917,-1.96019 8.05329,-6.01417 5.66165,-4.82786 8.89876,-7.17305 12.18417,-8.82711 1.6947,-0.8532 4.92875,-2.02498 5.57715,-2.02074 0.58399,0.004 2.71341,2.17615 2.93636,2.99552 0.70886,2.60529 -2.80604,12.62361 -9.45634,26.9528 -2.10799,4.54199 -10.70971,20.7505 -12.09362,22.78841 -1.04425,1.53774 -4.49809,5.09504 -6.40576,6.59764 -2.14274,1.68778 -4.57694,3.14642 -10.85296,6.50339 -8.01047,4.2847 -8.43219,4.61588 -7.17963,5.63815 1.0336,0.8436 5.18181,3.12775 8.12741,4.47526 2.18968,1.00173 5.37935,2.16191 8.50242,3.0926 0.5833,0.17383 -0.16477,0.44351 -2.82332,1.01779 -3.44083,0.74326 -4.38577,0.86291 -13.51237,1.71098 -7.60351,0.70654 -14.43959,0.9976 -15.86232,0.67536 z m 39.77792,-41.67119 c 0.12102,-0.0791 1.1686,-1.59793 2.32794,-3.3751 2.4206,-3.71051 4.19025,-6.14075 5.99217,-8.22895 2.48494,-2.87973 3.60279,-4.66521 5.0682,-8.09507 1.31851,-3.08605 0.86717,-3.62435 -1.33185,-1.58842 -2.72325,2.52134 -5.15217,5.93187 -8.88615,12.47744 -3.09281,5.42161 -4.54539,8.27848 -4.40077,8.65532 0.12108,0.31554 0.84528,0.40664 1.23046,0.15478 z m -39.58209,13.26263 c -2.01119,-0.26344 -3.73257,-1.07583 -9.49781,-4.48242 -3.06965,-1.81382 -6.22008,-3.66435 -7.00096,-4.11234 -1.41456,-0.8115 -1.81655,-1.2431 -0.97916,-1.05127 1.20343,0.27566 4.50498,1.34441 7.49054,2.42474 4.54955,1.64628 6.46275,2.13761 8.32383,2.13761 2.34801,0 3.67763,-0.47487 11.22222,-4.00792 2.24149,-1.04966 4.12039,-1.86351 4.17534,-1.80854 0.23882,0.23881 -7.5065,5.41763 -9.87672,6.60396 -2.26393,1.13315 -2.36524,1.4349 -0.4792,1.42748 0.99568,-0.004 1.45469,-0.1661 3.96559,-1.40117 2.20087,-1.0826 3.6544,-1.9922 6.46242,-4.04411 3.29351,-2.40667 6.15987,-4.18749 6.38218,-3.96515 0.0478,0.0478 -0.55356,0.55986 -1.33625,1.13804 -0.78266,0.57819 -2.86844,2.45051 -4.635,4.16072 -1.76655,1.71022 -3.64628,3.45281 -4.17717,3.87245 -1.17558,0.92925 -3.24145,1.92677 -5.3399,2.57844 -1.90586,0.59184 -3.15203,0.73223 -4.69995,0.52948 z m -53.75563,-25.18138 c -0.8078,-0.27751 -3.29787,-1.0664 -5.53346,-1.75308 -2.235589,-0.68667 -4.306507,-1.37385 -4.602034,-1.52705 -0.918733,-0.47629 -4.35602,-5.08199 -4.35602,-5.83673 0,-0.6296 1.221071,-3.97942 2.058739,-5.64785 1.188541,-2.36729 2.959541,-5.14918 5.230277,-8.21572 2.353648,-3.17853 2.915038,-3.78909 4.950438,-5.38402 2.22476,-1.74336 3.38585,-2.44474 6.16868,-3.72641 3.14796,-1.44984 13.01034,-4.69311 19.61253,-6.44964 2.87578,-0.76511 3.24658,-0.6649 2.07576,0.56099 -0.57166,0.59852 -1.08476,0.79925 -5.039,1.97132 -5.693,1.68745 -13.21388,4.3579 -16.02038,5.68838 -4.4438,2.10668 -6.53777,3.92433 -9.37759,8.14009 -3.646244,5.41289 -5.898363,9.47088 -6.813353,12.27664 l -0.338648,1.03847 0.542935,0.82193 c 0.661266,1.00107 2.32629,2.65182 3.458015,3.42838 0.840811,0.57695 3.243871,1.5143 7.384281,2.88039 2.20019,0.72592 3.14464,1.31034 3.14464,1.94584 0,0.4447 -0.83736,0.37499 -2.54581,-0.21193 z m 8.06824,-8.92448 c -0.12925,-0.12924 -0.23499,-0.4882 -0.23499,-0.79767 0,-0.71476 0.47356,-0.66441 1.0526,0.1119 0.35106,0.47063 0.3678,0.57383 0.11868,0.73137 -0.39188,0.24779 -0.65576,0.23494 -0.93629,-0.0456 z m 5.05244,-1.00974 c 0,-0.14607 0.31115,-0.6731 0.69146,-1.17116 0.64264,-0.84167 0.82579,-0.94678 2.59476,-1.48921 2.80119,-0.85895 3.58824,-1.0239 4.55611,-0.95491 l 0.87215,0.0622 -1.65249,0.55337 c -1.96298,0.65735 -2.92703,1.12591 -4.15235,2.01818 -1.4762,1.07497 -2.90964,1.55855 -2.90964,0.98156 z m 11.55404,-3.99713 c 0,-0.0826 0.53686,-0.36351 1.19304,-0.62415 1.25946,-0.50025 6.08538,-3.58251 6.71949,-4.29166 0.34806,-0.38925 0.35134,-0.44119 0.049,-0.77532 -0.17826,-0.19697 -0.32409,-0.41837 -0.32409,-0.49201 0,-0.26295 2.26888,-1.57891 3.99195,-2.31537 2.23125,-0.95365 2.77938,-1.30387 2.49141,-1.59185 -0.40647,-0.40645 -0.21737,-0.83662 0.81135,-1.8458 0.73386,-0.71991 1.39442,-1.14534 2.30795,-1.48641 3.60023,-1.34414 5.46966,-2.7967 5.15381,-4.00454 -0.0944,-0.36087 0.0801,-0.45965 1.62611,-0.9208 3.50498,-1.04548 4.47307,-1.57252 3.97992,-2.16674 -0.13625,-0.16416 -0.21311,-0.32532 -0.17084,-0.35812 0.0423,-0.0328 0.69373,-0.15376 1.44768,-0.26879 1.68009,-0.25633 2.44789,-0.54262 2.44789,-0.91277 0,-0.15465 -0.6389,-0.83066 -1.41977,-1.50222 -0.78088,-0.67157 -1.44791,-1.3384 -1.48227,-1.48186 -0.0646,-0.2697 1.60845,-1.44436 2.05723,-1.44436 0.13943,0 0.84919,0.39557 1.57727,0.87904 2.35744,1.56545 2.17793,1.29941 1.47532,2.18654 -0.87341,1.10275 -1.91254,3.27888 -2.28261,4.78018 -0.36958,1.4994 -0.42287,4.94319 -0.10039,6.48923 0.25887,1.24104 1.45084,3.87139 2.34926,5.18415 1.37161,2.00418 3.63813,4.02013 6.14746,5.46782 1.21141,0.6989 0.80195,0.85888 -0.95309,0.37238 -1.88607,-0.52281 -4.55801,-1.91399 -6.58508,-3.42861 -1.02322,-0.76454 -2.51986,-1.70969 -3.32588,-2.10031 -1.30205,-0.63105 -1.63178,-0.70917 -2.9571,-0.70064 -1.32176,0.009 -1.74585,0.11511 -3.72404,0.93601 -2.4766,1.02772 -3.11367,1.22032 -3.11367,0.94132 0,-0.10357 0.18942,-0.35618 0.42097,-0.56137 1.23327,-1.09291 3.88467,-4.46373 4.60641,-5.85632 1.20984,-2.33436 1.68148,-4.21037 1.05851,-4.21037 -0.0866,0 -0.77899,0.7986 -1.53852,1.77467 -2.13245,2.74046 -5.07459,5.97863 -6.76452,7.44513 -1.32634,1.151 -5.69171,4.09672 -6.07106,4.09672 -0.36358,0 0.0448,-0.53591 2.02162,-2.65254 2.05091,-2.19605 2.38015,-2.6349 1.97684,-2.6349 -0.0975,0 -1.44142,0.93807 -2.98643,2.08462 -3.54863,2.63338 -4.17438,3.03292 -7.42763,4.74242 -2.30185,1.20957 -2.79644,1.39786 -3.67183,1.39786 -0.5564,0 -1.01163,-0.0676 -1.01163,-0.15026 z m 44.64948,-2.21195 c -1.74617,-0.20582 -3.85768,-1.18912 -5.96609,-2.77831 -1.80329,-1.35921 -2.44855,-2.25566 -3.44729,-4.78919 -0.66663,-1.69104 -0.85113,-2.43043 -0.92232,-3.69626 -0.12325,-2.19175 0.48733,-6.54539 0.91784,-6.54435 0.0637,1.5e-4 0.12205,1.07967 0.12959,2.39893 0.0169,2.9479 0.50356,5.10993 1.73573,7.71109 0.69845,1.47448 1.14328,2.0998 2.39376,3.36516 2.94197,2.97695 6.46277,4.0877 10.34826,3.2647 1.68471,-0.35685 1.76862,-0.35787 1.4866,-0.0181 -0.76296,0.91932 -3.84209,1.42033 -6.67608,1.08629 z m 19.58313,-8.98443 c 0,-0.8553 -0.0904,-1.61099 -0.20099,-1.67931 -0.11055,-0.0683 -0.90107,0.60468 -1.75676,1.49554 -0.85565,0.89086 -1.60806,1.56747 -1.67197,1.50355 -0.0639,-0.0639 0.1877,-0.72009 0.55915,-1.45815 1.15356,-2.29213 1.90531,-5.35646 1.31405,-5.35646 -0.10443,0 -0.64691,0.67733 -1.20554,1.50519 -1.27607,1.89104 -3.46678,4.03285 -4.78416,4.67739 -0.66969,0.32764 -1.4961,0.53269 -2.45738,0.60968 -0.7966,0.0638 -1.39882,0.0616 -1.33829,-0.005 0.0606,-0.0665 0.64368,-0.46571 1.29584,-0.88723 1.56143,-1.00921 3.87804,-3.20952 4.50436,-4.27827 1.35576,-2.31341 1.66031,-5.29631 0.76837,-7.5258 -0.28428,-0.71054 -0.4686,-1.4176 -0.40966,-1.57124 0.16942,-0.44146 -1.32147,-2.54955 -2.27203,-3.21264 -0.47501,-0.33136 -1.41442,-0.93258 -2.08758,-1.33605 -1.07624,-0.64503 -1.52705,-1.10291 -1.07708,-1.09395 0.0808,0.002 1.53542,0.43286 3.23252,0.95833 2.96189,0.91708 3.66197,1.00308 2.93154,0.36015 -1.33077,-1.17138 -4.95984,-2.28111 -8.51402,-2.6035 -0.72703,-0.0659 -1.32187,-0.19206 -1.32187,-0.28027 0,-0.0882 0.66504,-0.40293 1.47787,-0.69939 l 1.47786,-0.53901 1.21482,0.33602 c 1.75861,0.48642 4.39227,1.7825 7.91666,3.89593 5.65472,3.39088 6.82371,3.87044 12.97917,5.32446 7.50102,1.77188 11.36039,2.93635 12.49281,3.7694 0.62966,0.46322 0.64364,0.50522 0.58749,1.76621 l -0.0575,1.2917 -0.97916,0.0288 c -0.53853,0.0159 -1.33165,0.0976 -1.76248,0.18177 l -0.78332,0.15299 0.9302,-0.87134 c 1.00625,-0.9426 1.09281,-1.2018 0.62455,-1.87033 -0.40838,-0.58304 -0.89598,-0.81359 -4.00264,-1.89251 -2.66583,-0.92582 -5.41047,-1.62196 -10.08531,-2.55797 -3.50185,-0.70115 -4.19242,-0.92612 -6.30049,-2.05248 -1.00987,-0.53959 -1.96926,-0.98108 -2.13196,-0.98108 -0.35436,0 -0.38961,-0.0626 1.53788,2.73046 1.09962,1.59341 1.59314,2.13565 2.23463,2.45526 0.45284,0.22562 0.88513,0.47201 0.96068,0.54754 0.0755,0.0756 -0.31701,0.61771 -0.87231,1.20484 -0.55528,0.58715 -1.00961,1.23375 -1.00961,1.4369 0,0.89453 -0.43565,4.71959 -0.61856,5.43109 -0.284,1.10469 -0.96398,2.64372 -1.16806,2.64372 -0.0944,0 -0.17169,-0.69978 -0.17169,-1.55509 z m 18.89629,-7.35995 c 0.41538,-0.32339 1.06674,-0.32068 1.13518,0.005 0.0228,0.10771 -0.31127,0.21907 -0.7421,0.24747 -0.74151,0.0488 -0.7625,0.0354 -0.39308,-0.25219 z m -58.25111,-2.4764 c -0.69611,-0.0994 -1.30984,-0.22493 -1.36389,-0.27897 -0.14196,-0.14196 0.2383,-0.68969 0.68447,-0.98596 0.33573,-0.2229 0.5226,-0.16416 1.50428,0.47286 1.64092,1.06478 1.56895,1.13388 -0.82486,0.79207 z m 23.5233,-0.56104 c -1.34448,-0.30195 -1.32162,-0.87446 0.0349,-0.87446 0.68495,0 0.81552,-0.0627 0.81552,-0.39166 0,-0.3261 -0.14122,-0.39702 -0.84359,-0.42366 -0.73566,-0.0279 -0.86761,0.0312 -1.03135,0.4619 -0.15417,0.40544 -0.23908,0.45134 -0.47418,0.25622 -0.36523,-0.3031 -0.15441,-0.71852 0.78178,-1.54051 0.66539,-0.58421 0.78037,-0.61435 2.34349,-0.61435 1.83051,0 2.25923,0.21915 2.25923,1.15484 0,1.20037 -2.24596,2.33997 -3.88583,1.97168 z m 2.31918,-0.87446 c 0,-0.16156 -0.13219,-0.29375 -0.29375,-0.29375 -0.16156,0 -0.29375,0.13219 -0.29375,0.29375 0,0.16156 0.13219,0.29375 0.29375,0.29375 0.16156,0 0.29375,-0.13219 0.29375,-0.29375 z m -41.39424,-2.71545 c -0.15926,-0.63455 0.0166,-1.05873 0.50331,-1.21317 0.51738,-0.16422 0.71938,0.0656 0.78746,0.89602 0.0521,0.63554 0.0137,0.68674 -0.55658,0.74221 -0.5119,0.0498 -0.63255,-0.02 -0.73419,-0.42506 z m 26.88112,-2.3279 c -0.45944,-0.35043 -0.82741,-0.72496 -0.81769,-0.83228 0.01,-0.10732 0.38221,-0.31472 0.82778,-0.46089 0.76837,-0.25209 0.85003,-0.23934 1.58577,0.24756 0.42663,0.28233 0.7757,0.6015 0.7757,0.70926 0,0.18767 -1.13141,0.97125 -1.40457,0.97277 -0.0724,4.2e-4 -0.50754,-0.28598 -0.96699,-0.63642 z m 5.13398,-2.2778 c -0.26173,-0.20123 -0.40799,-0.45881 -0.33114,-0.58314 0.21617,-0.34977 0.99856,-0.26073 1.37625,0.15662 0.66878,0.739 -0.18533,1.08757 -1.04511,0.42652 z m 2.51996,-0.67893 c -0.71865,-0.36673 -0.54701,-0.61252 0.473,-0.67729 0.86842,-0.0551 1.53025,0.18414 1.25913,0.45525 -0.29887,0.29884 -1.32407,0.43027 -1.73213,0.22204 z"
       id="path19044"
       inkscape:connector-curvature="0" />
    <g
       transform="matrix(1.3622571,0,0,1.3288944,243.96631,485.80381)"
       id="g15"
       inkscape:export-xdpi="300"
       inkscape:export-ydpi="300"
       inkscape:export-filename="/home/jospoortvliet/Downloads/oS-marketing/artwork/miscellaneous/openSUSE Logo Geeko.png"
       style="fill:#73ba25;display:inline">
      <g
         id="g17"
         style="fill:#73ba25">
        <path
           id="path19"
           d="m 85.234,15.346 0,0 c -2.072,-0.075 -3.697,-1.822 -3.631,-3.899 0.033,-1.004 0.463,-1.932 1.193,-2.618 0.73,-0.683 1.689,-1.04 2.693,-1.002 2.074,0.072 3.701,1.814 3.633,3.893 -0.033,1.003 -0.455,1.928 -1.188,2.617 -0.735,0.685 -1.692,1.04 -2.7,1.009 l 0,0 z m 0.871,-3.408 c 0.924,0 1.672,-0.499 1.672,-1.114 0,-0.614 -0.748,-1.112 -1.672,-1.112 -0.92,0 -1.668,0.498 -1.668,1.112 0,0.614 0.748,1.114 1.668,1.114"
           i:knockout="Off"
           inkscape:connector-curvature="0"
           style="fill:#73ba25" />
        <path
           id="path21"
           d="m 42.369,37.436 0.134,-0.013 0.024,-0.161 c -0.036,-0.125 -0.116,-0.238 -0.244,-1.806 -0.107,-1.387 -0.324,-5.188 1.59,-7.075 0.741,-0.735 1.877,-1.391 2.769,-1.601 3.667,-0.896 7.967,-0.276 12.03,4.424 2.102,2.43 3.129,3.537 3.645,4.034 l 0.178,0.162 0.213,0.157 c 0.17,0.094 6.988,3.232 6.988,3.232 l 0.139,-0.034 0.002,-0.146 c -0.043,-0.051 -4.32,-5.577 -3.562,-10.128 0.602,-3.625 3.488,-3.299 7.477,-2.847 1.303,0.149 2.789,0.321 4.322,0.354 4.287,0.026 8.906,-0.761 11.754,-2.006 1.84,-0.803 3.014,-1.334 3.75,-2.004 0.266,-0.219 0.402,-0.577 0.545,-0.958 l 0.1,-0.256 c 0.119,-0.308 0.293,-0.964 0.369,-1.32 0.035,-0.159 0.051,-0.328 -0.059,-0.414 l -0.396,0.073 c -1.246,0.751 -4.371,2.176 -7.295,2.233 C 83.217,21.411 75.916,17.69 75.153,17.297 L 75.081,17.21 c -0.182,-0.436 -1.275,-3.027 -1.51,-3.575 5.258,3.462 9.615,5.376 12.953,5.674 3.717,0.33 6.611,-1.696 7.852,-2.563 0.242,-0.162 0.426,-0.295 0.5,-0.324 l 0.08,-0.13 C 94.751,14.988 92.81,8.672 91.343,7.152 90.937,6.738 90.611,6.332 89.954,5.948 84.643,2.852 72.038,0.984 71.446,0.898 l -0.1,0.028 -0.037,0.09 c 0,0 -0.051,2.614 -0.055,2.904 C 69.962,3.491 60.603,0.468 51.83,0.164 44.391,-0.099 33.558,-1.059 19.2,7.766 L 18.775,8.032 C 12.021,12.247 7.359,17.44 4.921,23.478 4.157,25.376 3.127,29.664 4.143,33.696 c 0.442,1.763 1.262,3.532 2.365,5.12 2.493,3.582 6.676,5.959 11.186,6.361 6.361,0.567 11.183,-2.29 12.895,-7.641 1.179,-3.692 0,-9.111 -4.516,-11.875 -3.674,-2.249 -7.626,-1.735 -9.917,-0.222 -1.991,1.319 -3.118,3.366 -3.098,5.617 0.046,3.99 3.486,6.111 5.957,6.116 0.72,0 1.44,-0.123 2.253,-0.389 0.288,-0.089 0.564,-0.197 0.862,-0.382 l 0.094,-0.058 0.062,-0.038 -0.024,0.012 c 0.564,-0.381 0.906,-1.006 0.906,-1.677 0,-0.182 -0.027,-0.369 -0.079,-0.556 -0.29,-1.008 -1.288,-1.619 -2.323,-1.433 l -0.14,0.032 -0.19,0.061 -0.275,0.092 c -0.569,0.143 -0.996,0.152 -1.086,0.156 -0.292,-0.021 -1.714,-0.445 -1.714,-2.004 V 30.97 c 0.003,-0.571 0.232,-0.974 0.359,-1.193 0.439,-0.693 1.652,-1.376 3.293,-1.23 2.147,0.184 3.695,1.285 4.72,3.364 0.954,1.934 0.705,4.309 -0.642,6.053 -1.335,1.728 -3.712,2.459 -6.878,2.116 -3.191,-0.351 -5.887,-2.188 -7.398,-5.047 -1.478,-2.792 -1.56,-6.105 -0.209,-8.649 3.231,-6.095 9.329,-6.031 12.674,-5.457 4.952,0.859 10.581,5.428 12.581,10.7 0.321,0.84 0.485,1.507 0.624,2.112 l 0.217,0.913 5.592,2.731 0.075,0.053 0,0 z m 39.298,-29.755 0,0 c -1.055,0.981 -1.656,2.318 -1.707,3.758 -0.098,2.97 2.232,5.47 5.199,5.582 1.449,0.048 2.818,-0.461 3.871,-1.447 1.053,-0.981 1.654,-2.316 1.709,-3.753 0.1,-2.971 -2.23,-5.477 -5.205,-5.585 -1.439,-0.048 -2.814,0.462 -3.867,1.445"
           clip-rule="evenodd"
           i:knockout="Off"
           inkscape:connector-curvature="0"
           style="fill:#73ba25;fill-rule:evenodd" />
      </g>
    </g>
    <g
       id="layer1-7"
       inkscape:label="Layer 1"
       transform="matrix(0.25706273,0,0,0.25706273,404.1686,506.93057)"
       style="fill:#000000">
      <text
         xml:space="preserve"
         style="font-size:8px;font-style:normal;font-weight:normal;line-height:125%;letter-spacing:0px;word-spacing:0px;fill:#000000;fill-opacity:1;stroke:none;font-family:Sans"
         x="164.64285"
         y="438.79074"
         id="text3761"
         sodipodi:linespacing="125%"
         transform="translate(-250,-387.18362)"><tspan
           sodipodi:role="line"
           id="tspan3763"
           x="164.64285"
           y="438.79074" /></text>
      <text
         xml:space="preserve"
         style="font-size:12px;font-style:normal;font-weight:normal;line-height:125%;letter-spacing:0px;word-spacing:0px;fill:#000000;fill-opacity:1;stroke:none;font-family:Sans"
         x="165.35715"
         y="434.68362"
         id="text3765"
         sodipodi:linespacing="125%"
         transform="translate(-250,-387.18362)"><tspan
           sodipodi:role="line"
           x="165.35715"
           y="434.68362"
           id="tspan3773" /></text>
      <g
         id="layer1-8"
         inkscape:label="Layer 1"
         transform="matrix(3.7583893,0,0,3.7583893,-285.22845,242.56919)"
         style="fill:#000000">
        <path
           id="path2445"
           d="m 132.25144,-152.83563 c -38.570678,0 -69.843748,31.26951 -69.843748,69.843751 0,38.57424 31.273072,69.84375 69.843748,69.84375 38.57068,0 69.84374,-31.26951 69.84375,-69.84375 0,-38.574241 -31.27307,-69.843751 -69.84375,-69.843751 z m 0.33443,9.67265 c 33.23352,0 60.19682,26.94115 60.19682,60.171101 0,33.23353 -26.96686,60.1711 -60.19682,60.1711 -17.94482,0 -34.047201,-7.86473 -45.070443,-20.32286 4.532491,-3.51775 12.115629,-2.65954 21.454763,-1.59496 4.47553,0.50915 9.57746,1.09159 14.84341,1.20908 14.71189,0.0855 30.54133,-2.5996 40.31129,-6.86861 6.31629,-2.77006 10.36035,-4.59427 12.88829,-6.89434 0.91149,-0.7477 1.39015,-1.99679 1.87794,-3.29281 l 0.33442,-0.87466 c 0.40946,-1.04678 0.99706,-3.29926 1.26053,-4.52762 0.1175,-0.53764 0.17517,-1.1158 -0.2058,-1.41489 l -1.36343,0.25726 c -4.28682,2.57066 -14.99713,7.4667 -25.03056,7.66609 -12.43319,0.25991 -37.49209,-12.51643 -40.10549,-13.86585 l -0.25725,-0.3087 c -0.62664,-1.49541 -4.37677,-10.39808 -5.17075,-12.270896 18.03739,11.877766 32.99186,18.452076 44.45304,19.473926 12.74296,1.13224 22.683,-5.82499 26.93421,-8.79799 0.8296,-0.56612 1.46367,-1.01005 1.72359,-1.10618 l 0.28298,-0.46306 c -0.70498,-4.47909 -7.39073,-26.153521 -12.42525,-31.358941 -1.39571,-1.42775 -2.50536,-2.81725 -4.75915,-4.14175 -18.22253,-10.62091 -61.48945,-17.0175 -63.51536,-17.31301 l -0.33443,0.1029 -0.12862,0.28297 c 0,0 -0.16228,8.98442 -0.18008,9.98136 -1.484721,-0.49135 -6.088484,-1.9986 -12.682492,-3.80732 8.603733,-10.64585 21.789032,-20.09134 44.864642,-20.09134 z m 15.89813,31.84772 c 0.30705,-0.005 0.61701,-0.0102 0.92611,0 10.20789,0.36673 18.22788,8.96446 17.87897,19.165232 -0.18159,4.934825 -2.26212,9.494349 -5.86533,12.862569 -3.6139,3.38602 -8.31087,5.1509 -13.27417,4.99068 -10.1901,-0.38097 -18.2101,-8.978697 -17.87897,-19.165231 0.17446,-4.941948 2.26648,-9.53076 5.89105,-12.88829 3.38468,-3.17439 7.71664,-4.89584 12.32234,-4.96496 z m -0.48878,5.45373 c -2.97293,0.18075 -5.77842,1.38788 -7.97479,3.44717 -2.50301,2.34992 -3.97993,5.531534 -4.0903,8.978075 -0.23499,7.120959 5.33713,13.113596 12.45097,13.377076 3.45722,0.10681 6.73667,-1.10438 9.26105,-3.447173 2.51726,-2.360599 3.98349,-5.571496 4.0903,-9.003798 0.23855,-7.131643 -5.35929,-13.10211 -12.47669,-13.35135 -0.43082,-0.016 -0.83583,-0.0258 -1.26054,0 z m 3.39572,6.457013 c 3.16171,0 5.71099,1.718121 5.71098,3.833045 0,2.104248 -2.54927,3.833044 -5.71098,3.833046 -3.17239,0 -5.7367,-1.732365 -5.7367,-3.833046 0,-2.114922 2.56431,-3.833043 5.7367,-3.833045 z"
           style="font-size:20.48839951px;fill:#000000;fill-opacity:1;fill-rule:evenodd;stroke:none;font-family:TrebuchetMS-Bold"
           inkscape:connector-curvature="0" />
      </g>
      <g
         id="g9644"
         transform="translate(1629.0631,33.343723)">
        <path
           sodipodi:nodetypes="cssssssccsscccssscsssssssssscscsssssscsscsscsscccssscsscssscsscccccsccsscsscscscscsscccssscsssccccsssscsscsscsscsccsssssssssscsssssssssssssssccssssssscssssccsscssssssssssssssssssssssssssssscccscscscsccscccsscscsssssssssssssccsscsssssssscssssssscssscsscscsssssscscsssssssscsccscsssscsssssssscscssssssssssssssssssssssssccsscsssscssssssscsssscscscsccsssscsssccscscssssssssssssssssscsscssscsssccssccsssc"
           style="fill:#ffffff"
           d="m -447.69014,646.09707 c -34.3359,-2.44493 -74.2386,-6.71976 -78.755,-8.43685 -2.9279,-1.11296 -2.1239,-2.94909 3.8776,-8.85426 5.7785,-5.68577 19.6024,-16.97329 29.9193,-24.43023 13.6406,-9.85868 29.9737,-19.63917 43.8073,-26.23172 12.9376,-6.16554 11.5183,-5.93241 37.8771,-6.22137 23.01879,-0.25246 31.76498,0.14044 46.85779,2.10529 13.01088,1.69371 24.06499,3.62592 25.10858,4.38916 0.93655,0.68466 0.93269,0.88033 -0.0471,2.3753 -1.50352,2.29516 -17.37556,17.17557 -27.91112,26.16793 -26.2711,22.42332 -40.85698,32.15674 -55.59858,37.103 -5.0777,1.70348 -6.8363,1.97462 -13.7382,2.11777 -4.3533,0.0895 -9.4824,0.0545 -11.3978,-0.0856 z m 385.238515,-0.24508 c -11.80187,-2.13994 -25.93324,-9.93921 -44.570015,-24.59944 -16.74132,-13.16955 -42.52304,-36.18339 -45.3245,-40.459 -0.97956,-1.49496 -0.98342,-1.69064 -0.0471,-2.37568 1.0436,-0.76285 12.09771,-2.69506 25.10862,-4.38885 15.09281,-1.96474 23.83901,-2.35772 46.857745,-2.10529 26.35882,0.28904 24.93951,0.0556 37.87713,6.22144 13.83355,6.59256 30.16672,16.37305 43.80729,26.23173 17.59796,12.71908 35.45994,28.46893 35.45994,31.26708 0,2.36168 -2.33352,2.86622 -25.32849,5.4757 -33.38827,3.78896 -67.1205,5.95069 -73.84081,4.73231 z M -544.88834,594.83332 c -15.0177,-2.32434 -34.0904,-7.41531 -63.9236,-17.06199 -22.5456,-7.29028 -26.3092,-8.6834 -26.3092,-9.7382 0,-0.29915 0.745,-1.03228 1.6555,-1.62891 5.9258,-3.88267 58.711,-30.10662 71.7972,-35.66907 l 5.3823,-2.28785 11.5177,-0.24118 c 17.8587,-0.37423 21.4473,0.40877 69.4171,15.14474 16.4451,5.05184 21.3291,6.81068 21.3291,7.68101 0,1.02461 -13.4915,15.09343 -18.9851,19.79754 -15.1714,12.99103 -28.2738,19.07048 -51.0844,23.70281 -7.3283,1.48797 -12.6321,1.56499 -20.7966,0.29954 z m 578.894965,0.0389 c -23.44708,-4.66346 -37.24772,-11.02144 -52.61401,-24.23977 -5.79648,-4.98621 -18.76083,-18.55162 -18.76083,-19.63065 0,-0.36139 1.49594,-1.21543 3.32436,-1.89791 7.87431,-2.93928 48.22664,-15.33571 59.20652,-18.18851 13.06444,-3.39447 33.67147,-3.72551 42.72483,-0.68641 11.66116,3.91453 74.941985,35.3679 75.693705,37.62315 0.39037,1.17108 -2.63679,2.3201 -26.09487,9.90443 -30.941635,10.00417 -49.070205,14.81506 -64.410045,17.09272 -7.94689,1.18025 -13.21946,1.18648 -19.06966,0.0389 z M -337.5111,567.66536 c -43.69766,-5.2763 -107.31914,-20.82422 -154.83114,-37.83789 -7.3194,-2.62099 -14.851,-5.2237 -16.7367,-5.78368 -3.0022,-0.89154 -8.7428,-1.0182 -46.1378,-1.0182 l -42.709,0 -7.3582,1.63264 c -4.047,0.89795 -11.2439,2.60318 -15.9931,3.78934 l -8.635,2.15668 -7.9019,-2.16566 c -9.5885,-2.62788 -15.9371,-5.00586 -26.7167,-10.00705 -18.94,-8.78727 -53.6486,-28.23167 -55.5764,-31.13493 -0.2486,-0.37462 -0.1062,-1.01201 0.3166,-1.41682 2.0877,-1.99924 40.1236,-15.7444 51.4256,-18.58386 5.0857,-1.27771 6.6188,-1.38698 14.2473,-1.0154 4.7016,0.22913 9.5457,0.63553 10.7646,0.9034 l 2.2163,0.487 0.1679,18.60087 c 0.1125,12.43338 0.4005,18.88096 0.8691,19.44556 0.5811,0.70014 29.2614,0.84544 167.6334,0.84917 91.81272,0 168.8792,0.18829 171.25881,0.41306 l 4.32657,0.40861 -0.42215,2.27801 c -0.6393,3.45001 -3.25415,7.8 -5.69138,9.46819 -4.20582,2.87871 -7.02416,3.46982 -17.89501,3.75313 l -10.2897,0.26803 0,2.24288 c 0,1.23355 0.89235,6.62826 1.98298,11.98816 1.09063,5.3599 1.77843,9.94897 1.52838,10.19805 -0.25013,0.24897 -4.77541,0.41391 -10.05642,0.36645 -10.38964,-0.093 -23.26024,-1.53161 -27.69032,-3.09469 -5.69075,-2.0078 -17.48029,-10.32145 -25.70668,-18.12764 l -3.90279,-3.70337 -11.37879,0 c -12.8,0 -12.1306,-0.28359 -12.1511,5.14644 -0.012,3.18382 -1.1924,3.97658 -5.1409,3.45282 -4.3396,-0.57566 -7.5148,-1.87009 -13.5838,-5.5376 l -5.1021,-3.08321 -16.7438,0.16921 -16.7438,0.16922 3.4827,1.65933 c 19.0733,9.08758 77.10298,24.72855 103.53026,27.90501 7.55703,0.90834 43.38202,1.0669 63.32132,0.28048 l 13.93068,-0.54959 7.75687,3.90181 c 4.58222,2.30488 7.75686,4.27915 7.75686,4.82376 0,0.50708 -0.21902,0.92196 -0.48646,0.92196 -0.26764,0 -3.61569,0.71216 -7.44025,1.58253 -17.03502,3.87683 -39.58372,5.47777 -53.49495,3.79806 z m 159.25304,0.50396 c -6.75699,-0.46806 -22.48724,-2.79177 -29.11628,-4.30121 -3.82455,-0.87084 -7.17265,-1.58335 -7.44025,-1.58335 -0.26764,0 -0.48645,-0.41488 -0.48645,-0.92195 0,-0.54493 3.17214,-2.51538 7.75686,-4.81832 l 7.75686,-3.89629 9.8148,0.38123 c 55.26048,2.14687 70.91775,1.05251 104.163525,-7.28044 15.59055,-3.90776 37.94147,-10.85136 38.65714,-12.0094 0.2159,-0.34933 -6.43707,-0.58274 -16.60988,-0.58274 -9.33356,0 -22.27332,-0.32326 -28.755,-0.71877 l -11.785025,-0.71874 -7.80222,5.1964 c -10.14806,6.75878 -12.66943,7.9886 -18.71084,9.12661 -11.99361,2.25917 -33.20022,2.79359 -33.19337,0.83648 0,-0.4076 0.85508,-4.87281 1.89704,-9.92271 1.04197,-5.04986 1.89557,-10.20043 1.89705,-11.44569 l 0,-2.26411 -8.29447,-1.74522 c -21.79605,-4.58616 -46.91567,-13.36382 -65.47484,-22.87928 -13.07692,-6.70467 -18.27243,-10.52673 -21.74543,-15.99711 -2.97359,-4.68395 -4.97462,-12.78913 -3.15729,-12.78913 0.40835,0 7.03335,3.39154 14.72217,7.5368 32.75204,17.6574 60.41934,26.27401 108.01192,33.63898 31.05853,4.80634 47.718355,5.90347 83.267495,5.48345 28.09948,-0.33182 34.16337,-0.67905 52.48155002,-3.00397 C 40.685025,508.276 74.844435,496.57718 102.4703,478.25897 c 26.19882,-17.37203 47.95098,-43.58567 58.6968,-70.73581 1.32198,-3.34 2.49018,-5.98601 2.59606,-5.88012 0.23497,0.23496 -3.20583,13.51055 -4.59654,17.73481 -0.55204,1.67683 -0.85866,3.19382 -0.68143,3.37105 0.60429,0.60429 4.1563,-1.65862 13.22471,-8.42526 42.47866,-31.69643 86.51449,-72.75998 111.79229,-104.24654 8.42938,-10.49986 37.95307,-51.48486 47.98645,-66.61516 8.16552,-12.3136 77.40228,-121.8624 86.24351,-136.4574 4.90394,-8.095404 9.94691,-17.162904 16.28785,-29.286104 2.32247,-4.4403 4.49174,-8.0734 4.82057,-8.0734 5.70966,0 -23.84542,56.901504 -64.5463,124.269004 -25.02825,41.4264 -70.62483,107.529 -88.11978,127.74969 -6.48604,7.4965 -39.68152,42.798 -48.32661,51.39255 -8.88888,8.83683 -19.7791,18.49378 -36.49747,32.36416 -7.83599,6.50118 -17.52417,14.57975 -21.52922,17.95243 -4.00505,3.37276 -12.41098,9.99266 -18.67976,14.711 -13.90061,10.46251 -16.40732,12.76475 -21.81681,20.03725 -2.33142,3.13441 -5.85764,7.55065 -7.83607,9.81372 -1.97839,2.26318 -3.36179,4.19333 -3.07411,4.28922 0.28748,0.0957 5.17251,-0.84263 10.85529,-2.08548 20.9154,-4.57461 28.96522,-5.10595 38.74077,-2.557 11.74177,3.06158 48.36419,16.3611 50.38685,18.2981 1.05184,1.00722 0.47047,1.69242 -3.93464,4.6377 -12.45829,8.32952 -45.16719,25.62783 -60.47182,31.98091 -6.77282,2.81141 -22.65377,7.49249 -25.41909,7.49249 -3.78635,0 -46.269795,-12.38651 -59.889315,-17.46138 l -5.84021,-2.1762 -5.55763,2.31414 c -14.56088,6.06288 -35.36627,11.95607 -53.16893,15.06029 -5.5083,0.96043 -13.10423,2.90731 -19.6296,5.03119 -36.8267,11.98641 -76.5698,22.28915 -112.274965,29.1055 -29.76149,5.68169 -45.6114,7.3342 -60.47182,6.30488 z M -759.73944,453.07317 c -5.8837,-1.33967 -10.227,-3.07594 -19.7542,-7.89702 -18.4688,-9.34581 -56.3975,-31.74229 -57.9155,-34.19838 -0.6268,-1.01423 2.0938,-2.3704 10.1079,-5.03862 12.975,-4.31992 44.3133,-12.49539 59.8386,-15.61059 11.0594,-2.2191 28.7456,-0.1661 41.4755,4.81404 12.2155,4.77915 30.3778,16.10985 43.313,27.02119 7.6785,6.47713 8.2696,7.21964 6.9907,8.7807 -1.8859,2.30185 -32.2126,15.46762 -42.072,18.2648 -13.8222,3.92145 -33.6977,5.75066 -41.984,3.86388 z m 1002.88451,-0.39796 c -15.18964,-2.31445 -22.4262,-4.67244 -45.28505,-14.75566 -15.63572,-6.89695 -16.09145,-7.36582 -11.34047,-11.66781 13.85977,-12.54997 34.07675,-25.63168 48.07714,-31.10914 12.72985,-4.98034 30.41608,-7.03314 41.47544,-4.81404 15.52528,3.1152 46.86358,11.29067 59.83863,15.61059 8.01403,2.66822 10.73473,4.02439 10.10788,5.03862 -2.25712,3.65218 -58.18389,35.46889 -70.02945,39.83976 -9.2109,3.39875 -19.07067,3.95639 -32.84412,1.85768 z m -896.99051,-15.65843 c -6.2934,-4.76499 -14.2719,-11.04435 -17.73,-13.95407 -3.4582,-2.90975 -12.6881,-10.60328 -20.511,-17.09676 -17.0354,-14.14036 -28.4803,-24.27785 -37.1545,-32.91017 -8.6967,-8.65462 -41.8755,-43.9429 -48.3266,-51.39905 -17.495,-20.22069 -63.0916,-86.32329 -88.1198,-127.74969 -40.7009,-67.3676 -70.256,-124.269004 -64.5463,-124.269004 0.3288,0 2.4981,3.633 4.8206,8.0734 6.3409,12.1232 11.3839,21.1907 16.2878,29.286104 8.8412,14.595 78.078,124.1438 86.2435,136.4574 10.0334,15.1303 39.5571,56.1153 47.9865,66.61516 18.5631,23.12264 48.8675,53.09805 79.3023,78.44128 18.535,15.43421 38.709,31.24864 48.4408,37.97287 2.9602,2.04542 5.5916,4.01509 5.8475,4.37695 0.2559,0.36178 0.4696,3.86361 0.4749,7.78164 0.01,5.30454 -0.1924,7.1127 -0.7818,7.08065 -0.4354,-0.0233 -5.9406,-3.94165 -12.2339,-8.70671 z m 9.6234,-38.58296 c -4.772,-14.77223 -6.0962,-24.373 -6.0962,-44.19936 0,-20.34298 0.6871,-37.01362 1.5246,-36.99413 1.0019,0.0233 6.3418,8.04878 18.7083,28.11719 12.6994,20.60882 21.2618,36.96047 20.011,38.21503 -0.2498,0.25052 -7.1986,0.59814 -15.4417,0.77226 l -14.9874,0.31665 -0.1741,10.28971 c -0.097,5.75723 -0.432,10.28971 -0.7598,10.28971 -0.3221,0 -1.5753,-3.06315 -2.7847,-6.80702 z m 57.1205,-14.83669 c -1.0292,-0.8154 -3.6947,-12.76665 -3.6947,-16.56568 0,-2.95185 0.8413,-2.44754 13.4703,8.07398 5.8351,4.8615 8.1737,7.49938 7.3252,8.26285 -0.119,0.10698 -3.7779,0.39014 -8.1313,0.6293 -6.1253,0.33649 -8.1535,0.24585 -8.9695,-0.40045 z m -115.3894,-14.60772 c -11.8514,-14.07862 -27.358,-36.2827 -31.3628,-44.90903 -4.0041,-8.62482 -4.5446,-13.659 -3.1833,-29.65184 0.3705,-4.3533 0.8712,-15.7477 1.1127,-25.3208 0.3841,-15.23 0.5656,-17.43 1.452,-17.5998 1.7627,-0.3376 10.8018,6.2392 16.7428,12.1822 11.5987,11.6023 24.9254,32.6675 27.9451,44.17202 0.6649,2.53311 1.0236,6.28158 0.9868,10.31191 -0.075,8.21146 -3.6749,47.07003 -4.9003,52.89538 -0.5199,2.47123 -0.9452,4.61701 -0.9452,4.76841 0,0.15132 -0.4165,0.27503 -0.9256,0.27503 -0.509,0 -3.624,-3.20564 -6.9222,-7.12363 z m 905.74357,6.84845 c 0,-0.15133 -0.4253,-2.29718 -0.94518,-4.76841 -1.22538,-5.82535 -4.82524,-44.68392 -4.90028,-52.89538 -0.035,-4.03033 0.32171,-7.7788 0.9868,-10.31191 3.01965,-11.50452 16.34636,-32.56972 27.94505,-44.17202 5.941,-5.943 14.98019,-12.5199 16.74284,-12.1822 0.8864,0.1696 1.06791,2.3698 1.45202,17.5998 0.24157,9.5731 0.74215,20.9675 1.11268,25.3208 1.36123,15.99284 0.82077,21.02702 -3.18335,29.65184 -5.40311,11.63825 -35.12488,52.03267 -38.28497,52.03267 -0.50906,0 -0.92561,-0.12371 -0.92561,-0.27503 z m -1035.06177,-2.55222 c -5.282,-1.69017 -8.6494,-3.38267 -18.1719,-9.13368 -15.8834,-9.59253 -28.6704,-18.79767 -40.6753,-29.28118 -7.0247,-6.1345 -14.9577,-14.66105 -16.2927,-17.51156 -1.4047,-2.99935 1.9447,-4.1558 19.4926,-6.73039 26.4058,-3.87419 31.4599,-4.38356 44.0083,-4.43506 10.966,-0.0451 12.9853,0.11398 18.0465,1.42074 13.6203,3.51665 27.2156,12.16641 49.074,31.22219 11.3697,9.91186 14.8471,13.46266 14.3791,14.68237 -0.3659,0.95342 -12.639,5.98488 -21.661,8.88012 -6.4397,2.06654 -24.755,7.27274 -35.5354,10.10116 l -8.3072,2.17943 z m 1160.75455,-0.46276 c -10.88189,-2.87386 -29.15662,-8.04928 -35.77652,-10.13212 -9.46691,-2.9785 -22.2192,-8.15128 -22.61078,-9.17169 -0.46806,-1.21971 3.00934,-4.77051 14.37902,-14.68237 21.85836,-19.05578 35.45368,-27.70554 49.07397,-31.22219 5.06126,-1.30684 7.08053,-1.46579 18.04657,-1.42074 12.54838,0.0514 17.60247,0.56087 44.00829,4.43506 17.54785,2.57459 20.89731,3.73104 19.49263,6.73039 -1.335,2.85051 -9.26805,11.37706 -16.29268,17.51156 -19.21293,16.77816 -48.10409,35.44528 -60.18912,38.88934 -2.99965,0.85481 -3.53209,0.80556 -10.13138,-0.93724 z M -769.71344,304.0851 c -5.7967,-6.79266 -8.9583,-11.80416 -10.4282,-16.53026 -1.5776,-5.0722 -1.5712,-5.3082 0.3699,-13.7057 4.6622,-20.1688 4.7905,-21.022 4.765,-31.6606 -0.013,-5.5723 -0.4626,-15.0997 -0.9981,-21.1721 -0.5697,-6.4602 -0.7396,-11.2748 -0.4095,-11.605 0.3302,-0.3302 1.1876,0.3039 2.0668,1.5278 4.7884,6.6667 18.0019,31.2609 21.7218,40.4309 5.7732,14.2315 5.2038,30.9749 -1.5447,45.422 -2.6033,5.573 -8.1436,12.20036 -10.1992,12.20036 -0.6594,0 -2.9549,-2.10808 -5.3438,-4.9074 z m 1038.23267,1.41378 c -3.63635,-3.84494 -7.53847,-11.41164 -9.13762,-17.71904 -3.29981,-13.0154 -2.67744,-25.2401 1.85364,-36.4097 3.71995,-9.17 16.93337,-33.7642 21.72182,-40.4309 0.87912,-1.224 1.73665,-1.8579 2.06673,-1.5278 0.33027,0.3303 0.16027,5.1448 -0.40943,11.605 -0.53559,6.0724 -0.98467,15.5998 -0.99809,21.1721 -0.0272,10.6386 0.10309,11.4918 4.76499,31.6606 0.88554,3.831 1.61268,7.5765 1.61579,8.3234 0.0117,2.7067 -2.55311,9.4913 -4.99189,13.2059 -3.79635,5.7826 -10.71435,13.61406 -12.02598,13.61406 -0.63572,0 -2.6427,-1.57214 -4.45996,-3.49362 z M -876.37524,286.16684 c -6.0964,-0.7359 -9.8641,-1.7129 -13.279,-3.4433 -4.7922,-2.4285 -12.0652,-8.6324 -19.9368,-17.0062 -8.3577,-8.8911 -23.9362,-28.1059 -23.6014,-29.1104 0.972,-2.9158 15.2163,-2.5651 43.8363,1.0794 26.7535,3.4069 27.5239,3.5561 33.6593,6.5207 11.5893,5.5999 36.944,30.0516 36.944,35.6281 0,1.6465 -2.5156,2.4918 -12.3035,4.1346 -16.403,2.7531 -33.7462,3.5939 -45.3189,2.1971 z m 1230.96576,-0.012 c -8.29242,-0.911 -23.62066,-3.5843 -25.52315,-4.4511 -0.93771,-0.4273 -1.70499,-1.2685 -1.70499,-1.8695 0,-5.5765 25.3547,-30.0282 36.94401,-35.6281 6.13535,-2.9646 6.90571,-3.1139 33.65922,-6.5207 28.6201,-3.6445 42.8644,-3.9952 43.8363,-1.0794 0.33494,1.0045 -15.24367,20.2192 -23.60136,29.1103 -11.88204,12.6403 -18.88609,17.6498 -27.3555,19.5656 -5.22549,1.182 -28.36946,1.7393 -36.25453,0.8729 z m -1171.24976,-45.391 c -1.3077,-2.0026 -4.1659,-7.172 -6.3515,-11.4876 -5.3552,-10.5742 -5.3463,-11.0065 0.4841,-23.6471 7.2588,-15.7373 14.7528,-29.928 15.8048,-29.928 1.8385,0 10.0221,19.2396 12.0529,28.3363 1.132,5.0703 0.2497,8.4548 -5.0068,19.2069 -6.1156,12.5095 -11.7516,21.1604 -13.7857,21.1604 -0.451,0 -1.89,-1.6384 -3.1978,-3.6409 z m 1136.60549,2.2162 c -4.31506,-4.7118 -15.34801,-25.7717 -16.72506,-31.925 -0.93981,-4.1996 -0.26725,-7.5571 3.65677,-18.2571 3.54832,-9.6756 7.21773,-17.0968 8.45338,-17.0968 1.052,0 8.54601,14.1907 15.80478,29.928 5.83045,12.6406 5.83932,13.0729 0.48417,23.6471 -4.66603,9.2134 -8.39974,15.1285 -9.54931,15.1285 -0.45098,0 -1.40713,-0.6411 -2.12473,-1.4247 z m -1220.04099,-34.0795 c -13.5086,-1.3893 -19.6455,-4.5084 -27.1144,-13.7808 -3.5278,-4.3798 -16.8185,-24.006 -21.0213,-31.042 -2.5882,-4.333 -2.3717,-5.4612 0.9354,-4.8729 0.8706,0.1548 2.8653,0.4641 4.4325,0.6873 7.4916,1.0665 27.3198,6.8646 35.4599,10.369 12.8092,5.5145 24.9287,15.5884 35.4044,29.4289 6.0327,7.9702 4.303,9.3602 -11.9755,9.6243 -5.7465,0.093 -13.0009,-0.093 -16.121,-0.4138 z m 1283.09859,0.08 c -6.67568,-1.2358 -7.13755,-3.0269 -2.39611,-9.2912 10.47574,-13.8404 22.59515,-23.9144 35.40444,-29.4289 8.13999,-3.5043 27.96831,-9.3024 35.4599,-10.3689 1.56721,-0.2233 3.56182,-0.5325 4.4325,-0.6873 3.30709,-0.5883 3.52358,0.5398 0.93537,4.8729 -4.20282,7.036 -17.49343,26.6622 -21.02132,31.042 -6.26186,7.7739 -11.95627,11.2908 -20.93699,12.9308 -5.81532,1.062 -27.7148,1.7013 -31.87779,0.9306 z m -1242.57649,-36.6042 c -6.7911,-9.2587 -8.7124,-17.4583 -6.1035,-26.0475 1.9376,-6.3788 13.4533,-28.6464 14.9023,-28.8159 0.8258,-0.096 4.0935,9.1881 5.2132,14.8127 1.4269,7.1673 0.4292,18.2975 -2.4409,27.2281 -2.2546,7.0159 -7.138,15.8303 -8.7702,15.8303 -0.3271,0 -1.5876,-1.3535 -2.8009,-3.0077 z m 1222.81353,0.9498 c -7.14922,-9.5201 -11.45938,-29.0024 -9.07074,-41.0005 1.12027,-5.6274 4.29716,-14.6559 5.17531,-14.708 1.39927,-0.083 12.9174,22.0518 14.94013,28.7112 1.9966,6.5732 1.52018,12.165 -1.56366,18.3554 -2.52974,5.078 -6.38669,10.6998 -7.3407,10.6998 -0.32716,0 -1.29031,-0.926 -2.14034,-2.0579 z m -1279.82513,-28.0006 c -16.8327,-3.9221 -28.0213,-9.832 -35.6679,-18.84 -3.9057,-4.6011 -9.8829,-16.3013 -12.7533,-24.9642 -2.3118,-6.977104 -2.4579,-9.088204 -0.6289,-9.088204 1.8155,0 10.9035,3.5892 25.2289,9.963604 l 12.2719,5.4608 5.8624,8.9096 c 3.2244,4.9004 8.7437,13.1439 12.2651,18.3191 3.5215,5.1752 6.4027,9.948 6.4027,10.6063 0,1.0274 -0.4709,1.1907 -3.3244,1.1527 -1.8284,-0.023 -6.1738,-0.7081 -9.6565,-1.5197 z m 1328.79715,0.3669 c 0,-0.6583 2.88116,-5.4312 6.4026,-10.6064 3.52148,-5.1751 9.04075,-13.4187 12.26506,-18.319 l 5.8625,-8.9096 12.27191,-5.4608 c 14.32533,-6.374404 23.41343,-9.963604 25.2289,-9.963604 1.82897,0 1.68289,2.111 -0.62895,9.088204 -2.87039,8.6629 -8.84757,20.3631 -12.75331,24.9642 -7.72135,9.0961 -18.9744,14.9992 -35.98449,18.8768 -8.41113,1.9174 -12.66422,2.0283 -12.66422,0.3303 z m -1308.12065,-29.6721 c -3.5869,-6.1529 -4.2764,-8.859 -3.3321,-13.0782 1.452,-6.488304 10.022,-26.339304 11.3711,-26.339304 0.9423,0 3.104,7.2312 3.9461,13.2004 1.0834,7.679 0.5357,12.007604 -2.4958,19.726704 -3.0186,7.6864 -4.7534,10.7646 -6.0665,10.7646 -0.5121,0 -2.0524,-1.9234 -3.4228,-4.2742 z m 1294.80892,2.2163 c -2.53436,-4.1325 -6.48033,-15.3048 -6.79951,-19.251904 -0.54664,-6.7588 2.5083,-22.3819 4.37656,-22.3819 0.7092,0 5.97928,10.9044 8.75926,18.124 2.87358,7.462604 3.53077,11.120004 2.57431,14.327204 -1.11949,3.754 -5.59349,11.2405 -6.71734,11.2405 -0.51217,0 -1.49917,-0.9261 -2.19328,-2.0579 z M -938.11344,61.276836 c -2.5533,-1.4543 -9.738,-8.2526 -14.9311,-14.1281 -6.7268,-7.6109 -11.036,-13.9879 -12.2779,-18.1697 -1.6568,-5.5792 -4.8226,-39.4012 -3.8372,-40.9956 0.3336,-0.5399 0.8141,-0.4285 1.7387,0.4033 3.2419,2.9165 21.9213,26.7887 26.1201,33.3813 2.6941,4.23 6.2527,13.3705 7.6248,19.5846 1.4313,6.4824 1.1112,15.0844 -0.675,18.1429 -1.4489,2.4807 -2.0417,2.7614 -3.7624,1.7813 z m 1381.66302,-0.7432 c -2.44578,-3.7328 -2.9338,-11.7994 -1.18461,-19.5823 1.32823,-5.9101 4.93996,-15.0924 7.54535,-19.1833 4.19886,-6.5926 22.87823,-30.4648 26.12016,-33.3813 0.92456,-0.8318 1.40503,-0.9432 1.73869,-0.4033 0.9854,1.5944 -2.18041,35.4164 -3.8372,40.9956 -0.53248,1.793 -2.31321,5.2574 -3.95717,7.6986 -6.5561,9.7357 -22.01781,25.3613 -25.09519,25.3613 -0.18906,0 -0.78752,-0.6774 -1.33003,-1.5053 z"
           id="path3122"
           inkscape:connector-curvature="0" />
        <text
           sodipodi:linespacing="125%"
           id="text3131"
           y="731.11285"
           x="-860.81458"
           style="font-size:10.8096199px;font-style:normal;font-variant:normal;font-weight:bold;font-stretch:normal;line-height:125%;letter-spacing:0px;word-spacing:0px;fill:#ffffff;fill-opacity:1;stroke:none;font-family:FifthLeg;-inkscape-font-specification:Sans Bold"
           xml:space="preserve"><tspan
             style="font-size:108.09619904px;fill:#ffffff"
             y="731.11285"
             x="-860.81458"
             id="tspan3133"
             sodipodi:role="line">conference.opensuse.org</tspan></text>
        <path
           sodipodi:nodetypes="csssssccsssssscsscsccssccsccccssscsssscsccscscsssscscscssssccccscscsssccsssssccscscccccsccccc"
           style="fill:#ffffff"
           d="m -9.006115,482.98622 c 48.3512,-3.08368 84.00705,-11.36182 117.232915,-27.21764 38.37172,-18.31148 68.91547,-48.39581 83.63565,-82.37752 16.48236,-38.0495 20.21697,-88.87442 9.06522,-123.37012 -4.63112,-14.3257 -12.55569,-30.1147 -20.71669,-41.2767 -11.54224,-15.7863 -25.29169,-28.2123 -47.9215,-43.3084 -5.7533,-3.838 -10.6882,-7.3252 -10.9665,-7.7492 -0.27853,-0.4241 -0.51073,-2.274 -0.51649,-4.1111 -0.0117,-3.8813 -0.33961,-3.507 13.27112,-15.1608 11.06819,-9.4765 21.87018,-20.0619 26.79999,-26.2625 16.02636,-20.157504 27.13727,-43.457904 31.49531,-66.047804 4.22531,-21.9025 3.50479,-53.169 -1.77116,-76.8506 -6.0565,-27.1857 -18.616,-51.6746 -35.54666,-69.309896 -3.04521,-3.1719 -6.58244,-6.4135 -7.86053,-7.2034 l -2.32391,-1.4362 -8.76622,2.4772 c -9.90439,2.7987 -21.64822,5.2692 -33.66054,7.080596 -11.730175,1.7689 -49.535265,1.7869 -60.408025,0.031 -43.43395,-7.023496 -75.42692,-25.092496 -99.04983,-55.941596 -2.61037,-3.4089 -5.43007,-6.5808 -6.26602,-7.0487 -5.23327,-2.929 -62.957315,2.524 -73.458635,6.9396 -1.08239,0.4551 -4.08021,3.5678 -6.74766,7.0064 -12.49177,16.1029 -30.26856,29.6261 -49.69417,37.8037 -18.2841,7.6971 -43.13795,12.778396 -62.6721,12.813296 -3.24843,0.01 -6.37101,0.3046 -6.9392,0.6634 -0.90592,0.5727 -1.0553,9.7637 -1.21433,74.7099 l -0.18089,74.057 79.89451,0 79.89454,0 5.5e-4,-8.7806 c 0,-25.4315 4.20982,-40.1457 14.393755,-50.3297 10.724,-10.7239 28.86879,-15.9393 48.55951,-13.9576 15.16408,1.5262 24.52382,5.4489 32.85035,13.7678 6.22649,6.221 9.54428002,12.2554 12.13069,22.064 2.37701,9.0139 3.03712,29.1508 1.24592,38.0054 -2.23474,11.0472 -8.18002,21.9489 -15.30062,28.0568 -3.46421,2.9715 -10.5279,6.9492 -14.71123,8.2841 -9.10117,2.9042 -11.05182,3.0464 -47.49024,3.4614 l -35.466355,0.4041 -0.18945,58.881004 c -0.10387,32.3846 -0.0272,59.5608 0.17544,60.3914 l 0.3645,1.5102 35.979625,0.2412 c 34.56635,0.2315 36.19264,0.3003 41.40503,1.7553 19.63081,5.4795 31.46819,19.1121 35.20576,40.545 1.33337,7.6462 1.3438,28.3445 0.0156,38.2958 -3.71174,27.88607 -15.54823,41.46863 -39.81884,45.69266 -8.80983,1.53324 -26.13195,1.00178 -33.8876,-1.03979 -13.55806,-3.56897 -23.40694,-11.25137 -28.58205,-22.29455 -4.971935,-10.60998 -5.644495,-14.71412 -6.120215,-37.34912 l -0.41971,-19.9714 -79.84809,-0.175 c -43.91644,-0.096 -80.03949,0.058 -80.27344,0.3443 -0.2338,0.2855 -0.29487,38.5216 -0.13538,84.9689 l 0.28981,84.44954 10.08377,5.86881 c 22.8282,13.28613 36.5557,19.54468 60.0122,27.3602 18.28125,6.0912 39.30332,10.81017 67.14505,15.07236 22.3002,3.41387 28.720335,4.11366 53.371715,5.81725 8.03827,0.55551 54.61943,0.37657 64.40218,-0.24702 z M -297.72198,407.41836 c 0.23263,-36.88551 0.14977,-65.51626 -0.18983,-65.86089 -0.34117,-0.34583 -14.77266,-0.47175 -33.33871,-0.29098 -21.90547,0.21318 -32.97157,0.084 -33.44491,-0.38901 -0.48098,-0.48097 -0.7336,-72.81494 -0.78892,-225.93614 -0.0447,-123.875704 -0.27697,-226.1027 -0.51652,-227.1711 -0.38824,-1.7342 -1.20835,-2.2339 -7.64767,-4.6611 -10.45278,-3.9401 -21.76235,-9.5785 -26.6681,-13.2955 -5.4413,-4.1227 -9.3421,-9.9023 -10.9834,-16.2734 -1.0555,-4.0974 -1.5224,-4.9336 -2.9855,-5.3467 -2.2414,-0.6326 -19.7939,-0.626 -22.0713,0.01 -1.0251,0.2855 -3.0525,2.268 -4.9236,4.8144 -16.0437,21.8348 -42.4347,37.9158 -73.6926,44.9035 -28.6742,6.410096 -60.4007,6.528196 -89.2747,0.3322 -14.3682,-3.0833 -32.3371,-10.0167 -43.4417,-16.7626 -4.777,-2.9017 -6.1634,-2.9878 -16.388,-1.0177 -10.7019,2.062 -31.2729,6.7327 -33.0909,7.5132 l -1.5495,0.6654 0,44.393096 c 0,32.1375 0.2137,44.5254 0.7746,44.872 0.426,0.2633 22.9157,0.4167 49.9769,0.3411 37.1159,-0.1039 49.4441,0.063 50.1868,0.6792 0.8489,0.7046 0.9829,25.6167 0.9739,180.991404 0,99.0959 -0.2382,180.50374 -0.5165,180.90636 -0.3457,0.50015 -12.466,0.75682 -38.2748,0.81035 -20.7729,0.0436 -37.9336,0.24313 -38.1349,0.44444 -0.5491,0.54909 -0.7675,63.92798 -0.3426,99.41947 l 0.373,31.16224 187.7843,0 187.78429,0 0.41122,-65.25123 z"
           id="path3124"
           inkscape:connector-curvature="0" />
        <path
           inkscape:connector-curvature="0"
           id="path3348"
           d="m -530.24094,-136.25136 c 23.9273,-3.8 44.6854,-11.5808 60.3909,-22.6364 11.5627,-8.1394 23.1146,-21.1865 31.002,-35.015 11.7393,-20.5814 17.6633,-49.887 16.4767,-81.5075 -1.794,-47.8038 -17.96,-80.8897 -50.5843,-103.5282 -15.0457,-10.4404 -36.1913,-17.8331 -60.7287,-21.2314 -12.0605,-1.6703 -41.6555,-1.6703 -53.716,0 -33.091,4.5829 -58.054,15.8137 -76.7853,34.5456 -8.6515,8.6517 -14.4248,16.8 -20.0048,28.234 -7.1522,14.6557 -10.667,26.7387 -13.1211,45.1077 -1.3843,10.3606 -1.568,35.3545 -0.3392,46.1407 5.2031,45.6712 26.0866,78.3917 61.2892,96.0289 15.6108,7.8212 33.1226,12.5043 56.5365,15.119 1.3257,0.1482 11.3974,0.184 22.3817,0.081 14.4954,-0.1373 21.9541,-0.504 27.2024,-1.3375 z m -37.5317,-79.6376 c -5.7407,-0.959 -12.0485,-4.6076 -14.6285,-8.4615 -4.5316,-6.7693 -4.573,-7.1269 -4.8378,-41.7258 -0.2691,-35.1604 0.034,-38.4045 4.1872,-44.6169 2.3743,-3.5527 7.3282,-7.2572 11.3686,-8.5016 4.0093,-1.2348 14.9887,-1.6038 19.3353,-0.6499 9.8438,2.1605 15.6547,8.0862 18.0182,18.3745 1.0207,4.4434 0.8866,62.3827 -0.156,67.3031 -3.0179,14.2445 -15.7109,21.2143 -33.2872,18.2781 z m 332.62558,79.6985 c 33.32035,-5.1334 56.72363,-16.0518 76.12971,-35.517 13.89715,-13.9395 23.64084,-30.2103 30.5809,-51.0663 8.54523,-25.6793 11.86271,-51.5525 11.20668,-87.3983 -0.51306,-28.0324 -2.97001,-44.7812 -9.39755,-64.0619 -8.50496,-25.5125 -19.3273,-43.3999 -36.88481,-60.9635 -15.77339,-15.7789 -35.6336,-28.6859 -72.32355,-47.0024 -27.64322,-13.8002 -31.98994,-16.6756 -34.85717,-23.0588 -2.2845,-5.0858 -2.29034,-16.8362 -0.0117,-22.6668 3.49175,-8.9328 13.6376,-13.6345 27.66947,-12.8222 9.96017,0.5766 18.08169,6.2416 21.36879,14.9055 0.81151,2.139 1.81761,7.0655 2.23576,10.9479 l 0.7602,7.0588 46.68265,0 46.68262,0 0,-59.2317 0,-59.2318 -6.00371,-4.4393 c -27.08413,-20.0269 -66.87691,-33.6825 -107.62661,-36.9339 -12.1901,-0.9726 -36.8705,-0.4226 -48.89538,1.0897 -51.16635,6.4349 -84.28997,26.7135 -102.85155,62.9665 -11.40186,22.2692 -16.54196,44.6014 -18.40286,79.9546 -1.6821,31.9538 1.7703,63.6835 9.454,86.8907 9.89971,29.9001 27.44489,53.0363 57.34312,75.6161 7.0615,5.3332 29.04649,19.1872 45.84896,28.8923 6.81779,3.9379 15.2369,8.8062 18.70917,10.8184 13.86047,8.0323 22.08834,15.7798 25.1183,23.652 1.98115,5.1472 1.95742,14.3442 -0.0537,20.7655 -1.91665,6.1197 -6.17398,10.9233 -11.60775,13.0972 -3.49362,1.3976 -5.11762,1.5742 -14.60503,1.588 -9.699,0.012 -10.98903,-0.1291 -14.11769,-1.5679 -4.45004,-2.0464 -8.16773,-5.7062 -9.90952,-9.7551 -1.69364,-3.937 -3.35222,-12.7764 -3.91333,-20.8566 l -0.41846,-6.0259 -49.17792,0 -49.17787,0 0,65.0523 0,65.0523 1.5495,1.4487 c 2.1196,1.9818 17.59742,9.5021 28.06323,13.6355 26.6694,10.5325 56.28186,17.4484 85.95606,20.0746 10.56835,0.9353 46.80523,0.3365 54.87641,-0.9072 z m 338.84601,-0.3311 c 29.77231,-4.6184 55.99023,-13.6039 75.74171,-25.9587 6.2659,-3.9194 22.5112,-15.9544 25.98731,-19.252 l 1.89367,-1.7967 0,-85.3712 0,-85.371 -53.85293,0.1762 -53.853005,0.1766 0.18828,28.9241 c 0.11515,17.8828 -0.10815,31.8158 -0.58709,36.4994 -2.24199,21.9374 -8.705,32.2155 -22.52034,35.814 -12.60471,3.283 -25.7317,-1.4634 -31.69204,-11.4594 -2.73415,-4.5853 -5.33146,-13.4474 -6.33051,-21.6 -1.03271,-8.4267 -1.0699,-222.7577 -0.0389,-231.0659 2.56641,-20.7062 11.10001,-31.8616 25.71983,-33.6217 10.13332,-1.22 18.38034,1.3891 24.35304,7.7045 4.13051,4.3673 6.55066,8.9078 8.38815,15.7365 2.25707,8.3881 2.79574,17.1842 2.79574,45.6422 l 0,27.2337 53.544015,-0.1762 53.54374,-0.1766 0.17389,-82.4348 0.17388,-82.4349 -5.33998,-4.0361 c -7.31284,-5.5273 -20.53989,-14.6699 -26.16785,-18.0875 -16.97345,-10.3068 -45.2511,-20.1741 -68.8481,-24.0238 -18.678405,-3.0473 -47.252635,-3.5572 -63.896815,-1.1404 -47.44726,6.8896 -82.00948,29.3543 -105.49651,68.5704 -17.08867,28.5326 -29.87337,69.9012 -35.64865,115.3518 -5.376155,42.3092 -6.061435,99.26 -1.75689,145.9975 8.12992,88.2715 36.02619,149.0915 82.10171,178.9998 17.23657002,11.1885 40.10017,19.0393 64.42288,22.1213 11.36438,1.44 45.25977,0.8804 57.001805,-0.941 z"
           style="fill:#ffffff"
           sodipodi:nodetypes="ssssssssssssccscsscsssccccssssssscssccccccsssssssssscssccscccccssscccsscccccscssccsssscccccssssssssscc" />
        <path
           inkscape:connector-curvature="0"
           d="m -307.86631,10.521936 1.15046,-0.1082 0.18672,-1.3623 c -0.29487,-1.0696 -0.98835,-2.0308 -2.06023,-15.2908 -0.9097,-11.7356 -2.75396,-43.9186 13.44458,-59.8779 6.28395,-6.2284 15.87857,-11.7625 23.44614,-13.5526 31.0346,-7.5654 71.31893,-2.3262 105.72159,37.4517 17.75162,20.5553 26.46583,29.9381 30.82275,34.1351 l 1.49535,1.3895 1.81909,1.3104 c 1.41623,0.8017 59.128175,27.373 59.128175,27.373 l 1.17551,-0.2948 0.035,-1.2543 c -0.37384,-0.4277 -36.567025,-47.1834 -30.153765,-85.7021 5.079495,-30.6876 29.510305,-27.9342 63.273695,-24.0859 11.03979,1.2564 23.60396,2.6999 36.59601,2.9946 36.27188,0.2143 75.356,-6.4418 99.44191,-16.975096 15.583755,-6.8156 25.527165,-11.3077 31.757115,-16.975 2.24265,-1.8441 3.41828,-4.8906 4.62273,-8.0992 l 0.83069,-2.164 c 1.01345,-2.594 2.48379,-8.1533 3.12776,-11.1747 0.29487,-1.3354 0.42764,-2.7807 -0.51101,-3.5011 l -3.33957,0.6142 c -10.55793,6.3359 -36.998795,18.4186 -61.749285,18.9001 -30.66085,0.64 -92.46374,-30.8496 -98.90598,-34.1913 l -0.6151,-0.7208 c -1.55313,-3.6905 -10.82794,-25.6369 -12.78004,-30.2597 44.48339,29.2964 81.36987,45.497 109.62585,48.0096 31.437435,2.8058 55.951055,-14.3542 66.429905,-21.6811 2.05599,-1.3894 3.60923,-2.5127 4.24892,-2.7518 l 0.66875,-1.0965 c -1.74035,-11.0398 -18.17957,-64.5028 -30.58168,-77.3349 -3.44714,-3.5284 -6.20105,-6.9487 -11.762345,-10.2112 -44.93604,-26.196 -151.62124,-42.0226 -156.61788,-42.7431 l -0.85563,0.2412 -0.32016,0.748 c 0,0 -0.40278,22.1337 -0.45736,24.5945 -10.90702,-3.6363 -90.108695,-29.2194 -164.372475,-31.8111 -62.94911,-2.2185 -148.94598,-5.2132 -270.46733,69.4742 l -3.5825,2.2448 c -57.1512,35.6595 -96.6071,79.6071 -117.2432,130.7172 -6.4691,16.065296 -15.1828,52.341496 -6.5771,86.476496 3.7423,14.9443 10.666,29.9132 20.0237,43.333 21.0913,30.312 56.5096,50.4438 94.655,53.8369 53.8368,4.8098 94.6298,-19.3798 109.144,-64.6649 9.9702,-31.2485 0,-77.092 -38.2263,-100.4821 -31.0886,-19.059896 -64.5568,-14.7031 -83.937,-1.8981 -16.8402,11.1728 -26.3825,28.4945 -26.1958,47.5549 0.3738,33.7613 29.4852,51.7248 50.3897,51.7519 6.0931,0 12.1881,-1.0423 19.085,-3.2871 2.4341,-0.7496 4.7581,-1.657 7.2975,-3.2355 l 0.7769,-0.5061 0.5061,-0.2949 -0.1867,0.081 c 4.7847,-3.2086 7.6714,-8.5 7.6714,-14.1676 0,-1.5511 -0.2412,-3.1277 -0.6688,-4.7057 -2.4587,-8.527 -10.9071,-13.7125 -19.6749,-12.1095 l -1.1756,0.2412 -1.6035,0.5334 -2.326,0.7769 c -4.8115,1.2024 -8.4479,1.2836 -9.1957,1.3083 -2.4587,-0.1602 -14.5162,-3.7669 -14.5162,-16.9729 l 0,-0.1603 c 0.035,-4.8389 1.9789,-8.2341 3.0485,-10.0782 3.7152,-5.8812 13.9805,-11.6546 27.8529,-10.4254 18.1796,1.5495 31.2775,10.88 39.9645,28.4697 8.0741,16.3583 5.9624,36.4611 -5.4266,51.2161 -11.3077,14.6244 -31.4352,20.8254 -58.221,17.9094 -26.9992,-2.9658 -49.8266,-18.4973 -62.6047,-42.6889 -12.51,-23.6312 -13.206,-51.673 -1.7902,-73.2167 27.3464,-51.592196 78.9631,-51.058396 107.2731,-46.165596 41.9146,7.2436 79.95365,40.790896 96.87469,85.407496 2.69985,7.1107 4.089,12.7508 5.29136,17.8826 l 1.81905,7.7254 47.33895,23.122 0.64393,0.455 0.001,-5e-4 z M 28.628825,-241.28836 c -8.92572,8.2858 -14.03455,19.5936 -14.46242,31.784 -0.82634,25.1261 18.90216,46.2982 44.02665,47.2352 12.24432,0.401 23.84464,-3.9045 32.74558,-12.2444 8.90094,-8.3132 14.009425,-19.5937 14.462355,-31.7572 0.85574,-25.1534 -18.873225,-46.3522 -44.051235,-47.2599 -12.19034,-0.4006 -23.82003,3.9023 -32.72093,12.2423 m 31.28233,65.3587 c -17.8763,-0.6567 -31.90856,-15.7258 -31.3115,-33.6277 0.27542,-8.6672 3.98023,-16.6784 10.27613,-22.5932 6.32153,-5.9131 14.57811,-8.991 23.24526,-8.665 17.90189,0.6263 31.93808,15.6707 31.33667,33.5999 -0.27075,8.6399 -3.92508,16.6506 -10.24668,22.5911 -6.35102,5.8875 -14.60761,8.9659 -23.30035,8.6949 l 4.7e-4,0 z m 7.52384,-29.406 c 7.95604,0 14.41291,-4.3041 14.41291,-9.5902 0,-5.314 -6.45726,-9.6203 -14.41291,-9.6203 -7.96004,0 -14.3917,4.3063 -14.3917,9.6203 0,5.2861 6.43166,9.5902 14.3917,9.5902"
           style="fill:#000000;fill-opacity:1;fill-rule:evenodd;stroke:none"
           id="path3327" />
      </g>
    </g>
  </g>
</svg>
