<?xml version="1.0" encoding="UTF-8" standalone="no"?>
<!-- Created with Inkscape (http://www.inkscape.org/) -->

<svg
   xmlns:dc="http://purl.org/dc/elements/1.1/"
   xmlns:cc="http://creativecommons.org/ns#"
   xmlns:rdf="http://www.w3.org/1999/02/22-rdf-syntax-ns#"
   xmlns:svg="http://www.w3.org/2000/svg"
   xmlns="http://www.w3.org/2000/svg"
   xmlns:sodipodi="http://sodipodi.sourceforge.net/DTD/sodipodi-0.dtd"
   xmlns:inkscape="http://www.inkscape.org/namespaces/inkscape"
   width="270"
   height="540"
   id="svg2"
   version="1.1"
   inkscape:version="0.48.2 r9819"
   sodipodi:docname="ChameleonSticker.svg"
   inkscape:export-filename="/Users/josh-andy/Documents/artwork/Marketing Materials/Events/openSUSE Summit/Summit 2013/GeekoHunt/ChameleonSticker20.png"
   inkscape:export-xdpi="300"
   inkscape:export-ydpi="300">
  <defs
     id="defs4" />
  <sodipodi:namedview
     id="base"
     pagecolor="#bebebe"
     bordercolor="#666666"
     borderopacity="1.0"
     inkscape:pageopacity="1"
     inkscape:pageshadow="2"
     inkscape:zoom="1.1726001"
     inkscape:cx="263.08932"
     inkscape:cy="301.42078"
     inkscape:document-units="px"
     inkscape:current-layer="layer1"
     showgrid="false"
     inkscape:window-width="2560"
     inkscape:window-height="1336"
     inkscape:window-x="0"
     inkscape:window-y="0"
     inkscape:window-maximized="1"
     units="in" />
  <metadata
     id="metadata7">
    <rdf:RDF>
      <cc:Work
         rdf:about="">
        <dc:format>image/svg+xml</dc:format>
        <dc:type
           rdf:resource="http://purl.org/dc/dcmitype/StillImage" />
        <dc:title></dc:title>
      </cc:Work>
    </rdf:RDF>
  </metadata>
  <g
     inkscape:label="Layer 1"
     inkscape:groupmode="layer"
     id="layer1"
     transform="translate(0,-512.35975)">
    <g
       id="g4017"
       style="fill:#ffffff;stroke:#ffffff;stroke-width:25;stroke-miterlimit:4;stroke-opacity:1;stroke-dasharray:none"
       transform="matrix(0.53734591,0,0,0.53734591,-60.141833,512.12086)">
      <g
         id="g4019"
         transform="translate(1288.5714,325.71429)"
         style="fill:#ffffff;fill-opacity:1;stroke:#ffffff;stroke-width:25;stroke-miterlimit:4;stroke-opacity:1;stroke-dasharray:none">
        <path
           sodipodi:nodetypes="ccsscscccccccccccccscccccccccccccccccccccccccccccacacccscsc"
           inkscape:connector-curvature="0"
           id="path4021"
           d="m -886.42857,-122.63782 c 0.79103,16.76637 3.05511,36.969873 0.71428,46.428573 0,0 -161.94391,-25.150893 -235.54961,136.346207 -53.7197,117.8654 -23.0218,214.36808 32.6925,292.93951 55.7143,78.57143 213.95794,189.54987 337.85711,74.28571 108.67854,-137.60967 13.92858,-241.07143 -62.14285,-217.85714 -75.8333,23.14162 -48.57143,94.28571 -48.57143,94.28571 0,0 19.00867,51.16237 79.28571,37.85715 78.47515,-44.16303 -5.50632,-120.13082 -36.12985,-75.06384 -18.66445,29.17882 24.23064,52.62087 38.20887,33.78463 4.35316,-8.92211 0.46257,-15.04247 -3.86473,-15.68508 -9.46428,0.42377 -6.78029,11.0939 -14.99458,10.87659 -5.24454,-1.06713 -12.31141,-11.99082 -7.19585,-19.89279 11.65114,-14.03101 31.50404,-5.2112 37.19043,6.69477 17.04256,40.41509 -32.43848,52.30542 -57.07143,34.14286 0.33169,0.0415 -27.65546,-18.39726 -12.83763,-55.27271 21.0073,-34.25656 49.7764,-43.03348 89.91487,-14.42311 57.59695,34.81089 23.04207,247.27009 -177.50581,149.12439 -90.41423,-52.89339 -47.85715,-77.85714 -47.85715,-77.85714 0,0 26.42858,-65.71429 25.71429,-89.28572 -0.71429,-23.57143 67.85714,87.14286 67.85714,87.14286 3.33333,2.21881 6.66667,4.75454 10,1.42857 l -6.42857,-28.57143 c -7.46199,-8.87538 -8.75778,-18.77847 -10.71428,-28.57143 -0.90735,-4.52381 1.62724,-9.04761 6.42857,-13.57142 l 10.71428,-7.85715 c 3.86118,-3.80952 0.37121,-7.61905 0,-11.42857 -8.66586,3.42928 -16.80921,7.31575 -32.85714,4.28572 l -43.57143,-55.71429 c -6.29547,0.24934 -11.97583,0.99077 -13.57143,5 l -50.71431,97.14286 56.4286,-112.14286 6.16071,-20.17857 c -7.33005,0.64528 -15.77047,-0.71736 -23.57143,-3.83929 44.97126,3.9179 78.31403,-5.9934 111.69643,-15.98214 10.38816,-2.67724 14.36875,0.51913 19.28572,2.85714 9.7619,6.93865 27.02381,17.44548 29.28571,15 5.62819,-2.82674 8.41527,-6.22171 9.28572,-10 -10.75043,-4.42141 -20.977,-6.60601 -27.14286,-13.57143 -12.75955,-17.9536 -8.44626,-20.257917 -6.42857,-24.28571 3.26375,-12.998475 9.37182,-23.654578 20.71428,-30 1.33872,-1.141062 1.88179,-3.02353 6.07144,-3.214286 2.11851,-1.452915 0.96372,-6.179128 0.35713,-10.357142 -7.88181,-6.759614 -31.19048,11.309524 -32.67857,13.392857 -6.41252,6.886028 -11.14304,17.329418 -19.46428,20.178571 -33.20309,14.49644 -63.48534,26.51016 -77.85715,25 l 28.57143,-75 -23.63526,69.28571 c 29.64285,-12.797618 33.07709,-47.757606 70.06383,-74.28571 10.89611,-8.369279 14.94862,-6.11714 22.85715,-6.428571 9.6524,-0.380104 14.85564,2.85499 28.42789,5.628072 19.85704,1.283906 25.86656,1.135692 38.71496,-0.07177 15.13473,-1.422327 44.82143,-8.413448 44.82143,-8.413448 9.27299,-1.897598 17.64221,-3.256546 19.64286,-6.964286 1.03556,-7.9018889 7.58049,-6.5248298 0.53571,-28.035714 0,0 -24.29316,-22.141843 -26.42857,-37.857143 -2.13446,-15.70829 -29.47956,-31.541526 -36.07142,-36.25 0,0 -39.60397,-27.10645 -63.92858,-28.75 -26.42857,-1.78571 -50.71428,-6.42857 -50.71428,-6.42857 z"
           style="fill:#ffffff;fill-opacity:1;stroke:#ffffff;stroke-width:25;stroke-miterlimit:4;stroke-opacity:1;stroke-dasharray:none" />
        <path
           d="m -746.25017,-54.638741 c 0,11.994675 -9.86493,21.718279 -22.03395,21.718279 -12.16901,0 -22.03395,-9.723604 -22.03395,-21.718279 0,-11.994674 9.86494,-21.718278 22.03395,-21.718278 12.16902,0 22.03395,9.723604 22.03395,21.718278 z"
           sodipodi:ry="21.718279"
           sodipodi:rx="22.033953"
           sodipodi:cy="-54.638741"
           sodipodi:cx="-768.28412"
           id="path4023"
           style="fill:#ffffff;fill-opacity:1;stroke:#ffffff;stroke-width:25;stroke-linecap:butt;stroke-linejoin:miter;stroke-miterlimit:4;stroke-opacity:1;stroke-dasharray:none"
           sodipodi:type="arc"
           transform="translate(-3.8376255,2.1320141)" />
        <path
           d="m -764.30667,-53.502319 c 0,1.464466 -1.10239,2.65165 -2.46225,2.65165 -1.35986,0 -2.46225,-1.187184 -2.46225,-2.65165 0,-1.464466 1.10239,-2.651651 2.46225,-2.651651 1.35986,0 2.46225,1.187185 2.46225,2.651651 z"
           sodipodi:ry="2.6516504"
           sodipodi:rx="2.4622469"
           sodipodi:cy="-53.502319"
           sodipodi:cx="-766.76892"
           id="path4025"
           style="fill:#ffffff;fill-opacity:1;fill-rule:evenodd;stroke:#ffffff;stroke-width:25;stroke-miterlimit:4;stroke-opacity:1;stroke-dasharray:none"
           sodipodi:type="arc" />
        <path
           inkscape:connector-curvature="0"
           id="path4027"
           d="M -953.584,36.653798 -972.7769,141.70966 -975,140.57647 z"
           style="fill:#ffffff;fill-opacity:1;stroke:#ffffff;stroke-width:25;stroke-linecap:butt;stroke-linejoin:miter;stroke-miterlimit:4;stroke-opacity:1;stroke-dasharray:none" />
      </g>
      <path
         style="fill:#ffffff;stroke:#ffffff;stroke-width:25;stroke-linecap:round;stroke-linejoin:miter;stroke-miterlimit:4;stroke-opacity:1;stroke-dasharray:none"
         d="m 448.29992,320.86393 c 0.49509,7.92455 5.06648,7.06467 11.38987,9.09138 28.57489,11.9708 25.07444,6.64844 41.17875,9.09137 25.59068,-1.26267 37.62624,1.13343 80.53519,-6.99239"
         id="path4029"
         inkscape:connector-curvature="0"
         sodipodi:nodetypes="cccc" />
    </g>
    <g
       id="g3853"
       transform="matrix(0.53734591,0,0,0.53734591,-60.141833,512.12086)">
      <g
         style="fill:#13552a;fill-opacity:1"
         transform="translate(1288.5714,325.71429)"
         id="g3828">
        <path
           style="fill:#5fc12b;fill-opacity:1;stroke:none"
           d="m -886.42857,-122.63782 c 0.79103,16.76637 3.05511,36.969873 0.71428,46.428573 0,0 -161.94391,-25.150893 -235.54961,136.346207 -53.7197,117.8654 -23.0218,214.36808 32.6925,292.93951 55.7143,78.57143 213.95794,189.54987 337.85711,74.28571 108.67854,-137.60967 13.92858,-241.07143 -62.14285,-217.85714 -75.8333,23.14162 -48.57143,94.28571 -48.57143,94.28571 0,0 19.00867,51.16237 79.28571,37.85715 78.47515,-44.16303 -5.50632,-120.13082 -36.12985,-75.06384 -18.66445,29.17882 24.23064,52.62087 38.20887,33.78463 4.35316,-8.92211 0.46257,-15.04247 -3.86473,-15.68508 -9.46428,0.42377 -6.78029,11.0939 -14.99458,10.87659 -5.24454,-1.06713 -12.31141,-11.99082 -7.19585,-19.89279 11.65114,-14.03101 31.50404,-5.2112 37.19043,6.69477 17.04256,40.41509 -32.43848,52.30542 -57.07143,34.14286 0.33169,0.0415 -27.65546,-18.39726 -12.83763,-55.27271 21.0073,-34.25656 49.7764,-43.03348 89.91487,-14.42311 57.59695,34.81089 23.04207,247.27009 -177.50581,149.12439 -90.41423,-52.89339 -47.85715,-77.85714 -47.85715,-77.85714 0,0 26.42858,-65.71429 25.71429,-89.28572 -0.71429,-23.57143 67.85714,87.14286 67.85714,87.14286 3.33333,2.21881 6.66667,4.75454 10,1.42857 l -6.42857,-28.57143 c -7.46199,-8.87538 -8.75778,-18.77847 -10.71428,-28.57143 -0.90735,-4.52381 1.62724,-9.04761 6.42857,-13.57142 l 10.71428,-7.85715 c 3.86118,-3.80952 0.37121,-7.61905 0,-11.42857 -8.66586,3.42928 -16.80921,7.31575 -32.85714,4.28572 l -43.57143,-55.71429 c -6.29547,0.24934 -11.97583,0.99077 -13.57143,5 l -50.71431,97.14286 56.4286,-112.14286 6.16071,-20.17857 c -7.33005,0.64528 -15.77047,-0.71736 -23.57143,-3.83929 44.97126,3.9179 78.31403,-5.9934 111.69643,-15.98214 10.38816,-2.67724 14.36875,0.51913 19.28572,2.85714 9.7619,6.93865 27.02381,17.44548 29.28571,15 5.62819,-2.82674 8.41527,-6.22171 9.28572,-10 -10.75043,-4.42141 -20.977,-6.60601 -27.14286,-13.57143 -12.75955,-17.9536 -8.44626,-20.257917 -6.42857,-24.28571 3.26375,-12.998475 9.37182,-23.654578 20.71428,-30 1.33872,-1.141062 1.88179,-3.02353 6.07144,-3.214286 2.11851,-1.452915 0.96372,-6.179128 0.35713,-10.357142 -7.88181,-6.759614 -31.19048,11.309524 -32.67857,13.392857 -6.41252,6.886028 -11.14304,17.329418 -19.46428,20.178571 -33.20309,14.49644 -63.48534,26.51016 -77.85715,25 l 28.57143,-75 -23.63526,69.28571 c 29.64285,-12.797618 33.07709,-47.757606 70.06383,-74.28571 10.89611,-8.369279 14.94862,-6.11714 22.85715,-6.428571 9.6524,-0.380104 14.85564,2.85499 28.42789,5.628072 19.85704,1.283906 25.86656,1.135692 38.71496,-0.07177 15.13473,-1.422327 44.82143,-8.413448 44.82143,-8.413448 9.27299,-1.897598 17.64221,-3.256546 19.64286,-6.964286 1.03556,-7.9018889 7.58049,-6.5248298 0.53571,-28.035714 0,0 -24.29316,-22.141843 -26.42857,-37.857143 -2.13446,-15.70829 -29.47956,-31.541526 -36.07142,-36.25 0,0 -39.60397,-27.10645 -63.92858,-28.75 -26.42857,-1.78571 -50.71428,-6.42857 -50.71428,-6.42857 z"
           id="path3050"
           inkscape:connector-curvature="0"
           sodipodi:nodetypes="ccsscscccccccccccccscccccccccccccccccccccccccccccacacccscsc" />
        <path
           transform="translate(-3.8376255,2.1320141)"
           sodipodi:type="arc"
           style="fill:none;stroke:#ffffff;stroke-width:1px;stroke-linecap:butt;stroke-linejoin:miter;stroke-opacity:1"
           id="path3052"
           sodipodi:cx="-768.28412"
           sodipodi:cy="-54.638741"
           sodipodi:rx="22.033953"
           sodipodi:ry="21.718279"
           d="m -746.25017,-54.638741 c 0,11.994675 -9.86493,21.718279 -22.03395,21.718279 -12.16901,0 -22.03395,-9.723604 -22.03395,-21.718279 0,-11.994674 9.86494,-21.718278 22.03395,-21.718278 12.16902,0 22.03395,9.723604 22.03395,21.718278 z" />
        <path
           sodipodi:type="arc"
           style="fill:#ffffff;fill-opacity:1;fill-rule:evenodd;stroke:#ffffff;stroke-opacity:1"
           id="path3054"
           sodipodi:cx="-766.76892"
           sodipodi:cy="-53.502319"
           sodipodi:rx="2.4622469"
           sodipodi:ry="2.6516504"
           d="m -764.30667,-53.502319 c 0,1.464466 -1.10239,2.65165 -2.46225,2.65165 -1.35986,0 -2.46225,-1.187184 -2.46225,-2.65165 0,-1.464466 1.10239,-2.651651 2.46225,-2.651651 1.35986,0 2.46225,1.187185 2.46225,2.651651 z" />
        <path
           style="fill:#ffffff;fill-opacity:1;stroke:none"
           d="M -953.584,36.653798 -972.7769,141.70966 -975,140.57647 z"
           id="path3826"
           inkscape:connector-curvature="0" />
      </g>
      <path
         sodipodi:nodetypes="cccc"
         inkscape:connector-curvature="0"
         id="path3824"
         d="m 448.29992,320.86393 c 0.49509,7.92455 5.06648,7.06467 11.38987,9.09138 28.57489,11.9708 25.07444,6.64844 41.17875,9.09137 25.59068,-1.26267 37.62624,1.13343 80.53519,-6.99239"
         style="fill:none;stroke:#ffffff;stroke-width:0.93099999;stroke-linecap:round;stroke-linejoin:miter;stroke-miterlimit:4;stroke-opacity:1;stroke-dasharray:none" />
    </g>
    <text
       xml:space="preserve"
       style="font-size:56.02719498px;font-style:normal;font-weight:normal;line-height:125%;letter-spacing:0px;word-spacing:0px;fill:#ffffff;fill-opacity:1;stroke:none;font-family:Sans"
       x="-748.40912"
       y="275.32715"
       id="text3004"
       sodipodi:linespacing="125%"
       transform="matrix(0.26900878,-0.96313772,0.96313772,0.26900878,0,0)"><tspan
         sodipodi:role="line"
         id="tspan3006"
         x="-748.40912"
         y="275.32715"
         style="font-style:normal;font-variant:normal;font-weight:normal;font-stretch:normal;font-family:FifthLeg;-inkscape-font-specification:FifthLeg"># 20</tspan></text>
  </g>
</svg>
