<?xml version="1.0" encoding="UTF-8" standalone="no"?>
<!-- Created with Inkscape (http://www.inkscape.org/) -->

<svg
   width="25cm"
   height="9cm"
   viewBox="0 0 250 90.000001"
   version="1.1"
   id="svg1"
   inkscape:version="1.4.4 (dcaf3e7d9e, 2026-05-05)"
   sodipodi:docname="all logos with name.svg"
   xmlns:inkscape="http://www.inkscape.org/namespaces/inkscape"
   xmlns:sodipodi="http://sodipodi.sourceforge.net/DTD/sodipodi-0.dtd"
   xmlns="http://www.w3.org/2000/svg"
   xmlns:svg="http://www.w3.org/2000/svg">
  <sodipodi:namedview
     id="namedview1"
     pagecolor="#ffffff"
     bordercolor="#000000"
     borderopacity="0.25"
     inkscape:showpageshadow="2"
     inkscape:pageopacity="0.0"
     inkscape:pagecheckerboard="0"
     inkscape:deskcolor="#d1d1d1"
     inkscape:document-units="mm"
     showguides="true"
     inkscape:zoom="0.91059553"
     inkscape:cx="452.45116"
     inkscape:cy="68.08731"
     inkscape:window-width="1536"
     inkscape:window-height="891"
     inkscape:window-x="0"
     inkscape:window-y="0"
     inkscape:window-maximized="1"
     inkscape:current-layer="g1">
    <sodipodi:guide
       position="125.33123,78.833169"
       orientation="0,-1"
       id="guide1"
       inkscape:locked="false" />
    <sodipodi:guide
       position="184.73422,32.583037"
       orientation="0,-1"
       id="guide2"
       inkscape:locked="false" />
    <sodipodi:guide
       position="37.36373,94.263641"
       orientation="1,0"
       id="guide3"
       inkscape:locked="false" />
    <sodipodi:guide
       position="50.121733,105.545"
       orientation="1,0"
       id="guide4"
       inkscape:locked="false" />
    <sodipodi:guide
       position="89.928558,92.760329"
       orientation="1,0"
       id="guide5"
       inkscape:locked="false" />
    <sodipodi:guide
       position="70.306058,38.882872"
       orientation="0,-1"
       id="guide6"
       inkscape:locked="false" />
    <sodipodi:guide
       position="102.42494,105.40199"
       orientation="1,0"
       id="guide7"
       inkscape:locked="false" />
    <sodipodi:guide
       position="142.55467,94.490075"
       orientation="1,0"
       id="guide8"
       inkscape:locked="false" />
    <sodipodi:guide
       position="157.52536,105.2482"
       orientation="1,0"
       id="guide9"
       inkscape:locked="false" />
    <sodipodi:guide
       position="189.67489,86.618261"
       orientation="1,0"
       id="guide10"
       inkscape:locked="false" />
    <sodipodi:guide
       position="202.44424,90.351853"
       orientation="1,0"
       id="guide11"
       inkscape:locked="false" />
    <sodipodi:guide
       position="192.38528,15.68795"
       orientation="0,-1"
       id="guide12"
       inkscape:locked="false" />
  </sodipodi:namedview>
  <defs
     id="defs1">
    <clipPath
       clipPathUnits="userSpaceOnUse"
       id="clipPath4">
      <path
         d="M 0,0 H 313.118 V 228 H 0 Z"
         transform="translate(-138.0493,-74.873004)"
         id="path4" />
    </clipPath>
    <clipPath
       clipPathUnits="userSpaceOnUse"
       id="clipPath6">
      <path
         d="M 0,0 H 313.118 V 228 H 0 Z"
         transform="translate(-196.78371,-74.873004)"
         id="path6" />
    </clipPath>
    <clipPath
       clipPathUnits="userSpaceOnUse"
       id="clipPath8">
      <path
         d="M 0,0 H 313.118 V 228 H 0 Z"
         transform="translate(-217.687,-74.873004)"
         id="path8" />
    </clipPath>
    <clipPath
       clipPathUnits="userSpaceOnUse"
       id="clipPath10">
      <path
         d="M 0,0 H 313.118 V 228 H 0 Z"
         transform="translate(-250.70851,-74.873004)"
         id="path10" />
    </clipPath>
    <clipPath
       clipPathUnits="userSpaceOnUse"
       id="clipPath12">
      <path
         d="M 0,0 H 313.118 V 228 H 0 Z"
         transform="translate(-34.122601,-42.789999)"
         id="path12" />
    </clipPath>
    <clipPath
       clipPathUnits="userSpaceOnUse"
       id="clipPath14">
      <path
         d="M 0,0 H 313.118 V 228 H 0 Z"
         transform="translate(-58.672901,-43.023399)"
         id="path14" />
    </clipPath>
    <clipPath
       clipPathUnits="userSpaceOnUse"
       id="clipPath16">
      <path
         d="M 0,0 H 313.118 V 228 H 0 Z"
         transform="translate(-83.309102,-53.752899)"
         id="path16" />
    </clipPath>
    <clipPath
       clipPathUnits="userSpaceOnUse"
       id="clipPath18">
      <path
         d="M 0,0 H 313.118 V 228 H 0 Z"
         transform="translate(-114.6045,-59.920899)"
         id="path18" />
    </clipPath>
    <clipPath
       clipPathUnits="userSpaceOnUse"
       id="clipPath20">
      <path
         d="M 0,0 H 313.118 V 228 H 0 Z"
         transform="translate(-284.30421,-41.392599)"
         id="path20" />
    </clipPath>
  </defs>
  <g
     inkscape:label="Layer 1"
     inkscape:groupmode="layer"
     id="layer1">
    <path
       id="path2"
       style="fill:#25ac95;fill-opacity:1;stroke-width:1.00772"
       d="m 87.015256,16.031906 c -0.06728,0.0092 -0.132564,0.04206 -0.181877,0.09508 l -2.282311,2.44428 c -0.09595,0.103094 -0.109396,0.258971 -0.03324,0.378329 l 2.876835,4.508251 c -0.464633,0.84412 -0.832235,1.751486 -1.085413,2.70376 l -5.01639,1.206295 c -0.139609,0.03343 -0.238724,0.16107 -0.234676,0.30702 l 0.09388,3.363363 c 0.0044,0.142244 0.104321,0.263879 0.240548,0.293154 l 4.932298,1.073582 c 0.291508,1.086297 0.723475,2.11066 1.284897,3.048417 l -2.714522,4.460713 c -0.07576,0.124664 -0.05428,0.284082 0.05089,0.384269 l 2.413346,2.311569 c 0.1015,0.09691 0.257121,0.112357 0.375497,0.03566 l 4.367088,-2.860247 c 0.886943,0.485326 1.839262,0.861292 2.841642,1.105273 l 1.177342,5.01929 c 0.03316,0.142281 0.159947,0.23978 0.303131,0.235715 l 3.320791,-0.09508 c 0.139609,-0.004 0.257998,-0.104035 0.287478,-0.243637 l 1.08152,-5.092578 c 1.01775,-0.309428 1.97592,-0.754567 2.85532,-1.313259 l 4.45903,2.782998 c 0.12261,0.0769 0.28203,0.05683 0.38137,-0.04953 l 2.28231,-2.44428 c 0.0966,-0.103397 0.10959,-0.259291 0.0332,-0.378329 l -1.67215,-2.622552 -0.5124,0.180253 c -0.0747,0.02629 -0.1572,-1.63e-4 -0.20338,-0.06537 0,0 -1.06209,-1.482443 -2.43292,-3.397031 -1.4878,3.164978 -4.63102,5.391642 -8.329359,5.496661 -2.387949,0.06781 -4.593813,-0.762374 -6.305191,-2.186781 l 0.479147,-0.48529 c 3.471463,2.876586 8.620363,2.678405 11.857453,-0.600178 3.23708,-3.27858 3.43471,-8.493488 0.59452,-12.009455 l 3.16044,-3.200937 a 0.88505593,0.89640186 6.7027773e-4 1 0 -1.25166,-1.267699 l -3.16043,3.200938 c -3.471487,-2.87658 -8.620382,-2.678402 -11.857469,0.60018 -3.237081,3.278582 -3.432754,8.493491 -0.592574,12.009459 l -0.486968,0.49123 c -1.329853,-1.606314 -2.155264,-3.658447 -2.217783,-5.916585 -0.108369,-3.915062 2.104289,-7.348861 5.372336,-8.951135 l -0.07038,-2.485878 c -0.596477,0.230543 -1.170494,0.505115 -1.71515,0.825985 l -0.0022,-0.0021 -4.564622,-2.85034 c -0.06145,-0.03822 -0.132142,-0.05253 -0.199477,-0.04357 z m 10.691852,6.088913 c 1.795532,-0.0091 3.594932,0.673879 4.983142,2.046143 a 0.88503008,0.89637565 6.224046e-4 0 0 0.1193,0.120827 c 2.71226,2.811853 2.69928,7.288856 -0.0528,10.076216 -2.75126,2.786527 -7.170306,2.79999 -9.946726,0.05546 a 0.88503008,0.89637565 6.224046e-4 0 0 -0.119287,-0.120828 c -2.712277,-2.811852 -2.699286,-7.288857 0.05281,-10.07622 1.375618,-1.39326 3.168048,-2.092617 4.963582,-2.101603 z m 0.04306,3.593131 c -0.907749,0 -1.81583,0.34758 -2.503311,1.043869 -1.374948,1.392577 -1.374948,3.678211 0,5.070792 1.374962,1.39258 3.631664,1.392579 5.006613,0 1.37495,-1.392576 1.37495,-3.678212 0,-5.070792 -0.687482,-0.69629 -1.595549,-1.04387 -2.503302,-1.043869 z m 0,1.780719 c 0.451098,0 0.902355,0.177072 1.251645,0.530847 0.698599,0.707554 0.698599,1.827847 0,2.535396 -0.698589,0.707551 -1.804704,0.707555 -2.503301,0 -0.698597,-0.707552 -0.698597,-1.827846 0,-2.535396 0.349298,-0.353772 0.800555,-0.530847 1.251656,-0.530847 z"
       inkscape:label="logo" />
    <path
       d="m 202.4462,16.856209 c -4.31405,-0.01033 -7.82729,3.502875 -7.81692,7.816924 0.0103,4.314049 3.53169,7.834908 7.84574,7.84528 l 1.93955,0.0045 -0.004,-2.7e-4 c 0.001,0 0.002,-4e-6 0.003,0 h 5.1e-4 c 1.76268,0.004 3.30094,0.0076 4.05057,0.0093 0.002,1.028618 0.009,4.335253 0.0134,5.989648 0.0103,4.314049 3.53122,7.835367 7.84527,7.845733 4.31405,0.01033 7.82729,-3.502869 7.81692,-7.816924 -0.0103,-4.314045 -3.53168,-7.834901 -7.84574,-7.845276 -0.50565,-0.0012 -1.04112,-0.0024 -1.83043,-0.0041 -1.79297,-0.0041 -3.39869,-0.0076 -4.15868,-0.0093 -0.002,-1.028619 -0.009,-4.33526 -0.0134,-5.989651 -0.0103,-4.314054 -3.5317,-7.835372 -7.84573,-7.845744 z m -0.004,1.845371 c 0.25426,6.45e-4 0.50414,0.01886 0.74998,0.04993 v 6.644766 h -6.67016 c -0.0293,-0.238718 -0.0462,-0.481264 -0.0469,-0.727844 -0.008,-3.317081 2.64998,-5.974895 5.96683,-5.966829 z m 2.59534,0.592467 c 2.01446,0.968868 3.40399,3.025247 3.40975,5.411982 0.003,1.651582 0.0111,4.945424 0.0134,5.980887 -1.03538,-0.0024 -4.3288,-0.0094 -5.98018,-0.01341 -2.39527,-0.0058 -4.45767,-1.405575 -5.42237,-3.431877 h 7.97956 v -7.947593 z m 5.27253,13.242271 c 1.03571,0.0028 4.32927,0.0094 5.98089,0.01337 2.42707,0.0058 4.51137,1.443334 5.45878,3.513244 h -7.94679 v 7.898296 c -2.05193,-0.954804 -3.47383,-3.030321 -3.47958,-5.444483 -0.004,-1.651581 -0.0111,-4.944967 -0.0134,-5.980198 z m 5.33799,5.37096 h 6.6109 c 0.0232,0.212736 0.036,0.428683 0.0365,0.647558 0.008,3.317078 -2.64998,5.97489 -5.96683,5.966828 -0.23026,-2.65e-4 -0.45705,-0.01556 -0.6805,-0.04118 v -6.573298 z"
       stroke-width="0.134757"
       id="path1-9"
       style="fill:#20caa3;fill-opacity:1" />
    <path
       style="fill:#a498ff;fill-opacity:1;stroke-width:0.42348"
       id="path835"
       d="m 48.406349,15.782641 c -7.660738,0 -13.986486,5.859372 -14.733462,13.327796 h -7.479532 a 1.4810146,1.4810144 0 1 0 0,2.961732 h 7.479532 c 0.746976,7.468425 7.072724,13.327788 14.733462,13.327788 7.660752,0 13.986485,-5.859363 14.733476,-13.327788 h 7.479515 a 1.4810146,1.4810144 0 1 0 0,-2.961732 H 63.139825 C 62.392834,21.642013 56.067101,15.782641 48.406349,15.782641 Z m 0,2.961732 c 6.510981,0 11.756538,5.210606 11.835357,11.702309 a 1.4810146,1.4810144 0 0 0 0,0.283437 c -0.07578,6.494457 -5.322397,11.708116 -11.835357,11.708116 -6.510989,0 -11.756532,-5.210606 -11.835366,-11.70231 a 1.4810146,1.4810144 0 0 0 0,-0.283438 c 0.07578,-6.494457 5.322405,-11.708114 11.835366,-11.708114 z m 0,5.923466 c -3.253899,0 -5.92346,2.669556 -5.92346,5.923463 0,3.25391 2.669561,5.923469 5.92346,5.923469 3.253899,0 5.923466,-2.669559 5.923466,-5.923469 0,-3.253907 -2.669567,-5.923463 -5.923466,-5.923463 z m 0,2.961732 c 1.653268,0 2.961741,1.308463 2.961741,2.961731 0,1.65327 -1.308473,2.961734 -2.961741,2.961734 -1.65326,0 -2.961726,-1.308464 -2.961726,-2.961734 0,-1.653268 1.308466,-2.961731 2.961726,-2.961731 z"
       fill="#173f4f" />
    <g
       transform="matrix(4.6387989,0,0,4.6387989,-8849.8258,-298.14399)"
       id="g2"
       style="clip-rule:evenodd;fill-rule:evenodd;stroke-linejoin:round;stroke-miterlimit:2">
      <path
         d="m 1933.8,71 c 0,-1.766 1.43,-3.2 3.2,-3.2 1.77,0 3.2,1.434 3.2,3.2 0,1.766 -1.43,3.2 -3.2,3.2 -1.77,0 -3.2,-1.434 -3.2,-3.2 z m 6,0 c 0,-1.545 -1.25,-2.8 -2.8,-2.8 -1.55,0 -2.8,1.255 -2.8,2.8 0,1.104 0.9,2 2,2 1.1,0 2,-0.896 2,-2 0,-0.662 -0.54,-1.2 -1.2,-1.2 -0.66,0 -1.2,0.538 -1.2,1.2 0,0.441 0.36,0.8 0.8,0.8 0.11,0 0.2,0.09 0.2,0.2 0,0.11 -0.09,0.2 -0.2,0.2 -0.66,0 -1.2,-0.538 -1.2,-1.2 0,-0.883 0.72,-1.6 1.6,-1.6 0.88,0 1.6,0.717 1.6,1.6 0,1.325 -1.07,2.4 -2.4,2.4 -0.32,0 -0.62,-0.061 -0.9,-0.173 0.47,0.359 1.06,0.573 1.7,0.573 1.55,0 2.8,-1.255 2.8,-2.8 z"
         style="fill:#ff5b45;fill-opacity:1"
         id="path1-1" />
    </g>
    <path
       d="m 173.19428,16.404701 a 0.98634762,0.98634762 0 0 0 -0.65105,0.285089 l -10.84866,10.848667 a 0.98634762,0.98634762 0 0 0 0,1.394546 l 10.84866,10.848668 a 0.98634762,0.98634762 0 0 0 1.39455,0 l 10.84866,-10.848668 a 0.98634762,0.98634762 0 0 0 0,-1.394546 L 173.93778,16.68979 a 0.98634762,0.98634762 0 0 0 -0.74355,-0.285089 z m 0.0462,2.376975 9.45412,9.454119 -9.45412,9.454122 -9.45412,-9.454122 z m -11.83491,15.370917 v 0.986241 a 0.98624245,0.98624245 0 0 0 0.28896,0.697302 l 10.84866,10.848666 a 0.98634762,0.98634762 0 0 0 1.39455,0 L 184.7864,35.836136 a 0.98624245,0.98624245 0 0 0 0.28894,-0.697302 0.98624245,0.98624245 0 0 0 0,-0.04623 v -0.940006 h -0.98624 a 0.98624245,0.98624245 0 0 0 -0.6973,0.288942 L 173.24052,44.592869 163.08919,34.441541 a 0.98624245,0.98624245 0 0 0 -0.69732,-0.28509 v -0.0038 z"
       color="#000000"
       color-rendering="auto"
       dominant-baseline="auto"
       fill="#fbc75d"
       image-rendering="auto"
       shape-rendering="auto"
       solid-color="#000000"
       stop-color="#000000"
       style="font-variant-ligatures:normal;font-variant-position:normal;font-variant-caps:normal;font-variant-numeric:normal;font-variant-alternates:normal;font-variant-east-asian:normal;font-feature-settings:normal;font-variation-settings:normal;text-indent:0;text-decoration-line:none;text-decoration-style:solid;text-decoration-color:#000000;text-transform:none;text-orientation:mixed;white-space:normal;shape-padding:0;shape-margin:0;inline-size:0;isolation:auto;mix-blend-mode:normal;fill:#d4cb1b;fill-opacity:1;stroke-width:0.131499"
       id="path1-2" />
    <g
       id="g1"
       transform="matrix(0.26458333,0,0,0.26458333,82.919287,6.304676)">
      <path
         id="path3"
         d="m 0,0 c -6.274,0 -9.725,-5.305 -9.725,-8.972 v -4.708 c 0,-5.4 4.412,-8.747 8.503,-8.747 h 14.364 c 1.81,0 2.189,-1.183 2.189,-2.183 v -3.038 c 0,-0.324 -0.065,-3.242 -2.189,-3.242 h -19.59 c -1.947,0 -3.354,-1.354 -3.354,-3.207 v -0.84 c 0,-1.847 1.407,-3.193 3.354,-3.193 h 20.655 c 5.399,0 8.883,3.757 8.883,9.576 v 5.08 c 0,5.464 -3.926,7.908 -7.824,7.908 H 1.132 c -2.127,0 -3.092,1.595 -3.092,2.723 v 2.805 c 0,1.767 1.181,2.79 3.245,2.79 H 16.93 c 1.918,0 3.362,1.378 3.362,3.2 v 0.839 C 20.292,-1.38 18.824,0 16.865,0 Z"
         style="fill:#42cd42;fill-opacity:1;fill-rule:nonzero;stroke:none"
         transform="matrix(1.3333333,0,0,-1.3333333,184.06573,204.16933)"
         clip-path="url(#clipPath4)" />
      <path
         id="path5"
         d="m 0,0 c -1.855,0 -3.35,-1.507 -3.35,-3.361 v -24.054 c 0,-1.927 -1.572,-3.475 -3.474,-3.475 h -10.919 c -1.91,0 -3.475,1.548 -3.475,3.475 v 24.054 c 0,1.854 -1.507,3.361 -3.359,3.361 h -1.057 c -1.882,0 -3.361,-1.483 -3.361,-3.361 v -24.964 c 0,-5.812 4.572,-10.028 10.873,-10.028 h 11.676 c 6.292,0 10.861,4.215 10.861,10.028 V -3.361 C 4.415,-1.483 2.941,0 1.063,0 Z"
         style="fill:#42cd42;fill-opacity:1;fill-rule:nonzero;stroke:none"
         transform="matrix(1.3333333,0,0,-1.3333333,262.37827,204.16933)"
         clip-path="url(#clipPath6)" />
      <path
         id="path7"
         d="m 0,0 c -6.271,0 -9.731,-5.305 -9.731,-8.972 v -4.708 c 0,-5.4 4.42,-8.747 8.514,-8.747 h 14.36 c 1.812,0 2.192,-1.183 2.192,-2.183 v -3.038 c 0,-0.324 -0.064,-3.242 -2.192,-3.242 h -19.6 c -1.938,0 -3.353,-1.354 -3.353,-3.207 v -0.84 c 0,-1.847 1.415,-3.193 3.353,-3.193 h 20.663 c 5.4,0 8.899,3.757 8.899,9.576 v 5.08 c 0,5.464 -3.937,7.908 -7.834,7.908 H 1.138 c -2.135,0 -3.096,1.595 -3.096,2.723 v 2.805 c 0,1.767 1.181,2.79 3.244,2.79 H 16.94 c 1.914,0 3.352,1.378 3.352,3.2 v 0.839 C 20.292,-1.38 18.826,0 16.858,0 Z"
         style="fill:#42cd42;fill-opacity:1;fill-rule:nonzero;stroke:none"
         transform="matrix(1.3333333,0,0,-1.3333333,290.24933,204.16933)"
         clip-path="url(#clipPath8)" />
      <path
         id="path9"
         d="m 0,0 c -1.861,0 -3.269,-1.38 -3.269,-3.209 v -31.727 c 0,-1.821 1.374,-3.192 3.196,-3.192 h 25.282 c 1.947,0 3.354,1.346 3.354,3.192 v 0.84 c 0,1.853 -1.407,3.208 -3.354,3.208 H 4.503 v 8.077 h 15.174 c 1.941,0 3.352,1.364 3.352,3.209 v 0.838 c 0,1.855 -1.411,3.201 -3.352,3.201 H 4.503 v 8.319 h 19.654 c 1.941,0 3.355,1.337 3.355,3.201 v 0.838 c 0,1.855 -1.414,3.209 -3.355,3.209 L 0,0.004 Z"
         style="fill:#42cd42;fill-opacity:1;fill-rule:nonzero;stroke:none"
         transform="matrix(1.3333333,0,0,-1.3333333,334.278,204.16933)"
         clip-path="url(#clipPath10)" />
      <path
         id="path11"
         d="m 0,0 v 10.924 c 0,1.28 1.052,2.327 2.338,2.327 h 6.029 c 1.258,0 2.33,-1.07 2.33,-2.327 L 10.697,0 c 0,-1.288 -1.044,-2.337 -2.33,-2.337 H 2.293 C 1.004,-2.337 0,-1.312 0,0 m 1.674,16.992 c -3.168,0 -5.747,-2.465 -5.747,-5.505 V -0.475 c 0,-3.088 2.495,-5.602 5.555,-5.602 h 7.737 c 3.06,0 5.555,2.514 5.555,5.602 v 11.962 c 0,3.038 -2.58,5.505 -5.747,5.505 z"
         style="fill:#42cd42;fill-opacity:1;fill-rule:nonzero;stroke:none"
         transform="matrix(1.3333333,0,0,-1.3333333,45.4968,246.94667)"
         clip-path="url(#clipPath12)" />
      <path
         id="path13"
         d="m 0,0 v 10.448 c 0,1.444 1.128,2.571 2.57,2.571 h 5.651 c 1.444,0 2.57,-1.128 2.57,-2.571 V 0 c 0,-1.418 -1.156,-2.569 -2.57,-2.569 H 2.57 C 1.155,-2.569 0,-1.418 0,0 m 7.74,16.897 c -2.231,0 -3.913,-0.796 -5.263,-1.45 -0.823,-0.394 -1.535,-0.735 -2.088,-0.735 -0.25,0 -0.464,0.113 -0.577,0.299 l -0.515,0.983 c -0.128,0.259 -0.644,0.766 -1.282,0.766 H -2.75 c -0.735,0 -1.323,-0.66 -1.323,-1.467 v -30.341 c 0,-0.952 0.751,-1.701 1.701,-1.701 h 0.661 c 0.943,0 1.71,0.759 1.71,1.701 V -4.98 c 0,0.298 0.193,0.621 0.39,0.621 0.553,0 1.265,-0.325 2.088,-0.702 1.35,-0.621 3.032,-1.385 5.263,-1.385 h 0.714 c 3.95,0 6.408,2.258 6.408,5.883 V 11.02 c 0,3.571 -2.51,5.876 -6.408,5.876 H 7.74 Z"
         style="fill:#42cd42;fill-opacity:1;fill-rule:nonzero;stroke:none"
         transform="matrix(1.3333333,0,0,-1.3333333,78.230533,246.63547)"
         clip-path="url(#clipPath14)" />
      <path
         id="path15"
         d="m 0,0 c 0,1.282 1.008,2.289 2.292,2.289 h 6.215 c 1.281,0 2.28,-1.007 2.28,-2.289 V -3.707 H -0.001 C 0,-3.223 0,0 0,0 m 1.672,6.03 c -3.168,0 -5.739,-2.466 -5.739,-5.505 v -11.873 c 0,-3.08 2.499,-5.691 5.448,-5.691 h 7.984 c 0.987,0 1.701,0.684 1.701,1.613 v 0.523 c 0,0.935 -0.714,1.605 -1.701,1.605 H 2.806 c -1.838,0 -2.807,0.902 -2.807,2.621 v 3.474 H 11.83 c 1.903,0 3.029,1.161 3.029,3.127 v 4.603 c 0,3.039 -2.576,5.506 -5.732,5.506 H 1.672 Z"
         style="fill:#42cd42;fill-opacity:1;fill-rule:nonzero;stroke:none"
         transform="matrix(1.3333333,0,0,-1.3333333,111.0788,232.32947)"
         clip-path="url(#clipPath16)" />
      <path
         id="path17"
         d="m 0,0 c -2.224,0 -3.902,-0.797 -5.256,-1.442 -0.843,-0.397 -1.563,-0.744 -2.151,-0.744 -0.258,0 -0.363,0.034 -0.564,0.381 l -0.468,0.855 c -0.268,0.54 -0.725,0.811 -1.341,0.811 h -0.658 c -0.794,0 -1.374,-0.619 -1.374,-1.465 v -19.902 c 0,-0.942 0.745,-1.701 1.705,-1.701 h 0.657 c 0.943,0 1.712,0.767 1.712,1.701 v 15.057 c 0,1.41 1.153,2.57 2.564,2.57 h 5.653 c 1.416,0 2.568,-1.16 2.568,-2.57 v -15.057 c 0,-0.942 0.749,-1.701 1.7,-1.701 h 0.665 c 0.943,0 1.709,0.767 1.709,1.701 V -5.877 C 7.121,-2.306 4.61,0 0.71,0 Z"
         style="fill:#42cd42;fill-opacity:1;fill-rule:nonzero;stroke:none"
         transform="matrix(1.3333333,0,0,-1.3333333,152.806,224.10547)"
         clip-path="url(#clipPath18)" />
      <path
         id="path19"
         d="M 0,0 H 0.406 C 0.868,0 1.26,0.167 1.26,0.602 1.26,0.91 1.036,1.219 0.406,1.219 0.224,1.219 0.099,1.205 0,1.188 Z M 0,-1.947 H -0.56 V 1.565 C -0.266,1.608 0.015,1.65 0.435,1.65 0.967,1.65 1.316,1.54 1.525,1.385 1.736,1.232 1.85,0.995 1.85,0.656 1.85,0.195 1.541,-0.083 1.164,-0.197 v -0.03 C 1.473,-0.281 1.682,-0.562 1.752,-1.08 1.836,-1.627 1.918,-1.837 1.976,-1.948 H 1.388 C 1.302,-1.837 1.219,-1.515 1.149,-1.053 1.065,-0.605 0.841,-0.437 0.394,-0.437 H 0.001 v -1.51 z m 0.588,4.495 c -1.385,0 -2.519,-1.192 -2.519,-2.661 0,-1.499 1.134,-2.674 2.534,-2.674 1.399,-0.016 2.519,1.175 2.519,2.66 0,1.483 -1.12,2.675 -2.519,2.675 z m 0.015,0.489 c 1.721,0 3.093,-1.4 3.093,-3.152 0,-1.778 -1.373,-3.162 -3.108,-3.162 -1.722,0 -3.121,1.384 -3.121,3.162 0,1.751 1.399,3.152 3.121,3.152 z"
         style="fill:#42cd42;fill-opacity:1;fill-rule:nonzero;stroke:none"
         transform="matrix(1.3333333,0,0,-1.3333333,379.07227,248.80987)"
         clip-path="url(#clipPath20)" />
    </g>
  </g>
</svg>
