<?xml version="1.0" encoding="UTF-8"?>
<svg version="1.1" viewBox="0 0 340 220.3" xmlns="http://www.w3.org/2000/svg">
 <g transform="translate(-232.86 -406.35)">
  <path id="Geeko" d="m523.71 467.88c-3.3113-.11926-6.4507 1.0506-8.8499 3.3008-2.3993 2.2502-3.8147 5.2984-3.9147 8.5991-.2297 6.8207 5.1108 12.559 11.916 12.81 3.3095.1 6.4647-1.0698 8.878-3.32 2.4098-2.2607 3.7953-5.3107 3.9006-8.5991.2297-6.819-5.109-12.549-11.93-12.791zm2.0205 13.512c-3.0307 0-5.4791-1.6398-5.4791-3.6498 0-2.0292 2.4484-3.6603 5.4791-3.6603 3.0306 0 5.486 1.6311 5.486 3.6603 0 2.0099-2.4571 3.6498-5.486 3.6498zm28.798 14.729c.0887-.0692.29521-.25105.2683-.41918-.68471-4.2787-7.0592-25.029-11.884-30.019-1.3294-1.3592-2.394-2.6992-4.5495-3.9602-17.454-10.171-58.863-16.309-60.803-16.59 0 0-.19473-.0406-.3297.0912-.1048.10237-.1246.29991-.1246.29991s-.1596 8.5798-.1841 9.5392c-4.2286-1.4206-34.972-11.351-63.791-12.351-24.44-.85939-60.033-4.0198-107.2 24.98l-1.3943.86815c-22.19 13.841-37.51 30.91-45.518 50.739-2.5116 6.2402-5.8895 20.32-2.5414 33.569 1.4417 5.7912 4.1304 11.61 7.7556 16.819 8.194 11.77 21.944 19.58 36.749 20.899 20.904 1.8696 36.733-7.5188 42.363-25.099 3.8708-12.13 0-29.928-14.839-39.007-12.07-7.3907-25.049-5.7106-32.578-.7296-6.5313 4.3303-10.23 11.06-10.165 18.451.1508 13.11 11.444 20.078 19.564 20.099 2.3589 0 4.7284-.41041 7.3995-1.2803.9506-.28939 1.845-.64893 2.8307-1.2593l.3087-.18064.1947-.12978-.065.0386c1.8503-1.261 2.964-3.3113 2.964-5.5106 0-.59981-.084-1.2084-.2561-1.8205-.9593-3.32-4.239-5.3282-7.638-4.7091l-.4595.10874-.6209.18942-.9015.31043c-1.8696.4595-3.2692.49984-3.5691.51037-.9506-.0614-5.6246-1.461-5.6246-6.5805v-.0702c0-1.8801.7542-3.199 1.1698-3.9198 1.454-2.28 5.4352-4.5179 10.814-4.0496 7.0593.61034 12.149 4.2303 15.52 11.06 3.1289 6.349 2.3098 14.159-2.1099 19.88-4.3899 5.6684-12.205 8.0782-22.598 6.9593-10.481-1.1593-19.34-7.1908-24.303-16.579-4.8565-9.1779-5.1213-20.059-.6858-28.418 10.609-20.029 30.649-19.82 41.637-17.921 16.26 2.8202 34.758 17.819 41.319 35.138 1.0593 2.7606 1.5995 4.9494 2.0713 6.9505l.7085 2.9903 18.37 8.9692c.39458.19266.52796.25778.6858.14034.18941-.14093.081-.52966.081-.52966-.114-.4104-.3806-.78924-.805-5.9298-.3491-4.5618-1.0594-17.051 5.2282-23.24 2.4414-2.4186 6.1613-4.5776 9.099-5.2686 12.04-2.9412 26.159-.912 39.507 14.539 6.9102 7.98 10.279 11.619 11.97 13.249 0 0 .38494.36349.5893.53142.22331.1835.36878.33789.6945.51914.55786.31042 22.954 10.621 22.954 10.621s.26534.13182.4612-.11049c.19362-.23953.01-.47879.01-.47879-.1491-.17013-14.199-18.328-11.698-33.279 1.9696-11.909 11.447-10.83 24.558-9.3498 4.2794.49984 9.1516 1.0593 14.196 1.1716 14.084.0895 29.254-2.5115 38.604-6.6015 6.049-2.629 9.9093-4.3794 12.328-6.5787.8699-.72084 1.3207-1.8907 1.7907-3.1499l.3297-.83133c.3911-1.0207.9664-3.171 1.219-4.3496.1017-.51914.2208-1.0274-.2087-1.3592-.39265-.30337-1.2944.24026-1.2944.24026-4.1058 2.4712-14.369 7.1505-23.965 7.3504-11.914.24027-36.054-12.061-38.555-13.36-1.6739-3.9857-3.3458-7.9724-5.0438-11.948 17.27 11.379 31.594 17.668 42.559 18.638 12.207 1.0874 21.723-5.5724 25.853-8.3432.54064-.35944 1.0799-.76184 1.5756-1.1486zm-48.992-16.369c.1753-4.7302 2.1554-9.12 5.6141-12.34 3.4603-3.2306 7.9747-4.9003 12.708-4.7494 9.7602.34902 17.43 8.5886 17.095 18.338-.1841 4.7302-2.1642 9.12-5.6141 12.33-3.4603 3.2499-7.9642 4.9196-12.719 4.76-9.7497-.35954-17.411-8.5798-17.084-18.338z" clip-rule="evenodd" fill-rule="evenodd"/>
  <g transform="matrix(1.7539 0 0 1.7539 -692 -166.47)">
   <path d="m667.46 415.23c1.218 0 2.188.99 2.188 2.229 0 1.257-.971 2.237-2.198 2.237-1.218 0-2.208-.98-2.208-2.237 0-1.238.99-2.229 2.208-2.229zm-.01.346c-.98 0-1.782.842-1.782 1.882 0 1.06.802 1.891 1.792 1.891.99.011 1.782-.831 1.782-1.881s-.792-1.892-1.782-1.892zm-.416 3.179h-.396v-2.485c.208-.03.406-.06.703-.06.377 0 .624.079.772.188.149.108.229.276.229.515 0 .326-.218.524-.485.604v.021c.218.039.366.237.416.604.06.387.118.535.158.614h-.416c-.06-.079-.119-.307-.168-.634-.06-.316-.218-.436-.535-.436h-.277v1.069zm0-1.377h.287c.327 0 .604-.118.604-.426 0-.218-.158-.436-.604-.436-.129 0-.218.01-.287.021z"/>
  </g>
 </g>
</svg>
