<?xml version="1.0" encoding="UTF-8" standalone="no"?>
<!-- Created with Inkscape (http://www.inkscape.org/) -->

<svg
   width="20cm"
   height="20cm"
   viewBox="0 0 200 200"
   version="1.1"
   id="svg1"
   inkscape:version="1.4.4 (dcaf3e7d9e, 2026-05-05)"
   sodipodi:docname="open developer summit barcelona.svg"
   inkscape:export-filename="odsb.png"
   inkscape:export-xdpi="45.060638"
   inkscape:export-ydpi="45.060638"
   xmlns:inkscape="http://www.inkscape.org/namespaces/inkscape"
   xmlns:sodipodi="http://sodipodi.sourceforge.net/DTD/sodipodi-0.dtd"
   xmlns="http://www.w3.org/2000/svg"
   xmlns:svg="http://www.w3.org/2000/svg">
  <sodipodi:namedview
     id="namedview1"
     pagecolor="#ffffff"
     bordercolor="#000000"
     borderopacity="0.25"
     inkscape:showpageshadow="2"
     inkscape:pageopacity="0.0"
     inkscape:pagecheckerboard="0"
     inkscape:deskcolor="#d1d1d1"
     inkscape:document-units="mm"
     inkscape:zoom="0.85358449"
     inkscape:cx="435.80923"
     inkscape:cy="447.52453"
     inkscape:window-width="1536"
     inkscape:window-height="891"
     inkscape:window-x="0"
     inkscape:window-y="0"
     inkscape:window-maximized="1"
     inkscape:current-layer="layer1"
     showguides="true">
    <sodipodi:guide
       position="99.869962,207.33172"
       orientation="1,0"
       id="guide2"
       inkscape:locked="false" />
    <sodipodi:guide
       position="21.612794,99.924142"
       orientation="0,-1"
       id="guide3"
       inkscape:locked="false" />
    <sodipodi:guide
       position="-7.4392167,138.00653"
       orientation="0,-1"
       id="guide4"
       inkscape:locked="false" />
    <sodipodi:guide
       position="11.124528,24.97755"
       orientation="0,-1"
       id="guide5"
       inkscape:locked="false" />
    <sodipodi:guide
       position="127.42727,152.81944"
       orientation="1,0"
       id="guide6"
       inkscape:locked="false" />
    <sodipodi:guide
       position="70.303171,186.37695"
       orientation="0,-1"
       id="guide7"
       inkscape:locked="false" />
    <sodipodi:guide
       position="3.0367295,63.162785"
       orientation="0,-1"
       id="guide8"
       inkscape:locked="false" />
    <sodipodi:guide
       position="49.885372,114.35456"
       orientation="1,0"
       id="guide1"
       inkscape:locked="false" />
    <sodipodi:guide
       position="149.80868,154.15873"
       orientation="1,0"
       id="guide9"
       inkscape:locked="false" />
    <sodipodi:guide
       position="13.651883,164.17697"
       orientation="1,0"
       id="guide10"
       inkscape:locked="false" />
    <sodipodi:guide
       position="186.29523,160.38956"
       orientation="1,0"
       id="guide11"
       inkscape:locked="false" />
  </sodipodi:namedview>
  <defs
     id="defs1">
    <rect
       x="111.59073"
       y="788.62445"
       width="570.6855"
       height="345.25724"
       id="rect4" />
  </defs>
  <g
     inkscape:label="Layer 1"
     inkscape:groupmode="layer"
     id="layer1">
    <rect
       style="fill:#00c8ff;fill-opacity:1;stroke-width:0.421608"
       id="rect1"
       width="197.2897"
       height="197.28966"
       x="1.4849999"
       y="1.485"
       ry="14.134186" />
    <text
       xml:space="preserve"
       transform="matrix(0.26458333,0,0,0.26458333,-0.98172303,-103.0993)"
       id="text4"
       style="font-style:normal;font-variant:normal;font-weight:normal;font-stretch:normal;font-size:88px;font-family:Sans;-inkscape-font-specification:Sans;text-align:center;writing-mode:lr-tb;direction:ltr;white-space:pre;shape-inside:url(#rect4);display:inline;fill:none;fill-opacity:1;stroke:#ffffff;stroke-width:0;stroke-dasharray:none;stroke-opacity:1"><tspan
         x="249.81534"
         y="868.06944"
         id="tspan2"><tspan
           style="font-weight:600;font-family:SUSE;-inkscape-font-specification:'SUSE Semi-Bold';fill:#f9f9f9"
           id="tspan1"> Open 
</tspan></tspan><tspan
         x="146.81136"
         y="979.65453"
         id="tspan4"><tspan
           style="font-weight:600;font-family:SUSE;-inkscape-font-specification:'SUSE Semi-Bold';fill:#f9f9f9"
           id="tspan3">Developers 
</tspan></tspan><tspan
         x="243.63036"
         y="1091.2396"
         id="tspan6"><tspan
           style="font-weight:600;font-family:SUSE;-inkscape-font-specification:'SUSE Semi-Bold';fill:#f9f9f9"
           id="tspan5">Summit</tspan></tspan></text>
    <path
       id="path2"
       style="fill:#ffffff;fill-opacity:1;stroke-width:1.36444"
       d="m 153.70433,13.085768 c -0.0911,0.01241 -0.17949,0.05695 -0.24626,0.128734 l -3.09023,3.309535 c -0.12991,0.139588 -0.14812,0.350645 -0.045,0.512254 l 3.89521,6.104134 c -0.62911,1.142931 -1.12684,2.371498 -1.46964,3.660869 l -6.79215,1.633313 c -0.18903,0.04527 -0.32323,0.218087 -0.31775,0.415702 l 0.12711,4.553965 c 0.006,0.192598 0.14125,0.35729 0.3257,0.396929 l 6.67829,1.453621 c 0.3947,1.470837 0.97958,2.857815 1.73974,4.127531 l -3.67544,6.039767 c -0.10258,0.168795 -0.0735,0.384645 0.0689,0.520297 l 3.26765,3.129845 c 0.13743,0.131215 0.34814,0.152131 0.50842,0.04828 l 5.913,-3.872751 c 1.20091,0.657128 2.49035,1.166182 3.84756,1.496531 l 1.59411,6.796076 c 0.0449,0.192647 0.21657,0.32466 0.41044,0.319156 l 4.49632,-0.128735 c 0.18903,-0.0054 0.34933,-0.140862 0.38925,-0.329882 l 1.46436,-6.895308 c 1.37803,-0.418963 2.67539,-1.021677 3.86608,-1.778141 l 6.03748,3.768155 c 0.16602,0.104119 0.38187,0.07695 0.51636,-0.06706 l 3.09022,-3.309534 c 0.13074,-0.139999 0.14838,-0.351079 0.045,-0.512255 l -2.26406,-3.550913 -0.69378,0.244061 c -0.10119,0.03559 -0.21285,-2.21e-4 -0.27538,-0.08851 0,0 -1.43805,-2.007216 -3.29413,-4.599552 -2.01446,4.285353 -6.27036,7.300238 -11.27788,7.442433 -3.23327,0.09181 -6.21999,-1.032248 -8.53718,-2.960883 l 0.64876,-0.657079 c 4.70033,3.894873 11.67191,3.626538 16.05489,-0.812636 4.38298,-4.43917 4.65057,-11.500111 0.80499,-16.260701 l 4.27919,-4.334042 a 1.1983548,1.2137171 6.7027773e-4 1 0 -1.69473,-1.716454 l -4.27919,4.334044 c -4.70037,-3.894866 -11.67193,-3.626535 -16.05492,0.812638 -4.38298,4.439172 -4.64792,11.500115 -0.80234,16.260707 l -0.65935,0.665121 c -1.80061,-2.174935 -2.91821,-4.953506 -3.00286,-8.011006 -0.14673,-5.300962 2.84919,-9.950296 7.2741,-12.119762 l -0.0953,-3.365858 c -0.80763,0.312153 -1.58484,0.683921 -2.3223,1.118377 l -0.003,-0.0028 -6.18046,-3.859336 c -0.0832,-0.05175 -0.17892,-0.07113 -0.27009,-0.059 z m 14.47668,8.244337 c 2.43113,-0.01227 4.8675,0.912426 6.74713,2.77046 a 1.1983233,1.2136851 6.224046e-4 0 0 0.16153,0.163599 c 3.67238,3.807225 3.6548,9.86905 -0.0715,13.643111 -3.72518,3.772935 -9.70854,3.791164 -13.46779,0.0751 a 1.1983233,1.2136851 6.224046e-4 0 0 -0.16151,-0.163601 c -3.6724,-3.807223 -3.65481,-9.86905 0.0715,-13.643117 1.86258,-1.886462 4.28951,-2.833385 6.72065,-2.845552 z m 0.0583,4.865068 c -1.22909,0 -2.45862,0.470621 -3.38946,1.41339 -1.86167,1.885538 -1.86167,4.980268 0,6.86581 1.86168,1.885542 4.91724,1.885541 6.77891,0 1.86167,-1.885536 1.86168,-4.980268 0,-6.86581 -0.93085,-0.94277 -2.16036,-1.413391 -3.38945,-1.41339 z m 0,2.411079 c 0.61078,0 1.22178,0.239754 1.69472,0.718763 0.94589,0.958022 0.94589,2.474889 0,3.432905 -0.94589,0.958017 -2.44356,0.958023 -3.38945,0 -0.9459,-0.95802 -0.9459,-2.474889 0,-3.432905 0.47294,-0.479005 1.08394,-0.718763 1.69473,-0.718763 z"
       inkscape:label="logo" />
    <path
       d="m 24.184168,13.039624 c -5.841185,-0.01399 -10.598087,4.742863 -10.584045,10.584049 0.01389,5.841186 4.781873,10.6084 10.623057,10.622444 l 2.626147,0.0061 -0.0045,-3.65e-4 c 0.0018,0 0.0027,-6e-6 0.0036,0 h 6.85e-4 c 2.386656,0.0054 4.469447,0.01025 5.484429,0.01255 0.0027,1.39274 0.01279,5.869896 0.01809,8.109933 0.01389,5.841187 4.781252,10.609022 10.622436,10.623057 5.841197,0.01399 10.59809,-4.742855 10.584048,-10.58405 -0.01389,-5.84118 -4.781864,-10.60839 -10.62306,-10.622437 -0.684649,-0.0016 -1.409681,-0.0032 -2.478394,-0.0055 -2.427669,-0.0055 -4.601796,-0.01028 -5.63082,-0.01253 -0.0027,-1.392742 -0.01279,-5.869906 -0.01809,-8.109938 -0.01398,-5.841192 -4.781882,-10.609028 -10.623057,-10.623071 z m -0.0054,2.498617 c 0.344266,8.73e-4 0.682593,0.02553 1.015467,0.0676 v 8.996958 h -9.031336 c -0.03965,-0.323223 -0.06258,-0.651628 -0.0635,-0.985495 -0.01078,-4.4913 3.588047,-8.089958 8.079038,-8.079037 z m 3.51407,0.802195 c 2.72756,1.311839 4.608977,4.096159 4.61677,7.327778 0.0045,2.236228 0.01498,6.696063 0.01809,8.098071 -1.401906,-0.0032 -5.861165,-0.01274 -8.097128,-0.01816 -3.243168,-0.0078 -6.035633,-1.903137 -7.341835,-4.646732 h 10.80425 V 16.340418 Z m 7.138964,17.929923 c 1.402344,0.0038 5.861796,0.01279 8.098077,0.01811 3.286228,0.0079 6.108352,1.954262 7.391138,4.756903 H 39.561132 v 10.694227 c -2.778294,-1.292797 -4.703537,-4.10303 -4.711331,-7.371784 -0.0045,-2.236227 -0.01498,-6.695445 -0.01818,-8.097139 z m 7.227594,7.272235 h 8.951094 c 0.03143,0.288043 0.0487,0.580434 0.04943,0.876789 0.01078,4.491295 -3.58805,8.08995 -8.079031,8.079035 -0.311777,-3.59e-4 -0.618858,-0.02107 -0.92139,-0.05576 v -8.900191 z"
       stroke-width="0.18246"
       id="path1-9"
       style="fill:#ffffff;fill-opacity:1" />
    <g
       transform="matrix(6.2808948,0,0,6.2808948,-12066.481,-412.24753)"
       id="g2"
       style="clip-rule:evenodd;fill:#ffffff;fill-rule:evenodd;stroke-linejoin:round;stroke-miterlimit:2">
      <path
         d="m 1933.8,71 c 0,-1.766 1.43,-3.2 3.2,-3.2 1.77,0 3.2,1.434 3.2,3.2 0,1.766 -1.43,3.2 -3.2,3.2 -1.77,0 -3.2,-1.434 -3.2,-3.2 z m 6,0 c 0,-1.545 -1.25,-2.8 -2.8,-2.8 -1.55,0 -2.8,1.255 -2.8,2.8 0,1.104 0.9,2 2,2 1.1,0 2,-0.896 2,-2 0,-0.662 -0.54,-1.2 -1.2,-1.2 -0.66,0 -1.2,0.538 -1.2,1.2 0,0.441 0.36,0.8 0.8,0.8 0.11,0 0.2,0.09 0.2,0.2 0,0.11 -0.09,0.2 -0.2,0.2 -0.66,0 -1.2,-0.538 -1.2,-1.2 0,-0.883 0.72,-1.6 1.6,-1.6 0.88,0 1.6,0.717 1.6,1.6 0,1.325 -1.07,2.4 -2.4,2.4 -0.32,0 -0.62,-0.061 -0.9,-0.173 0.47,0.359 1.06,0.573 1.7,0.573 1.55,0 2.8,-1.255 2.8,-2.8 z"
         style="fill:#ffffff;fill-opacity:1"
         id="path1-1" />
    </g>
    <path
       d="m 65.176934,61.992904 a 1.3355064,1.3355064 0 0 0 -0.88152,0.386009 l -14.689,14.689004 a 1.3355064,1.3355064 0 0 0 0,1.888204 l 14.689,14.688978 a 1.3355064,1.3355064 0 0 0 1.8882,0 l 14.689,-14.688978 a 1.3355064,1.3355064 0 0 0 0,-1.888204 l -14.689,-14.689004 a 1.3355064,1.3355064 0 0 0 -1.00676,-0.386009 z m 0.0626,3.218405 12.8008,12.800798 -12.8008,12.800787 -12.8008,-12.800787 z m -16.02437,20.812092 v 1.335361 a 1.335364,1.335364 0 0 0 0.39125,0.944147 l 14.689,14.688931 a 1.3355064,1.3355064 0 0 0 1.8882,0 l 14.689,-14.688931 a 1.335364,1.335364 0 0 0 0.39121,-0.944147 1.335364,1.335364 0 0 0 0,-0.06259 v -1.27276 h -1.33536 a 1.335364,1.335364 0 0 0 -0.94413,0.391225 l -13.7448,13.744743 -13.74481,-13.744747 a 1.335364,1.335364 0 0 0 -0.94417,-0.38601 v -0.0052 z"
       color="#000000"
       color-rendering="auto"
       dominant-baseline="auto"
       fill="#fbc75d"
       image-rendering="auto"
       shape-rendering="auto"
       solid-color="#000000"
       stop-color="#000000"
       style="font-variant-ligatures:normal;font-variant-position:normal;font-variant-caps:normal;font-variant-numeric:normal;font-variant-alternates:normal;font-variant-east-asian:normal;font-feature-settings:normal;font-variation-settings:normal;text-indent:0;text-decoration-line:none;text-decoration-style:solid;text-decoration-color:#000000;text-transform:none;text-orientation:mixed;white-space:normal;shape-padding:0;shape-margin:0;inline-size:0;isolation:auto;mix-blend-mode:normal;fill:#ffffff;stroke-width:0.178048"
       id="path1-2" />
    <path
       style="fill:#ffffff;fill-opacity:1;stroke-width:0.573389"
       id="path835"
       d="m 129.80379,61.837186 c -10.37257,0 -18.93758,7.933541 -19.94898,18.045725 H 99.727582 a 2.0052814,2.0052811 0 1 0 0,4.01016 h 10.127228 c 1.0114,10.112145 9.57641,18.045639 19.94898,18.045639 10.37259,0 18.93758,-7.933494 19.949,-18.045639 h 10.1272 a 2.0052814,2.0052811 0 1 0 0,-4.01016 h -10.1272 c -1.01142,-10.112184 -9.57641,-18.045725 -19.949,-18.045725 z m 0,4.010161 c 8.81581,0 15.91825,7.055117 16.02497,15.844828 a 2.0052814,2.0052811 0 0 0 0,0.383772 c -0.10261,8.793417 -7.20648,15.852625 -16.02497,15.852625 -8.81582,0 -15.91824,-7.055068 -16.02498,-15.844765 a 2.0052814,2.0052811 0 0 0 0,-0.383772 c 0.10261,-8.79344 7.20649,-15.852688 16.02498,-15.852688 z m 0,8.020323 c -4.40575,0 -8.02031,3.614556 -8.02031,8.02032 0,4.405766 3.61456,8.02031 8.02031,8.02031 4.40575,0 8.02032,-3.614544 8.02032,-8.02031 0,-4.405764 -3.61457,-8.02032 -8.02032,-8.02032 z m 0,4.01016 c 2.23851,0 4.01017,1.771648 4.01017,4.01016 0,2.238513 -1.77166,4.010162 -4.01017,4.010162 -2.2385,0 -4.01015,-1.771649 -4.01015,-4.010162 0,-2.238512 1.77165,-4.01016 4.01015,-4.01016 z"
       fill="#173f4f" />
  </g>
  <g
     inkscape:groupmode="layer"
     id="layer4"
     inkscape:label="head" />
</svg>
