<?xml version="1.0" encoding="UTF-8" standalone="no"?>
<!-- Created with Inkscape (http://www.inkscape.org/) -->

<svg
   xmlns:dc="http://purl.org/dc/elements/1.1/"
   xmlns:cc="http://creativecommons.org/ns#"
   xmlns:rdf="http://www.w3.org/1999/02/22-rdf-syntax-ns#"
   xmlns:svg="http://www.w3.org/2000/svg"
   xmlns="http://www.w3.org/2000/svg"
   xmlns:xlink="http://www.w3.org/1999/xlink"
   xmlns:sodipodi="http://sodipodi.sourceforge.net/DTD/sodipodi-0.dtd"
   xmlns:inkscape="http://www.inkscape.org/namespaces/inkscape"
   width="360"
   height="360"
   id="svg3153"
   version="1.1"
   inkscape:version="0.48.2 r9819"
   sodipodi:docname="LogoWhiteGreen.svg"
   inkscape:export-filename="/Users/josh-andy/Dropbox/openSUSE Summit/SUMMIT 2013/LogoWhiteGreen.png"
   inkscape:export-xdpi="300"
   inkscape:export-ydpi="300">
  <defs
     id="defs3155">
    <linearGradient
       y2="169.85095"
       x2="402.51791"
       y1="352.34821"
       x1="402.51791"
       gradientUnits="userSpaceOnUse"
       id="linearGradient4852"
       xlink:href="#linearGradient3988"
       inkscape:collect="always" />
    <linearGradient
       y2="169.85095"
       x2="402.51791"
       y1="352.34821"
       x1="402.51791"
       gradientUnits="userSpaceOnUse"
       id="linearGradient4844"
       xlink:href="#linearGradient3988"
       inkscape:collect="always" />
    <linearGradient
       y2="169.85095"
       x2="402.51791"
       y1="352.34821"
       x1="402.51791"
       gradientUnits="userSpaceOnUse"
       id="linearGradient3981"
       xlink:href="#linearGradient3988"
       inkscape:collect="always" />
    <linearGradient
       y2="169.85095"
       x2="402.51791"
       y1="352.34821"
       x1="402.51791"
       gradientUnits="userSpaceOnUse"
       id="linearGradient3973"
       xlink:href="#linearGradient3988"
       inkscape:collect="always" />
    <linearGradient
       id="linearGradient5618">
      <stop
         style="stop-color:#00c1c8;stop-opacity:1;"
         offset="0"
         id="stop5620" />
      <stop
         style="stop-color:#00c847;stop-opacity:0;"
         offset="1"
         id="stop5622" />
    </linearGradient>
    <linearGradient
       id="linearGradient5493">
      <stop
         style="stop-color:#00c1c8;stop-opacity:1;"
         offset="0"
         id="stop5495" />
      <stop
         style="stop-color:#369156;stop-opacity:0;"
         offset="1"
         id="stop5497" />
    </linearGradient>
    <linearGradient
       id="linearGradient5485">
      <stop
         style="stop-color:#00c0c7;stop-opacity:1;"
         offset="0"
         id="stop5487" />
      <stop
         style="stop-color:#7e9136;stop-opacity:0;"
         offset="1"
         id="stop5489" />
    </linearGradient>
    <linearGradient
       id="linearGradient5236">
      <stop
         style="stop-color:#ffd127;stop-opacity:1;"
         offset="0"
         id="stop5238" />
      <stop
         style="stop-color:#aaffb6;stop-opacity:0.10894942;"
         offset="1"
         id="stop5240" />
    </linearGradient>
    <linearGradient
       y2="-52.820362"
       x2="2204.999"
       y1="455.63635"
       x1="2131.9858"
       gradientUnits="userSpaceOnUse"
       id="linearGradient12984"
       xlink:href="#linearGradient12942"
       inkscape:collect="always" />
    <linearGradient
       y2="-204.69817"
       x2="1510.8612"
       y1="262.35327"
       x1="1989.1321"
       gradientUnits="userSpaceOnUse"
       id="linearGradient12982"
       xlink:href="#linearGradient12934"
       inkscape:collect="always" />
    <linearGradient
       y2="-52.820362"
       x2="2204.999"
       y1="455.63635"
       x1="2131.9858"
       gradientUnits="userSpaceOnUse"
       id="linearGradient12972"
       xlink:href="#linearGradient12942"
       inkscape:collect="always" />
    <linearGradient
       y2="-204.69817"
       x2="1510.8612"
       y1="262.35327"
       x1="1989.1321"
       gradientUnits="userSpaceOnUse"
       id="linearGradient12970"
       xlink:href="#linearGradient12934"
       inkscape:collect="always" />
    <linearGradient
       y2="-52.820362"
       x2="2204.999"
       y1="455.63635"
       x1="2131.9858"
       gradientUnits="userSpaceOnUse"
       id="linearGradient12960"
       xlink:href="#linearGradient12942"
       inkscape:collect="always" />
    <linearGradient
       y2="-204.69817"
       x2="1510.8612"
       y1="262.35327"
       x1="1989.1321"
       gradientUnits="userSpaceOnUse"
       id="linearGradient12958"
       xlink:href="#linearGradient12934"
       inkscape:collect="always" />
    <linearGradient
       gradientUnits="userSpaceOnUse"
       y2="-52.820362"
       x2="2204.999"
       y1="455.63635"
       x1="2131.9858"
       id="linearGradient12948"
       xlink:href="#linearGradient12942"
       inkscape:collect="always" />
    <linearGradient
       gradientUnits="userSpaceOnUse"
       y2="-204.69817"
       x2="1510.8612"
       y1="262.35327"
       x1="1989.1321"
       id="linearGradient12940"
       xlink:href="#linearGradient12934"
       inkscape:collect="always" />
    <linearGradient
       y2="169.85095"
       x2="402.51791"
       y1="352.34821"
       x1="402.51791"
       gradientUnits="userSpaceOnUse"
       id="linearGradient4988"
       xlink:href="#linearGradient3988"
       inkscape:collect="always" />
    <linearGradient
       y2="169.85095"
       x2="402.51791"
       y1="352.34821"
       x1="402.51791"
       gradientUnits="userSpaceOnUse"
       id="linearGradient4980"
       xlink:href="#linearGradient3988"
       inkscape:collect="always" />
    <linearGradient
       y2="169.85095"
       x2="402.51791"
       y1="352.34821"
       x1="402.51791"
       gradientUnits="userSpaceOnUse"
       id="linearGradient4932"
       xlink:href="#linearGradient3988"
       inkscape:collect="always" />
    <linearGradient
       y2="169.85095"
       x2="402.51791"
       y1="352.34821"
       x1="402.51791"
       gradientUnits="userSpaceOnUse"
       id="linearGradient4924"
       xlink:href="#linearGradient3988"
       inkscape:collect="always" />
    <linearGradient
       y2="169.85095"
       x2="402.51791"
       y1="352.34821"
       x1="402.51791"
       gradientUnits="userSpaceOnUse"
       id="linearGradient4894"
       xlink:href="#linearGradient3988"
       inkscape:collect="always" />
    <linearGradient
       y2="169.85095"
       x2="402.51791"
       y1="352.34821"
       x1="402.51791"
       gradientUnits="userSpaceOnUse"
       id="linearGradient4886"
       xlink:href="#linearGradient3988"
       inkscape:collect="always" />
    <linearGradient
       y2="169.85095"
       x2="402.51791"
       y1="352.34821"
       x1="402.51791"
       gradientUnits="userSpaceOnUse"
       id="linearGradient4797"
       xlink:href="#linearGradient3988"
       inkscape:collect="always" />
    <linearGradient
       y2="169.85095"
       x2="402.51791"
       y1="352.34821"
       x1="402.51791"
       gradientUnits="userSpaceOnUse"
       id="linearGradient4763"
       xlink:href="#linearGradient3988"
       inkscape:collect="always" />
    <linearGradient
       y2="169.85095"
       x2="402.51791"
       y1="352.34821"
       x1="402.51791"
       gradientUnits="userSpaceOnUse"
       id="linearGradient4669"
       xlink:href="#linearGradient3988"
       inkscape:collect="always" />
    <linearGradient
       y2="169.85095"
       x2="402.51791"
       y1="352.34821"
       x1="402.51791"
       gradientUnits="userSpaceOnUse"
       id="linearGradient4265"
       xlink:href="#linearGradient3988"
       inkscape:collect="always" />
    <linearGradient
       y2="169.85095"
       x2="402.51791"
       y1="352.34821"
       x1="402.51791"
       gradientUnits="userSpaceOnUse"
       id="linearGradient4213"
       xlink:href="#linearGradient3988"
       inkscape:collect="always" />
    <linearGradient
       id="linearGradient3988">
      <stop
         style="stop-color:#f3ffc5;stop-opacity:1;"
         offset="0"
         id="stop3990" />
      <stop
         style="stop-color:#ffffff;stop-opacity:1;"
         offset="1"
         id="stop3992" />
    </linearGradient>
    <linearGradient
       id="linearGradient3980">
      <stop
         style="stop-color:#d6ed00;stop-opacity:1;"
         offset="0"
         id="stop3982" />
      <stop
         style="stop-color:#d6ed00;stop-opacity:0;"
         offset="1"
         id="stop3984" />
    </linearGradient>
    <inkscape:path-effect
       effect="skeletal"
       id="path-effect3978"
       is_visible="true"
       pattern="M 0,0 0,10 10,5 z"
       copytype="single_stretched"
       prop_scale="1"
       scale_y_rel="false"
       spacing="0"
       normal_offset="0"
       tang_offset="0"
       prop_units="false"
       vertical_pattern="false"
       fuse_tolerance="0" />
    <inkscape:path-effect
       effect="spiro"
       id="path-effect3976"
       is_visible="true" />
    <inkscape:path-effect
       effect="skeletal"
       id="path-effect3972"
       is_visible="true"
       pattern="M 0,0 0,10 10,5 z"
       copytype="single_stretched"
       prop_scale="1"
       scale_y_rel="false"
       spacing="0"
       normal_offset="0"
       tang_offset="0"
       prop_units="false"
       vertical_pattern="false"
       fuse_tolerance="0" />
    <inkscape:path-effect
       effect="spiro"
       id="path-effect3970"
       is_visible="true" />
    <inkscape:path-effect
       effect="skeletal"
       id="path-effect3966"
       is_visible="true"
       pattern="M 0,0 0,10 10,5 z"
       copytype="single_stretched"
       prop_scale="1"
       scale_y_rel="false"
       spacing="0"
       normal_offset="0"
       tang_offset="0"
       prop_units="false"
       vertical_pattern="false"
       fuse_tolerance="0" />
    <inkscape:path-effect
       effect="spiro"
       id="path-effect3964"
       is_visible="true" />
    <inkscape:path-effect
       effect="skeletal"
       id="path-effect3960"
       is_visible="true"
       pattern="M 0,0 0,10 10,5 z"
       copytype="single_stretched"
       prop_scale="1"
       scale_y_rel="false"
       spacing="0"
       normal_offset="0"
       tang_offset="0"
       prop_units="false"
       vertical_pattern="false"
       fuse_tolerance="0" />
    <inkscape:path-effect
       effect="spiro"
       id="path-effect3958"
       is_visible="true" />
    <inkscape:path-effect
       effect="skeletal"
       id="path-effect3954"
       is_visible="true"
       pattern="M 0,0 0,10 10,5 z"
       copytype="single_stretched"
       prop_scale="1"
       scale_y_rel="false"
       spacing="0"
       normal_offset="0"
       tang_offset="0"
       prop_units="false"
       vertical_pattern="false"
       fuse_tolerance="0" />
    <inkscape:path-effect
       effect="spiro"
       id="path-effect3952"
       is_visible="true" />
    <inkscape:path-effect
       effect="skeletal"
       id="path-effect3948"
       is_visible="true"
       pattern="M 0,0 0,10 10,5 z"
       copytype="single_stretched"
       prop_scale="1"
       scale_y_rel="false"
       spacing="0"
       normal_offset="0"
       tang_offset="0"
       prop_units="false"
       vertical_pattern="false"
       fuse_tolerance="0" />
    <inkscape:path-effect
       effect="spiro"
       id="path-effect3946"
       is_visible="true" />
    <inkscape:path-effect
       effect="skeletal"
       id="path-effect3916"
       is_visible="true"
       pattern="M 0,0 0,10 10,5 z"
       copytype="single_stretched"
       prop_scale="1"
       scale_y_rel="false"
       spacing="0"
       normal_offset="0"
       tang_offset="0"
       prop_units="false"
       vertical_pattern="false"
       fuse_tolerance="0" />
    <inkscape:path-effect
       effect="spiro"
       id="path-effect3914"
       is_visible="true" />
    <inkscape:path-effect
       effect="skeletal"
       id="path-effect3807"
       is_visible="true"
       pattern="M 0,0 0,10 10,5 z"
       copytype="single_stretched"
       prop_scale="1"
       scale_y_rel="false"
       spacing="0"
       normal_offset="0"
       tang_offset="0"
       prop_units="false"
       vertical_pattern="false"
       fuse_tolerance="0" />
    <inkscape:path-effect
       effect="spiro"
       id="path-effect3805"
       is_visible="true" />
    <inkscape:path-effect
       effect="skeletal"
       id="path-effect3027"
       is_visible="true"
       pattern="M 0,0 0,10 10,5 z"
       copytype="single_stretched"
       prop_scale="1"
       scale_y_rel="false"
       spacing="0"
       normal_offset="0"
       tang_offset="0"
       prop_units="false"
       vertical_pattern="false"
       fuse_tolerance="0" />
    <inkscape:path-effect
       effect="spiro"
       id="path-effect3025"
       is_visible="true" />
    <inkscape:path-effect
       effect="skeletal"
       id="path-effect4037"
       is_visible="true"
       pattern="M 0,0 0,10 10,5 z"
       copytype="single_stretched"
       prop_scale="1"
       scale_y_rel="false"
       spacing="0"
       normal_offset="0"
       tang_offset="0"
       prop_units="false"
       vertical_pattern="false"
       fuse_tolerance="0" />
    <inkscape:path-effect
       effect="spiro"
       id="path-effect4035"
       is_visible="true" />
    <font
       horiz-adv-x="1024"
       id="font3017"
       inkscape:label="font 1"
       horiz-origin-x="0"
       horiz-origin-y="0"
       vert-origin-x="45"
       vert-origin-y="90"
       vert-adv-y="90">
      <font-face
         units-per-em="1024"
         id="font-face3019"
         font-family="SVGFont 1" />
      <missing-glyph
         d="M0,0h1000v1024h-1000z"
         id="missing-glyph3021" />
    </font>
    <linearGradient
       inkscape:collect="always"
       xlink:href="#linearGradient3988"
       id="linearGradient3994"
       x1="402.51791"
       y1="352.34821"
       x2="402.51791"
       y2="169.85095"
       gradientUnits="userSpaceOnUse" />
    <linearGradient
       inkscape:collect="always"
       xlink:href="#linearGradient3988"
       id="linearGradient4101"
       gradientUnits="userSpaceOnUse"
       x1="402.51791"
       y1="352.34821"
       x2="402.51791"
       y2="169.85095" />
    <linearGradient
       inkscape:collect="always"
       xlink:href="#linearGradient3988"
       id="linearGradient4103"
       gradientUnits="userSpaceOnUse"
       x1="402.51791"
       y1="352.34821"
       x2="402.51791"
       y2="169.85095" />
    <linearGradient
       inkscape:collect="always"
       xlink:href="#linearGradient3988"
       id="linearGradient4105"
       gradientUnits="userSpaceOnUse"
       x1="402.51791"
       y1="352.34821"
       x2="402.51791"
       y2="169.85095" />
    <linearGradient
       inkscape:collect="always"
       xlink:href="#linearGradient3988"
       id="linearGradient4107"
       gradientUnits="userSpaceOnUse"
       x1="402.51791"
       y1="352.34821"
       x2="402.51791"
       y2="169.85095" />
    <linearGradient
       inkscape:collect="always"
       xlink:href="#linearGradient3988"
       id="linearGradient4109"
       gradientUnits="userSpaceOnUse"
       x1="402.51791"
       y1="352.34821"
       x2="402.51791"
       y2="169.85095" />
    <linearGradient
       inkscape:collect="always"
       xlink:href="#linearGradient3988"
       id="linearGradient4111"
       gradientUnits="userSpaceOnUse"
       x1="402.51791"
       y1="352.34821"
       x2="402.51791"
       y2="169.85095" />
    <linearGradient
       inkscape:collect="always"
       xlink:href="#linearGradient3988"
       id="linearGradient4113"
       gradientUnits="userSpaceOnUse"
       x1="402.51791"
       y1="352.34821"
       x2="402.51791"
       y2="169.85095" />
    <linearGradient
       inkscape:collect="always"
       xlink:href="#linearGradient3988"
       id="linearGradient4137"
       gradientUnits="userSpaceOnUse"
       x1="402.51791"
       y1="352.34821"
       x2="402.51791"
       y2="169.85095" />
    <linearGradient
       inkscape:collect="always"
       xlink:href="#linearGradient3988"
       id="linearGradient4139"
       gradientUnits="userSpaceOnUse"
       x1="402.51791"
       y1="352.34821"
       x2="402.51791"
       y2="169.85095" />
    <linearGradient
       inkscape:collect="always"
       xlink:href="#linearGradient3988"
       id="linearGradient4141"
       gradientUnits="userSpaceOnUse"
       x1="402.51791"
       y1="352.34821"
       x2="402.51791"
       y2="169.85095" />
    <linearGradient
       inkscape:collect="always"
       xlink:href="#linearGradient3988"
       id="linearGradient4143"
       gradientUnits="userSpaceOnUse"
       x1="402.51791"
       y1="352.34821"
       x2="402.51791"
       y2="169.85095" />
    <linearGradient
       inkscape:collect="always"
       xlink:href="#linearGradient3988"
       id="linearGradient4145"
       gradientUnits="userSpaceOnUse"
       x1="402.51791"
       y1="352.34821"
       x2="402.51791"
       y2="169.85095" />
    <linearGradient
       inkscape:collect="always"
       xlink:href="#linearGradient3988"
       id="linearGradient4147"
       gradientUnits="userSpaceOnUse"
       x1="402.51791"
       y1="352.34821"
       x2="402.51791"
       y2="169.85095" />
    <linearGradient
       inkscape:collect="always"
       xlink:href="#linearGradient3988"
       id="linearGradient4149"
       gradientUnits="userSpaceOnUse"
       x1="402.51791"
       y1="352.34821"
       x2="402.51791"
       y2="169.85095" />
    <linearGradient
       inkscape:collect="always"
       xlink:href="#linearGradient3988"
       id="linearGradient4183"
       gradientUnits="userSpaceOnUse"
       x1="402.51791"
       y1="352.34821"
       x2="402.51791"
       y2="169.85095" />
    <linearGradient
       inkscape:collect="always"
       xlink:href="#linearGradient3988"
       id="linearGradient4504"
       gradientUnits="userSpaceOnUse"
       x1="402.51791"
       y1="352.34821"
       x2="402.51791"
       y2="169.85095" />
    <linearGradient
       inkscape:collect="always"
       xlink:href="#linearGradient3988"
       id="linearGradient3099"
       gradientUnits="userSpaceOnUse"
       x1="402.51791"
       y1="352.34821"
       x2="402.51791"
       y2="169.85095" />
    <linearGradient
       inkscape:collect="always"
       xlink:href="#linearGradient3988"
       id="linearGradient3101"
       gradientUnits="userSpaceOnUse"
       x1="402.51791"
       y1="352.34821"
       x2="402.51791"
       y2="169.85095" />
    <linearGradient
       inkscape:collect="always"
       xlink:href="#linearGradient3988"
       id="linearGradient3103"
       gradientUnits="userSpaceOnUse"
       x1="402.51791"
       y1="352.34821"
       x2="402.51791"
       y2="169.85095" />
    <linearGradient
       inkscape:collect="always"
       xlink:href="#linearGradient3988"
       id="linearGradient3105"
       gradientUnits="userSpaceOnUse"
       x1="402.51791"
       y1="352.34821"
       x2="402.51791"
       y2="169.85095" />
    <linearGradient
       inkscape:collect="always"
       xlink:href="#linearGradient3988"
       id="linearGradient3107"
       gradientUnits="userSpaceOnUse"
       x1="402.51791"
       y1="352.34821"
       x2="402.51791"
       y2="169.85095" />
    <linearGradient
       inkscape:collect="always"
       xlink:href="#linearGradient3988"
       id="linearGradient3109"
       gradientUnits="userSpaceOnUse"
       x1="402.51791"
       y1="352.34821"
       x2="402.51791"
       y2="169.85095" />
    <linearGradient
       inkscape:collect="always"
       xlink:href="#linearGradient3988"
       id="linearGradient3111"
       gradientUnits="userSpaceOnUse"
       x1="402.51791"
       y1="352.34821"
       x2="402.51791"
       y2="169.85095" />
    <filter
       id="filter3171"
       inkscape:label="Color outline"
       inkscape:menu="Morphology"
       inkscape:menu-tooltip="Draws a colored outline around"
       width="1.5"
       height="1.5"
       x="-0.25"
       y="-0.25"
       color-interpolation-filters="sRGB">
      <feGaussianBlur
         id="feGaussianBlur3173"
         in="SourceAlpha"
         stdDeviation="3"
         result="blur" />
      <feColorMatrix
         id="feColorMatrix3175"
         values="1 0 0 0 0 0 1 0 0 0 0 0 1 0 0 0 0 0 10 -1 "
         result="result4" />
      <feFlood
         id="feFlood3177"
         result="result1"
         flood-color="rgb(154,27,74)"
         in="blur" />
      <feComposite
         id="feComposite3179"
         in2="result4"
         result="result2"
         in="result1"
         operator="atop" />
      <feComposite
         id="feComposite3181"
         in2="result2"
         in="SourceGraphic"
         result="result3"
         operator="atop" />
    </filter>
    <linearGradient
       inkscape:collect="always"
       xlink:href="#linearGradient3988"
       id="linearGradient4037"
       gradientUnits="userSpaceOnUse"
       x1="402.51791"
       y1="352.34821"
       x2="402.51791"
       y2="169.85095" />
    <color-profile
       id="color-profile2987"
       xlink:href="/System/Library/ColorSync/Profiles/Generic CMYK Profile.icc"
       name="Generic-CMYK-Profile" />
    <linearGradient
       id="linearGradient3757">
      <stop
         id="stop3759"
         offset="0"
         style="stop-color:#ff7f2a;stop-opacity:1;" />
      <stop
         id="stop3761"
         offset="1"
         style="stop-color:#f5c9af icc-color(Generic-CMYK-Profile, 0.0002594, 0.55423819, 0.81283284, 0.00125124);stop-opacity:1;" />
    </linearGradient>
    <linearGradient
       id="linearGradient5012">
      <stop
         id="stop5014"
         offset="0"
         style="stop-color:#ff9900;stop-opacity:1;" />
      <stop
         id="stop5016"
         offset="1"
         style="stop-color:#e68a00;stop-opacity:1;" />
    </linearGradient>
    <linearGradient
       id="linearGradient5020">
      <stop
         id="stop5022"
         offset="0"
         style="stop-color:#5dbece;stop-opacity:1;" />
      <stop
         id="stop5024"
         offset="1"
         style="stop-color:#9bd7e1;stop-opacity:1;" />
    </linearGradient>
    <linearGradient
       id="linearGradient5028">
      <stop
         id="stop5030"
         offset="0"
         style="stop-color:#5dbece;stop-opacity:1;" />
      <stop
         id="stop5032"
         offset="1"
         style="stop-color:#9ed4de icc-color(Generic-CMYK-Profile, 0.57012284, 0.03767453, 0.11544976, 0.00262455);stop-opacity:1;" />
    </linearGradient>
    <linearGradient
       id="linearGradient5036">
      <stop
         id="stop5038"
         offset="0"
         style="stop-color:#5dbece;stop-opacity:1;" />
      <stop
         id="stop5040"
         offset="1"
         style="stop-color:#ffffff;stop-opacity:0.43968871;" />
    </linearGradient>
    <linearGradient
       id="linearGradient12532">
      <stop
         id="stop12534"
         offset="0"
         style="stop-color:#ececec;stop-opacity:0.42023346;" />
      <stop
         id="stop12536"
         offset="1"
         style="stop-color:#ececec;stop-opacity:0.21789883;" />
    </linearGradient>
    <linearGradient
       id="linearGradient12934">
      <stop
         id="stop12936"
         offset="0"
         style="stop-color:#aad400;stop-opacity:1;" />
      <stop
         id="stop12938"
         offset="1"
         style="stop-color:#ffffff;stop-opacity:1;" />
    </linearGradient>
    <linearGradient
       id="linearGradient12942">
      <stop
         id="stop12944"
         offset="0"
         style="stop-color:#aad400;stop-opacity:1;" />
      <stop
         id="stop12946"
         offset="1"
         style="stop-color:#ffffff;stop-opacity:1;" />
    </linearGradient>
    <linearGradient
       inkscape:collect="always"
       xlink:href="#linearGradient3988"
       id="linearGradient5019"
       gradientUnits="userSpaceOnUse"
       x1="402.51791"
       y1="352.34821"
       x2="402.51791"
       y2="169.85095" />
    <linearGradient
       inkscape:collect="always"
       xlink:href="#linearGradient3988"
       id="linearGradient5027"
       gradientUnits="userSpaceOnUse"
       x1="402.51791"
       y1="352.34821"
       x2="402.51791"
       y2="169.85095" />
    <linearGradient
       inkscape:collect="always"
       xlink:href="#linearGradient3988"
       id="linearGradient5129"
       gradientUnits="userSpaceOnUse"
       x1="402.51791"
       y1="352.34821"
       x2="402.51791"
       y2="169.85095" />
    <linearGradient
       inkscape:collect="always"
       xlink:href="#linearGradient3988"
       id="linearGradient5137"
       gradientUnits="userSpaceOnUse"
       x1="402.51791"
       y1="352.34821"
       x2="402.51791"
       y2="169.85095" />
    <linearGradient
       inkscape:collect="always"
       xlink:href="#linearGradient3988"
       id="linearGradient5354"
       gradientUnits="userSpaceOnUse"
       x1="402.51791"
       y1="352.34821"
       x2="402.51791"
       y2="169.85095" />
    <linearGradient
       inkscape:collect="always"
       xlink:href="#linearGradient3988"
       id="linearGradient5362"
       gradientUnits="userSpaceOnUse"
       x1="402.51791"
       y1="352.34821"
       x2="402.51791"
       y2="169.85095" />
    <linearGradient
       inkscape:collect="always"
       xlink:href="#linearGradient3988"
       id="linearGradient5469"
       gradientUnits="userSpaceOnUse"
       x1="402.51791"
       y1="352.34821"
       x2="402.51791"
       y2="169.85095" />
    <linearGradient
       inkscape:collect="always"
       xlink:href="#linearGradient3988"
       id="linearGradient5477"
       gradientUnits="userSpaceOnUse"
       x1="402.51791"
       y1="352.34821"
       x2="402.51791"
       y2="169.85095" />
    <radialGradient
       inkscape:collect="always"
       xlink:href="#linearGradient5012"
       id="radialGradient5542"
       gradientUnits="userSpaceOnUse"
       gradientTransform="matrix(1.4570089,0,0,1.276116,151.72034,214.0307)"
       cx="370.40399"
       cy="592.07043"
       fx="370.40399"
       fy="592.07043"
       r="240" />
    <linearGradient
       inkscape:collect="always"
       xlink:href="#linearGradient5020"
       id="linearGradient5544"
       gradientUnits="userSpaceOnUse"
       gradientTransform="translate(321.01122,388.73027)"
       x1="225.64099"
       y1="692.53665"
       x2="444.34076"
       y2="692.53662" />
    <linearGradient
       inkscape:collect="always"
       xlink:href="#linearGradient5028"
       id="linearGradient5546"
       gradientUnits="userSpaceOnUse"
       gradientTransform="translate(321.01122,388.73027)"
       x1="254.64099"
       y1="721.97417"
       x2="383.26685"
       y2="721.97418" />
    <linearGradient
       inkscape:collect="always"
       xlink:href="#linearGradient5036"
       id="linearGradient5548"
       gradientUnits="userSpaceOnUse"
       gradientTransform="translate(321.01122,388.73027)"
       x1="295.54724"
       y1="751.80228"
       x2="521.02417"
       y2="751.80231" />
    <linearGradient
       inkscape:collect="always"
       xlink:href="#linearGradient3988"
       id="linearGradient5556"
       gradientUnits="userSpaceOnUse"
       x1="402.51791"
       y1="352.34821"
       x2="402.51791"
       y2="169.85095" />
    <linearGradient
       inkscape:collect="always"
       xlink:href="#linearGradient3988"
       id="linearGradient5564"
       gradientUnits="userSpaceOnUse"
       x1="402.51791"
       y1="352.34821"
       x2="402.51791"
       y2="169.85095" />
    <linearGradient
       inkscape:collect="always"
       xlink:href="#linearGradient12532"
       id="linearGradient5566"
       gradientUnits="userSpaceOnUse"
       gradientTransform="matrix(0.99980706,-0.01964287,0.01964287,0.99980706,304.07895,399.2512)"
       x1="402.1474"
       y1="267.20105"
       x2="402.1474"
       y2="657.25067" />
  </defs>
  <sodipodi:namedview
     id="base"
     pagecolor="#ffffff"
     bordercolor="#666666"
     borderopacity="1.0"
     inkscape:pageopacity="0.0"
     inkscape:pageshadow="2"
     inkscape:zoom="1.5634917"
     inkscape:cx="165.52279"
     inkscape:cy="216.15522"
     inkscape:document-units="px"
     inkscape:current-layer="layer1"
     showgrid="false"
     units="in"
     inkscape:window-width="1920"
     inkscape:window-height="984"
     inkscape:window-x="0"
     inkscape:window-y="0"
     inkscape:window-maximized="1" />
  <metadata
     id="metadata3158">
    <rdf:RDF>
      <cc:Work
         rdf:about="">
        <dc:format>image/svg+xml</dc:format>
        <dc:type
           rdf:resource="http://purl.org/dc/dcmitype/StillImage" />
        <dc:title></dc:title>
      </cc:Work>
    </rdf:RDF>
  </metadata>
  <g
     inkscape:label="Layer 1"
     inkscape:groupmode="layer"
     id="layer1"
     transform="translate(0,-692.35975)">
    <g
       id="g5100">
      <path
         sodipodi:nodetypes="csccccsc"
         id="path4723"
         d="m 139.72966,800.29005 c -50.190455,16.25701 -84.783077,64.31744 -84.783077,119.92336 0,37.46417 16.480435,71.08249 42.580037,94.00189 25.40284,-20.07147 51.65139,-31.83652 78.87485,-32.94054 2.18387,-0.0875 4.37061,-0.11667 6.56203,-0.0656 26.07492,0.60196 52.6795,11.13392 79.72157,32.82634 25.97935,-22.91458 42.36835,-56.45779 42.36835,-93.82242 0,-47.4 -26.37161,-88.64059 -65.24302,-109.84994"
         style="fill:none;stroke:#ffffff;stroke-width:3.64604114999999984;stroke-opacity:1"
         inkscape:connector-curvature="0" />
      <path
         id="path4721"
         d="m 179.75575,989.00911 c -1.01247,0 -2.01878,0.0401 -3.02862,0.0802 -24.707,1.00193 -49.00261,11.56229 -73.013,30.22129 2.49003,1.9197 5.05189,3.7401 7.6856,5.4709 21.05724,-13.9064 42.70977,-21.9572 65.00174,-22.861 2.18387,-0.087 4.37061,-0.1167 6.56203,-0.066 21.64039,0.4995 43.64476,7.8244 65.96243,22.6985 2.60604,-1.7257 5.13946,-3.5443 7.60415,-5.4549 -26.58391,-21.02342 -52.0705,-30.31572 -76.77433,-30.09113 z"
         style="fill:none;stroke:#ffffff;stroke-width:3.64604114999999984;stroke-opacity:1;fill-opacity:1"
         inkscape:connector-curvature="0" />
      <path
         id="path4719"
         d="m 179.75575,1009.6399 c -1.01247,0 -2.01878,0.04 -3.02862,0.08 -19.53407,0.7919 -38.81743,7.567 -57.90234,19.5883 3.58551,2.0148 7.27932,3.8597 11.0724,5.5198 15.18861,-7.3814 30.68469,-11.6356 46.50428,-12.2773 2.18387,-0.087 4.37061,-0.098 6.56203,-0.047 15.66722,0.3609 31.53257,4.3081 47.56265,12.0983 3.78429,-1.6761 7.47996,-3.5236 11.05614,-5.5526 -21.23411,-13.517 -41.78866,-19.5913 -61.82654,-19.4093 z"
         style="fill:none;stroke:#ffffff;stroke-width:3.64604114999999984;stroke-opacity:1;fill-opacity:1"
         inkscape:connector-curvature="0" />
      <path
         id="path2985"
         d="m 179.75575,1030.2867 c -1.01247,0 -2.01878,0.04 -3.02862,0.08 -12.28905,0.4984 -24.48419,3.3573 -36.58791,8.4019 12.51974,4.2068 25.92295,6.4969 39.86078,6.4969 14.15422,0 27.74896,-2.3692 40.43069,-6.7084 -13.81455,-5.7476 -27.36248,-8.3928 -40.67494,-8.2717 z"
         style="fill:none;stroke:#ffffff;stroke-width:3.64604114999999984;stroke-opacity:1"
         inkscape:connector-curvature="0" />
      <path
         sodipodi:nodetypes="cscccccssccccccsssssscsssccccszzzsssc"
         inkscape:connector-curvature="0"
         id="path3912"
         d="m 141.06123,896.11199 c -5.34992,0 -22.40264,-0.50863 -22.40264,-0.50863 -8.23233,-0.0693 -23.935232,-5.57151 -26.590031,9.67003 0.09833,4.28119 0.136106,10.25559 8.901271,13.0058 0.52439,0.34273 2.47103,7.6308 0.88953,12.83188 -3.444236,0.0437 -4.349351,0.0875 -6.542802,-2.87308 -1.351646,0.28074 -3.105042,2.84208 -3.487424,4.65344 0.473096,2.77536 0.934794,7.24979 2.601516,9.82608 1.1557,1.78619 12.99703,9.50778 22.58293,0.40653 1.21471,-1.15324 3.49348,-2.59489 3.67276,-4.32566 l 0.85026,-5.08878 2.68325,0.70186 c 2.83384,1.21814 4.5324,1.3906 7.49976,1.46316 1.11271,-0.28075 2.97517,-0.10938 4.43423,-1.42779 0.59991,-0.65665 1.44737,-1.80844 2.28999,-2.95038 0,0 10.87652,0.0693 11.59285,-0.39377 1.52582,-0.98625 0.85662,-1.38623 3.18307,-2.70719 2.38236,-1.35268 5.62853,-1.62795 5.02323,-0.4656 -4.5684,8.7742 -3.38659,16.14942 -1.66184,21.40044 3.28842,10.0113 13.45027,14.51489 23.59955,15.67178 12.18601,1.38878 21.3004,-8.54267 21.67514,-18.37933 0.42484,-11.14996 -5.79882,-19.90483 -22.33809,-18.52663 1.60712,0.27346 1.69654,-1.38257 5.4081,-1.23673 3.71162,0.14584 11.74076,0.41747 16.02502,-0.40508 7.11938,-1.36726 5.82582,4.17545 8.32286,4.57688 3.51717,0.56513 9.3958,0.25887 10.69953,0 0.42392,1.6316 0.71829,4.54843 3.11146,5.37025 l 14.58291,-0.0729 c 3.72583,0 2.94456,0.82729 3.37119,1.48795 -0.34418,2.74109 0.0288,7.13093 2.16808,7.99212 2.95951,1.19189 15.06755,2.76443 17.34847,-0.80796 2.28097,-3.57203 0.39016,-30.97458 2.04061,-32.32252 1.65045,-1.34831 3.64307,0.86885 4.78744,-1.67426 1.14442,-2.54312 1.16737,-14.30233 -0.83031,-14.32019 -14.85714,-0.13491 -31.76913,-1.32206 -46.62682,-1.33919 -29.46572,-0.0365 -49.39932,0.81015 -78.86505,0.78608 z"
         style="fill:#579c00;fill-opacity:1;fill-rule:evenodd;stroke:none" />
      <path
         sodipodi:nodetypes="cccccccccccccsccccccscccccccccccc"
         inkscape:connector-curvature="0"
         id="rect4030"
         d="m 160.65031,929.71099 c -1.10393,2.73744 -2.58141,8.90727 -1.11509,14.72271 0.63561,2.54238 1.82038,5.08331 3.41494,7.36974 3.59054,5.1628 9.62106,8.60211 16.11637,9.18219 9.17153,0.81963 16.12057,-3.30076 18.59047,-11.01141 1.7005,-5.32504 -0.005,-13.14069 -6.51624,-17.12691 -5.29103,-3.24498 -10.98633,-2.49389 -14.28696,-0.31356 -2.86574,1.90141 -4.49376,4.85689 -4.46034,8.10187 0.0669,5.74835 5.0151,8.81066 8.57221,8.81613 1.0426,0 2.08728,-0.1896 3.25812,-0.57498 0.41817,-0.12762 0.80772,-0.26616 1.23702,-0.53998 l 0.13939,-0.0875 0.0522,-0.0365 c 0.81397,-0.54618 1.30672,-1.45732 1.30676,-2.4217 0,-0.26616 -0.0496,-0.53451 -0.122,-0.8014 -0.41812,-1.45513 -1.85102,-2.32909 -3.34522,-2.056 l -0.19164,0.0365 -0.27877,0.10573 -0.40074,0.12397 c -0.81958,0.20782 -1.43986,0.22605 -1.5681,0.22605 -0.41815,-0.0365 -2.47405,-0.64534 -2.47405,-2.8924 l 0,-0.0365 c 0.005,-0.82473 0.33872,-1.39461 0.52269,-1.70744 0.63002,-1.00376 2.38068,-1.98892 4.73907,-1.77708 3.09992,0.26251 5.33498,1.85 6.81245,4.8434 1.37715,2.78776 1.01681,6.21468 -0.92341,8.72899 -1.92353,2.49243 -5.3531,3.54577 -9.91376,3.04918 -4.59971,-0.50753 -8.48855,-3.14471 -10.66297,-7.26547 -2.13535,-4.02559 -1.86301,-8.14562 -0.3136,-12.47493 9.69205,-21.12516 9.78507,-18.42053 13.65218,-19.65726 -8.5618,-5.67142 -4.45585,-15.27509 -1.1769,-11.38258 l -1.43555,-1.6903 c -5.03851,1.79786 -15.14502,18.20286 -19.22857,28.5485 z"
         style="fill:#ffffff;fill-opacity:1;stroke:none" />
      <path
         d="m 117.60315,934.38807 c -0.0918,0.95219 -0.32124,1.8126 -0.68833,2.58123 -0.35565,0.75716 -0.81454,1.42828 -1.37665,2.01336 -0.55068,0.58508 -1.19312,1.08985 -1.92732,1.51432 -0.73423,0.42447 -1.52007,0.76863 -2.35752,1.03249 -0.83748,0.27533 -1.72083,0.47609 -2.65006,0.60229 -0.91779,0.12619 -1.84129,0.18928 -2.77052,0.18929 -0.86042,-10e-6 -1.71509,-0.0516 -2.56402,-0.15488 -0.84895,-0.0918 -1.6692,-0.22944 -2.46077,-0.41299 -0.79158,-0.17209 -1.543007,-0.39006 -2.254274,-0.65392 -0.699803,-0.27533 -1.330769,-0.58507 -1.8929,-0.92924 -0.30975,-0.9866 -0.544929,-1.99614 -0.705536,-3.02864 -0.160612,-1.04396 -0.309749,-2.09939 -0.447413,-3.16631 l 0,-0.10324 c 0.02294,-0.11472 0.06883,-0.22944 0.137665,-0.34417 0.0803,-0.12619 0.183553,-0.2237 0.309748,-0.29254 0.848934,0.52773 1.686399,0.92925 2.512395,1.20458 0.83746,0.27533 1.766705,0.413 2.787725,0.41299 0.20649,10e-6 0.4933,0.0115 0.86041,0.0344 0.3671,0.023 0.73994,0.0172 1.11853,-0.0172 0.37857,-0.0344 0.72847,-0.11471 1.0497,-0.24091 0.33268,-0.12619 1.48133,-0.99336 1.59606,-1.28017 1.66077,-16.76597 -2.19491,-16.98706 -2.36952,-17.68547 -0.97278,-0.3671 -3.700672,-2.61276 -4.285744,-3.03724 -0.585083,-0.42446 -1.101328,-0.90628 -1.548737,-1.44549 -0.435944,-0.55065 -0.785844,-1.17014 -1.0497,-1.85848 -0.252389,-0.68831 -0.378582,-1.47415 -0.37858,-2.35752 -2e-6,-1.13573 0.17208,-2.12806 0.516246,-2.97702 0.34416,-0.84892 0.808781,-1.5774 1.393863,-2.18544 0.596546,-0.608 1.290609,-1.10704 2.082192,-1.49711 0.79157,-0.4015 1.62903,-0.71125 2.51239,-0.92924 0.89482,-0.22942 1.81259,-0.39003 2.75331,-0.48183 0.94071,-0.0918 1.85848,-0.13765 2.75332,-0.13767 0.94069,2e-5 1.81257,0.0402 2.61564,0.12046 0.80303,0.0803 1.54872,0.17784 2.23706,0.29254 0.69978,0.10327 1.34796,0.21225 1.94453,0.32695 0.608,0.10328 1.18734,0.18358 1.73803,0.24092 0.0573,0.0115 0.10896,0.0459 0.15487,0.10325 0.0573,0.0459 0.10896,0.10327 0.15487,0.17208 0.0459,0.0574 0.0918,0.11474 0.13767,0.17208 0.0459,0.0459 0.0975,0.0746 0.15487,0.086 0.0229,2e-5 0.0344,-0.006 0.0344,-0.0172 -2e-5,-0.0114 0.0114,-0.0172 0.0344,-0.0172 0.0344,0.63099 0.086,1.25622 0.15487,1.8757 0.0803,0.61951 0.12043,1.25048 0.12046,1.8929 -3e-5,0.20651 -0.006,0.41875 -0.0172,0.6367 -0.0115,0.21799 -0.0459,0.43022 -0.10325,0.6367 -0.0459,0.20652 -0.12048,0.40155 -0.22371,0.58508 -0.10327,0.1721 -0.24667,0.3155 -0.4302,0.43021 l -3.23514,-0.39579 c -0.0918,2e-5 -0.20652,-0.006 -0.34417,-0.0172 -0.13768,-0.0115 -0.30403,-0.0172 -0.49903,-0.0172 -0.3786,2e-5 -0.82028,0.0287 -1.32503,0.086 -0.50479,0.0459 -0.98662,0.109 -1.44549,0.18929 -0.44743,0.0688 -0.82601,0.13768 -1.13574,0.2065 -0.30976,0.0688 -0.46464,0.12047 -0.46462,0.15487 -2e-5,0.34418 0.10897,0.64819 0.32695,0.91204 0.22943,0.26387 0.49903,0.49331 0.80879,0.68832 0.30973,0.18357 0.61948,0.33845 0.92924,0.46463 0.3212,0.11473 0.56785,0.20077 0.73995,0.25812 0.89481,0.2524 2.18813,1.06389 2.96825,1.52276 0.79156,0.44743 1.47415,0.95794 2.04778,1.53153 0.57358,0.56215 1.291,2.01757 1.62371,2.64852 0.72907,1.55592 -0.22111,18.15856 -0.22108,18.74363 -3e-5,0.19503 -0.0115,0.37285 -0.0344,0.53345 -0.0115,0.16062 -0.0459,0.35564 -0.10325,0.58508"
         style="font-size:154.62028503px;font-style:normal;font-variant:normal;font-weight:bold;font-stretch:normal;line-height:125%;letter-spacing:0px;word-spacing:0px;fill:#ffffff;fill-opacity:1;stroke:#000000;stroke-width:1.36766982;stroke-linecap:round;stroke-linejoin:round;stroke-miterlimit:4;stroke-opacity:1;stroke-dasharray:none;font-family:Sigmar One;-inkscape-font-specification:Sigmar One Bold"
         id="path3825"
         inkscape:connector-curvature="0"
         sodipodi:nodetypes="ccccccscccccccccccccccccccsccccccccccccccccccccccccccccccccccccccc" />
      <path
         d="m 137.10003,926.56314 c -0.59657,0.29828 -1.23327,3.76461 -1.91011,4.017 -0.67687,0.25238 -1.37093,0.47035 -2.08219,0.65391 -0.71128,0.18355 -1.43976,0.32122 -2.18544,0.41299 -0.73423,0.10325 -1.46271,0.15488 -2.18544,0.15488 -1.18164,0 -2.18545,-0.13767 -3.01143,-0.413 -0.826,-0.26386 -1.51433,-0.6367 -2.06499,-1.11853 -0.55066,-0.4933 -0.98087,-1.07264 -1.29061,-1.73803 -0.30975,-0.67685 -0.54493,-1.4168 -0.70554,-2.21985 -0.14913,-0.81452 -0.24091,-1.67493 -0.27533,-2.58123 -0.0344,-0.91776 -0.0516,-1.85848 -0.0516,-2.82215 0,-0.92923 0.0229,-9.61377 0.0688,-10.5545 0.0459,-0.95217 0.0975,-1.91009 0.15488,-2.87377 0.0688,-0.96364 0.12619,-1.93877 0.17208,-2.92539 0.0459,-0.98658 0.0688,-1.98466 0.0688,-2.99422 0,-0.26384 -0.023,-0.51049 -0.0688,-0.73996 -0.0459,-0.22942 -0.0688,-0.47607 -0.0688,-0.73995 0,-0.25236 0.12046,-0.41297 0.36138,-0.48183 0.25238,-0.0688 0.52771,-0.10322 0.82599,-0.10325 0.68832,3e-5 1.38239,-0.006 2.08219,-0.0172 0.71127,-0.0114 1.42827,-0.006 2.15102,0.0172 0.72274,0.0115 1.45122,0.0516 2.18544,0.12046 0.74568,0.0689 1.49711,0.17784 2.25428,0.32696 0.3212,0.0918 0.57933,0.19505 0.77437,0.30974 0.20648,0.10328 0.36136,0.24668 0.46462,0.43021 0.11471,0.1721 0.18927,0.40728 0.2237,0.70553 0.0344,0.28683 0.0516,0.65394 0.0516,1.10133 -1e-5,0.94073 -0.0115,1.90439 -0.0344,2.89097 -0.023,0.97515 -0.0516,2.01338 -0.086,3.11469 -0.0344,1.10133 -0.0631,10.02679 -0.086,11.27724 -0.023,1.25047 -0.0344,2.61566 -0.0344,4.09555 -1e-5,0.86042 0.0287,1.49139 0.086,1.8929 0.0688,0.39006 0.26385,0.58509 0.58508,0.58508 0.3671,1e-5 0.72847,-0.0516 1.08412,-0.15487 0.35562,-0.11472 0.68257,-0.23518 0.98086,-0.36137 0.34415,-0.14914 0.67684,-3.51222 0.99808,-3.70725 l 0,-18.72091 c -0.0459,-0.26384 -0.0803,-0.53343 -0.10325,-0.80878 -0.023,-0.27531 -0.0402,-0.5277 -0.0516,-0.75716 -0.0115,-0.2409 -0.0172,-0.44166 -0.0172,-0.60229 -2e-5,-0.17206 -2e-5,-0.28104 0,-0.32696 -2e-5,-0.21794 0.0115,-0.39576 0.0344,-0.53345 0.0344,-0.13764 0.0975,-0.24663 0.18929,-0.32696 0.10324,-0.0918 0.24664,-0.15485 0.43021,-0.18929 0.18353,-0.0344 0.43592,-0.0516 0.75716,-0.0516 0.24089,2e-5 0.60227,-0.006 1.08411,-0.0172 0.49329,-0.0229 1.00953,-0.0459 1.54874,-0.0688 0.53917,-0.0344 1.04968,-0.0631 1.53153,-0.0861 0.48181,-0.0229 0.8317,-0.0459 1.0497,-0.0688 0.0459,3e-5 0.18353,0.006 0.41299,0.0172 0.2409,0.0115 0.49902,0.023 0.77437,0.0344 0.30973,0.023 0.66536,0.0402 1.06691,0.0516 0.80302,0.0918 1.42825,0.18932 1.87569,0.29254 0.45886,0.0918 0.79729,0.18358 1.01529,0.27533 0.22941,0.0918 0.36708,0.18932 0.41299,0.29254 0.0573,0.0918 0.086,0.18931 0.086,0.29254 -3e-5,1.7782 -0.023,3.53917 -0.0688,5.28291 -0.0459,1.73231 -0.0975,3.4646 -0.15487,5.19688 -0.0459,1.72083 -0.0918,8.00595 -0.13767,9.73823 -0.0459,1.7323 -0.0689,3.4818 -0.0688,5.2485 -3e-5,0.48183 -0.10328,0.83747 -0.30975,1.06691 -0.20652,0.22944 -0.53921,0.34416 -0.99807,0.34416 -0.17211,0 -0.41876,0.006 -0.73996,0.0172 -0.30977,0 -0.6654,0.0115 -1.0669,0.0344 -0.39008,0.0115 -0.80881,0.0287 -1.2562,0.0516 -0.44744,0.0115 -0.88911,0.0229 -1.32503,0.0344 -1.03251,0.0459 -2.13957,0.0918 -3.32118,0.13767 -0.5851,0 -1.04398,-0.10899 -1.37666,-0.32696 -0.33271,-0.21797 -0.56789,-0.57934 -0.70553,-1.08412"
         style="font-size:154.62028503px;font-style:normal;font-variant:normal;font-weight:bold;font-stretch:normal;line-height:125%;letter-spacing:0px;word-spacing:0px;fill:#ffffff;fill-opacity:1;stroke:#000000;stroke-width:1.36766982;stroke-linecap:round;stroke-linejoin:round;stroke-miterlimit:4;stroke-opacity:1;stroke-dasharray:none;font-family:Sigmar One;-inkscape-font-specification:Sigmar One Bold"
         id="path3827"
         inkscape:connector-curvature="0"
         sodipodi:nodetypes="ccccscccccsccscccccccccccccccccccccccccccccccccccccccccccccccsccccccc" />
      <path
         d="m 168.86635,907.94548 c 0.0115,-0.0459 0.0917,-0.22369 0.24091,-0.53345 0.14912,-0.32121 0.32694,-0.71126 0.53346,-1.17016 0.20647,-0.45886 0.43018,-0.9579 0.67111,-1.49711 0.25237,-0.53917 0.48755,-1.04968 0.70554,-1.53153 0.22942,-0.48181 0.42445,-0.90628 0.58508,-1.2734 0.17206,-0.36709 0.28104,-0.60801 0.32695,-0.72275 0.0803,-0.17206 0.1778,-0.35561 0.29254,-0.55066 0.12618,-0.195 0.24663,-0.37282 0.36138,-0.53345 0.1147,-0.17206 0.22368,-0.30973 0.32695,-0.413 0.10323,-0.10323 0.18353,-0.15485 0.24092,-0.15487 0.41297,2e-5 1.325,-0.006 2.7361,-0.0172 1.42251,-0.0115 3.41293,-0.0172 5.97124,-0.0172 0.21794,2e-5 0.39002,0.006 0.51624,0.0172 0.12617,2e-5 0.25236,2e-5 0.37858,0 0.12617,2e-5 0.2753,0.006 0.44742,0.0172 0.18352,2e-5 0.44164,2e-5 0.77437,0 0.0573,2e-5 0.10321,0.17784 0.13766,0.53345 0.0344,0.35566 0.0631,0.82601 0.086,1.41107 0.0229,0.5851 0.0401,1.25622 0.0516,2.01336 0.0229,0.7457 0.0344,1.51434 0.0344,2.3059 0.0115,0.79159 0.0172,1.56596 0.0172,2.3231 -3e-5,0.75718 -3e-5,1.43977 0,2.04778 -3e-5,0.87189 -0.0344,1.75524 -0.10325,2.65006 -0.0574,0.89483 -0.12049,1.77245 -0.18929,2.63285 -3e-5,0.34417 0.006,0.7629 0.0172,1.2562 0.0114,0.48183 0.0172,0.98661 0.0172,1.51432 0.0114,0.52772 0.0229,1.0497 0.0344,1.56594 0.0114,0.51625 0.0172,0.98087 0.0172,1.39387 0.0115,0.41299 0.0172,0.75142 0.0172,1.01528 0.0114,0.25239 0.0229,0.37858 0.0344,0.37858 l -0.10325,0.29254 -1.58315,0.37858 c -0.0115,0 -0.10328,0 -0.27534,0 -0.17211,0.0115 -0.37287,0.0172 -0.60228,0.0172 -0.22947,0 -0.47039,0 -0.72275,0 -0.24094,0.0115 -0.43597,0.0172 -0.58507,0.0172 -0.47039,0 -0.92927,-0.0115 -1.37666,-0.0344 -0.43597,-0.0115 -0.87191,-0.0287 -1.30782,-0.0516 -0.4245,-0.023 -0.86044,-0.0516 -1.30782,-0.086 -0.43597,-0.0344 -0.88912,-0.0688 -1.35945,-0.10325 -0.023,0 -0.0746,0.006 -0.15487,0.0172 -0.0803,0.0115 -0.16064,0.0172 -0.24092,0.0172 -0.0803,0 -0.14916,-0.12045 -0.2065,-0.36137 -0.0574,-0.25238 -0.10901,-0.58507 -0.15487,-0.99807 -0.0344,-0.413 -0.0631,-0.89483 -0.086,-1.44549 -0.0115,-0.55066 -0.023,-1.13574 -0.0344,-1.75524 -0.0115,-0.61949 -0.023,-1.24472 -0.0344,-1.87569 -2e-5,-0.64243 -2e-5,-1.26193 0,-1.85848 -2e-5,-0.0688 -0.0287,-0.13193 -0.086,-0.18929 -0.0459,-0.0574 -0.11474,-0.086 -0.20649,-0.086 -0.0574,0 -0.13769,0.12046 -0.24092,0.36137 -0.10327,0.22945 -0.21799,0.50478 -0.34416,0.82599 -0.12622,0.32123 -0.25241,0.65392 -0.37858,0.99808 -0.11475,0.34417 -0.21226,0.62523 -0.29254,0.8432 -0.0344,0.0459 -0.0975,0.17208 -0.18929,0.37858 -0.0803,0.2065 -0.19505,0.44741 -0.34417,0.72274 -0.13768,0.27534 -0.29829,0.56788 -0.48182,0.87762 -0.17211,0.30975 -0.36713,0.59655 -0.58508,0.86041 -0.21799,0.25239 -0.44743,0.46462 -0.68833,0.6367 -0.24093,0.17208 -0.49332,0.25813 -0.75716,0.25812 -0.12621,10e-6 -0.30403,10e-6 -0.53345,0 -0.21799,10e-6 -0.45317,10e-6 -0.70554,0 -0.2524,-0.0115 -0.51053,-0.0172 -0.77437,-0.0172 -0.2524,-0.0115 -0.48184,-0.0287 -0.68833,-0.0516 -0.6654,-1.04396 -1.21032,-1.97894 -1.63477,-2.80493 -0.41301,-0.82599 -0.74571,-1.52579 -0.99808,-2.0994 -0.2524,-0.58507 -0.44169,-1.02675 -0.56787,-1.32503 -0.11473,-0.30974 -0.20078,-0.46462 -0.25812,-0.46462 -0.0918,0 -0.16063,0.0287 -0.2065,0.086 -0.0459,0.0574 -0.0688,0.12046 -0.0688,0.18929 -2e-5,0.50478 -2e-5,1.06118 0,1.66919 -2e-5,0.60803 -0.006,2.58936 -0.0172,3.20885 -1e-5,0.60803 -0.0115,1.20458 -0.0344,1.78965 -0.0115,0.57361 -0.0402,1.08412 -0.086,1.53153 -0.0344,0.43594 -0.0861,0.79158 -0.15487,1.06691 -0.0574,0.26385 -0.13768,0.39578 -0.24092,0.39578 -0.0688,0 -0.14915,-0.006 -0.24091,-0.0172 -0.0803,-0.0115 -0.13194,-0.0172 -0.15487,-0.0172 -0.92926,0.0688 -1.81835,0.13193 -2.66727,0.18929 -0.84895,0.0574 -1.74378,0.086 -2.68448,0.086 -0.14915,0 -0.34991,-0.006 -0.60229,-0.0172 -0.24092,0 -0.4761,0 -0.70553,0 -0.22945,0 -0.43021,-0.006 -0.60229,-0.0172 -0.17209,0 -0.26387,0 -0.27533,0 l -1.58316,-0.37858 -0.10324,-0.29254 c -0.0115,0 -0.0229,-0.12619 -0.0344,-0.37858 -0.0115,-0.26386 -0.0287,-0.60228 -0.0516,-1.01528 -0.0115,-0.413 -0.0229,-0.87762 -0.0344,-1.39386 -0.0115,-0.51625 -0.023,-1.03823 -0.0344,-1.56595 -0.0115,-0.52771 -0.023,-2.40006 -0.0344,-2.88189 -0.0115,-0.4933 -0.0229,-0.91203 -0.0344,-1.2562 0.0229,-1.21604 0.0574,-2.40914 0.10325,-3.5793 0.0574,-1.17015 0.086,-2.4034 0.086,-3.69976 0,-0.0459 -0.006,-0.13765 -0.0172,-0.27533 -0.0115,-0.13766 -0.023,-0.28106 -0.0344,-0.43021 -0.0115,-0.14912 -0.0229,-0.28679 -0.0344,-0.413 -0.0115,-0.13765 -0.0172,-0.22369 -0.0172,-0.25812 0,-0.35562 0.006,-0.6711 0.0172,-0.94645 0.0229,-0.28678 0.0459,-0.57932 0.0688,-0.87762 0.0229,-0.29825 0.0402,-0.61947 0.0516,-0.96366 0.0229,-0.34414 0.0344,-0.75714 0.0344,-1.23899 0,-0.0688 -0.006,-0.18926 -0.0172,-0.36137 0,-0.18353 -0.006,-0.37856 -0.0172,-0.58508 -0.0115,-0.20647 -0.0229,-0.39576 -0.0344,-0.56787 -1e-5,-0.18353 -1e-5,-0.30972 0,-0.37858 -0.023,-0.0229 -0.0459,-0.0631 -0.0688,-0.12045 -0.0229,-0.0573 -0.0344,-0.10323 -0.0344,-0.13767 -1e-5,-0.25236 0.0975,-0.45312 0.29254,-0.60229 0.19502,-0.14911 0.42446,-0.25809 0.68832,-0.32695 0.27533,-0.0803 0.54493,-0.13191 0.80879,-0.15487 0.27533,-0.0229 0.48756,-0.0344 0.6367,-0.0344 2.55828,2e-5 4.54869,0.006 5.97124,0.0172 1.42254,0.0115 2.33457,0.0172 2.73611,0.0172 0.0573,2e-5 0.13765,0.0516 0.24091,0.15487 0.10324,0.10327 0.21222,0.24094 0.32696,0.413 0.1147,0.16063 0.22942,0.33845 0.34416,0.53345 0.11471,0.19505 0.21796,0.3786 0.30975,0.55066 0.0459,0.11474 0.13765,0.36139 0.27533,0.73995 0.14912,0.36713 0.31547,0.79734 0.49904,1.29062 0.19501,0.48185 0.4015,0.99235 0.61949,1.53153 0.21795,0.5392 0.41872,1.03824 0.60229,1.49711 0.18353,0.4589 0.33841,0.84895 0.46462,1.17016 0.13765,0.30976 0.22369,0.4761 0.25812,0.49903 0.16059,0.3786 0.33841,0.56789 0.53346,0.56787 0.12617,2e-5 0.23516,-0.0573 0.32695,-0.17208 0.10323,-0.1147 0.18354,-0.24663 0.24092,-0.39579"
         style="font-size:154.62028503px;font-style:normal;font-variant:normal;font-weight:bold;font-stretch:normal;line-height:125%;letter-spacing:0px;word-spacing:0px;fill:#ffffff;fill-opacity:1;stroke:#000000;stroke-width:1.36766982;stroke-linecap:round;stroke-linejoin:round;stroke-miterlimit:4;stroke-opacity:1;stroke-dasharray:none;font-family:Sigmar One;-inkscape-font-specification:Sigmar One Bold"
         id="path3829"
         inkscape:connector-curvature="0"
         sodipodi:nodetypes="ccccccccccccccccccccccccccccccccccscscccccscccccccccccccccccccccccccccccccccsccsscsccccccsccccccccscsccccccccccccccccccccccccccc" />
      <path
         d="m 204.65938,907.94548 c 0.0115,-0.0459 0.0918,-0.22369 0.24092,-0.53345 0.14911,-0.32121 0.32693,-0.71126 0.53345,-1.17016 0.20648,-0.45886 0.43018,-0.9579 0.67112,-1.49711 0.25236,-0.53917 0.48754,-1.04968 0.70553,-1.53153 0.22943,-0.48181 0.42445,-0.90628 0.58508,-1.2734 0.17206,-0.36709 0.28105,-0.60801 0.32696,-0.72275 0.0803,-0.17206 0.17779,-0.35561 0.29254,-0.55066 0.12617,-0.195 0.24662,-0.37282 0.36137,-0.53345 0.1147,-0.17206 0.22368,-0.30973 0.32696,-0.413 0.10322,-0.10323 0.18353,-0.15485 0.24091,-0.15487 0.41297,2e-5 1.32501,-0.006 2.7361,-0.0172 1.42252,-0.0115 3.41293,-0.0172 5.97124,-0.0172 0.21794,2e-5 0.39002,0.006 0.51625,0.0172 0.12616,2e-5 0.25235,2e-5 0.37858,0 0.12616,2e-5 0.2753,0.006 0.44741,0.0172 0.18352,2e-5 0.44164,2e-5 0.77437,0 0.0573,2e-5 0.10322,0.17784 0.13766,0.53345 0.0344,0.35566 0.0631,0.82601 0.0861,1.41107 0.0229,0.5851 0.0401,1.25622 0.0516,2.01336 0.0229,0.7457 0.0344,1.51434 0.0344,2.3059 0.0114,0.79159 0.0172,1.56596 0.0172,2.3231 -4e-5,0.75718 -4e-5,1.43977 0,2.04778 -4e-5,0.87189 -0.0345,1.75524 -0.10325,2.65006 -0.0574,0.89483 -0.12049,1.77245 -0.18929,2.63285 -3e-5,0.34417 0.006,0.7629 0.0172,1.2562 0.0114,0.48183 0.0172,4.63346 0.0172,5.16117 0.0114,0.52773 0.0229,1.04971 0.0344,1.56595 0.0114,0.51625 0.0172,0.98087 0.0172,1.39386 0.0114,0.413 0.0172,0.75143 0.0172,1.01529 0.0114,0.25238 0.0229,0.37858 0.0344,0.37858 l -0.10325,0.29254 -1.58315,0.37858 c -0.0115,0 -0.10328,0 -0.27533,0 -0.17212,0.0115 -0.37288,0.0172 -0.60229,0.0172 -0.22948,0 -0.47039,0 -0.72274,0 -0.24095,0.0115 -0.43598,0.0172 -0.58508,0.0172 -0.47039,0 -0.92928,-0.0115 -1.37666,-0.0344 -0.43597,-0.0115 -0.87191,-0.0287 -1.30782,-0.0516 -0.4245,-0.0229 -0.86044,-0.0516 -1.30782,-0.086 -0.43597,-0.0344 -0.88912,-0.0688 -1.35945,-0.10325 -0.023,0 -0.0746,0.006 -0.15487,0.0172 -0.0803,0.0115 -0.16064,0.0172 -0.24092,0.0172 -0.0803,0 -0.14916,-0.12046 -0.2065,-0.36137 -0.0574,-0.25239 -0.10901,-0.58508 -0.15487,-0.99808 -0.0344,-0.41299 -0.0631,-0.89482 -0.086,-1.44548 -0.0115,-0.55066 -0.023,-1.13574 -0.0344,-1.75524 -0.0115,-0.61949 -0.023,-4.89158 -0.0344,-5.52255 -3e-5,-0.64243 -3e-5,-1.26193 0,-1.85848 -3e-5,-0.0688 -0.0287,-0.13193 -0.0861,-0.18929 -0.0459,-0.0574 -0.11474,-0.086 -0.20649,-0.086 -0.0574,0 -0.13769,0.12046 -0.24092,0.36137 -0.10327,0.22945 -0.21799,0.50478 -0.34416,0.82599 -0.12622,0.32123 -0.25241,0.65392 -0.37858,0.99808 -0.11475,0.34417 -0.21226,0.62523 -0.29254,0.8432 -0.0344,0.0459 -0.0975,0.17208 -0.18929,0.37858 -0.0803,0.2065 -0.19505,0.44741 -0.34417,0.72274 -0.13768,0.27534 -0.29829,0.56788 -0.48182,0.87762 -0.17211,0.30975 -0.36713,0.59655 -0.58508,0.86041 -0.21799,0.25239 -0.44744,0.46462 -0.68833,0.6367 -0.24094,0.17208 -0.49332,0.25813 -0.75716,0.25812 -0.12621,10e-6 -0.30403,10e-6 -0.53346,0 -0.21798,10e-6 -0.45316,10e-6 -0.70553,0 -0.25241,-0.0115 -0.51053,-0.0172 -0.77437,-0.0172 -0.2524,-0.0115 -0.48185,-0.0287 -0.68833,-0.0516 -0.6654,-1.04396 -1.21032,-1.97894 -1.63478,-2.80493 -0.41301,-0.82599 -0.7457,-1.52579 -0.99807,-2.0994 -0.2524,-0.58507 -0.44169,-1.02675 -0.56787,-1.32503 -0.11473,-0.30974 -0.20077,-0.46462 -0.25812,-0.46462 -0.0918,0 -0.16062,0.0287 -0.2065,0.086 -0.0459,0.0574 -0.0688,0.12046 -0.0688,0.18929 -2e-5,0.50478 -2e-5,1.06118 0,1.66919 -2e-5,0.60803 -0.006,1.67765 -0.0172,2.29713 -1e-5,0.60803 -0.0115,1.20458 -0.0344,1.78966 -0.0115,0.57361 -0.0402,1.08411 -0.086,1.53153 -0.0344,0.43594 -0.0861,0.79157 -0.15487,1.0669 -0.0574,0.26386 -0.13768,0.39579 -0.24092,0.39579 -0.0688,0 -0.14915,-0.006 -0.24091,-0.0172 -0.0803,-0.0115 -0.13194,-0.0172 -0.15488,-0.0172 -0.92925,0.0688 -1.81834,0.13193 -2.66727,0.18929 -0.84894,0.0574 -1.74377,0.086 -2.68447,0.086 -0.14915,0 -0.34991,-0.006 -0.60229,-0.0172 -0.24092,0 -0.4761,0 -0.70554,0 -0.22944,0 -0.4302,-0.006 -0.60228,-0.0172 -0.17209,0 -0.26386,0 -0.27533,0 l -1.58316,-0.37858 -0.10325,-0.29254 c -0.0115,0 -0.0229,-0.1262 -0.0344,-0.37858 -0.0115,-0.26386 -0.0287,-0.60229 -0.0516,-1.01529 -0.0115,-0.41299 -0.0229,-0.87761 -0.0344,-1.39386 -0.0115,-0.51624 -0.023,-1.03822 -0.0344,-1.56594 -0.0115,-0.52772 -0.0229,-1.48835 -0.0344,-1.97018 -0.0115,-0.4933 -0.0229,-0.91203 -0.0344,-1.2562 0.0229,-1.21604 0.0574,-2.40914 0.10325,-3.5793 0.0574,-1.17015 0.086,-2.4034 0.086,-3.69976 0,-0.0459 -0.006,-0.13765 -0.0172,-0.27533 -0.0115,-0.13766 -0.0229,-0.28106 -0.0344,-0.43021 -0.0115,-0.14912 -0.0229,-0.28679 -0.0344,-0.413 -0.0115,-0.13765 -0.0172,-0.22369 -0.0172,-0.25812 0,-0.35562 0.006,-0.6711 0.0172,-0.94645 0.0229,-0.28678 0.0459,-0.57932 0.0688,-0.87762 0.0229,-0.29825 0.0402,-0.61947 0.0516,-0.96366 0.0229,-0.34414 0.0344,-0.75714 0.0344,-1.23899 0,-0.0688 -0.006,-0.18926 -0.0172,-0.36137 0,-0.18353 -0.006,-0.37856 -0.0172,-0.58508 -0.0115,-0.20647 -0.0229,-0.39576 -0.0344,-0.56787 0,-0.18353 0,-0.30972 0,-0.37858 -0.023,-0.0229 -0.0459,-0.0631 -0.0688,-0.12045 -0.0229,-0.0573 -0.0344,-0.10323 -0.0344,-0.13767 0,-0.25236 0.0975,-0.45312 0.29254,-0.60229 0.19502,-0.14911 0.42446,-0.25809 0.68832,-0.32695 0.27533,-0.0803 0.54493,-0.13191 0.80879,-0.15487 0.27533,-0.0229 0.48756,-0.0344 0.6367,-0.0344 2.55828,2e-5 4.54869,0.006 5.97124,0.0172 1.42254,0.0115 2.33457,0.0172 2.73611,0.0172 0.0574,2e-5 0.13765,0.0516 0.24091,0.15487 0.10324,0.10327 0.21222,0.24094 0.32696,0.413 0.1147,0.16063 0.22943,0.33845 0.34416,0.53345 0.11471,0.19505 0.21796,0.3786 0.30975,0.55066 0.0459,0.11474 0.13765,0.36139 0.27533,0.73995 0.14912,0.36713 0.31547,0.79734 0.49904,1.29062 0.19501,0.48185 0.40151,0.99235 0.61949,1.53153 0.21796,0.5392 0.41872,1.03824 0.60229,1.49711 0.18353,0.4589 0.33841,0.84895 0.46462,1.17016 0.13765,0.30976 0.22369,0.4761 0.25812,0.49903 0.16059,0.3786 0.33841,0.56789 0.53346,0.56787 0.12617,2e-5 0.23516,-0.0573 0.32695,-0.17208 0.10323,-0.1147 0.18354,-0.24663 0.24092,-0.39579"
         style="font-size:154.62028503px;font-style:normal;font-variant:normal;font-weight:bold;font-stretch:normal;line-height:125%;letter-spacing:0px;word-spacing:0px;fill:#ffffff;fill-opacity:1;stroke:#000000;stroke-width:1.36766982;stroke-linecap:round;stroke-linejoin:round;stroke-miterlimit:4;stroke-opacity:1;stroke-dasharray:none;font-family:Sigmar One;-inkscape-font-specification:Sigmar One Bold"
         id="path3831"
         inkscape:connector-curvature="0"
         sodipodi:nodetypes="ccccccccccccccccccccccccccccccccccscscccccscccccccccccccccccccccccccccccccccsccsscscccccccscccccccsccccccccccccccccccccccccccccc" />
      <path
         d="m 236.90753,924.42805 c -0.023,0.78011 -0.0402,1.53727 -0.0516,2.27148 -0.0115,0.72275 -0.0287,1.39387 -0.0516,2.01336 -0.0115,0.60802 -0.0459,1.13574 -0.10325,1.58315 -0.0459,0.44741 -0.12047,0.77437 -0.22371,0.98087 -0.26387,0 -0.56215,0.0115 -0.89482,0.0344 -0.33271,0.0115 -0.64819,0.0287 -0.94646,0.0516 -0.29828,0.0115 -0.55067,0.0229 -0.75716,0.0344 -0.20651,0.0115 -0.31549,0.0172 -0.32695,0.0172 l -0.10325,0 c -0.13768,0 -0.24666,-0.0229 -0.32696,-0.0688 -0.0688,-0.0459 -0.14915,-0.0688 -0.24091,-0.0688 -0.0459,0.0115 -0.0918,0.0287 -0.13767,0.0516 -0.0918,0.0459 -0.13767,0.0746 -0.13766,0.086 l -3.26956,0 c -0.0344,0.0115 -0.24092,0.0229 -0.61949,0.0344 -0.36712,0 -0.78585,0 -1.2562,0 -0.47036,0.0115 -0.91777,0.0172 -1.34224,0.0172 -0.42447,0.0115 -0.70554,0.0172 -0.8432,0.0172 -0.19503,0 -0.35564,-0.0631 -0.48183,-0.18929 -0.1262,-0.13767 -0.22945,-0.30975 -0.30975,-0.51625 -0.0688,-0.2065 -0.12046,-0.4302 -0.15487,-0.67112 -0.0344,-0.25238 -0.0631,-0.49903 -0.086,-0.73995 -0.0115,-0.24091 -0.0172,-0.45888 -0.0172,-0.65391 0,-0.2065 0,-0.36137 0,-0.46462 0.0229,-1.42254 0.0344,-2.8795 0.0344,-4.37088 0.0115,-1.49137 0.0459,-11.15376 0.10325,-12.57631 l 0,-11.1337 c 0,-0.195 0.0631,-0.30399 0.18929,-0.32695 0.12619,-0.0229 0.26386,-0.0344 0.413,-0.0344 1.18163,2e-5 2.35178,-0.006 3.51047,-0.0172 1.15868,-0.0114 2.33457,-0.0172 3.52768,-0.0172 0.10324,2e-5 0.21222,-0.0114 0.32695,-0.0344 0.11472,-0.0344 0.27533,-0.0573 0.48183,-0.0688 0.20649,-0.0229 0.47609,-0.0287 0.80879,-0.0172 0.33268,0.0115 0.75715,0.0516 1.2734,0.12046 0.10324,0.0918 0.19502,0.12622 0.27534,0.10325 0.0918,-0.0344 0.18927,-0.0688 0.29253,-0.10325 0.32121,2e-5 0.58507,0.023 0.79158,0.0688 0.21796,0.0344 0.39004,0.14343 0.51625,0.32696 0.12618,0.1721 0.21222,0.43596 0.25812,0.79158 0.0573,0.34418 0.086,0.82601 0.086,1.44548 l 0,6.88328 c -1e-5,0.0115 -0.006,0.1893 -0.0172,0.53345 -0.0115,0.33271 -0.023,0.75718 -0.0344,1.27341 -0.0115,0.50478 -0.0287,9.25514 -0.0516,9.8402 -0.023,0.58509 -0.0402,1.13575 -0.0516,1.65199 -0.0115,0.50478 -0.023,0.93499 -0.0344,1.29061 -0.0115,0.34418 -0.0172,0.52773 -0.0172,0.55067"
         style="font-size:154.62028503px;font-style:normal;font-variant:normal;font-weight:bold;font-stretch:normal;line-height:125%;letter-spacing:0px;word-spacing:0px;fill:#ffffff;fill-opacity:1;stroke:#000000;stroke-width:1.36766982;stroke-linecap:round;stroke-linejoin:round;stroke-miterlimit:4;stroke-opacity:1;stroke-dasharray:none;font-family:Sigmar One;-inkscape-font-specification:Sigmar One Bold"
         id="path3833"
         inkscape:connector-curvature="0"
         sodipodi:nodetypes="ccccccccssccccccccscccccccccccccccccccccccccccccc" />
      <path
         d="m 245.76974,907.7734 c 0,-0.0229 -0.0459,-0.0573 -0.13766,-0.10325 l -3.88905,0 c -0.33269,2e-5 -0.59082,-0.18927 -0.77437,-0.56787 -0.17208,-0.39003 -0.30401,-0.85465 -0.39579,-1.39386 -0.0803,-0.53917 -0.12619,-1.08984 -0.13767,-1.65199 -0.0115,-0.56211 -0.0172,-1.02673 -0.0172,-1.39386 -1e-5,-0.0918 -1e-5,-0.23516 0,-0.43021 0.0115,-0.20647 0.0172,-0.41297 0.0172,-0.61949 0.0115,-0.20648 0.0172,-0.39003 0.0172,-0.55066 0.0115,-0.16059 0.0172,-0.24663 0.0172,-0.25813 0,-0.17205 0.0631,-0.30398 0.18929,-0.39578 0.13767,-0.10323 0.29828,-0.1778 0.48183,-0.22371 0.19503,-0.0573 0.39005,-0.0917 0.58508,-0.10325 0.20649,-0.0229 0.37858,-0.0344 0.51624,-0.0344 0.86041,3e-5 1.74376,0.0115 2.65007,0.0344 0.90629,0.023 1.78964,0.0344 2.65006,0.0344 l 12.68243,0 c 0.78009,2e-5 1.38237,0.023 1.80686,0.0688 0.42445,0.0344 0.7342,0.0975 0.92925,0.18929 0.195,0.0803 0.30972,0.18358 0.34416,0.30975 0.0344,0.12621 0.0516,0.27535 0.0516,0.44741 l 0,5.83358 c -2e-5,0.13768 -0.0344,0.24666 -0.10325,0.32695 -0.0688,0.0688 -0.15489,0.12047 -0.25812,0.15488 -0.0918,0.0344 -0.19505,0.0574 -0.30975,0.0688 -0.10327,10e-6 -0.19505,10e-6 -0.27533,0 -0.32124,10e-6 -0.67688,10e-6 -1.0669,0 -0.39008,10e-6 -0.7916,10e-6 -1.20458,0 -0.40154,10e-6 -0.80307,10e-6 -1.20457,0 -0.39007,-0.0115 -0.75144,-0.0172 -1.08412,-0.0172 -0.0918,2e-5 -0.16636,0.006 -0.2237,0.0172 -0.0459,10e-6 -0.0861,0.0287 -0.12046,0.086 -0.023,0.0459 -0.0402,0.12621 -0.0516,0.24091 -0.0115,0.11474 -0.0172,0.28109 -0.0172,0.49904 -2e-5,0.1721 -0.006,0.57362 -0.0172,1.20458 -2e-5,0.63097 -0.0172,1.39961 -0.0516,2.30589 -0.023,0.90631 -0.0631,20.13293 -0.12045,21.2113 -0.0459,1.07839 -0.10901,2.14529 -0.18929,3.20072 l 0,3.39002 c -2e-5,0.43594 -0.0459,0.76863 -0.13767,0.99807 -0.0803,0.21797 -0.20652,0.37858 -0.37858,0.48183 -0.16063,0.10325 -0.37286,0.16635 -0.6367,0.18929 -0.25241,0.0229 -0.55068,0.0516 -0.89483,0.086 -0.71129,0 -1.35372,0.006 -1.92732,0.0172 -0.56214,0.0115 -1.14722,0.0229 -1.75523,0.0344 -0.59656,0.0115 -1.25047,0.0229 -1.96173,0.0344 -0.69981,0.0115 -1.53154,0.0172 -2.49519,0.0172 -0.32123,0 -0.56788,-0.20076 -0.73995,-0.60229 -0.17209,-0.41299 -0.30402,-0.98086 -0.39579,-1.70361 -0.0803,-0.72274 -0.1262,-1.57167 -0.13767,-2.54681 0,-0.9866 0.0115,-2.0535 0.0344,-3.20072 0.0229,-1.1472 0.0516,-20.58606 0.086,-21.848 0.0344,-1.2734 0.0516,-2.55254 0.0516,-3.83743"
         style="font-size:154.62028503px;font-style:normal;font-variant:normal;font-weight:bold;font-stretch:normal;line-height:125%;letter-spacing:0px;word-spacing:0px;fill:#ffffff;fill-opacity:1;stroke:#000000;stroke-width:1.36766982;stroke-linecap:round;stroke-linejoin:round;stroke-miterlimit:4;stroke-opacity:1;stroke-dasharray:none;font-family:Sigmar One;-inkscape-font-specification:Sigmar One Bold"
         id="path3835"
         inkscape:connector-curvature="0"
         sodipodi:nodetypes="ccccccccccsccccccccccccccccccccccccccccccccccccscccccc" />
      <text
         xml:space="preserve"
         style="font-size:22.56952095000000114px;font-style:normal;font-weight:normal;line-height:125%;letter-spacing:0px;word-spacing:0px;fill:#ffffff;fill-opacity:0;stroke:#579c00;stroke-width:5.85875559000000035;stroke-linecap:round;stroke-linejoin:round;stroke-miterlimit:4;stroke-opacity:1;stroke-dasharray:none;font-family:Sans"
         x="137.41788"
         y="895.12427"
         id="text3989"
         sodipodi:linespacing="125%"><tspan
           sodipodi:role="line"
           id="tspan3991"
           x="137.41788"
           y="895.12427"
           style="font-style:normal;font-variant:normal;font-weight:normal;font-stretch:normal;fill:#ffffff;fill-opacity:0;stroke:#579c00;stroke-width:5.85875559000000035;stroke-linecap:round;stroke-linejoin:round;stroke-miterlimit:4;stroke-opacity:1;stroke-dasharray:none;font-family:FifthLeg;-inkscape-font-specification:FifthLeg">openSUSE</tspan></text>
      <text
         sodipodi:linespacing="125%"
         id="text3153"
         y="895.12427"
         x="137.41788"
         style="font-size:22.56952095px;font-style:normal;font-weight:normal;line-height:125%;letter-spacing:0px;word-spacing:0px;fill:#ffffff;fill-opacity:1;stroke:none;font-family:Sans"
         xml:space="preserve"><tspan
           style="font-style:normal;font-variant:normal;font-weight:normal;font-stretch:normal;fill:#ffffff;fill-opacity:1;font-family:FifthLeg;-inkscape-font-specification:FifthLeg"
           y="895.12427"
           x="137.41788"
           id="tspan3155"
           sodipodi:role="line">openSUSE</tspan></text>
      <path
         sodipodi:nodetypes="ccc"
         inkscape:connector-curvature="0"
         id="path4820"
         d="m 146.24051,899.56942 c -0.1331,2.49504 1.08408,3.44691 2.4297,4.25198 l 0,0"
         style="fill:none;stroke:#000000;stroke-width:1.15007555;stroke-linecap:butt;stroke-linejoin:miter;stroke-miterlimit:4;stroke-opacity:1;stroke-dasharray:none" />
      <path
         style="fill:none;stroke:#000000;stroke-width:1.15007555;stroke-linecap:butt;stroke-linejoin:miter;stroke-miterlimit:4;stroke-opacity:1;stroke-dasharray:none"
         d="m 155.29086,899.38151 c 0.1331,2.49504 -1.08408,3.44691 -2.42971,4.25198 l 0,0"
         id="path4828"
         inkscape:connector-curvature="0"
         sodipodi:nodetypes="ccc" />
      <path
         style="fill:#ffffff;fill-opacity:1"
         d="m 201.79986,814.25585 c -9.98329,-1.95045 -21.50685,-6.67445 -30.20041,-12.38043 -1.26337,-0.82922 -2.45907,-1.47121 -2.6571,-1.42662 -0.24494,0.0551 -0.51705,0.78517 -0.85113,2.28344 -0.66689,2.99081 -1.01268,4.08437 -1.233,3.89937 -0.24089,-0.20236 -0.30248,-2.8236 -0.12998,-5.53495 0.15557,-2.44591 0.21519,-2.33179 -2.36393,-4.5282 -0.99186,-0.84471 -1.73625,-1.58588 -1.6542,-1.64702 0.0821,-0.0613 0.95451,0.34491 1.93877,0.90246 0.98426,0.55752 1.93973,0.94863 2.12323,0.86918 0.23127,-0.10026 0.62711,-1.71123 1.28966,-5.24898 0.97289,-5.19481 1.9784,-9.00762 3.43363,-13.02027 5.69951,-15.71571 14.6969,-28.10051 27.22585,-37.47598 5.15627,-3.85846 7.78192,-5.46418 12.87103,-7.87129 21.56219,-10.19871 46.77888,-9.92493 69.30313,0.75239 5.68732,2.69603 14.55173,8.25125 14.92023,9.35035 0.27849,0.8306 -0.83214,8.68782 -1.83533,12.98432 -4.98665,21.35647 -19.06481,39.627 -38.91639,50.50536 -15.69997,8.60335 -34.41594,11.26922 -53.26407,7.58687 z m 11.40379,-2.8935 c 9.30922,0.0219 17.14467,-1.17443 25.51659,-3.89011 24.06549,-7.80639 43.1733,-27.36343 50.55026,-51.73875 1.01526,-3.35457 2.55018,-10.29058 2.46369,-11.13285 -0.0591,-0.57553 -0.45953,-0.91811 -2.50144,-2.13994 -6.78563,-4.06041 -14.24834,-7.14248 -22.29062,-9.20592 -3.44439,-0.88377 -12.50775,-2.20276 -15.88879,-2.31236 -10.56181,-0.34236 -19.58567,0.95854 -29.26078,4.21825 -19.49873,6.56947 -34.98578,20.06489 -44.74962,38.99481 -3.38008,6.55325 -5.75449,13.26645 -7.7495,21.91041 -0.51719,2.24086 -0.43333,2.42699 1.60856,3.56995 6.82922,3.82266 14.4708,6.97112 21.19728,8.73362 1.29618,0.33981 2.74742,0.71973 3.22498,0.84468 2.25993,0.59131 15.16912,2.14234 17.87939,2.14821 z M 176.4182,790.63964 c 0.39872,-0.4376 2.55018,-2.15536 4.78101,-3.8173 15.3424,-11.42961 46.49126,-27.07339 72.08704,-36.20395 10.97899,-3.91647 19.57615,-6.16433 26.29021,-6.87403 3.58739,-0.37919 4.221,-0.13527 0.97542,0.37551 -4.19861,0.66073 -8.56146,1.77562 -15.11626,3.86283 -27.8382,8.86426 -68.96116,28.45539 -86.8926,41.39592 -1.63244,1.1781 -2.54011,1.71677 -2.12482,1.26102 z"
         id="path12910"
         inkscape:connector-curvature="0" />
      <path
         inkscape:connector-curvature="0"
         id="path12926"
         d="m 131.26184,801.05517 c 10.03083,1.68899 22.47975,1.32424 32.62553,-0.95595 1.47442,-0.33143 2.81958,-0.51132 2.98924,-0.39987 0.20983,0.13783 0.20754,0.91691 -0.007,2.43687 -0.4287,3.03417 -0.49003,4.17946 -0.21869,4.08382 0.29672,-0.10464 1.27713,-2.53633 2.07019,-5.13482 0.71545,-2.34412 0.61949,-2.25825 3.80674,-3.40614 1.22573,-0.44142 2.18339,-0.87308 2.12812,-0.9592 -0.0553,-0.086 -1.01484,-0.0146 -2.13237,0.16225 -1.11751,0.17538 -2.14952,0.20491 -2.29329,0.066 -0.18121,-0.17501 0.0153,-1.82248 0.64077,-5.36698 0.9182,-5.20476 1.31934,-9.12746 1.3699,-13.39555 0.19798,-16.71615 -3.86341,-31.47558 -12.28971,-44.6616 -3.46783,-5.4267 -5.36011,-7.85397 -9.27602,-11.8986 -16.59144,-17.13665 -40.29022,-25.75782 -65.131441,-23.69354 -6.272354,0.5212 -16.524978,2.60013 -17.256822,3.49914 -0.553075,0.6794 -2.279636,8.42461 -2.853224,12.79921 -2.851015,21.74484 3.893859,43.80189 18.644928,60.97252 11.66614,13.57968 28.245469,22.66376 47.183369,25.85248 z m -9.65512,-6.7229 c -8.72036,-3.25843 -15.63367,-7.13494 -22.513604,-12.62405 -19.776692,-15.77875 -30.776321,-40.81065 -29.099838,-66.22254 0.230721,-3.49728 1.235822,-10.52962 1.613296,-11.28748 0.257921,-0.51792 0.753323,-0.69756 3.094662,-1.12236 7.780681,-1.41164 15.850675,-1.6692 24.104547,-0.76928 3.534997,0.38542 12.482517,2.34152 15.685687,3.42925 10.00619,3.39781 17.9944,7.79221 25.90258,14.24931 15.93773,13.01334 25.68237,31.09697 28.15698,52.25236 0.85666,7.32366 0.71571,14.44303 -0.46005,23.23593 -0.30481,2.27947 -0.44882,2.42418 -2.76237,2.77515 -7.73779,1.17377 -15.99858,1.43049 -22.91492,0.71211 -1.33276,-0.13855 -2.82491,-0.29351 -3.31589,-0.34492 -2.32342,-0.2421 -14.95225,-3.335 -17.49108,-4.28366 z m 41.72589,-6.44598 c -0.21916,-0.54993 -1.62815,-2.91515 -3.1311,-5.25602 -10.33647,-16.09917 -33.98398,-41.70725 -54.72683,-59.26418 -8.897383,-7.53082 -16.152834,-12.66139 -22.187233,-15.68931 -3.224245,-1.61783 -3.90316,-1.61261 -1.04517,0.007 3.697217,2.09658 7.388279,4.67601 12.788679,8.93717 22.935474,18.09709 54.528924,50.91117 66.756784,69.336 1.1132,1.67736 1.77312,2.50108 1.54487,1.92829 z"
         style="fill:#ffffff;fill-opacity:1" />
    </g>
  </g>
</svg>
