<?xml version="1.0" encoding="UTF-8" standalone="no"?>
<!-- Created with Inkscape (http://www.inkscape.org/) -->

<svg
   xmlns:dc="http://purl.org/dc/elements/1.1/"
   xmlns:cc="http://creativecommons.org/ns#"
   xmlns:rdf="http://www.w3.org/1999/02/22-rdf-syntax-ns#"
   xmlns:svg="http://www.w3.org/2000/svg"
   xmlns="http://www.w3.org/2000/svg"
   xmlns:sodipodi="http://sodipodi.sourceforge.net/DTD/sodipodi-0.dtd"
   xmlns:inkscape="http://www.inkscape.org/namespaces/inkscape"
   width="998.79712"
   height="1031.0675"
   id="svg2"
   version="1.1"
   inkscape:version="0.48.4 r9939"
   sodipodi:docname="Tubmleweed SVG.svg"
   inkscape:export-filename="/home/jospoortvliet/Downloads/tumbleweed logo.png"
   inkscape:export-xdpi="90"
   inkscape:export-ydpi="90">
  <defs
     id="defs4">
    <clipPath
       id="clipPath18"
       clipPathUnits="userSpaceOnUse">
      <path
         id="path20"
         d="M 0,523.965 0,0 l 1125.93,0 0,523.965 -1125.93,0 z" />
    </clipPath>
  </defs>
  <sodipodi:namedview
     id="base"
     pagecolor="#ffffff"
     bordercolor="#666666"
     borderopacity="1.0"
     inkscape:pageopacity="0.0"
     inkscape:pageshadow="2"
     inkscape:zoom="0.35"
     inkscape:cx="1432.3152"
     inkscape:cy="704.88284"
     inkscape:document-units="px"
     inkscape:current-layer="layer1"
     showgrid="false"
     inkscape:window-width="1600"
     inkscape:window-height="841"
     inkscape:window-x="-8"
     inkscape:window-y="-3"
     inkscape:window-maximized="1"
     fit-margin-top="25"
     fit-margin-left="25"
     fit-margin-right="25"
     fit-margin-bottom="25" />
  <metadata
     id="metadata7">
    <rdf:RDF>
      <cc:Work
         rdf:about="">
        <dc:format>image/svg+xml</dc:format>
        <dc:type
           rdf:resource="http://purl.org/dc/dcmitype/StillImage" />
        <dc:title></dc:title>
      </cc:Work>
    </rdf:RDF>
  </metadata>
  <g
     inkscape:label="logo"
     inkscape:groupmode="layer"
     id="layer1"
     transform="translate(105.09808,167.03299)">
    <g
       id="layer1-7"
       inkscape:label="Layer 1"
       transform="matrix(1.0842736,0,0,1.0842736,239.71464,375.4698)"
       style="fill:#6ec72e;stroke:none;stroke-opacity:1;fill-opacity:1">
      <text
         xml:space="preserve"
         style="font-size:8px;font-style:normal;font-weight:normal;line-height:125%;letter-spacing:0px;word-spacing:0px;fill:#6ec72e;fill-opacity:1;stroke:none;font-family:Sans;stroke-opacity:1"
         x="164.64285"
         y="438.79074"
         id="text3761"
         sodipodi:linespacing="125%"
         transform="translate(-250,-387.18362)"><tspan
           sodipodi:role="line"
           id="tspan3763"
           x="164.64285"
           y="438.79074" /></text>
      <text
         xml:space="preserve"
         style="font-size:12px;font-style:normal;font-weight:normal;line-height:125%;letter-spacing:0px;word-spacing:0px;fill:#6ec72e;fill-opacity:1;stroke:none;font-family:Sans;stroke-opacity:1"
         x="165.35715"
         y="434.68362"
         id="text3765"
         sodipodi:linespacing="125%"
         transform="translate(-250,-387.18362)"><tspan
           sodipodi:role="line"
           x="165.35715"
           y="434.68362"
           id="tspan3773" /></text>
      <g
         id="layer1-8"
         inkscape:label="Layer 1"
         transform="matrix(3.7583893,0,0,3.7583893,-253.79169,-236.84146)"
         style="fill:#6ec72e;stroke:none;stroke-opacity:1;fill-opacity:1">
        <path
           id="path2445"
           d="m 100,30.15625 c -38.57068,0 -69.84375,31.269508 -69.84375,69.84375 0,38.57424 31.273072,69.84375 69.84375,69.84375 38.57068,0 69.84374,-31.26951 69.84375,-69.84375 0,-38.57424 -31.27307,-69.84375 -69.84375,-69.84375 z m 0.33443,9.672652 c 33.23352,0 60.19682,26.941143 60.19682,60.171098 0,33.23353 -26.96686,60.1711 -60.19682,60.1711 -17.944821,0 -34.047203,-7.86473 -45.070445,-20.32286 4.532491,-3.51775 12.115629,-2.65954 21.454765,-1.59496 4.475525,0.50915 9.577453,1.09159 14.843405,1.20908 14.711895,0.0855 30.541335,-2.5996 40.311295,-6.86861 6.31629,-2.77006 10.36035,-4.59427 12.88829,-6.89434 0.91149,-0.7477 1.39015,-1.99679 1.87794,-3.29281 l 0.33442,-0.87466 c 0.40946,-1.04678 0.99706,-3.29926 1.26053,-4.52762 0.1175,-0.53764 0.17517,-1.1158 -0.2058,-1.41489 l -1.36343,0.25726 c -4.28682,2.57066 -14.99713,7.4667 -25.03056,7.66609 -12.43319,0.25991 -37.492093,-12.51643 -40.105489,-13.86585 l -0.257252,-0.3087 c -0.626644,-1.49541 -4.376768,-10.39808 -5.170752,-12.270896 18.037389,11.877766 32.991863,18.452076 44.453043,19.473926 12.74296,1.13224 22.683,-5.82499 26.93421,-8.79799 0.8296,-0.56612 1.46367,-1.01005 1.72359,-1.10618 l 0.28298,-0.46306 c -0.70498,-4.47909 -7.39073,-26.153517 -12.42525,-31.35894 -1.39571,-1.427752 -2.50536,-2.81725 -4.75915,-4.141747 C 114.08824,60.052429 70.821318,53.655843 68.795407,53.360325 l -0.334426,0.1029 -0.128626,0.282977 c 0,0 -0.162274,8.984421 -0.180076,9.981353 -1.484722,-0.491344 -6.088485,-1.998597 -12.682493,-3.80732 8.603733,-10.645844 21.789033,-20.091332 44.864644,-20.091333 z m 15.89813,31.847721 c 0.30705,-0.0046 0.61701,-0.01024 0.92611,0 10.20789,0.366729 18.22788,8.964457 17.87897,19.165228 -0.18159,4.934825 -2.26212,9.494349 -5.86533,12.862569 -3.6139,3.38602 -8.31087,5.1509 -13.27417,4.99068 -10.1901,-0.38097 -18.2101,-8.978697 -17.878976,-19.165231 0.174464,-4.941948 2.266486,-9.530764 5.891056,-12.888294 3.38468,-3.174391 7.71664,-4.895833 12.32234,-4.964952 z m -0.48878,5.453729 c -2.97293,0.180743 -5.77842,1.387872 -7.97479,3.447169 -2.50301,2.349915 -3.97993,5.531532 -4.0903,8.978073 -0.23499,7.120959 5.33713,13.113596 12.45097,13.377076 3.45722,0.10681 6.73667,-1.10438 9.26105,-3.447173 2.51726,-2.360599 3.98349,-5.571496 4.0903,-9.003798 0.23855,-7.131643 -5.35929,-13.102113 -12.47669,-13.351347 -0.43082,-0.01602 -0.83583,-0.02582 -1.26054,0 z m 3.39572,6.45701 c 3.16171,0 5.71099,1.718121 5.71098,3.833045 0,2.104248 -2.54927,3.833044 -5.71098,3.833046 -3.17239,0 -5.7367,-1.732365 -5.7367,-3.833046 0,-2.114922 2.56431,-3.833043 5.7367,-3.833045 z"
           style="font-size:20.48839951000000070px;fill:#6ec72e;fill-opacity:1;fill-rule:evenodd;stroke:none;font-family:TrebuchetMS-Bold;stroke-opacity:1"
           inkscape:connector-curvature="0" />
      </g>
    </g>
  </g>
  <g
     inkscape:groupmode="layer"
     id="layer3"
     inkscape:label="text"
     transform="translate(105.09808,167.03299)">
    <path
       sodipodi:type="spiral"
       style="fill:none;stroke:#6ec72e;stroke-width:6.03097248;stroke-linecap:butt;stroke-linejoin:miter;stroke-miterlimit:4;stroke-opacity:1;stroke-dasharray:none"
       id="path3752"
       sodipodi:cx="229.30463"
       sodipodi:cy="5.0709052"
       sodipodi:expansion="1"
       sodipodi:revolution="1.3208393"
       sodipodi:radius="44.49506"
       sodipodi:argument="-21.961157"
       sodipodi:t0="0.44440794"
       d="m 245.88182,15.850798 c -4.22855,13.11917 -19.96023,17.766604 -31.94825,12.857536 -16.90074,-6.920819 -22.63954,-27.704142 -15.32661,-43.599646 8.77164,-19.066187 31.8901,-26.711691 51.05045,-19.605123"
       transform="matrix(13.297349,0,0,13.232448,-2639.6101,389.58714)" />
    <path
       sodipodi:type="spiral"
       style="fill:none;stroke:#6ec72e;stroke-width:7.80847931;stroke-linecap:butt;stroke-linejoin:miter;stroke-miterlimit:4;stroke-opacity:1;stroke-dasharray:none"
       id="path3752-9"
       sodipodi:cx="229.30463"
       sodipodi:cy="5.0709052"
       sodipodi:expansion="1"
       sodipodi:revolution="1.2997687"
       sodipodi:radius="43.785252"
       sodipodi:argument="-21.961157"
       sodipodi:t0="0.45161232"
       d="m 245.88181,15.850808 c -4.22855,13.119168 -19.96024,17.766593 -31.94825,12.857518 -16.90074,-6.92083 -22.63952,-27.7041555 -15.32659,-43.599655 7.83071,-17.020922 27.48838,-25.300873 45.41077,-21.276976"
       transform="matrix(10.493755,0,0,10.002674,-1981.42,492.76834)" />
    <path
       sodipodi:type="spiral"
       style="fill:none;stroke:#6ec72e;stroke-width:7.57245540999999989;stroke-linecap:butt;stroke-linejoin:miter;stroke-miterlimit:4;stroke-opacity:1;stroke-dasharray:none"
       id="path3752-9-9"
       sodipodi:cx="229.30463"
       sodipodi:cy="5.0709052"
       sodipodi:expansion="1"
       sodipodi:revolution="1.1639923"
       sodipodi:radius="39.211353"
       sodipodi:argument="-21.961157"
       sodipodi:t0="0.50429159"
       d="M 245.88181,15.850803 C 241.65326,28.96997 225.92158,33.617397 213.93356,28.708325 197.03283,21.7875 191.29404,1.0041786 198.60697,-14.891321 c 2.5854,-5.619652 6.60776,-10.529469 11.54151,-14.251403"
       transform="matrix(-11.726905,0,0,9.5175055,2948.4083,488.6909)" />
    <path
       sodipodi:type="spiral"
       style="fill:none;stroke:#6ec72e;stroke-width:5.86566067;stroke-linecap:butt;stroke-linejoin:miter;stroke-miterlimit:4;stroke-opacity:1;stroke-dasharray:none"
       id="path3752-9-9-4"
       sodipodi:cx="229.30463"
       sodipodi:cy="5.0709052"
       sodipodi:expansion="1"
       sodipodi:revolution="1.1685009"
       sodipodi:radius="39.363235"
       sodipodi:argument="-21.961157"
       sodipodi:t0="0.5023458"
       d="m 245.88181,15.850802 c -4.22854,13.119168 -19.96023,17.766596 -31.94824,12.857524 -16.90074,-6.920824 -22.63953,-27.7041462 -15.3266,-43.599646 2.74312,-5.962489 7.10232,-11.119112 12.44787,-14.91484"
       transform="matrix(-14.537318,0,0,12.795634,3670.6139,402.07594)" />
  </g>
</svg>
