<?xml version="1.0" encoding="UTF-8" standalone="no"?>
<!-- Created with Inkscape (http://www.inkscape.org/) -->

<svg
   xmlns:dc="http://purl.org/dc/elements/1.1/"
   xmlns:cc="http://creativecommons.org/ns#"
   xmlns:rdf="http://www.w3.org/1999/02/22-rdf-syntax-ns#"
   xmlns:svg="http://www.w3.org/2000/svg"
   xmlns="http://www.w3.org/2000/svg"
   xmlns:sodipodi="http://sodipodi.sourceforge.net/DTD/sodipodi-0.dtd"
   xmlns:inkscape="http://www.inkscape.org/namespaces/inkscape"
   version="1.1"
   id="svg869"
   xml:space="preserve"
   width="170.819"
   height="349.32111"
   viewBox="0 0 170.81901 349.3211"
   sodipodi:docname="iphone-l.svg"
   inkscape:version="0.92.4 5da689c313, 2019-01-14"><metadata
     id="metadata875"><rdf:RDF><cc:Work
         rdf:about=""><dc:format>image/svg+xml</dc:format><dc:type
           rdf:resource="http://purl.org/dc/dcmitype/StillImage" /><dc:title /></cc:Work></rdf:RDF></metadata><defs
     id="defs873"><clipPath
   clipPathUnits="userSpaceOnUse"
   id="clipPath885"><path
     d="m 1176.333,1110.805 c -0.726,-0.172 -1.412,-0.479 -2.001,-1.003 v 0 c -1.239,-1.099 -1.073,-2.579 -1.073,-4.089 v 0 -35.281 c 0,-1.926 -0.031,-3.561 1.426,-5.015 v 0 c 0.541,-0.539 1.133,-0.908 1.781,-1.135 v 0 c 0.555,-0.193 1.151,-0.282 1.793,-0.282 v 0 1.916 43.79 1.294 c -0.65,0 -1.303,-0.048 -1.926,-0.195"
     id="path883"
     inkscape:connector-curvature="0" /></clipPath><clipPath
   clipPathUnits="userSpaceOnUse"
   id="clipPath1267"><path
     d="m 1778.751,995.373 v -139.487 -1.917 c 0.641,0 1.238,0.09 1.794,0.283 v 0 c 0.648,0.227 1.24,0.596 1.781,1.135 v 0 c 1.457,1.454 1.425,3.089 1.425,5.015 v 0 130.978 c 0,1.51 0.164,2.99 -1.072,4.088 v 0 c -0.59,0.525 -1.275,0.832 -2.004,1.004 v 0 c -0.621,0.148 -1.273,0.195 -1.924,0.195 v 0 z"
     id="path1265"
     inkscape:connector-curvature="0" /></clipPath><clipPath
   clipPathUnits="userSpaceOnUse"
   id="clipPath1649"><path
     d="m 1176.841,1024.305 c -0.726,-0.172 -1.412,-0.479 -2.002,-1.003 v 0 c -1.238,-1.099 -1.072,-2.579 -1.072,-4.089 v 0 -76.281 c 0,-1.926 -0.031,-3.562 1.426,-5.014 v 0 c 0.541,-0.539 1.133,-0.909 1.781,-1.136 v 0 c 0.554,-0.193 1.15,-0.282 1.793,-0.282 v 0 1.916 84.79 1.294 c -0.65,0 -1.302,-0.048 -1.926,-0.195"
     id="path1647"
     inkscape:connector-curvature="0" /></clipPath><clipPath
   clipPathUnits="userSpaceOnUse"
   id="clipPath2031"><path
     d="m 1176.841,913.306 c -0.726,-0.172 -1.412,-0.48 -2.002,-1.004 v 0 c -1.238,-1.099 -1.072,-2.579 -1.072,-4.09 v 0 -76.28 c 0,-1.926 -0.031,-3.561 1.426,-5.015 v 0 c 0.541,-0.539 1.133,-0.908 1.781,-1.135 v 0 c 0.554,-0.193 1.15,-0.282 1.793,-0.282 v 0 1.916 84.79 1.294 c -0.65,0 -1.302,-0.048 -1.926,-0.194"
     id="path2029"
     inkscape:connector-curvature="0" /></clipPath><clipPath
   clipPathUnits="userSpaceOnUse"
   id="clipPath2413"><path
     d="M 0,1337 H 2071.01 V 0 H 0 Z"
     id="path2411"
     inkscape:connector-curvature="0" /></clipPath><clipPath
   clipPathUnits="userSpaceOnUse"
   id="clipPath2429"><path
     d="m 1687.773,1276 h -419.514 c -1.171,0 -2.336,-0.022 -3.496,-0.067 v 0 c -16.191,-0.618 -31.287,-5.514 -44.189,-13.589 v 0 c -5.192,-3.249 -10.027,-7.013 -14.435,-11.221 v 0 c -0.507,-0.482 -1.007,-0.971 -1.503,-1.466 v 0 c -0.891,-0.892 -1.764,-1.802 -2.619,-2.73 v 0 c -1.98,-2.152 -3.86,-4.403 -5.625,-6.742 v 0 c -3.566,-4.723 -6.678,-9.808 -9.27,-15.19 v 0 c -4.892,-10.162 -7.933,-21.384 -8.681,-33.227 v 0 c -0.121,-1.907 -0.182,-3.83 -0.182,-5.768 v 0 -9.656 V 151 c 0,-15.915 4.129,-30.863 11.377,-43.834 v 0 c 3.52,-6.298 7.773,-12.13 12.647,-17.38 v 0 c 0.763,-0.823 1.543,-1.632 2.335,-2.426 v 0 c 0.495,-0.494 0.995,-0.983 1.501,-1.467 v 0 c 4.408,-4.207 9.244,-7.972 14.433,-11.223 v 0 c 12.899,-8.079 27.995,-12.979 44.186,-13.602 v 0 c 1.168,-0.045 2.341,-0.068 3.521,-0.068 v 0 h 419.495 1.506 c 16.524,0 32.011,4.454 45.32,12.228 v 0 c 5.89,3.439 11.353,7.529 16.293,12.169 v 0 c 0.691,0.65 1.373,1.31 2.043,1.981 v 0 c 0.794,0.794 1.574,1.603 2.338,2.427 v 0 c 4.869,5.25 9.122,11.082 12.638,17.381 v 0 c 7.24,12.967 11.368,27.908 11.368,43.814 v 0 1025.277 9.723 c 0,1.915 -0.062,3.817 -0.179,5.703 v 0 c -0.74,11.844 -3.771,23.067 -8.656,33.231 v 0 c -2.587,5.385 -5.695,10.473 -9.257,15.198 v 0 c -1.766,2.34 -3.643,4.591 -5.622,6.746 v 0 c -0.853,0.929 -1.726,1.84 -2.617,2.731 v 0 c -0.669,0.672 -1.352,1.333 -2.043,1.982 v 0 c -4.937,4.642 -10.4,8.732 -16.289,12.173 v 0 c -13.315,7.778 -28.806,12.236 -45.337,12.236 v 0 z"
     id="path2427"
     inkscape:connector-curvature="0" /></clipPath><clipPath
   clipPathUnits="userSpaceOnUse"
   id="clipPath3945"><path
     d="M 0,1337 H 2071.01 V 0 H 0 Z"
     id="path3943"
     inkscape:connector-curvature="0" /></clipPath><clipPath
   clipPathUnits="userSpaceOnUse"
   id="clipPath3965"><path
     d="m 1755.324,1208.436 c 1.921,-8.521 2.935,-17.385 2.935,-26.487 v 0 -1031 c 0,-0.862 -0.01,-1.722 -0.027,-2.579 v 0 c -0.491,-23.197 -7.568,-44.771 -19.43,-62.938 v 0 c 2.305,1.859 4.502,3.843 6.584,5.944 v 0 c 2.209,2.23 4.285,4.591 6.219,7.071 v 0 c 10.434,13.385 16.654,30.214 16.654,48.502 v 0 13.011 1026.989 c 0,2.946 -0.162,5.854 -0.476,8.717 v 0 c -1.666,15.156 -7.622,29.018 -16.625,40.352 v 0 c -2.068,2.603 -4.298,5.073 -6.672,7.395 v 0 c -2.236,2.187 -4.601,4.243 -7.085,6.154 v 0 c 8.384,-12.268 14.552,-26.17 17.923,-41.131"
     id="path3963"
     inkscape:connector-curvature="0" /></clipPath><clipPath
   clipPathUnits="userSpaceOnUse"
   id="clipPath4247"><path
     d="m 1212.53,1243.413 c -2.372,-2.322 -4.6,-4.792 -6.67,-7.395 v 0 c -9.003,-11.334 -14.96,-25.196 -16.626,-40.352 v 0 c -0.314,-2.863 -0.474,-5.771 -0.474,-8.717 v 0 V 159.96 146.949 c 0,-18.288 6.218,-35.117 16.653,-48.502 v 0 c 1.932,-2.48 4.011,-4.841 6.219,-7.071 v 0 c 2.08,-2.101 4.28,-4.085 6.582,-5.944 v 0 c -11.861,18.167 -18.939,39.741 -19.428,62.938 v 0 c -0.019,0.857 -0.026,1.717 -0.026,2.579 v 0 1031 c 0,9.102 1.013,17.966 2.933,26.487 v 0 c 3.373,14.961 9.539,28.863 17.924,41.131 v 0 c -2.483,-1.911 -4.85,-3.967 -7.087,-6.154"
     id="path4245"
     inkscape:connector-curvature="0" /></clipPath><clipPath
   clipPathUnits="userSpaceOnUse"
   id="clipPath4529"><path
     d="m 1633.759,1240 c -2.999,0 -7.499,-2.63 -7.499,-6.5 v 0 c 0,-2.89 0.126,-5.813 -0.157,-8.694 v 0 C 1624.614,1209.673 1612.685,1197 1597.259,1197 v 0 h -131.086 -33.914 -61.962 -9.038 c -16.5,0 -31,14.5 -31,31 v 0 5.5 c 0,3.87 -2.5,6.5 -6.499,6.5 v 0 h -53.065 c -15.602,-0.017 -29.836,-6.286 -40.106,-16.469 v 0 c -10.07,-9.984 -16.33,-23.729 -16.33,-39.031 v 0 V 1072.067 964.305 623.052 379.275 157.388 151.5 c 0,-15.464 6.393,-29.589 16.653,-39.848 v 0 c 9.094,-9.094 21.226,-15.151 34.636,-16.409 v 0 c 1.717,-0.161 3.456,-0.243 5.212,-0.243 v 0 h 112.009 84.939 158.688 60.363 c 3.032,0 6.001,0.246 8.893,0.719 v 0 c 11.707,1.911 22.13,7.536 30.139,15.611 v 0 c 10.195,10.284 16.469,24.544 16.469,40.17 v 0 5.699 221.97 243.864 341.38 107.804 112.283 c 0,15.464 -6.143,29.339 -16.153,39.348 v 0 c -9.028,9.028 -21.201,14.91 -34.848,15.977 v 0 c -1.482,0.116 -2.984,0.175 -4.5,0.175 v 0 z"
     id="path4527"
     inkscape:connector-curvature="0" /></clipPath><clipPath
   clipPathUnits="userSpaceOnUse"
   id="clipPath5417"><path
     d="M 0,1337 H 2071.01 V 0 H 0 Z"
     id="path5415"
     inkscape:connector-curvature="0" /></clipPath><clipPath
   clipPathUnits="userSpaceOnUse"
   id="clipPath5513"><path
     d="m 1603.91,240.377 h 72.87 v -72.875 h -72.87 z"
     id="path5511"
     inkscape:connector-curvature="0" /></clipPath><clipPath
   clipPathUnits="userSpaceOnUse"
   id="clipPath5529"><path
     d="m 1625,215 h 30 v -22 h -30 z"
     id="path5527"
     inkscape:connector-curvature="0" /></clipPath><clipPath
   clipPathUnits="userSpaceOnUse"
   id="clipPath5549"><path
     d="m 1277.91,240.377 h 72.87 v -72.875 h -72.87 z"
     id="path5547"
     inkscape:connector-curvature="0" /></clipPath><clipPath
   clipPathUnits="userSpaceOnUse"
   id="clipPath5565"><path
     d="m 1306.34,217.004 h 16 v -5.753 h -16 z"
     id="path5563"
     inkscape:connector-curvature="0" /></clipPath><clipPath
   clipPathUnits="userSpaceOnUse"
   id="clipPath5581"><path
     d="m 1305.55,223.439 h 17.59 v -4.618 h -17.59 z"
     id="path5579"
     inkscape:connector-curvature="0" /></clipPath><clipPath
   clipPathUnits="userSpaceOnUse"
   id="clipPath5597"><path
     d="m 1309.83,209.433 h 9.02 v -24.994 h -9.02 z"
     id="path5595"
     inkscape:connector-curvature="0" /></clipPath><clipPath
   clipPathUnits="userSpaceOnUse"
   id="clipPath5613"><path
     d="m 1392.26,124 h 172 v -9 h -172 z"
     id="path5611"
     inkscape:connector-curvature="0" /></clipPath><clipPath
   clipPathUnits="userSpaceOnUse"
   id="clipPath5629"><path
     d="m 1770,1160 h 11 v -8 h -11 z"
     id="path5627"
     inkscape:connector-curvature="0" /></clipPath><clipPath
   clipPathUnits="userSpaceOnUse"
   id="clipPath5643"><path
     d="m 1770,188 h 11 v -8 h -11 z"
     id="path5641"
     inkscape:connector-curvature="0" /></clipPath><clipPath
   clipPathUnits="userSpaceOnUse"
   id="clipPath5657"><path
     d="m 1178,1160 h 9 v -8 h -9 z"
     id="path5655"
     inkscape:connector-curvature="0" /></clipPath><clipPath
   clipPathUnits="userSpaceOnUse"
   id="clipPath5671"><path
     d="m 1178,188 h 9 v -8 h -9 z"
     id="path5669"
     inkscape:connector-curvature="0" /></clipPath><clipPath
   clipPathUnits="userSpaceOnUse"
   id="clipPath5693"><path
     d="m 1543.531,1226.237 c -1.211,-0.018 -2.414,-0.481 -3.319,-1.389 v 0 c -0.929,-0.933 -1.388,-2.181 -1.377,-3.425 v 0 c 0.012,-1.213 0.471,-2.423 1.377,-3.332 v 0 c 0.905,-0.909 2.108,-1.372 3.319,-1.39 v 0 c 1.253,-0.02 2.513,0.439 3.455,1.378 v 0 c 0.914,0.911 1.375,2.125 1.387,3.343 v 0 c 0.011,1.25 -0.451,2.503 -1.387,3.437 v 0 c -0.922,0.92 -2.15,1.379 -3.378,1.379 v 0 c -0.026,0 -0.051,0 -0.077,-10e-4"
     id="path5691"
     inkscape:connector-curvature="0" /></clipPath><clipPath
   clipPathUnits="userSpaceOnUse"
   id="clipPath5803"><path
     d="m 892.751,1109.706 v -43.79 -1.916 c 0.643,0 1.239,0.089 1.793,0.282 v 0 c 0.649,0.227 1.24,0.596 1.781,1.135 v 0 c 1.457,1.454 1.427,3.089 1.427,5.015 v 0 35.281 c 0,1.51 0.165,2.99 -1.073,4.089 v 0 c -0.59,0.524 -1.275,0.831 -2.002,1.003 v 0 c -0.622,0.147 -1.275,0.195 -1.926,0.195 v 0 z"
     id="path5801"
     inkscape:connector-curvature="0" /></clipPath><clipPath
   clipPathUnits="userSpaceOnUse"
   id="clipPath5929"><path
     d="m 290.335,996.472 c -0.728,-0.172 -1.413,-0.479 -2.004,-1.004 v 0 c -1.236,-1.098 -1.072,-2.578 -1.072,-4.088 v 0 -130.978 c 0,-1.926 -0.031,-3.561 1.426,-5.015 v 0 c 0.541,-0.539 1.133,-0.908 1.781,-1.135 v 0 c 0.555,-0.193 1.153,-0.283 1.794,-0.283 v 0 1.917 139.487 1.294 c -0.651,0 -1.304,-0.047 -1.925,-0.195"
     id="path5927"
     inkscape:connector-curvature="0" /></clipPath><clipPath
   clipPathUnits="userSpaceOnUse"
   id="clipPath6067"><path
     d="m 892.244,1023.206 v -84.79 -1.916 c 0.642,0 1.238,0.089 1.793,0.282 v 0 c 0.648,0.227 1.24,0.597 1.781,1.136 v 0 c 1.457,1.452 1.425,3.088 1.425,5.014 v 0 76.281 c 0,1.51 0.167,2.99 -1.072,4.089 v 0 c -0.589,0.524 -1.275,0.831 -2.001,1.003 v 0 c -0.624,0.147 -1.276,0.195 -1.926,0.195 v 0 z"
     id="path6065"
     inkscape:connector-curvature="0" /></clipPath><clipPath
   clipPathUnits="userSpaceOnUse"
   id="clipPath6193"><path
     d="m 892.244,912.206 v -84.79 -1.916 c 0.642,0 1.238,0.089 1.793,0.282 v 0 c 0.648,0.227 1.24,0.596 1.781,1.135 v 0 c 1.457,1.454 1.425,3.089 1.425,5.015 v 0 76.28 c 0,1.511 0.167,2.991 -1.072,4.09 v 0 c -0.589,0.524 -1.275,0.832 -2.001,1.004 v 0 c -0.624,0.146 -1.276,0.194 -1.926,0.194 v 0 z"
     id="path6191"
     inkscape:connector-curvature="0" /></clipPath><clipPath
   clipPathUnits="userSpaceOnUse"
   id="clipPath6319"><path
     d="m 383.238,1276 h -1.487 c -16.531,0 -32.023,-4.458 -45.337,-12.236 v 0 c -5.889,-3.441 -11.352,-7.531 -16.289,-12.173 v 0 c -0.692,-0.649 -1.374,-1.31 -2.043,-1.982 v 0 c -0.891,-0.891 -1.764,-1.802 -2.618,-2.731 v 0 c -1.978,-2.155 -3.855,-4.406 -5.621,-6.746 v 0 c -3.562,-4.725 -6.67,-9.813 -9.257,-15.198 v 0 c -4.886,-10.164 -7.917,-21.387 -8.657,-33.231 v 0 c -0.117,-1.886 -0.178,-3.788 -0.178,-5.703 v 0 -9.723 V 151 c 0,-15.906 4.128,-30.847 11.367,-43.814 v 0 c 3.516,-6.299 7.77,-12.131 12.639,-17.381 v 0 c 0.764,-0.824 1.543,-1.633 2.338,-2.427 v 0 c 0.67,-0.671 1.352,-1.331 2.043,-1.981 v 0 c 4.939,-4.64 10.402,-8.73 16.293,-12.169 v 0 C 349.74,65.454 365.226,61 381.751,61 v 0 h 1.506 419.494 c 1.18,0 2.354,0.023 3.522,0.068 v 0 c 16.191,0.623 31.287,5.523 44.186,13.602 v 0 c 5.189,3.251 10.025,7.016 14.433,11.223 v 0 c 0.506,0.484 1.006,0.973 1.5,1.467 v 0 c 0.793,0.794 1.572,1.603 2.336,2.426 v 0 c 4.873,5.25 9.127,11.082 12.647,17.38 v 0 c 7.247,12.971 11.376,27.919 11.376,43.834 v 0 1025.344 9.656 c 0,1.938 -0.06,3.861 -0.181,5.768 v 0 c -0.748,11.843 -3.789,23.065 -8.682,33.227 v 0 c -2.592,5.382 -5.703,10.467 -9.27,15.19 v 0 c -1.765,2.339 -3.644,4.59 -5.625,6.742 v 0 c -0.855,0.928 -1.728,1.838 -2.619,2.73 v 0 c -0.496,0.495 -0.995,0.984 -1.502,1.466 v 0 c -4.408,4.208 -9.244,7.972 -14.435,11.221 v 0 c -12.902,8.075 -27.998,12.971 -44.189,13.589 v 0 c -1.16,0.045 -2.325,0.067 -3.497,0.067 v 0 z"
     id="path6317"
     inkscape:connector-curvature="0" /></clipPath><clipPath
   clipPathUnits="userSpaceOnUse"
   id="clipPath7297"><path
     d="m 352.004,1175.5 v -108.095 c 0,-24.2 19.566,-44 43.482,-44 v 0 c 23.915,0 43.481,19.8 43.481,44 v 0 108.095 c 0,24.2 -19.566,44 -43.481,44 v 0 c -23.916,0 -43.482,-19.8 -43.482,-44"
     id="path7295"
     inkscape:connector-curvature="0" /></clipPath><linearGradient
   x1="0"
   y1="0"
   x2="1"
   y2="0"
   gradientUnits="userSpaceOnUse"
   gradientTransform="matrix(86.962891,0,0,-86.962891,352.00439,1121.4526)"
   spreadMethod="pad"
   id="linearGradient7323"><stop
     style="stop-opacity:1;stop-color:#ded9d6"
     offset="0"
     id="stop7303" /><stop
     style="stop-opacity:1;stop-color:#ded9d6"
     offset="0"
     id="stop7305" /><stop
     style="stop-opacity:1;stop-color:#ded9d6"
     offset="0"
     id="stop7307" /><stop
     style="stop-opacity:1;stop-color:#ded9d6"
     offset="0.04439189"
     id="stop7309" /><stop
     style="stop-opacity:1;stop-color:#8b878d"
     offset="0.264045"
     id="stop7311" /><stop
     style="stop-opacity:1;stop-color:#f3f4f4"
     offset="0.522472"
     id="stop7313" /><stop
     style="stop-opacity:1;stop-color:#f3f4f4"
     offset="0.58197592"
     id="stop7315" /><stop
     style="stop-opacity:1;stop-color:#807b80"
     offset="0.876404"
     id="stop7317" /><stop
     style="stop-opacity:1;stop-color:#d1d3d4"
     offset="1"
     id="stop7319" /><stop
     style="stop-opacity:1;stop-color:#d1d3d4"
     offset="1"
     id="stop7321" /></linearGradient><clipPath
   clipPathUnits="userSpaceOnUse"
   id="clipPath7333"><path
     d="M 0,1337 H 2071.01 V 0 H 0 Z"
     id="path7331"
     inkscape:connector-curvature="0" /></clipPath><clipPath
   clipPathUnits="userSpaceOnUse"
   id="clipPath7349"><path
     d="m 383.908,1178.01 c 0,-6.431 5.213,-11.644 11.644,-11.644 v 0 c 6.432,0 11.646,5.213 11.646,11.644 v 0 c 0,6.432 -5.214,11.645 -11.646,11.645 v 0 c -6.431,0 -11.644,-5.213 -11.644,-11.645"
     id="path7347"
     inkscape:connector-curvature="0" /></clipPath><radialGradient
   fx="0"
   fy="0"
   cx="0"
   cy="0"
   r="1"
   gradientUnits="userSpaceOnUse"
   gradientTransform="matrix(11.644774,0,0,-11.644774,395.55273,1178.0103)"
   spreadMethod="pad"
   id="radialGradient7359"><stop
     style="stop-opacity:1;stop-color:#ffffff"
     offset="0"
     id="stop7355" /><stop
     style="stop-opacity:1;stop-color:#0c1526"
     offset="1"
     id="stop7357" /></radialGradient><clipPath
   clipPathUnits="userSpaceOnUse"
   id="clipPath7369"><path
     d="m 392.46,1187.875 c -0.398,-0.126 -0.79,-0.276 -1.171,-0.447 v 0 c -1.123,-0.509 -2.157,-1.215 -3.041,-2.097 v 0 c -0.848,-0.846 -1.549,-1.837 -2.063,-2.934 v 0 c -0.235,-0.501 -0.432,-1.024 -0.584,-1.564 v 0 c -0.262,-0.927 -0.387,-1.876 -0.384,-2.821 v 0 c 0.005,-1.021 0.158,-2.035 0.454,-3.008 v 0 c 0.488,-1.608 1.361,-3.101 2.577,-4.316 v 0 c 0.884,-0.881 1.918,-1.587 3.041,-2.095 v 0 c 0.381,-0.173 0.773,-0.322 1.171,-0.447 v 0 c 1.146,-0.359 2.356,-0.523 3.57,-0.467 v 0 c 0.76,0.035 1.499,0.151 2.209,0.342 v 0 c 0.777,0.208 1.519,0.505 2.212,0.878 v 0 c 0.888,0.479 1.698,1.083 2.406,1.789 v 0 c 1.216,1.215 2.09,2.708 2.578,4.316 v 0 c 0.295,0.973 0.45,1.987 0.453,3.008 v 0 c 0.004,0.945 -0.121,1.894 -0.384,2.821 v 0 c -0.152,0.54 -0.348,1.063 -0.583,1.564 v 0 c -0.515,1.097 -1.216,2.088 -2.064,2.934 v 0 c -0.708,0.707 -1.518,1.312 -2.406,1.79 v 0 c -0.693,0.373 -1.435,0.67 -2.212,0.879 v 0 c -0.71,0.19 -1.449,0.307 -2.209,0.341 v 0 c -0.158,0.01 -0.315,0.011 -0.472,0.011 v 0 c -1.055,0 -2.1,-0.164 -3.098,-0.477"
     id="path7367"
     inkscape:connector-curvature="0" /></clipPath><clipPath
   clipPathUnits="userSpaceOnUse"
   id="clipPath8029"><path
     d="M 0,1337 H 2071.01 V 0 H 0 Z"
     id="path8027"
     inkscape:connector-curvature="0" /></clipPath><clipPath
   clipPathUnits="userSpaceOnUse"
   id="clipPath8041"><path
     d="m 383.908,1064.011 c 0,-6.433 5.213,-11.646 11.644,-11.646 v 0 c 6.432,0 11.646,5.213 11.646,11.646 v 0 c 0,6.431 -5.214,11.644 -11.646,11.644 v 0 c -6.431,0 -11.644,-5.213 -11.644,-11.644"
     id="path8039"
     inkscape:connector-curvature="0" /></clipPath><radialGradient
   fx="0"
   fy="0"
   cx="0"
   cy="0"
   r="1"
   gradientUnits="userSpaceOnUse"
   gradientTransform="matrix(11.644774,0,0,-11.644774,395.55273,1064.0103)"
   spreadMethod="pad"
   id="radialGradient8051"><stop
     style="stop-opacity:1;stop-color:#ffffff"
     offset="0"
     id="stop8047" /><stop
     style="stop-opacity:1;stop-color:#0c1526"
     offset="1"
     id="stop8049" /></radialGradient><clipPath
   clipPathUnits="userSpaceOnUse"
   id="clipPath8061"><path
     d="m 392.46,1073.875 c -0.398,-0.126 -0.79,-0.276 -1.171,-0.448 v 0 c -1.123,-0.507 -2.157,-1.214 -3.041,-2.096 v 0 c -0.848,-0.845 -1.549,-1.838 -2.063,-2.935 v 0 c -0.235,-0.5 -0.432,-1.022 -0.584,-1.563 v 0 c -0.262,-0.926 -0.387,-1.877 -0.384,-2.822 v 0 c 0.005,-1.02 0.158,-2.034 0.454,-3.007 v 0 c 0.488,-1.609 1.361,-3.102 2.577,-4.315 v 0 c 0.884,-0.881 1.918,-1.588 3.041,-2.096 v 0 c 0.381,-0.172 0.773,-0.321 1.171,-0.447 v 0 c 1.146,-0.359 2.356,-0.523 3.57,-0.467 v 0 c 0.76,0.035 1.499,0.152 2.209,0.342 v 0 c 0.777,0.208 1.519,0.505 2.212,0.878 v 0 c 0.888,0.479 1.698,1.084 2.406,1.79 v 0 c 1.216,1.213 2.09,2.706 2.578,4.315 v 0 c 0.295,0.973 0.45,1.987 0.453,3.007 v 0 c 0.004,0.945 -0.121,1.896 -0.384,2.822 v 0 c -0.152,0.541 -0.348,1.063 -0.583,1.563 v 0 c -0.515,1.097 -1.216,2.09 -2.064,2.935 v 0 c -0.708,0.707 -1.518,1.311 -2.406,1.79 v 0 c -0.693,0.374 -1.435,0.671 -2.212,0.879 v 0 c -0.71,0.19 -1.449,0.307 -2.209,0.342 v 0 c -0.156,0.01 -0.311,0.01 -0.466,0.01 v 0 c -1.057,0 -2.105,-0.164 -3.104,-0.477"
     id="path8059"
     inkscape:connector-curvature="0" /></clipPath><clipPath
   clipPathUnits="userSpaceOnUse"
   id="clipPath8721"><path
     d="m 377.158,1120.764 c 0,-10.16 8.235,-18.394 18.394,-18.394 v 0 c 10.16,0 18.396,8.234 18.396,18.394 v 0 c 0,10.159 -8.236,18.394 -18.396,18.394 v 0 c -10.159,0 -18.394,-8.235 -18.394,-18.394"
     id="path8719"
     inkscape:connector-curvature="0" /></clipPath><linearGradient
   x1="0"
   y1="0"
   x2="1"
   y2="0"
   gradientUnits="userSpaceOnUse"
   gradientTransform="matrix(36.791016,0,0,-36.791016,377.15723,1120.7637)"
   spreadMethod="pad"
   id="linearGradient8747"><stop
     style="stop-opacity:1;stop-color:#ded9d6"
     offset="0"
     id="stop8727" /><stop
     style="stop-opacity:1;stop-color:#ded9d6"
     offset="0"
     id="stop8729" /><stop
     style="stop-opacity:1;stop-color:#ded9d6"
     offset="0"
     id="stop8731" /><stop
     style="stop-opacity:1;stop-color:#ded9d6"
     offset="0.04439189"
     id="stop8733" /><stop
     style="stop-opacity:1;stop-color:#8b878d"
     offset="0.264045"
     id="stop8735" /><stop
     style="stop-opacity:1;stop-color:#f3f4f4"
     offset="0.522472"
     id="stop8737" /><stop
     style="stop-opacity:1;stop-color:#f3f4f4"
     offset="0.58197592"
     id="stop8739" /><stop
     style="stop-opacity:1;stop-color:#807b80"
     offset="0.876404"
     id="stop8741" /><stop
     style="stop-opacity:1;stop-color:#d1d3d4"
     offset="1"
     id="stop8743" /><stop
     style="stop-opacity:1;stop-color:#d1d3d4"
     offset="1"
     id="stop8745" /></linearGradient><clipPath
   clipPathUnits="userSpaceOnUse"
   id="clipPath8757"><path
     d="m 390.104,1136.343 c -2.367,-0.828 -4.487,-2.179 -6.222,-3.916 v 0 c -1.93,-1.931 -3.384,-4.338 -4.169,-7.03 v 0 c -0.43,-1.47 -0.66,-3.025 -0.66,-4.633 v 0 c 0,-1.419 0.178,-2.794 0.515,-4.107 v 0 c 0.744,-2.905 2.259,-5.501 4.314,-7.556 v 0 c 1.735,-1.737 3.855,-3.089 6.222,-3.916 v 0 c 1.706,-0.597 3.539,-0.921 5.449,-0.921 v 0 c 1.757,0 3.451,0.274 5.041,0.784 v 0 c 2.53,0.811 4.796,2.217 6.63,4.053 v 0 c 2.055,2.055 3.569,4.651 4.314,7.556 v 0 c 0.336,1.313 0.514,2.688 0.514,4.107 v 0 c 0,1.608 -0.23,3.163 -0.659,4.633 v 0 c -0.786,2.692 -2.239,5.099 -4.169,7.03 v 0 c -1.834,1.836 -4.1,3.242 -6.63,4.052 v 0 c -1.59,0.51 -3.284,0.784 -5.041,0.784 v 0 c -1.91,0 -3.743,-0.324 -5.449,-0.92"
     id="path8755"
     inkscape:connector-curvature="0" /></clipPath><clipPath
   clipPathUnits="userSpaceOnUse"
   id="clipPath8905"><path
     d="m 414.535,1094.765 c 0,-2.615 2.12,-4.735 4.735,-4.735 v 0 c 2.615,0 4.735,2.12 4.735,4.735 v 0 c 0,2.615 -2.12,4.735 -4.735,4.735 v 0 c -2.615,0 -4.735,-2.12 -4.735,-4.735"
     id="path8903"
     inkscape:connector-curvature="0" /></clipPath><radialGradient
   fx="0"
   fy="0"
   cx="0"
   cy="0"
   r="1"
   gradientUnits="userSpaceOnUse"
   gradientTransform="matrix(4.7351074,0,0,-4.7351074,419.27002,1094.7646)"
   spreadMethod="pad"
   id="radialGradient8925"><stop
     style="stop-opacity:1;stop-color:#ffffff"
     offset="0"
     id="stop8911" /><stop
     style="stop-opacity:1;stop-color:#ffffff"
     offset="0"
     id="stop8913" /><stop
     style="stop-opacity:1;stop-color:#ffffff"
     offset="0"
     id="stop8915" /><stop
     style="stop-opacity:1;stop-color:#ffffff"
     offset="0.08783927"
     id="stop8917" /><stop
     style="stop-opacity:1;stop-color:#adaeb0"
     offset="0.522472"
     id="stop8919" /><stop
     style="stop-opacity:1;stop-color:#adaeb0"
     offset="0.63951989"
     id="stop8921" /><stop
     style="stop-opacity:1;stop-color:#465053"
     offset="1"
     id="stop8923" /></radialGradient><clipPath
   clipPathUnits="userSpaceOnUse"
   id="clipPath8935"><path
     d="M 0,1337 H 2071.01 V 0 H 0 Z"
     id="path8933"
     inkscape:connector-curvature="0" /></clipPath><clipPath
   clipPathUnits="userSpaceOnUse"
   id="clipPath8943"><path
     d="M 536.549,982.39 H 654.481 V 837.728 H 536.549 Z"
     id="path8941"
     inkscape:connector-curvature="0" /></clipPath><clipPath
   id="clipPath9163"
   clipPathUnits="userSpaceOnUse"><path
     inkscape:connector-curvature="0"
     id="path9161"
     d="M 0,0 H 500 V 500 H 0 Z" /></clipPath><radialGradient
   id="radialGradient9173"
   spreadMethod="pad"
   gradientTransform="matrix(250,0,0,-250,250,250)"
   gradientUnits="userSpaceOnUse"
   r="1"
   cy="0"
   cx="0"
   fy="0"
   fx="0"><stop
     id="stop9169"
     offset="0"
     style="stop-opacity:1;stop-color:#00ab95" /><stop
     id="stop9171"
     offset="1"
     style="stop-opacity:1;stop-color:#008995" /></radialGradient><clipPath
   id="clipPath9183"
   clipPathUnits="userSpaceOnUse"><path
     inkscape:connector-curvature="0"
     id="path9181"
     d="M 0,500 H 500 V 0 H 0 Z" /></clipPath><clipPath
   id="clipPath9191"
   clipPathUnits="userSpaceOnUse"><path
     inkscape:connector-curvature="0"
     id="path9189"
     d="M 182.9,469.134 H 317.1 V 456.102 H 182.9 Z" /></clipPath><clipPath
   id="clipPath9207"
   clipPathUnits="userSpaceOnUse"><path
     inkscape:connector-curvature="0"
     id="path9205"
     d="m 221.668,455.48 h 56.651 v -12.96 h -56.651 z" /></clipPath><clipPath
   id="clipPath9255"
   clipPathUnits="userSpaceOnUse"><path
     inkscape:connector-curvature="0"
     id="path9253"
     d="M 87.7697,197.814 H 412.23 V 155.035 H 87.7697 Z" /></clipPath><clipPath
   id="clipPath9595"
   clipPathUnits="userSpaceOnUse"><path
     inkscape:connector-curvature="0"
     id="path9593"
     d="m 246.841,385.563 h 4.291 v -4.291 h -4.291 z" /></clipPath><clipPath
   id="clipPath9621"
   clipPathUnits="userSpaceOnUse"><path
     inkscape:connector-curvature="0"
     id="path9619"
     d="M 0,500 H 500 V 0 H 0 Z" /></clipPath><clipPath
   id="clipPath9635"
   clipPathUnits="userSpaceOnUse"><path
     inkscape:connector-curvature="0"
     id="path9633"
     d="M 0,500 H 500 V 0 H 0 Z" /></clipPath><clipPath
   id="clipPath9649"
   clipPathUnits="userSpaceOnUse"><path
     inkscape:connector-curvature="0"
     id="path9647"
     d="M 0,500 H 500 V 0 H 0 Z" /></clipPath><clipPath
   id="clipPath9663"
   clipPathUnits="userSpaceOnUse"><path
     inkscape:connector-curvature="0"
     id="path9661"
     d="M 0,500 H 500 V 0 H 0 Z" /></clipPath><clipPath
   id="clipPath9677"
   clipPathUnits="userSpaceOnUse"><path
     inkscape:connector-curvature="0"
     id="path9675"
     d="M 0,500 H 500 V 0 H 0 Z" /></clipPath><clipPath
   id="clipPath9691"
   clipPathUnits="userSpaceOnUse"><path
     inkscape:connector-curvature="0"
     id="path9689"
     d="M 0,500 H 500 V 0 H 0 Z" /></clipPath><clipPath
   id="clipPath9705"
   clipPathUnits="userSpaceOnUse"><path
     inkscape:connector-curvature="0"
     id="path9703"
     d="M 0,500 H 500 V 0 H 0 Z" /></clipPath><clipPath
   id="clipPath9719"
   clipPathUnits="userSpaceOnUse"><path
     inkscape:connector-curvature="0"
     id="path9717"
     d="M 0,500 H 500 V 0 H 0 Z" /></clipPath><clipPath
   id="clipPath9739"
   clipPathUnits="userSpaceOnUse"><path
     inkscape:connector-curvature="0"
     id="path9737"
     d="M 120.234,376.016 H 369.137 V 208.921 H 120.234 Z" /></clipPath><clipPath
   id="clipPath9755"
   clipPathUnits="userSpaceOnUse"><path
     inkscape:connector-curvature="0"
     id="path9753"
     d="M 0,500 H 500 V 0 H 0 Z" /></clipPath><clipPath
   id="clipPath602"
   clipPathUnits="userSpaceOnUse"><path
     inkscape:connector-curvature="0"
     id="path600"
     d="m 1176.333,1110.805 c -0.726,-0.172 -1.412,-0.479 -2.001,-1.003 v 0 c -1.239,-1.099 -1.073,-2.579 -1.073,-4.089 v 0 -35.281 c 0,-1.926 -0.031,-3.561 1.426,-5.015 v 0 c 0.541,-0.539 1.133,-0.908 1.781,-1.135 v 0 c 0.555,-0.193 1.151,-0.282 1.793,-0.282 v 0 1.916 43.79 1.294 c -0.65,0 -1.303,-0.048 -1.926,-0.195" /></clipPath><clipPath
   id="clipPath984"
   clipPathUnits="userSpaceOnUse"><path
     inkscape:connector-curvature="0"
     id="path982"
     d="m 1778.751,995.373 v -139.487 -1.917 c 0.641,0 1.238,0.09 1.794,0.283 v 0 c 0.648,0.227 1.24,0.596 1.781,1.135 v 0 c 1.457,1.454 1.425,3.089 1.425,5.015 v 0 130.978 c 0,1.51 0.164,2.99 -1.072,4.088 v 0 c -0.59,0.525 -1.275,0.832 -2.004,1.004 v 0 c -0.621,0.148 -1.273,0.195 -1.924,0.195 v 0 z" /></clipPath><clipPath
   id="clipPath1366"
   clipPathUnits="userSpaceOnUse"><path
     inkscape:connector-curvature="0"
     id="path1364"
     d="m 1176.841,1024.305 c -0.726,-0.172 -1.412,-0.479 -2.002,-1.003 v 0 c -1.238,-1.099 -1.072,-2.579 -1.072,-4.089 v 0 -76.281 c 0,-1.926 -0.031,-3.562 1.426,-5.014 v 0 c 0.541,-0.539 1.133,-0.909 1.781,-1.136 v 0 c 0.554,-0.193 1.15,-0.282 1.793,-0.282 v 0 1.916 84.79 1.294 c -0.65,0 -1.302,-0.048 -1.926,-0.195" /></clipPath><clipPath
   id="clipPath1748"
   clipPathUnits="userSpaceOnUse"><path
     inkscape:connector-curvature="0"
     id="path1746"
     d="m 1176.841,913.306 c -0.726,-0.172 -1.412,-0.48 -2.002,-1.004 v 0 c -1.238,-1.099 -1.072,-2.579 -1.072,-4.09 v 0 -76.28 c 0,-1.926 -0.031,-3.561 1.426,-5.015 v 0 c 0.541,-0.539 1.133,-0.908 1.781,-1.135 v 0 c 0.554,-0.193 1.15,-0.282 1.793,-0.282 v 0 1.916 84.79 1.294 c -0.65,0 -1.302,-0.048 -1.926,-0.194" /></clipPath><clipPath
   id="clipPath2130"
   clipPathUnits="userSpaceOnUse"><path
     inkscape:connector-curvature="0"
     id="path2128"
     d="M 0,1337 H 2071.01 V 0 H 0 Z" /></clipPath><clipPath
   id="clipPath2146"
   clipPathUnits="userSpaceOnUse"><path
     inkscape:connector-curvature="0"
     id="path2144"
     d="m 1687.773,1276 h -419.514 c -1.171,0 -2.336,-0.022 -3.496,-0.067 v 0 c -16.191,-0.618 -31.287,-5.514 -44.189,-13.589 v 0 c -5.192,-3.249 -10.027,-7.013 -14.435,-11.221 v 0 c -0.507,-0.482 -1.007,-0.971 -1.503,-1.466 v 0 c -0.891,-0.892 -1.764,-1.802 -2.619,-2.73 v 0 c -1.98,-2.152 -3.86,-4.403 -5.625,-6.742 v 0 c -3.566,-4.723 -6.678,-9.808 -9.27,-15.19 v 0 c -4.892,-10.162 -7.933,-21.384 -8.681,-33.227 v 0 c -0.121,-1.907 -0.182,-3.83 -0.182,-5.768 v 0 -9.656 V 151 c 0,-15.915 4.129,-30.863 11.377,-43.834 v 0 c 3.52,-6.298 7.773,-12.13 12.647,-17.38 v 0 c 0.763,-0.823 1.543,-1.632 2.335,-2.426 v 0 c 0.495,-0.494 0.995,-0.983 1.501,-1.467 v 0 c 4.408,-4.207 9.244,-7.972 14.433,-11.223 v 0 c 12.899,-8.079 27.995,-12.979 44.186,-13.602 v 0 c 1.168,-0.045 2.341,-0.068 3.521,-0.068 v 0 h 419.495 1.506 c 16.524,0 32.011,4.454 45.32,12.228 v 0 c 5.89,3.439 11.353,7.529 16.293,12.169 v 0 c 0.691,0.65 1.373,1.31 2.043,1.981 v 0 c 0.794,0.794 1.574,1.603 2.338,2.427 v 0 c 4.869,5.25 9.122,11.082 12.638,17.381 v 0 c 7.24,12.967 11.368,27.908 11.368,43.814 v 0 1025.277 9.723 c 0,1.915 -0.062,3.817 -0.179,5.703 v 0 c -0.74,11.844 -3.771,23.067 -8.656,33.231 v 0 c -2.587,5.385 -5.695,10.473 -9.257,15.198 v 0 c -1.766,2.34 -3.643,4.591 -5.622,6.746 v 0 c -0.853,0.929 -1.726,1.84 -2.617,2.731 v 0 c -0.669,0.672 -1.352,1.333 -2.043,1.982 v 0 c -4.937,4.642 -10.4,8.732 -16.289,12.173 v 0 c -13.315,7.778 -28.806,12.236 -45.337,12.236 v 0 z" /></clipPath><clipPath
   id="clipPath3662"
   clipPathUnits="userSpaceOnUse"><path
     inkscape:connector-curvature="0"
     id="path3660"
     d="M 0,1337 H 2071.01 V 0 H 0 Z" /></clipPath><clipPath
   id="clipPath3682"
   clipPathUnits="userSpaceOnUse"><path
     inkscape:connector-curvature="0"
     id="path3680"
     d="m 1755.324,1208.436 c 1.921,-8.521 2.935,-17.385 2.935,-26.487 v 0 -1031 c 0,-0.862 -0.01,-1.722 -0.027,-2.579 v 0 c -0.491,-23.197 -7.568,-44.771 -19.43,-62.938 v 0 c 2.305,1.859 4.502,3.843 6.584,5.944 v 0 c 2.209,2.23 4.285,4.591 6.219,7.071 v 0 c 10.434,13.385 16.654,30.214 16.654,48.502 v 0 13.011 1026.989 c 0,2.946 -0.162,5.854 -0.476,8.717 v 0 c -1.666,15.156 -7.622,29.018 -16.625,40.352 v 0 c -2.068,2.603 -4.298,5.073 -6.672,7.395 v 0 c -2.236,2.187 -4.601,4.243 -7.085,6.154 v 0 c 8.384,-12.268 14.552,-26.17 17.923,-41.131" /></clipPath><clipPath
   id="clipPath3964"
   clipPathUnits="userSpaceOnUse"><path
     inkscape:connector-curvature="0"
     id="path3962"
     d="m 1212.53,1243.413 c -2.372,-2.322 -4.6,-4.792 -6.67,-7.395 v 0 c -9.003,-11.334 -14.96,-25.196 -16.626,-40.352 v 0 c -0.314,-2.863 -0.474,-5.771 -0.474,-8.717 v 0 V 159.96 146.949 c 0,-18.288 6.218,-35.117 16.653,-48.502 v 0 c 1.932,-2.48 4.011,-4.841 6.219,-7.071 v 0 c 2.08,-2.101 4.28,-4.085 6.582,-5.944 v 0 c -11.861,18.167 -18.939,39.741 -19.428,62.938 v 0 c -0.019,0.857 -0.026,1.717 -0.026,2.579 v 0 1031 c 0,9.102 1.013,17.966 2.933,26.487 v 0 c 3.373,14.961 9.539,28.863 17.924,41.131 v 0 c -2.483,-1.911 -4.85,-3.967 -7.087,-6.154" /></clipPath><clipPath
   id="clipPath4246"
   clipPathUnits="userSpaceOnUse"><path
     inkscape:connector-curvature="0"
     id="path4244"
     d="m 1633.759,1240 c -2.999,0 -7.499,-2.63 -7.499,-6.5 v 0 c 0,-2.89 0.126,-5.813 -0.157,-8.694 v 0 C 1624.614,1209.673 1612.685,1197 1597.259,1197 v 0 h -131.086 -33.914 -61.962 -9.038 c -16.5,0 -31,14.5 -31,31 v 0 5.5 c 0,3.87 -2.5,6.5 -6.499,6.5 v 0 h -53.065 c -15.602,-0.017 -29.836,-6.286 -40.106,-16.469 v 0 c -10.07,-9.984 -16.33,-23.729 -16.33,-39.031 v 0 V 1072.067 964.305 623.052 379.275 157.388 151.5 c 0,-15.464 6.393,-29.589 16.653,-39.848 v 0 c 9.094,-9.094 21.226,-15.151 34.636,-16.409 v 0 c 1.717,-0.161 3.456,-0.243 5.212,-0.243 v 0 h 112.009 84.939 158.688 60.363 c 3.032,0 6.001,0.246 8.893,0.719 v 0 c 11.707,1.911 22.13,7.536 30.139,15.611 v 0 c 10.195,10.284 16.469,24.544 16.469,40.17 v 0 5.699 221.97 243.864 341.38 107.804 112.283 c 0,15.464 -6.143,29.339 -16.153,39.348 v 0 c -9.028,9.028 -21.201,14.91 -34.848,15.977 v 0 c -1.482,0.116 -2.984,0.175 -4.5,0.175 v 0 z" /></clipPath><clipPath
   id="clipPath5134"
   clipPathUnits="userSpaceOnUse"><path
     inkscape:connector-curvature="0"
     id="path5132"
     d="M 0,1337 H 2071.01 V 0 H 0 Z" /></clipPath><clipPath
   id="clipPath5230"
   clipPathUnits="userSpaceOnUse"><path
     inkscape:connector-curvature="0"
     id="path5228"
     d="m 1603.91,240.377 h 72.87 v -72.875 h -72.87 z" /></clipPath><clipPath
   id="clipPath5246"
   clipPathUnits="userSpaceOnUse"><path
     inkscape:connector-curvature="0"
     id="path5244"
     d="m 1625,215 h 30 v -22 h -30 z" /></clipPath><clipPath
   id="clipPath5266"
   clipPathUnits="userSpaceOnUse"><path
     inkscape:connector-curvature="0"
     id="path5264"
     d="m 1277.91,240.377 h 72.87 v -72.875 h -72.87 z" /></clipPath><clipPath
   id="clipPath5282"
   clipPathUnits="userSpaceOnUse"><path
     inkscape:connector-curvature="0"
     id="path5280"
     d="m 1306.34,217.004 h 16 v -5.753 h -16 z" /></clipPath><clipPath
   id="clipPath5298"
   clipPathUnits="userSpaceOnUse"><path
     inkscape:connector-curvature="0"
     id="path5296"
     d="m 1305.55,223.439 h 17.59 v -4.618 h -17.59 z" /></clipPath><clipPath
   id="clipPath5314"
   clipPathUnits="userSpaceOnUse"><path
     inkscape:connector-curvature="0"
     id="path5312"
     d="m 1309.83,209.433 h 9.02 v -24.994 h -9.02 z" /></clipPath><clipPath
   id="clipPath5330"
   clipPathUnits="userSpaceOnUse"><path
     inkscape:connector-curvature="0"
     id="path5328"
     d="m 1392.26,124 h 172 v -9 h -172 z" /></clipPath><clipPath
   id="clipPath5346"
   clipPathUnits="userSpaceOnUse"><path
     inkscape:connector-curvature="0"
     id="path5344"
     d="m 1770,1160 h 11 v -8 h -11 z" /></clipPath><clipPath
   id="clipPath5360"
   clipPathUnits="userSpaceOnUse"><path
     inkscape:connector-curvature="0"
     id="path5358"
     d="m 1770,188 h 11 v -8 h -11 z" /></clipPath><clipPath
   id="clipPath5374"
   clipPathUnits="userSpaceOnUse"><path
     inkscape:connector-curvature="0"
     id="path5372"
     d="m 1178,1160 h 9 v -8 h -9 z" /></clipPath><clipPath
   id="clipPath5388"
   clipPathUnits="userSpaceOnUse"><path
     inkscape:connector-curvature="0"
     id="path5386"
     d="m 1178,188 h 9 v -8 h -9 z" /></clipPath><clipPath
   id="clipPath5410"
   clipPathUnits="userSpaceOnUse"><path
     inkscape:connector-curvature="0"
     id="path5408"
     d="m 1543.531,1226.237 c -1.211,-0.018 -2.414,-0.481 -3.319,-1.389 v 0 c -0.929,-0.933 -1.388,-2.181 -1.377,-3.425 v 0 c 0.012,-1.213 0.471,-2.423 1.377,-3.332 v 0 c 0.905,-0.909 2.108,-1.372 3.319,-1.39 v 0 c 1.253,-0.02 2.513,0.439 3.455,1.378 v 0 c 0.914,0.911 1.375,2.125 1.387,3.343 v 0 c 0.011,1.25 -0.451,2.503 -1.387,3.437 v 0 c -0.922,0.92 -2.15,1.379 -3.378,1.379 v 0 c -0.026,0 -0.051,0 -0.077,-10e-4" /></clipPath><clipPath
   id="clipPath5520"
   clipPathUnits="userSpaceOnUse"><path
     inkscape:connector-curvature="0"
     id="path5518"
     d="m 892.751,1109.706 v -43.79 -1.916 c 0.643,0 1.239,0.089 1.793,0.282 v 0 c 0.649,0.227 1.24,0.596 1.781,1.135 v 0 c 1.457,1.454 1.427,3.089 1.427,5.015 v 0 35.281 c 0,1.51 0.165,2.99 -1.073,4.089 v 0 c -0.59,0.524 -1.275,0.831 -2.002,1.003 v 0 c -0.622,0.147 -1.275,0.195 -1.926,0.195 v 0 z" /></clipPath><clipPath
   id="clipPath5646"
   clipPathUnits="userSpaceOnUse"><path
     inkscape:connector-curvature="0"
     id="path5644"
     d="m 290.335,996.472 c -0.728,-0.172 -1.413,-0.479 -2.004,-1.004 v 0 c -1.236,-1.098 -1.072,-2.578 -1.072,-4.088 v 0 -130.978 c 0,-1.926 -0.031,-3.561 1.426,-5.015 v 0 c 0.541,-0.539 1.133,-0.908 1.781,-1.135 v 0 c 0.555,-0.193 1.153,-0.283 1.794,-0.283 v 0 1.917 139.487 1.294 c -0.651,0 -1.304,-0.047 -1.925,-0.195" /></clipPath><clipPath
   id="clipPath5784"
   clipPathUnits="userSpaceOnUse"><path
     inkscape:connector-curvature="0"
     id="path5782"
     d="m 892.244,1023.206 v -84.79 -1.916 c 0.642,0 1.238,0.089 1.793,0.282 v 0 c 0.648,0.227 1.24,0.597 1.781,1.136 v 0 c 1.457,1.452 1.425,3.088 1.425,5.014 v 0 76.281 c 0,1.51 0.167,2.99 -1.072,4.089 v 0 c -0.589,0.524 -1.275,0.831 -2.001,1.003 v 0 c -0.624,0.147 -1.276,0.195 -1.926,0.195 v 0 z" /></clipPath><clipPath
   id="clipPath5910"
   clipPathUnits="userSpaceOnUse"><path
     inkscape:connector-curvature="0"
     id="path5908"
     d="m 892.244,912.206 v -84.79 -1.916 c 0.642,0 1.238,0.089 1.793,0.282 v 0 c 0.648,0.227 1.24,0.596 1.781,1.135 v 0 c 1.457,1.454 1.425,3.089 1.425,5.015 v 0 76.28 c 0,1.511 0.167,2.991 -1.072,4.09 v 0 c -0.589,0.524 -1.275,0.832 -2.001,1.004 v 0 c -0.624,0.146 -1.276,0.194 -1.926,0.194 v 0 z" /></clipPath><clipPath
   id="clipPath6036"
   clipPathUnits="userSpaceOnUse"><path
     inkscape:connector-curvature="0"
     id="path6034"
     d="m 383.238,1276 h -1.487 c -16.531,0 -32.023,-4.458 -45.337,-12.236 v 0 c -5.889,-3.441 -11.352,-7.531 -16.289,-12.173 v 0 c -0.692,-0.649 -1.374,-1.31 -2.043,-1.982 v 0 c -0.891,-0.891 -1.764,-1.802 -2.618,-2.731 v 0 c -1.978,-2.155 -3.855,-4.406 -5.621,-6.746 v 0 c -3.562,-4.725 -6.67,-9.813 -9.257,-15.198 v 0 c -4.886,-10.164 -7.917,-21.387 -8.657,-33.231 v 0 c -0.117,-1.886 -0.178,-3.788 -0.178,-5.703 v 0 -9.723 V 151 c 0,-15.906 4.128,-30.847 11.367,-43.814 v 0 c 3.516,-6.299 7.77,-12.131 12.639,-17.381 v 0 c 0.764,-0.824 1.543,-1.633 2.338,-2.427 v 0 c 0.67,-0.671 1.352,-1.331 2.043,-1.981 v 0 c 4.939,-4.64 10.402,-8.73 16.293,-12.169 v 0 C 349.74,65.454 365.226,61 381.751,61 v 0 h 1.506 419.494 c 1.18,0 2.354,0.023 3.522,0.068 v 0 c 16.191,0.623 31.287,5.523 44.186,13.602 v 0 c 5.189,3.251 10.025,7.016 14.433,11.223 v 0 c 0.506,0.484 1.006,0.973 1.5,1.467 v 0 c 0.793,0.794 1.572,1.603 2.336,2.426 v 0 c 4.873,5.25 9.127,11.082 12.647,17.38 v 0 c 7.247,12.971 11.376,27.919 11.376,43.834 v 0 1025.344 9.656 c 0,1.938 -0.06,3.861 -0.181,5.768 v 0 c -0.748,11.843 -3.789,23.065 -8.682,33.227 v 0 c -2.592,5.382 -5.703,10.467 -9.27,15.19 v 0 c -1.765,2.339 -3.644,4.59 -5.625,6.742 v 0 c -0.855,0.928 -1.728,1.838 -2.619,2.73 v 0 c -0.496,0.495 -0.995,0.984 -1.502,1.466 v 0 c -4.408,4.208 -9.244,7.972 -14.435,11.221 v 0 c -12.902,8.075 -27.998,12.971 -44.189,13.589 v 0 c -1.16,0.045 -2.325,0.067 -3.497,0.067 v 0 z" /></clipPath><clipPath
   id="clipPath7014"
   clipPathUnits="userSpaceOnUse"><path
     inkscape:connector-curvature="0"
     id="path7012"
     d="m 352.004,1175.5 v -108.095 c 0,-24.2 19.566,-44 43.482,-44 v 0 c 23.915,0 43.481,19.8 43.481,44 v 0 108.095 c 0,24.2 -19.566,44 -43.481,44 v 0 c -23.916,0 -43.482,-19.8 -43.482,-44" /></clipPath><clipPath
   id="clipPath7050"
   clipPathUnits="userSpaceOnUse"><path
     inkscape:connector-curvature="0"
     id="path7048"
     d="M 0,1337 H 2071.01 V 0 H 0 Z" /></clipPath><clipPath
   id="clipPath7066"
   clipPathUnits="userSpaceOnUse"><path
     inkscape:connector-curvature="0"
     id="path7064"
     d="m 383.908,1178.01 c 0,-6.431 5.213,-11.644 11.644,-11.644 v 0 c 6.432,0 11.646,5.213 11.646,11.644 v 0 c 0,6.432 -5.214,11.645 -11.646,11.645 v 0 c -6.431,0 -11.644,-5.213 -11.644,-11.645" /></clipPath><radialGradient
   id="radialGradient7076"
   spreadMethod="pad"
   gradientTransform="matrix(11.644774,0,0,-11.644774,395.55273,1178.0103)"
   gradientUnits="userSpaceOnUse"
   r="1"
   cy="0"
   cx="0"
   fy="0"
   fx="0"><stop
     id="stop7072"
     offset="0"
     style="stop-opacity:1;stop-color:#ffffff" /><stop
     id="stop7074"
     offset="1"
     style="stop-opacity:1;stop-color:#0c1526" /></radialGradient><clipPath
   id="clipPath7086"
   clipPathUnits="userSpaceOnUse"><path
     inkscape:connector-curvature="0"
     id="path7084"
     d="m 392.46,1187.875 c -0.398,-0.126 -0.79,-0.276 -1.171,-0.447 v 0 c -1.123,-0.509 -2.157,-1.215 -3.041,-2.097 v 0 c -0.848,-0.846 -1.549,-1.837 -2.063,-2.934 v 0 c -0.235,-0.501 -0.432,-1.024 -0.584,-1.564 v 0 c -0.262,-0.927 -0.387,-1.876 -0.384,-2.821 v 0 c 0.005,-1.021 0.158,-2.035 0.454,-3.008 v 0 c 0.488,-1.608 1.361,-3.101 2.577,-4.316 v 0 c 0.884,-0.881 1.918,-1.587 3.041,-2.095 v 0 c 0.381,-0.173 0.773,-0.322 1.171,-0.447 v 0 c 1.146,-0.359 2.356,-0.523 3.57,-0.467 v 0 c 0.76,0.035 1.499,0.151 2.209,0.342 v 0 c 0.777,0.208 1.519,0.505 2.212,0.878 v 0 c 0.888,0.479 1.698,1.083 2.406,1.789 v 0 c 1.216,1.215 2.09,2.708 2.578,4.316 v 0 c 0.295,0.973 0.45,1.987 0.453,3.008 v 0 c 0.004,0.945 -0.121,1.894 -0.384,2.821 v 0 c -0.152,0.54 -0.348,1.063 -0.583,1.564 v 0 c -0.515,1.097 -1.216,2.088 -2.064,2.934 v 0 c -0.708,0.707 -1.518,1.312 -2.406,1.79 v 0 c -0.693,0.373 -1.435,0.67 -2.212,0.879 v 0 c -0.71,0.19 -1.449,0.307 -2.209,0.341 v 0 c -0.158,0.01 -0.315,0.011 -0.472,0.011 v 0 c -1.055,0 -2.1,-0.164 -3.098,-0.477" /></clipPath><clipPath
   id="clipPath7746"
   clipPathUnits="userSpaceOnUse"><path
     inkscape:connector-curvature="0"
     id="path7744"
     d="M 0,1337 H 2071.01 V 0 H 0 Z" /></clipPath><clipPath
   id="clipPath7758"
   clipPathUnits="userSpaceOnUse"><path
     inkscape:connector-curvature="0"
     id="path7756"
     d="m 383.908,1064.011 c 0,-6.433 5.213,-11.646 11.644,-11.646 v 0 c 6.432,0 11.646,5.213 11.646,11.646 v 0 c 0,6.431 -5.214,11.644 -11.646,11.644 v 0 c -6.431,0 -11.644,-5.213 -11.644,-11.644" /></clipPath><radialGradient
   id="radialGradient7768"
   spreadMethod="pad"
   gradientTransform="matrix(11.644774,0,0,-11.644774,395.55273,1064.0103)"
   gradientUnits="userSpaceOnUse"
   r="1"
   cy="0"
   cx="0"
   fy="0"
   fx="0"><stop
     id="stop7764"
     offset="0"
     style="stop-opacity:1;stop-color:#ffffff" /><stop
     id="stop7766"
     offset="1"
     style="stop-opacity:1;stop-color:#0c1526" /></radialGradient><clipPath
   id="clipPath7778"
   clipPathUnits="userSpaceOnUse"><path
     inkscape:connector-curvature="0"
     id="path7776"
     d="m 392.46,1073.875 c -0.398,-0.126 -0.79,-0.276 -1.171,-0.448 v 0 c -1.123,-0.507 -2.157,-1.214 -3.041,-2.096 v 0 c -0.848,-0.845 -1.549,-1.838 -2.063,-2.935 v 0 c -0.235,-0.5 -0.432,-1.022 -0.584,-1.563 v 0 c -0.262,-0.926 -0.387,-1.877 -0.384,-2.822 v 0 c 0.005,-1.02 0.158,-2.034 0.454,-3.007 v 0 c 0.488,-1.609 1.361,-3.102 2.577,-4.315 v 0 c 0.884,-0.881 1.918,-1.588 3.041,-2.096 v 0 c 0.381,-0.172 0.773,-0.321 1.171,-0.447 v 0 c 1.146,-0.359 2.356,-0.523 3.57,-0.467 v 0 c 0.76,0.035 1.499,0.152 2.209,0.342 v 0 c 0.777,0.208 1.519,0.505 2.212,0.878 v 0 c 0.888,0.479 1.698,1.084 2.406,1.79 v 0 c 1.216,1.213 2.09,2.706 2.578,4.315 v 0 c 0.295,0.973 0.45,1.987 0.453,3.007 v 0 c 0.004,0.945 -0.121,1.896 -0.384,2.822 v 0 c -0.152,0.541 -0.348,1.063 -0.583,1.563 v 0 c -0.515,1.097 -1.216,2.09 -2.064,2.935 v 0 c -0.708,0.707 -1.518,1.311 -2.406,1.79 v 0 c -0.693,0.374 -1.435,0.671 -2.212,0.879 v 0 c -0.71,0.19 -1.449,0.307 -2.209,0.342 v 0 c -0.156,0.01 -0.311,0.01 -0.466,0.01 v 0 c -1.057,0 -2.105,-0.164 -3.104,-0.477" /></clipPath><clipPath
   id="clipPath8438"
   clipPathUnits="userSpaceOnUse"><path
     inkscape:connector-curvature="0"
     id="path8436"
     d="m 377.158,1120.764 c 0,-10.16 8.235,-18.394 18.394,-18.394 v 0 c 10.16,0 18.396,8.234 18.396,18.394 v 0 c 0,10.159 -8.236,18.394 -18.396,18.394 v 0 c -10.159,0 -18.394,-8.235 -18.394,-18.394" /></clipPath><clipPath
   id="clipPath8474"
   clipPathUnits="userSpaceOnUse"><path
     inkscape:connector-curvature="0"
     id="path8472"
     d="m 390.104,1136.343 c -2.367,-0.828 -4.487,-2.179 -6.222,-3.916 v 0 c -1.93,-1.931 -3.384,-4.338 -4.169,-7.03 v 0 c -0.43,-1.47 -0.66,-3.025 -0.66,-4.633 v 0 c 0,-1.419 0.178,-2.794 0.515,-4.107 v 0 c 0.744,-2.905 2.259,-5.501 4.314,-7.556 v 0 c 1.735,-1.737 3.855,-3.089 6.222,-3.916 v 0 c 1.706,-0.597 3.539,-0.921 5.449,-0.921 v 0 c 1.757,0 3.451,0.274 5.041,0.784 v 0 c 2.53,0.811 4.796,2.217 6.63,4.053 v 0 c 2.055,2.055 3.569,4.651 4.314,7.556 v 0 c 0.336,1.313 0.514,2.688 0.514,4.107 v 0 c 0,1.608 -0.23,3.163 -0.659,4.633 v 0 c -0.786,2.692 -2.239,5.099 -4.169,7.03 v 0 c -1.834,1.836 -4.1,3.242 -6.63,4.052 v 0 c -1.59,0.51 -3.284,0.784 -5.041,0.784 v 0 c -1.91,0 -3.743,-0.324 -5.449,-0.92" /></clipPath><clipPath
   id="clipPath8622"
   clipPathUnits="userSpaceOnUse"><path
     inkscape:connector-curvature="0"
     id="path8620"
     d="m 414.535,1094.765 c 0,-2.615 2.12,-4.735 4.735,-4.735 v 0 c 2.615,0 4.735,2.12 4.735,4.735 v 0 c 0,2.615 -2.12,4.735 -4.735,4.735 v 0 c -2.615,0 -4.735,-2.12 -4.735,-4.735" /></clipPath><radialGradient
   id="radialGradient8642"
   spreadMethod="pad"
   gradientTransform="matrix(4.7351074,0,0,-4.7351074,419.27002,1094.7646)"
   gradientUnits="userSpaceOnUse"
   r="1"
   cy="0"
   cx="0"
   fy="0"
   fx="0"><stop
     id="stop8628"
     offset="0"
     style="stop-opacity:1;stop-color:#ffffff" /><stop
     id="stop8630"
     offset="0"
     style="stop-opacity:1;stop-color:#ffffff" /><stop
     id="stop8632"
     offset="0"
     style="stop-opacity:1;stop-color:#ffffff" /><stop
     id="stop8634"
     offset="0.08783927"
     style="stop-opacity:1;stop-color:#ffffff" /><stop
     id="stop8636"
     offset="0.522472"
     style="stop-opacity:1;stop-color:#adaeb0" /><stop
     id="stop8638"
     offset="0.63951989"
     style="stop-opacity:1;stop-color:#adaeb0" /><stop
     id="stop8640"
     offset="1"
     style="stop-opacity:1;stop-color:#465053" /></radialGradient><clipPath
   id="clipPath8652"
   clipPathUnits="userSpaceOnUse"><path
     inkscape:connector-curvature="0"
     id="path8650"
     d="M 0,1337 H 2071.01 V 0 H 0 Z" /></clipPath><clipPath
   id="clipPath8660"
   clipPathUnits="userSpaceOnUse"><path
     inkscape:connector-curvature="0"
     id="path8658"
     d="M 536.549,982.39 H 654.481 V 837.728 H 536.549 Z" /></clipPath><filter
   height="1.24"
   width="1.23"
   x="-0.11"
   id="filter1433-4-95"
   inkscape:label="Drop Shadow"
   style="color-interpolation-filters:sRGB"><feFlood
     id="feFlood1423-9-0"
     result="flood"
     flood-color="rgb(0,0,0)"
     flood-opacity="0.28000000000000003" /><feComposite
     stdDeviation="18.550000000000001"
     id="feComposite1425-2-4"
     result="composite1"
     operator="in"
     in2="SourceGraphic" /><feGaussianBlur
     id="feGaussianBlur1427-0-8"
     result="blur"
     stdDeviation="18.551192052980134"
     in="composite1" /><feOffset
     id="feOffset1429-6-7"
     result="offset"
     dy="6"
     dx="6" /><feComposite
     id="feComposite1431-8-17"
     result="composite2"
     operator="over"
     in2="offset"
     in="SourceGraphic" /></filter><filter
   height="1.24"
   width="1.23"
   x="-0.11"
   id="filter1433-4-95-5"
   inkscape:label="Drop Shadow"
   style="color-interpolation-filters:sRGB"><feFlood
     id="feFlood1423-9-0-6"
     result="flood"
     flood-color="rgb(0,0,0)"
     flood-opacity="0.28000000000000003" /><feComposite
     stdDeviation="18.550000000000001"
     id="feComposite1425-2-4-3"
     result="composite1"
     operator="in"
     in2="SourceGraphic" /><feGaussianBlur
     id="feGaussianBlur1427-0-8-0"
     result="blur"
     stdDeviation="18.551192052980134"
     in="composite1" /><feOffset
     id="feOffset1429-6-7-2"
     result="offset"
     dy="6"
     dx="6" /><feComposite
     id="feComposite1431-8-17-0"
     result="composite2"
     operator="over"
     in2="offset"
     in="SourceGraphic" /></filter><clipPath
   id="clipPath8660-1"
   clipPathUnits="userSpaceOnUse"><path
     inkscape:connector-curvature="0"
     id="path8658-1"
     d="M 536.549,982.39 H 654.481 V 837.728 H 536.549 Z" /></clipPath><clipPath
   id="clipPath43026"
   clipPathUnits="userSpaceOnUse"><path
     inkscape:connector-curvature="0"
     id="path43024"
     d="m 1176.333,1110.805 c -0.726,-0.172 -1.412,-0.479 -2.001,-1.003 v 0 c -1.239,-1.099 -1.073,-2.579 -1.073,-4.089 v 0 -35.281 c 0,-1.926 -0.031,-3.561 1.426,-5.015 v 0 c 0.541,-0.539 1.133,-0.908 1.781,-1.135 v 0 c 0.555,-0.193 1.151,-0.282 1.793,-0.282 v 0 1.916 43.79 1.294 c -0.65,0 -1.303,-0.048 -1.926,-0.195" /></clipPath><clipPath
   id="clipPath43408"
   clipPathUnits="userSpaceOnUse"><path
     inkscape:connector-curvature="0"
     id="path43406"
     d="m 1778.751,995.373 v -139.487 -1.917 c 0.641,0 1.238,0.09 1.794,0.283 v 0 c 0.648,0.227 1.24,0.596 1.781,1.135 v 0 c 1.457,1.454 1.425,3.089 1.425,5.015 v 0 130.978 c 0,1.51 0.164,2.99 -1.072,4.088 v 0 c -0.59,0.525 -1.275,0.832 -2.004,1.004 v 0 c -0.621,0.148 -1.273,0.195 -1.924,0.195 v 0 z" /></clipPath><clipPath
   id="clipPath43790"
   clipPathUnits="userSpaceOnUse"><path
     inkscape:connector-curvature="0"
     id="path43788"
     d="m 1176.841,1024.305 c -0.726,-0.172 -1.412,-0.479 -2.002,-1.003 v 0 c -1.238,-1.099 -1.072,-2.579 -1.072,-4.089 v 0 -76.281 c 0,-1.926 -0.031,-3.562 1.426,-5.014 v 0 c 0.541,-0.539 1.133,-0.909 1.781,-1.136 v 0 c 0.554,-0.193 1.15,-0.282 1.793,-0.282 v 0 1.916 84.79 1.294 c -0.65,0 -1.302,-0.048 -1.926,-0.195" /></clipPath><clipPath
   id="clipPath44172"
   clipPathUnits="userSpaceOnUse"><path
     inkscape:connector-curvature="0"
     id="path44170"
     d="m 1176.841,913.306 c -0.726,-0.172 -1.412,-0.48 -2.002,-1.004 v 0 c -1.238,-1.099 -1.072,-2.579 -1.072,-4.09 v 0 -76.28 c 0,-1.926 -0.031,-3.561 1.426,-5.015 v 0 c 0.541,-0.539 1.133,-0.908 1.781,-1.135 v 0 c 0.554,-0.193 1.15,-0.282 1.793,-0.282 v 0 1.916 84.79 1.294 c -0.65,0 -1.302,-0.048 -1.926,-0.194" /></clipPath><clipPath
   id="clipPath44554"
   clipPathUnits="userSpaceOnUse"><path
     inkscape:connector-curvature="0"
     id="path44552"
     d="M 0,1337 H 2071.01 V 0 H 0 Z" /></clipPath><clipPath
   id="clipPath44570"
   clipPathUnits="userSpaceOnUse"><path
     inkscape:connector-curvature="0"
     id="path44568"
     d="m 1687.773,1276 h -419.514 c -1.171,0 -2.336,-0.022 -3.496,-0.067 v 0 c -16.191,-0.618 -31.287,-5.514 -44.189,-13.589 v 0 c -5.192,-3.249 -10.027,-7.013 -14.435,-11.221 v 0 c -0.507,-0.482 -1.007,-0.971 -1.503,-1.466 v 0 c -0.891,-0.892 -1.764,-1.802 -2.619,-2.73 v 0 c -1.98,-2.152 -3.86,-4.403 -5.625,-6.742 v 0 c -3.566,-4.723 -6.678,-9.808 -9.27,-15.19 v 0 c -4.892,-10.162 -7.933,-21.384 -8.681,-33.227 v 0 c -0.121,-1.907 -0.182,-3.83 -0.182,-5.768 v 0 -9.656 V 151 c 0,-15.915 4.129,-30.863 11.377,-43.834 v 0 c 3.52,-6.298 7.773,-12.13 12.647,-17.38 v 0 c 0.763,-0.823 1.543,-1.632 2.335,-2.426 v 0 c 0.495,-0.494 0.995,-0.983 1.501,-1.467 v 0 c 4.408,-4.207 9.244,-7.972 14.433,-11.223 v 0 c 12.899,-8.079 27.995,-12.979 44.186,-13.602 v 0 c 1.168,-0.045 2.341,-0.068 3.521,-0.068 v 0 h 419.495 1.506 c 16.524,0 32.011,4.454 45.32,12.228 v 0 c 5.89,3.439 11.353,7.529 16.293,12.169 v 0 c 0.691,0.65 1.373,1.31 2.043,1.981 v 0 c 0.794,0.794 1.574,1.603 2.338,2.427 v 0 c 4.869,5.25 9.122,11.082 12.638,17.381 v 0 c 7.24,12.967 11.368,27.908 11.368,43.814 v 0 1025.277 9.723 c 0,1.915 -0.062,3.817 -0.179,5.703 v 0 c -0.74,11.844 -3.771,23.067 -8.656,33.231 v 0 c -2.587,5.385 -5.695,10.473 -9.257,15.198 v 0 c -1.766,2.34 -3.643,4.591 -5.622,6.746 v 0 c -0.853,0.929 -1.726,1.84 -2.617,2.731 v 0 c -0.669,0.672 -1.352,1.333 -2.043,1.982 v 0 c -4.937,4.642 -10.4,8.732 -16.289,12.173 v 0 c -13.315,7.778 -28.806,12.236 -45.337,12.236 v 0 z" /></clipPath><clipPath
   id="clipPath46086"
   clipPathUnits="userSpaceOnUse"><path
     inkscape:connector-curvature="0"
     id="path46084"
     d="M 0,1337 H 2071.01 V 0 H 0 Z" /></clipPath><clipPath
   id="clipPath46106"
   clipPathUnits="userSpaceOnUse"><path
     inkscape:connector-curvature="0"
     id="path46104"
     d="m 1755.324,1208.436 c 1.921,-8.521 2.935,-17.385 2.935,-26.487 v 0 -1031 c 0,-0.862 -0.01,-1.722 -0.027,-2.579 v 0 c -0.491,-23.197 -7.568,-44.771 -19.43,-62.938 v 0 c 2.305,1.859 4.502,3.843 6.584,5.944 v 0 c 2.209,2.23 4.285,4.591 6.219,7.071 v 0 c 10.434,13.385 16.654,30.214 16.654,48.502 v 0 13.011 1026.989 c 0,2.946 -0.162,5.854 -0.476,8.717 v 0 c -1.666,15.156 -7.622,29.018 -16.625,40.352 v 0 c -2.068,2.603 -4.298,5.073 -6.672,7.395 v 0 c -2.236,2.187 -4.601,4.243 -7.085,6.154 v 0 c 8.384,-12.268 14.552,-26.17 17.923,-41.131" /></clipPath><clipPath
   id="clipPath46388"
   clipPathUnits="userSpaceOnUse"><path
     inkscape:connector-curvature="0"
     id="path46386"
     d="m 1212.53,1243.413 c -2.372,-2.322 -4.6,-4.792 -6.67,-7.395 v 0 c -9.003,-11.334 -14.96,-25.196 -16.626,-40.352 v 0 c -0.314,-2.863 -0.474,-5.771 -0.474,-8.717 v 0 V 159.96 146.949 c 0,-18.288 6.218,-35.117 16.653,-48.502 v 0 c 1.932,-2.48 4.011,-4.841 6.219,-7.071 v 0 c 2.08,-2.101 4.28,-4.085 6.582,-5.944 v 0 c -11.861,18.167 -18.939,39.741 -19.428,62.938 v 0 c -0.019,0.857 -0.026,1.717 -0.026,2.579 v 0 1031 c 0,9.102 1.013,17.966 2.933,26.487 v 0 c 3.373,14.961 9.539,28.863 17.924,41.131 v 0 c -2.483,-1.911 -4.85,-3.967 -7.087,-6.154" /></clipPath><clipPath
   id="clipPath46670"
   clipPathUnits="userSpaceOnUse"><path
     inkscape:connector-curvature="0"
     id="path46668"
     d="m 1633.759,1240 c -2.999,0 -7.499,-2.63 -7.499,-6.5 v 0 c 0,-2.89 0.126,-5.813 -0.157,-8.694 v 0 C 1624.614,1209.673 1612.685,1197 1597.259,1197 v 0 h -131.086 -33.914 -61.962 -9.038 c -16.5,0 -31,14.5 -31,31 v 0 5.5 c 0,3.87 -2.5,6.5 -6.499,6.5 v 0 h -53.065 c -15.602,-0.017 -29.836,-6.286 -40.106,-16.469 v 0 c -10.07,-9.984 -16.33,-23.729 -16.33,-39.031 v 0 V 1072.067 964.305 623.052 379.275 157.388 151.5 c 0,-15.464 6.393,-29.589 16.653,-39.848 v 0 c 9.094,-9.094 21.226,-15.151 34.636,-16.409 v 0 c 1.717,-0.161 3.456,-0.243 5.212,-0.243 v 0 h 112.009 84.939 158.688 60.363 c 3.032,0 6.001,0.246 8.893,0.719 v 0 c 11.707,1.911 22.13,7.536 30.139,15.611 v 0 c 10.195,10.284 16.469,24.544 16.469,40.17 v 0 5.699 221.97 243.864 341.38 107.804 112.283 c 0,15.464 -6.143,29.339 -16.153,39.348 v 0 c -9.028,9.028 -21.201,14.91 -34.848,15.977 v 0 c -1.482,0.116 -2.984,0.175 -4.5,0.175 v 0 z" /></clipPath><clipPath
   id="clipPath47558"
   clipPathUnits="userSpaceOnUse"><path
     inkscape:connector-curvature="0"
     id="path47556"
     d="M 0,1337 H 2071.01 V 0 H 0 Z" /></clipPath><clipPath
   id="clipPath47654"
   clipPathUnits="userSpaceOnUse"><path
     inkscape:connector-curvature="0"
     id="path47652"
     d="m 1603.91,240.377 h 72.87 v -72.875 h -72.87 z" /></clipPath><clipPath
   id="clipPath47670"
   clipPathUnits="userSpaceOnUse"><path
     inkscape:connector-curvature="0"
     id="path47668"
     d="m 1625,215 h 30 v -22 h -30 z" /></clipPath><clipPath
   id="clipPath47690"
   clipPathUnits="userSpaceOnUse"><path
     inkscape:connector-curvature="0"
     id="path47688"
     d="m 1277.91,240.377 h 72.87 v -72.875 h -72.87 z" /></clipPath><clipPath
   id="clipPath47706"
   clipPathUnits="userSpaceOnUse"><path
     inkscape:connector-curvature="0"
     id="path47704"
     d="m 1306.34,217.004 h 16 v -5.753 h -16 z" /></clipPath><clipPath
   id="clipPath47722"
   clipPathUnits="userSpaceOnUse"><path
     inkscape:connector-curvature="0"
     id="path47720"
     d="m 1305.55,223.439 h 17.59 v -4.618 h -17.59 z" /></clipPath><clipPath
   id="clipPath47738"
   clipPathUnits="userSpaceOnUse"><path
     inkscape:connector-curvature="0"
     id="path47736"
     d="m 1309.83,209.433 h 9.02 v -24.994 h -9.02 z" /></clipPath><clipPath
   id="clipPath47754"
   clipPathUnits="userSpaceOnUse"><path
     inkscape:connector-curvature="0"
     id="path47752"
     d="m 1392.26,124 h 172 v -9 h -172 z" /></clipPath><clipPath
   id="clipPath47770"
   clipPathUnits="userSpaceOnUse"><path
     inkscape:connector-curvature="0"
     id="path47768"
     d="m 1770,1160 h 11 v -8 h -11 z" /></clipPath><clipPath
   id="clipPath47784"
   clipPathUnits="userSpaceOnUse"><path
     inkscape:connector-curvature="0"
     id="path47782"
     d="m 1770,188 h 11 v -8 h -11 z" /></clipPath><clipPath
   id="clipPath47798"
   clipPathUnits="userSpaceOnUse"><path
     inkscape:connector-curvature="0"
     id="path47796"
     d="m 1178,1160 h 9 v -8 h -9 z" /></clipPath><clipPath
   id="clipPath47812"
   clipPathUnits="userSpaceOnUse"><path
     inkscape:connector-curvature="0"
     id="path47810"
     d="m 1178,188 h 9 v -8 h -9 z" /></clipPath><clipPath
   id="clipPath47834"
   clipPathUnits="userSpaceOnUse"><path
     inkscape:connector-curvature="0"
     id="path47832"
     d="m 1543.531,1226.237 c -1.211,-0.018 -2.414,-0.481 -3.319,-1.389 v 0 c -0.929,-0.933 -1.388,-2.181 -1.377,-3.425 v 0 c 0.012,-1.213 0.471,-2.423 1.377,-3.332 v 0 c 0.905,-0.909 2.108,-1.372 3.319,-1.39 v 0 c 1.253,-0.02 2.513,0.439 3.455,1.378 v 0 c 0.914,0.911 1.375,2.125 1.387,3.343 v 0 c 0.011,1.25 -0.451,2.503 -1.387,3.437 v 0 c -0.922,0.92 -2.15,1.379 -3.378,1.379 v 0 c -0.026,0 -0.051,0 -0.077,-10e-4" /></clipPath><clipPath
   id="clipPath47944"
   clipPathUnits="userSpaceOnUse"><path
     inkscape:connector-curvature="0"
     id="path47942"
     d="m 892.751,1109.706 v -43.79 -1.916 c 0.643,0 1.239,0.089 1.793,0.282 v 0 c 0.649,0.227 1.24,0.596 1.781,1.135 v 0 c 1.457,1.454 1.427,3.089 1.427,5.015 v 0 35.281 c 0,1.51 0.165,2.99 -1.073,4.089 v 0 c -0.59,0.524 -1.275,0.831 -2.002,1.003 v 0 c -0.622,0.147 -1.275,0.195 -1.926,0.195 v 0 z" /></clipPath><clipPath
   id="clipPath48070"
   clipPathUnits="userSpaceOnUse"><path
     inkscape:connector-curvature="0"
     id="path48068"
     d="m 290.335,996.472 c -0.728,-0.172 -1.413,-0.479 -2.004,-1.004 v 0 c -1.236,-1.098 -1.072,-2.578 -1.072,-4.088 v 0 -130.978 c 0,-1.926 -0.031,-3.561 1.426,-5.015 v 0 c 0.541,-0.539 1.133,-0.908 1.781,-1.135 v 0 c 0.555,-0.193 1.153,-0.283 1.794,-0.283 v 0 1.917 139.487 1.294 c -0.651,0 -1.304,-0.047 -1.925,-0.195" /></clipPath><clipPath
   id="clipPath48208"
   clipPathUnits="userSpaceOnUse"><path
     inkscape:connector-curvature="0"
     id="path48206"
     d="m 892.244,1023.206 v -84.79 -1.916 c 0.642,0 1.238,0.089 1.793,0.282 v 0 c 0.648,0.227 1.24,0.597 1.781,1.136 v 0 c 1.457,1.452 1.425,3.088 1.425,5.014 v 0 76.281 c 0,1.51 0.167,2.99 -1.072,4.089 v 0 c -0.589,0.524 -1.275,0.831 -2.001,1.003 v 0 c -0.624,0.147 -1.276,0.195 -1.926,0.195 v 0 z" /></clipPath><clipPath
   id="clipPath48334"
   clipPathUnits="userSpaceOnUse"><path
     inkscape:connector-curvature="0"
     id="path48332"
     d="m 892.244,912.206 v -84.79 -1.916 c 0.642,0 1.238,0.089 1.793,0.282 v 0 c 0.648,0.227 1.24,0.596 1.781,1.135 v 0 c 1.457,1.454 1.425,3.089 1.425,5.015 v 0 76.28 c 0,1.511 0.167,2.991 -1.072,4.09 v 0 c -0.589,0.524 -1.275,0.832 -2.001,1.004 v 0 c -0.624,0.146 -1.276,0.194 -1.926,0.194 v 0 z" /></clipPath><clipPath
   id="clipPath48460"
   clipPathUnits="userSpaceOnUse"><path
     inkscape:connector-curvature="0"
     id="path48458"
     d="m 383.238,1276 h -1.487 c -16.531,0 -32.023,-4.458 -45.337,-12.236 v 0 c -5.889,-3.441 -11.352,-7.531 -16.289,-12.173 v 0 c -0.692,-0.649 -1.374,-1.31 -2.043,-1.982 v 0 c -0.891,-0.891 -1.764,-1.802 -2.618,-2.731 v 0 c -1.978,-2.155 -3.855,-4.406 -5.621,-6.746 v 0 c -3.562,-4.725 -6.67,-9.813 -9.257,-15.198 v 0 c -4.886,-10.164 -7.917,-21.387 -8.657,-33.231 v 0 c -0.117,-1.886 -0.178,-3.788 -0.178,-5.703 v 0 -9.723 V 151 c 0,-15.906 4.128,-30.847 11.367,-43.814 v 0 c 3.516,-6.299 7.77,-12.131 12.639,-17.381 v 0 c 0.764,-0.824 1.543,-1.633 2.338,-2.427 v 0 c 0.67,-0.671 1.352,-1.331 2.043,-1.981 v 0 c 4.939,-4.64 10.402,-8.73 16.293,-12.169 v 0 C 349.74,65.454 365.226,61 381.751,61 v 0 h 1.506 419.494 c 1.18,0 2.354,0.023 3.522,0.068 v 0 c 16.191,0.623 31.287,5.523 44.186,13.602 v 0 c 5.189,3.251 10.025,7.016 14.433,11.223 v 0 c 0.506,0.484 1.006,0.973 1.5,1.467 v 0 c 0.793,0.794 1.572,1.603 2.336,2.426 v 0 c 4.873,5.25 9.127,11.082 12.647,17.38 v 0 c 7.247,12.971 11.376,27.919 11.376,43.834 v 0 1025.344 9.656 c 0,1.938 -0.06,3.861 -0.181,5.768 v 0 c -0.748,11.843 -3.789,23.065 -8.682,33.227 v 0 c -2.592,5.382 -5.703,10.467 -9.27,15.19 v 0 c -1.765,2.339 -3.644,4.59 -5.625,6.742 v 0 c -0.855,0.928 -1.728,1.838 -2.619,2.73 v 0 c -0.496,0.495 -0.995,0.984 -1.502,1.466 v 0 c -4.408,4.208 -9.244,7.972 -14.435,11.221 v 0 c -12.902,8.075 -27.998,12.971 -44.189,13.589 v 0 c -1.16,0.045 -2.325,0.067 -3.497,0.067 v 0 z" /></clipPath><clipPath
   id="clipPath49438"
   clipPathUnits="userSpaceOnUse"><path
     inkscape:connector-curvature="0"
     id="path49436"
     d="m 352.004,1175.5 v -108.095 c 0,-24.2 19.566,-44 43.482,-44 v 0 c 23.915,0 43.481,19.8 43.481,44 v 0 108.095 c 0,24.2 -19.566,44 -43.481,44 v 0 c -23.916,0 -43.482,-19.8 -43.482,-44" /></clipPath><clipPath
   id="clipPath49474"
   clipPathUnits="userSpaceOnUse"><path
     inkscape:connector-curvature="0"
     id="path49472"
     d="M 0,1337 H 2071.01 V 0 H 0 Z" /></clipPath><clipPath
   id="clipPath49490"
   clipPathUnits="userSpaceOnUse"><path
     inkscape:connector-curvature="0"
     id="path49488"
     d="m 383.908,1178.01 c 0,-6.431 5.213,-11.644 11.644,-11.644 v 0 c 6.432,0 11.646,5.213 11.646,11.644 v 0 c 0,6.432 -5.214,11.645 -11.646,11.645 v 0 c -6.431,0 -11.644,-5.213 -11.644,-11.645" /></clipPath><radialGradient
   id="radialGradient49500"
   spreadMethod="pad"
   gradientTransform="matrix(11.644774,0,0,-11.644774,395.55273,1178.0103)"
   gradientUnits="userSpaceOnUse"
   r="1"
   cy="0"
   cx="0"
   fy="0"
   fx="0"><stop
     id="stop49496"
     offset="0"
     style="stop-opacity:1;stop-color:#ffffff" /><stop
     id="stop49498"
     offset="1"
     style="stop-opacity:1;stop-color:#0c1526" /></radialGradient><clipPath
   id="clipPath49510"
   clipPathUnits="userSpaceOnUse"><path
     inkscape:connector-curvature="0"
     id="path49508"
     d="m 392.46,1187.875 c -0.398,-0.126 -0.79,-0.276 -1.171,-0.447 v 0 c -1.123,-0.509 -2.157,-1.215 -3.041,-2.097 v 0 c -0.848,-0.846 -1.549,-1.837 -2.063,-2.934 v 0 c -0.235,-0.501 -0.432,-1.024 -0.584,-1.564 v 0 c -0.262,-0.927 -0.387,-1.876 -0.384,-2.821 v 0 c 0.005,-1.021 0.158,-2.035 0.454,-3.008 v 0 c 0.488,-1.608 1.361,-3.101 2.577,-4.316 v 0 c 0.884,-0.881 1.918,-1.587 3.041,-2.095 v 0 c 0.381,-0.173 0.773,-0.322 1.171,-0.447 v 0 c 1.146,-0.359 2.356,-0.523 3.57,-0.467 v 0 c 0.76,0.035 1.499,0.151 2.209,0.342 v 0 c 0.777,0.208 1.519,0.505 2.212,0.878 v 0 c 0.888,0.479 1.698,1.083 2.406,1.789 v 0 c 1.216,1.215 2.09,2.708 2.578,4.316 v 0 c 0.295,0.973 0.45,1.987 0.453,3.008 v 0 c 0.004,0.945 -0.121,1.894 -0.384,2.821 v 0 c -0.152,0.54 -0.348,1.063 -0.583,1.564 v 0 c -0.515,1.097 -1.216,2.088 -2.064,2.934 v 0 c -0.708,0.707 -1.518,1.312 -2.406,1.79 v 0 c -0.693,0.373 -1.435,0.67 -2.212,0.879 v 0 c -0.71,0.19 -1.449,0.307 -2.209,0.341 v 0 c -0.158,0.01 -0.315,0.011 -0.472,0.011 v 0 c -1.055,0 -2.1,-0.164 -3.098,-0.477" /></clipPath><clipPath
   id="clipPath50170"
   clipPathUnits="userSpaceOnUse"><path
     inkscape:connector-curvature="0"
     id="path50168"
     d="M 0,1337 H 2071.01 V 0 H 0 Z" /></clipPath><clipPath
   id="clipPath50182"
   clipPathUnits="userSpaceOnUse"><path
     inkscape:connector-curvature="0"
     id="path50180"
     d="m 383.908,1064.011 c 0,-6.433 5.213,-11.646 11.644,-11.646 v 0 c 6.432,0 11.646,5.213 11.646,11.646 v 0 c 0,6.431 -5.214,11.644 -11.646,11.644 v 0 c -6.431,0 -11.644,-5.213 -11.644,-11.644" /></clipPath><radialGradient
   id="radialGradient50192"
   spreadMethod="pad"
   gradientTransform="matrix(11.644774,0,0,-11.644774,395.55273,1064.0103)"
   gradientUnits="userSpaceOnUse"
   r="1"
   cy="0"
   cx="0"
   fy="0"
   fx="0"><stop
     id="stop50188"
     offset="0"
     style="stop-opacity:1;stop-color:#ffffff" /><stop
     id="stop50190"
     offset="1"
     style="stop-opacity:1;stop-color:#0c1526" /></radialGradient><clipPath
   id="clipPath50202"
   clipPathUnits="userSpaceOnUse"><path
     inkscape:connector-curvature="0"
     id="path50200"
     d="m 392.46,1073.875 c -0.398,-0.126 -0.79,-0.276 -1.171,-0.448 v 0 c -1.123,-0.507 -2.157,-1.214 -3.041,-2.096 v 0 c -0.848,-0.845 -1.549,-1.838 -2.063,-2.935 v 0 c -0.235,-0.5 -0.432,-1.022 -0.584,-1.563 v 0 c -0.262,-0.926 -0.387,-1.877 -0.384,-2.822 v 0 c 0.005,-1.02 0.158,-2.034 0.454,-3.007 v 0 c 0.488,-1.609 1.361,-3.102 2.577,-4.315 v 0 c 0.884,-0.881 1.918,-1.588 3.041,-2.096 v 0 c 0.381,-0.172 0.773,-0.321 1.171,-0.447 v 0 c 1.146,-0.359 2.356,-0.523 3.57,-0.467 v 0 c 0.76,0.035 1.499,0.152 2.209,0.342 v 0 c 0.777,0.208 1.519,0.505 2.212,0.878 v 0 c 0.888,0.479 1.698,1.084 2.406,1.79 v 0 c 1.216,1.213 2.09,2.706 2.578,4.315 v 0 c 0.295,0.973 0.45,1.987 0.453,3.007 v 0 c 0.004,0.945 -0.121,1.896 -0.384,2.822 v 0 c -0.152,0.541 -0.348,1.063 -0.583,1.563 v 0 c -0.515,1.097 -1.216,2.09 -2.064,2.935 v 0 c -0.708,0.707 -1.518,1.311 -2.406,1.79 v 0 c -0.693,0.374 -1.435,0.671 -2.212,0.879 v 0 c -0.71,0.19 -1.449,0.307 -2.209,0.342 v 0 c -0.156,0.01 -0.311,0.01 -0.466,0.01 v 0 c -1.057,0 -2.105,-0.164 -3.104,-0.477" /></clipPath><clipPath
   id="clipPath50862"
   clipPathUnits="userSpaceOnUse"><path
     inkscape:connector-curvature="0"
     id="path50860"
     d="m 377.158,1120.764 c 0,-10.16 8.235,-18.394 18.394,-18.394 v 0 c 10.16,0 18.396,8.234 18.396,18.394 v 0 c 0,10.159 -8.236,18.394 -18.396,18.394 v 0 c -10.159,0 -18.394,-8.235 -18.394,-18.394" /></clipPath><clipPath
   id="clipPath50898"
   clipPathUnits="userSpaceOnUse"><path
     inkscape:connector-curvature="0"
     id="path50896"
     d="m 390.104,1136.343 c -2.367,-0.828 -4.487,-2.179 -6.222,-3.916 v 0 c -1.93,-1.931 -3.384,-4.338 -4.169,-7.03 v 0 c -0.43,-1.47 -0.66,-3.025 -0.66,-4.633 v 0 c 0,-1.419 0.178,-2.794 0.515,-4.107 v 0 c 0.744,-2.905 2.259,-5.501 4.314,-7.556 v 0 c 1.735,-1.737 3.855,-3.089 6.222,-3.916 v 0 c 1.706,-0.597 3.539,-0.921 5.449,-0.921 v 0 c 1.757,0 3.451,0.274 5.041,0.784 v 0 c 2.53,0.811 4.796,2.217 6.63,4.053 v 0 c 2.055,2.055 3.569,4.651 4.314,7.556 v 0 c 0.336,1.313 0.514,2.688 0.514,4.107 v 0 c 0,1.608 -0.23,3.163 -0.659,4.633 v 0 c -0.786,2.692 -2.239,5.099 -4.169,7.03 v 0 c -1.834,1.836 -4.1,3.242 -6.63,4.052 v 0 c -1.59,0.51 -3.284,0.784 -5.041,0.784 v 0 c -1.91,0 -3.743,-0.324 -5.449,-0.92" /></clipPath><clipPath
   id="clipPath51046"
   clipPathUnits="userSpaceOnUse"><path
     inkscape:connector-curvature="0"
     id="path51044"
     d="m 414.535,1094.765 c 0,-2.615 2.12,-4.735 4.735,-4.735 v 0 c 2.615,0 4.735,2.12 4.735,4.735 v 0 c 0,2.615 -2.12,4.735 -4.735,4.735 v 0 c -2.615,0 -4.735,-2.12 -4.735,-4.735" /></clipPath><radialGradient
   id="radialGradient51066"
   spreadMethod="pad"
   gradientTransform="matrix(4.7351074,0,0,-4.7351074,419.27002,1094.7646)"
   gradientUnits="userSpaceOnUse"
   r="1"
   cy="0"
   cx="0"
   fy="0"
   fx="0"><stop
     id="stop51052"
     offset="0"
     style="stop-opacity:1;stop-color:#ffffff" /><stop
     id="stop51054"
     offset="0"
     style="stop-opacity:1;stop-color:#ffffff" /><stop
     id="stop51056"
     offset="0"
     style="stop-opacity:1;stop-color:#ffffff" /><stop
     id="stop51058"
     offset="0.08783927"
     style="stop-opacity:1;stop-color:#ffffff" /><stop
     id="stop51060"
     offset="0.522472"
     style="stop-opacity:1;stop-color:#adaeb0" /><stop
     id="stop51062"
     offset="0.63951989"
     style="stop-opacity:1;stop-color:#adaeb0" /><stop
     id="stop51064"
     offset="1"
     style="stop-opacity:1;stop-color:#465053" /></radialGradient><clipPath
   id="clipPath51076"
   clipPathUnits="userSpaceOnUse"><path
     inkscape:connector-curvature="0"
     id="path51074"
     d="M 0,1337 H 2071.01 V 0 H 0 Z" /></clipPath><clipPath
   id="clipPath51084"
   clipPathUnits="userSpaceOnUse"><path
     inkscape:connector-curvature="0"
     id="path51082"
     d="M 536.549,982.39 H 654.481 V 837.728 H 536.549 Z" /></clipPath><clipPath
   id="clipPath51084-1"
   clipPathUnits="userSpaceOnUse"><path
     inkscape:connector-curvature="0"
     id="path51082-6"
     d="M 536.549,982.39 H 654.481 V 837.728 H 536.549 Z" /></clipPath>





</defs><sodipodi:namedview
     pagecolor="#ffffff"
     bordercolor="#666666"
     borderopacity="1"
     objecttolerance="10"
     gridtolerance="10"
     guidetolerance="10"
     inkscape:pageopacity="0"
     inkscape:pageshadow="2"
     inkscape:window-width="605"
     inkscape:window-height="713"
     id="namedview871"
     showgrid="false"
     inkscape:snap-global="true"
     inkscape:snap-bbox="true"
     inkscape:bbox-paths="true"
     inkscape:bbox-nodes="true"
     inkscape:snap-bbox-edge-midpoints="true"
     inkscape:snap-bbox-midpoints="true"
     inkscape:object-paths="true"
     inkscape:snap-intersection-paths="true"
     inkscape:snap-smooth-nodes="true"
     inkscape:snap-midpoints="true"
     inkscape:snap-object-midpoints="true"
     inkscape:snap-center="true"
     inkscape:snap-text-baseline="true"
     inkscape:snap-page="true"
     inkscape:zoom="1.3817603"
     inkscape:cx="3.0345453"
     inkscape:cy="441.98539"
     inkscape:window-x="743"
     inkscape:window-y="37"
     inkscape:window-maximized="1"
     inkscape:current-layer="g877"
     showborder="true"
     inkscape:pagecheckerboard="false" /><g
     id="g877"
     inkscape:groupmode="layer"
     inkscape:label="iphone"
     transform="matrix(1.3333333,0,0,-1.3333333,-685.73701,1263.927)">



<g
   transform="matrix(-1.8316433,0,0,-1.8316433,1223.3629,1216.874)"
   id="g1771"><path
     inkscape:connector-curvature="0"
     style="opacity:1;vector-effect:none;fill:#173f4f;fill-opacity:1;stroke:none;stroke-width:0.13157551px;stroke-linecap:butt;stroke-linejoin:miter;stroke-miterlimit:4;stroke-dasharray:none;stroke-dashoffset:0;stroke-opacity:1"
     d="m 325.47156,146.82499 c -4.67436,0.0795 -8.29959,3.64436 -8.29959,8.37148 v 102.22976 h 5e-4 v 24.0609 c 0,5.04227 4.12411,8.76189 9.24711,8.33993 l 48.94468,-4.03162 0.91804,-0.0754 c 5.12301,-0.42198 9.24764,-4.82084 9.24764,-9.86312 v -18.43059 -96.59947 c 0,-5.04226 -4.1246,-9.44166 -9.24764,-9.86362 l -48.94468,-4.03109 -0.91804,-0.0761 c -0.32018,-0.026 -0.63638,-0.0361 -0.94802,-0.031 z"
     id="path1714" /><path
     sodipodi:nodetypes="csccscccscsccccc"
     inkscape:connector-curvature="0"
     id="path529"
     d="m 1236.3223,27.609375 c -17.6518,0.300019 -31.3418,13.762232 -31.3418,31.613281 v 386.050784 0 88.86133 c 0,19.04114 15.5739,33.08759 34.9199,31.49414 l 184.8301,-15.22461 3.4668,-0.28516 c 19.346,-1.59349 34.9219,-18.20495 34.9219,-37.24609 V 445.27344 80.484375 c 0,-19.041109 -15.5758,-35.654598 -34.9219,-37.248047 l -184.8301,-15.222656 -3.4668,-0.28711 c -1.2091,-0.09827 -2.4032,-0.136085 -3.58,-0.117187 z"
     style="opacity:1;vector-effect:none;fill:#3a7085;fill-opacity:1;stroke:none;stroke-width:0.49686933px;stroke-linecap:butt;stroke-linejoin:miter;stroke-miterlimit:4;stroke-dasharray:none;stroke-dashoffset:0;stroke-opacity:1"
     transform="matrix(0.26458332,0,0,0.26458332,1.2755394e-5,139.52)" /><path
     inkscape:connector-curvature="0"
     transform="matrix(0.26458332,0,0,0.26458332,1.2755394e-5,139.52)"
     id="path531"
     d="m 1239.6016,32.613281 c -17.0597,0.317065 -30.2911,13.553527 -30.2911,31.082031 v 381.578128 0 86.38672 c 0,18.69702 15.051,32.51071 33.748,30.9707 l 181.9805,-14.99024 c 18.697,-1.53996 33.75,-17.83032 33.75,-36.52734 V 445.27344 84.244141 c 0,-18.697059 -15.053,-34.989291 -33.75,-36.529297 L 1243.0605,32.724609 c -1.1685,-0.09638 -2.3216,-0.134005 -3.4589,-0.111328 z"
     style="opacity:1;vector-effect:none;fill:#173f4f;fill-opacity:1;stroke:none;stroke-width:0.48403037px;stroke-linecap:butt;stroke-linejoin:miter;stroke-miterlimit:4;stroke-dasharray:none;stroke-dashoffset:0;stroke-opacity:1" /><path
     inkscape:connector-curvature="0"
     transform="matrix(0.26458332,0,0,0.26458332,1.2755394e-5,139.52)"
     id="path533"
     d="m 1243.5117,44.119141 c -12.9345,0.243317 -22.9629,10.279317 -22.9629,23.570312 v 377.583987 0 82.39062 c 0,14.17917 11.4147,24.6542 25.5938,23.48633 l 175.8183,-14.48047 c 14.1792,-1.16787 25.5938,-13.524 25.5938,-27.70312 v -63.69336 0 -358.886721 c 0,-14.179201 -11.4166,-26.535251 -25.5957,-27.703125 l -6.4785,-0.533203 -15.791,-1.300782 c -1.4765,-0.121587 -2.6661,0.96884 -2.6661,2.445313 v 1.845703 0.496094 c 0,0.266986 -0.01,0.530669 -0.023,0.792969 0,0.08769 -0.01,0.174789 -0.02,0.261718 -0.013,0.17571 -0.028,0.350335 -0.047,0.523438 0,0.03326 -0.01,0.06559 -0.01,0.09961 -0.012,0.0926 -0.028,0.18317 -0.039,0.275391 -0.012,0.09222 -0.024,0.185879 -0.039,0.277344 -0.022,0.135949 -0.048,0.269745 -0.074,0.404296 -0.017,0.08693 -0.032,0.175546 -0.051,0.261719 -0.032,0.148876 -0.063,0.295139 -0.1015,0.441406 -0.019,0.0669 -0.036,0.135031 -0.051,0.201172 -0.055,0.208328 -0.1139,0.413849 -0.1778,0.617188 v 0.0039 c -0.027,0.08617 -0.058,0.170442 -0.088,0.255859 -0.04,0.119055 -0.08,0.238304 -0.123,0.355469 -0.04,0.107339 -0.084,0.214108 -0.127,0.320313 -0.037,0.09033 -0.071,0.179956 -0.1093,0.269531 -0.046,0.107716 -0.095,0.214108 -0.1446,0.320312 -0.04,0.08768 -0.081,0.175546 -0.123,0.261719 -0.055,0.112252 -0.1121,0.223622 -0.1699,0.333984 -0.036,0.06992 -0.075,0.13982 -0.1133,0.208985 -0.065,0.119055 -0.132,0.235153 -0.2012,0.351562 -0.035,0.05972 -0.067,0.119152 -0.1054,0.177735 -0.076,0.124724 -0.1555,0.248195 -0.2364,0.36914 -0.03,0.04536 -0.06,0.08979 -0.09,0.134766 -0.084,0.122835 -0.1698,0.24347 -0.2578,0.363281 -0.036,0.04838 -0.069,0.09691 -0.1075,0.144531 -0.091,0.119812 -0.1832,0.237485 -0.2773,0.353516 -0.021,0.02646 -0.04,0.05167 -0.062,0.07813 -2.5931,3.133947 -6.6532,4.949463 -11.2344,4.572266 l -97.5429,-8.033203 c -4.5811,-0.377311 -8.6393,-2.86272 -11.2325,-6.423828 -0.022,-0.02948 -0.044,-0.06143 -0.066,-0.08789 -0.095,-0.131679 -0.1862,-0.265462 -0.2773,-0.400391 -0.035,-0.05291 -0.073,-0.106487 -0.1074,-0.160156 -0.085,-0.130432 -0.168,-0.263067 -0.25,-0.396484 -0.036,-0.05783 -0.073,-0.115624 -0.1075,-0.173828 -0.075,-0.126123 -0.1477,-0.253112 -0.2187,-0.38086 -0.04,-0.07219 -0.08,-0.143852 -0.1192,-0.216797 -0.067,-0.124724 -0.1333,-0.249961 -0.1972,-0.376953 -0.038,-0.07521 -0.073,-0.152547 -0.1113,-0.228516 -0.058,-0.119811 -0.1152,-0.240005 -0.17,-0.361328 -0.042,-0.09335 -0.083,-0.187139 -0.123,-0.28125 -0.048,-0.113763 -0.098,-0.228474 -0.1445,-0.34375 -0.038,-0.09562 -0.071,-0.192306 -0.1094,-0.289062 -0.043,-0.113386 -0.087,-0.225324 -0.127,-0.339844 -0.04,-0.115275 -0.077,-0.231247 -0.1152,-0.347656 -0.033,-0.100158 -0.067,-0.199868 -0.098,-0.300781 v -0.01172 c -0.063,-0.210671 -0.1197,-0.422798 -0.1738,-0.636719 -0.019,-0.06879 -0.034,-0.138244 -0.049,-0.207031 -0.035,-0.152088 -0.073,-0.305158 -0.1035,-0.458984 -0.019,-0.08957 -0.034,-0.179957 -0.049,-0.269532 -0.025,-0.139049 -0.052,-0.277748 -0.074,-0.417968 -0.013,-0.09373 -0.028,-0.189093 -0.039,-0.283204 -0.013,-0.09373 -0.028,-0.187139 -0.039,-0.28125 -0.011,-0.03364 -0.012,-0.06755 -0.012,-0.101562 -0.02,-0.175975 -0.036,-0.353612 -0.047,-0.53125 0,-0.08769 -0.018,-0.175231 -0.018,-0.263672 -0.011,-0.264529 -0.023,-0.529662 -0.023,-0.796875 v -0.498047 -1.84375 c 0,-1.476472 -1.1895,-2.763065 -2.666,-2.884766 l -15.791,-1.300781 -6.4786,-0.533203 h -0.012 c -0.8842,-0.07429 -1.7585,-0.100835 -2.6191,-0.08594 z"
     style="opacity:1;vector-effect:none;fill:#73ba25;fill-opacity:1;stroke:none;stroke-width:0.48403037px;stroke-linecap:butt;stroke-linejoin:miter;stroke-miterlimit:4;stroke-dasharray:none;stroke-dashoffset:0;stroke-opacity:1" /><path
     sodipodi:nodetypes="ccccccccc"
     inkscape:connector-curvature="0"
     style="opacity:1;vector-effect:none;fill:#2e5a6b;fill-opacity:1;stroke:none;stroke-width:0.13146333px;stroke-linecap:butt;stroke-linejoin:miter;stroke-miterlimit:4;stroke-dasharray:none;stroke-dashoffset:0;stroke-opacity:1"
     d="m 377.87794,285.07232 c 0.59511,-0.049 1.17654,-0.15231 1.73978,-0.30354 -1.04413,-0.35417 -2.19546,-0.0712 -3.40694,0.0286 l -0.8558,0.0705 -45.63024,3.75833 c -1.21149,0.0998 -2.36282,0.006 -3.40693,0.53265 0.56322,0.0584 1.14466,0.066 1.73978,0.0169 l 48.90307,-4.02789 z"
     id="path547" /><rect
     transform="matrix(-0.99662518,0.08208683,0,1,0,0)"
     rx="0.50029838"
     ry="0.49860996"
     y="309.10678"
     x="-364.00226"
     height="0.99721992"
     width="19.678406"
     id="rect569"
     style="opacity:1;vector-effect:none;fill:#ffffff;fill-opacity:0.35294118;stroke:none;stroke-width:0.25627714;stroke-linecap:butt;stroke-linejoin:miter;stroke-miterlimit:4;stroke-dasharray:none;stroke-dashoffset:0;stroke-opacity:1" /><g
     id="g486"
     transform="matrix(-1,-0.17973339,0,1,708.39261,63.759164)"><rect
       ry="0.66549325"
       y="125.42474"
       x="349.82611"
       height="1.3309865"
       width="8.673707"
       id="rect583"
       style="opacity:1;vector-effect:none;fill:#212121;fill-opacity:1;stroke:none;stroke-width:0.12828301px;stroke-linecap:butt;stroke-linejoin:miter;stroke-miterlimit:4;stroke-dasharray:none;stroke-dashoffset:0;stroke-opacity:1"
       transform="matrix(0.99662518,0.08208683,0,1,0,0)" /><ellipse
       cy="126.15598"
       cx="361.52051"
       id="circle585"
       style="opacity:1;vector-effect:none;fill:#212121;fill-opacity:1;stroke:none;stroke-width:0.12123447px;stroke-linecap:butt;stroke-linejoin:miter;stroke-miterlimit:4;stroke-dasharray:none;stroke-dashoffset:0;stroke-opacity:1"
       transform="matrix(0.99662518,0.08208683,0,1,0,0)"
       rx="1.1268052"
       ry="1.1230024" /><ellipse
       style="opacity:1;vector-effect:none;fill:#35b9ab;fill-opacity:1;stroke:none;stroke-width:0.06061724px;stroke-linecap:butt;stroke-linejoin:miter;stroke-miterlimit:4;stroke-dasharray:none;stroke-dashoffset:0;stroke-opacity:1"
       id="circle587"
       cx="361.52051"
       cy="126.15598"
       transform="matrix(0.99662518,0.08208683,0,1,0,0)"
       rx="0.56340265"
       ry="0.56150126" /></g><path
     sodipodi:nodetypes="ccccccccc"
     style="opacity:1;vector-effect:none;fill:#2e5a6b;fill-opacity:1;stroke:none;stroke-width:0.13146333px;stroke-linecap:butt;stroke-linejoin:miter;stroke-miterlimit:4;stroke-dasharray:none;stroke-dashoffset:0;stroke-opacity:1"
     d="m 328.05764,146.85623 c -0.59511,-0.049 -1.17654,-0.0415 -1.73978,0.0169 1.04413,0.52617 2.19546,0.67012 3.40694,0.7699 l 0.85581,0.0705 45.63024,3.75833 c 1.21148,0.0998 2.36281,0.14549 3.40692,-0.20868 -0.56322,-0.15121 -1.14465,-0.25452 -1.73977,-0.30354 l -48.90308,-4.02789 z"
     id="path591"
     inkscape:connector-curvature="0" /><path
     inkscape:connector-curvature="0"
     id="path868"
     d="m 327.97792,148.14893 c -4.51372,0.0839 -8.01452,3.58604 -8.01452,8.22379 v 100.95921 h 5.3e-4 v 22.85648 c 0,4.84501 3.82047,8.4482 8.62531,8.2119 -4.37944,-0.21848 -7.73854,-3.6692 -7.73854,-8.2119 v -22.85648 h -5.3e-4 V 156.37272 c 0,-4.54077 3.35659,-7.99077 7.73338,-8.2119 -0.20352,-0.01 -0.40577,-0.0159 -0.60563,-0.0119 z"
     style="opacity:1;vector-effect:none;fill:#0e2731;fill-opacity:1;stroke:none;stroke-width:0.12806636px;stroke-linecap:butt;stroke-linejoin:miter;stroke-miterlimit:4;stroke-dasharray:none;stroke-dashoffset:0;stroke-opacity:1" /><path
     inkscape:connector-curvature="0"
     id="path874"
     d="m 329.01246,151.19319 c -3.42225,0.0644 -6.0756,2.71973 -6.0756,6.23631 v 99.90243 h 10e-4 v 21.79918 c 0,3.75157 3.02014,6.52309 6.7717,6.21409 l 0.12816,-0.0103 c -3.16923,-0.30715 -5.5604,-2.86717 -5.5604,-6.20479 v -21.79919 h -10e-4 V 157.4285 c 0,-3.33175 2.38246,-5.88922 5.54333,-6.20376 l -0.10956,-0.009 h -0.003 c -0.23394,-0.0197 -0.46527,-0.0267 -0.69297,-0.0227 z"
     style="opacity:1;vector-effect:none;fill:#6da741;fill-opacity:1;stroke:none;stroke-width:0.12806636px;stroke-linecap:butt;stroke-linejoin:miter;stroke-miterlimit:4;stroke-dasharray:none;stroke-dashoffset:0;stroke-opacity:1"
     sodipodi:nodetypes="csccsccsccsccccc" /><path
     inkscape:connector-curvature="0"
     style="color:#000000;font-style:normal;font-variant:normal;font-weight:normal;font-stretch:normal;font-size:medium;line-height:normal;font-family:sans-serif;font-variant-ligatures:normal;font-variant-position:normal;font-variant-caps:normal;font-variant-numeric:normal;font-variant-alternates:normal;font-feature-settings:normal;text-indent:0;text-align:start;text-decoration:none;text-decoration-line:none;text-decoration-style:solid;text-decoration-color:#000000;letter-spacing:normal;word-spacing:normal;text-transform:none;writing-mode:lr-tb;direction:ltr;text-orientation:mixed;dominant-baseline:auto;baseline-shift:baseline;text-anchor:start;white-space:normal;shape-padding:0;clip-rule:nonzero;display:inline;overflow:visible;visibility:visible;opacity:1;isolation:auto;mix-blend-mode:normal;color-interpolation:sRGB;color-interpolation-filters:linearRGB;solid-color:#000000;solid-opacity:1;vector-effect:none;fill:#ffffff;fill-opacity:1;fill-rule:nonzero;stroke:none;stroke-width:0.12806635px;stroke-linecap:butt;stroke-linejoin:miter;stroke-miterlimit:4;stroke-dasharray:none;stroke-dashoffset:0;stroke-opacity:1;color-rendering:auto;image-rendering:auto;shape-rendering:auto;text-rendering:auto;enable-background:accumulate"
     d="m 333.73141,154.13147 c 0.46758,0.0325 0.89176,0.25195 1.1989,0.58039 l -0.17984,0.16734 c -0.26045,-0.27851 -0.62063,-0.46426 -1.01906,-0.49193 -0.39844,-0.0277 -0.75867,0.10806 -1.01905,0.35041 l -0.17932,-0.19228 c 0.30706,-0.28578 0.7308,-0.44639 1.19837,-0.41393 z m -3.25148,-0.14515 c 0.17798,0.0123 0.32246,0.16687 0.32246,0.34484 v 1.00615 c 0,0.17798 -0.14448,0.31398 -0.32246,0.30161 l -3.17603,-0.22053 c -0.17798,-0.0123 -0.32195,-0.16838 -0.32195,-0.34636 v -1.00614 c 0,-0.17798 0.14397,-0.31247 0.32195,-0.30011 z m 0,0.12919 -3.17603,-0.22054 c -0.10924,-0.008 -0.19534,0.0704 -0.19534,0.1797 v 1.00614 c 0,0.10924 0.0861,0.20081 0.19534,0.20839 l 3.17603,0.22053 c 0.10924,0.008 0.19534,-0.072 0.19534,-0.18125 v -1.00614 c 0,-0.10925 -0.0861,-0.19925 -0.19534,-0.20683 z m -0.1235,0.11389 c 0.10828,0.007 0.19585,0.10063 0.19585,0.20894 v 0.75758 c 0,0.10829 -0.0876,0.18977 -0.19585,0.18225 l -1.32809,-0.0922 -0.82579,-0.0574 -0.19534,-0.0135 v -0.19585 -0.75757 -0.19534 l 0.19534,0.0135 0.82579,0.0574 z m 3.37498,0.45143 c 0.3158,0.022 0.60211,0.17051 0.80977,0.39264 l -0.17931,0.16739 c -0.161,-0.17218 -0.38379,-0.2871 -0.63046,-0.30424 -0.24667,-0.0171 -0.4695,0.0668 -0.63045,0.21668 l -0.17932,-0.19228 c 0.20762,-0.19326 0.49397,-0.30212 0.80977,-0.28019 z m -6.81818,-0.40885 v 0.62735 a 0.3298082,0.30768839 45.994221 0 1 -0.26511,-0.3326 0.3298082,0.30768839 45.994221 0 1 0.26511,-0.29475 z m 6.81818,0.94632 a 0.63087793,0.58856576 45.994221 0 1 0.43098,0.20872 l -0.43098,0.40055 -0.43046,-0.46088 a 0.63087793,0.58856576 45.994221 0 1 0.43046,-0.14839 z"
     id="path488" /></g></g></svg>