<?xml version="1.0" encoding="UTF-8" standalone="no"?>
<!-- Created with Inkscape (http://www.inkscape.org/) -->

<svg
   xmlns:dc="http://purl.org/dc/elements/1.1/"
   xmlns:cc="http://creativecommons.org/ns#"
   xmlns:rdf="http://www.w3.org/1999/02/22-rdf-syntax-ns#"
   xmlns:svg="http://www.w3.org/2000/svg"
   xmlns="http://www.w3.org/2000/svg"
   xmlns:sodipodi="http://sodipodi.sourceforge.net/DTD/sodipodi-0.dtd"
   xmlns:inkscape="http://www.inkscape.org/namespaces/inkscape"
   version="1.1"
   id="svg869"
   xml:space="preserve"
   width="533.09937"
   height="385.18655"
   viewBox="0 0 533.09937 385.18654"
   sodipodi:docname="laptop.svg"
   inkscape:version="0.92.4 5da689c313, 2019-01-14"><metadata
     id="metadata875"><rdf:RDF><cc:Work
         rdf:about=""><dc:format>image/svg+xml</dc:format><dc:type
           rdf:resource="http://purl.org/dc/dcmitype/StillImage" /><dc:title /></cc:Work></rdf:RDF></metadata><defs
     id="defs873"><clipPath
       clipPathUnits="userSpaceOnUse"
       id="clipPath885"><path
         d="m 1176.333,1110.805 c -0.726,-0.172 -1.412,-0.479 -2.001,-1.003 v 0 c -1.239,-1.099 -1.073,-2.579 -1.073,-4.089 v 0 -35.281 c 0,-1.926 -0.031,-3.561 1.426,-5.015 v 0 c 0.541,-0.539 1.133,-0.908 1.781,-1.135 v 0 c 0.555,-0.193 1.151,-0.282 1.793,-0.282 v 0 1.916 43.79 1.294 c -0.65,0 -1.303,-0.048 -1.926,-0.195"
         id="path883"
         inkscape:connector-curvature="0" /></clipPath><clipPath
       clipPathUnits="userSpaceOnUse"
       id="clipPath1267"><path
         d="m 1778.751,995.373 v -139.487 -1.917 c 0.641,0 1.238,0.09 1.794,0.283 v 0 c 0.648,0.227 1.24,0.596 1.781,1.135 v 0 c 1.457,1.454 1.425,3.089 1.425,5.015 v 0 130.978 c 0,1.51 0.164,2.99 -1.072,4.088 v 0 c -0.59,0.525 -1.275,0.832 -2.004,1.004 v 0 c -0.621,0.148 -1.273,0.195 -1.924,0.195 v 0 z"
         id="path1265"
         inkscape:connector-curvature="0" /></clipPath><clipPath
       clipPathUnits="userSpaceOnUse"
       id="clipPath1649"><path
         d="m 1176.841,1024.305 c -0.726,-0.172 -1.412,-0.479 -2.002,-1.003 v 0 c -1.238,-1.099 -1.072,-2.579 -1.072,-4.089 v 0 -76.281 c 0,-1.926 -0.031,-3.562 1.426,-5.014 v 0 c 0.541,-0.539 1.133,-0.909 1.781,-1.136 v 0 c 0.554,-0.193 1.15,-0.282 1.793,-0.282 v 0 1.916 84.79 1.294 c -0.65,0 -1.302,-0.048 -1.926,-0.195"
         id="path1647"
         inkscape:connector-curvature="0" /></clipPath><clipPath
       clipPathUnits="userSpaceOnUse"
       id="clipPath2031"><path
         d="m 1176.841,913.306 c -0.726,-0.172 -1.412,-0.48 -2.002,-1.004 v 0 c -1.238,-1.099 -1.072,-2.579 -1.072,-4.09 v 0 -76.28 c 0,-1.926 -0.031,-3.561 1.426,-5.015 v 0 c 0.541,-0.539 1.133,-0.908 1.781,-1.135 v 0 c 0.554,-0.193 1.15,-0.282 1.793,-0.282 v 0 1.916 84.79 1.294 c -0.65,0 -1.302,-0.048 -1.926,-0.194"
         id="path2029"
         inkscape:connector-curvature="0" /></clipPath><clipPath
       clipPathUnits="userSpaceOnUse"
       id="clipPath2413"><path
         d="M 0,1337 H 2071.01 V 0 H 0 Z"
         id="path2411"
         inkscape:connector-curvature="0" /></clipPath><clipPath
       clipPathUnits="userSpaceOnUse"
       id="clipPath2429"><path
         d="m 1687.773,1276 h -419.514 c -1.171,0 -2.336,-0.022 -3.496,-0.067 v 0 c -16.191,-0.618 -31.287,-5.514 -44.189,-13.589 v 0 c -5.192,-3.249 -10.027,-7.013 -14.435,-11.221 v 0 c -0.507,-0.482 -1.007,-0.971 -1.503,-1.466 v 0 c -0.891,-0.892 -1.764,-1.802 -2.619,-2.73 v 0 c -1.98,-2.152 -3.86,-4.403 -5.625,-6.742 v 0 c -3.566,-4.723 -6.678,-9.808 -9.27,-15.19 v 0 c -4.892,-10.162 -7.933,-21.384 -8.681,-33.227 v 0 c -0.121,-1.907 -0.182,-3.83 -0.182,-5.768 v 0 -9.656 V 151 c 0,-15.915 4.129,-30.863 11.377,-43.834 v 0 c 3.52,-6.298 7.773,-12.13 12.647,-17.38 v 0 c 0.763,-0.823 1.543,-1.632 2.335,-2.426 v 0 c 0.495,-0.494 0.995,-0.983 1.501,-1.467 v 0 c 4.408,-4.207 9.244,-7.972 14.433,-11.223 v 0 c 12.899,-8.079 27.995,-12.979 44.186,-13.602 v 0 c 1.168,-0.045 2.341,-0.068 3.521,-0.068 v 0 h 419.495 1.506 c 16.524,0 32.011,4.454 45.32,12.228 v 0 c 5.89,3.439 11.353,7.529 16.293,12.169 v 0 c 0.691,0.65 1.373,1.31 2.043,1.981 v 0 c 0.794,0.794 1.574,1.603 2.338,2.427 v 0 c 4.869,5.25 9.122,11.082 12.638,17.381 v 0 c 7.24,12.967 11.368,27.908 11.368,43.814 v 0 1025.277 9.723 c 0,1.915 -0.062,3.817 -0.179,5.703 v 0 c -0.74,11.844 -3.771,23.067 -8.656,33.231 v 0 c -2.587,5.385 -5.695,10.473 -9.257,15.198 v 0 c -1.766,2.34 -3.643,4.591 -5.622,6.746 v 0 c -0.853,0.929 -1.726,1.84 -2.617,2.731 v 0 c -0.669,0.672 -1.352,1.333 -2.043,1.982 v 0 c -4.937,4.642 -10.4,8.732 -16.289,12.173 v 0 c -13.315,7.778 -28.806,12.236 -45.337,12.236 v 0 z"
         id="path2427"
         inkscape:connector-curvature="0" /></clipPath><clipPath
       clipPathUnits="userSpaceOnUse"
       id="clipPath3945"><path
         d="M 0,1337 H 2071.01 V 0 H 0 Z"
         id="path3943"
         inkscape:connector-curvature="0" /></clipPath><clipPath
       clipPathUnits="userSpaceOnUse"
       id="clipPath3965"><path
         d="m 1755.324,1208.436 c 1.921,-8.521 2.935,-17.385 2.935,-26.487 v 0 -1031 c 0,-0.862 -0.01,-1.722 -0.027,-2.579 v 0 c -0.491,-23.197 -7.568,-44.771 -19.43,-62.938 v 0 c 2.305,1.859 4.502,3.843 6.584,5.944 v 0 c 2.209,2.23 4.285,4.591 6.219,7.071 v 0 c 10.434,13.385 16.654,30.214 16.654,48.502 v 0 13.011 1026.989 c 0,2.946 -0.162,5.854 -0.476,8.717 v 0 c -1.666,15.156 -7.622,29.018 -16.625,40.352 v 0 c -2.068,2.603 -4.298,5.073 -6.672,7.395 v 0 c -2.236,2.187 -4.601,4.243 -7.085,6.154 v 0 c 8.384,-12.268 14.552,-26.17 17.923,-41.131"
         id="path3963"
         inkscape:connector-curvature="0" /></clipPath><clipPath
       clipPathUnits="userSpaceOnUse"
       id="clipPath4247"><path
         d="m 1212.53,1243.413 c -2.372,-2.322 -4.6,-4.792 -6.67,-7.395 v 0 c -9.003,-11.334 -14.96,-25.196 -16.626,-40.352 v 0 c -0.314,-2.863 -0.474,-5.771 -0.474,-8.717 v 0 V 159.96 146.949 c 0,-18.288 6.218,-35.117 16.653,-48.502 v 0 c 1.932,-2.48 4.011,-4.841 6.219,-7.071 v 0 c 2.08,-2.101 4.28,-4.085 6.582,-5.944 v 0 c -11.861,18.167 -18.939,39.741 -19.428,62.938 v 0 c -0.019,0.857 -0.026,1.717 -0.026,2.579 v 0 1031 c 0,9.102 1.013,17.966 2.933,26.487 v 0 c 3.373,14.961 9.539,28.863 17.924,41.131 v 0 c -2.483,-1.911 -4.85,-3.967 -7.087,-6.154"
         id="path4245"
         inkscape:connector-curvature="0" /></clipPath><clipPath
       clipPathUnits="userSpaceOnUse"
       id="clipPath4529"><path
         d="m 1633.759,1240 c -2.999,0 -7.499,-2.63 -7.499,-6.5 v 0 c 0,-2.89 0.126,-5.813 -0.157,-8.694 v 0 C 1624.614,1209.673 1612.685,1197 1597.259,1197 v 0 h -131.086 -33.914 -61.962 -9.038 c -16.5,0 -31,14.5 -31,31 v 0 5.5 c 0,3.87 -2.5,6.5 -6.499,6.5 v 0 h -53.065 c -15.602,-0.017 -29.836,-6.286 -40.106,-16.469 v 0 c -10.07,-9.984 -16.33,-23.729 -16.33,-39.031 v 0 V 1072.067 964.305 623.052 379.275 157.388 151.5 c 0,-15.464 6.393,-29.589 16.653,-39.848 v 0 c 9.094,-9.094 21.226,-15.151 34.636,-16.409 v 0 c 1.717,-0.161 3.456,-0.243 5.212,-0.243 v 0 h 112.009 84.939 158.688 60.363 c 3.032,0 6.001,0.246 8.893,0.719 v 0 c 11.707,1.911 22.13,7.536 30.139,15.611 v 0 c 10.195,10.284 16.469,24.544 16.469,40.17 v 0 5.699 221.97 243.864 341.38 107.804 112.283 c 0,15.464 -6.143,29.339 -16.153,39.348 v 0 c -9.028,9.028 -21.201,14.91 -34.848,15.977 v 0 c -1.482,0.116 -2.984,0.175 -4.5,0.175 v 0 z"
         id="path4527"
         inkscape:connector-curvature="0" /></clipPath><clipPath
       clipPathUnits="userSpaceOnUse"
       id="clipPath5417"><path
         d="M 0,1337 H 2071.01 V 0 H 0 Z"
         id="path5415"
         inkscape:connector-curvature="0" /></clipPath><clipPath
       clipPathUnits="userSpaceOnUse"
       id="clipPath5513"><path
         d="m 1603.91,240.377 h 72.87 v -72.875 h -72.87 z"
         id="path5511"
         inkscape:connector-curvature="0" /></clipPath><clipPath
       clipPathUnits="userSpaceOnUse"
       id="clipPath5529"><path
         d="m 1625,215 h 30 v -22 h -30 z"
         id="path5527"
         inkscape:connector-curvature="0" /></clipPath><clipPath
       clipPathUnits="userSpaceOnUse"
       id="clipPath5549"><path
         d="m 1277.91,240.377 h 72.87 v -72.875 h -72.87 z"
         id="path5547"
         inkscape:connector-curvature="0" /></clipPath><clipPath
       clipPathUnits="userSpaceOnUse"
       id="clipPath5565"><path
         d="m 1306.34,217.004 h 16 v -5.753 h -16 z"
         id="path5563"
         inkscape:connector-curvature="0" /></clipPath><clipPath
       clipPathUnits="userSpaceOnUse"
       id="clipPath5581"><path
         d="m 1305.55,223.439 h 17.59 v -4.618 h -17.59 z"
         id="path5579"
         inkscape:connector-curvature="0" /></clipPath><clipPath
       clipPathUnits="userSpaceOnUse"
       id="clipPath5597"><path
         d="m 1309.83,209.433 h 9.02 v -24.994 h -9.02 z"
         id="path5595"
         inkscape:connector-curvature="0" /></clipPath><clipPath
       clipPathUnits="userSpaceOnUse"
       id="clipPath5613"><path
         d="m 1392.26,124 h 172 v -9 h -172 z"
         id="path5611"
         inkscape:connector-curvature="0" /></clipPath><clipPath
       clipPathUnits="userSpaceOnUse"
       id="clipPath5629"><path
         d="m 1770,1160 h 11 v -8 h -11 z"
         id="path5627"
         inkscape:connector-curvature="0" /></clipPath><clipPath
       clipPathUnits="userSpaceOnUse"
       id="clipPath5643"><path
         d="m 1770,188 h 11 v -8 h -11 z"
         id="path5641"
         inkscape:connector-curvature="0" /></clipPath><clipPath
       clipPathUnits="userSpaceOnUse"
       id="clipPath5657"><path
         d="m 1178,1160 h 9 v -8 h -9 z"
         id="path5655"
         inkscape:connector-curvature="0" /></clipPath><clipPath
       clipPathUnits="userSpaceOnUse"
       id="clipPath5671"><path
         d="m 1178,188 h 9 v -8 h -9 z"
         id="path5669"
         inkscape:connector-curvature="0" /></clipPath><clipPath
       clipPathUnits="userSpaceOnUse"
       id="clipPath5693"><path
         d="m 1543.531,1226.237 c -1.211,-0.018 -2.414,-0.481 -3.319,-1.389 v 0 c -0.929,-0.933 -1.388,-2.181 -1.377,-3.425 v 0 c 0.012,-1.213 0.471,-2.423 1.377,-3.332 v 0 c 0.905,-0.909 2.108,-1.372 3.319,-1.39 v 0 c 1.253,-0.02 2.513,0.439 3.455,1.378 v 0 c 0.914,0.911 1.375,2.125 1.387,3.343 v 0 c 0.011,1.25 -0.451,2.503 -1.387,3.437 v 0 c -0.922,0.92 -2.15,1.379 -3.378,1.379 v 0 c -0.026,0 -0.051,0 -0.077,-10e-4"
         id="path5691"
         inkscape:connector-curvature="0" /></clipPath><clipPath
       clipPathUnits="userSpaceOnUse"
       id="clipPath5803"><path
         d="m 892.751,1109.706 v -43.79 -1.916 c 0.643,0 1.239,0.089 1.793,0.282 v 0 c 0.649,0.227 1.24,0.596 1.781,1.135 v 0 c 1.457,1.454 1.427,3.089 1.427,5.015 v 0 35.281 c 0,1.51 0.165,2.99 -1.073,4.089 v 0 c -0.59,0.524 -1.275,0.831 -2.002,1.003 v 0 c -0.622,0.147 -1.275,0.195 -1.926,0.195 v 0 z"
         id="path5801"
         inkscape:connector-curvature="0" /></clipPath><clipPath
       clipPathUnits="userSpaceOnUse"
       id="clipPath5929"><path
         d="m 290.335,996.472 c -0.728,-0.172 -1.413,-0.479 -2.004,-1.004 v 0 c -1.236,-1.098 -1.072,-2.578 -1.072,-4.088 v 0 -130.978 c 0,-1.926 -0.031,-3.561 1.426,-5.015 v 0 c 0.541,-0.539 1.133,-0.908 1.781,-1.135 v 0 c 0.555,-0.193 1.153,-0.283 1.794,-0.283 v 0 1.917 139.487 1.294 c -0.651,0 -1.304,-0.047 -1.925,-0.195"
         id="path5927"
         inkscape:connector-curvature="0" /></clipPath><clipPath
       clipPathUnits="userSpaceOnUse"
       id="clipPath6067"><path
         d="m 892.244,1023.206 v -84.79 -1.916 c 0.642,0 1.238,0.089 1.793,0.282 v 0 c 0.648,0.227 1.24,0.597 1.781,1.136 v 0 c 1.457,1.452 1.425,3.088 1.425,5.014 v 0 76.281 c 0,1.51 0.167,2.99 -1.072,4.089 v 0 c -0.589,0.524 -1.275,0.831 -2.001,1.003 v 0 c -0.624,0.147 -1.276,0.195 -1.926,0.195 v 0 z"
         id="path6065"
         inkscape:connector-curvature="0" /></clipPath><clipPath
       clipPathUnits="userSpaceOnUse"
       id="clipPath6193"><path
         d="m 892.244,912.206 v -84.79 -1.916 c 0.642,0 1.238,0.089 1.793,0.282 v 0 c 0.648,0.227 1.24,0.596 1.781,1.135 v 0 c 1.457,1.454 1.425,3.089 1.425,5.015 v 0 76.28 c 0,1.511 0.167,2.991 -1.072,4.09 v 0 c -0.589,0.524 -1.275,0.832 -2.001,1.004 v 0 c -0.624,0.146 -1.276,0.194 -1.926,0.194 v 0 z"
         id="path6191"
         inkscape:connector-curvature="0" /></clipPath><clipPath
       clipPathUnits="userSpaceOnUse"
       id="clipPath6319"><path
         d="m 383.238,1276 h -1.487 c -16.531,0 -32.023,-4.458 -45.337,-12.236 v 0 c -5.889,-3.441 -11.352,-7.531 -16.289,-12.173 v 0 c -0.692,-0.649 -1.374,-1.31 -2.043,-1.982 v 0 c -0.891,-0.891 -1.764,-1.802 -2.618,-2.731 v 0 c -1.978,-2.155 -3.855,-4.406 -5.621,-6.746 v 0 c -3.562,-4.725 -6.67,-9.813 -9.257,-15.198 v 0 c -4.886,-10.164 -7.917,-21.387 -8.657,-33.231 v 0 c -0.117,-1.886 -0.178,-3.788 -0.178,-5.703 v 0 -9.723 V 151 c 0,-15.906 4.128,-30.847 11.367,-43.814 v 0 c 3.516,-6.299 7.77,-12.131 12.639,-17.381 v 0 c 0.764,-0.824 1.543,-1.633 2.338,-2.427 v 0 c 0.67,-0.671 1.352,-1.331 2.043,-1.981 v 0 c 4.939,-4.64 10.402,-8.73 16.293,-12.169 v 0 C 349.74,65.454 365.226,61 381.751,61 v 0 h 1.506 419.494 c 1.18,0 2.354,0.023 3.522,0.068 v 0 c 16.191,0.623 31.287,5.523 44.186,13.602 v 0 c 5.189,3.251 10.025,7.016 14.433,11.223 v 0 c 0.506,0.484 1.006,0.973 1.5,1.467 v 0 c 0.793,0.794 1.572,1.603 2.336,2.426 v 0 c 4.873,5.25 9.127,11.082 12.647,17.38 v 0 c 7.247,12.971 11.376,27.919 11.376,43.834 v 0 1025.344 9.656 c 0,1.938 -0.06,3.861 -0.181,5.768 v 0 c -0.748,11.843 -3.789,23.065 -8.682,33.227 v 0 c -2.592,5.382 -5.703,10.467 -9.27,15.19 v 0 c -1.765,2.339 -3.644,4.59 -5.625,6.742 v 0 c -0.855,0.928 -1.728,1.838 -2.619,2.73 v 0 c -0.496,0.495 -0.995,0.984 -1.502,1.466 v 0 c -4.408,4.208 -9.244,7.972 -14.435,11.221 v 0 c -12.902,8.075 -27.998,12.971 -44.189,13.589 v 0 c -1.16,0.045 -2.325,0.067 -3.497,0.067 v 0 z"
         id="path6317"
         inkscape:connector-curvature="0" /></clipPath><clipPath
       clipPathUnits="userSpaceOnUse"
       id="clipPath7297"><path
         d="m 352.004,1175.5 v -108.095 c 0,-24.2 19.566,-44 43.482,-44 v 0 c 23.915,0 43.481,19.8 43.481,44 v 0 108.095 c 0,24.2 -19.566,44 -43.481,44 v 0 c -23.916,0 -43.482,-19.8 -43.482,-44"
         id="path7295"
         inkscape:connector-curvature="0" /></clipPath><linearGradient
       x1="0"
       y1="0"
       x2="1"
       y2="0"
       gradientUnits="userSpaceOnUse"
       gradientTransform="matrix(86.962891,0,0,-86.962891,352.00439,1121.4526)"
       spreadMethod="pad"
       id="linearGradient7323"><stop
         style="stop-opacity:1;stop-color:#ded9d6"
         offset="0"
         id="stop7303" /><stop
         style="stop-opacity:1;stop-color:#ded9d6"
         offset="0"
         id="stop7305" /><stop
         style="stop-opacity:1;stop-color:#ded9d6"
         offset="0"
         id="stop7307" /><stop
         style="stop-opacity:1;stop-color:#ded9d6"
         offset="0.04439189"
         id="stop7309" /><stop
         style="stop-opacity:1;stop-color:#8b878d"
         offset="0.264045"
         id="stop7311" /><stop
         style="stop-opacity:1;stop-color:#f3f4f4"
         offset="0.522472"
         id="stop7313" /><stop
         style="stop-opacity:1;stop-color:#f3f4f4"
         offset="0.58197592"
         id="stop7315" /><stop
         style="stop-opacity:1;stop-color:#807b80"
         offset="0.876404"
         id="stop7317" /><stop
         style="stop-opacity:1;stop-color:#d1d3d4"
         offset="1"
         id="stop7319" /><stop
         style="stop-opacity:1;stop-color:#d1d3d4"
         offset="1"
         id="stop7321" /></linearGradient><clipPath
       clipPathUnits="userSpaceOnUse"
       id="clipPath7333"><path
         d="M 0,1337 H 2071.01 V 0 H 0 Z"
         id="path7331"
         inkscape:connector-curvature="0" /></clipPath><clipPath
       clipPathUnits="userSpaceOnUse"
       id="clipPath7349"><path
         d="m 383.908,1178.01 c 0,-6.431 5.213,-11.644 11.644,-11.644 v 0 c 6.432,0 11.646,5.213 11.646,11.644 v 0 c 0,6.432 -5.214,11.645 -11.646,11.645 v 0 c -6.431,0 -11.644,-5.213 -11.644,-11.645"
         id="path7347"
         inkscape:connector-curvature="0" /></clipPath><radialGradient
       fx="0"
       fy="0"
       cx="0"
       cy="0"
       r="1"
       gradientUnits="userSpaceOnUse"
       gradientTransform="matrix(11.644774,0,0,-11.644774,395.55273,1178.0103)"
       spreadMethod="pad"
       id="radialGradient7359"><stop
         style="stop-opacity:1;stop-color:#ffffff"
         offset="0"
         id="stop7355" /><stop
         style="stop-opacity:1;stop-color:#0c1526"
         offset="1"
         id="stop7357" /></radialGradient><clipPath
       clipPathUnits="userSpaceOnUse"
       id="clipPath7369"><path
         d="m 392.46,1187.875 c -0.398,-0.126 -0.79,-0.276 -1.171,-0.447 v 0 c -1.123,-0.509 -2.157,-1.215 -3.041,-2.097 v 0 c -0.848,-0.846 -1.549,-1.837 -2.063,-2.934 v 0 c -0.235,-0.501 -0.432,-1.024 -0.584,-1.564 v 0 c -0.262,-0.927 -0.387,-1.876 -0.384,-2.821 v 0 c 0.005,-1.021 0.158,-2.035 0.454,-3.008 v 0 c 0.488,-1.608 1.361,-3.101 2.577,-4.316 v 0 c 0.884,-0.881 1.918,-1.587 3.041,-2.095 v 0 c 0.381,-0.173 0.773,-0.322 1.171,-0.447 v 0 c 1.146,-0.359 2.356,-0.523 3.57,-0.467 v 0 c 0.76,0.035 1.499,0.151 2.209,0.342 v 0 c 0.777,0.208 1.519,0.505 2.212,0.878 v 0 c 0.888,0.479 1.698,1.083 2.406,1.789 v 0 c 1.216,1.215 2.09,2.708 2.578,4.316 v 0 c 0.295,0.973 0.45,1.987 0.453,3.008 v 0 c 0.004,0.945 -0.121,1.894 -0.384,2.821 v 0 c -0.152,0.54 -0.348,1.063 -0.583,1.564 v 0 c -0.515,1.097 -1.216,2.088 -2.064,2.934 v 0 c -0.708,0.707 -1.518,1.312 -2.406,1.79 v 0 c -0.693,0.373 -1.435,0.67 -2.212,0.879 v 0 c -0.71,0.19 -1.449,0.307 -2.209,0.341 v 0 c -0.158,0.01 -0.315,0.011 -0.472,0.011 v 0 c -1.055,0 -2.1,-0.164 -3.098,-0.477"
         id="path7367"
         inkscape:connector-curvature="0" /></clipPath><clipPath
       clipPathUnits="userSpaceOnUse"
       id="clipPath8029"><path
         d="M 0,1337 H 2071.01 V 0 H 0 Z"
         id="path8027"
         inkscape:connector-curvature="0" /></clipPath><clipPath
       clipPathUnits="userSpaceOnUse"
       id="clipPath8041"><path
         d="m 383.908,1064.011 c 0,-6.433 5.213,-11.646 11.644,-11.646 v 0 c 6.432,0 11.646,5.213 11.646,11.646 v 0 c 0,6.431 -5.214,11.644 -11.646,11.644 v 0 c -6.431,0 -11.644,-5.213 -11.644,-11.644"
         id="path8039"
         inkscape:connector-curvature="0" /></clipPath><radialGradient
       fx="0"
       fy="0"
       cx="0"
       cy="0"
       r="1"
       gradientUnits="userSpaceOnUse"
       gradientTransform="matrix(11.644774,0,0,-11.644774,395.55273,1064.0103)"
       spreadMethod="pad"
       id="radialGradient8051"><stop
         style="stop-opacity:1;stop-color:#ffffff"
         offset="0"
         id="stop8047" /><stop
         style="stop-opacity:1;stop-color:#0c1526"
         offset="1"
         id="stop8049" /></radialGradient><clipPath
       clipPathUnits="userSpaceOnUse"
       id="clipPath8061"><path
         d="m 392.46,1073.875 c -0.398,-0.126 -0.79,-0.276 -1.171,-0.448 v 0 c -1.123,-0.507 -2.157,-1.214 -3.041,-2.096 v 0 c -0.848,-0.845 -1.549,-1.838 -2.063,-2.935 v 0 c -0.235,-0.5 -0.432,-1.022 -0.584,-1.563 v 0 c -0.262,-0.926 -0.387,-1.877 -0.384,-2.822 v 0 c 0.005,-1.02 0.158,-2.034 0.454,-3.007 v 0 c 0.488,-1.609 1.361,-3.102 2.577,-4.315 v 0 c 0.884,-0.881 1.918,-1.588 3.041,-2.096 v 0 c 0.381,-0.172 0.773,-0.321 1.171,-0.447 v 0 c 1.146,-0.359 2.356,-0.523 3.57,-0.467 v 0 c 0.76,0.035 1.499,0.152 2.209,0.342 v 0 c 0.777,0.208 1.519,0.505 2.212,0.878 v 0 c 0.888,0.479 1.698,1.084 2.406,1.79 v 0 c 1.216,1.213 2.09,2.706 2.578,4.315 v 0 c 0.295,0.973 0.45,1.987 0.453,3.007 v 0 c 0.004,0.945 -0.121,1.896 -0.384,2.822 v 0 c -0.152,0.541 -0.348,1.063 -0.583,1.563 v 0 c -0.515,1.097 -1.216,2.09 -2.064,2.935 v 0 c -0.708,0.707 -1.518,1.311 -2.406,1.79 v 0 c -0.693,0.374 -1.435,0.671 -2.212,0.879 v 0 c -0.71,0.19 -1.449,0.307 -2.209,0.342 v 0 c -0.156,0.01 -0.311,0.01 -0.466,0.01 v 0 c -1.057,0 -2.105,-0.164 -3.104,-0.477"
         id="path8059"
         inkscape:connector-curvature="0" /></clipPath><clipPath
       clipPathUnits="userSpaceOnUse"
       id="clipPath8721"><path
         d="m 377.158,1120.764 c 0,-10.16 8.235,-18.394 18.394,-18.394 v 0 c 10.16,0 18.396,8.234 18.396,18.394 v 0 c 0,10.159 -8.236,18.394 -18.396,18.394 v 0 c -10.159,0 -18.394,-8.235 -18.394,-18.394"
         id="path8719"
         inkscape:connector-curvature="0" /></clipPath><linearGradient
       x1="0"
       y1="0"
       x2="1"
       y2="0"
       gradientUnits="userSpaceOnUse"
       gradientTransform="matrix(36.791016,0,0,-36.791016,377.15723,1120.7637)"
       spreadMethod="pad"
       id="linearGradient8747"><stop
         style="stop-opacity:1;stop-color:#ded9d6"
         offset="0"
         id="stop8727" /><stop
         style="stop-opacity:1;stop-color:#ded9d6"
         offset="0"
         id="stop8729" /><stop
         style="stop-opacity:1;stop-color:#ded9d6"
         offset="0"
         id="stop8731" /><stop
         style="stop-opacity:1;stop-color:#ded9d6"
         offset="0.04439189"
         id="stop8733" /><stop
         style="stop-opacity:1;stop-color:#8b878d"
         offset="0.264045"
         id="stop8735" /><stop
         style="stop-opacity:1;stop-color:#f3f4f4"
         offset="0.522472"
         id="stop8737" /><stop
         style="stop-opacity:1;stop-color:#f3f4f4"
         offset="0.58197592"
         id="stop8739" /><stop
         style="stop-opacity:1;stop-color:#807b80"
         offset="0.876404"
         id="stop8741" /><stop
         style="stop-opacity:1;stop-color:#d1d3d4"
         offset="1"
         id="stop8743" /><stop
         style="stop-opacity:1;stop-color:#d1d3d4"
         offset="1"
         id="stop8745" /></linearGradient><clipPath
       clipPathUnits="userSpaceOnUse"
       id="clipPath8757"><path
         d="m 390.104,1136.343 c -2.367,-0.828 -4.487,-2.179 -6.222,-3.916 v 0 c -1.93,-1.931 -3.384,-4.338 -4.169,-7.03 v 0 c -0.43,-1.47 -0.66,-3.025 -0.66,-4.633 v 0 c 0,-1.419 0.178,-2.794 0.515,-4.107 v 0 c 0.744,-2.905 2.259,-5.501 4.314,-7.556 v 0 c 1.735,-1.737 3.855,-3.089 6.222,-3.916 v 0 c 1.706,-0.597 3.539,-0.921 5.449,-0.921 v 0 c 1.757,0 3.451,0.274 5.041,0.784 v 0 c 2.53,0.811 4.796,2.217 6.63,4.053 v 0 c 2.055,2.055 3.569,4.651 4.314,7.556 v 0 c 0.336,1.313 0.514,2.688 0.514,4.107 v 0 c 0,1.608 -0.23,3.163 -0.659,4.633 v 0 c -0.786,2.692 -2.239,5.099 -4.169,7.03 v 0 c -1.834,1.836 -4.1,3.242 -6.63,4.052 v 0 c -1.59,0.51 -3.284,0.784 -5.041,0.784 v 0 c -1.91,0 -3.743,-0.324 -5.449,-0.92"
         id="path8755"
         inkscape:connector-curvature="0" /></clipPath><clipPath
       clipPathUnits="userSpaceOnUse"
       id="clipPath8905"><path
         d="m 414.535,1094.765 c 0,-2.615 2.12,-4.735 4.735,-4.735 v 0 c 2.615,0 4.735,2.12 4.735,4.735 v 0 c 0,2.615 -2.12,4.735 -4.735,4.735 v 0 c -2.615,0 -4.735,-2.12 -4.735,-4.735"
         id="path8903"
         inkscape:connector-curvature="0" /></clipPath><radialGradient
       fx="0"
       fy="0"
       cx="0"
       cy="0"
       r="1"
       gradientUnits="userSpaceOnUse"
       gradientTransform="matrix(4.7351074,0,0,-4.7351074,419.27002,1094.7646)"
       spreadMethod="pad"
       id="radialGradient8925"><stop
         style="stop-opacity:1;stop-color:#ffffff"
         offset="0"
         id="stop8911" /><stop
         style="stop-opacity:1;stop-color:#ffffff"
         offset="0"
         id="stop8913" /><stop
         style="stop-opacity:1;stop-color:#ffffff"
         offset="0"
         id="stop8915" /><stop
         style="stop-opacity:1;stop-color:#ffffff"
         offset="0.08783927"
         id="stop8917" /><stop
         style="stop-opacity:1;stop-color:#adaeb0"
         offset="0.522472"
         id="stop8919" /><stop
         style="stop-opacity:1;stop-color:#adaeb0"
         offset="0.63951989"
         id="stop8921" /><stop
         style="stop-opacity:1;stop-color:#465053"
         offset="1"
         id="stop8923" /></radialGradient><clipPath
       clipPathUnits="userSpaceOnUse"
       id="clipPath8935"><path
         d="M 0,1337 H 2071.01 V 0 H 0 Z"
         id="path8933"
         inkscape:connector-curvature="0" /></clipPath><clipPath
       clipPathUnits="userSpaceOnUse"
       id="clipPath8943"><path
         d="M 536.549,982.39 H 654.481 V 837.728 H 536.549 Z"
         id="path8941"
         inkscape:connector-curvature="0" /></clipPath><clipPath
       id="clipPath9163"
       clipPathUnits="userSpaceOnUse"><path
         inkscape:connector-curvature="0"
         id="path9161"
         d="M 0,0 H 500 V 500 H 0 Z" /></clipPath><radialGradient
       id="radialGradient9173"
       spreadMethod="pad"
       gradientTransform="matrix(250,0,0,-250,250,250)"
       gradientUnits="userSpaceOnUse"
       r="1"
       cy="0"
       cx="0"
       fy="0"
       fx="0"><stop
         id="stop9169"
         offset="0"
         style="stop-opacity:1;stop-color:#00ab95" /><stop
         id="stop9171"
         offset="1"
         style="stop-opacity:1;stop-color:#008995" /></radialGradient><clipPath
       id="clipPath9183"
       clipPathUnits="userSpaceOnUse"><path
         inkscape:connector-curvature="0"
         id="path9181"
         d="M 0,500 H 500 V 0 H 0 Z" /></clipPath><clipPath
       id="clipPath9191"
       clipPathUnits="userSpaceOnUse"><path
         inkscape:connector-curvature="0"
         id="path9189"
         d="M 182.9,469.134 H 317.1 V 456.102 H 182.9 Z" /></clipPath><clipPath
       id="clipPath9207"
       clipPathUnits="userSpaceOnUse"><path
         inkscape:connector-curvature="0"
         id="path9205"
         d="m 221.668,455.48 h 56.651 v -12.96 h -56.651 z" /></clipPath><clipPath
       id="clipPath9255"
       clipPathUnits="userSpaceOnUse"><path
         inkscape:connector-curvature="0"
         id="path9253"
         d="M 87.7697,197.814 H 412.23 V 155.035 H 87.7697 Z" /></clipPath><clipPath
       id="clipPath9595"
       clipPathUnits="userSpaceOnUse"><path
         inkscape:connector-curvature="0"
         id="path9593"
         d="m 246.841,385.563 h 4.291 v -4.291 h -4.291 z" /></clipPath><clipPath
       id="clipPath9621"
       clipPathUnits="userSpaceOnUse"><path
         inkscape:connector-curvature="0"
         id="path9619"
         d="M 0,500 H 500 V 0 H 0 Z" /></clipPath><clipPath
       id="clipPath9635"
       clipPathUnits="userSpaceOnUse"><path
         inkscape:connector-curvature="0"
         id="path9633"
         d="M 0,500 H 500 V 0 H 0 Z" /></clipPath><clipPath
       id="clipPath9649"
       clipPathUnits="userSpaceOnUse"><path
         inkscape:connector-curvature="0"
         id="path9647"
         d="M 0,500 H 500 V 0 H 0 Z" /></clipPath><clipPath
       id="clipPath9663"
       clipPathUnits="userSpaceOnUse"><path
         inkscape:connector-curvature="0"
         id="path9661"
         d="M 0,500 H 500 V 0 H 0 Z" /></clipPath><clipPath
       id="clipPath9677"
       clipPathUnits="userSpaceOnUse"><path
         inkscape:connector-curvature="0"
         id="path9675"
         d="M 0,500 H 500 V 0 H 0 Z" /></clipPath><clipPath
       id="clipPath9691"
       clipPathUnits="userSpaceOnUse"><path
         inkscape:connector-curvature="0"
         id="path9689"
         d="M 0,500 H 500 V 0 H 0 Z" /></clipPath><clipPath
       id="clipPath9705"
       clipPathUnits="userSpaceOnUse"><path
         inkscape:connector-curvature="0"
         id="path9703"
         d="M 0,500 H 500 V 0 H 0 Z" /></clipPath><clipPath
       id="clipPath9719"
       clipPathUnits="userSpaceOnUse"><path
         inkscape:connector-curvature="0"
         id="path9717"
         d="M 0,500 H 500 V 0 H 0 Z" /></clipPath><clipPath
       id="clipPath9739"
       clipPathUnits="userSpaceOnUse"><path
         inkscape:connector-curvature="0"
         id="path9737"
         d="M 120.234,376.016 H 369.137 V 208.921 H 120.234 Z" /></clipPath><clipPath
       id="clipPath9755"
       clipPathUnits="userSpaceOnUse"><path
         inkscape:connector-curvature="0"
         id="path9753"
         d="M 0,500 H 500 V 0 H 0 Z" /></clipPath></defs><sodipodi:namedview
     pagecolor="#ffffff"
     bordercolor="#666666"
     borderopacity="1"
     objecttolerance="10"
     gridtolerance="10"
     guidetolerance="10"
     inkscape:pageopacity="0"
     inkscape:pageshadow="2"
     inkscape:window-width="1336"
     inkscape:window-height="713"
     id="namedview871"
     showgrid="false"
     inkscape:snap-global="true"
     inkscape:snap-bbox="true"
     inkscape:bbox-paths="true"
     inkscape:bbox-nodes="true"
     inkscape:snap-bbox-edge-midpoints="true"
     inkscape:snap-bbox-midpoints="true"
     inkscape:object-paths="true"
     inkscape:snap-intersection-paths="true"
     inkscape:snap-smooth-nodes="true"
     inkscape:snap-midpoints="true"
     inkscape:snap-object-midpoints="true"
     inkscape:snap-center="true"
     inkscape:snap-text-baseline="true"
     inkscape:snap-page="true"
     inkscape:zoom="1.6327224"
     inkscape:cx="293.41403"
     inkscape:cy="167.67778"
     inkscape:window-x="12"
     inkscape:window-y="37"
     inkscape:window-maximized="1"
     inkscape:current-layer="g877" /><g
     id="g877"
     inkscape:groupmode="layer"
     inkscape:label="iphone"
     transform="matrix(1.3333333,0,0,-1.3333333,-40.466001,1328.4451)"><g
       id="g9221"
       transform="translate(379.0159,807.36836)"><path
         d="M 0,0 C -0.972,1.389 -5.403,2.501 -9.908,2.501 H -287.6 c -4.505,0 -8.936,-1.112 -9.908,-2.501 l -50.785,-69.471 c -1.507,-2.151 1.682,-11.966 7.144,-11.966 h 384.79 c 5.462,0 8.65,9.815 7.144,11.966 z"
         style="fill:#f1f2f2;fill-opacity:1;fill-rule:nonzero;stroke:none"
         id="path9223"
         inkscape:connector-curvature="0" /></g><g
       id="g9225"
       transform="translate(379.0159,807.36836)"><path
         d="M 0,0 C -0.972,1.389 -5.403,2.501 -9.908,2.501 H -287.6 c -4.505,0 -8.936,-1.112 -9.908,-2.501 l -50.785,-69.471 c -1.507,-2.151 1.682,-3.921 7.144,-3.921 h 384.79 c 5.462,0 8.65,1.77 7.144,3.921 z"
         style="fill:#d1d3d4;fill-opacity:1;fill-rule:nonzero;stroke:none"
         id="path9227"
         inkscape:connector-curvature="0" /></g><g
       id="g9229"
       transform="translate(252.92661,730.19636)"><path
         d="m 0,0 h -45.33 c -2.67,0 -4.835,2.165 -4.835,4.835 h 55 C 4.835,2.165 2.67,0 0,0"
         style="fill:#d1d3d4;fill-opacity:1;fill-rule:nonzero;stroke:none"
         id="path9231"
         inkscape:connector-curvature="0" /></g><g
       id="g1729"><g
         transform="translate(91.41601,809.86976)"
         id="g9233"><path
           inkscape:connector-curvature="0"
           id="path9235"
           style="fill:#a9acad;fill-opacity:1;fill-rule:nonzero;stroke:none"
           d="m 0,0 c -1.659,0 -3.302,-0.151 -4.767,-0.409 1.21,-0.745 3.705,-1.252 6.702,-1.252 h 273.822 c 2.996,0 5.492,0.506 6.702,1.252 C 280.994,-0.151 279.35,0 277.691,0 Z" /></g><g
         transform="translate(331.8119,809.86976)"
         id="g9237"><path
           inkscape:connector-curvature="0"
           id="path9239"
           style="fill:#3f3c3a;fill-opacity:1;fill-rule:nonzero;stroke:none"
           d="m 0,0 h -203.051 l -0.907,-1.828 c -0.23,-0.464 0.815,-0.842 2.336,-0.842 H -1.496 c 1.521,0 2.576,0.378 2.357,0.842 z" /></g></g><g
       id="g9241"
       transform="translate(276.40651,739.64286)"><path
         d="m 0,0 -5.608,14.277 c -0.199,0.508 -0.69,0.843 -1.236,0.843 h -78.658 c -0.548,0 -1.04,-0.337 -1.238,-0.847 l -5.55,-14.276 c -0.204,-0.522 0.182,-1.086 0.743,-1.086 H -0.742 C -0.18,-1.089 0.205,-0.523 0,0"
         style="fill:#edeceb;fill-opacity:1;fill-rule:nonzero;stroke:none"
         id="path9243"
         inkscape:connector-curvature="0" /></g><g
       id="g1723"><g
         transform="translate(270.98951,753.43406)"
         id="g9245"><path
           inkscape:connector-curvature="0"
           id="path9247"
           style="fill:#cecece;fill-opacity:1;fill-rule:nonzero;stroke:none"
           d="m 0,0 -0.191,0.486 c -0.199,0.508 -0.69,0.843 -1.236,0.843 h -78.658 c -0.548,0 -1.04,-0.337 -1.238,-0.848 L -81.511,0 Z" /></g><g
         transform="translate(-19.73819,604.90876)"
         id="g9249"><g
           id="g9251" /><g
           id="g9267"><g
             style="opacity:0.10000598"
             id="g9265"
             clip-path="url(#clipPath9255)"><g
               id="g9259"
               transform="translate(410.4149,155.168)"><path
                 inkscape:connector-curvature="0"
                 id="path9257"
                 style="fill:#242424;fill-opacity:1;fill-rule:nonzero;stroke:none"
                 d="m 0,0 h -320.83 c -1.261,0 -2.086,1.304 -1.463,2.312 l 23.288,37.681 c 0.969,1.567 2.739,2.521 4.682,2.521 h 267.817 c 1.942,0 3.713,-0.954 4.681,-2.521 L 1.463,2.312 C 2.087,1.304 1.261,0 0,0" /></g><g
               id="g9263"
               transform="translate(116.0915,197.5488)"><path
                 inkscape:connector-curvature="0"
                 id="path9261"
                 style="fill:#0c0c0c;fill-opacity:1;fill-rule:nonzero;stroke:none"
                 d="m 0,0 c -1.906,0 -3.611,-0.918 -4.561,-2.456 l -23.288,-37.68 c -0.26,-0.42 -0.257,-0.931 0.007,-1.37 0.279,-0.465 0.779,-0.742 1.336,-0.742 h 320.83 c 0.556,0 1.056,0.277 1.336,0.742 0.263,0.439 0.266,0.95 0.006,1.37 l -23.288,37.68 C 271.428,-0.918 269.723,0 267.817,0 Z m 294.324,-42.514 h -320.83 c -0.659,0 -1.249,0.328 -1.579,0.876 -0.314,0.522 -0.316,1.134 -0.005,1.637 l 23.288,37.68 c 1.001,1.62 2.796,2.587 4.802,2.587 h 267.817 c 2.006,0 3.801,-0.967 4.802,-2.587 l 23.288,-37.68 c 0.311,-0.503 0.309,-1.115 -0.005,-1.637 -0.33,-0.548 -0.92,-0.876 -1.578,-0.876" /></g></g></g></g><g
         transform="translate(109.12841,797.49426)"
         id="g9269"><path
           inkscape:connector-curvature="0"
           id="path9271"
           style="fill:#242424;fill-opacity:1;fill-rule:nonzero;stroke:none"
           d="m 0,0 h -13.538 c -1.128,0 -1.834,1.16 -1.272,2.09 l 0.059,0.097 c 0.262,0.433 0.747,0.7 1.272,0.7 h 13.53 c 1.093,0 1.802,-1.095 1.31,-2.022 L 1.31,0.768 C 1.061,0.297 0.554,0 0,0" /></g><g
         transform="translate(105.38051,791.41016)"
         id="g9273"><path
           inkscape:connector-curvature="0"
           id="path9275"
           style="fill:#242424;fill-opacity:1;fill-rule:nonzero;stroke:none"
           d="m 0,0 h -13.466 c -1.128,0 -1.834,1.16 -1.272,2.09 l 1.439,2.382 c 0.262,0.433 0.747,0.7 1.272,0.7 H 1.267 c 1.093,0 1.802,-1.097 1.308,-2.025 L 1.309,0.765 C 1.059,0.296 0.553,0 0,0" /></g><g
         transform="translate(112.07471,785.07666)"
         id="g9277"><path
           inkscape:connector-curvature="0"
           id="path9279"
           style="fill:#242424;fill-opacity:1;fill-rule:nonzero;stroke:none"
           d="m 0,0 h -23.957 c -1.128,0 -1.833,1.16 -1.272,2.09 l 1.609,2.663 c 0.262,0.433 0.747,0.7 1.272,0.7 H 1.304 c 1.073,0 1.782,-1.059 1.33,-1.983 L 1.33,0.806 C 1.089,0.314 0.57,0 0,0" /></g><g
         transform="translate(113.94331,778.29906)"
         id="g9281"><path
           inkscape:connector-curvature="0"
           id="path9283"
           style="fill:#242424;fill-opacity:1;fill-rule:nonzero;stroke:none"
           d="m 0,0 h -29.92 c -1.128,0 -1.833,1.16 -1.272,2.09 l 1.796,2.973 c 0.262,0.433 0.747,0.7 1.272,0.7 H 1.393 c 1.062,0 1.772,-1.04 1.339,-1.963 L 1.34,0.827 C 1.104,0.324 0.579,0 0,0" /></g><g
         transform="translate(99.94101,771.23216)"
         id="g9285"><path
           inkscape:connector-curvature="0"
           id="path9287"
           style="fill:#242424;fill-opacity:1;fill-rule:nonzero;stroke:none"
           d="m 0,0 h -20.187 c -1.128,0 -1.833,1.16 -1.272,2.09 l 1.997,3.304 c 0.261,0.433 0.746,0.7 1.271,0.7 H 1.688 C 2.771,6.094 3.48,5.016 3.007,4.09 L 1.319,0.785 C 1.074,0.305 0.562,0 0,0" /></g><g
         transform="translate(90.04561,762.57176)"
         id="g9289"><path
           inkscape:connector-curvature="0"
           id="path9291"
           style="fill:#242424;fill-opacity:1;fill-rule:nonzero;stroke:none"
           d="m 0,0 h -15.523 c -1.128,0 -1.834,1.16 -1.272,2.09 l 2.918,4.831 c 0.262,0.433 0.747,0.7 1.272,0.7 H 2.569 c 1.093,0 1.802,-1.097 1.309,-2.025 L 1.309,0.765 C 1.059,0.296 0.553,0 0,0" /></g><g
         transform="translate(112.00721,762.57176)"
         id="g9293"><path
           inkscape:connector-curvature="0"
           id="path9295"
           style="fill:#242424;fill-opacity:1;fill-rule:nonzero;stroke:none"
           d="m 0,0 h -15.628 c -1.088,0 -1.797,1.086 -1.315,2.013 l 2.512,4.831 c 0.248,0.476 0.757,0.777 1.315,0.777 H 2.163 C 3.214,7.621 3.924,6.6 3.512,5.68 L 1.35,0.849 C 1.119,0.334 0.588,0 0,0" /></g><g
         transform="translate(134.07791,762.57176)"
         id="g9297"><path
           inkscape:connector-curvature="0"
           id="path9299"
           style="fill:#242424;fill-opacity:1;fill-rule:nonzero;stroke:none"
           d="m 0,0 h -15.719 c -1.046,0 -1.755,1.01 -1.355,1.929 l 2.104,4.831 c 0.227,0.521 0.761,0.861 1.355,0.861 H 1.754 c 1.008,0 1.716,-0.944 1.387,-1.85 L 1.386,0.94 C 1.182,0.377 0.626,0 0,0" /></g><g
         transform="translate(298.34121,762.57176)"
         id="g9301"><path
           inkscape:connector-curvature="0"
           id="path9303"
           style="fill:#242424;fill-opacity:1;fill-rule:nonzero;stroke:none"
           d="m 0,0 h -21.332 c -0.718,0 -1.33,0.494 -1.447,1.168 l -0.839,4.831 c -0.148,0.849 0.542,1.622 1.447,1.622 H -1.29 c 0.671,0 1.256,-0.433 1.422,-1.052 L 1.422,1.738 C 1.657,0.857 0.957,0 0,0" /></g><g
         transform="translate(320.29761,762.57176)"
         id="g9305"><path
           inkscape:connector-curvature="0"
           id="path9307"
           style="fill:#242424;fill-opacity:1;fill-rule:nonzero;stroke:none"
           d="m 0,0 h -15.819 c -0.665,0 -1.247,0.426 -1.417,1.037 l -1.348,4.831 c -0.247,0.885 0.455,1.753 1.417,1.753 h 15.469 c 0.631,0 1.191,-0.384 1.391,-0.953 L 1.391,1.837 C 1.709,0.934 1.002,0 0,0" /></g><g
         transform="translate(364.1675,762.57176)"
         id="g9309"><path
           inkscape:connector-curvature="0"
           id="path9311"
           style="fill:#242424;fill-opacity:1;fill-rule:nonzero;stroke:none"
           d="m 0,0 h -15.652 c -0.588,0 -1.119,0.334 -1.35,0.849 l -2.162,4.831 c -0.412,0.92 0.298,1.941 1.349,1.941 h 15.302 c 0.558,0 1.068,-0.301 1.315,-0.777 L 1.315,2.013 C 1.797,1.086 1.088,0 0,0" /></g><g
         transform="translate(342.2515,762.54806)"
         id="g9313"><path
           inkscape:connector-curvature="0"
           id="path9315"
           style="fill:#242424;fill-opacity:1;fill-rule:nonzero;stroke:none"
           d="m 0,0 h -15.721 c -0.625,0 -1.182,0.377 -1.386,0.939 l -0.4,1.101 c -0.329,0.906 0.378,1.851 1.386,1.851 H -0.48 c 0.593,0 1.128,-0.34 1.355,-0.861 L 1.355,1.929 C 1.755,1.011 1.045,0 0,0" /></g><g
         transform="translate(386.0532,762.54806)"
         id="g9317"><path
           inkscape:connector-curvature="0"
           id="path9319"
           style="fill:#242424;fill-opacity:1;fill-rule:nonzero;stroke:none"
           d="m 0,0 h -15.525 c -0.553,0 -1.059,0.296 -1.309,0.765 l -0.585,1.101 c -0.494,0.928 0.215,2.025 1.309,2.025 h 15.445 c 0.525,0 1.01,-0.267 1.272,-0.7 L 1.272,2.09 C 1.834,1.16 1.128,0 0,0" /></g><g
         transform="translate(161.52891,762.57176)"
         id="g9321"><path
           inkscape:connector-curvature="0"
           id="path9323"
           style="fill:#242424;fill-opacity:1;fill-rule:nonzero;stroke:none"
           d="m 0,0 h -21.318 c -1.002,0 -1.709,0.934 -1.392,1.837 l 1.698,4.831 c 0.2,0.569 0.761,0.953 1.392,0.953 H 1.246 c 0.952,0 1.651,-0.848 1.425,-1.727 L 1.425,1.063 C 1.264,0.439 0.675,0 0,0" /></g><g
         transform="translate(270.98991,762.57176)"
         id="g9325"><path
           inkscape:connector-curvature="0"
           id="path9327"
           style="fill:#242424;fill-opacity:1;fill-rule:nonzero;stroke:none"
           d="m 0,0 h -103.41 c -0.945,0 -1.644,0.838 -1.428,1.713 l 1.19,4.831 c 0.155,0.631 0.747,1.077 1.428,1.077 H -0.783 c 0.724,0 1.34,-0.502 1.45,-1.183 L 1.45,1.607 C 1.587,0.762 0.899,0 0,0" /></g><g
         transform="translate(124.94311,791.41016)"
         id="g9329"><path
           inkscape:connector-curvature="0"
           id="path9331"
           style="fill:#242424;fill-opacity:1;fill-rule:nonzero;stroke:none"
           d="m 0,0 h -13.571 c -1.088,0 -1.797,1.086 -1.315,2.013 l 1.239,2.382 c 0.247,0.476 0.757,0.777 1.314,0.777 H 1.066 c 1.051,0 1.761,-1.021 1.35,-1.941 L 1.35,0.849 C 1.119,0.334 0.588,0 0,0" /></g><g
         transform="translate(144.52001,791.41016)"
         id="g9333"><path
           inkscape:connector-curvature="0"
           id="path9335"
           style="fill:#242424;fill-opacity:1;fill-rule:nonzero;stroke:none"
           d="m 0,0 h -13.662 c -1.046,0 -1.755,1.011 -1.355,1.929 l 1.038,2.382 c 0.227,0.521 0.762,0.861 1.355,0.861 H 0.865 c 1.008,0 1.716,-0.945 1.387,-1.851 L 1.386,0.939 C 1.182,0.377 0.625,0 0,0" /></g><g
         transform="translate(163.81741,791.41016)"
         id="g9337"><path
           inkscape:connector-curvature="0"
           id="path9339"
           style="fill:#242424;fill-opacity:1;fill-rule:nonzero;stroke:none"
           d="m 0,0 h -13.737 c -1.002,0 -1.709,0.935 -1.39,1.839 l 0.84,2.381 c 0.2,0.569 0.76,0.952 1.39,0.952 H 0.667 c 0.964,0 1.666,-0.869 1.418,-1.754 L 1.417,1.036 C 1.246,0.425 0.665,0 0,0" /></g><g
         transform="translate(183.37361,791.41016)"
         id="g9341"><path
           inkscape:connector-curvature="0"
           id="path9343"
           style="fill:#242424;fill-opacity:1;fill-rule:nonzero;stroke:none"
           d="m 0,0 h -13.796 c -0.957,0 -1.658,0.858 -1.421,1.74 l 0.639,2.382 c 0.166,0.618 0.751,1.05 1.421,1.05 H 0.467 c 0.917,0 1.61,-0.793 1.441,-1.651 L 1.442,1.14 C 1.313,0.479 0.706,0 0,0" /></g><g
         transform="translate(202.84771,791.41016)"
         id="g9345"><path
           inkscape:connector-curvature="0"
           id="path9347"
           style="fill:#242424;fill-opacity:1;fill-rule:nonzero;stroke:none"
           d="m 0,0 h -13.838 c -0.911,0 -1.602,0.782 -1.444,1.636 l 0.439,2.382 c 0.123,0.667 0.732,1.154 1.445,1.154 H 0.267 c 0.871,0 1.55,-0.719 1.458,-1.543 L 1.459,1.247 C 1.379,0.538 0.75,0 0,0" /></g><g
         transform="translate(222.36851,791.41016)"
         id="g9349"><path
           inkscape:connector-curvature="0"
           id="path9351"
           style="fill:#242424;fill-opacity:1;fill-rule:nonzero;stroke:none"
           d="m 0,0 h -13.861 c -0.865,0 -1.542,0.708 -1.46,1.527 l 0.239,2.382 c 0.071,0.716 0.704,1.263 1.46,1.263 H 0.066 c 0.825,0 1.488,-0.647 1.466,-1.432 L 1.466,1.358 C 1.445,0.602 0.795,0 0,0" /></g><g
         transform="translate(241.90151,791.41016)"
         id="g9353"><path
           inkscape:connector-curvature="0"
           id="path9355"
           style="fill:#242424;fill-opacity:1;fill-rule:nonzero;stroke:none"
           d="m 0,0 h -13.866 c -0.819,0 -1.479,0.638 -1.467,1.416 l 0.038,2.382 c 0.013,0.762 0.666,1.374 1.467,1.374 h 13.693 c 0.78,0 1.423,-0.58 1.465,-1.32 L 1.465,1.47 C 1.51,0.671 0.841,0 0,0" /></g><g
         transform="translate(261.15421,791.41016)"
         id="g9357"><path
           inkscape:connector-curvature="0"
           id="path9359"
           style="fill:#242424;fill-opacity:1;fill-rule:nonzero;stroke:none"
           d="m 0,0 h -13.852 c -0.774,0 -1.415,0.572 -1.464,1.306 l -0.16,2.382 c -0.054,0.804 0.617,1.484 1.464,1.484 h 13.679 c 0.736,0 1.357,-0.518 1.454,-1.211 L 1.454,1.579 C 1.571,0.743 0.887,0 0,0" /></g><g
         transform="translate(280.66451,791.41016)"
         id="g9361"><path
           inkscape:connector-curvature="0"
           id="path9363"
           style="fill:#242424;fill-opacity:1;fill-rule:nonzero;stroke:none"
           d="m 0,0 h -13.82 c -0.729,0 -1.348,0.51 -1.452,1.196 l -0.361,2.382 c -0.127,0.841 0.559,1.594 1.452,1.594 h 13.648 c 0.692,0 1.29,-0.461 1.434,-1.105 L 1.435,1.686 C 1.629,0.818 0.933,0 0,0" /></g><g
         transform="translate(300.47531,791.41016)"
         id="g9365"><path
           inkscape:connector-curvature="0"
           id="path9367"
           style="fill:#242424;fill-opacity:1;fill-rule:nonzero;stroke:none"
           d="m 0,0 h -13.769 c -0.686,0 -1.28,0.452 -1.431,1.088 l -0.565,2.382 c -0.206,0.872 0.491,1.702 1.431,1.702 h 13.597 c 0.65,0 1.223,-0.408 1.407,-1.001 L 1.407,1.789 C 1.684,0.895 0.979,0 0,0" /></g><g
         transform="translate(319.70211,791.41016)"
         id="g9369"><path
           inkscape:connector-curvature="0"
           id="path9371"
           style="fill:#242424;fill-opacity:1;fill-rule:nonzero;stroke:none"
           d="m 0,0 h -13.703 c -0.645,0 -1.215,0.401 -1.403,0.989 l -0.763,2.382 c -0.287,0.896 0.418,1.801 1.404,1.801 h 13.53 c 0.612,0 1.16,-0.362 1.374,-0.907 L 1.374,1.883 C 1.732,0.971 1.023,0 0,0" /></g><g
         transform="translate(132.17811,785.07666)"
         id="g9373"><path
           inkscape:connector-curvature="0"
           id="path9375"
           style="fill:#242424;fill-opacity:1;fill-rule:nonzero;stroke:none"
           d="m 0,0 h -14.078 c -1.067,0 -1.776,1.049 -1.335,1.972 l 1.273,2.664 c 0.238,0.498 0.76,0.817 1.335,0.817 H 1.08 c 1.029,0 1.739,-0.983 1.368,-1.896 L 1.369,0.893 C 1.15,0.355 0.606,0 0,0" /></g><g
         transform="translate(152.28491,785.07666)"
         id="g9377"><path
           inkscape:connector-curvature="0"
           id="path9379"
           style="fill:#242424;fill-opacity:1;fill-rule:nonzero;stroke:none"
           d="m 0,0 h -14.161 c -1.024,0 -1.733,0.972 -1.374,1.884 l 1.048,2.663 c 0.215,0.545 0.762,0.906 1.374,0.906 H 0.855 c 0.986,0 1.691,-0.906 1.403,-1.802 L 1.403,0.988 C 1.214,0.401 0.645,0 0,0" /></g><g
         transform="translate(172.10461,785.07666)"
         id="g9381"><path
           inkscape:connector-curvature="0"
           id="path9383"
           style="fill:#242424;fill-opacity:1;fill-rule:nonzero;stroke:none"
           d="m 0,0 h -14.228 c -0.98,0 -1.684,0.896 -1.406,1.79 l 0.826,2.663 c 0.184,0.593 0.757,1 1.407,1 H 0.634 c 0.94,0 1.638,-0.83 1.43,-1.702 L 1.431,1.087 C 1.279,0.451 0.685,0 0,0" /></g><g
         transform="translate(192.19011,785.07666)"
         id="g9385"><path
           inkscape:connector-curvature="0"
           id="path9387"
           style="fill:#242424;fill-opacity:1;fill-rule:nonzero;stroke:none"
           d="m 0,0 h -14.278 c -0.935,0 -1.631,0.82 -1.434,1.688 l 0.602,2.664 c 0.146,0.642 0.743,1.101 1.434,1.101 H 0.409 c 0.895,0 1.581,-0.755 1.452,-1.596 L 1.451,1.193 C 1.346,0.508 0.728,0 0,0" /></g><g
         transform="translate(212.19141,785.07666)"
         id="g9389"><path
           inkscape:connector-curvature="0"
           id="path9391"
           style="fill:#242424;fill-opacity:1;fill-rule:nonzero;stroke:none"
           d="m 0,0 h -14.311 c -0.888,0 -1.572,0.745 -1.453,1.582 l 0.378,2.663 c 0.099,0.692 0.72,1.208 1.454,1.208 H 0.186 c 0.848,0 1.519,-0.682 1.463,-1.487 L 1.464,1.303 C 1.412,0.57 0.772,0 0,0" /></g><g
         transform="translate(232.24081,785.07666)"
         id="g9393"><path
           inkscape:connector-curvature="0"
           id="path9395"
           style="fill:#242424;fill-opacity:1;fill-rule:nonzero;stroke:none"
           d="m 0,0 h -14.325 c -0.842,0 -1.511,0.672 -1.465,1.472 l 0.155,2.663 c 0.043,0.74 0.686,1.318 1.465,1.318 h 14.131 c 0.803,0 1.456,-0.613 1.467,-1.375 L 1.467,1.414 C 1.478,0.636 0.818,0 0,0" /></g><g
         transform="translate(252.30291,785.07666)"
         id="g9397"><path
           inkscape:connector-curvature="0"
           id="path9399"
           style="fill:#242424;fill-opacity:1;fill-rule:nonzero;stroke:none"
           d="m 0,0 h -14.32 c -0.796,0 -1.447,0.604 -1.467,1.36 l -0.07,2.664 c -0.02,0.783 0.642,1.429 1.467,1.429 h 14.127 c 0.757,0 1.389,-0.547 1.46,-1.264 L 1.46,1.525 C 1.541,0.707 0.864,0 0,0" /></g><g
         transform="translate(272.07751,785.07666)"
         id="g9401"><path
           inkscape:connector-curvature="0"
           id="path9403"
           style="fill:#242424;fill-opacity:1;fill-rule:nonzero;stroke:none"
           d="m 0,0 h -14.298 c -0.751,0 -1.381,0.54 -1.459,1.251 l -0.291,2.663 c -0.09,0.823 0.589,1.539 1.459,1.539 h 14.105 c 0.713,0 1.323,-0.488 1.445,-1.157 L 1.445,1.633 C 1.6,0.78 0.91,0 0,0" /></g><g
         transform="translate(292.11711,785.07666)"
         id="g9405"><path
           inkscape:connector-curvature="0"
           id="path9407"
           style="fill:#242424;fill-opacity:1;fill-rule:nonzero;stroke:none"
           d="m 0,0 h -14.256 c -0.708,0 -1.315,0.48 -1.443,1.142 l -0.516,2.664 c -0.166,0.857 0.526,1.647 1.443,1.647 h 14.063 c 0.672,0 1.257,-0.433 1.422,-1.052 L 1.422,1.737 C 1.656,0.856 0.956,0 0,0" /></g><g
         transform="translate(312.46581,785.07666)"
         id="g9409"><path
           inkscape:connector-curvature="0"
           id="path9411"
           style="fill:#242424;fill-opacity:1;fill-rule:nonzero;stroke:none"
           d="m 0,0 h -14.197 c -0.665,0 -1.247,0.426 -1.417,1.037 L -16.358,3.7 c -0.247,0.886 0.454,1.753 1.417,1.753 h 14.004 c 0.631,0 1.191,-0.383 1.391,-0.952 L 1.391,1.838 C 1.709,0.934 1.002,0 0,0" /></g><g
         transform="translate(333.3412,787.53206)"
         id="g9413"><path
           inkscape:connector-curvature="0"
           id="path9415"
           style="fill:#242424;fill-opacity:1;fill-rule:nonzero;stroke:none"
           d="M 0,0 C 0.587,-1.35 -0.189,-2.455 -1.726,-2.455 H -13.5 c -1.537,0 -3.204,1.13 -3.705,2.512 l -0.155,0.429 c -0.501,1.382 0.347,2.512 1.883,2.512 h 11.379 c 1.537,0 3.275,-1.105 3.862,-2.455 z" /></g><g
         transform="translate(352.3982,785.07666)"
         id="g9417"><path
           inkscape:connector-curvature="0"
           id="path9419"
           style="fill:#242424;fill-opacity:1;fill-rule:nonzero;stroke:none"
           d="m 0,0 h -14.031 c -0.588,0 -1.119,0.334 -1.349,0.849 l -1.192,2.663 c -0.412,0.92 0.298,1.941 1.35,1.941 h 13.837 c 0.558,0 1.068,-0.301 1.315,-0.776 L 1.315,2.013 C 1.797,1.086 1.087,0 0,0" /></g><g
         transform="translate(134.59301,778.29906)"
         id="g9421"><path
           inkscape:connector-curvature="0"
           id="path9423"
           style="fill:#242424;fill-opacity:1;fill-rule:nonzero;stroke:none"
           d="m 0,0 h -14.591 c -1.057,0 -1.767,1.03 -1.346,1.951 l 1.358,2.973 c 0.233,0.509 0.762,0.839 1.346,0.839 H 1.142 C 2.161,5.763 2.87,4.799 2.52,3.889 L 1.378,0.916 C 1.166,0.366 0.616,0 0,0" /></g><g
         transform="translate(155.26911,778.29906)"
         id="g9425"><path
           inkscape:connector-curvature="0"
           id="path9427"
           style="fill:#242424;fill-opacity:1;fill-rule:nonzero;stroke:none"
           d="m 0,0 h -14.671 c -1.013,0 -1.721,0.953 -1.382,1.861 l 1.107,2.973 c 0.207,0.557 0.761,0.929 1.383,0.929 H 0.892 c 0.974,0 1.678,-0.887 1.41,-1.778 L 1.41,1.012 C 1.231,0.413 0.655,0 0,0" /></g><g
         transform="translate(175.65011,778.29906)"
         id="g9429"><path
           inkscape:connector-curvature="0"
           id="path9431"
           style="fill:#242424;fill-opacity:1;fill-rule:nonzero;stroke:none"
           d="m 0,0 h -14.733 c -0.969,0 -1.672,0.877 -1.414,1.765 l 0.86,2.973 c 0.175,0.605 0.754,1.025 1.414,1.025 H 0.645 c 0.929,0 1.624,-0.812 1.436,-1.677 L 1.437,1.113 C 1.296,0.465 0.696,0 0,0" /></g><g
         transform="translate(196.30451,778.29906)"
         id="g9433"><path
           inkscape:connector-curvature="0"
           id="path9435"
           style="fill:#242424;fill-opacity:1;fill-rule:nonzero;stroke:none"
           d="m 0,0 h -14.779 c -0.923,0 -1.617,0.801 -1.44,1.662 l 0.61,2.973 c 0.134,0.655 0.738,1.128 1.439,1.128 H 0.394 c 0.883,0 1.566,-0.737 1.456,-1.57 L 1.455,1.22 C 1.363,0.523 0.739,0 0,0" /></g><g
         transform="translate(216.87241,778.29906)"
         id="g9437"><path
           inkscape:connector-curvature="0"
           id="path9439"
           style="fill:#242424;fill-opacity:1;fill-rule:nonzero;stroke:none"
           d="m 0,0 h -14.807 c -0.877,0 -1.558,0.726 -1.458,1.555 l 0.361,2.972 c 0.085,0.704 0.712,1.236 1.457,1.236 H 0.145 c 0.836,0 1.504,-0.665 1.465,-1.46 L 1.465,1.33 C 1.429,0.586 0.784,0 0,0" /></g><g
         transform="translate(237.49021,778.29906)"
         id="g9441"><path
           inkscape:connector-curvature="0"
           id="path9443"
           style="fill:#242424;fill-opacity:1;fill-rule:nonzero;stroke:none"
           d="m 0,0 h -14.817 c -0.83,0 -1.495,0.655 -1.466,1.444 l 0.11,2.973 c 0.028,0.751 0.676,1.346 1.466,1.346 h 14.601 c 0.791,0 1.44,-0.597 1.466,-1.348 L 1.466,1.442 C 1.494,0.654 0.829,0 0,0" /></g><g
         transform="translate(258.12121,778.29906)"
         id="g9445"><path
           inkscape:connector-curvature="0"
           id="path9447"
           style="fill:#242424;fill-opacity:1;fill-rule:nonzero;stroke:none"
           d="m 0,0 h -14.808 c -0.784,0 -1.43,0.587 -1.465,1.332 l -0.141,2.973 c -0.037,0.794 0.63,1.458 1.466,1.458 H -0.356 C 0.39,5.763 1.017,5.23 1.101,4.526 L 1.457,1.553 C 1.556,0.725 0.876,0 0,0" /></g><g
         transform="translate(278.45691,778.29906)"
         id="g9449"><path
           inkscape:connector-curvature="0"
           id="path9451"
           style="fill:#242424;fill-opacity:1;fill-rule:nonzero;stroke:none"
           d="m 0,0 h -14.78 c -0.741,0 -1.365,0.525 -1.456,1.223 l -0.388,2.973 c -0.108,0.832 0.574,1.567 1.456,1.567 h 14.565 c 0.703,0 1.307,-0.475 1.44,-1.131 L 1.44,1.659 C 1.615,0.799 0.922,0 0,0" /></g><g
         transform="translate(299.06541,778.29906)"
         id="g9453"><path
           inkscape:connector-curvature="0"
           id="path9455"
           style="fill:#242424;fill-opacity:1;fill-rule:nonzero;stroke:none"
           d="m 0,0 h -14.735 c -0.697,0 -1.297,0.466 -1.437,1.116 l -0.638,2.973 c -0.186,0.864 0.509,1.674 1.437,1.674 h 14.519 c 0.661,0 1.241,-0.421 1.415,-1.028 L 1.415,1.763 C 1.67,0.875 0.967,0 0,0" /></g><g
         transform="translate(319.99231,778.29906)"
         id="g9457"><path
           inkscape:connector-curvature="0"
           id="path9459"
           style="fill:#242424;fill-opacity:1;fill-rule:nonzero;stroke:none"
           d="m 0,0 h -14.671 c -0.655,0 -1.23,0.413 -1.41,1.012 l -0.893,2.973 c -0.267,0.891 0.436,1.778 1.411,1.778 h 14.455 c 0.621,0 1.175,-0.372 1.382,-0.929 L 1.382,1.861 C 1.721,0.953 1.013,0 0,0" /></g><g
         transform="translate(340.3031,778.29906)"
         id="g9461"><path
           inkscape:connector-curvature="0"
           id="path9463"
           style="fill:#242424;fill-opacity:1;fill-rule:nonzero;stroke:none"
           d="m 0,0 h -14.592 c -0.617,0 -1.167,0.366 -1.378,0.917 l -1.14,2.973 c -0.349,0.91 0.359,1.873 1.378,1.873 h 14.377 c 0.584,0 1.113,-0.33 1.345,-0.84 L 1.346,1.95 C 1.766,1.029 1.056,0 0,0" /></g><g
         transform="translate(121.21721,771.23216)"
         id="g9465"><path
           inkscape:connector-curvature="0"
           id="path9467"
           style="fill:#242424;fill-opacity:1;fill-rule:nonzero;stroke:none"
           d="m 0,0 h -15.058 c -1.077,0 -1.787,1.068 -1.325,1.993 l 1.649,3.304 c 0.243,0.487 0.758,0.797 1.325,0.797 H 1.409 c 1.041,0 1.751,-1.002 1.36,-1.919 L 1.359,0.871 C 1.135,0.344 0.597,0 0,0" /></g><g
         transform="translate(142.49291,771.23216)"
         id="g9469"><path
           inkscape:connector-curvature="0"
           id="path9471"
           style="fill:#242424;fill-opacity:1;fill-rule:nonzero;stroke:none"
           d="m 0,0 h -15.145 c -1.035,0 -1.744,0.991 -1.365,1.907 l 1.371,3.304 c 0.221,0.533 0.762,0.883 1.364,0.883 H 1.131 c 0.997,0 1.703,-0.925 1.395,-1.827 L 1.395,0.963 C 1.198,0.389 0.635,0 0,0" /></g><g
         transform="translate(163.46541,771.23216)"
         id="g9473"><path
           inkscape:connector-curvature="0"
           id="path9475"
           style="fill:#242424;fill-opacity:1;fill-rule:nonzero;stroke:none"
           d="m 0,0 h -15.216 c -0.991,0 -1.697,0.916 -1.399,1.815 l 1.096,3.304 c 0.193,0.58 0.759,0.975 1.399,0.975 H 0.856 c 0.952,0 1.652,-0.849 1.424,-1.729 L 1.424,1.061 C 1.263,0.438 0.675,0 0,0" /></g><g
         transform="translate(184.71991,771.23216)"
         id="g9477"><path
           inkscape:connector-curvature="0"
           id="path9479"
           style="fill:#242424;fill-opacity:1;fill-rule:nonzero;stroke:none"
           d="m 0,0 h -15.271 c -0.946,0 -1.644,0.839 -1.428,1.714 l 0.818,3.305 c 0.156,0.63 0.747,1.075 1.427,1.075 H 0.578 C 1.484,6.094 2.173,5.32 2.025,4.47 L 1.447,1.166 C 1.329,0.493 0.717,0 0,0" /></g><g
         transform="translate(205.88571,771.23216)"
         id="g9481"><path
           inkscape:connector-curvature="0"
           id="path9483"
           style="fill:#242424;fill-opacity:1;fill-rule:nonzero;stroke:none"
           d="m 0,0 h -15.308 c -0.9,0 -1.588,0.764 -1.449,1.609 l 0.54,3.304 c 0.111,0.68 0.726,1.181 1.449,1.181 H 0.3 c 0.86,0 1.536,-0.7 1.462,-1.515 L 1.461,1.275 C 1.396,0.554 0.761,0 0,0" /></g><g
         transform="translate(227.10321,771.23216)"
         id="g9485"><path
           inkscape:connector-curvature="0"
           id="path9487"
           style="fill:#242424;fill-opacity:1;fill-rule:nonzero;stroke:none"
           d="m 0,0 h -15.327 c -0.853,0 -1.527,0.69 -1.462,1.5 l 0.261,3.304 c 0.058,0.728 0.696,1.29 1.463,1.29 H 0.022 c 0.814,0 1.472,-0.63 1.467,-1.404 L 1.467,1.386 C 1.462,0.619 0.806,0 0,0" /></g><g
         transform="translate(248.33461,771.23216)"
         id="g9489"><path
           inkscape:connector-curvature="0"
           id="path9491"
           style="fill:#242424;fill-opacity:1;fill-rule:nonzero;stroke:none"
           d="m 0,0 h -15.327 c -0.807,0 -1.463,0.62 -1.467,1.388 l -0.017,3.304 c -0.004,0.773 0.654,1.402 1.467,1.402 H -0.256 C 0.512,6.094 1.15,5.53 1.206,4.802 L 1.463,1.498 C 1.526,0.689 0.853,0 0,0" /></g><g
         transform="translate(269.26221,771.23216)"
         id="g9493"><path
           inkscape:connector-curvature="0"
           id="path9495"
           style="fill:#242424;fill-opacity:1;fill-rule:nonzero;stroke:none"
           d="m 0,0 h -15.309 c -0.762,0 -1.398,0.556 -1.462,1.278 l -0.291,3.305 c -0.072,0.813 0.603,1.511 1.462,1.511 h 15.069 c 0.725,0 1.341,-0.503 1.45,-1.184 L 1.45,1.606 C 1.586,0.761 0.898,0 0,0" /></g><g
         transform="translate(290.47071,771.23216)"
         id="g9497"><path
           inkscape:connector-curvature="0"
           id="path9499"
           style="fill:#242424;fill-opacity:1;fill-rule:nonzero;stroke:none"
           d="m 0,0 h -15.272 c -0.719,0 -1.331,0.495 -1.448,1.169 l -0.569,3.304 c -0.147,0.85 0.542,1.621 1.447,1.621 h 15.033 c 0.681,0 1.273,-0.447 1.428,-1.078 L 1.428,1.711 C 1.643,0.837 0.945,0 0,0" /></g><g
         transform="translate(312.00681,771.23216)"
         id="g9501"><path
           inkscape:connector-curvature="0"
           id="path9503"
           style="fill:#242424;fill-opacity:1;fill-rule:nonzero;stroke:none"
           d="m 0,0 h -15.217 c -0.675,0 -1.263,0.439 -1.424,1.062 l -0.853,3.305 c -0.227,0.879 0.473,1.727 1.425,1.727 h 14.977 c 0.64,0 1.207,-0.395 1.399,-0.977 L 1.399,1.813 C 1.696,0.915 0.991,0 0,0" /></g><g
         transform="translate(332.9088,771.23216)"
         id="g9505"><path
           inkscape:connector-curvature="0"
           id="path9507"
           style="fill:#242424;fill-opacity:1;fill-rule:nonzero;stroke:none"
           d="m 0,0 h -15.146 c -0.636,0 -1.199,0.389 -1.396,0.964 l -1.127,3.305 c -0.307,0.901 0.399,1.825 1.395,1.825 h 14.907 c 0.603,0 1.144,-0.351 1.365,-0.884 L 1.365,1.906 C 1.743,0.99 1.034,0 0,0" /></g><g
         transform="translate(380.8057,771.23216)"
         id="g9509"><path
           inkscape:connector-curvature="0"
           id="path9511"
           style="fill:#242424;fill-opacity:1;fill-rule:nonzero;stroke:none"
           d="m 0,0 h -41.559 c -0.597,0 -1.135,0.344 -1.359,0.871 l -1.409,3.304 c -0.391,0.917 0.319,1.919 1.359,1.919 h 40.971 c 0.525,0 1.01,-0.267 1.272,-0.7 L 1.272,2.09 C 1.834,1.16 1.128,0 0,0" /></g><g
         transform="translate(361.0604,778.29906)"
         id="g9513"><path
           inkscape:connector-curvature="0"
           id="path9515"
           style="fill:#242424;fill-opacity:1;fill-rule:nonzero;stroke:none"
           d="m 0,0 h -14.497 c -0.579,0 -1.104,0.324 -1.34,0.827 L -17.229,3.8 c -0.433,0.923 0.277,1.963 1.339,1.963 h 14.282 c 0.55,0 1.053,-0.292 1.304,-0.757 L 1.304,2.033 C 1.806,1.105 1.098,0 0,0" /></g><g
         transform="translate(339.1876,791.41016)"
         id="g9517"><path
           inkscape:connector-curvature="0"
           id="path9519"
           style="fill:#242424;fill-opacity:1;fill-rule:nonzero;stroke:none"
           d="m 0,0 h -13.62 c -0.607,0 -1.151,0.355 -1.369,0.894 l -0.963,2.382 c -0.37,0.914 0.34,1.896 1.369,1.896 h 13.447 c 0.576,0 1.098,-0.32 1.336,-0.819 L 1.336,1.971 C 1.776,1.048 1.066,0 0,0" /></g><g
         transform="translate(369.6069,790.48496)"
         id="g9521"><path
           inkscape:connector-curvature="0"
           id="path9523"
           style="fill:#242424;fill-opacity:1;fill-rule:nonzero;stroke:none"
           d="m 0,0 h -12.797 c -1.148,0 -1.925,-0.304 -1.726,-0.678 l 2.165,-4.072 c 0.206,-0.388 1.336,-0.706 2.51,-0.706 h 2.05 c 0.545,0 1.045,-0.287 1.298,-0.745 l 2.885,-5.218 c 0.227,-0.409 1.4,-0.745 2.607,-0.745 h 8.249 c 1.207,0 1.992,0.336 1.745,0.745 L 2.496,-0.678 C 2.27,-0.304 1.148,0 0,0" /></g><g
         transform="translate(368.5999,791.41016)"
         id="g9525"><path
           inkscape:connector-curvature="0"
           id="path9527"
           style="fill:#242424;fill-opacity:1;fill-rule:nonzero;stroke:none"
           d="m 0,0 h -23.206 c -0.57,0 -1.088,0.314 -1.329,0.806 l -1.167,2.382 c -0.453,0.925 0.257,1.984 1.33,1.984 h 22.933 c 0.525,0 1.01,-0.267 1.272,-0.7 L 1.272,2.09 C 1.834,1.16 1.128,0 0,0" /></g><g
         transform="translate(128.72471,797.49426)"
         id="g9529"><path
           inkscape:connector-curvature="0"
           id="path9531"
           style="fill:#242424;fill-opacity:1;fill-rule:nonzero;stroke:none"
           d="m 0,0 h -13.645 c -1.087,0 -1.796,1.084 -1.316,2.011 l 0.05,0.097 c 0.247,0.477 0.757,0.779 1.316,0.779 H 0.043 c 1.049,0 1.759,-1.017 1.352,-1.936 L 1.352,0.853 C 1.123,0.336 0.59,0 0,0" /></g><g
         transform="translate(148.57361,797.49426)"
         id="g9533"><path
           inkscape:connector-curvature="0"
           id="path9535"
           style="fill:#242424;fill-opacity:1;fill-rule:nonzero;stroke:none"
           d="m 0,0 h -13.739 c -1.043,0 -1.752,1.005 -1.358,1.923 l 0.042,0.097 c 0.225,0.524 0.762,0.867 1.358,0.867 H 0.034 c 1.004,0 1.711,-0.937 1.39,-1.841 L 1.39,0.949 C 1.188,0.382 0.629,0 0,0" /></g><g
         transform="translate(168.11991,797.49426)"
         id="g9537"><path
           inkscape:connector-curvature="0"
           id="path9539"
           style="fill:#242424;fill-opacity:1;fill-rule:nonzero;stroke:none"
           d="m 0,0 h -13.815 c -0.997,0 -1.704,0.926 -1.394,1.828 l 0.033,0.097 c 0.197,0.574 0.76,0.962 1.394,0.962 H 0.026 c 0.957,0 1.658,-0.858 1.421,-1.74 L 1.421,1.05 C 1.255,0.432 0.67,0 0,0" /></g><g
         transform="translate(187.95091,797.49426)"
         id="g9541"><path
           inkscape:connector-curvature="0"
           id="path9543"
           style="fill:#242424;fill-opacity:1;fill-rule:nonzero;stroke:none"
           d="m 0,0 h -13.874 c -0.95,0 -1.65,0.846 -1.425,1.725 l 0.024,0.097 c 0.16,0.625 0.749,1.065 1.426,1.065 H 0.018 c 0.909,0 1.599,-0.779 1.445,-1.631 L 1.446,1.158 C 1.324,0.489 0.714,0 0,0" /></g><g
         transform="translate(207.51221,797.49426)"
         id="g9545"><path
           inkscape:connector-curvature="0"
           id="path9547"
           style="fill:#242424;fill-opacity:1;fill-rule:nonzero;stroke:none"
           d="m 0,0 h -13.914 c -0.903,0 -1.591,0.769 -1.448,1.616 l 0.017,0.098 c 0.114,0.676 0.728,1.173 1.448,1.173 H 0.009 c 0.862,0 1.538,-0.703 1.461,-1.52 L 1.461,1.27 C 1.393,0.551 0.759,0 0,0" /></g><g
         transform="translate(227.32351,797.49426)"
         id="g9549"><path
           inkscape:connector-curvature="0"
           id="path9551"
           style="fill:#242424;fill-opacity:1;fill-rule:nonzero;stroke:none"
           d="m 0,0 h -13.934 c -0.855,0 -1.528,0.692 -1.462,1.503 l 0.008,0.097 c 0.059,0.726 0.696,1.287 1.462,1.287 H 0.001 c 0.813,0 1.471,-0.63 1.466,-1.404 V 1.386 C 1.462,0.619 0.807,0 0,0" /></g><g
         transform="translate(246.83141,797.49426)"
         id="g9553"><path
           inkscape:connector-curvature="0"
           id="path9555"
           style="fill:#242424;fill-opacity:1;fill-rule:nonzero;stroke:none"
           d="m 0,0 h -13.934 c -0.807,0 -1.463,0.62 -1.467,1.388 v 0.097 c -0.004,0.773 0.653,1.402 1.466,1.402 h 13.927 c 0.767,0 1.405,-0.562 1.463,-1.289 L 1.463,1.501 C 1.527,0.691 0.854,0 0,0" /></g><g
         transform="translate(266.64771,797.49426)"
         id="g9557"><path
           inkscape:connector-curvature="0"
           id="path9559"
           style="fill:#242424;fill-opacity:1;fill-rule:nonzero;stroke:none"
           d="m 0,0 h -13.914 c -0.76,0 -1.394,0.552 -1.461,1.272 l -0.009,0.097 c -0.076,0.816 0.6,1.518 1.461,1.518 h 13.907 c 0.721,0 1.335,-0.498 1.448,-1.175 L 1.448,1.615 C 1.591,0.767 0.902,0 0,0" /></g><g
         transform="translate(286.16961,797.49426)"
         id="g9561"><path
           inkscape:connector-curvature="0"
           id="path9563"
           style="fill:#242424;fill-opacity:1;fill-rule:nonzero;stroke:none"
           d="m 0,0 h -13.875 c -0.715,0 -1.325,0.49 -1.446,1.16 l -0.017,0.097 c -0.153,0.852 0.537,1.63 1.446,1.63 h 13.867 c 0.677,0 1.267,-0.441 1.426,-1.067 L 1.426,1.723 C 1.649,0.845 0.95,0 0,0" /></g><g
         transform="translate(305.94161,797.49426)"
         id="g9565"><path
           inkscape:connector-curvature="0"
           id="path9567"
           style="fill:#242424;fill-opacity:1;fill-rule:nonzero;stroke:none"
           d="m 0,0 h -13.816 c -0.671,0 -1.256,0.433 -1.421,1.051 l -0.026,0.097 c -0.236,0.882 0.464,1.739 1.421,1.739 h 13.809 c 0.635,0 1.198,-0.389 1.395,-0.963 L 1.395,1.827 C 1.703,0.925 0.997,0 0,0" /></g><g
         transform="translate(325.41231,797.49426)"
         id="g9569"><path
           inkscape:connector-curvature="0"
           id="path9571"
           style="fill:#242424;fill-opacity:1;fill-rule:nonzero;stroke:none"
           d="m 0,0 h -13.74 c -0.63,0 -1.19,0.382 -1.391,0.95 l -0.034,0.097 c -0.32,0.904 0.387,1.84 1.39,1.84 h 13.733 c 0.597,0 1.133,-0.343 1.359,-0.868 L 1.358,1.922 C 1.751,1.004 1.042,0 0,0" /></g><g
         transform="translate(345.1425,797.49426)"
         id="g9573"><path
           inkscape:connector-curvature="0"
           id="path9575"
           style="fill:#242424;fill-opacity:1;fill-rule:nonzero;stroke:none"
           d="m 0,0 h -13.647 c -0.591,0 -1.124,0.337 -1.352,0.855 l -0.043,0.097 c -0.406,0.919 0.304,1.935 1.352,1.935 h 13.64 c 0.559,0 1.07,-0.303 1.316,-0.78 L 1.317,2.01 C 1.795,1.083 1.086,0 0,0" /></g><g
         transform="translate(364.598,797.49426)"
         id="g9577"><path
           inkscape:connector-curvature="0"
           id="path9579"
           style="fill:#242424;fill-opacity:1;fill-rule:nonzero;stroke:none"
           d="m 0,0 h -13.54 c -0.555,0 -1.062,0.298 -1.311,0.769 l -0.051,0.097 c -0.49,0.928 0.219,2.021 1.311,2.021 h 13.532 c 0.526,0 1.012,-0.267 1.273,-0.701 L 1.272,2.089 C 1.833,1.159 1.127,0 0,0" /></g></g><g
       id="g9581"
       transform="translate(93.02991,808.91486)"><path
         d="M 0,0 C -4.09,0 -7.417,3.327 -7.417,7.416 V 171.95 c 0,8.53 7.021,15.469 15.65,15.469 h 257.565 c 8.629,0 15.649,-6.939 15.649,-15.469 V 7.416 C 281.447,3.327 278.12,0 274.031,0 Z"
         style="fill:#f1f2f2;fill-opacity:1;fill-rule:nonzero;stroke:none"
         id="path9583"
         inkscape:connector-curvature="0" /></g><g
       id="g9585"
       transform="translate(358.8277,995.35366)"><path
         d="m 0,0 h -257.565 c -8.101,0 -14.669,-6.487 -14.669,-14.489 v -164.533 c 0,-3.555 2.881,-6.436 6.436,-6.436 H 8.233 c 3.555,0 6.436,2.881 6.436,6.436 V -14.489 C 14.669,-6.487 8.102,0 0,0"
         style="fill:#d1d3d4;fill-opacity:1;fill-rule:nonzero;stroke:none"
         id="path9587"
         inkscape:connector-curvature="0" /></g><g
       id="g9589"
       transform="translate(-19.73819,604.90876)"><g
         id="g9591" /><g
         id="g9603"><g
           clip-path="url(#clipPath9595)"
           id="g9601"
           style="opacity:0.60000598"><g
             transform="translate(248.9867,385.5628)"
             id="g9599"><path
               d="m 0,0 c -1.185,0 -2.145,-0.961 -2.145,-2.145 0,-1.185 0.96,-2.146 2.145,-2.146 1.185,0 2.145,0.961 2.145,2.146 C 2.145,-0.961 1.185,0 0,0"
               style="fill:#231f20;fill-opacity:1;fill-rule:nonzero;stroke:none"
               id="path9597"
               inkscape:connector-curvature="0" /></g></g></g></g><path
       d="M 98.28781,981.41476 H 361.8028 v -168.076 H 98.28781 Z"
       style="fill:#939598;fill-opacity:1;fill-rule:nonzero;stroke:none"
       id="path9605"
       inkscape:connector-curvature="0" /><path
       d="M 98.77781,980.9248 H 361.3118 V 813.82976 H 98.77781 Z"
       style="fill:#35b9ab;fill-opacity:1;fill-rule:nonzero;stroke:none"
       id="path9607"
       inkscape:connector-curvature="0" /><path
       inkscape:connector-curvature="0"
       style="fill:#f9f9f9;fill-opacity:1;fill-rule:nonzero;stroke:none;stroke-width:0.99999994"
       d="m 37.867381,725.93173 c -5.461995,0 -8.65104,-9.81531 -7.144042,-11.96631 l 4.766602,-6.52149 H 425.03438 l 4.76662,6.52149 c 1.506,2.151 -1.68202,11.96631 -7.14405,11.96631 z"
       id="path10927" /><path
       style="fill:#47cabc;fill-opacity:1;stroke:none;stroke-width:0.75px;stroke-linecap:butt;stroke-linejoin:miter;stroke-opacity:1"
       d="m 100.49581,813.82986 248.90291,167.09494 -248.90291,6e-5 z"
       id="path1555"
       inkscape:connector-curvature="0" /></g></svg>