<?xml version="1.0" encoding="UTF-8" standalone="no"?>
<!-- Created with Inkscape (http://www.inkscape.org/) -->

<svg
   xmlns:dc="http://purl.org/dc/elements/1.1/"
   xmlns:cc="http://creativecommons.org/ns#"
   xmlns:rdf="http://www.w3.org/1999/02/22-rdf-syntax-ns#"
   xmlns:svg="http://www.w3.org/2000/svg"
   xmlns="http://www.w3.org/2000/svg"
   xmlns:sodipodi="http://sodipodi.sourceforge.net/DTD/sodipodi-0.dtd"
   xmlns:inkscape="http://www.inkscape.org/namespaces/inkscape"
   width="99.999947"
   height="63.274204"
   viewBox="0 0 26.458319 16.7413"
   version="1.1"
   id="svg8"
   inkscape:version="0.92.4 5da689c313, 2019-01-14"
   sodipodi:docname="opensuse-logo-color.svg">
  <defs
     id="defs2">
    <filter
       style="color-interpolation-filters:sRGB"
       inkscape:label="Drop Shadow"
       id="filter1433-4-95"
       x="-0.11"
       width="1.23"
       height="1.24">
      <feFlood
         flood-opacity="0.28000000000000003"
         flood-color="rgb(0,0,0)"
         result="flood"
         id="feFlood1423-9-0" />
      <feComposite
         in2="SourceGraphic"
         operator="in"
         result="composite1"
         id="feComposite1425-2-4"
         stdDeviation="18.550000000000001" />
      <feGaussianBlur
         in="composite1"
         stdDeviation="18.551192052980134"
         result="blur"
         id="feGaussianBlur1427-0-8" />
      <feOffset
         dx="6"
         dy="6"
         result="offset"
         id="feOffset1429-6-7" />
      <feComposite
         in="SourceGraphic"
         in2="offset"
         operator="over"
         result="composite2"
         id="feComposite1431-8-17" />
    </filter>
  </defs>
  <sodipodi:namedview
     id="base"
     pagecolor="#ffffff"
     bordercolor="#666666"
     borderopacity="1.0"
     inkscape:pageopacity="0.0"
     inkscape:pageshadow="2"
     inkscape:zoom="4.0250004"
     inkscape:cx="45.626834"
     inkscape:cy="32.586796"
     inkscape:document-units="px"
     inkscape:current-layer="layer1"
     showgrid="false"
     units="px"
     inkscape:window-width="1336"
     inkscape:window-height="713"
     inkscape:window-x="12"
     inkscape:window-y="37"
     inkscape:window-maximized="1"
     inkscape:snap-bbox="true"
     inkscape:bbox-paths="true"
     inkscape:bbox-nodes="true"
     inkscape:snap-bbox-edge-midpoints="true"
     inkscape:snap-bbox-midpoints="true"
     inkscape:object-paths="true"
     inkscape:snap-intersection-paths="true"
     inkscape:snap-smooth-nodes="true"
     inkscape:snap-midpoints="true"
     inkscape:snap-object-midpoints="true"
     inkscape:snap-center="true"
     inkscape:snap-text-baseline="true"
     inkscape:snap-page="true"
     inkscape:snap-global="false" />
  <metadata
     id="metadata5">
    <rdf:RDF>
      <cc:Work
         rdf:about="">
        <dc:format>image/svg+xml</dc:format>
        <dc:type
           rdf:resource="http://purl.org/dc/dcmitype/StillImage" />
        <dc:title />
      </cc:Work>
    </rdf:RDF>
  </metadata>
  <g
     inkscape:label="Layer 1"
     inkscape:groupmode="layer"
     id="layer1"
     transform="translate(-4.0607944e-4,-289.57682)">
    <g
       id="g832">
      <path
         id="path4175"
         transform="matrix(0.26458333,0,0,0.26458333,4.0607944e-4,289.57682)"
         d="M 48.337891 0 L 48.339844 0.005859375 C 41.084326 -0.0092587352 31.703699 1.0433855 19.328125 8.6484375 L 18.884766 8.9257812 C 11.859579 13.309958 7.0050798 18.717581 4.46875 25.001953 C 3.6716229 26.978646 2.6013269 31.437701 3.6601562 35.636719 C 4.1190807 37.472511 4.9716164 39.31188 6.1230469 40.962891 C 8.7156936 44.690865 13.071559 47.167241 17.761719 47.585938 C 24.384297 48.177736 29.400131 45.202539 31.183594 39.634766 C 32.411487 35.789663 31.184639 30.153879 26.482422 27.275391 C 22.661844 24.932348 18.543486 25.468947 16.160156 27.042969 C 14.090839 28.415807 12.915301 30.549498 12.939453 32.892578 C 12.987831 37.043293 16.566271 39.251815 19.134766 39.255859 C 19.887595 39.255859 20.636953 39.126989 21.482422 38.849609 C 21.784414 38.757011 22.0689 38.648236 22.378906 38.451172 L 22.476562 38.390625 L 22.541016 38.353516 L 22.517578 38.361328 C 23.105388 37.966745 23.460938 37.317585 23.460938 36.621094 C 23.460938 36.428338 23.432957 36.2358 23.378906 36.042969 C 23.076914 34.992222 22.037959 34.355443 20.958984 34.552734 L 20.814453 34.580078 L 20.617188 34.648438 L 20.332031 34.740234 C 19.740215 34.889148 19.293773 34.900391 19.201172 34.900391 C 18.89918 34.881493 17.414062 34.436891 17.414062 32.814453 L 17.414062 32.796875 C 17.417842 32.201448 17.658274 31.782505 17.791016 31.556641 C 18.245934 30.831992 19.509972 30.122395 21.212891 30.275391 C 23.451309 30.463989 25.062026 31.611926 26.128906 33.773438 C 27.123293 35.786376 26.861976 38.258572 25.460938 40.074219 C 24.072032 41.873841 21.5959 42.636059 18.302734 42.277344 C 14.981372 41.911108 12.175571 40.00289 10.605469 37.027344 C 9.0635629 34.12066 8.9797973 30.670517 10.384766 28.021484 C 13.746343 21.676678 20.093797 21.745854 23.576172 22.345703 C 28.729301 23.235404 33.40886 27.360387 35.490234 32.847656 C 35.820198 33.721256 35.993585 34.418869 36.142578 35.046875 L 36.363281 35.996094 L 42.185547 38.84375 L 42.265625 38.898438 L 42.40625 38.884766 L 42.429688 38.71875 C 42.391892 38.585711 42.308443 38.46451 42.175781 36.833984 C 42.063151 35.392699 41.837194 31.435377 43.830078 29.470703 C 44.599046 28.705802 45.782911 28.026092 46.712891 27.804688 C 50.529424 26.874697 55.4797 27.518805 59.710938 32.410156 C 61.892927 34.938811 62.968479 36.09449 63.503906 36.609375 L 63.685547 36.783203 L 63.910156 36.943359 C 64.083637 37.040115 71.181641 40.308594 71.181641 40.308594 L 71.326172 40.271484 L 71.330078 40.113281 C 71.285858 40.061502 66.832019 34.312512 67.621094 29.578125 C 68.245491 25.801848 71.249976 26.140186 75.404297 26.615234 C 76.761 26.768305 78.305621 26.946138 79.904297 26.982422 C 84.364956 27.008879 89.167808 26.192825 92.130859 24.896484 C 94.047174 24.059092 95.272602 23.503132 96.037109 22.806641 C 96.314905 22.581003 96.458983 22.207083 96.603516 21.8125 L 96.708984 21.546875 C 96.833709 21.224859 97.015893 20.544322 97.091797 20.169922 C 97.129592 20.008914 97.14388 19.826987 97.03125 19.738281 L 96.619141 19.814453 C 95.318794 20.595455 92.069693 22.082143 89.027344 22.142578 C 85.255111 22.218925 77.654866 18.346155 76.861328 17.935547 L 76.789062 17.847656 C 76.595929 17.392752 75.456817 14.694563 75.214844 14.126953 C 80.686031 17.73009 85.222939 19.723344 88.697266 20.029297 C 92.562139 20.375502 95.576982 18.265039 96.865234 17.363281 C 97.118841 17.194336 97.308168 17.053737 97.388672 17.025391 L 97.470703 16.888672 C 97.257538 15.531935 95.234753 8.957048 93.708984 7.3789062 C 93.285855 6.9441094 92.947672 6.5256422 92.263672 6.1230469 C 86.735754 2.9023603 73.616246 0.95368866 73.003906 0.86914062 L 72.900391 0.89648438 L 72.859375 0.98828125 C 72.859375 0.98828125 72.806892 3.7097723 72.802734 4.0117188 C 71.45805 3.5648274 61.720933 0.41765662 52.589844 0.099609375 C 51.259219 0.053121186 49.843741 0.0034015748 48.337891 0 z M 87.527344 6.4257812 C 87.57421 6.4262726 87.621103 6.4280623 87.667969 6.4296875 C 90.763874 6.5385379 93.191012 9.1464009 93.085938 12.238281 C 93.029623 13.735919 92.401717 15.121942 91.306641 16.144531 C 90.21164 17.171089 88.786946 17.700784 87.28125 17.648438 C 84.189767 17.535808 81.766535 14.931724 81.867188 11.839844 C 81.919345 10.342206 82.547439 8.9542296 83.646484 7.9316406 C 84.706899 6.9410265 86.080949 6.410323 87.527344 6.4257812 z M 87.564453 7.9882812 C 86.571087 7.9996198 85.634701 8.3754441 84.90625 9.0585938 C 84.128854 9.7832426 83.672827 10.76909 83.640625 11.835938 C 83.568436 14.038117 85.292107 15.890124 87.490234 15.970703 C 88.561122 16.004719 89.576398 15.625077 90.357422 14.900391 C 91.134406 14.171698 91.584986 13.183935 91.617188 12.121094 C 91.689754 9.918952 89.965844 8.0686851 87.763672 7.9921875 C 87.697152 7.989693 87.630973 7.9875253 87.564453 7.9882812 z M 88.416016 9.9921875 C 88.446252 9.9921875 88.477576 9.9931202 88.507812 9.9941406 C 88.538049 9.9951611 88.567798 9.9967996 88.597656 9.9980469 C 88.627892 10.000088 88.656445 10.00208 88.685547 10.005859 C 88.715783 10.008845 88.744713 10.011845 88.773438 10.015625 C 89.465378 10.109735 90.010755 10.47413 90.152344 10.9375 C 90.155292 10.948839 90.158203 10.955458 90.158203 10.966797 C 90.161983 10.985695 90.170049 11.005737 90.173828 11.025391 C 90.175718 11.036729 90.177545 11.045302 90.177734 11.056641 C 90.180758 11.075538 90.181767 11.096778 90.185547 11.117188 C 90.187096 11.136085 90.1875 11.156947 90.1875 11.177734 C 90.1875 11.196632 90.187096 11.21825 90.185547 11.238281 C 90.183997 11.257179 90.181514 11.279175 90.177734 11.298828 C 90.17626 11.310167 90.174433 11.316786 90.173828 11.328125 C 90.170049 11.347023 90.165762 11.367443 90.158203 11.386719 C 90.155595 11.398057 90.156123 11.404677 90.152344 11.416016 C 90.010611 11.875417 89.465378 12.241147 88.773438 12.335938 C 88.658162 12.351056 88.538094 12.357422 88.416016 12.357422 C 88.385779 12.357422 88.354455 12.358442 88.324219 12.357422 C 88.293983 12.356401 88.264233 12.354725 88.234375 12.353516 C 88.204139 12.351475 88.175587 12.349483 88.146484 12.345703 C 88.116248 12.342717 88.089271 12.337764 88.060547 12.333984 C 88.030311 12.330205 88.002578 12.326045 87.974609 12.322266 C 87.36688 12.217573 86.887144 11.902243 86.716797 11.501953 C 86.713017 11.494394 86.708858 11.484122 86.705078 11.476562 C 86.697519 11.457665 86.689326 11.437244 86.685547 11.417969 C 86.682599 11.40663 86.681514 11.40001 86.677734 11.388672 C 86.673955 11.369774 86.667842 11.349354 86.664062 11.330078 C 86.656503 11.280944 86.648437 11.230333 86.648438 11.179688 C 86.648438 11.128286 86.652724 11.078809 86.664062 11.029297 C 86.667766 11.010399 86.670175 10.990357 86.677734 10.970703 C 86.680342 10.959365 86.681767 10.950792 86.685547 10.939453 C 86.693106 10.920555 86.697519 10.90171 86.705078 10.882812 C 86.708748 10.871474 86.713017 10.863028 86.716797 10.855469 C 86.887254 10.452269 87.36688 10.139358 87.974609 10.035156 C 88.115964 10.012479 88.263085 9.9960938 88.416016 9.9960938 L 88.416016 9.9921875 z M 14.082031 50.246094 C 13.216493 50.246094 12.568389 50.556927 12.041016 50.806641 C 11.726926 50.959711 11.453733 51.087891 11.236328 51.087891 C 11.147883 51.087891 11.064007 51.046925 11.015625 50.978516 L 10.822266 50.597656 C 10.778045 50.497121 10.575704 50.302734 10.326172 50.302734 L 10.033203 50.302734 C 9.7554003 50.302734 9.5214844 50.553373 9.5214844 50.867188 L 9.5214844 62.617188 C 9.5214844 62.979644 9.8072904 63.273438 10.177734 63.273438 L 10.435547 63.273438 C 10.798015 63.273438 11.091797 62.9756 11.091797 62.617188 L 11.091797 58.716797 C 11.091797 58.604545 11.167919 58.482422 11.236328 58.482422 C 11.453659 58.482422 11.726727 58.605371 12.048828 58.753906 C 12.568151 58.992016 13.220399 59.289062 14.085938 59.289062 L 14.357422 59.289062 C 15.887271 59.289062 16.835938 58.418295 16.835938 57.013672 L 16.835938 52.529297 C 16.835938 51.148409 15.867125 50.25 14.357422 50.25 L 14.082031 50.25 L 14.082031 50.246094 z M 32.761719 50.248047 C 31.900187 50.248047 31.247939 50.553664 30.724609 50.802734 C 30.398425 50.951648 30.12194 51.087891 29.896484 51.087891 C 29.795945 51.087891 29.756038 51.080178 29.679688 50.943359 L 29.498047 50.613281 C 29.401287 50.408053 29.224093 50.304688 28.982422 50.304688 L 28.728516 50.304688 C 28.422366 50.304688 28.201172 50.537537 28.201172 50.867188 L 28.201172 58.572266 C 28.201172 58.938124 28.491135 59.236328 28.857422 59.236328 L 29.115234 59.236328 C 29.473545 59.236328 29.771484 58.938351 29.771484 58.572266 L 29.771484 52.744141 C 29.771484 52.19626 30.214237 51.75 30.761719 51.75 L 32.947266 51.75 C 33.490778 51.75 33.939453 52.196638 33.939453 52.744141 L 33.939453 58.572266 C 33.939453 58.938124 34.227425 59.236328 34.59375 59.236328 L 34.851562 59.236328 C 35.209873 59.236328 35.507812 58.938351 35.507812 58.572266 L 35.507812 52.525391 C 35.507812 51.144502 34.534994 50.248047 33.029297 50.248047 L 32.761719 50.248047 z M 5.0683594 50.302734 L 2.21875 50.304688 C 0.99486354 50.304423 -5.9211895e-16 51.254141 0 52.429688 L 0 57.066406 C 0 58.258053 0.96302688 59.228516 2.1425781 59.228516 L 5.1367188 59.228516 C 6.3203141 59.228516 7.2871094 58.258053 7.2871094 57.066406 L 7.2871094 52.429688 C 7.2871094 51.258185 6.2922082 50.302356 5.0683594 50.302734 z M 21.277344 50.304688 C 20.053495 50.304688 19.058594 51.254141 19.058594 52.429688 L 19.058594 57.03125 C 19.058594 58.222519 20.024589 59.238281 21.167969 59.238281 L 24.259766 59.238281 C 24.638184 59.238281 24.916016 58.975738 24.916016 58.613281 L 24.916016 58.412109 C 24.916016 58.05381 24.638184 57.791016 24.259766 57.791016 L 21.724609 57.791016 C 21.012033 57.791016 20.636719 57.445162 20.636719 56.78125 L 20.636719 55.4375 L 25.214844 55.4375 C 25.947565 55.4375 26.390625 54.985882 26.390625 54.224609 L 26.390625 52.441406 C 26.390625 51.269866 25.391855 50.312084 24.167969 50.3125 L 21.28125 50.3125 L 21.277344 50.304688 z M 2.4726562 51.751953 L 4.8066406 51.751953 C 5.2937613 51.751953 5.7089844 52.167054 5.7089844 52.658203 L 5.7089844 56.886719 C 5.7089844 57.381875 5.3058561 57.787109 4.8066406 57.787109 L 2.4511719 57.787109 C 1.9559629 57.787109 1.5703125 57.393969 1.5703125 56.886719 L 1.5703125 52.658203 C 1.5703125 52.159041 1.9774473 51.751953 2.4726562 51.751953 z M 21.513672 51.751953 L 23.921875 51.751953 C 24.417046 51.751953 24.802734 52.139472 24.802734 52.638672 L 24.802734 54.068359 L 20.632812 54.068359 L 20.632812 52.638672 C 20.632812 52.147522 21.014456 51.751953 21.513672 51.751953 z M 12.078125 51.759766 L 14.263672 51.759766 C 14.819242 51.759766 15.253906 52.194069 15.253906 52.75 L 15.253906 56.792969 C 15.253906 57.340471 14.815235 57.787109 14.263672 57.787109 L 12.078125 57.787109 C 11.909176 57.787109 11.748477 57.741984 11.607422 57.666016 C 11.297489 57.497071 11.087891 57.170997 11.087891 56.792969 L 11.087891 52.75 C 11.087891 52.36755 11.293435 52.042005 11.603516 51.876953 C 11.744496 51.804386 11.905057 51.759766 12.078125 51.759766 z "
         style="fill:#73ba25;fill-opacity:1;stroke-width:0.02313071" />
      <path
         id="path822"
         transform="matrix(0.26458333,0,0,0.26458333,4.0607944e-4,289.57682)"
         d="M 41.841797 44.453125 C 39.414172 44.453125 38.072266 46.506456 38.072266 47.931641 L 38.072266 49.755859 C 38.072266 51.845296 39.778931 53.140625 41.369141 53.140625 L 46.929688 53.140625 C 47.626164 53.140625 47.771484 53.595965 47.771484 53.982422 L 47.771484 55.162109 C 47.771484 55.286834 47.752215 56.417969 46.929688 56.417969 L 39.341797 56.417969 C 38.588968 56.417969 38.041016 56.941327 38.041016 57.654297 L 38.041016 57.980469 C 38.041016 58.693023 38.584924 59.220703 39.341797 59.220703 L 47.34375 59.220703 C 49.433175 59.220703 50.787109 57.768576 50.787109 55.513672 L 50.787109 53.544922 C 50.787109 51.431297 49.265561 50.480884 47.755859 50.480469 L 42.283203 50.480469 C 41.457879 50.480469 41.087891 49.872535 41.087891 49.429688 L 41.087891 48.347656 C 41.087891 47.663259 41.542615 47.271484 42.34375 47.271484 L 48.40625 47.271484 C 49.147022 47.271484 49.707031 46.739836 49.707031 46.03125 L 49.707031 45.705078 C 49.707031 45.004543 49.139648 44.470703 48.382812 44.470703 L 41.849609 44.470703 L 41.841797 44.453125 z M 54.679688 44.453125 C 53.95906 44.453125 53.384766 45.025213 53.384766 45.753906 L 53.384766 55.427734 C 53.384766 57.678178 55.150159 59.308594 57.589844 59.308594 L 62.111328 59.308594 C 64.550597 59.308594 66.318359 57.678178 66.318359 55.427734 L 66.318359 45.753906 C 66.318359 45.025629 65.75054 44.453125 65.021484 44.453125 L 65.021484 44.455078 L 64.611328 44.455078 L 64.605469 44.455078 C 63.889263 44.455078 63.304687 45.037686 63.304688 45.753906 L 63.304688 55.070312 C 63.304688 55.815106 62.701572 56.414062 61.964844 56.414062 L 57.732422 56.414062 C 56.99165 56.414062 56.392578 55.815106 56.392578 55.070312 L 56.392578 45.753906 C 56.392578 45.037686 55.816846 44.453125 55.091797 44.453125 L 54.679688 44.453125 z M 72.703125 44.453125 C 70.279919 44.453125 68.935547 46.506456 68.935547 47.931641 L 68.935547 49.755859 C 68.935547 51.845296 70.650225 53.140625 72.232422 53.140625 L 77.792969 53.140625 C 78.489067 53.140625 78.640625 53.595965 78.640625 53.982422 L 78.640625 55.162109 C 78.640625 55.286834 78.619351 56.417969 77.792969 56.417969 L 70.203125 56.417969 C 69.450296 56.417969 68.90625 56.941327 68.90625 57.654297 L 68.90625 57.980469 C 68.90625 58.693023 69.450296 59.220703 70.203125 59.220703 L 78.203125 59.220703 C 80.3006 59.220703 81.644531 57.768576 81.644531 55.513672 L 81.644531 53.544922 C 81.644531 51.431297 80.126474 50.480884 78.617188 50.480469 L 73.142578 50.480469 C 72.316876 50.480469 71.947266 49.872535 71.947266 49.429688 L 71.947266 48.347656 C 71.947266 47.663259 72.40209 47.271484 73.199219 47.271484 L 79.261719 47.271484 C 79.998447 47.271484 80.558594 46.739836 80.558594 46.03125 L 80.558594 45.705078 C 80.558594 45.004543 79.995254 44.470703 79.234375 44.470703 L 72.703125 44.470703 L 72.703125 44.453125 z M 85.494141 44.453125 C 84.777557 44.453125 84.224609 44.984774 84.224609 45.693359 L 84.224609 57.980469 C 84.224609 58.684973 84.756177 59.220703 85.46875 59.220703 L 95.263672 59.220703 C 96.016539 59.220703 96.560547 58.697029 96.560547 57.980469 L 96.560547 57.654297 C 96.560547 56.945787 96.020545 56.418384 95.263672 56.417969 L 87.244141 56.417969 L 87.244141 53.285156 L 93.119141 53.285156 C 93.872007 53.285156 94.419922 52.76748 94.419922 52.046875 L 94.419922 51.724609 C 94.419922 51.008389 93.872007 50.480469 93.119141 50.480469 L 87.244141 50.480469 L 87.244141 47.263672 L 94.857422 47.263672 C 95.610289 47.263672 96.158203 46.743564 96.158203 46.027344 L 96.158203 45.701172 C 96.158203 44.984951 95.610289 44.464844 94.857422 44.464844 L 85.498047 44.464844 L 85.494141 44.453125 z M 97.052734 44.892578 C 96.980167 44.892578 96.917969 44.94098 96.917969 45.021484 L 96.917969 45.089844 C 96.917969 45.170348 96.980167 45.222656 97.052734 45.222656 L 97.558594 45.222656 L 97.558594 46.421875 C 97.558594 46.498977 97.624825 46.564453 97.701172 46.564453 L 97.759766 46.564453 C 97.84027 46.564453 97.910156 46.498221 97.910156 46.421875 L 97.910156 45.222656 L 98.585938 45.222656 L 98.585938 46.421875 C 98.585938 46.498977 98.649838 46.564453 98.726562 46.564453 L 98.791016 46.564453 C 98.871142 46.564453 98.935547 46.498221 98.935547 46.421875 L 98.935547 45.416016 L 99.162109 45.753906 C 99.184787 45.787922 99.233375 45.802734 99.273438 45.802734 L 99.296875 45.802734 C 99.337316 45.802734 99.380108 45.787166 99.404297 45.753906 L 99.626953 45.416016 L 99.626953 46.421875 C 99.626953 46.498599 99.691232 46.564453 99.767578 46.564453 L 99.832031 46.564453 L 99.851562 46.576172 C 99.932066 46.576172 100 46.506161 100 46.433594 L 100 44.892578 L 99.773438 44.892578 C 99.700871 44.892578 99.661159 44.919236 99.632812 44.957031 L 99.298828 45.458984 L 98.964844 44.957031 C 98.942167 44.917346 98.892628 44.892578 98.824219 44.892578 L 97.052734 44.892578 z "
         style="fill:#173f4f;fill-opacity:1;stroke-width:0.02313071" />
    </g>
  </g>
</svg>
