<?xml version="1.0" encoding="UTF-8" standalone="no"?>
<!-- Created with Inkscape (http://www.inkscape.org/) -->

<svg
   xmlns:dc="http://purl.org/dc/elements/1.1/"
   xmlns:cc="http://creativecommons.org/ns#"
   xmlns:rdf="http://www.w3.org/1999/02/22-rdf-syntax-ns#"
   xmlns:svg="http://www.w3.org/2000/svg"
   xmlns="http://www.w3.org/2000/svg"
   xmlns:sodipodi="http://sodipodi.sourceforge.net/DTD/sodipodi-0.dtd"
   xmlns:inkscape="http://www.inkscape.org/namespaces/inkscape"
   width="100"
   height="18.842506"
   viewBox="0 0 26.458333 4.9854132"
   version="1.1"
   id="svg8"
   inkscape:version="0.92.4 5da689c313, 2019-01-14"
   sodipodi:docname="opensuse-text-color.svg">
  <defs
     id="defs2">
    <filter
       style="color-interpolation-filters:sRGB"
       inkscape:label="Drop Shadow"
       id="filter1433-4-95"
       x="-0.11"
       width="1.23"
       height="1.24">
      <feFlood
         flood-opacity="0.28000000000000003"
         flood-color="rgb(0,0,0)"
         result="flood"
         id="feFlood1423-9-0" />
      <feComposite
         in2="SourceGraphic"
         operator="in"
         result="composite1"
         id="feComposite1425-2-4"
         stdDeviation="18.550000000000001" />
      <feGaussianBlur
         in="composite1"
         stdDeviation="18.551192052980134"
         result="blur"
         id="feGaussianBlur1427-0-8" />
      <feOffset
         dx="6"
         dy="6"
         result="offset"
         id="feOffset1429-6-7" />
      <feComposite
         in="SourceGraphic"
         in2="offset"
         operator="over"
         result="composite2"
         id="feComposite1431-8-17" />
    </filter>
  </defs>
  <sodipodi:namedview
     id="base"
     pagecolor="#ffffff"
     bordercolor="#666666"
     borderopacity="1.0"
     inkscape:pageopacity="0.0"
     inkscape:pageshadow="2"
     inkscape:zoom="5.69221"
     inkscape:cx="50.820043"
     inkscape:cy="5.2289745"
     inkscape:document-units="px"
     inkscape:current-layer="layer1"
     showgrid="false"
     units="px"
     inkscape:window-width="1336"
     inkscape:window-height="713"
     inkscape:window-x="12"
     inkscape:window-y="37"
     inkscape:window-maximized="1"
     inkscape:snap-bbox="true"
     inkscape:bbox-paths="true"
     inkscape:bbox-nodes="true"
     inkscape:snap-bbox-edge-midpoints="true"
     inkscape:snap-bbox-midpoints="true"
     inkscape:object-paths="true"
     inkscape:snap-intersection-paths="true"
     inkscape:snap-smooth-nodes="true"
     inkscape:snap-midpoints="true"
     inkscape:snap-object-midpoints="true"
     inkscape:snap-center="true"
     inkscape:snap-text-baseline="true"
     inkscape:snap-page="true"
     inkscape:snap-global="false" />
  <metadata
     id="metadata5">
    <rdf:RDF>
      <cc:Work
         rdf:about="">
        <dc:format>image/svg+xml</dc:format>
        <dc:type
           rdf:resource="http://purl.org/dc/dcmitype/StillImage" />
        <dc:title />
      </cc:Work>
    </rdf:RDF>
  </metadata>
  <g
     inkscape:label="Layer 1"
     inkscape:groupmode="layer"
     id="layer1"
     transform="translate(-3.9930083e-4,-295.45476)">
    <path
       style="fill:#73ba25;fill-opacity:1;fill-rule:nonzero;stroke:none;stroke-width:1.03710878"
       d="M 14.097656 5.7988281 C 13.232708 5.7988281 12.58038 6.1084021 12.056641 6.3613281 C 11.73721 6.5136431 11.462729 6.6464844 11.248047 6.6464844 C 11.151597 6.6464844 11.066996 6.6007299 11.023438 6.5292969 L 10.824219 6.1484375 C 10.774439 6.0490359 10.574956 5.8535156 10.328125 5.8535156 L 10.03125 5.8535156 C 9.7460468 5.8535156 9.5175781 6.1086656 9.5175781 6.421875 L 9.5175781 18.183594 C 9.5175781 18.552854 9.8095631 18.84375 10.177734 18.84375 L 10.433594 18.84375 C 10.798655 18.84375 11.097656 18.548772 11.097656 18.183594 L 11.097656 14.28125 C 11.097656 14.165219 11.172339 14.039063 11.248047 14.039062 C 11.462728 14.039062 11.737211 14.166232 12.056641 14.3125 C 12.58038 14.553256 13.232708 14.849609 14.097656 14.849609 L 14.375 14.849609 C 15.90681 14.849609 16.857422 13.972731 16.857422 12.566406 L 16.857422 8.078125 C 16.857422 6.6935707 15.886067 5.7988281 14.375 5.7988281 L 14.097656 5.7988281 z M 32.779297 5.7988281 C 31.91746 5.7988281 31.266963 6.10849 30.742188 6.359375 C 30.415496 6.5128238 30.136367 6.6464844 29.908203 6.6464844 C 29.808639 6.6464844 29.769189 6.6341099 29.691406 6.4980469 L 29.509766 6.1679688 C 29.405016 5.9585829 29.226817 5.8535156 28.988281 5.8535156 L 28.732422 5.8535156 C 28.424402 5.8535156 28.201172 6.0912164 28.201172 6.4199219 L 28.201172 14.136719 C 28.201172 14.502955 28.489007 14.794922 28.861328 14.794922 L 29.117188 14.794922 C 29.482247 14.794922 29.78125 14.498835 29.78125 14.136719 L 29.78125 8.2988281 C 29.78125 7.7512502 30.225844 7.3027344 30.773438 7.3027344 L 32.964844 7.3027344 C 33.513474 7.3027344 33.960937 7.7512502 33.960938 8.2988281 L 33.960938 14.136719 C 33.960938 14.502955 34.251885 14.794922 34.621094 14.794922 L 34.878906 14.794922 C 35.243967 14.794922 35.541016 14.498835 35.541016 14.136719 L 35.541016 8.078125 C 35.541016 6.6935707 34.566791 5.7988281 33.054688 5.7988281 L 32.779297 5.7988281 z M 2.2285156 5.8515625 C 0.99954177 5.8515625 -5.9211895e-16 6.8081738 0 7.9863281 L 0 12.625 C 0 13.821825 0.96784443 14.796875 2.1542969 14.796875 L 5.1542969 14.796875 C 6.3407495 14.796875 7.3066406 13.821825 7.3066406 12.625 L 7.3066406 7.9863281 C 7.3066406 6.8091943 6.3060618 5.8515625 5.078125 5.8515625 L 2.2285156 5.8515625 z M 21.296875 5.8515625 C 20.068938 5.8515625 19.072266 6.8081738 19.072266 7.9863281 L 19.072266 12.589844 C 19.072266 13.78357 20.0407 14.794922 21.183594 14.794922 L 24.279297 14.794922 C 24.660953 14.794922 24.9375 14.52996 24.9375 14.169922 L 24.9375 13.966797 C 24.9375 13.603962 24.660954 13.345703 24.279297 13.345703 L 21.736328 13.345703 C 21.023834 13.345703 20.646484 12.994116 20.646484 12.328125 L 20.646484 10.982422 L 25.234375 10.982422 C 25.972796 10.982422 26.408203 10.531786 26.408203 9.7695312 L 26.408203 7.9863281 C 26.408203 6.8081738 25.408298 5.8515625 24.185547 5.8515625 L 21.296875 5.8515625 z M 2.4863281 7.3027344 L 4.8242188 7.3027344 C 5.3116598 7.3027344 5.7265625 7.7176325 5.7265625 8.2050781 L 5.7265625 12.439453 C 5.7265625 12.939333 5.3220308 13.345703 4.8242188 13.345703 L 2.46875 13.345703 C 1.9688636 13.345703 1.5800781 12.947648 1.5800781 12.439453 L 1.5800781 8.2050781 C 1.5800781 7.708297 1.9874788 7.3027344 2.4863281 7.3027344 z M 12.09375 7.3027344 L 14.283203 7.3027344 C 14.843242 7.3027344 15.28125 7.739836 15.28125 8.2988281 L 15.28125 12.349609 C 15.28125 12.899266 14.831834 13.345703 14.283203 13.345703 L 12.09375 13.345703 C 11.545119 13.345703 11.097656 12.899266 11.097656 12.349609 L 11.097656 8.2988281 C 11.097656 7.7387777 11.534748 7.3027344 12.09375 7.3027344 z M 21.537109 7.3027344 L 23.945312 7.3027344 C 24.442088 7.3027344 24.830078 7.692672 24.830078 8.1894531 L 24.830078 9.6269531 L 20.646484 9.6269531 C 20.647521 9.4391106 20.648438 8.1894531 20.648438 8.1894531 C 20.648438 7.692672 21.039297 7.3027344 21.537109 7.3027344 z "
       transform="matrix(0.26458333,0,0,0.26458333,3.9930083e-4,295.45476)"
       id="path136-3" />
    <path
       style="fill:#173f4f;fill-opacity:1;fill-rule:nonzero;stroke:none;stroke-width:1.03710878"
       d="M 85.542969 0 L 85.542969 0.001953125 C 84.821139 0.001953125 84.277344 0.53671418 84.277344 1.2460938 L 84.277344 13.544922 C 84.277344 14.251202 84.810392 14.783203 85.515625 14.783203 L 95.316406 14.783203 C 96.071424 14.783203 96.617186 14.260538 96.617188 13.544922 L 96.617188 13.220703 C 96.617188 12.501988 96.071424 11.976562 95.316406 11.976562 L 87.289062 11.976562 L 87.289062 8.8457031 L 93.171875 8.8457031 C 93.924814 8.8457031 94.470703 8.3171782 94.470703 7.6015625 L 94.470703 7.2753906 C 94.470703 6.5556552 93.924814 6.0351563 93.171875 6.0351562 L 87.289062 6.0351562 L 87.289062 2.8105469 L 94.908203 2.8105469 C 95.66011 2.8105469 96.208984 2.2912318 96.208984 1.5683594 L 96.208984 1.2441406 C 96.208984 0.52542569 95.66011 1.4802974e-16 94.908203 0 L 85.542969 0 z M 41.869141 0.001953125 C 39.43712 0.001953125 38.099609 2.0586105 38.099609 3.4804688 L 38.099609 5.3046875 C 38.099609 7.3985836 39.808793 8.6953125 41.394531 8.6953125 L 46.964844 8.6953125 C 47.665927 8.6953125 47.8125 9.1550758 47.8125 9.5429688 L 47.8125 10.720703 C 47.8125 10.846183 47.787118 11.978516 46.964844 11.978516 L 39.369141 11.978516 C 38.614123 11.978516 38.068359 12.501988 38.068359 13.220703 L 38.068359 13.546875 C 38.068359 14.262453 38.614123 14.783203 39.369141 14.783203 L 47.376953 14.783203 C 49.46984 14.783203 50.820313 13.327068 50.820312 11.070312 L 50.820312 9.1035156 C 50.820312 6.9847125 49.298176 6.0371094 47.787109 6.0371094 L 42.306641 6.0371094 C 41.48214 6.0371094 41.109375 5.4171175 41.109375 4.9804688 L 41.109375 3.8925781 C 41.109375 3.2080679 41.567576 2.8125 42.367188 2.8125 L 48.431641 2.8125 C 49.175248 2.8125 49.736328 2.2785459 49.736328 1.5722656 L 49.736328 1.2460938 C 49.736328 0.53671418 49.165413 0.001953125 48.40625 0.001953125 L 41.869141 0.001953125 z M 54.701172 0.001953125 C 53.972086 0.001953125 53.398437 0.57859026 53.398438 1.3066406 L 53.398438 10.982422 C 53.398438 13.23502 55.17089 14.869141 57.613281 14.869141 L 62.140625 14.869141 C 64.57887 14.869141 66.351563 13.236041 66.351562 10.982422 L 66.351562 1.3066406 C 66.351562 0.57859026 65.779871 0.001953125 65.050781 0.001953125 L 64.638672 0.001953125 C 63.919957 0.001953125 63.339844 0.58690522 63.339844 1.3066406 L 63.339844 10.630859 C 63.339844 11.377581 62.729572 11.978516 61.992188 11.978516 L 57.759766 11.978516 C 57.019269 11.978516 56.412109 11.377581 56.412109 10.630859 L 56.412109 1.3066406 C 56.412109 0.58690522 55.830043 0.001953125 55.111328 0.001953125 L 54.701172 0.001953125 z M 72.742188 0.001953125 C 70.311203 0.001953125 68.96875 2.0586105 68.96875 3.4804688 L 68.96875 5.3046875 C 68.96875 7.3985836 70.682757 8.6953125 72.269531 8.6953125 L 77.837891 8.6953125 C 78.540013 8.6953125 78.6875 9.1550758 78.6875 9.5429688 L 78.6875 10.720703 C 78.6875 10.846183 78.662338 11.978516 77.837891 11.978516 L 70.238281 11.978516 C 69.487414 11.978516 68.939453 12.501988 68.939453 13.220703 L 68.939453 13.546875 C 68.939453 14.262453 69.487414 14.783203 70.238281 14.783203 L 78.25 14.783203 C 80.343923 14.783203 81.699219 13.327068 81.699219 11.070312 L 81.699219 9.1035156 C 81.699219 6.9847125 80.173176 6.0371094 78.662109 6.0371094 L 73.183594 6.0371094 C 72.355979 6.0371094 71.982422 5.4171175 71.982422 4.9804688 L 71.982422 3.8925781 C 71.982422 3.2080679 72.439587 2.8125 73.240234 2.8125 L 79.308594 2.8125 C 80.051161 2.8125 80.609375 2.2785459 80.609375 1.5722656 L 80.609375 1.2460938 C 80.609375 0.53671418 80.040657 0.001953125 79.277344 0.001953125 L 72.742188 0.001953125 z M 98.796875 11.804688 C 98.12898 11.804688 97.585938 12.34907 97.585938 13.027344 C 97.585938 13.715974 98.12898 14.251953 98.796875 14.251953 C 99.468924 14.251953 100 13.715974 100 13.027344 C 100 12.348049 99.46868 11.804687 98.800781 11.804688 L 98.796875 11.804688 z M 98.796875 11.994141 L 98.800781 11.994141 C 99.343189 11.994141 99.777344 12.455666 99.777344 13.03125 C 99.777344 13.605814 99.343189 14.06628 98.800781 14.0625 C 98.258374 14.0625 97.818359 13.606191 97.818359 13.025391 C 97.818359 12.456043 98.259653 11.994141 98.796875 11.994141 z M 98.736328 12.339844 C 98.573495 12.339844 98.465629 12.357929 98.351562 12.373047 L 98.351562 13.736328 L 98.568359 13.736328 L 98.568359 13.148438 L 98.720703 13.148438 C 98.893919 13.148438 98.980412 13.213616 99.013672 13.386719 C 99.040658 13.566246 99.073343 13.691666 99.105469 13.734375 L 99.333984 13.734375 C 99.312214 13.692044 99.27822 13.61009 99.246094 13.398438 C 99.218087 13.197367 99.138813 13.085304 99.019531 13.066406 L 99.019531 13.054688 C 99.165761 13.011223 99.285156 12.904137 99.285156 12.724609 C 99.285156 12.594216 99.240143 12.50232 99.158203 12.443359 C 99.077299 12.384021 98.942728 12.339844 98.736328 12.339844 z M 98.724609 12.509766 C 98.968313 12.509766 99.056641 12.628614 99.056641 12.748047 C 99.056641 12.916992 98.903003 12.982422 98.724609 12.982422 L 98.568359 12.982422 L 98.568359 12.519531 C 98.605701 12.515752 98.653063 12.509766 98.724609 12.509766 z "
       transform="matrix(0.26458333,0,0,0.26458333,3.9930083e-4,295.45476)"
       id="path840" />
  </g>
</svg>
