<?xml version="1.0" encoding="UTF-8" standalone="no"?>
<!-- Created with Inkscape (http://www.inkscape.org/) -->

<svg
   xmlns:dc="http://purl.org/dc/elements/1.1/"
   xmlns:cc="http://creativecommons.org/ns#"
   xmlns:rdf="http://www.w3.org/1999/02/22-rdf-syntax-ns#"
   xmlns:svg="http://www.w3.org/2000/svg"
   xmlns="http://www.w3.org/2000/svg"
   xmlns:sodipodi="http://sodipodi.sourceforge.net/DTD/sodipodi-0.dtd"
   xmlns:inkscape="http://www.inkscape.org/namespaces/inkscape"
   width="99.999947"
   height="63.274204"
   viewBox="0 0 26.458319 16.7413"
   version="1.1"
   id="svg8"
   inkscape:version="0.92.4 5da689c313, 2019-01-14"
   sodipodi:docname="opensuse-logo.svg">
  <defs
     id="defs2">
    <filter
       style="color-interpolation-filters:sRGB"
       inkscape:label="Drop Shadow"
       id="filter1433-4-95"
       x="-0.11"
       width="1.23"
       height="1.24">
      <feFlood
         flood-opacity="0.28000000000000003"
         flood-color="rgb(0,0,0)"
         result="flood"
         id="feFlood1423-9-0" />
      <feComposite
         in2="SourceGraphic"
         operator="in"
         result="composite1"
         id="feComposite1425-2-4"
         stdDeviation="18.550000000000001" />
      <feGaussianBlur
         in="composite1"
         stdDeviation="18.551192052980134"
         result="blur"
         id="feGaussianBlur1427-0-8" />
      <feOffset
         dx="6"
         dy="6"
         result="offset"
         id="feOffset1429-6-7" />
      <feComposite
         in="SourceGraphic"
         in2="offset"
         operator="over"
         result="composite2"
         id="feComposite1431-8-17" />
    </filter>
  </defs>
  <sodipodi:namedview
     id="base"
     pagecolor="#ffffff"
     bordercolor="#666666"
     borderopacity="1.0"
     inkscape:pageopacity="0.0"
     inkscape:pageshadow="2"
     inkscape:zoom="2.0125002"
     inkscape:cx="31.945818"
     inkscape:cy="28.262104"
     inkscape:document-units="px"
     inkscape:current-layer="layer1"
     showgrid="false"
     units="px"
     inkscape:window-width="605"
     inkscape:window-height="713"
     inkscape:window-x="743"
     inkscape:window-y="37"
     inkscape:window-maximized="1"
     inkscape:snap-bbox="true"
     inkscape:bbox-paths="true"
     inkscape:bbox-nodes="true"
     inkscape:snap-bbox-edge-midpoints="true"
     inkscape:snap-bbox-midpoints="true"
     inkscape:object-paths="true"
     inkscape:snap-intersection-paths="true"
     inkscape:snap-smooth-nodes="true"
     inkscape:snap-midpoints="true"
     inkscape:snap-object-midpoints="true"
     inkscape:snap-center="true"
     inkscape:snap-text-baseline="true"
     inkscape:snap-page="true"
     inkscape:snap-global="false" />
  <metadata
     id="metadata5">
    <rdf:RDF>
      <cc:Work
         rdf:about="">
        <dc:format>image/svg+xml</dc:format>
        <dc:type
           rdf:resource="http://purl.org/dc/dcmitype/StillImage" />
        <dc:title></dc:title>
      </cc:Work>
    </rdf:RDF>
  </metadata>
  <g
     inkscape:label="Layer 1"
     inkscape:groupmode="layer"
     id="layer1"
     transform="translate(-4.0607944e-4,-289.57682)">
    <path
       inkscape:connector-curvature="0"
       style="fill:#73ba25;fill-opacity:1;stroke-width:0.00612"
       d="m 12.790089,289.57831 c -1.919689,-0.004 -4.4014649,0.27444 -7.6758356,2.28661 l -0.1171736,0.0735 c -1.8587472,1.15998 -3.1433367,2.59052 -3.8144073,4.25326 -0.21090655,0.523 -0.49425526,1.70323 -0.21410665,2.81422 0.12142375,0.48572 0.34725075,0.9724 0.65190005,1.40923 0.6859711,0.98636 1.8384966,1.64144 3.0794347,1.75222 1.7522239,0.15658 3.0794347,-0.63059 3.5513092,-2.10373 0.32488,-1.01735 0,-2.50851 -1.2441282,-3.27011 -1.0108611,-0.61993 -2.1005346,-0.47826 -2.731124,-0.0618 -0.5475069,0.36323 -0.8585464,0.92776 -0.8521562,1.5477 0.0128,1.09821 0.9597395,1.68298 1.6393204,1.68405 0.1991861,0 0.3973122,-0.0342 0.6210091,-0.10759 0.079902,-0.0245 0.1555148,-0.0533 0.2375373,-0.10544 l 0.025601,-0.016 0.017,-0.01 -0.006,0.002 c 0.1555248,-0.1044 0.2492577,-0.27588 0.2492577,-0.46016 0,-0.051 -0.007,-0.10226 -0.021301,-0.15328 -0.079902,-0.27801 -0.3547009,-0.44631 -0.6401797,-0.39411 l -0.038301,0.007 -0.052202,0.0182 -0.075602,0.0244 c -0.1565848,0.0394 -0.2748184,0.0426 -0.2993192,0.0426 -0.079902,-0.005 -0.4729345,-0.12259 -0.4729345,-0.55186 v -0.005 c 0.001,-0.15754 0.065002,-0.26832 0.1001231,-0.32808 0.1203637,-0.19173 0.454834,-0.3792 0.9053978,-0.33872 0.5922482,0.0499 1.0183213,0.35363 1.3006,0.92553 0.2630981,0.53259 0.193856,1.18662 -0.1768354,1.66701 -0.3674813,0.47615 -1.0225615,0.67757 -1.8938783,0.58266 -0.878777,-0.0969 -1.6212098,-0.60172 -2.0366326,-1.389 -0.4079626,-0.76906 -0.4303332,-1.68192 -0.058602,-2.38281 0.8894173,-1.67873 2.569219,-1.66062 3.4905973,-1.50191 1.363432,0.2354 2.60117,1.32722 3.151867,2.77906 0.087303,0.23114 0.1331441,0.41543 0.1725653,0.58159 l 0.058602,0.25138 1.5402573,0.75309 0.0213,0.0149 0.0373,-0.004 0.006,-0.0437 c -0.01,-0.0352 -0.032,-0.0671 -0.0671,-0.49851 -0.0298,-0.38134 -0.0895,-1.4284 0.437784,-1.94822 0.203456,-0.20238 0.516616,-0.3824 0.762673,-0.44098 1.009791,-0.24606 2.319961,-0.0756 3.439476,1.21857 0.577318,0.66904 0.861726,0.97474 1.003391,1.11097 l 0.0479,0.0459 0.0596,0.0425 c 0.0459,0.0256 1.923819,0.89049 1.923819,0.89049 l 0.0382,-0.01 0.001,-0.0417 c -0.0117,-0.0137 -1.189906,-1.53482 -0.98113,-2.78746 0.165205,-0.99914 0.95983,-0.90967 2.058994,-0.78398 0.358961,0.0405 0.767993,0.0873 1.190976,0.0969 1.180216,0.007 2.450986,-0.20877 3.23496,-0.55176 0.507025,-0.22156 0.830835,-0.36855 1.033111,-0.55283 0.0735,-0.0597 0.111954,-0.15871 0.150195,-0.26311 l 0.0277,-0.0703 c 0.033,-0.0852 0.0811,-0.26523 0.101183,-0.36429 0.01,-0.0426 0.0139,-0.0905 -0.0159,-0.11397 l -0.108763,0.0202 c -0.34405,0.20664 -1.203657,0.59969 -2.008612,0.61568 -0.99807,0.0202 -3.009132,-1.00448 -3.219089,-1.11312 l -0.0192,-0.0234 c -0.0511,-0.12036 -0.352471,-0.83405 -0.416493,-0.98423 1.447585,0.95333 2.648041,1.48061 3.56729,1.56156 1.022581,0.0916 1.820396,-0.46656 2.161246,-0.70515 0.0671,-0.0447 0.117184,-0.082 0.138484,-0.0895 l 0.0213,-0.0362 c -0.0564,-0.35897 -0.591178,-2.0984 -0.994871,-2.51595 -0.111953,-0.11504 -0.201436,-0.22583 -0.382411,-0.33235 -1.462595,-0.85214 -4.933912,-1.36769 -5.095927,-1.39006 l -0.0277,0.007 -0.0106,0.0245 c 0,0 -0.0139,0.72006 -0.015,0.79995 -0.355781,-0.11824 -2.93234,-0.9512 -5.348274,-1.03535 -0.352061,-0.0123 -0.726282,-0.0253 -1.124705,-0.0262 z m 10.368519,1.69875 c 0.0124,1.3e-4 0.0247,4.1e-4 0.0371,8.4e-4 0.819125,0.0288 1.461535,0.71899 1.433734,1.53705 -0.0149,0.39625 -0.181085,0.76268 -0.470824,1.03324 -0.289719,0.27161 -0.666791,0.41222 -1.065173,0.39837 -0.817955,-0.0298 -1.459185,-0.719 -1.432554,-1.53706 0.0138,-0.39625 0.180016,-0.76373 0.470805,-1.03429 0.280568,-0.2621 0.644219,-0.40224 1.026911,-0.39815 z m 0.01,0.41342 c -0.262828,0.003 -0.510795,0.10223 -0.703531,0.28298 -0.205686,0.19173 -0.32605,0.4527 -0.33457,0.73497 -0.0191,0.58266 0.436833,1.07263 1.018421,1.09395 0.283339,0.009 0.551757,-0.0916 0.758403,-0.28334 0.205577,-0.1928 0.32489,-0.45377 0.33341,-0.73498 0.0192,-0.58265 -0.436723,-1.07264 -1.019381,-1.09288 -0.0176,-6.6e-4 -0.0352,-9e-4 -0.0528,-7e-4 z m 0.225317,0.5301 c 0.008,0 0.0161,1.4e-4 0.0241,4.1e-4 v 0 c 0.008,2.7e-4 0.0159,6.7e-4 0.0238,0.001 0,0 0,0 0,0 0.008,5.4e-4 0.0157,10e-4 0.0234,0.002 0,0 0,0 0,0 0.008,7.9e-4 0.0154,0.002 0.023,0.003 0.183076,0.0249 0.32728,0.12091 0.364742,0.24351 7.8e-4,0.003 0.002,0.005 0.002,0.008 0.001,0.005 0.003,0.0104 0.004,0.0156 5e-4,0.003 9.5e-4,0.005 0.001,0.008 8e-4,0.005 10e-4,0.0106 0.002,0.016 4.1e-4,0.005 6.2e-4,0.0107 6.2e-4,0.0162 0,0.005 -2.1e-4,0.0107 -6.2e-4,0.016 -4.1e-4,0.005 -0.001,0.0106 -0.002,0.0158 -3.9e-4,0.003 -8.4e-4,0.005 -0.001,0.008 -0.001,0.005 -0.002,0.0103 -0.004,0.0154 -6.9e-4,0.003 -10e-4,0.005 -0.002,0.008 -0.0375,0.12155 -0.181666,0.218 -0.364742,0.24308 -0.0305,0.004 -0.0621,0.006 -0.0944,0.006 -0.008,0 -0.0161,-1.4e-4 -0.0241,-4.1e-4 -0.008,-2.7e-4 -0.0159,-6.8e-4 -0.0238,-10e-4 0,0 0,0 0,0 -0.008,-5.4e-4 -0.0157,-10e-4 -0.0234,-0.002 0,0 0,0 0,0 -0.008,-7.9e-4 -0.0154,-0.002 -0.023,-0.003 0,0 0,0 0,0 -0.008,-10e-4 -0.0152,-0.002 -0.0226,-0.003 0,0 0,0 0,0 -0.160795,-0.0277 -0.287789,-0.11118 -0.33286,-0.21709 -10e-4,-0.002 -0.002,-0.005 -0.003,-0.007 -0.002,-0.005 -0.004,-0.01 -0.005,-0.0151 -7.8e-4,-0.003 -10e-4,-0.005 -0.002,-0.008 -0.001,-0.005 -0.003,-0.0103 -0.004,-0.0154 -0.002,-0.013 -0.004,-0.0262 -0.004,-0.0396 0,-0.0136 10e-4,-0.0269 0.004,-0.04 9.8e-4,-0.005 0.002,-0.0104 0.004,-0.0156 6.9e-4,-0.003 0.001,-0.005 0.002,-0.008 0.002,-0.005 0.003,-0.0102 0.005,-0.0152 9.71e-4,-0.003 0.002,-0.005 0.003,-0.007 0.0451,-0.10668 0.172065,-0.1898 0.33286,-0.21737 0.0374,-0.006 0.0766,-0.01 0.117063,-0.01 z m -12.323089,9.11796 c -0.642309,0 -0.99701,0.54323 -0.99701,0.92031 v 0.48253 c 0,0.55283 0.451634,0.89582 0.872377,0.89582 h 1.471025 c 0.184276,0 0.222627,0.12036 0.222627,0.22261 v 0.3121 c 0,0.033 -0.005,0.33234 -0.222627,0.33234 h -2.007872 c -0.199186,0 -0.34405,0.13837 -0.34405,0.32701 v 0.0863 c 0,0.18853 0.143794,0.32807 0.34405,0.32807 h 2.117585 c 0.552827,0 0.910728,-0.38442 0.910728,-0.98103 v -0.52087 c 0,-0.55923 -0.402642,-0.8106 -0.802084,-0.81071 H 11.188 c -0.218367,0 -0.31635,-0.16074 -0.31635,-0.27791 v -0.28654 c 0,-0.18108 0.120364,-0.2844 0.332331,-0.2844 h 1.604159 c 0.195996,0 0.34406,-0.14059 0.34406,-0.32807 v -0.0863 c 0,-0.18535 -0.150194,-0.32701 -0.35044,-0.32701 h -1.728793 z m 3.397075,0 c -0.190666,0 -0.342981,0.15114 -0.342981,0.34394 v 2.55963 c 0,0.59543 0.467505,1.02694 1.113005,1.02694 h 1.196196 c 0.64539,0 1.113115,-0.43151 1.113115,-1.02694 v -2.55963 c 0,-0.19269 -0.150195,-0.34394 -0.343091,-0.34394 v 10e-5 h -0.108443 -0.002 c -0.189496,0 -0.343951,0.15445 -0.343951,0.34395 v 2.46482 c 0,0.19706 -0.159785,0.35577 -0.354711,0.35577 h -1.119494 c -0.195996,0 -0.354711,-0.15871 -0.354711,-0.35577 v -2.46493 c 0,-0.1895 -0.152215,-0.34394 -0.344051,-0.34394 z m 4.768607,0 c -0.64114,0 -0.996911,0.54323 -0.996911,0.92031 v 0.48253 c 0,0.55283 0.453664,0.89582 0.872287,0.89582 h 1.471115 c 0.184176,0 0.224647,0.12036 0.224647,0.22261 v 0.3121 c 0,0.033 -0.006,0.33234 -0.224647,0.33234 h -2.007972 c -0.199186,0 -0.34299,0.13837 -0.34299,0.32701 v 0.0863 c 0,0.18853 0.143804,0.32807 0.34299,0.32807 h 2.116515 c 0.554957,0 0.910728,-0.38442 0.910728,-0.98103 v -0.52087 c 0,-0.55923 -0.401572,-0.8106 -0.800904,-0.81071 h -1.448645 c -0.218467,0 -0.31647,-0.16074 -0.31647,-0.27791 v -0.28654 c 0,-0.18108 0.120364,-0.2844 0.331271,-0.2844 h 1.604169 c 0.194926,0 0.34309,-0.14059 0.34309,-0.32807 v -0.0863 c 0,-0.18535 -0.149124,-0.32701 -0.35044,-0.32701 h -1.727833 z m 3.384074,0 c -0.189596,0 -0.335521,0.14059 -0.335521,0.32807 v 3.25094 c 0,0.1864 0.140595,0.32807 0.32913,0.32807 h 2.59148 c 0.199196,0 0.343101,-0.13848 0.343101,-0.32807 v -0.0863 c 0,-0.18746 -0.142735,-0.32701 -0.342991,-0.32712 h -2.121835 v -0.8287 h 1.554098 c 0.199196,0 0.34405,-0.13731 0.34405,-0.32797 v -0.0853 c 0,-0.1895 -0.144854,-0.32914 -0.34405,-0.32914 h -1.554098 v -0.85109 h 2.014252 c 0.199196,0 0.34406,-0.1374 0.34406,-0.3269 v -0.0864 c 0,-0.1895 -0.144864,-0.32691 -0.34406,-0.32691 h -2.476546 z m 3.058144,0.11621 c -0.0192,0 -0.0352,0.0128 -0.0352,0.0341 v 0.0181 c 0,0.0213 0.016,0.0351 0.0352,0.0351 h 0.134204 v 0.31731 c 0,0.0204 0.0172,0.0374 0.0374,0.0374 h 0.0159 c 0.0213,0 0.0394,-0.0172 0.0394,-0.0374 v -0.31731 h 0.178965 v 0.31731 c 0,0.0204 0.0171,0.0374 0.0374,0.0374 h 0.017 c 0.0212,0 0.0382,-0.0172 0.0382,-0.0374 h -1.8e-4 v -0.26618 l 0.0598,0.0895 c 0.006,0.009 0.0191,0.0128 0.0297,0.0128 h 0.006 c 0.0107,0 0.0224,-0.004 0.0288,-0.0128 l 0.0586,-0.0895 v 0.26629 c 0,0.0203 0.0172,0.0374 0.0374,0.0374 h 0.017 l 0.005,0.003 c 0.0213,0 0.0394,-0.0181 0.0394,-0.0373 v -0.40796 h -0.0598 c -0.0192,0 -0.0298,0.007 -0.0373,0.017 l -0.0884,0.13315 -0.0884,-0.13315 c -0.006,-0.0105 -0.0192,-0.017 -0.0373,-0.017 z m -21.9523253,1.41647 c -0.2290071,0 -0.4005123,0.0821 -0.5400466,0.14817 -0.083103,0.0405 -0.1555148,0.0745 -0.2130366,0.0745 -0.023401,0 -0.045801,-0.0107 -0.058602,-0.0288 l -0.051102,-0.10118 c -0.0117,-0.0266 -0.065002,-0.0777 -0.1310241,-0.0777 h -0.077702 c -0.073502,0 -0.1352841,0.066 -0.1352841,0.14903 v 3.10925 c 0,0.0959 0.075602,0.17363 0.1736153,0.17363 h 0.068202 c 0.095903,0 0.1736253,-0.0788 0.1736253,-0.17363 v -1.03216 c 0,-0.0297 0.020201,-0.0618 0.038301,-0.0618 0.057502,0 0.129944,0.0321 0.2151666,0.0714 0.1374043,0.063 0.3099696,0.14167 0.5389766,0.14167 h 0.071402 c 0.4047725,0 0.6561502,-0.23008 0.6561502,-0.60172 v -1.18672 c 0,-0.36536 -0.2567079,-0.60279 -0.6561502,-0.60279 h -0.072402 z m 4.942442,1.7e-4 c -0.227947,0 -0.4005123,0.0811 -0.5389766,0.147 -0.086303,0.0394 -0.1597849,0.0756 -0.2194367,0.0756 -0.026601,0 -0.037301,-0.002 -0.057502,-0.0382 l -0.047902,-0.0873 c -0.025601,-0.0543 -0.072402,-0.082 -0.1363442,-0.082 h -0.067102 c -0.081002,0 -0.1395343,0.0618 -0.1395343,0.14902 v 2.03875 c 0,0.0968 0.076702,0.17566 0.1736153,0.17566 h 0.068202 c 0.094803,0 0.1736353,-0.0788 0.1736353,-0.17566 v -1.54238 c 0,-0.14496 0.1171736,-0.26309 0.2620281,-0.26309 h 0.5783878 c 0.1438044,0 0.262038,0.11823 0.262038,0.26309 v 1.54238 c 0,0.0968 0.076702,0.17566 0.1736254,0.17566 h 0.068202 c 0.094803,0 0.1736253,-0.0788 0.1736253,-0.17566 v -1.59989 c 0,-0.36536 -0.2577679,-0.6029 -0.6561502,-0.6029 z m -8.08152857,0.015 c -0.32381996,-7e-5 -0.58691805056,0.25121 -0.58691805056,0.56224 v 1.22721 c 0,0.31529 0.25458783056,0.572 0.56667743056,0.572 H 1.3595779 c 0.3131596,0 0.5688075,-0.25671 0.5688075,-0.572 v -1.22721 c 0,-0.30996 -0.2630981,-0.56241 -0.5869081,-0.56231 z m 5.04256507,0 c -0.3238099,0 -0.586918,0.25128 -0.586918,0.56231 v 1.21771 c 0,0.31519 0.2556478,0.58362 0.5581671,0.58362 h 0.8180552 c 0.1001231,0 0.1736253,-0.0692 0.1736253,-0.1651 v -0.0533 c 0,-0.0948 -0.073502,-0.16403 -0.1736253,-0.16403 H 5.7481229 c -0.1885358,0 -0.2875989,-0.0917 -0.2875989,-0.26736 v -0.35578 h 1.2111073 c 0.1938659,0 0.3110395,-0.11931 0.3110395,-0.32073 v -0.47187 c 0,-0.30997 -0.2641581,-0.56349 -0.5879781,-0.56338 H 5.6309493 Z m -4.97545301,0.38337 H 1.2722352 c 0.128884,0 0.2385973,0.1097 0.2385973,0.23965 v 1.11845 c 0,0.13101 -0.1065132,0.2386 -0.2385973,0.2386 H 0.64910603 c -0.13102403,0 -0.23327717,-0.10439 -0.23327717,-0.2386 v -1.11845 c 0,-0.13207 0.1075833,-0.23965 0.23860733,-0.23965 z m 5.03830501,0 h 0.6369795 c 0.1310141,0 0.2332672,0.10225 0.2332672,0.23433 v 0.37815 H 5.459464 v -0.37815 c 0,-0.12995 0.1011931,-0.23433 0.2332772,-0.23433 z m -2.4967868,0.002 h 0.5783878 c 0.1469945,0 0.262038,0.11493 0.262038,0.26202 v 1.06945 c 0,0.14486 -0.1161036,0.2631 -0.262038,0.2631 H 3.1959544 c -0.044701,0 -0.087303,-0.0118 -0.1246239,-0.0319 -0.082003,-0.0447 -0.1374142,-0.13112 -0.1374142,-0.23114 v -1.06945 c 0,-0.10119 0.054302,-0.18757 0.1363442,-0.23124 0.037301,-0.0192 0.079903,-0.0308 0.1256939,-0.0308 z"
       id="path4175" />
  </g>
</svg>
