<?xml version="1.0" encoding="UTF-8" standalone="no"?>
<!-- Created with Inkscape (http://www.inkscape.org/) -->

<svg
   xmlns:dc="http://purl.org/dc/elements/1.1/"
   xmlns:cc="http://creativecommons.org/ns#"
   xmlns:rdf="http://www.w3.org/1999/02/22-rdf-syntax-ns#"
   xmlns:svg="http://www.w3.org/2000/svg"
   xmlns="http://www.w3.org/2000/svg"
   xmlns:sodipodi="http://sodipodi.sourceforge.net/DTD/sodipodi-0.dtd"
   xmlns:inkscape="http://www.inkscape.org/namespaces/inkscape"
   width="235"
   height="700"
   id="svg2"
   version="1.1"
   inkscape:version="0.48.3.1 r9886"
   sodipodi:docname="New document 1">
  <defs
     id="defs4">
		
		
	
		
			
			
			
			
			
			
			
			
			
			
			
			
			
			
		
	
</defs>
  <sodipodi:namedview
     id="base"
     pagecolor="#ffffff"
     bordercolor="#666666"
     borderopacity="1.0"
     inkscape:pageopacity="0.0"
     inkscape:pageshadow="2"
     inkscape:zoom="1.4"
     inkscape:cx="348.32021"
     inkscape:cy="569.54202"
     inkscape:document-units="px"
     inkscape:current-layer="layer1"
     showgrid="false"
     inkscape:window-width="1600"
     inkscape:window-height="797"
     inkscape:window-x="-2"
     inkscape:window-y="24"
     inkscape:window-maximized="1" />
  <metadata
     id="metadata7">
    <rdf:RDF>
      <cc:Work
         rdf:about="">
        <dc:format>image/svg+xml</dc:format>
        <dc:type
           rdf:resource="http://purl.org/dc/dcmitype/StillImage" />
        <dc:title></dc:title>
      </cc:Work>
    </rdf:RDF>
  </metadata>
  <g
     inkscape:label="Layer 1"
     inkscape:groupmode="layer"
     id="layer1"
     transform="translate(0,-352.36218)">
    <g
       id="g3084"
       transform="matrix(0.85622326,0,0,0.85622326,18.681779,46.878519)">
      <path
         style="fill:#73ba25"
         inkscape:connector-curvature="0"
         id="path3088"
         d="m 241.54949,491.93797 c 0,0.19 -0.16,0.351 -0.35899,0.351 h -0.16001 c -0.19,0 -0.351,-0.16 -0.351,-0.351 v -2.979 h -1.68 v 2.979 c 0,0.19 -0.17,0.351 -0.37,0.351 h -0.149 c -0.19,0 -0.351,-0.16 -0.351,-0.351 v -2.979 h -1.26 c -0.18,0 -0.32999,-0.13 -0.32999,-0.33 v -0.17 c 0,-0.2 0.14999,-0.32 0.32999,-0.32 h 4.41001 c 0.17,0 0.29,0.061 0.35,0.16 l 0.83,1.25 0.83,-1.25 c 0.07,-0.09 0.17,-0.16 0.35,-0.16 h 0.561 v 3.83 c 0,0.18 -0.17001,0.35 -0.37,0.35 l -0.05,-0.029 h -0.16 c -0.19,0 -0.351,-0.16 -0.351,-0.351 v -2.5 l -0.55,0.84 c -0.06,0.08 -0.17,0.12 -0.27,0.12 h -0.061 c -0.1,0 -0.22,-0.04 -0.279,-0.12 l -0.56099,-0.84 v 2.499 z" />
      <path
         style="fill:#73ba25"
         inkscape:connector-curvature="0"
         id="path3090"
         d="m 235.64949,519.83797 v 0.81 c 0,1.78 -1.351,3.08 -3.221,3.08 H 208.0995 c -1.77,0 -3.09,-1.33 -3.09,-3.08 v -30.52 c 0,-1.76 1.37,-3.08 3.15,-3.08 l 0.01,0.03 h 23.25 c 1.87001,0 3.23001,1.29 3.23001,3.069 v 0.811 c 0,1.779 -1.36,3.069 -3.23001,3.069 0,0 -18.01999,0 -18.91,0 0,0.801 0,7.2 0,7.99 0.891,0 14.59,0 14.59,0 1.87,0 3.23,1.311 3.23,3.09 v 0.801 c 0,1.79 -1.36,3.079 -3.23,3.079 0,0 -13.699,0 -14.59,0 0,0.801 0,6.99 0,7.78 0.891,0 19.92,0 19.92,0 1.88,10e-4 3.22001,1.311 3.22001,3.071 z" />
      <path
         style="fill:#73ba25"
         inkscape:connector-curvature="0"
         id="path3094"
         d="m 213.79949,396.47797 c 5.47001,0.19 9.75,4.79 9.57,10.26 -0.08,2.64 -1.2,5.09 -3.13,6.9 -1.94,1.8 -4.45999,2.74 -7.12,2.66 -5.45999,-0.2 -9.74,-4.8 -9.56099,-10.27 0.08,-2.65 1.20999,-5.1 3.141,-6.9 1.93,-1.81 4.45,-2.75 7.1,-2.65 z m 6.02,7.91 c 0,-1.63 -1.971,-2.94 -4.4,-2.94 -2.42899,0 -4.38999,1.31 -4.38999,2.94 0,1.61 1.95999,2.93 4.38999,2.93 2.43001,0 4.4,-1.32 4.4,-2.93 z" />
      <path
         style="fill:#73ba25"
         inkscape:connector-curvature="0"
         id="path3098"
         d="m 198.5995,509.62797 v 4.89 c 0,5.601 -3.34,9.21 -8.55001,9.21 h -19.87 c -1.87,0 -3.22,-1.31 -3.22,-3.08 v -0.81 c 0,-1.771 1.35,-3.07 3.22,-3.07 h 18.851 c 2.05001,0 2.109,-2.81 2.109,-3.12 v -2.93 c 0,-0.96 -0.38,-2.09 -2.109,-2.09 h -13.811 c -3.93,0 -8.189,-3.22 -8.189,-8.41 v -4.53 c 0,-3.54 3.34,-8.64 9.359,-8.64 v 0.04 h 16.221 c 1.89,0 3.29,1.33 3.29,3.07 v 0.81 c 0,1.76 -1.391,3.08 -3.221,3.08 h -15.06 c -1.98,0 -3.11,0.97 -3.11,2.67 v 2.69 c 0,1.1 0.92,2.609 2.971,2.609 h 13.60001 c 3.749,10e-4 7.519,2.361 7.519,7.611 z" />
      <path
         style="fill:#73ba25"
         inkscape:connector-curvature="0"
         id="path3100"
         d="m 157.30949,487.04797 c 1.811,0 3.221,1.42 3.221,3.229 v 24.03 c 0,5.59 -4.391,9.641 -10.44999,9.641 h -11.23 c -6.06,0 -10.44901,-4.051 -10.44901,-9.641 v -24.03 c 0,-1.81 1.43001,-3.229 3.22,-3.229 h 1.02001 c 1.80099,0 3.22999,1.45 3.22999,3.229 v 23.141 c 0,1.85 1.49001,3.34 3.33001,3.34 h 10.51 c 1.83,0 3.33,-1.49 3.33,-3.34 v -23.14 c 0,-1.779 1.45,-3.229 3.229,-3.229 h 0.021 1.018 z" />
      <path
         style="fill:#73ba25"
         inkscape:connector-curvature="0"
         id="path3102"
         d="m 121.94949,509.62797 v 4.89 c 0,5.601 -3.36,9.21 -8.55,9.21 H 93.519495 c -1.88,0 -3.23,-1.31 -3.23,-3.08 v -0.81 c 0,-1.771 1.36,-3.07 3.23,-3.07 h 18.849995 c 2.04,0 2.09,-2.81 2.09,-3.12 v -2.93 c 0,-0.96 -0.36,-2.09 -2.09,-2.09 H 98.559495 c -3.95,0 -8.19,-3.22 -8.19,-8.41 v -4.53 c 0,-3.54 3.33,-8.64 9.36,-8.64 l 0.02,0.04 h 16.229995 c 1.88,0 3.29,1.33 3.29,3.07 v 0.81 c 0,1.76 -1.39,3.08 -3.23,3.08 h -15.06 c -1.989995,0 -3.119995,0.97 -3.119995,2.67 v 2.69 c 0,1.1 0.92,2.609 2.969995,2.609 h 13.59 c 3.75,10e-4 7.53,2.361 7.53,7.611 z" />
      <path
         style="fill:#73ba25"
         inkscape:connector-curvature="0"
         id="path3104"
         d="m 235.79949,425.85797 1.02101,-0.19 c 0.279,0.22 0.23899,0.67 0.149,1.07 -0.18901,0.93 -0.64,2.62 -0.95,3.42 l -0.26,0.66 c -0.359,0.98 -0.72,1.91 -1.41,2.47 -1.899,1.73 -4.93901,3.11 -9.69901,5.19 -7.36,3.22 -19.29,5.25 -30.37,5.18 -3.971,-0.09 -7.81099,-0.53 -11.18099,-0.91 -10.319,-1.18 -17.779,-2.02 -19.33,7.36 -1.96,11.76 9.101,26.04 9.211,26.169 l -0.011,0.391 -0.359,0.09 c 0,0 -17.63,-8.12 -18.061,-8.36 l -0.56,-0.399 -0.45,-0.431 c -1.33,-1.279 -4,-4.149 -9.42,-10.43 -10.51,-12.15 -22.81,-13.75 -32.29,-11.44 -2.31,0.55 -5.25,2.24 -7.16,4.14 -4.950005,4.88 -4.39,14.71 -4.11,18.29 0.33,4.05 0.54,4.35 0.63,4.68 l -0.06,0.41 -0.35,0.04 -0.2,-0.14 -14.460005,-7.07 -0.55,-2.36 c -0.37,-1.56 -0.8,-3.29 -1.62,-5.46 -5.17,-13.63 -16.79,-23.88 -29.59,-26.09 -8.65,-1.49 -24.42,-1.66 -32.77,14.1 -3.49,6.58 -3.28,15.15 0.55,22.37 3.9,7.391 10.87,12.13 19.12,13.04 8.18,0.891 14.33,-1 17.78,-5.47 3.48,-4.51 4.13,-10.65 1.66,-15.65 -2.65,-5.369 -6.65,-8.22 -12.21,-8.689 -4.23,-0.38 -7.37,1.38 -8.5,3.18 -0.33,0.561 -0.93,1.601 -0.94,3.08 v 0.05 c 0,4.03 3.69,5.13 4.44,5.181 0.23,0 1.34,-0.03 2.81,-0.4 l 0.71,-0.229 0.49,-0.171 0.36,-0.069 c 2.68,-0.49 5.26,1.09 6.01,3.7 0.13,0.479 0.2,0.96 0.2,1.439 0,1.73 -0.88,3.34 -2.34,4.32 l 0.06,-0.021 -0.16,0.09 -0.24,0.15 c -0.77,0.49 -1.48,0.76 -2.23,0.99 -2.1,0.689 -3.96,1.01 -5.83,1.01 -6.38,-0.01 -15.27,-5.5 -15.39,-15.81 -0.06,-5.82 2.86,-11.12 8,-14.53 5.92,-3.91 16.15,-5.24 25.64,0.58 11.68,7.15 14.73,21.149 11.68,30.7 -4.43,13.83 -16.89,21.22 -33.34,19.75 -11.65,-1.04 -22.47,-7.19 -28.91,-16.45 -2.86,-4.101 -4.98,-8.67 -6.12,-13.23 -2.63,-10.43 0.03,-21.51 2.01,-26.42 6.3,-15.61 18.36,-29.04 35.81,-39.93 l 1.1,-0.69 c 37.12,-22.811 63.389995,-21.891 82.620005,-21.221 22.681,0.79 46.86999,8.61 50.20999,9.72 0.011,-0.75 0.141,-7.51 0.141,-7.51 l 0.1,-0.23 0.26,-0.07 c 1.521,0.21 34.11,5.05 47.841,13.05 1.699,1 2.539,2.04 3.59,3.12 3.79,3.92 8.81,20.25 9.34,23.62 l -0.2,0.34 c -0.2,0.07 -0.67,0.42 -1.3,0.84 -3.2,2.24 -10.69,7.48 -20.29,6.62 -8.63,-0.76 -19.9,-5.71 -33.49,-14.66 0.601,1.41 3.43,8.11 3.91,9.24 l 0.18,0.22 c 1.971,1.02 20.851,10.64 30.221,10.45 7.557,-0.15 15.627,-3.84 18.857,-5.78 z m -8.77999,-18.83 c 0.261,-7.68 -5.77,-14.16 -13.46,-14.43 -3.72,-0.13 -7.27,1.19 -9.989,3.73 -2.73,2.54 -4.29,5.99 -4.42,9.71 -0.25,7.68 5.77,14.15 13.449,14.43 3.74,0.13 7.28,-1.19 10,-3.74 2.72,-2.54 4.28,-5.98 4.42,-9.7 z" />
      <path
         style="fill:#73ba25"
         inkscape:connector-curvature="0"
         id="path3106"
         d="m 72.119495,502.81797 c 1.3,-0.619 2.92,-1.38 5.06,-1.38 h 0.66 c 3.74,0 6.16,2.23 6.16,5.66 v 15.02 c 0,0.909 -0.74,1.649 -1.63,1.649 h -0.64 c -0.91,0 -1.63,-0.74 -1.63,-1.649 v -14.48 c 0,-1.36 -1.11,-2.47 -2.46,-2.47 h -5.43 c -1.36,0 -2.46,1.109 -2.46,2.47 v 14.48 c 0,0.909 -0.74,1.649 -1.63,1.649 h -0.64 c -0.91,0 -1.63,-0.74 -1.63,-1.649 v -19.14 c 0,-0.819 0.55,-1.399 1.31,-1.399 h 0.63 c 0.6,0 1.04,0.26 1.28,0.77 l 0.45,0.82 c 0.19,0.34 0.29,0.359 0.54,0.359 0.56,0 1.25,-0.34 2.06,-0.71 z" />
      <path
         style="fill:#73ba25"
         inkscape:connector-curvature="0"
         id="path3108"
         d="m 61.349495,506.88797 v 4.43 c 0,1.891 -1.1,3.011 -2.92,3.011 0,0 -10.86,0 -11.37,0 0,0.46 0,3.34 0,3.34 0,1.649 0.93,2.51 2.7,2.51 h 6.3 c 0.94,0 1.63,0.65 1.63,1.54 v 0.5 c 0,0.9 -0.69,1.55 -1.63,1.55 h -7.68 c -2.84,0 -5.24,-2.52 -5.24,-5.479 v -11.432 c 0,-2.92 2.47,-5.279 5.51,-5.279 l 0.01,0.02 h 7.17 c 3.04,-0.001 5.52,2.379 5.52,5.289 z m -3.94,4.04 c 0,-0.46 0,-3.55 0,-3.55 0,-1.24 -0.96,-2.2 -2.19,-2.2 h -5.98 c -1.24,0 -2.19,0.98 -2.19,2.2 0,0 0,3.09 0,3.55 0.48,0 9.88,0 10.36,0 z" />
      <path
         style="fill:#73ba25"
         inkscape:connector-curvature="0"
         id="path3110"
         d="m 23.339495,517.69797 c 0,0.939 0.52,1.75 1.29,2.17 l -0.92,2.029 c -0.17,0 -0.36,0.301 -0.36,0.58 v 9.69 c 0,0.89 -0.73,1.63 -1.63,1.63 h -0.64 c -0.92,0 -1.63,-0.73 -1.63,-1.63 v -29.19 c 0,-0.779 0.58,-1.399 1.27,-1.399 h 0.73 c 0.62,0 1.12,0.479 1.23,0.729 l 0.48,0.95 c 0.12,0.17 0.33,0.27 0.55,0.27 l 0.91,1.96 c -0.77,0.41 -1.28,1.221 -1.28,2.171 v 10.04 z" />
      <path
         style="fill:#73ba25"
         inkscape:connector-curvature="0"
         id="path3112"
         d="m 31.459495,501.44797 c 3.75,0 6.16,2.229 6.16,5.659 v 11.141 c 0,3.489 -2.36,5.649 -6.16,5.649 h -0.67 c -2.15,0 -3.77,-0.739 -5.06,-1.33 -0.8,-0.369 -1.48,-0.67 -2.02,-0.67 l 0.92,-2.029 c 0.35,0.189 0.75,0.3 1.17,0.3 h 5.43 c 1.37,0 2.46,-1.11 2.46,-2.47 v -10.04 c 0,-1.381 -1.08,-2.46 -2.46,-2.46 h -5.43 c -0.43,0 -0.83,0.109 -1.18,0.289 l -0.91,-1.96 c 0.54,0 1.22,-0.319 2,-0.699 1.31,-0.62 2.92,-1.391 5.07,-1.391 v 0.011 h 0.68 z" />
      <path
         style="fill:#73ba25"
         inkscape:connector-curvature="0"
         id="path3114"
         d="m 13.899495,506.85797 v 11.521 c 0,2.96 -2.4,5.37 -5.34,5.37 h -7.44 c -2.93,0 -5.32,-2.41 -5.32,-5.37 v -11.521 c 0,-2.92 2.47,-5.279 5.51,-5.279 h 7.08 c 3.04,-0.001 5.51,2.369 5.51,5.279 z m -3.92,11.07 v -10.5 c 0,-1.22 -1.03,-2.25 -2.24,-2.25 h -5.8 c -1.23,0 -2.24,1.01 -2.24,2.25 v 10.5 c 0,1.26 0.96,2.24 2.19,2.24 h 5.85 c 1.24,0 2.24,-1.01 2.24,-2.24 z" />
    </g>
  </g>
</svg>
