<?xml version="1.0" encoding="UTF-8" standalone="no"?>
<svg
   xmlns:dc="http://purl.org/dc/elements/1.1/"
   xmlns:cc="http://creativecommons.org/ns#"
   xmlns:rdf="http://www.w3.org/1999/02/22-rdf-syntax-ns#"
   xmlns:svg="http://www.w3.org/2000/svg"
   xmlns="http://www.w3.org/2000/svg"
   id="svg8"
   version="1.1"
   viewBox="0 0 1500 500.00002"
   height="500"
   width="1500">
  <defs
     id="defs2">
    <filter
       style="color-interpolation-filters:sRGB"
       id="filter1746"
       x="-0.10269711"
       width="1.2053942"
       y="-0.055431125"
       height="1.1108623">
      <feGaussianBlur
         stdDeviation="2.5546644"
         id="feGaussianBlur1748" />
    </filter>
    <filter
       style="color-interpolation-filters:sRGB"
       id="filter1750"
       x="-0.14453534"
       width="1.2890707"
       y="-0.097510571"
       height="1.1950211">
      <feGaussianBlur
         stdDeviation="2.5546644"
         id="feGaussianBlur1752" />
    </filter>
    <filter
       style="color-interpolation-filters:sRGB"
       id="filter1754"
       x="-0.15964213"
       width="1.3192843"
       y="-0.11329134"
       height="1.2265827">
      <feGaussianBlur
         stdDeviation="2.5546644"
         id="feGaussianBlur1756" />
    </filter>
  </defs>
  <metadata
     id="metadata5">
    <rdf:RDF>
      <cc:Work
         rdf:about="">
        <dc:format>image/svg+xml</dc:format>
        <dc:type
           rdf:resource="http://purl.org/dc/dcmitype/StillImage" />
        <dc:title></dc:title>
      </cc:Work>
    </rdf:RDF>
  </metadata>
  <g
     transform="translate(0,-622.51965)"
     id="layer1">
    <rect
       y="622.51965"
       x="0"
       height="500"
       width="1500"
       id="rect857"
       style="opacity:1;fill:#173f4f;fill-opacity:1;stroke:none;stroke-width:4.26575565;stroke-miterlimit:4;stroke-dasharray:none;stroke-opacity:1" />
    <g
       transform="translate(544.28568,646.80536)"
       id="g855">
      <flowRoot
         id="flowRoot12"
         xml:space="preserve"
         style="font-size:40px;line-height:2.25;font-family:'Open Sans Condensed';letter-spacing:0px;word-spacing:0px;fill:#ffffff"
         word-spacing="0px"
         letter-spacing="0px"
         font-size="40px"
         transform="matrix(0.87556923,0,0,0.87556923,229.10766,74.338492)"><flowRegion
           id="flowRegion8"
           style="line-height:2.25;font-family:'Open Sans Condensed'"><rect
             id="rect6"
             height="263.04001"
             width="386.56"
             y="149.27"
             x="-226.52"
             style="fill:#ffffff" /></flowRegion><flowPara
           id="flowPara10"
           style="font-size:93.71099854px;line-height:2.25;text-align:center;text-anchor:middle"
           text-align="center"
           font-size="93.711px">Leap 15.0</flowPara></flowRoot>      <g
         id="g18"
         transform="matrix(2.3511385,0,0,2.3511385,114.55997,61.538492)"
         style="fill:#ffffff">
        <path
           id="path14"
           d="M 34.526,38.787 59.721,19.179 34.691,0 9.495,19.608 Z" />
        <path
           id="path16"
           d="M 34.548,46.15 6.683,24.798 0,29.999 34.961,56.788 69.652,29.79 62.556,24.354 Z" />
      </g>
      <flowRoot
         id="flowRoot12-3"
         xml:space="preserve"
         style="font-size:40px;line-height:2.25;font-family:'Open Sans Condensed';letter-spacing:0px;word-spacing:0px;fill:#ffffff"
         word-spacing="0px"
         letter-spacing="0px"
         font-size="40px"
         transform="matrix(0.3915104,0,0,0.3915104,134.00003,143.95895)"><flowRegion
           id="flowRegion8-6"
           style="line-height:2.25;font-family:'Open Sans Condensed'"><rect
             id="rect6-7"
             height="263.04001"
             width="386.56"
             y="149.27"
             x="-226.52"
             style="fill:#ffffff" /></flowRegion><flowPara
           id="flowPara10-5"
           style="font-size:93.71099854px;line-height:2.25;text-align:center;text-anchor:middle"
           text-align="center"
           font-size="93.711px">openSUSE</flowPara></flowRoot>    </g>
    <g
       id="layer1-6"
       transform="matrix(3.7795276,0,0,3.7795276,1047.0968,-133.91906)">
      <path
         style="fill:#73ba25;fill-opacity:1;stroke-width:0.09536625;filter:url(#filter1750)"
         d="m 38.496041,289.51295 c -0.356761,-0.12751 -0.381461,-0.29878 -0.381622,-2.64614 -6.92e-4,-9.97678 -2.211741,-19.66488 -7.248958,-31.76258 -1.424676,-3.4216 -2.864932,-6.57432 -5.328051,-11.66311 -0.845371,-1.74653 -1.537038,-3.21519 -1.537038,-3.26369 0,-0.17019 0.967,-2.33961 1.38319,-3.10313 2.082201,-3.81985 5.048146,-6.69474 8.630265,-8.36532 5.174218,-2.41308 11.936847,-2.67565 18.815344,-0.73054 l 1.029539,0.29113 0.431014,-0.47939 c 0.274725,-0.30555 0.661445,-0.59283 1.066511,-0.79224 0.616644,-0.30358 0.670936,-0.31279 1.829586,-0.31082 0.889344,0.002 1.352283,0.0484 1.813962,0.18383 1.623497,0.47613 3.45113,1.39117 4.81855,2.41253 0.79466,0.59354 1.23613,1.20531 1.94437,2.69443 0.92991,1.95518 0.87455,3.27263 -0.17122,4.07431 -0.60474,0.4636 -1.02571,0.55198 -2.58632,0.54298 -1.16117,-0.006 -1.61209,-0.0559 -2.813299,-0.30686 -1.919944,-0.40114 -3.68317,-0.91972 -3.835517,-1.12807 -0.280313,-0.38335 0.01072,-0.9901 0.473856,-0.98793 0.118014,5.8e-4 0.748305,0.15077 1.400643,0.33382 1.996789,0.5603 3.540017,0.83063 4.822007,0.8447 0.97004,0.0106 1.20251,-0.0165 1.52586,-0.17818 0.5316,-0.2658 0.66959,-0.59278 0.53821,-1.27531 -0.13087,-0.67989 -1.18338,-2.79668 -1.59546,-3.20877 -0.77907,-0.77906 -2.965011,-1.97961 -4.52168,-2.48336 -0.651346,-0.21078 -0.997981,-0.26379 -1.764273,-0.26981 -1.309105,-0.0103 -1.6778,0.18418 -2.376379,1.25344 -0.17362,0.26574 -0.379809,0.46461 -0.499486,0.48175 -0.112096,0.0161 -0.696608,-0.12021 -1.298913,-0.3028 -3.02771,-0.91785 -6.167424,-1.3924 -9.224765,-1.39427 -7.247119,-0.004 -12.741029,2.70486 -16.312505,8.04442 -0.666304,0.99616 -1.611012,2.76277 -2.029677,3.79551 l -0.141612,0.34931 0.906761,1.84411 c 8.149699,16.57432 11.688228,27.22121 12.863118,38.70317 0.09045,0.88395 0.172474,2.86468 0.204043,4.92726 l 0.05279,3.44909 c 0.0018,0.11613 -0.149374,0.24636 -0.149374,0.24636 -0.24479,0.24479 -0.459449,0.2781 -0.733466,0.18017 z"
         id="path1477-5" />
      <path
         style="fill:#73ba25;fill-opacity:1;stroke-width:0.09536625;filter:url(#filter1754)"
         d="m 51.583671,289.47937 c -0.118776,-0.0472 -0.258249,-0.19712 -0.309938,-0.33307 -0.05171,-0.136 -0.09398,-1.22095 -0.09398,-2.41218 0,-9.45312 2.080998,-19.0312 6.561328,-30.19942 1.679692,-4.18701 3.371956,-7.93863 6.447452,-14.29347 0.74355,-1.53638 0.89573,-1.92211 0.8026,-2.03431 -0.19192,-0.23126 -1.18451,-0.68819 -1.86676,-0.85934 -0.9464,-0.23743 -3.83119,-0.21148 -6.118945,0.055 -0.965766,0.11252 -2.151647,0.20457 -2.635289,0.20457 -0.831303,0 -0.882492,0.0117 -0.936853,0.21457 -0.180589,0.67385 0.0045,1.14469 0.984009,2.50336 1.123831,1.55885 1.346491,2.12846 0.966444,2.4724 -0.147045,0.13307 -0.431911,0.17571 -1.454335,0.21767 l -1.271474,0.0522 -1.192078,-1.0252 c -3.347906,-2.87921 -6.151032,-4.81614 -6.970271,-4.81639 -0.445956,-9e-5 -0.515089,0.31447 -0.523878,2.38408 -0.0044,1.0228 -0.01507,1.9123 -0.02384,1.97665 -0.0088,0.0643 -0.11499,0.1819 -0.236046,0.26123 -0.197315,0.12928 -0.413507,0.12545 -2.088451,-0.037 -1.027593,-0.0997 -1.950737,-0.22529 -2.051429,-0.27919 -0.137472,-0.0736 -0.268361,-0.44036 -0.525457,-1.47249 -0.771773,-3.09834 -1.625323,-4.26225 -3.615532,-4.93016 -0.438482,-0.14715 -1.1191,-0.32084 -1.512486,-0.38596 -0.620148,-0.10266 -0.797354,-0.0972 -1.332776,0.0414 -0.794188,0.2054 -1.358679,0.53935 -1.973382,1.16743 -0.685303,0.70023 -1.113651,1.60064 -1.161122,2.44077 -0.05783,1.02344 0.104253,1.44514 0.836807,2.17717 1.366992,1.36602 2.603884,1.47098 3.233444,0.27441 0.208693,-0.39666 0.219461,-0.497 0.169503,-1.57939 -0.04769,-1.03318 -0.03512,-1.17232 0.118439,-1.31129 0.195495,-0.17692 0.513766,-0.20079 0.779682,-0.0585 0.4485,0.24003 0.576298,2.28877 0.20263,3.2484 -0.8897,2.28485 -3.485536,2.40074 -5.522876,0.24656 -1.480585,-1.5655 -1.522364,-3.67271 -0.11262,-5.68011 0.988549,-1.40766 2.612149,-2.29869 4.188534,-2.29869 1.146051,0 3.075824,0.60505 4.098779,1.28511 1.241095,0.82508 2.016096,2.09007 2.630617,4.29382 0.190142,0.68187 0.359886,1.28759 0.37721,1.34604 0.01828,0.0617 0.404901,0.13451 0.921589,0.17355 0.489548,0.037 0.982251,0.0893 1.094893,0.11619 0.202371,0.0483 0.205202,0.0297 0.238415,-1.5633 0.03279,-1.57286 0.0406,-1.62582 0.319711,-2.17013 0.368783,-0.71917 0.904742,-1.04458 1.592712,-0.96703 1.301083,0.14668 4.028378,1.99486 8.005996,5.42537 0.488484,0.4213 0.57036,0.4589 0.874884,0.40177 l 0.335963,-0.0631 -0.556199,-0.75014 c -0.894114,-1.2059 -1.098198,-1.70106 -1.098198,-2.66454 0,-0.85422 0.108955,-1.19673 0.559784,-1.75969 0.193844,-0.24206 0.277352,-0.27624 0.59576,-0.24388 0.813236,0.0827 2.353188,0.0209 3.755818,-0.15061 2.048365,-0.2505 5.270494,-0.25463 6.321534,-0.008 1.4183,0.33267 3.11973,1.43579 3.11973,2.0227 0,0.12394 -0.54058,1.33257 -1.20129,2.68583 -6.552374,13.42068 -9.778899,22.0683 -11.574925,31.02269 -0.914641,4.56009 -1.453928,10.31479 -1.296638,13.83637 0.05603,1.25436 0.04533,1.41053 -0.108821,1.5891 -0.213055,0.24679 -0.487539,0.32189 -0.768376,0.21022 z"
         id="path1473-3" />
      <path
         style="fill:#35b9ab;fill-opacity:1;stroke-width:0.09536625;filter:url(#filter1746)"
         d="m 45.177454,319.90309 c -0.656691,-0.0912 -1.73418,-0.40079 -2.069862,-0.59469 -0.112443,-0.0649 -0.496104,-0.48287 -0.852583,-0.92872 -2.019379,-2.52559 -3.642776,-3.94623 -5.68178,-4.97218 -0.437322,-0.22005 -0.87023,-0.46396 -0.962019,-0.54203 -0.228134,-0.19404 -0.215288,-0.7066 0.02311,-0.92235 0.203438,-0.18411 0.541966,-0.1776 2.623297,0.0504 1.474203,0.16147 6.714688,0.22434 8.344548,0.10011 3.412016,-0.26006 5.874424,-0.82739 7.724666,-1.77972 0.445834,-0.22949 0.977321,-0.55489 1.181082,-0.72313 l 0.370467,-0.30589 -0.0638,-0.90762 c -0.03509,-0.49918 -0.07761,-0.92142 -0.09449,-0.93829 -0.01688,-0.0169 -0.326538,0.10221 -0.688131,0.26465 -3.200828,1.43793 -7.897201,2.19402 -12.816644,2.06342 -2.27025,-0.0603 -3.258259,-0.14875 -5.085115,-0.45543 -2.216104,-0.37203 -4.801473,-1.16111 -5.072611,-1.54821 -0.115902,-0.16548 -0.14183,-0.61817 -0.14183,-2.47632 0,-1.42042 0.03797,-2.3448 0.101164,-2.46288 0.185712,-0.34701 0.483824,-0.37553 1.293881,-0.12382 5.041534,1.56663 11.471478,1.90061 16.438442,0.85385 1.717974,-0.36205 3.545414,-1.00023 5.125937,-1.79007 l 0.977503,-0.4885 v -1.12764 c 0,-0.6202 -0.02096,-1.12764 -0.04657,-1.12764 -0.02561,0 -0.422571,0.15617 -0.882137,0.34703 -2.482754,1.03115 -5.178922,1.70936 -8.178771,2.05734 -1.366678,0.15853 -5.597966,0.15331 -6.961739,-0.009 -1.480577,-0.17578 -3.437983,-0.54059 -4.711191,-0.87806 -1.375039,-0.36446 -2.854657,-0.92778 -2.959227,-1.12663 -0.04415,-0.084 -0.111005,-1.18262 -0.148559,-2.44145 -0.06797,-2.27833 -0.0673,-2.29003 0.146079,-2.55986 0.256905,-0.32488 0.276655,-0.32341 2.093973,0.15534 1.398475,0.3684 3.71431,0.75354 5.674291,0.94367 1.874028,0.18178 6.637832,0.15297 8.374607,-0.0506 5.250352,-0.61557 8.976463,-2.0035 11.451471,-4.26551 l 0.55731,-0.50935 -0.06681,-0.71915 c -0.146142,-1.5731 -0.213153,-4.61908 -0.139573,-6.34442 0.168384,-3.94833 0.758016,-7.15553 1.990198,-10.82541 1.03529,-3.08346 2.32166,-5.84647 5.12814,-11.0148 1.49208,-2.74778 2.93229,-5.60748 3.57814,-7.10479 1.7372,-4.02742 2.66996,-7.68355 3.03668,-11.90277 0.1691,-1.9454 0.0687,-5.87587 -0.18678,-7.31353 -0.53868,-3.03118 -1.36749,-5.52846 -2.7536,-8.29687 -3.86847,-7.72629 -10.567466,-13.414 -18.320406,-15.55474 -5.56441,-1.53645 -11.756942,-1.21438 -17.083906,0.88851 -5.13814,2.02835 -9.72159,5.6911 -13.185398,10.53679 -2.696649,3.77247 -4.54285,8.25834 -5.278529,12.82567 -0.203031,1.26049 -0.281239,4.95207 -0.141048,6.65773 0.416542,5.06791 1.593583,9.21965 4.05552,14.30494 0.482472,0.99658 1.686984,3.31398 2.676693,5.14978 3.579581,6.63973 4.965471,9.897 5.967063,14.02446 0.761765,3.13917 1.072309,5.84264 1.078374,9.38795 0.0053,3.07986 -0.163311,5.46942 -0.410407,5.81735 -0.230338,0.32433 -0.690267,0.36617 -0.968354,0.0881 -0.191572,-0.19157 -0.204065,-0.27063 -0.147809,-0.93544 0.478824,-5.65856 0.208963,-9.9385 -0.90566,-14.36356 -0.967278,-3.8401 -2.358946,-7.0596 -5.85369,-13.54201 -3.46234,-6.4223 -4.851363,-9.67067 -5.817179,-13.60404 -0.765608,-3.11798 -1.041813,-5.54189 -1.041601,-9.1408 1.34e-4,-2.35046 0.02923,-2.90352 0.215207,-4.09056 1.52508,-9.73446 8.036073,-18.76056 16.730462,-23.19323 4.068711,-2.07436 8.204491,-3.06116 12.849079,-3.06582 2.82838,-0.003 4.547941,0.20753 7.200148,0.8809 3.781939,0.96019 7.606088,2.89289 10.871751,5.49451 1.33082,1.06021 3.79283,3.51339 4.79002,4.77283 3.74924,4.73528 5.9944,9.73715 6.86374,15.29136 0.24335,1.55479 0.24147,6.31346 -0.004,8.29686 -0.76489,6.19826 -2.1686,10.02123 -6.88074,18.73947 -3.06315,5.66735 -4.40129,8.69483 -5.38179,12.17607 -1.28822,4.5738 -1.652447,8.89604 -1.22948,14.59006 l 0.11099,1.49406 -0.31437,0.36558 c -1.682355,1.95637 -4.871179,3.65815 -8.546157,4.56081 -2.735217,0.67185 -5.284713,0.94005 -8.91132,0.93748 -3.712957,-0.003 -6.80006,-0.32855 -9.658248,-1.01965 l -0.932237,-0.22541 0.02626,1.4388 0.02626,1.4388 0.476831,0.17795 c 1.683271,0.62818 4.604393,1.21129 7.057103,1.40871 1.721855,0.1386 4.952637,0.0636 6.532588,-0.15158 3.053969,-0.416 6.006069,-1.28281 8.318588,-2.44255 0.405333,-0.20328 0.796509,-0.3696 0.869275,-0.3696 0.07277,0 0.305059,-0.0304 0.443264,0.0783 0,0 0.191596,0.21045 0.191596,0.31701 0,2.03896 0,2.03896 0,2.03896 0,1.22319 -0.04013,2.12705 -0.100309,2.25913 -0.05517,0.12109 -0.237559,0.29925 -0.405307,0.39591 -2.664283,1.53538 -5.660541,2.50567 -9.174057,2.97084 -4.129966,0.54679 -9.872752,0.0746 -14.092886,-1.15872 -0.157867,-0.0462 -0.167617,0.0498 -0.14305,1.40746 l 0.02637,1.45697 0.971242,0.31272 c 2.236603,0.72012 4.69527,1.07178 8.009159,1.14555 5.435502,0.12101 9.906799,-0.68736 13.075393,-2.36391 0.486466,-0.25739 1.011182,-0.46799 1.166035,-0.46799 0.508571,0 0.559255,0.20639 0.580432,2.36344 0.02183,2.22288 0.08136,2.05581 -1.009729,2.83321 -2.722285,1.93962 -7.351562,2.82275 -14.111126,2.69199 l -2.762545,-0.0534 0.426071,0.34189 c 0.711331,0.57079 2.782921,2.69167 3.47038,3.55298 0.355851,0.44583 0.739127,0.85858 0.851723,0.91721 0.800293,0.41672 2.822993,0.49722 3.925276,0.15622 0.367861,-0.11381 0.882701,-0.35897 1.14409,-0.54481 0.539951,-0.38389 0.821233,-0.42167 1.09574,-0.14716 0.292423,0.29242 0.247195,0.72212 -0.110376,1.04871 -0.953325,0.87072 -3.119525,1.38165 -4.842891,1.14226 z"
         id="path1479-7" />
      <path
         style="fill:#35b9ab;fill-opacity:1;stroke-width:0.09536625"
         d="m 45.177454,319.90309 c -0.656689,-0.0912 -1.734179,-0.40079 -2.069861,-0.59469 -0.112443,-0.0649 -0.496104,-0.48287 -0.852582,-0.92872 -2.01938,-2.52559 -3.642777,-3.94623 -5.681781,-4.97218 -0.437322,-0.22005 -0.87023,-0.46396 -0.962019,-0.54203 -0.228134,-0.19404 -0.215288,-0.7066 0.02311,-0.92235 0.203438,-0.18411 0.541966,-0.1776 2.623297,0.0504 1.474203,0.16147 6.714686,0.22434 8.344546,0.10011 3.412018,-0.26006 5.874426,-0.82739 7.724666,-1.77972 0.445838,-0.22949 0.977325,-0.55489 1.181081,-0.72313 l 0.370467,-0.30589 -0.0638,-0.90762 c -0.03509,-0.49918 -0.07761,-0.92142 -0.09449,-0.93829 -0.01688,-0.0169 -0.326538,0.10221 -0.688133,0.26465 -3.200827,1.43793 -7.897201,2.19402 -12.816644,2.06342 -2.270248,-0.0603 -3.258257,-0.14875 -5.085113,-0.45543 -2.216104,-0.37203 -4.801473,-1.16111 -5.072611,-1.54821 -0.115902,-0.16548 -0.14183,-0.61817 -0.14183,-2.47632 0,-1.42042 0.03797,-2.3448 0.101164,-2.46288 0.185712,-0.34701 0.483824,-0.37553 1.293881,-0.12382 5.041534,1.56663 11.471476,1.90061 16.438442,0.85385 1.717974,-0.36205 3.545413,-1.00023 5.125937,-1.79007 l 0.977503,-0.4885 v -1.12764 c 0,-0.6202 -0.02095,-1.12764 -0.04657,-1.12764 -0.02561,0 -0.422573,0.15617 -0.882137,0.34703 -2.482756,1.03115 -5.178922,1.70936 -8.178772,2.05734 -1.366678,0.15853 -5.597964,0.15331 -6.961737,-0.009 -1.480577,-0.17578 -3.437983,-0.54059 -4.711191,-0.87806 -1.375039,-0.36446 -2.854657,-0.92778 -2.959227,-1.12663 -0.04415,-0.084 -0.111005,-1.18262 -0.148559,-2.44145 -0.06797,-2.27833 -0.0673,-2.29003 0.146079,-2.55986 0.256905,-0.32488 0.276655,-0.32341 2.093973,0.15534 1.398475,0.3684 3.71431,0.75354 5.674291,0.94367 1.874028,0.18178 6.637829,0.15297 8.374606,-0.0506 5.250352,-0.61557 8.976463,-2.0035 11.451472,-4.26551 l 0.557311,-0.50935 -0.06681,-0.71915 c -0.146144,-1.5731 -0.213152,-4.61908 -0.139572,-6.34442 0.168384,-3.94833 0.758014,-7.15553 1.990201,-10.82541 1.035291,-3.08346 2.321661,-5.84647 5.128133,-11.0148 1.492082,-2.74778 2.932294,-5.60748 3.578147,-7.10479 1.737194,-4.02742 2.669957,-7.68355 3.036675,-11.90277 0.1691,-1.9454 0.0687,-5.87587 -0.186779,-7.31353 -0.538682,-3.03117 -1.367491,-5.52845 -2.753603,-8.29686 -3.868469,-7.72629 -10.567465,-13.414 -18.320406,-15.55474 -5.56441,-1.53645 -11.756941,-1.21438 -17.083905,0.88851 -5.13814,2.02835 -9.72159,5.6911 -13.185398,10.53679 -2.696649,3.77247 -4.54285,8.25834 -5.278529,12.82567 -0.203031,1.26049 -0.281239,4.95207 -0.141048,6.65773 0.416542,5.06791 1.593583,9.21965 4.05552,14.30494 0.482472,0.99658 1.686984,3.31398 2.676693,5.14978 3.579581,6.63973 4.965471,9.897 5.967063,14.02446 0.761765,3.13917 1.072309,5.84264 1.078374,9.38795 0.0053,3.07986 -0.163311,5.46942 -0.410407,5.81735 -0.230338,0.32433 -0.690267,0.36617 -0.968354,0.0881 -0.191572,-0.19157 -0.204065,-0.27063 -0.147809,-0.93544 0.478824,-5.65856 0.208963,-9.9385 -0.90566,-14.36356 -0.967278,-3.8401 -2.358946,-7.0596 -5.85369,-13.54201 -3.46234,-6.4223 -4.851363,-9.67067 -5.817179,-13.60404 -0.765605,-3.11799 -1.04181,-5.5419 -1.041598,-9.14081 1.34e-4,-2.35046 0.02923,-2.90352 0.215207,-4.09056 1.52508,-9.73446 8.036073,-18.76056 16.730462,-23.19323 4.068711,-2.07436 8.204491,-3.06116 12.849077,-3.06582 2.828381,-0.003 4.547942,0.20753 7.200151,0.8809 3.781937,0.96019 7.606086,2.89289 10.871753,5.49451 1.330817,1.06021 3.792829,3.51339 4.790014,4.77283 3.749244,4.73528 5.994401,9.73715 6.863741,15.29136 0.24335,1.55479 0.24147,6.31346 -0.004,8.29686 -0.76489,6.19826 -2.168598,10.02123 -6.880733,18.73947 -3.063155,5.66735 -4.401291,8.69483 -5.381791,12.17607 -1.288222,4.5738 -1.65245,8.89604 -1.229482,14.59006 l 0.110985,1.49406 -0.31437,0.36558 c -1.682351,1.95637 -4.871175,3.65815 -8.546151,4.56081 -2.735218,0.67185 -5.284715,0.94005 -8.911321,0.93748 -3.712957,-0.003 -6.80006,-0.32855 -9.658248,-1.01965 l -0.932237,-0.22541 0.02626,1.4388 0.02626,1.4388 0.476831,0.17795 c 1.683271,0.62818 4.604393,1.21129 7.057103,1.40871 1.721854,0.1386 4.952638,0.0636 6.532588,-0.15158 3.053969,-0.416 6.006068,-1.28281 8.318588,-2.44255 0.405334,-0.20328 0.796509,-0.3696 0.869276,-0.3696 0.07277,0 0.305059,-0.0304 0.443262,0.0783 0,0 0.191597,0.21045 0.191597,0.31701 0,2.03896 0,2.03896 0,2.03896 0,1.22319 -0.04013,2.12705 -0.10031,2.25913 -0.05517,0.12109 -0.237558,0.29925 -0.405307,0.39591 -2.664282,1.53538 -5.660539,2.50567 -9.174057,2.97084 -4.129965,0.54679 -9.872751,0.0746 -14.092885,-1.15872 -0.157867,-0.0462 -0.167617,0.0498 -0.14305,1.40746 l 0.02637,1.45697 0.971242,0.31272 c 2.236603,0.72012 4.69527,1.07178 8.009159,1.14555 5.435502,0.12101 9.906801,-0.68736 13.075393,-2.36391 0.486466,-0.25739 1.011184,-0.46799 1.166037,-0.46799 0.50857,0 0.559255,0.20639 0.58043,2.36344 0.02182,2.22288 0.08136,2.05581 -1.009727,2.83321 -2.722287,1.93962 -7.351563,2.82275 -14.111128,2.69199 l -2.762545,-0.0534 0.426071,0.34189 c 0.711331,0.57079 2.782921,2.69167 3.47038,3.55298 0.355853,0.44583 0.739128,0.85858 0.851723,0.91721 0.800293,0.41672 2.822994,0.49722 3.925276,0.15622 0.367861,-0.11381 0.882702,-0.35897 1.14409,-0.54481 0.539952,-0.38389 0.821234,-0.42167 1.095742,-0.14716 0.292421,0.29242 0.247195,0.72212 -0.110376,1.04871 -0.953327,0.87072 -3.119525,1.38165 -4.842891,1.14226 z"
         id="path1479" />
      <path
         style="fill:#73ba25;fill-opacity:1;stroke-width:0.09536625"
         d="m 38.496039,289.5129 c -0.356761,-0.12751 -0.381461,-0.29878 -0.381622,-2.64614 -6.92e-4,-9.97678 -2.211741,-19.66488 -7.248958,-31.76258 -1.424676,-3.4216 -2.864932,-6.57432 -5.328051,-11.66311 -0.845371,-1.74653 -1.537038,-3.21519 -1.537038,-3.26369 0,-0.17019 0.967,-2.33961 1.38319,-3.10313 2.082201,-3.81985 5.048146,-6.69474 8.630265,-8.36532 5.174218,-2.41308 11.936847,-2.67565 18.815344,-0.73054 l 1.029539,0.29113 0.431013,-0.47939 c 0.274726,-0.30555 0.661446,-0.59283 1.066513,-0.79224 0.616643,-0.30358 0.670936,-0.31279 1.829584,-0.31082 0.889344,0.002 1.352283,0.0484 1.813964,0.18383 1.623496,0.47613 3.451131,1.39117 4.818552,2.41253 0.794653,0.59354 1.236124,1.20531 1.944366,2.69443 0.929908,1.95518 0.874546,3.27263 -0.171214,4.07431 -0.604744,0.4636 -1.025716,0.55198 -2.586321,0.54298 -1.161171,-0.006 -1.612093,-0.0559 -2.813305,-0.30686 -1.919943,-0.40114 -3.683168,-0.91972 -3.835515,-1.12807 -0.280312,-0.38335 0.01072,-0.9901 0.473855,-0.98793 0.118016,5.8e-4 0.748306,0.15077 1.400644,0.33382 1.99679,0.5603 3.540018,0.83063 4.822004,0.8447 0.970041,0.0106 1.202514,-0.0165 1.52586,-0.17818 0.531599,-0.2658 0.669591,-0.59278 0.538214,-1.27531 -0.130867,-0.67989 -1.183381,-2.79668 -1.595465,-3.20877 -0.779062,-0.77906 -2.965008,-1.97961 -4.521675,-2.48336 -0.651347,-0.21078 -0.997984,-0.26379 -1.764275,-0.26981 -1.309106,-0.0103 -1.677798,0.18418 -2.376378,1.25344 -0.173619,0.26574 -0.379809,0.46461 -0.499487,0.48175 -0.112096,0.0161 -0.696606,-0.12021 -1.298912,-0.3028 -3.02771,-0.91785 -6.167424,-1.3924 -9.224765,-1.39427 -7.247119,-0.004 -12.741029,2.70486 -16.312505,8.04442 -0.666304,0.99616 -1.611012,2.76277 -2.029677,3.79551 l -0.141612,0.34931 0.906761,1.84411 c 8.149699,16.57432 11.688228,27.22121 12.863118,38.70317 0.09045,0.88395 0.172474,2.86468 0.204043,4.92726 l 0.05279,3.44909 c 0.0018,0.11613 -0.149374,0.24636 -0.149374,0.24636 -0.24479,0.24479 -0.459449,0.2781 -0.733466,0.18017 z"
         id="path1477" />
      <path
         style="fill:#73ba25;fill-opacity:1;stroke-width:0.09536625"
         d="m 51.58367,289.47932 c -0.118778,-0.0472 -0.258251,-0.19712 -0.30994,-0.33307 -0.05171,-0.136 -0.09398,-1.22095 -0.09398,-2.41218 0,-9.45312 2.081,-19.0312 6.561328,-30.19942 1.679692,-4.18701 3.371957,-7.93863 6.447452,-14.29347 0.743548,-1.53638 0.895728,-1.92211 0.802602,-2.03431 -0.191923,-0.23126 -1.184508,-0.68819 -1.866757,-0.85934 -0.946407,-0.23743 -3.831195,-0.21148 -6.118948,0.055 -0.965767,0.11252 -2.151649,0.20457 -2.635291,0.20457 -0.831303,0 -0.882492,0.0117 -0.936853,0.21457 -0.180587,0.67385 0.0045,1.14469 0.984009,2.50336 1.123832,1.55885 1.346491,2.12846 0.966444,2.4724 -0.147043,0.13307 -0.43191,0.17571 -1.454335,0.21767 l -1.271474,0.0522 -1.192078,-1.0252 c -3.347905,-2.87921 -6.151031,-4.81614 -6.97027,-4.81639 -0.445956,-9e-5 -0.515089,0.31447 -0.523878,2.38408 -0.0044,1.0228 -0.01507,1.9123 -0.02384,1.97665 -0.0088,0.0643 -0.11499,0.1819 -0.236046,0.26123 -0.197315,0.12928 -0.413507,0.12545 -2.088451,-0.037 -1.027593,-0.0997 -1.950737,-0.22529 -2.051429,-0.27919 -0.137472,-0.0736 -0.268361,-0.44036 -0.525457,-1.47249 -0.771773,-3.09834 -1.625323,-4.26225 -3.615532,-4.93016 -0.438482,-0.14715 -1.1191,-0.32084 -1.512486,-0.38596 -0.620148,-0.10266 -0.797354,-0.0972 -1.332776,0.0414 -0.794188,0.2054 -1.358679,0.53935 -1.973382,1.16743 -0.685303,0.70023 -1.113651,1.60064 -1.161122,2.44077 -0.05783,1.02344 0.104253,1.44514 0.836807,2.17717 1.366992,1.36602 2.603884,1.47098 3.233444,0.27441 0.208693,-0.39666 0.219461,-0.497 0.169503,-1.57939 -0.04769,-1.03318 -0.03512,-1.17232 0.118439,-1.31129 0.195495,-0.17692 0.513766,-0.20079 0.779682,-0.0585 0.4485,0.24003 0.576298,2.28877 0.20263,3.2484 -0.8897,2.28485 -3.485536,2.40074 -5.522876,0.24656 -1.480585,-1.5655 -1.522364,-3.67271 -0.11262,-5.68011 0.988549,-1.40766 2.612149,-2.29869 4.188534,-2.29869 1.146051,0 3.075824,0.60505 4.098779,1.28511 1.241095,0.82508 2.016096,2.09007 2.630617,4.29382 0.190142,0.68187 0.359886,1.28759 0.37721,1.34604 0.01828,0.0617 0.404901,0.13451 0.921589,0.17355 0.489548,0.037 0.982251,0.0893 1.094893,0.11619 0.202371,0.0483 0.205202,0.0297 0.238415,-1.5633 0.03279,-1.57286 0.0406,-1.62582 0.319711,-2.17013 0.368783,-0.71917 0.904742,-1.04458 1.592712,-0.96703 1.301083,0.14668 4.028378,1.99486 8.005998,5.42537 0.488482,0.4213 0.570359,0.4589 0.874882,0.40177 l 0.335964,-0.0631 -0.556199,-0.75014 c -0.894116,-1.2059 -1.098198,-1.70106 -1.098198,-2.66454 0,-0.85422 0.108956,-1.19673 0.559785,-1.75969 0.193842,-0.24206 0.277352,-0.27624 0.595759,-0.24388 0.813236,0.0827 2.353189,0.0209 3.755818,-0.15061 2.048365,-0.2505 5.270493,-0.25463 6.321532,-0.008 1.418306,0.33267 3.119727,1.43579 3.119727,2.0227 0,0.12394 -0.540577,1.33257 -1.201283,2.68583 -6.552376,13.42068 -9.7789,22.0683 -11.574928,31.02269 -0.91464,4.56009 -1.453926,10.31479 -1.296637,13.83637 0.05603,1.25436 0.04533,1.41053 -0.108821,1.5891 -0.213056,0.24679 -0.48754,0.32189 -0.768377,0.21022 z"
         id="path1473" />
    </g>
    <text
       id="text894"
       y="1026.9315"
       x="633.71228"
       style="font-style:normal;font-weight:normal;font-size:40px;line-height:1.25;font-family:sans-serif;letter-spacing:0px;word-spacing:0px;fill:#ffffff;fill-opacity:1;stroke:none"
       xml:space="preserve"><tspan
         style="font-style:normal;font-variant:normal;font-weight:normal;font-stretch:normal;font-family:'Open Sans Condensed';-inkscape-font-specification:'Open Sans Condensed, ';fill:#ffffff;fill-opacity:1"
         y="1026.9315"
         x="633.71228"
         id="tspan892">openSUSE.org</tspan></text>
  </g>
</svg>
