<?xml version="1.0" encoding="UTF-8" standalone="no"?>
<!-- Created with Inkscape (http://www.inkscape.org/) -->

<svg
   xmlns:dc="http://purl.org/dc/elements/1.1/"
   xmlns:cc="http://creativecommons.org/ns#"
   xmlns:rdf="http://www.w3.org/1999/02/22-rdf-syntax-ns#"
   xmlns:svg="http://www.w3.org/2000/svg"
   xmlns="http://www.w3.org/2000/svg"
   xmlns:xlink="http://www.w3.org/1999/xlink"
   xmlns:sodipodi="http://sodipodi.sourceforge.net/DTD/sodipodi-0.dtd"
   xmlns:inkscape="http://www.inkscape.org/namespaces/inkscape"
   width="744.09448819"
   height="1052.3622047"
   id="svg2"
   version="1.1"
   inkscape:version="0.48.4 r9939"
   sodipodi:docname="cd-cover-generic.svg">
  <defs
     id="defs4">
    <clipPath
       clipPathUnits="userSpaceOnUse"
       id="clipPath16">
      <path
         inkscape:connector-curvature="0"
         d="m 747.845,326.262 437.48,0 0,429.645 -437.48,0 0,-429.645 z"
         id="path18" />
    </clipPath>
    <clipPath
       clipPathUnits="userSpaceOnUse"
       id="clipPath18">
      <path
         inkscape:connector-curvature="0"
         d="m 21,21 720,0 0,369.638 -720,0 L 21,21 z"
         id="path20" />
    </clipPath>
    <clipPath
       clipPathUnits="userSpaceOnUse"
       id="clipPath306">
      <path
         inkscape:connector-curvature="0"
         d="m 365.608,364.478 c -0.422,0.131 -0.7,0.781 -1.014,1.792 l 0,0 c 0.11,-1.047 0.112,-1.754 -0.214,-2.053 l 0,0 c -0.433,0.05 -0.833,0.626 -1.336,1.542 l 0,0 c 0.318,-1.009 0.46,-1.704 0.192,-2.063 l 0,0 c -0.438,-0.054 -0.947,0.425 -1.63,1.223 l 0,0 c 0.514,-0.919 0.792,-1.566 0.604,-1.974 l 0,0 c -0.418,-0.141 -1.011,0.22 -1.836,0.854 l 0,0 c 0.723,-0.833 1.131,-1.427 0.966,-1.874 l 0,0 c 0.261,0.356 0.291,0.39 0.437,0.554 l 0,0 c 0.136,0.153 0.18,0.199 0.448,0.445 l 0,0 c 0.274,0.248 0.324,0.285 0.489,0.407 l 0,0 c 0.169,0.123 0.216,0.157 0.55,0.355 l 0,0 c 0.302,0.173 0.362,0.202 0.544,0.284 l 0,0 c 0.187,0.084 0.244,0.108 0.597,0.227 l 0,0 c 0.324,0.103 0.388,0.119 0.582,0.162 l 0,0 c 0.202,0.043 0.259,0.055 0.637,0.097 l 0,0 c 0.349,0.036 0.414,0.037 0.615,0.037 l 0,0 c 0.216,0 0.259,0 0.692,-0.044 l 0,0 c 0.319,-0.037 0.389,-0.051 0.578,-0.092 l 0,0 c 0.197,-0.042 0.258,-0.058 0.597,-0.168 l 0,0 c 0.338,-0.113 0.397,-0.137 0.581,-0.22 l 0,0 c 0.183,-0.082 0.243,-0.11 0.543,-0.284 l 0,0 c 0.336,-0.198 0.383,-0.231 0.551,-0.355 l 0,0 c 0.165,-0.122 0.214,-0.159 0.49,-0.407 l 0,0 c 0.267,-0.246 0.311,-0.292 0.447,-0.445 l 0,0 c 0.147,-0.164 0.177,-0.197 0.437,-0.554 l 0,0 c -0.165,0.447 0.243,1.041 0.966,1.875 l 0,0 c -0.825,-0.636 -1.418,-0.996 -1.836,-0.854 l 0,0 c -0.187,0.408 0.09,1.055 0.604,1.973 l 0,0 c -0.682,-0.797 -1.192,-1.277 -1.629,-1.223 l 0,0 c -0.269,0.359 -0.128,1.052 0.191,2.063 l 0,0 c -0.503,-0.918 -0.902,-1.492 -1.337,-1.542 l 0,0 c -0.325,0.3 -0.324,1.007 -0.212,2.052 l 0,0 c -0.317,-1.02 -0.597,-1.671 -1.025,-1.794 l 0,0 c -0.392,0.213 -0.535,0.91 -0.638,1.973 l 0,0 c -0.103,-1.057 -0.245,-1.751 -0.631,-1.969 m 0.6,-0.539 c -1.79,-0.025 -3.527,-0.938 -4.557,-2.507 l 0,0 c -1.576,-2.434 -1.199,-6.006 1.524,-7.898 l 0,0 c 2.381,-1.616 4.614,-0.906 5.982,-0.126 l 0,0 -0.684,1.202 c -1.475,-0.797 -3.202,-0.894 -4.534,0.036 l 0,0 c -2.046,1.392 -2.449,4.127 -1.188,6.043 l 0,0 c 1.241,1.922 3.809,2.509 5.84,1.131 l 0,0 c 2.139,-1.488 2.014,-4.074 1.485,-5.232 l 0,0 c -0.235,0.166 -0.469,0.331 -0.703,0.497 l 0,0 c 0.61,1.623 -0.011,3.225 -1.233,4.064 l 0,0 c -1.438,0.988 -3.525,0.82 -4.692,-0.965 l 0,0 c -0.229,-0.355 -0.229,-0.355 -0.355,-0.703 l 0,0 7.277,-4.988 c 0.301,0.322 0.301,0.322 0.495,0.617 l 0,0 c 1.635,2.509 1.065,6.106 -1.518,7.87 l 0,0 c -0.942,0.652 -1.997,0.957 -3.038,0.961 l 0,0 -0.101,-0.002 z m 4.528,-9.865 c -0.138,-0.154 -0.179,-0.199 -0.459,-0.456 l 0,0 c -0.263,-0.236 -0.315,-0.276 -0.478,-0.396 l 0,0 c -0.159,-0.116 -0.215,-0.157 -0.501,-0.326 l 0,0 c -0.352,-0.203 -0.4,-0.225 -0.593,-0.312 l 0,0 c -0.184,-0.083 -0.243,-0.108 -0.58,-0.221 l 0,0 c -0.34,-0.11 -0.402,-0.126 -0.599,-0.169 l 0,0 c -0.192,-0.041 -0.259,-0.053 -0.588,-0.091 l 0,0 c -0.42,-0.044 -0.467,-0.044 -0.681,-0.044 l 0,0 c -0.205,0 -0.265,0.003 -0.632,0.039 l 0,0 c -0.361,0.041 -0.421,0.053 -0.62,0.096 l 0,0 c -0.197,0.043 -0.259,0.058 -0.6,0.169 l 0,0 c -0.335,0.112 -0.395,0.136 -0.578,0.219 l 0,0 c -0.186,0.084 -0.243,0.111 -0.561,0.294 l 0,0 c -0.319,0.189 -0.369,0.224 -0.534,0.346 l 0,0 c -0.166,0.121 -0.215,0.158 -0.489,0.406 l 0,0 c -0.268,0.247 -0.312,0.293 -0.448,0.445 l 0,0 c -0.147,0.164 -0.176,0.197 -0.436,0.555 l 0,0 c 0.165,-0.448 -0.243,-1.042 -0.967,-1.875 l 0,0 c 0.825,0.634 1.419,0.996 1.836,0.855 l 0,0 c 0.188,-0.408 -0.091,-1.057 -0.604,-1.975 l 0,0 c 0.683,0.798 1.192,1.277 1.629,1.223 l 0,0 c 0.27,-0.359 0.127,-1.054 -0.191,-2.063 l 0,0 c 0.503,0.917 0.902,1.492 1.336,1.542 l 0,0 c 0.326,-0.299 0.324,-1.007 0.214,-2.052 l 0,0 c 0.313,1.01 0.592,1.66 1.013,1.791 l 0,0 c 0.386,-0.218 0.528,-0.912 0.632,-1.969 l 0,0 c 0.103,1.063 0.247,1.76 0.639,1.973 l 0,0 c 0.427,-0.123 0.708,-0.775 1.024,-1.794 l 0,0 c -0.111,1.045 -0.113,1.752 0.212,2.052 l 0,0 c 0.435,-0.049 0.834,-0.624 1.337,-1.542 l 0,0 c -0.32,1.011 -0.46,1.705 -0.191,2.064 l 0,0 c 0.437,0.053 0.946,-0.427 1.629,-1.224 l 0,0 c -0.514,0.918 -0.791,1.566 -0.604,1.974 l 0,0 c 0.417,0.141 1.01,-0.219 1.836,-0.854 l 0,0 c -0.724,0.833 -1.132,1.427 -0.966,1.874 l 0,0 c -0.261,-0.357 -0.29,-0.39 -0.437,-0.554"
         id="path308" />
    </clipPath>
    <linearGradient
       id="SVGID_1_"
       gradientUnits="userSpaceOnUse"
       x1="331.86621"
       y1="187.5029"
       x2="420.68649"
       y2="187.5029"
       gradientTransform="matrix(0.9975,-0.07,0.07,0.9975,35.8004,-83.7077)">
      <stop
         offset="0"
         style="stop-color:#00A79D"
         id="stop16" />
      <stop
         offset="1"
         style="stop-color:#8DC63F"
         id="stop18" />
    </linearGradient>
    <linearGradient
       gradientTransform="matrix(0.9975,-0.07,0.07,0.9975,35.8004,-83.7077)"
       y2="187.5029"
       x2="420.68649"
       y1="187.5029"
       x1="331.86621"
       gradientUnits="userSpaceOnUse"
       id="linearGradient3114">
      <stop
         id="stop3116"
         style="stop-color:#00A79D"
         offset="0" />
      <stop
         id="stop3118"
         style="stop-color:#8DC63F"
         offset="1" />
    </linearGradient>
    <linearGradient
       inkscape:collect="always"
       xlink:href="#linearGradient3988"
       id="linearGradient4988"
       gradientUnits="userSpaceOnUse"
       x1="402.51791"
       y1="352.34821"
       x2="402.51791"
       y2="169.85095" />
    <linearGradient
       id="linearGradient3988">
      <stop
         id="stop3990"
         offset="0"
         style="stop-color:#f3ffc5;stop-opacity:1;" />
      <stop
         id="stop3992"
         offset="1"
         style="stop-color:#ffffff;stop-opacity:1;" />
    </linearGradient>
    <linearGradient
       id="linearGradient3151">
      <stop
         id="stop3153"
         offset="0"
         style="stop-color:#f3ffc5;stop-opacity:1;" />
      <stop
         id="stop3155"
         offset="1"
         style="stop-color:#ffffff;stop-opacity:1;" />
    </linearGradient>
    <linearGradient
       id="linearGradient3158">
      <stop
         id="stop3160"
         offset="0"
         style="stop-color:#f3ffc5;stop-opacity:1;" />
      <stop
         id="stop3162"
         offset="1"
         style="stop-color:#ffffff;stop-opacity:1;" />
    </linearGradient>
    <linearGradient
       inkscape:collect="always"
       xlink:href="#linearGradient3988"
       id="linearGradient4980"
       gradientUnits="userSpaceOnUse"
       x1="402.51791"
       y1="352.34821"
       x2="402.51791"
       y2="169.85095" />
    <linearGradient
       id="linearGradient3165">
      <stop
         id="stop3167"
         offset="0"
         style="stop-color:#f3ffc5;stop-opacity:1;" />
      <stop
         id="stop3169"
         offset="1"
         style="stop-color:#ffffff;stop-opacity:1;" />
    </linearGradient>
    <linearGradient
       id="linearGradient3172">
      <stop
         id="stop3174"
         offset="0"
         style="stop-color:#f3ffc5;stop-opacity:1;" />
      <stop
         id="stop3176"
         offset="1"
         style="stop-color:#ffffff;stop-opacity:1;" />
    </linearGradient>
    <linearGradient
       id="linearGradient3179">
      <stop
         id="stop3181"
         offset="0"
         style="stop-color:#f3ffc5;stop-opacity:1;" />
      <stop
         id="stop3183"
         offset="1"
         style="stop-color:#ffffff;stop-opacity:1;" />
    </linearGradient>
    <linearGradient
       id="linearGradient3186">
      <stop
         id="stop3188"
         offset="0"
         style="stop-color:#f3ffc5;stop-opacity:1;" />
      <stop
         id="stop3190"
         offset="1"
         style="stop-color:#ffffff;stop-opacity:1;" />
    </linearGradient>
    <linearGradient
       id="linearGradient3193">
      <stop
         id="stop3195"
         offset="0"
         style="stop-color:#f3ffc5;stop-opacity:1;" />
      <stop
         id="stop3197"
         offset="1"
         style="stop-color:#ffffff;stop-opacity:1;" />
    </linearGradient>
    <linearGradient
       inkscape:collect="always"
       xlink:href="#SVGID_1_"
       id="linearGradient4293"
       gradientUnits="userSpaceOnUse"
       gradientTransform="matrix(0.9975,-0.07,0.07,0.9975,397.92149,-134.07303)"
       x1="331.86621"
       y1="187.5029"
       x2="420.68649"
       y2="187.5029" />
    <linearGradient
       inkscape:collect="always"
       xlink:href="#linearGradient3988"
       id="linearGradient4295"
       gradientUnits="userSpaceOnUse"
       x1="402.51791"
       y1="352.34821"
       x2="402.51791"
       y2="169.85095" />
    <linearGradient
       inkscape:collect="always"
       xlink:href="#linearGradient3988"
       id="linearGradient4297"
       gradientUnits="userSpaceOnUse"
       x1="402.51791"
       y1="352.34821"
       x2="402.51791"
       y2="169.85095" />
    <linearGradient
       inkscape:collect="always"
       xlink:href="#linearGradient3988"
       id="linearGradient4299"
       gradientUnits="userSpaceOnUse"
       x1="402.51791"
       y1="352.34821"
       x2="402.51791"
       y2="169.85095" />
    <linearGradient
       inkscape:collect="always"
       xlink:href="#linearGradient3988"
       id="linearGradient4301"
       gradientUnits="userSpaceOnUse"
       x1="402.51791"
       y1="352.34821"
       x2="402.51791"
       y2="169.85095" />
    <linearGradient
       inkscape:collect="always"
       xlink:href="#linearGradient3988"
       id="linearGradient4303"
       gradientUnits="userSpaceOnUse"
       x1="402.51791"
       y1="352.34821"
       x2="402.51791"
       y2="169.85095" />
    <linearGradient
       inkscape:collect="always"
       xlink:href="#linearGradient3988"
       id="linearGradient4305"
       gradientUnits="userSpaceOnUse"
       x1="402.51791"
       y1="352.34821"
       x2="402.51791"
       y2="169.85095" />
    <linearGradient
       inkscape:collect="always"
       xlink:href="#linearGradient3988"
       id="linearGradient4307"
       gradientUnits="userSpaceOnUse"
       x1="402.51791"
       y1="352.34821"
       x2="402.51791"
       y2="169.85095" />
    <linearGradient
       inkscape:collect="always"
       xlink:href="#linearGradient3988"
       id="linearGradient4309"
       gradientUnits="userSpaceOnUse"
       x1="402.51791"
       y1="352.34821"
       x2="402.51791"
       y2="169.85095" />
    <linearGradient
       inkscape:collect="always"
       xlink:href="#linearGradient3988"
       id="linearGradient4555"
       gradientUnits="userSpaceOnUse"
       x1="402.51791"
       y1="352.34821"
       x2="402.51791"
       y2="169.85095" />
    <linearGradient
       inkscape:collect="always"
       xlink:href="#linearGradient3988"
       id="linearGradient4563"
       gradientUnits="userSpaceOnUse"
       x1="402.51791"
       y1="352.34821"
       x2="402.51791"
       y2="169.85095" />
    <linearGradient
       inkscape:collect="always"
       xlink:href="#linearGradient3988"
       id="linearGradient3269"
       gradientUnits="userSpaceOnUse"
       x1="402.51791"
       y1="352.34821"
       x2="402.51791"
       y2="169.85095" />
    <linearGradient
       inkscape:collect="always"
       xlink:href="#linearGradient3988"
       id="linearGradient3277"
       gradientUnits="userSpaceOnUse"
       x1="402.51791"
       y1="352.34821"
       x2="402.51791"
       y2="169.85095" />
    <linearGradient
       inkscape:collect="always"
       xlink:href="#linearGradient3988"
       id="linearGradient3376"
       gradientUnits="userSpaceOnUse"
       x1="402.51791"
       y1="352.34821"
       x2="402.51791"
       y2="169.85095" />
    <linearGradient
       inkscape:collect="always"
       xlink:href="#linearGradient3988"
       id="linearGradient3378"
       gradientUnits="userSpaceOnUse"
       x1="402.51791"
       y1="352.34821"
       x2="402.51791"
       y2="169.85095" />
  </defs>
  <sodipodi:namedview
     id="base"
     pagecolor="#ffffff"
     bordercolor="#666666"
     borderopacity="1.0"
     inkscape:pageopacity="0.0"
     inkscape:pageshadow="2"
     inkscape:zoom="1.4"
     inkscape:cx="313.00532"
     inkscape:cy="478.93423"
     inkscape:document-units="px"
     inkscape:current-layer="layer1"
     showgrid="false"
     showguides="true"
     inkscape:guide-bbox="true"
     inkscape:window-width="1676"
     inkscape:window-height="1018"
     inkscape:window-x="1"
     inkscape:window-y="0"
     inkscape:window-maximized="0">
    <sodipodi:guide
       orientation="0,1"
       position="471.74124,302.03561"
       id="guide6194" />
    <sodipodi:guide
       orientation="1,0"
       position="-34.345187,445.47727"
       id="guide6196" />
    <sodipodi:guide
       orientation="0,1"
       position="315.1676,726.29968"
       id="guide6198" />
    <sodipodi:guide
       orientation="1,0"
       position="828.32509,627.30473"
       id="guide6200" />
  </sodipodi:namedview>
  <metadata
     id="metadata7">
    <rdf:RDF>
      <cc:Work
         rdf:about="">
        <dc:format>image/svg+xml</dc:format>
        <dc:type
           rdf:resource="http://purl.org/dc/dcmitype/StillImage" />
        <dc:title />
      </cc:Work>
    </rdf:RDF>
  </metadata>
  <g
     inkscape:label="Layer 1"
     inkscape:groupmode="layer"
     id="layer1">
    <flowRoot
       xml:space="preserve"
       id="flowRoot6117"
       style="fill:black;stroke:none;stroke-opacity:1;stroke-width:1px;stroke-linejoin:miter;stroke-linecap:butt;fill-opacity:1;font-family:FontAwesome;font-style:normal;font-weight:normal;font-size:40px;line-height:125%;letter-spacing:0px;word-spacing:0px;-inkscape-font-specification:FontAwesome;font-stretch:normal;font-variant:normal"><flowRegion
         id="flowRegion6119"><rect
           id="rect6121"
           width="214.65741"
           height="97.984795"
           x="-80.812202"
           y="577.08539" /></flowRegion><flowPara
         id="flowPara6123" /></flowRoot>    <flowRoot
       xml:space="preserve"
       id="flowRoot6125"
       style="fill:black;stroke:none;stroke-opacity:1;stroke-width:1px;stroke-linejoin:miter;stroke-linecap:butt;fill-opacity:1;font-family:FontAwesome;font-style:normal;font-weight:normal;font-size:40px;line-height:125%;letter-spacing:0px;word-spacing:0px;-inkscape-font-specification:FontAwesome;font-stretch:normal;font-variant:normal"><flowRegion
         id="flowRegion6127"><rect
           id="rect6129"
           width="133.34013"
           height="57.07362"
           x="-3.0304577"
           y="616.48138" /></flowRegion><flowPara
         id="flowPara6131" /></flowRoot>    <path
       inkscape:connector-curvature="0"
       style="font-size:15px;fill:#73ba25;fill-opacity:1;stroke:none"
       d="m 579.5497,537.72816 c 0,117.41487 -95.18353,212.59842 -212.59842,212.59842 -117.41489,0 -212.59841,-95.18355 -212.59841,-212.59842 0,-117.41487 95.18352,-212.59844 212.59841,-212.59844 117.41489,0 212.59842,95.18357 212.59842,212.59844 z"
       id="path7712" />
    <path
       style="font-size:15px;fill:#000000;fill-opacity:1;stroke:none"
       d="m 154.39119,540.75902 c 1.62897,116.01082 96.16206,209.55346 212.56013,209.55346 116.39796,0 210.93105,-93.54264 212.56003,-209.55346 l -425.12016,0 z"
       id="path7704"
       inkscape:connector-curvature="0"
       inkscape:export-filename="/Users/Cynthia/Documents/OpenSUSE/cd-cover/path7850.png"
       inkscape:export-xdpi="90"
       inkscape:export-ydpi="90" />
    <path
       inkscape:connector-curvature="0"
       style="font-size:15px;fill:#ffffff;fill-opacity:1;stroke:none"
       d="m 388.64247,537.72819 c 0,11.97972 -9.71148,21.69121 -21.69121,21.69121 -11.97973,0 -21.69121,-9.71149 -21.69121,-21.69121 0,-11.97973 9.71148,-21.69122 21.69121,-21.69122 11.97973,0 21.69121,9.71149 21.69121,21.69122 z"
       id="path7683" />
    <path
       d="m 504.4646,396.32838 c 2.96142,16.70005 -0.62607,49.38528 -16.72095,79.5941 5.27237,-14.45004 7.7601,-30.98988 -0.31869,-37.53964 10.34447,9.8229 -0.28996,39.64424 -7.30993,50.10104 4.86835,-22.14919 0.0671,-34.08365 -7.92292,-34.08365 -6.24239,0 -14.4309,7.28642 -21.47176,22.6786 6.25023,-10.05277 10.22258,-12.09554 13.36249,-12.09554 1.0745,8.7e-4 2.05148,0.23945 2.9884,0.47891 0.93693,0.23946 1.8338,0.47891 2.74895,0.47891 2.09676,0 4.2893,-1.25736 7.27248,-6.64903 3.64931,3.13295 6.30943,13.89626 0.74275,32.48409 -38.36772,53.36286 -52.0402,51.46898 -75.48855,142.6449 l 6.99994,0 c 1.14155,-14.2968 5.70775,-29.06118 7.72875,-37.49524 6.45137,-33.88773 25.21074,-52.3493 43.20124,-76.96706 10.25479,-14.06779 14.58676,-20.244 20.2649,-28.9027 17.08145,-26.24955 29.94935,-64.17319 23.9229,-94.72769"
       style="fill:#000000;fill-opacity:1;fill-rule:nonzero;stroke:none"
       id="path7690"
       inkscape:connector-curvature="0" />
    <path
       id="path7692"
       d="m 509.5689,488.23973 c 0.24404,1.16842 0.69553,3.12674 0.56304,5.63152 -0.0361,2.57904 -0.61886,5.58135 -1.69452,8.25593 -2.01292,5.65174 -5.84332,9.62495 -7.14367,11.16601 -0.51664,0.5895 -1.16145,1.24612 -2.1409,1.84014 -0.91661,0.6459 -2.13328,0.9867 -2.86017,1.94199 -0.15364,0.19193 -0.271,0.42209 -0.33694,0.69276 -6.09427,2.52007 -11.45193,8.36984 -14.61046,15.72693 l -0.5922,0.25707 c 0.46643,-2.1275 1.28322,-4.1477 1.93615,-6.22277 1.61935,-3.15763 4.14409,-5.78894 7.10579,-8.91051 2.37882,-2.25365 4.67255,-4.48703 6.40545,-7.08622 1.75596,-2.5842 2.34334,-5.19217 2.80325,-7.10925 0.89777,-3.83653 0.93886,-6.07724 0.71658,-6.05276 -0.0591,0.003 -0.10433,0.0973 -0.18511,0.2526 -5.24721,5.69137 -9.32676,12.33428 -12.84989,19.18418 -2.58988,2.76908 -5.11522,5.39301 -6.79501,8.68784 -1.66024,3.04989 -2.88703,6.42997 -3.5553,9.93638 l -0.411,-0.34 c 0.30547,-1.25911 0.67698,-2.50041 1.11785,-3.73946 1.32511,-3.59516 2.95599,-7.13461 5.67104,-11.21244 1.71907,-2.89341 3.5077,-5.8633 4.50689,-8.85064 0.92373,-3.00386 0.93605,-5.50309 0.98416,-7.33982 -0.0511,-3.74928 -0.51333,-5.70865 -0.75045,-5.59816 -0.0541,0.0229 -0.0802,0.0919 -0.12297,0.22061 -5.72476,9.07844 -9.80551,19.03249 -12.01866,29.26026 -0.33083,0.76206 -0.69232,1.5222 -0.94538,2.3281 -0.38895,1.19794 -0.71777,2.42944 -0.99308,3.67542 -4.19911,-1.12124 -9.56147,2.59087 -11.07489,9.70583 l 0.31318,-0.003 c 1.49689,-6.93722 6.5146,-10.36854 10.64185,-9.19992 l -0.23602,1.31803 -0.28262,-0.0595 c -3.42601,-0.92555 -7.73837,2.66518 -8.9332,7.92834 l 0.25055,-0.003 c 0.34847,-1.33266 0.83874,-2.6132 1.36831,-3.74218 2.04127,-3.34772 5.09568,-4.59527 7.53663,-3.90394 -0.28543,1.5182 -0.44939,3.06522 -0.45039,4.60905 -1.53446,-0.48889 -3.15943,-0.26156 -4.52172,1.80366 1.42934,-1.77478 3.09449,-2.04265 4.52583,-1.42786 -0.017,0.86824 -0.017,1.71441 0,2.56833 l 2.47403,-0.0272 c -0.001,-0.0828 0,-0.16781 0,-0.25057 l 0.12828,0.2491 0.34446,-0.004 -0.44879,-0.93469 c 0.0641,-1.72608 0.0842,-3.44638 0.44498,-5.11015 l 0.4116,0.40265 c -0.34205,1.85965 -0.31579,3.78145 -0.34516,5.6415 l 13.05915,-0.14354 c 0.11496,-0.12082 0.21918,-0.23444 0.34065,-0.34829 2.98224,-3.22039 6.76093,-3.25433 7.57181,-3.5598 1.71887,-0.7829 3.44887,-3.14394 4.191,-6.24755 0.56905,-2.98715 -1.98957,-6.59801 -6.54426,-5.53444 -1.90087,0.38496 -7.23587,4.05131 -9.19267,9.96702 -0.0802,-0.88394 -0.25295,-1.70655 -0.46492,-2.40658 1.71286,-3.69976 4.77648,-6.63624 7.29811,-8.50543 2.92863,-1.65339 5.86948,-1.1474 7.76905,0.13383 1.88914,1.21426 3.07104,3.27021 3.05149,4.06947 0.0932,1.07 -0.35989,1.60365 -0.35758,1.66391 -0.25075,0.44247 -0.27992,1.30897 0.14802,2.06552 0.38815,0.72025 1.72088,0.67347 2.43785,-0.46527 0.0631,-0.11305 0.8661,-1.34898 0.7747,-3.61039 -0.33724,-2.42822 -1.91791,-4.55424 -4.45527,-6.40307 -1.93124,-1.32853 -4.64259,-2.01557 -7.49956,-1.26435 1.68139,-1.16681 3.35807,-2.08267 5.20202,-2.59414 1.26938,0.23724 2.92832,5.8e-4 4.50177,-0.76986 1.87391,-0.0661 3.66254,0.20444 5.3321,0.69308 0.5903,0.30424 1.24323,0.54817 1.94948,0.69896 4.89023,2.07202 8.75521,5.84692 11.31512,9.30312 1.40168,1.80683 2.26136,3.40866 2.99848,4.94701 0.10613,0.624 0.20525,1.43064 0.0561,2.25448 l -0.0902,0.34552 c -0.12968,0.24406 -0.22268,0.52898 -0.27289,0.81733 -0.33273,0.74293 -0.64241,1.54815 -1.25987,2.2063 -0.89175,0.93909 -2.01081,1.63987 -3.07665,2.19493 l 5.35525,-0.0588 c 0.19212,-0.33318 0.36921,-0.66717 0.52124,-1.00798 l 0.22209,0.24812 -0.0882,0.56473 c -0.014,0.0663 -0.0451,0.12376 -0.0601,0.18858 l 5.66843,-0.0623 c -0.37522,-0.36538 -0.71336,-0.74155 -0.98295,-1.0854 l -0.0992,-0.46871 c -0.01,-0.95135 -0.28843,-2.11957 -0.75786,-3.4056 -0.31269,-0.78521 -0.57627,-1.56288 -0.93465,-2.40142 1.34384,0.85909 2.11213,1.04639 3.49125,1.33973 1.39306,0.23725 5.48564,0.72239 5.48985,0.7853 0.01,-0.01 -2.91299,-1.41364 -4.09909,-2.49191 -0.65715,-0.60479 -1.5949,-1.47764 -2.49859,-2.1963 2.33132,-0.0534 5.1486,-0.0358 5.13627,-0.0252 0.016,-0.0233 -3.63517,-1.76586 -5.20462,-3.35677 -1.25946,-1.2994 -3.26837,-3.39252 -4.77647,-4.26972 l -0.44117,-0.24573 c 0.33393,-0.114 0.70534,-0.24769 1.09169,-0.41916 1.31849,-0.74214 5.29893,-3.79208 5.3778,-3.69231 0.0301,-0.0148 -3.56692,-0.27928 -5.52692,-1.31734 -1.51082,-0.84564 -4.04297,-2.05344 -5.69209,-2.09856 l -0.56364,0.006 1.05512,-0.88856 c 2.4627,-2.03727 4.57784,-5.09468 6.14207,-8.24219 1.38253,-3.35764 2.29484,-6.60223 2.46751,-9.17274 0.17389,-2.38062 0.01,-3.94562 0.017,-4.13451 -0.36941,1.28217 -0.93074,3.48855 -2.12957,5.72376 -1.25445,2.15533 -2.73711,4.75666 -4.78319,6.50462 -3.85596,3.93599 -8.83719,5.40864 -10.67663,6.03695 -0.71587,0.23907 -1.59871,0.47268 -2.6883,0.46802 -0.51583,0.0208 -1.05701,-0.0618 -1.5985,-0.10771 0.50621,-1.01024 1.09049,-2.11453 1.65463,-3.33818 1.39195,-3.23827 2.35847,-7.21591 2.57374,-10.89651 0.0732,-3.78569 -0.52364,-6.99314 -1.47784,-9.06673 -0.89125,-1.93976 -1.83272,-2.93326 -1.9131,-3.07972 z m -5.92259,33.92267 c -1.50059,0.0657 -2.72468,0.38927 -3.34364,0.69447 0,-0.0161 3.13729,1.11939 4.89434,3.61073 1.95509,2.43858 2.23029,5.10985 2.47473,5.73579 0.62257,1.23449 2.53947,2.29232 4.88051,2.35804 2.34013,0.0956 3.89955,-2.12315 2.73229,-5.04133 -0.49047,-1.36819 -3.14911,-4.87216 -6.64748,-6.37898 -1.73541,-0.83307 -3.49026,-1.04452 -4.99075,-0.97872 z m -27.87115,14.61984 0.37984,0.37168 -0.20616,1.19245 -0.44257,-0.37099 0.26889,-1.19314 z"
       style="fill:#000000;fill-opacity:1;fill-rule:nonzero;stroke:none"
       inkscape:connector-curvature="0"
       inkscape:export-filename="/Users/Cynthia/Documents/OpenSUSE/cd-cover/path7850.png"
       inkscape:export-xdpi="90"
       inkscape:export-ydpi="90" />
    <g
       inkscape:export-ydpi="250.04585"
       inkscape:export-xdpi="250.04585"
       inkscape:export-filename="/Users/Cynthia/Documents/SUSE sources/suse_logo/g30.png"
       transform="matrix(1.2174797,0,0,-1.2174795,272.1551,508.51206)"
       id="g7696"
       style="fill:#000000">
      <path
         inkscape:connector-curvature="0"
         id="path7698"
         style="fill:#000000;fill-opacity:1;fill-rule:nonzero;stroke:none"
         d="m 0,0 c 0.065,1.703 0.781,3.284 2.035,4.447 1.24,1.169 2.868,1.77 4.569,1.714 3.531,-0.127 6.291,-3.096 6.174,-6.618 C 12.713,-2.16 11.994,-3.738 10.754,-4.902 9.51,-6.066 7.875,-6.672 6.169,-6.613 2.645,-6.484 -0.109,-3.522 0,0 m -10.253,12.347 c 0,0 -0.057,-3.1 -0.057,-3.444 -1.521,0.51 -12.612,4.091 -23.015,4.456 -8.809,0.307 -20.844,0.728 -37.85,-9.728 l -0.503,-0.312 c -8.006,-4.994 -13.528,-11.146 -16.412,-18.3 -0.913,-2.25 -2.124,-7.326 -0.922,-12.1 0.522,-2.09 1.496,-4.181 2.806,-6.064 2.95,-4.242 7.906,-7.061 13.244,-7.539 7.537,-0.668 13.246,2.713 15.281,9.049 1.394,4.38 0,10.79 -5.35,14.066 -4.353,2.664 -9.041,2.06 -11.753,0.266 -2.353,-1.567 -3.688,-3.985 -3.666,-6.655 0.05,-4.722 4.127,-7.234 7.052,-7.244 0.854,0 1.713,0.147 2.673,0.459 0.344,0.11 0.662,0.233 1.022,0.459 l 0.112,0.069 0.072,0.043 -0.028,-0.014 c 0.666,0.453 1.072,1.186 1.072,1.98 0,0.219 -0.031,0.438 -0.093,0.66 -0.347,1.198 -1.529,1.921 -2.757,1.69 l -0.162,-0.027 -0.225,-0.071 -0.328,-0.111 c -0.669,-0.17 -1.179,-0.182 -1.288,-0.182 -0.34,0.023 -2.037,0.526 -2.037,2.374 l 0,0.02 c 0.015,0.675 0.281,1.152 0.434,1.414 0.522,0.823 1.962,1.628 3.897,1.453 2.547,-0.217 4.378,-1.518 5.596,-3.975 1.125,-2.294 0.841,-5.11 -0.758,-7.172 -1.585,-2.047 -4.401,-2.918 -8.148,-2.512 -3.781,0.414 -6.978,2.588 -8.768,5.977 -1.747,3.304 -1.847,7.229 -0.244,10.246 3.827,7.219 11.053,7.145 15.009,6.461 5.635,-0.974 14.169,-6.023 17.375,-17.698 l 7.787,0 c -0.964,2.974 -1.515,11.596 7.25,11.596 9.62,0 10.829,-6.768 13.557,-11.596 l 8.25,0 c -2.166,3.104 -3.693,6.562 -3.209,9.469 0.712,4.293 4.126,3.905 8.853,3.371 1.546,-0.181 3.309,-0.378 5.119,-0.42 5.088,-0.03 9.683,0.902 13.058,2.376 2.182,0.953 3.57,1.582 4.445,2.375 0.315,0.257 0.477,0.685 0.647,1.132 l 0.118,0.303 c 0.141,0.365 0.322,1.145 0.433,1.565 0.224,0.864 -0.542,0.405 -0.542,0.405 -1.472,-0.889 -5.179,-2.577 -8.644,-2.645 -4.287,-0.091 -12.937,4.315 -13.838,4.783 l -0.086,0.103 c -0.223,0.515 -1.516,3.589 -1.791,4.237 6.224,-4.104 11.387,-6.37 15.34,-6.72 4.403,-0.394 7.834,2.012 9.297,3.031 0.162,0.108 0.744,0.5 0.604,0.969 -0.572,2 -2.545,8.7 -4.192,10.398 -0.478,0.496 -0.862,0.974 -1.64,1.426 -6.293,3.667 -21.227,5.885 -21.928,5.985 0,0 -0.172,0.044 -0.169,-0.137" />
    </g>
    <g
       inkscape:export-ydpi="250.04585"
       inkscape:export-xdpi="250.04585"
       transform="matrix(1.2174797,0,0,-1.2174795,281.02467,509.23914)"
       id="g7700"
       style="fill:#000000">
      <path
         inkscape:connector-curvature="0"
         id="path7702"
         style="fill:#000000;fill-opacity:1;fill-rule:nonzero;stroke:none"
         d="M 0,0 C -1.088,0 -1.973,0.597 -1.973,1.32 -1.973,2.05 -1.088,2.641 0,2.641 1.094,2.641 1.98,2.05 1.98,1.32 1.98,0.597 1.094,0 0,0 m -0.732,4.874 c -1.19,0.051 -2.315,-0.377 -3.184,-1.189 -0.872,-0.81 -1.379,-1.91 -1.416,-3.103 -0.078,-2.457 1.844,-4.529 4.301,-4.615 1.193,-0.037 2.324,0.387 3.196,1.191 0.872,0.821 1.372,1.92 1.415,3.105 0.076,2.462 -1.852,4.528 -4.312,4.611" />
    </g>
    <g
       id="g3153"
       transform="matrix(1.4604721,0,0,1.4604721,-169.37929,-301.97736)">
      <g
         transform="matrix(0.43914165,0,0,0.43914161,263.90785,553.66531)"
         inkscape:label="Layer 1"
         id="g7719">
        <g
           id="g7721"
           style="fill:#ffffff">
          <path
             inkscape:connector-curvature="0"
             id="path7723"
             d="m 320.78054,191.07184 -0.16152,0 c -0.1867,0 -0.34854,-0.16185 -0.34854,-0.34854 l 0,-2.50132 -0.54768,0.83376 c -0.0621,0.087 -0.17428,0.12426 -0.27368,0.12426 l -0.0625,0 c -0.0994,0 -0.21154,-0.0373 -0.27367,-0.12426 l -0.5601,-0.83376 0,2.50132 c 0,0.18669 -0.16185,0.34854 -0.36097,0.34854 l -0.16154,0 c -0.18669,0 -0.34854,-0.16185 -0.34854,-0.34854 l 0,-2.98687 -1.6803,0 0,2.98687 c 0,0.18669 -0.17427,0.34854 -0.37307,0.34854 l -0.14943,0 c -0.1867,0 -0.34855,-0.16185 -0.34855,-0.34854 l 0,-2.98687 -1.25687,0 c -0.18669,0 -0.33611,-0.12458 -0.33611,-0.32339 l 0,-0.17426 c 0,-0.19913 0.14942,-0.3237 0.33611,-0.3237 l 4.40559,0 c 0.17428,0 0.28611,0.0621 0.34856,0.16185 l 0.83376,1.25687 0.83378,-1.25687 c 0.0621,-0.0873 0.16185,-0.16185 0.34855,-0.16185 l 0.5601,0 0,3.83307 c 0,0.18669 -0.17428,0.34854 -0.3734,0.34854"
             style="fill:#ffffff;fill-opacity:1;stroke:none" />
          <path
             inkscape:connector-curvature="0"
             id="path7725"
             d="m 176.72658,185.83248 c -6.02344,0 -9.35885,5.10236 -9.35885,8.6369 l 0,4.53017 c 0,5.18966 4.24374,8.41293 8.18895,8.41293 l 13.81415,0 c 1.72999,0 2.09096,1.1323 2.09096,2.09063 l 0,2.92474 c 0,0.31096 -0.0497,3.12388 -2.09096,3.12388 l -18.85438,0 c -1.867,0 -3.22327,1.29415 -3.22327,3.07383 l 0,0.80894 c 0,1.76726 1.34385,3.07416 3.22327,3.07416 l 19.88759,0 c 5.18966,0 8.54993,-3.60941 8.54993,-9.20975 l 0,-4.89082 c 0,-5.2521 -3.78337,-7.604 -7.52945,-7.604 l -13.59017,0 c -2.05369,0 -2.97444,-1.51845 -2.97444,-2.61348 l 0,-2.68833 c 0,-1.70482 1.1323,-2.67559 3.12354,-2.67559 l 15.0589,0 c 1.84184,0 3.22328,-1.31931 3.22328,-3.07416 l 0,-0.80893 c 0,-1.74241 -1.4063,-3.07385 -3.28539,-3.07385 l -16.22881,0"
             style="fill:#ffffff;fill-opacity:1;stroke:none" />
          <path
             inkscape:connector-curvature="0"
             id="path7727"
             d="m 233.2655,185.83248 c -1.7797,0 -3.22326,1.44357 -3.22326,3.22326 l 0,23.14815 c 0,1.84181 -1.50601,3.33541 -3.33542,3.33541 l -10.50389,0 c -1.84183,0 -3.33543,-1.4936 -3.33543,-3.33541 l 0,-23.14815 c 0,-1.77969 -1.43113,-3.22326 -3.22326,-3.22326 l -1.02047,0 c -1.79212,0 -3.22327,1.41872 -3.22327,3.22326 l 0,24.03162 c 0,5.58792 4.39317,9.64527 10.45388,9.64527 l 11.22584,0 c 6.06071,0 10.45387,-4.05735 10.45387,-9.64527 l 0,-24.03162 c 0,-1.80454 -1.41871,-3.22326 -3.22326,-3.22326 l -1.02048,0"
             style="fill:#ffffff;fill-opacity:1;stroke:none" />
          <path
             inkscape:connector-curvature="0"
             id="path7729"
             d="m 253.38949,185.83248 c -6.02342,0 -9.35884,5.10236 -9.35884,8.6369 l 0,4.53017 c 0,5.18966 4.25617,8.41293 8.18895,8.41293 l 13.81414,0 c 1.73,0 2.1034,1.1323 2.1034,2.09063 l 0,2.92474 c 0,0.31096 -0.0621,3.12388 -2.1034,3.12388 l -18.85437,0 c -1.86699,0 -3.22327,1.29415 -3.22327,3.07383 l 0,0.80894 c 0,1.76726 1.35628,3.07416 3.22327,3.07416 l 19.87516,0 c 5.20209,0 8.54961,-3.60941 8.54961,-9.20975 l 0,-4.89082 c 0,-5.2521 -3.77061,-7.604 -7.52914,-7.604 l -13.59048,0 c -2.05337,0 -2.97412,-1.51845 -2.97412,-2.61348 l 0,-2.68833 c 0,-1.70482 1.1323,-2.67559 3.11112,-2.67559 l 15.05891,0 c 1.8294,0 3.22327,-1.31931 3.22327,-3.07416 l 0,-0.80893 c 0,-1.74241 -1.4063,-3.07385 -3.29813,-3.07385 l -16.21608,0"
             style="fill:#ffffff;fill-opacity:1;stroke:none" />
          <path
             inkscape:connector-curvature="0"
             id="path7731"
             d="m 285.16212,185.83248 c -1.77938,0 -3.1484,1.319 -3.1484,3.07383 l 0,30.52819 c 0,1.74241 1.319,3.07416 3.08627,3.07416 l 24.33046,0 c 1.86699,0 3.22359,-1.29447 3.22359,-3.07416 l 0,-0.80894 c 0,-1.76726 -1.34417,-3.07383 -3.22359,-3.07383 0,0 -19.02865,0 -19.92487,0 0,-0.7965 0,-6.98179 0,-7.77829 0.89622,0 14.59854,0 14.59854,0 1.86667,0 3.22326,-1.29446 3.22326,-3.08659 l 0,-0.79649 c 0,-1.7797 -1.35659,-3.08627 -3.22326,-3.08627 0,0 -13.70232,0 -14.59854,0 0,-0.79649 0,-7.19334 0,-7.98983 0.89622,0 18.91682,0 18.91682,0 1.867,0 3.22359,-1.29446 3.22359,-3.07416 l 0,-0.80892 c 0,-1.7797 -1.35659,-3.07384 -3.22359,-3.07384 l -23.24753,0"
             style="fill:#ffffff;fill-opacity:1;stroke:none" />
          <path
             inkscape:connector-curvature="0"
             id="path7733"
             d="m 78.309297,200.35583 c -3.036651,0 -5.513263,2.36463 -5.513263,5.28937 l 0,11.51195 c 0,2.96201 2.389494,5.37636 5.326597,5.37636 l 7.442252,0 c 2.937103,0 5.33902,-2.41435 5.33902,-5.37636 l 0,-11.51195 c 0,-2.91231 -2.476599,-5.28937 -5.513261,-5.28937 l -7.081345,0 z m -1.605453,16.35305 0,-10.50358 c 0,-1.23234 1.00808,-2.24039 2.240167,-2.24039 l 5.799492,0 c 1.207204,0 2.240134,1.02079 2.240134,2.24039 l 0,10.50358 c 0,1.23235 -1.008048,2.24038 -2.240134,2.24038 l -5.84929,0 c -1.232086,0 -2.190369,-0.98318 -2.190369,-2.24038"
             style="fill:#ffffff;fill-opacity:1;stroke:none" />
          <path
             inkscape:connector-curvature="0"
             id="path7735"
             d="m 107.77981,200.21914 c -2.15309,0 -3.75857,0.77165 -5.06534,1.39387 -0.78404,0.37309 -1.46852,0.69678 -2.00367,0.69678 -0.22401,0 -0.43559,-0.0994 -0.54761,-0.27368 l -0.485353,-0.94592 c -0.112019,-0.24883 -0.60983,-0.73436 -1.232086,-0.73436 l -0.721818,0 c -0.696936,0 -1.269427,0.62253 -1.269427,1.40628 l 0,29.18433 c 0,0.90832 0.709393,1.63027 1.630336,1.63027 l 0.634712,0 c 0.89606,0 1.630336,-0.73437 1.630336,-1.63027 l 0,-9.68255 c 0,-0.2861 0.18667,-0.58495 0.36091,-0.58495 0.53515,0 1.21963,0.29885 2.01613,0.67225 1.29431,0.58494 2.91222,1.33142 5.06531,1.33142 l 0.67192,0 c 3.79579,0 6.16044,-2.1652 6.16044,-5.65003 l 0,-11.13855 c 0,-3.43482 -2.41435,-5.66247 -6.16044,-5.66247 l -0.68435,0 0,0 0,-0.0124 z m -7.44238,16.26576 0,-10.0432 c 0,-1.38144 1.08276,-2.46436 2.46418,-2.46436 l 5.42615,0 c 1.38145,0 2.46405,1.08292 2.46405,2.46436 l 0,10.0432 c 0,1.35659 -1.09503,2.46436 -2.46405,2.46436 l -5.42615,0 c -1.35654,0 -2.46418,-1.10777 -2.46418,-2.46436"
             style="fill:#ffffff;fill-opacity:1;stroke:none" />
          <path
             inkscape:connector-curvature="0"
             id="path7737"
             d="m 125.651,200.35583 c -3.03657,0 -5.51304,2.36463 -5.51304,5.28937 l 0,11.42465 c 0,2.96201 2.40191,5.47608 5.23936,5.47608 l 7.67887,0 c 0.94561,0 1.63028,-0.64739 1.63028,-1.54329 l 0,-0.49798 c 0,-0.8959 -0.68467,-1.54296 -1.63028,-1.54296 l -6.29743,0 c -1.76727,0 -2.70076,-0.85895 -2.70076,-2.51407 0,0 0,-2.87473 0,-3.33542 0.5104,0 11.37526,0 11.37526,0 1.81697,0 2.912,-1.11987 2.912,-3.01171 l 0,-4.43044 c 0,-2.91232 -2.47647,-5.28907 -5.51304,-5.28907 l -7.16848,0 -0.0127,-0.0252 z m -1.60543,5.79946 c 0,-1.21961 0.95835,-2.19038 2.19037,-2.19038 l 5.98616,0 c 1.23234,0 2.19037,0.95834 2.19037,2.19038 0,0 0,3.099 0,3.55939 -0.48522,0 -9.88135,0 -10.3669,0 0,-0.46039 0,-3.55939 0,-3.55939"
             style="fill:#ffffff;fill-opacity:1;stroke:none" />
          <path
             inkscape:connector-curvature="0"
             id="path7739"
             d="m 154.17581,200.21914 c -2.14066,0 -3.75851,0.75922 -5.05298,1.38145 -0.80892,0.37309 -1.5057,0.7092 -2.0658,0.7092 -0.24882,0 -0.34854,-0.0248 -0.53524,-0.36098 l -0.44795,-0.82135 c -0.24883,-0.51007 -0.68435,-0.77163 -1.28173,-0.77163 l -0.63497,0 c -0.7589,0 -1.30657,0.58493 -1.30657,1.40628 l 0,19.1408 c 0,0.90865 0.72163,1.64302 1.63027,1.64302 l 0.63465,0 c 0.89622,0 1.63027,-0.73437 1.63027,-1.64302 l 0,-14.48606 c 0,-1.35659 1.10777,-2.46436 2.46437,-2.46436 l 5.42606,0 c 1.35659,0 2.46405,1.10777 2.46405,2.46436 l 0,14.48606 c 0,0.90865 0.72194,1.64302 1.63059,1.64302 l 0.63465,0 c 0.8959,0 1.63027,-0.73437 1.63027,-1.64302 l 0,-15.02131 c 0,-3.43481 -2.41435,-5.66246 -6.16044,-5.66246 l -0.68435,0"
             style="fill:#ffffff;fill-opacity:1;stroke:none" />
        </g>
      </g>
      <g
         transform="matrix(0.58044467,0,0,0.58044461,-36.318237,268.73717)"
         style="font-size:39.33337402px;font-style:normal;font-variant:normal;font-weight:bold;font-stretch:normal;line-height:125%;letter-spacing:0px;word-spacing:0px;fill:#ffffff;fill-opacity:1;stroke:none;font-family:FifthLeg;-inkscape-font-specification:FifthLeg Bold"
         id="g7741">
        <path
           d="m 778.76344,635.15241 -0.708,0.15734 c -1.96667,0.472 -3.73667,2.20267 -3.73667,5.23134 l 0,22.57735 4.44467,0 0,-27.96603"
           id="path7743"
           inkscape:connector-curvature="0" />
        <path
           d="m 782.47737,658.7131 -0.0393,0 -0.27533,0 0.39333,0.98334 0,0 c 0.31467,1.92733 1.21934,3.46134 2.87134,3.46134 l 8.26001,0 c 3.14667,0 5.23134,-1.92734 5.23134,-5.19201 l 0,-6.76534 c 0,-1.062 -0.59,-2.04534 -1.57334,-2.55667 0.66867,-0.59 0.944,-1.49467 0.944,-2.16333 l 0,-6.88335 c 0,-2.04533 -1.80933,-3.81533 -4.99533,-3.81533 l -6.52934,0 c -2.08467,0.0393 -3.14668,1.33733 -3.38268,3.50067 l -0.0393,0.62933 9.44001,0 c 0.472,0 0.78667,0.236 0.86534,0.59 l 0.0393,0.0393 0.0393,0.0787 0,5.42801 c 0,0.51133 -0.472,0.86533 -0.98333,0.86533 l -5.90001,0 -0.0393,0.0393 -0.118,0 -0.0393,0 -0.0787,0 -0.118,0 c -0.51134,0.19666 -0.86534,0.59 -1.10134,0.90466 l 0,0.0393 -0.0393,0.0393 c -0.0787,0.15733 -0.0393,0.118 -0.0393,0.15733 -0.0393,0.0787 -0.0787,0.0393 -0.0787,0.43267 0,0 0,0.0787 0,0.0787 0,0.19666 0.0393,0.43266 0.15733,0.66866 0.19667,0.39334 0.43267,0.62934 0.826,0.86534 l 0.0393,0 0.0393,0.0393 c 0.118,0.0393 0.118,0.0393 0.39333,0.118 l 0.0787,0 6.72601,0 c 0.43267,0 0.78667,0.31467 0.90467,0.62934 0,0 0,0 0,0 l 0.0393,0.0393 c 0,0 0,0 0,0.118 l 0,6.80467 c 0,0.43267 -0.39333,0.826 -0.944,0.826 -3.57933,0 -7.11935,0 -10.14801,0 l -0.826,-0.31466 0,0.0393 c 0,0.118 0,0.19667 0,0.27533"
           id="path7745"
           inkscape:connector-curvature="0" />
        <path
           d="m 804.33689,663.11844 c 1.21933,0 2.32067,-0.90467 2.32067,-2.242 0,-1.298 -1.10134,-2.28134 -2.32067,-2.28134 -1.18,0 -2.242,0.98334 -2.242,2.28134 0,1.10133 0.90467,2.242 2.242,2.242"
           id="path7747"
           inkscape:connector-curvature="0" />
        <path
           d="m 818.17363,635.15241 -0.708,0.15734 c -1.96666,0.472 -3.73667,2.20267 -3.73667,5.23134 l 0,22.57735 4.44467,0 0,-27.96603"
           id="path7749"
           inkscape:connector-curvature="0" />
      </g>
    </g>
  </g>
</svg>
