<?xml version="1.0" encoding="UTF-8" standalone="no"?>
<!-- Created with Inkscape (http://www.inkscape.org/) -->
<svg
   xmlns:dc="http://purl.org/dc/elements/1.1/"
   xmlns:cc="http://web.resource.org/cc/"
   xmlns:rdf="http://www.w3.org/1999/02/22-rdf-syntax-ns#"
   xmlns:svg="http://www.w3.org/2000/svg"
   xmlns="http://www.w3.org/2000/svg"
   xmlns:sodipodi="http://sodipodi.sourceforge.net/DTD/sodipodi-0.dtd"
   xmlns:inkscape="http://www.inkscape.org/namespaces/inkscape"
   width="200"
   height="200"
   id="svg4589"
   sodipodi:version="0.32"
   inkscape:version="0.45+devel"
   version="1.0"
   sodipodi:docname="geeko-button.svg"
   inkscape:output_extension="org.inkscape.output.svg.inkscape"
   inkscape:export-filename="/home/jimmac/gfx/novell/pdes.local/trunk/logos/openSUSE/geeko-button.png"
   inkscape:export-xdpi="36"
   inkscape:export-ydpi="36">
  <defs
     id="defs4591" />
  <sodipodi:namedview
     id="base"
     pagecolor="#ffffff"
     bordercolor="#d8d8d8"
     borderopacity="1"
     gridtolerance="10000"
     guidetolerance="10"
     objecttolerance="10"
     inkscape:pageopacity="0.0"
     inkscape:pageshadow="2"
     inkscape:zoom="1"
     inkscape:cx="112.73894"
     inkscape:cy="96.56131"
     inkscape:document-units="px"
     inkscape:current-layer="layer1"
     width="200px"
     height="200px"
     borderlayer="true"
     inkscape:showpageshadow="false"
     inkscape:window-width="913"
     inkscape:window-height="981"
     inkscape:window-x="839"
     inkscape:window-y="183" />
  <metadata
     id="metadata4594">
    <rdf:RDF>
      <cc:Work
         rdf:about="">
        <dc:format>image/svg+xml</dc:format>
        <dc:type
           rdf:resource="http://purl.org/dc/dcmitype/StillImage" />
      </cc:Work>
    </rdf:RDF>
  </metadata>
  <g
     inkscape:label="Layer 1"
     inkscape:groupmode="layer"
     id="layer1">
    <path
       style="font-size:20.48839951px;fill:#2e3436;fill-opacity:1;fill-rule:evenodd;stroke:none;stroke-miterlimit:4;font-family:TrebuchetMS-Bold"
       d="M 100,30.15625 C 61.42932,30.15625 30.15625,61.425758 30.15625,100 C 30.15625,138.57424 61.429322,169.84375 100,169.84375 C 138.57068,169.84375 169.84374,138.57424 169.84375,100 C 169.84375,61.42576 138.57068,30.15625 100,30.15625 z M 100.33443,39.828902 C 133.56795,39.828902 160.53125,66.770045 160.53125,100 C 160.53125,133.23353 133.56439,160.1711 100.33443,160.1711 C 82.389609,160.1711 66.287227,152.30637 55.263985,139.84824 C 59.796476,136.33049 67.379614,137.1887 76.71875,138.25328 C 81.194275,138.76243 86.296203,139.34487 91.562155,139.46236 C 106.27405,139.54781 122.10349,136.86276 131.87345,132.59375 C 138.18974,129.82369 142.2338,127.99948 144.76174,125.69941 C 145.67323,124.95171 146.15189,123.70262 146.63968,122.4066 L 146.9741,121.53194 C 147.38356,120.48516 147.97116,118.23268 148.23463,117.00432 C 148.35213,116.46668 148.4098,115.88852 148.02883,115.58943 L 146.6654,115.84669 C 142.37858,118.41735 131.66827,123.31339 121.63484,123.51278 C 109.20165,123.77269 84.142747,110.99635 81.529351,109.64693 L 81.272099,109.33823 C 80.645455,107.84282 76.895331,98.94015 76.101347,97.067334 C 94.138736,108.9451 109.09321,115.51941 120.55439,116.54126 C 133.29735,117.6735 143.23739,110.71627 147.4886,107.74327 C 148.3182,107.17715 148.95227,106.73322 149.21219,106.63709 L 149.49517,106.17403 C 148.79019,101.69494 142.10444,80.020513 137.06992,74.81509 C 135.67421,73.387338 134.56456,71.99784 132.31077,70.673343 C 114.08824,60.052429 70.821318,53.655843 68.795407,53.360325 L 68.460981,53.463225 L 68.332355,53.746202 C 68.332355,53.746202 68.170081,62.730623 68.152279,63.727555 C 66.667557,63.236211 62.063794,61.728958 55.469786,59.920235 C 64.073519,49.274391 77.258819,39.828903 100.33443,39.828902 z M 116.23256,71.676623 C 116.53961,71.672015 116.84957,71.666386 117.15867,71.676623 C 127.36656,72.043352 135.38655,80.64108 135.03764,90.841851 C 134.85605,95.776676 132.77552,100.3362 129.17231,103.70442 C 125.55841,107.09044 120.86144,108.85532 115.89814,108.6951 C 105.70804,108.31413 97.68804,99.716403 98.019164,89.529869 C 98.193628,84.587921 100.28565,79.999105 103.91022,76.641575 C 107.2949,73.467184 111.62686,71.745742 116.23256,71.676623 z M 115.74378,77.130352 C 112.77085,77.311095 109.96536,78.518224 107.76899,80.577521 C 105.26598,82.927436 103.78906,86.109053 103.67869,89.555594 C 103.4437,96.676553 109.01582,102.66919 116.12966,102.93267 C 119.58688,103.03948 122.86633,101.82829 125.39071,99.485497 C 127.90797,97.124898 129.3742,93.914001 129.48101,90.481699 C 129.71956,83.350056 124.12172,77.379586 117.00432,77.130352 C 116.5735,77.11433 116.16849,77.104532 115.74378,77.130352 z M 119.1395,83.587362 C 122.30121,83.587362 124.85049,85.305483 124.85048,87.420407 C 124.85048,89.524655 122.30121,91.253451 119.1395,91.253453 C 115.96711,91.253453 113.4028,89.521088 113.4028,87.420407 C 113.4028,85.305485 115.96711,83.587364 119.1395,83.587362 z"
       id="path2445" />
  </g>
</svg>
