<?xml version="1.0" encoding="utf-8"?>
<!-- Generator: Adobe Illustrator 16.0.0, SVG Export Plug-In . SVG Version: 6.00 Build 0)  -->
<!DOCTYPE svg PUBLIC "-//W3C//DTD SVG 1.1//EN" "http://www.w3.org/Graphics/SVG/1.1/DTD/svg11.dtd">
<svg version="1.1" id="Layer_1" xmlns="http://www.w3.org/2000/svg" xmlns:xlink="http://www.w3.org/1999/xlink" x="0px" y="0px"
	 width="792px" height="612px" viewBox="0 0 792 612" enable-background="new 0 0 792 612" xml:space="preserve">
<g>
	<path fill-rule="evenodd" clip-rule="evenodd" fill="#7BBE48" d="M444.076,282.201c-1.662-0.063-3.244,0.526-4.453,1.657
		c-1.209,1.135-1.92,2.669-1.973,4.329c-0.113,3.435,2.576,6.324,6.002,6.448c1.668,0.053,3.25-0.535,4.467-1.67
		c1.213-1.139,1.912-2.67,1.963-4.328C450.197,285.201,447.508,282.32,444.076,282.201z M445.094,288.999
		c-1.523,0-2.758-0.825-2.758-1.841c0-1.017,1.234-1.841,2.758-1.841c1.527,0,2.764,0.824,2.764,1.841
		C447.857,288.173,446.621,288.999,445.094,288.999z M458.766,296.954c0.402-0.27,0.703-0.489,0.826-0.537l0.133-0.215
		c-0.34-2.156-3.551-12.602-5.977-15.112c-0.672-0.686-1.209-1.358-2.295-1.993c-8.781-5.12-29.627-8.209-30.605-8.351l-0.164,0.046
		l-0.064,0.148c0,0-0.08,4.324-0.09,4.804c-2.131-0.711-17.607-5.712-32.116-6.215c-12.302-0.435-30.217-2.021-53.96,12.572
		l-0.702,0.438c-11.167,6.97-18.878,15.558-22.909,25.542c-1.264,3.141-2.965,10.229-1.284,16.895
		c0.729,2.918,2.083,5.846,3.909,8.469c4.123,5.924,11.042,9.855,18.498,10.52c10.519,0.939,18.491-3.787,21.322-12.635
		c1.95-6.105,0-15.064-7.468-19.637c-6.073-3.719-12.612-2.869-16.399-0.367c-3.292,2.182-5.153,5.568-5.119,9.291
		c0.073,6.596,5.762,10.105,9.848,10.113c1.189,0,2.383-0.205,3.728-0.643c0.476-0.146,0.931-0.326,1.427-0.633l0.153-0.096
		l0.101-0.061l-0.039,0.018c0.933-0.631,1.498-1.664,1.498-2.773c0-0.299-0.046-0.609-0.131-0.916
		c-0.48-1.67-2.131-2.68-3.844-2.369l-0.23,0.051l-0.313,0.1l-0.455,0.154c-0.939,0.234-1.648,0.252-1.795,0.258
		c-0.482-0.033-2.835-0.736-2.835-3.314v-0.033c0.004-0.945,0.384-1.609,0.594-1.973c0.728-1.148,2.732-2.275,5.445-2.035
		c3.551,0.303,6.109,2.125,7.806,5.562c1.577,3.197,1.166,7.125-1.062,10.008c-2.209,2.857-6.139,4.068-11.373,3.502
		c-5.277-0.582-9.735-3.617-12.234-8.346c-2.445-4.617-2.58-10.096-0.348-14.305c5.344-10.08,15.43-9.974,20.96-9.023
		c8.188,1.42,17.498,8.974,20.805,17.693c0.53,1.389,0.801,2.492,1.033,3.494l0.357,1.508l9.248,4.518l0.126,0.088l0.224-0.021
		l0.039-0.268c-0.059-0.205-0.193-0.393-0.404-2.984c-0.178-2.293-0.537-8.58,2.629-11.699c1.227-1.217,3.104-2.299,4.579-2.646
		c6.064-1.482,13.174-0.459,19.893,7.316c3.475,4.016,5.174,5.848,6.025,6.67l0.293,0.268l0.355,0.26
		c0.277,0.156,11.553,5.346,11.553,5.346l0.23-0.057l0.006-0.242c-0.074-0.084-7.146-9.223-5.893-16.748
		c0.992-5.996,5.766-5.457,12.363-4.707c2.156,0.248,4.611,0.531,7.148,0.586c7.09,0.043,14.727-1.258,19.434-3.318
		c3.043-1.328,4.986-2.206,6.203-3.312c0.439-0.364,0.666-0.956,0.904-1.585l0.162-0.423c0.199-0.508,0.484-1.594,0.613-2.184
		c0.055-0.264,0.082-0.542-0.102-0.686l-0.654,0.121c-2.062,1.241-7.23,3.599-12.062,3.694c-5.994,0.124-18.068-6.029-19.328-6.681
		l-0.121-0.143c-0.301-0.723-2.111-5.007-2.496-5.912c8.693,5.725,15.9,8.89,21.422,9.383
		C451.928,301.737,456.717,298.385,458.766,296.954z M434.932,288.173c0.084-2.38,1.08-4.591,2.824-6.213
		c1.74-1.626,4.014-2.467,6.396-2.39c4.918,0.179,8.773,4.322,8.605,9.233c-0.09,2.378-1.088,4.585-2.826,6.208
		c-1.742,1.631-4.006,2.472-6.4,2.392C438.623,297.219,434.77,293.084,434.932,288.173z"/>
	<g>
		<g>
			<path fill="#7BBE48" d="M422.624,331.215h-0.107c-0.129,0-0.229-0.105-0.229-0.232v-1.625l-0.363,0.543
				c-0.039,0.061-0.113,0.086-0.182,0.086H421.7c-0.072,0-0.145-0.025-0.186-0.086l-0.361-0.543v1.625
				c0,0.127-0.113,0.232-0.238,0.232h-0.109c-0.127,0-0.225-0.105-0.225-0.232v-1.943h-1.094v1.943c0,0.127-0.113,0.232-0.242,0.232
				h-0.105c-0.125,0-0.227-0.105-0.227-0.232v-1.943h-0.826c-0.129,0-0.227-0.084-0.227-0.213v-0.121
				c0-0.137,0.104-0.211,0.227-0.211h2.863c0.119,0,0.184,0.047,0.225,0.107l0.547,0.82l0.545-0.82
				c0.043-0.061,0.109-0.107,0.23-0.107h0.367v2.488C422.864,331.109,422.747,331.215,422.624,331.215z"/>
		</g>
	</g>
</g>
</svg>
