<?xml version="1.0" encoding="UTF-8" standalone="no"?>
<!-- Created with Inkscape (http://www.inkscape.org/) -->

<svg
   xmlns:dc="http://purl.org/dc/elements/1.1/"
   xmlns:cc="http://creativecommons.org/ns#"
   xmlns:rdf="http://www.w3.org/1999/02/22-rdf-syntax-ns#"
   xmlns:svg="http://www.w3.org/2000/svg"
   xmlns="http://www.w3.org/2000/svg"
   xmlns:sodipodi="http://sodipodi.sourceforge.net/DTD/sodipodi-0.dtd"
   xmlns:inkscape="http://www.inkscape.org/namespaces/inkscape"
   width="70.320221mm"
   height="88.128441mm"
   viewBox="0 0 249.16614 312.26613"
   id="svg4188"
   version="1.1"
   inkscape:version="0.91 r13725"
   sodipodi:docname="Leap-green.svg">
  <defs
     id="defs4190" />
  <sodipodi:namedview
     id="base"
     pagecolor="#ffffff"
     bordercolor="#666666"
     borderopacity="1.0"
     inkscape:pageopacity="0.0"
     inkscape:pageshadow="2"
     inkscape:zoom="0.35"
     inkscape:cx="124.58307"
     inkscape:cy="156.13307"
     inkscape:document-units="px"
     inkscape:current-layer="layer1"
     showgrid="false"
     fit-margin-left="10"
     fit-margin-top="10"
     fit-margin-bottom="10"
     fit-margin-right="10"
     inkscape:window-width="960"
     inkscape:window-height="1016"
     inkscape:window-x="2040"
     inkscape:window-y="27"
     inkscape:window-maximized="0" />
  <metadata
     id="metadata4193">
    <rdf:RDF>
      <cc:Work
         rdf:about="">
        <dc:format>image/svg+xml</dc:format>
        <dc:type
           rdf:resource="http://purl.org/dc/dcmitype/StillImage" />
        <dc:title></dc:title>
      </cc:Work>
    </rdf:RDF>
  </metadata>
  <g
     inkscape:label="Layer 1"
     inkscape:groupmode="layer"
     id="layer1"
     transform="translate(209.58307,-376.22913)">
    <g
       transform="translate(-419.45,382.3622)"
       id="g21">
      <g
         id="g23">
        <path
           style="fill:#64b345"
           inkscape:connector-curvature="0"
           d="m 245.3,184.6 4.5,0 0,60.8 29.8,0 0,3.9 -34.3,0 0,-64.7 z"
           id="path25" />
        <path
           style="fill:#64b345"
           inkscape:connector-curvature="0"
           d="m 305.8,201.1 c 11.2,0 18.1,8 18.1,21.8 0,1.2 0,2.4 -0.2,3.5 l -34,0 c 0.2,11.9 7.2,20.4 17.8,20.4 5.1,0 9.1,-1.7 12.7,-4.2 l 1.8,3.3 c -3.7,2.3 -8,4.6 -14.8,4.6 -12.1,0 -21.8,-9.2 -21.8,-24.7 0,-15.5 9.9,-24.7 20.4,-24.7 z m 14,22 c 0,-12.1 -5.4,-18.3 -13.9,-18.3 -8.1,0 -15.2,7 -16.2,18.3 l 30.1,0 z"
           id="path27" />
        <path
           style="fill:#64b345"
           inkscape:connector-curvature="0"
           d="m 363,219.8 c 0.2,-7.2 -1.9,-14.9 -11.1,-14.9 -6.4,0 -11.9,3.1 -15,5.5 l -2,-3.2 c 3.3,-2.4 9.8,-6.1 17.5,-6.1 11.2,0 14.9,8.1 14.9,18.2 l 0,30.2 -3.6,0 -0.5,-6.1 -0.2,0 c -4.8,3.8 -10.5,7.3 -16.7,7.3 -7.5,0 -13.8,-4 -13.8,-13 0.1,-10.5 9.6,-15.5 30.5,-17.9 z m -16,27 c 5.4,0 10.2,-2.7 16,-7.7 l 0,-16 c -19.4,2.3 -25.9,6.8 -25.9,14.2 0,6.9 4.5,9.5 9.9,9.5 z"
           id="path29" />
        <path
           style="fill:#64b345"
           inkscape:connector-curvature="0"
           d="m 388.6,253.5 0,17.2 -4.3,0 0,-68.5 3.7,0 0.4,5.9 0.3,0 c 4.6,-3.6 10.2,-7.1 16,-7.1 12.6,0 18.9,9.4 18.9,24.1 0,16 -9.7,25.5 -20.8,25.5 -4.4,0 -9.2,-2.2 -14.2,-5.8 l 0,8.7 z m 13.9,-6.7 c 9.5,0 16.4,-8.8 16.4,-21.6 0,-11.6 -4.1,-20.2 -14.9,-20.2 -4.7,0 -9.7,2.8 -15.4,7.8 l 0,28 c 5.4,4.3 10.3,6 13.9,6 z"
           id="path31" />
      </g>
    </g>
    <g
       transform="translate(-419.45,382.3622)"
       id="g33">
      <polygon
         style="fill:#64b345"
         points="332,112.4 385.9,70.4 332.3,29.3 278.4,71.3 "
         id="polygon35" />
      <polygon
         style="fill:#64b345"
         points="258,93.6 332.9,150.9 407.2,93.1 392,81.5 332,128.1 272.3,82.4 "
         id="polygon37" />
    </g>
  </g>
</svg>
