<svg version="1.1" viewBox="0 0 256 256" xmlns="http://www.w3.org/2000/svg">
  <path d="m127.8 22.992a7.5008 7.5008 0 0 0-3.8379 1.1719l-82.5 52.5a7.5008 7.5008 0 0 0-3.457 6.3281v90a7.5008 7.5008 0 0 0 3.457 6.3281l82.5 52.5a7.5008 7.5008 0 0 0 8.0566 0l82.5-52.5a7.5008 7.5008 0 0 0 3.4863-6.3281v-90a7.5008 7.5008 0 0 0-3.4863-6.3281l-82.5-52.5a7.5008 7.5008 0 0 0-4.2188-1.1719zm0.20505 16.406 75 47.725v81.738l-75 47.754-75-47.725v-81.768zm-60 58.594v7.5a7.5 7.5 0 0 0 3.7794 6.5332l48.721 27.832v48.135a7.5 7.5 0 0 0 2.1974 5.3027 7.5 7.5 0 0 0 0.26355 0.23437l5.0391 5.0684 4.922-4.9219a7.5 7.5 0 0 0 0.38085-0.38085 7.5 7.5 0 0 0 2.1972-5.3027v-48.135l48.721-27.832a7.5 7.5 0 0 0 3.7792-6.6504v-7.3828h-7.5a7.5 7.5 0 0 0-0.1464 0 7.5 7.5 0 0 0-3.5742 0.99609l-48.779 27.861-48.779-27.861a7.5 7.5 0 0 0-3.7208-0.9668v-0.0293z" color="#000000" color-rendering="auto" dominant-baseline="auto" fill="#21a4df" image-rendering="auto" shape-rendering="auto" solid-color="#000000" stop-color="#000000" style="font-feature-settings:normal;font-variant-alternates:normal;font-variant-caps:normal;font-variant-east-asian:normal;font-variant-ligatures:normal;font-variant-numeric:normal;font-variant-position:normal;font-variation-settings:normal;inline-size:0;isolation:auto;mix-blend-mode:normal;shape-margin:0;shape-padding:0;text-decoration-color:#000000;text-decoration-line:none;text-decoration-style:solid;text-indent:0;text-orientation:mixed;text-transform:none;white-space:normal"/>
</svg>
