<?xml version="1.0" encoding="UTF-8" standalone="no"?>
<svg
   width="210mm"
   height="297mm"
   viewBox="0 0 210 297"
   version="1.1"
   id="svg1553"
   inkscape:version="1.2.1 (9c6d41e410, 2022-07-14)"
   sodipodi:docname="leap-micro.svg"
   xmlns:inkscape="http://www.inkscape.org/namespaces/inkscape"
   xmlns:sodipodi="http://sodipodi.sourceforge.net/DTD/sodipodi-0.dtd"
   xmlns="http://www.w3.org/2000/svg"
   xmlns:svg="http://www.w3.org/2000/svg"
   xmlns:rdf="http://www.w3.org/1999/02/22-rdf-syntax-ns#"
   xmlns:cc="http://creativecommons.org/ns#"
   xmlns:dc="http://purl.org/dc/elements/1.1/">
  <defs
     id="defs1547" />
  <sodipodi:namedview
     id="base"
     pagecolor="#ffffff"
     bordercolor="#666666"
     borderopacity="1.0"
     inkscape:pageopacity="0.0"
     inkscape:pageshadow="2"
     inkscape:zoom="1.2264468"
     inkscape:cx="468.42635"
     inkscape:cy="158.99589"
     inkscape:document-units="mm"
     inkscape:current-layer="layer1"
     inkscape:document-rotation="0"
     showgrid="false"
     inkscape:window-width="1920"
     inkscape:window-height="1011"
     inkscape:window-x="0"
     inkscape:window-y="0"
     inkscape:window-maximized="1"
     showguides="true"
     inkscape:guide-bbox="true"
     inkscape:lockguides="false"
     inkscape:showpageshadow="2"
     inkscape:pagecheckerboard="0"
     inkscape:deskcolor="#d1d1d1">
    <sodipodi:guide
       position="7.3348745,288.15501"
       orientation="1,0"
       id="guide2150"
       inkscape:locked="false" />
    <sodipodi:guide
       position="205.16075,279.74148"
       orientation="1,0"
       id="guide2152"
       inkscape:locked="false" />
    <sodipodi:guide
       position="105.27702,298.72586"
       orientation="1,0"
       id="guide2154"
       inkscape:locked="false" />
    <sodipodi:guide
       position="185.31345,281.68306"
       orientation="1,0"
       id="guide2156"
       inkscape:locked="false" />
    <sodipodi:guide
       position="26.534987,273.0538"
       orientation="1,0"
       id="guide2158"
       inkscape:locked="false" />
    <sodipodi:guide
       position="7.3348743,292.46964"
       orientation="0.70710678,-0.70710678"
       id="guide2163"
       inkscape:locked="false" />
  </sodipodi:namedview>
  <metadata
     id="metadata1550">
    <rdf:RDF>
      <cc:Work
         rdf:about="">
        <dc:format>image/svg+xml</dc:format>
        <dc:type
           rdf:resource="http://purl.org/dc/dcmitype/StillImage" />
        <dc:title />
      </cc:Work>
    </rdf:RDF>
  </metadata>
  <g
     inkscape:label="Layer 1"
     inkscape:groupmode="layer"
     id="layer1">
    <path
       d="m 105.27702,11.724172 a 4.8523736,4.8523736 0 0 0 -3.43046,1.42141 L 54.749262,60.242865 h -22.25076 a 4.8518888,4.8518888 0 0 0 -4.851887,4.85189 4.8518888,4.8518888 0 0 0 4.851887,4.851887 h 22.25076 l 47.097298,47.097278 a 4.8523736,4.8523736 0 0 0 6.86104,0 l 47.0973,-47.097278 h 22.25076 a 4.8518888,4.8518888 0 0 0 4.85189,-4.851887 4.8518888,4.8518888 0 0 0 -4.85189,-4.85189 H 155.8049 L 108.7076,13.145582 a 4.8523736,4.8523736 0 0 0 -3.43046,-1.42141 z m 0,11.712457 41.65834,41.658318 -41.65834,41.658313 -41.658312,-41.658313 z m 0,22.250764 A 19.407554,19.407554 0 0 0 85.869471,65.094947 19.407554,19.407554 0 0 0 105.27702,84.502501 19.407554,19.407554 0 0 0 124.6846,65.094947 19.407554,19.407554 0 0 0 105.27702,45.687393 Z m 0,9.703777 a 9.7037773,9.7037773 0 0 1 9.70377,9.703777 9.7037773,9.7037773 0 0 1 -9.70377,9.703777 9.7037773,9.7037773 0 0 1 -9.703775,-9.703777 9.7037773,9.7037773 0 0 1 9.703775,-9.703777 z M 56.758148,84.502501 a 4.8518888,4.8518888 0 0 0 -3.430491,1.421412 4.8518888,4.8518888 0 0 0 0,6.861053 l 51.949183,51.949174 51.94918,-51.949174 a 4.8518888,4.8518888 0 0 0 0,-6.861053 4.8518888,4.8518888 0 0 0 -6.86107,0 L 105.27636,131.01251 60.187735,85.923913 a 4.8518888,4.8518888 0 0 0 -3.430461,-1.421412 z"
       fill="#df7320"
       id="path27"
       style="stroke-width:4.85189;fill:#df7320;fill-opacity:1" />
  </g>
</svg>
