<svg version="1.1" viewBox="0 0 256 256" xmlns="http://www.w3.org/2000/svg">
  <path d="m127.65 8.0209a7.5008 7.5008 0 0 0-4.951 2.168l-82.5 82.5a7.5008 7.5008 0 0 0 0 10.605l82.5 82.5a7.5008 7.5008 0 0 0 10.605 0l82.5-82.5a7.5008 7.5008 0 0 0 0-10.605l-82.5-82.5a7.5008 7.5008 0 0 0-5.6544-2.168zm0.3516 18.076 71.895 71.895-71.895 71.895-71.895-71.895zm-90 116.89v7.5a7.5 7.5 0 0 0 2.1974 5.3027l82.5 82.5a7.5008 7.5008 0 0 0 10.605 0l82.5-82.5a7.5 7.5 0 0 0 2.1972-5.3027 7.5 7.5 0 0 0 0-0.35156v-7.1484h-7.5a7.5 7.5 0 0 0-5.3026 2.1973l-77.197 77.197-77.197-77.197a7.5 7.5 0 0 0-5.3028-2.168v-0.0293z" color="#000000" color-rendering="auto" dominant-baseline="auto" fill="#fbc75d" image-rendering="auto" shape-rendering="auto" solid-color="#000000" stop-color="#000000" style="font-feature-settings:normal;font-variant-alternates:normal;font-variant-caps:normal;font-variant-east-asian:normal;font-variant-ligatures:normal;font-variant-numeric:normal;font-variant-position:normal;font-variation-settings:normal;inline-size:0;isolation:auto;mix-blend-mode:normal;shape-margin:0;shape-padding:0;text-decoration-color:#000000;text-decoration-line:none;text-decoration-style:solid;text-indent:0;text-orientation:mixed;text-transform:none;white-space:normal"/>
</svg>
