<svg version="1.1" viewBox="0 0 256 256" xmlns="http://www.w3.org/2000/svg">
  <path d="m129.11 52.992c-38.799 0-70.836 29.675-74.619 67.5h-37.881a7.5 7.5 0 0 0-5.5371 2.461l-5.0684 5.039 4.922 4.9219a7.5 7.5 0 0 0 5.6835 2.5781h37.881c3.7833 37.825 35.821 67.5 74.619 67.5s70.836-29.675 74.619-67.5h37.881a7.5 7.5 0 0 0 5.3028-2.1973 7.5 7.5 0 0 0 0.2343-0.26367l5.0684-5.0391-4.9218-4.9219a7.5 7.5 0 0 0-0.38085-0.38085 7.5 7.5 0 0 0-5.3028-2.1973h-37.881c-3.7832-37.825-35.821-67.5-74.619-67.5zm0 15c33.226 0 60 26.774 60 60s-26.774 60-60 60-60-26.774-60-60 26.774-60 60-60zm0 30c-16.48 0-30 13.52-30 30s13.52 30 30 30 30-13.52 30-30-13.52-30-30-30zm0 15c8.3732 0 15 6.6269 15 15s-6.6268 15-15 15-15-6.6269-15-15 6.6268-15 15-15z" color="#000000" color-rendering="auto" dominant-baseline="auto" fill="#973a84" image-rendering="auto" shape-rendering="auto" solid-color="#000000" stop-color="#000000" style="font-feature-settings:normal;font-variant-alternates:normal;font-variant-caps:normal;font-variant-east-asian:normal;font-variant-ligatures:normal;font-variant-numeric:normal;font-variant-position:normal;font-variation-settings:normal;inline-size:0;isolation:auto;mix-blend-mode:normal;shape-margin:0;shape-padding:0;text-decoration-color:#000000;text-decoration-line:none;text-decoration-style:solid;text-indent:0;text-orientation:mixed;text-transform:none;white-space:normal"/>
</svg>
