<svg version="1.1" viewBox="0 0 256 256" xmlns="http://www.w3.org/2000/svg">
  <path d="m38.004 37.992v180h7.295a7.5008 7.5008 0 0 0 4.6288-1.4356l112.5-82.5a7.5008 7.5008 0 0 0 0.0587-0.0586l8.203-6.0059-8.2617-6.0352-112.5-82.5a7.5008 7.5008 0 0 0-4.1308-1.4648 7.5008 7.5008 0 0 0-0.29295 0zm60 0v7.5a7.5 7.5 0 0 0 3.0469 6.0645l104.24 76.436-104.24 76.465a7.5 7.5 0 0 0-3.0469 6.4453v7.0898h7.1191a7.5 7.5 0 0 0 4.8046-1.4356l112.5-82.5a7.5008 7.5008 0 0 0 0.0587-0.0586l8.203-6.0059-8.2617-6.0352-112.5-82.5a7.5 7.5 0 0 0-4.1308-1.4648 7.5 7.5 0 0 0-0.29295 0zm-45 22.324 92.285 67.676-92.285 67.705z" color="#000000" color-rendering="auto" dominant-baseline="auto" fill="#35b9ab" image-rendering="auto" shape-rendering="auto" solid-color="#000000" stop-color="#000000" style="font-feature-settings:normal;font-variant-alternates:normal;font-variant-caps:normal;font-variant-east-asian:normal;font-variant-ligatures:normal;font-variant-numeric:normal;font-variant-position:normal;font-variation-settings:normal;inline-size:0;isolation:auto;mix-blend-mode:normal;shape-margin:0;shape-padding:0;text-decoration-color:#000000;text-decoration-line:none;text-decoration-style:solid;text-indent:0;text-orientation:mixed;text-transform:none;white-space:normal"/>
</svg>
