<?xml version="1.0" encoding="UTF-8" standalone="no"?>
<!-- Created with Inkscape (http://www.inkscape.org/) -->

<svg
   xmlns:dc="http://purl.org/dc/elements/1.1/"
   xmlns:cc="http://creativecommons.org/ns#"
   xmlns:rdf="http://www.w3.org/1999/02/22-rdf-syntax-ns#"
   xmlns:svg="http://www.w3.org/2000/svg"
   xmlns="http://www.w3.org/2000/svg"
   xmlns:sodipodi="http://sodipodi.sourceforge.net/DTD/sodipodi-0.dtd"
   xmlns:inkscape="http://www.inkscape.org/namespaces/inkscape"
   width="515"
   height="309"
   id="svg2"
   version="1.1"
   inkscape:version="0.48.2 r9819"
   sodipodi:docname="13.1-Milestone1.svg"
   inkscape:export-filename="/Users/josh-andy/Documents/artwork/Marketing Materials/Events/Releases/13.1-Milestone1.png"
   inkscape:export-xdpi="75"
   inkscape:export-ydpi="75">
  <defs
     id="defs4" />
  <sodipodi:namedview
     id="base"
     pagecolor="#ffffff"
     bordercolor="#666666"
     borderopacity="1.0"
     inkscape:pageopacity="0.0"
     inkscape:pageshadow="2"
     inkscape:zoom="0.7"
     inkscape:cx="327.84172"
     inkscape:cy="326.05851"
     inkscape:document-units="px"
     inkscape:current-layer="layer1"
     showgrid="false"
     showguides="true"
     inkscape:guide-bbox="true"
     width="515px"
     inkscape:window-width="1920"
     inkscape:window-height="984"
     inkscape:window-x="0"
     inkscape:window-y="0"
     inkscape:window-maximized="1" />
  <metadata
     id="metadata7">
    <rdf:RDF>
      <cc:Work
         rdf:about="">
        <dc:format>image/svg+xml</dc:format>
        <dc:type
           rdf:resource="http://purl.org/dc/dcmitype/StillImage" />
        <dc:title></dc:title>
      </cc:Work>
    </rdf:RDF>
  </metadata>
  <g
     inkscape:label="Layer 1"
     inkscape:groupmode="layer"
     id="layer1"
     transform="translate(0,-743.36218)">
    <g
       id="g3904"
       transform="matrix(0.5110572,0,0,0.5110572,-1.5026541,547.0213)">
      <g
         transform="matrix(0.27331658,0,0,0.27331658,-250.72135,852.93493)"
         id="g3833">
        <path
           sodipodi:type="arc"
           style="fill:#afe9dd;fill-opacity:1;stroke:none"
           id="path3793"
           sodipodi:cx="1204.1018"
           sodipodi:cy="389.70212"
           sodipodi:rx="76.771591"
           sodipodi:ry="76.771591"
           d="m 1280.8734,389.70212 c 0,42.39978 -34.3718,76.77159 -76.7716,76.77159 -42.3998,0 -76.7716,-34.37181 -76.7716,-76.77159 0,-42.39978 34.3718,-76.77159 76.7716,-76.77159 42.3998,0 76.7716,34.37181 76.7716,76.77159 z"
           transform="translate(-1.5258789e-5,-15.837559)" />
        <path
           transform="translate(258.59911,-15.837559)"
           d="m 1280.8734,389.70212 c 0,42.39978 -34.3718,76.77159 -76.7716,76.77159 -42.3998,0 -76.7716,-34.37181 -76.7716,-76.77159 0,-42.39978 34.3718,-76.77159 76.7716,-76.77159 42.3998,0 76.7716,34.37181 76.7716,76.77159 z"
           sodipodi:ry="76.771591"
           sodipodi:rx="76.771591"
           sodipodi:cy="389.70212"
           sodipodi:cx="1204.1018"
           id="path3795"
           style="fill:#afe9dd;fill-opacity:1;stroke:none"
           sodipodi:type="arc" />
        <path
           sodipodi:type="arc"
           style="fill:#afe9dd;fill-opacity:1;stroke:none"
           id="path3797"
           sodipodi:cx="1204.1018"
           sodipodi:cy="389.70212"
           sodipodi:rx="76.771591"
           sodipodi:ry="76.771591"
           d="m 1280.8734,389.70212 c 0,42.39978 -34.3718,76.77159 -76.7716,76.77159 -42.3998,0 -76.7716,-34.37181 -76.7716,-76.77159 0,-42.39978 34.3718,-76.77159 76.7716,-76.77159 42.3998,0 76.7716,34.37181 76.7716,76.77159 z"
           transform="translate(1024.2113,-15.837559)" />
        <path
           transform="translate(1234.1564,-15.837559)"
           d="m 1280.8734,389.70212 c 0,42.39978 -34.3718,76.77159 -76.7716,76.77159 -42.3998,0 -76.7716,-34.37181 -76.7716,-76.77159 0,-42.39978 34.3718,-76.77159 76.7716,-76.77159 42.3998,0 76.7716,34.37181 76.7716,76.77159 z"
           sodipodi:ry="76.771591"
           sodipodi:rx="76.771591"
           sodipodi:cy="389.70212"
           sodipodi:cx="1204.1018"
           id="path3799"
           style="fill:#afe9dd;fill-opacity:1;stroke:none"
           sodipodi:type="arc" />
        <path
           sodipodi:type="arc"
           style="fill:#afe9dd;fill-opacity:1;stroke:none"
           id="path3801"
           sodipodi:cx="1204.1018"
           sodipodi:cy="389.70212"
           sodipodi:rx="76.771591"
           sodipodi:ry="76.771591"
           d="m 1280.8734,389.70212 c 0,42.39978 -34.3718,76.77159 -76.7716,76.77159 -42.3998,0 -76.7716,-34.37181 -76.7716,-76.77159 0,-42.39978 34.3718,-76.77159 76.7716,-76.77159 42.3998,0 76.7716,34.37181 76.7716,76.77159 z"
           transform="translate(1444.1014,-15.837559)" />
        <path
           inkscape:connector-curvature="0"
           style="fill:#afe9dd;fill-opacity:1;stroke:none"
           d="m 1329.375,-107.28125 0,387.875 1495,0 0,-387.875 -1495,0 z m 493.2812,93.71875 100.0938,0 42.0312,77 41.625,-77 100.2188,0 0,56.625 -16.6875,3.28125 0,80.625 16.6875,3.28125 0,56.625 -100.2188,0 0,-97.75 -41.625,72.0625 -42.0312,-72.0625 0,97.75 -100.0938,0 0,-56.625 16.6876,-3.28125 0,-80.625 -16.6876,-3.28125 0,-56.625 z"
           id="rect3803" />
        <path
           inkscape:connector-curvature="0"
           style="fill:#afe9dd;fill-opacity:1;stroke:none"
           d="m 1145.2188,-12.34375 -131.3126,131.3125 0,158.75 -32.12495,0.34375 0.34375,119.3125 c 29.8058,-0.0815 95.6002,-0.13085 125.4062,-0.0937 0,-100.67347 55.9278,-121.97296 201.3438,-116.6875 l 0,-290.90625 -163.6562,-2.03125 z m -2.375,31.84375 0,98.5625 -95.6876,0 95.6876,-98.5625 z"
           id="path3805" />
        <path
           style="fill:#37c8ab;fill-opacity:1;stroke:none"
           d="m 1571.7974,294.93052 602.0509,0 -46.1044,79.85514 -402.4034,0 z"
           id="path3809"
           inkscape:connector-curvature="0" />
        <path
           style="fill:#37c8ab;fill-opacity:1;stroke:none"
           d="m 2282.7781,294.93052 101.0152,0 -50.5076,54.54824 z"
           id="path3811"
           inkscape:connector-curvature="0"
           sodipodi:nodetypes="cccc" />
        <path
           style="fill:#37c8ab;fill-opacity:1;stroke:none"
           d="m 2702.6682,295.4356 31.8366,55.14267 89.3817,0 0,-55.64775 z"
           id="path3813"
           inkscape:connector-curvature="0"
           sodipodi:nodetypes="ccccc" />
        <path
           style="fill:#37c8ab;fill-opacity:1;stroke:none"
           d="m 1263.8636,294.93052 139.0754,0 -48.4873,48.48732 -44.4467,0 z"
           id="path3815"
           inkscape:connector-curvature="0"
           sodipodi:nodetypes="ccccc" />
        <path
           sodipodi:nodetypes="cccc"
           inkscape:connector-curvature="0"
           id="path3817"
           d="m 2492.7231,294.93052 101.0152,0 -50.5076,54.54824 z"
           style="fill:#37c8ab;fill-opacity:1;stroke:none" />
        <g
           style="font-size:267.26980591px;font-style:normal;font-weight:normal;line-height:125%;letter-spacing:0px;word-spacing:0px;fill:#ffffff;fill-opacity:1;stroke:none;font-family:Sans"
           id="text3820"
           transform="translate(0,-1.115e-4)">
          <path
             d="m 2214.1626,-3.3905955 100.2261,-10.1792215 0,145.119157 16.7044,3.26257 0,52.07063 -116.9305,0 0,-52.07063 16.7043,-3.26257 0,-78.301705 -16.7043,0 0,-56.6382305"
             style="font-variant:normal;font-weight:bold;font-stretch:normal;fill:#ffffff;font-family:Holtwood One SC;-inkscape-font-specification:Holtwood One SC Bold"
             id="path3827"
             inkscape:connector-curvature="0" />
        </g>
      </g>
      <g
         id="g3885">
        <g
           id="g3858"
           transform="translate(395.9798,315.16759)">
          <rect
             y="446.64795"
             x="162.85715"
             height="214.28572"
             width="422.85715"
             id="rect2985"
             style="fill:#afe9dd;fill-opacity:1;stroke:none" />
          <g
             transform="translate(8.5714286,65.714286)"
             id="g3006"
             style="fill:#afe9dd">
            <g
               id="g3003"
               style="fill:#afe9dd">
              <rect
                 y="163.79076"
                 x="154.28572"
                 height="225.71428"
                 width="102.85714"
                 id="rect2987"
                 style="fill:#afe9dd;fill-opacity:1;stroke:none" />
            </g>
          </g>
          <g
             transform="translate(8.5714286,65.714286)"
             id="g2998"
             style="fill:#afe9dd">
            <path
               style="fill:#afe9dd;fill-opacity:1;stroke:none"
               d="m 255.52917,383.81505 105.16714,-105.16714 0,105.16714 z"
               id="rect2989"
               inkscape:connector-curvature="0"
               sodipodi:nodetypes="cccc" />
            <path
               sodipodi:nodetypes="cccc"
               inkscape:connector-curvature="0"
               id="path2992"
               d="m 363.13074,383.81505 105.16714,-105.16714 0,105.16714 z"
               style="fill:#afe9dd;fill-opacity:1;stroke:none" />
            <path
               style="fill:#afe9dd;fill-opacity:1;stroke:none"
               d="m 470.73232,383.81505 105.16712,-105.16714 0,105.16714 z"
               id="path2994"
               inkscape:connector-curvature="0"
               sodipodi:nodetypes="cccc" />
          </g>
          <rect
             style="fill:#37c8ab;fill-opacity:1;stroke:none"
             id="rect2996"
             width="451.42859"
             height="20.000021"
             x="148.57143"
             y="640.93365" />
          <path
             sodipodi:nodetypes="cscc"
             inkscape:connector-curvature="0"
             id="path3021"
             d="m 210.71429,210.46563 c 0,-34.26772 34.38131,-54.5178 60.41508,-54.3596 92.17553,0.56013 96.32167,-18.15366 96.32167,-18.15366 0,125.72001 -140.01818,30.57267 -156.73675,72.51326 z"
             style="fill:#afe9dd;fill-opacity:1;stroke:none" />
          <path
             style="fill:#afe9dd;fill-opacity:1;stroke:none"
             d="m 210.71429,154.24483 c 0,-34.26771 34.38131,-54.517793 60.41508,-54.359596 92.17553,0.560126 96.32167,-18.15366 96.32167,-18.15366 0,125.720006 -140.01818,30.572676 -156.73675,72.513256 z"
             id="path3791"
             inkscape:connector-curvature="0"
             sodipodi:nodetypes="cscc" />
        </g>
        <g
           id="g3879"
           transform="translate(9.620673,0)"
           style="fill:#ffffff">
          <rect
             transform="translate(0,308.2677)"
             y="501.65787"
             x="581.84784"
             height="32.324883"
             width="72.73098"
             id="rect3871"
             style="fill:#ffffff;fill-opacity:1;stroke:none" />
          <rect
             style="fill:#ffffff;fill-opacity:1;stroke:none"
             id="rect3873"
             width="72.73098"
             height="32.324883"
             x="676.80219"
             y="809.92554" />
          <rect
             y="809.92554"
             x="771.75653"
             height="32.324883"
             width="72.73098"
             id="rect3875"
             style="fill:#ffffff;fill-opacity:1;stroke:none" />
          <rect
             style="fill:#ffffff;fill-opacity:1;stroke:none"
             id="rect3877"
             width="72.73098"
             height="32.324883"
             x="866.71088"
             y="809.92554" />
        </g>
      </g>
    </g>
  </g>
</svg>
