<?xml version="1.0" encoding="UTF-8" standalone="no"?>
<svg
   xmlns:dc="http://purl.org/dc/elements/1.1/"
   xmlns:cc="http://creativecommons.org/ns#"
   xmlns:rdf="http://www.w3.org/1999/02/22-rdf-syntax-ns#"
   xmlns:svg="http://www.w3.org/2000/svg"
   xmlns="http://www.w3.org/2000/svg"
   xmlns:xlink="http://www.w3.org/1999/xlink"
   xmlns:sodipodi="http://sodipodi.sourceforge.net/DTD/sodipodi-0.dtd"
   xmlns:inkscape="http://www.inkscape.org/namespaces/inkscape"
   width="78.169388mm"
   height="42.739445mm"
   viewBox="0 0 78.169388 42.739445"
   version="1.1"
   id="svg8"
   inkscape:version="1.0.1 (3bc2e813f5, 2020-09-07)"
   sodipodi:docname="icons_virt-2.svg">
  <defs
     id="defs2">
    <filter
       style="opacity:1;color-interpolation-filters:sRGB"
       inkscape:label="Lightness-Contrast"
       id="filter934">
      <feColorMatrix
         values="1 0 0 0.782383 -0 0 1 0 0.782383 -0 0 0 1 0.782383 -0 0 0 0 1 0"
         id="feColorMatrix932" />
    </filter>
    <linearGradient
       gradientTransform="matrix(3.4584848,0,0,3.4584848,-1221.1257,-1688.1317)"
       id="a"
       gradientUnits="userSpaceOnUse"
       x1="384.57144"
       x2="407.57141"
       y1="515.79797"
       y2="537.79773">
      <stop
         offset="0"
         stop-color="#fcfcfc"
         stop-opacity=".260638"
         id="stop894" />
      <stop
         offset="1"
         stop-color="#5ea5fb"
         stop-opacity="0"
         id="stop896" />
    </linearGradient>
    <linearGradient
       id="b">
      <stop
         offset="0"
         stop-color="#292c2f"
         id="stop899" />
      <stop
         offset="1"
         stop-opacity="0"
         id="stop901" />
    </linearGradient>
    <linearGradient
       id="c"
       gradientUnits="userSpaceOnUse"
       x2="0"
       y1="545.79797"
       y2="517.79797">
      <stop
         offset="0"
         stop-color="#3889e9"
         id="stop904" />
      <stop
         offset="1"
         stop-color="#5ea5fb"
         id="stop906" />
    </linearGradient>
    <linearGradient
       gradientTransform="matrix(3.4584848,0,0,3.4584848,-1221.1257,-1688.1317)"
       id="d"
       gradientUnits="userSpaceOnUse"
       x1="399.57144"
       x2="402.57144"
       xlink:href="#b"
       y1="524.79797"
       y2="527.79797" />
    <linearGradient
       gradientTransform="matrix(3.4584848,0,0,3.4584848,108.90875,95.747843)"
       id="e"
       gradientUnits="userSpaceOnUse"
       x1="10.00001"
       x2="21.00001"
       xlink:href="#b"
       y1="11.99997"
       y2="22.999969" />
    <linearGradient
       gradientTransform="matrix(3.4584848,0,0,3.4584848,3.7383746,71.066439)"
       id="f"
       gradientUnits="userSpaceOnUse"
       x2="0"
       y1="23"
       y2="8">
      <stop
         offset="0"
         stop-color="#8cbdf8"
         id="stop911" />
      <stop
         offset="1"
         stop-color="#d5e8ff"
         id="stop913" />
    </linearGradient>
    <linearGradient
       gradientTransform="matrix(3.4584848,0,0,3.4584848,-1207.2827,-1886.169)"
       y2="517.79797"
       x2="0"
       y1="545.79797"
       gradientUnits="userSpaceOnUse"
       id="linearGradient970"
       xlink:href="#c"
       inkscape:collect="always" />
    <marker
       inkscape:isstock="true"
       style="overflow:visible"
       id="marker1514"
       refX="0"
       refY="0"
       orient="auto"
       inkscape:stockid="DotM">
      <path
         inkscape:connector-curvature="0"
         transform="matrix(0.4,0,0,0.4,2.96,0.4)"
         style="fill:#ffffff;fill-opacity:1;fill-rule:evenodd;stroke:#ffffff;stroke-width:1pt;stroke-opacity:1"
         d="m -2.5,-1 c 0,2.76 -2.24,5 -5,5 -2.76,0 -5,-2.24 -5,-5 0,-2.76 2.24,-5 5,-5 2.76,0 5,2.24 5,5 z"
         id="path1512" />
    </marker>
    <marker
       inkscape:isstock="true"
       style="overflow:visible"
       id="marker1468"
       refX="0"
       refY="0"
       orient="auto"
       inkscape:stockid="DotM">
      <path
         inkscape:connector-curvature="0"
         transform="matrix(0.4,0,0,0.4,2.96,0.4)"
         style="fill:#000000;fill-opacity:1;fill-rule:evenodd;stroke:#000000;stroke-width:1pt;stroke-opacity:1"
         d="m -2.5,-1 c 0,2.76 -2.24,5 -5,5 -2.76,0 -5,-2.24 -5,-5 0,-2.76 2.24,-5 5,-5 2.76,0 5,2.24 5,5 z"
         id="path1466" />
    </marker>
    <marker
       inkscape:isstock="true"
       style="overflow:visible"
       id="marker1428"
       refX="0"
       refY="0"
       orient="auto"
       inkscape:stockid="DotM">
      <path
         inkscape:connector-curvature="0"
         transform="matrix(0.4,0,0,0.4,2.96,0.4)"
         style="fill:#000000;fill-opacity:1;fill-rule:evenodd;stroke:#000000;stroke-width:1pt;stroke-opacity:1"
         d="m -2.5,-1 c 0,2.76 -2.24,5 -5,5 -2.76,0 -5,-2.24 -5,-5 0,-2.76 2.24,-5 5,-5 2.76,0 5,2.24 5,5 z"
         id="path1426" />
    </marker>
    <marker
       inkscape:isstock="true"
       style="overflow:visible"
       id="marker1394"
       refX="0"
       refY="0"
       orient="auto"
       inkscape:stockid="DotM">
      <path
         inkscape:connector-curvature="0"
         transform="matrix(0.4,0,0,0.4,2.96,0.4)"
         style="fill:#000000;fill-opacity:1;fill-rule:evenodd;stroke:#000000;stroke-width:1pt;stroke-opacity:1"
         d="m -2.5,-1 c 0,2.76 -2.24,5 -5,5 -2.76,0 -5,-2.24 -5,-5 0,-2.76 2.24,-5 5,-5 2.76,0 5,2.24 5,5 z"
         id="path1392" />
    </marker>
    <marker
       inkscape:stockid="DotL"
       orient="auto"
       refY="0"
       refX="0"
       id="marker1246"
       style="overflow:visible"
       inkscape:isstock="true">
      <path
         inkscape:connector-curvature="0"
         id="path1244"
         d="m -2.5,-1 c 0,2.76 -2.24,5 -5,5 -2.76,0 -5,-2.24 -5,-5 0,-2.76 2.24,-5 5,-5 2.76,0 5,2.24 5,5 z"
         style="fill:#000000;fill-opacity:1;fill-rule:evenodd;stroke:#000000;stroke-width:1pt;stroke-opacity:1"
         transform="matrix(0.8,0,0,0.8,5.92,0.8)" />
    </marker>
  </defs>
  <sodipodi:namedview
     id="base"
     pagecolor="#ffffff"
     bordercolor="#666666"
     borderopacity="1.0"
     inkscape:pageopacity="0.0"
     inkscape:pageshadow="2"
     inkscape:zoom="1.979899"
     inkscape:cx="339.23782"
     inkscape:cy="58.218392"
     inkscape:document-units="mm"
     inkscape:current-layer="layer1"
     inkscape:document-rotation="0"
     showgrid="false"
     inkscape:snap-global="true"
     inkscape:window-width="2560"
     inkscape:window-height="1363"
     inkscape:window-x="0"
     inkscape:window-y="0"
     inkscape:window-maximized="1"
     showguides="false" />
  <metadata
     id="metadata5">
    <rdf:RDF>
      <cc:Work
         rdf:about="">
        <dc:format>image/svg+xml</dc:format>
        <dc:type
           rdf:resource="http://purl.org/dc/dcmitype/StillImage" />
        <dc:title></dc:title>
      </cc:Work>
    </rdf:RDF>
  </metadata>
  <g
     inkscape:label="Ebene 1"
     inkscape:groupmode="layer"
     id="layer1"
     transform="translate(-47.03626,-18.43701)">
    <circle
       style="fill:url(#linearGradient970);stroke-width:13.8339"
       r="0"
       cx="178.08728"
       cy="-46.953995"
       id="ellipse926" />
    <g
       id="g2197"
       transform="matrix(0.29941849,0,0,0.29941849,-89.538038,-132.58807)" />
    <path
       inkscape:transform-center-y="-1.2355071e-06"
       inkscape:randomized="0"
       inkscape:rounded="0"
       inkscape:flatsided="true"
       sodipodi:arg2="1.5707963"
       sodipodi:arg1="1.0471976"
       sodipodi:r2="8.2303886"
       sodipodi:r1="9.5036345"
       sodipodi:cy="44.186508"
       sodipodi:cx="56.539894"
       sodipodi:sides="6"
       id="path1471"
       style="fill:#e6e6e6;fill-opacity:1;stroke:none;stroke-width:0.956;stroke-miterlimit:4;stroke-dasharray:none;stroke-opacity:1"
       sodipodi:type="star"
       d="m 61.291711,52.416897 -9.503635,0 -4.751816,-8.230389 4.751817,-8.230389 9.503635,10e-7 4.751817,8.230389 z" />
    <path
       inkscape:transform-center-y="-1.2355071e-06"
       inkscape:randomized="0"
       inkscape:rounded="0"
       inkscape:flatsided="true"
       sodipodi:arg2="1.5707963"
       sodipodi:arg1="1.0471976"
       sodipodi:r2="8.2303886"
       sodipodi:r1="9.5036345"
       sodipodi:cy="52.946064"
       sodipodi:cx="71.324516"
       sodipodi:sides="6"
       id="path1473"
       style="fill:#e6e6e6;fill-opacity:1;stroke:none;stroke-width:0.956;stroke-miterlimit:4;stroke-dasharray:none;stroke-opacity:1"
       sodipodi:type="star"
       d="m 76.076333,61.176453 -9.503634,0 -4.751817,-8.230389 4.751817,-8.230389 9.503635,0 4.751817,8.230389 z" />
    <path
       inkscape:transform-center-y="-1.2355071e-06"
       inkscape:randomized="0"
       inkscape:rounded="0"
       inkscape:flatsided="true"
       sodipodi:arg2="1.5707963"
       sodipodi:arg1="1.0471976"
       sodipodi:r2="8.2303886"
       sodipodi:r1="9.5036345"
       sodipodi:cy="35.426952"
       sodipodi:cx="71.324516"
       sodipodi:sides="6"
       id="path1475"
       style="fill:#e6e6e6;fill-opacity:1;stroke:none;stroke-width:0.956;stroke-miterlimit:4;stroke-dasharray:none;stroke-opacity:1"
       sodipodi:type="star"
       d="m 76.076333,43.657341 -9.503634,0 -4.751817,-8.230389 4.751817,-8.230389 9.503635,10e-7 4.751817,8.230389 z" />
    <path
       inkscape:transform-center-y="-1.2355071e-06"
       inkscape:randomized="0"
       inkscape:rounded="0"
       inkscape:flatsided="true"
       sodipodi:arg2="1.5707963"
       sodipodi:arg1="1.0471976"
       sodipodi:r2="8.2303886"
       sodipodi:r1="9.5036345"
       sodipodi:cy="44.186508"
       sodipodi:cx="86.109138"
       sodipodi:sides="6"
       id="path1477"
       style="fill:#e6e6e6;fill-opacity:1;stroke:none;stroke-width:0.956;stroke-miterlimit:4;stroke-dasharray:none;stroke-opacity:1"
       sodipodi:type="star"
       d="m 90.860955,52.416897 -9.503634,0 -4.751817,-8.230389 4.751818,-8.230389 9.503634,10e-7 4.751817,8.230389 z" />
    <path
       inkscape:transform-center-y="-1.2355071e-06"
       inkscape:randomized="0"
       inkscape:rounded="0"
       inkscape:flatsided="true"
       sodipodi:arg2="1.5707963"
       sodipodi:arg1="1.0471976"
       sodipodi:r2="8.2303886"
       sodipodi:r1="9.5036345"
       sodipodi:cy="26.667399"
       sodipodi:cx="86.109138"
       sodipodi:sides="6"
       id="path1479"
       style="fill:#e6e6e6;fill-opacity:1;stroke:none;stroke-width:0.956;stroke-miterlimit:4;stroke-dasharray:none;stroke-opacity:1"
       sodipodi:type="star"
       d="m 90.860955,34.897788 -9.503635,0 -4.751816,-8.23039 4.751817,-8.230388 9.503635,0 4.751816,8.230389 z" />
    <path
       inkscape:transform-center-y="-1.2355071e-06"
       inkscape:randomized="0"
       inkscape:rounded="0"
       inkscape:flatsided="true"
       sodipodi:arg2="1.5707963"
       sodipodi:arg1="1.0471976"
       sodipodi:r2="8.2303886"
       sodipodi:r1="9.5036345"
       sodipodi:cy="52.946064"
       sodipodi:cx="100.89376"
       sodipodi:sides="6"
       id="path1481"
       style="fill:#e6e6e6;fill-opacity:1;stroke:none;stroke-width:0.956;stroke-miterlimit:4;stroke-dasharray:none;stroke-opacity:1"
       sodipodi:type="star"
       d="m 105.64558,61.176453 -9.503637,0 -4.751817,-8.230389 4.751818,-8.230389 9.503636,0 4.75182,8.230389 z" />
    <path
       inkscape:transform-center-y="-1.2355071e-06"
       inkscape:randomized="0"
       inkscape:rounded="0"
       inkscape:flatsided="true"
       sodipodi:arg2="1.5707963"
       sodipodi:arg1="1.0471976"
       sodipodi:r2="8.2303886"
       sodipodi:r1="9.5036345"
       sodipodi:cy="35.426956"
       sodipodi:cx="100.89376"
       sodipodi:sides="6"
       id="path1483"
       style="fill:#e6e6e6;fill-opacity:1;stroke:none;stroke-width:0.956;stroke-miterlimit:4;stroke-dasharray:none;stroke-opacity:1"
       sodipodi:type="star"
       d="m 105.64558,43.657345 -9.503637,0 -4.751817,-8.230389 4.751818,-8.230389 9.503636,10e-7 4.75182,8.230389 z" />
    <path
       inkscape:transform-center-y="-1.2355071e-06"
       inkscape:randomized="0"
       inkscape:rounded="0"
       inkscape:flatsided="true"
       sodipodi:arg2="1.5707963"
       sodipodi:arg1="1.0471976"
       sodipodi:r2="8.2303886"
       sodipodi:r1="9.5036345"
       sodipodi:cy="44.233753"
       sodipodi:cx="115.70201"
       sodipodi:sides="6"
       id="path1485"
       style="fill:#e6e6e6;fill-opacity:1;stroke:none;stroke-width:0.956;stroke-miterlimit:4;stroke-dasharray:none;stroke-opacity:1"
       sodipodi:type="star"
       d="m 120.45383,52.464142 -9.50364,0 -4.75181,-8.230389 4.75181,-8.230389 9.50364,1e-6 4.75182,8.230389 z" />
    <path
       id="path887-9"
       style="fill:#0e425a;stroke-width:0.0933762;stroke-linecap:square"
       d="m 55.164798,38.051756 a 0.80163474,0.80163474 0 0 0 -0.801597,0.801674 0.80163474,0.80163474 0 0 0 0.801597,0.801597 0.80163474,0.80163474 0 0 0 0.801674,-0.801597 0.80163474,0.80163474 0 0 0 -0.801674,-0.801674 z m 3.94209,2.209841 a 0.80163474,0.80163474 0 0 0 -0.801674,0.801673 0.80163474,0.80163474 0 0 0 0.801674,0.801598 0.80163474,0.80163474 0 0 0 0.801597,-0.801598 0.80163474,0.80163474 0 0 0 -0.801597,-0.801673 z m -2.760187,1.525183 c -0.09353,1.16e-4 -0.183821,0.01277 -0.266107,0.04053 -0.329737,0.111257 -0.681137,0.38924 -0.692046,0.73707 -0.01729,0.551426 0.193027,1.101246 0.09881,1.62666 -0.0072,0.04009 -0.01745,0.07908 -0.02979,0.117397 -0.09084,0.01754 -0.696554,0.13691 -1.000436,0.266641 -0.323338,0.138039 -0.651023,0.301696 -0.899949,0.549965 -0.174776,0.174314 -0.433193,0.307755 -0.378401,0.548441 0.06501,0.285564 0.447869,0.442087 0.738822,0.475534 0.171334,0.01971 0.309932,-0.131024 0.47782,-0.09157 0.06099,0.01432 0.125544,0.07964 0.176821,0.143989 -0.02682,0.09356 -0.04919,0.188683 -0.06514,0.286064 l 0.250185,3.46e-4 c 0.0086,-0.109054 0.03549,-0.229213 0.07184,-0.353339 0.03474,0.04662 0.120224,0.152679 0.192667,0.168901 0.0686,0.01536 0.2467,0.06786 0.201428,-0.0627 -0.07351,-0.180866 -0.135538,-0.350984 -0.265803,-0.479341 0.03864,-0.101768 0.07829,-0.20209 0.114884,-0.297039 0.108027,-0.280269 0.267587,-0.537982 0.395009,-0.809978 0.05665,-0.120919 0.130998,-0.23605 0.164251,-0.365374 0.01474,-0.05735 0.02764,-0.115655 0.03832,-0.174459 0.09145,0.100982 0.218567,0.178639 0.346861,0.220169 0.20064,0.06495 0.455553,-0.0523 0.633461,-0.165546 0.09874,-0.06285 0.227849,-0.134385 0.320198,-0.218416 0.04135,0.12806 0.09217,0.254141 0.138196,0.379696 0.165195,0.450667 0.478551,0.846806 0.589275,1.313852 0.06332,0.267078 0.09118,0.619374 0.0576,0.847842 l 0.932861,0.0014 c 0.05123,-0.141065 0.09318,-0.229628 0.08609,-0.349377 -0.01981,-0.334138 -0.213249,-0.636006 -0.353641,-0.939868 -0.05255,-0.113747 -0.115116,-0.221128 -0.181925,-0.325912 0.146162,-0.113712 0.574229,-0.452717 0.779808,-0.685189 0.182167,-0.205993 0.387391,-0.418935 0.461518,-0.683742 0.06838,-0.2443 0.06217,-0.526478 -0.03642,-0.760231 -0.05764,-0.136668 -0.227163,-0.433388 -0.318293,-0.424872 -0.01688,0.0016 -0.031,0.01362 -0.04129,0.03908 0,0 0.05579,0.352662 -0.01,0.50913 -0.112611,0.267919 -0.4393,0.387433 -0.610834,0.622035 -0.133521,0.18261 -0.142229,0.45658 -0.317226,0.599939 -0.07653,0.0627 -0.228702,0.100919 -0.343128,0.12235 -0.09431,-0.162782 -0.174527,-0.335581 -0.222759,-0.530463 -0.06791,-0.274392 -0.01807,-0.632051 -0.0742,-0.909092 -0.0534,-0.263502 -0.125573,-0.542164 -0.361642,-0.720919 -0.207701,-0.157276 -0.517129,-0.269953 -0.797712,-0.269612 z m 0.519112,0.897283 c 0.01993,1.92e-4 0.03876,0.0046 0.05439,0.01402 0.09112,0.05502 0.047,0.209334 0.04769,0.315779 0.0011,0.166222 -0.07008,0.328742 -0.07794,0.493741 -0.142561,-0.06823 -0.34078,-0.11531 -0.521245,-0.168592 0.05948,-0.111997 -0.09613,-0.301242 -0.03558,-0.42693 0.01993,-0.04138 0.06664,-0.09505 0.110693,-0.08205 0.100805,0.02974 0.02243,0.238262 0.11077,0.295209 0.05622,0.03624 0.153278,0.03432 0.200209,-0.01333 0.04794,-0.04868 0.02114,-0.137215 0.01051,-0.204703 -0.0076,-0.04832 -0.07286,-0.0928 -0.05218,-0.13713 0.02317,-0.04967 0.09288,-0.0866 0.152671,-0.08601 z m -0.960897,0.04556 c 0.01789,-10e-4 0.03492,0.0013 0.04982,0.0077 0.183598,0.07873 -0.0034,0.441178 0.115951,0.593162 -0.100432,0.02787 -0.199234,0.07866 -0.27106,0.132558 -0.03386,0.02541 -0.07482,0.05581 -0.11435,0.08944 -0.03398,-0.172233 -0.170439,-0.253476 -0.192591,-0.51317 -0.0058,-0.06813 0.117007,-0.131237 0.178421,-0.10117 0.09274,0.0454 -0.03039,0.162358 0.04769,0.22992 0.03607,0.03122 0.06534,0.0569 0.102847,0.02742 0.06723,-0.05283 0.08675,-0.11623 0.05561,-0.195866 -0.02724,-0.06967 -0.146405,-0.05366 -0.144748,-0.128445 0.0016,-0.07025 0.09485,-0.137192 0.172402,-0.141548 z m -1.659799,0.08464 a 0.80163474,0.80163474 0 0 0 -0.801674,0.801599 0.80163474,0.80163474 0 0 0 0.801674,0.801673 0.80163474,0.80163474 0 0 0 0.801598,-0.801673 0.80163474,0.80163474 0 0 0 -0.801598,-0.801599 z m 4.917613,0.01897 c 0.03196,-0.0085 0.0028,0.344669 -0.0982,0.441404 -0.306249,0.293187 -0.382121,0.840304 -0.564287,1.046298 -0.159906,0.180821 -0.361884,0.219276 -0.485896,0.22413 -0.06514,-0.09488 -0.129257,-0.190647 -0.188629,-0.289877 0.11604,-0.01978 0.292782,-0.05953 0.377182,-0.128673 0.174997,-0.143358 0.183629,-0.417328 0.31715,-0.599941 0.171535,-0.234602 0.531001,-0.342689 0.610912,-0.62211 0.01375,-0.04808 0.02439,-0.06927 0.03177,-0.07123 z m -1.831668,1.076618 c 0.0716,0.002 0.162727,0.05386 0.188858,0.111989 0.02557,0.05688 -0.01683,0.16313 -0.07885,0.169659 -0.103462,0.01089 -0.247103,-0.164058 -0.187639,-0.249423 0.01656,-0.02377 0.04509,-0.03314 0.07763,-0.03222 z m -2.147142,0.570534 c 0.07722,-5.8e-4 0.151662,0.0025 0.199828,0.005 -0.109329,0.21695 -0.270283,0.416559 -0.367887,0.639632 -0.0075,0.01714 -0.01533,0.03417 -0.02293,0.05127 -0.211241,0.175685 -0.514558,0.389841 -0.744765,0.394553 -0.168477,0.0034 -0.407924,-0.08441 -0.439424,-0.249957 -0.04059,-0.213293 0.234875,-0.376853 0.408265,-0.507531 0.21688,-0.163455 0.485237,-0.259808 0.750936,-0.316007 0.05745,-0.01215 0.137904,-0.01641 0.215979,-0.01699 z m 1.800586,0.38541 c -0.116938,-0.005 -0.234941,0.05363 -0.260546,0.117703 -0.0692,0.173168 0.325918,0.101557 0.481934,0.203713 0.07743,0.0507 0.06484,0.249986 0.138805,0.194343 0.145537,-0.109489 -0.08478,-0.404672 -0.247062,-0.487343 -0.03529,-0.01798 -0.07415,-0.02674 -0.113131,-0.02841 z m -1.050564,1.062449 c -0.02974,-0.004 -0.07222,0.07722 -0.131949,0.135073 -0.06434,0.06231 -0.09166,0.292039 -0.07055,0.465402 h 0.281802 c 0.0165,-0.126204 -0.01977,-0.307239 -0.03855,-0.477668 -0.0096,-0.08728 -0.02291,-0.120395 -0.04076,-0.122807 z" />
    <path
       id="path1506"
       style="opacity:1;fill:#0e425a;fill-opacity:1;stroke:none;stroke-width:0.0571671;stroke-linecap:square;stroke-miterlimit:4;stroke-dasharray:none"
       d="m 71.324518,47.885767 c -1.772637,-1e-6 -3.217739,1.5119 -3.217739,3.366467 0,1.076162 0.487158,2.036219 1.241992,2.653161 0.141352,-0.117544 0.272988,-0.269934 0.30057,-0.417628 0.02954,-0.158149 -0.0053,-0.315468 -0.100316,-0.414846 -0.419189,-0.487291 -0.688254,-1.10628 -0.688254,-1.820687 0,-1.428407 1.098446,-2.578023 2.463747,-2.578023 1.365301,0 2.464127,1.149616 2.464127,2.578023 0,0.73632 -0.267131,1.377656 -0.737082,1.846528 -0.0854,0.08935 -0.11274,0.325239 -0.07771,0.455793 0.03702,0.137972 0.181876,0.266116 0.316056,0.359287 0.760742,-0.616599 1.252345,-1.580527 1.252345,-2.661608 0,-1.854567 -1.445108,-3.366468 -3.217739,-3.366467 z m 0,1.379703 c -1.044297,-10e-7 -1.898991,0.8942 -1.898991,1.986764 0,0.433094 0.134671,0.834732 0.361845,1.162143 0.243772,0.347186 0.439577,0.591708 0.446485,1.000041 0,0.360039 -0.148603,0.680619 -0.385497,0.899461 l 0.720648,0.340204 c 0.261306,-0.340493 0.41846,-0.771728 0.41846,-1.239665 0,-0.04217 -0.0016,-0.08391 -0.0043,-0.125427 -0.017,-0.12746 -0.03126,-0.358693 -0.07733,-0.486504 -0.0697,-0.193399 -0.208076,-0.454952 -0.337621,-0.615311 -0.213446,-0.264213 -0.388728,-0.57114 -0.388728,-0.934942 0,-0.666404 0.508037,-1.19832 1.145001,-1.19832 0.636958,0 1.145377,0.531916 1.145377,1.19832 0,0.384198 -0.214348,0.720806 -0.451805,0.971914 -0.138972,0.146961 -0.238561,0.406297 -0.294017,0.585395 -0.03182,0.102754 -0.04855,0.263999 -0.05776,0.39626 0.0032,-5.93e-4 0.0065,-0.0011 0.0097,-0.0017 -0.007,0.06917 -0.01092,0.139266 -0.01092,0.210304 0,0.467106 0.156565,0.897664 0.417036,1.237877 l 0.720364,-0.340106 c -0.235711,-0.218802 -0.383408,-0.538677 -0.383408,-0.897771 -0.06179,-0.251167 0.263954,-0.770741 0.440976,-0.997656 0.228176,-0.327841 0.363458,-0.730385 0.363458,-1.164528 0,-1.092562 -0.854695,-1.986763 -1.898988,-1.986764 z m -0.01662,1.435658 c -0.32519,0 -0.588791,0.275785 -0.588791,0.616007 0,0.340221 0.263601,0.616106 0.588791,0.616105 0.325191,-10e-7 0.588793,-0.275884 0.588793,-0.616105 0,-0.340222 -0.263604,-0.616007 -0.588793,-0.616007 z" />
    <path
       d="m 68.582046,57.183906 q -0.31936,0 -0.502294,0.226343 -0.182935,0.226342 -0.182935,0.624768 0,0.417028 0.175183,0.630969 0.176734,0.21394 0.510046,0.21394 0.144178,0 0.279053,-0.0279 0.134876,-0.02946 0.280603,-0.07441 v 0.31781 q -0.26665,0.100769 -0.604614,0.100769 -0.497644,0 -0.764294,-0.300757 -0.266651,-0.302307 -0.266651,-0.863513 0,-0.353467 0.128675,-0.618567 0.130224,-0.2651 0.37517,-0.406177 0.244947,-0.141076 0.575159,-0.141076 0.347266,0 0.641821,0.145727 l -0.133325,0.308509 q -0.114722,-0.05426 -0.243396,-0.09457 -0.127124,-0.04186 -0.268201,-0.04186 z"
       style="font-style:normal;font-variant:normal;font-weight:600;font-stretch:normal;font-size:3.175px;line-height:1.25;font-family:'Open Sans';-inkscape-font-specification:'Open Sans Semi-Bold';letter-spacing:0px;word-spacing:0px;fill:#0e425a;fill-opacity:1;stroke:none;stroke-width:0.113093"
       id="path1598" />
    <path
       d="m 70.912137,59.16518 h -1.282092 v -2.266528 h 1.282092 v 0.313159 h -0.911572 v 0.617017 h 0.854211 v 0.310058 h -0.854211 v 0.711585 h 0.911572 z"
       style="font-style:normal;font-variant:normal;font-weight:600;font-stretch:normal;font-size:3.175px;line-height:1.25;font-family:'Open Sans';-inkscape-font-specification:'Open Sans Semi-Bold';letter-spacing:0px;word-spacing:0px;fill:#0e425a;fill-opacity:1;stroke:none;stroke-width:0.113093"
       id="path1600" />
    <path
       d="m 72.902713,57.583881 q 0,0.355017 -0.232544,0.544153 -0.232544,0.189136 -0.661975,0.189136 h -0.235645 v 0.84801 h -0.37052 v -2.266528 h 0.652674 q 0.42478,0 0.63562,0.173633 0.21239,0.173633 0.21239,0.511596 z m -1.130164,0.42168 h 0.196888 q 0.285253,0 0.418579,-0.09922 0.133325,-0.09922 0.133325,-0.310058 0,-0.195337 -0.119373,-0.291455 -0.119372,-0.09612 -0.37207,-0.09612 h -0.257349 z"
       style="font-style:normal;font-variant:normal;font-weight:600;font-stretch:normal;font-size:3.175px;line-height:1.25;font-family:'Open Sans';-inkscape-font-specification:'Open Sans Semi-Bold';letter-spacing:0px;word-spacing:0px;fill:#0e425a;fill-opacity:1;stroke:none;stroke-width:0.113093"
       id="path1602" />
    <path
       d="m 75.142886,59.16518 h -0.37207 v -1.021643 h -1.044898 v 1.021643 h -0.37052 v -2.266528 h 0.37052 v 0.927075 h 1.044898 v -0.927075 h 0.37207 z"
       style="font-style:normal;font-variant:normal;font-weight:600;font-stretch:normal;font-size:3.175px;line-height:1.25;font-family:'Open Sans';-inkscape-font-specification:'Open Sans Semi-Bold';letter-spacing:0px;word-spacing:0px;fill:#0e425a;fill-opacity:1;stroke:none;stroke-width:0.113093"
       id="path1604" />
    <path
       id="path1528"
       style="opacity:1;fill:#0e425a;fill-opacity:1;stroke:none;stroke-width:0.0352041;stroke-linecap:square;stroke-miterlimit:4;stroke-dasharray:none"
       d="m 71.254699,30.191126 a 3.6483225,3.6483225 0 0 0 -3.645947,3.648309 3.6483225,3.6483225 0 0 0 0.468499,1.788584 l -0.875493,0.682368 h 1.371151 a 3.6483225,3.6483225 0 0 0 2.684183,1.177389 3.6483225,3.6483225 0 0 0 2.684153,-1.177389 h 0.245693 l -0.11656,-0.148091 a 3.6483225,3.6483225 0 0 0 0.835025,-2.322861 3.6483225,3.6483225 0 0 0 -0.265607,-1.366492 l 0.807479,-0.627121 h -1.13478 a 3.6483225,3.6483225 0 0 0 -3.055403,-1.654696 3.6483225,3.6483225 0 0 0 -0.0024,0 z m 0.0016,0.308885 a 3.3394281,3.3394281 0 0 1 6.95e-4,0 3.3394281,3.3394281 0 0 1 2.679047,1.345811 H 73.051097 L 71.566163,33.017721 70.7095,31.845822 h -2.115086 l 1.691208,2.060892 -1.961826,1.529073 a 3.3394281,3.3394281 0 0 1 -0.406261,-1.596352 3.3394281,3.3394281 0 0 1 3.33869,-3.339424 z m 3.128937,2.170589 a 3.3394281,3.3394281 0 0 1 0.211252,1.168835 3.3394281,3.3394281 0 0 1 -0.722039,2.073915 l -1.390178,-1.76637 z m -3.182337,2.370544 0.861993,1.269243 h 1.438558 a 3.3394281,3.3394281 0 0 1 -2.246408,0.868505 3.3394281,3.3394281 0 0 1 -2.246421,-0.868505 h 0.591855 z" />
    <path
       d="m 70.323029,41.677074 h -0.426331 l -0.567407,-0.927075 -0.572058,0.927075 h -0.396875 l 0.751892,-1.175122 -0.703833,-1.091406 h 0.412378 l 0.523999,0.857312 0.523999,-0.857312 h 0.399975 l -0.708484,1.097608 z"
       style="font-style:normal;font-variant:normal;font-weight:600;font-stretch:normal;font-size:3.175px;line-height:1.25;font-family:'Open Sans';-inkscape-font-specification:'Open Sans Semi-Bold';letter-spacing:0px;word-spacing:0px;fill:#0e425a;fill-opacity:1;stroke:none;stroke-width:0.113093"
       id="path1591" />
    <path
       d="m 71.910529,41.677074 h -1.282093 v -2.266528 h 1.282093 v 0.313159 h -0.911573 v 0.617017 h 0.854212 v 0.310059 h -0.854212 v 0.711584 h 0.911573 z"
       style="font-style:normal;font-variant:normal;font-weight:600;font-stretch:normal;font-size:3.175px;line-height:1.25;font-family:'Open Sans';-inkscape-font-specification:'Open Sans Semi-Bold';letter-spacing:0px;word-spacing:0px;fill:#0e425a;fill-opacity:1;stroke:none;stroke-width:0.113093"
       id="path1593" />
    <path
       d="m 74.288678,41.677074 h -0.454236 l -1.114661,-1.806091 h -0.0124 l 0.0078,0.100769 q 0.0217,0.288355 0.0217,0.5271 v 1.178222 h -0.336414 v -2.266528 h 0.449585 l 1.11156,1.79679 h 0.0093 q -0.0031,-0.03566 -0.0124,-0.258899 -0.0093,-0.224793 -0.0093,-0.350366 v -1.187525 h 0.339514 z"
       style="font-style:normal;font-variant:normal;font-weight:600;font-stretch:normal;font-size:3.175px;line-height:1.25;font-family:'Open Sans';-inkscape-font-specification:'Open Sans Semi-Bold';letter-spacing:0px;word-spacing:0px;fill:#0e425a;fill-opacity:1;stroke:none;stroke-width:0.113093"
       id="path1595" />
    <path
       id="path1534"
       style="opacity:1;fill:#0e425a;fill-opacity:1;stroke:none;stroke-width:0.18704;stroke-linecap:square;stroke-miterlimit:4;stroke-dasharray:none"
       d="m 85.935587,38.300915 a 3.981296,3.981296 0 0 0 -3.963968,3.98126 3.981296,3.981296 0 0 0 3.981259,3.981424 3.981296,3.981296 0 0 0 1.981082,-0.528004 l 0.237645,0.601126 h 1.695507 l -0.738477,-1.653504 a 3.981296,3.981296 0 0 0 0.805674,-2.401042 3.981296,3.981296 0 0 0 -3.981431,-3.98126 3.981296,3.981296 0 0 0 -0.01732,0 z m -0.556162,0.695825 c 0.03137,-8.14e-4 0.06292,-7.69e-4 0.09454,0 0.421429,0.01014 0.860115,0.155949 1.205211,0.363803 0.263602,0.158764 0.308283,0.551229 0.521586,0.761699 0.325053,0.320744 0.801778,0.324903 1.150862,0.657285 -0.629385,-0.158655 -1.410464,-0.362691 -2.518959,-0.517954 1.12151,0.18112 1.984996,0.462962 2.637702,0.653166 0.0059,0.008 0.01239,0.01493 0.01831,0.02322 0,0 -0.990525,-0.166501 -1.458511,-0.03129 -0.612239,0.176888 -1.526481,0.421273 -1.568689,1.057156 -0.05356,0.806806 0.717574,3.003504 0.776852,3.846046 -0.349003,-0.781438 -1.594225,-2.384193 -2.432994,-3.197984 -0.07886,-0.429696 -0.05828,-1.442058 0.142956,-2.10723 0.153071,-0.506001 0.336073,-1.128828 0.80962,-1.363813 0.189462,-0.09402 0.401978,-0.138532 0.621551,-0.144105 z m 0.781625,0.679353 a 0.37003316,0.19611588 24.446217 0 0 -0.17638,0.08202 0.37003316,0.19611588 24.446217 0 0 0.255764,0.331689 0.37003316,0.19611588 24.446217 0 0 0.417986,-0.02536 0.37003316,0.19611588 24.446217 0 0 -0.255764,-0.33169 0.37003316,0.19611588 24.446217 0 0 -0.241606,-0.05665 z" />
    <path
       d="m 83.688356,49.29943 q 0,0.412378 -0.15813,0.694531 -0.156579,0.282154 -0.457336,0.396875 l 0.542602,0.584461 h -0.499194 l -0.427881,-0.508496 h -0.06046 q -0.513147,0 -0.7891,-0.303858 -0.274401,-0.305407 -0.274401,-0.866613 0,-0.561207 0.275952,-0.861963 0.277502,-0.300757 0.790649,-0.300757 0.505396,0 0.781348,0.305408 0.275952,0.305407 0.275951,0.860412 z m -1.730127,0 q 0,0.418579 0.168982,0.63562 0.168982,0.215491 0.500745,0.215491 0.330212,0 0.497644,-0.21394 0.168982,-0.213941 0.168982,-0.637171 0,-0.417029 -0.167432,-0.632519 -0.165881,-0.215491 -0.496094,-0.215491 -0.333313,0 -0.503845,0.215491 -0.168982,0.21549 -0.168982,0.632519 z"
       style="font-style:normal;font-variant:normal;font-weight:600;font-stretch:normal;font-size:3.175px;line-height:1.25;font-family:'Open Sans';-inkscape-font-specification:'Open Sans Semi-Bold';letter-spacing:0px;word-spacing:0px;fill:#0e425a;fill-opacity:1;stroke:none;stroke-width:0.113093"
       id="path1607" />
    <path
       d="m 85.45724,50.435795 h -1.282092 v -2.266528 h 1.282092 v 0.313159 h -0.911572 v 0.617016 h 0.854211 v 0.310059 h -0.854211 v 0.711584 h 0.911572 z"
       style="font-style:normal;font-variant:normal;font-weight:600;font-stretch:normal;font-size:3.175px;line-height:1.25;font-family:'Open Sans';-inkscape-font-specification:'Open Sans Semi-Bold';letter-spacing:0px;word-spacing:0px;fill:#0e425a;fill-opacity:1;stroke:none;stroke-width:0.113093"
       id="path1609" />
    <path
       d="m 86.926918,50.435795 -0.657324,-1.892908 h -0.0124 q 0.02635,0.42168 0.02635,0.79065 v 1.102258 h -0.336413 v -2.266528 h 0.522449 l 0.629419,1.80299 h 0.0093 l 0.648023,-1.80299 h 0.523999 v 2.266528 h -0.356568 v -1.120862 q 0,-0.168982 0.0078,-0.440283 0.0093,-0.271301 0.0155,-0.328662 h -0.0124 l -0.680578,1.889807 z"
       style="font-style:normal;font-variant:normal;font-weight:600;font-stretch:normal;font-size:3.175px;line-height:1.25;font-family:'Open Sans';-inkscape-font-specification:'Open Sans Semi-Bold';letter-spacing:0px;word-spacing:0px;fill:#0e425a;fill-opacity:1;stroke:none;stroke-width:0.113093"
       id="path1611" />
    <path
       d="m 90.653822,48.169267 v 1.466577 q 0,0.251147 -0.10852,0.440283 -0.10697,0.187585 -0.311609,0.289905 -0.203088,0.100769 -0.486792,0.100769 -0.42168,0 -0.655774,-0.223242 -0.234094,-0.223243 -0.234094,-0.613917 v -1.460375 h 0.37207 v 1.434021 q 0,0.280603 0.130225,0.413928 0.130224,0.133325 0.399975,0.133325 0.523999,0 0.523999,-0.550354 v -1.43092 z"
       style="font-style:normal;font-variant:normal;font-weight:600;font-stretch:normal;font-size:3.175px;line-height:1.25;font-family:'Open Sans';-inkscape-font-specification:'Open Sans Semi-Bold';letter-spacing:0px;word-spacing:0px;fill:#0e425a;fill-opacity:1;stroke:none;stroke-width:0.113093"
       id="path1613" />
    <path
       id="path1540"
       style="fill:#0e425a;fill-opacity:1;stroke:#ffffff;stroke-width:0;stroke-miterlimit:4;stroke-dasharray:none;stroke-opacity:1"
       d="m 86.114525,19.990346 a 0.53548535,0.53110318 0 0 0 -0.03328,7.91e-4 0.53548535,0.53110318 0 0 0 -0.205257,0.0519 l -2.800396,1.337916 a 0.53548535,0.53110318 0 0 0 -0.289678,0.360381 l -0.690794,3.005461 a 0.53548535,0.53110318 0 0 0 0.07266,0.407192 0.53548535,0.53110318 0 0 0 0.03037,0.0423 l 1.93842,2.409853 a 0.53548535,0.53110318 0 0 0 0.418551,0.199776 l 3.108289,-5.71e-4 a 0.53548535,0.53110318 0 0 0 0.418744,-0.199581 l 1.937443,-2.410245 a 0.53548535,0.53110318 0 0 0 0.103607,-0.449497 l -0.691963,-3.005455 a 0.53548535,0.53110318 0 0 0 -0.289673,-0.360186 l -2.800792,-1.337328 a 0.53548535,0.53110318 0 0 0 -0.226216,-0.05269 z m -0.0057,1.023562 h 3.91e-4 c 0.09257,-1.1e-5 0.167451,0.08342 0.167459,0.186262 5.3e-5,0.01458 8.8e-4,0.03411 3.96e-4,0.04759 -0.0022,0.05932 -0.01516,0.104777 -0.0229,0.159429 -0.01411,0.116972 -0.02629,0.21385 -0.01899,0.303973 0.0066,0.0451 0.03301,0.06295 0.05484,0.08383 4.39e-4,0.01215 0.0022,0.05249 0.004,0.07482 0.532927,0.04734 1.027875,0.291009 1.391387,0.67219 l 0.06365,-0.04544 c 0.02158,0.0013 0.06933,0.0078 0.101849,-0.01116 0.075,-0.05049 0.143163,-0.120517 0.225825,-0.204477 0.03789,-0.04016 0.06586,-0.07841 0.110855,-0.117124 0.01029,-0.0088 0.02576,-0.02071 0.03723,-0.02977 0.0804,-0.06414 0.192189,-0.05728 0.249913,0.01508 0.05773,0.07236 0.03925,0.183038 -0.04114,0.247174 -0.01134,0.0091 -0.0262,0.02179 -0.03701,0.02977 -0.04775,0.03526 -0.09167,0.05329 -0.139256,0.08128 -0.10024,0.06191 -0.183218,0.113205 -0.249132,0.175099 -0.03117,0.0333 -0.02905,0.06492 -0.03174,0.09499 -0.0093,0.0085 -0.04198,0.03749 -0.05935,0.05327 0.144465,0.215032 0.252863,0.459197 0.314157,0.726051 0.06072,0.264392 0.07015,0.528558 0.03508,0.782458 l 0.06757,0.01959 c 0.01218,0.01722 0.03728,0.05922 0.07247,0.07286 0.08624,0.02716 0.183275,0.03708 0.300447,0.04936 0.05502,0.0046 0.102477,0.0019 0.160804,0.01293 0.01393,0.0026 0.03442,0.0081 0.04877,0.01136 0.0988,0.02384 0.162232,0.114811 0.141805,0.204282 -0.0204,0.08949 -0.117036,0.143807 -0.216427,0.122411 -8.79e-4,-1.63e-4 -0.0018,-2.24e-4 -0.0026,-3.91e-4 -0.0013,-2.28e-4 -0.0022,-7.03e-4 -0.0035,-9.67e-4 -0.01385,-0.003 -0.03117,-0.0061 -0.0433,-0.0094 -0.05734,-0.01535 -0.09887,-0.03823 -0.150421,-0.05797 -0.110908,-0.03977 -0.202734,-0.07304 -0.292222,-0.08598 -0.04545,-0.0036 -0.06861,0.01804 -0.09382,0.03467 -0.01226,-0.0025 -0.05,-0.0089 -0.07168,-0.01234 -0.16061,0.504732 -0.502517,0.941733 -0.966176,1.215503 0.008,0.01932 0.02145,0.0603 0.02782,0.06757 -0.01059,0.02828 -0.02633,0.0554 -0.01275,0.09891 0.03253,0.08436 0.085,0.166904 0.148461,0.266173 0.03073,0.04586 0.06215,0.08109 0.0899,0.133576 0.0066,0.01256 0.01552,0.03178 0.02193,0.04505 0.04312,0.09216 0.01143,0.198307 -0.07129,0.238165 -0.08339,0.04017 -0.187064,-0.0023 -0.231698,-0.09499 -0.0064,-0.01312 -0.01534,-0.03049 -0.02075,-0.04289 -0.02374,-0.0544 -0.03204,-0.101134 -0.04877,-0.15375 -0.03807,-0.111506 -0.06929,-0.203808 -0.114969,-0.281841 -0.02554,-0.03776 -0.05686,-0.04256 -0.08559,-0.0519 -0.0053,-0.0092 -0.02514,-0.04551 -0.03583,-0.06444 -0.09259,0.03499 -0.188308,0.06424 -0.287523,0.08677 -0.434903,0.09875 -0.870232,0.05861 -1.259182,-0.09068 l -0.03798,0.06875 c -0.02826,0.0076 -0.05556,0.01531 -0.07227,0.03525 -0.06105,0.07283 -0.08531,0.189639 -0.129661,0.301036 -0.0167,0.05262 -0.02461,0.09935 -0.04837,0.15375 -0.0054,0.01231 -0.01437,0.02941 -0.02075,0.0425 -4.8e-5,10e-5 4.4e-5,2.89e-4 0,3.92e-4 -6.6e-5,1.31e-4 -3.25e-4,2.62e-4 -3.96e-4,3.92e-4 -0.04473,0.09235 -0.148038,0.134687 -0.231306,0.0946 -0.08275,-0.03984 -0.114372,-0.145996 -0.07129,-0.238165 0.0064,-0.01328 0.01473,-0.03268 0.02136,-0.04524 0.02774,-0.05249 0.05916,-0.0881 0.0899,-0.133967 0.06346,-0.09927 0.119273,-0.188274 0.151792,-0.272636 0.0082,-0.02802 -0.004,-0.06643 -0.0149,-0.0948 l 0.03037,-0.07306 c -0.446151,-0.264364 -0.798441,-0.685631 -0.966568,-1.206885 l -0.07305,0.01254 c -0.0196,-0.01096 -0.05899,-0.037 -0.09636,-0.03408 -0.08949,0.01295 -0.181323,0.04621 -0.292222,0.08598 -0.05155,0.01975 -0.09308,0.04223 -0.150421,0.05758 -0.01209,0.0033 -0.02941,0.0068 -0.0433,0.0098 -8.79e-4,2.66e-4 -0.0022,7.03e-4 -0.0031,9.67e-4 -8.79e-4,1.66e-4 -0.0018,2.27e-4 -0.0026,3.92e-4 -0.09938,0.02142 -0.195995,-0.03292 -0.216427,-0.122413 -0.02044,-0.08947 0.04321,-0.180411 0.141999,-0.204281 8.79e-4,-1.9e-4 0.0018,-4.11e-4 0.0026,-5.72e-4 8.79e-4,-1.09e-4 0.0013,-2.88e-4 0.0018,-3.91e-4 0.01402,-0.0033 0.03182,-0.008 0.04466,-0.01038 0.05832,-0.01104 0.105787,-0.0084 0.160799,-0.01293 0.117177,-0.01229 0.214406,-0.02219 0.300645,-0.04936 0.02734,-0.01122 0.05339,-0.04877 0.07188,-0.07266 l 0.07012,-0.02056 c -0.07866,-0.544693 0.05458,-1.079246 0.342166,-1.512034 l -0.05386,-0.04799 c -0.0035,-0.02091 -0.0078,-0.06932 -0.0335,-0.09675 -0.06591,-0.06189 -0.149084,-0.113192 -0.249329,-0.175099 -0.04758,-0.02799 -0.09131,-0.04602 -0.139058,-0.08128 -0.01015,-0.0075 -0.0236,-0.01886 -0.03468,-0.02781 -0.0013,-6.6e-4 -0.0018,-0.0013 -0.0026,-0.002 -0.08042,-0.06412 -0.09904,-0.174602 -0.04132,-0.246979 0.03244,-0.04071 0.08205,-0.06093 0.133577,-0.05915 0.04009,0.0014 0.08156,0.01602 0.116732,0.04407 0.01143,0.009 0.02717,0.02098 0.03741,0.02977 0.045,0.03871 0.07241,0.07696 0.110266,0.117123 0.08266,0.08395 0.15101,0.153595 0.226023,0.204086 0.03939,0.02294 0.06955,0.01364 0.0995,0.0096 0.0096,0.0071 0.04202,0.03046 0.06052,0.04309 0.285281,-0.302678 0.660038,-0.526957 1.095243,-0.62577 0.101146,-0.02297 0.20241,-0.03808 0.302997,-0.04642 l 0.004,-0.0709 c 0.02229,-0.02161 0.04736,-0.05278 0.05445,-0.08676 0.0073,-0.09012 -0.0045,-0.187001 -0.01859,-0.303974 -0.0078,-0.05465 -0.02066,-0.10011 -0.0229,-0.159429 -4.05e-4,-0.01217 5.7e-5,-0.02912 1.93e-4,-0.04309 -3e-5,-0.0016 -1.93e-4,-0.0029 -1.93e-4,-0.0045 -1.3e-5,-0.102847 0.07489,-0.186253 0.167459,-0.186262 z m -0.209763,1.299918 c -0.05941,0.0072 -0.118961,0.0174 -0.178624,0.03095 -0.326619,0.07416 -0.610045,0.235146 -0.83162,0.453023 l 0.720958,0.510996 0.0018,-7.91e-4 c 0.02444,0.01784 0.05441,0.0284 0.08697,0.0284 0.07948,0 0.144069,-0.06275 0.14748,-0.14141 l 0.0035,-0.0018 z m 0.420115,0 0.04955,0.877841 8.79e-4,3.92e-4 c 0.0013,0.03021 0.01183,0.06014 0.03213,0.08559 0.04955,0.06214 0.139133,0.07366 0.202713,0.02722 l 0.0026,0.0012 0.716259,-0.507864 C 87.053073,22.53357 86.700462,22.360744 86.319134,22.313846 Z m -1.692026,0.812424 c -0.195359,0.318258 -0.287968,0.700005 -0.245022,1.092699 l 0.843761,-0.243649 8.79e-4,-0.0027 c 0.02919,-0.008 0.05646,-0.02508 0.07678,-0.05053 0.04957,-0.06214 0.04079,-0.151846 -0.01859,-0.203498 l 8.79e-4,-0.0035 -0.658284,-0.588753 z m 2.95865,3.92e-4 -0.654561,0.585815 1.94e-4,0.0018 c -0.02281,0.01984 -0.03956,0.0468 -0.04681,0.07854 -0.01767,0.07748 0.02905,0.154736 0.104983,0.17549 l 4.39e-4,0.0035 0.848073,0.244237 c 0.01798,-0.182957 0.0071,-0.37227 -0.03644,-0.561921 -0.04408,-0.191893 -0.118271,-0.368959 -0.216032,-0.527449 z m -1.611924,0.633801 -0.168044,0.209177 0.06032,0.261473 0.242669,0.116732 0.242081,-0.116341 0.06033,-0.261472 -0.167656,-0.209569 z m 0.864526,0.717041 c -0.01903,9.67e-4 -0.03811,0.0059 -0.05641,0.01469 -0.07161,0.03449 -0.102798,0.119235 -0.07168,0.191551 l -0.0013,0.0014 0.338839,0.818497 c 0.326574,-0.208049 0.571095,-0.51898 0.698825,-0.877842 l -0.87275,-0.147678 -0.0018,0.002 c -0.01112,-0.002 -0.02251,-0.0031 -0.03389,-0.0025 z m -1.465811,0.0035 c -0.0095,-1.37e-4 -0.01921,7.91e-4 -0.02879,0.0025 l -0.0018,-0.0018 -0.865308,0.146698 c 0.133541,0.369467 0.383266,0.670655 0.696676,0.87177 l 0.335309,-0.810075 -0.0026,-0.0033 c 0.012,-0.02778 0.01547,-0.05914 0.0082,-0.09088 -0.01547,-0.06773 -0.07508,-0.113934 -0.141607,-0.11497 z m 0.730945,0.354897 c -0.05097,0.0019 -0.09925,0.03048 -0.124763,0.07815 h -8.79e-4 l -0.425408,0.76914 c 0.294451,0.100332 0.619593,0.122836 0.945807,0.04877 0.05821,-0.01321 0.11504,-0.02904 0.170395,-0.04759 l -0.426384,-0.770706 h -0.0035 c -0.01424,-0.02667 -0.03688,-0.04894 -0.0662,-0.06307 -0.02233,-0.01074 -0.04581,-0.01549 -0.06894,-0.01469 z" />
    <path
       d="M 82.805986,30.854141 H 82.42427 l -0.632519,-0.91226 -0.194304,0.158474 v 0.753786 h -0.329351 v -2.01469 h 0.329351 v 0.96187 q 0.135048,-0.165365 0.268718,-0.318327 l 0.544324,-0.643543 h 0.374826 q -0.527788,0.620117 -0.756542,0.883322 z"
       style="font-style:normal;font-variant:normal;font-weight:600;font-stretch:normal;font-size:2.82222px;line-height:1;font-family:'Open Sans';-inkscape-font-specification:'Open Sans Semi-Bold';text-align:center;letter-spacing:0px;word-spacing:0px;text-anchor:middle;fill:#0e425a;fill-opacity:1;stroke:none;stroke-width:0.113093"
       id="path1616" />
    <path
       d="m 84.651178,28.839451 v 1.303623 q 0,0.223242 -0.09646,0.391363 -0.09508,0.166742 -0.276985,0.257693 -0.180523,0.08957 -0.432704,0.08957 -0.374826,0 -0.58291,-0.198437 -0.208083,-0.198438 -0.208083,-0.545703 v -1.298111 h 0.330729 v 1.274684 q 0,0.249425 0.115755,0.367936 0.115755,0.118511 0.355533,0.118511 0.465777,0 0.465777,-0.489203 v -1.271928 z"
       style="font-style:normal;font-variant:normal;font-weight:600;font-stretch:normal;font-size:2.82222px;line-height:1;font-family:'Open Sans';-inkscape-font-specification:'Open Sans Semi-Bold';text-align:center;letter-spacing:0px;word-spacing:0px;text-anchor:middle;fill:#0e425a;fill-opacity:1;stroke:none;stroke-width:0.113093"
       id="path1618" />
    <path
       d="m 85.166564,28.839451 h 0.598068 q 0.416167,0 0.600824,0.121267 0.186035,0.121267 0.186035,0.383095 0,0.176388 -0.09095,0.293521 -0.09095,0.117134 -0.261827,0.14745 v 0.01378 q 0.212218,0.03996 0.311437,0.158474 0.100596,0.117133 0.100596,0.318327 0,0.271473 -0.190169,0.425813 -0.188791,0.152962 -0.52641,0.152962 h -0.727603 z m 0.32935,0.832334 h 0.316949 q 0.206706,0 0.30179,-0.06477 0.09508,-0.06615 0.09508,-0.223242 0,-0.141938 -0.103353,-0.205328 -0.101975,-0.06339 -0.325217,-0.06339 h -0.285254 z m 0,0.26734 v 0.638031 h 0.350022 q 0.206705,0 0.311436,-0.07855 0.106109,-0.07993 0.106109,-0.250803 0,-0.157096 -0.107487,-0.232888 -0.107487,-0.07579 -0.326595,-0.07579 z"
       style="font-style:normal;font-variant:normal;font-weight:600;font-stretch:normal;font-size:2.82222px;line-height:1;font-family:'Open Sans';-inkscape-font-specification:'Open Sans Semi-Bold';text-align:center;letter-spacing:0px;word-spacing:0px;text-anchor:middle;fill:#0e425a;fill-opacity:1;stroke:none;stroke-width:0.113093"
       id="path1620" />
    <path
       d="M 88.169306,30.854141 H 87.02967 v -2.01469 h 1.139636 v 0.278363 h -0.810285 v 0.548459 h 0.759298 v 0.275608 H 87.359021 V 30.5744 h 0.810285 z"
       style="font-style:normal;font-variant:normal;font-weight:600;font-stretch:normal;font-size:2.82222px;line-height:1;font-family:'Open Sans';-inkscape-font-specification:'Open Sans Semi-Bold';text-align:center;letter-spacing:0px;word-spacing:0px;text-anchor:middle;fill:#0e425a;fill-opacity:1;stroke:none;stroke-width:0.113093"
       id="path1622" />
    <path
       d="m 88.934117,29.776516 h 0.228754 q 0.230133,0 0.333485,-0.08544 0.103353,-0.08544 0.103353,-0.253559 0,-0.170877 -0.111621,-0.245291 -0.111621,-0.07441 -0.336241,-0.07441 h -0.21773 z m 0,0.272852 v 0.804773 h -0.329351 v -2.01469 h 0.56913 q 0.389984,0 0.577397,0.146072 0.187413,0.146072 0.187413,0.440972 0,0.376204 -0.391362,0.536056 l 0.569129,0.89159 h -0.374826 l -0.482313,-0.804773 z"
       style="font-style:normal;font-variant:normal;font-weight:600;font-stretch:normal;font-size:2.82222px;line-height:1;font-family:'Open Sans';-inkscape-font-specification:'Open Sans Semi-Bold';text-align:center;letter-spacing:0px;word-spacing:0px;text-anchor:middle;fill:#0e425a;fill-opacity:1;stroke:none;stroke-width:0.113093"
       id="path1624" />
    <path
       d="m 90.241874,30.235403 v -0.275608 h 0.708311 v 0.275608 z"
       style="font-style:normal;font-variant:normal;font-weight:600;font-stretch:normal;font-size:2.82222px;line-height:1;font-family:'Open Sans';-inkscape-font-specification:'Open Sans Semi-Bold';text-align:center;letter-spacing:0px;word-spacing:0px;text-anchor:middle;fill:#0e425a;fill-opacity:1;stroke:none;stroke-width:0.113093"
       id="path1626" />
    <path
       d="m 83.716179,33.770825 h -0.403764 l -0.990809,-1.605413 h -0.01102 l 0.0069,0.08957 q 0.01929,0.256315 0.01929,0.468533 v 1.047308 H 82.03773 v -2.01469 h 0.399631 l 0.988053,1.597145 h 0.0083 q -0.0028,-0.03169 -0.01102,-0.230132 -0.0083,-0.199816 -0.0083,-0.311437 v -1.055576 h 0.30179 z"
       style="font-style:normal;font-variant:normal;font-weight:600;font-stretch:normal;font-size:2.82222px;line-height:1;font-family:'Open Sans';-inkscape-font-specification:'Open Sans Semi-Bold';text-align:center;letter-spacing:0px;word-spacing:0px;text-anchor:middle;fill:#0e425a;fill-opacity:1;stroke:none;stroke-width:0.113093"
       id="path1628" />
    <path
       d="m 85.387738,33.770825 h -1.139636 v -2.01469 h 1.139636 v 0.278363 h -0.810285 v 0.548459 h 0.759298 v 0.275608 h -0.759298 v 0.632519 h 0.810285 z"
       style="font-style:normal;font-variant:normal;font-weight:600;font-stretch:normal;font-size:2.82222px;line-height:1;font-family:'Open Sans';-inkscape-font-specification:'Open Sans Semi-Bold';text-align:center;letter-spacing:0px;word-spacing:0px;text-anchor:middle;fill:#0e425a;fill-opacity:1;stroke:none;stroke-width:0.113093"
       id="path1630" />
    <path
       d="M 86.519107,33.770825 H 86.189756 V 32.038633 H 85.5972 v -0.282498 h 1.514463 v 0.282498 h -0.592556 z"
       style="font-style:normal;font-variant:normal;font-weight:600;font-stretch:normal;font-size:2.82222px;line-height:1;font-family:'Open Sans';-inkscape-font-specification:'Open Sans Semi-Bold';text-align:center;letter-spacing:0px;word-spacing:0px;text-anchor:middle;fill:#0e425a;fill-opacity:1;stroke:none;stroke-width:0.113093"
       id="path1632" />
    <path
       d="m 88.55998,33.770825 h -1.139637 v -2.01469 h 1.139637 v 0.278363 h -0.810286 v 0.548459 h 0.759299 v 0.275608 h -0.759299 v 0.632519 h 0.810286 z"
       style="font-style:normal;font-variant:normal;font-weight:600;font-stretch:normal;font-size:2.82222px;line-height:1;font-family:'Open Sans';-inkscape-font-specification:'Open Sans Semi-Bold';text-align:center;letter-spacing:0px;word-spacing:0px;text-anchor:middle;fill:#0e425a;fill-opacity:1;stroke:none;stroke-width:0.113093"
       id="path1634" />
    <path
       d="m 90.157125,33.223744 q 0,0.268718 -0.194303,0.42168 -0.194304,0.152962 -0.536057,0.152962 -0.341753,0 -0.559483,-0.106109 v -0.311436 q 0.137804,0.06477 0.292144,0.101974 0.155718,0.03721 0.289388,0.03721 0.195681,0 0.28801,-0.07441 0.09371,-0.07441 0.09371,-0.199815 0,-0.112999 -0.08544,-0.191547 -0.08544,-0.07855 -0.352778,-0.186035 -0.275607,-0.111621 -0.388606,-0.254937 -0.112999,-0.143316 -0.112999,-0.344509 0,-0.252181 0.179145,-0.396875 0.179144,-0.144694 0.480934,-0.144694 0.289388,0 0.57602,0.12678 L 90.022079,32.1227 q -0.268717,-0.112999 -0.479557,-0.112999 -0.159852,0 -0.242534,0.07028 -0.08268,0.0689 -0.08268,0.183279 0,0.07855 0.03307,0.135047 0.03307,0.05512 0.108865,0.104731 0.07579,0.04961 0.272852,0.130914 0.221864,0.09233 0.325216,0.172254 0.103353,0.07993 0.151585,0.180523 0.04823,0.100597 0.04823,0.237022 z"
       style="font-style:normal;font-variant:normal;font-weight:600;font-stretch:normal;font-size:2.82222px;line-height:1;font-family:'Open Sans';-inkscape-font-specification:'Open Sans Semi-Bold';text-align:center;letter-spacing:0px;word-spacing:0px;text-anchor:middle;fill:#0e425a;fill-opacity:1;stroke:none;stroke-width:0.113093"
       id="path1636" />
    <path
       id="path1548"
       style="fill:#0e425a;fill-opacity:1;stroke-width:0.0160194"
       d="m 100.76555,29.60064 c -0.002,-1.19e-4 -0.004,1.72e-4 -0.005,8.19e-4 -0.0377,0.0099 -1.525906,0.872552 -1.556067,0.902028 -0.0127,0.01241 -0.01933,0.02633 -0.01467,0.03096 0.0046,0.0046 0.357369,0.210232 0.783842,0.456908 0.426465,0.246681 0.784555,0.44854 0.795635,0.44854 0.016,0 0.0202,-0.191289 0.0202,-0.923004 0,-0.8264 -8.6e-4,-0.914266 -0.024,-0.916072 z m 0.23296,0.0045 c -0.0189,0.01171 -0.0243,1.805561 -0.005,1.824406 v 9e-5 c 0.006,0.0062 0.0223,0.0068 0.036,0.0016 0.0748,-0.02833 1.55473,-0.89508 1.55473,-0.910581 0,-0.0251 -1.56425,-0.928601 -1.58525,-0.915624 z m -1.901361,1.113744 c -0.0179,0 -0.02162,0.155597 -0.02162,0.90248 0,0.496338 0.0047,0.907234 0.01061,0.913103 0.0059,0.0059 0.01183,0.0106 0.01339,0.0106 0.01204,0 1.526441,-0.886815 1.543471,-0.90383 0.0188,-0.01875 0.0164,-0.02568 -0.0158,-0.04591 -0.17349,-0.10898 -1.513275,-0.87647 -1.530049,-0.87647 z m -0.253662,0.0032 c -0.0016,-1.43e-4 -0.0028,9.4e-5 -0.0048,4.09e-4 -0.0235,0.0062 -1.397723,0.793389 -1.523215,0.872597 -0.0326,0.02056 -0.03473,0.02702 -0.01531,0.04645 0.01241,0.01241 0.364268,0.220292 0.78195,0.461956 0.41769,0.241659 0.765271,0.43579 0.772318,0.431433 0.007,-0.0044 0.01278,-0.415598 0.01278,-0.913909 0,-0.807713 -0.0012,-0.896919 -0.02374,-0.89906 z m 3.831263,8.18e-4 c -0.003,-0.0012 -0.006,-8.18e-4 -0.0103,3.53e-4 -0.0251,0.0066 -1.37765,0.782275 -1.52033,0.871966 -0.0325,0.02043 -0.0347,0.02699 -0.0155,0.04627 0.0123,0.01236 0.36391,0.220434 0.78123,0.4624 0.41734,0.241964 0.76487,0.436144 0.77232,0.431529 0.008,-0.0046 0.0136,-0.416053 0.0136,-0.914364 0,-0.780571 -3.4e-4,-0.888736 -0.0212,-0.898159 z m 0.25033,9.1e-5 c -0.0206,0.01028 -0.0209,0.121782 -0.0209,0.906984 0,0.503233 0.006,0.91499 0.0124,0.91499 0.0296,0 1.56584,-0.896214 1.56958,-0.915621 0.005,-0.02048 -1.48032,-0.8877 -1.55095,-0.906173 -0.004,-0.0012 -0.007,-0.0016 -0.0101,-1.72e-4 z m -5.748565,1.095652 c -0.02199,4.1e-4 -0.02331,0.09521 -0.02331,0.910134 0,0.8674 0.0016,0.9194 0.02801,0.914003 0.0278,-0.0057 1.519842,-0.864342 1.549228,-0.891591 0.0096,-0.0089 0.0066,-0.02248 -0.0081,-0.03644 -0.02522,-0.02412 -1.494968,-0.877683 -1.541219,-0.8951 -0.0016,-8.19e-4 -0.0032,-0.0012 -0.0046,-0.0012 z m 3.842615,0.0069 c -0.008,0.0012 -0.0172,0.0076 -0.0229,0.01667 -0.0223,0.03522 -0.0183,1.765767 0.005,1.788222 0.0102,0.01023 0.0264,0.01364 0.0361,0.0077 0.01,-0.006 0.35624,-0.206704 0.77035,-0.446021 0.4141,-0.239317 0.75469,-0.44498 0.75683,-0.457 0.003,-0.01364 -0.2825,-0.18739 -0.75836,-0.462401 -0.41926,-0.242299 -0.7697,-0.443194 -0.77872,-0.446471 -0.002,-8.19e-4 -0.005,-0.0012 -0.008,-8.19e-4 z m 3.58157,0.0012 c -0.008,-0.0012 -0.0164,8.2e-4 -0.0278,0.0063 -0.0174,0.0083 -0.37121,0.209665 -0.7861,0.447552 -0.47998,0.275212 -0.75283,0.440608 -0.75034,0.454751 0.002,0.01225 0.35355,0.222646 0.78086,0.467624 0.42732,0.244971 0.7816,0.445856 0.78727,0.44638 0.006,4.09e-4 0.0147,-0.01044 0.02,-0.02441 0.0158,-0.04128 0.0107,-1.758548 -0.005,-1.783898 -0.005,-0.0083 -0.0112,-0.01302 -0.0185,-0.01433 z m -3.83245,0.0041 c -0.0282,-0.01085 -1.556608,0.875964 -1.556608,0.903201 0,0.01147 0.346078,0.221646 0.768993,0.467081 0.422915,0.245436 0.776105,0.444509 0.784915,0.442331 0.0103,-0.0025 0.0175,-0.320725 0.0202,-0.904101 0.004,-0.743435 3.5e-4,-0.901669 -0.0175,-0.908512 z m 1.9138,1.082597 c -0.006,5.7e-5 -0.35977,0.202019 -0.78709,0.448899 -0.53148,0.30706 -0.777,0.457319 -0.777,0.475457 0,0.01811 0.24361,0.167693 0.76881,0.472123 0.42284,0.245099 0.77711,0.44566 0.78726,0.44566 0.0101,0 0.0228,-0.01147 0.0282,-0.02538 0.0127,-0.03296 0.0122,-1.733573 -3.5e-4,-1.780835 -0.005,-0.01982 -0.0142,-0.03596 -0.0198,-0.03591 z m -3.588595,0.0057 c -0.01101,8.19e-4 -0.01843,0.01003 -0.02358,0.02936 -0.0129,0.0479 -0.01343,1.748388 -8.2e-4,1.781739 h 9.5e-5 c 0.0054,0.01393 0.01868,0.02538 0.02969,0.02538 0.0357,0 1.55429,-0.89166 1.55895,-0.915355 0.003,-0.01523 -0.25294,-0.172008 -0.76089,-0.466 -0.42099,-0.24367 -0.777134,-0.447445 -0.791402,-0.452863 -0.0045,-0.0016 -0.0085,-0.0025 -0.01225,-0.0021 z m -0.242949,0.01016 c -0.01356,0 -1.400349,0.791832 -1.535006,0.876467 -0.0326,0.02048 -0.03473,0.02695 -0.01532,0.04636 0.01241,0.01241 0.364269,0.220287 0.781955,0.46195 0.417685,0.241665 0.765267,0.435886 0.772319,0.431529 0.02011,-0.01241 0.01617,-1.816303 -0.0041,-1.816303 z m 4.071334,0 c -0.0128,0 -0.0176,0.25772 -0.0176,0.913193 0,0.546887 0.006,0.913102 0.0148,0.913102 0.0308,0 1.56328,-0.895584 1.56724,-0.915896 0.005,-0.02048 -1.52519,-0.910399 -1.56435,-0.910399 z m -5.768635,1.088809 v 0.921382 c 0,0.726691 0.0042,0.921285 0.01998,0.920937 0.03771,-8.2e-4 1.557869,-0.892692 1.557869,-0.913913 0,-0.01769 -1.259127,-0.762945 -1.50179,-0.888887 z m 3.842605,0.0098 c -0.008,0.0048 -0.0139,0.4181 -0.0139,0.920843 0,0.858247 0.002,0.912184 0.028,0.911664 0.0452,-8.19e-4 1.56588,-0.887855 1.56588,-0.913373 0,-0.03055 -1.55447,-0.93488 -1.57993,-0.919134 z m -0.21999,1.73e-4 c -0.0206,-0.0127 -1.580199,0.894019 -1.580199,0.918683 0,0.01167 0.346074,0.221774 0.768992,0.466901 0.422917,0.245133 0.781487,0.446124 0.796887,0.446472 0.0265,8.19e-4 0.0281,-0.05305 0.0281,-0.911391 0,-0.50169 -0.006,-0.915976 -0.0138,-0.920665 z m 3.82424,0.0083 c -0.008,-4.1e-4 -0.0175,0.0037 -0.0328,0.0118 -0.35098,0.189557 -1.52691,0.882029 -1.52691,0.89915 0,0.01335 0.32268,0.207682 0.777,0.467987 0.42731,0.244834 0.78159,0.445267 0.78727,0.44539 0.006,1.22e-4 0.0146,-0.01118 0.02,-0.0251 0.0159,-0.04168 0.0107,-1.75856 -0.005,-1.784168 -0.006,-0.0096 -0.0114,-0.01458 -0.019,-0.01504 z m -5.746851,1.103663 c -0.02879,0 -1.563906,0.894166 -1.563906,0.910943 0,0.0096 0.346078,0.218908 0.768994,0.465101 0.422911,0.246196 0.777961,0.448201 0.788969,0.448899 0.01581,0.0012 0.01999,-0.191354 0.01999,-0.911841 0,-0.513754 -0.0061,-0.913102 -0.01405,-0.913102 z m 4.072951,0.0028 c -0.0184,-0.0044 -0.022,0.142418 -0.022,0.911035 0,0.864861 0.002,0.915714 0.028,0.908241 0.062,-0.01753 1.55011,-0.889563 1.55373,-0.910493 0.003,-0.0145 -0.27026,-0.179184 -0.76692,-0.463033 -0.42396,-0.242294 -0.78074,-0.442892 -0.79284,-0.44575 z m -3.835674,0.0037 c -0.0054,1.76e-4 -0.0087,0.0021 -0.01098,0.005 -0.02633,0.03485 -0.02933,1.751307 -0.0032,1.800187 0.0167,0.03125 0.01741,0.03121 0.07607,-0.0021 0.498339,-0.280878 1.501724,-0.878763 1.505124,-0.896901 0.004,-0.01651 -0.23897,-0.164761 -0.776736,-0.475903 -0.610775,-0.353388 -0.752459,-0.432232 -0.790319,-0.430537 z m 3.590304,8.18e-4 c -0.0388,-8.18e-4 -0.18394,0.0799 -0.79033,0.430177 -0.54214,0.313157 -0.77994,0.458662 -0.77673,0.475362 0.003,0.01327 0.35421,0.22752 0.78141,0.476178 0.69435,0.404154 0.7789,0.449358 0.79681,0.425585 0.0154,-0.02052 0.02,-0.226483 0.02,-0.901578 0,-0.675415 -0.005,-0.880886 -0.02,-0.900952 -0.002,-0.0028 -0.006,-0.0046 -0.0112,-0.0048 z m -1.90407,1.091874 c -0.02,-0.01237 -1.581099,0.897019 -1.581099,0.921022 0,0.01171 0.352503,0.22484 0.783299,0.473744 0.43081,0.248899 0.78938,0.44878 0.7969,0.444128 0.0174,-0.01073 0.0183,-1.828166 8.2e-4,-1.838894 z m 0.2316,0.0061 c -0.0243,0 -0.0265,0.07426 -0.0265,0.910403 0,0.50074 0.005,0.914961 0.01,0.920482 0.005,0.0056 0.0326,-0.0016 0.0602,-0.01577 0.12696,-0.0655 1.49447,-0.860067 1.51575,-0.880698 0.0212,-0.02068 0.0205,-0.02596 -0.007,-0.04645 -0.0792,-0.05867 -1.52889,-0.887986 -1.55229,-0.887986 z" />
    <path
       d="M 96.746727,41.646072 96.089403,39.753165 H 96.077 q 0.02635,0.421679 0.02635,0.790649 v 1.102258 h -0.336413 v -2.266528 h 0.522449 l 0.629418,1.802991 h 0.0093 l 0.648023,-1.802991 h 0.523999 v 2.266528 h -0.356568 v -1.120861 q 0,-0.168982 0.0078,-0.440284 0.0093,-0.271301 0.0155,-0.328662 h -0.0124 l -0.680578,1.889807 z"
       style="font-style:normal;font-variant:normal;font-weight:600;font-stretch:normal;font-size:3.175px;line-height:1.25;font-family:'Open Sans';-inkscape-font-specification:'Open Sans Semi-Bold';letter-spacing:0px;word-spacing:0px;fill:#0e425a;fill-opacity:1;stroke:none;stroke-width:0.113093"
       id="path1639" />
    <path
       d="m 99.979088,41.646072 h -1.282092 v -2.266528 h 1.282092 v 0.313159 h -0.911572 v 0.617017 h 0.854211 v 0.310058 h -0.854211 v 0.711585 h 0.911572 z"
       style="font-style:normal;font-variant:normal;font-weight:600;font-stretch:normal;font-size:3.175px;line-height:1.25;font-family:'Open Sans';-inkscape-font-specification:'Open Sans Semi-Bold';letter-spacing:0px;word-spacing:0px;fill:#0e425a;fill-opacity:1;stroke:none;stroke-width:0.113093"
       id="path1641" />
    <path
       d="m 101.77588,41.030606 q 0,0.302307 -0.21859,0.47439 -0.2186,0.172082 -0.60307,0.172082 -0.38447,0 -0.62942,-0.119372 v -0.350367 q 0.15503,0.07286 0.32867,0.114722 0.17518,0.04186 0.32556,0.04186 0.22014,0 0.32401,-0.08372 0.10542,-0.08372 0.10542,-0.224792 0,-0.127124 -0.0961,-0.215491 -0.0961,-0.08837 -0.39688,-0.209289 -0.31005,-0.125574 -0.43718,-0.286805 -0.12712,-0.16123 -0.12712,-0.387573 0,-0.283704 0.20154,-0.446484 0.20153,-0.162781 0.54105,-0.162781 0.32556,0 0.64802,0.142627 l -0.11782,0.302307 q -0.30231,-0.127124 -0.5395,-0.127124 -0.17984,0 -0.27285,0.07906 -0.093,0.07752 -0.093,0.206189 0,0.08837 0.0372,0.151929 0.0372,0.06201 0.12248,0.117822 0.0853,0.05581 0.30696,0.147278 0.24959,0.103869 0.36587,0.193786 0.11627,0.08992 0.17053,0.203089 0.0543,0.113171 0.0543,0.26665 z"
       style="font-style:normal;font-variant:normal;font-weight:600;font-stretch:normal;font-size:3.175px;line-height:1.25;font-family:'Open Sans';-inkscape-font-specification:'Open Sans Semi-Bold';letter-spacing:0px;word-spacing:0px;fill:#0e425a;fill-opacity:1;stroke:none;stroke-width:0.113093"
       id="path1643" />
    <path
       d="m 104.22689,40.509708 q 0,0.553454 -0.2775,0.860412 -0.27595,0.306958 -0.7829,0.306958 -0.51315,0 -0.7891,-0.303857 -0.2744,-0.305408 -0.2744,-0.866614 0,-0.561206 0.27595,-0.861963 0.2775,-0.300757 0.79065,-0.300757 0.5054,0 0.78135,0.305408 0.27595,0.305408 0.27595,0.860413 z m -1.73013,0 q 0,0.418579 0.16899,0.63562 0.16898,0.21549 0.50074,0.21549 0.33021,0 0.49764,-0.21394 0.16899,-0.21394 0.16899,-0.63717 0,-0.417029 -0.16744,-0.63252 -0.16588,-0.215491 -0.49609,-0.215491 -0.33331,0 -0.50384,0.215491 -0.16899,0.215491 -0.16899,0.63252 z"
       style="font-style:normal;font-variant:normal;font-weight:600;font-stretch:normal;font-size:3.175px;line-height:1.25;font-family:'Open Sans';-inkscape-font-specification:'Open Sans Semi-Bold';letter-spacing:0px;word-spacing:0px;fill:#0e425a;fill-opacity:1;stroke:none;stroke-width:0.113093"
       id="path1645" />
    <path
       d="m 106.02058,41.030606 q 0,0.302307 -0.21859,0.47439 -0.21859,0.172082 -0.60307,0.172082 -0.38447,0 -0.62941,-0.119372 v -0.350367 q 0.15502,0.07286 0.32866,0.114722 0.17518,0.04186 0.32556,0.04186 0.22014,0 0.32401,-0.08372 0.10542,-0.08372 0.10542,-0.224792 0,-0.127124 -0.0961,-0.215491 -0.0961,-0.08837 -0.39687,-0.209289 -0.31006,-0.125574 -0.43719,-0.286805 -0.12712,-0.16123 -0.12712,-0.387573 0,-0.283704 0.20154,-0.446484 0.20154,-0.162781 0.54105,-0.162781 0.32556,0 0.64802,0.142627 l -0.11782,0.302307 q -0.30231,-0.127124 -0.5395,-0.127124 -0.17983,0 -0.27285,0.07906 -0.093,0.07752 -0.093,0.206189 0,0.08837 0.0372,0.151929 0.0372,0.06201 0.12247,0.117822 0.0853,0.05581 0.30696,0.147278 0.2496,0.103869 0.36587,0.193786 0.11627,0.08992 0.17053,0.203089 0.0543,0.113171 0.0543,0.26665 z"
       style="font-style:normal;font-variant:normal;font-weight:600;font-stretch:normal;font-size:3.175px;line-height:1.25;font-family:'Open Sans';-inkscape-font-specification:'Open Sans Semi-Bold';letter-spacing:0px;word-spacing:0px;fill:#0e425a;fill-opacity:1;stroke:none;stroke-width:0.113093"
       id="path1647" />
    <path
       id="path1554"
       style="opacity:1;fill:#00395a;fill-opacity:1;stroke:none;stroke-width:0.028;stroke-linecap:butt;stroke-linejoin:miter;stroke-miterlimit:4;stroke-dasharray:none;stroke-opacity:1"
       d="m 100.88331,47.359899 -2.103202,1.219942 2.137312,1.233826 c 2.17235,1.254205 -0.27759,-0.160183 2.17684,1.256883 l 2.10296,-1.214062 -2.17449,-1.258294 z m -2.192845,1.271705 -2.086255,1.210061 0.613147,0.353866 1.482519,-0.85596 z m 0.07011,0.01741 0.0089,0.69385 1.483925,0.854078 0.59433,-0.343042 z m -0.02871,0.752671 -1.444874,0.834079 1.449579,0.837138 1.44723,-0.835726 z m -2.181781,0.489154 9.56e-4,0.639499 0.04329,0.02517 0.553386,-0.319515 z m 4.388966,0.01576 0.008,0.640676 2.1119,1.264176 -0.005,-0.683263 z m 4.29839,0.0071 -2.11284,1.219942 0.009,1.427464 2.10344,-1.214532 z m -4.3678,0.0082 -0.54632,0.31528 0.55432,0.319043 z m -3.652528,0.354337 -0.553386,0.319514 2.035669,1.175239 -0.0085,-0.643969 z m 3.036568,9.56e-4 -1.492641,0.861841 0.0085,0.665381 2.065551,-1.19265 z m 0.65126,0.374807 -2.113314,1.220177 2.116844,1.222061 2.10743,-1.227707 z m -4.352503,0.0078 -0.0016,0.0012 6.83e-4,0.667969 4.31556,2.491413 V 53.151 Z m -9.56e-4,0.749376 0.0014,1.457344 4.314149,2.490707 v -1.456678 z m 8.685949,0.01765 -4.30074,2.483179 v 1.441344 l 4.30074,-2.483179 z m -2.17755,0.494566 -2.12319,1.237353 v 0.670793 l 2.12766,-1.228414 z" />
    <path
       d="m 98.241208,59.16518 v -2.266528 h 0.37052 v 1.948718 h 0.959631 v 0.31781 z"
       style="font-style:normal;font-variant:normal;font-weight:600;font-stretch:normal;font-size:3.175px;line-height:1.25;font-family:'Open Sans';-inkscape-font-specification:'Open Sans Semi-Bold';letter-spacing:0px;word-spacing:0px;fill:#0e425a;fill-opacity:1;stroke:none;stroke-width:0.113093"
       id="path1650" />
    <path
       d="m 101.6317,59.16518 h -0.42633 l -0.56741,-0.927075 -0.57206,0.927075 h -0.396872 l 0.751892,-1.175122 -0.703833,-1.091406 h 0.412373 l 0.524,0.857312 0.524,-0.857312 h 0.39998 l -0.70849,1.097607 z"
       style="font-style:normal;font-variant:normal;font-weight:600;font-stretch:normal;font-size:3.175px;line-height:1.25;font-family:'Open Sans';-inkscape-font-specification:'Open Sans Semi-Bold';letter-spacing:0px;word-spacing:0px;fill:#0e425a;fill-opacity:1;stroke:none;stroke-width:0.113093"
       id="path1652" />
    <path
       d="m 102.90139,57.183906 q -0.31936,0 -0.5023,0.226343 -0.18293,0.226342 -0.18293,0.624768 0,0.417028 0.17518,0.630969 0.17674,0.21394 0.51005,0.21394 0.14418,0 0.27905,-0.0279 0.13488,-0.02946 0.2806,-0.07441 v 0.31781 q -0.26665,0.100769 -0.60461,0.100769 -0.49764,0 -0.76429,-0.300757 -0.26665,-0.302307 -0.26665,-0.863513 0,-0.353467 0.12867,-0.618567 0.13022,-0.2651 0.37517,-0.406177 0.24495,-0.141076 0.57516,-0.141076 0.34726,0 0.64182,0.145727 l -0.13332,0.308509 q -0.11473,-0.05426 -0.2434,-0.09457 -0.12712,-0.04186 -0.2682,-0.04186 z"
       style="font-style:normal;font-variant:normal;font-weight:600;font-stretch:normal;font-size:3.175px;line-height:1.25;font-family:'Open Sans';-inkscape-font-specification:'Open Sans Semi-Bold';letter-spacing:0px;word-spacing:0px;fill:#0e425a;fill-opacity:1;stroke:none;stroke-width:0.113093"
       id="path1654" />
    <path
       d="m 111.8309,48.84982 q 0,0.498849 -0.27699,0.763432 -0.27698,0.263205 -0.79788,0.263205 h -0.56362 v -2.01469 h 0.62288 q 0.48093,0 0.74827,0.259071 0.26734,0.259071 0.26734,0.728982 z m -0.34727,0.01102 q 0,-0.72347 -0.67661,-0.72347 h -0.28526 v 1.462098 h 0.23427 q 0.7276,0 0.7276,-0.738628 z"
       style="font-style:normal;font-variant:normal;font-weight:600;font-stretch:normal;font-size:2.82222px;line-height:1.25;font-family:'Open Sans';-inkscape-font-specification:'Open Sans Semi-Bold';letter-spacing:0px;word-spacing:0px;fill:#0e425a;fill-opacity:1;stroke:none;stroke-width:0.113093"
       id="path1657" />
    <path
       d="m 114.0523,48.866356 q 0,0.491959 -0.24667,0.764811 -0.24529,0.272851 -0.69591,0.272851 -0.45613,0 -0.70142,-0.270095 -0.24391,-0.271474 -0.24391,-0.770323 0,-0.49885 0.24529,-0.766189 0.24666,-0.267339 0.70279,-0.267339 0.44924,0 0.69454,0.271473 0.24529,0.271474 0.24529,0.764811 z m -1.53789,0 q 0,0.37207 0.1502,0.564995 0.15021,0.191547 0.44511,0.191547 0.29352,0 0.44235,-0.190169 0.1502,-0.190169 0.1502,-0.566373 0,-0.370692 -0.14882,-0.562239 -0.14745,-0.191547 -0.44098,-0.191547 -0.29627,0 -0.44786,0.191547 -0.1502,0.191547 -0.1502,0.562239 z"
       style="font-style:normal;font-variant:normal;font-weight:600;font-stretch:normal;font-size:2.82222px;line-height:1.25;font-family:'Open Sans';-inkscape-font-specification:'Open Sans Semi-Bold';letter-spacing:0px;word-spacing:0px;fill:#0e425a;fill-opacity:1;stroke:none;stroke-width:0.113093"
       id="path1659" />
    <path
       d="m 115.34214,48.115326 q -0.28388,0 -0.44649,0.201193 -0.1626,0.201194 -0.1626,0.555349 0,0.370692 0.15571,0.560861 0.1571,0.190169 0.45338,0.190169 0.12816,0 0.24805,-0.0248 0.11988,-0.02618 0.24942,-0.06615 v 0.282498 q -0.23702,0.08957 -0.53743,0.08957 -0.44235,0 -0.67938,-0.267339 -0.23702,-0.268717 -0.23702,-0.767567 0,-0.314192 0.11438,-0.549837 0.11575,-0.235644 0.33348,-0.361046 0.21773,-0.125401 0.51125,-0.125401 0.30869,0 0.57051,0.129536 l -0.11851,0.274229 q -0.10197,-0.04823 -0.21635,-0.08406 -0.113,-0.03721 -0.2384,-0.03721 z"
       style="font-style:normal;font-variant:normal;font-weight:600;font-stretch:normal;font-size:2.82222px;line-height:1.25;font-family:'Open Sans';-inkscape-font-specification:'Open Sans Semi-Bold';letter-spacing:0px;word-spacing:0px;fill:#0e425a;fill-opacity:1;stroke:none;stroke-width:0.113093"
       id="path1661" />
    <path
       d="m 117.81158,49.876457 h -0.38172 l -0.63251,-0.91226 -0.19431,0.158474 v 0.753786 h -0.32935 v -2.01469 h 0.32935 v 0.96187 q 0.13505,-0.165365 0.26872,-0.318327 l 0.54432,-0.643543 h 0.37483 q -0.52779,0.620117 -0.75654,0.883322 z"
       style="font-style:normal;font-variant:normal;font-weight:600;font-stretch:normal;font-size:2.82222px;line-height:1.25;font-family:'Open Sans';-inkscape-font-specification:'Open Sans Semi-Bold';letter-spacing:0px;word-spacing:0px;fill:#0e425a;fill-opacity:1;stroke:none;stroke-width:0.113093"
       id="path1663" />
    <path
       d="m 119.21718,49.876457 h -1.13964 v -2.01469 h 1.13964 v 0.278363 h -0.81029 v 0.548459 h 0.7593 v 0.275608 h -0.7593 v 0.632519 h 0.81029 z"
       style="font-style:normal;font-variant:normal;font-weight:600;font-stretch:normal;font-size:2.82222px;line-height:1.25;font-family:'Open Sans';-inkscape-font-specification:'Open Sans Semi-Bold';letter-spacing:0px;word-spacing:0px;fill:#0e425a;fill-opacity:1;stroke:none;stroke-width:0.113093"
       id="path1665" />
    <path
       d="m 119.98199,48.798832 h 0.22875 q 0.23014,0 0.33349,-0.08544 0.10335,-0.08544 0.10335,-0.253559 0,-0.170877 -0.11162,-0.245291 -0.11162,-0.07441 -0.33624,-0.07441 h -0.21773 z m 0,0.272852 v 0.804773 h -0.32935 v -2.01469 h 0.56913 q 0.38998,0 0.5774,0.146072 0.18741,0.146072 0.18741,0.440972 0,0.376204 -0.39136,0.536056 l 0.56913,0.89159 h -0.37483 l -0.48231,-0.804773 z"
       style="font-style:normal;font-variant:normal;font-weight:600;font-stretch:normal;font-size:2.82222px;line-height:1.25;font-family:'Open Sans';-inkscape-font-specification:'Open Sans Semi-Bold';letter-spacing:0px;word-spacing:0px;fill:#0e425a;fill-opacity:1;stroke:none;stroke-width:0.113093"
       id="path1667" />
    <path
       id="path1564"
       style="opacity:1;fill:#0e425a;fill-opacity:1;stroke:none;stroke-width:0.0249928;stroke-linecap:square;stroke-miterlimit:4;stroke-dasharray:none"
       d="m 115.33875,38.885675 c -0.0546,0 -0.0986,0.04398 -0.0986,0.0986 v 0.748587 c 0,0.05462 0.044,0.09858 0.0986,0.09858 h 0.82122 c 0.0546,0 0.0986,-0.04397 0.0986,-0.09858 v -0.748587 c 0,-0.05462 -0.044,-0.0986 -0.0986,-0.0986 z m -2.45404,1.126744 c -0.0546,0 -0.0986,0.04397 -0.0986,0.09858 v 0.748586 c 0,0.05461 0.044,0.09858 0.0986,0.09858 h 0.82123 c 0.0546,0 0.0986,-0.04397 0.0986,-0.09858 v -0.748586 c 0,-0.05462 -0.044,-0.09858 -0.0986,-0.09858 z m 1.22702,0 c -0.0546,0 -0.0986,0.04397 -0.0986,0.09858 v 0.748586 c 0,0.05461 0.044,0.09858 0.0986,0.09858 h 0.82122 c 0.0546,0 0.0986,-0.04397 0.0986,-0.09858 v -0.748586 c 0,-0.05462 -0.044,-0.09858 -0.0986,-0.09858 z m 1.22702,0 c -0.0546,0 -0.0986,0.04397 -0.0986,0.09858 v 0.748586 c 0,0.05461 0.044,0.09858 0.0986,0.09858 h 0.82122 c 0.0546,0 0.0986,-0.04397 0.0986,-0.09858 v -0.748586 c 0,-0.05462 -0.044,-0.09858 -0.0986,-0.09858 z m 3.16136,0.261337 c -0.19393,0.309971 -0.37955,0.577284 -0.41266,0.908134 -0.0319,0.318815 0.0458,0.641168 0.21635,0.936568 0,0 -0.3807,0.144886 -0.58826,0.144886 h -6.73884 c -0.1447,0 -0.27521,0.152069 -0.28523,0.271998 -0.0253,0.303562 0.0199,0.714778 0.10818,1.08895 0.17344,0.734933 0.47472,1.490544 1.10458,1.907064 0.97217,0.642887 2.31903,0.644224 3.46779,0.447358 0.93355,-0.159984 1.83889,-0.640204 2.53624,-1.281146 0.5874,-0.539882 1.11459,-1.532812 1.2551,-2.037966 0.28651,0.01649 0.6552,-0.04261 0.91876,-0.202704 0.3035,-0.184349 0.46649,-0.333796 0.6374,-0.79108 -0.22946,-0.210481 -0.76057,-0.40786 -1.35627,-0.274291 -0.035,-0.356376 -0.34916,-0.93129 -0.86314,-1.117771 z m -6.84244,0.868961 c -0.0546,0 -0.0986,0.04397 -0.0986,0.09858 v 0.748586 c 0,0.05462 0.044,0.0986 0.0986,0.0986 h 0.82125 c 0.0546,0 0.0986,-0.04398 0.0986,-0.0986 v -0.748586 c 0,-0.05462 -0.044,-0.09858 -0.0986,-0.09858 z m 1.22704,0 c -0.0546,0 -0.0986,0.04397 -0.0986,0.09858 v 0.748586 c 0,0.05462 0.044,0.0986 0.0986,0.0986 h 0.82123 c 0.0546,0 0.0986,-0.04398 0.0986,-0.0986 v -0.748586 c 0,-0.05462 -0.044,-0.09858 -0.0986,-0.09858 z m 1.22702,0 c -0.0546,0 -0.0986,0.04397 -0.0986,0.09858 v 0.748586 c 0,0.05462 0.044,0.0986 0.0986,0.0986 h 0.82122 c 0.0546,0 0.0986,-0.04398 0.0986,-0.0986 v -0.748586 c 0,-0.05462 -0.044,-0.09858 -0.0986,-0.09858 z m 1.22702,0 c -0.0546,0 -0.0986,0.04397 -0.0986,0.09858 v 0.748586 c 0,0.05462 0.044,0.0986 0.0986,0.0986 h 0.82122 c 0.0546,0 0.0986,-0.04398 0.0986,-0.0986 v -0.748586 c 0,-0.05462 -0.044,-0.09858 -0.0986,-0.09858 z m 1.22702,0 c -0.0546,0 -0.0986,0.04397 -0.0986,0.09858 v 0.748586 c 0,0.05462 0.044,0.0986 0.0986,0.0986 h 0.82122 c 0.0546,0 0.0986,-0.04398 0.0986,-0.0986 v -0.748586 c 0,-0.05462 -0.044,-0.09858 -0.0986,-0.09858 z" />
    <path
       d="M 55.101221,50.43663 H 54.67179 l -0.711584,-1.026294 -0.218591,0.178284 v 0.84801 h -0.37052 v -2.266528 h 0.37052 v 1.082104 q 0.151928,-0.186035 0.302307,-0.358117 l 0.612365,-0.723987 h 0.42168 q -0.593762,0.697632 -0.851111,0.993738 z"
       style="font-style:normal;font-variant:normal;font-weight:600;font-stretch:normal;font-size:3.175px;line-height:1.25;font-family:'Open Sans';-inkscape-font-specification:'Open Sans Semi-Bold';letter-spacing:0px;word-spacing:0px;fill:#0e425a;fill-opacity:1;stroke:none;stroke-width:0.113093"
       id="path1584" />
    <path
       d="m 56.691822,48.170102 h 0.384473 l -0.79375,2.266528 h -0.390674 l -0.79065,-2.266528 h 0.381372 l 0.47284,1.409216 q 0.03721,0.100769 0.07906,0.260449 0.04186,0.15813 0.05426,0.235645 0.02015,-0.117822 0.06201,-0.272852 0.04186,-0.155029 0.06821,-0.229443 z"
       style="font-style:normal;font-variant:normal;font-weight:600;font-stretch:normal;font-size:3.175px;line-height:1.25;font-family:'Open Sans';-inkscape-font-specification:'Open Sans Semi-Bold';letter-spacing:0px;word-spacing:0px;fill:#0e425a;fill-opacity:1;stroke:none;stroke-width:0.113093"
       id="path1586" />
    <path
       d="m 58.355286,50.43663 -0.657324,-1.892907 h -0.0124 q 0.02635,0.421679 0.02635,0.790649 v 1.102258 h -0.336414 v -2.266528 h 0.522449 l 0.629419,1.802991 h 0.0093 l 0.648023,-1.802991 h 0.523999 V 50.43663 H 59.35212 v -1.120862 q 0,-0.168981 0.0078,-0.440283 0.0093,-0.271301 0.0155,-0.328662 h -0.0124 l -0.680579,1.889807 z"
       style="font-style:normal;font-variant:normal;font-weight:600;font-stretch:normal;font-size:3.175px;line-height:1.25;font-family:'Open Sans';-inkscape-font-specification:'Open Sans Semi-Bold';letter-spacing:0px;word-spacing:0px;fill:#0e425a;fill-opacity:1;stroke:none;stroke-width:0.113093"
       id="path1588" />
  </g>
</svg>
