<?xml version="1.0" encoding="UTF-8" standalone="no"?>
<svg
   xmlns:dc="http://purl.org/dc/elements/1.1/"
   xmlns:cc="http://creativecommons.org/ns#"
   xmlns:rdf="http://www.w3.org/1999/02/22-rdf-syntax-ns#"
   xmlns:svg="http://www.w3.org/2000/svg"
   xmlns="http://www.w3.org/2000/svg"
   xmlns:sodipodi="http://sodipodi.sourceforge.net/DTD/sodipodi-0.dtd"
   xmlns:inkscape="http://www.inkscape.org/namespaces/inkscape"
   id="svg8"
   version="1.1"
   viewBox="0 0 256 256.00001"
   height="256"
   width="256"
   sodipodi:docname="button-ai.svg"
   inkscape:version="0.92.2 5c3e80d, 2017-08-06">
  <sodipodi:namedview
     pagecolor="#ffffff"
     bordercolor="#666666"
     borderopacity="1"
     objecttolerance="10"
     gridtolerance="10"
     guidetolerance="10"
     inkscape:pageopacity="0"
     inkscape:pageshadow="2"
     inkscape:window-width="1920"
     inkscape:window-height="1015"
     id="namedview9"
     showgrid="false"
     inkscape:zoom="2.6074563"
     inkscape:cx="115.22325"
     inkscape:cy="145.31432"
     inkscape:window-x="0"
     inkscape:window-y="0"
     inkscape:window-maximized="1"
     inkscape:current-layer="svg8" />
  <defs
     id="defs2" />
  <metadata
     id="metadata5">
    <rdf:RDF>
      <cc:Work
         rdf:about="">
        <dc:format>image/svg+xml</dc:format>
        <dc:type
           rdf:resource="http://purl.org/dc/dcmitype/StillImage" />
        <dc:title></dc:title>
      </cc:Work>
    </rdf:RDF>
  </metadata>
  <path
     style="opacity:0.67900002;fill:#000000;fill-opacity:1;stroke:none;stroke-width:1.50899994;stroke-miterlimit:4;stroke-dasharray:none;stroke-opacity:1"
     d="M 148.41992 50.015625 C 126.74303 53.612942 71.49459 63.887626 45.138672 79.246094 C 41.146544 81.581563 39.176985 84.064688 36.714844 86.582031 C 27.778968 95.823895 15.971265 134.2513 14.703125 142.17578 C 14.653305 142.48711 15.036892 142.82496 15.201172 142.95312 L 15.205078 142.95312 C 16.123156 143.66951 17.123727 144.41444 18.125 145.08008 C 25.774067 150.212 43.395656 162.54911 66.003906 160.53516 C 86.311876 158.73864 112.84285 147.08846 144.82812 126.01367 C 141.6833 133.37679 138.58455 140.76271 135.48438 148.14453 C 130.85234 150.55038 86.143735 173.33177 64.078125 172.88672 C 46.305665 172.51649 27.299541 163.84833 19.695312 159.27148 C 19.695312 159.27148 18.024077 158.26425 17.296875 158.82617 C 16.501405 159.44069 16.719846 160.38215 16.908203 161.34375 C 17.376021 163.52661 18.441686 167.50997 19.166016 169.40039 L 19.777344 170.94141 C 20.647805 173.27355 21.484575 175.44041 23.095703 176.77539 C 27.5753 180.84866 34.724551 184.08987 45.927734 188.95898 C 63.244614 196.53398 91.339259 201.35131 117.42383 201.18555 C 126.76644 200.97756 135.79301 199.94149 143.71875 199.01562 C 145.24643 198.84315 146.82519 198.74009 148.41992 198.66797 L 148.41992 50.015625 z M 73.642578 80.972656 C 81.807708 81.104149 89.530892 84.173842 95.539062 89.783203 C 101.94484 95.746706 105.61088 103.87603 105.93555 112.63672 C 106.54117 130.70947 92.352062 145.9377 74.294922 146.60352 C 65.488692 146.89911 57.147011 143.80422 50.738281 137.78516 C 44.348813 131.84018 40.682765 123.70992 40.341797 114.94922 C 39.721349 96.892584 53.927316 81.632703 72.003906 80.986328 C 72.551806 80.968858 73.098228 80.963886 73.642578 80.972656 z M 73.425781 90.638672 C 73.045231 90.633972 72.662597 90.636571 72.279297 90.650391 C 59.646317 91.098593 49.756221 101.71249 50.181641 114.3418 C 50.376661 120.43235 52.945093 126.07668 57.408203 130.26367 C 61.877823 134.43122 67.720179 136.59926 73.849609 136.41406 C 86.453329 135.94918 96.343399 125.32405 95.917969 112.69141 C 95.732759 106.57807 93.113592 100.93122 88.669922 96.763672 C 84.504142 92.8566 79.134031 90.709901 73.425781 90.638672 z M 68.535156 102.13672 C 74.148206 102.13672 78.681641 105.15778 78.681641 108.91602 C 78.681641 112.63869 74.148206 115.67578 68.535156 115.67578 C 62.925416 115.67578 58.375 112.63851 58.375 108.91602 C 58.375 105.15778 62.922266 102.13672 68.535156 102.13672 z "
     id="rect838" />
  <circle
     r="0"
     cy="-1251.2444"
     cx="601.90253"
     id="path872"
     style="opacity:0.3;fill:#000000;fill-opacity:1;stroke:none;stroke-width:3.5295825;stroke-miterlimit:4;stroke-dasharray:none;stroke-opacity:1"
     transform="scale(-1,1)" />
</svg>
