<?xml version="1.0" encoding="UTF-8" standalone="no"?>
<!-- Created with Inkscape (http://www.inkscape.org/) -->

<svg
   xmlns:dc="http://purl.org/dc/elements/1.1/"
   xmlns:cc="http://creativecommons.org/ns#"
   xmlns:rdf="http://www.w3.org/1999/02/22-rdf-syntax-ns#"
   xmlns:svg="http://www.w3.org/2000/svg"
   xmlns="http://www.w3.org/2000/svg"
   xmlns:sodipodi="http://sodipodi.sourceforge.net/DTD/sodipodi-0.dtd"
   xmlns:inkscape="http://www.inkscape.org/namespaces/inkscape"
   width="20.111162mm"
   height="17.416779mm"
   viewBox="0 0 20.111162 17.416779"
   version="1.1"
   id="svg8"
   inkscape:version="0.92.2 5c3e80d, 2017-08-06"
   sodipodi:docname="hexagon_arch.svg">
  <defs
     id="defs2" />
  <sodipodi:namedview
     id="base"
     pagecolor="#ffffff"
     bordercolor="#666666"
     borderopacity="1.0"
     inkscape:pageopacity="0.0"
     inkscape:pageshadow="2"
     inkscape:zoom="5.6"
     inkscape:cx="-20.955714"
     inkscape:cy="88.25879"
     inkscape:document-units="mm"
     inkscape:current-layer="layer1"
     showgrid="false"
     inkscape:window-width="2560"
     inkscape:window-height="1371"
     inkscape:window-x="0"
     inkscape:window-y="0"
     inkscape:window-maximized="1"
     inkscape:snap-global="true"
     inkscape:snap-object-midpoints="true"
     inkscape:object-nodes="false"
     inkscape:snap-others="true"
     inkscape:snap-nodes="false" />
  <metadata
     id="metadata5">
    <rdf:RDF>
      <cc:Work
         rdf:about="">
        <dc:format>image/svg+xml</dc:format>
        <dc:type
           rdf:resource="http://purl.org/dc/dcmitype/StillImage" />
        <dc:title></dc:title>
      </cc:Work>
    </rdf:RDF>
  </metadata>
  <g
     inkscape:label="Ebene 1"
     inkscape:groupmode="layer"
     id="layer1"
     transform="translate(28.004197,-31.712856)">
    <path
       inkscape:transform-center-y="-1.2355071e-06"
       d="m -13.196799,48.651635 -9.503635,-10e-7 -4.751816,-8.230389 4.751817,-8.230389 9.503635,1e-6 4.7518164,8.230389 z"
       inkscape:randomized="0"
       inkscape:rounded="0"
       inkscape:flatsided="true"
       sodipodi:arg2="1.5707963"
       sodipodi:arg1="1.0471976"
       sodipodi:r2="8.2303886"
       sodipodi:r1="9.5036345"
       sodipodi:cy="40.421246"
       sodipodi:cx="-17.948616"
       sodipodi:sides="6"
       id="path1099"
       style="opacity:1;fill:#ffffff;fill-opacity:1;stroke:none;stroke-width:0.95599997;stroke-miterlimit:4;stroke-dasharray:none;stroke-opacity:1"
       sodipodi:type="star" />
    <path
       style="opacity:1;fill:#000000;fill-opacity:1;stroke:none;stroke-width:0.18381585;stroke-miterlimit:4;stroke-dasharray:none;stroke-opacity:1"
       d="m -20.330607,34.308633 v 1.53255 h -1.477404 c -0.369481,0 -0.672179,0.302698 -0.672179,0.67218 v 1.477006 h -1.597235 v 0.338724 h 1.597235 v 1.147326 h -1.597235 v 0.338722 h 1.597235 v 1.147226 h -1.597235 v 0.338823 h 1.597235 v 1.147227 h -1.597235 v 0.338722 h 1.597235 v 1.477007 c 0,0.369482 0.302698,0.672178 0.672179,0.67218 h 1.477404 v 1.597532 h 0.338326 v -1.597532 h 1.147624 v 1.597532 h 0.338424 v -1.597532 h 1.147624 v 1.597532 h 0.338326 v -1.597532 h 1.147724 v 1.597532 h 0.338325 v -1.597532 h 1.477404 c 0.369482,0 0.672179,-0.302698 0.672179,-0.67218 v -1.477007 h 1.564844 v -0.338722 h -1.564844 V 41.30119 h 1.564844 v -0.338823 h -1.564844 v -1.147226 h 1.564844 v -0.338722 h -1.564844 v -1.147326 h 1.564844 v -0.338724 h -1.564844 v -1.477006 c 0,-0.369482 -0.302697,-0.67218 -0.672179,-0.67218 h -1.477404 v -1.53255 h -0.338325 v 1.53255 h -1.147724 v -1.53255 h -0.338326 v 1.53255 h -1.147624 v -1.53255 h -0.338424 v 1.53255 h -1.147624 v -1.53255 z m -1.477404,1.870875 h 7.751181 c 0.18784,0 0.333457,0.146014 0.333457,0.333855 v 7.750783 c 0,0.187843 -0.145617,0.333855 -0.333457,0.333855 h -7.751181 c -0.187842,0 -0.333457,-0.146012 -0.333457,-0.333855 v -7.750783 c 0,-0.187841 0.145615,-0.333855 0.333457,-0.333855 z"
       id="rect845"
       inkscape:connector-curvature="0" />
  </g>
</svg>
