<?xml version="1.0" encoding="UTF-8" standalone="no"?>
<!-- Created with Inkscape (http://www.inkscape.org/) -->

<svg
   xmlns:dc="http://purl.org/dc/elements/1.1/"
   xmlns:cc="http://creativecommons.org/ns#"
   xmlns:rdf="http://www.w3.org/1999/02/22-rdf-syntax-ns#"
   xmlns:svg="http://www.w3.org/2000/svg"
   xmlns="http://www.w3.org/2000/svg"
   xmlns:sodipodi="http://sodipodi.sourceforge.net/DTD/sodipodi-0.dtd"
   xmlns:inkscape="http://www.inkscape.org/namespaces/inkscape"
   width="20.111162mm"
   height="17.416779mm"
   viewBox="0 0 20.111162 17.416779"
   version="1.1"
   id="svg8"
   inkscape:version="0.92.2 5c3e80d, 2017-08-06"
   sodipodi:docname="hexagon_fs.svg">
  <defs
     id="defs2" />
  <sodipodi:namedview
     id="base"
     pagecolor="#ffffff"
     bordercolor="#666666"
     borderopacity="1.0"
     inkscape:pageopacity="0.0"
     inkscape:pageshadow="2"
     inkscape:zoom="11.2"
     inkscape:cx="40.566955"
     inkscape:cy="55.903375"
     inkscape:document-units="mm"
     inkscape:current-layer="layer1"
     showgrid="false"
     inkscape:window-width="2560"
     inkscape:window-height="1371"
     inkscape:window-x="0"
     inkscape:window-y="0"
     inkscape:window-maximized="1"
     inkscape:snap-global="false"
     inkscape:snap-object-midpoints="true"
     inkscape:object-nodes="true"
     inkscape:snap-others="true"
     inkscape:snap-nodes="true"
     inkscape:object-paths="true" />
  <metadata
     id="metadata5">
    <rdf:RDF>
      <cc:Work
         rdf:about="">
        <dc:format>image/svg+xml</dc:format>
        <dc:type
           rdf:resource="http://purl.org/dc/dcmitype/StillImage" />
        <dc:title></dc:title>
      </cc:Work>
    </rdf:RDF>
  </metadata>
  <g
     inkscape:label="Ebene 1"
     inkscape:groupmode="layer"
     id="layer1"
     transform="translate(28.004197,-31.712856)">
    <path
       inkscape:transform-center-y="-1.2355071e-06"
       d="m -13.196799,48.651635 -9.503635,-10e-7 -4.751816,-8.230389 4.751817,-8.230389 9.503635,1e-6 4.7518164,8.230389 z"
       inkscape:randomized="0"
       inkscape:rounded="0"
       inkscape:flatsided="true"
       sodipodi:arg2="1.5707963"
       sodipodi:arg1="1.0471976"
       sodipodi:r2="8.2303886"
       sodipodi:r1="9.5036345"
       sodipodi:cy="40.421246"
       sodipodi:cx="-17.948616"
       sodipodi:sides="6"
       id="path1099"
       style="opacity:1;fill:#ffffff;fill-opacity:1;stroke:none;stroke-width:0.95599997;stroke-miterlimit:4;stroke-dasharray:none;stroke-opacity:1"
       sodipodi:type="star" />
    <path
       style="color:#000000;font-style:normal;font-variant:normal;font-weight:normal;font-stretch:normal;font-size:medium;line-height:normal;font-family:sans-serif;font-variant-ligatures:normal;font-variant-position:normal;font-variant-caps:normal;font-variant-numeric:normal;font-variant-alternates:normal;font-feature-settings:normal;text-indent:0;text-align:start;text-decoration:none;text-decoration-line:none;text-decoration-style:solid;text-decoration-color:#000000;letter-spacing:normal;word-spacing:normal;text-transform:none;writing-mode:lr-tb;direction:ltr;text-orientation:mixed;dominant-baseline:auto;baseline-shift:baseline;text-anchor:start;white-space:normal;shape-padding:0;clip-rule:nonzero;display:inline;overflow:visible;visibility:visible;opacity:1;isolation:auto;mix-blend-mode:normal;color-interpolation:sRGB;color-interpolation-filters:linearRGB;solid-color:#000000;solid-opacity:1;vector-effect:none;fill:#000000;fill-opacity:1;fill-rule:nonzero;stroke:none;stroke-width:0.35217232px;stroke-linecap:butt;stroke-linejoin:miter;stroke-miterlimit:4;stroke-dasharray:none;stroke-dashoffset:0;stroke-opacity:1;color-rendering:auto;image-rendering:auto;shape-rendering:auto;text-rendering:auto;enable-background:accumulate"
       d="M 25.460938 13.054688 C 24.995115 13.054688 24.623047 13.426816 24.623047 13.892578 L 24.623047 14.755859 L 23.884766 14.755859 L 23.884766 25.212891 L 25.714844 15.964844 L 25.771484 15.681641 L 42.744141 15.681641 L 42.744141 14.755859 L 35.662109 14.755859 L 35.662109 13.892578 C 35.662109 13.426763 35.288066 13.054688 34.822266 13.054688 L 25.460938 13.054688 z M 26.302734 16.349609 L 24.181641 27.060547 L 28.671875 27.060547 L 28.671875 50.710938 L 40.462891 50.710938 L 40.462891 53.314453 L 41.503906 48.054688 L 41.535156 47.892578 L 51.189453 47.892578 L 51.189453 47.367188 L 47.160156 47.367188 L 47.160156 46.875 C 47.160156 46.610055 46.948546 46.398437 46.683594 46.398438 L 41.359375 46.398438 C 41.09443 46.398438 40.882812 46.610051 40.882812 46.875 L 40.882812 47.365234 L 40.462891 47.365234 L 40.462891 50.359375 L 29.023438 50.359375 L 29.023438 37.724609 L 40.462891 37.724609 L 40.462891 40.605469 L 41.503906 35.345703 L 41.535156 35.185547 L 51.189453 35.185547 L 51.189453 34.658203 L 47.160156 34.658203 L 47.160156 34.167969 C 47.160156 33.903024 46.948505 33.691406 46.683594 33.691406 L 41.359375 33.691406 C 41.09443 33.691406 40.882812 33.903054 40.882812 34.167969 L 40.882812 34.658203 L 40.462891 34.658203 L 40.462891 37.375 L 29.023438 37.375 L 29.023438 27.060547 L 43.044922 27.060547 L 45.166016 16.349609 L 26.302734 16.349609 z M 41.837891 35.564453 L 40.632812 41.658203 L 51.361328 41.658203 L 52.566406 35.564453 L 41.837891 35.564453 z M 41.837891 48.273438 L 40.632812 54.365234 L 51.361328 54.365234 L 52.566406 48.273438 L 41.837891 48.273438 z "
       transform="matrix(0.26458333,0,0,0.26458333,-28.004197,31.712856)"
       id="path895" />
  </g>
</svg>
