<?xml version="1.0" encoding="UTF-8" standalone="no"?>
<svg
   xmlns:dc="http://purl.org/dc/elements/1.1/"
   xmlns:cc="http://creativecommons.org/ns#"
   xmlns:rdf="http://www.w3.org/1999/02/22-rdf-syntax-ns#"
   xmlns:svg="http://www.w3.org/2000/svg"
   xmlns="http://www.w3.org/2000/svg"
   id="svg4"
   version="1.1"
   height="24"
   width="24">
  <metadata
     id="metadata10">
    <rdf:RDF>
      <cc:Work
         rdf:about="">
        <dc:format>image/svg+xml</dc:format>
        <dc:type
           rdf:resource="http://purl.org/dc/dcmitype/StillImage" />
        <dc:title></dc:title>
      </cc:Work>
    </rdf:RDF>
  </metadata>
  <defs
     id="defs8" />
  <path
     style="stroke-width:0.01339286;fill:#ffffff"
     id="path2"
     d="M 24,8.223214 V 18.857143 C 24,20.035714 23.035714,21 21.857143,21 H 2.1428571 C 0.96428571,21 0,20.035714 0,18.857143 V 8.223214 c 0.40178571,0.441965 0.85714286,0.830357 1.3526786,1.165179 2.2232143,1.513393 4.4732143,3.026786 6.65625,4.620536 1.125,0.830357 2.5178574,1.848214 3.9776784,1.848214 h 0.02679 c 1.459821,0 2.852678,-1.017857 3.977678,-1.848214 2.183036,-1.580358 4.433036,-3.107143 6.669643,-4.620536 0.482143,-0.334822 0.9375,-0.723214 1.339286,-1.165179 z m 0,-3.9374997 c 0,1.5 -1.111607,2.8526787 -2.290179,3.6696427 -2.089285,1.446429 -4.191964,2.892857 -6.267857,4.352679 -0.870535,0.602678 -2.34375,1.834821 -3.428571,1.834821 h -0.02679 c -1.084821,0 -2.5580356,-1.232143 -3.4285713,-1.834821 C 6.4821429,10.848214 4.3794643,9.401786 2.3035714,7.955357 1.3526786,7.3125 0,5.7991071 0,4.5803571 c 0,-1.3125 0.70982143,-2.4375 2.1428571,-2.4375 H 21.857143 C 23.022321,2.1428571 24,3.1071429 24,4.2857143 Z" />
</svg>
