<?xml version="1.0" encoding="UTF-8" standalone="no"?>
<svg
   xmlns:dc="http://purl.org/dc/elements/1.1/"
   xmlns:cc="http://creativecommons.org/ns#"
   xmlns:rdf="http://www.w3.org/1999/02/22-rdf-syntax-ns#"
   xmlns:svg="http://www.w3.org/2000/svg"
   xmlns="http://www.w3.org/2000/svg"
   xmlns:sodipodi="http://sodipodi.sourceforge.net/DTD/sodipodi-0.dtd"
   xmlns:inkscape="http://www.inkscape.org/namespaces/inkscape"
   width="110"
   height="110"
   version="1.1"
   xml:space="preserve"
   style="clip-rule:evenodd;fill-rule:evenodd;stroke-linejoin:round;stroke-miterlimit:1.41420996"
   id="svg25"
   sodipodi:docname="icon-reddit.svg"
   inkscape:version="0.92.2 5c3e80d, 2017-08-06"><metadata
     id="metadata31"><rdf:RDF><cc:Work
         rdf:about=""><dc:format>image/svg+xml</dc:format><dc:type
           rdf:resource="http://purl.org/dc/dcmitype/StillImage" /><dc:title></dc:title></cc:Work></rdf:RDF></metadata><defs
     id="defs29" /><sodipodi:namedview
     pagecolor="#ffffff"
     bordercolor="#666666"
     borderopacity="1"
     objecttolerance="10"
     gridtolerance="10"
     guidetolerance="10"
     inkscape:pageopacity="0"
     inkscape:pageshadow="2"
     inkscape:window-width="2560"
     inkscape:window-height="1357"
     id="namedview27"
     showgrid="false"
     inkscape:zoom="4.9838836"
     inkscape:cx="49.180962"
     inkscape:cy="24.3887"
     inkscape:window-x="0"
     inkscape:window-y="0"
     inkscape:window-maximized="1"
     inkscape:current-layer="Artwork" /><g
     id="Artwork"><g
       id="g16" /><path
       style="fill:#ffffff"
       d="M 59 10.042969 A 44.957001 44.957001 0 0 0 14.042969 55 A 44.957001 44.957001 0 0 0 59 99.957031 A 44.957001 44.957001 0 0 0 103.95703 55 A 44.957001 44.957001 0 0 0 59 10.042969 z M 77.777344 27.853516 C 80.352344 27.853516 82.443359 29.946484 82.443359 32.521484 C 82.443359 35.097484 80.352344 37.189453 77.777344 37.189453 C 75.255344 37.189453 73.217375 35.204328 73.109375 32.736328 L 63.345703 30.644531 L 60.341797 44.699219 C 67.208797 44.967219 73.378766 47.060297 77.884766 50.279297 C 79.064766 49.152297 80.673359 48.455078 82.443359 48.455078 C 86.038359 48.455078 88.988281 51.352 88.988281 55 C 88.988281 57.682 87.379953 59.989766 85.126953 61.009766 C 85.233953 61.652766 85.287109 62.350141 85.287109 62.994141 C 85.287109 73.133141 73.539687 81.287109 59.054688 81.287109 C 44.569687 81.287109 32.820312 73.079141 32.820312 62.994141 C 32.820312 62.296141 32.872469 61.652766 32.980469 61.009766 C 30.726469 59.989766 29.117188 57.736688 29.117188 55.054688 C 29.117188 51.459688 32.014109 48.509766 35.662109 48.509766 C 37.432109 48.509766 39.042656 49.205031 40.222656 50.332031 C 44.782656 47.059031 51.059203 44.968906 58.033203 44.753906 L 61.361328 29.087891 C 61.414328 28.765891 61.57575 28.498891 61.84375 28.337891 C 62.05875 28.176891 62.379172 28.121781 62.701172 28.175781 L 73.591797 30.482422 C 74.342797 28.926422 75.953344 27.853516 77.777344 27.853516 z M 48.699219 55 C 46.123219 55 44.03125 57.092969 44.03125 59.667969 C 44.03125 62.242969 46.123219 64.388937 48.699219 64.335938 C 51.274219 64.335938 53.367188 62.242969 53.367188 59.667969 C 53.367188 57.092969 51.274219 55 48.699219 55 z M 69.300781 55.054688 C 66.725781 55.054688 64.632812 57.145703 64.632812 59.720703 C 64.632812 62.295703 66.725781 64.388672 69.300781 64.388672 C 71.876781 64.388672 73.96875 62.241703 73.96875 59.720703 C 73.96875 57.145703 71.876781 55.054688 69.300781 55.054688 z M 48.806641 69.982422 C 48.498141 69.982422 48.188766 70.10275 47.947266 70.34375 C 47.465266 70.82675 47.465266 71.577547 47.947266 72.060547 C 51.113266 75.225547 57.230688 75.494141 59.054688 75.494141 C 60.824688 75.494141 66.939203 75.279547 70.158203 72.060547 C 70.587203 71.577547 70.587203 70.82675 70.158203 70.34375 C 69.675203 69.86175 68.924406 69.86175 68.441406 70.34375 C 66.456406 72.38275 62.112687 73.078125 59.054688 73.078125 C 55.996688 73.078125 51.703063 72.38275 49.664062 70.34375 C 49.422562 70.10275 49.115141 69.982422 48.806641 69.982422 z "
       id="circle18" /></g></svg>