<?xml version="1.0" encoding="UTF-8" standalone="no"?>
<svg
   xmlns:dc="http://purl.org/dc/elements/1.1/"
   xmlns:cc="http://creativecommons.org/ns#"
   xmlns:rdf="http://www.w3.org/1999/02/22-rdf-syntax-ns#"
   xmlns:svg="http://www.w3.org/2000/svg"
   xmlns="http://www.w3.org/2000/svg"
   id="svg4"
   version="1.1"
   height="24"
   width="24">
  <metadata
     id="metadata10">
    <rdf:RDF>
      <cc:Work
         rdf:about="">
        <dc:format>image/svg+xml</dc:format>
        <dc:type
           rdf:resource="http://purl.org/dc/dcmitype/StillImage" />
        <dc:title></dc:title>
      </cc:Work>
    </rdf:RDF>
  </metadata>
  <defs
     id="defs8" />
  <path
     style="stroke-width:0.01522843;fill:#ffffff"
     id="path2"
     d="m 24,3.8223 c -0.670051,0.9747 -1.507614,1.8427 -2.467005,2.5432 0.01523,0.2132 0.01523,0.4264 0.01523,0.6396 C 21.548225,13.5076 16.598987,21 7.5533015,21 4.7664995,21 2.177667,20.1929 2e-6,18.7919 c 0.39593909,0.046 0.77664975,0.061 1.1878173,0.061 2.2994923,0 4.4162436,-0.7767 6.1065989,-2.1015 -2.1624365,-0.046 -3.9746192,-1.462 -4.5989847,-3.4112 0.3045685,0.046 0.609137,0.076 0.928934,0.076 0.4416243,0 0.8832487,-0.061 1.2944162,-0.1675 C 2.6649766,12.7919 0.97462129,10.8122 0.97462129,8.4213 V 8.3603 C 1.6294436,8.7258 2.3908649,8.9542 3.1979715,8.9847 1.8730984,8.1014 1.0050781,6.5938 1.0050781,4.8882 1.0050781,3.9745 1.248733,3.137 1.6751289,2.406 4.0964487,5.3908 7.7360426,7.34 11.817261,7.5532 11.741121,7.1877 11.695433,6.807 11.695433,6.4263 c 0,-2.7107 2.192894,-4.9188 4.918782,-4.9188 1.416244,0 2.695432,0.5939 3.593909,1.5533 1.111675,-0.2132 2.177665,-0.6244 3.121827,-1.1878 -0.365482,1.1421 -1.142132,2.1015 -2.162436,2.7107 0.989847,-0.1066 1.949238,-0.3808 2.832487,-0.7615 z" />
</svg>
