<?xml version="1.0" encoding="UTF-8" standalone="no"?>
<!-- Created with Inkscape (http://www.inkscape.org/) -->

<svg
   xmlns:dc="http://purl.org/dc/elements/1.1/"
   xmlns:cc="http://creativecommons.org/ns#"
   xmlns:rdf="http://www.w3.org/1999/02/22-rdf-syntax-ns#"
   xmlns:svg="http://www.w3.org/2000/svg"
   xmlns="http://www.w3.org/2000/svg"
   xmlns:sodipodi="http://sodipodi.sourceforge.net/DTD/sodipodi-0.dtd"
   xmlns:inkscape="http://www.inkscape.org/namespaces/inkscape"
   version="1.1"
   id="svg2"
   xml:space="preserve"
   width="1365.3333"
   height="1365.3333"
   viewBox="0 0 1365.3333 1365.3333"
   sodipodi:docname="icon-facebook.svg"
   inkscape:version="0.92.2 5c3e80d, 2017-08-06"><metadata
     id="metadata8"><rdf:RDF><cc:Work
         rdf:about=""><dc:format>image/svg+xml</dc:format><dc:type
           rdf:resource="http://purl.org/dc/dcmitype/StillImage" /><dc:title></dc:title></cc:Work></rdf:RDF></metadata><defs
     id="defs6" /><sodipodi:namedview
     pagecolor="#ffffff"
     bordercolor="#666666"
     borderopacity="1"
     objecttolerance="10"
     gridtolerance="10"
     guidetolerance="10"
     inkscape:pageopacity="0"
     inkscape:pageshadow="2"
     inkscape:window-width="2560"
     inkscape:window-height="1357"
     id="namedview4"
     showgrid="false"
     inkscape:zoom="0.17285157"
     inkscape:cx="682.66662"
     inkscape:cy="682.66662"
     inkscape:window-x="0"
     inkscape:window-y="0"
     inkscape:window-maximized="1"
     inkscape:current-layer="g10" /><g
     id="g10"
     inkscape:groupmode="layer"
     inkscape:label="ink_ext_XXXXXX"
     transform="matrix(1.3333333,0,0,-1.3333333,0,1365.3333)"><path
       style="fill:#ffffff;fill-opacity:1;fill-rule:nonzero;stroke:none;stroke-width:0.13333333"
       d="M 75.355469 0 C 33.737203 0 0 33.738136 0 75.355469 L 0 1289.9766 C 0 1331.5911 33.725736 1365.334 75.355469 1365.334 L 729.33398 1365.334 L 729.33398 837.33398 L 552 837.33398 L 552 630.66602 L 729.33398 630.66602 L 729.33398 478.57812 C 729.33398 302.2288 837.03113 206.20313 994.3418 206.20312 C 1069.6925 206.20312 1134.4567 211.81427 1153.334 214.32227 L 1153.334 398.61719 L 1044.8438 398.66602 C 959.24242 398.66602 942.66602 439.34316 942.66602 499.03516 L 942.66602 630.66602 L 1147.3164 630.66602 L 1120.668 837.33398 L 942.66602 837.33398 L 942.66602 1365.334 L 1289.9785 1365.334 C 1331.5958 1365.334 1365.334 1331.5957 1365.334 1289.9785 L 1365.334 75.353516 C 1365.334 33.737517 1331.5958 0 1289.9785 0 L 75.355469 0 z "
       transform="matrix(0.75000002,0,0,-0.75000002,0,1024)"
       id="path14" /></g></svg>