<?xml version="1.0" encoding="UTF-8" standalone="no"?>
<svg
   xmlns:dc="http://purl.org/dc/elements/1.1/"
   xmlns:cc="http://creativecommons.org/ns#"
   xmlns:rdf="http://www.w3.org/1999/02/22-rdf-syntax-ns#"
   xmlns:svg="http://www.w3.org/2000/svg"
   xmlns="http://www.w3.org/2000/svg"
   xmlns:sodipodi="http://sodipodi.sourceforge.net/DTD/sodipodi-0.dtd"
   xmlns:inkscape="http://www.inkscape.org/namespaces/inkscape"
   id="svg4"
   version="1.1"
   height="24"
   width="24"
   sodipodi:docname="icon-libera.svg"
   inkscape:version="0.92.2 5c3e80d, 2017-08-06">
  <sodipodi:namedview
     pagecolor="#ffffff"
     bordercolor="#666666"
     borderopacity="1"
     objecttolerance="10"
     gridtolerance="10"
     guidetolerance="10"
     inkscape:pageopacity="0"
     inkscape:pageshadow="2"
     inkscape:window-width="1920"
     inkscape:window-height="1015"
     id="namedview6"
     showgrid="false"
     inkscape:zoom="13.906433"
     inkscape:cx="2.6594778"
     inkscape:cy="18.245416"
     inkscape:window-x="0"
     inkscape:window-y="0"
     inkscape:window-maximized="1"
     inkscape:current-layer="svg4" />
  <metadata
     id="metadata10">
    <rdf:RDF>
      <cc:Work
         rdf:about="">
        <dc:format>image/svg+xml</dc:format>
        <dc:type
           rdf:resource="http://purl.org/dc/dcmitype/StillImage" />
        <dc:title></dc:title>
      </cc:Work>
    </rdf:RDF>
  </metadata>
  <defs
     id="defs8" />
  <path
     style="fill:#ffffff;fill-opacity:1;stroke:none;stroke-width:1.06761706px;stroke-linecap:butt;stroke-linejoin:miter;stroke-opacity:1"
     d="m 13.919414,3.5587 -1.002976,8.017554 0.959188,-1.094725 0.108429,0.181412 1.845394,-6.5391546 A 10.219267,10.219267 0 0 0 13.919414,3.5587 Z m -3.915985,0.018767 A 10.219267,10.219267 0 0 0 8.1163326,4.1467234 l 2.8504544,9.6502576 0.496274,-0.563001 z m 9.168578,2.7461948 -3.995223,6.3264655 0.492105,0.819479 4.873089,-5.4798781 A 10.219267,10.219267 0 0 0 19.172007,6.3236615 Z M 4.7174737,6.4341765 A 10.219267,10.219267 0 0 0 3.4392524,8.0272613 l 5.5570303,5.9865797 0.4337194,-0.54215 z M 13.767196,11.004912 10.943849,14.274489 9.6697989,13.73234 5.5202716,19.043317 h 0.7840313 l 3.5594186,-4.554054 1.2531985,0.533809 2.562698,-2.967225 4.218339,6.98747 h 0.72356 z M 1.9712789,11.649236 a 10.219267,10.219267 0 0 0 -0.1897522,1.924629 l 5.8155937,2.183194 0.4941899,-0.617216 z m 20.0887161,0.154303 -5.509071,3.13821 0.477509,0.796543 5.17961,-1.953822 a 10.219267,10.219267 0 0 0 0.01043,-0.193923 10.219267,10.219267 0 0 0 -0.158474,-1.787008 z M 13.735919,12.693916 11.252458,15.544369 9.924192,15.00222 6.6921481,19.062084 H 17.453811 Z m -11.1515943,4.84181 a 10.219267,10.219267 0 0 0 1.0092317,1.847478 l 1.3532881,-0.32112 1.2240063,-1.526358 z m 15.5471733,0.0417 0.87578,1.459633 1.43461,0.308608 a 10.219267,10.219267 0 0 0 0.952932,-1.743218 z"
     id="path846"
     inkscape:connector-curvature="0" />
</svg>
