<?xml version="1.0" encoding="UTF-8" standalone="no"?>
<svg
   xmlns:dc="http://purl.org/dc/elements/1.1/"
   xmlns:cc="http://creativecommons.org/ns#"
   xmlns:rdf="http://www.w3.org/1999/02/22-rdf-syntax-ns#"
   xmlns:svg="http://www.w3.org/2000/svg"
   xmlns="http://www.w3.org/2000/svg"
   id="svg4"
   version="1.1"
   viewBox="0 0 24 24"
   height="24"
   width="24">
  <metadata
     id="metadata10">
    <rdf:RDF>
      <cc:Work
         rdf:about="">
        <dc:format>image/svg+xml</dc:format>
        <dc:type
           rdf:resource="http://purl.org/dc/dcmitype/StillImage" />
        <dc:title></dc:title>
      </cc:Work>
    </rdf:RDF>
  </metadata>
  <defs
     id="defs8" />
  <path
     style="stroke-width:0.01457473;fill:#ffffff"
     id="path2"
     d="m 22.910213,14.3879 c -0.329083,1.693 -2.94736,3.5458 -5.954505,3.9049 -1.568066,0.1871 -3.111981,0.3591 -4.758299,0.2836 -2.6923598,-0.1234 -4.8168595,-0.6427 -4.8168595,-0.6427 0,0.2621 0.016178,0.5117 0.048505,0.7451 0.3500121,2.6571 2.6347025,2.8162 4.7988885,2.8905 2.184344,0.075 4.129327,-0.5386 4.129327,-0.5386 l 0.08974,1.9747 c 0,0 -1.527825,0.8205 -4.249611,0.9714 -1.500818,0.082 -3.3643716,-0.038 -5.5348837,-0.6123 C 1.955068,22.1185 1.1489398,17.1005 1.0216004,12.0091 0.98382273,10.4974 1.0070694,9.072 1.0071423,7.8798 1.007288,2.6734 4.4183426,1.1474 4.4183426,1.1474 6.1383207,0.3574 9.0897175,0.0252 12.158003,2e-4 h 0.0754 c 3.068272,0.025 6.021578,0.3572 7.741469,1.1472 0,0 3.411069,1.526 3.411069,6.7324 0,0 0.04278,3.8412 -0.475719,6.5081 z M 19.362301,8.2836 c 0,-1.2884 -0.316431,-2.3224 -0.986854,-3.0697 -0.67962,-0.7574 -1.569509,-1.1457 -2.674026,-1.1457 -1.278188,0 -2.246023,0.4912 -2.885825,1.4738 L 12.193387,6.5848 11.571294,5.542 C 10.931361,4.5594 9.9635118,4.0682 8.685454,4.0682 7.5808063,4.0682 6.6909172,4.4565 6.0114288,5.2139 5.3525054,5.9714 5.0244575,6.9952 5.0244575,8.2836 v 6.304 H 7.5219681 V 8.469 c 0,-1.2899 0.5426754,-1.9445 1.6281865,-1.9445 1.2002284,0 1.8018734,0.7766 1.8018734,2.3122 v 3.3491 h 2.482805 V 8.8367 c 0,-1.5356 0.601528,-2.3122 1.801728,-2.3122 1.085496,0 1.628215,0.6546 1.628215,1.9445 v 6.1187 h 2.497496 v -6.304 z" />
</svg>
