<?xml version="1.0" encoding="UTF-8" standalone="no"?>
<svg
   xmlns:dc="http://purl.org/dc/elements/1.1/"
   xmlns:cc="http://creativecommons.org/ns#"
   xmlns:rdf="http://www.w3.org/1999/02/22-rdf-syntax-ns#"
   xmlns:svg="http://www.w3.org/2000/svg"
   xmlns="http://www.w3.org/2000/svg"
   id="svg4"
   version="1.1"
   height="24"
   width="24">
  <metadata
     id="metadata10">
    <rdf:RDF>
      <cc:Work
         rdf:about="">
        <dc:format>image/svg+xml</dc:format>
        <dc:type
           rdf:resource="http://purl.org/dc/dcmitype/StillImage" />
        <dc:title></dc:title>
      </cc:Work>
    </rdf:RDF>
  </metadata>
  <defs
     id="defs8" />
  <path
     style="stroke-width:0.01389291;fill:#ffffff"
     id="path2"
     d="M 13.319826,13.1085 14.208973,9.552 H 10.680174 L 9.7910275,13.1085 Z M 23.98958,6.1065 23.211577,9.2185 C 23.156007,9.413 22.989291,9.552 22.780897,9.552 h -4.542981 l -0.889146,3.5565 h 4.320695 c 0.138929,0 0.263965,0.07 0.347322,0.1668 0.08336,0.1111 0.125036,0.25 0.08336,0.389 l -0.778003,3.112 c -0.04168,0.1945 -0.222287,0.3334 -0.43068,0.3334 H 16.34848 l -1.125325,4.5569 C 15.167585,21.8611 14.986975,22 14.792475,22 h -3.112012 c -0.138929,0 -0.277858,-0.07 -0.361216,-0.1667 -0.08336,-0.1112 -0.111143,-0.2501 -0.08336,-0.389 l 1.083647,-4.3346 H 8.7907381 L 7.6654124,21.6666 C 7.6098408,21.8611 7.429233,22 7.2347323,22 H 4.1088278 C 3.9837916,22 3.8448625,21.93 3.7615051,21.8333 3.6781481,21.7221 3.6503618,21.5832 3.6781481,21.4443 L 4.761795,17.1097 H 0.44109986 c -0.13892909,0 -0.26396527,-0.07 -0.34732273,-0.1667 -0.08335745,-0.1112 -0.11114327,-0.2501 -0.08335745,-0.389 l 0.7780029,-3.112 C 0.84399418,13.2475 1.0107091,13.1085 1.2191027,13.1085 H 5.7620839 L 6.6512301,9.552 H 2.3305355 C 2.1916064,9.552 2.0665702,9.483 1.9832127,9.3852 1.8998557,9.2741 1.8581766,9.1352 1.8998557,8.9962 L 2.6778586,5.8842 C 2.7195376,5.6897 2.9001451,5.5508 3.1085388,5.5508 H 7.6515199 L 8.7768456,0.9939 C 8.8324176,0.7994 9.013025,0.6605 9.2214186,0.6605 H 12.33343 c 0.125036,0 0.263965,0.07 0.347323,0.1667 0.08336,0.1112 0.111143,0.2501 0.08336,0.389 l -1.083647,4.3346 h 3.528799 l 1.125326,-4.5569 c 0.05557,-0.1945 0.236179,-0.3334 0.444573,-0.3334 h 3.112011 c 0.125036,0 0.263965,0.07 0.347323,0.1667 0.08336,0.1112 0.111143,0.2501 0.08336,0.389 L 19.238211,5.5508 H 23.5589 c 0.138929,0 0.263965,0.07 0.347323,0.1667 0.08336,0.1112 0.111143,0.2501 0.08336,0.389 z" />
</svg>
