<?xml version="1.0" encoding="UTF-8" standalone="no"?>
<svg
   xmlns:dc="http://purl.org/dc/elements/1.1/"
   xmlns:cc="http://creativecommons.org/ns#"
   xmlns:rdf="http://www.w3.org/1999/02/22-rdf-syntax-ns#"
   xmlns:svg="http://www.w3.org/2000/svg"
   xmlns="http://www.w3.org/2000/svg"
   id="svg4"
   version="1.1"
   viewBox="0 0 24 24"
   height="24"
   width="24">
  <metadata
     id="metadata10">
    <rdf:RDF>
      <cc:Work
         rdf:about="">
        <dc:format>image/svg+xml</dc:format>
        <dc:type
           rdf:resource="http://purl.org/dc/dcmitype/StillImage" />
        <dc:title></dc:title>
      </cc:Work>
    </rdf:RDF>
  </metadata>
  <defs
     id="defs8" />
  <path
     style="stroke-width:0.015625;fill:#ffffff"
     id="path2"
     d="M 0.63229687,0.5493 V 23.4508 H 2.28 V 24 H 0 V 0 H 2.28 V 0.5493 Z M 7.675375,7.8093 V 8.9677 H 7.707703 C 8.0169218,8.5246 8.3907812,8.1831 8.8246249,7.9431 9.258453,7.6985 9.7615468,7.5785 10.324625,7.5785 c 0.54,0 1.033828,0.1061 1.481531,0.3138 0.447688,0.2077 0.784625,0.5816 1.02,1.1077 0.253844,-0.3738 0.6,-0.7062 1.033844,-0.9923 0.433844,-0.2862 0.95075,-0.4292 1.546156,-0.4292 0.452313,0 0.872313,0.055 1.26,0.1661 0.387688,0.1108 0.715391,0.2862 0.992313,0.5308 0.276906,0.2446 0.489218,0.5584 0.646156,0.9508 0.152297,0.3923 0.23075,0.863 0.23075,1.4169 v 5.7277 H 16.186156 V 11.52 c 0,-0.2862 -0.0092,-0.5585 -0.03231,-0.8123 -0.02306,-0.2539 -0.08306,-0.4754 -0.18,-0.66 C 15.872299,9.8585 15.729221,9.7108 15.535377,9.6 15.341549,9.4893 15.078471,9.4338 14.750783,9.4338 c -0.332312,0 -0.6,0.065 -0.803078,0.1893 -0.203078,0.1292 -0.364625,0.2907 -0.48,0.4984 -0.115406,0.2031 -0.193859,0.4339 -0.230781,0.697 -0.03692,0.2584 -0.06,0.5215 -0.06,0.7846 v 4.7677 h -2.34925 v -4.8 c 0,-0.2539 -0.0046,-0.5031 -0.01844,-0.7523 -0.0092,-0.2493 -0.06,-0.4754 -0.143078,-0.6877 C 10.583076,9.9231 10.444625,9.7523 10.250766,9.6277 10.056922,9.5031 9.7753749,9.4385 9.3969218,9.4385 c -0.11075,0 -0.2584688,0.023 -0.4384688,0.074 -0.18,0.051 -0.36,0.1431 -0.53075,0.2816 -0.1707812,0.1384 -0.3184843,0.3369 -0.4384843,0.5953 -0.12,0.2585 -0.18,0.6 -0.18,1.02 v 4.9662 H 5.46 V 7.8095 Z M 23.367703,23.4508 V 0.5493 H 21.72 V 0 H 24 v 24 h -2.28 v -0.5492 z" />
</svg>
