<?xml version="1.0" encoding="UTF-8" standalone="no"?>
<svg
   xmlns:dc="http://purl.org/dc/elements/1.1/"
   xmlns:cc="http://creativecommons.org/ns#"
   xmlns:rdf="http://www.w3.org/1999/02/22-rdf-syntax-ns#"
   xmlns:svg="http://www.w3.org/2000/svg"
   xmlns="http://www.w3.org/2000/svg"
   xmlns:sodipodi="http://sodipodi.sourceforge.net/DTD/sodipodi-0.dtd"
   xmlns:inkscape="http://www.inkscape.org/namespaces/inkscape"
   version="1.1"
   width="176"
   height="91"
   id="svg1"
   sodipodi:docname="Xfce_logo-footprint.svg"
   inkscape:version="0.92.2 5c3e80d, 2017-08-06">
  <metadata
     id="metadata14">
    <rdf:RDF>
      <cc:Work
         rdf:about="">
        <dc:format>image/svg+xml</dc:format>
        <dc:type
           rdf:resource="http://purl.org/dc/dcmitype/StillImage" />
      </cc:Work>
    </rdf:RDF>
  </metadata>
  <defs
     id="defs12" />
  <sodipodi:namedview
     pagecolor="#ffffff"
     bordercolor="#666666"
     borderopacity="1"
     objecttolerance="10"
     gridtolerance="10"
     guidetolerance="10"
     inkscape:pageopacity="0"
     inkscape:pageshadow="2"
     inkscape:window-width="2560"
     inkscape:window-height="1371"
     id="namedview10"
     showgrid="false"
     inkscape:zoom="6.1229019"
     inkscape:cx="180.87143"
     inkscape:cy="27.084863"
     inkscape:window-x="0"
     inkscape:window-y="0"
     inkscape:window-maximized="1"
     inkscape:current-layer="svg1" />
  <path
     style="fill:#020202;stroke:none;stroke-width:1pt"
     d="M 1.6210938 0.91601562 C 0.70609352 1.4170156 8.9400783 6.7870469 24.330078 13.123047 C 39.721078 19.459047 60.981453 35.513469 59.314453 38.105469 C 54.315453 45.146469 51.37125 53.568188 53.40625 67.992188 C 53.77325 70.531188 45.881078 74.936578 46.455078 78.767578 C 46.935078 81.682578 55.273547 75.883297 56.185547 77.029297 C 56.743547 79.086297 51.722953 89.492328 53.751953 90.236328 C 55.235953 90.677328 68.286922 77.856313 69.044922 78.070312 C 90.558922 84.574314 118.5498 79.666938 119.0918 79.460938 C 119.0408 79.347938 139.23133 88.950734 140.98633 87.802734 C 145.41333 83.008734 132.59347 76.253687 134.73047 73.554688 C 135.66747 72.141687 150.34341 78.863297 151.06641 77.029297 C 152.11841 73.854297 144.25527 67.187891 143.07227 65.212891 C 142.04327 63.391891 141.82194 60.449375 144.46094 58.609375 C 147.10094 56.769375 174.09098 46.441172 172.95898 38.451172 C 171.00198 23.933172 138.72608 22.991531 138.20508 21.769531 C 137.96008 21.195531 139.62989 1.0112344 130.21289 4.7402344 C 124.41489 6.8982344 129.14258 19.758875 129.51758 21.421875 C 129.86358 22.952875 126.94164 22.789188 126.39062 22.117188 C 125.16062 20.615187 121.10055 7.2114691 116.31055 9.6054688 C 109.59255 13.309469 115.91422 24.871094 114.57422 25.246094 C 112.08522 26.637094 112.22742 30.032781 110.23242 32.800781 C 106.94242 37.515781 82.319328 30.591375 74.361328 30.109375 C 68.535328 29.765375 62.967406 34.541594 62.441406 33.933594 C 55.347406 26.829594 40.670797 14.462516 24.591797 10.353516 C 15.574797 7.9065144 2.1590937 0.82601566 1.6210938 0.91601562 z M 165.83789 13.914062 C 165.30073 14.145895 163.13736 25.31075 164.18555 25.820312 C 165.11455 26.515313 166.73277 14.543781 165.88477 13.925781 C 165.87098 13.909781 165.85522 13.906584 165.83789 13.914062 z M 173.81445 15.435547 C 172.59604 15.413197 166.08727 25.792141 167.58398 26.900391 C 168.51298 27.595391 174.31402 15.863703 173.91602 15.470703 C 173.88817 15.447672 173.85376 15.436268 173.81445 15.435547 z M 142.31445 28.076172 A 2.7870379 3.1731946 0 0 1 145.10156 31.248047 A 2.7870379 3.1731946 0 0 1 142.31445 34.421875 A 2.7870379 3.1731946 0 0 1 139.52734 31.248047 A 2.7870379 3.1731946 0 0 1 142.31445 28.076172 z M 136.05859 30.003906 C 137.24259 35.114906 139.09267 36.739172 144.63867 36.576172 C 137.57967 43.049172 133.28759 31.962906 136.05859 30.003906 z M 151.01367 43.371094 C 151.45302 43.335461 151.7893 43.396531 151.98242 43.582031 C 154.76342 44.590031 140.03159 49.891578 139.93359 49.142578 C 139.78572 48.626328 147.93827 43.620523 151.01367 43.371094 z M 152.82031 46.759766 C 152.97253 46.747956 153.10638 46.768234 153.21875 46.826172 C 155.84375 49.434172 144.90825 55.216672 145.03125 55.013672 C 144.15 54.481172 150.53706 46.936913 152.82031 46.759766 z "
     id="path14" />
</svg>
