<?xml version="1.0" encoding="UTF-8" standalone="no"?>
<!-- Generator: Adobe Illustrator 15.0.0, SVG Export Plug-In . SVG Version: 6.00 Build 0)  -->

<svg
   xmlns:dc="http://purl.org/dc/elements/1.1/"
   xmlns:cc="http://creativecommons.org/ns#"
   xmlns:rdf="http://www.w3.org/1999/02/22-rdf-syntax-ns#"
   xmlns:svg="http://www.w3.org/2000/svg"
   xmlns="http://www.w3.org/2000/svg"
   xmlns:sodipodi="http://sodipodi.sourceforge.net/DTD/sodipodi-0.dtd"
   xmlns:inkscape="http://www.inkscape.org/namespaces/inkscape"
   version="1.1"
   id="svg4578"
   sodipodi:version="0.32"
   inkscape:version="0.48.3.1 r9886"
   sodipodi:docname="Bag design.svg"
   inkscape:output_extension="org.inkscape.output.svg.inkscape"
   x="0px"
   y="0px"
   width="441.02893"
   height="378.86826"
   viewBox="72.8 75.424 441.02896 378.86826"
   enable-background="new 72.8 75.424 248.4 157.156"
   xml:space="preserve"
   inkscape:export-filename="/home/jospoortvliet/bag design.png"
   inkscape:export-xdpi="599.96063"
   inkscape:export-ydpi="599.96063"><metadata
   id="metadata3245"><rdf:RDF><cc:Work
       rdf:about=""><dc:format>image/svg+xml</dc:format><dc:type
         rdf:resource="http://purl.org/dc/dcmitype/StillImage" /><dc:title></dc:title></cc:Work></rdf:RDF></metadata><defs
   id="defs3243" />
<sodipodi:namedview
   inkscape:window-y="397"
   inkscape:window-x="0"
   inkscape:window-height="1023"
   inkscape:window-width="1920"
   inkscape:showpageshadow="false"
   inkscape:current-layer="layer1"
   inkscape:document-units="px"
   inkscape:pageshadow="2"
   inkscape:pageopacity="0.0"
   width="400px"
   height="300px"
   id="base"
   objecttolerance="10"
   guidetolerance="10"
   gridtolerance="10000"
   borderopacity="1"
   inkscape:cy="184.0682"
   bordercolor="#d6d6d6"
   inkscape:cx="437.61181"
   pagecolor="#ffffff"
   inkscape:zoom="1.6171875"
   borderlayer="true"
   showgrid="false"
   inkscape:snap-smooth-nodes="true"
   inkscape:object-nodes="true"
   inkscape:object-paths="true"
   inkscape:window-maximized="1"
   fit-margin-top="0"
   fit-margin-left="0"
   fit-margin-right="0"
   fit-margin-bottom="0">
	</sodipodi:namedview>
<g
   id="layer1"
   inkscape:groupmode="layer"
   inkscape:label="Layer 1"
   style="display:inline"
   transform="translate(-457.31815,534.90793)">
	
<g
   id="g4280"
   transform="matrix(1.0097094,0,0,1.1354413,631.10342,-312.1573)"
   style="fill:#000000;stroke:#fffff9;stroke-width:1;stroke-opacity:1"><path
     style="fill:#000000;fill-opacity:1;fill-rule:nonzero;stroke:#fffff9;stroke-width:1.0707314;stroke-opacity:1"
     d="m 788.25,358.46875 c -3.10887,0.033 -6.29539,0.68681 -9.53125,2 -28.87237,11.71715 -42.75979,49.963 -41.59375,82.28125 1.63244,45.24517 24.38292,90.93943 59.71875,113.90625 3.89613,2.53232 12.52797,2.86015 4.6875,-3.84375 -35.2653,-30.15316 -62.26941,-82.09638 -52.34375,-132.78125 3.90815,-19.95677 13.45442,-42.936 31.75,-50.6875 18.52421,-7.84836 30.88447,13.32814 27.40625,33.09375 -1.58174,8.98852 0.10321,12.29562 2.6875,12.5625 3.35889,0.34688 15.4801,-19.35814 17.375,-23.1875 10.74001,-21.43794 38.96647,-17.31011 50.78125,-2.15625 17.05196,21.87117 11.67881,55.49081 1.09375,79.84375 -20.95285,48.20604 -54.60827,87.85419 -80.875,132.1875 -20.08266,33.89577 -26.8726,84.76002 -1.96875,117.5 19.60222,25.77017 61.34429,21.68174 79.34375,-7.4375 11.90153,-19.25412 24.89376,-54.29616 1,-68.625 -22.6558,-13.58644 -49.39449,6.19455 -54.125,32.9375 -5.50038,31.09525 40.51144,32.72973 41.61353,6.73022 0.4014,-9.46961 -1.62001,-7.44 -3.31417,-1.03796 -1.87981,7.10364 -13.30351,16.81754 -22.67436,13.05773 -20.52897,-8.23672 1.09089,-49.50272 20.6875,-51.71875 20.7299,-2.34419 24.78222,26.11819 18.40625,43.125 -8.45244,22.54541 -26.97955,47.03538 -51.53125,40.59375 -25.41578,-6.66833 -35.17796,-37.77923 -34.5,-63.71875 1.18548,-45.35797 30.10807,-79.68484 52.5,-114.125 24.64065,-37.89883 53.32535,-78.07588 52.96875,-128.28125 -0.20845,-29.34799 -20.44805,-51.78631 -46.09375,-52.84375 -12.79144,-0.52742 -25.17142,6.4862 -33.0625,16.59375 -5.10932,-14.97629 -16.87626,-26.1122 -30.40625,-25.96874 z"
     transform="matrix(0.99038402,0,0,0.88071489,-552.93476,-444.99241)"
     id="path4276"
     inkscape:connector-curvature="0"
     sodipodi:nodetypes="ssssssssscssssssssssssssssscs" /></g><flowRoot
   xml:space="preserve"
   id="flowRoot5379"
   style="font-size:72px;font-style:normal;font-variant:normal;font-weight:bold;font-stretch:normal;line-height:125%;letter-spacing:0px;word-spacing:0px;fill:#000000;fill-opacity:1;stroke:none;font-family:ArdleysHand;-inkscape-font-specification:ArdleysHand Bold"><flowRegion
     id="flowRegion5381"><rect
       id="rect5383"
       width="348"
       height="357"
       x="990"
       y="525"
       style="font-size:72px;font-style:normal;font-variant:normal;font-weight:bold;font-stretch:normal;font-family:ArdleysHand;-inkscape-font-specification:ArdleysHand Bold" /></flowRegion><flowPara
     id="flowPara5385" /></flowRoot><g
   id="g5478"
   transform="translate(-718.14585,6.23978)"><path
     d="m 1261.0081,-316.42007 1.44,0 c 0.648,0 1.08,-0.072 1.08,-0.792 0,-1.008 -3.6,-12.88802 -3.6,-31.32001 0,-13.89599 3.816,-25.92 3.816,-26.64 0,-1.368 -1.8001,-1.152 -2.736,-1.152 l -7.7761,0 c -1.2239,0 -4.968,-1.29597 -4.968,34.272 0,26.99998 2.1601,25.63201 3.96,25.63201 l 8.7841,0"
     style="font-size:72.00000763px;font-style:normal;font-variant:normal;font-weight:bold;font-stretch:normal;line-height:125%;letter-spacing:0px;word-spacing:0px;fill:#629e1f;fill-opacity:1;stroke:none;font-family:Hobo Std;-inkscape-font-specification:Hobo Std Bold"
     id="path5424"
     inkscape:connector-curvature="0" /><path
     d="m 1275.2764,-377.40408 c -2.16,0 -3.528,1.224 -3.528,4.248 0,1.728 0.936,10.87201 1.44,16.272 0.144,1.152 1.008,2.232 2.088,2.232 1.08,0 1.944,-1.08 2.088,-2.232 0.504,-5.39999 1.44,-14.544 1.44,-16.272 0,-3.024 -1.368,-4.248 -3.528,-4.248"
     style="font-size:72.00000763px;font-style:normal;font-variant:normal;font-weight:bold;font-stretch:normal;line-height:125%;letter-spacing:0px;word-spacing:0px;fill:#629e1f;fill-opacity:1;stroke:none;font-family:Hobo Std;-inkscape-font-specification:Hobo Std Bold"
     id="path5426"
     inkscape:connector-curvature="0" /><path
     d="m 1311.1797,-362.50008 c -1.44,0 -2.16,-0.144 -2.16,1.512 0,2.232 0.432,4.248 0.432,6.768 0,14.03999 -4.68,23.904 -7.2,23.904 -1.656,0 -6.912,-6.98401 -6.912,-24.696 0,-3.168 0.36,-4.68 0.36,-6.336 0,-1.512 -2.088,-1.152 -3.096,-1.152 l -5.544,0 c -1.944,0 -2.232,0.144 -2.232,2.232 0,32.83197 14.472,44.92801 16.128,44.92801 2.376,0 18,-12.81604 18,-43.05601 0,-4.104 -0.504,-4.104 -3.024,-4.104 l -4.752,0"
     style="font-size:72.00000763px;font-style:normal;font-variant:normal;font-weight:bold;font-stretch:normal;line-height:125%;letter-spacing:0px;word-spacing:0px;fill:#629e1f;fill-opacity:1;stroke:none;font-family:Hobo Std;-inkscape-font-specification:Hobo Std Bold"
     id="path5428"
     inkscape:connector-curvature="0" /><path
     d="m 1340.1687,-315.34007 c 8.64,0 15.696,-5.25601 15.696,-14.40001 0,-0.576 -0.216,-4.32 -1.296,-4.32 -1.008,0 -1.008,9 -12.816,9 -3.6,0 -9.072,-2.448 -9.072,-5.832 0,-7.48799 23.184,-4.24801 23.184,-19.728 0,-8.49599 -6.696,-12.96 -14.616,-12.96 -9.648,0 -19.296,8.64002 -19.296,26.064 0,11.51999 5.328,22.17601 18.216,22.17601 m 0.72,-39.74401 c 2.736,0 6.048,1.94401 6.048,5.472 0,3.672 -13.104,6.552 -13.968,6.552 -0.936,0 -1.296,-0.792 -1.296,-1.584 0,-4.17599 3.384,-10.44 9.216,-10.44"
     style="font-size:72.00000763px;font-style:normal;font-variant:normal;font-weight:bold;font-stretch:normal;line-height:125%;letter-spacing:0px;word-spacing:0px;fill:#629e1f;fill-opacity:1;stroke:none;font-family:Hobo Std;-inkscape-font-specification:Hobo Std Bold"
     id="path5430"
     inkscape:connector-curvature="0" /><path
     d="m 1399.3853,-342.05208 c -4.248,0 -6.984,-3.096 -6.984,-7.344 0,-4.60799 3.096,-7.344 6.984,-7.344 3.888,0 6.984,2.73601 6.984,7.344 0,4.608 -3.096,7.344 -6.984,7.344 m 0,-21.528 c -9.648,0 -15.48,5.68801 -15.48,15.12 0,7.776 5.184,10.94401 5.184,12.672 0,2.016 -8.208,2.80801 -8.208,11.232 0,5.904 4.68,9.21601 10.368,9.21601 2.736,0 5.184,-0.93601 7.488,-1.8 2.376,-0.936 4.608,-1.8 6.768,-1.8 4.032,0 4.104,3.6 5.904,3.6 2.16,0 5.04,-8.06401 5.04,-9.93601 0,-2.59199 -5.976,-4.176 -7.632,-4.176 -6.768,0 -12.744,3.6 -15.768,3.6 -1.296,0 -2.448,-1.08 -2.448,-2.448 0,-2.08799 4.824,-4.536 8.784,-4.536 10.728,0 15.48,-7.92 15.48,-15.408 0,-7.77599 -3.672,-9.216 -3.672,-11.376 0,-3.744 6.696,-1.584 6.696,-3.744 0,-1.152 -3.96,-6.264 -5.904,-6.264 -2.88,0 -4.824,6.624 -8.136,6.624 -0.216,0 -0.72,-0.144 -1.44,-0.288 -0.792,-0.144 -1.8,-0.288 -3.024,-0.288"
     style="font-size:72.00000763px;font-style:normal;font-variant:normal;font-weight:bold;font-stretch:normal;line-height:125%;letter-spacing:0px;word-spacing:0px;fill:#629e1f;fill-opacity:1;stroke:none;font-family:Hobo Std;-inkscape-font-specification:Hobo Std Bold"
     id="path5432"
     inkscape:connector-curvature="0" /><path
     d="m 1438.7434,-315.34007 c 8.28,0 18.072,-7.27202 18.072,-24.19201 0,-11.59199 -5.544,-24.048 -18.072,-24.048 -12.5279,0 -18.072,12.45601 -18.072,24.048 0,16.91999 9.792,24.19201 18.072,24.19201 m 0,-12.02401 c -7.272,0 -9.144,-8.208 -9.144,-13.968 0,-5.68799 2.016,-13.752 9.144,-13.752 7.128,0 9.144,8.06401 9.144,13.752 0,5.76 -1.872,13.968 -9.144,13.968"
     style="font-size:72.00000763px;font-style:normal;font-variant:normal;font-weight:bold;font-stretch:normal;line-height:125%;letter-spacing:0px;word-spacing:0px;fill:#629e1f;fill-opacity:1;stroke:none;font-family:Hobo Std;-inkscape-font-specification:Hobo Std Bold"
     id="path5434"
     inkscape:connector-curvature="0" /><path
     d="m 1477.6898,-373.01208 c -1.44,0 -9.504,2.016 -9.864,4.752 -0.36,2.52 -0.576,6.048 -2.808,6.048 -0.576,0 -1.08,-0.288 -1.368,-0.288 -2.736,0 -4.32,0.64801 -4.32,6.12 0,1.296 -0.072,2.232 0.864,2.232 0.792,0 1.512,-0.864 2.808,-0.864 3.24,0 2.592,3.816 2.592,5.976 0,1.368 -0.432,4.82401 -0.432,13.68 0,3.96 0.72,20.01601 3.456,20.01601 1.656,0 10.008,-4.03201 10.008,-5.112 0,-1.224 -4.032,-4.39202 -4.032,-23.54401 0,-6.40799 0,-11.016 3.96,-11.016 1.296,0 2.736,0.648 3.312,0.648 1.512,0 1.512,-2.736 1.512,-3.744 0,-2.448 -0.072,-4.392 -2.808,-4.392 -0.936,0 -1.8,0.36 -2.736,0.36 -1.08,0 -1.44,-0.864 -1.44,-2.16 0,-0.864 2.16,-5.256 2.16,-7.2 0,-1.368 -0.36,-1.512 -0.864,-1.512"
     style="font-size:72.00000763px;font-style:normal;font-variant:normal;font-weight:bold;font-stretch:normal;line-height:125%;letter-spacing:0px;word-spacing:0px;fill:#629e1f;fill-opacity:1;stroke:none;font-family:Hobo Std;-inkscape-font-specification:Hobo Std Bold"
     id="path5436"
     inkscape:connector-curvature="0" /></g><g
   id="g5487"
   transform="matrix(1.1899174,0,0,1.1899174,-907.25423,76.683109)"><path
     d="m 1270.5841,-225.34006 c 8.9279,0 18.288,-4.17601 18.288,-13.60801 0,-2.15999 -1.656,-19.728 -3.096,-19.728 -0.864,0 -13.248,4.464 -13.248,5.4 0,1.872 5.688,2.37601 5.688,8.208 0,5.04 -4.8241,6.912 -9.288,6.912 -9.432,0 -11.664,-8.28 -11.664,-16.128 0,-10.00799 3.96,-22.896 15.336,-22.896 9.1439,0 5.184,6.768 8.136,6.768 4.5359,0 7.416,-2.376 7.416,-6.552 0,-7.77599 -9.6481,-10.44 -15.912,-10.44 -17.208,0 -26.6401,17.49602 -26.6401,34.488 0,16.05599 8.2801,27.57601 24.9841,27.57601"
     style="font-size:72.00000763px;font-style:normal;font-variant:normal;font-weight:bold;font-stretch:normal;line-height:125%;letter-spacing:0px;word-spacing:0px;fill:#629e1f;fill-opacity:1;stroke:none;font-family:Hobo Std;-inkscape-font-specification:Hobo Std Bold"
     id="path5438"
     inkscape:connector-curvature="0" /><path
     d="m 1308.6867,-258.60407 c -2.16,0 -2.232,-2.88 -2.232,-4.392 -0.072,-12.45599 2.808,-14.832 9.36,-14.832 3.888,0 8.136,1.656 8.136,6.192 0,6.62399 -12.816,13.032 -15.264,13.032 m -8.928,-27.72 c -1.224,0 -4.968,-1.29597 -4.968,34.272 0,26.99998 2.16,25.63201 3.96,25.63201 l 8.352,0 c 0.72,0 2.52,0.35999 2.52,-0.86401 0,-0.50399 -2.664,-10.368 -2.664,-15.84 0,-4.03199 5.256,-6.984 7.416,-6.984 4.176,0 9.936,14.61601 9.936,22.752 0,1.152 2.232,0.93601 3.528,0.93601 l 8.136,0 c 1.512,0 1.8,-0.14401 1.8,-0.93601 0,-16.99198 -12.96,-26.424 -12.96,-28.44 0,-2.016 10.8,-5.54401 10.8,-17.064 0,-6.11999 -3.384,-13.464 -16.776,-13.464 l -19.08,0"
     style="font-size:72.00000763px;font-style:normal;font-variant:normal;font-weight:bold;font-stretch:normal;line-height:125%;letter-spacing:0px;word-spacing:0px;fill:#629e1f;fill-opacity:1;stroke:none;font-family:Hobo Std;-inkscape-font-specification:Hobo Std Bold"
     id="path5440"
     inkscape:connector-curvature="0" /><path
     d="m 1378.6752,-226.42006 c 0.864,0 2.664,0.28799 2.664,-1.08001 0,-0.71999 -4.824,-12.888 -5.904,-12.888 -1.728,0 -6.12,4.752 -13.248,4.752 -6.048,0 -9.072,-4.176 -9.072,-9.936 0,-7.12799 5.328,-9.792 9,-9.792 2.808,0 5.544,1.44 6.264,1.44 0.864,0 4.896,-11.736 4.896,-11.808 0,-1.224 -2.376,-1.512 -3.24,-1.512 -6.048,0 -11.16,3.384 -13.464,3.384 -2.016,0 -2.304,-2.592 -2.304,-4.104 0,-6.91199 5.256,-9.864 10.224,-9.864 7.056,0 9.216,3.384 10.44,3.384 0.936,0 5.544,-10.08 5.544,-10.656 0,-1.44 -2.592,-1.224 -3.456,-1.224 l -28.368,0 c -2.088,0 -6.048,33.26401 -6.048,42.912 0.36,14.61599 -0.792,17.136 3.024,16.99201 l 33.048,0"
     style="font-size:72.00000763px;font-style:normal;font-variant:normal;font-weight:bold;font-stretch:normal;line-height:125%;letter-spacing:0px;word-spacing:0px;fill:#629e1f;fill-opacity:1;stroke:none;font-family:Hobo Std;-inkscape-font-specification:Hobo Std Bold"
     id="path5442"
     inkscape:connector-curvature="0" /><path
     d="m 1421.7064,-226.42006 c 0.864,0 2.664,0.28799 2.664,-1.08001 0,-0.71999 -4.824,-12.888 -5.904,-12.888 -1.728,0 -6.12,4.752 -13.248,4.752 -6.048,0 -9.072,-4.176 -9.072,-9.936 0,-7.12799 5.328,-9.792 9,-9.792 2.808,0 5.544,1.44 6.264,1.44 0.864,0 4.896,-11.736 4.896,-11.808 0,-1.224 -2.376,-1.512 -3.24,-1.512 -6.048,0 -11.16,3.384 -13.464,3.384 -2.016,0 -2.304,-2.592 -2.304,-4.104 0,-6.91199 5.256,-9.864 10.224,-9.864 7.056,0 9.216,3.384 10.44,3.384 0.936,0 5.544,-10.08 5.544,-10.656 0,-1.44 -2.592,-1.224 -3.456,-1.224 l -28.368,0 c -2.088,0 -6.048,33.26401 -6.048,42.912 0.36,14.61599 -0.792,17.136 3.024,16.99201 l 33.048,0"
     style="font-size:72.00000763px;font-style:normal;font-variant:normal;font-weight:bold;font-stretch:normal;line-height:125%;letter-spacing:0px;word-spacing:0px;fill:#629e1f;fill-opacity:1;stroke:none;font-family:Hobo Std;-inkscape-font-specification:Hobo Std Bold"
     id="path5444"
     inkscape:connector-curvature="0" /><path
     d="m 1468.5537,-226.42006 c 1.8,0 3.96,1.36797 3.96,-25.63201 0,-35.56797 -3.384,-34.272 -4.968,-34.272 l -5.472,0 c -1.368,0 -2.952,-0.216 -2.952,0.792 0,1.656 3.672,13.60801 3.672,27.072 0,1.008 0.144,4.104 -0.576,4.104 -0.648,0 -1.008,-0.936 -1.224,-1.296 -13.464,-24.91198 -18.936,-30.672 -21.672,-30.672 l -5.688,0 c -1.224,0 -4.968,-1.29597 -4.968,34.272 0,26.99998 2.16,25.63201 3.96,25.63201 l 6.696,0 c 0.648,0 2.016,0.28799 2.016,-0.648 0,-3.672 -2.952,-11.01603 -2.952,-31.32001 0,-1.44 -0.504,-9.288 1.296,-9.288 2.304,0 8.64,12.096 9.576,14.04 11.232,22.75198 6.768,27.21601 11.736,27.21601 l 7.56,0"
     style="font-size:72.00000763px;font-style:normal;font-variant:normal;font-weight:bold;font-stretch:normal;line-height:125%;letter-spacing:0px;word-spacing:0px;fill:#629e1f;fill-opacity:1;stroke:none;font-family:Hobo Std;-inkscape-font-specification:Hobo Std Bold"
     id="path5446"
     inkscape:connector-curvature="0" /></g><g
   id="g5494"
   transform="translate(-663.93885,44.84527)"><path
     d="m 1255.8241,-136.42006 c 1.6559,0 3.816,0.432 3.816,-1.872 0,-0.648 -2.808,-11.80801 -2.808,-29.952 0,-7.84799 0.864,-10.512 0.864,-13.176 0,-0.864 -0.072,-1.08 -3.0961,-1.08 l -3.96,0 c -2.3759,0 -3.528,-2.37598 -3.528,22.248 0,25.34398 0.2881,23.832 3.816,23.832 l 4.8961,0 m -2.3761,-51.696 c 2.88,0 5.5441,-1.656 5.5441,-4.752 0,-3.096 -2.6641,-4.968 -5.5441,-4.968 -2.8799,0 -5.544,1.872 -5.544,4.968 0,3.096 2.6641,4.752 5.544,4.752"
     style="font-size:72.00000763px;font-style:normal;font-variant:normal;font-weight:bold;font-stretch:normal;line-height:125%;letter-spacing:0px;word-spacing:0px;fill:#629e1f;fill-opacity:1;stroke:none;font-family:Hobo Std;-inkscape-font-specification:Hobo Std Bold"
     id="path5448"
     inkscape:connector-curvature="0" /><path
     d="m 1294.6771,-136.42006 c 2.448,0 4.68,1.43998 4.68,-26.856 0,-18.93598 -8.352,-19.224 -10.368,-19.224 -4.608,0 -7.92,2.952 -9.144,2.952 -0.72,0 -1.08,-0.648 -1.08,-1.368 0,-1.008 0.648,-1.872 0.648,-2.592 0,-1.656 -2.5921,-1.296 -5.112,-1.296 -5.544,0 -8.064,-2.01597 -8.064,30.6 0,19.00799 1.08,17.784 3.744,17.784 l 6.12,0 c 0.72,0 1.944,0.072 1.944,-0.936 0,-0.86399 -2.088,-11.95201 -2.088,-20.592 0,-14.25598 5.616,-16.056 8.352,-16.056 4.8959,0 5.328,6.40801 5.328,11.52 0,14.61599 -3.672,24.19201 -3.672,24.912 0,1.368 1.584,1.152 2.52,1.152 l 6.192,0"
     style="font-size:72.00000763px;font-style:normal;font-variant:normal;font-weight:bold;font-stretch:normal;line-height:125%;letter-spacing:0px;word-spacing:0px;fill:#629e1f;fill-opacity:1;stroke:none;font-family:Hobo Std;-inkscape-font-specification:Hobo Std Bold"
     id="path5450"
     inkscape:connector-curvature="0" /><path
     d="m 1320.7219,-135.34006 c 8.64,0 16.416,-5.32801 16.416,-14.688 0,-14.61598 -21.024,-14.47201 -21.024,-21.888 0,-2.16 3.024,-3.168 5.256,-3.168 6.624,0 7.056,5.544 8.928,5.544 1.656,0 5.688,-5.832 5.688,-7.2 0,-1.44 -4.968,-6.84 -13.968,-6.84 -7.776,0 -14.832,4.75201 -14.832,13.536 0,14.32799 19.44,12.38401 19.44,19.8 0,3.672 -3.456,5.184 -6.408,5.184 -10.224,0 -12.024,-10.872 -12.384,-10.872 -0.576,0 -2.304,4.32001 -2.304,7.704 0,8.424 7.56,12.888 15.192,12.888"
     style="font-size:72.00000763px;font-style:normal;font-variant:normal;font-weight:bold;font-stretch:normal;line-height:125%;letter-spacing:0px;word-spacing:0px;fill:#629e1f;fill-opacity:1;stroke:none;font-family:Hobo Std;-inkscape-font-specification:Hobo Std Bold"
     id="path5452"
     inkscape:connector-curvature="0" /><path
     d="m 1352.0116,-136.42006 c 1.656,0 3.816,0.432 3.816,-1.872 0,-0.648 -2.808,-11.80801 -2.808,-29.952 0,-7.84799 0.864,-10.512 0.864,-13.176 0,-0.864 -0.072,-1.08 -3.096,-1.08 l -3.96,0 c -2.376,0 -3.528,-2.37598 -3.528,22.248 0,25.34398 0.288,23.832 3.816,23.832 l 4.896,0 m -2.376,-51.696 c 2.88,0 5.544,-1.656 5.544,-4.752 0,-3.096 -2.664,-4.968 -5.544,-4.968 -2.88,0 -5.544,1.872 -5.544,4.968 0,3.096 2.664,4.752 5.544,4.752"
     style="font-size:72.00000763px;font-style:normal;font-variant:normal;font-weight:bold;font-stretch:normal;line-height:125%;letter-spacing:0px;word-spacing:0px;fill:#629e1f;fill-opacity:1;stroke:none;font-family:Hobo Std;-inkscape-font-specification:Hobo Std Bold"
     id="path5454"
     inkscape:connector-curvature="0" /><path
     d="m 1378.3366,-146.93206 c -6.12,0 -7.992,-7.704 -7.992,-12.672 0,-13.10399 7.056,-17.136 10.152,-17.136 2.664,0 4.608,0.86401 4.608,13.536 0,5.184 1.008,16.272 -6.768,16.272 m 14.256,10.512 c 2.52,0 2.232,-24.12 2.232,-25.776 0,-3.384 0.288,-35.64 -2.952,-35.64 l -7.488,0 c -0.72,0 -2.52,0 -2.52,1.008 0,2.736 1.8,5.328 1.8,11.16 0,1.152 -0.216,3.744 -1.656,3.744 -1.008,0 -2.592,-1.656 -4.104,-1.656 -6.336,0 -17.28,9.00002 -17.28,25.488 0,14.54399 7.056,21.672 15.12,21.672 l 16.848,0"
     style="font-size:72.00000763px;font-style:normal;font-variant:normal;font-weight:bold;font-stretch:normal;line-height:125%;letter-spacing:0px;word-spacing:0px;fill:#629e1f;fill-opacity:1;stroke:none;font-family:Hobo Std;-inkscape-font-specification:Hobo Std Bold"
     id="path5456"
     inkscape:connector-curvature="0" /><path
     d="m 1417.9343,-135.34006 c 8.64,0 15.696,-5.256 15.696,-14.4 0,-0.576 -0.216,-4.32 -1.296,-4.32 -1.008,0 -1.008,9 -12.816,9 -3.6,0 -9.072,-2.448 -9.072,-5.832 0,-7.48799 23.184,-4.24801 23.184,-19.728 0,-8.49599 -6.696,-12.96 -14.616,-12.96 -9.648,0 -19.296,8.64002 -19.296,26.064 0,11.51999 5.328,22.176 18.216,22.176 m 0.72,-39.744 c 2.736,0 6.048,1.944 6.048,5.472 0,3.672 -13.104,6.552 -13.968,6.552 -0.936,0 -1.296,-0.792 -1.296,-1.584 0,-4.17599 3.384,-10.44 9.216,-10.44"
     style="font-size:72.00000763px;font-style:normal;font-variant:normal;font-weight:bold;font-stretch:normal;line-height:125%;letter-spacing:0px;word-spacing:0px;fill:#629e1f;fill-opacity:1;stroke:none;font-family:Hobo Std;-inkscape-font-specification:Hobo Std Bold"
     id="path5458"
     inkscape:connector-curvature="0" /></g></g><g
   inkscape:groupmode="layer"
   id="layer2"
   inkscape:label="Capa"
   style="display:inline"
   transform="translate(-457.31815,534.90793)" />
</svg>