<?xml version="1.0" encoding="UTF-8" standalone="no"?>
<!-- Created with Inkscape (http://www.inkscape.org/) -->

<svg
   xmlns:dc="http://purl.org/dc/elements/1.1/"
   xmlns:cc="http://creativecommons.org/ns#"
   xmlns:rdf="http://www.w3.org/1999/02/22-rdf-syntax-ns#"
   xmlns:svg="http://www.w3.org/2000/svg"
   xmlns="http://www.w3.org/2000/svg"
   xmlns:xlink="http://www.w3.org/1999/xlink"
   xmlns:sodipodi="http://sodipodi.sourceforge.net/DTD/sodipodi-0.dtd"
   xmlns:inkscape="http://www.inkscape.org/namespaces/inkscape"
   width="1052.3622"
   height="744.09448"
   id="svg3590"
   sodipodi:version="0.32"
   inkscape:version="0.48.4 r9939"
   version="1.0"
   sodipodi:docname="News_Paper_oSC13_01_Verse.svg"
   inkscape:output_extension="org.inkscape.output.svg.inkscape"
   inkscape:export-filename="/home/CarlosRibeiro/Documents/openSUSE/oSC13/newspaper/News_Paper_oSC13_01.png"
   inkscape:export-xdpi="300"
   inkscape:export-ydpi="300">
  <defs
     id="defs3592">
    <linearGradient
       inkscape:collect="always"
       id="linearGradient4428">
      <stop
         style="stop-color:#ffffff;stop-opacity:1;"
         offset="0"
         id="stop4430" />
      <stop
         style="stop-color:#ffffff;stop-opacity:0;"
         offset="1"
         id="stop4432" />
    </linearGradient>
    <linearGradient
       inkscape:collect="always"
       xlink:href="#linearGradient4428"
       id="linearGradient5603"
       gradientUnits="userSpaceOnUse"
       x1="363.57141"
       y1="12.91477"
       x2="344.64731"
       y2="7.9147706" />
    <linearGradient
       inkscape:collect="always"
       id="linearGradient4412">
      <stop
         style="stop-color:#67999e;stop-opacity:1;"
         offset="0"
         id="stop4414" />
      <stop
         style="stop-color:#67999e;stop-opacity:0;"
         offset="1"
         id="stop4416" />
    </linearGradient>
    <linearGradient
       inkscape:collect="always"
       xlink:href="#linearGradient4412"
       id="linearGradient5601"
       gradientUnits="userSpaceOnUse"
       x1="344.50894"
       y1="1.8906204"
       x2="362.7009"
       y2="15.607138" />
    <linearGradient
       inkscape:collect="always"
       id="linearGradient4299">
      <stop
         style="stop-color:#313131;stop-opacity:1;"
         offset="0"
         id="stop4301" />
      <stop
         style="stop-color:#313131;stop-opacity:0;"
         offset="1"
         id="stop4303" />
    </linearGradient>
    <linearGradient
       inkscape:collect="always"
       id="linearGradient4291">
      <stop
         style="stop-color:#313131;stop-opacity:1;"
         offset="0"
         id="stop4293" />
      <stop
         style="stop-color:#313131;stop-opacity:0;"
         offset="1"
         id="stop4295" />
    </linearGradient>
    <linearGradient
       inkscape:collect="always"
       id="linearGradient4283">
      <stop
         style="stop-color:#313131;stop-opacity:1;"
         offset="0"
         id="stop4285" />
      <stop
         style="stop-color:#313131;stop-opacity:0;"
         offset="1"
         id="stop4287" />
    </linearGradient>
    <linearGradient
       inkscape:collect="always"
       id="linearGradient4205">
      <stop
         style="stop-color:#8e8e8e;stop-opacity:1;"
         offset="0"
         id="stop4207" />
      <stop
         style="stop-color:#8e8e8e;stop-opacity:0;"
         offset="1"
         id="stop4209" />
    </linearGradient>
    <linearGradient
       inkscape:collect="always"
       xlink:href="#linearGradient4205"
       id="linearGradient5593"
       gradientUnits="userSpaceOnUse"
       gradientTransform="translate(-1.4285714,5.7142857)"
       x1="579.19391"
       y1="215.37054"
       x2="577.20459"
       y2="189.18272" />
    <radialGradient
       inkscape:collect="always"
       xlink:href="#linearGradient4068"
       id="radialGradient5591"
       gradientUnits="userSpaceOnUse"
       gradientTransform="matrix(1.2051123,0.5170344,-1.153574,2.6887696,-471.24116,775.93555)"
       cx="307.3587"
       cy="-359.57147"
       fx="307.3587"
       fy="-359.57147"
       r="44.21875" />
    <linearGradient
       inkscape:collect="always"
       xlink:href="#linearGradient4118"
       id="linearGradient5589"
       gradientUnits="userSpaceOnUse"
       gradientTransform="translate(48.928567,239.28571)"
       x1="416.64285"
       y1="-226.92352"
       x2="596.21429"
       y2="-226.92352" />
    <linearGradient
       inkscape:collect="always"
       xlink:href="#linearGradient4118"
       id="linearGradient5587"
       gradientUnits="userSpaceOnUse"
       gradientTransform="translate(40.35714,235.71428)"
       x1="416.64285"
       y1="-226.92352"
       x2="596.21429"
       y2="-226.92352" />
    <linearGradient
       inkscape:collect="always"
       xlink:href="#linearGradient4118"
       id="linearGradient5585"
       gradientUnits="userSpaceOnUse"
       gradientTransform="translate(43.571429,230.85714)"
       x1="416.64285"
       y1="-226.92352"
       x2="596.21429"
       y2="-226.92352" />
    <linearGradient
       id="linearGradient4118">
      <stop
         style="stop-color:#f3f3f3;stop-opacity:1"
         offset="0"
         id="stop4120" />
      <stop
         style="stop-color:#dbd8d8;stop-opacity:1"
         offset="1"
         id="stop4122" />
    </linearGradient>
    <linearGradient
       inkscape:collect="always"
       xlink:href="#linearGradient4118"
       id="linearGradient5583"
       gradientUnits="userSpaceOnUse"
       gradientTransform="matrix(0.9946451,-0.1033494,0.1033494,0.9946451,72.222316,282.29413)"
       x1="416.64285"
       y1="-226.92352"
       x2="596.21429"
       y2="-226.92352" />
    <linearGradient
       inkscape:collect="always"
       id="linearGradient4068">
      <stop
         style="stop-color:#828282;stop-opacity:1;"
         offset="0"
         id="stop4070" />
      <stop
         style="stop-color:#828282;stop-opacity:0;"
         offset="1"
         id="stop4072" />
    </linearGradient>
    <radialGradient
       inkscape:collect="always"
       xlink:href="#linearGradient4068"
       id="radialGradient5581"
       gradientUnits="userSpaceOnUse"
       gradientTransform="matrix(1.2051123,0.5170344,-1.153574,2.6887696,-482.34341,431.40174)"
       cx="307.3587"
       cy="-359.57147"
       fx="307.3587"
       fy="-359.57147"
       r="44.21875" />
    <filter
       inkscape:collect="always"
       id="filter4094"
       color-interpolation-filters="sRGB">
      <feGaussianBlur
         inkscape:collect="always"
         stdDeviation="1.7573826"
         id="feGaussianBlur4096" />
    </filter>
    <inkscape:perspective
       sodipodi:type="inkscape:persp3d"
       inkscape:vp_x="0 : 526.18109 : 1"
       inkscape:vp_y="0 : 1000 : 0"
       inkscape:vp_z="744.09448 : 526.18109 : 1"
       inkscape:persp3d-origin="372.04724 : 350.78739 : 1"
       id="perspective3598" />
    <linearGradient
       inkscape:collect="always"
       xlink:href="#linearGradient4299"
       id="linearGradient2715"
       gradientUnits="userSpaceOnUse"
       gradientTransform="matrix(2.6199317,-0.00796276,0.00729492,4.5458781,-751.54025,-529.91758)"
       x1="396.15164"
       y1="82.538162"
       x2="395.92093"
       y2="165.39345" />
    <linearGradient
       inkscape:collect="always"
       xlink:href="#linearGradient4291"
       id="linearGradient2718"
       gradientUnits="userSpaceOnUse"
       gradientTransform="matrix(2.6199232,-0.00893299,0.00416811,2.9138752,-749.66881,-309.10816)"
       x1="501.86627"
       y1="48.955727"
       x2="501.61285"
       y2="208.23778" />
    <linearGradient
       inkscape:collect="always"
       xlink:href="#linearGradient4283"
       id="linearGradient2728"
       gradientUnits="userSpaceOnUse"
       gradientTransform="matrix(2.6113629,-0.14242438,0.21002483,1.9160088,-736.2512,-233.83494)"
       x1="587.26276"
       y1="108.61244"
       x2="580.93134"
       y2="266.48102" />
    <linearGradient
       inkscape:collect="always"
       xlink:href="#linearGradient4118"
       id="linearGradient2852"
       gradientUnits="userSpaceOnUse"
       gradientTransform="matrix(0.9946451,-0.1033494,0.1033494,0.9946451,72.222316,282.29413)"
       x1="416.64285"
       y1="-226.92352"
       x2="596.21429"
       y2="-226.92352" />
    <linearGradient
       inkscape:collect="always"
       xlink:href="#linearGradient4118"
       id="linearGradient2854"
       gradientUnits="userSpaceOnUse"
       gradientTransform="translate(43.571429,230.85714)"
       x1="416.64285"
       y1="-226.92352"
       x2="596.21429"
       y2="-226.92352" />
    <linearGradient
       inkscape:collect="always"
       xlink:href="#linearGradient4118"
       id="linearGradient2856"
       gradientUnits="userSpaceOnUse"
       gradientTransform="translate(40.35714,235.71428)"
       x1="416.64285"
       y1="-226.92352"
       x2="596.21429"
       y2="-226.92352" />
    <linearGradient
       inkscape:collect="always"
       xlink:href="#linearGradient4118"
       id="linearGradient2858"
       gradientUnits="userSpaceOnUse"
       gradientTransform="translate(48.928567,239.28571)"
       x1="416.64285"
       y1="-226.92352"
       x2="596.21429"
       y2="-226.92352" />
    <linearGradient
       inkscape:collect="always"
       xlink:href="#linearGradient4118"
       id="linearGradient2861"
       gradientUnits="userSpaceOnUse"
       gradientTransform="matrix(2.6199356,0,0,1.8624797,-584.05148,71.137946)"
       x1="416.64285"
       y1="-226.92352"
       x2="596.21429"
       y2="-226.92352" />
    <linearGradient
       inkscape:collect="always"
       xlink:href="#linearGradient4118"
       id="linearGradient2864"
       gradientUnits="userSpaceOnUse"
       gradientTransform="matrix(2.6199356,0,0,1.8624797,-606.50807,64.486238)"
       x1="416.64285"
       y1="-226.92352"
       x2="596.21429"
       y2="-226.92352" />
    <linearGradient
       inkscape:collect="always"
       xlink:href="#linearGradient4118"
       id="linearGradient2867"
       gradientUnits="userSpaceOnUse"
       gradientTransform="matrix(2.6199356,0,0,1.8624797,-598.08683,55.439915)"
       x1="416.64285"
       y1="-226.92352"
       x2="596.21429"
       y2="-226.92352" />
    <linearGradient
       inkscape:collect="always"
       xlink:href="#linearGradient4118"
       id="linearGradient2870"
       gradientUnits="userSpaceOnUse"
       gradientTransform="matrix(2.6059061,-0.19248615,0.27076878,1.8525063,-523.02334,151.24025)"
       x1="416.64285"
       y1="-226.92352"
       x2="596.21429"
       y2="-226.92352" />
    <radialGradient
       inkscape:collect="always"
       xlink:href="#linearGradient4068"
       id="radialGradient2872"
       gradientUnits="userSpaceOnUse"
       gradientTransform="matrix(1.2051123,0.5170344,-1.153574,2.6887696,-482.34341,431.40174)"
       cx="307.3587"
       cy="-359.57147"
       fx="307.3587"
       fy="-359.57147"
       r="44.21875" />
    <radialGradient
       inkscape:collect="always"
       xlink:href="#linearGradient4068"
       id="radialGradient2875"
       gradientUnits="userSpaceOnUse"
       gradientTransform="matrix(3.1573165,1.1505638,-3.0222895,5.9833561,-2005.2498,1451.7401)"
       cx="307.3587"
       cy="-359.57147"
       fx="307.3587"
       fy="-359.57147"
       r="44.21875" />
  </defs>
  <sodipodi:namedview
     id="base"
     pagecolor="#ffffff"
     bordercolor="#666666"
     borderopacity="1.0"
     gridtolerance="10000"
     guidetolerance="10"
     objecttolerance="10"
     inkscape:pageopacity="0.0"
     inkscape:pageshadow="2"
     inkscape:zoom="0.73780953"
     inkscape:cx="526.18109"
     inkscape:cy="372.04724"
     inkscape:document-units="px"
     inkscape:current-layer="layer1"
     showgrid="false"
     inkscape:window-width="1280"
     inkscape:window-height="753"
     inkscape:window-x="-2"
     inkscape:window-y="-3"
     inkscape:window-maximized="1"
     showguides="true"
     inkscape:guide-bbox="true" />
  <g
     inkscape:label="Layer 1"
     inkscape:groupmode="layer"
     id="layer1"
     transform="translate(-30.85807,411.19694)">
    <path
       style="fill:#c2c2c2;fill-opacity:1;stroke:none"
       d="m 52.285389,-378.05429 c 6.46886,46.93355 -2.67814,89.73939 2.358335,125.70001 -0.360658,30.66885 -0.207945,61.32162 0.300635,91.90862 134.624481,-64.98904 134.112661,-103.38682 208.621031,-182.3912 -66.91171,5.46619 -127.56524,8.61761 -141.30521,4.56188 -18.47808,-12.46112 -30.38746,-28.79487 -69.974791,-39.77931 z"
       id="path4100"
       sodipodi:nodetypes="cccccc"
       inkscape:export-filename="/home/CarlosRibeiro/Documents/openSUSE/oSC13/newspaper/News_Paper_oSC13_01.png"
       inkscape:export-xdpi="300"
       inkscape:export-ydpi="300"
       inkscape:connector-curvature="0" />
    <path
       sodipodi:nodetypes="cccccccc"
       id="rect4052"
       d="m 79.747067,-391.58486 c 37.921053,14.62309 46.730223,10.2465 63.478963,24.36135 48.32036,19.56772 559.32625,1.74235 823.11014,-1.8823 30.87623,191.82136 107.75833,582.59238 93.05953,622.08398 -3.1759,61.84449 -26.4896,48.2505 -42.3446,67.43715 L 46.942769,309.55041 c 16.219262,-167.81995 -5.962182,-429.8405 17.945228,-597.66045 -0.340041,-36.21305 15.199111,-56.22162 14.85907,-103.47482 z"
       style="fill:#eeeeee;fill-opacity:1;stroke:none"
       inkscape:export-filename="/home/CarlosRibeiro/Documents/openSUSE/oSC13/newspaper/News_Paper_oSC13_01.png"
       inkscape:export-xdpi="300"
       inkscape:export-ydpi="300"
       inkscape:connector-curvature="0" />
    <path
       sodipodi:nodetypes="cccccc"
       id="path4055"
       d="m 78.434924,-391.05286 c 0.340041,47.2532 -15.240951,67.26407 -14.900884,103.47709 -4.337618,30.4483 -9.09859,92.71884 -12.561647,123.16714 142.236537,-51.99179 147.645477,-121.9938 231.950497,-193.54269 -67.21337,-0.83031 -127.90633,-3.37549 -141.03641,-8.69263 -16.74874,-14.11485 -25.53054,-9.78584 -63.451556,-24.40891 z"
       style="opacity:0.54700856;fill:url(#radialGradient2875);fill-opacity:1;stroke:none"
       inkscape:export-filename="/home/CarlosRibeiro/Documents/openSUSE/oSC13/newspaper/News_Paper_oSC13_01.png"
       inkscape:export-xdpi="300"
       inkscape:export-ydpi="300"
       inkscape:connector-curvature="0" />
    <path
       style="opacity:0.54700856;fill:#141414;fill-opacity:1;stroke:none;filter:url(#filter4094)"
       d="m 62.80765,41.917898 c 0.12979,21.2344 -5.8173,30.22678 -5.6875,46.5 -1.65562,13.682702 -1.34792,26.622192 2.12849,42.325192 54.29009,-23.3638 49.43149,-41.797922 81.60977,-73.950192 -25.65459,-0.37312 -48.82041,-1.51686 -53.83201,-3.90625 -6.39281,-6.34286 -9.74472,-4.39751 -24.21875,-10.96875 z"
       id="path4090"
       sodipodi:nodetypes="cccccc"
       inkscape:export-filename="/home/CarlosRibeiro/Documents/openSUSE/oSC13/newspaper/News_Paper_oSC13_01.png"
       inkscape:export-xdpi="300"
       inkscape:export-ydpi="300"
       inkscape:connector-curvature="0"
       transform="matrix(2.6199356,0,0,2.2253138,-72.555526,-478.88866)" />
    <path
       id="path4169"
       d="m 488.7648,-353.76171 443.27851,-52.92364 39.92656,50.66917 -483.20507,2.25447 z"
       style="fill:url(#linearGradient2870);fill-opacity:1;fill-rule:evenodd;stroke:#ffffff;stroke-width:2.20897651px;stroke-linecap:butt;stroke-linejoin:miter;stroke-opacity:1"
       sodipodi:nodetypes="cccc"
       inkscape:export-filename="/home/CarlosRibeiro/Documents/openSUSE/oSC13/newspaper/News_Paper_oSC13_01.png"
       inkscape:export-xdpi="300"
       inkscape:export-ydpi="300"
       inkscape:connector-curvature="0" />
    <path
       id="path4116"
       d="m 386.2604,-357.88818 574.51444,-37.24959 1.87138,55.8744 -576.38582,-18.62481 z"
       style="fill:url(#linearGradient2867);fill-opacity:1;fill-rule:evenodd;stroke:#ffffff;stroke-width:2.20897651px;stroke-linecap:butt;stroke-linejoin:miter;stroke-opacity:1"
       sodipodi:nodetypes="cccc"
       inkscape:export-filename="/home/CarlosRibeiro/Documents/openSUSE/oSC13/newspaper/News_Paper_oSC13_01.png"
       inkscape:export-xdpi="300"
       inkscape:export-ydpi="300"
       inkscape:connector-curvature="0" />
    <path
       id="path4165"
       d="m 473.27967,-363.47563 479.07393,-22.61581 1.87139,55.87439 -480.94532,-33.25858 z"
       style="fill:url(#linearGradient2864);fill-opacity:1;fill-rule:evenodd;stroke:#ffffff;stroke-width:2.20897651px;stroke-linecap:butt;stroke-linejoin:miter;stroke-opacity:1"
       sodipodi:nodetypes="cccc"
       inkscape:export-filename="/home/CarlosRibeiro/Documents/openSUSE/oSC13/newspaper/News_Paper_oSC13_01.png"
       inkscape:export-xdpi="300"
       inkscape:export-ydpi="300"
       inkscape:connector-curvature="0" />
    <path
       id="path4161"
       d="m 495.73627,-356.82392 479.07392,-22.61581 1.87139,55.87439 -480.94531,-33.25858 z"
       style="fill:url(#linearGradient2861);fill-opacity:1;fill-rule:evenodd;stroke:#ffffff;stroke-width:2.20897651px;stroke-linecap:butt;stroke-linejoin:miter;stroke-opacity:1"
       sodipodi:nodetypes="cccc"
       inkscape:export-filename="/home/CarlosRibeiro/Documents/openSUSE/oSC13/newspaper/News_Paper_oSC13_01.png"
       inkscape:export-xdpi="300"
       inkscape:export-ydpi="300"
       inkscape:connector-curvature="0" />
    <path
       style="fill:#eeeeee;fill-opacity:1;stroke:none"
       d="m 100.70655,-391.58487 c 37.92105,14.62309 46.73022,10.2465 63.47898,24.36136 48.32035,19.56771 559.32623,1.74235 823.11012,-1.88231 30.87625,191.82137 93.14095,586.51782 78.44215,626.00942 -3.1758,61.84449 -26.4895,48.2505 -42.3445,67.43715 L 44.789143,289.9054 c 16.219261,-167.81997 17.150929,-410.19549 41.058339,-578.01545 -0.340042,-36.21304 15.199108,-56.22162 14.859068,-103.47482 z"
       id="path4082"
       sodipodi:nodetypes="cccccccc"
       inkscape:export-filename="/home/CarlosRibeiro/Documents/openSUSE/oSC13/newspaper/News_Paper_oSC13_01.png"
       inkscape:export-xdpi="300"
       inkscape:export-ydpi="300"
       inkscape:connector-curvature="0" />
    <path
       style="opacity:0.5;fill:url(#linearGradient2728);fill-opacity:1;stroke:none"
       d="m 808.58719,-208.80479 3.37452,-0.18405 40.50499,599.6342 -3.37452,0.18405 z"
       id="rect4234"
       inkscape:export-filename="/home/CarlosRibeiro/Documents/openSUSE/oSC13/newspaper/News_Paper_oSC13_01.png"
       inkscape:export-xdpi="300"
       inkscape:export-ydpi="300"
       inkscape:connector-curvature="0"
       sodipodi:nodetypes="ccccc" />
    <g
       id="g4182"
       transform="translate(0,-58.280624)">
      <path
         inkscape:connector-curvature="0"
         inkscape:export-ydpi="300"
         inkscape:export-xdpi="300"
         inkscape:export-filename="/home/CarlosRibeiro/Documents/openSUSE/oSC13/newspaper/News_Paper_oSC13_01.png"
         id="rect4250"
         d="m 977.28443,-189.3891 0.0551,2.24744 -785.37059,13.2416 -0.0551,-2.24743 785.37058,-13.24161 z"
         style="opacity:0.5;fill:#313131;fill-opacity:1;stroke:none" />
      <path
         inkscape:connector-curvature="0"
         inkscape:export-ydpi="300"
         inkscape:export-xdpi="300"
         inkscape:export-filename="/home/CarlosRibeiro/Documents/openSUSE/oSC13/newspaper/News_Paper_oSC13_01.png"
         id="rect4252"
         d="m 979.37405,-183.70031 -0.0247,3.97745 -785.72683,12.05539 0.0247,-3.97745 785.72681,-12.05539 z"
         style="opacity:0.5;fill:#313131;fill-opacity:1;stroke:none" />
      <path
         inkscape:connector-curvature="0"
         inkscape:export-ydpi="300"
         inkscape:export-xdpi="300"
         inkscape:export-filename="/home/CarlosRibeiro/Documents/openSUSE/oSC13/newspaper/News_Paper_oSC13_01.png"
         id="rect4266"
         d="m 107.85021,-189.32635 -0.006,2.24745 86.3975,13.24161 0.006,-2.24745 -86.39751,-13.24161 z"
         style="opacity:0.25;fill:#313131;fill-opacity:1;stroke:none" />
      <path
         inkscape:connector-curvature="0"
         inkscape:export-ydpi="300"
         inkscape:export-xdpi="300"
         inkscape:export-filename="/home/CarlosRibeiro/Documents/openSUSE/oSC13/newspaper/News_Paper_oSC13_01.png"
         id="rect4268"
         d="m 107.62022,-183.6376 0.003,3.97744 86.43673,12.05538 -0.002,-3.97743 -86.43673,-12.05539 z"
         style="opacity:0.25;fill:#313131;fill-opacity:1;stroke:none" />
    </g>
    <path
       style="opacity:0.5;fill:url(#linearGradient2718);fill-opacity:1;stroke:none"
       d="m 563.69567,-200.86788 2.6465,-0.005 0.73466,513.58751 -2.64653,0.005 -0.73463,-513.58749 z"
       id="rect4279"
       inkscape:export-filename="/home/CarlosRibeiro/Documents/openSUSE/oSC13/newspaper/News_Paper_oSC13_01.png"
       inkscape:export-xdpi="300"
       inkscape:export-ydpi="300"
       inkscape:connector-curvature="0" />
    <path
       style="opacity:0.5;fill:url(#linearGradient2715);fill-opacity:1;stroke:none"
       d="m 285.26152,-204.93016 2.64652,-0.009 0.73466,457.80473 -2.64653,0.009 -0.73465,-457.80472 z"
       id="rect4281"
       inkscape:export-filename="/home/CarlosRibeiro/Documents/openSUSE/oSC13/newspaper/News_Paper_oSC13_01.png"
       inkscape:export-xdpi="300"
       inkscape:export-ydpi="300"
       inkscape:connector-curvature="0" />
    <text
       xml:space="preserve"
       style="font-size:89.01255035px;font-style:normal;font-weight:normal;line-height:125%;letter-spacing:0px;word-spacing:0px;fill:#000000;fill-opacity:1;stroke:none;font-family:Sans"
       x="256.56204"
       y="-200.03192"
       id="text5190"
       sodipodi:linespacing="125%"
       inkscape:export-filename="/home/CarlosRibeiro/Documents/openSUSE/oSC13/newspaper/News_Paper_oSC13_01.png"
       inkscape:export-xdpi="300"
       inkscape:export-ydpi="300"><tspan
         sodipodi:role="line"
         id="tspan5192"
         x="256.56204"
         y="-200.03192" /></text>
    <text
       transform="matrix(1.0845917,-0.0267784,0.0315271,0.92122756,0,0)"
       sodipodi:linespacing="125%"
       id="text5210"
       y="-254.84871"
       x="640.40875"
       style="font-size:31.37218094px;font-style:normal;font-variant:normal;font-weight:normal;font-stretch:normal;text-indent:0;text-align:start;text-decoration:none;line-height:125%;letter-spacing:0px;word-spacing:0px;text-transform:none;direction:ltr;block-progression:tb;writing-mode:lr-tb;text-anchor:start;baseline-shift:baseline;opacity:0.7;color:#000000;fill:#000000;fill-opacity:1;fill-rule:nonzero;stroke:none;stroke-width:1;marker:none;visibility:visible;display:inline;overflow:visible;enable-background:accumulate;font-family:Sans;-inkscape-font-specification:Sans"
       xml:space="preserve"
       inkscape:export-filename="/home/CarlosRibeiro/Documents/openSUSE/oSC13/newspaper/News_Paper_oSC13_01.png"
       inkscape:export-xdpi="300"
       inkscape:export-ydpi="300"><tspan
         y="-254.84871"
         x="640.40875"
         id="tspan5212"
         sodipodi:role="line"
         style="font-style:normal;font-variant:normal;font-weight:bold;font-stretch:normal;font-family:FifthLeg;-inkscape-font-specification:FifthLeg Bold">Schedule for Today</tspan></text>
    <text
       inkscape:export-ydpi="300"
       inkscape:export-xdpi="300"
       inkscape:export-filename="/home/CarlosRibeiro/Documents/openSUSE/oSC13/newspaper/News_Paper_oSC13_01.png"
       sodipodi:linespacing="125%"
       id="text3182"
       y="-200.03192"
       x="-680.99701"
       style="font-size:89.01255035px;font-style:normal;font-weight:normal;line-height:125%;letter-spacing:0px;word-spacing:0px;fill:#000000;fill-opacity:1;stroke:none;font-family:Sans"
       xml:space="preserve"><tspan
         y="-200.03192"
         x="-680.99701"
         id="tspan3184"
         sodipodi:role="line" /></text>
    <text
       inkscape:export-ydpi="300"
       inkscape:export-xdpi="300"
       inkscape:export-filename="/home/CarlosRibeiro/Documents/openSUSE/oSC13/newspaper/News_Paper_oSC13_01.png"
       transform="matrix(0.99433549,-0.106287,0.106287,0.99433549,0,0)"
       sodipodi:linespacing="125%"
       id="text3186"
       y="-105.13796"
       x="855.83209"
       style="font-size:16.44665146px;font-style:normal;font-variant:normal;font-weight:normal;font-stretch:normal;text-indent:0;text-align:start;text-decoration:none;line-height:125%;letter-spacing:0px;word-spacing:0px;text-transform:none;direction:ltr;block-progression:tb;writing-mode:lr-tb;text-anchor:start;baseline-shift:baseline;opacity:0.7;color:#000000;fill:#000000;fill-opacity:1;fill-rule:nonzero;stroke:none;stroke-width:1;marker:none;visibility:visible;display:inline;overflow:visible;enable-background:accumulate;font-family:Sans;-inkscape-font-specification:Sans"
       xml:space="preserve"><tspan
         y="-105.13796"
         x="855.83209"
         id="tspan3188"
         sodipodi:role="line"
         style="font-size:20px">Artemis Room</tspan></text>
    <flowRoot
       transform="matrix(2.2166496,-0.19617795,0.19617795,2.2166496,112.61118,-364.6435)"
       style="font-size:12px;font-style:normal;font-weight:normal;line-height:125%;letter-spacing:0px;word-spacing:0px;opacity:0.75;fill:#000000;fill-opacity:1;stroke:none;font-family:Sans"
       id="flowRoot3198"
       xml:space="preserve"><flowRegion
         id="flowRegion3200"><rect
           style="font-size:12px"
           y="135.0495"
           x="310.92081"
           height="61.349018"
           width="77.268188"
           id="rect3202" /></flowRegion><flowPara
         id="flowPara3204"
         style="font-size:5.39249802px;text-align:justify;text-anchor:start" /><flowPara
         id="flowPara3206"
         style="font-size:5.39249802px;text-align:justify;text-anchor:start">While preparing the slides for my presentation, XRandr worked but LibreOffice refused to use both monitor outputs. Thanks to E17 I could unset 'full screen window' and move it to the other desktop</flowPara><flowPara
         id="flowPara3208"
         style="font-size:5.39249802px;text-align:justify;text-anchor:start"> ;-) - Tomas Cech</flowPara></flowRoot>    <text
       inkscape:export-ydpi="300"
       inkscape:export-xdpi="300"
       inkscape:export-filename="/home/CarlosRibeiro/Documents/openSUSE/oSC13/newspaper/News_Paper_oSC13_01.png"
       transform="matrix(0.99925587,-0.03857069,0.03857069,0.99925587,0,0)"
       sodipodi:linespacing="125%"
       id="text3168"
       y="-268.39694"
       x="240.89378"
       style="font-size:36.47939301px;font-style:normal;font-weight:normal;line-height:125%;letter-spacing:0px;word-spacing:0px;opacity:0.7;color:#000000;fill:#000000;fill-opacity:1;fill-rule:nonzero;stroke:none;marker:none;visibility:visible;display:inline;overflow:visible;enable-background:accumulate;font-family:Sans"
       xml:space="preserve"><tspan
         style="font-size:27.35954475px;font-style:italic;font-variant:normal;font-weight:normal;font-stretch:normal;text-align:start;line-height:125%;writing-mode:lr-tb;text-anchor:start;color:#000000;fill:#000000;fill-opacity:1;fill-rule:nonzero;stroke:none;marker:none;visibility:visible;display:inline;overflow:visible;enable-background:accumulate;font-family:csb10;-inkscape-font-specification:csb10 Italic"
         y="-268.39694"
         x="240.89378"
         id="tspan3170"
         sodipodi:role="line">openSUSE Conference Daily</tspan></text>
    <text
       inkscape:export-ydpi="300"
       inkscape:export-xdpi="300"
       inkscape:export-filename="/home/CarlosRibeiro/Documents/openSUSE/oSC13/newspaper/News_Paper_oSC13_01.png"
       xml:space="preserve"
       style="font-size:52.94461441px;font-style:normal;font-weight:normal;line-height:125%;letter-spacing:0px;word-spacing:0px;opacity:0.7;color:#000000;fill:#000000;fill-opacity:1;fill-rule:nonzero;stroke:none;marker:none;visibility:visible;display:inline;overflow:visible;enable-background:accumulate;font-family:Sans"
       x="828.96924"
       y="-285.2211"
       id="text3172"
       sodipodi:linespacing="125%"
       transform="matrix(0.99874555,-0.05007317,0.05007317,0.99874555,0,0)"><tspan
         sodipodi:role="line"
         id="tspan3174"
         x="828.96924"
         y="-285.2211"
         style="font-size:25.19587326px;font-style:italic;font-variant:normal;font-weight:bold;font-stretch:normal;text-align:start;line-height:125%;writing-mode:lr-tb;text-anchor:start;color:#000000;fill:#000000;fill-opacity:1;fill-rule:nonzero;stroke:none;marker:none;visibility:visible;display:inline;overflow:visible;enable-background:accumulate;font-family:Serif;-inkscape-font-specification:Serif Bold Italic">Thessaloniki</tspan></text>
    <g
       inkscape:export-ydpi="300"
       inkscape:export-xdpi="300"
       inkscape:export-filename="/home/CarlosRibeiro/Documents/openSUSE/oSC13/newspaper/News_Paper_oSC13_01.png"
       transform="matrix(2.3952433,-0.02525183,0.02525183,2.3952433,-51.201002,-518.152)"
       id="g3176">
      <path
         inkscape:connector-curvature="0"
         style="opacity:0.7;color:#000000;fill:#000000;fill-opacity:1;fill-rule:nonzero;stroke:none;stroke-width:16.56501579;marker:none;visibility:visible;display:inline;overflow:visible;enable-background:accumulate"
         id="path3178"
         d="m 94.354082,112.16812 c -0.645976,-0.0428 -1.396815,-0.11952 -1.481913,-0.1514 -0.05517,-0.0207 -0.04022,-0.0553 0.07211,-0.16688 0.108151,-0.10746 0.367092,-0.32102 0.560432,-0.46222 0.255626,-0.18667 0.561897,-0.37212 0.821454,-0.49738 0.242746,-0.11715 0.216076,-0.11263 0.711776,-0.1205 0.432887,-0.007 0.597411,-3e-4 0.881442,0.0353 0.244849,0.0306 0.452921,0.066 0.472618,0.0802 0.01768,0.0128 0.01762,0.0165 -6.66e-4,0.0447 -0.02806,0.0433 -0.325193,0.32462 -0.522503,0.49471 -0.492006,0.42414 -0.765421,0.60855 -1.042208,0.70293 -0.09534,0.0325 -0.128386,0.0378 -0.258176,0.0411 -0.08186,0.002 -0.178329,0.002 -0.214366,-5.4e-4 z m 7.245108,-0.0402 c -0.22216,-0.0392 -0.48865,-0.18453 -0.8405,-0.45852 -0.31607,-0.24613 -0.803066,-0.67656 -0.856148,-0.75672 -0.01856,-0.028 -0.01865,-0.0317 -0.0011,-0.0447 0.01956,-0.0144 0.227278,-0.0518 0.471818,-0.0849 0.28365,-0.0384 0.44812,-0.0465 0.88105,-0.0439 0.49575,0.003 0.46904,-0.001 0.71292,0.11351 0.26077,0.1227 0.56886,0.30513 0.8263,0.48928 0.33213,0.23758 0.66952,0.53214 0.66978,0.58476 2.2e-4,0.0444 -0.0436,0.0541 -0.47584,0.10532 -0.62758,0.0743 -1.26178,0.11812 -1.38828,0.0958 z m -9.077834,-0.91494 c -0.282652,-0.0423 -0.641819,-0.1363 -1.203779,-0.31497 -0.424685,-0.13503 -0.495596,-0.16088 -0.495693,-0.18072 -2.8e-5,-0.006 0.01392,-0.0195 0.03099,-0.0308 0.111086,-0.0736 1.101389,-0.57164 1.346984,-0.67746 l 0.101013,-0.0435 0.216588,-0.006 c 0.335833,-0.009 0.403396,0.006 1.306917,0.27841 0.309748,0.0935 0.401763,0.12612 0.401843,0.14248 9.5e-5,0.0193 -0.252338,0.28511 -0.35522,0.37409 -0.284128,0.24572 -0.52998,0.36127 -0.958549,0.45049 -0.137684,0.0287 -0.237426,0.0306 -0.39109,0.008 z m 10.887194,-0.0527 c -0.44139,-0.0855 -0.70153,-0.20383 -0.99174,-0.45101 -0.10947,-0.0932 -0.35455,-0.34717 -0.35465,-0.36746 -3e-5,-0.007 0.028,-0.023 0.0623,-0.036 0.14782,-0.056 0.90557,-0.29287 1.11181,-0.34754 0.24539,-0.065 0.63291,-0.0732 0.80345,-0.0169 0.21968,0.0725 1.41269,0.65824 1.42704,0.70058 0.007,0.022 -0.0494,0.0439 -0.48985,0.18868 -0.58099,0.191 -0.92149,0.28316 -1.20977,0.32741 -0.14935,0.0229 -0.24851,0.0235 -0.35864,0.002 z m -6.989591,-0.47737 c -0.822303,-0.0952 -2.020259,-0.38172 -2.915383,-0.69731 -0.137896,-0.0486 -0.279782,-0.0969 -0.315298,-0.10723 -0.05654,-0.0165 -0.164518,-0.0183 -0.8678,-0.0149 l -0.803223,0.004 -0.138233,0.0314 c -0.07603,0.0173 -0.211223,0.05 -0.300431,0.0727 l -0.162198,0.0414 -0.14881,-0.04 c -0.180572,-0.0485 -0.300189,-0.0927 -0.50338,-0.18573 -0.357016,-0.16352 -1.011571,-0.526 -1.048095,-0.58042 -0.0047,-0.007 -0.0021,-0.019 0.0058,-0.0267 0.03908,-0.0378 0.753145,-0.29981 0.965438,-0.35425 0.09553,-0.0245 0.12435,-0.0267 0.267852,-0.0204 0.08844,0.004 0.179584,0.0111 0.202532,0.016 l 0.04173,0.009 0.0049,0.34981 c 0.0033,0.23382 0.0093,0.35505 0.01814,0.36562 0.01099,0.0131 0.550393,0.0132 3.152735,4.9e-4 1.72671,-0.008 3.176105,-0.0121 3.220879,-0.008 l 0.08141,0.007 -0.0077,0.0429 c -0.0117,0.0649 -0.06048,0.147 -0.106162,0.1786 -0.07883,0.0545 -0.131782,0.0659 -0.336202,0.0722 l -0.193493,0.006 2.08e-4,0.0422 c 1.13e-4,0.0232 0.01739,0.12457 0.0384,0.22528 0.02101,0.1007 0.03437,0.18694 0.02969,0.19165 -0.0047,0.005 -0.08977,0.008 -0.189096,0.008 -0.195405,-7.8e-4 -0.437593,-0.0267 -0.521054,-0.0556 -0.10721,-0.0372 -0.329702,-0.1925 -0.485136,-0.33855 l -0.07374,-0.0693 -0.214,0.001 c -0.240727,10e-4 -0.228165,-0.004 -0.228048,0.0979 7.2e-5,0.0599 -0.02206,0.0749 -0.09637,0.0654 -0.08167,-0.0104 -0.141501,-0.0345 -0.255979,-0.10289 l -0.09624,-0.0575 -0.314883,0.005 -0.314883,0.005 0.06565,0.0309 c 0.359549,0.16915 1.452349,0.45795 1.949656,0.51525 0.142208,0.0164 0.815978,0.016 1.190901,-5.8e-4 l 0.261942,-0.0116 0.146242,0.0727 c 0.08639,0.0429 0.146278,0.0798 0.146328,0.09 4.7e-5,0.01 -0.004,0.0174 -0.0091,0.0174 -0.005,2e-5 -0.06793,0.0137 -0.139781,0.0305 -0.320017,0.0745 -0.743939,0.10667 -1.005721,0.0764 z m 2.995095,-0.005 c -0.12712,-0.008 -0.423172,-0.0504 -0.547982,-0.0782 -0.07201,-0.016 -0.135041,-0.0291 -0.140074,-0.0291 -0.005,2e-5 -0.0092,-0.008 -0.0092,-0.0173 -5.1e-5,-0.0102 0.05943,-0.0476 0.145437,-0.0913 l 0.145522,-0.074 0.184621,0.006 c 1.039472,0.0353 1.333832,0.0132 1.958312,-0.14655 0.29285,-0.0749 0.71256,-0.20758 0.72591,-0.22942 0.004,-0.007 -0.12112,-0.0104 -0.31243,-0.009 -0.17554,8.6e-4 -0.41892,-0.004 -0.54086,-0.0109 l -0.22171,-0.0124 -0.14625,0.0984 c -0.19023,0.12805 -0.23754,0.15141 -0.35105,0.17337 -0.22535,0.0436 -0.624131,0.0556 -0.624183,0.0188 -3.8e-5,-0.008 0.01563,-0.0917 0.03476,-0.18679 0.01913,-0.0951 0.03471,-0.19201 0.03462,-0.21544 l -2.09e-4,-0.0426 -0.156154,-0.032 c -0.410339,-0.0842 -0.883571,-0.247 -1.233489,-0.42424 -0.246556,-0.12489 -0.34462,-0.19629 -0.410441,-0.29885 -0.05636,-0.0878 -0.09474,-0.24006 -0.06056,-0.24023 0.0077,-4e-5 0.132589,0.0631 0.277574,0.14039 0.617594,0.32905 1.138725,0.48855 2.034472,0.62266 0.58455,0.0875 0.89797,0.10662 1.5665,0.0954 0.52844,-0.009 0.64245,-0.0159 0.98674,-0.0613 0.77225,-0.10187 1.4136,-0.32504 1.93147,-0.6721 0.49111,-0.32913 0.89778,-0.82414 1.09737,-1.33574 0.0245,-0.0629 0.0463,-0.11281 0.0483,-0.11083 0.004,0.004 -0.059,0.25439 -0.0848,0.33397 -0.0102,0.0316 -0.0159,0.0601 -0.0125,0.0635 0.0114,0.0113 0.078,-0.0316 0.24794,-0.15968 0.79596,-0.60003 1.62035,-1.37638 2.09283,-1.97087 0.15756,-0.19825 0.70903,-0.97178 0.89632,-1.25726 0.15243,-0.23233 1.44444,-2.299 1.60937,-2.5743 0.0915,-0.1527 0.18548,-0.3237 0.30362,-0.55228 0.0433,-0.0837 0.0837,-0.15225 0.0899,-0.15228 0.10738,-5.3e-4 -0.4432,1.07234 -1.20243,2.34307 -0.46688,0.78141 -1.3183,2.0288 -1.64546,2.41071 -0.12129,0.14158 -0.74233,0.80856 -0.90412,0.97099 -0.16636,0.16702 -0.37028,0.34964 -0.68342,0.61204 -0.14677,0.12299 -0.32822,0.27582 -0.40324,0.33962 -0.075,0.0638 -0.23248,0.18908 -0.34994,0.2784 -0.26046,0.19805 -0.3074,0.24157 -0.40846,0.37884 -0.0436,0.0592 -0.10947,0.14255 -0.14646,0.18529 -0.037,0.0427 -0.0628,0.0792 -0.0574,0.081 0.005,0.002 0.0972,-0.0163 0.20396,-0.0402 0.39293,-0.088 0.54427,-0.0987 0.72835,-0.0517 0.22111,0.0565 0.91109,0.30324 0.94931,0.33948 0.0199,0.0188 0.009,0.0318 -0.0736,0.0876 -0.23353,0.15781 -0.84708,0.48615 -1.13433,0.60705 -0.12711,0.0535 -0.42535,0.143 -0.47736,0.14326 -0.0712,3.5e-4 -0.87133,-0.22868 -1.12794,-0.32286 l -0.11004,-0.0404 -0.10431,0.044 c -0.27328,0.11537 -0.66402,0.22813 -0.99855,0.28815 -0.1035,0.0186 -0.24618,0.0559 -0.3687,0.0964 -0.69149,0.22883 -1.43798,0.42627 -2.10885,0.55776 -0.559195,0.1096 -0.857129,0.14214 -1.136701,0.12416 z m -10.946467,-2.11088 c -0.110779,-0.0247 -0.192622,-0.0569 -0.372244,-0.1467 -0.348203,-0.17406 -1.063593,-0.59176 -1.092368,-0.63781 -0.01188,-0.019 0.03916,-0.0448 0.189633,-0.0957 0.243621,-0.0824 0.832239,-0.23909 1.123934,-0.29911 0.207787,-0.0428 0.540599,-0.006 0.780467,0.0867 0.230178,0.0888 0.5728,0.30018 0.817078,0.50419 0.145008,0.1211 0.156193,0.13501 0.132284,0.16449 -0.03525,0.0435 -0.604387,0.29388 -0.789554,0.34739 -0.25959,0.075 -0.633218,0.11126 -0.78923,0.0766 z m 18.861063,-0.10013 c -0.28588,-0.0421 -0.42219,-0.0858 -0.85303,-0.27332 -0.29469,-0.12827 -0.30331,-0.13704 -0.21435,-0.21839 0.2595,-0.2373 0.6385,-0.48519 0.9013,-0.5895 0.23895,-0.0948 0.57138,-0.13508 0.77958,-0.0944 0.29227,0.0571 0.8824,0.20801 1.12682,0.28806 0.15096,0.0494 0.20226,0.0747 0.19056,0.0938 -0.0421,0.0689 -1.09098,0.67244 -1.31335,0.75573 -0.17292,0.0648 -0.3583,0.0762 -0.61753,0.038 z m -16.871014,-0.21163 c -0.118798,-0.089 -0.269428,-0.20639 -0.334734,-0.26079 -0.06531,-0.0544 -0.239603,-0.19824 -0.387327,-0.31965 -0.321688,-0.26435 -0.537867,-0.45395 -0.701799,-0.6155 -0.164356,-0.16196 -0.791606,-0.82256 -0.913619,-0.96219 -0.330894,-0.37867 -1.194528,-1.61764 -1.669057,-2.39443 -0.771679,-1.26321 -1.332772,-2.33062 -1.225391,-2.33115 0.0062,-3e-5 0.04732,0.0681 0.09141,0.1514 0.120372,0.22741 0.216053,0.39748 0.309028,0.54927 0.167623,0.27367 1.479868,2.32754 1.634574,2.55837 0.190093,0.28363 0.749126,1.0517 0.908627,1.24839 0.351249,0.43314 0.92395,0.99409 1.498672,1.46791 0.350011,0.28855 0.730882,0.58411 0.914527,0.70967 0.05586,0.0382 0.105532,0.075 0.110378,0.0818 0.0048,0.007 0.0092,0.0726 0.0097,0.1463 6.01e-4,0.0998 -0.003,0.13379 -0.01405,0.13324 -0.0082,-4e-4 -0.112088,-0.0736 -0.230885,-0.16262 z m 0.177423,-0.72651 c -0.09111,-0.27738 -0.116902,-0.45781 -0.118734,-0.83069 -0.0019,-0.38259 0.0095,-0.69617 0.02526,-0.69588 0.01884,3.5e-4 0.120012,0.15078 0.35444,0.52707 0.240741,0.38641 0.403283,0.69314 0.379874,0.71685 -0.0047,0.005 -0.135327,0.0119 -0.290338,0.0159 l -0.281837,0.007 -0.0023,0.19354 c -0.0013,0.10828 -0.0072,0.19355 -0.01334,0.19358 -0.0061,3e-5 -0.02991,-0.0575 -0.053,-0.12776 z m 1.072886,-0.2843 c -0.01943,-0.0153 -0.07066,-0.23977 -0.07102,-0.31122 -2.72e-4,-0.0555 0.0156,-0.0461 0.254079,0.15061 0.110191,0.0909 0.154416,0.14028 0.138529,0.15472 -0.0022,0.002 -0.07102,0.008 -0.152866,0.0126 -0.115168,0.007 -0.15332,0.005 -0.168726,-0.007 z m -2.171462,-0.26407 c -0.224188,-0.26368 -0.517868,-0.67984 -0.593982,-0.8417 -0.0761,-0.16184 -0.08673,-0.25647 -0.06261,-0.55737 0.0066,-0.0819 0.01493,-0.29624 0.01859,-0.4763 0.0058,-0.28647 0.009,-0.32786 0.02568,-0.33113 0.03312,-0.007 0.203725,0.11634 0.316005,0.22755 0.219206,0.21714 0.471786,0.61208 0.529639,0.82816 0.01274,0.0476 0.01983,0.11804 0.01951,0.19385 -6.53e-4,0.15443 -0.06477,0.88557 -0.08727,0.99524 -0.0095,0.0465 -0.01735,0.0869 -0.01734,0.0898 1.4e-5,0.003 -0.0078,0.005 -0.01738,0.005 -0.0096,5e-5 -0.06845,-0.06 -0.130844,-0.13334 z m 17.034827,0.0451 c -2e-5,-0.003 -0.008,-0.0432 -0.0182,-0.0896 -0.0236,-0.10944 -0.0949,-0.83992 -0.097,-0.99434 -10e-4,-0.0758 0.005,-0.14633 0.0176,-0.19403 0.0557,-0.21664 0.30442,-0.61405 0.52148,-0.83332 0.11118,-0.11232 0.28057,-0.23684 0.31375,-0.23065 0.0167,0.003 0.0203,0.0445 0.0289,0.33086 0.005,0.18002 0.0159,0.39426 0.0233,0.4761 0.0271,0.30065 0.0174,0.39538 -0.0571,0.55795 -0.10054,0.21938 -0.65578,0.98182 -0.71521,0.98211 -0.01,5e-5 -0.0174,-0.002 -0.0174,-0.005 z m -19.466498,0.0476 c -0.09949,-0.0313 -0.16298,-0.0628 -0.3426,-0.1701 -0.299603,-0.17894 -0.540937,-0.35087 -0.767679,-0.54693 -0.132679,-0.11472 -0.282662,-0.27434 -0.308032,-0.32783 -0.0267,-0.0563 0.03619,-0.0783 0.365973,-0.12838 0.496251,-0.0753 0.591257,-0.0854 0.827248,-0.0875 0.206232,-0.002 0.244223,9.4e-4 0.33953,0.025 0.25648,0.0649 0.512964,0.2263 0.925811,0.58266 0.214743,0.18536 0.28047,0.25181 0.27178,0.2748 -0.0068,0.018 -0.237145,0.11373 -0.406554,0.16901 -0.120918,0.0395 -0.46489,0.13906 -0.667375,0.19325 l -0.156031,0.0418 z m 21.830098,-0.11592 c -0.20492,-0.0531 -0.54908,-0.14869 -0.67378,-0.18725 -0.17831,-0.0551 -0.41862,-0.15125 -0.42608,-0.17041 -0.009,-0.0229 0.0562,-0.09 0.26907,-0.27745 0.40932,-0.3604 0.66421,-0.52433 0.92004,-0.59172 0.0951,-0.025 0.13303,-0.0282 0.33927,-0.0284 0.236,-2e-4 0.3311,0.009 0.82806,0.0793 0.33026,0.0468 0.39336,0.0682 0.36722,0.12478 -0.0248,0.0537 -0.17325,0.21482 -0.30479,0.33084 -0.35979,0.31732 -0.90142,0.67106 -1.12838,0.73695 -0.0563,0.0164 -0.0663,0.0155 -0.19063,-0.0167 z m -20.668665,-1.19126 c -0.109645,-0.12721 -0.169567,-0.22117 -0.197649,-0.30992 -0.03014,-0.0952 -0.03004,-0.0997 0.0057,-0.25779 0.08582,-0.37974 0.08815,-0.3958 0.08669,-0.59588 -7.74e-4,-0.10479 -0.01009,-0.28393 -0.02073,-0.39809 -0.01131,-0.12144 -0.01495,-0.21197 -0.0088,-0.21821 0.0062,-0.006 0.02236,0.006 0.03901,0.0285 0.09067,0.12494 0.341445,0.58626 0.412253,0.75837 0.10989,0.26712 0.100728,0.58206 -0.02486,0.85439 -0.04844,0.10505 -0.152028,0.2302 -0.190688,0.23039 -0.0124,7e-5 -0.05577,-0.0394 -0.100953,-0.0918 z m 19.526025,-0.0693 c -0.0688,-0.072 -0.14283,-0.21392 -0.17349,-0.3324 -0.0633,-0.24447 -0.0527,-0.47443 0.0315,-0.68492 0.0691,-0.1728 0.31534,-0.63656 0.40478,-0.76238 0.0164,-0.0231 0.0325,-0.0351 0.0387,-0.0289 0.006,0.006 0.003,0.0968 -0.007,0.21829 -0.01,0.11426 -0.0171,0.29348 -0.0168,0.39828 4.7e-4,0.20008 0.003,0.21611 0.0925,0.595 0.017,0.072 0.031,0.14233 0.0311,0.15638 4.8e-4,0.0509 -0.0471,0.17874 -0.0927,0.24882 -0.0709,0.10911 -0.20024,0.25703 -0.22491,0.25716 -0.012,5e-5 -0.0498,-0.0293 -0.0842,-0.0653 z m -21.533653,-0.25782 c -0.114722,-0.0133 -0.185671,-0.0313 -0.250055,-0.0635 -0.09035,-0.0452 -0.227705,-0.16124 -0.376518,-0.31799 -0.158005,-0.16644 -0.452762,-0.52637 -0.446557,-0.5453 0.01801,-0.0549 0.285932,-0.0496 0.824523,0.0162 0.503463,0.0616 0.517966,0.0643 0.633626,0.11953 0.218475,0.10424 0.697577,0.56176 0.698092,0.66664 1.52e-4,0.031 -0.04708,0.0471 -0.231009,0.0789 -0.308234,0.0533 -0.634327,0.0707 -0.852102,0.0455 z m 23.150593,-0.11408 c -0.15604,-0.0164 -0.44456,-0.0652 -0.48042,-0.0814 -0.0177,-0.008 -0.0322,-0.0237 -0.0322,-0.035 -5.1e-4,-0.10488 0.47407,-0.56708 0.69151,-0.67347 0.11511,-0.0563 0.12959,-0.0592 0.63242,-0.12574 0.53792,-0.0712 0.80578,-0.0791 0.82433,-0.0243 0.006,0.0189 -0.28482,0.38166 -0.44118,0.54965 -0.2223,0.23882 -0.35356,0.33368 -0.51267,0.37049 -0.0982,0.0227 -0.53338,0.0353 -0.68175,0.0198 z m -22.031716,-0.74532 c -0.02478,-0.0375 -0.07901,-0.1345 -0.120514,-0.21546 -0.10169,-0.19838 -0.101564,-0.20651 0.0069,-0.44478 0.135061,-0.29663 0.274689,-0.56421 0.294474,-0.56431 0.03458,-1.7e-4 0.190261,0.36091 0.229295,0.53181 0.02176,0.0952 0.0055,0.15898 -0.09239,0.36168 -0.11386,0.23583 -0.219056,0.39904 -0.257312,0.39923 -0.0085,4e-5 -0.0357,-0.0306 -0.06048,-0.0682 z m 21.376176,-0.0633 c -0.0816,-0.0882 -0.29102,-0.48327 -0.31749,-0.59887 -0.0181,-0.0789 -0.006,-0.1421 0.0671,-0.34369 0.0658,-0.1823 0.13417,-0.3222 0.15741,-0.32232 0.0198,-1e-4 0.16203,0.26609 0.3,0.56139 0.11082,0.23719 0.11103,0.24532 0.0113,0.44468 -0.0869,0.17371 -0.15658,0.2853 -0.1782,0.2854 -0.008,5e-5 -0.0265,-0.0119 -0.0401,-0.0266 z m -22.94828,-0.52824 c -0.254183,-0.0249 -0.369886,-0.083 -0.511209,-0.25667 -0.06675,-0.082 -0.31852,-0.44992 -0.398212,-0.58186 -0.04908,-0.0812 -0.04511,-0.10248 0.01714,-0.0917 0.01639,0.003 0.05393,0.008 0.08342,0.0125 0.140993,0.0194 0.514435,0.12658 0.667848,0.19174 0.241411,0.10252 0.47027,0.29086 0.668565,0.55018 0.11419,0.14935 0.08179,0.17565 -0.224335,0.18212 -0.108063,0.002 -0.244513,-5.4e-4 -0.303223,-0.006 z m 24.13106,-0.11703 c -0.12566,-0.0226 -0.13452,-0.0563 -0.0459,-0.17452 0.19573,-0.26127 0.42273,-0.45184 0.66312,-0.55673 0.15277,-0.0667 0.52514,-0.17754 0.66594,-0.19829 0.0294,-0.004 0.0669,-0.0103 0.0833,-0.0133 0.0622,-0.0114 0.0663,0.01 0.0181,0.0916 -0.0784,0.13272 -0.32654,0.50305 -0.39248,0.58574 -0.11705,0.14679 -0.22382,0.21346 -0.39257,0.24513 -0.10927,0.0205 -0.52107,0.0346 -0.59943,0.0205 z m -23.37234,-0.57361 c -0.128573,-0.1735 -0.165464,-0.32752 -0.117193,-0.4893 0.03585,-0.12015 0.250368,-0.53999 0.277603,-0.54331 0.01552,-0.002 0.07784,0.17242 0.09941,0.27809 0.0275,0.13467 0.0098,0.34408 -0.04339,0.5123 -0.04175,0.13216 -0.132781,0.29838 -0.163477,0.29853 -0.0062,3e-5 -0.02998,-0.0253 -0.05295,-0.0563 z m 22.99737,-0.0951 c -0.13534,-0.17838 -0.2182,-0.54439 -0.17438,-0.77026 0.0206,-0.10593 0.0795,-0.27603 0.096,-0.27709 0.0263,-0.002 0.24497,0.41354 0.28363,0.53859 0.0382,0.12344 0.0297,0.22865 -0.0277,0.34535 -0.0471,0.0957 -0.11913,0.20183 -0.13707,0.20191 -0.006,3e-5 -0.0244,-0.0173 -0.0404,-0.0385 z M 85.489403,102.7935 c -0.316933,-0.0722 -0.527901,-0.18232 -0.672541,-0.35102 -0.07388,-0.0862 -0.187373,-0.30567 -0.242156,-0.46832 -0.04412,-0.13101 -0.04707,-0.1707 -0.01267,-0.17087 0.03414,-1.7e-4 0.205394,0.0665 0.475397,0.18506 l 0.2313,0.10156 0.111078,0.16702 c 0.06109,0.0919 0.165654,0.24639 0.23236,0.34339 0.0667,0.097 0.121332,0.1865 0.121393,0.19888 9.5e-5,0.0193 -0.0087,0.0224 -0.06242,0.022 -0.03439,-2.8e-4 -0.116175,-0.0127 -0.181748,-0.0277 z m 24.990527,-0.11584 c -6e-5,-0.0124 0.0537,-0.10241 0.11944,-0.20006 0.0658,-0.0977 0.16878,-0.2532 0.22897,-0.34566 l 0.10943,-0.1681 0.2303,-0.10384 c 0.26882,-0.1212 0.43941,-0.18954 0.47355,-0.18971 0.0344,-1.7e-4 0.0318,0.0396 -0.011,0.17098 -0.0532,0.16318 -0.16451,0.38378 -0.23754,0.47067 -0.14438,0.17179 -0.35547,0.28384 -0.67501,0.35834 -0.15801,0.0368 -0.23799,0.0393 -0.23815,0.007 z m -24.604375,-0.43721 c -0.06803,-0.11538 -0.08124,-0.16621 -0.06387,-0.24565 0.02671,-0.12216 0.18605,-0.49629 0.211422,-0.49641 0.01772,-9e-5 0.05904,0.13571 0.07543,0.24789 0.02108,0.14432 0.01118,0.22578 -0.04512,0.37123 -0.05606,0.14484 -0.0884,0.20289 -0.113098,0.20301 -0.0096,5e-5 -0.03878,-0.036 -0.06477,-0.0801 z m 24.351485,-0.0779 c -0.048,-0.0775 -0.12328,-0.28724 -0.12965,-0.36143 -0.0109,-0.12707 0.0451,-0.42117 0.0802,-0.42135 0.0133,-6e-5 0.11346,0.20453 0.16641,0.34005 0.0547,0.14008 0.0674,0.20881 0.0497,0.26921 -0.0207,0.0707 -0.10416,0.21192 -0.1253,0.21202 -0.01,5e-5 -0.0283,-0.0173 -0.0414,-0.0385 z M 85.076742,101.2148 c -0.04815,-0.0271 -0.183902,-0.15431 -0.282111,-0.26433 -0.127214,-0.14251 -0.208846,-0.26205 -0.232587,-0.34058 -0.03168,-0.10478 -0.09434,-0.740566 -0.07595,-0.770643 0.0062,-0.01018 0.01527,-0.0081 0.03274,0.0074 0.06124,0.05455 0.414745,0.501793 0.494321,0.625393 0.05106,0.0793 0.118828,0.25088 0.145207,0.36762 0.02752,0.12178 0.02229,0.28358 -0.01102,0.34127 -0.02702,0.0468 -0.03814,0.0521 -0.07059,0.0339 z m 25.984668,-0.1416 c -0.0463,-0.07 -0.0563,-0.22164 -0.0241,-0.36817 0.0244,-0.11128 0.0915,-0.2843 0.14014,-0.36148 0.0784,-0.12437 0.42745,-0.575062 0.48815,-0.63021 0.0173,-0.01573 0.0263,-0.01787 0.0327,-0.0077 0.0187,0.02989 -0.0377,0.66626 -0.0684,0.77135 -0.01,0.0338 -0.043,0.0991 -0.0737,0.14515 -0.1224,0.1837 -0.41174,0.479 -0.46962,0.47928 -0.004,2e-5 -0.0149,-0.0127 -0.0252,-0.0282 z" />
      <path
         inkscape:connector-curvature="0"
         style="opacity:0.7;color:#000000;fill:#000000;fill-opacity:1;fill-rule:nonzero;stroke:none;stroke-width:16.56501579;marker:none;visibility:visible;display:inline;overflow:visible;enable-background:accumulate"
         d="m 74.15625,61.28125 c -0.249326,-0.0032 -0.508135,0.0043 -0.6875,0.03125 -1.02263,0.153622 -1.74758,0.651691 -2.25,1.5 -0.36555,0.617206 -0.6615,1.48785 -0.78125,2.46875 -0.11147,0.913103 -0.09782,2.148658 0,3.15625 0.04172,0.429827 0.103649,0.819809 0.1875,1.1875 0.245452,0.06938 0.624212,0.166746 0.6875,0.1875 0.001,-0.05308 0,-0.53125 0,-0.53125 l 0,-0.03125 0.03125,0 c 0.07237,0.01007 1.109918,0.169275 2.09375,0.4375 -0.01486,-0.05446 -0.02433,-0.101982 -0.03125,-0.15625 -0.0232,-0.181644 -0.0214,-4.820698 0,-5 0.0532,-0.446869 0.21612,-0.679241 0.53125,-0.71875 0.21843,-0.02739 0.40176,0.02067 0.53125,0.15625 0.0896,0.09375 0.14714,0.196661 0.1875,0.34375 0.0496,0.180677 0.0595,0.386208 0.0625,1 l 0,0.5625 1.15625,0 1.15625,0 0,-1.78125 0,-1.78125 -0.125,-0.09375 c -0.15831,-0.118441 -0.44076,-0.301884 -0.5625,-0.375 -0.36718,-0.220502 -0.99065,-0.419465 -1.5,-0.5 -0.20159,-0.03187 -0.438174,-0.05927 -0.6875,-0.0625 z M 67.375,61.3125 c -0.263022,-0.01969 -0.772054,-0.0026 -1.03125,0.03125 -1.102885,0.144207 -1.82225,0.59112 -2.21875,1.375 -0.243559,0.481514 -0.338608,0.956047 -0.375,1.71875 -0.03289,0.689364 0.01932,1.375273 0.1875,1.875 0.216687,0.643845 0.602756,1.141161 1.25,1.625 0.152869,0.114281 0.636573,0.41746 1,0.625 0.147465,0.08421 0.331146,0.175718 0.40625,0.21875 0.19187,0.109935 0.315294,0.229042 0.40625,0.34375 0.255261,-1.88e-4 0.52359,0.02438 0.75,0.03125 0.801005,0.02402 1.623808,0.160989 2.28125,0.3125 0.0055,-0.145968 0.03506,-0.27341 0.03125,-0.4375 -0.014,-0.604555 -0.07807,-0.991081 -0.21875,-1.40625 -0.18614,-0.549357 -0.431953,-0.935547 -0.8125,-1.3125 -0.341875,-0.338652 -0.769222,-0.60883 -1.5625,-1 -0.597677,-0.294718 -0.687482,-0.362628 -0.75,-0.5 -0.04981,-0.109448 -0.04848,-0.342753 0,-0.46875 0.07436,-0.193039 0.291021,-0.297285 0.59375,-0.28125 0.214884,0.01138 0.396935,0.125986 0.46875,0.3125 0.01773,0.04605 0.02182,0.166309 0.03125,0.25 l 0.03125,0.125 1,0 1,0 0,-1.28125 0,-1.28125 -0.125,-0.09375 C 69.132474,61.664673 68.254243,61.378309 67.375,61.3125 z m -6.90625,5.78125 c -0.224609,0.0011 -0.432527,0.0126 -0.5625,0.03125 -0.71323,0.102354 -1.254234,0.344 -1.65625,0.75 -0.185682,0.187516 -0.318362,0.3778 -0.4375,0.625 -0.152708,0.316856 -0.230264,0.572303 -0.28125,0.96875 -0.02876,0.223606 -0.02767,0.767493 0,1 0.117058,0.984498 0.582622,1.685826 1.34375,2.0625 0.253144,0.125276 0.54028,0.193676 0.875,0.25 0.481385,-0.779826 1.162642,-1.475163 2.09375,-2.0625 l 0.09375,-0.0625 c 0.547679,-0.340322 1.047763,-0.572867 1.53125,-0.78125 -6.11e-4,-0.02119 9.04e-4,-0.04119 0,-0.0625 -0.04376,-1.030852 -0.387704,-1.765187 -1.09375,-2.25 -0.325617,-0.223592 -0.782912,-0.366802 -1.3125,-0.4375 -0.130151,-0.01738 -0.369141,-0.03235 -0.59375,-0.03125 z m 15.40625,0.9375 -1.15625,0.03125 0,0.625 c 0.004,0.385689 0.01,0.680183 0,0.78125 -0.0276,0.284033 -0.08276,0.465334 -0.1875,0.59375 0.06087,0.02939 0.134084,0.06296 0.1875,0.09375 0.12029,0.06977 0.1753,0.14301 0.25,0.21875 0.26885,0.275453 0.61755,1.449579 0.65625,1.6875 -0.0138,0.0052 -0.04955,0.03232 -0.09375,0.0625 -0.22524,0.159142 -0.75915,0.52594 -1.4375,0.46875 -0.6097,-0.0512 -1.41247,-0.372839 -2.375,-1 0.02957,0.06909 0.113749,0.265238 0.1875,0.4375 0.102174,0.08877 0.200222,0.177899 0.3125,0.25 0.37295,0.239489 0.85008,0.436101 1.375,0.5 0.24527,0.02985 0.99694,0.0093 1.25,-0.03125 0.177355,-0.0284 0.336403,-0.08332 0.5,-0.125 0.04281,-0.02255 0.125235,-0.04368 0.15625,-0.0625 l 0.0625,0 c 0.341424,-0.103156 0.650714,-0.213408 0.90625,-0.375 0.13473,-0.0852 0.48787,-0.366006 0.5625,-0.4375 l 0.03125,-0.03125 0,-1.84375 0,-1.84375 -1.1875,0 z m -15.21875,0.8125 c 0.212544,0.04556 0.354184,0.184605 0.40625,0.40625 0.02249,0.09573 0.02193,1.331268 0,1.4375 -0.06358,0.307548 -0.339351,0.467714 -0.71875,0.40625 -0.123918,-0.02007 -0.256447,-0.104644 -0.3125,-0.1875 -0.09846,-0.145517 -0.115627,-0.128788 -0.125,-0.875 -0.0095,-0.758315 0.0049,-0.834321 0.09375,-0.96875 0.05083,-0.07687 0.162986,-0.160228 0.25,-0.1875 0.08634,-0.02705 0.312402,-0.05137 0.40625,-0.03125 z m 3.1875,0.40625 0,0.46875 c 0.614386,-0.235295 1.172214,-0.384931 1.6875,-0.46875 l -0.625,0 -1.0625,0 z m 10,0.96875 c -0.239489,0.0083 -0.449395,0.115088 -0.625,0.28125 -0.19163,0.179661 -0.30456,0.424531 -0.3125,0.6875 -0.0152,0.542013 0.39551,0.982457 0.9375,1 0.26413,0.0074 0.52766,-0.100434 0.71875,-0.28125 0.1911,-0.180244 0.30402,-0.393856 0.3125,-0.65625 0.01348,-0.462807 -0.32173,-0.85086 -0.75,-0.96875 -0.07622,0.0061 -0.147869,-0.04364 -0.21875,-0.0625 -0.01899,-0.0051 -0.04424,0.0067 -0.0625,0 z M 73.9375,70.5 c 0.38618,0.01161 0.66732,0.331981 0.65625,0.71875 -0.005,0.186376 -0.08304,0.371203 -0.21875,0.5 -0.13636,0.127655 -0.31248,0.192426 -0.5,0.1875 -0.38563,-0.01227 -0.66723,-0.332575 -0.65625,-0.71875 0.005,-0.186962 0.08361,-0.371762 0.21875,-0.5 0.13572,-0.128208 0.31303,-0.193615 0.5,-0.1875 z m 0.09375,0.34375 c -0.17169,8.43e-4 -0.28181,0.104132 -0.28125,0.21875 5.6e-4,0.11401 0.14082,0.188343 0.3125,0.1875 0.1716,-8.43e-4 0.28181,-0.07349 0.28125,-0.1875 -5.6e-4,-0.114615 -0.14091,-0.219593 -0.3125,-0.21875 z m -11.4375,2.21875 c -0.310658,0.235501 -0.676219,0.404506 -1.09375,0.5 -0.260811,0.05965 -0.535088,0.08587 -0.8125,0.09375 -0.110293,0.121739 -0.223224,0.235804 -0.3125,0.40625 -0.243933,0.465869 -0.241071,1.085393 0.03125,1.59375 0.278165,0.520418 0.79236,0.84515 1.375,0.90625 0.57803,0.06006 1.007661,-0.05838 1.25,-0.375 0.244078,-0.319446 0.300876,-0.773039 0.125,-1.125 -0.189228,-0.378459 -0.482734,-0.56226 -0.875,-0.59375 -0.299333,-0.02504 -0.51424,0.09151 -0.59375,0.21875 -0.02287,0.03989 -0.06226,0.114381 -0.0625,0.21875 0.0014,0.284826 0.25945,0.3718 0.3125,0.375 0.01612,-6.1e-4 0.08385,-0.0048 0.1875,-0.03125 l 0.0625,-0.03125 0.03125,0 0.03125,0 c 0.188936,-0.0355 0.35232,0.06634 0.40625,0.25 0.0094,0.03399 0.03109,0.06029 0.03125,0.09375 6.01e-4,0.122243 -0.08464,0.24279 -0.1875,0.3125 l 0,0.03125 c -0.0546,0.03431 -0.10383,0.04607 -0.15625,0.0625 -0.148516,0.04915 -0.306083,0.06185 -0.4375,0.0625 -0.450876,0.0016 -1.08211,-0.365621 -1.09375,-1.09375 -0.006,-0.411081 0.200469,-0.788485 0.5625,-1.03125 0.416638,-0.278231 1.139955,-0.376542 1.8125,0.03125 0.826919,0.500434 1.055479,1.481218 0.84375,2.15625 C 63.723,77.072004 62.849174,77.598 61.6875,77.5 c -0.769531,-0.06464 -1.503973,-0.449559 -1.96875,-1.03125 0.0064,0.37039 0.0198,0.390726 0.03125,2.75 0.01042,2.13733 0.03723,3.86629 0.03125,3.875 -0.0074,0.0108 -0.287105,0.02735 -0.84375,0.03125 -0.448028,0.003 -0.808179,0.02665 -0.8125,0.03125 -0.01178,0.0119 -0.0129,1.35955 0,2.125 l 0,0.6875 4.0625,-0.03125 4.03125,-0.03125 L 66.25,84.5 c 0.0011,-0.79558 -0.02388,-1.39886 -0.03125,-1.40625 -0.0074,-0.007 -0.318332,-0.006 -0.71875,0 -0.472439,0.007 -0.708491,0.01 -0.71875,0 -0.01042,-0.0103 -0.01384,-1.57246 -0.03125,-4.875 -0.0098,-1.854963 -0.02507,-2.573393 -0.03125,-3.40625 -0.387604,-0.908275 -1.15936,-1.603733 -2.03125,-1.75 -0.02687,-0.0045 -0.06503,0.004 -0.09375,0 z M 58.5,73.15625 c -0.04548,-0.0055 -0.108591,0.0095 -0.21875,0.03125 -0.230603,0.04561 -0.679622,0.139221 -0.71875,0.15625 l -0.03125,0.03125 0,0.9375 c 0.0034,0.693151 0.01909,0.961336 0.03125,0.96875 0.0092,0.0056 0.478844,0.0045 1.0625,0 0.41201,-0.0032 0.392004,0.02397 0.5625,0.03125 -0.150675,-0.706445 0.02442,-1.417927 0.15625,-1.75 0.0085,-0.02124 0.02249,-0.04137 0.03125,-0.0625 -0.268772,-0.07227 -0.555087,-0.164153 -0.75,-0.28125 -0.05167,-0.03104 -0.07952,-0.057 -0.125,-0.0625 z m 17.21875,0.1875 -0.1875,0.03125 c -0.21332,0.06141 -0.45985,0.115909 -0.71875,0.15625 -0.06006,0.0094 -0.203447,-0.0074 -0.3125,0 -0.519491,0.183201 -1.25074,0.313183 -1.9375,0.3125 -0.28025,-0.005 -0.54301,-0.03657 -0.78125,-0.0625 -0.72862,-0.07943 -1.26869,-0.131162 -1.375,0.53125 -0.06893,0.426925 0.09492,0.889973 0.28125,1.25 0.23016,-0.232428 0.60635,-0.353157 1.03125,-0.3125 0.32723,0.03131 0.53828,0.102709 0.71875,0.28125 0.13495,0.133515 0.19318,0.257473 0.25,0.46875 0.0522,0.194166 0.06895,0.652581 0.03125,0.84375 -0.047,0.238506 -0.15957,0.46125 -0.3125,0.59375 -0.0744,0.0645 -0.22242,0.15827 -0.3125,0.1875 -0.19599,0.0636 -0.24538,0.0497 -1.03125,0.0625 l -0.78125,0.03125 0,1.25 c 0.001,0.69849 0.02705,1.2946 0.03125,1.3125 l 0,0.03125 0.78125,0 c 0.74556,0.001 0.76242,7.5e-4 0.875,0.03125 0.42398,0.1161 0.69836,0.41312 0.78125,0.875 0.0296,0.16477 0.028,0.59773 0,0.8125 -0.0771,0.60184 -0.32072,0.90633 -0.84375,1 -0.18985,0.034 -0.58251,0.0432 -0.75,0 -0.2928,-0.0755 -0.51221,-0.26237 -0.625,-0.5 -0.10836,-0.22831 -0.11234,-0.32436 -0.125,-0.8125 l 0,-0.40625 -1.71875,0 c -0.94721,0.003 -1.744985,-0.0059 -1.75,0 -0.005,0.006 -0.0084,0.84199 0,1.84375 l 0.03125,1.8125 0.21875,0.125 c 0.493772,0.28414 0.774506,0.42766 1.28125,0.59375 0.394939,0.12943 0.8678,0.22352 1.46875,0.3125 0.48133,0.0713 0.62438,0.09089 1.15625,0.125 0.17343,0.0111 1.16407,0.0141 1.375,0 C 73.51127,86.0534 74.28506,85.84549 75,85.5 c 0.82567,-0.39901 1.46736,-1.04677 1.78125,-1.78125 0.35146,-0.82241 0.43168,-1.91342 0.1875,-2.65625 -0.1014,-0.30849 -0.2603,-0.63512 -0.4375,-0.875 C 76.28063,79.84824 75.98968,79.5732 75.5,79.25 c -0.1245,-0.0822 -0.24395,-0.14713 -0.25,-0.15625 -0.006,-0.009 3e-4,-0.05415 0,-0.09375 -6.7e-4,-0.0837 -0.01138,-0.09095 0.28125,-0.34375 0.23772,-0.20557 0.45683,-0.42824 0.5625,-0.5625 0.34352,-0.43646 0.5959,-0.949813 0.6875,-1.4375 C 76.87005,76.183403 76.83505,75.510212 76.71875,75 76.58524,74.414295 76.30453,73.909822 75.9375,73.53125 75.8715,73.46316 75.8089,73.391901 75.78125,73.375 l -0.0625,-0.03125 z m -8.4375,0.59375 c -0.120743,-8.6e-5 -0.230599,0.01288 -0.34375,0.03125 -0.01343,0.111181 -0.03397,0.176667 -0.03125,1.28125 l 0,1.59375 1.75,0 1.71875,-0.03125 0,-0.1875 c -0.0017,-0.314449 0.02569,-0.537651 0.09375,-0.71875 -0.335515,-0.152855 -0.671136,-0.303334 -0.6875,-0.3125 L 69.71875,75.5625 69.6875,75.53125 c -0.09442,-0.09006 -0.271198,-0.277288 -0.65625,-0.71875 -0.559663,-0.640724 -1.188449,-0.8746 -1.75,-0.875 z"
         id="path3180"
         transform="translate(30.85807,22.897552)" />
    </g>
    <flowRoot
       xml:space="preserve"
       id="flowRoot3224"
       style="font-size:12px;font-style:normal;font-weight:normal;line-height:125%;letter-spacing:0px;word-spacing:0px;opacity:0.75;fill:#000000;fill-opacity:1;stroke:none;font-family:Sans"
       transform="matrix(2.2189198,0.16857242,-0.16857242,2.2189198,-579.02097,-524.62672)"><flowRegion
         id="flowRegion3226"><rect
           id="rect3228"
           width="86.105034"
           height="91.271454"
           x="310.92081"
           y="135.0495"
           style="font-size:12px" /></flowRegion><flowPara
         style="font-size:5.39249802px;text-align:justify;text-anchor:start"
         id="flowPara3230">Thank you for joining us at the openSUSE Conference 2013 in Thessaloniki. We would like to thank the local team for spending countless hours in preparing the event and all others that pitched in from all corners of the world. Over the next 3 days we will have more than 60 talks, workshops and BoF sessions to keep all Geekos busy, happy and interested. Have a lot of Fun!</flowPara><flowPara
         id="flowPara3232"
         style="font-size:5.39249802px;text-align:justify;text-anchor:start">- the openSUSE Board</flowPara></flowRoot>    <text
       xml:space="preserve"
       style="font-size:16.44665146px;font-style:normal;font-variant:normal;font-weight:normal;font-stretch:normal;text-indent:0;text-align:start;text-decoration:none;line-height:125%;letter-spacing:0px;word-spacing:0px;text-transform:none;direction:ltr;block-progression:tb;writing-mode:lr-tb;text-anchor:start;baseline-shift:baseline;opacity:0.7;color:#000000;fill:#000000;fill-opacity:1;fill-rule:nonzero;stroke:none;stroke-width:1;marker:none;visibility:visible;display:inline;overflow:visible;enable-background:accumulate;font-family:Sans;-inkscape-font-specification:Sans"
       x="434.60254"
       y="-176.76904"
       id="text3234"
       sodipodi:linespacing="125%"
       transform="matrix(0.99950634,-0.03141789,0.03141789,0.99950634,0,0)"
       inkscape:export-filename="/home/CarlosRibeiro/Documents/openSUSE/oSC13/newspaper/News_Paper_oSC13_01.png"
       inkscape:export-xdpi="300"
       inkscape:export-ydpi="300"><tspan
         style="font-size:20px;font-weight:normal;text-align:center;text-anchor:middle;-inkscape-font-specification:Sans"
         id="tspan3238"
         sodipodi:role="line"
         x="434.60254"
         y="-176.76904">Dimitra Room</tspan></text>
    <flowRoot
       transform="matrix(2.2227598,-0.10658479,0.10658479,2.2227598,-127.01622,-437.57488)"
       style="font-size:12px;font-style:normal;font-weight:normal;line-height:125%;letter-spacing:0px;word-spacing:0px;opacity:0.75;fill:#000000;fill-opacity:1;stroke:none;font-family:Sans"
       id="flowRoot3286"
       xml:space="preserve"><flowRegion
         id="flowRegion3288"><rect
           style="font-size:12px"
           y="135.0495"
           x="310.92081"
           height="40.164276"
           width="97.523674"
           id="rect3290" /></flowRegion><flowPara
         id="flowPara3292"
         style="font-size:4px;text-align:justify;text-anchor:start" /><flowPara
         id="flowPara3294"
         style="font-size:5.39249802px;text-align:justify;text-anchor:start">The Geeko on the window was made on Thursday afternoon out of 423 Post-It notes and it is the biggest Post-It Geeko we've ever made! ? </flowPara><flowPara
         style="font-size:5.39249802px;text-align:justify;text-anchor:start"
         id="flowPara3296" /></flowRoot>    <text
       xml:space="preserve"
       style="font-size:16.44665146px;font-style:normal;font-variant:normal;font-weight:normal;font-stretch:normal;text-indent:0;text-align:start;text-decoration:none;line-height:125%;letter-spacing:0px;word-spacing:0px;text-transform:none;direction:ltr;block-progression:tb;writing-mode:lr-tb;text-anchor:start;baseline-shift:baseline;opacity:0.7;color:#000000;fill:#000000;fill-opacity:1;fill-rule:nonzero;stroke:none;stroke-width:1;marker:none;visibility:visible;display:inline;overflow:visible;enable-background:accumulate;font-family:Sans;-inkscape-font-specification:Sans"
       x="679.63843"
       y="-171.88071"
       id="text3298"
       sodipodi:linespacing="125%"
       transform="matrix(0.99953491,-0.03049535,0.03049535,0.99953491,0,0)"
       inkscape:export-filename="/home/CarlosRibeiro/Documents/openSUSE/oSC13/newspaper/News_Paper_oSC13_01.png"
       inkscape:export-xdpi="300"
       inkscape:export-ydpi="300"><tspan
         sodipodi:role="line"
         id="tspan3300"
         x="679.63843"
         y="-171.88071"
         style="font-size:20px;text-align:center;text-anchor:middle">Hephaestus Room</tspan></text>
    <text
       inkscape:export-ydpi="300"
       inkscape:export-xdpi="300"
       inkscape:export-filename="/home/CarlosRibeiro/Documents/openSUSE/oSC13/newspaper/News_Paper_oSC13_01.png"
       transform="matrix(0.99375329,0.11159929,-0.11159929,0.99375329,0,0)"
       sodipodi:linespacing="125%"
       id="text4190"
       y="-208.33809"
       x="161.6096"
       style="font-size:16.44665146px;font-style:normal;font-variant:normal;font-weight:normal;font-stretch:normal;text-indent:0;text-align:start;text-decoration:none;line-height:125%;letter-spacing:0px;word-spacing:0px;text-transform:none;direction:ltr;block-progression:tb;writing-mode:lr-tb;text-anchor:start;baseline-shift:baseline;opacity:0.7;color:#000000;fill:#000000;fill-opacity:1;fill-rule:nonzero;stroke:none;stroke-width:1;marker:none;visibility:visible;display:inline;overflow:visible;enable-background:accumulate;font-family:Sans;-inkscape-font-specification:Sans"
       xml:space="preserve"><tspan
         y="-208.33809"
         x="161.6096"
         sodipodi:role="line"
         id="tspan4194"
         style="font-size:20px;font-weight:normal;text-align:center;text-anchor:middle;-inkscape-font-specification:Sans">Zeus Room</tspan></text>
  </g>
  <metadata
     id="metadata4894">
    <rdf:RDF>
      <cc:Work>
        <dc:format>image/svg+xml</dc:format>
        <dc:type
           rdf:resource="http://purl.org/dc/dcmitype/StillImage" />
        <cc:license
           rdf:resource="http://creativecommons.org/licenses/publicdomain/" />
        <dc:publisher>
          <cc:Agent
             rdf:about="http://openclipart.org/">
            <dc:title>Open Clip Art Library</dc:title>
          </cc:Agent>
        </dc:publisher>
        <dc:title></dc:title>
        <dc:date>2009-03-31T16:11:58</dc:date>
        <dc:description>This is a news paper done in inkscape.</dc:description>
        <dc:source>http://openclipart.org/detail/23539/news-paper-by-baroquon</dc:source>
        <dc:creator>
          <cc:Agent>
            <dc:title>baroquon</dc:title>
          </cc:Agent>
        </dc:creator>
        <dc:subject>
          <rdf:Bag>
            <rdf:li>clip art</rdf:li>
            <rdf:li>clipart</rdf:li>
            <rdf:li>icon</rdf:li>
            <rdf:li>icon</rdf:li>
            <rdf:li>image</rdf:li>
            <rdf:li>media</rdf:li>
            <rdf:li>newspaper</rdf:li>
            <rdf:li>newspaper</rdf:li>
            <rdf:li>paper</rdf:li>
            <rdf:li>paper</rdf:li>
            <rdf:li>public domain</rdf:li>
            <rdf:li>svg</rdf:li>
          </rdf:Bag>
        </dc:subject>
      </cc:Work>
      <cc:License
         rdf:about="http://creativecommons.org/licenses/publicdomain/">
        <cc:permits
           rdf:resource="http://creativecommons.org/ns#Reproduction" />
        <cc:permits
           rdf:resource="http://creativecommons.org/ns#Distribution" />
        <cc:permits
           rdf:resource="http://creativecommons.org/ns#DerivativeWorks" />
      </cc:License>
    </rdf:RDF>
  </metadata>
</svg>
