<svg xmlns="http://www.w3.org/2000/svg" viewBox="0 0 513.05 509.11"><defs><style>.cls-1{fill:#73ba25;}.cls-2{opacity:0.85;}.cls-3{fill:#173f4f;}.cls-4{opacity:0.6;}.cls-5{fill:#35b9ab;}</style></defs><title>Design 3</title><g id="Line_Art" data-name="Line Art"><path class="cls-1" d="M415,189.51H385.83a156.5,156.5,0,0,0-73.14-63.46c-.63-2.53-1.22-5.09-1.78-7.65q-2.43-11.31-3.81-23l-.06-.55c0-.34-.05-.69-.05-1a10.26,10.26,0,0,1,10.26-10.27,10,10,0,0,1,3.06.47,4.72,4.72,0,0,1,.53.18l.25.09A143.81,143.81,0,0,1,415,189.51Z"/><path class="cls-1" d="M385.83,189.51H338.37a244.53,244.53,0,0,1-25.68-63.46A156.5,156.5,0,0,1,385.83,189.51Z"/><path class="cls-1" d="M338.37,189.51h-74a153.16,153.16,0,0,0-80.47,22.69A154.17,154.17,0,0,1,297,120.39a154.13,154.13,0,0,1,15.74,5.66A244.53,244.53,0,0,0,338.37,189.51Z"/><path class="cls-1" d="M252.18,113.87A156,156,0,0,1,297,120.39,154.17,154.17,0,0,0,183.88,212.2,154.7,154.7,0,0,0,136,258.37,153.15,153.15,0,0,0,110.64,335,155.87,155.87,0,0,1,252.18,113.87Z"/><path class="cls-1" d="M269.15,414.72a151,151,0,0,0,20,6.41,154.2,154.2,0,0,1-22.94,3.79h0c-4.62.42-9.28.63-14,.63A155.87,155.87,0,0,1,110.64,335,153.15,153.15,0,0,1,136,258.37a154.7,154.7,0,0,1,47.85-46.17,153.78,153.78,0,0,0,36,170.94l.13.12q4.06,3.87,8.4,7.42l.33.28c.72.62,1.45,1.21,2.19,1.76a153.46,153.46,0,0,0,38.25,22Z"/><g class="cls-2"><path class="cls-3" d="M385.83,189.51H338.37a244.53,244.53,0,0,1-25.68-63.46A156.5,156.5,0,0,1,385.83,189.51Z"/><path class="cls-3" d="M338.37,189.51h-74a153.16,153.16,0,0,0-80.47,22.69A154.17,154.17,0,0,1,297,120.39a154.13,154.13,0,0,1,15.74,5.66A244.53,244.53,0,0,0,338.37,189.51Z"/><path class="cls-3" d="M252.18,113.87A156,156,0,0,1,297,120.39,154.17,154.17,0,0,0,183.88,212.2,154.7,154.7,0,0,0,136,258.37,153.15,153.15,0,0,0,110.64,335,155.87,155.87,0,0,1,252.18,113.87Z"/><path class="cls-3" d="M280.32,331.42a43.88,43.88,0,0,0-62.08,40c0,.25,0,.5,0,.74-.06-1-.08-2-.08-3a56.31,56.31,0,0,1,21.72-44.49h0A39.4,39.4,0,0,1,280.32,331.42Z"/></g><g class="cls-4"><path class="cls-5" d="M385.83,189.51H338.37a244.53,244.53,0,0,1-25.68-63.46A156.5,156.5,0,0,1,385.83,189.51Z"/><path class="cls-5" d="M328.83,353.39A56.46,56.46,0,0,1,306.05,416l0,0a155.57,155.57,0,0,1-16.85,5.12,151,151,0,0,1-20-6.41h0a153.46,153.46,0,0,1-38.25-22,39.4,39.4,0,0,0,49.47-61.28l0,0h0a39.4,39.4,0,0,0-40.42-6.82,56.44,56.44,0,0,1,88.93,28.79Z"/><path class="cls-5" d="M269.15,414.72a151,151,0,0,0,20,6.41,154.2,154.2,0,0,1-22.94,3.79h0c-4.62.42-9.28.63-14,.63A155.87,155.87,0,0,1,110.64,335,153.15,153.15,0,0,1,136,258.37a154.7,154.7,0,0,1,47.85-46.17,153.78,153.78,0,0,0,36,170.94l.13.12q4.06,3.87,8.4,7.42l.33.28c.72.62,1.45,1.21,2.19,1.76a153.46,153.46,0,0,0,38.25,22Z"/></g></g></svg>