<svg xmlns="http://www.w3.org/2000/svg" viewBox="0 0 513.05 509.11">
    <defs>
        <style>
            .cls-1{fill:none;stroke:#000;stroke-linecap:round;stroke-linejoin:round}
        </style>
    </defs>
    <g id="Line_Art" data-name="Line Art">
        <path class="cls-1" d="M297.78 120.39a154.13 154.13 0 0115.74 5.66M231.71 392.72c-.74-.55-1.47-1.14-2.19-1.76l-.33-.28q-4.33-3.54-8.4-7.42M240.73 324.6h0A56.31 56.31 0 00219 369.1c0 1 0 2 .08 3 0-.24 0-.49 0-.74a43.9 43.9 0 0162.08-40M111.47 335A155.87 155.87 0 00253 425.55c4.73 0 9.39-.21 14-.63h0A154.2 154.2 0 00290 421.13"/>
        <path class="cls-1" d="M220.66 383.14A154.07 154.07 0 01184.71 212.2a153.16 153.16 0 0180.47-22.69M415.86 189.51L415.81 189.51M386.67 189.51L339.2 189.51 265.19 189.51"/>
        <path class="cls-1" d="M297.78 120.39A154.17 154.17 0 00184.71 212.2a154.7 154.7 0 00-47.85 46.17A153.15 153.15 0 00111.47 335 156 156 0 01297.78 120.39zM415.81 189.51H386.66a156.5 156.5 0 00-73.14-63.46c-.63-2.53-1.22-5.09-1.78-7.65q-2.43-11.31-3.81-23l-.06-.55c0-.34-.05-.69-.05-1a10.26 10.26 0 0110.26-10.27 10 10 0 013.06.47 4.72 4.72 0 01.53.18l.25.09a143.81 143.81 0 0193.89 105.2zM339.2 189.51a244.53 244.53 0 01-25.68-63.46M240.73 324.6A56.45 56.45 0 11306.88 416l0 0A155.57 155.57 0 01290 421.13a151 151 0 01-20-6.41h0a153.46 153.46 0 01-38.25-22 39.4 39.4 0 0049.47-61.28l0 0h0A39.4 39.4 0 00240.73 324.6zM231.71 392.72c-.74-.55-1.47-1.14-2.19-1.76l-.33-.28q-4.33-3.54-8.4-7.42"/>
        <path class="cls-1" d="M240.73 324.6h0A56.31 56.31 0 00219 369.1c0 1 0 2 .08 3 0-.24 0-.49 0-.74a43.9 43.9 0 0162.08-40M111.47 335A155.87 155.87 0 00253 425.55c4.73 0 9.39-.21 14-.63h0A154.2 154.2 0 00290 421.13"/>
        <path class="cls-1" d="M231.71,392.72a39.4,39.4,0,0,0,49.47-61.28l0,0h0"/>
        <path class="cls-1" d="M240.73 324.6A56.45 56.45 0 11306.88 416l0 0A155.57 155.57 0 01290 421.13M297.78 120.39a154.13 154.13 0 0115.74 5.66M231.71 392.72c-.74-.55-1.47-1.14-2.19-1.76l-.33-.28q-4.33-3.54-8.4-7.42"/>
        <path class="cls-1" d="M240.73 324.6h0A56.31 56.31 0 00219 369.1c0 1 0 2 .08 3 0-.24 0-.49 0-.74a43.9 43.9 0 0162.08-40M111.47 335A155.87 155.87 0 00253 425.55c4.73 0 9.39-.21 14-.63h0A154.2 154.2 0 00290 421.13"/>
        <path class="cls-1" d="M220.66 383.14A154.07 154.07 0 01184.71 212.2a153.16 153.16 0 0180.47-22.69M415.86 189.51L415.81 189.51M386.67 189.51L339.2 189.51 265.19 189.51"/>
        <path class="cls-1" d="M297.78 120.39A154.17 154.17 0 00184.71 212.2a154.7 154.7 0 00-47.85 46.17A153.15 153.15 0 00111.47 335 156 156 0 01297.78 120.39zM415.81 189.51H386.66a156.5 156.5 0 00-73.14-63.46c-.63-2.53-1.22-5.09-1.78-7.65q-2.43-11.31-3.81-23l-.06-.55c0-.34-.05-.69-.05-1a10.26 10.26 0 0110.26-10.27 10 10 0 013.06.47 4.72 4.72 0 01.53.18l.25.09a143.81 143.81 0 0193.89 105.2zM339.2 189.51a244.53 244.53 0 01-25.68-63.46M240.73 324.6A56.45 56.45 0 11306.88 416l0 0A155.57 155.57 0 01290 421.13a151 151 0 01-20-6.41h0a153.46 153.46 0 01-38.25-22 39.4 39.4 0 0049.47-61.28l0 0h0A39.4 39.4 0 00240.73 324.6z"/>
    </g>
</svg>
