<svg xmlns="http://www.w3.org/2000/svg" viewBox="0 0 500 494.11"><defs><style>.cls-1,.cls-2{fill:none;stroke:#73ba25;stroke-miterlimit:10;stroke-width:10px;}.cls-2{stroke-linecap:round;}.cls-3{fill:#73ba25;}</style></defs><title>Design 5</title><g id="Line_Art" data-name="Line Art"><line class="cls-1" x1="149.33" y1="162.13" x2="148.83" y2="162.13"/><line class="cls-2" x1="168.61" y1="216.13" x2="166.83" y2="216.13"/><polyline class="cls-1" points="184.83 198.13 184.83 216.13 180.01 216.13"/><path class="cls-1" d="M130.83,189.88v8.25a13.45,13.45,0,0,1,2.46-7.78C132.48,190.17,131.66,190,130.83,189.88Z"/><path class="cls-2" d="M157.17,202.3a13.34,13.34,0,0,0,.66-4.17,13.5,13.5,0,0,0-24.54-7.78c-.81-.18-1.63-.33-2.46-.47V162.13h18a36,36,0,0,1,31.18,54h-11.4"/><path class="cls-1" d="M157.83,198.13a13.34,13.34,0,0,1-.66,4.17,13.49,13.49,0,0,1-12.84,9.33,13.29,13.29,0,0,1-5.17-1l-.09,0c-.25-.13-.49-.24-.74-.35a13.5,13.5,0,1,1,19.5-12.09Z"/><path class="cls-1" d="M133.29,190.35a13.45,13.45,0,0,0-2.46,7.78v-8.25C131.66,190,132.48,190.17,133.29,190.35Z"/><path class="cls-2" d="M114,208.37a35.63,35.63,0,0,1-1.19-10.24c0-3,0-5.22,0-8.41-22.66,0-45,21.91-45,53.41a54,54,0,0,0,54,54,22.5,22.5,0,0,0,22.5-22.5c0-.65,0-1.3-.09-1.93a22.46,22.46,0,0,0-21.71-20.55l-.7,0-.7,0a13.5,13.5,0,0,0-2.25,26.66m0,0"/><line class="cls-2" x1="158.58" y1="234.13" x2="175.08" y2="234.13"/><path class="cls-1" d="M121.83,297.13a22.5,22.5,0,0,0,22.5-22.5c0-.65,0-1.3-.09-1.93"/><path class="cls-1" d="M144.24,272.7a22.46,22.46,0,0,0-21.71-20.55l-.7,0"/><line class="cls-2" x1="121.83" y1="233.93" x2="158.58" y2="234.13"/><path class="cls-2" d="M93.27,262.36c-8.44-12.23-7.44-28.23.56-40.23,5-6,12-12,20-14,5,15,19,26,35,26h0c-9,0-24.86-.55-33.79,0-4.9.3-9,3.86-9,9"/><path class="cls-1" d="M121.83,252.13c-15.63.07-18.27,23.26-3,26.68"/><rect class="cls-3" x="355.34" y="157.13" width="0.5" height="10"/><path class="cls-3" d="M375.12,221.13h-1.78a5,5,0,0,1,0-10h1.78a5,5,0,0,1,0,10Z"/><path class="cls-3" d="M393.36,221.13h-6.84v-5h-.18v-18h10v20A3,3,0,0,1,393.36,221.13Z"/><path class="cls-3" d="M342.34,198.13h-10V184l5.83,1c1.05.18,1.91.34,2.71.52l7.33,1.62-4.33,6.14A8.48,8.48,0,0,0,342.34,198.13Z"/><path class="cls-3" d="M389.4,221.13H375.33a5.15,5.15,0,0,1-5.19-4.51,5,5,0,0,1,5-5.49h8.37a31,31,0,0,0-28.15-44h-13V181.7a18.5,18.5,0,0,1,26.09,22.16,5,5,0,0,1-9.5-3.12,8.5,8.5,0,0,0-15.05-7.5L342,196l-3.25-.72c-.72-.16-1.46-.3-2.2-.42l-4.17-.7v-34a3,3,0,0,1,3-3h20a41,41,0,0,1,35.5,61.5Z"/><path class="cls-3" d="M350.84,216.63a18.37,18.37,0,0,1-6.18-1.06h-.31l-1.09-.57-.44-.21-.2-.09a18.51,18.51,0,0,1-6.91-27.23,18.5,18.5,0,1,1,15.13,29.16ZM347.57,206l0,0a8.31,8.31,0,0,0,3.23.64,8.46,8.46,0,0,0,8.08-5.87,8.37,8.37,0,0,0,.42-2.63,8.5,8.5,0,0,0-15.46-4.89A8.51,8.51,0,0,0,347,205.7Z"/><path class="cls-3" d="M342.34,198.13h-10V184l5.83,1c1.05.18,1.91.34,2.71.52l7.33,1.62-4.33,6.14A8.48,8.48,0,0,0,342.34,198.13Z"/><path class="cls-2" d="M320.53,208.37a35.63,35.63,0,0,1-1.19-10.24c0-2,0-3.58,0-5.35a2.93,2.93,0,0,0-3.22-2.91c-21.51,1.95-41.77,23.25-41.77,53.26a54,54,0,0,0,54,54,22.5,22.5,0,0,0,22.5-22.5c0-.65,0-1.3-.09-1.93A22.46,22.46,0,0,0,329,252.15l-.7,0-.7,0a13.5,13.5,0,0,0-2.25,26.66m0,0"/><path class="cls-3" d="M381.59,239.13h-16.5a5,5,0,0,1,0-10h16.5a5,5,0,1,1,0,10Z"/><path class="cls-3" d="M328.34,302.13v-10a17.52,17.52,0,0,0,17.5-17.5c0-.49,0-1-.07-1.46l10-.94a23.66,23.66,0,0,1,.12,2.4A27.54,27.54,0,0,1,328.34,302.13Z"/><path class="cls-3" d="M345.76,273.12a17.43,17.43,0,0,0-16.87-16l-.55,0v-10l.87,0a27.44,27.44,0,0,1,26.52,25.13Z"/><path class="cls-3" d="M365.09,239.13h0l-36.75-.2a5,5,0,0,1,0-10h0l36.75.2a5,5,0,0,1,0,10Z"/><path class="cls-3" d="M299.78,267.36a5,5,0,0,1-4.12-2.16c-9.28-13.45-9.08-31.45.52-45.84l.32-.43c4.79-5.76,12.62-13.15,22.62-15.65l4.5-1.12,1.46,4.39c4.43,13.29,16.87,22.58,30.26,22.58v10H348.9v-.06l-3.5,0c-8.24-.13-17.56-.26-23.54.1-2.08.13-4.32,1.44-4.32,4a5,5,0,1,1-10,0c0-7.5,5.89-13.51,13.71-14,2.12-.13,4.59-.2,7.26-.23a43.77,43.77,0,0,1-11-14.47c-5.8,2.72-10.52,7.57-13.14,10.68-7.17,10.93-7.35,24.41-.46,34.4a5,5,0,0,1-4.11,7.84Z"/><path class="cls-3" d="M324.3,283.69c-9.3-2.08-15.06-10.28-14-19.95s8.47-16.57,18-16.61l.05,10c-5.4,0-7.76,4.15-8.14,7.68s1,7.95,6.26,9.12Z"/></g></svg>