<svg xmlns="http://www.w3.org/2000/svg" height="96" width="48">
    <g transform="translate(0 -1026.52)">
        <path fill="#173f4f" fill-opacity="0" stroke-linecap="round" stroke-linejoin="round" d="M0 1026.52H48V1122.52H0z"/>
        <g fill="none" stroke="#21a4df" stroke-linecap="round" stroke-linejoin="round">
            <path d="m 61.500005,1117.5197 v -6 l -5.500003,-3.5 -5.499998,3.5 v 6 l 5.500001,3.5 z" transform="translate(-20 -4)"/>
            <path d="M52.000005 1112.5197l4 2.5 4-2.5M56.000005 1115.0197v4" transform="translate(-20 -4)"/>
        </g>
        <g fill="none" stroke="#35b9ab" stroke-linecap="round" stroke-linejoin="round">
            <path d="m 34.500001,1109.0197 9,5.5 -9,5.5 z" transform="translate(-4 -28)"/>
            <path d="m 37.500001,1109.0197 9,5.5 -9,5.5" transform="translate(-4 -28)"/>
        </g>
        <g transform="translate(28 -76)" fill="none" stroke="#173f4f" stroke-linecap="round">
            <circle cx="8" cy="1114.52" r="4.5" stroke-linejoin="round"/>
            <path d="M3.5000001 1114.5197H.50000002M12.5 1114.5197h3.000001"/>
        </g>
        <path d="m -2437.8866,1991.8843 c -17.051,0.01 -30.8701,13.8307 -30.868,30.8817 v 277.937 c -0.028,2.2694 0.1946,4.5348 0.6632,6.7554 3.6114,64.6859 57.281,116.7718 122.8083,116.7718 67.8371,0 123.4713,-55.6821 123.4713,-123.5272 0,-67.8452 -55.6342,-123.5273 -123.4713,-123.5273 -22.5356,0 -43.4847,6.5572 -61.7357,17.2504 V 2053.648 h 92.6035 c 119.6892,0 216.0749,96.4067 216.0749,216.1728 v 92.6455 h -92.6035 c -17.0682,-0.018 -30.9143,13.8136 -30.9143,30.8818 0,17.0683 13.8461,30.8998 30.9143,30.8819 h 123.4715 c 17.051,-0.01 30.8701,-13.831 30.8678,-30.882 v -123.5272 c 0,-153.1231 -124.7343,-277.9365 -277.8107,-277.9365 z m -123.9539,184.8688 c -2.2346,0.041 -4.4581,0.3238 -6.6316,0.8444 -100.5943,2.3346 -184.8332,52.8795 -241.9389,126.4224 -57.9773,74.6656 -89.8379,172.5049 -90.3729,272.086 -0.021,0.1406 -0.041,0.2813 -0.06,0.4222 0,0.7049 -0.06,1.4059 -0.06,2.1109 0,1.1485 0.056,2.2962 0.18,3.438 1.8636,218.6866 179.288,396.1106 397.9058,397.845 1.0613,0.1159 2.1278,0.1767 3.1954,0.182 1.1681,0.01 2.3356,-0.055 3.4968,-0.182 100.3057,-1.8992 181.7102,-84.3235 181.7102,-185.11 0,-100.8679 -81.5343,-183.3396 -181.9514,-185.1102 -1.0812,-0.118 -2.168,-0.1788 -3.2556,-0.182 -2.2683,-0.028 -4.5328,0.1949 -6.7524,0.6636 -64.6664,3.6132 -116.7191,57.3178 -116.7191,122.8639 0,67.8563 55.6457,123.5273 123.4715,123.5273 17.2167,0.2409 31.3027,-13.6557 31.3027,-30.8819 0,-17.2262 -14.086,-31.1228 -31.3027,-30.8819 -34.4614,0 -61.7358,-27.2868 -61.7358,-61.7635 0,-34.477 27.2744,-61.7637 61.7358,-61.7637 68.5569,0 123.4714,54.9393 123.4714,123.5272 0,68.5881 -54.9145,123.5275 -123.4714,123.5275 -187.892,0 -339.5465,-151.7232 -339.5465,-339.7003 0,-87.1551 28.544,-173.5922 77.5315,-236.6803 42.8128,-55.1359 99.8317,-92.5853 169.4115,-101.1501 v 29.0122 c 0,8.4906 0.5154,16.8516 1.266,25.1517 -109.7867,47.4106 -186.4732,156.8093 -186.4732,283.6665 0,63.5254 19.2725,122.8775 52.2703,172.0215 9.3578,14.5455 28.8367,18.569 43.1918,8.9215 14.355,-9.6475 17.9872,-29.2032 8.0538,-43.3619 -26.411,-39.3342 -41.7802,-86.5073 -41.7802,-137.5811 0,-97.436 56.3413,-181.0172 137.82,-221.2997 17.0064,51.0195 48.3052,95.5315 89.2878,128.6542 h -41.9008 c -67.8355,0 -123.4713,55.681 -123.4713,123.5273 -0.5668,17.4409 13.4178,31.8874 30.8679,31.8874 17.4501,0 31.4347,-14.4465 30.8679,-31.8874 0,-34.4877 27.2989,-61.7635 61.7355,-61.7635 h 401.2822 c 17.203,0.2099 31.261,-13.6777 31.261,-30.8819 0,-17.2042 -14.058,-31.0918 -31.261,-30.8819 h -185.2072 c -119.6891,0 -216.075,-96.4067 -216.075,-216.1727 v -56.5766 c 1.7128,-10.0816 -1.6734,-20.3577 -9.0432,-27.4437 -0.02,-0.02 -0.04,-0.04 -0.06,-0.06 -0.06,-0.061 -0.1197,-0.1216 -0.18,-0.182 -0.08,-0.081 -0.1604,-0.1612 -0.2412,-0.2412 -5.866,-5.6131 -13.7066,-8.6901 -21.8246,-8.5648 z m 216.5574,62.1861 c 34.45,0 61.7357,27.2756 61.7357,61.7638 0,34.4881 -27.2857,61.7637 -61.7357,61.7637 -34.45,0 -61.7357,-27.2756 -61.7357,-61.7637 0,-34.4882 27.2857,-61.7638 61.7357,-61.7638 z" style="line-height:normal;font-variant-ligatures:normal;font-variant-position:normal;font-variant-caps:normal;font-variant-numeric:normal;font-variant-alternates:normal;font-feature-settings:normal;text-indent:0;text-align:start;text-decoration-line:none;text-decoration-style:solid;text-decoration-color:#000;text-transform:none;text-orientation:mixed;white-space:normal;shape-padding:0;isolation:auto;mix-blend-mode:normal;solid-color:#000;solid-opacity:1" color="#000" font-weight="400" font-family="sans-serif" overflow="visible" stroke-width="61.75" stroke-linecap="square" stroke-linejoin="round" transform="translate(50.989 998.27) scale(.0162)" data-name="Line Art" fill="#73ba25"/>
        <g stroke="#ffc107" fill="none" stroke-linecap="round" stroke-linejoin="round">
            <path d="m 18.5,1113.5197 5.5,-5.5 5.500001,5.5 -5.500001,5.5 z" transform="translate(12 -52)"/>
            <path d="m 18.5,1116.0197 5.5,5.5 5.500001,-5.5" transform="translate(12 -52)"/>
        </g>
        <path d="m -2437.8866,1991.8843 c -17.051,0.01 -30.8701,13.8307 -30.868,30.8817 v 277.937 c -0.028,2.2694 0.1946,4.5348 0.6632,6.7554 3.6114,64.6859 57.281,116.7718 122.8083,116.7718 67.8371,0 123.4713,-55.6821 123.4713,-123.5272 0,-67.8452 -55.6342,-123.5273 -123.4713,-123.5273 -22.5356,0 -43.4847,6.5572 -61.7357,17.2504 V 2053.648 h 92.6035 c 119.6892,0 216.0749,96.4067 216.0749,216.1728 v 92.6455 h -92.6035 c -17.0682,-0.018 -30.9143,13.8136 -30.9143,30.8818 0,17.0683 13.8461,30.8998 30.9143,30.8819 h 123.4715 c 17.051,-0.01 30.8701,-13.831 30.8678,-30.882 v -123.5272 c 0,-153.1231 -124.7343,-277.9365 -277.8107,-277.9365 z m -123.9539,184.8688 c -2.2346,0.041 -4.4581,0.3238 -6.6316,0.8444 -100.5943,2.3346 -184.8332,52.8795 -241.9389,126.4224 -57.9773,74.6656 -89.8379,172.5049 -90.3729,272.086 -0.021,0.1406 -0.041,0.2813 -0.06,0.4222 0,0.7049 -0.06,1.4059 -0.06,2.1109 0,1.1485 0.056,2.2962 0.18,3.438 1.8636,218.6866 179.288,396.1106 397.9058,397.845 1.0613,0.1159 2.1278,0.1767 3.1954,0.182 1.1681,0.01 2.3356,-0.055 3.4968,-0.182 100.3057,-1.8992 181.7102,-84.3235 181.7102,-185.11 0,-100.8679 -81.5343,-183.3396 -181.9514,-185.1102 -1.0812,-0.118 -2.168,-0.1788 -3.2556,-0.182 -2.2683,-0.028 -4.5328,0.1949 -6.7524,0.6636 -64.6664,3.6132 -116.7191,57.3178 -116.7191,122.8639 0,67.8563 55.6457,123.5273 123.4715,123.5273 17.2167,0.2409 31.3027,-13.6557 31.3027,-30.8819 0,-17.2262 -14.086,-31.1228 -31.3027,-30.8819 -34.4614,0 -61.7358,-27.2868 -61.7358,-61.7635 0,-34.477 27.2744,-61.7637 61.7358,-61.7637 68.5569,0 123.4714,54.9393 123.4714,123.5272 0,68.5881 -54.9145,123.5275 -123.4714,123.5275 -187.892,0 -339.5465,-151.7232 -339.5465,-339.7003 0,-87.1551 28.544,-173.5922 77.5315,-236.6803 42.8128,-55.1359 99.8317,-92.5853 169.4115,-101.1501 v 29.0122 c 0,8.4906 0.5154,16.8516 1.266,25.1517 -109.7867,47.4106 -186.4732,156.8093 -186.4732,283.6665 0,63.5254 19.2725,122.8775 52.2703,172.0215 9.3578,14.5455 28.8367,18.569 43.1918,8.9215 14.355,-9.6475 17.9872,-29.2032 8.0538,-43.3619 -26.411,-39.3342 -41.7802,-86.5073 -41.7802,-137.5811 0,-97.436 56.3413,-181.0172 137.82,-221.2997 17.0064,51.0195 48.3052,95.5315 89.2878,128.6542 h -41.9008 c -67.8355,0 -123.4713,55.681 -123.4713,123.5273 -0.5668,17.4409 13.4178,31.8874 30.8679,31.8874 17.4501,0 31.4347,-14.4465 30.8679,-31.8874 0,-34.4877 27.2989,-61.7635 61.7355,-61.7635 h 401.2822 c 17.203,0.2099 31.261,-13.6777 31.261,-30.8819 0,-17.2042 -14.058,-31.0918 -31.261,-30.8819 h -185.2072 c -119.6891,0 -216.075,-96.4067 -216.075,-216.1727 v -56.5766 c 1.7128,-10.0816 -1.6734,-20.3577 -9.0432,-27.4437 -0.02,-0.02 -0.04,-0.04 -0.06,-0.06 -0.06,-0.061 -0.1197,-0.1216 -0.18,-0.182 -0.08,-0.081 -0.1604,-0.1612 -0.2412,-0.2412 -5.866,-5.6131 -13.7066,-8.6901 -21.8246,-8.5648 z m 216.5574,62.1861 c 34.45,0 61.7357,27.2756 61.7357,61.7638 0,34.4881 -27.2857,61.7637 -61.7357,61.7637 -34.45,0 -61.7357,-27.2756 -61.7357,-61.7637 0,-34.4882 27.2857,-61.7638 61.7357,-61.7638 z" style="line-height:normal;font-variant-ligatures:normal;font-variant-position:normal;font-variant-caps:normal;font-variant-numeric:normal;font-variant-alternates:normal;font-feature-settings:normal;text-indent:0;text-align:start;text-decoration-line:none;text-decoration-style:solid;text-decoration-color:#000;text-transform:none;text-orientation:mixed;white-space:normal;shape-padding:0;isolation:auto;mix-blend-mode:normal;solid-color:#000;solid-opacity:1" color="#000" font-weight="400" font-family="sans-serif" overflow="visible" stroke-width="61.75" stroke-linecap="square" stroke-linejoin="round" transform="translate(50.989 1022.27) scale(.0162)" data-name="Line Art" fill="#73ba25"/>
        <path d="m -2437.8866,1991.8843 c -17.051,0.01 -30.8701,13.8307 -30.868,30.8817 v 277.937 c -0.028,2.2694 0.1946,4.5348 0.6632,6.7554 3.6114,64.6859 57.281,116.7718 122.8083,116.7718 67.8371,0 123.4713,-55.6821 123.4713,-123.5272 0,-67.8452 -55.6342,-123.5273 -123.4713,-123.5273 -22.5356,0 -43.4847,6.5572 -61.7357,17.2504 V 2053.648 h 92.6035 c 119.6892,0 216.0749,96.4067 216.0749,216.1728 v 92.6455 h -92.6035 c -17.0682,-0.018 -30.9143,13.8136 -30.9143,30.8818 0,17.0683 13.8461,30.8998 30.9143,30.8819 h 123.4715 c 17.051,-0.01 30.8701,-13.831 30.8678,-30.882 v -123.5272 c 0,-153.1231 -124.7343,-277.9365 -277.8107,-277.9365 z m -123.9539,184.8688 c -2.2346,0.041 -4.4581,0.3238 -6.6316,0.8444 -100.5943,2.3346 -184.8332,52.8795 -241.9389,126.4224 -57.9773,74.6656 -89.8379,172.5049 -90.3729,272.086 -0.021,0.1406 -0.041,0.2813 -0.06,0.4222 0,0.7049 -0.06,1.4059 -0.06,2.1109 0,1.1485 0.056,2.2962 0.18,3.438 1.8636,218.6866 179.288,396.1106 397.9058,397.845 1.0613,0.1159 2.1278,0.1767 3.1954,0.182 1.1681,0.01 2.3356,-0.055 3.4968,-0.182 100.3057,-1.8992 181.7102,-84.3235 181.7102,-185.11 0,-100.8679 -81.5343,-183.3396 -181.9514,-185.1102 -1.0812,-0.118 -2.168,-0.1788 -3.2556,-0.182 -2.2683,-0.028 -4.5328,0.1949 -6.7524,0.6636 -64.6664,3.6132 -116.7191,57.3178 -116.7191,122.8639 0,67.8563 55.6457,123.5273 123.4715,123.5273 17.2167,0.2409 31.3027,-13.6557 31.3027,-30.8819 0,-17.2262 -14.086,-31.1228 -31.3027,-30.8819 -34.4614,0 -61.7358,-27.2868 -61.7358,-61.7635 0,-34.477 27.2744,-61.7637 61.7358,-61.7637 68.5569,0 123.4714,54.9393 123.4714,123.5272 0,68.5881 -54.9145,123.5275 -123.4714,123.5275 -187.892,0 -339.5465,-151.7232 -339.5465,-339.7003 0,-87.1551 28.544,-173.5922 77.5315,-236.6803 42.8128,-55.1359 99.8317,-92.5853 169.4115,-101.1501 v 29.0122 c 0,8.4906 0.5154,16.8516 1.266,25.1517 -109.7867,47.4106 -186.4732,156.8093 -186.4732,283.6665 0,63.5254 19.2725,122.8775 52.2703,172.0215 9.3578,14.5455 28.8367,18.569 43.1918,8.9215 14.355,-9.6475 17.9872,-29.2032 8.0538,-43.3619 -26.411,-39.3342 -41.7802,-86.5073 -41.7802,-137.5811 0,-97.436 56.3413,-181.0172 137.82,-221.2997 17.0064,51.0195 48.3052,95.5315 89.2878,128.6542 h -41.9008 c -67.8355,0 -123.4713,55.681 -123.4713,123.5273 -0.5668,17.4409 13.4178,31.8874 30.8679,31.8874 17.4501,0 31.4347,-14.4465 30.8679,-31.8874 0,-34.4877 27.2989,-61.7635 61.7355,-61.7635 h 401.2822 c 17.203,0.2099 31.261,-13.6777 31.261,-30.8819 0,-17.2042 -14.058,-31.0918 -31.261,-30.8819 h -185.2072 c -119.6891,0 -216.075,-96.4067 -216.075,-216.1727 v -56.5766 c 1.7128,-10.0816 -1.6734,-20.3577 -9.0432,-27.4437 -0.02,-0.02 -0.04,-0.04 -0.06,-0.06 -0.06,-0.061 -0.1197,-0.1216 -0.18,-0.182 -0.08,-0.081 -0.1604,-0.1612 -0.2412,-0.2412 -5.866,-5.6131 -13.7066,-8.6901 -21.8246,-8.5648 z m 216.5574,62.1861 c 34.45,0 61.7357,27.2756 61.7357,61.7638 0,34.4881 -27.2857,61.7637 -61.7357,61.7637 -34.45,0 -61.7357,-27.2756 -61.7357,-61.7637 0,-34.4882 27.2857,-61.7638 61.7357,-61.7638 z" style="line-height:normal;font-variant-ligatures:normal;font-variant-position:normal;font-variant-caps:normal;font-variant-numeric:normal;font-variant-alternates:normal;font-feature-settings:normal;text-indent:0;text-align:start;text-decoration-line:none;text-decoration-style:solid;text-decoration-color:#000;text-transform:none;text-orientation:mixed;white-space:normal;shape-padding:0;isolation:auto;mix-blend-mode:normal;solid-color:#000;solid-opacity:1" color="#000" font-weight="400" font-family="sans-serif" overflow="visible" stroke-width="61.75" stroke-linecap="square" stroke-linejoin="round" transform="translate(50.989 1046.27) scale(.0162)" data-name="Line Art" fill="#73ba25"/>
        <path d="m -2437.8866,1991.8843 c -17.051,0.01 -30.8701,13.8307 -30.868,30.8817 v 277.937 c -0.028,2.2694 0.1946,4.5348 0.6632,6.7554 3.6114,64.6859 57.281,116.7718 122.8083,116.7718 67.8371,0 123.4713,-55.6821 123.4713,-123.5272 0,-67.8452 -55.6342,-123.5273 -123.4713,-123.5273 -22.5356,0 -43.4847,6.5572 -61.7357,17.2504 V 2053.648 h 92.6035 c 119.6892,0 216.0749,96.4067 216.0749,216.1728 v 92.6455 h -92.6035 c -17.0682,-0.018 -30.9143,13.8136 -30.9143,30.8818 0,17.0683 13.8461,30.8998 30.9143,30.8819 h 123.4715 c 17.051,-0.01 30.8701,-13.831 30.8678,-30.882 v -123.5272 c 0,-153.1231 -124.7343,-277.9365 -277.8107,-277.9365 z m -123.9539,184.8688 c -2.2346,0.041 -4.4581,0.3238 -6.6316,0.8444 -100.5943,2.3346 -184.8332,52.8795 -241.9389,126.4224 -57.9773,74.6656 -89.8379,172.5049 -90.3729,272.086 -0.021,0.1406 -0.041,0.2813 -0.06,0.4222 0,0.7049 -0.06,1.4059 -0.06,2.1109 0,1.1485 0.056,2.2962 0.18,3.438 1.8636,218.6866 179.288,396.1106 397.9058,397.845 1.0613,0.1159 2.1278,0.1767 3.1954,0.182 1.1681,0.01 2.3356,-0.055 3.4968,-0.182 100.3057,-1.8992 181.7102,-84.3235 181.7102,-185.11 0,-100.8679 -81.5343,-183.3396 -181.9514,-185.1102 -1.0812,-0.118 -2.168,-0.1788 -3.2556,-0.182 -2.2683,-0.028 -4.5328,0.1949 -6.7524,0.6636 -64.6664,3.6132 -116.7191,57.3178 -116.7191,122.8639 0,67.8563 55.6457,123.5273 123.4715,123.5273 17.2167,0.2409 31.3027,-13.6557 31.3027,-30.8819 0,-17.2262 -14.086,-31.1228 -31.3027,-30.8819 -34.4614,0 -61.7358,-27.2868 -61.7358,-61.7635 0,-34.477 27.2744,-61.7637 61.7358,-61.7637 68.5569,0 123.4714,54.9393 123.4714,123.5272 0,68.5881 -54.9145,123.5275 -123.4714,123.5275 -187.892,0 -339.5465,-151.7232 -339.5465,-339.7003 0,-87.1551 28.544,-173.5922 77.5315,-236.6803 42.8128,-55.1359 99.8317,-92.5853 169.4115,-101.1501 v 29.0122 c 0,8.4906 0.5154,16.8516 1.266,25.1517 -109.7867,47.4106 -186.4732,156.8093 -186.4732,283.6665 0,63.5254 19.2725,122.8775 52.2703,172.0215 9.3578,14.5455 28.8367,18.569 43.1918,8.9215 14.355,-9.6475 17.9872,-29.2032 8.0538,-43.3619 -26.411,-39.3342 -41.7802,-86.5073 -41.7802,-137.5811 0,-97.436 56.3413,-181.0172 137.82,-221.2997 17.0064,51.0195 48.3052,95.5315 89.2878,128.6542 h -41.9008 c -67.8355,0 -123.4713,55.681 -123.4713,123.5273 -0.5668,17.4409 13.4178,31.8874 30.8679,31.8874 17.4501,0 31.4347,-14.4465 30.8679,-31.8874 0,-34.4877 27.2989,-61.7635 61.7355,-61.7635 h 401.2822 c 17.203,0.2099 31.261,-13.6777 31.261,-30.8819 0,-17.2042 -14.058,-31.0918 -31.261,-30.8819 h -185.2072 c -119.6891,0 -216.075,-96.4067 -216.075,-216.1727 v -56.5766 c 1.7128,-10.0816 -1.6734,-20.3577 -9.0432,-27.4437 -0.02,-0.02 -0.04,-0.04 -0.06,-0.06 -0.06,-0.061 -0.1197,-0.1216 -0.18,-0.182 -0.08,-0.081 -0.1604,-0.1612 -0.2412,-0.2412 -5.866,-5.6131 -13.7066,-8.6901 -21.8246,-8.5648 z m 216.5574,62.1861 c 34.45,0 61.7357,27.2756 61.7357,61.7638 0,34.4881 -27.2857,61.7637 -61.7357,61.7637 -34.45,0 -61.7357,-27.2756 -61.7357,-61.7637 0,-34.4882 27.2857,-61.7638 61.7357,-61.7638 z" style="line-height:normal;font-variant-ligatures:normal;font-variant-position:normal;font-variant-caps:normal;font-variant-numeric:normal;font-variant-alternates:normal;font-feature-settings:normal;text-indent:0;text-align:start;text-decoration-line:none;text-decoration-style:solid;text-decoration-color:#000;text-transform:none;text-orientation:mixed;white-space:normal;shape-padding:0;isolation:auto;mix-blend-mode:normal;solid-color:#000;solid-opacity:1" color="#000" font-weight="400" font-family="sans-serif" overflow="visible" stroke-width="61.75" stroke-linecap="square" stroke-linejoin="round" transform="translate(50.989 1070.27) scale(.0162)" data-name="Line Art" fill="#73ba25"/>
        <path d="m 24,1081.0197 v 11" fill="none" stroke="#35b9ab" stroke-linecap="round" stroke-linejoin="round"/>
        <path d="m 24,1105.0197 v 11" fill="none" stroke="#21a4df" stroke-linecap="round" stroke-linejoin="round"/>
        <path d="m 24,1057.0197 v 11" fill="none" stroke="#ffc107" stroke-linecap="round" stroke-linejoin="round"/>
        <path d="m 24,1033.0197 v 11" fill="none" stroke="#173f4f" stroke-linecap="round" stroke-linejoin="round"/>
        <circle cx="36" cy="1038.52" r="1.5" fill="none" stroke="#173f4f" stroke-linecap="round" stroke-linejoin="round"/>
        <circle r=".75" cy="1048.516" cx="7" fill="none" stroke="#73ba25" stroke-width=".5" stroke-linecap="round" stroke-linejoin="round"/>
        <path d="M6.2499915 1048.5161v1.75M5.0000015 1047.7661a.74999776.74999776 0 00-.75.75.74999776.74999776 0 00.75.75.74999776.74999776 0 00.75-.75.74999776.74999776 0 00-.75-.75zM10.24998 1049.2661v-1.5M10.24998 1048.5161c0-.4142.33579-.75.75-.75.41421 0 .75.3358.75.75v.75M12.99998 1047.7661c.41422 0 .75.3358.75.75 0 .4142-.33578.75-.75.75h-.75M14.24998 1046.7661v1.75c0 .4142.33579.75.75.75.41421 0 .75-.3358.75-.75v-1.75M16.99997 1047.7661c.41421 0 .75.3358.75.75 0 .4142-.33579.75-.75.75h-.75M19.24997 1046.7661h-1v2.5h1M18.24997 1048.0161h.75M13.49998 1046.7661h-.75001c-.27614 0-.49999.2238-.49999.5 0 .2761.22385.5.49999.5h.25001M17.49997 1046.7661h-.75c-.27614 0-.5.2239-.5.5 0 .2762.22386.5.5.5h.25" fill="none" stroke="#73ba25" stroke-width=".5" stroke-linecap="round" stroke-linejoin="round"/>
        <path d="M19.62499 1048.8911h.5M19.87499 1048.8911v.5M20.37499 1049.3911v-.5l.25.25.25-.25v.5" fill="none" stroke="#73ba25" stroke-width=".25" stroke-linecap="round" stroke-linejoin="round"/>
        <path d="m 9.530321,1049.0455 c -0.29289,0.2929 -0.76776,0.2929 -1.0606495,0 -0.29289,-0.2929 -0.29289,-0.7678 0,-1.0607 0.2928895,-0.2929 0.7677595,-0.2929 1.0606495,0 0.1467,0.1467 0.21992,0.3391 0.21967,0.5313 H 8.2500015" fill="none" stroke="#73ba25" stroke-width=".5" stroke-linecap="round" stroke-linejoin="round"/>
        <path d="M30.24973 1049.2664v-2.497l.99879.9988.9988-.9988v2.497M32.74672 1049.2664v-1.4982M32.74675 1047.0189v0M34.52334 1047.9892c-.29254-.2926-.76684-.2926-1.05938 0-.29254.2925-.29254.7668 0 1.0593.29254.2926.76684.2926 1.05938 0M35.24372 1049.2664v-1.4982M35.24372 1048.5173c0-.4137.33538-.7491.74909-.7491M36.99162 1047.7682a.74909518.74909518 0 00-.7491.7491.74909518.74909518 0 00.7491.7491.74909518.74909518 0 00.74909-.7491.74909518.74909518 0 00-.74909-.7491z" fill="none" stroke="#173f4f" stroke-width=".499" stroke-linecap="round" stroke-linejoin="round"/>
        <ellipse cx="39.239" cy="1048.018" rx=".999" ry="1.248" fill="none" stroke="#173f4f" stroke-width=".499" stroke-linecap="round" stroke-linejoin="round"/>
        <path d="M41.48621 1047.7682c.41371 0 .74909.3354.74909.7491 0 .4137-.33538.7491-.74909.7491l-.74911-.0001M41.9856 1046.7694l-.7491-.0001c-.27581 0-.4994.2236-.4994.4994 0 .2758.22359.4994.4994.4994l.24971.0001" fill="none" stroke="#173f4f" stroke-width=".499" stroke-linecap="round" stroke-linejoin="round"/>
        <circle r=".75" cy="1072.516" cx="7" fill="none" stroke="#73ba25" stroke-width=".5" stroke-linecap="round" stroke-linejoin="round"/>
        <path d="M6.2499915 1072.5161v1.75M5.0000015 1071.7661a.74999776.74999776 0 00-.75.75.74999776.74999776 0 00.75.75.74999776.74999776 0 00.75-.75.74999776.74999776 0 00-.75-.75zM10.24998 1073.2661v-1.5M10.24998 1072.5161c0-.4142.33579-.75.75-.75.41421 0 .75.3358.75.75v.75M12.99998 1071.7661c.41422 0 .75.3358.75.75 0 .4142-.33578.75-.75.75h-.75M14.24998 1070.7661v1.75c0 .4142.33579.75.75.75.41421 0 .75-.3358.75-.75v-1.75M16.99997 1071.7661c.41421 0 .75.3358.75.75 0 .4142-.33579.75-.75.75h-.75M19.24997 1070.7661h-1v2.5h1M18.24997 1072.0161h.75M13.49998 1070.7661h-.75001c-.27614 0-.49999.2238-.49999.5 0 .2761.22385.5.49999.5h.25001M17.49997 1070.7661h-.75c-.27614 0-.5.2239-.5.5 0 .2762.22386.5.5.5h.25" fill="none" stroke="#73ba25" stroke-width=".5" stroke-linecap="round" stroke-linejoin="round"/>
        <path d="M19.62499 1072.8911h.5M19.87499 1072.8911v.5M20.37499 1073.3911v-.5l.25.25.25-.25v.5" fill="none" stroke="#73ba25" stroke-width=".25" stroke-linecap="round" stroke-linejoin="round"/>
        <path d="m 9.530321,1073.0455 c -0.29289,0.2929 -0.76776,0.2929 -1.0606495,0 -0.29289,-0.2929 -0.29289,-0.7678 0,-1.0607 0.2928895,-0.2929 0.7677595,-0.2929 1.0606495,0 0.1467,0.1467 0.21992,0.3391 0.21967,0.5313 H 8.2500015" fill="none" stroke="#73ba25" stroke-width=".5" stroke-linecap="round" stroke-linejoin="round"/>
        <circle r=".75" cy="1096.516" cx="7" fill="none" stroke="#73ba25" stroke-width=".5" stroke-linecap="round" stroke-linejoin="round"/>
        <path d="M6.2500015 1096.516v1.75M5.0000015 1095.766a.74999776.74999776 0 00-.75.75.74999776.74999776 0 00.75.75.74999776.74999776 0 00.75-.75.74999776.74999776 0 00-.75-.75zM10.24998 1097.266v-1.5M10.24998 1096.516c0-.4142.33579-.75.75-.75.41421 0 .75.3358.75.75v.75M12.99998 1095.766c.41422 0 .75.3358.75.75 0 .4142-.33578.75-.75.75h-.75M14.24998 1094.766v1.75c0 .4142.33579.75.75.75.41421 0 .75-.3358.75-.75v-1.75M16.99997 1095.766c.41421 0 .75.3358.75.75 0 .4142-.33579.75-.75.75h-.75M19.24997 1094.766h-1v2.5h1M18.24997 1096.016h.75M13.49998 1094.766h-.75c-.27615 0-.5.2238-.5.5 0 .2761.22385.5.5.5h.25M17.49997 1094.766h-.75c-.27614 0-.5.2239-.5.5 0 .2762.22386.5.5.5h.25" fill="none" stroke="#73ba25" stroke-width=".5" stroke-linecap="round" stroke-linejoin="round"/>
        <path d="M19.62499 1096.891h.5M19.87499 1096.891v.5M20.37499 1097.391v-.5l.25.25.25-.25v.5" fill="none" stroke="#73ba25" stroke-width=".25" stroke-linecap="round" stroke-linejoin="round"/>
        <path d="m 9.530331,1097.0454 c -0.2929,0.2929 -0.76777,0.2929 -1.0606595,0 -0.29289,-0.2929 -0.29289,-0.7678 0,-1.0607 0.2928895,-0.2929 0.7677595,-0.2929 1.0606595,0 0.14669,0.1467 0.21991,0.3391 0.21966,0.5313 H 8.2500015" fill="none" stroke="#73ba25" stroke-width=".5" stroke-linecap="round" stroke-linejoin="round"/>
        <circle r=".75" cy="1120.516" cx="7" fill="none" stroke="#73ba25" stroke-width=".5" stroke-linecap="round" stroke-linejoin="round"/>
        <path d="M6.2500015 1120.5161v1.75M5.0000015 1119.7661a.74999776.74999776 0 00-.75.75.74999776.74999776 0 00.75.75.74999776.74999776 0 00.75-.75.74999776.74999776 0 00-.75-.75zM10.24998 1121.2661v-1.5M10.24998 1120.5161c0-.4142.33579-.75.75-.75.41421 0 .75.3358.75.75v.75M12.99998 1119.7661c.41422 0 .75.3358.75.75 0 .4142-.33578.75-.75.75h-.75M14.24998 1118.7661v1.75c0 .4142.33579.75.75.75.41421 0 .75-.3358.75-.75v-1.75M16.99997 1119.7661c.41421 0 .75.3358.75.75 0 .4142-.33579.75-.75.75h-.75M19.24997 1118.7661h-1v2.5h1M18.24997 1120.0161h.75M13.49998 1118.7661h-.75c-.27615 0-.5.2238-.5.5 0 .2761.22385.5.5.5h.25M17.49997 1118.7661h-.75c-.27614 0-.5.2239-.5.5 0 .2762.22386.5.5.5h.25" fill="none" stroke="#73ba25" stroke-width=".5" stroke-linecap="round" stroke-linejoin="round"/>
        <path d="M19.62499 1120.8911h.5M19.87499 1120.8911v.5M20.37499 1121.3911v-.5l.25.25.25-.25v.5" fill="none" stroke="#73ba25" stroke-width=".25" stroke-linecap="round" stroke-linejoin="round"/>
        <path d="m 9.530331,1121.0455 c -0.2929,0.2929 -0.76777,0.2929 -1.0606595,0 -0.29289,-0.2929 -0.29289,-0.7678 0,-1.0607 0.2928895,-0.2929 0.7677595,-0.2929 1.0606595,0 0.14669,0.1467 0.21991,0.3391 0.21966,0.5313 H 8.2500015" fill="none" stroke="#73ba25" stroke-width=".5" stroke-linecap="round" stroke-linejoin="round"/>
        <path d="M33.25003 1070.7662v2.4999h.74999M35.53034 1073.0455c-.29289.2929-.76776.2929-1.06065 0-.29289-.2929-.29289-.7678 0-1.0607.29289-.2929.76776-.2929 1.06065 0 .14669.1467.21992.3391.21967.5313h-1.49999M36.75002 1071.7655h.26924c.18426.01.36687.079.50751.2193.2929.2929.2929.7678 0 1.0607-.29289.2929-.76775.2929-1.06065 0-.14669-.1467-.21991-.3391-.21966-.5313h1.49998l.004.7519" fill="none" stroke="#ffc107" stroke-width=".5" stroke-linecap="round" stroke-linejoin="round"/>
        <circle r=".75" cy="1072.516" cx="39" fill="none" stroke="#ffc107" stroke-width=".5" stroke-linecap="round" stroke-linejoin="round"/>
        <path d="m 38.25001,1072.5161 v 1.75" fill="none" stroke="#ffc107" stroke-width=".5" stroke-linecap="round" stroke-linejoin="round"/>
        <path d="M25.25352 1094.763H27.2532M26.25336 1094.763v2.4996M26.75328 1095.7629v.7498c0 .4142.33573.7499.74988.7499.41415 0 .74988-.3357.74988-.7499v-.7498M28.75296 1097.2591v-.7499c0-.4142.33573-.7499.74988-.7499.41414 0 .74987.3357.74987.7499v.7499M30.25272 1097.2626v-.7499c0-.4141.33573-.7498.74988-.7498.41415 0 .74988.3357.74988.7498v.7499" fill="none" stroke="#35b9ab" stroke-width=".5" stroke-linecap="round" stroke-linejoin="round"/>
        <circle transform="scale(1 -1)" r=".75" cy="-1096.516" cx="33.002" fill="none" stroke="#35b9ab" stroke-width=".5" stroke-linecap="round" stroke-linejoin="round"/>
        <path d="M32.2524 1096.5163v-1.7497M34.25207 1096.5127c0 .4142.33573.7499.74988.7499l.24996-.01M34.2521 1096.5129v-1.7497M37.03195 1097.042c-.29285.2929-.76764.2929-1.06048 0-.29285-.2928-.29285-.7676 0-1.0605.29284-.2928.76763-.2928 1.06048 0 .14667.1467.21988.339.21963.5312h-1.49975M37.75151 1095.77v.7499c0 .4141.33573.7498.74988.7498.41414 0 .74988-.3357.74988-.7498v-.7499M39.25127 1095.7664v.7499c0 .4142.33573.7499.74988.7499.41415 0 .74988-.3357.74988-.7499v-.7499M42.53106 1097.042c-.29285.2929-.76764.2929-1.06048 0-.29285-.2928-.29285-.7676 0-1.0605.29284-.2928.76763-.2928 1.06048 0 .14667.1467.21988.339.21963.5312h-1.49975M44.53074 1097.042c-.29285.2929-.76764.2929-1.06049 0-.29284-.2928-.29284-.7676 0-1.0605.29285-.2928.76764-.2928 1.06049 0 .14666.1467.21988.339.21963.5312h-1.49975" fill="none" stroke="#35b9ab" stroke-width=".5" stroke-linecap="round" stroke-linejoin="round"/>
        <circle transform="scale(-1)" r=".75" cy="-1096.513" cx="-46" fill="none" stroke="#35b9ab" stroke-width=".5" stroke-linecap="round" stroke-linejoin="round"/>
        <path d="m 46.75002,1096.5127 v -1.7497" fill="none" stroke="#35b9ab" stroke-width=".5" stroke-linecap="round" stroke-linejoin="round"/>
        <path d="M32.24943 1118.7727v2.494M33.49647 1118.7727l-1.24704 1.247 1.24704 1.247M33.74588 1119.7703v.7482c0 .4133.33499.7482.74822.7482.41324 0 .74823-.3349.74823-.7482v-.7482" fill="none" stroke="#21a4df" stroke-width=".499" stroke-linecap="round" stroke-linejoin="round"/>
        <circle transform="scale(1 -1)" r=".748" cy="-1120.519" cx="36.489" fill="none" stroke="#21a4df" stroke-width=".499" stroke-linecap="round" stroke-linejoin="round"/>
        <path d="M35.74114 1120.5185v-1.7458M37.73641 1121.2667v-1.4964M37.73643 1119.0219v0M39.51095 1119.991c-.2922-.2922-.76595-.2922-1.05814 0-.2922.2922-.2922.766 0 1.0582.29219.2922.76594.2922 1.05814 0" fill="none" stroke="#21a4df" stroke-width=".499" stroke-linecap="round" stroke-linejoin="round"/>
        <path fill="#173f4f" stroke-linecap="round" stroke-linejoin="round" d="M48 1026.52H96V1122.52H48z"/>
        <g fill="none" stroke="#21a4df" stroke-linecap="round" stroke-linejoin="round">
            <path d="m 61.500005,1117.5197 v -6 l -5.500003,-3.5 -5.499998,3.5 v 6 l 5.500001,3.5 z" transform="translate(28 -4)"/>
            <path d="M52.000005 1112.5197l4 2.5 4-2.5M56.000005 1115.0197v4" transform="translate(28 -4)"/>
        </g>
        <g fill="none" stroke="#35b9ab" stroke-linecap="round" stroke-linejoin="round">
            <path d="m 34.500001,1109.0197 9,5.5 -9,5.5 z" transform="translate(44 -28)"/>
            <path d="m 37.500001,1109.0197 9,5.5 -9,5.5" transform="translate(44 -28)"/>
        </g>
        <g transform="translate(76 -76)" stroke="#fff" fill="none" stroke-linecap="round">
            <circle cx="8" cy="1114.52" r="4.5" stroke-linejoin="round"/>
            <path d="M3.5000001 1114.5197H.50000002M12.5 1114.5197h3.000001"/>
        </g>
        <path d="m -2437.8866,1991.8843 c -17.051,0.01 -30.8701,13.8307 -30.868,30.8817 v 277.937 c -0.028,2.2694 0.1946,4.5348 0.6632,6.7554 3.6114,64.6859 57.281,116.7718 122.8083,116.7718 67.8371,0 123.4713,-55.6821 123.4713,-123.5272 0,-67.8452 -55.6342,-123.5273 -123.4713,-123.5273 -22.5356,0 -43.4847,6.5572 -61.7357,17.2504 V 2053.648 h 92.6035 c 119.6892,0 216.0749,96.4067 216.0749,216.1728 v 92.6455 h -92.6035 c -17.0682,-0.018 -30.9143,13.8136 -30.9143,30.8818 0,17.0683 13.8461,30.8998 30.9143,30.8819 h 123.4715 c 17.051,-0.01 30.8701,-13.831 30.8678,-30.882 v -123.5272 c 0,-153.1231 -124.7343,-277.9365 -277.8107,-277.9365 z m -123.9539,184.8688 c -2.2346,0.041 -4.4581,0.3238 -6.6316,0.8444 -100.5943,2.3346 -184.8332,52.8795 -241.9389,126.4224 -57.9773,74.6656 -89.8379,172.5049 -90.3729,272.086 -0.021,0.1406 -0.041,0.2813 -0.06,0.4222 0,0.7049 -0.06,1.4059 -0.06,2.1109 0,1.1485 0.056,2.2962 0.18,3.438 1.8636,218.6866 179.288,396.1106 397.9058,397.845 1.0613,0.1159 2.1278,0.1767 3.1954,0.182 1.1681,0.01 2.3356,-0.055 3.4968,-0.182 100.3057,-1.8992 181.7102,-84.3235 181.7102,-185.11 0,-100.8679 -81.5343,-183.3396 -181.9514,-185.1102 -1.0812,-0.118 -2.168,-0.1788 -3.2556,-0.182 -2.2683,-0.028 -4.5328,0.1949 -6.7524,0.6636 -64.6664,3.6132 -116.7191,57.3178 -116.7191,122.8639 0,67.8563 55.6457,123.5273 123.4715,123.5273 17.2167,0.2409 31.3027,-13.6557 31.3027,-30.8819 0,-17.2262 -14.086,-31.1228 -31.3027,-30.8819 -34.4614,0 -61.7358,-27.2868 -61.7358,-61.7635 0,-34.477 27.2744,-61.7637 61.7358,-61.7637 68.5569,0 123.4714,54.9393 123.4714,123.5272 0,68.5881 -54.9145,123.5275 -123.4714,123.5275 -187.892,0 -339.5465,-151.7232 -339.5465,-339.7003 0,-87.1551 28.544,-173.5922 77.5315,-236.6803 42.8128,-55.1359 99.8317,-92.5853 169.4115,-101.1501 v 29.0122 c 0,8.4906 0.5154,16.8516 1.266,25.1517 -109.7867,47.4106 -186.4732,156.8093 -186.4732,283.6665 0,63.5254 19.2725,122.8775 52.2703,172.0215 9.3578,14.5455 28.8367,18.569 43.1918,8.9215 14.355,-9.6475 17.9872,-29.2032 8.0538,-43.3619 -26.411,-39.3342 -41.7802,-86.5073 -41.7802,-137.5811 0,-97.436 56.3413,-181.0172 137.82,-221.2997 17.0064,51.0195 48.3052,95.5315 89.2878,128.6542 h -41.9008 c -67.8355,0 -123.4713,55.681 -123.4713,123.5273 -0.5668,17.4409 13.4178,31.8874 30.8679,31.8874 17.4501,0 31.4347,-14.4465 30.8679,-31.8874 0,-34.4877 27.2989,-61.7635 61.7355,-61.7635 h 401.2822 c 17.203,0.2099 31.261,-13.6777 31.261,-30.8819 0,-17.2042 -14.058,-31.0918 -31.261,-30.8819 h -185.2072 c -119.6891,0 -216.075,-96.4067 -216.075,-216.1727 v -56.5766 c 1.7128,-10.0816 -1.6734,-20.3577 -9.0432,-27.4437 -0.02,-0.02 -0.04,-0.04 -0.06,-0.06 -0.06,-0.061 -0.1197,-0.1216 -0.18,-0.182 -0.08,-0.081 -0.1604,-0.1612 -0.2412,-0.2412 -5.866,-5.6131 -13.7066,-8.6901 -21.8246,-8.5648 z m 216.5574,62.1861 c 34.45,0 61.7357,27.2756 61.7357,61.7638 0,34.4881 -27.2857,61.7637 -61.7357,61.7637 -34.45,0 -61.7357,-27.2756 -61.7357,-61.7637 0,-34.4882 27.2857,-61.7638 61.7357,-61.7638 z" style="line-height:normal;font-variant-ligatures:normal;font-variant-position:normal;font-variant-caps:normal;font-variant-numeric:normal;font-variant-alternates:normal;font-feature-settings:normal;text-indent:0;text-align:start;text-decoration-line:none;text-decoration-style:solid;text-decoration-color:#000;text-transform:none;text-orientation:mixed;white-space:normal;shape-padding:0;isolation:auto;mix-blend-mode:normal;solid-color:#000;solid-opacity:1" color="#000" font-weight="400" font-family="sans-serif" overflow="visible" stroke-width="61.75" stroke-linecap="square" stroke-linejoin="round" transform="translate(98.989 998.27) scale(.0162)" data-name="Line Art" fill="#fff"/>
        <g stroke="#ffc107" fill="none" stroke-linecap="round" stroke-linejoin="round">
            <path d="m 18.5,1113.5197 5.5,-5.5 5.500001,5.5 -5.500001,5.5 z" transform="translate(60 -52)"/>
            <path d="m 18.5,1116.0197 5.5,5.5 5.500001,-5.5" transform="translate(60 -52)"/>
        </g>
        <path d="m -2437.8866,1991.8843 c -17.051,0.01 -30.8701,13.8307 -30.868,30.8817 v 277.937 c -0.028,2.2694 0.1946,4.5348 0.6632,6.7554 3.6114,64.6859 57.281,116.7718 122.8083,116.7718 67.8371,0 123.4713,-55.6821 123.4713,-123.5272 0,-67.8452 -55.6342,-123.5273 -123.4713,-123.5273 -22.5356,0 -43.4847,6.5572 -61.7357,17.2504 V 2053.648 h 92.6035 c 119.6892,0 216.0749,96.4067 216.0749,216.1728 v 92.6455 h -92.6035 c -17.0682,-0.018 -30.9143,13.8136 -30.9143,30.8818 0,17.0683 13.8461,30.8998 30.9143,30.8819 h 123.4715 c 17.051,-0.01 30.8701,-13.831 30.8678,-30.882 v -123.5272 c 0,-153.1231 -124.7343,-277.9365 -277.8107,-277.9365 z m -123.9539,184.8688 c -2.2346,0.041 -4.4581,0.3238 -6.6316,0.8444 -100.5943,2.3346 -184.8332,52.8795 -241.9389,126.4224 -57.9773,74.6656 -89.8379,172.5049 -90.3729,272.086 -0.021,0.1406 -0.041,0.2813 -0.06,0.4222 0,0.7049 -0.06,1.4059 -0.06,2.1109 0,1.1485 0.056,2.2962 0.18,3.438 1.8636,218.6866 179.288,396.1106 397.9058,397.845 1.0613,0.1159 2.1278,0.1767 3.1954,0.182 1.1681,0.01 2.3356,-0.055 3.4968,-0.182 100.3057,-1.8992 181.7102,-84.3235 181.7102,-185.11 0,-100.8679 -81.5343,-183.3396 -181.9514,-185.1102 -1.0812,-0.118 -2.168,-0.1788 -3.2556,-0.182 -2.2683,-0.028 -4.5328,0.1949 -6.7524,0.6636 -64.6664,3.6132 -116.7191,57.3178 -116.7191,122.8639 0,67.8563 55.6457,123.5273 123.4715,123.5273 17.2167,0.2409 31.3027,-13.6557 31.3027,-30.8819 0,-17.2262 -14.086,-31.1228 -31.3027,-30.8819 -34.4614,0 -61.7358,-27.2868 -61.7358,-61.7635 0,-34.477 27.2744,-61.7637 61.7358,-61.7637 68.5569,0 123.4714,54.9393 123.4714,123.5272 0,68.5881 -54.9145,123.5275 -123.4714,123.5275 -187.892,0 -339.5465,-151.7232 -339.5465,-339.7003 0,-87.1551 28.544,-173.5922 77.5315,-236.6803 42.8128,-55.1359 99.8317,-92.5853 169.4115,-101.1501 v 29.0122 c 0,8.4906 0.5154,16.8516 1.266,25.1517 -109.7867,47.4106 -186.4732,156.8093 -186.4732,283.6665 0,63.5254 19.2725,122.8775 52.2703,172.0215 9.3578,14.5455 28.8367,18.569 43.1918,8.9215 14.355,-9.6475 17.9872,-29.2032 8.0538,-43.3619 -26.411,-39.3342 -41.7802,-86.5073 -41.7802,-137.5811 0,-97.436 56.3413,-181.0172 137.82,-221.2997 17.0064,51.0195 48.3052,95.5315 89.2878,128.6542 h -41.9008 c -67.8355,0 -123.4713,55.681 -123.4713,123.5273 -0.5668,17.4409 13.4178,31.8874 30.8679,31.8874 17.4501,0 31.4347,-14.4465 30.8679,-31.8874 0,-34.4877 27.2989,-61.7635 61.7355,-61.7635 h 401.2822 c 17.203,0.2099 31.261,-13.6777 31.261,-30.8819 0,-17.2042 -14.058,-31.0918 -31.261,-30.8819 h -185.2072 c -119.6891,0 -216.075,-96.4067 -216.075,-216.1727 v -56.5766 c 1.7128,-10.0816 -1.6734,-20.3577 -9.0432,-27.4437 -0.02,-0.02 -0.04,-0.04 -0.06,-0.06 -0.06,-0.061 -0.1197,-0.1216 -0.18,-0.182 -0.08,-0.081 -0.1604,-0.1612 -0.2412,-0.2412 -5.866,-5.6131 -13.7066,-8.6901 -21.8246,-8.5648 z m 216.5574,62.1861 c 34.45,0 61.7357,27.2756 61.7357,61.7638 0,34.4881 -27.2857,61.7637 -61.7357,61.7637 -34.45,0 -61.7357,-27.2756 -61.7357,-61.7637 0,-34.4882 27.2857,-61.7638 61.7357,-61.7638 z" style="line-height:normal;font-variant-ligatures:normal;font-variant-position:normal;font-variant-caps:normal;font-variant-numeric:normal;font-variant-alternates:normal;font-feature-settings:normal;text-indent:0;text-align:start;text-decoration-line:none;text-decoration-style:solid;text-decoration-color:#000;text-transform:none;text-orientation:mixed;white-space:normal;shape-padding:0;isolation:auto;mix-blend-mode:normal;solid-color:#000;solid-opacity:1" color="#000" font-weight="400" font-family="sans-serif" overflow="visible" stroke-width="61.75" stroke-linecap="square" stroke-linejoin="round" transform="translate(98.989 1022.27) scale(.0162)" data-name="Line Art" fill="#fff"/>
        <path d="m -2437.8866,1991.8843 c -17.051,0.01 -30.8701,13.8307 -30.868,30.8817 v 277.937 c -0.028,2.2694 0.1946,4.5348 0.6632,6.7554 3.6114,64.6859 57.281,116.7718 122.8083,116.7718 67.8371,0 123.4713,-55.6821 123.4713,-123.5272 0,-67.8452 -55.6342,-123.5273 -123.4713,-123.5273 -22.5356,0 -43.4847,6.5572 -61.7357,17.2504 V 2053.648 h 92.6035 c 119.6892,0 216.0749,96.4067 216.0749,216.1728 v 92.6455 h -92.6035 c -17.0682,-0.018 -30.9143,13.8136 -30.9143,30.8818 0,17.0683 13.8461,30.8998 30.9143,30.8819 h 123.4715 c 17.051,-0.01 30.8701,-13.831 30.8678,-30.882 v -123.5272 c 0,-153.1231 -124.7343,-277.9365 -277.8107,-277.9365 z m -123.9539,184.8688 c -2.2346,0.041 -4.4581,0.3238 -6.6316,0.8444 -100.5943,2.3346 -184.8332,52.8795 -241.9389,126.4224 -57.9773,74.6656 -89.8379,172.5049 -90.3729,272.086 -0.021,0.1406 -0.041,0.2813 -0.06,0.4222 0,0.7049 -0.06,1.4059 -0.06,2.1109 0,1.1485 0.056,2.2962 0.18,3.438 1.8636,218.6866 179.288,396.1106 397.9058,397.845 1.0613,0.1159 2.1278,0.1767 3.1954,0.182 1.1681,0.01 2.3356,-0.055 3.4968,-0.182 100.3057,-1.8992 181.7102,-84.3235 181.7102,-185.11 0,-100.8679 -81.5343,-183.3396 -181.9514,-185.1102 -1.0812,-0.118 -2.168,-0.1788 -3.2556,-0.182 -2.2683,-0.028 -4.5328,0.1949 -6.7524,0.6636 -64.6664,3.6132 -116.7191,57.3178 -116.7191,122.8639 0,67.8563 55.6457,123.5273 123.4715,123.5273 17.2167,0.2409 31.3027,-13.6557 31.3027,-30.8819 0,-17.2262 -14.086,-31.1228 -31.3027,-30.8819 -34.4614,0 -61.7358,-27.2868 -61.7358,-61.7635 0,-34.477 27.2744,-61.7637 61.7358,-61.7637 68.5569,0 123.4714,54.9393 123.4714,123.5272 0,68.5881 -54.9145,123.5275 -123.4714,123.5275 -187.892,0 -339.5465,-151.7232 -339.5465,-339.7003 0,-87.1551 28.544,-173.5922 77.5315,-236.6803 42.8128,-55.1359 99.8317,-92.5853 169.4115,-101.1501 v 29.0122 c 0,8.4906 0.5154,16.8516 1.266,25.1517 -109.7867,47.4106 -186.4732,156.8093 -186.4732,283.6665 0,63.5254 19.2725,122.8775 52.2703,172.0215 9.3578,14.5455 28.8367,18.569 43.1918,8.9215 14.355,-9.6475 17.9872,-29.2032 8.0538,-43.3619 -26.411,-39.3342 -41.7802,-86.5073 -41.7802,-137.5811 0,-97.436 56.3413,-181.0172 137.82,-221.2997 17.0064,51.0195 48.3052,95.5315 89.2878,128.6542 h -41.9008 c -67.8355,0 -123.4713,55.681 -123.4713,123.5273 -0.5668,17.4409 13.4178,31.8874 30.8679,31.8874 17.4501,0 31.4347,-14.4465 30.8679,-31.8874 0,-34.4877 27.2989,-61.7635 61.7355,-61.7635 h 401.2822 c 17.203,0.2099 31.261,-13.6777 31.261,-30.8819 0,-17.2042 -14.058,-31.0918 -31.261,-30.8819 h -185.2072 c -119.6891,0 -216.075,-96.4067 -216.075,-216.1727 v -56.5766 c 1.7128,-10.0816 -1.6734,-20.3577 -9.0432,-27.4437 -0.02,-0.02 -0.04,-0.04 -0.06,-0.06 -0.06,-0.061 -0.1197,-0.1216 -0.18,-0.182 -0.08,-0.081 -0.1604,-0.1612 -0.2412,-0.2412 -5.866,-5.6131 -13.7066,-8.6901 -21.8246,-8.5648 z m 216.5574,62.1861 c 34.45,0 61.7357,27.2756 61.7357,61.7638 0,34.4881 -27.2857,61.7637 -61.7357,61.7637 -34.45,0 -61.7357,-27.2756 -61.7357,-61.7637 0,-34.4882 27.2857,-61.7638 61.7357,-61.7638 z" style="line-height:normal;font-variant-ligatures:normal;font-variant-position:normal;font-variant-caps:normal;font-variant-numeric:normal;font-variant-alternates:normal;font-feature-settings:normal;text-indent:0;text-align:start;text-decoration-line:none;text-decoration-style:solid;text-decoration-color:#000;text-transform:none;text-orientation:mixed;white-space:normal;shape-padding:0;isolation:auto;mix-blend-mode:normal;solid-color:#000;solid-opacity:1" color="#000" font-weight="400" font-family="sans-serif" overflow="visible" stroke-width="61.75" stroke-linecap="square" stroke-linejoin="round" transform="translate(98.989 1046.27) scale(.0162)" data-name="Line Art" fill="#fff"/>
        <path d="m -2437.8866,1991.8843 c -17.051,0.01 -30.8701,13.8307 -30.868,30.8817 v 277.937 c -0.028,2.2694 0.1946,4.5348 0.6632,6.7554 3.6114,64.6859 57.281,116.7718 122.8083,116.7718 67.8371,0 123.4713,-55.6821 123.4713,-123.5272 0,-67.8452 -55.6342,-123.5273 -123.4713,-123.5273 -22.5356,0 -43.4847,6.5572 -61.7357,17.2504 V 2053.648 h 92.6035 c 119.6892,0 216.0749,96.4067 216.0749,216.1728 v 92.6455 h -92.6035 c -17.0682,-0.018 -30.9143,13.8136 -30.9143,30.8818 0,17.0683 13.8461,30.8998 30.9143,30.8819 h 123.4715 c 17.051,-0.01 30.8701,-13.831 30.8678,-30.882 v -123.5272 c 0,-153.1231 -124.7343,-277.9365 -277.8107,-277.9365 z m -123.9539,184.8688 c -2.2346,0.041 -4.4581,0.3238 -6.6316,0.8444 -100.5943,2.3346 -184.8332,52.8795 -241.9389,126.4224 -57.9773,74.6656 -89.8379,172.5049 -90.3729,272.086 -0.021,0.1406 -0.041,0.2813 -0.06,0.4222 0,0.7049 -0.06,1.4059 -0.06,2.1109 0,1.1485 0.056,2.2962 0.18,3.438 1.8636,218.6866 179.288,396.1106 397.9058,397.845 1.0613,0.1159 2.1278,0.1767 3.1954,0.182 1.1681,0.01 2.3356,-0.055 3.4968,-0.182 100.3057,-1.8992 181.7102,-84.3235 181.7102,-185.11 0,-100.8679 -81.5343,-183.3396 -181.9514,-185.1102 -1.0812,-0.118 -2.168,-0.1788 -3.2556,-0.182 -2.2683,-0.028 -4.5328,0.1949 -6.7524,0.6636 -64.6664,3.6132 -116.7191,57.3178 -116.7191,122.8639 0,67.8563 55.6457,123.5273 123.4715,123.5273 17.2167,0.2409 31.3027,-13.6557 31.3027,-30.8819 0,-17.2262 -14.086,-31.1228 -31.3027,-30.8819 -34.4614,0 -61.7358,-27.2868 -61.7358,-61.7635 0,-34.477 27.2744,-61.7637 61.7358,-61.7637 68.5569,0 123.4714,54.9393 123.4714,123.5272 0,68.5881 -54.9145,123.5275 -123.4714,123.5275 -187.892,0 -339.5465,-151.7232 -339.5465,-339.7003 0,-87.1551 28.544,-173.5922 77.5315,-236.6803 42.8128,-55.1359 99.8317,-92.5853 169.4115,-101.1501 v 29.0122 c 0,8.4906 0.5154,16.8516 1.266,25.1517 -109.7867,47.4106 -186.4732,156.8093 -186.4732,283.6665 0,63.5254 19.2725,122.8775 52.2703,172.0215 9.3578,14.5455 28.8367,18.569 43.1918,8.9215 14.355,-9.6475 17.9872,-29.2032 8.0538,-43.3619 -26.411,-39.3342 -41.7802,-86.5073 -41.7802,-137.5811 0,-97.436 56.3413,-181.0172 137.82,-221.2997 17.0064,51.0195 48.3052,95.5315 89.2878,128.6542 h -41.9008 c -67.8355,0 -123.4713,55.681 -123.4713,123.5273 -0.5668,17.4409 13.4178,31.8874 30.8679,31.8874 17.4501,0 31.4347,-14.4465 30.8679,-31.8874 0,-34.4877 27.2989,-61.7635 61.7355,-61.7635 h 401.2822 c 17.203,0.2099 31.261,-13.6777 31.261,-30.8819 0,-17.2042 -14.058,-31.0918 -31.261,-30.8819 h -185.2072 c -119.6891,0 -216.075,-96.4067 -216.075,-216.1727 v -56.5766 c 1.7128,-10.0816 -1.6734,-20.3577 -9.0432,-27.4437 -0.02,-0.02 -0.04,-0.04 -0.06,-0.06 -0.06,-0.061 -0.1197,-0.1216 -0.18,-0.182 -0.08,-0.081 -0.1604,-0.1612 -0.2412,-0.2412 -5.866,-5.6131 -13.7066,-8.6901 -21.8246,-8.5648 z m 216.5574,62.1861 c 34.45,0 61.7357,27.2756 61.7357,61.7638 0,34.4881 -27.2857,61.7637 -61.7357,61.7637 -34.45,0 -61.7357,-27.2756 -61.7357,-61.7637 0,-34.4882 27.2857,-61.7638 61.7357,-61.7638 z" style="line-height:normal;font-variant-ligatures:normal;font-variant-position:normal;font-variant-caps:normal;font-variant-numeric:normal;font-variant-alternates:normal;font-feature-settings:normal;text-indent:0;text-align:start;text-decoration-line:none;text-decoration-style:solid;text-decoration-color:#000;text-transform:none;text-orientation:mixed;white-space:normal;shape-padding:0;isolation:auto;mix-blend-mode:normal;solid-color:#000;solid-opacity:1" color="#000" font-weight="400" font-family="sans-serif" overflow="visible" stroke-width="61.75" stroke-linecap="square" stroke-linejoin="round" transform="translate(98.989 1070.27) scale(.0162)" data-name="Line Art" fill="#fff"/>
        <path d="m 72.000003,1081.0197 v 11" fill="none" stroke="#35b9ab" stroke-linecap="round" stroke-linejoin="round"/>
        <path d="m 72.000003,1105.0197 v 11" fill="none" stroke="#21a4df" stroke-linecap="round" stroke-linejoin="round"/>
        <path d="m 72.000003,1057.0197 v 11" fill="none" stroke="#ffc107" stroke-linecap="round" stroke-linejoin="round"/>
        <path d="m 72.000003,1033.0197 v 11" fill="none" stroke="#fff" stroke-linecap="round" stroke-linejoin="round"/>
        <circle cx="84" cy="1038.52" r="1.5" fill="none" stroke="#fff" stroke-linecap="round" stroke-linejoin="round"/>
        <circle r=".75" cy="1048.516" cx="55" fill="none" stroke="#fff" stroke-width=".5" stroke-linecap="round" stroke-linejoin="round"/>
        <path d="M54.249994 1048.5161v1.75M53.000004 1047.7661a.74999776.74999776 0 00-.75.75.74999776.74999776 0 00.75.75.74999776.74999776 0 00.75-.75.74999776.74999776 0 00-.75-.75zM58.249983 1049.2661v-1.5M58.249983 1048.5161c0-.4142.33579-.75.75-.75.41421 0 .75.3358.75.75v.75M60.999983 1047.7661c.41422 0 .75.3358.75.75 0 .4142-.33578.75-.75.75h-.75M62.249983 1046.7661v1.75c0 .4142.33579.75.75.75.41421 0 .75-.3358.75-.75v-1.75M64.999973 1047.7661c.41421 0 .75.3358.75.75 0 .4142-.33579.75-.75.75h-.75M67.249973 1046.7661h-1v2.5h1M66.249973 1048.0161h.75M61.499983 1046.7661h-.75001c-.27614 0-.49999.2238-.49999.5 0 .2761.22385.5.49999.5h.25001M65.499973 1046.7661h-.75c-.27614 0-.5.2239-.5.5 0 .2762.22386.5.5.5h.25" fill="none" stroke="#fff" stroke-width=".5" stroke-linecap="round" stroke-linejoin="round"/>
        <path d="M67.624993 1048.8911h.5M67.874993 1048.8911v.5M68.374993 1049.3911v-.5l.25.25.25-.25v.5" fill="none" stroke="#fff" stroke-width=".25" stroke-linecap="round" stroke-linejoin="round"/>
        <path d="m 57.530324,1049.0455 c -0.29289,0.2929 -0.76776,0.2929 -1.06065,0 -0.29289,-0.2929 -0.29289,-0.7678 0,-1.0607 0.29289,-0.2929 0.76776,-0.2929 1.06065,0 0.1467,0.1467 0.21992,0.3391 0.21967,0.5313 h -1.49999" fill="none" stroke="#fff" stroke-width=".5" stroke-linecap="round" stroke-linejoin="round"/>
        <path d="M78.249733 1049.2664v-2.497l.99879.9988.9988-.9988v2.497M80.746723 1049.2664v-1.4982M80.746753 1047.0189v0M82.523343 1047.9892c-.29254-.2926-.76684-.2926-1.05938 0-.29254.2925-.29254.7668 0 1.0593.29254.2926.76684.2926 1.05938 0M83.243723 1049.2664v-1.4982M83.243723 1048.5173c0-.4137.33538-.7491.74909-.7491M84.991623 1047.7682a.74909518.74909518 0 00-.7491.7491.74909518.74909518 0 00.7491.7491.74909518.74909518 0 00.74909-.7491.74909518.74909518 0 00-.74909-.7491z" fill="none" stroke="#fff" stroke-width=".499" stroke-linecap="round" stroke-linejoin="round"/>
        <ellipse cx="87.239" cy="1048.018" rx=".999" ry="1.248" fill="none" stroke="#fff" stroke-width=".499" stroke-linecap="round" stroke-linejoin="round"/>
        <path d="M89.486213 1047.7682c.41371 0 .74909.3354.74909.7491 0 .4137-.33538.7491-.74909.7491l-.74911-.0001M89.985603 1046.7694l-.7491-.0001c-.27581 0-.4994.2236-.4994.4994 0 .2758.22359.4994.4994.4994l.24971.0001" fill="none" stroke="#fff" stroke-width=".499" stroke-linecap="round" stroke-linejoin="round"/>
        <circle r=".75" cy="1072.516" cx="55" fill="none" stroke="#fff" stroke-width=".5" stroke-linecap="round" stroke-linejoin="round"/>
        <path d="M54.249994 1072.5161v1.75M53.000004 1071.7661a.74999776.74999776 0 00-.75.75.74999776.74999776 0 00.75.75.74999776.74999776 0 00.75-.75.74999776.74999776 0 00-.75-.75zM58.249983 1073.2661v-1.5M58.249983 1072.5161c0-.4142.33579-.75.75-.75.41421 0 .75.3358.75.75v.75M60.999983 1071.7661c.41422 0 .75.3358.75.75 0 .4142-.33578.75-.75.75h-.75M62.249983 1070.7661v1.75c0 .4142.33579.75.75.75.41421 0 .75-.3358.75-.75v-1.75M64.999973 1071.7661c.41421 0 .75.3358.75.75 0 .4142-.33579.75-.75.75h-.75M67.249973 1070.7661h-1v2.5h1M66.249973 1072.0161h.75M61.499983 1070.7661h-.75001c-.27614 0-.49999.2238-.49999.5 0 .2761.22385.5.49999.5h.25001M65.499973 1070.7661h-.75c-.27614 0-.5.2239-.5.5 0 .2762.22386.5.5.5h.25" fill="none" stroke="#fff" stroke-width=".5" stroke-linecap="round" stroke-linejoin="round"/>
        <path d="M67.624993 1072.8911h.5M67.874993 1072.8911v.5M68.374993 1073.3911v-.5l.25.25.25-.25v.5" fill="none" stroke="#fff" stroke-width=".25" stroke-linecap="round" stroke-linejoin="round"/>
        <path d="m 57.530324,1073.0455 c -0.29289,0.2929 -0.76776,0.2929 -1.06065,0 -0.29289,-0.2929 -0.29289,-0.7678 0,-1.0607 0.29289,-0.2929 0.76776,-0.2929 1.06065,0 0.1467,0.1467 0.21992,0.3391 0.21967,0.5313 h -1.49999" fill="none" stroke="#fff" stroke-width=".5" stroke-linecap="round" stroke-linejoin="round"/>
        <circle r=".75" cy="1096.516" cx="55" fill="none" stroke="#fff" stroke-width=".5" stroke-linecap="round" stroke-linejoin="round"/>
        <path d="M54.250004 1096.516v1.75M53.000004 1095.766a.74999776.74999776 0 00-.75.75.74999776.74999776 0 00.75.75.74999776.74999776 0 00.75-.75.74999776.74999776 0 00-.75-.75zM58.249983 1097.266v-1.5M58.249983 1096.516c0-.4142.33579-.75.75-.75.41421 0 .75.3358.75.75v.75M60.999983 1095.766c.41422 0 .75.3358.75.75 0 .4142-.33578.75-.75.75h-.75M62.249983 1094.766v1.75c0 .4142.33579.75.75.75.41421 0 .75-.3358.75-.75v-1.75M64.999973 1095.766c.41421 0 .75.3358.75.75 0 .4142-.33579.75-.75.75h-.75M67.249973 1094.766h-1v2.5h1M66.249973 1096.016h.75M61.499983 1094.766h-.75c-.27615 0-.5.2238-.5.5 0 .2761.22385.5.5.5h.25M65.499973 1094.766h-.75c-.27614 0-.5.2239-.5.5 0 .2762.22386.5.5.5h.25" fill="none" stroke="#fff" stroke-width=".5" stroke-linecap="round" stroke-linejoin="round"/>
        <path d="M67.624993 1096.891h.5M67.874993 1096.891v.5M68.374993 1097.391v-.5l.25.25.25-.25v.5" fill="none" stroke="#fff" stroke-width=".25" stroke-linecap="round" stroke-linejoin="round"/>
        <path d="m 57.530334,1097.0454 c -0.2929,0.2929 -0.76777,0.2929 -1.06066,0 -0.29289,-0.2929 -0.29289,-0.7678 0,-1.0607 0.29289,-0.2929 0.76776,-0.2929 1.06066,0 0.14669,0.1467 0.21991,0.3391 0.21966,0.5313 h -1.49999" fill="none" stroke="#fff" stroke-width=".5" stroke-linecap="round" stroke-linejoin="round"/>
        <circle r=".75" cy="1120.516" cx="55" fill="none" stroke="#fff" stroke-width=".5" stroke-linecap="round" stroke-linejoin="round"/>
        <path d="M54.250004 1120.5161v1.75M53.000004 1119.7661a.74999776.74999776 0 00-.75.75.74999776.74999776 0 00.75.75.74999776.74999776 0 00.75-.75.74999776.74999776 0 00-.75-.75zM58.249983 1121.2661v-1.5M58.249983 1120.5161c0-.4142.33579-.75.75-.75.41421 0 .75.3358.75.75v.75M60.999983 1119.7661c.41422 0 .75.3358.75.75 0 .4142-.33578.75-.75.75h-.75M62.249983 1118.7661v1.75c0 .4142.33579.75.75.75.41421 0 .75-.3358.75-.75v-1.75M64.999973 1119.7661c.41421 0 .75.3358.75.75 0 .4142-.33579.75-.75.75h-.75M67.249973 1118.7661h-1v2.5h1M66.249973 1120.0161h.75M61.499983 1118.7661h-.75c-.27615 0-.5.2238-.5.5 0 .2761.22385.5.5.5h.25M65.499973 1118.7661h-.75c-.27614 0-.5.2239-.5.5 0 .2762.22386.5.5.5h.25" fill="none" stroke="#fff" stroke-width=".5" stroke-linecap="round" stroke-linejoin="round"/>
        <path d="M67.624993 1120.8911h.5M67.874993 1120.8911v.5M68.374993 1121.3911v-.5l.25.25.25-.25v.5" fill="none" stroke="#fff" stroke-width=".25" stroke-linecap="round" stroke-linejoin="round"/>
        <path d="m 57.530334,1121.0455 c -0.2929,0.2929 -0.76777,0.2929 -1.06066,0 -0.29289,-0.2929 -0.29289,-0.7678 0,-1.0607 0.29289,-0.2929 0.76776,-0.2929 1.06066,0 0.14669,0.1467 0.21991,0.3391 0.21966,0.5313 h -1.49999" fill="none" stroke="#fff" stroke-width=".5" stroke-linecap="round" stroke-linejoin="round"/>
        <path d="M81.250033 1070.7662v2.4999h.74999M83.530343 1073.0455c-.29289.2929-.76776.2929-1.06065 0-.29289-.2929-.29289-.7678 0-1.0607.29289-.2929.76776-.2929 1.06065 0 .14669.1467.21992.3391.21967.5313h-1.49999M84.750023 1071.7655h.26924c.18426.01.36687.079.50751.2193.2929.2929.2929.7678 0 1.0607-.29289.2929-.76775.2929-1.06065 0-.14669-.1467-.21991-.3391-.21966-.5313h1.49998l.004.7519" fill="none" stroke="#ffc107" stroke-width=".5" stroke-linecap="round" stroke-linejoin="round"/>
        <circle r=".75" cy="1072.516" cx="87" fill="none" stroke="#ffc107" stroke-width=".5" stroke-linecap="round" stroke-linejoin="round"/>
        <path d="m 86.250013,1072.5161 v 1.75" fill="none" stroke="#ffc107" stroke-width=".5" stroke-linecap="round" stroke-linejoin="round"/>
        <path d="M73.253523 1094.763h1.99968M74.253363 1094.763v2.4996M74.753283 1095.7629v.7498c0 .4142.33573.7499.74988.7499.41415 0 .74988-.3357.74988-.7499v-.7498M76.752963 1097.2591v-.7499c0-.4142.33573-.7499.74988-.7499.41414 0 .74987.3357.74987.7499v.7499M78.252723 1097.2626v-.7499c0-.4141.33573-.7498.74988-.7498.41415 0 .74988.3357.74988.7498v.7499" fill="none" stroke="#35b9ab" stroke-width=".5" stroke-linecap="round" stroke-linejoin="round"/>
        <circle transform="scale(1 -1)" r=".75" cy="-1096.516" cx="81.002" fill="none" stroke="#35b9ab" stroke-width=".5" stroke-linecap="round" stroke-linejoin="round"/>
        <path d="M80.252403 1096.5163v-1.7497M82.252073 1096.5127c0 .4142.33573.7499.74988.7499l.24996-.01M82.252103 1096.5129v-1.7497M85.031953 1097.042c-.29285.2929-.76764.2929-1.06048 0-.29285-.2928-.29285-.7676 0-1.0605.29284-.2928.76763-.2928 1.06048 0 .14667.1467.21988.339.21963.5312h-1.49975M85.751513 1095.77v.7499c0 .4141.33573.7498.74988.7498.41414 0 .74988-.3357.74988-.7498v-.7499" fill="none" stroke="#35b9ab" stroke-width=".5" stroke-linecap="round" stroke-linejoin="round"/>
        <path d="M87.251273 1095.7664v.7499c0 .4142.33573.7499.74988.7499.41415 0 .74988-.3357.74988-.7499v-.7499M90.531063 1097.042c-.29285.2929-.76764.2929-1.06048 0-.29285-.2928-.29285-.7676 0-1.0605.29284-.2928.76763-.2928 1.06048 0 .14667.1467.21988.339.21963.5312h-1.49975M92.530743 1097.042c-.29285.2929-.76764.2929-1.06049 0-.29284-.2928-.29284-.7676 0-1.0605.29285-.2928.76764-.2928 1.06049 0 .14666.1467.21988.339.21963.5312h-1.49975" fill="none" stroke="#35b9ab" stroke-width=".5" stroke-linecap="round" stroke-linejoin="round"/>
        <circle transform="scale(-1)" r=".75" cy="-1096.513" cx="-94" fill="none" stroke="#35b9ab" stroke-width=".5" stroke-linecap="round" stroke-linejoin="round"/>
        <path d="m 94.750023,1096.5127 v -1.7497" fill="none" stroke="#35b9ab" stroke-width=".5" stroke-linecap="round" stroke-linejoin="round"/>
        <path d="M80.249433 1118.7727v2.494M81.496473 1118.7727l-1.24704 1.247 1.24704 1.247M81.745883 1119.7703v.7482c0 .4133.33499.7482.74822.7482.41324 0 .74823-.3349.74823-.7482v-.7482" fill="none" stroke="#21a4df" stroke-width=".499" stroke-linecap="round" stroke-linejoin="round"/>
        <circle transform="scale(1 -1)" r=".748" cy="-1120.519" cx="84.489" fill="none" stroke="#21a4df" stroke-width=".499" stroke-linecap="round" stroke-linejoin="round"/>
        <path d="M83.741143 1120.5185v-1.7458M85.736413 1121.2667v-1.4964M85.736433 1119.0219v0M87.510953 1119.991c-.2922-.2922-.76595-.2922-1.05814 0-.2922.2922-.2922.766 0 1.0582.29219.2922.76594.2922 1.05814 0" fill="none" stroke="#21a4df" stroke-width=".499" stroke-linecap="round" stroke-linejoin="round"/>
    </g>
</svg>
