<?xml version="1.0" encoding="UTF-8" standalone="no"?>
<!-- Created with Inkscape (http://www.inkscape.org/) -->

<svg
   xmlns:dc="http://purl.org/dc/elements/1.1/"
   xmlns:cc="http://creativecommons.org/ns#"
   xmlns:rdf="http://www.w3.org/1999/02/22-rdf-syntax-ns#"
   xmlns:svg="http://www.w3.org/2000/svg"
   xmlns="http://www.w3.org/2000/svg"
   xmlns:sodipodi="http://sodipodi.sourceforge.net/DTD/sodipodi-0.dtd"
   xmlns:inkscape="http://www.inkscape.org/namespaces/inkscape"
   width="372.04724"
   height="372.04724"
   id="svg2"
   version="1.1"
   inkscape:version="0.48.4 r9939"
   sodipodi:docname="Proposal_01_t-shirt_front_oSC13.pdf"
   inkscape:export-filename="/data/Documentos/openSUSE/github/artwork/Marketing Materials/Events/openSUSE Conference/2013-oS-Conference/Proposal_01_t-shirt_front_oSC13.png"
   inkscape:export-xdpi="300"
   inkscape:export-ydpi="300">
  <defs
     id="defs4" />
  <sodipodi:namedview
     id="base"
     pagecolor="#ffffff"
     bordercolor="#666666"
     borderopacity="1.0"
     inkscape:pageopacity="0.0"
     inkscape:pageshadow="2"
     inkscape:zoom="1.0111103"
     inkscape:cx="213.54273"
     inkscape:cy="203.11443"
     inkscape:document-units="px"
     inkscape:current-layer="layer1"
     showgrid="false"
     inkscape:window-width="1280"
     inkscape:window-height="741"
     inkscape:window-x="0"
     inkscape:window-y="27"
     inkscape:window-maximized="1"
     units="mm" />
  <metadata
     id="metadata7">
    <rdf:RDF>
      <cc:Work
         rdf:about="">
        <dc:format>image/svg+xml</dc:format>
        <dc:type
           rdf:resource="http://purl.org/dc/dcmitype/StillImage" />
        <dc:title></dc:title>
      </cc:Work>
    </rdf:RDF>
  </metadata>
  <g
     inkscape:label="Camada 1"
     inkscape:groupmode="layer"
     id="layer1"
     transform="translate(0,-680.31495)">
    <rect
       style="color:#000000;fill:#000000;fill-opacity:1;fill-rule:nonzero;stroke:#000000;stroke-width:1.39999998000000003;stroke-linecap:butt;stroke-linejoin:miter;stroke-miterlimit:4;stroke-opacity:0;stroke-dasharray:none;stroke-dashoffset:0;marker:none;visibility:visible;display:inline;overflow:visible;enable-background:accumulate"
       id="rect4224"
       width="372.04724"
       height="372.04724"
       x="0"
       y="680.31494" />
    <path
       inkscape:connector-curvature="0"
       id="path3122"
       d="m 134.09826,1018.161 c -8.82648,-0.6285 -19.08398,-1.7274 -20.24498,-2.1688 -0.75265,-0.2861 -0.54596,-0.7581 0.99679,-2.2761 1.48544,-1.4616 5.03904,-4.3632 7.69114,-6.2801 3.50649,-2.5343 7.70513,-5.0485 11.26122,-6.7432 3.32578,-1.58493 2.96094,-1.525 9.73681,-1.59928 5.91726,-0.0649 8.16558,0.0361 12.04538,0.54119 3.34461,0.43539 6.18621,0.93209 6.45448,1.12829 0.24075,0.176 0.23976,0.2263 -0.0121,0.6106 -0.3865,0.59 -4.46661,4.4152 -7.17491,6.7268 -6.75332,5.7642 -10.5028,8.2663 -14.29233,9.5378 -1.30527,0.4379 -1.75734,0.5076 -3.53157,0.5444 -1.11908,0.023 -2.43757,0.014 -2.92996,-0.022 z m 99.03047,-0.063 c -3.03382,-0.5501 -6.66647,-2.555 -11.45729,-6.3236 -4.30357,-3.3854 -10.93109,-9.3014 -11.65124,-10.4005 -0.25181,-0.3843 -0.2528,-0.4346 -0.0121,-0.6107 0.26827,-0.1961 3.10987,-0.6928 6.45449,-1.12821 3.8798,-0.50506 6.12812,-0.60608 12.04538,-0.54119 6.77587,0.0743 6.41102,0.0143 9.7368,1.5993 3.55609,1.6947 7.75474,4.2089 11.26122,6.7432 4.52378,3.2696 9.11543,7.3183 9.11543,8.0376 0,0.6071 -0.59986,0.7368 -6.51101,1.4076 -8.58288,0.974 -17.25418,1.5297 -18.98172,1.2165 z m -124.01649,-13.115 c -3.86051,-0.5975 -8.76338,-1.9062 -16.432382,-4.386 -5.795629,-1.87406 -6.763117,-2.23218 -6.763117,-2.50333 0,-0.0769 0.191511,-0.26536 0.425577,-0.41873 1.523288,-0.99809 15.092412,-7.73929 18.456372,-9.16919 l 1.38359,-0.58812 2.96076,-0.062 c 4.59082,-0.0962 5.51332,0.10508 17.84455,3.89315 4.22743,1.29864 5.48292,1.75077 5.48292,1.9745 0,0.26339 -3.46816,3.87996 -4.88035,5.08921 -3.90001,3.33951 -7.26814,4.90231 -13.13191,6.09311 -1.88382,0.3825 -3.24724,0.4023 -5.34601,0.077 z m 148.81231,0.01 c -6.02737,-1.1988 -9.575,-2.8332 -13.5251,-6.23114 -1.49006,-1.28177 -4.82271,-4.76893 -4.82271,-5.04631 0,-0.0929 0.38455,-0.31244 0.85457,-0.48788 2.02419,-0.75558 12.39727,-3.94224 15.21979,-4.67559 3.35838,-0.87259 8.65568,-0.95769 10.98296,-0.17645 2.99765,1.00628 19.26479,9.09177 19.45803,9.67151 0.10035,0.30104 -0.67782,0.59641 -6.70802,2.54606 -7.95394,2.5717 -12.61412,3.8084 -16.55742,4.3939 -2.04285,0.3034 -3.39823,0.305 -4.9021,0.01 z m -95.50336,-6.99387 c -11.23304,-1.35634 -27.58775,-5.35313 -39.80132,-9.72671 -1.88155,-0.67376 -3.81763,-1.34282 -4.30239,-1.48677 -0.77173,-0.22918 -2.24743,-0.26174 -11.86029,-0.26174 l -10.978891,0 -1.891518,0.41969 c -1.040331,0.23083 -2.890395,0.66918 -4.11125,0.9741 l -2.219738,0.5544 -2.031272,-0.55671 c -2.464841,-0.67553 -4.096834,-1.28682 -6.86786,-2.57244 -4.868788,-2.25888 -13.791072,-7.25731 -14.286634,-8.00363 -0.06391,-0.0963 -0.02729,-0.26015 0.08138,-0.36421 0.536671,-0.51393 10.314299,-4.0473 13.219616,-4.77722 1.307341,-0.32845 1.70144,-0.35654 3.662449,-0.26102 1.208606,0.0589 2.453842,0.16337 2.76718,0.23223 l 0.569716,0.12519 0.04318,4.78159 c 0.0289,3.19616 0.102942,4.85359 0.223395,4.99873 0.149375,0.17998 7.522022,0.21733 43.092297,0.21829 23.60164,0 43.41256,0.0484 44.02427,0.10618 l 1.1122,0.10504 -0.10852,0.58559 c -0.16434,0.88687 -0.83652,2.00509 -1.46304,2.43392 -1.08116,0.74001 -1.80565,0.89196 -4.60014,0.96479 l -2.6451,0.0689 0,0.57656 c 0,0.3171 0.22939,1.70388 0.50975,3.08171 0.28036,1.37783 0.45717,2.55751 0.39289,2.62154 -0.0643,0.064 -1.22758,0.1064 -2.58513,0.0942 -2.67079,-0.0239 -5.97934,-0.39372 -7.11815,-0.79553 -1.46288,-0.51613 -4.49353,-2.65326 -6.60823,-4.65994 l -1.00326,-0.952 -2.92507,0 c -3.29039,0 -3.11833,-0.0729 -3.12358,1.32296 -0.003,0.81844 -0.30652,1.02223 -1.32154,0.88759 -1.11555,-0.14798 -1.93177,-0.48073 -3.49189,-1.42351 l -1.31155,-0.79258 -4.30421,0.0435 -4.30421,0.0435 0.89527,0.42655 c 4.90304,2.33608 19.8203,6.35679 26.61377,7.17334 1.94263,0.2335 11.1519,0.27426 16.27755,0.0721 l 3.58106,-0.14128 1.994,1.00301 c 1.17792,0.5925 1.994,1.10001 1.994,1.24001 0,0.13035 -0.0563,0.237 -0.12505,0.237 -0.0688,0 -0.92946,0.18307 -1.91261,0.40681 -4.37907,0.99659 -10.1755,1.40813 -13.75156,0.97634 z m 40.93802,0.12955 c -1.73697,-0.12032 -5.78063,-0.71766 -7.48471,-1.10568 -0.98315,-0.22386 -1.84382,-0.40702 -1.91261,-0.40702 -0.0688,0 -0.12505,-0.10665 -0.12505,-0.237 0,-0.14008 0.81544,-0.64661 1.994,-1.23861 l 1.994,-1.00159 2.52302,0.098 c 14.20541,0.55188 18.23031,0.27056 26.77656,-1.87153 4.00775,-1.00454 9.75334,-2.78948 9.93731,-3.08717 0.0555,-0.0898 -1.65473,-0.1498 -4.26978,-0.1498 -2.39931,0 -5.72564,-0.0831 -7.39184,-0.18477 l -3.02949,-0.18476 -2.00566,1.3358 c -2.60869,1.73743 -3.25684,2.05357 -4.80986,2.34611 -3.08311,0.58075 -8.53454,0.71813 -8.53278,0.21503 0,-0.10478 0.21981,-1.25262 0.48766,-2.55076 0.26785,-1.29813 0.48728,-2.62215 0.48766,-2.94226 l 0,-0.58202 -2.1322,-0.44863 c -5.60295,-1.17893 -12.06027,-3.43534 -16.83114,-5.88141 -3.36159,-1.72352 -4.69716,-2.70603 -5.58994,-4.11226 -0.7644,-1.20407 -1.27879,-3.28761 -0.81162,-3.28761 0.10497,0 1.80801,0.87184 3.78452,1.93743 8.41933,4.53906 15.53156,6.75407 27.76584,8.64733 7.98399,1.23553 12.26661,1.51756 21.40497,1.40959 7.22333,-0.0853 8.78213,-0.17456 13.49105,-0.77221 10.5622,-1.34054 19.34331,-4.34787 26.44489,-9.0568 6.73474,-4.4657 12.32641,-11.20425 15.08876,-18.18354 0.33983,-0.85859 0.64013,-1.53878 0.66735,-1.51156 0.0604,0.0604 -0.8241,3.47306 -1.1816,4.55896 -0.14191,0.43105 -0.22073,0.82101 -0.17517,0.86657 0.15534,0.15534 1.06843,-0.42637 3.39958,-2.16582 10.91968,-8.14797 22.23965,-18.70388 28.73763,-26.7979 2.16688,-2.69913 9.75632,-13.23483 12.33553,-17.12427 2.09905,-3.16538 19.89724,-31.32628 22.16999,-35.07811 1.26062,-2.08102 2.55698,-4.41194 4.187,-7.52836 0.59702,-1.14146 1.15466,-2.07539 1.23919,-2.07539 1.46774,0 -6.12977,14.62725 -16.59245,31.94494 -6.43383,10.64918 -18.15501,27.6417 -22.65231,32.83968 -1.66732,1.92707 -10.20064,11.00177 -12.42297,13.21111 -2.285,2.27162 -5.08447,4.75406 -9.38214,8.31962 -2.01434,1.67121 -4.50481,3.74791 -5.53436,4.6149 -1.02955,0.86701 -3.1904,2.56874 -4.80187,3.78165 -3.57333,2.68952 -4.21771,3.28134 -5.60829,5.15083 -0.59932,0.80574 -1.50578,1.94099 -2.01436,2.52274 -0.50857,0.58178 -0.86419,1.07795 -0.79024,1.1026 0.0739,0.0246 1.32966,-0.21661 2.79049,-0.5361 5.37657,-1.17596 7.44588,-1.31255 9.95881,-0.65731 3.01837,0.78702 12.43263,4.20583 12.95258,4.70376 0.27039,0.25892 0.12094,0.43506 -1.01145,1.19218 -3.20256,2.14121 -11.6108,6.58796 -15.54505,8.2211 -1.74104,0.72271 -5.82344,1.92604 -6.5343,1.92604 -0.97333,0 -11.89424,-3.18411 -15.39531,-4.48867 l -1.5013,-0.55942 -1.42866,0.59488 c -3.74306,1.55854 -9.09135,3.07346 -13.66775,3.87144 -1.41598,0.24689 -3.36861,0.74736 -5.04604,1.29333 -9.46677,3.08126 -19.68324,5.72971 -28.86171,7.48194 -7.65057,1.46055 -11.72499,1.88535 -15.54505,1.62075 z M 53.882021,968.54175 c -1.51249,-0.34438 -2.628976,-0.79071 -5.078077,-2.03003 -4.747635,-2.40246 -14.497703,-8.15976 -14.887918,-8.79113 -0.161128,-0.26072 0.53825,-0.60934 2.598371,-1.29524 3.335401,-1.11049 11.391293,-3.2121 15.382279,-4.0129 2.842951,-0.57045 7.389426,-0.0427 10.661788,1.23751 3.140166,1.22854 7.809011,4.14124 11.134164,6.94614 1.973869,1.66503 2.125822,1.8559 1.797046,2.25719 -0.484786,0.59172 -8.280638,3.97615 -10.81513,4.6952 -3.553172,1.00806 -8.662438,1.47828 -10.792523,0.99326 z m 257.804229,-0.1023 c -3.90469,-0.59496 -5.76494,-1.20111 -11.6411,-3.79313 -4.01936,-1.77295 -4.13651,-1.89348 -2.91521,-2.99936 3.56283,-3.22613 8.75986,-6.58895 12.35884,-7.997 3.27237,-1.28026 7.81884,-1.80796 10.66179,-1.23751 3.99097,0.8008 12.04688,2.90241 15.38228,4.0129 2.06011,0.6859 2.7595,1.03452 2.59836,1.29524 -0.58022,0.93884 -14.95691,9.11773 -18.00196,10.24132 -2.36778,0.87369 -4.90236,1.01704 -8.443,0.47754 z m -230.582844,-4.0252 c -1.617778,-1.2249 -3.668751,-2.83909 -4.557712,-3.58707 -0.888961,-0.74799 -3.261642,-2.72571 -5.272618,-4.39494 -4.379161,-3.63496 -7.321219,-6.24093 -9.551038,-8.45998 C 59.48645,945.74748 50.957409,936.67618 49.299078,934.75948 44.801759,929.5615 33.080579,912.56898 26.646757,901.9198 16.184069,884.60211 8.5865652,869.97486 10.05431,869.97486 c 0.08453,0 0.642169,0.93393 1.239197,2.07539 1.630006,3.11642 2.926374,5.44734 4.186991,7.52836 2.272742,3.75183 20.070934,31.91273 22.169997,35.07811 2.579203,3.88944 10.168637,14.42514 12.335524,17.12427 4.771881,5.94397 12.562025,13.64953 20.385669,20.16433 4.764662,3.96756 9.950644,8.03286 12.45232,9.76141 0.760972,0.5258 1.437403,1.03213 1.503176,1.12515 0.06578,0.093 0.120715,0.99319 0.122082,2.00037 0.0017,1.3636 -0.04946,1.82841 -0.200976,1.82017 -0.111906,-0.006 -1.527107,-1.01325 -3.144884,-2.23817 z m 2.473838,-9.91824 c -1.226713,-3.79739 -1.567115,-6.26539 -1.567115,-11.36201 0,-5.22942 0.176617,-9.51482 0.391931,-9.50981 0.257541,0.006 1.630227,2.06904 4.809184,7.22788 3.264559,5.29776 5.465635,9.50116 5.14409,9.82366 -0.06422,0.0644 -1.850493,0.15376 -3.969479,0.19852 l -3.85271,0.0814 -0.04474,2.6451 c -0.02501,1.47997 -0.111061,2.6451 -0.195318,2.6451 -0.08282,0 -0.404964,-0.78742 -0.715862,-1.74983 z m 14.683546,-3.81396 c -0.26456,-0.20961 -0.949772,-3.28183 -0.949772,-4.25842 0,-0.75881 0.216276,-0.62917 3.462702,2.07552 1.50001,1.24971 2.10117,1.92781 1.88306,2.12407 -0.0306,0.0275 -0.97117,0.10029 -2.09026,0.16177 -1.574597,0.0865 -2.095974,0.0632 -2.30573,-0.10294 z m -29.662323,-3.7551 c -3.046555,-3.61909 -7.032706,-9.32693 -8.062189,-11.54444 -1.029315,-2.21712 -1.168247,-3.51122 -0.818319,-7.62237 0.09525,-1.11908 0.223961,-4.04816 0.286028,-6.50905 0.09874,-3.91506 0.1454,-4.48059 0.373258,-4.52424 0.453114,-0.0868 2.776755,1.60387 4.303957,3.13157 2.981593,2.98252 6.407398,8.39761 7.183636,11.35499 0.170916,0.65117 0.263126,1.61476 0.253667,2.65081 -0.01928,2.11086 -0.944681,12.09995 -1.259691,13.59743 -0.13363,0.63526 -0.242963,1.18686 -0.242963,1.22578 0,0.0389 -0.107071,0.0707 -0.237927,0.0707 -0.130863,0 -0.931615,-0.82405 -1.779457,-1.83122 z m 232.832923,1.76048 c 0,-0.0389 -0.10933,-0.59052 -0.24297,-1.22578 -0.315,-1.49748 -1.24039,-11.48657 -1.25968,-13.59743 -0.009,-1.03605 0.0827,-1.99964 0.25367,-2.65081 0.77624,-2.95738 4.20204,-8.37247 7.18363,-11.35499 1.52721,-1.5277 3.85085,-3.21838 4.30396,-3.13157 0.22786,0.0436 0.27452,0.60918 0.37326,4.52424 0.0621,2.46089 0.19078,5.38997 0.28603,6.50905 0.34992,4.11115 0.21099,5.40525 -0.81832,7.62237 -1.38894,2.99176 -9.0293,13.37566 -9.84164,13.37566 -0.13086,0 -0.23794,-0.0318 -0.23794,-0.0707 z M 35.355575,948.03135 c -1.357803,-0.43448 -2.223429,-0.86956 -4.671312,-2.34793 -4.083028,-2.46588 -7.3701,-4.83218 -10.456108,-7.5271 -1.805774,-1.57695 -3.845064,-3.76881 -4.188245,-4.50157 -0.361085,-0.77102 0.49992,-1.0683 5.010823,-1.73013 6.78794,-0.99591 8.087168,-1.12685 11.312892,-1.14009 2.818961,-0.0116 3.338038,0.0293 4.639099,0.36522 3.50127,0.904 6.996115,3.12753 12.615093,8.02606 2.922712,2.54797 3.816625,3.46075 3.696311,3.77429 -0.09405,0.24509 -3.248993,1.53849 -5.568227,2.28275 -1.655396,0.53123 -6.363572,1.86955 -9.13482,2.59663 l -2.135475,0.56025 z m 298.386745,-0.11896 c -2.79733,-0.73876 -7.49508,-2.06917 -9.19681,-2.60459 -2.43359,-0.76566 -5.71173,-2.09539 -5.81239,-2.3577 -0.12032,-0.31354 0.77359,-1.22632 3.69631,-3.77429 5.61897,-4.89853 9.11382,-7.12206 12.61509,-8.02606 1.30106,-0.33594 1.82014,-0.3768 4.6391,-0.36522 3.22572,0.0132 4.52494,0.14418 11.31289,1.14009 4.5109,0.66183 5.37192,0.95911 5.01083,1.73013 -0.34318,0.73276 -2.38247,2.92462 -4.18824,4.50157 -4.93893,4.31304 -12.36577,9.11166 -15.47238,9.997 -0.7711,0.21974 -0.90797,0.20708 -2.6044,-0.24093 z M 51.318074,930.24247 c -1.490111,-1.74613 -2.302834,-3.03441 -2.680705,-4.24931 -0.405542,-1.30387 -0.403903,-1.36454 0.09509,-3.52322 1.19847,-5.18466 1.23147,-5.40397 1.224896,-8.13877 -0.0033,-1.43243 -0.118897,-3.88158 -0.256562,-5.44256 -0.146451,-1.66067 -0.190122,-2.89833 -0.105259,-2.9832 0.08486,-0.0849 0.305284,0.0781 0.531291,0.39274 1.230926,1.71375 4.627604,8.03601 5.583855,10.39326 1.484086,3.6584 1.337713,7.9625 -0.397083,11.67632 -0.669201,1.43261 -2.093411,3.13625 -2.62184,3.13625 -0.169493,0 -0.759594,-0.54191 -1.373681,-1.26151 z M 318.209,930.6059 c -0.93477,-0.98838 -1.93786,-2.93351 -2.34894,-4.5549 -0.84826,-3.34577 -0.68827,-6.48829 0.4765,-9.35959 0.95626,-2.35725 4.35294,-8.67951 5.58387,-10.39326 0.22599,-0.31466 0.44643,-0.4776 0.53128,-0.39274 0.0849,0.0849 0.0412,1.32253 -0.10525,2.9832 -0.13768,1.56098 -0.25312,4.01013 -0.25657,5.44256 -0.007,2.7348 0.0265,2.95411 1.2249,8.13877 0.22764,0.98479 0.41456,1.94762 0.41536,2.13963 0.003,0.6958 -0.65631,2.43985 -1.28323,3.39474 -0.9759,1.48648 -2.75426,3.49967 -3.09143,3.49967 -0.16342,0 -0.67934,-0.40414 -1.14649,-0.89808 z M 23.899303,925.63635 c -1.567159,-0.18917 -2.535699,-0.44031 -3.413542,-0.88514 -1.231899,-0.62427 -3.101512,-2.21906 -5.125001,-4.37167 -2.148466,-2.28557 -6.153114,-7.22496 -6.06704,-7.48319 0.2498502,-0.74955 3.911531,-0.65938 11.268687,0.27748 6.877318,0.87577 7.075362,0.91413 8.652531,1.67623 2.979173,1.43952 9.496928,7.72515 9.496928,9.15866 0,0.42323 -0.646654,0.64054 -3.162773,1.06284 -4.216596,0.70772 -8.67489,0.92387 -11.64979,0.56479 z m 316.435417,-0.003 c -2.13167,-0.2342 -6.07199,-0.92139 -6.56105,-1.14421 -0.24105,-0.10985 -0.43829,-0.3261 -0.43829,-0.48058 0,-1.43352 6.51775,-7.71914 9.49693,-9.15866 1.57717,-0.7621 1.7752,-0.80046 8.65253,-1.67623 7.35716,-0.93687 11.01884,-1.02703 11.26868,-0.27748 0.0861,0.25822 -3.91858,5.19761 -6.06703,7.48319 -3.05443,3.24934 -4.85491,4.53709 -7.03208,5.02958 -1.34328,0.30385 -7.29273,0.4471 -9.31969,0.22439 z M 39.250071,913.96493 c -0.336178,-0.51478 -1.070919,-1.84365 -1.632754,-2.95304 -1.37661,-2.71823 -1.374332,-2.82934 0.124454,-6.07878 1.865959,-4.04548 3.792389,-7.69336 4.062828,-7.69336 0.472599,0 2.576302,4.94578 3.098357,7.2842 0.290985,1.30337 0.06418,2.17341 -1.287062,4.93738 -1.5721,3.21571 -3.020902,5.43955 -3.543807,5.43955 -0.115935,0 -0.485842,-0.42118 -0.822016,-0.93595 z m 292.178899,0.56971 c -1.10924,-1.21123 -3.9454,-6.62494 -4.29939,-8.20673 -0.24159,-1.07956 -0.0687,-1.94266 0.94002,-4.69323 0.91214,-2.48722 1.85541,-4.39493 2.17305,-4.39493 0.27043,0 2.19686,3.64788 4.06282,7.69336 1.49879,3.24944 1.50107,3.36055 0.12446,6.07878 -1.19946,2.36843 -2.15926,3.88899 -2.45477,3.88899 -0.11593,0 -0.36172,-0.16481 -0.54619,-0.36624 z M 17.801898,905.77406 c -3.472566,-0.35714 -5.050128,-1.15894 -6.970098,-3.54252 -0.906879,-1.12588 -4.32341,-6.17104 -5.4037943,-7.97975 -0.6653352,-1.11385 -0.609669,-1.40386 0.2404502,-1.25264 0.2238162,0.0398 0.7365584,0.11932 1.1394278,0.17668 1.9258186,0.27417 7.0229233,1.76463 9.1154233,2.66548 3.292784,1.41758 6.408236,4.00721 9.101168,7.56507 1.55076,2.04884 1.106118,2.40618 -3.078477,2.47407 -1.477187,0.024 -3.342032,-0.0239 -4.1441,-0.10639 z m 329.836832,0.0207 c -1.71607,-0.31768 -1.8348,-0.77809 -0.61595,-2.38842 2.69292,-3.55786 5.80837,-6.14749 9.10116,-7.56507 2.09249,-0.90084 7.18961,-2.39131 9.11542,-2.66547 0.40287,-0.0574 0.91561,-0.13687 1.13943,-0.17668 0.85013,-0.15122 0.90578,0.13878 0.24045,1.25264 -1.08039,1.80871 -4.49691,6.85387 -5.4038,7.97974 -1.60969,1.99839 -3.07351,2.90246 -5.38212,3.32405 -1.4949,0.27299 -7.12444,0.43733 -8.19459,0.23921 z M 28.218619,896.38518 c -1.745724,-2.38007 -2.23962,-4.48787 -1.56897,-6.69583 0.498067,-1.63977 3.458337,-7.36393 3.830814,-7.40749 0.212282,-0.0248 1.052285,2.36192 1.340128,3.80777 0.366804,1.84247 0.110315,4.70361 -0.627461,6.99934 -0.579593,1.80352 -1.834914,4.06939 -2.254492,4.06939 -0.0841,0 -0.408109,-0.34793 -0.720019,-0.77318 z m 314.339791,0.24416 c -1.8378,-2.44725 -2.94578,-7.45543 -2.33175,-10.53971 0.28798,-1.44658 1.10464,-3.76747 1.33038,-3.78087 0.3597,-0.0214 3.32058,5.66871 3.84055,7.38059 0.51325,1.68972 0.39078,3.12717 -0.40196,4.71848 -0.6503,1.30536 -1.64178,2.75053 -1.88702,2.75053 -0.0841,0 -0.33169,-0.23806 -0.5502,-0.52902 z m -328.995346,-7.1979 c -4.3270675,-1.00823 -7.2032277,-2.52744 -9.1688825,-4.84307 -1.004007,-1.18276 -2.5405287,-4.19046 -3.2783981,-6.41736 -0.5942864,-1.79357 -0.63184177,-2.33623 -0.1616783,-2.33623 0.4666934,0 2.8029034,0.92263 6.4854108,2.56127 l 3.1546511,1.40376 1.50702,2.29033 c 0.828861,1.25969 2.247665,3.37881 3.152897,4.70914 0.905232,1.33035 1.645876,2.55727 1.645876,2.72649 0,0.26412 -0.121043,0.30609 -0.854571,0.29633 -0.470014,-0.006 -1.587061,-0.18204 -2.482325,-0.39066 z m 341.584226,0.0943 c 0,-0.16922 0.74064,-1.39614 1.64587,-2.72649 0.90524,-1.33033 2.32404,-3.44945 3.15289,-4.70914 l 1.50703,-2.29033 3.15465,-1.40376 c 3.68251,-1.63864 6.01872,-2.56127 6.48541,-2.56127 0.47016,0 0.43261,0.54266 -0.16168,2.33623 -0.73787,2.2269 -2.27438,5.2346 -3.2784,6.41736 -1.98487,2.33827 -4.87761,3.85574 -9.25027,4.85253 -2.16219,0.4929 -3.2555,0.5214 -3.2555,0.0849 z M 18.878212,881.89816 c -0.922053,-1.58168 -1.099284,-2.27731 -0.856555,-3.36193 0.373257,-1.6679 2.57629,-6.77084 2.923093,-6.77084 0.242234,0 0.79793,1.85888 1.014404,3.39332 0.278485,1.97399 0.137706,3.08672 -0.641577,5.07101 -0.775986,1.97589 -1.221927,2.76718 -1.559474,2.76718 -0.131658,0 -0.527608,-0.49443 -0.879891,-1.09874 z m 332.847128,0.56972 c -0.65149,-1.06231 -1.66585,-3.9343 -1.7479,-4.94893 -0.14052,-1.73745 0.64479,-5.75356 1.12505,-5.75356 0.18231,0 1.53705,2.80311 2.25168,4.659 0.73869,1.91835 0.90763,2.85854 0.66176,3.68298 -0.28778,0.96503 -1.43788,2.88953 -1.72678,2.88953 -0.13166,0 -0.38538,-0.23806 -0.56381,-0.52902 z M 8.0286994,867.82564 c -0.6563559,-0.37385 -2.5032596,-2.12144 -3.8382086,-3.63181 -1.7292237,-1.95647 -2.8369642,-3.59577 -3.156196,-4.67074 -0.42591628,-1.43422 -1.2397206,-10.12859 -0.98641193,-10.53846 0.08577336,-0.13878 0.2092866,-0.11013 0.44695146,0.10369 0.83337447,0.74973 5.63515147,6.88636 6.71451377,8.58109 0.6925441,1.08738 1.6073294,3.43706 1.9600406,5.03447 0.3679377,1.66638 0.2856711,3.87762 -0.1735152,4.66386 -0.3724381,0.6377 -0.524827,0.70985 -0.9671741,0.4579 z M 363.20278,867.63459 c -0.62872,-0.95956 -0.75417,-3.03317 -0.30452,-5.03388 0.34144,-1.51926 1.26988,-3.8797 1.93963,-4.9313 1.07937,-1.69473 5.88114,-7.83136 6.71452,-8.58109 0.23767,-0.21382 0.36118,-0.24247 0.44695,-0.10369 0.25331,0.40987 -0.5605,9.10424 -0.9864,10.53846 -0.13688,0.46091 -0.59464,1.35147 -1.01724,1.97902 -1.68533,2.50267 -5.65996,6.51945 -6.45104,6.51945 -0.0486,0 -0.20244,-0.17414 -0.3419,-0.38697 z"
       style="fill:#ffffff"
       sodipodi:nodetypes="cssssssccsscccssscsssssssssscscsssssscsscsscsscccssscsscssscsscccccsccsscsscscscscsscccssscsssccccsssscsscsscsscsccsssssssssscsssssssssssssssccssssssscssssccsscssssssssssssssssssssssssssssscccscscscsccscccsscscsssssssssssssccsscsssssssscssssssscssscsscscsssssscscsssssssscsccscsssscsssssssscscssssssssssssssssssssssssccsscsssscssssssscsssscscscsccsssscsssccscscssssssssssssssssscsscssscsssccssccsssc" />
    <text
       xml:space="preserve"
       style="font-size:2.77875042000000017px;font-style:normal;font-variant:normal;font-weight:bold;font-stretch:normal;line-height:125%;letter-spacing:0px;word-spacing:0px;fill:#ffffff;fill-opacity:1;stroke:none;font-family:FifthLeg;-inkscape-font-specification:Sans Bold"
       x="27.899351"
       y="1040.0154"
       id="text3131"
       sodipodi:linespacing="125%"><tspan
         sodipodi:role="line"
         id="tspan3133"
         x="27.899351"
         y="1040.0154"
         style="font-size:27.78750420000000076px;fill:#ffffff">conference.opensuse.org</tspan></text>
    <path
       inkscape:connector-curvature="0"
       id="path3124"
       d="m 246.86758,976.23128 c 12.42929,-0.7927 21.59508,-2.9207 30.13621,-6.99664 9.86394,-4.7072 17.7156,-12.44076 21.49961,-21.17619 4.237,-9.78111 5.19703,-22.8463 2.33033,-31.71387 -1.19049,-3.68259 -3.2276,-7.74137 -5.32549,-10.61068 -2.96708,-4.05808 -6.50155,-7.25234 -12.31883,-11.133 -1.47896,-0.9866 -2.74754,-1.88302 -2.81908,-1.99201 -0.0716,-0.10902 -0.13129,-0.58457 -0.13277,-1.05681 -0.003,-0.99774 -0.0873,-0.90153 3.41151,-3.89728 2.84522,-2.43606 5.62201,-5.15716 6.88928,-6.75112 4.11978,-5.18173 6.97598,-11.17141 8.09627,-16.97842 1.08617,-5.63031 0.90095,-13.66777 -0.4553,-19.75544 -1.5569,-6.98843 -4.78548,-13.2836 -9.13772,-17.81699 -0.78281,-0.81537 -1.6921,-1.64866 -2.02065,-1.85171 l -0.59739,-0.3692 -2.25347,0.63679 c -2.54605,0.71946 -5.56495,1.35451 -8.65287,1.82016 -3.01539,0.45473 -12.73367,0.45935 -15.52865,0.008 -11.16525,-1.80547 -19.38945,-6.45034 -25.46202,-14.38049 -0.67103,-0.8763 -1.39587,-1.69168 -1.61076,-1.81196 -1.34528,-0.75295 -16.18398,0.64883 -18.88348,1.7839 -0.27824,0.11699 -1.04887,0.91716 -1.73457,1.80108 -3.21117,4.13946 -7.78092,7.61578 -12.77452,9.71792 -4.70016,1.97864 -11.08916,3.28487 -16.11066,3.29383 -0.83505,0.002 -1.63775,0.0783 -1.78381,0.17055 -0.23288,0.14721 -0.27128,2.50987 -0.31216,19.20512 l -0.0465,19.03729 20.5379,0 20.53791,0 1.4e-4,-2.25715 c 0,-6.5375 1.08219,-10.31997 3.7001,-12.93789 2.75674,-2.75673 7.42109,-4.09741 12.48284,-3.58799 3.89812,0.39233 6.30416,1.40072 8.4446,3.5392 1.6006,1.59917 2.45348,3.1504 3.11835,5.67181 0.61104,2.31715 0.78073,7.49359 0.32028,9.76979 -0.57447,2.83981 -2.10278,5.64224 -3.93322,7.21236 -0.89052,0.76385 -2.70633,1.78637 -3.78171,2.12952 -2.33957,0.74656 -2.84101,0.78311 -12.20797,0.88981 l -9.11708,0.10387 -0.0487,15.13612 c -0.0267,8.32487 -0.007,15.31084 0.0451,15.52437 l 0.0937,0.38822 9.24902,0.062 c 8.88572,0.0595 9.30378,0.0772 10.64369,0.45122 5.04635,1.40857 8.0893,4.913 9.05009,10.42261 0.34276,1.96556 0.34544,7.28632 0.004,9.84443 -0.95415,7.16846 -3.99687,10.66003 -10.23594,11.74587 -2.26468,0.39414 -6.71755,0.25752 -8.71124,-0.26729 -3.48527,-0.91745 -6.01705,-2.89231 -7.34738,-5.7311 -1.2781,-2.72743 -1.45099,-3.78246 -1.57328,-9.60107 l -0.10789,-5.13389 -20.52597,-0.045 c -11.28928,-0.0247 -20.57517,0.015 -20.63531,0.0885 -0.0601,0.0734 -0.0758,9.90249 -0.0348,21.84235 l 0.0745,21.70883 2.59216,1.50865 c 5.86828,3.41537 9.39711,5.02421 15.4269,7.03329 4.69943,1.56582 10.10342,2.77889 17.26049,3.87454 5.73255,0.87758 7.38293,1.05747 13.71988,1.4954 2.06634,0.1428 14.04062,0.0968 16.5554,-0.0635 z M 172.64949,956.8056 c 0.0598,-9.48189 0.0385,-16.84179 -0.0488,-16.93038 -0.0877,-0.0889 -3.7975,-0.12127 -8.57014,-0.0748 -5.63108,0.0548 -8.47576,0.0216 -8.59744,-0.1 -0.12364,-0.12364 -0.18858,-18.71801 -0.2028,-58.07976 -0.0115,-31.84383 -0.0712,-58.12259 -0.13278,-58.39722 -0.0998,-0.4458 -0.31062,-0.57426 -1.96593,-1.19821 -2.68702,-1.01285 -5.59429,-2.46227 -6.85538,-3.41776 -1.39875,-1.0598 -2.40149,-2.54551 -2.82341,-4.18329 -0.27134,-1.05329 -0.39136,-1.26824 -0.76748,-1.37443 -0.57617,-0.16264 -5.08825,-0.16094 -5.67369,0.002 -0.26353,0.0734 -0.7847,0.58302 -1.26568,1.23761 -4.12423,5.6129 -10.90838,9.74673 -18.94362,11.543 -7.37107,1.64781 -15.52678,1.67815 -22.9492,0.0854 -3.693527,-0.79261 -8.312661,-2.57493 -11.167254,-4.30903 -1.227972,-0.74594 -1.584363,-0.76807 -4.212722,-0.26163 -2.751063,0.53007 -8.039121,1.73073 -8.506459,1.93138 l -0.39832,0.17103 0,11.41182 c 0,8.26135 0.05495,11.44582 0.199133,11.53491 0.109521,0.0677 5.890763,0.10713 12.847209,0.0877 9.541112,-0.0267 12.71023,0.0161 12.901132,0.1746 0.218233,0.18112 0.252688,6.5851 0.25036,46.52613 -0.0011,25.47387 -0.06123,46.40079 -0.132771,46.50429 -0.08886,0.12857 -3.204544,0.19455 -9.839028,0.20831 -5.339923,0.0112 -9.751305,0.0625 -9.803061,0.11425 -0.141145,0.14115 -0.197295,16.4335 -0.08807,25.55704 l 0.09589,8.01065 48.272351,0 48.27234,0 0.10571,-16.77366 z"
       style="fill:#ffffff"
       sodipodi:nodetypes="csssssccsssssscsscsccssccsccccssscsssscsccscscsssscscscssssccccscscsssccsssssccscscccccsccccc" />
    <path
       sodipodi:nodetypes="ssssssssssssccscsscsssccccssssssscssccccccsssssssssscssccscccccssscccsscccccscssccsssscccccssssssssscc"
       style="fill:#ffffff"
       d="m 112.87752,817.04839 c 6.15082,-0.97684 11.48696,-2.977 15.52425,-5.81898 2.97236,-2.09234 5.9419,-5.44626 7.96948,-9.00107 3.01772,-5.29071 4.54057,-12.82407 4.23553,-20.95253 -0.46117,-12.28857 -4.61684,-20.79374 -13.00333,-26.61323 -3.8677,-2.68386 -9.30343,-4.58424 -15.61108,-5.45782 -3.10032,-0.42937 -10.70809,-0.42937 -13.808389,0 -8.506476,1.1781 -14.923525,4.06512 -19.738637,8.88039 -2.223983,2.22404 -3.708083,4.31865 -5.142482,7.25791 -1.83857,3.76744 -2.742088,6.87352 -3.372964,11.59551 -0.355834,2.66333 -0.403058,9.08833 -0.08718,11.86105 1.337504,11.74037 6.705872,20.15159 15.755167,24.68545 4.012954,2.01055 8.51457,3.21439 14.533425,3.88653 0.34079,0.0381 2.92985,0.0473 5.75349,0.0207 3.72623,-0.0353 5.64358,-0.12955 6.99272,-0.34381 z m -9.648,-20.47186 c -1.47572,-0.24654 -3.09722,-1.18446 -3.760426,-2.17516 -1.164903,-1.74012 -1.175551,-1.83206 -1.243622,-10.72614 -0.06917,-9.03842 0.0087,-9.87237 1.076374,-11.46935 0.610337,-0.91326 1.883804,-1.86555 2.922444,-2.18544 1.03063,-0.31742 3.85303,-0.41228 4.97037,-0.16705 2.53049,0.55538 4.02424,2.07865 4.63181,4.72339 0.26239,1.14223 0.22792,16.03628 -0.0401,17.30111 -0.77579,3.66173 -4.03869,5.45341 -8.55688,4.69864 z m 85.50565,20.48749 c 8.56542,-1.3196 14.58153,-4.1263 19.57011,-9.13009 3.57244,-3.58333 6.07718,-7.76593 7.86121,-13.12723 2.19666,-6.60121 3.04946,-13.25224 2.88082,-22.46686 -0.13189,-7.20609 -0.76348,-11.51156 -2.41576,-16.46793 -2.18631,-6.55831 -4.96833,-11.15648 -9.48171,-15.67143 -4.05475,-4.05616 -9.16007,-7.37407 -18.59169,-12.08257 -7.10604,-3.54751 -8.22342,-4.28668 -8.96048,-5.92757 -0.58726,-1.30736 -0.58876,-4.32794 -0.003,-5.82678 0.8976,-2.2963 3.50572,-3.50492 7.11279,-3.29611 2.56039,0.14822 4.64813,1.60449 5.49312,3.83166 0.20861,0.54985 0.46724,1.81627 0.57473,2.81428 l 0.19542,1.81456 12.00037,0 12.00036,0 0,-15.22627 0,-15.22627 -1.54333,-1.14118 c -6.96232,-5.14817 -17.19156,-8.65852 -27.66679,-9.49433 -3.13362,-0.25003 -9.47803,-0.10865 -12.56918,0.28012 -13.15296,1.65417 -21.66781,6.86703 -26.4393,16.18633 -2.93099,5.72458 -4.25233,11.46537 -4.7307,20.55335 -0.43239,8.21414 0.45508,16.37065 2.43028,22.33636 2.54485,7.68621 7.05506,13.63365 14.74078,19.43808 1.81525,1.37096 7.46677,4.93231 11.78606,7.42713 1.7526,1.0123 3.91684,2.26375 4.80943,2.78102 3.56301,2.06479 5.67809,4.0564 6.45698,6.08004 0.50928,1.32317 0.50318,3.68736 -0.0138,5.33805 -0.4927,1.57315 -1.5871,2.80797 -2.98392,3.36679 -0.89808,0.35928 -1.31555,0.40467 -3.75441,0.40823 -2.49325,0.003 -2.82487,-0.0332 -3.62913,-0.40307 -1.14394,-0.52604 -2.09962,-1.46683 -2.54737,-2.50765 -0.43537,-1.01207 -0.86173,-3.28436 -1.00597,-5.36146 l -0.10757,-1.54903 -12.64181,0 -12.64179,0 0,16.7225 0,16.72252 0.39831,0.37242 c 0.54488,0.50944 4.52364,2.44264 7.21401,3.50517 6.85571,2.70752 14.46797,4.48534 22.0961,5.16044 2.71673,0.24043 12.03188,0.0865 14.10668,-0.23322 z m 87.10468,-0.0851 c 7.65335,-1.18721 14.393,-3.49706 19.47037,-6.67302 1.61073,-1.00753 5.78679,-4.10127 6.68037,-4.94898 l 0.48679,-0.46186 0,-21.94574 0,-21.94571 -13.84358,0.0453 -13.8436,0.0454 0.0484,7.4353 c 0.0296,4.59701 -0.0278,8.17865 -0.15092,9.38263 -0.57633,5.6393 -2.23773,8.28142 -5.78914,9.20645 -3.2402,0.84395 -6.61466,-0.37619 -8.14684,-2.94577 -0.70285,-1.17873 -1.37052,-3.45684 -1.62734,-5.55256 -0.26547,-2.16621 -0.27503,-57.2627 -0.01,-59.39845 0.65973,-5.32279 2.8534,-8.19043 6.61161,-8.64288 2.6049,-0.31361 4.7249,0.35709 6.26026,1.98054 1.0618,1.12267 1.68393,2.28986 2.15628,4.04528 0.58021,2.15626 0.71868,4.41741 0.71868,11.7329 l 0,7.00078 13.76417,-0.0453 13.7641,-0.0454 0.0447,-21.19092 0.0447,-21.19093 -1.37271,-1.03753 c -1.87986,-1.42088 -5.28004,-3.77108 -6.72678,-4.64962 -4.36324,-2.64951 -11.63237,-5.18601 -17.69828,-6.17563 -4.80152,-0.78334 -12.14689,-0.91444 -16.42549,-0.29316 -12.19692,1.77107 -21.08158,7.54591 -27.11922,17.62689 -4.39286,7.33468 -7.67933,17.969 -9.16394,29.65265 -1.38201,10.87612 -1.55817,25.51605 -0.45163,37.53051 2.0899,22.69133 9.26099,38.32588 21.10529,46.01419 4.43088,2.87615 10.30826,4.8943 16.56072,5.68655 2.92136,0.37018 11.6346,0.22634 14.65304,-0.24189 z"
       id="path3348"
       inkscape:connector-curvature="0" />
    <path
       id="path3327"
       style="fill:#000000;fill-opacity:1;fill-rule:evenodd;stroke:none"
       d="m 170.04176,854.77832 0.29574,-0.0278 0.048,-0.3502 c -0.0758,-0.27495 -0.25407,-0.52204 -0.52961,-3.93071 -0.23385,-3.01679 -0.70794,-11.28983 3.4561,-15.39238 1.61537,-1.60108 4.08179,-3.02369 6.02713,-3.48387 7.97784,-1.94478 18.33344,-0.59796 27.17708,9.62745 4.56328,5.284 6.80338,7.69597 7.92338,8.77487 l 0.3844,0.35718 0.46762,0.33685 c 0.36406,0.20608 15.19965,7.03659 15.19965,7.03659 l 0.30218,-0.0758 0.009,-0.32243 c -0.0961,-0.10993 -9.40002,-12.12908 -7.75141,-22.03082 1.30575,-7.88863 7.586,-7.18084 16.26531,-6.19157 2.83792,0.32296 6.0677,0.69404 9.40747,0.76979 9.32415,0.0551 19.37122,-1.65594 25.56281,-4.36365 4.006,-1.75204 6.56208,-2.90681 8.16357,-4.36365 0.5765,-0.47405 0.87871,-1.25719 1.18833,-2.08201 l 0.21354,-0.55629 c 0.26052,-0.66681 0.63849,-2.09589 0.80403,-2.87259 0.0758,-0.34329 0.10993,-0.7148 -0.13136,-0.9 l -0.85848,0.1579 c -2.71405,1.62871 -9.51101,4.73472 -15.87344,4.85851 -7.88176,0.16451 -23.76898,-7.93028 -25.42504,-8.78931 l -0.15812,-0.18529 c -0.39925,-0.94869 -2.78346,-6.59031 -3.28527,-7.77866 11.43502,7.53101 20.91716,11.69558 28.18072,12.34149 8.08139,0.72127 14.38293,-3.68994 17.07665,-5.57341 0.52852,-0.35717 0.9278,-0.64591 1.09224,-0.70737 l 0.17191,-0.28187 c -0.44738,-2.83792 -4.67329,-16.58127 -7.86141,-19.87993 -0.88613,-0.90702 -1.59406,-1.78625 -3.02366,-2.62492 -11.55138,-6.73401 -38.97617,-10.80244 -40.26062,-10.98766 l -0.21995,0.062 -0.0823,0.19229 c 0,0 -0.10354,5.68976 -0.11757,6.32234 -2.80379,-0.93478 -23.16359,-7.51122 -42.25404,-8.17747 -16.18187,-0.57028 -38.28846,-1.3401 -69.52708,17.85925 l -0.92092,0.57705 c -14.69145,9.16672 -24.834091,20.464 -30.138864,33.60252 -1.662954,4.12978 -3.902932,13.45503 -1.690728,22.22989 0.962015,3.8416 2.741828,7.68956 5.14735,11.1393 5.421785,7.79207 14.526512,12.9672 24.332272,13.83946 13.83944,1.23641 24.3258,-4.98184 28.05687,-16.62294 2.56296,-8.03283 0,-19.8175 -9.82657,-25.8302 -7.99171,-4.89961 -16.59515,-3.77962 -21.57706,-0.48795 -4.329,2.87212 -6.78196,7.32489 -6.73398,12.22461 0.0961,8.67877 7.57955,13.2965 12.95332,13.30348 1.5663,0 3.13312,-0.26795 4.90605,-0.845 0.6257,-0.1927 1.22312,-0.42596 1.87591,-0.83171 l 0.19971,-0.13011 0.1301,-0.0758 -0.048,0.0208 c 1.22998,-0.82481 1.97203,-2.18501 1.97203,-3.64194 0,-0.39875 -0.062,-0.80403 -0.17192,-1.20966 -0.63204,-2.19198 -2.80381,-3.52498 -5.05769,-3.1129 l -0.3022,0.062 -0.41218,0.13712 -0.59794,0.19969 c -1.23687,0.30911 -2.17165,0.32998 -2.36386,0.33634 -0.63205,-0.0412 -3.73159,-0.96835 -3.73159,-4.36312 l 0,-0.0412 c 0.009,-1.2439 0.50871,-2.11668 0.78366,-2.59074 0.95503,-1.51183 3.59386,-2.99594 7.15994,-2.67996 4.67329,0.3983 8.04027,2.79682 10.27339,7.31848 2.07554,4.20512 1.53271,9.37279 -1.39498,13.16575 -2.9068,3.75939 -8.08083,5.35343 -14.96644,4.60385 -6.9405,-0.76239 -12.80856,-4.75496 -16.09335,-10.97374 -3.21585,-6.0747 -3.39476,-13.28319 -0.46019,-18.82128 7.02975,-13.26242 20.29848,-13.1252 27.57593,-11.86744 10.77468,1.86205 20.55309,10.4858 24.90286,21.95507 0.69403,1.8279 1.05113,3.27777 1.36021,4.59695 l 0.46761,1.98592 12.16908,5.94381 0.16553,0.11695 3.3e-4,-1.2e-4 z m 86.50036,-64.73104 c -2.29447,2.12998 -3.60776,5.03679 -3.71775,8.17047 -0.21242,6.45899 4.85904,11.90155 11.31761,12.14241 3.14756,0.1031 6.12957,-1.00368 8.41767,-3.14757 2.2881,-2.13701 3.6013,-5.0368 3.71773,-8.16358 0.21998,-6.466 -4.8516,-11.91544 -11.32393,-12.14877 -3.13368,-0.10299 -6.12324,1.00313 -8.41133,3.14704 m 8.04152,16.80129 c -4.59533,-0.16881 -8.2025,-4.04252 -8.04902,-8.64443 0.0708,-2.22801 1.02317,-4.2874 2.64161,-5.80787 1.62503,-1.52005 3.74749,-2.31126 5.97549,-2.22745 4.60191,0.161 8.21009,4.02835 8.05549,8.63729 -0.0696,2.22098 -1.00899,4.28024 -2.63404,5.80732 -1.63261,1.51346 -3.75507,2.30479 -5.98965,2.23514 l 1.2e-4,0 z m 1.9341,-7.55919 c 2.0452,0 3.70502,-1.10643 3.70502,-2.46528 0,-1.36603 -1.65992,-2.47302 -3.70502,-2.47302 -2.04623,0 -3.69957,1.10699 -3.69957,2.47302 0,1.35885 1.65334,2.46528 3.69957,2.46528"
       inkscape:connector-curvature="0" />
  </g>
</svg>
