<?xml version="1.0" encoding="UTF-8" standalone="no"?>
<svg
   width="256"
   height="256"
   preserveAspectRatio="xMidYMid"
   version="1.1"
   viewBox="0 0 256.00002 256.00001"
   id="svg867"
   sodipodi:docname="Aeon-vertical-with-label.svg"
   inkscape:version="1.4 (e7c3feb100, 2024-10-09)"
   xmlns:inkscape="http://www.inkscape.org/namespaces/inkscape"
   xmlns:sodipodi="http://sodipodi.sourceforge.net/DTD/sodipodi-0.dtd"
   xmlns="http://www.w3.org/2000/svg"
   xmlns:svg="http://www.w3.org/2000/svg"
   xmlns:rdf="http://www.w3.org/1999/02/22-rdf-syntax-ns#"
   xmlns:cc="http://creativecommons.org/ns#"
   xmlns:dc="http://purl.org/dc/elements/1.1/">
  <metadata
     id="metadata873">
    <rdf:RDF>
      <cc:Work
         rdf:about="">
        <dc:format>image/svg+xml</dc:format>
        <dc:type
           rdf:resource="http://purl.org/dc/dcmitype/StillImage" />
      </cc:Work>
    </rdf:RDF>
  </metadata>
  <defs
     id="defs871">
    <rect
       x="92.38002"
       y="181.07281"
       width="96.628067"
       height="56.284878"
       id="rect423" />
  </defs>
  <sodipodi:namedview
     pagecolor="#ffffff"
     bordercolor="#666666"
     borderopacity="0"
     objecttolerance="10"
     gridtolerance="10"
     guidetolerance="10"
     inkscape:pageopacity="0"
     inkscape:pageshadow="2"
     inkscape:window-width="1920"
     inkscape:window-height="1131"
     id="namedview869"
     showgrid="true"
     units="mm"
     inkscape:zoom="1.0692535"
     inkscape:cx="183.30546"
     inkscape:cy="113.16306"
     inkscape:window-x="0"
     inkscape:window-y="0"
     inkscape:window-maximized="1"
     inkscape:current-layer="svg867"
     inkscape:document-rotation="0"
     inkscape:showpageshadow="2"
     inkscape:pagecheckerboard="0"
     inkscape:deskcolor="#d1d1d1"
     inkscape:document-units="px">
    <inkscape:grid
       type="xygrid"
       id="grid900"
       originx="0"
       originy="0"
       spacingy="1"
       spacingx="1"
       units="mm" />
  </sodipodi:namedview>
  <path
     d="m 79.183711,10.765078 a 5.5681368,5.5681368 0 0 0 -5.567576,5.567572 v 33.405477 c 0,22.565401 13.836539,41.379359 33.209485,50.10823 -19.370152,8.729953 -33.209485,27.544483 -33.209485,50.108213 v 33.40547 a 5.5681368,5.5681368 0 0 0 5.567576,5.56759 H 179.40015 a 5.5681368,5.5681368 0 0 0 5.56759,-5.56759 v -33.40547 c 0,-22.56707 -13.83489,-41.37993 -33.20951,-50.108213 19.37683,-8.727201 33.20951,-27.539472 33.20951,-50.10823 V 16.33265 a 5.5681368,5.5681368 0 0 0 -5.56759,-5.567572 z m 5.567572,11.135144 h 89.081287 v 27.837905 c 0,21.24812 -14.81256,38.928528 -34.62366,43.431585 a 5.5681368,5.5681368 0 0 0 -4.32791,5.480619 l 0.0217,2.479299 a 5.5681368,5.5681368 0 0 0 4.3279,5.39358 c 19.80277,4.50953 34.60196,22.18959 34.60196,43.43159 v 27.83788 H 84.751283 V 149.9548 c 0,-21.25036 14.809221,-38.93076 34.623667,-43.43159 a 5.5681368,5.5681368 0 0 0 4.3279,-5.41535 l 0.0217,-2.501071 a 5.5681368,5.5681368 0 0 0 -4.35007,-5.437077 C 99.558357,88.670558 84.751387,70.990147 84.751387,49.738127 Z m 27.837897,22.270333 a 5.5675801,5.5675801 0 0 0 -5.56757,5.567572 c 0,12.23365 10.03667,22.27033 22.27031,22.27033 12.23364,0 22.27033,-10.03668 22.27033,-22.27033 a 5.5675801,5.5675801 0 0 0 -5.56758,-5.567572 5.5675801,5.5675801 0 0 0 -5.56759,5.567572 c 0,6.215661 -4.91946,11.135165 -11.13516,11.135165 -6.21568,0 -11.13515,-4.919462 -11.13515,-11.135165 a 5.5675801,5.5675801 0 0 0 -5.56759,-5.567572 z m 16.70274,83.513705 c -12.23364,0 -22.27031,10.03668 -22.27031,22.27031 a 5.5675801,5.5675801 0 0 0 5.56757,5.56759 5.5675801,5.5675801 0 0 0 5.56759,-5.56759 c 0,-6.21564 4.91947,-11.13517 11.13515,-11.13517 6.2157,0 11.13516,4.91947 11.13516,11.13517 a 5.5675801,5.5675801 0 0 0 5.56759,5.56759 5.5675801,5.5675801 0 0 0 5.56758,-5.56759 c 0,-12.23365 -10.03669,-22.27031 -22.27033,-22.27031 z"
     color="#000000"
     fill="#9141ac"
     stroke-linecap="round"
     stroke-linejoin="round"
     stroke-width="11.1352"
     id="path863" />
  <path
     d="m 72.563858,203.89202 -14.833535,43.82799 h 5.679608 l 4.208254,-13.36218 h 15.96866 l 4.143113,13.36218 h 5.94701 L 78.843433,203.89202 h -6.279909 z m 2.874042,4.54432 h 0.267526 c 1.403023,5.07763 2.803902,9.88769 4.40735,14.76488 l 2.071484,6.68109 H 69.024335 l 2.068294,-6.68109 c 1.60347,-4.87719 3.009161,-9.68725 4.345376,-14.76488 z m 36.07792,6.0123 c -7.416,0 -14.56596,6.48101 -14.56596,17.10362 0,10.62294 6.88203,16.96996 15.56744,16.96996 4.40954,0 7.88438,-1.53665 10.69043,-3.34055 l -1.93785,-3.6081 c -2.40519,1.53664 -5.01048,2.53798 -8.0838,2.53798 -6.21341,0 -10.42333,-4.40921 -10.8242,-11.29072 h 21.91566 c 0.13366,-0.80173 0.19893,-2.00583 0.19893,-3.14161 0,-9.28671 -4.67645,-15.23141 -12.961,-15.23141 z m 33.60423,0 c -7.9505,0 -15.03246,6.21377 -15.03246,17.10362 0,10.75656 7.08196,16.96996 15.03246,16.96996 7.95052,0 15.03248,-6.21374 15.03248,-16.96996 0,-10.89018 -7.08196,-17.10362 -15.03248,-17.10362 z m 39.68574,0 c -4.47635,0 -7.81607,2.40403 -10.88937,5.47734 h -0.19893 l -0.46974,-4.67475 h -4.54113 v 32.46844 h 5.47732 v -23.51745 c 3.27373,-3.27373 5.54583,-5.0108 8.88638,-5.0108 4.2759,0 6.14611,2.60426 6.14611,8.68408 v 19.84451 h 5.47732 v -20.57778 c 0,-8.28455 -3.07314,-12.69341 -9.88784,-12.69341 z m -73.15636,4.34205 c 5.07763,0 8.01531,3.54264 8.01531,10.09014 h -17.36748 c 0.6681,-6.41385 4.80969,-10.09014 9.35285,-10.09014 z m 33.47065,0.20225 c 5.6121,0 9.35285,5.07684 9.35285,12.55965 0,7.41603 -3.74075,12.42599 -9.35285,12.42599 -5.54533,0 -9.3529,-5.00996 -9.3529,-12.42599 0,-7.48281 3.80757,-12.55965 9.3529,-12.55965 z"
     fill="#9141ac"
     id="path865"
     style="stroke-width:1.67027" />
</svg>
