<svg version="1.1" width="400" height="300" viewBox="0 0 400 300" xmlns="http://www.w3.org/2000/svg" fill="#21a4df">
 <path d="m201.73 185.98v69.023h3.5508l0.48047-4.7031h0.1914c4.32 3.552 9.4082 5.8555 13.824 5.8555 10.848 0 20.354-9.2172 20.354-24.865 0-14.304-6.1456-23.52-18.434-23.52-5.664 0-11.232 3.2652-15.936 7.2012l0.1914-9.0254v-19.967h-4.2226zm54.24 4.127c-2.112 0-3.6484 1.5361-3.6484 3.7441 0 2.4 1.5364 3.9355 3.6484 3.9355s3.6465-1.5355 3.6465-3.9355c0-2.208-1.5345-3.7441-3.6465-3.7441zm-156.67 1.6328v63.264h4.416v-21.793l12.863-14.688 20.928 36.48h5.0879l-22.943-39.84 20.16-23.424h-5.2812l-30.623 35.135h-0.19141v-35.135h-4.416zm193.63 16.031c-11.232 0-21.023 8.8331-21.023 24.289 0 15.264 9.0237 24.096 20.928 24.096 5.856 0 10.752-2.5928 14.688-6.0488l-2.207-2.9746c-3.168 2.88-7.3931 5.2793-12.289 5.2793-10.08 0-16.703-8.2556-16.703-20.352 0-12.192 7.2951-20.545 16.703-20.545 4.512 0 7.9693 2.1125 10.945 4.8965l2.4941-2.9766c-3.168-2.88-7.1992-5.6641-13.535-5.6641zm-142.66 1.1523v29.568c0 11.904 4.4159 17.664 13.92 17.664 6.336 0 11.136-3.552 15.648-8.832h0.19141l0.48047 7.6797h3.5527v-46.08h-4.2246v33.984c-5.376 6.528-9.4069 9.4082-14.879 9.4082-7.392 0-10.465-4.6084-10.465-14.4v-28.992h-4.2246zm103.49 0v46.08h4.2246v-46.08zm-32.736 2.5918c10.56 0 14.592 8.4474 14.592 19.775 0 12.48-6.7192 21.121-16.031 21.121-3.552 0-8.5448-1.6331-13.633-5.9531v-27.359c5.472-4.896 10.464-7.584 15.072-7.584z"/>
 <g fill="#173f4f">
  <path d="m152.29 132.07 37.238-20.946v11.637l-25.601 13.963"/>
  <path d="m145.31 134.4 6.982-2.3273v-65.165h-6.982"/>
  <path d="m264 45.963v88.439l-53.529 25.601 0.14715-87.098zm-9.3093 16.291-37.238 18.618v65.165l37.238-18.618z"/>
  <path d="m150.76 54.516 38.768-17.861v9.3093l-24.734 11.825"/>
  <path d="m189.53 45.963 7.2994 0.67108-0.3174 62.166-6.982 2.3273" />
 </g>
 <g fill="#73ba25">
  <path d="m136 55.273v86.112l74.474 18.618 0.2027-87.101zm9.3093 11.637 55.856 13.963v67.492l-55.856-13.963z"/>
  <path d="m245.38 48.29-55.856-11.637v9.3093l41.892 9.3093"/>
  <path d="m182.04 109.23v-59.93l7.4846-3.3361v65.165"/>
  <path d="m189.53 111.13v11.637l44.469 9.0748 14.032-6.8456"/>
  <path d="m254.7 62.255-9.3093 4.6546v58.184l9.3093 2.3273"/>
 </g>
 <g fill="#35b9ab">
  <path d="m152.29 125.09 29.771-15.931 7.4664 1.9671-37.238 20.946"/>
  <path d="m201.16 143.71-48.874-11.637-6.982 2.3273 55.856 13.963"/>
  <path d="m189.53 32-53.529 23.273 74.649 17.603 53.354-26.913zm0 4.6546 55.856 11.637-37.238 18.618-57.348-12.398z"/>
  <path d="m245.38 120.44-48.874-11.637-6.982 2.3273 55.856 13.963"/>
  <path d="m254.7 127.42-37.238 18.618v-6.982l27.928-13.963z"/>
 </g>
</svg>
