<svg fill="#000" width="300" height="300" version="1.1" viewBox="0 0 300 300" xmlns="http://www.w3.org/2000/svg">
 <path d="m65.281 191.74v63.264h33.6v-3.8398h-29.184v-59.424h-4.416zm59.52 16.031c-10.272 0-20.064 9.2171-20.064 24.289s9.5045 24.096 21.312 24.096c6.72 0 10.848-2.3037 14.496-4.5117l-1.7285-3.2637c-3.456 2.496-7.3928 4.127-12.385 4.127-10.368 0-17.183-8.3528-17.375-19.969h33.119c0.288-1.152 0.28906-2.3031 0.28906-3.4551 0-13.536-6.7201-21.312-17.664-21.312zm44.832 0c-7.488 0-13.922 3.6491-17.186 5.9531l1.9199 3.168c3.168-2.304 8.5454-5.377 14.689-5.377 9.12 0 11.039 7.5838 10.943 14.592-20.544 2.304-29.76 7.201-29.76 17.377 0 8.736 6.0478 12.672 13.344 12.672 6.048 0 11.616-3.3595 16.32-7.1035h0.28711l0.38476 5.9512h3.6484v-29.473c0-9.888-3.7438-17.76-14.592-17.76zm50.975 0c-5.664 0-11.136 3.3601-15.648 6.9121h-0.2871l-0.38477-5.7598h-3.6465v66.912h4.2227v-25.344c4.8 3.552 9.5042 5.6641 13.824 5.6641 10.848 0 20.352-9.2172 20.352-24.865 0-14.304-6.1436-23.52-18.432-23.52zm-95.711 3.6484c8.256 0 13.535 5.8561 13.535 17.664h-29.375c0.96-11.04 7.9678-17.664 15.84-17.664zm95.039 0.0957c10.56 0 14.592 8.4474 14.592 19.775 0 12.48-6.7192 21.121-16.031 21.121-3.552 0-8.3528-1.6331-13.633-5.9531v-27.359c5.568-4.896 10.464-7.584 15.072-7.584zm-39.936 17.855v15.648c-5.76 4.896-10.368 7.4883-15.648 7.4883s-9.791-2.5928-9.791-9.2168c0-7.296 6.4314-11.712 25.439-13.92z"/>
 <path d="m149.7 29.301-54.189 42.225 53.887 41.32 54.189-42.225-53.887-41.32zm60.02 52.479-60.322 46.85-60.02-45.943-14.377 11.26 75.301 57.607 74.699-58.111-15.281-11.662z"/>
</svg>
