<?xml version="1.0" encoding="UTF-8"?>
<svg width="128" height="128" version="1.1" viewBox="0 0 128 128" xmlns="http://www.w3.org/2000/svg">
 <path d="m64 22a3.5003 3.5003 0 0 0-2.4746 1.0254l-33.974 33.974h-16.051a3.5 3.5 0 0 0-3.5 3.5 3.5 3.5 0 0 0 3.5 3.5h16.051l33.974 33.974a3.5003 3.5003 0 0 0 4.9492 0l33.974-33.974h16.051a3.5 3.5 0 0 0 3.5-3.5 3.5 3.5 0 0 0-3.5-3.5h-16.051l-33.974-33.974a3.5003 3.5003 0 0 0-2.4746-1.0254zm0 8.449 30.051 30.051-30.051 30.051-30.051-30.051zm0 16.051a14 14 0 0 0-14 14 14 14 0 0 0 14 14 14 14 0 0 0 14-14 14 14 0 0 0-14-14zm0 7a7 7 0 0 1 7 7 7 7 0 0 1-7 7 7 7 0 0 1-7-7 7 7 0 0 1 7-7zm-35 21a3.5 3.5 0 0 0-2.4746 1.0254 3.5 3.5 0 0 0 0 4.9492l37.474 37.474 37.474-37.474a3.5 3.5 0 0 0 0-4.9492 3.5 3.5 0 0 0-4.9492 0l-32.525 32.525-32.525-32.525a3.5 3.5 0 0 0-2.4746-1.0254z" fill="#df7320"/>
</svg>
