<svg xmlns="http://www.w3.org/2000/svg" width="265.777" height="333.084" viewBox="0 0 249.166 312.266">
    <path d="M245.3 517.6l4.5 0 0 60.8 29.8 0 0 3.9-34.3 0 0-64.7zM305.8 534c11.2 0 18.1 8 18.1 21.8 0 1.2 0 2.4-.2 3.5l-34 0c.2 11.9 7.2 20.4 17.8 20.4 5.1 0 9.1-1.7 12.7-4.2l1.8 3.3c-3.7 2.3-8 4.6-14.8 4.6-12.1 0-21.8-9.2-21.8-24.7 0-15.5 9.9-24.7 20.4-24.7zm14 22.1c0-12.1-5.4-18.3-13.9-18.3-8.1 0-15.2 7-16.2 18.3l30.1 0zM363 552.8c.2-7.2-1.9-14.9-11.1-14.9-6.4 0-11.9 3.1-15 5.5l-2-3.2c3.3-2.4 9.8-6.1 17.5-6.1 11.2 0 14.9 8.1 14.9 18.2l0 30.2-3.6 0-.5-6.1-.2 0c-4.8 3.8-10.5 7.3-16.7 7.3-7.5 0-13.8-4-13.8-13 .1-10.5 9.6-15.5 30.5-17.9zm-16 27c5.4 0 10.2-2.7 16-7.7l0-16c-19.4 2.3-25.9 6.8-25.9 14.2 0 6.9 4.5 9.5 9.9 9.5zM388.6 586.5l0 17.2-4.3 0 0-68.5 3.7 0 .4 5.9.3 0c4.6-3.6 10.2-7.1 16-7.1 12.6 0 18.9 9.4 18.9 24.1 0 16-9.7 25.5-20.8 25.5-4.4 0-9.2-2.2-14.2-5.8l0 8.7zm13.9-6.8c9.5 0 16.4-8.8 16.4-21.6 0-11.6-4.1-20.2-14.9-20.2-4.7 0-9.7 2.8-15.4 7.8l0 28c5.4 4.4 10.3 6 13.9 6zM332 445.4L385.9 403.4 332.3 362.3 278.4 404.3z" transform="translate(-211.021 -327.02)"/>
    <path d="M332 461.1L272.3 415.4 258 426.5 332.9 483.9 407.2 426.1 392 414.4z" transform="translate(-211.021 -327.02)"/>
</svg>
