<svg version="1.1" width="400" height="300" viewBox="0 0 400 300" xmlns="http://www.w3.org/2000/svg" fill="#973a84">
 <path d="m115.66 190.1c-2.112 0-3.6484 1.5361-3.6484 3.7441 0 2.4 1.5364 3.9355 3.6484 3.9355s3.6484-1.5355 3.6484-3.9355c0-2.208-1.5364-3.7441-3.6484-3.7441zm166.18 0.48046c-15.168 0-26.016 12.577-26.016 32.545 0 20.064 10.848 33.023 26.016 33.023 15.264 0 26.111-12.959 26.111-33.023 0-19.968-10.847-32.545-26.111-32.545zm57.504 0c-10.56 0-18.432 6.4327-18.432 15.553 0 9.408 7.3913 13.344 12.863 15.744l9.5996 4.3184c6.24 2.784 11.328 5.376 11.328 13.248 0 7.488-6.0481 12.672-15.744 12.672-7.296 0-13.919-3.359-18.527-8.543l-2.8809 3.0723c4.992 5.568 12.192 9.5039 21.408 9.5039 12.288 0 20.256-7.2962 20.256-16.992s-6.2398-13.633-13.344-16.801l-9.5996-4.2227c-4.608-2.112-10.943-4.8014-10.943-12.193 0-6.912 5.6636-11.328 14.016-11.328 6.336 0 11.328 2.5936 15.072 6.4336l2.4961-2.8809c-3.84-4.128-9.9844-7.584-17.568-7.584zm-293.18 1.1524v63.264h4.1289v-41.568c0-5.184-0.38417-11.808-0.57617-17.088h0.38281l4.9922 14.111 13.729 37.633h3.8398l13.633-37.633 4.8945-14.111h0.38476c-0.288 5.28-0.57617 11.904-0.57617 17.088v41.568h4.3203v-63.264h-6.3359l-13.152 37.152c-1.632 4.608-3.1688 9.3116-4.8008 14.016h-0.38281c-1.632-4.704-3.3602-9.4076-4.9922-14.016l-13.248-37.152h-6.2402zm235.68 2.8789c12.864 0 21.408 11.042 21.408 28.514 0 17.568-8.5442 28.99-21.408 28.99s-21.408-11.422-21.408-28.99c0-17.472 8.5442-28.514 21.408-28.514zm-129.21 13.152c-11.232 0-21.025 8.8331-21.025 24.289 0 15.264 9.0237 24.096 20.928 24.096 5.856 0 10.753-2.5928 14.689-6.0488l-2.209-2.9746c-3.168 2.88-7.3911 5.2793-12.287 5.2793-10.08 0-16.705-8.2556-16.705-20.352 0-12.192 7.2971-20.545 16.705-20.545 4.512 0 7.9674 2.1125 10.943 4.8965l2.4961-2.9766c-3.168-2.88-7.1992-5.6641-13.535-5.6641zm43.295 0c-5.472 0-9.9846 4.0333-13.057 9.6973h-0.28711l-0.38476-8.5449h-3.6465v46.08h4.2227v-31.393c3.552-8.64 8.4482-11.807 12.576-11.807 1.824 0 2.6886 0.19158 4.2246 0.76758l0.95898-3.8398c-1.536-0.768-2.8794-0.96094-4.6074-0.96094zm28.896 0c-11.04 0-20.641 8.8331-20.641 24.289 0 15.264 9.6006 24.096 20.641 24.096 11.136 0 20.736-8.8317 20.736-24.096 0-15.456-9.6003-24.289-20.736-24.289zm-111.36 1.1523v46.08h4.2227v-46.08zm111.36 2.5918c9.312 0 16.32 8.3529 16.32 20.545 0 12.096-7.0083 20.352-16.32 20.352s-16.225-8.2556-16.225-20.352c0-12.192 6.9126-20.545 16.225-20.545z"/>
 <path d="m200 50c-24.227 0-44.233 18.531-46.595 42.15h-23.654a4.6838 4.6838 0 1 0 0 9.3666h23.654c2.3624 23.619 22.368 42.15 46.595 42.15s44.233-18.531 46.595-42.15h23.654a4.6838 4.6838 0 1 0 0-9.3666h-23.654c-2.3624-23.619-22.368-42.15-46.595-42.15zm0 9.3666c20.591 0 37.181 16.479 37.43 37.009a4.6838 4.6838 0 0 0 0 0.89638c-0.23952 20.539-16.832 37.027-37.43 37.027-20.591 0-37.181-16.479-37.43-37.009a4.6838 4.6838 0 0 0 0-0.89638c0.23952-20.539 16.832-37.027 37.43-37.027zm0 18.733c-10.291 0-18.733 8.4426-18.733 18.733 0 10.291 8.4426 18.733 18.733 18.733 10.291 0 18.733-8.4426 18.733-18.733 0-10.291-8.4426-18.733-18.733-18.733zm0 9.3666c5.2285 0 9.3666 4.1381 9.3666 9.3666s-4.1381 9.3666-9.3666 9.3666-9.3666-4.1381-9.3666-9.3666 4.1381-9.3666 9.3666-9.3666z"/>
</svg>
