<?xml version="1.0" encoding="UTF-8" standalone="no"?>
<svg
   width="100%"
   height="100%"
   viewBox="0 0 512 512"
   version="1.1"
   xml:space="preserve"
   style="fill-rule:evenodd;clip-rule:evenodd;stroke-linejoin:round;stroke-miterlimit:2;"
   id="svg1"
   sodipodi:docname="slowroll.svg"
   inkscape:version="1.3.2 (091e20ef0f, 2023-11-25)"
   xmlns:inkscape="http://www.inkscape.org/namespaces/inkscape"
   xmlns:sodipodi="http://sodipodi.sourceforge.net/DTD/sodipodi-0.dtd"
   xmlns="http://www.w3.org/2000/svg"
   xmlns:svg="http://www.w3.org/2000/svg"><defs
   id="defs1" /><sodipodi:namedview
   id="namedview1"
   pagecolor="#ffffff"
   bordercolor="#000000"
   borderopacity="0.25"
   inkscape:showpageshadow="2"
   inkscape:pageopacity="0.0"
   inkscape:pagecheckerboard="0"
   inkscape:deskcolor="#d1d1d1"
   showguides="true"
   inkscape:zoom="1.7246094"
   inkscape:cx="220.33975"
   inkscape:cy="456.0453"
   inkscape:window-width="1920"
   inkscape:window-height="1131"
   inkscape:window-x="0"
   inkscape:window-y="0"
   inkscape:window-maximized="1"
   inkscape:current-layer="svg1"><sodipodi:guide
     position="255.71008,351.38392"
     orientation="1,0"
     id="guide1"
     inkscape:locked="false" /></sodipodi:namedview>
    
<g
   id="g2"
   inkscape:export-filename="slowroll.png"
   inkscape:export-xdpi="166.60138"
   inkscape:export-ydpi="166.60138"><g
     transform="matrix(48,0,0,48,-92720,-3176)"
     id="g1">
        <path
   d="m 1933.8,71 c 0,-1.766 1.43,-3.2 3.2,-3.2 1.77,0 3.2,1.434 3.2,3.2 0,1.766 -1.43,3.2 -3.2,3.2 -1.77,0 -3.2,-1.434 -3.2,-3.2 z m 6,0 c 0,-1.545 -1.25,-2.8 -2.8,-2.8 -1.55,0 -2.8,1.255 -2.8,2.8 0,1.104 0.9,2 2,2 1.1,0 2,-0.896 2,-2 0,-0.662 -0.54,-1.2 -1.2,-1.2 -0.66,0 -1.2,0.538 -1.2,1.2 0,0.441 0.36,0.8 0.8,0.8 0.11,0 0.2,0.09 0.2,0.2 0,0.11 -0.09,0.2 -0.2,0.2 -0.66,0 -1.2,-0.538 -1.2,-1.2 0,-0.883 0.72,-1.6 1.6,-1.6 0.88,0 1.6,0.717 1.6,1.6 0,1.325 -1.07,2.4 -2.4,2.4 -0.32,0 -0.62,-0.061 -0.9,-0.173 0.47,0.359 1.06,0.573 1.7,0.573 1.55,0 2.8,-1.255 2.8,-2.8 z"
   style="fill:#41c3d3"
   id="path1" />
    </g><text
     xml:space="preserve"
     style="font-size:102.919px;fill:#41c3d3;fill-opacity:1;stroke-width:8.57656"
     x="57.62484"
     y="478.1427"
     id="text1"><tspan
       sodipodi:role="line"
       id="tspan1"
       x="57.62484"
       y="478.1427"
       style="fill:#41c3d3;fill-opacity:1;stroke-width:8.57656">Slowroll</tspan></text><text
     xml:space="preserve"
     style="font-size:45.5959px;fill:#41c3d3;fill-opacity:1;stroke-width:8.57656"
     x="58.737835"
     y="50.634552"
     id="text1-4"><tspan
       sodipodi:role="line"
       id="tspan1-4"
       x="58.737835"
       y="50.634552"
       style="font-size:45.5959px;fill:#41c3d3;fill-opacity:1;stroke-width:8.57656">get.opensuse.org</tspan></text></g></svg>
