<svg version="1.1" width="600" height="300" viewBox="0 0 600 300" xmlns="http://www.w3.org/2000/svg" fill="#35b9ab">
 <path d="m229.49 185.98v69.023h3.5508l0.48047-4.7031h0.19141c4.32 3.552 9.4082 5.8555 13.824 5.8555 10.848 0 20.354-9.2172 20.354-24.865 0-14.304-6.1456-23.52-18.434-23.52-5.664 0-11.232 3.2652-15.936 7.2012l0.19141-9.0254v-19.967h-4.2227zm52.031 0v62.879c0 4.992 1.9201 7.2969 5.6641 7.2969 1.344 0 2.2083-0.19246 3.0723-0.48046l-0.76758-3.4551c-0.96 0.192-1.3445 0.1914-1.7285 0.1914-1.152 0-2.0156-0.96056-2.0156-2.9766v-63.455h-4.2246zm259.1 0v19.008l0.19336 8.4473c-4.608-3.552-8.3519-5.6641-13.92-5.6641-10.944 0-20.449 9.4091-20.449 24.289 0 15.552 7.4875 24.096 19.104 24.096 6.144 0 11.233-3.3595 14.977-7.1035h0.28907l0.38281 5.9512h3.6484v-69.023h-4.2246zm-491.52 5.7598v3.8398h20.16v59.424h4.416v-59.424h20.16v-3.8398zm121.25 16.031c-5.088 0-10.368 3.5519-14.496 8.2559h-0.28711l-0.38477-7.1035h-3.6484v46.08h4.2246v-34.752c5.088-5.76 9.6962-8.6406 13.824-8.6406 7.104 0 10.367 4.6084 10.367 14.4v28.992h4.2246v-34.752c5.088-5.76 9.5042-8.6406 13.824-8.6406 7.008 0 10.271 4.6084 10.271 14.4v28.992h4.3203v-29.568c0-11.904-4.6082-17.664-13.824-17.664-5.28 0-10.368 3.6482-15.648 9.4082-1.632-5.664-5.3756-9.4082-12.768-9.4082zm150.14 0c-10.272 0-20.064 9.2171-20.064 24.289s9.5045 24.096 21.312 24.096c6.72 0 10.848-2.3037 14.496-4.5117l-1.7285-3.2637c-3.456 2.496-7.3928 4.127-12.385 4.127-10.368 0-17.183-8.3528-17.375-19.969h33.119c0.288-1.152 0.28907-2.3031 0.28907-3.4551 0-13.536-6.7201-21.312-17.664-21.312zm113.28 0c-10.272 0-20.064 9.2171-20.064 24.289s9.5045 24.096 21.312 24.096c6.72 0 10.848-2.3037 14.496-4.5117l-1.7285-3.2637c-3.456 2.496-7.3908 4.127-12.383 4.127-10.368 0-17.185-8.3528-17.377-19.969h33.121c0.288-1.152 0.28711-2.3031 0.28711-3.4551 0-13.536-6.7201-21.312-17.664-21.312zm46.369 0c-10.272 0-20.064 9.2171-20.064 24.289s9.5045 24.096 21.312 24.096c6.72 0 10.846-2.3037 14.494-4.5117l-1.7266-3.2637c-3.456 2.496-7.3928 4.127-12.385 4.127-10.368 0-17.183-8.3528-17.375-19.969h33.119c0.288-1.152 0.28906-2.3031 0.28906-3.4551 0-13.536-6.7201-21.312-17.664-21.312zm-380.06 1.1523v29.568c0 11.904 4.4159 17.664 13.92 17.664 6.336 0 11.136-3.552 15.648-8.832h0.1914l0.48047 7.6797h3.5527v-46.08h-4.2246v33.984c-5.376 6.528-9.4089 9.4082-14.881 9.4082-7.392 0-10.463-4.6084-10.463-14.4v-28.992h-4.2246zm245.18 0 13.633 46.08h5.0879l7.9668-28.416c1.44-4.416 2.5924-8.8318 3.6484-13.344h0.38477c1.344 4.512 2.2068 8.7364 3.5508 13.152l8.0644 28.607h5.5684l13.248-46.08h-4.3203l-8.1602 29.855c-1.056 4.224-2.2077 8.1611-3.2637 12.289h-0.38477c-1.152-4.128-2.3031-8.0651-3.4551-12.289l-8.3516-29.855h-5.0879l-8.3535 29.855c-1.152 4.224-2.3034 8.1611-3.3594 12.289h-0.38477c-0.96-4.128-2.016-8.0651-3.168-12.289l-8.2559-29.855h-4.6074zm-24.672 2.4961c8.256 0 13.535 5.8561 13.535 17.664h-29.375c0.96-11.04 7.9678-17.664 15.84-17.664zm113.28 0c8.256 0 13.537 5.8561 13.537 17.664h-29.377c0.96-11.04 7.9678-17.664 15.84-17.664zm46.369 0c8.256 0 13.535 5.8561 13.535 17.664h-29.375c0.96-11.04 7.9678-17.664 15.84-17.664zm-231.46 0.0957c10.56 0 14.592 8.4474 14.592 19.775 0 12.48-6.7192 21.121-16.031 21.121-3.552 0-8.5448-1.6331-13.633-5.9531v-27.359c5.472-4.896 10.464-7.584 15.072-7.584zm278.4 0c4.512 0 8.5435 1.6331 13.439 5.9531v27.359c-4.896 4.896-9.4081 7.584-14.496 7.584-9.792 0-15.168-8.1596-15.168-20.352 0-11.616 7.0086-20.545 16.225-20.545z"/>
 <path d="m354.7 48c-9.4 0-18.5 2.7-26.6 7.3-7.9 4.5-14.8 10.6-20.9 17.3-2.4 2.6-4.7 5.4-7 8.2-2.2 2.7-4.2 5.5-6.3 8.3-1 1.4-2.1 2.9-3.1 4.3-2.1 2.9-4.2 5.7-6.5 8.3-2.2 2.4-4.5 4.7-6.8 7-5.8 5.7-12 11-18.9 15.4-5.4 3.4-11.8 6.7-18.4 6.7-17.7 0-33.5-14-33.5-35.3s15.2-32.9 33.5-32.9c10.6 0 19.9 4.5 29 12.3l-4.9 5 23.8 6-6.6-23.6-5.3 5.5c-9.3-8.3-20.8-15-35.3-15-23.7 0-43.2 17.1-43.2 43.2 0 25 19.5 43.2 41.4 43.2 9.1 0 17.9-2.7 25.6-7.3 7-4.1 13.1-9.5 18.7-15.4 1.9-2 3.7-4 5.5-6 2.4-2.6 4.6-5.2 6.6-8.2 0.9-1.3 1.7-2.6 2.6-3.9 1.6-2.4 3.1-4.8 4.8-7.1 3.2-4.3 6.5-8.5 10-12.5 6-6.7 12.8-12.9 20.7-17.1 6.3-3.4 13.3-5.2 20.5-5.2 25 0 39 17.4 39 39.6 0 20.7-13.4 37.8-36.5 37.8-13.2 0-24.8-3.6-37-14.1l5.7-6.9-24.2-4 8.6 23 4.8-5.8c11.8 10.7 24.7 17.7 41.5 17.7 28 0 46.3-21.3 46.3-48.1-0.1-28.2-19-47.7-47.6-47.7z"/>
</svg>
