<?xml version="1.0" encoding="utf-8"?>
<!-- Generator: Adobe Illustrator 14.0.0, SVG Export Plug-In . SVG Version: 6.00 Build 43363)  -->
<!DOCTYPE svg PUBLIC "-//W3C//DTD SVG 1.1//EN" "http://www.w3.org/Graphics/SVG/1.1/DTD/svg11.dtd">
<svg version="1.1" xmlns="http://www.w3.org/2000/svg" xmlns:xlink="http://www.w3.org/1999/xlink" x="0px" y="0px"
	 width="2551.18px" height="5811.02px" viewBox="0 0 2551.18 5811.02" enable-background="new 0 0 2551.18 5811.02"
	 xml:space="preserve">
<g id="Layer_1">
	<rect x="-6.897" y="-0.002" fill="#193F4F" stroke="#000000" width="2551.18" height="5811.021"/>
	<path fill="#FFFFFF" d="M1654.793,336.684c-9.328-0.336-18.163,2.958-24.917,9.294c-6.76,6.337-10.744,14.919-11.025,24.215
		c-0.648,19.206,14.391,35.365,33.554,36.072c9.32,0.278,18.203-3.016,24.999-9.353c6.781-6.364,10.684-14.95,10.982-24.211
		C1689.029,353.5,1673.999,337.364,1654.793,336.684z M1660.482,374.73c-8.536,0-15.425-4.617-15.425-10.277
		c0-5.713,6.889-10.309,15.425-10.309s15.446,4.595,15.446,10.309C1675.924,370.113,1669.011,374.73,1660.482,374.73
		 M1736.936,419.217c2.274-1.496,3.938-2.736,4.634-3.012l0.757-1.181c-1.917-12.052-19.873-70.478-33.458-84.528
		c-3.744-3.827-6.746-7.6-12.812-11.153c-49.151-28.637-165.751-45.922-171.216-46.715l-0.926,0.259l-0.348,0.845
		c0,0-0.452,24.158-0.519,26.86c-11.906-4-98.479-31.964-179.63-34.778c-68.82-2.418-169.043-11.318-301.847,70.341l-3.926,2.446
		c-62.483,38.972-105.619,87.036-128.168,142.871c-7.075,17.57-16.585,57.219-7.159,94.525
		c4.059,16.307,11.632,32.694,21.839,47.359c23.073,33.145,61.792,55.133,103.479,58.852
		c58.864,5.263,103.434-21.173,119.284-70.679c10.899-34.158,0-84.273-41.785-109.839c-33.988-20.809-70.531-16.079-91.733-2.055
		c-18.393,12.194-28.805,31.14-28.625,51.953c0.426,36.917,32.225,56.539,55.091,56.598c6.643,0,13.313-1.157,20.835-3.606
		c2.68-0.815,5.197-1.825,7.971-3.543l0.87-0.513l0.549-0.365l-0.183,0.113c5.209-3.555,8.346-9.327,8.346-15.521
		c0-1.686-0.237-3.402-0.72-5.125c-2.703-9.346-11.939-15.003-21.508-13.26l-1.295,0.307l-1.746,0.532l-2.541,0.876
		c-5.265,1.29-9.205,1.406-10.049,1.433c-2.677-0.171-15.839-4.113-15.839-18.53v-0.194c0-5.298,2.124-9.01,3.293-11.04
		c4.096-6.42,15.305-12.721,30.452-11.401c19.879,1.716,34.211,11.909,43.702,31.142c8.81,17.875,6.505,39.866-5.94,55.977
		c-12.363,15.961-34.368,22.747-63.633,19.598c-29.514-3.264-54.458-20.245-68.435-46.683
		c-13.676-25.848-14.419-56.485-1.932-80.021c29.874-56.397,86.303-55.811,117.241-50.464
		c45.785,7.944,97.872,50.178,116.348,98.943c2.984,7.778,4.506,13.938,5.834,19.574l1.995,8.423l51.727,25.253l0.678,0.508
		l1.254-0.112l0.227-1.491c-0.32-1.157-1.072-2.228-2.267-16.699c-0.982-12.847-2.982-48.014,14.724-65.442
		c6.876-6.811,17.349-12.889,25.618-14.834c33.908-8.283,73.662-2.567,111.248,40.94c19.458,22.47,28.941,32.714,33.705,37.307
		l1.657,1.495l1.959,1.46c1.562,0.853,64.638,29.91,64.638,29.91l1.297-0.311l0.026-1.35c-0.421-0.478-39.987-51.606-32.939-93.706
		c5.547-33.538,32.229-30.498,69.148-26.331c12.055,1.409,25.77,2.982,39.975,3.299c39.659,0.254,82.376-7.07,108.704-18.588
		c17.029-7.401,27.903-12.331,34.713-18.524c2.449-2.029,3.718-5.323,5.041-8.87l0.93-2.339c1.099-2.876,2.722-8.929,3.432-12.252
		c0.286-1.46,0.458-3.008-0.588-3.824l-3.644,0.673c-11.562,6.959-40.464,20.136-67.48,20.702
		c-33.548,0.674-101.084-33.739-108.127-37.396l-0.675-0.786c-1.658-4.056-11.804-28.019-13.967-33.085
		c48.627,32.042,88.961,49.75,119.841,52.481c34.371,3.065,61.165-15.694,72.606-23.713H1736.936z M1603.616,370.113
		c0.498-13.319,6.071-25.682,15.81-34.748c9.748-9.099,22.46-13.797,35.791-13.374c27.479,0.981,49.073,24.182,48.134,51.638
		c-0.519,13.319-6.095,25.678-15.81,34.716c-9.743,9.151-22.425,13.855-35.812,13.402
		C1624.269,420.741,1602.703,397.59,1603.616,370.113z"/>
	<path fill="#FFFFFF" d="M1241.205,658.552c-21.916,0-33.972,18.529-33.972,31.339v16.446c0,18.864,15.413,30.555,29.702,30.555
		h50.177c6.323,0,7.646,4.134,7.646,7.628v10.613c0,1.129-0.227,11.321-7.646,11.321h-68.432c-6.801,0-11.716,4.733-11.716,11.204
		v2.934c0,6.454,4.915,11.154,11.716,11.154h72.152c18.861,0,31.027-13.123,31.027-33.45V740.55
		c0-19.087-13.712-27.622-27.328-27.622h-49.373c-7.431,0-10.801-5.575-10.801-9.514v-9.798c0-6.17,4.126-9.746,11.336-9.746h54.651
		c6.7,0,11.743-4.813,11.743-11.178v-2.931c0-6.389-5.127-11.208-11.973-11.208H1241.205z"/>
	<path fill="#FFFFFF" d="M1446.373,658.552c-6.481,0-11.7,5.264-11.7,11.741v84.024c0,6.73-5.494,12.137-12.137,12.137h-38.139
		c-6.673,0-12.137-5.406-12.137-12.137v-84.024c0-6.477-5.27-11.741-11.737-11.741h-3.691c-6.576,0-11.739,5.181-11.739,11.741
		v87.204c0,20.301,15.971,35.027,37.98,35.027h40.787c21.976,0,37.94-14.724,37.94-35.027v-87.204
		c0-6.56-5.149-11.741-11.713-11.741H1446.373z"/>
	<path fill="#FFFFFF" d="M1519.397,658.552c-21.906,0-33.995,18.529-33.995,31.339v16.446c0,18.864,15.446,30.555,29.746,30.555
		h50.159c6.331,0,7.654,4.134,7.654,7.628v10.613c0,1.129-0.225,11.321-7.654,11.321h-68.465c-6.768,0-11.716,4.733-11.716,11.204
		v2.934c0,6.454,4.948,11.154,11.716,11.154h72.177c18.864,0,31.089-13.123,31.089-33.45V740.55
		c0-19.087-13.755-27.622-27.371-27.622h-49.368c-7.458,0-10.815-5.575-10.815-9.514v-9.798c0-6.17,4.127-9.746,11.334-9.746h54.682
		c6.688,0,11.708-4.813,11.708-11.178v-2.931c0-6.389-5.117-11.208-11.993-11.208H1519.397z"/>
	<path fill="#FFFFFF" d="M1634.747,658.552c-6.502,0-11.422,4.82-11.422,11.208v110.827c0,6.362,4.806,11.152,11.163,11.152h88.319
		c6.803,0,11.714-4.701,11.714-11.152v-2.934c0-6.471-4.911-11.206-11.714-11.206h-72.333v-28.215h53.006
		c6.78,0,11.713-4.762,11.713-11.21v-2.927c0-6.477-4.933-11.181-11.713-11.181h-53.006v-29.058h68.656
		c6.78,0,11.721-4.67,11.721-11.182v-2.927c0-6.481-4.94-11.21-11.721-11.21h-84.384V658.552z"/>
	<path fill="#FFFFFF" d="M884.017,711.267c-11.066,0-20.074,8.61-20.074,19.23v41.785c0,10.787,8.714,19.57,19.404,19.57h27.027
		c10.688,0,19.404-8.783,19.404-19.57v-41.785c0-10.613-9.013-19.23-20.076-19.23H884.017z M878.17,770.623v-38.158
		c0-4.473,3.676-8.129,8.167-8.129h21.062c4.394,0,8.139,3.738,8.139,8.129v38.158c0,4.5-3.648,8.164-8.139,8.164H886.18
		C881.677,778.787,878.17,775.205,878.17,770.623"/>
	<path fill="#FFFFFF" d="M990.965,710.782c-7.793,0-13.668,2.784-18.383,5.066c-2.877,1.378-5.363,2.568-7.294,2.568
		c-0.873,0-1.622-0.396-2.017-1.044l-1.799-3.434c-0.447-0.904-2.249-2.675-4.478-2.675h-2.672c-2.567,0-4.623,2.306-4.623,5.125
		v105.985c0,3.327,2.624,5.942,5.943,5.942h2.31c3.293,0,5.973-2.65,5.973-5.942v-35.166c0-1.044,0.674-2.17,1.362-2.17
		c1.931,0,4.417,1.132,7.294,2.449c4.715,2.169,10.59,4.84,18.383,4.84h2.495c13.798,0,22.384-7.886,22.384-20.552v-40.459
		c0-12.474-8.767-20.528-22.384-20.528h-2.495V710.782z M963.929,769.809v-36.498c0-5.042,3.94-8.979,8.977-8.979h19.74
		c5.045,0,8.979,3.941,8.979,8.979v36.498c0,4.953-4.039,8.974-8.979,8.974h-19.74C967.962,778.783,963.929,774.761,963.929,769.809
		z"/>
	<path fill="#FFFFFF" d="M1055.829,711.263c-11.065,0-20.048,8.614-20.048,19.23v41.475c0,10.759,8.729,19.881,19.031,19.881h27.89
		c3.447,0,5.942-2.388,5.942-5.636v-1.825c0-3.269-2.495-5.608-5.942-5.608h-22.912c-6.42,0-9.806-3.152-9.806-9.157v-12.134h41.327
		c6.649,0,10.583-4.055,10.583-10.923v-16.081c0-10.616-8.999-19.232-20.022-19.232h-26.042V711.263z M1049.987,732.328
		c0-4.479,3.522-7.996,8.006-7.996h21.712c4.473,0,7.963,3.518,7.963,7.996v12.949h-37.685
		C1049.987,743.585,1049.987,732.328,1049.987,732.328z"/>
	<path fill="#FFFFFF" d="M1159.309,710.782c-7.769,0-13.63,2.784-18.36,5.039c-2.943,1.385-5.459,2.596-7.513,2.596
		c-0.9,0-1.27-0.116-1.97-1.33l-1.636-2.985c-0.938-1.887-2.531-2.834-4.684-2.834h-2.3c-2.773,0-4.799,2.163-4.799,5.121v69.519
		c0,3.291,2.603,5.943,5.956,5.943h2.295c3.294,0,5.979-2.678,5.979-5.943v-52.595c0-4.926,4.027-8.979,8.957-8.979h19.746
		c4.946,0,8.972,4.054,8.972,8.979v52.595c0,3.291,2.617,5.943,5.938,5.943h2.323c3.294,0,5.969-2.678,5.969-5.943v-54.594
		c0-12.476-8.771-20.53-22.393-20.53H1159.309z"/>
	<path fill="#FFFFFF" d="M1754.206,764.896c6.016,0,10.806,4.892,10.806,11.012c0,6.208-4.795,11.046-10.855,11.046
		c-6.016,0-10.9-4.837-10.9-11.046c0-6.116,4.885-11.012,10.9-11.012H1754.206z M1754.156,766.605c-4.837,0-8.801,4.162-8.801,9.296
		c0,5.236,3.964,9.34,8.851,9.34c4.891,0.055,8.801-4.104,8.801-9.292c0-5.182-3.91-9.344-8.801-9.344H1754.156z M1752.104,782.307
		h-1.96v-12.271c1.03-0.15,2.008-0.297,3.475-0.297c1.861,0,3.084,0.385,3.812,0.928c0.738,0.532,1.133,1.361,1.133,2.544
		c0,1.611-1.077,2.583-2.394,2.981v0.104c1.078,0.19,1.809,1.17,2.052,2.981c0.294,1.911,0.58,2.644,0.778,3.033h-2.054
		c-0.3-0.389-0.586-1.515-0.832-3.128c-0.294-1.562-1.077-2.152-2.64-2.152h-1.371V782.307L1752.104,782.307z M1752.104,775.505
		h1.419c1.609,0,2.981-0.584,2.981-2.101c0-1.079-0.784-2.157-2.981-2.157c-0.641,0-1.077,0.048-1.419,0.106V775.505z"/>
</g>
<g id="makers_choice">
	<text transform="matrix(1 0 0 1 622.2783 1049.4917)"><tspan x="0" y="0" fill="#11B096" font-family="'PTSans-Regular'" font-size="195.9036">A escolha certa </tspan><tspan x="-264.366" y="235.084" fill="#11B096" font-family="'PTSans-Regular'" font-size="195.9036">para administradores, </tspan><tspan x="-489.361" y="470.168" fill="#11B096" font-family="'PTSans-Regular'" font-size="195.9036">desenvolvedores e usuários</tspan></text>
</g>
<g id="rolling_release">
	<text transform="matrix(1 0 0 1 122.481 2889.2476)"><tspan x="0" y="0" fill="#FFFFFF" font-family="'PTSans-Regular'" font-size="250">Lançamento contínuo</tspan><tspan x="24.317" y="288" fill="#FFFFFF" font-family="'PTSans-Regular'" font-size="240">Pacotes mais recentes</tspan><tspan x="324.073" y="569.454" fill="#FFFFFF" font-family="'PTSans-Regular'" font-size="234.5448">Versões testadas</tspan></text>
</g>
<g id="extended_support">
	<text transform="matrix(1 0 0 1 527.8291 5015.9453)"><tspan x="0" y="0" fill="#FFFFFF" font-family="'PTSans-Regular'" font-size="191.5051">Suporte estendido</tspan><tspan x="-208.103" y="206.825" fill="#FFFFFF" font-family="'PTSans-Regular'" font-size="172.3546">Distribuição Linux estável</tspan><tspan x="-318.225" y="362.825" fill="#FFFFFF" font-family="'PTSans-Regular'" font-size="130">Ambiente rico em recursos de servidor</tspan></text>
</g>
<g id="leap">
	<polygon fill="#0EAE96" points="879.835,4469.79 899.978,4469.79 899.978,4740.88 1032.678,4740.88 1032.678,4758.398 
		879.835,4758.398 	"/>
	<path fill="#0EAE96" d="M1149.598,4542.927c49.928,0,80.582,35.474,80.582,97.225c0,5.257,0,10.51-0.877,15.767h-151.526
		c0.876,52.99,31.967,91.092,79.267,91.092c22.777,0,40.728-7.445,56.494-18.834l7.888,14.893
		c-16.644,10.071-35.475,20.584-66.134,20.584c-53.869,0-97.222-41.167-97.222-109.926
		C1058.07,4584.97,1102.738,4542.927,1149.598,4542.927 M1211.788,4641.027c0-53.865-24.088-81.458-61.753-81.458
		c-35.911,0-67.883,31.094-72.258,81.458H1211.788z"/>
	<path fill="#0EAE96" d="M1404.458,4626.576c0.873-31.969-8.32-66.57-49.488-66.57c-28.461,0-52.988,14.015-67.006,24.527
		l-8.756-14.453c14.889-10.508,43.793-27.153,77.951-27.153c49.93,0,66.572,35.913,66.572,81.019v134.453h-16.209l-2.191-27.155
		h-0.873c-21.459,17.082-46.859,32.409-74.449,32.409c-33.285,0-61.316-17.958-61.316-57.807
		C1268.692,4659.422,1311.175,4637.087,1404.458,4626.576 M1333.073,4747.01c24.086,0,45.549-11.822,71.385-34.158v-71.388
		c-86.273,10.073-115.619,30.221-115.619,63.503C1288.839,4735.188,1308.987,4747.01,1333.073,4747.01"/>
	<path fill="#0EAE96" d="M1518.306,4776.788v76.644h-19.271v-305.248h16.646l1.748,26.276h1.312
		c20.584-16.203,45.551-31.533,71.389-31.533c56.055,0,84.086,42.043,84.086,107.295c0,71.388-43.359,113.434-92.848,113.434
		c-19.707,0-41.164-9.637-63.062-25.84V4776.788z M1580.493,4746.573c42.482,0,73.137-39.415,73.137-96.352
		c0-51.674-18.393-90.216-66.568-90.216c-21.02,0-43.355,12.263-68.756,34.598v124.814
		C1542.396,4739.125,1564.292,4746.573,1580.493,4746.573"/>
	<polygon fill="#FFFFFF" points="1264.961,4149.306 1504.812,3962.64 1266.526,3780.054 1026.673,3966.72 	"/>
	<polygon fill="#FFFFFF" points="1265.17,4219.4 999.896,4016.136 936.276,4065.646 1269.103,4320.677 1599.353,4063.659 
		1531.802,4011.897 	"/>
</g>
<g id="tumbleweed">
	<polygon fill="#0EAE96" points="412.736,2317.111 338.941,2317.111 338.941,2303.056 502.345,2303.056 502.345,2317.111 
		428.899,2317.111 428.899,2534.631 412.736,2534.631 	"/>
	<path fill="#0EAE96" d="M524.119,2365.958h15.461v106.123c0,35.843,11.246,52.711,38.302,52.711
		c20.03,0,34.788-10.543,54.467-34.438v-124.396h15.46v168.674h-13l-1.758-28.115h-0.703c-16.514,19.328-34.085,32.329-57.28,32.329
		c-34.788,0-50.95-21.081-50.95-64.657V2365.958z"/>
	<path fill="#0EAE96" d="M712.451,2365.958h13.354l1.404,26.004h1.055c15.112-17.219,34.438-30.223,53.063-30.223
		c27.058,0,40.763,13.704,46.737,34.44c19.325-21.084,37.95-34.44,57.278-34.44c33.736,0,50.602,21.089,50.602,64.66v108.232
		h-15.811v-106.123c0-35.845-11.951-52.713-37.602-52.713c-15.812,0-31.979,10.544-50.6,31.626v127.209h-15.464v-106.123
		c0-35.845-11.95-52.713-37.953-52.713c-15.111,0-31.975,10.544-50.6,31.626v127.209h-15.463V2365.958z"/>
	<path fill="#0EAE96" d="M997.767,2281.972h15.46v73.093l-0.703,33.028c17.222-14.403,37.602-26.351,58.334-26.351
		c44.979,0,67.471,33.731,67.471,86.091c0,57.28-34.793,91.015-74.5,91.015c-16.167,0-34.792-7.731-50.604-20.031h-0.703
		l-1.755,15.814h-13.002V2281.972z M1063.128,2525.145c34.087,0,58.682-31.628,58.682-77.312c0-41.462-14.755-72.39-53.414-72.39
		c-16.865,0-35.138,9.841-55.169,27.764v100.147C1031.852,2519.168,1050.126,2525.145,1063.128,2525.145"/>
	<path fill="#0EAE96" d="M1188.91,2281.972h15.461v232.276c0,7.378,3.163,10.897,7.378,10.897c1.405,0,2.812,0,6.324-0.705
		l2.814,12.653c-3.164,1.05-6.326,1.755-11.244,1.755c-13.705,0-20.734-8.435-20.734-26.708V2281.972z"/>
	<path fill="#0EAE96" d="M1331.569,2361.739c40.062,0,64.659,28.465,64.659,78.013c0,4.216,0,8.433-0.705,12.649h-121.581
		c0.701,42.521,25.649,73.094,63.602,73.094c18.276,0,32.684-5.975,45.333-15.114l6.325,11.951
		c-13.354,8.081-28.463,16.516-53.062,16.516c-43.225,0-78.015-33.035-78.015-88.206
		C1258.126,2395.477,1293.972,2361.739,1331.569,2361.739 M1381.47,2440.453c0-43.222-19.328-65.359-49.548-65.359
		c-28.814,0-54.469,24.95-57.979,65.359H1381.47z"/>
	<path fill="#0EAE96" d="M1422.214,2365.958h16.867l30.223,109.287c4.216,15.46,8.082,29.869,11.596,44.979h1.403
		c3.867-15.11,8.08-29.52,12.304-44.979l30.565-109.287h18.626l30.573,109.287c4.217,15.46,8.436,29.869,12.651,44.979h1.404
		c3.867-15.11,8.084-29.52,11.947-44.979l29.868-109.287h15.816l-48.494,168.674h-20.385l-29.514-104.719
		c-4.92-16.164-8.082-31.625-13.003-48.143h-1.407c-3.864,16.518-8.084,32.682-13.35,48.846l-29.169,104.016h-18.622
		L1422.214,2365.958z"/>
	<path fill="#0EAE96" d="M1746.186,2361.739c40.064,0,64.658,28.465,64.658,78.013c0,4.216,0,8.433-0.703,12.649h-121.583
		c0.702,42.521,25.649,73.094,63.602,73.094c18.276,0,32.68-5.975,45.33-15.114l6.329,11.951
		c-13.353,8.081-28.464,16.516-53.064,16.516c-43.221,0-78.009-33.035-78.009-88.206
		C1672.745,2395.477,1708.586,2361.739,1746.186,2361.739 M1796.087,2440.453c0-43.222-19.33-65.359-49.547-65.359
		c-28.815,0-54.472,24.95-57.982,65.359H1796.087z"/>
	<path fill="#0EAE96" d="M1915.897,2361.739c40.059,0,64.658,28.465,64.658,78.013c0,4.216,0,8.433-0.704,12.649H1858.27
		c0.701,42.521,25.648,73.094,63.603,73.094c18.272,0,32.677-5.975,45.328-15.114l6.326,11.951
		c-13.353,8.081-28.462,16.516-53.062,16.516c-43.224,0-78.009-33.035-78.009-88.206
		C1842.456,2395.477,1878.297,2361.739,1915.897,2361.739 M1965.797,2440.453c0-43.222-19.328-65.359-49.549-65.359
		c-28.815,0-54.471,24.95-57.979,65.359H1965.797z"/>
	<path fill="#0EAE96" d="M2087.008,2361.742c20.383,0,34.084,7.729,50.951,20.733l-0.701-30.925v-69.579h15.459v252.66h-13.35
		l-1.408-21.791h-1.055c-13.702,13.706-32.328,26.007-54.818,26.007c-42.516,0-69.926-31.275-69.926-88.204
		C2012.16,2396.177,2046.947,2361.742,2087.008,2361.742 M2084.196,2525.145c18.623,0,35.139-9.843,53.062-27.764v-100.149
		c-17.923-15.812-32.682-21.788-49.198-21.788c-33.731,0-59.385,32.682-59.385,75.201
		C2028.675,2495.274,2048.356,2525.145,2084.196,2525.145"/>
	<path fill="#FFFFFF" d="M1501.625,1765.404c-33.526,0-66.116,9.675-95.148,26.224c-28.225,16.087-52.834,37.894-74.747,61.725
		c-8.691,9.451-16.983,19.26-24.98,29.305c-7.72,9.702-15.111,19.657-22.399,29.688c-3.71,5.103-7.391,10.226-11.078,15.349
		c-7.358,10.22-14.848,20.448-23.408,29.703c-7.907,8.549-16.04,16.889-24.392,25.005c-20.809,20.219-43.017,39.434-67.546,55.034
		c-19.386,12.328-42.076,24.079-65.631,24.079c-63.144,0-119.755-50.073-119.755-126.282c0-76.206,54.435-117.575,119.755-117.575
		c37.856,0,71.319,16.151,103.788,44.092l-17.374,17.874l42.495,10.74l42.496,10.741l-11.944-42.17l-11.948-42.172l-19.011,19.56
		c-33.218-29.711-74.512-53.503-126.322-53.503c-84.919,0-154.595,60.968-154.595,154.59c0,89.27,69.675,154.59,148.062,154.59
		c32.442,0,63.84-9.664,91.684-26.065c24.963-14.704,46.756-34.13,66.758-54.946c6.751-7.022,13.313-14.223,19.829-21.463
		c8.445-9.384,16.371-18.697,23.446-29.345c3.108-4.68,6.217-9.359,9.326-14.04c5.722-8.609,11.006-17.137,17.136-25.514
		c11.293-15.43,23.143-30.477,35.885-44.74c21.374-23.93,45.584-46.196,74.115-61.305c22.629-11.98,47.676-18.698,73.329-18.698
		c89.273,0,139.351,62.055,139.351,141.526c0,74.032-47.9,134.994-130.634,134.994c-47.301,0-88.757-12.82-132.431-50.588
		l20.236-24.601l-43.236-7.186l-43.237-7.19l15.391,41.04l15.395,41.037l17.197-20.903c42.323,38.099,88.47,63.229,148.506,63.229
		c100.15,0,165.472-76.206,165.472-172.009C1671.457,1835.079,1603.959,1765.404,1501.625,1765.404"/>
</g>
<g id="Layer_7">
	<line fill="#1AB095" stroke="#1AB095" stroke-width="20" x1="368.702" y1="3641.458" x2="2182.478" y2="3641.458"/>
</g>
</svg>
