<?xml version="1.0" encoding="UTF-8" standalone="no"?>
<svg
   xmlns:dc="http://purl.org/dc/elements/1.1/"
   xmlns:cc="http://creativecommons.org/ns#"
   xmlns:rdf="http://www.w3.org/1999/02/22-rdf-syntax-ns#"
   xmlns:svg="http://www.w3.org/2000/svg"
   xmlns="http://www.w3.org/2000/svg"
   width="30in"
   height="20in"
   viewBox="0 0 2700 1800"
   id="svg3335"
   version="1.1">
  <defs
     id="defs3337">
    <filter
       style="color-interpolation-filters:sRGB"
       id="filter6538"
       x="-0.034247339"
       width="1.0684947"
       y="-0.24189745"
       height="1.4837949">
      <feGaussianBlur
         stdDeviation="7.0258865"
         id="feGaussianBlur6540" />
    </filter>
  </defs>
  <metadata
     id="metadata3340">
    <rdf:RDF>
      <cc:Work
         rdf:about="">
        <dc:format>image/svg+xml</dc:format>
        <dc:type
           rdf:resource="http://purl.org/dc/dcmitype/StillImage" />
        <dc:title></dc:title>
      </cc:Work>
    </rdf:RDF>
  </metadata>
  <g
     id="layer1"
     transform="translate(0,747.63785)">
    <rect
       style="opacity:1;fill:#173f4f;fill-opacity:1;stroke:#000000;stroke-width:0.99999994;stroke-opacity:1"
       id="rect3343"
       width="2699"
       height="1799"
       x="0.49999997"
       y="-747.13782" />
  </g>
  <g
     id="layer6"
     style="display:none">
    <rect
       style="opacity:0.5;fill:#ffffff;fill-opacity:1;stroke:none;stroke-width:1;stroke-miterlimit:4;stroke-dasharray:none;stroke-opacity:1"
       id="rect6559"
       width="2610"
       height="1710"
       x="45"
       y="45" />
  </g>
  <g
     id="layer5"
     transform="translate(0,360)" />
  <g
     id="layer2"
     style="display:none"
     transform="translate(0,360)">
    <g
       transform="matrix(3.6747806,0,0,3.6958389,104.82131,-1463.3273)"
       id="g4145">
      <path
         style="fill:#fdfdfd;fill-opacity:1;stroke:#000000;stroke-width:0.27134871;stroke-miterlimit:4;stroke-dasharray:none;stroke-opacity:1"
         id="path9"
         d="m 393.54436,447.80376 c -9.4,0 -18.5,2.7 -26.6,7.3 -7.9,4.5 -14.8,10.6 -20.9,17.3 -2.4,2.6 -4.7,5.4 -7,8.2 -2.2,2.7 -4.2,5.5 -6.3,8.3 -1,1.4 -2.1,2.9 -3.1,4.3 -2.1,2.9 -4.2,5.7 -6.5,8.3 -2.2,2.4 -4.5,4.7 -6.8,7 -5.8,5.7 -12,11 -18.9,15.4 -5.4,3.4 -11.8,6.7 -18.4,6.7 -17.7,0 -33.5,-14 -33.5,-35.3 0,-21.3 15.2,-32.9 33.5,-32.9 10.6,0 19.9,4.5 29,12.3 l -4.9,5 11.9,3 11.9,3 -3.3,-11.8 -3.3,-11.8 -5.3,5.5 c -9.3,-8.3 -20.8,-15 -35.3,-15 -23.7,0 -43.2,17.1 -43.2,43.2 0,25 19.5,43.2 41.4,43.2 9.1,0 17.9,-2.7 25.6,-7.3 7,-4.1 13.1,-9.5 18.7,-15.4 1.9,-2 3.7,-4 5.5,-6 2.4,-2.6 4.6,-5.2 6.6,-8.2 0.9,-1.3 1.7,-2.6 2.6,-3.9 1.6,-2.4 3.1,-4.8 4.8,-7.1 3.2,-4.3 6.5,-8.5 10,-12.5 6,-6.7 12.8,-12.9 20.7,-17.1 6.3,-3.4 13.3,-5.2 20.5,-5.2 25,0 39,17.4 39,39.6 0,20.7 -13.4,37.8 -36.5,37.8 -13.2,0 -24.8,-3.6 -37,-14.1 l 5.7,-6.9 -12.1,-2 -12.1,-2 4.3,11.5 4.3,11.5 4.8,-5.8 c 11.8,10.7 24.7,17.7 41.5,17.7 28,0 46.3,-21.3 46.3,-48.1 -0.1,-28.2 -19,-47.7 -47.6,-47.7 z" />
      <text
         xml:space="preserve"
         style="font-style:normal;font-weight:normal;line-height:0%;font-family:sans-serif;letter-spacing:0px;word-spacing:0px;display:inline;opacity:0.5;fill:#ffffff;fill-opacity:1;stroke:none;stroke-width:1px;stroke-linecap:butt;stroke-linejoin:miter;stroke-opacity:1;filter:url(#filter6538)"
         x="89.897354"
         y="660.02142"
         id="text4423-7-3"><tspan
           id="tspan4425-0-8"
           x="89.897354"
           y="660.02142"
           style="font-style:normal;font-variant:normal;font-weight:300;font-stretch:normal;font-size:95.35944366px;line-height:0;font-family:'Source Sans Pro';-inkscape-font-specification:'Source Sans Pro Light';fill:#ffffff;fill-opacity:1">Tumbleweed</tspan></text>
      <text
         xml:space="preserve"
         style="font-style:normal;font-weight:normal;line-height:0%;font-family:sans-serif;letter-spacing:0px;word-spacing:0px;display:inline;fill:#73ba25;fill-opacity:1;stroke:none;stroke-width:1px;stroke-linecap:butt;stroke-linejoin:miter;stroke-opacity:1"
         x="89.897354"
         y="660.02142"
         id="text4423-7"><tspan
           id="tspan4425-0"
           x="89.897354"
           y="660.02142"
           style="font-style:normal;font-variant:normal;font-weight:300;font-stretch:normal;font-size:95.35944366px;line-height:0;font-family:'Source Sans Pro';-inkscape-font-specification:'Source Sans Pro Light';fill:#73ba25;fill-opacity:1">Tumbleweed</tspan></text>
    </g>
    <text
       xml:space="preserve"
       style="font-style:normal;font-weight:normal;line-height:0%;font-family:sans-serif;text-align:center;letter-spacing:0px;word-spacing:0px;text-anchor:middle;fill:#000000;fill-opacity:1;stroke:none;stroke-width:1px;stroke-linecap:butt;stroke-linejoin:miter;stroke-opacity:1"
       x="1351.1886"
       y="1274.2206"
       id="text4384"><tspan
         x="1351.1886"
         y="1274.2206"
         id="tspan4392"
         style="font-style:normal;font-variant:normal;font-weight:normal;font-stretch:normal;font-size:106.91806793px;line-height:129.99999523%;font-family:'Source Sans Pro';-inkscape-font-specification:'Source Sans Pro';fill:#ffffff;fill-opacity:1">Always rolling.</tspan><tspan
         x="1351.1886"
         y="1382.2842"
         id="tspan4396"
         style="font-style:normal;font-variant:normal;font-weight:300;font-stretch:normal;font-size:72.55155182px;line-height:129.99999523%;font-family:'Source Sans Pro';-inkscape-font-specification:'Source Sans Pro Light';fill:#ffffff;fill-opacity:1">Get the newest Linux packages with our rolling release. Fast! Integrated! Stabilized! Tested!</tspan></text>
  </g>
  <g
     id="layer3"
     style="display:inline"
     transform="translate(0,403.21208)">
    <path
       style="fill:#73ba25;fill-opacity:1;stroke:#000000;stroke-width:0.84203523;stroke-miterlimit:4;stroke-dasharray:none;stroke-opacity:1"
       d="m 1445.2891,515.37695 -196.5079,150.90235 195.4141,147.66992 196.5059,-150.90234 z m 217.6523,187.19141 -218.7461,167.78906 -217.6523,-164.19726 -52.1348,39.88281 273.0684,206.23242 270.8789,-207.66992 z"
       transform="matrix(0.9375,0,0,0.9375,0,-360)"
       id="polygon17" />
    <text
       id="text4423"
       y="830.57196"
       x="1061.7188"
       style="font-style:normal;font-weight:normal;font-size:9.09577084px;line-height:0%;font-family:sans-serif;letter-spacing:0px;word-spacing:0px;fill:#73ba25;fill-opacity:1;stroke:none;stroke-width:1.13697135;stroke-linecap:butt;stroke-linejoin:miter;stroke-miterlimit:4;stroke-dasharray:none;stroke-opacity:1"
       xml:space="preserve"
       transform="scale(1.0073276,0.9927257)"><tspan
         style="font-style:normal;font-variant:normal;font-weight:300;font-stretch:normal;font-size:284.24285889px;line-height:0;font-family:'Source Sans Pro';-inkscape-font-specification:'Source Sans Pro Light';fill:#73ba25;fill-opacity:1;stroke:none;stroke-width:1.13697135;stroke-miterlimit:4;stroke-dasharray:none;stroke-opacity:1"
         y="830.57196"
         x="1061.7188"
         id="tspan4425">Leap</tspan></text>
    <text
       xml:space="preserve"
       style="font-style:normal;font-weight:normal;font-size:10.11919594px;line-height:0%;font-family:sans-serif;text-align:center;letter-spacing:0px;word-spacing:0px;text-anchor:middle;display:inline;fill:#000000;fill-opacity:1;stroke:none;stroke-width:0.84326631px;stroke-linecap:butt;stroke-linejoin:miter;stroke-opacity:1"
       x="1368.0603"
       y="1144.9534"
       id="text4384-4"><tspan
         x="1368.0603"
         y="1144.9534"
         id="tspan4396-9"
         style="font-style:normal;font-variant:normal;font-weight:normal;font-stretch:normal;font-size:92.01378632px;line-height:129.99999523%;font-family:'Source Sans Pro';-inkscape-font-specification:'Source Sans Pro';fill:#ffffff;fill-opacity:1;stroke-width:0.84326631px">Rock solid.</tspan><tspan
         x="1368.0603"
         y="1237.953"
         style="font-style:normal;font-variant:normal;font-weight:300;font-stretch:normal;font-size:62.43792343px;line-height:129.99999523%;font-family:'Source Sans Pro';-inkscape-font-specification:'Source Sans Pro Light';fill:#ffffff;fill-opacity:1;stroke-width:0.84326631px"
         id="tspan4421">Get the most complete Linux distribution with openSUSE’s latest regular-release version!</tspan></text>
  </g>
  <g
     id="layer4"
     transform="translate(0,360)">
    <path
       style="clip-rule:evenodd;fill:#ffffff;fill-opacity:1;fill-rule:evenodd;stroke-width:1.05010021"
       d="m 270.94733,-254.17448 c -23.6607,0.11336 -53.97116,3.95606 -91.11556,26.79576 l -1.46353,0.9115 c -23.30152,14.53491 -39.38942,32.45943 -47.79873,53.28198 -2.63743,6.55286 -6.18472,21.33791 -2.66888,35.2503 1.51393,6.08137 4.33818,12.19231 8.145,17.66224 8.60452,12.35981 23.04349,20.56087 38.5896,21.94585 21.9515,1.96327 38.57314,-7.89497 44.4851,-26.35642 4.06473,-12.73738 -0.001,-31.42717 -15.58391,-40.96178 -12.67471,-7.76103 -26.30247,-5.99794 -34.20899,-0.76743 -6.85851,4.54722 -10.74366,11.61439 -10.67551,19.3754 0.15835,13.76691 12.01785,21.08357 20.54508,21.10568 2.47708,0 4.96492,-0.43022 7.76984,-1.34372 0.99823,-0.30388 1.93763,-0.6814 2.97272,-1.32231 l 0.3238,-0.18972 0.2054,-0.13694 -0.0685,0.0414 c 1.943,-1.32419 3.11249,-3.47756 3.11249,-5.78709 0,-0.62986 -0.0889,-1.26866 -0.26959,-1.91144 -1.00736,-3.48638 -4.45161,-5.59561 -8.0209,-4.94548 l -0.48213,0.11412 -0.65189,0.1997 -0.94716,0.32523 c -1.96327,0.48253 -3.43235,0.52529 -3.74727,0.53635 -0.99823,-0.0645 -5.90691,-1.53371 -5.90691,-6.9097 v -0.0742 c 0,-1.97433 0.79318,-3.35979 1.2296,-4.11672 1.52685,-2.39425 5.70733,-4.74398 11.35592,-4.25224 7.41298,0.64093 12.75735,4.44245 16.29713,11.61412 3.28566,6.66704 2.42586,14.86829 -2.21527,20.87601 -4.60983,5.95245 -12.81764,8.48269 -23.73176,7.30768 -11.0061,-1.21739 -20.30845,-7.551 -25.52051,-17.40976 -5.09981,-9.63775 -5.37808,-21.06355 -0.72036,-29.84122 11.14062,-21.03251 32.18488,-20.81368 43.72338,-18.81908 17.07463,2.96149 36.49967,18.71223 43.38959,36.89926 1.11237,2.89887 1.67847,5.19771 2.1739,7.29912 l 0.7446,3.1396 19.28981,9.41882 0.25249,0.18971 0.46787,-0.0428 0.0856,-0.55631 c -0.11972,-0.43096 -0.40022,-0.82834 -0.84588,-6.22643 -0.3666,-4.79033 -1.11224,-17.9056 5.49038,-24.40504 2.56371,-2.53974 6.46945,-4.80611 9.55432,-5.53176 12.64342,-3.08857 27.46934,-0.95835 41.48671,15.26724 7.2564,8.37985 10.79443,12.20115 12.56984,13.91212 l 0.61908,0.55774 0.7289,0.54633 c 0.58197,0.31678 24.10549,11.15336 24.10549,11.15336 l 0.48357,-0.11696 0.0114,-0.50211 c -0.15657,-0.17865 -14.91085,-19.24577 -12.28455,-34.94646 2.06828,-12.50533 12.02035,-11.37265 25.78727,-9.81822 4.4938,0.52488 9.61096,1.11171 14.90778,1.22959 14.78908,0.094 30.71988,-2.63761 40.53812,-6.93252 6.35205,-2.76074 10.40532,-4.59875 12.94499,-6.90827 0.91348,-0.75695 1.3865,-1.98556 1.88005,-3.30793 l 0.34662,-0.87298 c 0.4107,-1.07188 1.01428,-3.32982 1.27953,-4.56748 0.1068,-0.54514 0.17029,-1.12071 -0.21825,-1.42644 l -1.3594,0.25248 c -4.3115,2.59499 -15.08921,7.50853 -25.16534,7.71849 -12.51078,0.25232 -37.69643,-12.58162 -40.32273,-13.94634 l -0.25248,-0.29242 c -0.61883,-1.51206 -4.39948,-10.44771 -5.20795,-12.33732 18.13544,11.94912 33.17606,18.55377 44.69051,19.57224 12.81753,1.14179 22.80758,-5.85267 27.07534,-8.84396 0,0 10e-4,0 10e-4,0 0.84475,-0.5577 1.46465,-1.02095 1.72601,-1.12403 l 0.28243,-0.44078 c -0.7146,-4.49381 -7.41334,-26.28329 -12.47997,-31.52299 -1.396,-1.42734 -2.51366,-2.83389 -4.77715,-4.15809 -18.32887,-10.68017 -61.81221,-17.12649 -63.84909,-17.42117 l -0.3452,0.0956 -0.13123,0.31524 c 0,0 -0.16828,9.01049 -0.194,10.01792 -4.44046,-1.49179 -36.72399,-11.91945 -66.98726,-12.96923 -6.41611,-0.22561 -13.56397,-0.60266 -21.45088,-0.56488 z m 136.79746,21.50651 c 0.30867,-0.005 0.61794,-0.003 0.92862,0.007 10.24919,0.3665 18.30359,9.01885 17.95181,19.257 -0.19333,4.96715 -2.27276,9.57748 -5.8955,12.94784 -3.63365,3.41272 -8.36289,5.16586 -13.3558,4.99826 -10.23816,-0.37755 -18.28304,-9.00964 -17.94039,-19.257 0.18408,-4.96714 2.26351,-9.57642 5.89549,-12.95782 3.40656,-3.18044 7.78579,-4.92087 12.41577,-4.99541 z m 0.77314,5.4861 c -3.4772,-0.12523 -6.77389,1.10333 -9.29329,3.46626 -2.5195,2.36294 -4.00601,5.5647 -4.11101,9.03083 -0.24121,7.16246 5.36684,13.18801 12.51277,13.45137 3.47531,0.10501 6.78903,-1.1233 9.32324,-3.48623 2.53053,-2.37399 3.98475,-5.57759 4.09532,-9.03082 0.24121,-7.16064 -5.36451,-13.17725 -12.52703,-13.43141 z m 2.12112,6.51315 c 3.18244,0 5.76141,1.71196 5.76141,3.84284 0,2.11063 -2.58077,3.83285 -5.76141,3.83285 -3.18255,0 -5.75285,-1.72222 -5.75285,-3.83285 0,-2.13088 2.5703,-3.84284 5.75285,-3.84284 z m -9.59712,113.51503 v 0.004 c -2.42552,0 -4.25794,1.79772 -4.25794,4.1809 v 41.331237 c 0,2.37214 1.7902,4.15808 4.16237,4.15808 h 32.93517 c 2.53611,0 4.36921,-1.75279 4.36921,-4.15808 v -1.09409 c 0,-2.41449 -1.8331,-4.17948 -4.36921,-4.17948 H 406.90747 V -77.43257 h 19.76624 c 2.53053,0 4.36777,-1.77562 4.36777,-4.18091 v -1.09266 c 0,-2.41634 -1.83724,-4.1695 -4.36777,-4.1695 h -19.76624 v -10.83669 h 25.60468 c 2.52685,0 4.36777,-1.7421 4.36777,-4.16951 v -1.09265 c 0,-2.41635 -1.84092,-4.17948 -4.36777,-4.17948 z m -146.76117,0.004 c -8.17356,0 -12.66968,6.91084 -12.66968,11.68828 v 6.13229 c 0,7.03539 5.74778,11.39587 11.07776,11.39587 h 18.71211 c 2.35737,0 2.85146,1.54222 2.85146,2.84432 v 3.958386 c 0,0.41991 -0.0856,4.220851 -2.85146,4.220851 h -25.52052 c -2.5361,0 -4.3692,1.76497 -4.3692,4.17948 v 1.09408 c 0,2.4053 1.8331,4.15809 4.3692,4.15809 h 26.90702 c 7.03357,0 11.57132,-4.89371 11.57132,-12.47426 v -6.617267 c 0,-7.11826 -5.11439,-10.30036 -10.19194,-10.30036 H 255.7557 c -2.77173,0 -4.02827,-2.07929 -4.02827,-3.54899 v -3.65456 c 0,-2.30032 1.53756,-3.63315 4.22655,-3.63315 h 20.38104 c 2.49924,0 4.37918,-1.79551 4.37918,-4.16949 v -1.09267 c 0,-2.38318 -1.91076,-4.1809 -4.46334,-4.1809 z m 43.11999,0 c -2.45135,0 -4.37919,1.9348 -4.37919,4.38061 v 32.518646 c 0,7.571331 5.95786,13.063381 14.1646,13.063381 h 15.21018 c 8.19572,0 14.15033,-5.4902 14.15033,-13.063381 v -32.518646 c 0,-2.44581 -1.92152,-4.38061 -4.3692,-4.38061 h -1.38508 c -2.41628,0 -4.36207,1.96427 -4.36207,4.38061 v 31.333276 c 0,2.510281 -2.04856,4.526111 -4.52753,4.526111 h -14.22308 c -2.48811,0 -4.52611,-2.01583 -4.52611,-4.526111 v -31.333276 c 0,-2.41634 -1.96327,-4.38061 -4.37776,-4.38061 z m 60.62389,0 c -8.16987,0 -12.67823,6.91084 -12.67824,11.68828 v 6.13229 c 0,7.03539 5.75837,11.39587 11.09203,11.39587 h 18.7064 c 2.36116,0 2.85717,1.54222 2.85717,2.84432 v 3.958386 c 0,0.41991 -0.0856,4.220851 -2.85717,4.220851 h -25.5305 c -2.52497,0 -4.3692,1.76497 -4.3692,4.17948 v 1.09408 c 0,2.4053 1.84423,4.15809 4.3692,4.15809 h 26.91558 c 7.03545,0 11.59414,-4.89371 11.59414,-12.47426 v -6.617267 c 0,-7.11826 -5.12855,-10.30036 -10.20621,-10.30036 h -18.41255 c -2.77919,0 -4.03113,-2.07929 -4.03113,-3.54899 v -3.65456 c 0,-2.30032 1.53767,-3.63315 4.22656,-3.63315 h 20.39102 c 2.49367,0 4.36777,-1.79551 4.36777,-4.16949 v -1.09267 c 0,-2.38318 -1.90971,-4.1809 -4.47333,-4.1809 z m -197.06473,19.4781 c -2.90625,0 -5.09807,1.03916 -6.85692,1.89004 -1.07188,0.51384 -2.00011,0.95714 -2.72023,0.95714 -0.32599,0 -0.6044,-0.14673 -0.75174,-0.38799 l -0.669,-1.28238 c -0.1676,-0.33703 -0.84117,-0.99566 -1.67179,-0.99566 h -0.99566 c -0.9577,0 -1.72457,0.86024 -1.72457,1.91002 v 39.525347 c 0,1.23948 0.97905,2.21527 2.21669,2.21527 h 0.86158 c 1.22843,0 2.22668,-0.98684 2.22668,-2.21527 v -13.11473 c 0,-0.38861 0.25181,-0.8088 0.50781,-0.8088 0.72012,0 1.64835,0.42119 2.72023,0.91292 1.75885,0.80853 3.95067,1.80589 6.85692,1.80589 h 0.93004 c 5.14577,0 8.34755,-2.94169 8.34755,-7.66571 V -80.01301 c 0,-4.6522 -3.26992,-7.65573 -8.34755,-7.65573 h -0.93004 z m 62.77924,0 c -2.89703,0 -5.08398,1.03981 -6.84835,1.88148 -1.09767,0.51568 -2.03396,0.9657 -2.80011,0.9657 -0.33704,0 -0.4731,-0.0419 -0.73462,-0.49497 l -0.61052,-1.11263 c -0.34993,-0.70354 -0.9444,-1.05843 -1.7474,-1.05843 h -0.85729 c -1.03505,0 -1.78876,0.80682 -1.78876,1.91002 v 25.925617 c 0,1.22843 0.97044,2.21528 2.22097,2.21528 h 0.85587 c 1.22843,0 2.23096,-0.9979 2.23096,-2.21528 V -79.26841 c 0,-1.83804 1.49983,-3.34929 3.33788,-3.34929 h 7.36616 c 1.84357,0 3.34359,1.51125 3.34359,3.34929 v 19.613607 c 0,1.22843 0.97721,2.21528 2.21669,2.21528 h 0.86443 c 1.22843,0 2.22667,-0.9979 2.22667,-2.21528 V -80.01444 c 0,-4.6522 -3.27051,-7.65715 -8.35183,-7.65715 z m -38.5896,0.17688 v 0.004 c -4.1273,0 -7.47742,3.21246 -7.47742,7.17217 v 15.465507 c 0,4.01128 3.25615,7.41324 7.09799,7.41324 h 10.4002 c 1.28553,0 2.21528,-0.89115 2.21528,-2.10116 v -0.68184 c 0,-1.21738 -0.92975,-2.08974 -2.21528,-2.08974 h -8.54439 c -2.39425,0 -3.65741,-1.17721 -3.65741,-3.41491 v -4.524681 h 15.41416 c 2.47896,0 3.94412,-1.51209 3.94412,-4.073926 v -5.99677 c 0,-3.95787 -3.35528,-7.17216 -7.46601,-7.17216 z m -64.07446,0.004 c -4.1273,0 -7.48598,3.21246 -7.48598,7.17217 v 15.582477 c 0,4.02233 3.25086,7.29911 7.23636,7.29911 h 10.07925 c 3.9855,0 7.23636,-3.27678 7.23636,-7.29911 V -80.31854 c 0,-3.95787 -3.36052,-7.17217 -7.48598,-7.17217 z m 0.86586,4.87274 h 7.854 c 1.63913,0 3.03405,1.39676 3.03405,3.03405 v 14.228787 c 0,1.67965 -1.35808,3.04402 -3.03405,3.04402 h -7.91249 c -1.67965,0 -2.98697,-1.33491 -2.98697,-3.04402 V -79.58392 c 0,-1.6686 1.36949,-3.03405 3.04546,-3.03405 z m 32.28329,0 h 7.36188 c 1.8804,0 3.34786,1.47073 3.34786,3.34929 v 13.609707 c 0,1.84725 -1.50614,3.34786 -3.34786,3.34786 h -7.36188 c -1.84357,0 -3.34787,-1.50061 -3.34787,-3.34786 V -79.26868 c 0,-1.8804 1.46931,-3.34929 3.34787,-3.34929 z m 31.73126,0 h 8.0965 c 1.6686,0 2.97127,1.31225 2.97127,2.9827 v 4.82851 h -14.05475 c 0.002,-0.62987 10e-4,-4.82851 10e-4,-4.82851 0,-1.67045 1.31326,-2.9827 2.98555,-2.9827 z m 259.61718,15.128867 c -2.24322,0 -4.06679,1.82525 -4.06679,4.10531 0,2.31505 1.82357,4.11957 4.06679,4.11957 2.25979,0 4.04825,-1.80452 4.04825,-4.11957 0,-2.2819 -1.78649,-4.10531 -4.02971,-4.10531 z m 0,0.63619 h 0.0185 c 1.82331,0 3.28225,1.551 3.28225,3.48481 0,1.93381 -1.45894,3.48509 -3.28225,3.46483 -1.82331,0 -3.30079,-1.53115 -3.30079,-3.48337 0,-1.9154 1.47735,-3.46627 3.28225,-3.46627 z m -0.1997,1.16826 c -0.547,0 -0.91215,0.0546 -1.29522,0.10984 v 4.57746 h 0.72892 0.001 v -1.96849 h 0.51067 c 0.58383,0 0.87517,0.2211 0.98567,0.80309 0.0902,0.60224 0.19904,1.02133 0.30954,1.16683 h 0.76601 c -0.0737,-0.1455 -0.18049,-0.41843 -0.291,-1.13117 -0.0921,-0.67592 -0.36451,-1.03938 -0.766,-1.11121 v -0.0399 c 0.49173,-0.14734 0.89295,-0.5108 0.89295,-1.11121 0,-0.44016 -0.14781,-0.74967 -0.42223,-0.94858 -0.27257,-0.20075 -0.7264,-0.34663 -1.42073,-0.34663 z m -0.0371,0.56345 c 0.8214,0 1.11263,0.40159 1.11263,0.80309 0,0.56725 -0.51039,0.78454 -1.11263,0.78454 h -0.52921 v -1.54912 c 0.12708,-0.0203 0.29162,-0.0385 0.52921,-0.0385 z"
       id="Geeko" />
    <text
       xml:space="preserve"
       style="font-style:normal;font-weight:normal;font-size:14.48846722px;line-height:0%;font-family:sans-serif;letter-spacing:0px;word-spacing:0px;fill:#ffffff;fill-opacity:1;stroke:none;stroke-width:1.20737231px;stroke-linecap:butt;stroke-linejoin:miter;stroke-opacity:1"
       x="872.08618"
       y="-131.38538"
       id="text4372"><tspan
         id="tspan4374"
         x="872.08618"
         y="-131.38538"
         style="font-style:normal;font-variant:normal;font-weight:300;font-stretch:normal;font-size:65.80825043px;line-height:0;font-family:'Source Sans Pro';-inkscape-font-specification:'Source Sans Pro Light';fill:#ffffff;fill-opacity:1;stroke-width:1.20737231px">The makers' choice for sysadmins, developers and desktop users.</tspan></text>
  </g>
</svg>
