<?xml version="1.0" encoding="UTF-8" standalone="no"?>
<!-- Created with Inkscape (http://www.inkscape.org/) -->

<svg
   xmlns:dc="http://purl.org/dc/elements/1.1/"
   xmlns:cc="http://creativecommons.org/ns#"
   xmlns:rdf="http://www.w3.org/1999/02/22-rdf-syntax-ns#"
   xmlns:svg="http://www.w3.org/2000/svg"
   xmlns="http://www.w3.org/2000/svg"
   xmlns:sodipodi="http://sodipodi.sourceforge.net/DTD/sodipodi-0.dtd"
   xmlns:inkscape="http://www.inkscape.org/namespaces/inkscape"
   width="1667.0406mm"
   height="46.398659mm"
   viewBox="0 0 1667.0406 46.398659"
   version="1.1"
   id="svg8"
   inkscape:version="0.92.2 5c3e80d, 2017-08-06"
   sodipodi:docname="side.svg">
  <defs
     id="defs2" />
  <sodipodi:namedview
     id="base"
     pagecolor="#ffffff"
     bordercolor="#666666"
     borderopacity="1.0"
     inkscape:pageopacity="0.0"
     inkscape:pageshadow="2"
     inkscape:zoom="0.24748737"
     inkscape:cx="1501.0669"
     inkscape:cy="-1278.7739"
     inkscape:document-units="mm"
     inkscape:current-layer="layer1"
     showgrid="false"
     inkscape:snap-bbox="true"
     inkscape:window-width="2560"
     inkscape:window-height="1357"
     inkscape:window-x="0"
     inkscape:window-y="0"
     inkscape:window-maximized="1" />
  <metadata
     id="metadata5">
    <rdf:RDF>
      <cc:Work
         rdf:about="">
        <dc:format>image/svg+xml</dc:format>
        <dc:type
           rdf:resource="http://purl.org/dc/dcmitype/StillImage" />
        <dc:title></dc:title>
      </cc:Work>
    </rdf:RDF>
  </metadata>
  <g
     inkscape:label="Ebene 1"
     inkscape:groupmode="layer"
     id="layer1"
     transform="translate(186.92573,-102.19947)">
    <path
       style="opacity:1;fill:none;fill-opacity:1;stroke:#000000;stroke-width:0.27943748;stroke-linecap:round;stroke-linejoin:round;stroke-miterlimit:4;stroke-dasharray:none;stroke-opacity:1"
       d="m -186.78601,102.33919 v 23.05974 23.05948 h 54.55997 l 27.27999,-23.05948 h 54.559462 l 27.279988,23.05948 h 54.559459 l 27.279989,-23.05948 h 54.559462 l 27.27999,23.05948 h 54.55946 5.3e-4 l 27.27997,-23.05948 h 54.55894 l 27.28,23.05948 v 0 h 54.55896 v 0 l 27.28,-23.05948 h 54.55893 l 27.28,23.05948 v 0 h 54.55896 v 0 l 27.27999,-23.05948 h 54.55894 l 27.28,23.05948 v 0 h 54.55896 v 0 l 27.28301,-23.05948 h 54.55893 l 27.28,23.05948 v 0 h 54.55944 l 27.27999,-23.05948 h 54.55947 l 27.27947,23.05948 v 0 h 54.55945 l 27.28,-23.05948 h 54.5594 l 27.2795,23.05948 v 0 h 54.5594 v 0 l 27.2795,-23.05948 h 54.56 l 27.2795,23.05948 h 54.5599 l 27.2795,-23.05948 h 54.56 l 27.2795,23.05948 h 29.9733 v -23.05948 -23.05974 z"
       id="path815"
       inkscape:connector-curvature="0"
       sodipodi:nodetypes="cccccccccccccccccccccccccccccccccccccccccccccccccccccccccc" />
  </g>
</svg>
