<?xml version="1.0" encoding="UTF-8" standalone="no"?>
<!-- Created with Inkscape (http://www.inkscape.org/) -->

<svg
   xmlns:dc="http://purl.org/dc/elements/1.1/"
   xmlns:cc="http://creativecommons.org/ns#"
   xmlns:rdf="http://www.w3.org/1999/02/22-rdf-syntax-ns#"
   xmlns:svg="http://www.w3.org/2000/svg"
   xmlns="http://www.w3.org/2000/svg"
   xmlns:sodipodi="http://sodipodi.sourceforge.net/DTD/sodipodi-0.dtd"
   xmlns:inkscape="http://www.inkscape.org/namespaces/inkscape"
   width="210mm"
   height="210mm"
   viewBox="0 0 210 210"
   version="1.1"
   id="svg8"
   inkscape:version="0.92.2 5c3e80d, 2017-08-06"
   sodipodi:docname="tarmac.svg"
   inkscape:export-filename="/home/simon/Dokumente/opensuse/flyer-152-2/blender/tarmac.png"
   inkscape:export-xdpi="495.42001"
   inkscape:export-ydpi="495.42001">
  <defs
     id="defs2" />
  <sodipodi:namedview
     id="base"
     pagecolor="#ffffff"
     bordercolor="#666666"
     borderopacity="1.0"
     inkscape:pageopacity="0.0"
     inkscape:pageshadow="2"
     inkscape:zoom="0.98994949"
     inkscape:cx="608.70036"
     inkscape:cy="450.818"
     inkscape:document-units="mm"
     inkscape:current-layer="layer1"
     showgrid="false"
     inkscape:snap-global="false"
     inkscape:window-width="2560"
     inkscape:window-height="1357"
     inkscape:window-x="0"
     inkscape:window-y="0"
     inkscape:window-maximized="1" />
  <metadata
     id="metadata5">
    <rdf:RDF>
      <cc:Work
         rdf:about="">
        <dc:format>image/svg+xml</dc:format>
        <dc:type
           rdf:resource="http://purl.org/dc/dcmitype/StillImage" />
        <dc:title></dc:title>
      </cc:Work>
    </rdf:RDF>
  </metadata>
  <g
     inkscape:label="Ebene 1"
     inkscape:groupmode="layer"
     id="layer1"
     transform="translate(0,-87)">
    <path
       style="opacity:1;fill:#ffcc00;fill-opacity:1;stroke:none;stroke-width:1.54857135;stroke-linecap:round;stroke-linejoin:round;stroke-miterlimit:4;stroke-dasharray:none;stroke-opacity:1"
       d="M 0.08203125 0.08203125 L 0.08203125 38.751953 L 10.082031 38.751953 L 10.082031 10.082031 L 38.751953 10.082031 L 38.751953 0.08203125 L 0.08203125 0.08203125 z M 754.94922 0.08203125 L 754.94922 10.082031 L 783.70898 10.082031 L 783.70898 38.751953 L 793.70898 38.751953 L 793.70898 0.08203125 L 754.94922 0.08203125 z M 0.08203125 754.94922 L 0.08203125 793.70898 L 38.751953 793.70898 L 38.751953 783.70898 L 10.082031 783.70898 L 10.082031 754.94922 L 0.08203125 754.94922 z M 783.70898 754.94922 L 783.70898 783.70898 L 754.94922 783.70898 L 754.94922 793.70898 L 793.70898 793.70898 L 793.70898 754.94922 L 783.70898 754.94922 z "
       transform="matrix(0.26458333,0,0,0.26458333,0,87)"
       id="rect815" />
    <path
       style="opacity:0.2;fill:#4d4d4d;fill-opacity:1;stroke:none;stroke-width:1.51181102;stroke-linecap:round;stroke-linejoin:round;stroke-miterlimit:4;stroke-dasharray:none;stroke-opacity:1"
       d="M 444.07812 436.13867 C 428.2498 436.18725 412.42242 436.44856 396.60742 437.1543 C 375.48876 438.10489 354.37469 439.32337 333.34375 441.52344 C 313.12904 443.66363 292.94466 446.1854 272.95312 449.91602 C 254.52649 453.4103 236.15263 457.31307 218.2168 462.85938 C 202.52376 467.81226 186.96058 473.23727 172.04102 480.23242 C 159.30671 486.29233 146.74654 492.733 134.77344 500.20898 C 124.34666 506.72561 114.01143 513.41838 104.27148 520.93945 C 96.308882 527.18055 88.487391 533.63911 81.53125 541.01172 C 76.341445 546.60005 71.411902 552.436 67.226562 558.82812 C 64.353577 563.22421 61.554489 567.68305 59.419922 572.49609 C 58.628477 574.26816 57.920351 576.08955 56.996094 577.79688 L 64.667969 582.61133 C 65.853308 580.5417 66.67047 578.28444 67.615234 576.09961 C 69.509364 571.70837 72.043218 567.65415 74.636719 563.65234 C 78.52716 557.66353 83.113084 552.19016 87.947266 546.95117 C 94.56667 539.89117 102.02464 533.71257 109.61133 527.73438 C 119.09216 520.37953 129.1562 513.83113 139.31445 507.46289 C 151.00292 500.14486 163.26347 493.8309 175.69336 487.88672 C 190.24675 481.02922 205.43126 475.71062 220.74414 470.84766 C 238.35551 465.36942 256.40319 461.5148 274.50195 458.0625 C 294.26667 454.35066 314.22462 451.84287 334.21289 449.71484 C 355.07667 447.51841 376.02441 446.30559 396.97656 445.36328 C 417.92792 444.42921 438.90093 444.28536 459.86914 444.38477 C 480.08523 444.55545 500.28896 445.28459 520.48438 446.17188 C 533.52529 446.78832 527.02157 446.47473 539.99805 447.11914 L 540.40625 438.83984 C 527.40074 438.20503 533.92098 438.51637 520.8457 437.9082 C 500.54238 437.03105 480.22979 436.31108 459.90625 436.15234 C 454.63031 436.12998 449.35423 436.12248 444.07812 436.13867 z M 484.48438 491.69727 C 468.65605 491.74584 452.82867 492.00715 437.01367 492.71289 C 415.89503 493.66348 394.78095 494.88197 373.75 497.08203 C 353.53529 499.22223 333.35091 501.74399 313.35938 505.47461 C 294.93274 508.9689 276.55888 512.87166 258.62305 518.41797 C 242.93001 523.37085 227.36683 528.79587 212.44727 535.79102 C 199.71296 541.85092 187.15279 548.2916 175.17969 555.76758 C 164.75291 562.2842 154.41768 568.97698 144.67773 576.49805 C 136.71513 582.73914 128.89364 589.19575 121.9375 596.56836 C 116.74769 602.15669 111.81815 607.99459 107.63281 614.38672 C 104.75983 618.7828 101.96074 623.24165 99.826172 628.05469 C 99.034727 629.82676 98.326601 631.64814 97.402344 633.35547 L 105.07422 638.16797 C 106.25956 636.09834 107.07672 633.84303 108.02148 631.6582 C 109.91561 627.26696 112.44947 623.21274 115.04297 619.21094 C 118.93341 613.22212 123.51933 607.74876 128.35352 602.50977 C 134.97292 595.44976 142.43089 589.27116 150.01758 583.29297 C 159.49841 575.93812 169.56245 569.38972 179.7207 563.02148 C 191.40917 555.70345 203.66777 549.38949 216.09766 543.44531 C 230.65104 536.58781 245.83751 531.26726 261.15039 526.4043 C 278.76176 520.92606 296.80944 517.07339 314.9082 513.62109 C 334.67292 509.90926 354.63087 507.40146 374.61914 505.27344 C 395.48292 503.077 416.43066 501.86419 437.38281 500.92188 C 458.33417 499.9878 479.30718 499.84396 500.27539 499.94336 C 520.49148 500.11404 540.69521 500.84319 560.89062 501.73047 C 573.93154 502.34691 567.42782 502.03332 580.4043 502.67773 L 580.8125 494.39844 C 567.80699 493.76363 574.32723 494.07496 561.25195 493.4668 C 540.94863 492.58964 520.63604 491.86968 500.3125 491.71094 C 495.03656 491.68857 489.76048 491.68107 484.48438 491.69727 z "
       transform="matrix(0.26458333,0,0,0.26458333,0,87)"
       id="path828" />
    <path
       style="opacity:1;fill:#ffcc00;fill-opacity:1;stroke:none;stroke-width:0.40000001;stroke-linecap:round;stroke-linejoin:round;stroke-miterlimit:4;stroke-dasharray:none;stroke-opacity:1"
       d="m 0,127.81827 v 2.13837 h 11.225154 v -2.13837 z m 30.736108,0 v 2.13837 h 22.517489 v -2.13837 z m 42.027925,0 v 2.13837 h 22.517488 v -2.13837 z m 42.028447,0 v 2.13837 h 22.51748 v -2.13837 z m 42.02792,0 v 2.13837 h 22.51749 v -2.13837 z m 42.02792,0 v 2.13837 h 11.15178 v -2.13837 z"
       id="rect833"
       inkscape:connector-curvature="0" />
    <path
       id="path853"
       d="m 168.61031,86.999949 h -2.13837 v 11.225155 h 2.13837 z m 0,30.736111 h -2.13837 v 22.51749 h 2.13837 z m 0,42.02792 h -2.13837 v 22.51749 h 2.13837 z m 0,42.02844 h -2.13837 v 22.51749 h 2.13837 z m 0,42.02793 h -2.13837 v 22.51749 h 2.13837 z m 0,42.02792 h -2.13837 v 11.15178 h 2.13837 z"
       style="opacity:1;fill:#ffcc00;fill-opacity:1;stroke:none;stroke-width:0.40000001;stroke-linecap:round;stroke-linejoin:round;stroke-miterlimit:4;stroke-dasharray:none;stroke-opacity:1"
       inkscape:connector-curvature="0" />
  </g>
</svg>
