<?xml version="1.0" encoding="UTF-8" standalone="no"?>
<!-- Created with Inkscape (http://www.inkscape.org/) -->

<svg
   xmlns:dc="http://purl.org/dc/elements/1.1/"
   xmlns:cc="http://creativecommons.org/ns#"
   xmlns:rdf="http://www.w3.org/1999/02/22-rdf-syntax-ns#"
   xmlns:svg="http://www.w3.org/2000/svg"
   xmlns="http://www.w3.org/2000/svg"
   xmlns:sodipodi="http://sodipodi.sourceforge.net/DTD/sodipodi-0.dtd"
   xmlns:inkscape="http://www.inkscape.org/namespaces/inkscape"
   width="43.942001mm"
   height="50.799999mm"
   viewBox="0 0 43.942001 50.800001"
   version="1.1"
   id="svg8"
   inkscape:version="0.92.2 5c3e80d, 2017-08-06"
   sodipodi:docname="opensuse-leap-logo-green-hex-stickers.svg"
   inkscape:export-filename="/home/cho2/Pictures/stiker/opensuse-leap-logo-green-hex-stickers.png"
   inkscape:export-xdpi="300"
   inkscape:export-ydpi="300">
  <defs
     id="defs2" />
  <sodipodi:namedview
     id="base"
     pagecolor="#ffffff"
     bordercolor="#666666"
     borderopacity="1.0"
     inkscape:pageopacity="0.0"
     inkscape:pageshadow="2"
     inkscape:zoom="3.8517521"
     inkscape:cx="85.230251"
     inkscape:cy="87.905341"
     inkscape:document-units="mm"
     inkscape:current-layer="layer1"
     showgrid="true"
     units="mm"
     borderlayer="true"
     inkscape:showpageshadow="false"
     showborder="false"
     inkscape:window-width="2048"
     inkscape:window-height="1089"
     inkscape:window-x="0"
     inkscape:window-y="27"
     inkscape:window-maximized="1">
    <inkscape:grid
       type="xygrid"
       id="grid816" />
  </sodipodi:namedview>
  <metadata
     id="metadata5">
    <rdf:RDF>
      <cc:Work
         rdf:about="">
        <dc:format>image/svg+xml</dc:format>
        <dc:type
           rdf:resource="http://purl.org/dc/dcmitype/StillImage" />
        <dc:title></dc:title>
      </cc:Work>
    </rdf:RDF>
  </metadata>
  <g
     inkscape:label="Layer 1"
     inkscape:groupmode="layer"
     id="layer1"
     transform="translate(0,-246.19998)">
    <path
       sodipodi:type="star"
       style="color:#000000;clip-rule:nonzero;display:inline;overflow:visible;visibility:visible;opacity:1;isolation:auto;mix-blend-mode:normal;color-interpolation:sRGB;color-interpolation-filters:linearRGB;solid-color:#000000;solid-opacity:1;vector-effect:none;fill:#64b345;fill-opacity:1;fill-rule:nonzero;stroke:none;stroke-width:3.01568317;stroke-linecap:butt;stroke-linejoin:miter;stroke-miterlimit:4;stroke-dasharray:none;stroke-dashoffset:0;stroke-opacity:1;marker:none;marker-start:none;marker-mid:none;marker-end:none;paint-order:normal;color-rendering:auto;image-rendering:auto;shape-rendering:auto;text-rendering:auto;enable-background:accumulate"
       id="path7642"
       sodipodi:sides="6"
       sodipodi:cx="22.041801"
       sodipodi:cy="271.59317"
       sodipodi:r1="25.412239"
       sodipodi:r2="22.007648"
       sodipodi:arg1="0.52359878"
       sodipodi:arg2="1.0471976"
       inkscape:flatsided="true"
       inkscape:rounded="0"
       inkscape:randomized="0"
       d="m 44.049446,284.29929 -22.007645,12.70612 -22.00764421,-12.70612 1.1e-7,-25.41224 22.0076451,-12.70612 22.007644,12.70612 z" />
    <g
       id="g1004"
       style="fill:#ffffff">
      <g
         id="g21"
         transform="matrix(0.12427506,0,0,0.12427506,-19.592793,252.95873)"
         style="fill:#ffffff">
        <g
           id="g23"
           style="fill:#ffffff">
          <path
             id="path25"
             d="m 245.3,184.6 h 4.5 v 60.8 h 29.8 v 3.9 h -34.3 z"
             inkscape:connector-curvature="0"
             style="fill:#ffffff" />
          <path
             id="path27"
             d="m 305.8,201.1 c 11.2,0 18.1,8 18.1,21.8 0,1.2 0,2.4 -0.2,3.5 h -34 c 0.2,11.9 7.2,20.4 17.8,20.4 5.1,0 9.1,-1.7 12.7,-4.2 l 1.8,3.3 c -3.7,2.3 -8,4.6 -14.8,4.6 -12.1,0 -21.8,-9.2 -21.8,-24.7 0,-15.5 9.9,-24.7 20.4,-24.7 z m 14,22 c 0,-12.1 -5.4,-18.3 -13.9,-18.3 -8.1,0 -15.2,7 -16.2,18.3 z"
             inkscape:connector-curvature="0"
             style="fill:#ffffff" />
          <path
             id="path29"
             d="m 363,219.8 c 0.2,-7.2 -1.9,-14.9 -11.1,-14.9 -6.4,0 -11.9,3.1 -15,5.5 l -2,-3.2 c 3.3,-2.4 9.8,-6.1 17.5,-6.1 11.2,0 14.9,8.1 14.9,18.2 v 30.2 h -3.6 l -0.5,-6.1 H 363 c -4.8,3.8 -10.5,7.3 -16.7,7.3 -7.5,0 -13.8,-4 -13.8,-13 0.1,-10.5 9.6,-15.5 30.5,-17.9 z m -16,27 c 5.4,0 10.2,-2.7 16,-7.7 v -16 c -19.4,2.3 -25.9,6.8 -25.9,14.2 0,6.9 4.5,9.5 9.9,9.5 z"
             inkscape:connector-curvature="0"
             style="fill:#ffffff" />
          <path
             id="path31"
             d="m 388.6,253.5 v 17.2 h -4.3 v -68.5 h 3.7 l 0.4,5.9 h 0.3 c 4.6,-3.6 10.2,-7.1 16,-7.1 12.6,0 18.9,9.4 18.9,24.1 0,16 -9.7,25.5 -20.8,25.5 -4.4,0 -9.2,-2.2 -14.2,-5.8 z m 13.9,-6.7 c 9.5,0 16.4,-8.8 16.4,-21.6 0,-11.6 -4.1,-20.2 -14.9,-20.2 -4.7,0 -9.7,2.8 -15.4,7.8 v 28 c 5.4,4.3 10.3,6 13.9,6 z"
             inkscape:connector-curvature="0"
             style="fill:#ffffff" />
        </g>
      </g>
      <polygon
         transform="matrix(0.12427506,0,0,0.12427506,-19.592793,252.95873)"
         style="fill:#ffffff"
         points="332.3,29.3 278.4,71.3 332,112.4 385.9,70.4 "
         id="polygon35" />
      <polygon
         transform="matrix(0.12427506,0,0,0.12427506,-19.592793,252.95873)"
         style="fill:#ffffff"
         points="258,93.6 332.9,150.9 407.2,93.1 392,81.5 332,128.1 272.3,82.4 "
         id="polygon37" />
    </g>
  </g>
</svg>
