<?xml version="1.0" encoding="UTF-8" standalone="no"?>
<!-- Created with Inkscape (http://www.inkscape.org/) -->

<svg
   xmlns:dc="http://purl.org/dc/elements/1.1/"
   xmlns:cc="http://creativecommons.org/ns#"
   xmlns:rdf="http://www.w3.org/1999/02/22-rdf-syntax-ns#"
   xmlns:svg="http://www.w3.org/2000/svg"
   xmlns="http://www.w3.org/2000/svg"
   xmlns:sodipodi="http://sodipodi.sourceforge.net/DTD/sodipodi-0.dtd"
   xmlns:inkscape="http://www.inkscape.org/namespaces/inkscape"
   width="210mm"
   height="297mm"
   id="svg6432"
   version="1.1"
   inkscape:version="0.48.1 r9760"
   sodipodi:docname="Nouveau document 8">
  <defs
     id="defs6434" />
  <sodipodi:namedview
     id="base"
     pagecolor="#ffffff"
     bordercolor="#666666"
     borderopacity="1.0"
     inkscape:pageopacity="0.0"
     inkscape:pageshadow="2"
     inkscape:zoom="1.4"
     inkscape:cx="4.7114087"
     inkscape:cy="669.57849"
     inkscape:document-units="px"
     inkscape:current-layer="layer1"
     showgrid="false"
     inkscape:window-width="1366"
     inkscape:window-height="721"
     inkscape:window-x="-2"
     inkscape:window-y="-3"
     inkscape:window-maximized="1" />
  <metadata
     id="metadata6437">
    <rdf:RDF>
      <cc:Work
         rdf:about="">
        <dc:format>image/svg+xml</dc:format>
        <dc:type
           rdf:resource="http://purl.org/dc/dcmitype/StillImage" />
        <dc:title></dc:title>
      </cc:Work>
    </rdf:RDF>
  </metadata>
  <g
     inkscape:label="Calque 1"
     inkscape:groupmode="layer"
     id="layer1">
    <g
       id="g6469">
      <path
         d="m -91.9875,390.03344 c 0.68375,0 1.23875,-0.37 1.23875,-0.8275 0,-0.455 -0.555,-0.82375 -1.23875,-0.82375 -0.6825,0 -1.2375,0.36875 -1.2375,0.82375 0,0.4575 0.555,0.8275 1.2375,0.8275 m -0.6475,2.5275 0,0 c -1.5375,-0.055 -2.74125,-1.3525 -2.6925,-2.8925 0.025,-0.74375 0.3425,-1.4325 0.885,-1.9425 0.54125,-0.505 1.2525,-0.77 1.9975,-0.7425 1.53875,0.0538 2.74625,1.34625 2.695,2.8875 -0.025,0.74375 -0.3375,1.43 -0.88125,1.94 -0.54625,0.51125 -1.255,0.77375 -2.00375,0.75"
         style="fill:#61bf32;fill-opacity:1;fill-rule:nonzero;stroke:none"
         id="path5454"
         inkscape:connector-curvature="0" />
      <path
         d="m -95.27875,386.87594 0,0 c -0.78375,0.7275 -1.23125,1.72 -1.26625,2.7875 -0.07375,2.2025 1.655,4.0575 3.855,4.14 1.075,0.035 2.09125,-0.34125 2.87125,-1.07375 0.78125,-0.72875 1.2275,-1.71875 1.26875,-2.78375 0.0725,-2.20375 -1.655,-4.0625 -3.86125,-4.1425 -1.06875,-0.035 -2.0875,0.34375 -2.8675,1.0725 m -29.15,22.07 0.0975,-0.009 0.02,-0.12 c -0.0263,-0.0925 -0.0862,-0.1775 -0.18125,-1.34 -0.08,-1.02875 -0.24125,-3.8475 1.18,-5.2475 0.54875,-0.545 1.39125,-1.03125 2.0525,-1.1875 2.71875,-0.665 5.90875,-0.205 8.9225,3.28125 1.55875,1.8025 2.32125,2.62375 2.7025,2.9925 l 0.13375,0.12 0.1575,0.1175 c 0.12625,0.0687 5.1825,2.39625 5.1825,2.39625 l 0.10375,-0.025 0.001,-0.10875 c -0.0325,-0.0375 -3.20375,-4.13625 -2.6425,-7.5125 0.445,-2.68875 2.5875,-2.44625 5.545,-2.11125 0.96625,0.11125 2.07,0.23875 3.20625,0.2625 3.18,0.02 6.60625,-0.56375 8.71875,-1.4875 1.36375,-0.595 2.235,-0.98875 2.78,-1.48625 0.19875,-0.16125 0.29875,-0.4275 0.405,-0.71 l 0.075,-0.19 c 0.0875,-0.2275 0.2175,-0.715 0.27375,-0.98 0.02625,-0.1175 0.0375,-0.24125 -0.04375,-0.30625 l -0.29375,0.0538 c -0.925,0.5575 -3.24375,1.615 -5.4125,1.6575 -2.6875,0.0562 -8.10375,-2.70375 -8.66875,-2.99625 l -0.0538,-0.065 c -0.135,-0.3225 -0.945,-2.245 -1.12125,-2.65125 3.9,2.5675 7.1325,3.98625 9.60875,4.20875 2.7575,0.245 4.90375,-1.25875 5.82375,-1.9025 0.17875,-0.11875 0.31625,-0.2175 0.37125,-0.24 l 0.05875,-0.0962 c -0.15245,-0.9663 -1.5912,-5.65255 -2.6787,-6.7788 -0.3025,-0.3075 -0.545,-0.60875 -1.03125,-0.89375 -3.94,-2.29625 -13.28875,-3.6825 -13.72875,-3.745 l -0.0725,0.0213 -0.0288,0.0663 c 0,0 -0.0362,1.93875 -0.04,2.155 -0.9575,-0.32 -7.8975,-2.56375 -14.405,-2.7875 -5.5175,-0.19625 -13.55375,-0.9075 -24.20375,5.6375 l -0.31625,0.1975 c -5.0075,3.12625 -8.46625,6.9775 -10.275,11.45625 -0.565,1.40875 -1.33,4.58875 -0.57625,7.58 0.3275,1.30625 0.935,2.61875 1.75375,3.7975 1.85,2.65625 4.95125,4.41875 8.29625,4.7175 4.7175,0.42125 8.295,-1.6975 9.56375,-5.6675 0.875,-2.7375 0,-6.7575 -3.34875,-8.8075 -2.72375,-1.66875 -5.65625,-1.2875 -7.355,-0.165 -1.4775,0.97875 -2.3125,2.4975 -2.2975,4.16625 0.0325,2.96 2.585,4.53375 4.41875,4.5375 0.53375,0 1.0675,-0.0925 1.67,-0.2875 0.215,-0.0662 0.42,-0.1475 0.64,-0.28375 l 0.07,-0.0437 0.045,-0.0275 -0.0175,0.009 c 0.41875,-0.2825 0.6725,-0.74625 0.6725,-1.245 0,-0.13375 -0.0213,-0.2725 -0.06,-0.41125 -0.215,-0.7475 -0.95625,-1.20125 -1.7225,-1.0625 l -0.10375,0.0238 -0.14125,0.045 -0.20375,0.0675 c -0.4225,0.10625 -0.73875,0.11375 -0.80625,0.11625 -0.21625,-0.015 -1.27,-0.33 -1.27,-1.48625 l 0,-0.015 c 0.001,-0.42375 0.17125,-0.7225 0.265,-0.885 0.32625,-0.515 1.2275,-1.02125 2.44375,-0.91375 1.5925,0.13625 2.74125,0.955 3.49875,2.49625 0.70875,1.435 0.52375,3.19625 -0.475,4.49 -0.99,1.28 -2.7525,1.82375 -5.10125,1.56875 -2.3675,-0.26 -4.365,-1.6225 -5.4875,-3.7425 -1.09625,-2.07125 -1.15625,-4.52875 -0.15375,-6.41625 2.39625,-4.52125 6.91875,-4.4725 9.39875,-4.0475 3.67375,0.6375 7.84875,4.02625 9.3325,7.9375 0.23875,0.6225 0.35875,1.1175 0.4625,1.56625 l 0.16125,0.6775 4.14625,2.02625 0.0588,0.0387"
         style="fill:#61bf32;fill-opacity:1;fill-rule:evenodd;stroke:none"
         id="path5456"
         inkscape:connector-curvature="0" />
      <path
         d="m -125.6075,412.79219 c -1.75625,0 -2.725,1.48625 -2.725,2.51125 l 0,1.31875 c 0,1.5125 1.23625,2.45 2.385,2.45 l 4.02125,0 c 0.50625,0 0.61125,0.3325 0.61125,0.61 l 0,0.8525 c 0,0.0913 -0.0162,0.90875 -0.61125,0.90875 l -5.49,0 c -0.54375,0 -0.93625,0.3775 -0.93625,0.895 l 0,0.2375 c 0,0.51625 0.3925,0.895 0.93625,0.895 l 5.78875,0 c 1.51375,0 2.49,-1.0525 2.49,-2.68125 l 0,-1.425 c 0,-1.53 -1.1025,-2.215 -2.19375,-2.215 l -3.9575,0 c -0.59875,0 -0.8675,-0.445 -0.8675,-0.76125 l 0,-0.785 c 0,-0.4975 0.33125,-0.78125 0.90875,-0.78125 l 4.3825,0 c 0.53875,0 0.94,-0.3875 0.94,-0.8975 l 0,-0.23625 c 0,-0.51125 -0.41125,-0.89625 -0.96,-0.89625 l -4.7225,0"
         style="fill:#61bf32;fill-opacity:1;fill-rule:nonzero;stroke:none"
         id="path5458"
         inkscape:connector-curvature="0" />
      <path
         d="m -109.15625,412.79219 c -0.5175,0 -0.93875,0.42 -0.93875,0.94 l 0,6.73875 c 0,0.53625 -0.4375,0.9725 -0.9725,0.9725 l -3.05625,0 c -0.53875,0 -0.97625,-0.43625 -0.97625,-0.9725 l 0,-6.73875 c 0,-0.52 -0.4175,-0.94 -0.93875,-0.94 l -0.29875,0 c -0.525,0 -0.93875,0.4125 -0.93875,0.94 l 0,6.99375 c 0,1.62625 1.28,2.80875 3.045,2.80875 l 3.2675,0 c 1.76375,0 3.045,-1.1825 3.045,-2.80875 l 0,-6.99375 c 0,-0.5275 -0.41375,-0.94 -0.94,-0.94 l -0.2975,0"
         style="fill:#61bf32;fill-opacity:1;fill-rule:nonzero;stroke:none"
         id="path5460"
         inkscape:connector-curvature="0" />
      <path
         d="m -103.29875,412.79219 c -1.7575,0 -2.7275,1.48375 -2.7275,2.51125 l 0,1.31875 c 0,1.5125 1.23875,2.45 2.38375,2.45 l 4.02375,0 c 0.505,0 0.6125,0.3325 0.6125,0.61 l 0,0.8525 c 0,0.0913 -0.01875,0.90875 -0.6125,0.90875 l -5.49,0 c -0.5425,0 -0.93875,0.3775 -0.93875,0.895 l 0,0.2375 c 0,0.51625 0.39625,0.895 0.93875,0.895 l 5.78625,0 c 1.51375,0 2.49125,-1.0525 2.49125,-2.68125 l 0,-1.425 c 0,-1.53 -1.09875,-2.215 -2.19125,-2.215 l -3.95875,0 c -0.59875,0 -0.8675,-0.445 -0.8675,-0.76125 l 0,-0.785 c 0,-0.4975 0.33125,-0.78125 0.9075,-0.78125 l 4.385,0 c 0.53625,0 0.9425,-0.3875 0.9425,-0.8975 l 0,-0.23625 c 0,-0.51125 -0.415,-0.89625 -0.96625,-0.89625 l -4.71875,0"
         style="fill:#61bf32;fill-opacity:1;fill-rule:nonzero;stroke:none"
         id="path5462"
         inkscape:connector-curvature="0" />
      <path
         d="m -94.05125,412.79219 c -0.5225,0 -0.91625,0.385 -0.91625,0.89625 l 0,8.8875 c 0,0.51 0.385,0.895 0.89625,0.895 l 7.0825,0 c 0.54375,0 0.93875,-0.37875 0.93875,-0.895 l 0,-0.2375 c 0,-0.5175 -0.395,-0.895 -0.93875,-0.895 l -5.8025,0 0,-2.265 4.24875,0 c 0.545,0 0.9425,-0.3775 0.9425,-0.8975 l 0,-0.23375 c 0,-0.51875 -0.3975,-0.8975 -0.9425,-0.8975 l -4.24875,0 0,-2.3275 5.50625,0 c 0.54375,0 0.93875,-0.37875 0.93875,-0.8975 l 0,-0.23625 c 0,-0.51875 -0.395,-0.89625 -0.93875,-0.89625 l -6.76625,0"
         style="fill:#61bf32;fill-opacity:1;fill-rule:nonzero;stroke:none"
         id="path5464"
         inkscape:connector-curvature="0" />
      <path
         d="m -154.71625,421.77719 0,-3.05875 c 0,-0.36 0.29375,-0.65375 0.65375,-0.65375 l 1.68875,0 c 0.3525,0 0.6525,0.3 0.6525,0.65375 l 0,3.05875 c 0,0.36125 -0.2925,0.65375 -0.6525,0.65375 l -1.70375,0 c -0.35875,0 -0.63875,-0.2875 -0.63875,-0.65375 m 0.4675,-4.76 c -0.88625,0 -1.60625,0.6925 -1.60625,1.5425 l 0,3.35 c 0,0.865 0.695,1.56875 1.5525,1.56875 l 2.1675,0 c 0.8575,0 1.55375,-0.70375 1.55375,-1.56875 l 0,-3.35 c 0,-0.85 -0.72125,-1.5425 -1.60625,-1.5425 l -2.06125,0"
         style="fill:#61bf32;fill-opacity:1;fill-rule:nonzero;stroke:none"
         id="path5466"
         inkscape:connector-curvature="0" />
      <path
         d="m -147.84,421.71094 0,-2.92625 c 0,-0.40375 0.315,-0.72 0.72,-0.72 l 1.58125,0 c 0.40375,0 0.72,0.31625 0.72,0.72 l 0,2.92625 c 0,0.3975 -0.3225,0.72 -0.72,0.72 l -1.58125,0 c -0.39625,0 -0.72,-0.3225 -0.72,-0.72 m 2.16875,-4.7325 c -0.6275,0 -1.09875,0.225 -1.47625,0.4075 -0.23,0.10875 -0.4275,0.20375 -0.585,0.20375 l -0.15875,-0.0825 -0.145,-0.275 c -0.0362,-0.0713 -0.18125,-0.215 -0.36125,-0.215 l -0.2125,0 c -0.20375,0 -0.37125,0.185 -0.37125,0.4125 l 0,8.4975 c 0,0.2675 0.20875,0.47625 0.47625,0.47625 l 0.1875,0 c 0.2625,0 0.4775,-0.21375 0.4775,-0.47625 l 0,-2.82 0.1075,-0.17375 c 0.1575,0 0.35625,0.09 0.5875,0.19625 0.37625,0.1725 0.84625,0.38875 1.47375,0.38875 l 0.19875,0 c 1.1075,0 1.79375,-0.63125 1.79375,-1.64875 l 0,-3.24375 c 0,-1.00125 -0.70375,-1.6475 -1.79375,-1.6475 l -0.19875,0"
         style="fill:#61bf32;fill-opacity:1;fill-rule:nonzero;stroke:none"
         id="path5468"
         inkscape:connector-curvature="0" />
      <path
         d="m -140.93875,418.70469 c 0,-0.35875 0.28,-0.64 0.63875,-0.64 l 1.74375,0 c 0.36,0 0.6375,0.28125 0.6375,0.64 l 0,1.03875 -3.02,0 0,-1.03875 z m 0.4675,-1.6875 c -0.8875,0 -1.60875,0.6925 -1.60875,1.5425 l 0,3.32375 c 0,0.86375 0.70125,1.59625 1.52875,1.59625 l 2.23375,0 c 0.2775,0 0.47875,-0.19125 0.47875,-0.4525 l 0,-0.14625 c 0,-0.26125 -0.20125,-0.45 -0.47875,-0.45 l -1.83375,0 c -0.515,0 -0.7875,-0.25375 -0.7875,-0.7325 l 0,-0.9725 3.315,0 c 0.53,0 0.84625,-0.32875 0.84625,-0.87625 l 0,-1.29 c 0,-0.85 -0.72125,-1.5425 -1.6075,-1.5425 l -2.08625,0"
         style="fill:#61bf32;fill-opacity:1;fill-rule:nonzero;stroke:none"
         id="path5470"
         inkscape:connector-curvature="0" />
      <path
         d="m -132.1725,416.97844 c -0.6225,0 -1.09625,0.22375 -1.4725,0.4025 -0.235,0.1125 -0.44,0.20875 -0.6025,0.20875 l -0.15875,-0.10625 -0.1325,-0.23875 c -0.0738,-0.14875 -0.2,-0.2275 -0.3725,-0.2275 l -0.18875,0 c -0.22125,0 -0.3825,0.17375 -0.3825,0.4125 l 0,5.5725 c 0,0.26625 0.21,0.47625 0.47625,0.47625 l 0.1875,0 c 0.2625,0 0.47625,-0.215 0.47625,-0.47625 l 0,-4.2175 c 0,-0.39625 0.32375,-0.72 0.72,-0.72 l 1.5825,0 c 0.39625,0 0.72,0.32375 0.72,0.72 l 0,4.2175 c 0,0.26625 0.21,0.47625 0.47625,0.47625 l 0.18625,0 c 0.26375,0 0.47875,-0.215 0.47875,-0.47625 l 0,-4.37625 c 0,-1.00125 -0.70625,-1.6475 -1.795,-1.6475 l -0.19875,0"
         style="fill:#61bf32;fill-opacity:1;fill-rule:nonzero;stroke:none"
         id="path5472"
         inkscape:connector-curvature="0" />
      <path
         d="m -102.89875,408.96969 -0.12,0 0,0.25625 0.12375,0 0.15125,-0.0288 0.045,-0.0937 -0.0475,-0.1025 -0.1525,-0.0313 m 0.025,-0.0937 0.24375,0.0525 0.08,0.16 -0.045,0.13625 -0.13,0.0712 0.17125,0.35375 -0.16375,0 -0.15625,-0.33125 -0.145,0 0,0.33125 -0.145,0 0,-0.77375 0.29,0 z m 0.5775,0.40625 -0.0425,-0.2325 -0.125,-0.19 -0.195,-0.13125 -0.23,-0.0437 -0.22625,0.0437 -0.18625,0.125 -0.13375,0.19625 -0.0463,0.2275 0.0425,0.22125 0.13125,0.1925 0.19125,0.13125 0.22375,0.045 0.2275,-0.0437 0.19625,-0.13 0.1275,-0.1875 0.045,-0.22375 m -0.595,-0.68875 0.26625,0.0525 0.22125,0.15 0.14625,0.22 0.0512,0.26 -0.0512,0.2625 -0.14875,0.21625 -0.22625,0.15125 -0.25875,0.0513 -0.25875,-0.0513 -0.2225,-0.15375 -0.1475,-0.22 -0.0513,-0.25625 0.055,-0.26125 0.15125,-0.22875 0.215,-0.1425 0.25875,-0.05"
         style="fill:#62bf31;fill-opacity:1;fill-rule:nonzero;stroke:none"
         id="path5474"
         inkscape:connector-curvature="0" />
      <path
         d="m -84.9075,422.36344 -0.13375,0 0,0.2825 0.13625,0 0.16625,-0.0325 0.05,-0.10375 -0.0525,-0.11125 -0.16625,-0.035 m 0.0275,-0.105 c 0.11875,0 0.2075,0.02 0.2675,0.06 l 0.08875,0.175 -0.05,0.15125 -0.145,0.0787 0.19,0.38875 -0.18,0 -0.175,-0.365 -0.1575,0 0,0.365 -0.16125,0 0,-0.85375 0.3225,0 z m 0.63625,0.45 -0.0475,-0.25625 -0.14,-0.21 -0.2125,-0.14375 -0.255,-0.05 -0.25,0.0475 -0.205,0.1375 -0.1475,0.21875 -0.0525,0.25 0.05,0.245 0.1425,0.21125 0.21125,0.14375 0.24625,0.0512 0.25125,-0.0487 0.2175,-0.14375 0.1425,-0.20625 0.04875,-0.24625 m -0.6575,-0.76 0.29375,0.0575 0.24375,0.165 0.1625,0.24375 0.05625,0.28625 -0.05625,0.28875 -0.16375,0.24 -0.25,0.16625 -0.28625,0.0588 -0.28625,-0.0588 -0.24375,-0.16875 -0.16375,-0.24375 -0.05625,-0.2825 0.06,-0.28875 0.1675,-0.25125 0.23625,-0.15875 0.28625,-0.0537"
         style="fill:#61bf32;fill-opacity:1;fill-rule:nonzero;stroke:none"
         id="path5476"
         inkscape:connector-curvature="0" />
    </g>
  </g>
</svg>
