<?xml version="1.0" encoding="UTF-8" standalone="no"?>
<!-- Created with Inkscape (http://www.inkscape.org/) -->

<svg
   xmlns:dc="http://purl.org/dc/elements/1.1/"
   xmlns:cc="http://creativecommons.org/ns#"
   xmlns:rdf="http://www.w3.org/1999/02/22-rdf-syntax-ns#"
   xmlns:svg="http://www.w3.org/2000/svg"
   xmlns="http://www.w3.org/2000/svg"
   xmlns:sodipodi="http://sodipodi.sourceforge.net/DTD/sodipodi-0.dtd"
   xmlns:inkscape="http://www.inkscape.org/namespaces/inkscape"
   width="744.09448819"
   height="1052.3622047"
   id="svg3143"
   version="1.1"
   inkscape:version="0.48.3.1 r9886"
   sodipodi:docname="ChameleonBust.svg"
   inkscape:export-filename="/home/jospoortvliet/Downloads/ChameleonBust_white.png"
   inkscape:export-xdpi="90"
   inkscape:export-ydpi="90">
  <defs
     id="defs3145" />
  <sodipodi:namedview
     id="base"
     pagecolor="#ffffff"
     bordercolor="#666666"
     borderopacity="1.0"
     inkscape:pageopacity="1"
     inkscape:pageshadow="2"
     inkscape:zoom="0.56669922"
     inkscape:cx="403.59556"
     inkscape:cy="643.62145"
     inkscape:document-units="px"
     inkscape:current-layer="g3117"
     showgrid="false"
     inkscape:window-width="1920"
     inkscape:window-height="1023"
     inkscape:window-x="0"
     inkscape:window-y="405"
     inkscape:window-maximized="1"
     showguides="true"
     inkscape:guide-bbox="true">
    <sodipodi:guide
       orientation="1,0"
       position="201.02036,511.13719"
       id="guide5690" />
    <sodipodi:guide
       orientation="1,0"
       position="579.82756,564.67527"
       id="guide5692" />
  </sodipodi:namedview>
  <metadata
     id="metadata3148">
    <rdf:RDF>
      <cc:Work
         rdf:about="">
        <dc:format>image/svg+xml</dc:format>
        <dc:type
           rdf:resource="http://purl.org/dc/dcmitype/StillImage" />
        <dc:title></dc:title>
      </cc:Work>
    </rdf:RDF>
  </metadata>
  <g
     inkscape:label="Layer 1"
     inkscape:groupmode="layer"
     id="layer1">
    <g
       id="g3057">
      <rect
         style="fill:#0d5eaf;fill-opacity:1;stroke:none"
         id="rect5043"
         width="400"
         height="182.85715"
         x="-905.71429"
         y="20.933611" />
      <g
         id="g5730"
         transform="translate(-19.210266,-73.320431)">
        <g
           id="g3117"
           transform="translate(10.587627,0)">
          <g
             id="g3134"
             transform="matrix(2.3085902,0,0,2.3085902,-774.6828,-1714.237)"
             style="fill:#0d5eaf;fill-opacity:1">
            <text
               transform="scale(1.0009216,0.99907924)"
               sodipodi:linespacing="125%"
               id="text3034"
               y="908.27106"
               x="425.9827"
               style="font-size:40.03686522999999653px;font-style:normal;font-weight:normal;line-height:125%;letter-spacing:0px;word-spacing:0px;fill:#0d5eaf;fill-opacity:1;stroke:none;font-family:Sans"
               xml:space="preserve"><tspan
                 style="font-style:normal;font-variant:normal;font-weight:bold;font-stretch:normal;fill:#0d5eaf;font-family:Stalinist One;-inkscape-font-specification:Stalinist One Bold;fill-opacity:1"
                 y="908.27106"
                 x="425.9827"
                 id="tspan3036"
                 sodipodi:role="line">2013</tspan></text>
            <text
               transform="scale(0.9714359,1.029404)"
               sodipodi:linespacing="125%"
               id="text3038"
               y="810.42358"
               x="527.01398"
               style="font-size:24.37690544000000159px;font-style:normal;font-weight:normal;line-height:125%;letter-spacing:0px;word-spacing:0px;fill:#0d5eaf;fill-opacity:1;stroke:none;font-family:Sans"
               xml:space="preserve"><tspan
                 style="font-style:normal;font-variant:normal;font-weight:normal;font-stretch:normal;text-align:center;text-anchor:middle;fill:#0d5eaf;font-family:Cinzel Decorative;-inkscape-font-specification:Cinzel Decorative;fill-opacity:1"
                 y="810.42358"
                 x="530.0611"
                 id="tspan3040"
                 sodipodi:role="line">openSUSE </tspan><tspan
                 style="font-style:normal;font-variant:normal;font-weight:normal;font-stretch:normal;text-align:center;text-anchor:middle;fill:#0d5eaf;font-family:Cinzel Decorative;-inkscape-font-specification:Cinzel Decorative;fill-opacity:1"
                 id="tspan3042"
                 y="840.89471"
                 x="527.01398"
                 sodipodi:role="line">Conference</tspan></text>
            <text
               transform="scale(0.9714359,1.029404)"
               sodipodi:linespacing="125%"
               id="text3038-1"
               y="1176.129"
               x="522.74121"
               style="font-size:24.37690544000000159px;font-style:normal;font-weight:normal;line-height:125%;letter-spacing:0px;word-spacing:0px;fill:#0d5eaf;fill-opacity:1;stroke:none;font-family:Sans"
               xml:space="preserve"><tspan
                 style="font-size:17.32659148999999843px;font-style:normal;font-variant:normal;font-weight:normal;font-stretch:normal;text-align:center;text-anchor:middle;fill:#0d5eaf;font-family:Cinzel Decorative;-inkscape-font-specification:Cinzel Decorative;fill-opacity:1"
                 id="tspan3042-8"
                 y="1176.129"
                 x="522.74121"
                 sodipodi:role="line">Conference. opensuse.org</tspan></text>
          </g>
          <g
             id="g4326"
             transform="matrix(0.46889745,0,0,0.46889745,1576.68,1016.6437)">
            <path
               transform="matrix(2.1326625,0,0,2.1326625,-3692.2205,-1461.1938)"
               inkscape:connector-curvature="0"
               id="path4258"
               d="m 287.84987,364.51806 c -6.5545,-10.4256 -16.01635,-29.46272 -18.41064,-37.042 -2.19705,-6.95492 -2.8393,-12.21314 -2.00838,-16.44316 1.61552,-8.22425 13.9557,-44.96769 15.68207,-46.69406 1.01317,-1.01317 3.56791,2.67586 7.69211,11.10739 5.56618,11.37952 8.79409,19.73545 11.5239,29.83132 2.77772,10.27309 3.15284,13.13967 2.28658,17.47361 -1.24313,6.21946 -4.03099,17.95277 -5.4772,23.05196 -1.71016,6.02985 -8.00234,22.23278 -8.63379,22.23278 -0.24365,0 -1.43824,-1.58303 -2.65465,-3.51784 z"
               style="fill:#0d5eaf;fill-opacity:1;stroke:#ffffff;stroke-width:1.00399995;stroke-linecap:round;stroke-linejoin:round;stroke-miterlimit:4;stroke-opacity:1;stroke-dasharray:none" />
            <path
               transform="matrix(2.1326625,0,0,2.1326625,-3692.2205,-1461.1938)"
               inkscape:connector-curvature="0"
               id="path4260"
               d="m 314.01237,306.08786 c -7.13856,-10.92679 -9.56847,-18.6447 -9.64723,-30.64163 -0.0476,-7.25452 0.076,-8.25971 1.55784,-12.66424 1.78359,-5.30152 8.01084,-17.70416 13.00947,-25.91061 1.78488,-2.93032 5.17402,-8.54008 7.53141,-12.46614 2.35738,-3.92606 4.36167,-7.06278 4.45396,-6.97049 1.28691,1.28691 10.42798,40.30926 10.42492,44.50296 -0.003,4.71744 -2.53566,14.39751 -5.07969,19.4185 -2.7205,5.36926 -15.62058,27.97811 -17.00167,29.79734 l -1.04245,1.37316 -4.20656,-6.43885 z"
               style="fill:#0d5eaf;fill-opacity:1;stroke:#ffffff;stroke-width:1.704;stroke-linecap:round;stroke-linejoin:round;stroke-miterlimit:4;stroke-opacity:1;stroke-dasharray:none" />
            <path
               transform="matrix(2.1326625,0,0,2.1326625,-3692.2205,-1461.1938)"
               inkscape:connector-curvature="0"
               id="path4262"
               d="m 353.53743,263.62627 c -2.09951,-5.13498 -2.84896,-10.39386 -3.44998,-24.20855 l -0.61245,-14.07716 2.26262,-4.49706 c 2.97623,-5.91542 7.84247,-12.43963 16.87223,-22.62078 8.24229,-9.29326 13.47727,-14.6098 13.93498,-14.15208 0.60111,0.60111 3.03335,18.91121 3.39018,25.52154 0.3234,5.99115 0.22611,7.19941 -0.86109,10.69425 -1.60292,5.15265 -6.01446,13.95626 -9.5732,19.10417 -3.40127,4.92011 -13.27031,17.179 -17.92503,22.26568 l -3.34787,3.65856 -0.69039,-1.68857 0,0 z"
               style="fill:#0d5eaf;fill-opacity:1;stroke:#ffffff;stroke-width:1.40400004;stroke-linecap:round;stroke-linejoin:round;stroke-miterlimit:4;stroke-opacity:1;stroke-dasharray:none" />
            <path
               transform="matrix(2.1326625,0,0,2.1326625,-3692.2205,-1461.1938)"
               inkscape:connector-curvature="0"
               id="path4264"
               d="m 405.44359,213.64986 c -0.7627,-0.91899 -1.35588,-3.59445 -3.20827,-14.4705 -1.27407,-7.4805 -1.43291,-9.64704 -1.11417,-15.19709 0.7005,-12.19728 1.92572,-15.777 7.99483,-23.35849 4.36564,-5.45352 20.99552,-23.28058 23.87814,-25.59712 l 2.07048,-1.66388 0.35162,1.40096 c 0.74116,2.95301 1.44046,16.14669 1.48764,28.06712 0.0475,11.99816 -0.002,12.5826 -1.44096,16.93 -0.81958,2.47656 -2.21909,6.02255 -3.11003,7.87997 -3.24354,6.76209 -12.26743,16.49141 -22.00426,23.72444 -2.22944,1.65615 -4.10944,3.01118 -4.17777,3.01118 -0.0683,0 -0.39559,-0.32696 -0.72725,-0.72659 l 0,0 z"
               style="fill:#0d5eaf;fill-opacity:1;stroke:#ffffff;stroke-width:1.40400004;stroke-linecap:round;stroke-linejoin:round;stroke-miterlimit:4;stroke-opacity:1;stroke-dasharray:none" />
            <path
               transform="matrix(2.1326625,0,0,2.1326625,-3692.2205,-1461.1938)"
               inkscape:connector-curvature="0"
               id="path4266"
               d="m 453.50991,172.33227 c -0.53121,-3.9631 -1.11265,-12.18331 -1.29209,-18.26712 l -0.32627,-11.06147 1.59598,-2.72848 c 2.28238,-3.90192 14.58358,-15.95262 22.46172,-22.00429 6.87018,-5.2774 14.3513,-9.58522 15.4581,-8.90118 0.86412,0.53405 0.78162,3.36901 -0.50958,17.51202 -1.33903,14.66687 -2.18758,18.962 -4.83926,24.49513 -2.51782,5.2538 -5.72685,9.00302 -12.71985,14.861 -5.19626,4.35288 -16.22053,12.28606 -18.04734,12.98707 -0.65785,0.25244 -1.00239,-1.08067 -1.78141,-6.89268 l 0,0 z"
               style="fill:#0d5eaf;fill-opacity:1;stroke:#ffffff;stroke-width:0.70356894;stroke-linecap:round;stroke-linejoin:round;stroke-miterlimit:4;stroke-opacity:1;stroke-dasharray:none" />
            <path
               transform="matrix(2.1326625,0,0,2.1326625,-3692.2205,-1461.1938)"
               inkscape:connector-curvature="0"
               id="path4268"
               d="m 498.40185,158.32364 c -0.62241,-1.62199 0.30986,-13.90465 1.4702,-19.36978 2.06341,-9.71852 3.9128,-14.60315 6.51373,-17.20408 4.39011,-4.39011 12.3698,-9.18783 24.41192,-14.67745 l 4.15651,-1.89483 -0.27987,3.8018 c -0.21018,2.85509 -1.1232,5.97427 -3.66653,12.52605 -1.86266,4.79834 -4.19584,11.18752 -5.18484,14.19818 -1.34127,4.083 -2.42771,6.23861 -4.27564,8.48327 -3.61171,4.38711 -14.14942,11.75066 -19.99401,13.97143 -2.53514,0.96328 -2.83917,0.97923 -3.15147,0.16541 l 0,0 z"
               style="fill:#0d5eaf;fill-opacity:1;stroke:#ffffff;stroke-width:0.70356894;stroke-linecap:round;stroke-linejoin:round;stroke-miterlimit:4;stroke-opacity:1;stroke-dasharray:none" />
            <path
               transform="matrix(2.1326625,0,0,2.1326625,-3692.2205,-1461.1938)"
               inkscape:connector-curvature="0"
               id="path4270"
               d="m 541.75075,141.46159 c -0.97465,-2.53992 1.8911,-14.61436 4.86843,-20.51243 1.96095,-3.88462 4.66676,-5.98338 11.34535,-8.80006 4.27304,-1.80214 16.91292,-6.40369 17.59014,-6.40369 1.35902,0 -2.84877,8.99434 -8.44191,18.04496 -4.41288,7.14077 -10.73734,12.46135 -20.0487,16.86635 -4.0261,1.90467 -4.84374,2.02852 -5.31331,0.80487 l 0,0 z"
               style="fill:#0d5eaf;fill-opacity:1;stroke:#ffffff;stroke-width:0.70356894;stroke-linecap:round;stroke-linejoin:round;stroke-miterlimit:4;stroke-opacity:1;stroke-dasharray:none" />
            <path
               transform="matrix(2.1326625,0,0,2.1326625,-3692.2205,-1461.1938)"
               inkscape:connector-curvature="0"
               id="path4272"
               d="m 576.45387,131.09473 c 0,-1.16737 2.41837,-6.58312 4.63271,-10.3746 4.53439,-7.76395 9.68824,-11.96946 16.94216,-13.8247 4.73653,-1.2114 12.18965,-2.05191 13.55368,-1.52848 0.87135,0.33437 -1.04087,3.21791 -9.53876,14.38404 l -2.83439,3.72435 -6.45272,2.28641 c -3.54899,1.25753 -8.31555,3.09384 -10.59235,4.0807 -4.30123,1.86433 -5.71033,2.17335 -5.71033,1.25228 z"
               style="fill:#0d5eaf;fill-opacity:1;stroke:#ffffff;stroke-width:0.70356894;stroke-linecap:round;stroke-linejoin:round;stroke-miterlimit:4;stroke-opacity:1;stroke-dasharray:none" />
            <path
               transform="matrix(2.1326625,0,0,2.1326625,-3692.2205,-1461.1938)"
               inkscape:connector-curvature="0"
               id="path4274"
               d="m 630.48796,128.26222 c -2.71298,-0.36734 -5.55351,-1.65149 -6.69472,-3.02657 -0.59124,-0.7124 -0.27213,-1.16058 2.01099,-2.82436 4.17894,-3.04534 10.74307,-6.66462 14.21019,-7.83511 2.49185,-0.84125 3.99481,-0.98227 7.35615,-0.69022 4.82195,0.41895 18.10642,2.45808 18.48587,2.83754 0.51108,0.51108 -19.43977,9.85536 -22.70424,10.63387 -4.15908,0.99187 -9.30577,1.35959 -12.66424,0.90485 z"
               style="fill:#0d5eaf;fill-opacity:1;stroke:#ffffff;stroke-width:0.70356894;stroke-linecap:round;stroke-linejoin:round;stroke-miterlimit:4;stroke-opacity:1;stroke-dasharray:none" />
            <path
               transform="matrix(2.1326625,0,0,2.1326625,-3692.2205,-1461.1938)"
               inkscape:connector-curvature="0"
               id="path4276"
               d="m 291.67472,396.62963 c -0.0315,-6.74047 1.32763,-17.43281 2.88343,-22.68327 5.62749,-18.99149 26.57632,-61.01422 39.56343,-79.36305 2.84844,-4.02442 7.129,-10.14969 9.51238,-13.61174 2.43445,-3.53624 5.7092,-7.48263 7.47298,-9.00568 6.90509,-5.96263 12.47531,-11.52206 19.07079,-19.03386 3.80532,-4.33399 9.15899,-10.06227 11.89707,-12.72952 8.97429,-8.74216 23.2791,-21.2943 27.55875,-24.18219 2.30809,-1.55748 7.79771,-5.66724 12.19915,-9.1328 9.83982,-7.74759 17.57934,-13.00083 27.13448,-18.41767 4.02442,-2.28145 10.22989,-5.90954 13.78995,-8.06241 3.56006,-2.15288 9.6389,-5.49778 13.50853,-7.43313 10.59447,-5.29869 50.09898,-20.87256 66.88387,-26.36764 41.99656,-13.74894 73.14688,-21.9975 75.99124,-20.12238 0.77354,0.50995 0.33256,0.64507 -12.07136,3.6988 -3.12873,0.77027 -11.48713,3.46562 -18.57422,5.98968 -7.08708,2.52405 -23.01699,8.07749 -35.39981,12.34097 -33.11824,11.40281 -34.47786,11.89433 -46.43555,16.78722 -18.90303,7.73482 -27.08475,11.33747 -33.7713,14.87048 -19.76381,10.44271 -40.56463,24.93986 -65.57263,45.70088 -16.93956,14.0628 -25.66283,22.0175 -43.06603,39.27165 l -13.79756,13.67939 -11.43786,17.44851 c -13.27966,20.2582 -25.16666,41.87276 -30.64485,55.72266 -2.98883,7.55633 -6.33161,20.75624 -7.94907,31.38917 -0.78962,5.19079 -1.79879,10.12985 -2.24261,10.97567 -0.44381,0.84583 -2.08285,2.93093 -3.64229,4.63356 l -2.83536,3.09571 -0.0256,-5.45901 0,0 z"
               style="fill:#0d5eaf;fill-opacity:1;stroke:#ffffff;stroke-width:1.30400002;stroke-linecap:round;stroke-linejoin:round;stroke-miterlimit:4;stroke-opacity:1;stroke-dasharray:none" />
            <path
               transform="matrix(2.1326625,0,0,2.1326625,-3692.2205,-1461.1938)"
               inkscape:connector-curvature="0"
               id="path4278"
               d="m 305.37439,374.3148 c 0.38831,-2.92719 3.55828,-12.80723 5.00965,-15.61388 1.72335,-3.33258 8.66379,-9.37672 13.74228,-11.96758 3.78406,-1.93048 11.22723,-3.84967 19.77496,-5.09888 8.26776,-1.20829 18.43893,-3.58356 31.71019,-7.40525 4.23248,-1.21882 7.84538,-2.21604 8.02867,-2.21604 1.61238,0 -15.60371,21.1505 -21.90043,26.90534 -4.32275,3.95075 -12.08633,9.42626 -16.61329,11.71704 -2.01551,1.01992 -7.59048,2.87725 -12.38882,4.12741 -8.52101,2.22007 -8.94558,2.27309 -18.2246,2.27582 l -9.50033,0.003 0.36172,-2.72678 z"
               style="fill:#0d5eaf;fill-opacity:1;stroke:#ffffff;stroke-width:1.50399995;stroke-linecap:round;stroke-linejoin:round;stroke-miterlimit:4;stroke-opacity:1;stroke-dasharray:none" />
            <path
               transform="matrix(2.1326625,0,0,2.1326625,-3692.2205,-1461.1938)"
               inkscape:connector-curvature="0"
               id="path4280"
               d="m 338.64757,334.56393 c -0.30957,-0.14256 -3.58928,-0.64784 -7.28825,-1.12283 -3.69897,-0.475 -6.95644,-1.09468 -7.23883,-1.37706 -0.30933,-0.30933 0.12669,-1.69185 1.09685,-3.47789 2.29844,-4.23137 3.82355,-5.38119 26.83033,-20.22811 11.35664,-7.32876 15.9051,-9.06084 32.39271,-12.33541 6.38606,-1.26832 15.27698,-1.57531 15.27698,-0.5275 0,0.34671 -2.11081,3.06953 -4.69069,6.05069 -2.57988,2.98117 -7.10412,8.45972 -10.05385,12.17456 -6.21407,7.82587 -11.51614,13.87726 -13.58419,15.50399 -2.61113,2.05392 -6.67186,3.47724 -12.15313,4.25979 -5.59503,0.79878 -19.60276,1.53344 -20.58793,1.07977 z"
               style="fill:#0d5eaf;fill-opacity:1;stroke:#ffffff;stroke-width:2.10400009;stroke-linecap:round;stroke-linejoin:round;stroke-miterlimit:4;stroke-opacity:1;stroke-dasharray:none" />
            <path
               transform="matrix(2.1326625,0,0,2.1326625,-3692.2205,-1461.1938)"
               inkscape:connector-curvature="0"
               id="path4282"
               d="m 351.10105,288.18459 -1.6179,-0.35554 3.68677,-4.56401 c 4.43663,-5.49227 7.54433,-8.22104 13.38117,-11.74956 11.10642,-6.71412 23.21325,-8.63187 49.64347,-7.86365 11.65299,0.33871 13.29323,0.49533 12.69805,1.21247 -1.34701,1.62306 -18.21416,13.37313 -21.82841,15.20622 -9.07829,4.60436 -21.56173,7.22646 -38.30388,8.04559 -12.05465,0.58979 -15.23103,0.60211 -17.65927,0.0685 z"
               style="fill:#0d5eaf;fill-opacity:1;stroke:#ffffff;stroke-width:1.204;stroke-linecap:round;stroke-linejoin:round;stroke-miterlimit:4;stroke-opacity:1;stroke-dasharray:none" />
            <path
               transform="matrix(2.1326625,0,0,2.1326625,-3692.2205,-1461.1938)"
               inkscape:connector-curvature="0"
               id="path4284"
               d="m 406.71071,253.3017 c -3.66755,-1.25097 -11.03993,-5.46743 -13.67299,-7.81996 -1.70825,-1.52626 -1.90572,-1.92101 -1.20033,-2.39948 9.70098,-6.58027 17.81353,-9.25711 30.11275,-9.93607 7.12782,-0.39348 12.79206,0.50675 27.68437,4.39996 l 11.36158,2.97019 -4.46796,1.80243 c -2.45739,0.99134 -7.06353,2.59854 -10.23587,3.57155 -3.17235,0.97302 -7.67779,2.49489 -10.0121,3.38194 -4.97765,1.89153 -13.6921,3.73222 -19.99662,4.22372 -2.45564,0.19145 -4.97137,0.44528 -5.59051,0.56408 -0.61914,0.1188 -2.41118,-0.22247 -3.98232,-0.75836 z"
               style="fill:#0d5eaf;fill-opacity:1;stroke:#ffffff;stroke-width:0.70356894;stroke-linecap:round;stroke-linejoin:round;stroke-miterlimit:4;stroke-opacity:1;stroke-dasharray:none" />
            <path
               transform="matrix(2.1326625,0,0,2.1326625,-3692.2205,-1461.1938)"
               inkscape:connector-curvature="0"
               id="path4286"
               d="m 460.22428,219.13264 c -15.8192,-5.08824 -20.44085,-6.68167 -22.75267,-7.84455 l -2.48989,-1.25245 2.48989,-1.45753 c 5.94455,-3.47982 22.93565,-10.57852 28.63697,-11.96422 4.85684,-1.18046 9.14426,-0.64512 15.97089,1.99418 2.42367,0.93703 8.31254,2.50481 13.08638,3.48395 5.01681,1.02898 8.67971,2.04824 8.67971,2.41527 0,0.82639 -3.47554,4.08719 -7.03569,6.60101 -6.06908,4.28535 -20.12219,9.50112 -26.45419,9.81839 -3.30915,0.1658 -4.93131,-0.12145 -10.1314,-1.79405 z"
               style="fill:#0d5eaf;fill-opacity:1;stroke:#ffffff;stroke-width:1.40400004;stroke-linecap:round;stroke-linejoin:round;stroke-miterlimit:4;stroke-opacity:1;stroke-dasharray:none" />
            <path
               transform="matrix(2.1326625,0,0,2.1326625,-3692.2205,-1461.1938)"
               inkscape:connector-curvature="0"
               id="path4288"
               d="m 495.96559,195.55167 c -7.45079,-1.54387 -14.6386,-5.83868 -17.28565,-10.3284 -0.78394,-1.32966 -1.32305,-2.51985 -1.19803,-2.64487 0.12502,-0.12502 2.32895,-1.27921 4.89762,-2.56487 3.234,-1.61867 5.65966,-2.42728 7.88727,-2.62927 3.10237,-0.28131 3.4733,-0.15902 10.41278,3.43308 7.70044,3.98599 12.01676,5.19809 23.42876,6.57921 2.94092,0.35593 5.72705,0.77354 6.19141,0.92805 2.25072,0.74886 -20.11923,7.10914 -27.01705,7.68155 -2.13132,0.17687 -5.18579,-0.0128 -7.31711,-0.45448 l 0,0 z"
               style="fill:#0d5eaf;fill-opacity:1;stroke:#ffffff;stroke-width:1.60399997;stroke-linecap:round;stroke-linejoin:round;stroke-miterlimit:4;stroke-opacity:1;stroke-dasharray:none" />
            <path
               transform="matrix(2.1326625,0,0,2.1326625,-3692.2205,-1461.1938)"
               inkscape:connector-curvature="0"
               id="path4290"
               d="m 531.02828,179.09324 c -5.03966,-2.85163 -14.79991,-11.78791 -14.79991,-13.55048 0,-0.64119 8.87815,-3.38832 12.50867,-3.87051 2.04969,-0.27223 3.01667,-0.11973 4.22141,0.66578 2.87694,1.87578 18.16694,14.3588 18.16694,14.8318 0,0.62779 -8.21068,2.17678 -13.78995,2.60155 -3.74091,0.28481 -4.80815,0.17006 -6.30716,-0.67814 l 0,0 z"
               style="fill:#0d5eaf;fill-opacity:1;stroke:#ffffff;stroke-width:0.70356894;stroke-linecap:round;stroke-linejoin:round;stroke-miterlimit:4;stroke-opacity:1;stroke-dasharray:none" />
            <path
               transform="matrix(2.1326625,0,0,2.1326625,-3692.2205,-1461.1938)"
               inkscape:connector-curvature="0"
               id="path4292"
               d="m 568.77504,160.54852 c -3.68715,-1.43128 -6.20753,-2.8787 -8.89057,-5.10574 -2.05953,-1.70949 -3.65027,-3.39117 -3.53497,-3.73706 0.1153,-0.3459 2.08978,-1.21553 4.38774,-1.93251 7.32373,-2.28507 10.42577,-1.19464 19.42814,6.8294 l 5.77442,5.14688 -2.63226,0.37284 c -5.98726,0.84803 -9.18589,0.50163 -14.5325,-1.57381 z"
               style="fill:#0d5eaf;fill-opacity:1;stroke:#ffffff;stroke-width:0.70356894;stroke-linecap:round;stroke-linejoin:round;stroke-miterlimit:4;stroke-opacity:1;stroke-dasharray:none" />
            <path
               transform="matrix(2.1326625,0,0,2.1326625,-3692.2205,-1461.1938)"
               inkscape:connector-curvature="0"
               id="path4294"
               d="m 602.90806,147.98336 c -2.01221,-0.19556 -4.54505,-0.75267 -5.62855,-1.23803 -2.21742,-0.9933 -9.00568,-5.97627 -9.00568,-6.61068 0,-0.57875 5.68232,-2.3065 7.58576,-2.3065 1.89704,0 5.58903,2.20382 11.31552,6.75445 3.99391,3.17381 4.14851,3.37694 2.57012,3.37694 -0.92367,0 -2.01672,0.0854 -2.42901,0.18969 -0.41228,0.10432 -2.39595,0.0297 -4.40816,-0.16587 z"
               style="fill:#0d5eaf;fill-opacity:1;stroke:#ffffff;stroke-width:0.70356894;stroke-linecap:round;stroke-linejoin:round;stroke-miterlimit:4;stroke-opacity:1;stroke-dasharray:none" />
            <path
               transform="matrix(2.1326625,0,0,2.1326625,-3692.2205,-1461.1938)"
               inkscape:connector-curvature="0"
               id="path4296"
               d="m 618.20737,135.98132 c -0.32917,-0.39662 -1.89844,-1.18858 -3.48727,-1.75992 -1.58884,-0.57133 -2.68028,-1.24691 -2.42543,-1.50127 0.7275,-0.72612 6.96052,-2.21172 9.16515,-2.18446 2.47496,0.0306 7.4729,1.71386 7.75961,2.61337 0.13008,0.4081 -1.56395,1.22932 -4.35402,2.1107 -5.22044,1.64914 -5.83313,1.71554 -6.65804,0.72158 l 0,0 z"
               style="fill:#008000;fill-opacity:1;stroke:#ffffff;stroke-width:0.70356894;stroke-linecap:round;stroke-linejoin:round;stroke-miterlimit:4;stroke-opacity:1;stroke-dasharray:none" />
            <path
               transform="matrix(2.1326625,0,0,2.1326625,-3692.2205,-1461.1938)"
               inkscape:connector-curvature="0"
               id="path4298"
               d="m 545.63245,637.82959 c -18.16773,-2.99362 -49.16567,-8.93973 -58.53694,-11.22872 -34.36803,-8.39459 -89.99427,-29.17673 -124.95384,-46.68314 -30.80889,-15.42792 -62.68475,-33.44802 -77.7585,-43.95854 -10.32262,-7.19769 -34.87154,-28.05845 -42.57834,-36.1815 l -3.82584,-4.03247 4.68045,-13.15128 c 2.96703,-8.33687 7.04623,-16.90036 11.14295,-23.39248 9.62591,-15.2543 39.26997,-52.49113 55.78965,-70.07914 l 6.55016,-6.97374 9.31398,-1.32212 c 10.82115,-1.53607 14.32712,-0.87925 28.24267,5.29108 15.55885,6.89901 52.7314,25.82346 68.32836,34.78581 8.23581,4.73249 17.50705,9.76416 20.60275,11.18152 5.23793,2.39818 5.39418,2.58246 2.25142,2.65527 -4.02322,0.0932 -15.77641,-3.20498 -41.50654,-11.64768 -18.56031,-6.0901 -42.48616,-11.88601 -49.06611,-11.88601 -5.88523,0 -39.56638,32.69423 -56.53937,54.88266 -3.90909,5.11027 -7.26951,8.80515 -7.46761,8.21086 -0.86139,-2.58418 20.16865,-42.48327 30.47595,-57.82025 2.41985,-3.60068 4.14875,-7.20075 3.84199,-8.00014 -0.66107,-1.72271 -7.66015,-2.83024 -12.94491,-2.04839 -3.12073,0.46168 -5.11421,2.2782 -11.88114,10.82641 -22.55313,28.48988 -30.98884,41.73557 -40.72167,63.9408 -3.34451,7.6304 -6.09066,14.4156 -6.10256,15.07819 -0.0322,1.79255 24.36373,22.13543 40.95171,34.14815 7.98554,5.78299 23.18262,15.58063 33.77131,21.77255 18.01776,10.5362 62.6074,32.28702 77.78909,37.94549 20.46707,7.62843 43.12595,14.9111 54.03409,17.36682 27.75673,6.24878 45.59178,9.71359 55.72266,10.82524 5.88184,0.64541 16.26651,2.03376 23.07706,3.08523 25.87545,3.99487 105.25391,1.77638 105.25391,-2.94168 0,-0.458 -3.23826,-3.21043 -7.19615,-6.11651 -10.93476,-8.02887 -28.98892,-30.04596 -42.07525,-51.31089 l -7.88975,-12.8206 1.86366,-4.06505 c 7.75267,-16.91036 16.18339,-28.43542 34.80826,-47.58394 10.79269,-11.09614 17.14832,-16.48413 28.7135,-24.34191 8.16903,-5.55032 18.90535,-12.13653 23.85848,-14.63604 4.95312,-2.49949 10.82539,-6.48943 13.04947,-8.86654 8.55091,-9.13923 32.56351,-45.10775 44.97074,-67.36178 11.55373,-20.72317 23.34311,-38.65809 39.95871,-60.78836 15.01454,-19.99779 45.78593,-56.08983 58.31791,-68.4016 9.7765,-9.6047 10.00406,-10.39687 5.63294,-19.60834 -1.76846,-3.72674 -2.13287,-3.92456 -6.06987,-3.29501 -8.44544,1.35048 -36.9739,11.26731 -52.85741,18.37386 -30.62355,13.70149 -64.80504,33.95691 -85.60123,50.72594 -22.11084,17.8291 -41.26411,40.30384 -63.05335,73.98782 -22.19388,34.3095 -30.25081,44.52431 -41.81111,53.00934 -10.36883,7.61051 -31.0728,20.72469 -32.71904,20.72469 -1.60855,0 5.79978,-12.90485 11.39644,-19.85189 2.8916,-3.58931 10.96716,-11.35558 17.94567,-17.2584 14.64758,-12.38975 36.60218,-36.14699 52.00312,-56.27299 26.65836,-34.83721 37.10096,-46.11909 62.48275,-67.50451 32.96547,-27.77503 98.95837,-62.37231 135.36083,-70.96394 3.25049,-0.76717 5.90998,-1.82788 5.90998,-2.35712 0,-0.52924 1.21156,0.15449 2.69235,1.51942 1.4808,1.36492 5.01361,4.40519 7.85068,6.75615 9.07051,7.51632 9.209,13.15356 1.02884,41.87965 -3.43365,12.05789 -15.26321,43.6335 -21.08695,56.28551 -2.27992,4.95313 -8.38462,18.88379 -13.56601,30.95703 -5.18137,12.07325 -13.4147,29.5499 -18.29626,38.83701 -4.88156,9.28711 -14.85929,28.28347 -22.17271,42.21413 -26.34967,50.19107 -27.92046,52.89778 -36.18233,62.34738 -11.43903,13.08351 -24.71722,25.41526 -34.40438,31.95208 -12.06281,8.1399 -37.70431,22.64014 -55.74309,31.52266 -18.08099,8.90329 -32.24628,17.73692 -31.60176,19.70718 0.71575,2.18796 18.03463,12.50677 35.17657,20.95866 18.76257,9.25095 33.82972,14.96063 50.65514,19.19572 l 12.38099,3.1164 -14.63241,3.44163 c -21.07806,4.9577 -31.29432,6.77005 -42.77517,7.58824 -5.57226,0.39711 -27.83997,2.45552 -49.48379,4.57424 -35.16709,3.44251 -56.44377,4.45481 -64.7758,3.08188 l 0,0 z M 745.00405,419.9307 c 0.72919,-1.39306 7.01325,-11.14453 13.96458,-21.66992 12.57947,-19.04729 19.23436,-27.76079 32.67333,-42.7805 6.99017,-7.81239 14.61938,-21.33317 21.22761,-37.62044 4.74379,-11.69197 3.97124,-11.88468 -6.98376,-1.74203 -10.27718,9.5151 -21.04753,23.83991 -34.25304,45.55739 -11.43257,18.80172 -32.37815,57.25949 -32.37815,59.44887 0,2.34602 4.37174,1.43861 5.74943,-1.19337 z m 58.0216,-113.71846 c 5.66488,-5.09596 13.51671,-11.83462 17.44851,-14.97479 6.91164,-5.52007 7.27524,-6.073 10.96389,-16.67275 2.41867,-6.95031 3.4224,-11.35612 2.74212,-12.0364 -1.36631,-1.36631 -15.65915,10.91283 -22.83902,19.62127 -4.90801,5.95291 -18.19825,27.01129 -19.81795,31.40151 -1.31594,3.56692 1.07478,2.04158 11.50245,-7.33884 l 0,0 z"
               style="fill:#008000;fill-opacity:1;stroke:#ffffff;stroke-width:3.29999995;stroke-linecap:round;stroke-linejoin:round;stroke-miterlimit:4;stroke-opacity:1;stroke-dasharray:none" />
            <path
               transform="matrix(2.1326625,0,0,2.1326625,-3692.2205,-1461.1938)"
               inkscape:connector-curvature="0"
               id="path4300"
               d="m 504.87226,422.35997 c -5.15343,-0.62873 -13.81596,-2.79071 -19.4185,-4.84643 -6.77377,-2.48547 -38.67807,-15.89516 -51.21982,-21.52818 -4.33399,-1.94658 -11.17268,-4.8261 -15.19709,-6.39894 -4.02441,-1.57284 -10.8631,-4.24597 -15.19709,-5.94027 -4.33398,-1.69431 -9.27304,-3.7156 -10.97567,-4.49176 -2.88249,-1.31399 -2.97422,-1.41342 -1.33193,-1.44361 6.52766,-0.12 45.69673,6.59094 61.83885,10.595 21.55705,5.34725 28.93812,6.25362 42.49557,5.2183 6.14295,-0.46911 8.51502,-0.9154 12.38281,-2.32979 7.70322,-2.81695 15.45469,-6.84528 24.46719,-12.71526 4.6342,-3.01833 11.97336,-7.62586 16.30924,-10.23897 4.33587,-2.61311 13.35442,-8.49491 20.0412,-13.07067 11.62042,-7.95184 23.79543,-15.76519 24.56581,-15.76519 0.19931,0 -1.26189,1.45639 -3.24709,3.23642 -1.98521,1.78003 -8.52854,7.79554 -14.54072,13.36781 -19.18895,17.78486 -20.43595,18.90443 -29.60291,26.57776 -8.14674,6.81934 -13.3592,10.60762 -22.93635,16.66957 -4.52518,2.86427 -4.3251,3.75221 0.84429,3.74682 5.12927,-0.006 10.73894,-0.89858 13.02078,-2.07331 2.69705,-1.3885 14.91561,-9.34514 23.98694,-15.62016 7.16687,-4.9576 9.97901,-7.43739 23.07706,-20.34968 21.53446,-21.22904 25.97494,-25.26601 33.79969,-30.72834 7.94766,-5.54813 15.62796,-10.3152 16.00749,-9.93567 0.14041,0.14041 -1.70029,1.63437 -4.09043,3.31991 -5.13667,3.6224 -20.41551,18.38886 -26.46638,25.57882 -4.40265,5.23147 -11.55864,14.70241 -21.06269,27.87642 -6.5554,9.08676 -13.11497,16.29851 -18.29865,20.11801 -11.5698,8.52496 -26.17791,16.30794 -36.17454,19.27322 -5.06658,1.50289 -6.99435,1.78057 -13.50852,1.94579 -4.1792,0.106 -8.48505,0.0846 -9.56854,-0.0476 l 0,-10e-6 z"
               style="fill:#008000;fill-opacity:1;stroke:#ffffff;stroke-width:0;stroke-linecap:round;stroke-linejoin:round;stroke-miterlimit:4;stroke-opacity:1;stroke-dasharray:none" />
            <path
               transform="matrix(2.1326625,0,0,2.1326625,-3692.2205,-1461.1938)"
               inkscape:connector-curvature="0"
               id="path4302"
               d="m 271.00595,363.09687 c -2.47656,-0.88748 -7.03569,-2.52395 -10.13139,-3.63661 -6.65623,-2.39237 -19.30747,-6.27889 -30.67561,-9.42368 -14.81514,-4.09835 -14.75995,-4.07381 -18.62541,-8.28239 -4.60451,-5.01324 -10.81413,-13.29973 -14.82362,-19.78155 -3.10656,-5.02213 -3.25306,-5.4229 -2.94206,-8.04874 0.39637,-3.34672 4.77597,-16.43984 7.57427,-22.64381 2.97826,-6.60295 11.85109,-21.96142 17.72033,-30.6731 4.50239,-6.68288 18.50049,-25.65074 24.04216,-32.57789 3.64844,-4.56058 22.2274,-18.78133 30.95703,-23.6952 4.416,-2.48574 22.9714,-10.95845 29.26847,-13.36448 3.39372,-1.29669 14.73283,-4.96836 45.87269,-14.85385 6.81055,-2.16204 17.55345,-5.3193 23.87312,-7.01615 l 11.49031,-3.08516 7.64677,0.15599 7.64677,0.156 -2.25142,2.36351 c -2.20558,2.31539 -2.54942,2.45061 -16.88566,6.64052 -29.47114,8.61322 -31.00692,9.12524 -73.73402,24.58289 -9.96227,3.60411 -27.72146,12.21887 -34.33417,16.65508 -9.72138,6.52169 -18.51968,15.27182 -25.50343,25.3638 -9.73756,14.07141 -26.2102,40.27636 -29.95913,47.65947 -4.67529,9.20749 -10.09994,22.42362 -10.5021,25.58637 -0.21522,1.6926 0.14977,2.5458 2.41786,5.65209 4.53494,6.21088 8.15226,10.06227 13.43819,14.30779 6.53798,5.25112 7.86971,6.01419 14.64874,8.39359 3.0957,1.08658 9.8498,3.50161 15.0091,5.36676 5.15931,1.86514 12.11017,4.18632 15.44637,5.15817 9.37719,2.73163 10.81584,3.55923 12.39523,7.13052 0.73339,1.65831 1.33343,3.13454 1.33343,3.28049 0,0.89018 -6.48687,0.0364 -10.41282,-1.37043 l 0,0 z"
               style="fill:#008000;fill-opacity:1;stroke:#ffffff;stroke-width:0;stroke-linecap:round;stroke-linejoin:round;stroke-miterlimit:4;stroke-opacity:1;stroke-dasharray:none" />
            <path
               transform="matrix(2.1326625,0,0,2.1326625,-3692.2205,-1461.1938)"
               inkscape:connector-curvature="0"
               id="path4304"
               d="m 336.63549,307.03396 c 2.23508,-3.25382 4.33973,-6.13761 4.67699,-6.40842 0.33727,-0.2708 3.27271,-1.25257 6.5232,-2.18171 3.25048,-0.92915 8.94939,-2.62042 12.66424,-3.75838 5.72463,-1.75363 8.04129,-2.15271 15.19708,-2.61791 19.09922,-1.24165 24.68347,-3.15481 41.25703,-14.13462 12.20737,-8.08725 18.50703,-12.67034 18.92961,-13.77156 0.43756,-1.14028 -0.50676,-2.25105 -3.00206,-3.53122 l -1.99546,-1.02373 6.45817,-4.20617 c 7.69182,-5.00962 9.70913,-6.05646 14.90101,-7.73256 5.03622,-1.62585 12.81327,-5.37293 14.09809,-6.79264 0.94676,-1.04616 0.94686,-1.14613 0.002,-2.19017 -0.54451,-0.60168 -1.66023,-1.1892 -2.47936,-1.3056 -1.39089,-0.19763 -1.05787,-0.63834 5.03736,-6.66627 l 6.52671,-6.45466 5.64864,-1.85003 c 8.23738,-2.6979 18.42722,-7.82091 22.02404,-11.07274 5.34008,-4.82788 7.03052,-8.84173 4.47698,-10.6303 -0.67785,-0.47479 -1.1211,-0.95771 -0.98499,-1.07317 0.13611,-0.11546 2.52703,-0.7643 5.31316,-1.44186 8.55279,-2.07996 20.85706,-6.2353 23.58398,-7.96466 3.63726,-2.30668 3.45747,-4.34313 -0.46646,-5.28339 -0.90646,-0.21721 -6.3155,-0.86986 -12.02008,-1.45034 -5.70457,-0.58048 -10.52071,-1.20417 -10.70251,-1.38597 -0.37295,-0.37271 6.06352,-7.05538 6.79521,-7.05538 0.25923,0 2.04015,1.27277 3.9576,2.82838 5.35689,4.34601 8.30164,5.61488 13.0246,5.61219 8.18615,-0.005 19.41353,-2.69314 20.23988,-4.84658 0.46675,-1.21632 -3.13678,-4.86428 -10.35842,-10.48614 -3.56077,-2.77197 -6.55402,-5.25436 -6.65165,-5.51643 -0.27484,-0.7377 11.63518,-7.8266 13.1825,-7.84629 0.34219,-0.004 2.28244,1.51342 4.31166,3.37284 3.28286,3.00814 5.77654,4.52267 12.0891,7.34225 l 1.82584,0.81553 -3.14799,3.93998 c -6.16109,7.71117 -10.0399,15.74257 -12.68113,26.2574 -1.1822,4.70634 -1.31779,6.4819 -1.28308,16.80102 0.0371,11.05029 0.11283,11.81872 1.78801,18.15995 3.01174,11.40067 11.23585,25.62244 19.80577,34.24967 8.50605,8.56294 22.34944,17.97307 31.54803,21.44497 l 4.22141,1.59332 -2.81427,-0.34305 c -1.54786,-0.18867 -6.86684,-1.35307 -11.81996,-2.58756 -7.76284,-1.93475 -10.26227,-2.86049 -18.11097,-6.70785 -8.92512,-4.37501 -10.86061,-5.66109 -26.44427,-17.57145 -4.19983,-3.20987 -11.54732,-6.79357 -16.51454,-8.05489 -4.34429,-1.10314 -13.05831,-0.78633 -18.01137,0.65482 -1.70264,0.49541 -8.74743,3.44001 -15.65508,6.54355 -6.90766,3.10355 -12.67679,5.52541 -12.82028,5.38192 -0.14349,-0.14349 0.63811,-0.94659 1.73689,-1.78467 2.74251,-2.09182 18.25915,-19.28734 22.38403,-24.80596 7.40979,-9.91347 15.19023,-30.35553 12.01705,-31.57319 -1.28028,-0.49129 -2.02353,0.24815 -6.47988,6.44672 -11.32202,15.74838 -33.84791,39.92018 -43.95972,47.17175 -8.01821,5.75017 -27.48698,17.636 -28.88745,17.636 -0.28645,0 4.38636,-5.13259 10.38404,-11.40576 16.24017,-16.98614 17.94056,-18.83458 17.94056,-19.50255 0,-0.33637 -0.29394,-0.61158 -0.6532,-0.61158 -0.98979,0 -8.28148,5.08215 -17.10836,11.92416 -16.06258,12.45065 -21.20855,15.79087 -36.80095,23.88733 l -14.94956,7.76267 -8.44309,0.0501 c -7.97131,0.0473 -8.94635,0.17956 -17.44879,2.36624 -15.2888,3.93201 -20.46452,6.1771 -29.65897,12.86527 -2.69134,1.95772 -5.60923,3.92968 -6.48419,4.38214 -1.45593,0.75288 -7.16976,2.05324 -9.02206,2.05324 -0.44859,0 0.93525,-2.48883 3.28943,-5.91605 z"
               style="fill:#008000;fill-opacity:1;stroke:#ffffff;stroke-width:0;stroke-linecap:round;stroke-linejoin:round;stroke-miterlimit:4;stroke-opacity:1;stroke-dasharray:none" />
            <path
               transform="matrix(2.1326625,0,0,2.1326625,-3692.2205,-1461.1938)"
               inkscape:connector-curvature="0"
               id="path4306"
               d="m 627.57468,279.96701 c -12.9952,-1.12508 -15.52205,-1.84763 -24.50773,-7.00795 -11.48127,-6.59349 -19.22024,-12.61803 -22.73915,-17.7017 -3.03674,-4.38711 -10.18414,-22.02987 -11.29264,-27.87497 -0.78074,-4.11682 -0.69688,-10.63313 0.2656,-20.63771 0.95358,-9.91215 1.77908,-13.83335 4.29976,-20.42422 2.10388,-5.50108 2.62144,-5.26386 1.4095,0.64602 -3.55057,17.31399 0.6877,40.71592 10.63508,58.72234 2.65722,4.81003 13.33236,16.20087 18.57109,19.81619 5.28403,3.64657 16.75083,8.16869 24.76563,9.76672 6.04632,1.20555 18.4349,-0.39182 29.05291,-3.74604 2.49828,-0.78921 4.63118,-1.34607 4.73978,-1.23747 0.28085,0.28084 -14.25655,8.0043 -16.62561,8.83289 -2.00287,0.70051 -13.96243,1.24517 -18.57422,0.8459 z"
               style="fill:#008000;fill-opacity:1;stroke:#ffffff;stroke-width:0;stroke-linecap:round;stroke-linejoin:round;stroke-miterlimit:4;stroke-opacity:1;stroke-dasharray:none" />
            <path
               transform="matrix(2.1326625,0,0,2.1326625,-3692.2205,-1461.1938)"
               inkscape:connector-curvature="0"
               id="path4308"
               d="m 721.2526,244.28168 c 0.57393,-2.36412 1.07072,-16.54611 0.65687,-18.75213 -0.22618,-1.20567 -0.71569,-2.07351 -1.16956,-2.07351 -0.42932,0 -2.66257,2.21625 -4.96278,4.92499 -5.91547,6.96608 -15.03128,15.45574 -15.03128,13.99879 0,-0.13909 1.69832,-3.25074 3.77404,-6.91477 2.07573,-3.66404 4.46003,-8.34397 5.29845,-10.39986 3.47919,-8.53131 5.65591,-21.30908 3.63004,-21.30908 -0.4433,0 -2.02633,2.0525 -3.51785,4.56111 -5.35157,9.00091 -11.2798,16.17048 -18.47179,22.33973 -8.9306,7.66061 -10.22666,8.24623 -21.3885,9.66422 -4.95312,0.62924 -9.63889,1.12742 -10.41282,1.10706 l -1.40714,-0.037 1.40714,-0.60612 c 6.2962,-2.71206 8.94849,-4.24555 14.35281,-8.29843 7.37613,-5.53162 12.9689,-10.85463 16.38361,-15.59336 8.0758,-11.20713 11.08986,-26.85736 7.41032,-38.47745 -0.83527,-2.63781 -2.4063,-6.04449 -3.49117,-7.57038 -2.14994,-3.02394 -2.21064,-3.56033 -0.28639,-2.5305 1.21015,0.64765 1.24309,0.60201 0.88113,-1.22082 -0.20681,-1.04147 -1.57401,-3.88828 -3.03822,-6.32623 -3.93832,-6.55742 -8.23483,-10.19453 -19.26709,-16.31013 -8.64595,-4.79278 -9.22333,-5.21299 -8.35499,-6.0807 0.86825,-0.86762 1.14093,-0.83525 3.94066,0.46779 1.65432,0.76995 4.9075,1.73931 7.22928,2.15412 2.32177,0.41481 8.50148,2.2939 13.73267,4.17576 5.2312,1.88186 9.98029,3.42156 10.55353,3.42156 1.62223,0 1.2294,-1.49231 -0.787,-2.98977 -11.24209,-8.34883 -30.50164,-13.83366 -48.96234,-13.94375 -7.53935,-0.045 -7.85586,-0.0897 -5.21247,-0.73688 1.54785,-0.37896 5.47377,-1.91594 8.72426,-3.41553 3.28991,-1.51777 7.03286,-2.83118 8.44282,-2.96262 6.16262,-0.57448 24.10043,6.72629 38.55558,15.69229 33.93983,21.05164 43.91809,25.7361 64.00413,30.04781 29.38372,6.30756 64.76735,15.93549 72.06109,19.60791 6.11336,3.07809 6.9546,4.45362 6.75548,11.04607 -0.16892,5.59261 -0.73518,8.54843 -1.69924,8.86979 -0.37901,0.12633 -0.6891,-0.16242 -0.6891,-0.64168 0,-1.41325 -2.0506,-2.13268 -4.94642,-1.73542 -1.45867,0.20011 -6.154,1.25033 -10.43407,2.33382 -4.28007,1.08349 -7.93159,1.82034 -8.11449,1.63743 -0.18291,-0.1829 -0.003,-0.33255 0.3997,-0.33255 0.40274,0 3.04112,-1.09677 5.86307,-2.43727 5.18807,-2.46447 8.78385,-5.56302 9.91827,-8.54677 1.06683,-2.80597 -1.12799,-5.82833 -6.08763,-8.38295 -2.40276,-1.23762 -20.75529,-7.81811 -27.68686,-9.92741 -8.10015,-2.4649 -31.54727,-7.65852 -43.30099,-9.59131 -14.55894,-2.39409 -20.90164,-4.77284 -33.52874,-12.57452 -7.53877,-4.65785 -10.12115,-4.18695 -5.43234,0.99059 3.21922,3.55477 6.17359,7.82317 9.88092,14.2757 3.61951,6.29968 6.91634,9.03231 13.14065,10.89184 1.31567,0.39307 2.39213,0.79856 2.39213,0.9011 0,0.10254 -2.04718,2.14231 -4.54929,4.53281 -6.87594,6.56923 -6.56595,5.84994 -7.25013,16.82351 -0.8182,13.12339 -1.56445,18.25446 -3.51255,24.15175 -1.95117,5.90657 -7.38988,16.19769 -6.39541,12.10138 l 0,0 z"
               style="fill:#008000;fill-opacity:1;stroke:#ffffff;stroke-width:0;stroke-linecap:round;stroke-linejoin:round;stroke-miterlimit:4;stroke-opacity:1;stroke-dasharray:none" />
            <path
               transform="matrix(2.1326625,0,0,2.1326625,-3692.2205,-1461.1938)"
               inkscape:connector-curvature="0"
               id="path4310"
               d="m 640.05504,180.43694 c -3.1915,-1.03573 -6.35158,-3.26192 -7.57841,-5.33879 l -0.98442,-1.66649 2.40336,-2.92165 c 1.32185,-1.6069 3.43382,-3.6608 4.69326,-4.56423 2.20252,-1.5799 2.5891,-1.654 10.13139,-1.94185 7.2859,-0.27807 7.97351,-0.21549 9.70465,0.88313 4.15409,2.6363 4.13862,7.4261 -0.0355,10.99902 -5.16883,4.42433 -12.84956,6.33081 -18.33429,4.55086 l 0,0 z m 12.32227,-3.15482 c 1.58203,-0.84668 1.38928,-2.69759 -0.32574,-3.12803 -1.61114,-0.40437 -3.0884,0.55095 -3.0884,1.99723 0,1.76802 1.37348,2.22293 3.41414,1.1308 z m -13.86801,-1.42669 c 1.7693,-1.76929 1.84179,-5.30777 0.10875,-5.30777 -1.06208,0 -3.72625,3.18321 -3.72625,4.45222 0,1.92181 2.06327,2.40978 3.6175,0.85555 z m 6.8209,-0.49792 c 0.75985,-0.75985 1.38155,-1.64051 1.38155,-1.95701 0,-1.01548 -2.69036,-2.37764 -4.32574,-2.19017 -1.34074,0.1537 -1.61196,0.47101 -1.76461,2.06447 -0.0992,1.03558 -0.0438,2.23868 0.12305,2.67357 0.48123,1.25405 3.07504,0.91985 4.58575,-0.59086 z"
               style="fill:#008000;fill-opacity:1;stroke:#ffffff;stroke-width:0;stroke-linecap:round;stroke-linejoin:round;stroke-miterlimit:4;stroke-opacity:1;stroke-dasharray:none" />
            <path
               transform="matrix(2.1326625,0,0,2.1326625,-3692.2205,-1461.1938)"
               inkscape:connector-curvature="0"
               id="path4312"
               d="m 579.38768,150.89174 c -1.88305,-1.52364 -4.25012,-3.27282 -5.26015,-3.88706 -1.67454,-1.01835 -1.74414,-1.16599 -0.78954,-1.67484 1.75783,-0.93702 8.1941,-2.92494 9.47005,-2.92494 1.18051,0 7.188,4.01803 8.63958,5.77847 0.64843,0.7864 0.2307,1.17982 -3.37713,3.18058 -2.26439,1.25575 -4.37404,2.28652 -4.68809,2.29062 -0.31405,0.004 -2.11167,-1.23918 -3.99472,-2.76283 l 0,0 z"
               style="fill:#008000;fill-opacity:1;stroke:#ffffff;stroke-width:0;stroke-linecap:round;stroke-linejoin:round;stroke-miterlimit:4;stroke-opacity:1;stroke-dasharray:none" />
            <path
               transform="matrix(2.1326625,0,0,2.1326625,-3692.2205,-1461.1938)"
               inkscape:connector-curvature="0"
               id="path4314"
               d="m 605.43102,138.82606 -4.33301,-3.01599 2.89051,-1.20124 2.89051,-1.20124 2.32714,1.78453 c 1.27993,0.9815 2.53053,1.95552 2.77911,2.1645 0.35677,0.29993 -1.59886,4.48543 -2.09577,4.48543 -0.069,0 -2.07533,-1.3572 -4.45849,-3.01599 z"
               style="fill:#008000;fill-opacity:1;stroke:#ffffff;stroke-width:0;stroke-linecap:round;stroke-linejoin:round;stroke-miterlimit:4;stroke-opacity:1;stroke-dasharray:none" />
            <path
               transform="matrix(2.1326625,0,0,2.1326625,-3692.2205,-1461.1938)"
               inkscape:connector-curvature="0"
               id="path4316"
               d="m 441.11656,160.83841 c -0.16738,-2.24438 -0.13809,-4.24906 0.0651,-4.45484 0.20318,-0.20578 1.8258,-0.55157 3.60583,-0.76843 l 3.23642,-0.39428 0,2.23772 c 0,1.23074 0.16107,3.41285 0.35793,4.84912 l 0.35794,2.61141 -3.65944,0 -3.65943,0 -0.30433,-4.0807 z"
               style="fill:#008000;fill-opacity:1;stroke:#ffffff;stroke-width:0;stroke-linecap:round;stroke-linejoin:round;stroke-miterlimit:4;stroke-opacity:1;stroke-dasharray:none" />
            <path
               transform="matrix(2.1326625,0,0,2.1326625,-3692.2205,-1461.1938)"
               inkscape:connector-curvature="0"
               id="path4318"
               d="m 376.18932,176.86993 5e-5,-0.18255 4.19498,-1.22874 c 6.91337,-2.02497 9.51535,-2.80866 11.3362,-3.41437 3.01353,-1.00245 4.13468,-1.57283 5.30228,-2.69753 0.59779,-0.57582 2.88112,-2.99431 2.8511,-3.01986 -0.0149,-0.0127 -3.47025,-0.0901 -7.67847,-0.17202 l -7.65132,-0.14892 -4.16864,1.12368 -4.16865,1.12367 -0.011,-0.13995 c -0.006,-0.077 -0.006,-0.14474 0,-0.15061 0.0234,-0.0227 4.77607,-1.35825 7.15222,-2.0099 6.91118,-1.89537 12.54833,-3.28524 15.51582,-3.82553 2.36102,-0.42987 3.6494,-0.51634 3.86234,-0.25923 0.2142,0.25864 -0.29338,1.20845 -1.80025,3.36873 -2.20167,3.15634 -4.13854,5.43035 -4.94747,5.80865 -0.0781,0.0366 -0.92569,0.29694 -1.88343,0.57865 -3.45199,1.01538 -16.68804,5.02492 -17.75632,5.37885 l -0.14951,0.0495 6e-5,-0.18255 0,0 z"
               style="fill:#008000;fill-opacity:1;stroke:none" />
            <path
               transform="matrix(2.1326625,0,0,2.1326625,-3692.2205,-1461.1938)"
               inkscape:connector-curvature="0"
               id="path4320"
               d="m 813.98877,197.49289 c 1.07834,-0.82882 6.4853,-3.43487 7.44944,-3.59048 0.63055,-0.10177 1.36811,0.11828 2.67741,0.79881 0.99392,0.51661 1.85991,1.09939 1.92443,1.29507 0.29763,0.90273 -5.25199,2.03747 -9.92295,2.02896 -2.80779,-0.005 -2.81269,-0.006 -2.12833,-0.53236 z"
               style="fill:#008000;fill-opacity:1;stroke:none" />
            <path
               transform="matrix(2.1326625,0,0,2.1326625,-3692.2205,-1461.1938)"
               inkscape:connector-curvature="0"
               id="path4322"
               d="m 309.40204,317.12912 c -1.29841,-0.0205 -1.31875,-0.0231 -1.35204,-0.17754 -0.0186,-0.0862 -0.11539,-0.72665 -0.21513,-1.42318 -0.24357,-1.70103 -0.53706,-3.13722 -0.84892,-4.15426 -0.33079,-1.07874 -0.34621,-1.39639 -0.0782,-1.61016 0.10881,-0.0868 0.36546,-0.21062 0.57034,-0.27521 0.47166,-0.14867 2.34647,-0.46838 2.74667,-0.46838 0.81873,0 1.16297,0.3909 3.05638,3.47062 1.57711,2.56525 2.38088,4.24482 2.1445,4.4812 -0.1812,0.1812 -1.80339,0.22346 -6.02362,0.15691 z"
               style="fill:#008000;fill-opacity:1;stroke:none" />
            <path
               transform="matrix(2.1326625,0,0,2.1326625,-3692.2205,-1461.1938)"
               inkscape:connector-curvature="0"
               id="path4324"
               d="m 480.43625,165.70109 c 1.80618,-1.85071 2.8933,-2.42803 4.56101,-2.42216 1.9718,0.007 2.20496,0.37631 0.79816,1.26438 -1.47807,0.93307 -4.57062,2.2566 -5.90638,2.52779 l -0.985,0.19998 1.53221,-1.56999 z"
               style="fill:#008000;fill-opacity:1;stroke:none" />
          </g>
        </g>
      </g>
    </g>
  </g>
</svg>
