<?xml version="1.0" encoding="UTF-8" standalone="no"?>
<!-- Generator: Adobe Illustrator 13.0.0, SVG Export Plug-In . SVG Version: 6.00 Build 14948)  -->

<svg
   xmlns:dc="http://purl.org/dc/elements/1.1/"
   xmlns:cc="http://creativecommons.org/ns#"
   xmlns:rdf="http://www.w3.org/1999/02/22-rdf-syntax-ns#"
   xmlns:svg="http://www.w3.org/2000/svg"
   xmlns="http://www.w3.org/2000/svg"
   xmlns:sodipodi="http://sodipodi.sourceforge.net/DTD/sodipodi-0.dtd"
   xmlns:inkscape="http://www.inkscape.org/namespaces/inkscape"
   version="1.1"
   id="Ebene_1"
   x="0px"
   y="0px"
   width="496.06299"
   height="496.06299"
   viewBox="0 0 496.06298 496.06298"
   enable-background="new 0 0 270.138 270.124"
   xml:space="preserve"
   sodipodi:version="0.32"
   inkscape:version="0.48.2 r9819"
   sodipodi:docname="b1-systems_rand.eps"
   inkscape:output_extension="org.inkscape.output.svg.inkscape"
   inkscape:export-filename="/home/MrsMiaWallace/Desktop/Arbeit/marketing-svn/logos/logos_int/b1-systems.png"
   inkscape:export-xdpi="300"
   inkscape:export-ydpi="300"><metadata
   id="metadata42"><rdf:RDF><cc:Work
       rdf:about=""><dc:format>image/svg+xml</dc:format><dc:type
         rdf:resource="http://purl.org/dc/dcmitype/StillImage" /><dc:title></dc:title></cc:Work></rdf:RDF></metadata><defs
   id="defs40"><inkscape:perspective
   sodipodi:type="inkscape:persp3d"
   inkscape:vp_x="0 : 135.062 : 1"
   inkscape:vp_y="0 : 1000 : 0"
   inkscape:vp_z="270.138 : 135.062 : 1"
   inkscape:persp3d-origin="135.069 : 90.041331 : 1"
   id="perspective44" />
	
	
	
	
	
	
	
	
	
	
	
	
	
	
	
	
	
</defs><sodipodi:namedview
   inkscape:window-height="1035"
   inkscape:window-width="1920"
   inkscape:pageshadow="2"
   inkscape:pageopacity="0.0"
   guidetolerance="10.0"
   gridtolerance="10.0"
   objecttolerance="10.0"
   borderopacity="1.0"
   bordercolor="#666666"
   pagecolor="#ffffff"
   id="base"
   showgrid="false"
   inkscape:zoom="1.7437302"
   inkscape:cx="248.03149"
   inkscape:cy="248.03149"
   inkscape:window-x="1366"
   inkscape:window-y="21"
   inkscape:current-layer="Ebene_1"
   units="cm"
   inkscape:window-maximized="1" />
<g
   id="g3016"
   transform="matrix(1.0024818,0,0,1.0025229,33.428097,30.344175)"><path
     inkscape:connector-curvature="0"
     id="path5"
     d="m 1.9999963,135.68899 0,86.3558 c 0,0 0,86.2828 0,129.4356 86.3196987,0 164.0269837,0.049 164.0269837,0.049 43.15907,0 43.12884,-43.1779 43.12884,-43.1779 0,0 0,-86.3224 0,-129.4846 0,0 0.0364,-43.1781 -43.12884,-43.1779 -8.62931,0 -129.497221,-2e-4 -164.0269837,0 z m 43.1779067,43.1779 c 10e-7,0 73.365937,0 94.942327,0 25.89419,0 25.90675,25.9067 25.90675,25.9067 l 0,77.6713 c 0,-2e-4 -0.0126,25.9067 -25.90675,25.9067 l -94.942327,0 0,-129.4847 z"
     style="fill:#224779" /><path
     inkscape:connector-curvature="0"
     id="path7"
     d="m 1.9999963,6.2043906 0,129.4845994 c 0,43.1528 0,34.5423 0,34.5423 0,0 94.9423237,0 129.4846537,0 43.15907,0 43.17791,-34.5423 43.17791,-34.5423 0,-8.6356 0,-43.147799 0,-86.306699 0,0 -0.0188,-43.1779004 -43.17791,-43.1779004 -8.64186,0 -94.954891,0 -129.4846537,0 z m 43.1779067,43.1779004 69.035587,0 c 17.27116,0 17.27116,17.2712 17.27116,17.2712 0.006,23.7351 0.006,28.0227 0,51.764299 0,0 0,17.2712 -17.27116,17.2712 -4.99294,0 -36.621148,0 -43.177909,0 -25.887903,0 -25.857678,0 -25.857678,0 l 0,-86.306699 z"
     style="fill:#224779" /><path
     inkscape:connector-curvature="0"
     id="polyline13"
     d="m 338.67149,58.007191 -138.12063,34.5298 138.12063,0"
     style="fill:#f7b234;stroke:#1a171b;stroke-width:2.28403282;stroke-linejoin:round" /><path
     inkscape:connector-curvature="0"
     id="polyline15"
     d="M 338.67149,58.007191 200.55086,92.536991 338.66521,6.2187906"
     style="fill:#1a171b;stroke:#1a171b;stroke-width:2.28403282;stroke-linecap:round;stroke-linejoin:round" /><path
     inkscape:connector-curvature="0"
     d="m 338.67149,351.51489 0,-345.2960994 34.53604,0 c 0,0 51.80093,0 51.79465,51.7884004 0,34.5298 0,293.509299 0,293.509299 l -86.33069,0 0,0 z"
     id="path17"
     style="fill:#1a171b;stroke:#1a171b;stroke-width:2.28403282;stroke-linecap:round;stroke-linejoin:round" /><path
     inkscape:connector-curvature="0"
     id="polygon19"
     d="m 338.67149,92.536991 0,258.977899 0,0 86.33069,0 -51.79465,-138.1222 0,-77.6904 z"
     style="fill:#ffffff;stroke:#1a171b;stroke-width:1.52268851" /><path
     inkscape:connector-curvature="0"
     d="m 4.3614412,420.24469 c 2.9926214,1.9014 7.2680188,3.3616 11.8684288,3.3616 6.814259,0 10.800757,-3.5202 10.800757,-8.8067 0,-4.7464 -2.760246,-7.5805 -9.733085,-10.1806 -8.4141964,-3.0664 -13.6285174,-7.5067 -13.6285174,-14.6946 0,-8.0468 6.6541084,-14.021 16.6949334,-14.021 5.212751,0 9.114464,1.2137 11.340874,2.5263 l -1.840164,5.4467 c -1.595227,-1.0065 -5.041609,-2.4651 -9.720524,-2.4651 -7.052915,0 -9.726805,4.2204 -9.726805,7.7406 0,4.8202 3.146492,7.2005 10.24808,9.9608 8.739208,3.4354 13.100962,7.5679 13.100962,15.1609 0,7.9479 -5.814102,14.9286 -17.988701,14.9286 -4.980376,0 -10.4270722,-1.5215 -13.185748,-3.3726 l 1.7695092,-5.5849 z"
     id="path21"
     style="fill:#1a171b" /><path
     inkscape:connector-curvature="0"
     d="m 77.43259,428.35269 0,-21.8951 -16.382483,-29.7095 7.654266,0 7.268019,14.2408 c 1.92652,3.9002 3.526457,7.0404 5.134246,10.6344 l 0.15387,0 c 1.386403,-3.3616 3.220287,-6.7342 5.219031,-10.6344 l 7.439161,-14.2408 7.47684,0 -17.235047,29.6357 0,21.9689 -6.727903,0 z"
     id="path23"
     style="fill:#1a171b" /><path
     inkscape:connector-curvature="0"
     d="m 128.5411,420.24469 c 2.98634,1.9014 7.28686,3.3616 11.87314,3.3616 6.8331,0 10.7882,-3.5202 10.7882,-8.8067 0,-4.7464 -2.75397,-7.5805 -9.70954,-10.1806 -8.43303,-3.0664 -13.64579,-7.5067 -13.64579,-14.6946 0,-8.0468 6.66039,-14.021 16.71378,-14.021 5.1892,0 9.12074,1.2137 11.31575,2.5263 l -1.83388,5.4467 c -1.60151,-1.0065 -5.04161,-2.4651 -9.70954,-2.4651 -7.05919,0 -9.74564,4.2204 -9.74564,7.7406 0,4.8202 3.14649,7.2005 10.26692,9.9608 8.73293,3.4354 13.08212,7.5679 13.08212,15.1609 0,7.9479 -5.82038,14.9286 -17.97614,14.9286 -4.98038,0 -10.42079,-1.5215 -13.16848,-3.3726 l 1.7491,-5.5849 z"
     id="path25"
     style="fill:#1a171b" /><path
     inkscape:connector-curvature="0"
     d="m 199.94323,382.41459 -15.70734,0 0,-5.6665 38.22893,0 0,5.6665 -15.78741,0 0,45.9381 -6.73418,0 0,-45.9381 0,0 z"
     id="path27"
     style="fill:#1a171b" /><path
     inkscape:connector-curvature="0"
     d="m 277.84245,404.15109 -19.98273,0 0,18.6199 22.34888,0 0,5.5817 -29.09563,0 0,-51.6046 27.95573,0 0,5.5817 -21.20898,0 0,16.315 19.98273,0 0,5.5063 z"
     id="path29"
     style="fill:#1a171b" /><path
     inkscape:connector-curvature="0"
     d="m 355.36642,405.68359 c -0.39881,-7.188 -0.85257,-15.9225 -0.85257,-22.2767 l -0.14759,0 c -1.84016,5.9742 -3.91898,12.4745 -6.50808,19.6012 l -9.10819,25.0353 -5.06673,0 -8.4142,-24.569 c -2.44779,-7.3606 -4.44025,-13.9472 -5.88789,-20.0675 l -0.15387,0 c -0.16015,6.428 -0.5464,15.0133 -1.00644,22.8152 l -1.38012,22.1291 -6.34794,0 3.59397,-51.6047 8.50055,0 8.80045,24.9506 c 2.14005,6.3667 3.82163,12.0207 5.20019,17.3936 l 0.16015,0 c 1.36128,-5.2128 3.22028,-10.8683 5.52049,-17.3936 l 9.18198,-24.9506 8.50683,0 3.22029,51.6047 -6.59288,0 -1.2184,-22.6676 z"
     id="path31"
     style="fill:#1a171b" /><path
     inkscape:connector-curvature="0"
     d="m 395.5941,420.24469 c 2.98634,1.9014 7.2743,3.3616 11.86215,3.3616 6.82054,0 10.80704,-3.5202 10.80704,-8.8067 0,-4.7464 -2.76025,-7.5805 -9.72053,-10.1806 -8.42676,-3.0664 -13.64579,-7.5067 -13.64579,-14.6946 0,-8.0468 6.67923,-14.021 16.71378,-14.021 5.19548,0 9.1019,1.2137 11.32831,2.5263 l -1.83388,5.4467 c -1.6125,-1.0065 -5.06673,-2.4651 -9.73937,-2.4651 -7.03407,0 -9.71581,4.2204 -9.71581,7.7406 0,4.8202 3.12765,7.2005 10.26064,9.9608 8.73293,3.4354 13.09468,7.5679 13.09468,15.1609 0,7.9479 -5.82666,14.9286 -18.00126,14.9286 -4.9741,0 -10.40823,-1.5215 -13.16848,-3.3726 l 1.75852,-5.5849 z"
     id="path33"
     style="fill:#1a171b" /><path
     inkscape:connector-curvature="0"
     d="m 381.83055,40.748591 c 0,9.5305 -7.72178,17.2586 -17.2586,17.2586 -9.53682,0 -17.26488,-7.7281 -17.26488,-17.2586 0,-9.5368 7.72806,-17.2712 17.26488,-17.2712 9.53682,0 17.2586,7.7344 17.2586,17.2712 z"
     id="path35"
     style="fill:#ffffff" /><path
     inkscape:connector-curvature="0"
     d="m 373.20753,40.748591 c 0,4.759 -3.85775,8.6293 -8.63558,8.6293 -4.75899,0 -8.62302,-3.8703 -8.62302,-8.6293 0,-4.7716 3.86403,-8.6419 8.62302,-8.6419 4.77783,0 8.63558,3.8703 8.63558,8.6419 z"
     id="path37"
     style="fill:#1a171b" /></g>
</svg>