<?xml version="1.0" encoding="UTF-8" standalone="no"?>
<!-- Created with Inkscape (http://www.inkscape.org/) -->

<svg
   xmlns:dc="http://purl.org/dc/elements/1.1/"
   xmlns:cc="http://creativecommons.org/ns#"
   xmlns:rdf="http://www.w3.org/1999/02/22-rdf-syntax-ns#"
   xmlns:svg="http://www.w3.org/2000/svg"
   xmlns="http://www.w3.org/2000/svg"
   xmlns:sodipodi="http://sodipodi.sourceforge.net/DTD/sodipodi-0.dtd"
   xmlns:inkscape="http://www.inkscape.org/namespaces/inkscape"
   width="7086.6138"
   height="14173.228"
   id="svg2"
   version="1.1"
   inkscape:version="0.48.4 r9939"
   sodipodi:docname="Big_Banner_4x2m_13.svg"
   inkscape:export-filename="/home/CarlosRibeiro/git_repo/artwork/Marketing Materials/Events/openSUSE Conference/2013-oS-Conference/Banners/Big_Banner_4x2m_11.png"
   inkscape:export-xdpi="71.996307"
   inkscape:export-ydpi="71.996307">
  <defs
     id="defs4">
    <path
       sodipodi:type="arc"
       style="color:#000000;fill:none;stroke:none;stroke-width:0.5;marker:none;visibility:visible;display:inline;overflow:visible;enable-background:accumulate"
       id="path4342"
       sodipodi:cx="607.81238"
       sodipodi:cy="304.80777"
       sodipodi:rx="27.219366"
       sodipodi:ry="27.219366"
       d="m 635.03174,304.80777 a 27.219366,27.219366 0 1 1 -54.43873,0 27.219366,27.219366 0 1 1 54.43873,0 z"
       transform="matrix(-1.1177078,0,0,-1.1177078,1256.9567,951.59946)" />
    <path
       sodipodi:type="arc"
       style="color:#000000;fill:none;stroke:none;stroke-width:0.5;marker:none;visibility:visible;display:inline;overflow:visible;enable-background:accumulate"
       id="path4342-6"
       sodipodi:cx="607.81238"
       sodipodi:cy="304.80777"
       sodipodi:rx="27.219366"
       sodipodi:ry="27.219366"
       d="m 635.03174,304.80777 a 27.219366,27.219366 0 1 1 -54.43873,0 27.219366,27.219366 0 1 1 54.43873,0 z"
       transform="matrix(-1.1177078,0,0,-1.1177078,1256.9567,951.59946)" />
    <path
       transform="matrix(-1,0,0,-1,1236.1913,210.5532)"
       d="m 567.54987,105.2766 a 59.454872,59.454872 0 1 1 -118.90974,0 59.454872,59.454872 0 1 1 118.90974,0 z"
       sodipodi:ry="59.454872"
       sodipodi:rx="59.454872"
       sodipodi:cy="105.2766"
       sodipodi:cx="508.095"
       id="path3048"
       style="opacity:0;fill:#999999;fill-opacity:1;stroke:#000000;stroke-opacity:1"
       sodipodi:type="arc" />
    <path
       transform="matrix(0,-1,1,0,622.83064,613.38133)"
       d="m 508.09375,33.6875 c -39.39808,0 -71.59375,32.195673 -71.59375,71.59375 0,39.39808 32.20337,71.5625 71.59375,71.5625 39.39038,0 71.59375,-32.16442 71.59375,-71.5625 0,-39.398077 -32.19567,-71.59375 -71.59375,-71.59375 z"
       id="path3883"
       style="opacity:0;fill:#999999;fill-opacity:1;stroke:none"
       inkscape:original="M 508.09375 45.8125 C 475.25773 45.8125 448.625 72.445231 448.625 105.28125 C 448.625 138.11727 475.25773 164.71875 508.09375 164.71875 C 540.92977 164.71875 567.5625 138.11727 567.5625 105.28125 C 567.5625 72.445231 540.92977 45.8125 508.09375 45.8125 z "
       inkscape:radius="12.135736"
       sodipodi:type="inkscape:offset" />
    <path
       transform="matrix(-1,0,0,-1,1236.1913,210.5532)"
       d="m 567.54987,105.2766 a 59.454872,59.454872 0 1 1 -118.90974,0 59.454872,59.454872 0 1 1 118.90974,0 z"
       sodipodi:ry="59.454872"
       sodipodi:rx="59.454872"
       sodipodi:cy="105.2766"
       sodipodi:cx="508.095"
       id="path3048-2"
       style="opacity:0;fill:#999999;fill-opacity:1;stroke:#000000;stroke-opacity:1"
       sodipodi:type="arc" />
    <path
       transform="matrix(0,-1,1,0,622.83064,613.38133)"
       d="m 508.09375,33.6875 c -39.39808,0 -71.59375,32.195673 -71.59375,71.59375 0,39.39808 32.20337,71.5625 71.59375,71.5625 39.39038,0 71.59375,-32.16442 71.59375,-71.5625 0,-39.398077 -32.19567,-71.59375 -71.59375,-71.59375 z"
       id="path3883-9"
       style="opacity:0;fill:#999999;fill-opacity:1;stroke:none"
       inkscape:original="M 508.09375 45.8125 C 475.25773 45.8125 448.625 72.445231 448.625 105.28125 C 448.625 138.11727 475.25773 164.71875 508.09375 164.71875 C 540.92977 164.71875 567.5625 138.11727 567.5625 105.28125 C 567.5625 72.445231 540.92977 45.8125 508.09375 45.8125 z "
       inkscape:radius="12.135736"
       sodipodi:type="inkscape:offset" />
    <clipPath
       clipPathUnits="userSpaceOnUse"
       id="clipPath19016">
      <rect
         width="14123.893"
         height="7037.2783"
         y="-6009.5957"
         x="24.66748"
         id="rect19018"
         style="opacity:0.5;color:#000000;fill:none;stroke:#ffffff;stroke-width:49.33598709;stroke-linecap:butt;stroke-linejoin:miter;stroke-miterlimit:4;stroke-opacity:1;stroke-dasharray:none;stroke-dashoffset:0;marker:none;visibility:visible;display:inline;overflow:visible;enable-background:accumulate" />
    </clipPath>
    <filter
       id="filter20021"
       inkscape:label="Drop Shadow"
       color-interpolation-filters="sRGB">
      <feFlood
         id="feFlood20023"
         flood-opacity="0.75"
         flood-color="rgb(0,0,0)"
         result="flood" />
      <feComposite
         in2="SourceGraphic"
         id="feComposite20025"
         in="flood"
         operator="in"
         result="composite1" />
      <feGaussianBlur
         id="feGaussianBlur20027"
         stdDeviation="10"
         result="blur" />
      <feOffset
         id="feOffset20029"
         dx="0"
         dy="0"
         result="offset" />
      <feComposite
         in2="offset"
         id="feComposite20031"
         in="SourceGraphic"
         operator="over"
         result="composite2" />
    </filter>
  </defs>
  <sodipodi:namedview
     id="base"
     pagecolor="#ffffff"
     bordercolor="#666666"
     borderopacity="1.0"
     inkscape:pageopacity="0.0"
     inkscape:pageshadow="2"
     inkscape:zoom="0.035630558"
     inkscape:cx="2164.94"
     inkscape:cy="7441.4506"
     inkscape:document-units="mm"
     inkscape:current-layer="layer1"
     showgrid="false"
     units="cm"
     inkscape:window-width="1280"
     inkscape:window-height="742"
     inkscape:window-x="0"
     inkscape:window-y="27"
     inkscape:window-maximized="1" />
  <metadata
     id="metadata7">
    <rdf:RDF>
      <cc:Work
         rdf:about="">
        <dc:format>image/svg+xml</dc:format>
        <dc:type
           rdf:resource="http://purl.org/dc/dcmitype/StillImage" />
        <dc:title />
      </cc:Work>
    </rdf:RDF>
  </metadata>
  <g
     inkscape:label="Layer 1"
     inkscape:groupmode="layer"
     id="layer1"
     transform="translate(0,13120.877)">
    <rect
       style="color:#000000;fill:#ffffff;fill-opacity:1;fill-rule:nonzero;stroke:#ffffff;stroke-width:64.79621887;stroke-linecap:butt;stroke-linejoin:miter;stroke-miterlimit:4;stroke-opacity:1;stroke-dasharray:none;stroke-dashoffset:0;marker:none;visibility:visible;display:inline;overflow:visible;enable-background:accumulate"
       id="rect5371"
       width="7021.8179"
       height="14108.432"
       x="32.397949"
       y="-13088.479" />
    <path
       inkscape:connector-curvature="0"
       id="path6103"
       d="m 6976.2569,-8809.9269 c 0,455.0425 0,910.0846 0,1365.1263 -455.0422,0 -910.0843,0 -1365.1264,0 0,-455.0417 0,-910.0838 0,-1365.1263 455.0421,0 910.0842,0 1365.1264,0 z"
       style="color:#000000;fill:#008000;fill-opacity:1;fill-rule:nonzero;stroke:#ffffff;stroke-width:30.34559631;stroke-linecap:butt;stroke-linejoin:miter;stroke-miterlimit:4;stroke-opacity:1;stroke-dasharray:none;stroke-dashoffset:0;marker:none;visibility:visible;display:inline;overflow:visible;enable-background:accumulate" />
    <text
       inkscape:export-ydpi="149.97067"
       inkscape:export-xdpi="149.97067"
       inkscape:export-filename="/home/CarlosRibeiro/Desktop/Layout.png"
       sodipodi:linespacing="81.999999%"
       id="text20041"
       y="-5010.3726"
       x="11233.322"
       style="font-size:279.15411377px;font-style:normal;font-variant:normal;font-weight:bold;font-stretch:normal;text-indent:0;text-align:start;text-decoration:none;line-height:81.99999928%;letter-spacing:0px;word-spacing:0px;text-transform:none;direction:ltr;block-progression:tb;writing-mode:lr-tb;text-anchor:start;baseline-shift:baseline;color:#000000;fill:#000000;fill-opacity:1;fill-rule:nonzero;stroke:none;stroke-width:4.14025307;marker:none;visibility:visible;display:inline;overflow:visible;filter:url(#filter20021);enable-background:accumulate;font-family:FifthLeg;-inkscape-font-specification:FifthLeg Bold"
       xml:space="preserve"
       transform="matrix(1.2278245,0,0,1.2278245,-2237.7746,7026.1287)"><tspan
         style="text-align:center;text-anchor:middle;fill:#000000"
         id="tspan20043"
         y="-5010.3726"
         x="11233.322"
         sodipodi:role="line" /></text>
    <text
       inkscape:export-ydpi="149.97067"
       inkscape:export-xdpi="149.97067"
       inkscape:export-filename="/home/CarlosRibeiro/Desktop/Layout3.png"
       sodipodi:linespacing="125%"
       id="text6219-3"
       y="-3187.7517"
       x="-531.01416"
       style="font-size:19.69123459px;font-style:normal;font-weight:normal;line-height:125%;letter-spacing:0px;word-spacing:0px;fill:#000000;fill-opacity:1;stroke:none;font-family:Sans"
       xml:space="preserve"><tspan
         id="tspan6221-5"
         y="-3187.7517"
         x="-531.01416"
         sodipodi:role="line" /></text>
    <text
       inkscape:export-ydpi="149.97067"
       inkscape:export-xdpi="149.97067"
       inkscape:export-filename="/home/CarlosRibeiro/Desktop/Layout3.png"
       y="-3911.0156"
       x="372.2395"
       xml:space="preserve"
       style="font-size:90.93436432px;font-style:normal;font-variant:normal;font-weight:bold;font-stretch:normal;text-align:center;line-height:125%;letter-spacing:0px;word-spacing:0px;text-anchor:middle;fill:#000000;fill-opacity:1;stroke:none;font-family:FifthLeg;-inkscape-font-specification:FifthLeg Bold"
       id="text4225"
       sodipodi:linespacing="125%" />
    <text
       inkscape:export-ydpi="149.97067"
       inkscape:export-xdpi="149.97067"
       inkscape:export-filename="/home/CarlosRibeiro/Desktop/Layout3.png"
       xml:space="preserve"
       style="font-size:10.6187849px;font-style:normal;font-weight:normal;line-height:125%;letter-spacing:0px;word-spacing:0px;color:#000000;fill:#6eb927;fill-opacity:1;fill-rule:nonzero;stroke:none;stroke-width:3.85548687;marker:none;visibility:visible;display:inline;overflow:visible;enable-background:accumulate;font-family:Sans"
       x="823.71313"
       y="-3358.3013"
       id="text3761"
       sodipodi:linespacing="125%"><tspan
         sodipodi:role="line"
         id="tspan3763"
         x="823.71313"
         y="-3358.3013" /></text>
    <text
       inkscape:export-ydpi="149.97067"
       inkscape:export-xdpi="149.97067"
       inkscape:export-filename="/home/CarlosRibeiro/Desktop/Layout3.png"
       xml:space="preserve"
       style="font-size:15.92817783px;font-style:normal;font-weight:normal;line-height:125%;letter-spacing:0px;word-spacing:0px;color:#000000;fill:#6eb927;fill-opacity:1;fill-rule:nonzero;stroke:none;stroke-width:3.85548687;marker:none;visibility:visible;display:inline;overflow:visible;enable-background:accumulate;font-family:Sans"
       x="824.66333"
       y="-3363.7524"
       id="text3765"
       sodipodi:linespacing="125%"><tspan
         sodipodi:role="line"
         x="824.66333"
         y="-3363.7524"
         id="tspan3773" /></text>
    <flowRoot
       inkscape:export-ydpi="149.97067"
       inkscape:export-xdpi="149.97067"
       inkscape:export-filename="/home/CarlosRibeiro/Desktop/Layout3.png"
       transform="matrix(1.2360533,0,0,1.2360533,372.23686,-3663.8046)"
       style="font-size:40px;font-style:normal;font-weight:normal;line-height:125%;letter-spacing:0px;word-spacing:0px;fill:#000000;fill-opacity:1;stroke:none;font-family:Sans"
       id="flowRoot4175"
       xml:space="preserve"><flowRegion
         id="flowRegion4177"><rect
           y="931.19714"
           x="0"
           height="208.09729"
           width="398.85315"
           id="rect4179" /></flowRegion><flowPara
         id="flowPara4181" /></flowRoot>    <text
       xml:space="preserve"
       style="font-size:807.74060059px;font-style:normal;font-weight:normal;line-height:125%;letter-spacing:0px;word-spacing:0px;fill:#000000;fill-opacity:1;stroke:none;font-family:Sans"
       x="-5881.209"
       y="2380.0093"
       id="text4587"
       sodipodi:linespacing="125%"
       inkscape:export-filename="/home/CarlosRibeiro/Desktop/Layout3.png"
       inkscape:export-xdpi="149.97067"
       inkscape:export-ydpi="149.97067"><tspan
         sodipodi:role="line"
         x="-5881.209"
         y="2380.0093"
         id="tspan4591" /></text>
    <path
       sodipodi:type="arc"
       style="color:#000000;fill:none;stroke:none;stroke-width:1;marker:none;visibility:visible;display:inline;overflow:visible;enable-background:accumulate"
       id="path7423"
       sodipodi:cx="884.41559"
       sodipodi:cy="315.63318"
       sodipodi:rx="71.767273"
       sodipodi:ry="72.838425"
       d="m 956.18286,315.63318 c 0,40.22755 -32.1313,72.83842 -71.76727,72.83842 -39.63597,0 -71.76727,-32.61087 -71.76727,-72.83842 0,-40.22755 32.1313,-72.83843 71.76727,-72.83843 39.63597,0 71.76727,32.61088 71.76727,72.83843 z"
       transform="matrix(-0.46042818,17.14463,-17.14463,-0.46042818,8551.6382,-15627.001)"
       inkscape:export-filename="/home/CarlosRibeiro/Desktop/Layout3.png"
       inkscape:export-xdpi="149.97067"
       inkscape:export-ydpi="149.97067" />
    <text
       inkscape:export-ydpi="149.97067"
       inkscape:export-xdpi="149.97067"
       inkscape:export-filename="/home/CarlosRibeiro/Desktop/Layout3.png"
       sodipodi:linespacing="125%"
       id="text6219-3-3"
       y="-3414.0146"
       x="-13907.679"
       style="font-size:19.69123459px;font-style:normal;font-weight:normal;line-height:125%;letter-spacing:0px;word-spacing:0px;fill:#000000;fill-opacity:1;stroke:none;font-family:Sans"
       xml:space="preserve"><tspan
         id="tspan6221-5-2"
         y="-3414.0146"
         x="-13907.679"
         sodipodi:role="line" /></text>
    <text
       inkscape:export-ydpi="149.97067"
       inkscape:export-xdpi="149.97067"
       inkscape:export-filename="/home/CarlosRibeiro/Desktop/Layout3.png"
       y="-4137.2798"
       x="-13004.43"
       xml:space="preserve"
       style="font-size:90.93436432px;font-style:normal;font-variant:normal;font-weight:bold;font-stretch:normal;text-align:center;line-height:125%;letter-spacing:0px;word-spacing:0px;text-anchor:middle;fill:#000000;fill-opacity:1;stroke:none;font-family:FifthLeg;-inkscape-font-specification:FifthLeg Bold"
       id="text4225-6"
       sodipodi:linespacing="125%" />
    <text
       inkscape:export-ydpi="149.97067"
       inkscape:export-xdpi="149.97067"
       inkscape:export-filename="/home/CarlosRibeiro/Desktop/Layout3.png"
       xml:space="preserve"
       style="font-size:10.6187849px;font-style:normal;font-weight:normal;line-height:125%;letter-spacing:0px;word-spacing:0px;color:#000000;fill:#6eb927;fill-opacity:1;fill-rule:nonzero;stroke:none;stroke-width:3.85548687;marker:none;visibility:visible;display:inline;overflow:visible;enable-background:accumulate;font-family:Sans"
       x="-12552.951"
       y="-3584.5642"
       id="text3761-1"
       sodipodi:linespacing="125%"><tspan
         sodipodi:role="line"
         id="tspan3763-0"
         x="-12552.951"
         y="-3584.5642" /></text>
    <text
       inkscape:export-ydpi="149.97067"
       inkscape:export-xdpi="149.97067"
       inkscape:export-filename="/home/CarlosRibeiro/Desktop/Layout3.png"
       xml:space="preserve"
       style="font-size:15.92817783px;font-style:normal;font-weight:normal;line-height:125%;letter-spacing:0px;word-spacing:0px;color:#000000;fill:#6eb927;fill-opacity:1;fill-rule:nonzero;stroke:none;stroke-width:3.85548687;marker:none;visibility:visible;display:inline;overflow:visible;enable-background:accumulate;font-family:Sans"
       x="-12552.001"
       y="-3590.0154"
       id="text3765-0"
       sodipodi:linespacing="125%"><tspan
         sodipodi:role="line"
         x="-12552.001"
         y="-3590.0154"
         id="tspan3773-3" /></text>
    <flowRoot
       inkscape:export-ydpi="149.97067"
       inkscape:export-xdpi="149.97067"
       inkscape:export-filename="/home/CarlosRibeiro/Desktop/Layout3.png"
       transform="matrix(1.2360533,0,0,1.2360533,-13004.428,-3890.0676)"
       style="font-size:40px;font-style:normal;font-weight:normal;line-height:125%;letter-spacing:0px;word-spacing:0px;fill:#000000;fill-opacity:1;stroke:none;font-family:Sans"
       id="flowRoot4175-0"
       xml:space="preserve"><flowRegion
         id="flowRegion4177-1"><rect
           y="931.19714"
           x="0"
           height="208.09729"
           width="398.85315"
           id="rect4179-1" /></flowRegion><flowPara
         id="flowPara4181-8" /></flowRoot>    <text
       xml:space="preserve"
       style="font-size:807.74060059px;font-style:normal;font-weight:normal;line-height:125%;letter-spacing:0px;word-spacing:0px;fill:#000000;fill-opacity:1;stroke:none;font-family:Sans"
       x="-19257.873"
       y="2153.7461"
       id="text4587-1"
       sodipodi:linespacing="125%"
       inkscape:export-filename="/home/CarlosRibeiro/Desktop/Layout3.png"
       inkscape:export-xdpi="149.97067"
       inkscape:export-ydpi="149.97067"><tspan
         sodipodi:role="line"
         x="-19257.873"
         y="2153.7461"
         id="tspan4591-8" /></text>
    <text
       transform="matrix(20.329554,5.7165783,-5.7165783,20.329554,-2390.7553,-10031.854)"
       sodipodi:linespacing="125%"
       id="text8930"
       style="font-size:40px;font-style:normal;font-weight:normal;line-height:125%;letter-spacing:0px;word-spacing:0px;fill:#000000;fill-opacity:1;stroke:none;font-family:Sans"
       xml:space="preserve"
       x="10705.212"
       y="912.92065">Power to the Geeko</text>
    <text
       xml:space="preserve"
       style="font-size:587.02850342px;font-style:normal;font-weight:normal;line-height:125%;letter-spacing:0px;word-spacing:0px;fill:#008000;fill-opacity:1;stroke:none;font-family:Sans"
       x="267.97226"
       y="-4759.2197"
       id="text20050"
       sodipodi:linespacing="125%"><tspan
         sodipodi:role="line"
         id="tspan20052"
         x="267.97226"
         y="-4759.2197"
         style="font-style:normal;font-variant:normal;font-weight:bold;font-stretch:normal;fill:#008000;font-family:FifthLeg;-inkscape-font-specification:FifthLeg Bold">opeSUSE Conference 2013</tspan></text>
    <text
       xml:space="preserve"
       style="font-size:408.08987427px;font-style:normal;font-weight:normal;line-height:125%;letter-spacing:0px;word-spacing:0px;fill:#008000;fill-opacity:1;stroke:none;font-family:Sans"
       x="826.64734"
       y="-4268.4941"
       id="text20059"
       sodipodi:linespacing="125%"><tspan
         sodipodi:role="line"
         id="tspan20061"
         x="826.64734"
         y="-4268.4941"
         style="font-style:normal;font-variant:normal;font-weight:bold;font-stretch:normal;fill:#008000;font-family:FifthLeg;-inkscape-font-specification:FifthLeg Bold">18-22 July @ Thessaloniki, Greece</tspan></text>
    <path
       style="color:#000000;fill:#008000;fill-opacity:1;fill-rule:nonzero;stroke:#ffffff;stroke-width:30.34559631;stroke-linecap:butt;stroke-linejoin:miter;stroke-miterlimit:4;stroke-opacity:1;stroke-dasharray:none;stroke-dashoffset:0;marker:none;visibility:visible;display:inline;overflow:visible;enable-background:accumulate"
       d="m 5595.1871,-12995.218 c 0,455.041 0,910.084 0,1365.126 -455.0421,0 -910.0843,0 -1365.1264,0 0,-455.042 0,-910.085 0,-1365.126 455.0421,0 910.0843,0 1365.1264,0 z"
       id="path5804"
       inkscape:connector-curvature="0" />
    <path
       style="color:#000000;fill:#008000;fill-opacity:1;fill-rule:nonzero;stroke:#ffffff;stroke-width:30.34559631;stroke-linecap:butt;stroke-linejoin:miter;stroke-miterlimit:4;stroke-opacity:1;stroke-dasharray:none;stroke-dashoffset:0;marker:none;visibility:visible;display:inline;overflow:visible;enable-background:accumulate"
       d="m 6976.2569,-12995.218 c 0,455.041 0,910.084 0,1365.126 -455.0422,0 -910.0843,0 -1365.1264,0 0,-455.042 0,-910.085 0,-1365.126 455.0421,0 910.0842,0 1365.1264,0 z"
       id="path5806"
       inkscape:connector-curvature="0" />
    <path
       style="color:#000000;fill:#008000;fill-opacity:1;fill-rule:nonzero;stroke:#ffffff;stroke-width:30.34559631;stroke-linecap:butt;stroke-linejoin:miter;stroke-miterlimit:4;stroke-opacity:1;stroke-dasharray:none;stroke-dashoffset:0;marker:none;visibility:visible;display:inline;overflow:visible;enable-background:accumulate"
       d="m 2831.3767,-12995.218 c 0,455.041 0,910.084 0,1365.126 -455.0421,0 -910.0842,0 -1365.1264,0 0,-455.042 0,-910.085 0,-1365.126 455.0422,0 910.0843,0 1365.1264,0 z"
       id="path5808"
       inkscape:connector-curvature="0" />
    <path
       style="color:#000000;fill:#008000;fill-opacity:1;fill-rule:nonzero;stroke:#ffffff;stroke-width:30.34559631;stroke-linecap:butt;stroke-linejoin:miter;stroke-miterlimit:4;stroke-opacity:1;stroke-dasharray:none;stroke-dashoffset:0;marker:none;visibility:visible;display:inline;overflow:visible;enable-background:accumulate"
       d="m 4212.4463,-12995.218 c 0,455.041 0,910.084 0,1365.126 -455.0421,0 -910.0842,0 -1365.1263,0 0,-455.042 0,-910.085 0,-1365.126 455.0421,0 910.0842,0 1365.1263,0 z"
       id="path5810"
       inkscape:connector-curvature="0" />
    <path
       style="color:#000000;fill:#008000;fill-opacity:1;fill-rule:nonzero;stroke:#ffffff;stroke-width:30.34559631;stroke-linecap:butt;stroke-linejoin:miter;stroke-miterlimit:4;stroke-opacity:1;stroke-dasharray:none;stroke-dashoffset:0;marker:none;visibility:visible;display:inline;overflow:visible;enable-background:accumulate"
       d="m 5595.1871,-11595.417 c 0,455.042 0,910.084 0,1365.126 -455.0421,0 -910.0843,0 -1365.1264,0 0,-455.042 0,-910.084 0,-1365.126 455.0421,0 910.0843,0 1365.1264,0 z"
       id="path5814"
       inkscape:connector-curvature="0" />
    <path
       style="color:#000000;fill:#008000;fill-opacity:1;fill-rule:nonzero;stroke:#ffffff;stroke-width:30.34559631;stroke-linecap:butt;stroke-linejoin:miter;stroke-miterlimit:4;stroke-opacity:1;stroke-dasharray:none;stroke-dashoffset:0;marker:none;visibility:visible;display:inline;overflow:visible;enable-background:accumulate"
       d="m 6976.2569,-11595.417 c 0,455.042 0,910.084 0,1365.126 -455.0422,0 -910.0843,0 -1365.1264,0 0,-455.042 0,-910.084 0,-1365.126 455.0421,0 910.0842,0 1365.1264,0 z"
       id="path5816"
       inkscape:connector-curvature="0" />
    <path
       style="color:#000000;fill:#008000;fill-opacity:1;fill-rule:nonzero;stroke:#ffffff;stroke-width:30.34559631;stroke-linecap:butt;stroke-linejoin:miter;stroke-miterlimit:4;stroke-opacity:1;stroke-dasharray:none;stroke-dashoffset:0;marker:none;visibility:visible;display:inline;overflow:visible;enable-background:accumulate"
       d="m 4212.4463,-11595.417 c 0,455.042 0,910.084 0,1365.126 -455.0421,0 -910.0842,0 -1365.1263,0 0,-455.042 0,-910.084 0,-1365.126 455.0421,0 910.0842,0 1365.1263,0 z"
       id="path5820"
       inkscape:connector-curvature="0" />
    <path
       inkscape:connector-curvature="0"
       id="path6019"
       d="m 5450.8793,1085.6723 c 0,0 16.1358,-27.3018 -27.3793,-18.7121 -42.3976,8.3692 -51.9116,2.5242 -51.9116,-31.8884 0,-23.1749 13.8815,-53.45839 30.8484,-67.29682 38.8149,-31.65882 48.1972,-208.75659 13.7397,-259.34452 -13.4808,-19.79143 -24.7811,-48.99737 -25.1115,-64.90246 -0.3293,-15.90497 -38.8262,-99.1509 -85.547,-184.991 -84.5681,-155.37606 -84.9462,-156.93917 -84.4864,-350.09835 0.2533,-106.7139339 8.6783,-233.73353 18.7204,-282.26577 24.7186,-119.45476 -36.8661,-283.62156 -119.4377,-318.38694 -40.5467,-17.07128 -52.1388,-32.76947 -43.2585,-58.58121 13.6863,-39.78405 -44.3553,-366.52297 -65.1084,-366.52297 -40.1004,0 -75.1994,363.05968 -37.6054,388.97645 9.9296,6.84472 13.5228,25.61452 7.9856,41.71006 -5.5384,16.0958 -0.2907,49.64238 11.658,74.54794 11.9499,24.90554 47.5089,141.40992 79.0196,258.89852 56.303,209.923407 57.0297,218.540881 42.0626,498.56649 -8.3773,156.72323 -15.6736,337.06599 -16.2152,400.76172 -0.929,109.20078 -3.6772,115.81059 -48.1767,115.81059 -41.5505,0 -47.8565,-10.0705 -52.7339,-84.22594 -6.3433,-96.43726 -49.7994,-213.38939 -84.2921,-226.85166 -17.3871,-6.78608 -15.5248,-19.44355 7.2179,-49.07023 22.4554,-29.25027 30.9927,-84.96447 31.9319,-208.37696 1.2117,-159.19277 -3.1274,-177.63677 -78.9514,-335.561139 -129.0972,-268.881351 -145.2454,-246.112471 -148.1912,208.939259 -1.7693,273.19697 1.7341,309.55437 32.2362,334.43143 24.7969,20.22606 27.9823,32.21199 11.5673,43.52862 -17.4235,12.01121 -16.9942,23.41006 1.859,49.36911 18.4444,25.39581 18.6623,29.83112 0.8812,17.9147 -30.5238,-20.45578 -67.2456,83.05994 -54.9391,154.8688 9.4855,55.34594 -14.9707,126.61865 -43.4469,126.61865 -45.9339,0 -72.2015,-67.6626 -71.2544,-183.54868 0.5474,-66.97366 -8.1866,-154.93399 -19.4073,-195.46784 -25.5909,-92.4366 -60.39,-351.19634 -63.0611,-468.897138 l -2.0213,-89.099242 -17.2089,85.215946 c -16.6877,82.633384 -19.261,84.948564 -84.9282,76.397294 -58.8751,-7.66682 -66.4403,-3.67113 -57.9268,30.59462 30.2024,121.56561 53.8048,264.22213 45.2865,273.72365 -13.9064,15.51107 -126.5841,-52.31354 -126.5841,-76.19478 0,-10.88069 -26.1584,-53.01613 -58.1313,-93.63434 l -58.1314,-73.85106 38.8047,-79.541142 c 50.692,-103.9098529 94.7123,-241.148898 123.4465,-384.859518 l 23.1547,-115.81061 -171.4311,-6.17313 c -234.6886,-8.45127 -241.9793,-5.10429 -295.2841,135.54892 -49.9294,131.74793 -54.8794,167.607 -31.022,224.732133 10.6096,25.40348 5.6377,55.8657891 -14.7952,90.650444 -21.4237,36.471257 -29.1785,88.824763 -25.5221,172.303773 5.8341,133.20701 -7.495,172.55547 -58.4529,172.55547 -54.1408,0 -74.0904,-44.54674 -78.8617,-176.09417 -3.1584,-87.07547 3.2968,-127.654015 22.4583,-141.181104 18.2623,-12.892301 19.4346,-19.086841 3.6534,-19.305858 -12.7803,-0.168455 -28.5669,-24.010868 -35.0816,-52.9635239 -6.5144,-28.9526521 -18.26,-52.6412951 -26.1011,-52.6412951 -27.166,0 -113.7912,111.186645 -113.7912,146.055289 0,36.361802 -34.4579,85.565882 -59.9222,85.565882 -26.7205,0 -74.3444,-127.80809 -62.7747,-168.4686949 6.2639,-22.0139401 1.9522,-79.1161401 -9.5814,-126.8936851 -15.7401,-65.20199 -15.4505,-94.28752 1.1608,-116.61407 12.1725,-16.36015 29.2909,-24.81029 38.0407,-18.77827 8.7501,6.03213 30.2795,-13.49655 47.8432,-43.39669 31.2828,-53.25562 30.6262,-55.90164 -32.2059,-129.74731 -35.277,-41.46054 -101.7831,-102.49064 -147.7915,-135.62264 -100.093,-72.07914 -95.2955,-75.18394 -276.599,179.01412 -87.6679,122.91552 -114.2311,174.78145 -102.4495,200.03648 29.3426,62.89914 94.5946,310.28715 94.5946,358.63406 0,26.30944 17.5346,72.7009 38.9662,103.09189 34.1267,48.39364 35.427,58.14334 10.4686,78.50025 -24.8747,20.28839 -22.7038,33.76264 17.0763,105.98816 25.0657,45.50948 45.8391,89.85117 46.1629,98.5371 1.0401,27.90636 -146.8109,16.81942 -173.5571,-13.01444 -14.2039,-15.84374 -44.5423,-35.433 -67.4185,-43.53198 -46.7484,-16.55016 -49.3686,-28.44764 -23.1833,-105.27047 10.5518,-30.95636 11.142,-54.01206 1.3836,-54.01206 -22.5394,0 -76.4241,-122.02218 -76.4241,-173.06344 0,-57.65494 -273.4807,-596.88867 -351.4778,-693.02404 -17.555,-21.63746 -42.906,-39.3407 -56.3359,-39.3407 -24.9718,0 -215.1344,401.366 -215.1344,454.07227 0,16.021697 -26.5099,102.8113621 -58.9113,192.866084 -41.9424,116.573516 -60.1878,204.514426 -63.3435,305.308966 -2.4379,77.86538 -14.0807,154.54046 -25.8725,170.38923 -11.7921,15.84876 -15.3885,35.56589 -7.9925,43.81575 21.4185,23.89118 -36.4859,54.14902 -104.2972,54.50062 -60.0101,0.31169 -61.7997,-2.0971 -50.6849,-68.18279 11.2276,-66.75713 8.5772,-70.06467 -103.8909,-129.64387 -63.4767,-33.62649 -123.5432,-78.08576 -133.4812,-98.7981 -12.632,-26.32837 -45.0132,-39.58861 -107.622,-44.07184 l -89.5538,-6.4128 5.4642,-136.86709 c 3.0055,-75.27675 14.1006,-207.932528 24.6563,-294.79047 56.6451,-466.1073 57.123,-507.81342 6.9151,-603.37727 -36.4916,-69.45656 -46.4741,-117.88101 -46.4741,-225.44021 0,-133.27841 -1.3838,-137.16301 -51.1708,-143.64581 -42.5052,-5.5344 -53.7034,-20.3548 -66.128,-87.5179 -12.5427,-67.803 -7.1132,-94.9958 33.6337,-168.4518 26.725,-48.1781 43.395,-67.0743 37.0444,-41.9915 -6.3507,25.0828 -2.7066,51.6993 8.0984,59.1479 10.8048,7.4489 19.6449,36.1132 19.6449,63.6989 0,27.5855 8.0007,55.6712 17.779,62.4122 10.7101,7.3834 14.2227,-36.0763 8.8345,-109.3038 -4.9193,-66.858 -17.0994,-124.6933 -27.0666,-128.523 -11.3451,-4.3588 -10.8927,-22.0308 1.2101,-47.2542 10.6324,-22.1604 18.2534,-151.6829 16.9356,-287.8279 -1.9513,-201.5657 3.9606,-261.2229 31.8329,-321.2339 45.0689,-97.0357 69.3818,-546.6683 39.0646,-722.4414 -17.688,-102.5509 -16.6359,-125.4242 6.5064,-141.4564 20.7518,-14.3759 31.8628,-5.0481 44.7499,37.5691 13.6853,45.2571 19.3973,49.5352 28.3158,21.2087 6.1446,-19.5167 13.0054,121.7425 15.2459,313.9094 2.2409,192.1671 7.8844,353.6444 12.5414,358.8389 4.6568,5.1948 25.0482,-0.4525 45.3139,-12.5513 38.8738,-23.2068 150.8751,8.2783 178.4664,50.1689 20.7089,31.4419 17.2965,136.867 -4.4303,136.867 -10.3824,0 -18.734,16.5821 -18.559,36.8489 0.2245,26.027 11.1184,18.0519 37.0942,-27.1559 26.5024,-46.1244 40.3062,-120.0193 49.412,-264.5143 l 12.6357,-200.5094 -59.3051,-75.3424 c -48.2216,-61.2614 -53.8538,-77.6755 -30.1382,-87.8265 16.6677,-7.1343 33.7708,0.899 39.9104,18.7451 17.5453,51.0007 44.3187,35.5837 46.3252,-26.6754 1.5781,-48.9773 6.2523,-43.2959 30.3132,36.8486 18.1851,60.5727 29.4286,185.9051 31.1688,347.432 2.6459,245.6395 1.0287,256.4001 -58.0373,386.3225 -57.19,125.7946 -59.5665,139.8461 -40.4614,239.2152 11.3085,58.8166 15.0516,172.1462 8.452,255.8998 -6.515,82.6812 -11.3276,190.6 -10.6945,239.8195 0.9306,72.4195 -5.295,89.4967 -32.6405,89.525 -30.6931,0.042 -33.4396,21.7502 -29.9561,236.88519 17.9118,1106.18407 20.5386,1138.81715 87.2856,1084.37631 27.9778,-22.8195 29.6187,-36.84716 11.2025,-95.77433 -18.9955,-60.781451 -14.2734,-89.719279 39.4804,-241.9435 33.5811,-95.09756 68.5054,-181.90623 77.6091,-192.90813 9.1037,-11.00203 16.8548,-63.11689 17.2247,-115.81062 0.7041,-100.37475 33.3225,-269.05248 79.6031,-411.6541 15.0345,-46.32415 23.6771,-95.98541 19.206,-110.35837 -4.4712,-14.37296 4.7479,-40.49645 20.4865,-58.05205 24.2987,-27.1037 27.4564,-100.3594 20.9293,-485.5321 -4.2279,-249.4867 -12.5678,-462.4218 -18.5334,-473.1887 -5.9657,-10.7668 -0.3925,-41.0916 12.3825,-67.3882 27.0106,-55.5955 46.3081,-163.2184 76.5333,-426.8287 28.0228,-244.4033 26.3299,-359.3123 -5.9706,-405.246 -23.556,-33.4994 -22.8986,-34.2484 7.0596,-8.0413 37.8799,33.1373 41.6626,19.6161 12.8909,-46.0753 -17.2016,-39.2745 -14.5055,-38.3034 18.4574,6.6484 l 38.6016,52.6411 2.6097,-52.6411 c 1.7897,-36.0991 5.3221,-41.0615 11.2426,-15.7923 10.0264,42.7973 37.2986,48.6872 48.7477,10.5283 4.3436,-14.4765 4.2146,0.1266 -0.2868,32.4537 -7.6901,55.226 -4.9492,57.8903 45.3995,44.1349 29.4707,-8.0518 58.8665,-23.6209 65.3241,-34.5983 6.4574,-10.9774 24.6642,0.6211 40.4592,25.7757 20.6855,32.9422 31.505,37.9592 38.6812,17.9369 6.6816,-18.643 10.4535,-15.8799 11.453,8.3904 1.0476,25.4472 11.2953,32.089 34.5255,22.3779 27.6643,-11.5647 29.2361,-8.5888 9.6678,18.3026 -12.8516,17.6617 -24.3999,64.4439 -25.6625,103.9607 -4.3822,137.1573 35.8662,514.5375 64.6883,606.5374 24.2399,77.3731 26.1674,141.087 11.7838,389.5447 -9.4577,163.3727 -17.3775,342.0497 -17.5997,397.0597 -0.2775,68.6027 -7.8155,98.3649 -24.0006,94.7542 -43.017,-9.5968 -36.5369,109.959 13.9475,257.3273 27.3076,79.71327 61.8868,156.26093 76.8426,170.10618 14.956,13.84501 27.8388,54.80786 28.6286,91.02818 0.7892,36.22045 12.5689,99.01939 26.1753,139.55307 28.258,84.17951 23.0709,93.45808 105.9432,-189.50832 32.2219,-110.02002 66.6046,-210.86218 76.4059,-224.09346 10.6921,-14.43378 12.5584,-136.56825 4.6656,-305.31875 -7.2351,-154.6943 -11.7897,-311.7764 -10.1212,-349.0723 1.6688,-37.2956 -13.9511,-115.8761 -34.7104,-174.6234 -54.4764,-154.163 -94.1561,-434.876 -81.2254,-574.6267 7.0791,-76.5077 3.2197,-129.6566 -10.7814,-148.4742 -11.9939,-16.1204 -16.5046,-44.724 -10.0232,-63.5634 13.7439,-39.9518 101.9928,-46.7873 102.4195,-7.933 0.1964,17.8124 6.6974,16.1109 20.1138,-5.2641 14.7956,-23.5724 15.9195,-18.2307 4.4303,21.0565 -26.541,90.7562 -11.4805,440.1728 21.3837,496.1203 16.1107,27.4265 29.292,63.2527 29.292,79.6133 0,16.3612 11.9858,40.843 26.6351,54.4046 40.5632,37.5508 57.2387,-3.5604 65.3419,-161.0911 1.4893,-28.9724 23.6601,-59.0943 58.1263,-78.975 71.0379,-40.9763 147.5155,-7.7128 164.4261,71.5159 6.3741,29.8626 20.1614,66.4205 30.6387,81.2396 12.9558,18.3249 11.9234,44.3903 -3.2277,81.4819 -19.3534,47.38 -18.2763,52.8252 8.2071,41.4895 16.7666,-7.1766 38.2845,-13.0485 47.8178,-13.0485 9.5332,0 17.3402,-11.8442 17.3482,-26.3205 0.014,-14.4765 24.0897,-83.1732 53.5144,-152.6594 56.6701,-133.8265 114.0192,-367.5511 123.1334,-501.8268 8.6027,-126.7404 73.3438,-152.3501 125.2966,-49.5635 26.2165,51.8679 25.3827,58.1033 -11.6333,87.0235 -26.8009,20.9392 -44.0103,64.1981 -52.4921,131.949 -6.9404,55.438 -48.7862,238.9762 -92.9908,407.8625 -56.6328,216.3695 -78.1062,333.5647 -72.7016,396.7805 l 7.6701,89.714 52.5839,-88.5985 c 28.9212,-48.729 67.4696,-125.4195 85.6631,-170.423 24.1534,-59.7458 44.4948,-81.8249 75.3856,-81.8249 65.6443,0 68.3935,52.9196 6.1833,119.0161 -56.4962,60.0253 -112.5658,177.5899 -136.5539,286.3209 -11.7849,53.4165 -8.4085,57.9054 43.5564,57.9054 30.9825,0 94.0204,-14.2729 140.0846,-31.7177 46.0642,-17.4445 96.2457,-26.3699 111.5147,-19.8342 21.2336,9.0885 25.5843,-0.8213 18.5024,-42.1452 -22.514,-131.3711 74.208,-249.0995 179.1534,-218.0618 62.4851,18.4799 130.1749,104.4438 110.3779,140.1747 -14.4664,26.1091 36.6753,47.0542 78.4926,32.147 27.6893,-9.8712 113.1364,-50.1917 133.225,-62.8662 3.1911,-2.0129 -33.2626,-50.9677 -81.0112,-108.7863 -51.7664,-62.6856 -108.946,-110.062 -141.6366,-117.355 -74.3795,-16.5932 -108.5462,-88.0267 -66.7471,-139.5475 40.5045,-49.923 98.5075,-31.8992 132.3643,41.1298 14.6266,31.5514 49.6575,74.2215 77.8443,94.8226 86.8449,63.4727 214.961,204.1539 214.961,236.0445 0,16.6442 -26.2153,54.8679 -58.2563,84.9412 -32.042,30.0734 -65.8102,76.8387 -75.0415,103.9229 -9.2325,27.0843 -28.8283,49.2441 -43.5491,49.2441 -40.7896,0 -52.4489,54.7754 -60.1175,282.4242 -3.8667,114.7994 -15.8428,218.55521 -26.6128,230.56833 -10.77,12.01286 -19.5811,43.63532 -19.5811,70.27169 0,39.55744 10.1705,48.42989 55.5172,48.42989 30.5351,0 60.0471,8.17564 65.5842,18.16824 5.5361,9.99235 48.5117,30.1745 95.4994,44.84945 46.9888,14.67469 85.4345,34.92525 85.4345,45.00119 0,10.07594 9.1019,18.32 20.2285,18.32 11.1254,0 18.3569,-21.31966 16.0699,-47.37702 -2.2871,-26.05748 1.0208,-61.59024 7.3508,-78.96186 14.6946,-40.33025 53.8545,-388.55971 64.5246,-573.78871 5.3873,-93.5291 1.2026,-142.1312 -12.2395,-142.1312 -31.2608,0 -24.2859,-104.9518 7.8901,-118.7242 15.5737,-6.6662 28.3162,-33.8133 28.3162,-60.327 0,-26.5134 26.6321,-117.8851 59.184,-203.0478 32.5509,-85.1624 65.2811,-206.9558 72.7329,-270.6517 7.4519,-63.6957 15.3953,-101.5973 17.6518,-84.2258 2.9685,22.8524 8.5874,19.9415 20.3261,-10.5282 16.2231,-42.113 16.2231,-42.113 18.8771,0 2.6539,42.1129 2.6539,42.1129 18.8771,0 16.2231,-42.113 16.2231,-42.113 17.8391,0 1.3445,35.0314 4.6934,36.8019 19.9151,10.5282 25.5532,-44.1059 25.1796,10.6888 -0.4362,64.0799 -16.1425,33.6439 -13.8169,38.3262 14.1587,28.5116 20.9064,-7.3348 13.6169,7.2998 -19.4187,38.9832 -36.5584,35.0632 -70.0734,108.1413 -108.5442,236.674 -30.6089,102.2714 -55.6533,188.2701 -55.6533,191.1085 0,2.8381 34.0714,0.064 75.716,-6.168 57.3251,-8.5764 96.2988,0.8508 160.4557,38.8165 80.2687,47.4982 112.5276,102.1037 61.1441,103.498 -30.6634,0.8318 34.8527,44.4251 113.4782,75.507 76.2657,30.1483 87.5422,12.2661 52.0389,-82.5164 -28.423,-75.8776 -61.9505,-439.7394 -50.683,-550.034 4.7013,-46.0133 10.5917,-53.9958 23.3081,-31.5847 25.5884,45.1002 22.3521,-7.9163 -9.739,-159.5168 -24.4344,-115.4335 -23.5942,-139.4827 9.7333,-278.6112 40.6057,-169.5032 45.8351,-249.3925 17.6007,-268.8569 -10.3828,-7.1576 -18.8771,-21.0915 -18.8771,-30.9643 0,-28.0735 57.7214,-11.585 76.7291,21.9177 13.5351,23.8578 17.2577,21.3661 17.9413,-12.0101 0.8291,-40.4595 1.6694,-40.5669 21.3721,-2.7376 16.5593,31.7929 23.6636,33.8204 36.8909,10.5282 12.9312,-22.7698 16.4435,-23.0401 16.6718,-1.2845 0.151,15.1599 8.784,21.7071 19.1667,14.5496 33.8203,-23.3155 19.8537,28.4111 -15.3136,56.7116 -50.1697,40.3734 -56.9469,59.2611 -79.5385,221.6749 -17.9368,128.959 -15.9756,162.8173 15.4566,266.6675 45.089,148.9773 69.5123,177.0661 53.6877,61.7453 -6.6465,-48.4356 -3.8814,-112.13 6.1437,-141.5431 35.5851,-104.3999 194.677,-91.1047 219.3002,18.3265 9.6161,42.736 23.8112,53.4848 71.311,53.9976 46.2609,0.4991 52.5998,5.0102 28.8227,20.5087 -26.2972,17.1411 -30.5489,46.9513 -19.1213,134.0886 4.8172,36.7292 60.4433,-36.7933 99.642,-131.6988 51.1202,-123.7682 61.127,-339.1242 20.9598,-451.1 -26.0496,-72.6191 -26.0711,-84.2915 -0.2157,-113.1327 59.8608,-66.7713 162.0069,37.1884 107.9398,109.8562 -17.5665,23.6098 -17.4462,60.8893 0.5395,167.2118 12.73,75.2553 18.3217,150.8512 12.4256,167.9909 -5.8971,17.1397 2.4382,57.5133 18.5227,89.7197 24.3019,48.6587 27.6531,50.5486 19.8276,11.1795 -5.1783,-26.0574 -2.1008,-47.3772 6.8386,-47.3772 8.9407,0 21.833,33.164 28.6501,73.6977 12.6857,75.4279 34.086,94.2094 53.9841,47.377 6.1504,-14.4762 6.7704,20.7286 1.3763,78.233 -21.2515,226.5913 121.5,536.6017 259.5867,563.7397 28.5512,5.611 51.9116,7.3953 51.9116,3.9649 0,-3.4308 -8.316,-30.6379 -18.4819,-60.4602 -13.844,-40.6174 -10.5985,-72.6617 12.9357,-127.7097 26.4106,-61.7771 41.2336,-73.4871 93.0294,-73.4871 89.1753,0 157.5042,104.8374 159.118,244.137 0.9299,80.3338 4.8546,93.1751 17.654,57.7695 17.0453,-47.1471 37.444,-57.6918 153.8476,-79.5282 107.5288,-20.1712 166.2335,-88.3681 253.8768,-294.9222 68.9525,-162.5046 79.4466,-204.6553 71.0624,-285.4162 -6.7057,-64.5861 -4.0017,-85.4813 8.4908,-65.6299 13.9657,22.1911 21.531,12.8646 31.7788,-39.1767 12.0374,-61.136 16.4604,-64.9403 42.1659,-36.2683 15.7939,17.618 28.7169,56.3945 28.7169,86.1699 0,29.7755 7.4326,49.013 16.5173,42.7502 27.2557,-18.7897 18.667,18.4935 -20.9643,90.9958 -20.5373,37.5719 -57.9938,150.116 -83.2371,250.0983 -39.2212,155.3418 -58.4936,196.0494 -132.4847,279.8425 -50.3593,57.0314 -86.5861,117.5758 -86.5861,144.7105 0,25.8398 -11.7317,46.6537 -26.2958,46.6537 -43.0165,0 -46.7345,42.746 -31.3382,360.31466 8.0788,166.63037 11.2391,313.24273 7.0226,325.80521 -4.2163,12.56272 21.1108,70.53896 56.2816,128.83617 50.7737,84.15887 66.6732,135.8452 77.1809,250.89287 7.2793,79.69413 21.2504,201.750691 31.0473,271.237033 29.4927,209.166777 42.1784,624.369817 22.6893,742.584627 -15.5997,94.61998 -12.8232,123.19859 18.9236,194.77233 l 37.2069,83.8817 z m 779.1585,-28.3657 c 7.1577,-20.2668 16.5548,-199.56525 20.8814,-384.86218 4.3267,-185.29693 22.7392,-455.34622 40.9167,-600.109432 18.1788,-144.763241 33.0517,-326.270228 33.0517,-403.348628 0,-77.07866 5.745,-136.172 12.7676,-131.31865 7.0213,4.85323 18.1059,-41.04961 24.6311,-102.00665 11.3923,-106.41625 -17.3417,-323.15666 -62.1479,-468.79076 -10.6883,-34.7431 -26.6025,-91.5957 -35.3637,-126.3388 -8.7612,-34.7432 -34.0022,-72.0805 -56.0896,-82.9717 -22.0885,-10.8915 -54.7972,-56.8064 -72.6862,-102.0332 -17.8891,-45.2268 -57.416,-113.8526 -87.8387,-152.5016 -40.123,-50.9736 -67.3046,-124.2921 -98.9822,-266.9845 -67.7294,-305.1 -142.9209,-426.0714 -143.7419,-231.261 -0.1885,42.7456 -12.562,142.1198 -27.5144,220.8319 -19.8946,104.7304 -21.9138,158.3793 -7.529,200.0365 10.812,31.308 31.9376,127.9123 46.9478,214.6762 25.4705,147.236 25.0503,159.5855 -6.3015,185.246 -38.7658,31.7285 -35.0183,86.9166 12.2623,180.6063 18.3127,36.28685 61.5768,122.82875 96.1433,192.31509 34.5653,69.48634 64.912,129.51727 67.4353,133.40222 2.5244,3.88509 35.6101,-9.35607 73.5244,-29.42435 48.3254,-25.57892 61.6403,-41.51639 44.5359,-53.30782 -18.5931,-12.81772 -16.3117,-20.28136 9.5866,-31.36698 24.252,-10.38033 49.7813,4.7443 89.1379,52.80824 45.0912,55.06814 55.1527,86.00913 55.1527,169.61547 0,56.24339 -5.1569,117.2488 -11.4584,135.56754 -14.5957,42.42447 -71.102,42.98816 -102.3277,1.0212 -21.314,-28.64687 -28.902,-27.17129 -67.3239,13.09119 -42.9631,45.02084 -101.2227,48.08903 -181.8458,9.57648 -29.4938,-14.08909 -32.1942,0.1895 -28.3151,149.68148 2.4903,95.99552 -3.6236,168.067677 -14.5901,171.964927 -10.3817,3.69003 -40.6614,-38.363187 -67.2866,-93.451727 -26.6252,-55.08831 -58.0688,-103.75254 -69.8768,-108.14291 -22.8948,-8.51271 -115.1861,181.577407 -155.9587,321.224319 -39.3485,134.767891 -36.3914,215.146801 12.0328,327.112751 24.8185,57.38611 45.1242,114.52177 45.1242,126.96845 0,12.44644 25.9291,64.66686 57.6202,116.04498 52.642,85.34578 55.2288,97.22192 29.9493,137.48112 -21.1868,33.74035 -23.1651,58.48212 -8.4432,105.59079 13.5863,43.47302 13.0117,69.88035 -1.9589,90.00108 -11.6523,15.66183 -16.3038,42.66834 -10.3374,60.01456 5.9676,17.3461 -3.5453,47.5965 -21.1403,67.2226 35.2797,17.3635 208.8095,-15.6347 567.3568,-13.8805 z m 533.7443,4.8323 c 122.5719,-0.1481 151.3697,-27.2549 89.6669,-84.37551 -15.5736,-14.41724 -28.3162,-49.03872 -28.3162,-76.9368 0,-27.89819 -12.2089,-55.94977 -27.1317,-62.33716 -22.2578,-9.52717 -25.0866,-51.96183 -15.7463,-236.22448 11.9841,-236.45263 11.4264,-349.82951 -2.1111,-429.24998 -13.4885,-79.132059 -165.6441,-400.75058 -180.5387,-381.61345 -12.8789,16.54699 -39.1077,140.842695 -77.056,365.1594 -15.9018,93.9923 -52.7795,485.31397 -60.0256,636.95828 -2.1338,44.64344 -13.5352,78.96174 -26.2346,78.96174 -12.353,0 -22.678,21.31967 -22.9437,47.3771 -0.2656,26.0573 -6.6591,74.93436 -14.2075,108.61596 l -13.7237,61.2388 130.1931,-13.7119 c 71.6052,-7.5419 183.2847,-13.7798 248.1751,-13.862 z M 3729.2706,-572.51433 c 0,-63.77377 -9.2062,-135.13977 -20.458,-158.59127 -15.1396,-31.55394 -14.013,-59.93315 4.3329,-109.16222 25.9669,-69.67874 25.338,-100.02247 -4.7594,-229.71078 -11.7564,-50.657 -29.3735,-78.9617 -49.1464,-78.9617 -16.9515,0 -46.7178,-16.0473 -66.1476,-35.6608 -19.4294,-19.6135 -64.6958,-46.9231 -100.5917,-60.6881 -59.3743,-22.7684 -65.2652,-21.4244 -65.2652,14.8901 0,21.9545 -10.1111,57.9769 -22.4691,80.0495 -18.9208,33.7946 -9.8364,67.1339 57.5261,211.1208 43.9972,94.04367 104.8477,214.7013 135.2229,268.12767 30.3754,53.42638 64.6366,128.93827 76.1357,167.80385 29.5085,99.73266 55.6198,67.23793 55.6198,-69.21705 z M 5234.392,-745.96725 c 7.2179,-146.10582 3.652,-221.56501 -11.4298,-241.83415 -24.8379,-33.3827 -11.8398,-88.7392 35.3625,-150.6106 46.555,-61.0228 61.453,-116.553 27.3543,-101.9572 -15.0444,6.4397 -27.3543,1.914 -27.3543,-10.0552 0,-19.768 -186.5994,-151.1936 -214.6669,-151.1936 -6.5228,0 -11.8601,10.7578 -11.8601,23.906 0,13.1484 -21.7149,46.3542 -48.2551,73.7909 -53.7434,55.5578 -46.8547,91.8114 17.4463,91.8114 87.7215,0 109.7215,43.3081 129.1551,254.25222 10.0568,109.1541 18.4875,245.01716 18.7351,301.91809 0.4519,103.35643 29.3188,171.27902 59.1988,139.28642 8.7032,-9.31832 20.5441,-112.50983 26.3141,-229.31428 z m 480.446,203.10226 c -13.5455,-15.10917 -22.3373,-16.35243 -22.3373,-3.15838 0,28.10573 22.3236,53.00736 34.9232,38.95449 5.3634,-5.98349 -0.2988,-22.09171 -12.5859,-35.79611 z M 5333.2549,-1180.525 c 0,-11.5811 -8.2341,-6.8434 -18.2989,10.5282 -10.0637,17.3717 -18.2991,41.0602 -18.2991,52.6412 0,11.581 8.2354,6.8433 18.2991,-10.5281 10.0648,-17.3717 18.2989,-41.0602 18.2989,-52.6413 z m -84.0728,-598.6036 c -7.0033,-35.5714 -19.9616,-64.6751 -28.7943,-64.6751 -8.8328,0 -8.157,30.7325 1.5013,68.2944 9.6571,37.562 17.5586,72.3052 17.5586,77.207 0,4.9018 5.0557,3.2732 11.2355,-3.6194 6.1789,-6.8926 5.5043,-41.6358 -1.5011,-77.2069 z m -1123.4905,-118.5591 c 0,-5.1071 -8.4943,-9.2855 -18.877,-9.2855 -10.3817,0 -18.8772,10.0347 -18.8772,22.2992 0,12.2645 8.4955,16.4431 18.8772,9.2855 10.3827,-7.1576 18.877,-17.1922 18.877,-22.2992 z m 1089.0136,-67.1909 c -4.7479,-20.2669 -8.6329,-3.6848 -8.6329,36.849 0,40.5336 3.885,57.1156 8.6329,36.8488 4.7481,-20.2669 4.7481,-53.4308 0,-73.6978 z m 647.6903,-173.7157 c 0,-11.5811 -8.9962,-21.0566 -19.9912,-21.0566 -10.9959,0 -14.7412,9.4755 -8.325,21.0566 6.4173,11.5808 15.4135,21.0562 19.991,21.0562 4.5789,0 8.3252,-9.4754 8.3252,-21.0562 z m 6.5137,-74.6058 c -6.148,-17.8712 -15.2261,-27.9769 -20.175,-22.4575 -4.9479,5.5197 -3.3977,20.1414 3.4466,32.4929 18.6136,33.5948 29.4926,27.0684 16.7284,-10.0354 z m -3438.3607,-75.8027 71.7033,4.7191 0,-165.5537 c 0,-163.135 -42.5098,-362.5639 -77.2833,-362.5639 -35.7221,0 -92.6448,86.5997 -93.4242,142.1312 -0.4474,31.8479 -5.4471,137.1554 -11.1112,234.0168 -8.2215,140.5911 -5.3862,172.7249 14.0569,159.3213 13.3954,-9.2345 56.6218,-14.6666 96.0585,-12.0708 z m 1223.2132,-356.1896 c 0,-12.2645 -8.4948,-16.443 -18.8773,-9.2854 -24.1889,16.6753 -24.1889,31.5845 0,31.5845 10.3825,0 18.8773,-10.0346 18.8773,-22.2991 z M 976.82883,803.09477 c -22.76197,-27.02617 -41.38558,-68.0366 -41.38558,-91.13412 0,-23.09741 -12.4755,-60.38832 -27.7236,-82.86869 C 888.15967,600.25449 883.22072,559.57709 890.94699,490.95282 912.05291,303.49277 803.52862,-611.32605 765.45761,-566.87436 746.87277,-545.17456 586.44763,-10.962026 567.17859,93.391558 559.69392,133.92524 533.41641,220.99783 508.78435,286.88593 478.424,368.09636 467.69643,427.30634 475.47901,470.7119 c 9.32457,52.00544 0.41727,78.08456 -47.4357,138.87779 -32.40413,41.16657 -58.91635,88.19447 -58.91635,104.5064 0,33.86233 -70.93778,95.21531 -110.09024,95.21531 -18.80529,0 -24.00787,-20.7616 -18.46755,-73.69756 4.24246,-40.53362 0.53802,-73.69755 -8.23124,-73.69755 -40.78766,0 -108.65058,-107.31987 -109.24282,-172.75894 -0.5549,-61.30385 -52.322116,-164.14468 -82.625906,-164.14468 -6.122606,0 -11.132113,21.8775 -11.132113,48.61666 0,67.9387 -42.795193,125.87353 -86.195215,116.68825 -45.359136,-9.59978 -58.556876,-118.0099 -26.100612,-214.39695 14.206013,-42.18732 25.352919,-256.399447 30.317208,-582.60201 8.399847,-551.93896 15.433903,-706.02022 34.75882,-761.39492 8.384355,-24.025 -0.03739,-39.2747 -26.923828,-48.796 -47.050647,-16.6571 -53.207417,-108.5255 -11.404162,-170.1746 33.115588,-48.8372 37.552495,-289.2028 9.111302,-493.5875 -41.926758,-301.2937 -43.381211,-354.1934 -11.244014,-408.9038 28.220743,-48.0423 68.2416202,-370.6785 79.874268,-643.9197 2.218593,-52.1148 4.882824,-107.8093 5.91999,-123.766 1.444215,-22.1974 20.729984,-25.6536 82.114442,-14.7144 44.12558,7.8634 87.44289,22.3337 96.26138,32.1561 27.60611,30.7503 -7.00957,105.638 -55.0458,119.0862 -45.56398,12.7561 -45.93492,14.963 -45.93492,273.2568 l 0,260.3968 61.35098,-11.8239 c 33.74295,-6.5033 72.4441,-15.6478 86.00269,-20.3209 13.55831,-4.6732 52.78254,4.6139 87.16502,20.6382 l 62.51332,29.1348 -16.02033,112.7872 c -10.18802,71.7251 -9.23439,115.3579 2.61915,119.8493 10.25178,3.8846 14.01002,15.4188 8.35115,25.6319 -5.65886,10.2132 7.03019,30.634 28.1982,45.3796 21.16786,14.7456 38.4869,34.5656 38.4869,44.0442 0,9.4789 -8.49486,11.3782 -18.87722,4.2205 -10.38248,-7.1575 -18.8772,-3.0978 -18.8772,9.0215 0,12.1193 33.97889,45.9612 75.50885,75.2044 41.52982,29.2432 75.50886,67.2636 75.50886,84.49 0,89.8478 121.86562,-37.8521 140.20952,-146.9219 16.94257,-100.7378 82.05691,-138.3018 151.61396,-87.4649 26.38157,19.2815 47.9662,54.087 47.9662,77.3456 0,23.2584 14.86575,48.5102 33.03514,56.1147 18.16938,7.6049 41.52997,25.2028 51.91226,39.1066 10.3825,13.9041 52.8563,32.6497 94.3861,41.657 l 75.5088,16.3774 -56.6314,15.062 -56.6318,15.0615 66.0703,2.57 c 69.767,2.7139 188.7722,70.8089 188.7722,108.016 0,12.0979 -23.3606,3.3201 -51.9125,-19.5062 -54.6916,-43.7242 -78.986,-50.8874 -155.7369,-45.9186 l -47.1931,3.0551 51.9124,35.9014 c 28.5517,19.7457 51.9123,44.3425 51.9123,54.6591 0,10.3582 -10.5661,9.8426 -23.5965,-1.1519 -12.9782,-10.95 -43.0415,-21.0246 -66.8079,-22.3879 l -43.2114,-2.4787 47.9307,63.5383 c 26.362,34.9461 47.9307,72.846 47.9307,84.2219 0,11.3759 8.4948,14.8275 18.8771,7.67 28.2912,-19.5035 22.7285,47.5293 -8.3617,100.7591 -35.979,61.6001 -38.9081,210.0715 -11.8806,602.20819 12.2803,178.17314 17.8778,336.88627 12.439,352.69593 -17.6259,51.23462 -43.8748,30.39149 -34.0349,-27.02562 5.7849,-33.75534 2.1974,-50.69653 -9.088,-42.9166 -11.208,7.72661 -20.0192,-30.43265 -22.0891,-95.66378 -4.8069,-151.49409 -20.7856,-154.08738 -24.2203,-3.9308 -1.5668,68.52136 -5.2011,157.74815 -8.075,198.28185 -13.818,194.89382 -5.9438,322.218291 23.8457,385.583328 40.0073,85.098502 44.2652,499.657352 5.6671,551.735532 -8.708,11.74937 -14.3291,77.26766 -12.4911,145.59653 3.7632,139.90968 -16.3786,163.16551 -77.97477,90.03021 z M 287.52896,465.31721 c -7.31676,-59.54324 -2.62107,-105.3341 13.49538,-131.60291 13.594,-22.15754 30.30504,-87.21831 37.13509,-144.57938 11.31496,-95.02438 9.94087,-100.638644 -15.46102,-63.16942 -15.33376,22.61796 -28.14991,56.54548 -28.48006,75.3943 -0.33028,18.84868 -14.33823,46.98811 -31.12893,62.53202 -23.78091,22.01482 -28.26596,52.71737 -20.29127,138.90391 5.63051,60.85339 15.62242,120.36152 22.20407,132.24031 24.85529,44.85926 33.36841,18.51172 22.52674,-69.71883 z M 181.34288,-90.852613 c 23.00142,-78.172077 46.34238,-150.880507 51.86888,-161.574097 15.55686,-30.10204 16.99166,-144.28801 2.40157,-191.12185 -9.82276,-31.53051 -16.58089,-16.97982 -26.8938,57.9053 -7.57581,55.01013 -20.91947,100.0183 -29.65278,100.0183 -8.73303,0 -20.13692,30.79506 -25.342,68.43359 -22.52536,162.885874 -31.67248,268.469922 -23.25867,268.469922 4.98075,0 27.87538,-63.958973 50.8768,-142.131165 z M 573.09084,-1163.3484 c 26.38995,-53.7945 29.11296,-90.8744 6.67348,-90.8744 -23.08564,0 -60.01271,150.9566 -57.2568,234.0643 2.3511,70.90582 2.42551,70.84223 15.19173,-12.9712 7.05619,-46.3243 22.98233,-104.9227 35.39159,-130.2187 z"
       style="fill:#008000"
       sodipodi:nodetypes="csscscsscscscccsssssscsssccsscsscscssccsscsscsssssssscssssssssssssssssscssssssssssssssssscssssssssssssccsssssssccssssscsssssssssccssssssscssscssssscscsssccssssssssssscssssssssccssssscsssssscssssssscssssssssssccccsccssccsssssccssscsscscsscssccccccscccscccscsscscsccsccscssscsscsscscssccsscssscssccccscssssssssscsscccssscccscssscsccssccsscssccssscsssssscccccccsscsssscssscscsssssssssssssscssssssssccscsccscscscscsccssscssssssscssccccscsscssssssssssssssssssssssssssscsssscsssscssscssssssssssssssscccsssscsscscssssssssssssssssssscsssssssssssssssss" />
    <path
       style="color:#000000;fill:#008000;fill-opacity:1;fill-rule:nonzero;stroke:#ffffff;stroke-width:30.34559631;stroke-linecap:butt;stroke-linejoin:miter;stroke-miterlimit:4;stroke-opacity:1;stroke-dasharray:none;stroke-dashoffset:0;marker:none;visibility:visible;display:inline;overflow:visible;enable-background:accumulate"
       d="m 5595.1871,-10185.151 c 0,455.0425 0,910.0846 0,1365.1263 -455.0421,0 -910.0842,0 -1365.1263,0 0,-455.0417 0,-910.0838 0,-1365.1263 455.0421,0 910.0842,0 1365.1263,0 z"
       id="rect5529"
       inkscape:connector-curvature="0" />
    <path
       style="color:#000000;fill:#008000;fill-opacity:1;fill-rule:nonzero;stroke:#ffffff;stroke-width:30.34559631;stroke-linecap:butt;stroke-linejoin:miter;stroke-miterlimit:4;stroke-opacity:1;stroke-dasharray:none;stroke-dashoffset:0;marker:none;visibility:visible;display:inline;overflow:visible;enable-background:accumulate"
       d="m 6976.2569,-10185.151 c 0,455.0425 0,910.0846 0,1365.1263 -455.0422,0 -910.0843,0 -1365.1264,0 0,-455.0417 0,-910.0838 0,-1365.1263 455.0421,0 910.0842,0 1365.1264,0 z"
       id="rect5533"
       inkscape:connector-curvature="0" />
    <g
       id="g3086"
       transform="matrix(0.76659112,0,0,0.76659112,5075.0193,-3537.0506)"
       style="fill:#008000">
      <g
         id="g7369"
         transform="matrix(3.1166572,0,0,3.1166572,466.35598,-6300.0607)"
         style="fill:#008000">
        <path
           inkscape:connector-curvature="0"
           style="fill:#008000;fill-opacity:1;fill-rule:evenodd;stroke:none"
           id="path3327"
           d="m 338.19283,600.6123 0.66968,-0.063 0.10869,-0.793 c -0.17165,-0.6226 -0.57533,-1.1822 -1.19927,-8.9009 -0.52954,-6.8312 -1.60309,-25.565 7.82609,-34.8549 3.6579,-3.6256 9.24293,-6.8469 13.64802,-7.889 18.06525,-4.4039 41.5148,-1.3541 61.5406,21.8007 10.33323,11.9653 15.40577,17.427 17.94193,19.8701 l 0.87046,0.8088 1.05889,0.7627 c 0.82438,0.4667 34.41853,15.934 34.41853,15.934 l 0.68427,-0.1717 0.0204,-0.7302 c -0.21762,-0.2488 -21.28569,-27.4653 -17.55253,-49.8872 2.95678,-17.8632 17.17797,-16.2605 36.83166,-14.0203 6.42628,0.7313 13.73988,1.5715 21.30256,1.7431 21.11389,0.1247 43.86477,-3.7498 57.88519,-9.8812 9.07132,-3.9673 14.85938,-6.5823 18.48583,-9.8812 1.30545,-1.0735 1.98978,-2.8468 2.6909,-4.7145 l 0.48354,-1.2598 c 0.58993,-1.5099 1.44582,-4.7459 1.82067,-6.5048 0.17165,-0.7772 0.24894,-1.6186 -0.29745,-2.0379 l -1.94397,0.3576 c -6.14578,3.688 -21.53701,10.7214 -35.94429,11.0017 -17.8477,0.3725 -53.8232,-17.9576 -57.57322,-19.9028 l -0.35806,-0.4195 c -0.90407,-2.1483 -6.30295,-14.9233 -7.43926,-17.6143 25.8938,17.0535 47.36543,26.4839 63.81327,27.9464 18.29973,1.6333 32.56913,-8.3555 38.66888,-12.6206 1.19679,-0.8087 2.10093,-1.4625 2.47329,-1.6017 l 0.38928,-0.6383 c -1.01305,-6.4262 -10.58234,-37.5471 -17.80161,-45.0167 -2.00657,-2.0539 -3.60964,-4.0449 -6.84687,-5.9439 -26.15729,-15.2487 -88.25881,-24.4614 -91.16735,-24.8808 l -0.49807,0.1404 -0.18635,0.4354 c 0,0 -0.23447,12.884 -0.26624,14.3164 -6.34898,-2.1166 -52.45233,-17.0085 -95.68131,-18.5172 -36.64272,-1.2914 -86.70155,-3.0346 -157.43922,40.441 l -2.08536,1.3067 c -33.26775,20.7574 -56.23506,46.3392 -68.24735,76.0906 -3.76563,9.3515 -8.8379,30.4679 -3.82853,50.338 2.17841,8.699 6.20868,17.4125 11.65582,25.2241 12.27725,17.6446 32.89427,29.3633 55.09872,31.3385 31.33845,2.7998 55.08407,-11.281 63.53282,-37.6414 5.80365,-18.1898 0,-44.8754 -22.25157,-58.4908 -18.09668,-11.0947 -37.57856,-8.5587 -48.85975,-1.1049 -9.80272,6.5038 -15.35727,16.5868 -15.24862,27.6819 0.2176,19.6524 17.16335,30.1089 29.33188,30.1247 3.54678,0 7.09473,-0.6067 11.10941,-1.9134 1.41685,-0.4364 2.76967,-0.9646 4.24787,-1.8834 l 0.45222,-0.2947 0.2946,-0.1715 -0.10868,0.047 c 2.7852,-1.8677 4.46552,-4.9478 4.46552,-8.247 0,-0.9029 -0.1404,-1.8206 -0.3893,-2.7391 -1.43122,-4.9637 -6.34904,-7.9821 -11.45279,-7.049 l -0.68431,0.1404 -0.93335,0.3105 -1.354,0.4522 c -2.80081,0.7 -4.91755,0.7472 -5.35279,0.7616 -1.43123,-0.094 -8.44992,-2.1927 -8.44992,-9.8799 l 0,-0.094 c 0.0203,-2.8167 1.15193,-4.793 1.77453,-5.8665 2.1626,-3.4235 8.13806,-6.7841 16.21319,-6.0686 10.58234,0.9019 18.20662,6.3332 23.26337,16.5722 4.69992,9.5221 3.47072,21.224 -3.15883,29.8129 -6.58225,8.5129 -18.29847,12.1224 -33.89046,10.425 -15.71627,-1.7263 -29.00409,-10.7672 -36.44227,-24.8492 -7.28206,-13.7557 -7.68719,-30.0789 -1.04206,-42.6195 15.91838,-30.0317 45.96448,-29.721 62.44376,-26.8729 24.39851,4.2164 46.54103,23.7444 56.39079,49.7157 1.57158,4.1391 2.38021,7.4223 3.08009,10.4095 l 1.05887,4.497 27.55604,13.4592 0.37484,0.2649 7.4e-4,-3e-4 z m 195.87401,-146.579 c -5.19566,4.8233 -8.16952,11.4055 -8.41858,18.5015 -0.48101,14.6259 11.00296,26.9503 25.62793,27.4956 7.12744,0.2335 13.87998,-2.2728 19.06123,-7.1274 5.18124,-4.8391 8.1549,-11.4055 8.41854,-18.4859 0.49813,-14.6417 -10.98611,-26.9817 -25.64225,-27.5101 -7.096,-0.2331 -13.86564,2.2716 -19.04687,7.1263 m 18.20947,38.0454 c -10.40581,-0.3823 -18.57399,-9.154 -18.22645,-19.5747 0.16032,-5.0451 2.3169,-9.7085 5.98175,-13.1515 3.67975,-3.4421 8.48592,-5.2337 13.53107,-5.0439 10.4207,0.3645 18.59117,9.1218 18.24109,19.5585 -0.1576,5.0293 -2.28478,9.6923 -5.9646,13.1503 -3.69693,3.4271 -8.50309,5.2191 -13.56314,5.0613 l 2.8e-4,0 z m 4.37963,-17.1173 c 4.63121,0 8.38975,-2.5054 8.38975,-5.5824 0,-3.0933 -3.75877,-5.6 -8.38975,-5.6 -4.63354,0 -8.37742,2.5067 -8.37742,5.6 0,3.077 3.74388,5.5824 8.37742,5.5824" />
      </g>
    </g>
    <rect
       transform="matrix(0,1,-1,0,0,0)"
       style="color:#000000;fill:#008000;fill-opacity:1;fill-rule:nonzero;stroke:#ffffff;stroke-width:35.3224144;stroke-linecap:butt;stroke-linejoin:miter;stroke-miterlimit:4;stroke-opacity:1;stroke-dasharray:none;stroke-dashoffset:0;marker:none;visibility:visible;display:inline;overflow:visible;enable-background:accumulate"
       id="rect5718"
       width="1589.0134"
       height="1589.0134"
       x="-11441.867"
       y="-6374.2637" />
    <g
       style="fill:#ffffff"
       id="g5720"
       transform="matrix(1.0291622,-0.19460434,0.19460434,1.0291622,8369.7833,-10436.117)">
      <path
         style="fill:#ffffff;fill-opacity:1;stroke:none"
         d="m -3079.4918,-684.6555 c -13.9785,-22.23429 -34.1574,-62.83404 -39.2637,-78.99809 -4.6855,-14.83249 -6.0552,-26.0465 -4.2832,-35.06771 3.4454,-17.53955 29.7628,-95.9009 33.4446,-99.58267 2.1608,-2.16075 7.6092,5.70671 16.4047,23.68832 11.8708,24.26867 18.7548,42.08905 24.5766,63.62013 5.9239,21.90904 6.7239,28.02248 4.8765,37.26532 -2.6512,13.264 -8.5968,38.2872 -11.681,49.16205 -3.6472,12.85963 -17.0663,47.41501 -18.413,47.41501 -0.5196,0 -3.0673,-3.37607 -5.6615,-7.50236 z"
         id="path5722"
         inkscape:connector-curvature="0" />
      <path
         style="fill:#ffffff;fill-opacity:1;stroke:none"
         d="m -3023.696,-809.2674 c -15.2241,-23.30315 -20.4063,-39.76285 -20.5743,-65.34825 -0.1015,-15.47145 0.1621,-17.61518 3.3224,-27.00855 3.8038,-11.30636 17.0844,-37.757 27.7448,-55.25859 3.8065,-6.24938 11.0344,-18.21311 16.0619,-26.58607 5.0275,-8.37296 9.302,-15.06253 9.4988,-14.8657 2.7446,2.74454 22.2394,85.96604 22.2329,94.90979 -0.01,10.06071 -5.4077,30.70503 -10.8333,41.41311 -5.8019,11.45082 -33.3134,59.66786 -36.2588,63.54767 l -2.2232,2.92848 -8.9712,-13.73189 z"
         id="path5724"
         inkscape:connector-curvature="0" />
      <path
         style="fill:#ffffff;fill-opacity:1;stroke:none"
         d="m -2939.4024,-899.82364 c -4.4775,-10.95118 -6.0759,-22.1666 -7.3576,-51.62867 l -1.3062,-30.02183 4.8254,-9.59071 c 6.3473,-12.61555 16.7254,-26.52955 35.9828,-48.24245 17.578,-19.8194 28.7425,-31.1578 29.7186,-30.1816 1.282,1.2819 6.4691,40.3312 7.2301,54.4288 0.6897,12.7771 0.4822,15.35389 -1.8364,22.80721 -3.4185,10.98886 -12.8268,29.76399 -20.4164,40.74275 -7.2538,10.49293 -28.3011,36.637 -38.228,47.48518 l -7.1399,7.80247 -1.4724,-3.60115 0,0 z"
         id="path5726"
         inkscape:connector-curvature="0" />
      <path
         style="fill:#ffffff;fill-opacity:1;stroke:none"
         d="m -2828.7041,-1006.4065 c -1.6265,-1.9599 -2.8916,-7.6657 -6.8421,-30.8606 -2.7172,-15.9534 -3.0559,-20.5739 -2.3762,-32.4103 1.494,-26.0127 4.1069,-33.647 17.0503,-49.8158 9.3104,-11.6305 44.7764,-49.6496 50.924,-54.59 l 4.4157,-3.5485 0.7498,2.9878 c 1.5807,6.2977 3.0721,34.4354 3.1727,59.8577 0.1013,25.588 0,26.8344 -3.0731,36.1059 -1.7479,5.2817 -4.7326,12.8441 -6.6326,16.8054 -6.9174,14.4212 -26.1623,35.1706 -46.9277,50.5962 -4.7547,3.532 -8.7641,6.4218 -8.9098,6.4218 -0.1456,0 -0.8436,-0.6973 -1.551,-1.5496 l 0,0 z"
         id="path5728"
         inkscape:connector-curvature="0" />
      <path
         style="fill:#ffffff;fill-opacity:1;stroke:none"
         d="m -2726.1948,-1094.5229 c -1.1329,-8.452 -2.3729,-25.9829 -2.7556,-38.9576 l -0.6958,-23.5904 3.4036,-5.8189 c 4.8676,-8.3215 31.1019,-34.0216 47.9033,-46.9278 14.6518,-11.2549 30.6065,-20.442 32.9669,-18.9832 1.8429,1.139 1.667,7.185 -1.0867,37.3473 -2.8557,31.2794 -4.6654,40.4395 -10.3205,52.2398 -5.3697,11.2046 -12.2135,19.2004 -27.1272,31.6935 -11.0819,9.2832 -34.5929,26.202 -38.4889,27.697 -1.4029,0.5384 -2.1377,-2.3047 -3.7991,-14.6997 l 0,0 z"
         id="path5730"
         inkscape:connector-curvature="0" />
      <path
         style="fill:#ffffff;fill-opacity:1;stroke:none"
         d="m -2630.4555,-1124.3986 c -1.3274,-3.4592 0.6609,-29.6539 3.1355,-41.3092 4.4005,-20.7263 8.3447,-31.1436 13.8916,-36.6905 9.3626,-9.3626 26.3806,-19.5946 52.0623,-31.3021 l 8.8645,-4.041 -0.5969,8.108 c -0.4482,6.0889 -2.3954,12.7411 -7.8195,26.7138 -3.9724,10.2332 -8.9483,23.8592 -11.0575,30.2799 -2.8604,8.7077 -5.1775,13.3049 -9.1185,18.092 -7.7025,9.3562 -30.1759,25.0602 -42.6404,29.7963 -5.4066,2.0544 -6.055,2.0884 -6.7211,0.3528 l 0,0 z"
         id="path5732"
         inkscape:connector-curvature="0" />
      <path
         style="fill:#ffffff;fill-opacity:1;stroke:none"
         d="m -2538.0069,-1160.3597 c -2.0786,-5.4168 4.0331,-31.1675 10.3827,-43.7461 4.1821,-8.2845 9.9527,-12.7605 24.1958,-18.7675 9.113,-3.8434 36.0696,-13.6569 37.5139,-13.6569 2.8983,0 -6.0755,19.1819 -18.0038,38.4838 -9.4112,15.2288 -22.8991,26.5758 -42.7571,35.9702 -8.5863,4.062 -10.3301,4.3262 -11.3315,1.7165 l 0,0 z"
         id="path5734"
         inkscape:connector-curvature="0" />
      <path
         style="fill:#ffffff;fill-opacity:1;stroke:none"
         d="m -2463.9968,-1182.4687 c 0,-2.4896 5.1575,-14.0396 9.88,-22.1255 9.6703,-16.5579 20.6617,-25.5268 36.1319,-29.4834 10.1014,-2.5835 25.9964,-4.3761 28.9054,-3.2598 1.8583,0.7131 -2.2198,6.8628 -20.343,30.6763 l -6.0448,7.9428 -13.7614,4.8762 c -7.5688,2.6819 -17.7343,6.5981 -22.5899,8.7027 -9.1731,3.976 -12.1782,4.635 -12.1782,2.6707 z"
         id="path5736"
         inkscape:connector-curvature="0" />
      <path
         style="fill:#ffffff;fill-opacity:1;stroke:none"
         d="m -2348.7604,-1188.5095 c -5.7858,-0.7834 -11.8437,-3.522 -14.2775,-6.4546 -1.261,-1.5193 -0.5804,-2.4752 4.2887,-6.0234 8.9123,-6.4947 22.9114,-14.2134 30.3056,-16.7097 5.3142,-1.7941 8.5195,-2.0948 15.6881,-1.472 10.2836,0.8935 38.6149,5.2423 39.4242,6.0515 1.0899,1.09 -41.4585,21.0182 -48.4205,22.6785 -8.8699,2.1153 -19.8461,2.8995 -27.0086,1.9297 z"
         id="path5738"
         inkscape:connector-curvature="0" />
      <path
         style="fill:#ffffff;fill-opacity:1;stroke:none"
         d="m -3071.3347,-616.17236 c -0.067,-14.37515 2.8314,-37.1783 6.1494,-48.37576 12.0016,-40.50244 56.6783,-130.12274 84.3755,-169.2546 6.0747,-8.58273 15.2037,-21.64586 20.2867,-29.02925 5.1918,-7.54161 12.1758,-15.95792 15.9373,-19.20608 14.7262,-12.71627 26.6056,-24.57266 40.6716,-40.59279 8.1154,-9.24294 19.533,-21.45943 25.3724,-27.14777 19.1391,-18.64408 49.6465,-45.41356 58.7735,-51.57249 4.9224,-3.3215 16.6299,-12.0863 26.0167,-19.4771 20.985,-16.523 37.4908,-27.7264 57.8687,-39.2787 8.5827,-4.8656 21.8169,-12.6031 29.4093,-17.1944 7.5924,-4.5914 20.5565,-11.7249 28.8091,-15.8524 22.5944,-11.3003 106.8442,-44.5141 142.6407,-56.2333 89.5645,-29.3218 155.9976,-46.9132 162.0637,-42.9142 1.6497,1.0876 0.7092,1.3757 -25.7441,7.8883 -6.6726,1.6427 -24.4982,7.391 -39.6126,12.774 -15.1143,5.3829 -49.0874,17.2265 -75.4958,26.3191 -70.6301,24.3183 -73.5297,25.3666 -99.0314,35.8015 -40.3138,16.4957 -57.7626,24.179 -72.0228,31.7137 -42.1495,22.2707 -86.5106,53.1883 -139.8443,97.46453 -36.1263,29.9912 -54.7301,46.95589 -91.8453,83.75317 l -29.4255,29.17352 -24.3931,37.21179 c -28.321,43.2039 -53.672,89.30046 -65.3551,118.83762 -6.3742,16.11511 -13.5032,44.26606 -16.9527,66.94251 -1.684,11.0702 -3.8362,21.60355 -4.7827,23.4074 -0.9465,1.80387 -4.442,6.25068 -7.7678,9.88182 l -6.0469,6.6021 -0.055,-11.64222 0,0 z"
         id="path5740"
         inkscape:connector-curvature="0" />
      <path
         style="fill:#ffffff;fill-opacity:1;stroke:none"
         d="m -3042.1179,-663.76236 c 0.8281,-6.24271 7.5886,-27.3135 10.6839,-33.29914 3.6753,-7.10727 18.4769,-19.99738 29.3076,-25.52281 8.0702,-4.11706 23.9439,-8.21005 42.1734,-10.87419 17.6323,-2.57687 39.324,-7.64252 67.6271,-15.7929 9.0264,-2.59933 16.7315,-4.72606 17.1224,-4.72606 3.4387,0 -33.2774,45.10688 -46.7062,57.38001 -9.219,8.42561 -25.776,20.10303 -35.4305,24.98849 -4.2984,2.17514 -16.188,6.1362 -26.4212,8.80237 -18.1724,4.73466 -19.0779,4.84773 -38.8669,4.85356 l -20.261,0.006 0.7714,-5.81531 z"
         id="path5742"
         inkscape:connector-curvature="0" />
      <path
         style="fill:#ffffff;fill-opacity:1;stroke:none"
         d="m -2971.1574,-748.53755 c -0.6602,-0.30404 -7.6547,-1.38163 -15.5434,-2.39462 -7.8887,-1.01301 -14.8357,-2.33458 -15.438,-2.9368 -0.6597,-0.6597 0.2702,-3.60815 2.3392,-7.41717 4.9018,-9.02408 8.1544,-11.47626 57.2201,-43.13973 24.2198,-15.62977 33.9202,-19.32372 69.0827,-26.30727 13.6193,-2.7049 32.5806,-3.3596 32.5806,-1.12498 0,0.73942 -4.5016,6.54627 -10.0036,12.90408 -5.502,6.35783 -15.1507,18.04173 -21.4415,25.96423 -13.2525,16.68994 -24.56,29.59551 -28.9705,33.06478 -5.5687,4.38032 -14.2288,7.41578 -25.9185,9.08469 -11.9323,1.70353 -41.8061,3.27031 -43.9071,2.30279 z"
         id="path5744"
         inkscape:connector-curvature="0" />
      <path
         style="fill:#ffffff;fill-opacity:1;stroke:none"
         d="m -2944.5984,-847.44903 -3.4504,-0.75825 7.8626,-9.73349 c 9.4619,-11.71316 16.0896,-17.53271 28.5376,-25.05785 23.6862,-14.31895 49.506,-18.40886 105.8727,-16.77051 24.8519,0.72236 28.35,1.05637 27.0807,2.58579 -2.8727,3.46144 -38.8447,28.52037 -46.5526,32.42974 -19.361,9.81954 -45.9839,15.4116 -81.6893,17.15852 -25.7085,1.25783 -32.4826,1.2841 -37.6613,0.14609 z"
         id="path5746"
         inkscape:connector-curvature="0" />
      <path
         style="fill:#ffffff;fill-opacity:1;stroke:none"
         d="m -2826.0017,-921.84246 c -7.8217,-2.6679 -23.5445,-11.66019 -29.1599,-16.67734 -3.6431,-3.255 -4.0643,-4.09686 -2.5599,-5.11728 20.6889,-14.03349 37.9903,-19.74229 64.2203,-21.19028 15.2013,-0.83916 27.2812,1.08072 59.0415,9.38363 l 24.2304,6.33441 -9.5287,3.84397 c -5.2408,2.1142 -15.0641,5.54181 -21.8296,7.61691 -6.7656,2.07513 -16.3742,5.32076 -21.3525,7.21254 -10.6156,4.034 -29.2006,7.95957 -42.646,9.00777 -5.2371,0.4083 -10.6023,0.94963 -11.9227,1.20299 -1.3204,0.25336 -5.1422,-0.47445 -8.4929,-1.61732 z"
         id="path5748"
         inkscape:connector-curvature="0" />
      <path
         style="fill:#ffffff;fill-opacity:1;stroke:none"
         d="m -2711.8753,-994.71354 c -33.7371,-10.85146 -43.5935,-14.24976 -48.5238,-16.72976 l -5.3101,-2.6711 5.3101,-3.1084 c 12.6777,-7.4213 48.914,-22.5604 61.073,-25.5156 10.358,-2.5176 19.5016,-1.3759 34.0605,4.2529 5.1689,1.9984 17.7279,5.3419 27.9088,7.4301 10.6992,2.1944 18.5109,4.3682 18.5109,5.1509 0,1.7624 -7.4121,8.7166 -15.0047,14.0778 -12.9433,9.1392 -42.9139,20.26264 -56.4179,20.93927 -7.0573,0.35359 -10.5168,-0.25901 -21.6068,-3.82611 z"
         id="path5750"
         inkscape:connector-curvature="0" />
      <path
         style="fill:#ffffff;fill-opacity:1;stroke:none"
         d="m -2635.6512,-1045.0038 c -15.89,-3.2925 -31.2192,-12.4519 -36.8644,-22.027 -1.6719,-2.8357 -2.8217,-5.374 -2.555,-5.6406 0.2666,-0.2666 4.9668,-2.7281 10.4449,-5.47 6.8971,-3.4521 12.0702,-5.1766 16.8209,-5.6073 6.6163,-0.6 7.4074,-0.3392 22.207,7.3216 16.4224,8.5007 25.6277,11.0857 49.9656,14.0312 6.272,0.7591 12.2139,1.6497 13.2042,1.9792 4.8,1.5971 -42.9075,15.1614 -57.6183,16.3822 -4.5453,0.3772 -11.0595,-0.027 -15.6049,-0.9693 l 0,0 z"
         id="path5752"
         inkscape:connector-curvature="0" />
      <path
         style="fill:#ffffff;fill-opacity:1;stroke:none"
         d="m -2560.8743,-1080.1041 c -10.7479,-6.0815 -31.5632,-25.1396 -31.5632,-28.8986 0,-1.3674 18.9341,-7.2261 26.6768,-8.2545 4.3713,-0.5805 6.4335,-0.2553 9.0028,1.4199 6.1355,4.0004 38.744,30.6225 38.744,31.6313 0,1.3388 -17.5107,4.6423 -29.4094,5.5482 -7.9781,0.6074 -10.2541,0.3627 -13.451,-1.4463 l 0,0 z"
         id="path5754"
         inkscape:connector-curvature="0" />
      <path
         style="fill:#ffffff;fill-opacity:1;stroke:none"
         d="m -2480.3732,-1119.6537 c -7.8634,-3.0524 -13.2386,-6.1393 -18.9606,-10.8888 -4.3923,-3.6458 -7.7848,-7.2322 -7.5389,-7.9699 0.2459,-0.7377 4.4568,-2.5923 9.3576,-4.1214 15.619,-4.8733 22.2346,-2.5478 41.4336,14.5648 l 12.3149,10.9766 -5.6137,0.7951 c -12.7688,1.8086 -19.5904,1.0698 -30.9929,-3.3564 z"
         id="path5756"
         inkscape:connector-curvature="0" />
      <path
         style="fill:#ffffff;fill-opacity:1;stroke:none"
         d="m -2407.579,-1146.4509 c -4.2914,-0.4171 -9.693,-1.6052 -12.0038,-2.6403 -4.729,-2.1184 -19.2061,-12.7454 -19.2061,-14.0984 0,-1.2343 12.1185,-4.919 16.1779,-4.919 4.0457,0 11.9195,4.7 24.1322,14.405 8.5177,6.7687 8.8474,7.2019 5.4812,7.2019 -1.9699,0 -4.301,0.1821 -5.1803,0.4045 -0.8792,0.2225 -5.1097,0.063 -9.4011,-0.3537 z"
         id="path5758"
         inkscape:connector-curvature="0" />
      <path
         style="fill:#ffffff;fill-opacity:1;stroke:none"
         d="m -2374.9507,-1172.0472 c -0.702,-0.8459 -4.0488,-2.5349 -7.4372,-3.7534 -3.3885,-1.2184 -5.7161,-2.6592 -5.1726,-3.2017 1.5515,-1.5485 14.8444,-4.7168 19.5462,-4.6587 5.2782,0.065 15.9371,3.6551 16.5486,5.5735 0.2774,0.8703 -3.3354,2.6217 -9.2857,4.5014 -11.1334,3.517 -12.4401,3.6586 -14.1993,1.5389 l 0,0 z"
         id="path5760"
         inkscape:connector-curvature="0" />
      <path
         style="fill:#ffffff;fill-opacity:1;stroke:none"
         d="m -2529.7285,-101.77425 c -38.7457,-6.38438 -104.8538,-19.06543 -124.8396,-23.94707 -73.2954,-17.90283 -191.9274,-62.22412 -266.4843,-99.55938 -65.705,-32.90255 -133.6855,-71.33334 -165.8327,-93.74873 -22.0146,-15.35025 -74.3692,-59.83921 -90.8052,-77.16293 l -8.1592,-8.5999 9.9818,-28.04724 c 6.3277,-17.77973 15.0272,-36.04277 23.7641,-49.88827 20.5289,-32.53227 83.7496,-111.94586 118.9805,-149.45515 l 13.9693,-14.87263 19.8636,-2.81964 c 23.0779,-3.27592 30.5549,-1.87514 60.2321,11.28409 33.1817,14.71326 112.4583,55.07272 145.7213,74.18639 17.5642,10.0928 37.3366,20.82366 43.9387,23.84641 11.1708,5.11451 11.504,5.50751 4.8015,5.66279 -8.5801,0.19877 -33.6457,-6.83514 -88.5194,-24.84057 -39.5829,-12.98812 -90.6086,-25.34884 -104.6415,-25.34884 -12.5512,0 -84.3817,69.72575 -120.5794,117.04619 -8.3367,10.89848 -15.5034,18.77841 -15.9258,17.51099 -1.8371,-5.51118 43.0129,-90.60248 64.9949,-123.31108 5.1607,-7.67903 8.8479,-15.35677 8.1936,-17.0616 -1.4098,-3.67396 -16.3365,-6.03594 -27.6071,-4.36852 -6.6554,0.98461 -10.9069,4.85863 -25.3384,23.08908 -48.0983,60.7593 -66.0888,89.00788 -86.8456,136.36414 -7.1327,16.27307 -12.9893,30.74361 -13.0147,32.15669 -0.069,3.82291 51.9596,47.2074 87.3362,72.82648 17.0304,12.33317 49.4407,33.22823 72.0228,46.4335 38.4258,22.47016 133.5204,68.85732 165.8978,80.92493 43.6494,16.26886 91.9731,31.80034 115.2365,37.03756 59.1957,13.32654 97.2319,20.71581 118.8376,23.08659 12.544,1.37644 34.691,4.33732 49.2156,6.57975 55.1836,8.51971 224.4711,3.78842 224.4711,-6.27361 0,-0.97676 -6.9061,-6.84676 -15.347,-13.04445 -23.3201,-17.12287 -61.8236,-64.07789 -89.7323,-109.42881 l -16.8262,-27.34202 3.9746,-8.66938 c 16.5338,-36.06409 34.5137,-60.64315 74.2343,-101.48048 23.0171,-23.66432 36.5716,-35.15509 61.2362,-51.91308 17.4218,-11.83696 40.3187,-25.88312 50.8821,-31.21373 10.5633,-5.33057 23.0869,-13.83977 27.8301,-18.90934 18.2362,-19.49089 69.447,-96.19961 95.9074,-143.65994 24.6402,-44.19553 49.783,-82.44466 85.2184,-129.64106 32.021,-42.64853 97.646,-119.62067 124.3725,-145.87752 20.8499,-20.48359 21.3352,-22.17302 12.0131,-41.81798 -3.7715,-7.94787 -4.5487,-8.36976 -12.945,-7.02714 -18.0112,2.88012 -78.8528,24.02937 -112.727,39.18524 -65.3097,29.22066 -122.0319,105.46966 -165.4972,142.30391 -46.1062,39.07223 -23.0081,15.05597 -84.4779,71.89184 -83.1555,99.55732 -238.1697,96.55813 -240.4535,61.69372 0.1923,-3.4251 1.3347,8.12778 34.4904,6.89284 83.4482,-15.03115 136.8532,-18.51146 160.2328,-46.83201 67.3178,-69.06377 91.2672,-75.18081 143.5255,-121.72489 68.6505,-61.14382 193.9835,-167.14169 271.6177,-185.46469 6.9322,-1.6362 12.604,-3.8983 12.604,-5.027 0,-1.1287 2.5839,0.3295 5.7419,3.2404 3.158,2.9109 10.6923,9.3948 16.7428,14.40861 19.3444,16.02977 19.6397,28.0521 2.1942,89.31516 -7.3228,25.71541 -32.5513,93.05553 -44.9714,120.03799 -4.8623,10.56336 -17.8815,40.27275 -28.9317,66.0209 -11.0501,25.74817 -28.609,63.01996 -39.0197,82.82624 -10.4107,19.80627 -31.6899,60.31909 -47.2869,90.02849 -56.195,107.04061 -59.5449,112.81311 -77.1647,132.96592 -24.3956,27.90271 -52.7135,54.20217 -73.373,68.143 -25.7259,17.35966 -80.4105,48.28378 -118.8812,67.22719 -38.5606,18.98772 -68.7704,37.82687 -67.3958,42.02877 1.5264,4.66618 38.4617,26.67272 75.0197,44.69775 40.0142,19.72915 72.1474,31.90597 108.0303,40.93799 l 26.4045,6.64623 -31.206,7.33983 c -44.9524,10.5731 -66.7402,14.43823 -91.225,16.18316 -11.8837,0.8469 -59.3733,5.23679 -105.5322,9.75531 -74.9995,7.34171 -120.3755,9.500604 -138.1449,6.57261 z m 425.1923,-464.70479 c 1.5551,-2.97093 14.9569,-23.76752 29.7817,-46.21463 26.8278,-40.62144 41.0204,-59.2044 69.6812,-91.23637 14.9077,-16.66119 31.1782,-45.49645 45.2713,-80.2317 10.117,-24.93502 8.4694,-25.34601 -14.894,-3.71516 -21.9177,20.2925 -44.8872,50.84248 -73.0501,97.15854 -24.3818,40.09772 -69.0517,122.11516 -69.0517,126.78437 0,5.00327 9.3235,3.06807 12.2616,-2.54505 z m 123.7405,-242.5231 c 12.0813,-10.86796 28.8266,-25.23925 37.2118,-31.93617 14.7402,-11.77245 15.5156,-12.95166 23.3823,-35.55735 5.1582,-14.82267 7.2988,-24.21877 5.848,-25.66958 -2.9139,-2.91388 -33.3957,23.27338 -48.708,41.84555 -10.4671,12.69555 -38.8107,57.60596 -42.265,66.96882 -2.8064,7.60704 2.2922,4.354 24.5309,-15.65127 z"
         id="path5762"
         inkscape:connector-curvature="0"
         sodipodi:nodetypes="csssscssscsssssssscscssscssssssssscssssssssssssccccscssssssssssscsscssscssssssssccssssc" />
      <path
         style="fill:#ffffff;fill-opacity:1;stroke:#ffffff;stroke-width:0;stroke-linecap:round;stroke-linejoin:round;stroke-miterlimit:4;stroke-opacity:1;stroke-dasharray:none"
         d="m -3115.4142,-687.68642 c -5.2816,-1.8927 -15.0047,-5.38274 -21.6068,-7.75566 -14.1955,-5.10212 -41.1763,-13.39076 -65.4207,-20.09753 -31.5957,-8.7404 -31.478,-8.68806 -39.7217,-17.66354 -9.8199,-10.69155 -23.0629,-28.36384 -31.6138,-42.18737 -6.6253,-10.71051 -6.9377,-11.56522 -6.2744,-17.16525 0.8453,-7.13742 10.1855,-35.06063 16.1533,-48.29161 6.3516,-14.08186 25.2744,-46.83629 37.7915,-65.41537 9.6021,-14.25232 39.4553,-54.70437 51.2738,-69.47764 7.7809,-9.72618 47.4036,-40.05421 66.0209,-50.53391 9.4178,-5.3012 48.9903,-23.3706 62.4198,-28.5019 7.2376,-2.7654 31.4201,-10.5958 97.8309,-31.6782 14.5246,-4.6109 37.4356,-11.3443 50.9134,-14.9631 l 24.5049,-6.5796 16.308,0.3327 16.308,0.3327 -4.8016,5.0405 c -4.7037,4.938 -5.437,5.2263 -36.0114,14.162 -62.852,18.3691 -66.1273,19.4611 -157.2497,52.427 -21.2462,7.6864 -59.1206,26.0587 -73.2232,35.5197 -20.7325,13.90855 -39.4963,32.56962 -54.3903,54.09241 -20.7669,30.00957 -55.8975,85.89588 -63.8927,101.64157 -9.9708,19.63646 -21.5397,47.82201 -22.3974,54.56709 -0.459,3.60974 0.3194,5.42933 5.1565,12.054 9.6715,13.24571 17.386,21.45942 28.6591,30.51368 13.9433,11.19887 16.7834,12.82624 31.2408,17.9007 6.6021,2.31731 21.0063,7.46775 32.0094,11.44549 11.003,3.97771 25.8269,8.928 32.9419,11.00063 19.9983,5.82565 23.0665,7.59064 26.4348,15.207 1.5641,3.53661 2.8438,6.68491 2.8438,6.99617 0,1.89846 -13.8343,0.0776 -22.2071,-2.92266 l 0,0 z"
         id="path5764"
         inkscape:connector-curvature="0" />
      <path
         style="fill:#ffffff;fill-opacity:1;stroke:#ffffff;stroke-width:0;stroke-linecap:round;stroke-linejoin:round;stroke-miterlimit:4;stroke-opacity:1;stroke-dasharray:none"
         d="m -2975.4485,-807.24969 c 4.7667,-6.9393 9.2552,-13.08945 9.9744,-13.66699 0.7193,-0.57753 6.9796,-2.67131 13.9118,-4.65286 6.9322,-1.98156 19.086,-5.58847 27.0086,-8.01535 12.2087,-3.7399 17.1493,-4.59101 32.4102,-5.58312 40.7322,-2.64802 52.6415,-6.72814 87.9873,-30.14437 26.0342,-17.24738 39.4693,-27.02156 40.3705,-29.37009 0.9332,-2.43184 -1.0808,-4.80073 -6.4024,-7.5309 l -4.2556,-2.18327 13.7731,-8.97035 c 16.404,-10.68382 20.7063,-12.91638 31.7788,-16.49094 10.7405,-3.46739 27.3264,-11.45864 30.0665,-14.48641 2.0191,-2.2311 2.0193,-2.4443 0,-4.67089 -1.1612,-1.28318 -3.5407,-2.53616 -5.2876,-2.7844 -2.9663,-0.42148 -2.2561,-1.36137 10.743,-14.21691 l 13.9192,-13.76561 12.0467,-3.94549 c 17.5675,-5.75371 39.299,-16.67936 46.9698,-23.61446 11.3886,-10.2962 14.9938,-18.8564 9.5479,-22.6708 -1.4456,-1.0126 -2.3909,-2.0425 -2.1006,-2.2887 0.2902,-0.2462 5.3893,-1.63 11.3311,-3.075 18.2403,-4.4359 44.4811,-13.2978 50.2967,-16.9859 7.7571,-4.9194 7.3736,-9.2625 -0.9948,-11.2677 -1.9332,-0.4633 -13.4688,-1.8551 -25.6348,-3.0931 -12.1659,-1.238 -22.4371,-2.5681 -22.8248,-2.9558 -0.7954,-0.7949 12.9314,-15.0468 14.4919,-15.0468 0.5528,0 4.3509,2.7144 8.4402,6.032 11.4245,9.2686 17.7046,11.9747 27.7771,11.9689 17.4583,-0.011 41.4025,-5.7435 43.1648,-10.3361 0.9954,-2.594 -6.6897,-10.3739 -22.091,-22.3634 -7.5939,-5.9117 -13.9775,-11.2058 -14.1857,-11.7647 -0.5862,-1.5732 24.8139,-16.6915 28.1138,-16.7335 0.7298,-0.01 4.8677,3.2276 9.1953,7.1932 7.0013,6.4153 12.3194,9.6453 25.782,15.6585 l 3.8939,1.7393 -6.7136,8.4026 c -13.1395,16.4453 -21.4117,33.5736 -27.0446,55.9982 -2.5212,10.037 -2.8104,13.8237 -2.7364,35.8309 0.079,23.56652 0.2407,25.20532 3.8133,38.72903 6.423,24.31378 23.9622,54.64401 42.239,73.04298 18.1405,18.26186 47.6638,38.33049 67.2813,45.73489 l 9.0028,3.39801 -6.0019,-0.73161 c -3.301,-0.40237 -14.6446,-2.88564 -25.2079,-5.51839 -16.5556,-4.12617 -21.886,-6.10046 -38.6246,-14.30558 -19.0343,-9.33042 -23.162,-12.0732 -56.3967,-37.47397 -8.9568,-6.84557 -24.6266,-14.4884 -35.22,-17.17837 -9.2649,-2.35262 -27.8489,-1.67697 -38.4121,1.39651 -3.6312,1.05655 -18.6554,7.33638 -33.387,13.95519 -14.7318,6.61882 -27.0354,11.78383 -27.3414,11.47782 -0.306,-0.30602 1.3609,-2.01876 3.7042,-3.8061 5.8489,-4.46115 38.9406,-41.13339 47.7376,-52.90274 15.8026,-21.14209 32.3956,-64.73807 25.6283,-67.33497 -2.7304,-1.0477 -4.3155,0.5292 -13.8194,13.7487 -24.146,33.58597 -72.1861,85.13626 -93.7512,100.60141 -17.1002,12.26317 -58.6205,37.61163 -61.6072,37.61163 -0.6109,0 9.3546,-10.94608 22.1456,-24.32463 34.6348,-36.22571 38.2612,-40.1678 38.2612,-41.59236 0,-0.71736 -0.6269,-1.30429 -1.393,-1.30429 -2.1109,0 -17.6617,10.83851 -36.4864,25.43021 -34.2561,26.55303 -45.2307,33.67659 -78.484,50.94361 l -31.8824,16.55515 -18.0062,0.10685 c -17.0002,0.10088 -19.0796,0.38294 -37.2124,5.04639 -32.6059,8.38565 -43.6439,13.17367 -63.2526,27.43728 -5.7397,4.17516 -11.9626,8.38068 -13.8286,9.34563 -3.105,1.60564 -15.2907,4.37886 -19.241,4.37886 -0.9567,0 1.9946,-5.30783 7.0153,-12.61693 z"
         id="path5766"
         inkscape:connector-curvature="0" />
      <path
         style="fill:#ffffff;fill-opacity:1;stroke:#ffffff;stroke-width:0;stroke-linecap:round;stroke-linejoin:round;stroke-miterlimit:4;stroke-opacity:1;stroke-dasharray:none"
         d="m -2354.9734,-864.97436 c -27.7144,-2.39941 -33.1033,-3.94037 -52.2667,-14.94559 -24.4857,-14.06169 -40.9903,-26.91 -48.495,-37.75175 -6.4763,-9.35623 -21.7193,-46.98228 -24.0834,-59.4479 -1.665,-8.77979 -1.4862,-22.67688 0.5665,-44.0133 2.0336,-21.1392 3.7942,-29.5018 9.1699,-43.5579 4.4869,-11.732 5.5907,-11.2261 3.006,1.3777 -7.5722,36.9249 1.4666,86.83332 22.681,125.23493 5.667,10.25817 28.4335,34.55099 39.6059,42.26125 11.2691,7.7769 35.7239,17.42106 52.8167,20.82912 12.8948,2.57103 39.3155,-0.83562 61.9601,-7.98904 5.328,-1.68312 9.8767,-2.87072 10.1083,-2.63911 0.599,0.59894 -30.4044,17.07047 -35.4568,18.83757 -4.2714,1.49396 -29.7771,2.65553 -39.6125,1.80402 z"
         id="path5768"
         inkscape:connector-curvature="0" />
      <path
         style="fill:#ffffff;fill-opacity:1;stroke:#ffffff;stroke-width:0;stroke-linecap:round;stroke-linejoin:round;stroke-miterlimit:4;stroke-opacity:1;stroke-dasharray:none"
         d="m -2155.19,-941.07912 c 1.224,-5.04187 2.2835,-35.28727 1.4009,-39.99197 -0.4824,-2.57128 -1.5264,-4.42209 -2.4943,-4.42209 -0.9156,0 -5.6784,4.72651 -10.584,10.50334 -12.6157,14.8563 -32.0566,32.96188 -32.0566,29.85469 0,-0.29663 3.6219,-6.93273 8.0487,-14.74687 4.4269,-7.81416 9.5118,-17.79487 11.2999,-22.17939 7.4199,-18.19439 12.0621,-45.44509 7.7416,-45.44509 -0.9454,0 -4.3215,4.3773 -7.5024,9.7273 -11.4131,19.19593 -24.056,34.4862 -39.3941,47.64313 -19.0459,16.33749 -21.81,17.58642 -45.6144,20.61052 -10.5634,1.34195 -20.5565,2.4044 -22.2071,2.36098 l -3.0009,-0.0789 3.0009,-1.29265 c 13.4277,-5.7839 19.0842,-9.05432 30.6097,-17.69775 15.7308,-11.79707 27.6583,-23.14926 34.9408,-33.25537 17.2229,-23.90106 23.6509,-57.27766 15.8037,-82.05946 -1.7814,-5.6255 -5.1319,-12.8908 -7.4455,-16.145 -4.5851,-6.4491 -4.7146,-7.593 -0.6108,-5.3967 2.5808,1.3812 2.6511,1.2839 1.8792,-2.6036 -0.4411,-2.2211 -3.3569,-8.2924 -6.4795,-13.4917 -8.3991,-13.9848 -17.5622,-21.7415 -41.0902,-34.784 -18.4389,-10.2214 -19.6703,-11.1176 -17.8184,-12.9681 1.8517,-1.8504 2.4332,-1.7813 8.4041,0.9976 3.5281,1.6421 10.466,3.7094 15.4176,4.594 4.9515,0.8847 18.1308,4.8921 29.2871,8.9055 11.1564,4.0134 21.2846,7.297 22.5072,7.297 3.4596,0 2.6219,-3.1826 -1.6784,-6.3761 -23.9756,-17.8053 -65.0497,-29.5026 -104.4202,-29.7373 -16.0789,-0.096 -16.7539,-0.1913 -11.1164,-1.5716 3.301,-0.8082 11.6737,-4.086 18.6059,-7.2841 7.0162,-3.2369 14.9987,-6.038 18.0057,-6.3183 13.1428,-1.2252 51.398,14.3449 82.226,33.4664 72.3822,44.896 93.6625,54.8864 136.4992,64.0818 62.6656,13.4519 138.1269,33.985 153.682,41.8171 13.0377,6.5645 14.8318,9.498 14.4072,23.5575 -0.3603,11.9271 -1.5679,18.2309 -3.624,18.9163 -0.8083,0.2694 -1.4696,-0.3464 -1.4696,-1.3685 0,-3.014 -4.3732,-4.5483 -10.549,-3.7011 -3.1109,0.4268 -13.1244,2.6665 -22.2524,4.9773 -9.1279,2.3107 -16.9154,3.8821 -17.3054,3.492 -0.3901,-0.39 -0.01,-0.7092 0.8524,-0.7092 0.8589,0 6.4857,-2.339 12.5039,-5.1978 11.0644,-5.2559 18.733,-11.8641 21.1524,-18.2274 2.2752,-5.9842 -2.4057,-12.4299 -12.9829,-17.878 -5.1243,-2.6395 -44.264,-16.6734 -59.0467,-21.1718 -17.2749,-5.2568 -67.2797,-16.3331 -92.3464,-20.4551 -31.0493,-5.1058 -44.5762,-10.1788 -71.5055,-26.8172 -16.0777,-9.9336 -21.585,-8.9293 -11.5854,2.1126 6.8656,7.5811 13.1662,16.6842 21.0727,30.4453 7.7192,13.4351 14.7502,19.2628 28.0246,23.2286 2.8059,0.8383 5.1016,1.703 5.1016,1.9217 0,0.2187 -4.366,4.5689 -9.7021,9.667 -14.6641,14.0099 -14.003,12.4759 -15.4621,35.8789 -1.7449,27.98772 -3.3364,38.93056 -7.4911,51.50749 -4.1612,12.59672 -15.7601,34.54421 -13.6392,25.80816 l 0,0 z"
         id="path5770"
         inkscape:connector-curvature="0" />
      <path
         style="fill:#ffffff;fill-opacity:1;stroke:#ffffff;stroke-width:0;stroke-linecap:round;stroke-linejoin:round;stroke-miterlimit:4;stroke-opacity:1;stroke-dasharray:none"
         d="m -2328.357,-1077.2384 c -6.8064,-2.2089 -13.5458,-6.9566 -16.1622,-11.3858 l -2.0994,-3.5541 5.1255,-6.2309 c 2.8191,-3.427 7.3232,-7.8072 10.0092,-9.734 4.6972,-3.3694 5.5216,-3.5274 21.6068,-4.1413 15.5384,-0.593 17.0048,-0.4595 20.6967,1.8834 8.8593,5.6224 8.8263,15.8374 -0.076,23.4572 -11.0234,9.4356 -27.4038,13.5015 -39.1008,9.7055 l 0,0 z m 26.2792,-6.7282 c 3.374,-1.8057 2.9629,-5.753 -0.6947,-6.671 -3.436,-0.8624 -6.5865,1.175 -6.5865,4.2594 0,3.7706 2.9292,4.7408 7.2812,2.4116 z m -29.5758,-3.0426 c 3.7734,-3.7733 3.928,-11.3197 0.232,-11.3197 -2.2651,0 -7.9469,6.7887 -7.9469,9.4951 0,4.0986 4.4003,5.1392 7.7149,1.8246 z m 14.5467,-1.0619 c 1.6205,-1.6205 2.9464,-3.4987 2.9464,-4.1737 0,-2.1656 -5.7376,-5.0707 -9.2253,-4.6708 -2.8594,0.3277 -3.4378,1.0045 -3.7634,4.4028 -0.2115,2.2085 -0.093,4.7743 0.2625,5.7018 1.0263,2.6745 6.558,1.9617 9.7798,-1.2601 z"
         id="path5772"
         inkscape:connector-curvature="0" />
      <path
         style="fill:#ffffff;fill-opacity:1;stroke:#ffffff;stroke-width:0;stroke-linecap:round;stroke-linejoin:round;stroke-miterlimit:4;stroke-opacity:1;stroke-dasharray:none"
         d="m -2457.74,-1140.2483 c -4.0159,-3.2495 -9.0641,-6.9799 -11.2181,-8.2898 -3.5713,-2.1718 -3.7197,-2.4867 -1.6839,-3.5719 3.7489,-1.9983 17.4753,-6.2379 20.1965,-6.2379 2.5176,0 15.3295,8.5691 18.4253,12.3235 1.3828,1.6771 0.492,2.5162 -7.2023,6.7831 -4.8292,2.6781 -9.3284,4.8764 -9.9981,4.8851 -0.6698,0.01 -4.5035,-2.6427 -8.5194,-5.8921 l 0,0 z"
         id="path5774"
         inkscape:connector-curvature="0" />
      <path
         style="fill:#ffffff;fill-opacity:1;stroke:#ffffff;stroke-width:0;stroke-linecap:round;stroke-linejoin:round;stroke-miterlimit:4;stroke-opacity:1;stroke-dasharray:none"
         d="m -2402.1984,-1165.9804 -9.2408,-6.4321 6.1645,-2.5618 6.1644,-2.5618 4.9631,3.8058 c 2.7296,2.0932 5.3967,4.1704 5.9269,4.6161 0.7608,0.6397 -3.4099,9.5659 -4.4696,9.5659 -0.1472,0 -4.426,-2.8944 -9.5085,-6.4321 z"
         id="path5776"
         inkscape:connector-curvature="0" />
      <path
         style="fill:#ffffff;fill-opacity:1;stroke:#ffffff;stroke-width:0;stroke-linecap:round;stroke-linejoin:round;stroke-miterlimit:4;stroke-opacity:1;stroke-dasharray:none"
         d="m -2752.6257,-1119.0355 c -0.3569,-4.7865 -0.2945,-9.0618 0.1389,-9.5006 0.4333,-0.4389 3.8938,-1.1763 7.69,-1.6388 l 6.9022,-0.8409 0,4.7723 c 0,2.6248 0.3435,7.2785 0.7633,10.3415 l 0.7634,5.5693 -7.8043,0 -7.8044,0 -0.649,-8.7028 z"
         id="path5778"
         inkscape:connector-curvature="0" />
      <path
         style="fill:#ffffff;fill-opacity:1;stroke:none"
         d="m -2891.0935,-1084.8456 10e-5,-0.3894 8.9464,-2.6204 c 14.7439,-4.3186 20.2931,-5.99 24.1763,-7.2817 6.4269,-2.1379 8.8179,-3.3544 11.308,-5.753 1.2749,-1.228 6.1445,-6.3858 6.0804,-6.4403 -0.032,-0.027 -7.4008,-0.1922 -16.3755,-0.3669 l -16.3177,-0.3176 -8.8903,2.3965 -8.8904,2.3964 -0.023,-0.2985 c -0.013,-0.1642 -0.013,-0.3087 0,-0.3212 0.05,-0.048 10.1857,-2.8967 15.2533,-4.2864 14.7392,-4.0422 26.7613,-7.0063 33.09,-8.1586 5.0352,-0.9168 7.7829,-1.1012 8.237,-0.5528 0.4568,0.5516 -0.6257,2.5772 -3.8393,7.1843 -4.6954,6.7314 -8.8261,11.5811 -10.5513,12.3879 -0.1665,0.078 -1.9742,0.6333 -4.0167,1.2341 -7.3619,2.1654 -35.59,10.7164 -37.8682,11.4713 l -0.3189,0.1055 1e-4,-0.3893 0,0 z"
         id="path5780"
         inkscape:connector-curvature="0" />
      <path
         style="fill:#ffffff;fill-opacity:1;stroke:none"
         d="m -1957.4151,-1040.8638 c 2.2998,-1.7676 13.831,-7.3254 15.8872,-7.6573 1.3447,-0.217 2.9177,0.2522 5.71,1.7036 2.1197,1.1017 3.9665,2.3446 4.1041,2.7619 0.6348,1.9253 -11.2007,4.3453 -21.1623,4.3271 -5.988,-0.011 -5.9985,-0.013 -4.539,-1.1353 z"
         id="path5782"
         inkscape:connector-curvature="0" />
      <path
         style="fill:#ffffff;fill-opacity:1;stroke:none"
         d="m -3033.5283,-785.72012 c -2.769,-0.0437 -2.8124,-0.0493 -2.8834,-0.37863 -0.04,-0.18384 -0.2461,-1.5497 -0.4588,-3.03516 -0.5195,-3.62773 -1.1454,-6.69064 -1.8105,-8.85964 -0.7054,-2.30059 -0.7383,-2.97803 -0.1668,-3.43393 0.2321,-0.18511 0.7795,-0.44918 1.2164,-0.58693 1.0059,-0.31706 5.0042,-0.99889 5.8577,-0.99889 1.7461,0 2.4802,0.83366 6.5182,7.40166 3.3635,5.47081 5.0777,9.05277 4.5735,9.55689 -0.3864,0.38643 -3.846,0.47656 -12.8463,0.33463 z"
         id="path5784"
         inkscape:connector-curvature="0" />
      <path
         style="fill:#ffffff;fill-opacity:1;stroke:none"
         d="m -2668.77,-1108.665 c 3.8519,-3.9469 6.1704,-5.1782 9.7271,-5.1656 4.2052,0.015 4.7024,0.8025 1.7022,2.6964 -3.1522,1.99 -9.7476,4.8126 -12.5963,5.391 l -2.1007,0.4265 3.2677,-3.3483 z"
         id="path5786"
         inkscape:connector-curvature="0" />
    </g>
    <text
       sodipodi:linespacing="125%"
       id="text6124"
       y="-11094.051"
       x="1401.5883"
       style="font-size:673.04327393px;font-style:normal;font-weight:normal;line-height:125%;letter-spacing:0px;word-spacing:0px;fill:#008000;fill-opacity:1;stroke:none;font-family:Sans"
       xml:space="preserve"><tspan
         style="font-style:normal;font-variant:normal;font-weight:bold;font-stretch:normal;fill:#008000;font-family:FifthLeg;-inkscape-font-specification:FifthLeg Bold"
         y="-11094.051"
         x="1401.5883"
         sodipodi:role="line"
         id="tspan6140">POW<tspan
   style="fill:#ffffff"
   id="tspan6144">ER</tspan></tspan></text>
    <text
       xml:space="preserve"
       style="font-size:673.04327393px;font-style:normal;font-weight:normal;line-height:125%;letter-spacing:0px;word-spacing:0px;fill:#ffffff;fill-opacity:1;stroke:none;font-family:Sans"
       x="2843.427"
       y="-10369.171"
       id="text6128"
       sodipodi:linespacing="125%"><tspan
         sodipodi:role="line"
         id="tspan6130"
         x="2843.427"
         y="-10369.171"
         style="font-style:normal;font-variant:normal;font-weight:bold;font-stretch:normal;fill:#ffffff;font-family:FifthLeg;-inkscape-font-specification:FifthLeg Bold">TO</tspan></text>
    <text
       sodipodi:linespacing="125%"
       id="text6132"
       y="-9685.3223"
       x="2997.8091"
       style="font-size:673.04327393px;font-style:normal;font-weight:normal;line-height:125%;letter-spacing:0px;word-spacing:0px;fill:#008000;fill-opacity:1;stroke:none;font-family:Sans"
       xml:space="preserve"><tspan
         style="font-style:normal;font-variant:normal;font-weight:bold;font-stretch:normal;fill:#008000;font-family:FifthLeg;-inkscape-font-specification:FifthLeg Bold"
         y="-9685.3223"
         x="2997.8091"
         id="tspan6134"
         sodipodi:role="line">THE</tspan></text>
    <text
       xml:space="preserve"
       style="font-size:751.78900146px;font-style:normal;font-weight:normal;line-height:125%;letter-spacing:0px;word-spacing:0px;fill:#008000;fill-opacity:1;stroke:none;font-family:Sans"
       x="3381.7268"
       y="-8979.6904"
       id="text6146"
       sodipodi:linespacing="125%"><tspan
         sodipodi:role="line"
         id="tspan6148"
         x="3381.7268"
         y="-8979.6904"
         style="font-style:normal;font-variant:normal;font-weight:bold;font-stretch:normal;fill:#008000;font-family:FifthLeg;-inkscape-font-specification:FifthLeg Bold">GE<tspan
   style="fill:#ffffff"
   id="tspan6150">EKO</tspan></tspan></text>
  </g>
</svg>
