<?xml version="1.0" encoding="UTF-8" standalone="no"?>
<!-- Created with Inkscape (http://www.inkscape.org/) -->

<svg
   xmlns:dc="http://purl.org/dc/elements/1.1/"
   xmlns:cc="http://creativecommons.org/ns#"
   xmlns:rdf="http://www.w3.org/1999/02/22-rdf-syntax-ns#"
   xmlns:svg="http://www.w3.org/2000/svg"
   xmlns="http://www.w3.org/2000/svg"
   xmlns:sodipodi="http://sodipodi.sourceforge.net/DTD/sodipodi-0.dtd"
   xmlns:inkscape="http://www.inkscape.org/namespaces/inkscape"
   width="210mm"
   height="297mm"
   id="svg4207"
   version="1.1"
   inkscape:version="0.48.1 r9760"
   sodipodi:docname="Nouveau document 2">
  <defs
     id="defs4209" />
  <sodipodi:namedview
     id="base"
     pagecolor="#ffffff"
     bordercolor="#666666"
     borderopacity="1.0"
     inkscape:pageopacity="0.0"
     inkscape:pageshadow="2"
     inkscape:zoom="0.35"
     inkscape:cx="375"
     inkscape:cy="520"
     inkscape:document-units="px"
     inkscape:current-layer="layer1"
     showgrid="false"
     inkscape:window-width="624"
     inkscape:window-height="427"
     inkscape:window-x="738"
     inkscape:window-y="0"
     inkscape:window-maximized="0" />
  <metadata
     id="metadata4212">
    <rdf:RDF>
      <cc:Work
         rdf:about="">
        <dc:format>image/svg+xml</dc:format>
        <dc:type
           rdf:resource="http://purl.org/dc/dcmitype/StillImage" />
        <dc:title></dc:title>
      </cc:Work>
    </rdf:RDF>
  </metadata>
  <g
     inkscape:label="Calque 1"
     inkscape:groupmode="layer"
     id="layer1">
    <path
       inkscape:connector-curvature="0"
       id="path3348"
       style="fill:#67686a;fill-opacity:1;fill-rule:nonzero;stroke:none"
       d="m 333.32116,633.51897 0.67,-0.65625 c -0.60875,-0.62125 -1.21375,-1.20625 -1.8725,-1.665 -0.655,-0.45375 -1.395,-0.80375 -2.24375,-0.80625 -0.74375,-0.005 -1.49375,0.29625 -2.1425,0.84125 -0.655,0.545 -1.2525,1.32125 -1.86,2.3825 -0.715,1.25125 -3.27875,5.54875 -5.855,9.80625 -1.29,2.13125 -2.585,4.255 -3.6575,5.99125 -1.07125,1.73125 -1.93125,3.09125 -2.31125,3.635 -0.49,0.72 -0.7675,1.12625 -0.925,1.22375 l 0.5625,0.75 0.93375,-0.0788 -0.765,0.065 0.7675,0 -0.002,-0.065 -0.765,0.065 0.7675,0 -0.54375,0 0.54,0.075 0.004,-0.075 -0.54375,0 0.54,0.075 -0.19125,-0.0263 0.19,0.0338 0.001,-0.008 -0.19125,-0.0263 0.19,0.0338 c -0.002,-0.0163 0.10375,-0.355 0.27875,-0.77125 0.61625,-1.51 2.0675,-4.5175 3.5275,-7.475 1.46375,-2.96375 2.94125,-5.895 3.65,-7.34 0.71125,-1.44875 1.16125,-2.3475 1.4375,-2.91625 0.13875,-0.285 0.2325,-0.485 0.30375,-0.64875 l 0.0925,-0.24 c 0.025,-0.0888 0.06,-0.1775 0.065,-0.3775 -0.001,-0.0888 -0.01,-0.20625 -0.0638,-0.35 -0.0688,-0.2175 -0.2975,-0.46 -0.5025,-0.54125 -0.2025,-0.09 -0.3375,-0.0888 -0.41875,-0.0912 l -0.15375,0.0113 -0.0175,0.001 0.0313,0.26875 -0.02,-0.26875 -0.0112,0 0.0313,0.26875 -0.02,-0.26875 c -0.33625,0.0301 -0.56125,0.14755 -0.77875,0.27755 -0.6225,0.39625 -1.25,1.07125 -2.1125,2.1725 -0.52875,0.68375 -1.26125,1.755 -2.09125,3.00375 -1.2425,1.86875 -2.69125,4.12 -3.8725,5.89625 -0.59,0.8875 -1.11375,1.6575 -1.5025,2.18875 -0.1925,0.26375 -0.35375,0.47125 -0.45375,0.585 l -0.0588,0.065 -0.0175,0.0175 0.29625,0.325 -0.23,-0.3725 -0.0663,0.0475 0.29625,0.325 -0.23,-0.3725 0.4425,0.71375 0,-0.83625 c -0.29125,0.0113 -0.385,0.095 -0.4425,0.1225 l 0.4425,0.71375 0,-0.83625 0,0.90375 0.2125,-0.8775 -0.2125,-0.0263 0,0.90375 0.2125,-0.8775 -0.22,0.91125 0.925,0.1475 -0.5575,-0.0888 0.54625,0.14375 0.0112,-0.055 -0.5575,-0.0888 0.54625,0.14375 -0.04,-0.01 0.04,0.0125 0,-0.002 -0.04,-0.01 0.04,0.0125 c 0.0137,-0.05 0.115,-0.295 0.2625,-0.60875 1.04875,-2.2575 4.52875,-8.79875 6.24,-11.725 0.39,-0.67125 0.67,-1.2175 0.8625,-1.685 0.18875,-0.47125 0.305,-0.85375 0.31,-1.2775 -0.001,-0.1725 -0.0225,-0.355 -0.0925,-0.545 -0.0975,-0.285 -0.34,-0.56375 -0.605,-0.6975 -0.265,-0.13875 -0.5125,-0.1675 -0.72125,-0.16875 -0.3675,0.004 -0.6675,0.0888 -0.96875,0.18375 -2.41125,0.78625 -4.96875,1.99375 -6.9775,3.0025 -1.00375,0.505 -1.86875,0.96 -2.49625,1.285 -0.3125,0.1625 -0.5675,0.2925 -0.74,0.37625 l -0.1775,0.08 -0.0113,0.005 0.13875,0.3775 -0.1025,-0.38875 -0.0362,0.0113 0.13875,0.3775 -0.1025,-0.38875 0.20625,0.785 0,-0.81 c -0.1325,0.002 -0.175,0.0187 -0.20625,0.025 l 0.20625,0.785 0,-0.81 0,0.91375 0.3975,-0.82125 c -0.2,-0.0912 -0.30875,-0.0888 -0.3975,-0.0925 l 0,0.91375 0.3975,-0.82125 -0.40875,0.84375 0.8775,0.33125 -0.86625,-0.3275 0.7475,0.545 c 0.0225,-0.0362 0.0562,-0.0675 0.11875,-0.2175 l -0.86625,-0.3275 0.7475,0.545 -0.6775,-0.49375 0.61125,0.57375 0.0663,-0.08 -0.6775,-0.49375 0.61125,0.57375 -0.30375,-0.285 0.2925,0.2975 0.0113,-0.0125 -0.30375,-0.285 0.2925,0.2975 c 0.01,-0.01 0.12625,-0.1175 0.29,-0.26 1.25875,-1.1075 5.81125,-4.97 10.32,-8.58875 2.25375,-1.81 4.5025,-3.5625 6.3175,-4.87625 0.9075,-0.6575 1.7075,-1.20625 2.3325,-1.59125 0.3125,-0.19125 0.58125,-0.3425 0.785,-0.44375 l 0.25,-0.11 0.0713,-0.025 0.02,-0.005 c 0.3175,-0.065 0.4625,-0.17125 0.62,-0.26375 0.22375,-0.14375 0.43375,-0.3025 0.69625,-0.47875 0.25875,-0.175 0.56125,-0.365 0.92625,-0.54625 0.54375,-0.27125 1.0025,-0.515 1.33625,-0.67875 0.16625,-0.0813 0.3025,-0.14125 0.38375,-0.1725 l 0.07,-0.0238 -0.0962,-0.38375 0,0.3925 0.0962,-0.009 -0.0962,-0.38375 0,0.3925 0,-0.76375 -0.36125,0.66875 c 0.16375,0.0862 0.295,0.0937 0.36125,0.095 l 0,-0.76375 -0.36125,0.66875 0.445,-0.825 -0.81,-0.47125 c -0.37,0.63375 -0.64375,1.0025 -0.865,1.315 -0.11,0.1575 -0.21375,0.30375 -0.31125,0.495 -0.0962,0.18875 -0.185,0.45 -0.1825,0.72875 l 0.004,0.10125 0.935,-0.0713 -0.93625,0.0488 0.004,0.1675 c 0.001,0.28125 -0.0326,0.6575 -0.0863,0.97125 -0.0263,0.15625 -0.0587,0.29875 -0.0875,0.40125 l -0.04,0.11625 -0.009,0.0225 0.1175,0.0562 -0.11125,-0.0675 -0.006,0.0113 0.1175,0.0562 -0.11125,-0.0675 -0.49875,0.80875 0.81625,0.4875 c 1.11875,0.66375 2.19625,1.8625 3.17875,3.47125 1.47625,2.41 2.7275,5.70625 3.79,9.27375 1.065,3.56875 1.94875,7.41125 2.7375,10.9475 0.50625,2.25 0.94375,3.95125 1.07875,4.85875 l 0.9275,-0.14 0.85375,-0.38875 c -0.0338,-0.07 -0.17625,-0.44 -0.36875,-0.95 -0.68125,-1.81375 -2.1175,-5.69375 -3.86375,-9.6175 -0.87375,-1.96375 -1.825,-3.93875 -2.80625,-5.685 -0.98625,-1.74875 -1.98875,-3.26375 -3.0325,-4.3375 l -0.67125,0.655 -0.67125,0.655 c 0.9675,0.98625 2.07625,2.69 3.1425,4.6775 1.605,2.98375 3.15125,6.6125 4.33625,9.59 0.5925,1.48875 1.09625,2.81625 1.475,3.825 0.19,0.505 0.34875,0.92875 0.4725,1.2575 0.12625,0.33125 0.20875,0.5475 0.28,0.7075 l 1.78125,-0.53 c -0.17,-1.09875 -0.60375,-2.75625 -1.10375,-4.9875 -1.05625,-4.72625 -2.28625,-10.0475 -3.93,-14.62625 -0.8225,-2.29 -1.74875,-4.39625 -2.82875,-6.16375 -1.08125,-1.76375 -2.31625,-3.20375 -3.81625,-4.1025 l -0.48,0.805 0.7975,0.49125 c 0.12625,-0.20875 0.1875,-0.39 0.24625,-0.58625 0.16375,-0.5775 0.245,-1.2775 0.24875,-1.89625 l -0.006,-0.26625 -0.001,-0.007 0,-0.0138 -0.54875,0.0412 0.55,0 -0.001,-0.0412 -0.54875,0.0412 0.55,0 -0.36375,0 0.35125,0.0963 0.0125,-0.0963 -0.36375,0 0.35125,0.0963 -0.21505,-0.0588 0.20875,0.08 0.006,-0.0213 -0.215,-0.0588 0.20875,0.08 -0.015,-0.006 0.015,0.007 0,-0.001 -0.015,-0.006 0.015,0.007 c 0.005,-0.0225 0.1275,-0.205 0.33,-0.4875 0.2025,-0.285 0.475,-0.68 0.7925,-1.2275 l 0.4875,-0.835 -0.85125,-0.46125 c -0.20875,-0.11125 -0.39625,-0.12875 -0.53,-0.13 -0.29625,0.006 -0.45875,0.0737 -0.63875,0.1375 -0.51,0.1975 -1.10375,0.53375 -1.8925,0.92625 -0.61125,0.305 -1.08125,0.62625 -1.41375,0.86 -0.16375,0.115 -0.29625,0.20875 -0.375,0.25875 l -0.0612,0.0362 0.1975,0.41 -0.0775,-0.445 -0.12,0.035 0.1975,0.41 -0.0775,-0.445 c -0.335,0.0638 -0.6,0.18375 -0.91875,0.3425 -1.15625,0.59 -2.92375,1.84125 -5.035,3.43625 -3.15125,2.385 -6.98625,5.5075 -10.04375,8.05125 -1.52875,1.2725 -2.86125,2.4 -3.81875,3.21625 -0.4775,0.41 -0.86125,0.74 -1.12875,0.975 -0.135,0.11875 -0.24,0.21125 -0.31875,0.2825 l -0.10125,0.0962 -0.0562,0.0563 -0.0513,0.06 c -0.0263,0.0425 -0.06,0.0512 -0.14625,0.25625 l -0.30375,0.8025 0.77125,0.37375 c 0.205,0.0925 0.32125,0.0913 0.42,0.095 0.19125,-0.005 0.2525,-0.0338 0.31875,-0.05 0.215,-0.07 0.35125,-0.1425 0.58625,-0.25625 0.77625,-0.385 2.25875,-1.19 4.05375,-2.06625 1.78875,-0.875 3.8775,-1.8125 5.7825,-2.4325 0.20375,-0.0687 0.3725,-0.095 0.3875,-0.0912 l 0,-0.24 -0.0662,0.2275 0.0662,0.0125 0,-0.24 -0.0662,0.2275 0.16,-0.54625 -0.4675,0.3125 c 0.08,0.12875 0.23375,0.2175 0.3075,0.23375 l 0.16,-0.54625 -0.4675,0.3125 0.43125,-0.2875 -0.505,0.12875 0.0738,0.15875 0.43125,-0.2875 -0.505,0.12875 0.23125,-0.0588 -0.24,0 0.009,0.0588 0.23125,-0.0588 -0.24,0 c 0.005,0.005 -0.025,0.22125 -0.17,0.56625 -0.1425,0.3475 -0.385,0.83 -0.7475,1.45 -1.03625,1.775 -2.6625,4.76125 -4.05,7.4 -0.69375,1.32 -1.3275,2.55125 -1.7975,3.50125 -0.235,0.475 -0.42875,0.88 -0.5725,1.19875 -0.0725,0.15875 -0.1325,0.29625 -0.18,0.41875 -0.0475,0.1325 -0.085,0.21 -0.1225,0.40875 l -0.1363,0.855 0.84125,0.20375 0.22875,0.0262 c 0.375,-0.0175 0.49125,-0.135 0.595,-0.1925 0.18,-0.12875 0.26375,-0.2275 0.375,-0.35125 0.38625,-0.44375 0.92125,-1.20625 1.5975,-2.20625 1.00625,-1.49 2.2775,-3.4575 3.46625,-5.27 1.18625,-1.80875 2.30125,-3.475 2.93625,-4.2925 0.525,-0.68 0.96,-1.1625 1.27125,-1.45 0.15375,-0.1425 0.27875,-0.23625 0.345,-0.27625 l 0.0375,-0.0225 -0.007,-0.0137 0.005,0.0137 0.002,0 -0.007,-0.0137 0.005,0.0137 -0.13375,-0.41125 0.0325,0.43 0.10125,-0.0188 -0.13375,-0.41125 0.0325,0.43 0.09,-0.009 -0.0313,-0.25375 0.0225,0.25375 0.009,0 -0.0313,-0.25375 0.0225,0.25375 -0.0625,-0.71625 0,0.71875 0.0625,-0.003 -0.0625,-0.71625 0,0.71875 0,-0.88625 -0.5563,0.6863 c 0.275,0.21 0.48625,0.19625 0.55625,0.2 l 0,-0.88625 -0.55625,0.68625 0.57125,-0.70375 -0.85,0.31625 c 0.0463,0.13 0.14875,0.285 0.27875,0.3875 l 0.57125,-0.70375 -0.85,0.31625 0.82,-0.305 -0.875,0 c 0,0.0713 0.006,0.17375 0.055,0.305 l 0.82,-0.305 -0.875,0 0.6425,0 -0.61625,-0.20125 c 0,0.009 -0.0225,0.0412 -0.0275,0.20125 l 0.64375,0 -0.61625,-0.20125 c 0.003,0.007 -0.135,0.31875 -0.40875,0.87125 -0.27625,0.5625 -0.7,1.415 -1.32375,2.68625 -0.81875,1.66875 -2.70875,5.4075 -4.3925,8.85 -0.8425,1.72125 -1.63375,3.37 -2.21875,4.6625 -0.29375,0.64625 -0.535,1.20125 -0.71,1.64375 -0.0875,0.2225 -0.15875,0.415 -0.2125,0.59 -0.0513,0.185 -0.10125,0.3075 -0.11,0.58375 l 0.004,0.0937 0.14375,1.685 1.35375,-1.015 c 0.60875,-0.47625 0.87625,-1.00875 1.3375,-1.65 0.4375,-0.62875 1.2875,-1.97625 2.3675,-3.72375 3.23625,-5.2325 8.44,-13.91625 9.5475,-15.8525 0.535,-0.93875 1.02625,-1.53875 1.42875,-1.86875 0.4075,-0.33125 0.68,-0.405 0.945,-0.41 0.3,-0.004 0.68875,0.13375 1.17375,0.47125 0.48125,0.3325 1.02375,0.84375 1.60125,1.43625 l 0.67125,-0.655" />
  </g>
</svg>
