<?xml version="1.0" encoding="UTF-8" standalone="no"?>
<!-- Created with Inkscape (http://www.inkscape.org/) -->

<svg
   xmlns:dc="http://purl.org/dc/elements/1.1/"
   xmlns:cc="http://creativecommons.org/ns#"
   xmlns:rdf="http://www.w3.org/1999/02/22-rdf-syntax-ns#"
   xmlns:svg="http://www.w3.org/2000/svg"
   xmlns="http://www.w3.org/2000/svg"
   xmlns:sodipodi="http://sodipodi.sourceforge.net/DTD/sodipodi-0.dtd"
   xmlns:inkscape="http://www.inkscape.org/namespaces/inkscape"
   width="210mm"
   height="297mm"
   id="svg4252"
   version="1.1"
   inkscape:version="0.48.1 r9760"
   sodipodi:docname="Nouveau document 5">
  <defs
     id="defs4254" />
  <sodipodi:namedview
     id="base"
     pagecolor="#ffffff"
     bordercolor="#666666"
     borderopacity="1.0"
     inkscape:pageopacity="0.0"
     inkscape:pageshadow="2"
     inkscape:zoom="0.35"
     inkscape:cx="375"
     inkscape:cy="520"
     inkscape:document-units="px"
     inkscape:current-layer="layer1"
     showgrid="false"
     inkscape:window-width="624"
     inkscape:window-height="427"
     inkscape:window-x="738"
     inkscape:window-y="0"
     inkscape:window-maximized="0" />
  <metadata
     id="metadata4257">
    <rdf:RDF>
      <cc:Work
         rdf:about="">
        <dc:format>image/svg+xml</dc:format>
        <dc:type
           rdf:resource="http://purl.org/dc/dcmitype/StillImage" />
        <dc:title></dc:title>
      </cc:Work>
    </rdf:RDF>
  </metadata>
  <g
     inkscape:label="Calque 1"
     inkscape:groupmode="layer"
     id="layer1">
    <path
       inkscape:connector-curvature="0"
       id="path3308"
       style="fill:#2b4834;fill-opacity:1;fill-rule:nonzero;stroke:none"
       d="m 310.93241,667.73337 -0.13,-0.13125 c -0.60875,0.6225 -0.7325,1.98 -0.7425,3.00375 0,0.34375 0.0175,0.64625 0.0475,0.87 0.015,0.11375 0.0313,0.205 0.055,0.28125 l 0.0475,0.11125 c 0.0225,0.0325 0.0675,0.10375 0.18625,0.11 l 0.0163,0 0.0162,-0.003 c 0.2225,-0.0437 0.3675,-0.2125 0.4725,-0.40875 0.31125,-0.59375 0.40125,-1.66625 0.405,-2.55 0,-0.36625 -0.0175,-0.695 -0.0487,-0.94125 -0.0163,-0.1225 -0.0337,-0.22375 -0.0587,-0.3075 l -0.0538,-0.12 c -0.0238,-0.0362 -0.075,-0.10625 -0.18875,-0.11125 l -0.155,0.0675 0.13125,0.12875 -0.13,-0.13125 0.13,0.13125 0.13,0.13 -0.10625,-0.10625 0,0.14875 0.10625,-0.0425 -0.10625,-0.10625 0,0.14875 0,-0.135 -0.12,0.0775 0.12,0.0575 0,-0.135 -0.12,0.0775 0,0.001 c 0.0175,0.0338 0.0525,0.195 0.07,0.40125 0.02,0.21 0.0313,0.47625 0.0313,0.76625 0.001,0.5675 -0.045,1.22875 -0.15375,1.74625 -0.0537,0.2575 -0.12625,0.48 -0.20625,0.63 -0.0825,0.15375 -0.16375,0.21375 -0.215,0.22 l 0.0337,0.18125 0,-0.18375 0,0.14125 0.12625,-0.0788 -0.12625,-0.0625 0,0.14125 0.12625,-0.0788 -0.002,0.001 0.002,-0.001 0,0 -0.002,0.001 0.002,-0.001 c -0.015,-0.0287 -0.0462,-0.17375 -0.0637,-0.36125 -0.0188,-0.19125 -0.0313,-0.43625 -0.0313,-0.70625 -0.01,-0.98 0.1825,-2.32375 0.63375,-2.74125 l 0.001,-0.001 -0.13,-0.13 z m 2.57125,0.47375 0.1725,-0.0663 -0.1975,-0.135 -0.16375,0.0563 c -0.14125,0.0937 -0.31375,0.27875 -0.53125,0.54125 -0.32125,0.39125 -0.71,0.9425 -1.0225,1.51125 -0.3125,0.57 -0.55375,1.1475 -0.55625,1.63625 0,0.12875 0.0175,0.25375 0.0613,0.36875 l 0.23125,0.16375 c 0.15375,-0.0113 0.22,-0.0838 0.31875,-0.16625 0.315,-0.29625 0.77125,-0.96875 1.17,-1.69875 0.395,-0.73375 0.72625,-1.49 0.7325,-2.01 l -0.0425,-0.26625 -0.1725,0.065 -0.1725,0.0637 0.02,0.1375 c 0.007,0.42 -0.39875,1.355 -0.85625,2.1325 -0.22875,0.3925 -0.46875,0.75375 -0.67,1.01125 -0.1,0.12875 -0.19125,0.23125 -0.26,0.29625 l -0.08,0.0637 -0.0125,0.008 0.025,0.0688 0,-0.0725 -0.025,0.004 0.025,0.0688 0,-0.0725 0,0.11625 0.11375,-0.0425 -0.11375,-0.0737 0,0.11625 0.11375,-0.0425 -0.0387,-0.23875 c -0.007,-0.52 0.435,-1.41125 0.92125,-2.1325 0.24125,-0.3625 0.49125,-0.69 0.6925,-0.92125 0.1,-0.11625 0.18875,-0.20875 0.255,-0.26625 l 0.0725,-0.0588 0.007,-0.005 -0.0425,-0.1025 0,0.11 0.0425,-0.008 -0.0425,-0.1025 0,0.11 0,-0.15875 -0.1475,0.0562 0.1475,0.1025 0,-0.15875 -0.1475,0.0562 0.1725,-0.065 z m -6.56125,10.33875 0.0138,-0.18375 -0.0462,-0.003 c -0.26,0.005 -0.5225,0.135 -0.80375,0.315 -0.4175,0.2725 -0.86375,0.67625 -1.21125,1.0475 -0.175,0.185 -0.32375,0.3625 -0.4325,0.51375 -0.1075,0.16125 -0.185,0.25875 -0.1975,0.42375 l 0.0825,0.18125 0.1175,-0.14125 -0.12,0.14 0.1775,0.0613 c 0.11625,-0.004 0.20625,-0.045 0.31625,-0.10125 0.3725,-0.1975 0.9275,-0.64875 1.40875,-1.0925 0.24,-0.2225 0.4575,-0.44 0.62,-0.62375 l 0.19875,-0.25 c 0.0487,-0.08 0.0913,-0.13125 0.0987,-0.25 l -0.0625,-0.1575 -0.14625,-0.0638 -0.0138,0.18375 -0.0138,0.18375 0.0113,-0.14 -0.0975,0.0975 0.0863,0.0425 0.0113,-0.14 -0.0975,0.0975 0.1025,-0.10375 -0.1475,0 0.045,0.10375 0.1025,-0.10375 -0.1475,0 0.08,0 -0.0775,-0.025 -0.002,0.025 0.08,0 -0.0775,-0.025 c 0.002,0.0188 -0.13625,0.215 -0.3325,0.415 -0.295,0.31375 -0.7325,0.715 -1.13,1.0325 -0.1975,0.15875 -0.38625,0.2975 -0.54,0.3925 l -0.19375,0.1075 -0.0625,0.0225 -0.0188,0.005 0,0.0987 0.0613,-0.0725 -0.0613,-0.0263 0,0.0987 0.0613,-0.0725 -0.001,-0.002 -0.085,0.1025 0.13625,0 -0.0512,-0.1025 -0.085,0.1025 0.13625,0 -0.0412,0 0.04,0.01 0.001,-0.01 -0.0413,0 0.04,0.01 c 0.002,-0.03 0.115,-0.22125 0.28625,-0.42125 0.2575,-0.31 0.64875,-0.70125 1.03375,-1.0075 0.38125,-0.31 0.7825,-0.5225 0.9575,-0.5125 l 0.0187,0.001 0.0138,-0.18375 z m -48.9175,-14.87 0.15875,-0.0937 -0.0187,0.0113 0.02,-0.008 -0.001,-0.004 -0.0187,0.0113 0.02,-0.008 -0.1075,0.0388 0.11375,0 -0.006,-0.0388 -0.1075,0.0388 0.11375,0 -0.14375,0 0.0675,0.1275 0.0763,-0.1275 -0.14375,0 0.0675,0.1275 -0.0425,-0.0812 0.015,0.0912 0.0275,-0.01 -0.0425,-0.0812 0.015,0.0912 0.005,0 c 0.09,-0.006 0.48125,0.1125 0.91875,0.3 0.44375,0.18625 0.96625,0.44 1.425,0.695 1.1925,0.66375 4.31125,1.86875 5.30625,2.0725 2.39875,0.47875 8.1075,3.3825 11.77625,7.22375 l 0.002,0.001 0.001,0.001 0.30625,0.125 c 0.1975,-0.005 0.3675,-0.095 0.57625,-0.20625 0.615,-0.33875 1.52875,-0.9675 2.9525,-0.96875 0.27,0 0.5575,0.0225 0.86625,0.075 l 0.007,0.001 0.006,0.001 c 0.32125,0.0288 1.805,0.38625 3.56625,0.73125 1.76875,0.3475 3.83875,0.68625 5.43,0.6875 0.47125,-0.001 0.90125,-0.03 1.2725,-0.10125 l 0.035,-0.006 0.03,-0.0188 c 0.53625,-0.3438 0.77375,-0.93755 1.00375,-1.5038 0.22625,-0.57125 0.44625,-1.12 0.84375,-1.4325 l 0.0713,-0.0562 -0.001,-0.09 c -0.005,-0.34375 -0.1375,-0.9775 -0.2675,-1.60125 -0.13125,-0.6125 -0.26125,-1.225 -0.26125,-1.38375 l 0,-0.0437 c 0,-0.61625 0.27125,-1.07625 0.59875,-1.39375 0.3225,-0.31625 0.725,-0.4725 0.86875,-0.465 l 0.0288,0.001 0.0375,-0.18 -0.0462,0.17875 c 0.23875,0.0637 0.395,0.03 0.77375,0.42875 0.36875,0.40125 0.8925,1.25375 1.61875,3.0325 l 0.008,0.0163 0.009,0.015 c 0.14125,0.21875 0.30625,0.3975 0.47125,0.5275 0.1675,0.12875 0.33,0.21625 0.51125,0.21875 l 0.2963,-0.135 c 0.0738,-0.0925 0.0975,-0.20625 0.0987,-0.32875 l -0.006,-0.10375 -0.001,-0.02 -0.006,-0.0188 c -0.40625,-1.255 -0.7475,-2.55125 -0.74625,-3.52875 0,-0.48 0.0825,-0.8775 0.2575,-1.155 0.17625,-0.2775 0.43375,-0.455 0.8625,-0.51875 l -0.025,-0.1825 0,0.185 0.27875,-0.0513 c 0.10625,-0.0225 0.23375,-0.0437 0.3725,-0.0437 0.28875,0.002 0.615,0.0812 0.935,0.45625 0.31875,0.3775 0.625,1.08 0.77875,2.3275 l 0,0.005 c 0.0788,0.52 0.06,2.08875 0.0925,2.6625 l 0,0.006 0.001,0.006 0.1575,0.215 c 0.1225,0.0675 0.265,0.0937 0.4625,0.125 1.345,0.1975 5.2025,0.21875 9.0025,2.70375 l 0.002,0.001 0.004,0.003 c 0.15,0.0875 0.5425,0.43125 0.8725,0.89625 0.335,0.46625 0.615,1.05875 0.61375,1.66 -0.002,0.55625 -0.225,1.1325 -0.90625,1.7 -0.725,0.605 -2.7575,1.7375 -4.6425,2.74 -0.94375,0.5025 -1.855,0.97625 -2.55875,1.34375 -0.7075,0.37125 -1.1875,0.62125 -1.3275,0.71875 -0.245,0.1825 -0.38625,0.56375 -0.395,1.01625 0,0.24625 0.0512,0.5125 0.185,0.765 0.21625,0.4075 0.4025,0.57625 0.67125,0.81875 0.26875,0.245 0.6475,0.59375 1.32875,1.43625 0.5425,0.6625 0.7975,1.19125 0.79,1.45875 -0.004,0.12875 -0.035,0.185 -0.11625,0.245 -0.0838,0.0588 -0.2475,0.10625 -0.49375,0.105 -0.27125,0 -0.63625,-0.0538 -1.09,-0.17 -0.2925,-0.0725 -0.84125,-0.30875 -1.41625,-0.52625 -0.58,-0.21625 -1.18875,-0.42 -1.68,-0.4225 -0.135,0 -0.2625,0.0163 -0.38125,0.0575 l -0.16375,0.23625 c 0.005,0.11875 0.05,0.19625 0.105,0.29625 0.19875,0.335 0.64875,0.84875 1.08375,1.375 0.43375,0.51875 0.85125,1.0625 0.9425,1.3325 l 0.001,0.002 c 0.11625,0.31 0.16375,0.5525 0.16375,0.72875 -0.004,0.22625 -0.0663,0.3325 -0.16375,0.41 -0.10125,0.0775 -0.2725,0.12375 -0.49875,0.1225 -0.7925,0.006 -2.1025,-0.55125 -2.75375,-0.865 -0.59,-0.28125 -1.4075,-0.7275 -2.17,-1.10875 -0.77125,-0.38125 -1.45875,-0.7025 -1.9025,-0.7325 l -0.0425,-0.001 -0.04,0.0163 c -0.3425,0.14875 -1.1775,0.3225 -2.3175,0.4475 -1.1425,0.1275 -2.60125,0.21375 -4.23625,0.21375 -2.8275,0 -6.1825,-0.25875 -9.345,-1.01 l -0.0462,-0.01 -0.045,0.0113 c -0.12,0.0387 -0.20625,0.11 -0.35375,0.22125 -0.48875,0.385 -1.3975,1.2425 -2.22,2.025 -0.41,0.39 -0.7975,0.76 -1.095,1.04 -0.14875,0.14 -0.275,0.25625 -0.37,0.34125 l -0.11625,0.0987 -0.0337,0.0275 -0.007,0.005 0.02,0.0325 -0.0175,-0.0338 -0.002,0.001 0.02,0.0325 -0.0175,-0.0338 0.085,0.1625 -0.055,-0.175 c -0.18875,0.06 -0.34,0.085 -0.4525,0.0837 -0.175,-0.002 -0.245,-0.0462 -0.29875,-0.11375 -0.055,-0.07 -0.0913,-0.2 -0.0913,-0.38375 -0.006,-0.81625 0.70375,-2.37375 0.92875,-3.225 l 0.0412,-0.2675 -0.0662,-0.21875 -0.2175,-0.1025 c -0.15125,0.006 -0.2525,0.0713 -0.3775,0.13875 -0.12,0.07 -0.245,0.1525 -0.35875,0.21625 -0.1025,0.0638 -0.84125,0.36125 -1.48625,0.35625 -0.22875,0 -0.445,-0.035 -0.6225,-0.11625 l -0.0512,-0.0937 c -0.005,-0.11875 0.0988,-0.3775 0.27875,-0.6625 0.26875,-0.43125 0.6875,-0.94625 1.06125,-1.3825 0.37625,-0.44 0.69625,-0.78625 0.80625,-0.94625 l -0.1525,-0.10375 0.14375,0.115 c 0.10375,-0.14625 0.1,-0.29125 0.10625,-0.48875 -0.001,-0.48125 -0.105,-1.27875 -0.105,-2.33 0,-1.84625 0.31875,-4.44375 2.085,-7.24625 l 0.0575,-0.0925 -0.0525,-0.095 c -0.11875,-0.2025 -0.43625,-0.5175 -0.93,-0.9675 -1.47,-1.3325 -4.4025,-3.6375 -6.74625,-4.945 -1.4725,-0.83875 -3.97,-2.05 -6.1275,-3.08 -1.07875,-0.515 -2.07125,-0.985 -2.805,-1.33875 -0.3675,-0.1775 -0.67,-0.32625 -0.88375,-0.43625 l -0.2525,-0.13375 -0.065,-0.0388 -0.0125,-0.009 -0.055,0.07 0.0675,-0.0575 -0.0125,-0.0125 -0.055,0.07 0.0675,-0.0575 -0.015,-0.0175 -0.0175,-0.0125 c -0.1225,-0.0862 -0.33125,-0.23625 -0.50625,-0.38125 l -0.215,-0.2 -0.05,-0.0663 -0.005,-0.009 -0.0712,0.025 0.075,0 -0.004,-0.025 -0.0712,0.025 0.075,0 -0.12125,0 0.0638,0.10375 0.0575,-0.10375 -0.12125,0 0.0638,0.10375 -0.0263,-0.0412 0.0113,0.0488 0.015,-0.008 -0.0263,-0.0412 0.0113,0.0488 0.0263,-0.003 -0.008,-0.18375 -0.18375,0 0.18375,0 0.15875,-0.0937 -0.15875,0.0937 0.185,0 0,-0.19125 -0.19125,0.008 -0.19,0.0488 -0.11875,0.21 c 0.01,0.1475 0.0788,0.21 0.145,0.295 0.21,0.23125 0.59625,0.5025 0.7825,0.63625 l 0.1075,-0.15 -0.14,0.12125 0.1625,0.11375 c 0.9675,0.54875 7.3375,3.43125 10.06875,4.98875 1.535,0.855 3.35,2.16375 4.8175,3.33 0.73375,0.5825 1.38125,1.13 1.86375,1.5675 0.47875,0.43 0.8075,0.77875 0.85375,0.87375 l 0.16125,-0.09 -0.15625,-0.0975 c -1.81125,2.87375 -2.14125,5.55375 -2.14125,7.4425 0,1.07125 0.10625,1.89625 0.105,2.33 l -0.0112,0.20375 -0.0125,0.05 -0.004,0.009 0.015,0.008 -0.0125,-0.01 -0.002,0.002 0.015,0.008 -0.0125,-0.01 -0.005,0.006 -0.004,0.005 c -0.095,0.1425 -0.6525,0.7425 -1.16875,1.3775 -0.26,0.32 -0.51375,0.65375 -0.70625,0.96375 -0.19,0.3125 -0.33,0.58875 -0.335,0.85625 -0.008,0.16625 0.0913,0.3575 0.2675,0.43 0.2425,0.11 0.51,0.14875 0.775,0.14875 0.755,-0.005 1.485,-0.30375 1.66875,-0.405 0.1275,-0.0725 0.25375,-0.15625 0.36125,-0.2175 l 0.1375,-0.0712 0.0437,-0.0163 0.0113,-0.003 0,-0.095 -0.0725,0.0562 0.0725,0.0387 0,-0.095 -0.0725,0.0562 0.055,-0.0425 -0.0675,0.0175 0.0125,0.025 0.055,-0.0425 -0.0675,0.0175 0.001,0.0175 -0.03,0.175 c -0.20375,0.80125 -0.93375,2.34625 -0.94,3.3175 0,0.22625 0.0387,0.4375 0.16625,0.60625 0.12625,0.17125 0.3425,0.2625 0.59125,0.26 0.16375,0 0.34875,-0.0337 0.56375,-0.10125 l 0.015,-0.005 0.0138,-0.008 c 0.08,-0.045 0.145,-0.1075 0.27375,-0.22125 0.4275,-0.385 1.315,-1.24625 2.1425,-2.025 0.41375,-0.38875 0.8125,-0.75625 1.1275,-1.03125 0.15875,-0.1375 0.295,-0.25125 0.40125,-0.3325 l 0.13,-0.0925 0.0387,-0.0225 0.009,-0.004 -0.009,-0.02 0.006,0.0213 0.002,-0.001 -0.009,-0.02 0.006,0.0213 -0.0475,-0.1775 -0.0425,0.17875 c 3.20125,0.75875 6.58,1.01875 9.43,1.01875 1.64875,0 3.11875,-0.0862 4.2775,-0.215 1.16125,-0.13125 1.9975,-0.295 2.42125,-0.475 l -0.0725,-0.16875 -0.01,0.18375 c 0.2925,0.009 1.00875,0.31375 1.7575,0.6925 0.75625,0.3775 1.57125,0.82375 2.17625,1.1125 0.67625,0.3175 1.9775,0.89625 2.9125,0.90125 0.27,-0.001 0.52125,-0.0488 0.72,-0.1975 0.20125,-0.1475 0.31375,-0.4 0.31,-0.70375 0,-0.24 -0.06,-0.52 -0.18625,-0.8575 l -0.1725,0.065 0.17395,-0.0624 c -0.165,-0.44125 -0.69625,-1.06625 -1.19375,-1.66875 -0.24875,-0.2975 -0.4875,-0.58125 -0.66125,-0.81 -0.0863,-0.11375 -0.15625,-0.215 -0.20125,-0.29125 l -0.0462,-0.0912 -0.007,-0.0225 -0.0175,0.004 0.0175,0 0,-0.004 -0.0175,0.004 0.0175,0 -0.11375,0 0.0937,0.06 0.02,-0.06 -0.11375,0 0.0937,0.0599 -0.10375,-0.0662 0.0412,0.1175 0.0625,-0.0512 -0.10375,-0.0662 0.0412,0.1175 0.25875,-0.0362 c 0.38875,-0.002 0.985,0.18375 1.55,0.39875 0.56875,0.21375 1.105,0.44875 1.455,0.53875 0.4725,0.12 0.86375,0.18 1.18125,0.18125 0.2875,-0.001 0.52125,-0.0475 0.70125,-0.16875 0.18125,-0.12 0.28125,-0.33125 0.27625,-0.55 -0.007,-0.4525 -0.315,-0.99375 -0.87125,-1.69 -0.69,-0.855 -1.09375,-1.22875 -1.3675,-1.4775 -0.275,-0.2525 -0.3925,-0.34875 -0.59375,-0.72 -0.10125,-0.19 -0.1425,-0.39625 -0.1425,-0.59125 -0.009,-0.355 0.16125,-0.6775 0.2375,-0.715 0.0825,-0.0587 0.59,-0.33 1.28875,-0.69375 2.1125,-1.10625 6.08625,-3.1525 7.265,-4.12625 0.75,-0.6175 1.0425,-1.32125 1.04,-1.98375 -0.001,-0.71625 -0.3225,-1.36875 -0.6825,-1.87375 -0.365,-0.5075 -0.76,-0.8625 -0.9825,-0.99875 l -0.095,0.1575 0.1,-0.15375 c -2.37125,-1.55125 -4.76875,-2.16375 -6.575,-2.45125 -0.90375,-0.1425 -1.66,-0.205 -2.18875,-0.26125 -0.2625,-0.0275 -0.47,-0.055 -0.59875,-0.0862 l -0.12125,-0.04 -0.004,-0.003 -0.055,0.07 0.0838,-0.0113 -0.0288,-0.0588 -0.055,0.07 0.0837,-0.0113 -0.1825,0.0237 0.18375,-0.01 c -0.0337,-0.55125 -0.01,-2.1075 -0.0962,-2.695 l -0.18125,0.0263 0.1825,-0.0225 c -0.15875,-1.2875 -0.475,-2.0575 -0.8625,-2.51875 -0.38625,-0.46375 -0.8525,-0.59125 -1.21625,-0.58875 -0.17625,0 -0.33,0.0263 -0.44875,0.0512 l -0.1475,0.0337 -0.045,0.009 -0.01,0.001 -0.0138,0 -0.0125,0.003 c -0.51375,0.0688 -0.89625,0.31875 -1.12375,0.6875 -0.2275,0.36625 -0.3125,0.83 -0.3125,1.35 0.001,1.05875 0.35375,2.3725 0.76375,3.6425 l 0.175,-0.0575 -0.18375,0.0188 0.004,0.0675 -0.0163,0.0975 0.007,0.006 -0.004,-0.009 -0.004,0.002 0.007,0.006 -0.004,-0.009 -0.0138,0.001 c -0.0375,0.004 -0.1575,-0.0387 -0.28375,-0.14 -0.12875,-0.10125 -0.26875,-0.2525 -0.39,-0.43875 l -0.15375,0.1 0.17,-0.07 c -0.73625,-1.79875 -1.26625,-2.68 -1.68875,-3.1425 -0.4125,-0.46625 -0.78375,-0.49625 -0.95375,-0.53625 l -0.004,-0.001 -0.004,-0.001 -0.10375,-0.01 c -0.31,0.006 -0.7325,0.2 -1.12375,0.56875 -0.38375,0.36875 -0.7125,0.92875 -0.7125,1.65875 l 0.001,0.05 c 0.006,0.255 0.1375,0.83125 0.26875,1.45375 0.13,0.61375 0.25875,1.265 0.26,1.52875 l 0.1838,-0.002 -0.115,-0.14375 c -0.50375,0.405 -0.72875,1.02125 -0.9575,1.585 -0.225,0.56875 -0.4525,1.0775 -0.85875,1.32875 l 0.0988,0.15625 -0.0337,-0.18125 c -0.34,0.065 -0.75,0.0937 -1.205,0.0937 -1.54125,0 -3.60125,-0.33375 -5.36,-0.68 -1.765,-0.345 -3.20375,-0.69625 -3.60125,-0.73625 l -0.0175,0.1825 0.0313,-0.18125 c -0.32875,-0.0563 -0.63875,-0.0813 -0.92875,-0.0813 -1.0225,0 -1.8125,0.3075 -2.39875,0.60875 -0.2925,0.15 -0.53625,0.29875 -0.73125,0.40625 -0.1925,0.10875 -0.34375,0.165 -0.39875,0.16 l -0.0475,-0.0163 -0.12875,0.13 0.1325,-0.1275 c -3.7475,-3.9075 -9.44625,-6.81375 -11.96875,-7.33 -0.90625,-0.17875 -4.075,-1.4 -5.20125,-2.0325 -0.47125,-0.26375 -1.0025,-0.52 -1.46125,-0.7125 -0.46625,-0.1925 -0.825,-0.32375 -1.06125,-0.33 l -0.14875,0.0325 -0.12125,0.19875 0.045,0.145 0.3425,0.5775 0,-0.67125 -0.185,0 z m 46.21125,9.6425 -0.18375,0 c 0,0.2175 -0.0825,0.42625 -0.21375,0.575 -0.13125,0.14875 -0.30375,0.2375 -0.4975,0.2375 -0.1925,0 -0.3775,-0.0912 -0.5175,-0.24125 -0.14,-0.15125 -0.2275,-0.3575 -0.2275,-0.57125 0.001,-0.43125 0.33375,-0.76875 0.72875,-0.77 0.395,0.001 0.72625,0.33875 0.7275,0.77 l 0.3675,0 c -0.001,-0.6225 -0.48375,-1.13625 -1.095,-1.1375 -0.61125,0.001 -1.095,0.515 -1.09625,1.1375 0.002,0.62375 0.49125,1.17375 1.1125,1.18 0.62625,-0.005 1.07875,-0.56625 1.07875,-1.18 l -0.18375,0 z m -2.3475,2.14375 -0.0788,0.1675 c 0.22375,0.105 0.46375,0.1425 0.695,0.1425 0.35,0 0.6825,-0.0862 0.935,-0.18125 0.12625,-0.0475 0.2325,-0.0987 0.3125,-0.14625 l 0.1075,-0.075 c 0.0263,-0.0338 0.075,-0.045 0.09,-0.1775 l -0.085,-0.16125 -0.1025,-0.0375 c -0.8775,-0.0975 -1.35875,-0.345 -1.66,-0.6475 -0.3025,-0.30375 -0.44125,-0.6875 -0.57875,-1.1025 l -0.0125,-0.0388 -0.03,-0.03 -0.18125,-0.0838 -0.20625,0.12 c -0.0863,0.1475 -0.0987,0.3175 -0.10375,0.55125 0.009,0.5825 0.1675,1.48125 0.80875,1.86125 l 0.006,0.004 0.005,0.003 0.0788,-0.1675 0.09,-0.16 c -0.42125,-0.215 -0.62875,-1.025 -0.62,-1.54 0,-0.13125 0.0125,-0.2425 0.0288,-0.305 l 0.015,-0.045 -0.1025,-0.0675 0,0.115 0.1025,-0.0475 -0.1025,-0.0675 0,0.115 0,-0.11 -0.0825,0.08 0.0825,0.03 0,-0.11 -0.0825,0.08 0.1325,-0.1275 -0.175,0.0575 c 0.13875,0.415 0.2925,0.86875 0.66625,1.245 0.37375,0.3775 0.9525,0.6525 1.88125,0.755 l 0.0174,-0.1463 -0.0838,0.12125 0.0675,0.025 0.0163,-0.14625 -0.0838,0.12125 0.0975,-0.1425 -0.17125,0 0.0738,0.1425 0.0975,-0.1425 -0.17125,0 0.1525,0 -0.125,-0.09 -0.0275,0.09 0.1525,0 -0.125,-0.09 0.0437,0.0313 -0.0362,-0.0412 -0.007,0.01 0.0437,0.0313 -0.0362,-0.0412 c -0.02,0.0225 -0.185,0.1175 -0.39,0.18375 -0.20875,0.0712 -0.46875,0.12875 -0.7225,0.12875 -0.19125,0 -0.37625,-0.0325 -0.5375,-0.10875 l -0.0787,0.16625 0.09,-0.16 -0.09,0.16 z m 4.51625,1.96 0.0363,-0.18 -0.19125,-0.0175 c -0.58,0.006 -1.41375,0.37375 -2.145,0.76625 -0.3625,0.1975 -0.69375,0.40125 -0.93875,0.57625 -0.1225,0.0875 -0.2225,0.1675 -0.3,0.24 l -0.0987,0.10875 -0.0612,0.16875 0.0788,0.16625 0.11625,-0.14375 -0.12,0.14125 0.20875,0.065 c 0.21125,-0.004 0.49375,-0.1 0.8575,-0.24 0.53625,-0.21 1.205,-0.5275 1.74625,-0.81875 0.27,-0.145 0.5075,-0.28375 0.6825,-0.40125 l 0.2175,-0.165 c 0.0525,-0.0587 0.115,-0.0825 0.1325,-0.23375 l -0.07,-0.1575 -0.1125,-0.055 -0.0388,0.18 -0.0375,0.18 0.0263,-0.12375 -0.0838,0.0937 0.0575,0.03 0.0263,-0.12375 -0.0838,0.0937 0.105,-0.1175 -0.1575,0 0.0525,0.1175 0.105,-0.1175 -0.1575,0 0.1275,0 -0.1125,-0.0625 -0.015,0.0625 0.1275,0 -0.1125,-0.0625 0.001,0.001 -0.002,-0.001 0.001,0 0.001,0.001 -0.002,-0.001 c -0.0375,0.0475 -0.2575,0.20375 -0.54,0.365 -0.43,0.2475 -1.03,0.55 -1.57,0.78625 -0.5325,0.23875 -1.04125,0.41 -1.17125,0.4025 l -0.01,0 -0.0238,0.0962 0.0638,-0.075 -0.04,-0.0213 -0.0238,0.0962 0.0638,-0.075 -0.001,-0.001 -0.001,-0.001 -0.0975,0.12 0.15375,0 -0.0562,-0.12 -0.0975,0.12 0.15375,0 -0.1175,0 0.10875,0.0475 0.009,-0.0475 -0.1175,0 0.10875,0.0475 0.001,0 c 0.0275,-0.045 0.2075,-0.19875 0.45,-0.35875 0.725,-0.495 2.12375,-1.1925 2.73375,-1.18125 l 0.1188,0.0113 0.0362,-0.18125" />
  </g>
</svg>
