<?xml version="1.0" encoding="utf-8"?>
<!-- Generator: Adobe Illustrator 15.0.2, SVG Export Plug-In . SVG Version: 6.00 Build 0)  -->
<!DOCTYPE svg PUBLIC "-//W3C//DTD SVG 1.1//EN" "http://www.w3.org/Graphics/SVG/1.1/DTD/svg11.dtd">
<svg version="1.1" id="Ebene_1" xmlns="http://www.w3.org/2000/svg" xmlns:xlink="http://www.w3.org/1999/xlink" x="0px" y="0px"
	 width="841.89px" height="1190.55px" viewBox="0 0 841.89 1190.55" enable-background="new 0 0 841.89 1190.55"
	 xml:space="preserve">
<linearGradient id="SVGID_1_" gradientUnits="userSpaceOnUse" x1="581.502" y1="1222.1807" x2="268.8925" y2="-31.6271">
	<stop  offset="0" style="stop-color:#FFFFFF"/>
	<stop  offset="1" style="stop-color:#E5E4E4"/>
</linearGradient>
<rect x="28.347" y="28.347" display="none" fill="url(#SVGID_1_)" width="793.7" height="1133.858"/>
<rect x="28.347" y="28.347" fill="#C4C4C4" width="793.7" height="1133.858"/>
<g>
</g>
<path d="M171.442,219.555V334.77h115.214V219.555H171.442z M336.034,219.555v32.918h16.459v-32.918H336.034z M368.952,219.555
	v16.459h16.46v-16.459H368.952z M434.79,219.555v16.459h-32.919v32.918h-16.459v-16.459h-16.46v32.918h16.46v16.459h-32.919v16.459
	h-16.459v-32.918h16.459v-16.459h-49.377v16.459h16.459v16.459h-16.459v32.918h16.459v16.459h-49.378v16.459h16.459v16.459H204.36
	v-16.459h49.378v-16.459h-82.296v16.459h16.459v16.459h-16.459v16.459h32.918v32.918h16.459v32.918h-32.918v-49.377h-16.459v49.377
	h16.459v16.459h-16.459v82.296h16.459v-49.377h16.459v16.459h16.459v16.459h32.918V532.28H220.82v-32.918h-32.918v-16.459h32.918
	v-16.459h16.459v-32.918H220.82v-16.459h32.918v-16.459h32.918v16.459h-16.459v16.459h16.459v16.459h-16.459v16.459h16.459v16.459
	h-32.918v16.459h32.918v16.459h-16.459v16.459h16.459v16.459h-16.459v16.459h16.459v-16.459h16.459v49.378h16.459v-16.46h32.918
	v16.46h-16.459v32.918h-16.459v-16.459h-16.459v82.297h49.377v-49.379h-16.459v-16.459h32.918v16.459h16.46v16.459h-16.46v32.92
	h16.46v-16.46h16.459v16.46h16.46v-16.46h-16.46v-16.46h32.919v-16.459h82.296v-16.459h65.837v16.459h-16.459v16.459h16.459v16.46
	h16.459v16.46h16.46v-16.46h16.459v-32.919h16.459v-32.918h-16.459v-16.459h-16.459v-16.46h32.918v-32.918h-16.459V532.28h-16.459
	v-49.377h16.459v-16.459h-16.459v-49.377h16.459v-16.459h-16.459v16.459h-32.919v-49.377h16.459v-16.459h-16.459v16.459h-16.459
	v-16.459h-16.459v16.459h-16.459v-16.459h-32.919V334.77h16.459V318.31h-16.459v16.459h-16.459v-32.918h32.918v-16.459h-32.918
	v16.459h-16.459v49.377h-16.46v-82.296h-32.918v-16.459h16.459v-16.459h16.459v16.459h16.46v-16.459h32.918v16.459h-16.459v16.459
	h32.918v-32.918h-16.459v-16.459H434.79z M533.546,219.555V334.77H648.76V219.555H533.546z"/>
<path fill="#FFFFFF" d="M187.901,236.014v82.296h82.296v-82.296H187.901z"/>
<path d="M303.116,236.014v16.459h16.459v-16.459H303.116z"/>
<path fill="#FFFFFF" d="M550.005,236.014v82.296h82.296v-82.296H550.005z"/>
<path d="M204.36,252.473v49.378h49.378v-49.378H204.36z M566.464,252.473v49.378h49.378v-49.378H566.464z"/>
<path fill="#FFFFFF" d="M401.871,285.392v16.459h32.919v-16.459H401.871z M319.575,318.31v16.459h16.459V318.31H319.575z
	 M352.493,318.31v16.459h16.459v32.918h-16.459v-16.459h-16.459v16.459h-16.459v16.459h-16.459v49.377h16.459v16.459h-16.459v16.459
	h49.377v-16.459h32.919v16.459h-16.46v32.918h-32.918v-16.459h-16.459v16.459h-16.459v-16.459h-16.459v16.459h16.459v16.459h-16.459
	v16.459h16.459v-16.459h16.459v49.377h32.918v16.459h32.919v16.46h-16.46v32.918h49.379v-16.459h16.459v16.459h16.459v-16.459h16.46
	v16.459h32.918v-16.459h-16.459v-16.459h-16.459v-32.919h16.459v16.459h16.459v-65.836h32.919v16.459h-16.46v16.459h16.46V532.28
	h32.918v16.459h16.459v16.459h16.459v-16.459h16.46V532.28h-32.919v-16.459h-49.377v-16.459h65.836v-16.459h16.46v-16.459h-16.46
	v-32.918h-16.459v-16.459h-16.459v-32.918h-49.378v32.918h-16.459v16.459h49.378v-16.459h16.459v16.459h16.459v16.459h-16.459
	v32.918h-65.837v32.918h-16.459v-32.918h-16.459v-16.459h-16.46v-16.459h32.919v16.459h49.378v-16.459h-49.378v-49.377h16.459
	v-16.459h-32.918v16.459h-16.46v-16.459H434.79v-16.459h16.459v-16.459H434.79v16.459h-49.378v-16.459h32.919V334.77h16.459V318.31
	h-16.459v16.459h-16.46V318.31h-16.459v16.459h-16.46V318.31H352.493z M467.709,351.229v16.459h32.918v-16.459H467.709z"/>
<path d="M615.842,351.229v16.459h16.459v16.459h16.459v-16.459h-16.459v-16.459H615.842z M336.034,367.688v32.918h16.459v-32.918
	H336.034z M368.952,367.688v16.459h16.46v16.459h-16.46v32.918h65.838v16.459h-32.919v32.918h16.46v-16.459h16.459v16.459h16.459
	v16.459H434.79v16.459h-32.919v-16.459h-32.919v16.459h16.46v16.459h-16.46v32.918h16.46v-16.459h16.459v16.459h16.46v-16.459
	h-16.46V532.28h32.919v16.459h16.459v16.459H434.79v16.459h-16.459v16.46h-16.46v16.459h16.46v-16.459h32.918v-32.919h16.46v-16.459
	h16.459V532.28h-16.459v16.459h-16.46v-49.378h16.46v-16.459h-16.46v-16.459H434.79v-16.459h16.459v-16.459h16.46v-16.459h-16.46
	v-16.459H434.79v-16.459h-16.459v16.459h-16.46v-16.459h-16.459v-16.459H368.952z"/>
<path fill="#FFFFFF" d="M385.412,400.606v16.459h16.459v-16.459H385.412z M418.331,400.606v16.459h16.459v16.459h16.459v-16.459
	H434.79v-16.459H418.331z"/>
<path d="M319.575,417.065v16.459h32.918v-16.459H319.575z M632.301,433.524v16.459h16.459v-16.459H632.301z M632.301,499.361v16.459
	h16.459v-16.459H632.301z"/>
<path fill="#FFFFFF" d="M517.086,565.198v49.378h49.378v-49.378H517.086z"/>
<path d="M171.442,581.657v115.216h115.214V581.657H171.442z M533.546,581.657v16.46h16.459v-16.46H533.546z"/>
<path fill="#FFFFFF" d="M187.901,598.117v82.296h82.296v-82.296H187.901z M599.382,598.117v16.459h-16.459v16.459h16.459v49.378
	h16.46v-49.378h-16.46v-16.459h16.46v-16.459H599.382z"/>
<path d="M204.36,614.576v49.377h49.378v-49.377H204.36z M533.546,647.494v16.459h16.459v-16.459H533.546z"/>
<path fill="#FFFFFF" d="M319.575,663.953v16.46h16.459v-16.46H319.575z"/>
<path d="M467.709,663.953v16.46H434.79v16.46h65.837v-16.46h16.459v-16.46H467.709z M550.005,680.413v16.46h16.459v-16.46H550.005z"
	/>
<g>
	<g>
		<g enable-background="new    ">
			<g>
				<polygon fill="#848484" points="607.758,866.147 583.498,853.953 583.795,828.697 608.055,840.893 				"/>
			</g>
			<g>
				<polygon fill="#B4B4B4" points="608.352,815.646 584.092,803.45 607.039,800.226 631.299,812.42 				"/>
			</g>
			<g>
				<polygon fill="#848484" points="561.559,897.847 537.298,885.651 537.595,860.404 561.854,872.6 				"/>
			</g>
			<g>
				<polygon fill="#B4B4B4" points="561.854,872.6 537.595,860.404 583.498,853.953 607.758,866.147 				"/>
			</g>
			<g>
				<polygon fill="#848484" points="585.107,844.118 560.847,831.923 561.144,806.676 585.403,818.871 				"/>
			</g>
			<g>
				<polygon fill="#B4B4B4" points="562.744,796.842 538.484,784.647 584.388,778.195 608.648,790.391 				"/>
			</g>
			<g>
				<polygon fill="#848484" points="562.448,822.098 538.188,809.902 538.484,784.647 562.744,796.842 				"/>
			</g>
			<g>
				<polygon fill="#DFDFDF" points="608.648,790.391 608.352,815.646 631.299,812.42 630.409,888.169 561.559,897.847 
					561.854,872.6 607.758,866.147 608.055,840.893 585.107,844.118 585.403,818.871 562.448,822.098 562.744,796.842 				"/>
			</g>
		</g>
		<g enable-background="new    ">
			<g>
				<polygon fill="#27448D" points="539.5,825.323 539.203,850.569 516.248,853.796 516.545,828.55 				"/>
			</g>
			<g>
				<polygon fill="#1B2E63" points="516.248,853.796 491.988,841.602 492.284,816.354 516.545,828.55 				"/>
			</g>
			<g>
				<polygon fill="#223A7A" points="516.545,828.55 492.284,816.354 515.24,813.128 539.5,825.323 				"/>
			</g>
		</g>
		<g enable-background="new    ">
			<g>
				<polygon fill="#27448D" points="538.61,901.072 515.654,904.299 515.951,879.052 538.907,875.825 				"/>
			</g>
			<g>
				<polygon fill="#1B2E63" points="515.654,904.299 491.395,892.104 491.691,866.856 515.951,879.052 				"/>
			</g>
			<g>
				<polygon fill="#223A7A" points="515.951,879.052 491.691,866.856 514.646,863.63 538.907,875.825 				"/>
			</g>
		</g>
		<g enable-background="new    ">
			<g>
				<polygon fill="#27448D" points="493.3,857.021 516.248,853.796 515.951,879.052 493.004,882.277 				"/>
			</g>
			<g>
				<polygon fill="#223A7A" points="493.3,857.021 469.04,844.826 491.988,841.602 516.248,853.796 				"/>
			</g>
			<g>
				<polygon fill="#1B2E63" points="493.004,882.277 468.743,870.082 469.04,844.826 493.3,857.021 				"/>
			</g>
		</g>
		<g enable-background="new    ">
			<g>
				<polygon fill="#27448D" points="470.648,835 493.597,831.774 493.3,857.021 470.353,860.247 				"/>
			</g>
			<g>
				<polygon fill="#223A7A" points="470.648,835 446.389,822.806 469.337,819.58 493.597,831.774 				"/>
			</g>
			<g>
				<polygon fill="#1B2E63" points="470.353,860.247 446.092,848.052 446.389,822.806 470.648,835 				"/>
			</g>
		</g>
		<g enable-background="new    ">
			<g>
				<polygon fill="#27448D" points="469.759,910.749 470.056,885.502 493.004,882.277 492.707,907.523 				"/>
			</g>
			<g>
				<polygon fill="#1B2E63" points="469.759,910.749 445.499,898.555 445.796,873.308 470.056,885.502 				"/>
			</g>
			<g>
				<polygon fill="#223A7A" points="470.056,885.502 445.796,873.308 468.743,870.082 493.004,882.277 				"/>
			</g>
		</g>
		<g enable-background="new    ">
			<g>
				<polygon fill="#508D24" points="401.197,895.181 376.937,882.985 399.893,879.759 424.152,891.954 				"/>
			</g>
			<g>
				<polygon fill="#508D24" points="424.746,841.452 400.486,829.257 423.434,826.031 447.693,838.227 				"/>
			</g>
			<g>
				<polygon fill="#3F731C" points="424.152,891.954 399.893,879.759 400.486,829.257 424.746,841.452 				"/>
			</g>
			<g>
				<polygon fill="#508D24" points="355.302,901.632 331.042,889.437 353.989,886.211 378.249,898.406 				"/>
			</g>
			<g>
				<polygon fill="#3F731C" points="378.249,898.406 353.989,886.211 354.583,835.709 378.842,847.904 				"/>
			</g>
			<g>
				<polygon fill="#508D24" points="378.842,847.904 354.583,835.709 377.53,832.483 401.79,844.679 				"/>
			</g>
			<g>
				<polygon fill="#5EA32A" points="447.693,838.227 446.804,913.976 332.049,930.104 332.939,854.355 355.895,851.129 
					355.302,901.632 378.249,898.406 378.842,847.904 401.79,844.679 401.197,895.181 424.152,891.954 424.746,841.452 				"/>
			</g>
			<g>
				<polygon fill="#508D24" points="332.939,854.355 308.679,842.161 331.635,838.935 355.895,851.129 				"/>
			</g>
			<g>
				<polygon fill="#3F731C" points="332.049,930.104 307.789,917.91 308.679,842.161 332.939,854.355 				"/>
			</g>
		</g>
		<g enable-background="new    ">
			<g>
				<polygon fill="#CF241B" points="309.991,857.581 309.695,882.828 286.747,886.054 286.154,936.556 263.198,939.782 
					264.088,864.033 				"/>
			</g>
			<g>
				<polygon fill="#8E1C0C" points="263.198,939.782 238.938,927.587 239.828,851.838 264.088,864.033 				"/>
			</g>
			<g>
				<polygon fill="#B02115" points="264.088,864.033 239.828,851.838 285.731,845.386 309.991,857.581 				"/>
			</g>
		</g>
	</g>
</g>
<g>
	<rect x="615.842" y="1052.137" width="186.407" height="20.388"/>
	<text transform="matrix(1 0 0 1 626.5215 1066.0312)"><tspan x="0" y="0" fill="#F4F4E6" font-family="'DroidSans-Bold'" font-size="12">openSUSE® Conferenc</tspan><tspan x="129.639" y="0" fill="#F4F4E6" font-family="'DroidSans-Bold'" font-size="12">e</tspan><tspan x="136.371" y="0" fill="#F4F4E6" font-family="'DroidSans-Bold'" font-size="12"> 2011</tspan></text>
</g>
<g>
	<rect x="676.035" y="1086.697" width="126.214" height="20.389"/>
	<text transform="matrix(1 0 0 1 686.7148 1100.5938)" fill="#F4F4E6" font-family="'DroidSans-Bold'" font-size="12">11. - 14. September</text>
</g>
<g>
	<rect x="649.647" y="1121.349" width="152.602" height="20.389"/>
	<text transform="matrix(1 0 0 1 660.3271 1135.2441)" fill="#F4F4E6" font-family="'DroidSans-Bold'" font-size="12">Nuremberg | Germany</text>
</g>
</svg>
