<?xml version="1.0" encoding="UTF-8" standalone="no"?>
<!-- Created with Inkscape (http://www.inkscape.org/) -->

<svg
   xmlns:dc="http://purl.org/dc/elements/1.1/"
   xmlns:cc="http://creativecommons.org/ns#"
   xmlns:rdf="http://www.w3.org/1999/02/22-rdf-syntax-ns#"
   xmlns:svg="http://www.w3.org/2000/svg"
   xmlns="http://www.w3.org/2000/svg"
   xmlns:xlink="http://www.w3.org/1999/xlink"
   xmlns:sodipodi="http://sodipodi.sourceforge.net/DTD/sodipodi-0.dtd"
   xmlns:inkscape="http://www.inkscape.org/namespaces/inkscape"
   width="744.09448819"
   height="1052.3622047"
   id="svg3106"
   version="1.1"
   inkscape:version="0.48.2 r9819"
   sodipodi:docname="New document 1">
  <defs
     id="defs3108">
    <pattern
       inkscape:collect="always"
       xlink:href="#Packedcircles"
       id="pattern3421"
       patternTransform="matrix(7.2406022,0,0,7.2406022,108.90389,-66.857783)" />
    <filter
       color-interpolation-filters="sRGB"
       inkscape:collect="always"
       id="filter25843"
       x="-0.12280639"
       width="1.2456127"
       y="-0.15021554"
       height="1.3004311">
      <feGaussianBlur
         inkscape:collect="always"
         stdDeviation="20.979424"
         id="feGaussianBlur25845" />
    </filter>
    <filter
       color-interpolation-filters="sRGB"
       id="filter27705"
       inkscape:label="Refractive Gel A"
       inkscape:menu="Ridges"
       inkscape:menu-tooltip="Gel effect with light refraction"
       height="1.4"
       width="1.4"
       y="-0.2"
       x="-0.2">
      <feOffset
         id="feOffset27707"
         dx="7"
         dy="7"
         in="SourceAlpha"
         result="result3" />
      <feGaussianBlur
         id="feGaussianBlur27709"
         stdDeviation="8"
         in="result3"
         result="result1" />
      <feComposite
         id="feComposite27711"
         in2="result1"
         operator="in"
         in="SourceGraphic"
         result="result2" />
      <feComposite
         id="feComposite27713"
         in2="result2"
         operator="out"
         result="fbSourceGraphic"
         in="result2" />
      <feColorMatrix
         id="feColorMatrix27715"
         result="fbSourceGraphicAlpha"
         in="fbSourceGraphic"
         values="0 0 0 -1 0 0 0 0 -1 0 0 0 0 1 0 0 0 0 4 0 " />
      <feGaussianBlur
         id="feGaussianBlur27717"
         result="result0"
         in="fbSourceGraphicAlpha"
         stdDeviation="2" />
      <feSpecularLighting
         id="feSpecularLighting27719"
         specularExponent="20"
         specularConstant="1.20000005"
         surfaceScale="3"
         lighting-color="#ffffff"
         result="result1"
         in="result0">
        <feDistantLight
           id="feDistantLight27721"
           azimuth="235"
           elevation="45" />
      </feSpecularLighting>
      <feComposite
         id="feComposite27723"
         in2="fbSourceGraphicAlpha"
         operator="in"
         result="result2"
         in="result1" />
      <feComposite
         k4="0"
         k1="0"
         id="feComposite27725"
         in2="result2"
         in="fbSourceGraphic"
         operator="arithmetic"
         k2="2"
         k3="2"
         result="result91" />
      <feBlend
         id="feBlend27727"
         in2="result91"
         mode="multiply" />
    </filter>
    <filter
       color-interpolation-filters="sRGB"
       inkscape:collect="always"
       id="filter27746"
       x="-0.0061034481"
       width="1.0122069"
       y="-0.354"
       height="1.7079999">
      <feGaussianBlur
         inkscape:collect="always"
         stdDeviation="1.10625"
         id="feGaussianBlur27748" />
    </filter>
    <filter
       color-interpolation-filters="sRGB"
       inkscape:collect="always"
       id="filter27756"
       x="-0.012206897"
       width="1.0244138"
       y="-0.708"
       height="2.4159999">
      <feGaussianBlur
         inkscape:collect="always"
         stdDeviation="2.2125"
         id="feGaussianBlur27758" />
    </filter>
    <linearGradient
       inkscape:collect="always"
       xlink:href="#linearGradient27689"
       id="linearGradient27695"
       x1="358.04724"
       y1="285.37289"
       x2="358.04724"
       y2="619.37292"
       gradientUnits="userSpaceOnUse" />
    <linearGradient
       inkscape:collect="always"
       id="linearGradient27689">
      <stop
         style="stop-color:#980101;stop-opacity:1;"
         offset="0"
         id="stop27691" />
      <stop
         id="stop27699"
         offset="0.26044694"
         style="stop-color:#980101;stop-opacity:1" />
      <stop
         id="stop27697"
         offset="0.62621331"
         style="stop-color:#980101;stop-opacity:1;" />
      <stop
         style="stop-color:#390101;stop-opacity:1"
         offset="1"
         id="stop27693" />
    </linearGradient>
    <filter
       color-interpolation-filters="sRGB"
       inkscape:collect="always"
       id="filter27685"
       x="-0.036641192"
       width="1.0732824"
       y="-0.85481137"
       height="2.7096229">
      <feGaussianBlur
         inkscape:collect="always"
         stdDeviation="5.7099188"
         id="feGaussianBlur27687" />
    </filter>
    <pattern
       inkscape:stockid="Packed circles"
       id="Packedcircles"
       patternTransform="translate(0,0) scale(10,10)"
       height="1.73205080756"
       width="1"
       patternUnits="userSpaceOnUse"
       inkscape:collect="always">
      <circle
         id="circle26653"
         r="0.5"
         cy="0.5"
         cx="0"
         style="fill:black;stroke:none" />
      <circle
         id="circle26655"
         r="0.5"
         cy="0.5"
         cx="1"
         style="fill:black;stroke:none" />
      <circle
         id="circle26657"
         r="0.5"
         cy="1.36602540378"
         cx="0.5"
         style="fill:black;stroke:none" />
      <circle
         id="circle26659"
         r="0.5"
         cy="-0.366025403784"
         cx="0.5"
         style="fill:black;stroke:none" />
    </pattern>
    <linearGradient
       inkscape:collect="always"
       xlink:href="#linearGradient25717"
       id="linearGradient25723"
       x1="354.04724"
       y1="281.17303"
       x2="354.04724"
       y2="359.84152"
       gradientUnits="userSpaceOnUse"
       gradientTransform="matrix(1,0,0,0.37647423,0,180.92392)" />
    <linearGradient
       inkscape:collect="always"
       id="linearGradient25717">
      <stop
         style="stop-color:#000000;stop-opacity:1;"
         offset="0"
         id="stop25719" />
      <stop
         style="stop-color:#000000;stop-opacity:0;"
         offset="1"
         id="stop25721" />
    </linearGradient>
    <filter
       color-interpolation-filters="sRGB"
       inkscape:collect="always"
       id="filter27600">
      <feGaussianBlur
         inkscape:collect="always"
         stdDeviation="0.91051313"
         id="feGaussianBlur27602" />
    </filter>
    <filter
       color-interpolation-filters="sRGB"
       inkscape:collect="always"
       id="filter27621">
      <feGaussianBlur
         inkscape:collect="always"
         stdDeviation="0.9084375"
         id="feGaussianBlur27623" />
    </filter>
    <linearGradient
       inkscape:collect="always"
       xlink:href="#linearGradient27689"
       id="linearGradient3403"
       gradientUnits="userSpaceOnUse"
       x1="358.04724"
       y1="285.37289"
       x2="358.04724"
       y2="619.37292" />
    <linearGradient
       inkscape:collect="always"
       xlink:href="#linearGradient25717"
       id="linearGradient3405"
       gradientUnits="userSpaceOnUse"
       gradientTransform="matrix(1,0,0,0.37647423,0,180.92392)"
       x1="354.04724"
       y1="281.17303"
       x2="354.04724"
       y2="359.84152" />
    <linearGradient
       inkscape:collect="always"
       xlink:href="#linearGradient25717"
       id="linearGradient3417"
       gradientUnits="userSpaceOnUse"
       gradientTransform="matrix(0.72406022,0,0,0.27259001,108.90389,64.14203)"
       x1="354.04724"
       y1="281.17303"
       x2="354.04724"
       y2="359.84152" />
    <linearGradient
       inkscape:collect="always"
       xlink:href="#linearGradient27689"
       id="linearGradient3425"
       gradientUnits="userSpaceOnUse"
       x1="358.04724"
       y1="285.37289"
       x2="358.04724"
       y2="619.37292"
       gradientTransform="matrix(0.72406022,0,0,0.72406022,108.90389,-66.857783)" />
  </defs>
  <sodipodi:namedview
     id="base"
     pagecolor="#ffffff"
     bordercolor="#666666"
     borderopacity="1.0"
     inkscape:pageopacity="0.0"
     inkscape:pageshadow="2"
     inkscape:zoom="0.49497475"
     inkscape:cx="294.23637"
     inkscape:cy="659.97485"
     inkscape:document-units="px"
     inkscape:current-layer="layer1"
     showgrid="false"
     inkscape:window-width="1920"
     inkscape:window-height="1030"
     inkscape:window-x="0"
     inkscape:window-y="23"
     inkscape:window-maximized="1" />
  <metadata
     id="metadata3111">
    <rdf:RDF>
      <cc:Work
         rdf:about="">
        <dc:format>image/svg+xml</dc:format>
        <dc:type
           rdf:resource="http://purl.org/dc/dcmitype/StillImage" />
        <dc:title></dc:title>
      </cc:Work>
    </rdf:RDF>
  </metadata>
  <g
     inkscape:label="Layer 1"
     inkscape:groupmode="layer"
     id="layer1">
    <path
       sodipodi:nodetypes="cccccc"
       inkscape:connector-curvature="0"
       id="path25725"
       d="m 167.04724,307.77832 410,0 0,335.18915 -205,-80 -205,80 z"
       style="fill:#000000;fill-opacity:1;stroke:none;display:inline;filter:url(#filter25843)"
       transform="matrix(0.72406022,0,0,0.78219892,108.90389,-109.33859)" />
    <rect
       ry="22"
       rx="22"
       y="270.36218"
       x="134"
       height="44"
       width="477"
       id="rect27703"
       style="fill:#333333;fill-opacity:1;stroke:none;filter:url(#filter27705)"
       transform="matrix(0.72406022,0,0,0.72406022,108.90389,-66.857783)" />
    <rect
       style="fill:#000000;fill-opacity:1;stroke:none"
       id="rect27627"
       width="314.96619"
       height="9.4127827"
       x="221.13322"
       y="140.48569"
       rx="4.7063913"
       ry="4.7063913" />
    <path
       style="fill:#666666;fill-opacity:1;stroke:none;filter:url(#filter27746)"
       d="m 155.09375,291.875 c -0.0494,0.3242 -0.0937,0.66158 -0.0937,1 0,3.601 2.899,6.5 6.5,6.5 l 422,0 c 3.601,0 6.5,-2.899 6.5,-6.5 0,-0.33842 -0.0444,-0.6758 -0.0937,-1 -0.48235,3.11813 -3.14885,5.5 -6.40625,5.5 l -422,0 c -3.2574,0 -5.9239,-2.38187 -6.40625,-5.5 z"
       id="rect27737"
       inkscape:connector-curvature="0"
       transform="matrix(0.72406022,0,0,0.72406022,108.90389,-66.857783)" />
    <path
       id="path27750"
       d="m 155.09375,291.875 c -0.0494,0.3242 -0.0937,0.66158 -0.0937,1 0,3.601 2.899,6.5 6.5,6.5 l 422,0 c 3.601,0 6.5,-2.899 6.5,-6.5 0,-0.33842 -0.0444,-0.6758 -0.0937,-1 -0.48235,3.11813 -3.14885,5.5 -6.40625,5.5 l -422,0 c -3.2574,0 -5.9239,-2.38187 -6.40625,-5.5 z"
       style="fill:#980101;fill-opacity:1;stroke:none;filter:url(#filter27756)"
       inkscape:connector-curvature="0"
       transform="matrix(0.72406022,0,0,-0.72406022,108.90389,355.45034)" />
    <path
       inkscape:connector-curvature="0"
       style="fill:#570101;fill-opacity:1;stroke:none;filter:url(#filter27756)"
       d="m 155.09375,295.875 c -0.0494,0.3242 -0.0937,0.66158 -0.0937,1 0,3.601 2.899,6.5 6.5,6.5 l 422,0 c 3.601,0 6.5,-2.899 6.5,-6.5 0,-0.33842 -0.0444,-0.6758 -0.0937,-1 -0.48235,3.11813 -3.14885,5.5 -6.40625,5.5 l -422,0 c -3.2574,0 -5.9239,-2.38187 -6.40625,-5.5 z"
       id="path27760"
       transform="matrix(0.72406022,0,0,1.0836927,108.90389,-175.69878)" />
    <path
       style="fill:url(#linearGradient3425);fill-opacity:1;stroke:none;display:inline"
       d="m 229.85615,141.51105 296.86469,0 0,242.69713 -148.43234,-57.92482 -148.43235,57.92482 z"
       id="rect25609"
       inkscape:connector-curvature="0"
       sodipodi:nodetypes="cccccc" />
    <path
       style="fill:#d40000;stroke:none;display:inline;filter:url(#filter27685)"
       d="m 182,320.36218 c 32.74624,-14.63268 339.91384,-16.73898 374,-2 -132.51451,8.51451 -254.72034,6.72034 -374,2 z"
       id="path27631"
       inkscape:connector-curvature="0"
       sodipodi:nodetypes="ccc"
       transform="matrix(0.72406022,0,0,0.72406022,108.90389,-66.857783)" />
    <path
       sodipodi:nodetypes="cccccc"
       inkscape:connector-curvature="0"
       id="path25847"
       d="m 229.85615,141.51105 296.86469,0 0,242.69713 -148.43234,-57.92482 -148.43235,57.92482 z"
       style="opacity:0.1;fill:url(#pattern3421);fill-opacity:1;stroke:none;display:inline" />
    <path
       id="path25637"
       style="fill:none;stroke:#f44800;stroke-width:3.00000024;stroke-linecap:round;stroke-linejoin:miter;stroke-miterlimit:4;stroke-opacity:1;stroke-dasharray:3.00000001, 9.00000002;stroke-dashoffset:0;display:inline"
       d="m 235.97657,142.95917 0,231.83623 142.27783,-55.75264 142.27783,55.75264 0,-231.83623"
       inkscape:connector-curvature="0"
       sodipodi:nodetypes="ccccc" />
    <rect
       style="opacity:0.7;fill:url(#linearGradient3417);fill-opacity:1;stroke:none;display:inline"
       id="rect25715"
       width="296.86469"
       height="21.858761"
       x="229.85616"
       y="140.78699" />
    <g
       id="g3455">
      <path
         id="path3445"
         d="M 442.28125 196.0625 C 432.1328 196.06257 424.6954 198.90103 419.96875 204.53125 C 415.31159 210.1616 412.96874 218.74268 412.96875 230.28125 L 412.96875 235.6875 C 412.96874 248.3383 415.2561 257.49472 419.84375 263.125 C 424.50089 268.75529 432.01802 271.5625 442.375 271.5625 C 452.73191 271.5625 460.24904 268.75529 464.90625 263.125 C 469.63286 257.49472 471.99993 248.44227 472 236 L 472 230.375 C 471.99993 218.90594 469.57737 210.32486 464.78125 204.625 C 459.98502 198.92527 452.49914 196.06257 442.28125 196.0625 z M 284.1875 196.6875 L 284.1875 270.9375 L 298.65625 270.9375 L 298.65625 247.15625 L 312.96875 247.15625 C 320.7538 247.15627 326.75985 245.05263 331 240.8125 C 335.30955 236.50293 337.46868 230.20921 337.46875 221.9375 C 337.46868 213.66589 335.30955 207.39641 331 203.15625 C 326.75985 198.84672 320.7538 196.68757 312.96875 196.6875 L 284.1875 196.6875 z M 366.34375 196.6875 C 360.29638 196.68757 355.9781 197.99071 353.40625 200.5625 C 350.83438 203.06492 349.56249 207.09553 349.5625 212.65625 L 349.5625 270.9375 L 364.03125 270.9375 L 364.03125 243.40625 L 374.46875 243.40625 L 388.96875 270.9375 L 405.75 270.9375 L 389.15625 241 C 392.97924 239.60983 396.17808 237.11454 398.75 233.5 C 401.39131 229.81603 402.71868 225.4735 402.71875 220.46875 C 402.71868 213.58734 400.53531 207.91744 396.15625 203.46875 C 391.84659 198.95069 385.99299 196.68757 378.625 196.6875 L 366.34375 196.6875 z M 442.46875 209 C 448.86361 209.00007 453.05368 211.28741 455 215.875 C 456.66818 219.83711 457.49995 225.17085 457.5 231.84375 L 457.5 235.6875 C 457.49995 240.97027 457.00434 245.3128 456.03125 248.71875 C 455.47513 250.87357 454.6676 252.61684 453.625 253.9375 C 452.58231 255.2582 451.12672 256.37764 449.25 257.28125 C 447.3732 258.18489 445.08585 258.62501 442.375 258.625 C 439.7336 258.62501 437.44624 258.18489 435.5 257.28125 C 433.62321 256.30813 432.19187 255.16445 431.21875 253.84375 C 428.71638 250.71583 427.46873 244.65429 427.46875 235.6875 L 427.46875 231.84375 C 427.46873 224.96233 428.27625 219.62858 429.875 215.875 C 431.82125 211.28741 436.00431 209.00007 442.46875 209 z M 298.65625 209.625 L 312.21875 209.625 C 319.37821 209.62506 322.9687 213.7354 322.96875 221.9375 C 322.9687 226.31666 322.03297 229.43578 320.15625 231.3125 C 318.34895 233.1893 315.6942 234.12504 312.21875 234.125 L 298.65625 234.125 L 298.65625 209.625 z M 370.5 209.625 L 377.6875 209.625 C 380.88491 209.62506 383.43569 210.61628 385.3125 212.5625 C 387.25873 214.50883 388.2187 217.0526 388.21875 220.25 C 388.2187 223.37799 387.23449 226.03274 385.21875 228.1875 C 383.27243 230.27284 380.74589 231.31254 377.6875 231.3125 L 364.03125 231.3125 L 364.03125 216.1875 C 364.03123 211.80844 366.19037 209.62506 370.5 209.625 z "
         style="font-size:144px;font-style:normal;font-variant:normal;font-weight:normal;font-stretch:normal;text-align:justify;line-height:125%;writing-mode:lr-tb;text-anchor:start;fill:#6d0101;fill-opacity:1;stroke:none;filter:url(#filter27600);font-family:Viga;-inkscape-font-specification:Viga" />
      <path
         inkscape:connector-curvature="0"
         id="path3434"
         d="m 442.28125,198.96875 c -10.14845,7e-5 -17.58584,2.80728 -22.3125,8.4375 -4.65716,5.63035 -7.00001,14.21143 -7,25.75 l 0,5.4375 c -10e-6,12.6508 2.28735,21.77598 6.875,27.40625 4.65714,5.6303 12.17427,8.46875 22.53125,8.46875 10.35691,0 17.87404,-2.83845 22.53125,-8.46875 4.72661,-5.63027 7.09368,-14.65148 7.09375,-27.09375 l 0,-5.625 c -7e-5,-11.46907 -2.42263,-20.05014 -7.21875,-25.75 -4.79622,-5.69973 -12.2821,-8.56243 -22.5,-8.5625 z m -158.09375,0.625 0,74.25 14.46875,0 0,-23.78125 14.3125,0 c 7.78505,2e-5 13.7911,-2.13487 18.03125,-6.375 4.30954,-4.30957 6.46868,-10.57204 6.46875,-18.84375 -7e-5,-8.27161 -2.15921,-14.54109 -6.46875,-18.78125 -4.24015,-4.30954 -10.2462,-6.46868 -18.03125,-6.46875 l -28.78125,0 z m 82.15625,0 c -6.04737,7e-5 -10.36565,1.30321 -12.9375,3.875 -2.57187,2.50242 -3.84376,6.53304 -3.84375,12.09375 l 0,58.28125 14.46875,0 0,-27.53125 10.4375,0 14.5,27.53125 16.78125,0 -16.59375,-29.9375 c 3.82298,-1.39016 7.02183,-3.88546 9.59375,-7.5 2.64131,-3.68398 3.96869,-8.0265 3.96875,-13.03125 -6e-5,-6.88141 -2.18344,-12.55131 -6.5625,-17 -4.30966,-4.51806 -10.16325,-6.78118 -17.53125,-6.78125 l -12.28125,0 z m 76.125,12.3125 c 6.39486,6e-5 10.58494,2.28741 12.53125,6.875 1.66819,3.96211 2.49995,9.26461 2.5,15.9375 l 0,3.875 c -5e-5,5.28277 -0.49566,9.6253 -1.46875,13.03125 -0.55612,2.15482 -1.36364,3.89809 -2.40625,5.21875 -1.04269,1.3207 -2.49828,2.44014 -4.375,3.34375 -1.8768,0.90364 -4.16416,1.34377 -6.875,1.34375 -2.6414,2e-5 -4.92875,-0.44011 -6.875,-1.34375 -1.87678,-0.97312 -3.30814,-2.14805 -4.28125,-3.46875 -2.50237,-3.12792 -3.75002,-9.15821 -3.75,-18.125 l 0,-3.875 c -2e-5,-6.88142 0.8075,-12.18392 2.40625,-15.9375 1.94625,-4.58759 6.12932,-6.87494 12.59375,-6.875 z m -143.8125,0.625 13.5625,0 c 7.15946,6e-5 10.74995,4.1104 10.75,12.3125 -5e-5,4.37916 -0.93578,7.49828 -2.8125,9.375 -1.8073,1.8768 -4.46206,2.81253 -7.9375,2.8125 l -13.5625,0 0,-24.5 z m 71.84375,0 7.1875,0 c 3.19741,6e-5 5.7482,0.96003 7.625,2.90625 1.94623,1.94633 2.9062,4.52136 2.90625,7.71875 -5e-5,3.128 -0.98426,5.78274 -3,7.9375 -1.94632,2.08534 -4.47286,3.12504 -7.53125,3.125 l -13.65625,0 0,-15.125 c -2e-5,-4.37906 2.15912,-6.56244 6.46875,-6.5625 z"
         style="font-size:144px;font-style:normal;font-variant:normal;font-weight:normal;font-stretch:normal;text-align:justify;line-height:125%;writing-mode:lr-tb;text-anchor:start;fill:#eeeeee;fill-opacity:1;stroke:none;font-family:Viga;-inkscape-font-specification:Viga" />
      <path
         transform="matrix(0.72406022,0,0,0.72406022,108.90389,-66.857783)"
         inkscape:connector-curvature="0"
         id="flowRoot27604"
         d="m 460.96875,367.125 c -14.016,0 -24.2845,3.9115 -30.8125,11.6875 -6.432,7.776 -9.625,19.6265 -9.625,35.5625 l 0,2 c 0,-15.936 3.193,-27.7865 9.625,-35.5625 6.528,-7.776 16.7965,-11.6875 30.8125,-11.6875 14.112,0 24.501,3.9405 31.125,11.8125 6.624,7.872 9.9375,19.7225 9.9375,35.5625 l 0,-2 c 0,-15.84 -3.3135,-27.6905 -9.9375,-35.5625 -6.624,-7.872 -17.013,-11.8125 -31.125,-11.8125 z M 242.0625,368 l 0,2 39.75,0 c 10.752,0 19.05025,2.9855 24.90625,8.9375 5.77437,5.68123 8.76517,13.9844 8.9375,24.90625 0.005,-0.3312 0,-0.66407 0,-1 0,-11.424 -2.9855,-20.05025 -8.9375,-25.90625 C 300.86275,370.9855 292.5645,368 281.8125,368 l -39.75,0 z m 113.75,0 c -8.352,0 -14.29175,1.79175 -17.84375,5.34375 -3.552,3.456 -5.34375,9.0075 -5.34375,16.6875 l 0,2 c 0,-7.68 1.79175,-13.2315 5.34375,-16.6875 3.552,-3.552 9.49175,-5.34375 17.84375,-5.34375 l 17,0 c 10.176,0 18.2355,3.135 24.1875,9.375 5.80259,5.8947 8.7958,13.32495 9.03125,22.3125 0.006,-0.28492 0.0312,-0.55566 0.0312,-0.84375 0,-9.504 -3.0145,-17.32475 -9.0625,-23.46875 C 391.048,371.135 382.9885,368 372.8125,368 l -17,0 z m 30.21875,33.53125 c -0.20117,3.88417 -1.59053,7.22609 -4.15625,9.96875 -2.688,2.88 -6.151,4.3125 -10.375,4.3125 l -18.84375,0 0,2 18.84375,0 c 4.224,0 7.687,-1.4325 10.375,-4.3125 2.784,-2.976 4.1875,-6.64875 4.1875,-10.96875 0,-0.34624 -0.0147,-0.66438 -0.0312,-1 z M 295.625,403.875 c -0.14371,5.50005 -1.43571,9.49821 -3.875,11.9375 -2.496,2.592 -6.1375,3.875 -10.9375,3.875 l -18.71875,0 0,2 18.71875,0 c 4.8,0 8.4415,-1.283 10.9375,-3.875 2.592,-2.592 3.875,-6.92075 3.875,-12.96875 0,-0.33247 0.009,-0.64604 0,-0.96875 z m 144.90625,17.96875 0,2 c 0,12.384 1.7315,20.7425 5.1875,25.0625 1.344,1.824 3.31425,3.406 5.90625,4.75 2.688,1.248 5.852,1.875 9.5,1.875 3.744,0 6.908,-0.627 9.5,-1.875 2.592,-1.248 4.6225,-2.76975 6.0625,-4.59375 1.44,-1.824 2.5445,-4.24275 3.3125,-7.21875 1.344,-4.704 2,-10.704 2,-18 l 0,-2 c 0,7.296 -0.656,13.296 -2,18 -0.768,2.976 -1.8725,5.39475 -3.3125,7.21875 -1.44,1.824 -3.4705,3.34575 -6.0625,4.59375 -2.592,1.248 -5.756,1.875 -9.5,1.875 -3.648,0 -6.812,-0.627 -9.5,-1.875 -2.592,-1.344 -4.56225,-2.926 -5.90625,-4.75 -3.456,-4.32 -5.1875,-12.6785 -5.1875,-25.0625 z M 388.25,430.8125 c -0.30389,0.12325 -0.59641,0.26233 -0.90625,0.375 l 21.8125,39.34375 1.09375,0 -22,-39.71875 z"
         style="font-size:144px;font-style:normal;font-variant:normal;font-weight:normal;font-stretch:normal;text-align:justify;line-height:125%;writing-mode:lr-tb;text-anchor:start;fill:#666666;fill-opacity:1;stroke:none;filter:url(#filter27621);font-family:Viga;-inkscape-font-specification:Viga" />
    </g>
    <path
       style="font-size:131.65299988px;font-style:normal;font-variant:normal;font-weight:normal;font-stretch:normal;line-height:125%;letter-spacing:0px;word-spacing:0px;fill:#ffffff;fill-opacity:1;stroke:none;font-family:Viga;-inkscape-font-specification:Viga"
       d="M 328.09375 8.8125 L 328.09375 102.5625 L 346.375 102.5625 L 346.375 8.8125 L 328.09375 8.8125 z M 360.6875 8.8125 L 360.6875 25.125 L 385.71875 25.125 L 385.71875 102.5625 L 404 102.5625 L 404 25.125 L 429.15625 25.125 L 429.15625 8.8125 L 360.6875 8.8125 z M 331.875 365.09375 L 331.875 383.40625 L 369.9375 383.40625 L 369.9375 416.4375 L 386.25 417.78125 L 386.25 383.40625 L 399.28125 383.40625 C 402.96747 383.40622 405.57036 384.16416 407.0625 385.65625 C 408.55449 387.23606 409.28117 389.95064 409.28125 393.8125 L 409.28125 426.84375 L 425.625 426.84375 L 425.625 385.25 C 425.62491 377.8774 424.17753 372.66563 421.28125 369.59375 C 418.3848 366.6096 413.46489 365.09374 406.53125 365.09375 L 331.875 365.09375 z M 356.625 442.5 C 347.40928 442.49999 340.96753 444.59959 337.28125 448.8125 C 333.68273 453.11314 331.875 460.53023 331.875 471.0625 L 331.875 504.25 L 348.21875 504.25 L 348.21875 472.375 C 348.21873 467.98653 348.90818 464.98007 350.3125 463.3125 C 351.71678 461.64486 354.25119 460.81247 357.9375 460.8125 L 370.96875 460.8125 L 370.96875 489.90625 L 387.3125 491.21875 L 387.3125 460.8125 L 409.28125 460.8125 L 409.28125 504.25 L 425.625 504.25 L 425.625 442.5 L 356.625 442.5 z M 361.625 514.71875 C 356.27108 514.71875 351.49412 515.91149 347.28125 518.28125 C 343.15611 520.65099 339.96948 523.65746 337.6875 527.34375 C 333.29906 534.80407 331.09375 542.54427 331.09375 550.53125 C 331.09375 560.6246 333.59093 568.91131 338.59375 575.40625 C 343.68432 581.90106 350.66659 585.15618 359.53125 585.15625 C 375.32956 585.15618 384.37421 576.76375 386.65625 560 L 388.21875 545 C 388.65754 541.75253 389.77581 539.03794 391.53125 536.84375 C 393.37433 534.64951 395.83429 533.53123 398.90625 533.53125 C 402.06586 533.53123 404.78044 535.04709 407.0625 538.03125 C 409.34441 541.10312 410.46867 545.30233 410.46875 550.65625 C 410.46867 559.43307 406.66705 564.57038 399.03125 566.0625 L 399.8125 582.375 C 407.62383 582.37493 413.99112 579.4057 418.90625 573.4375 C 423.90897 567.46918 426.40616 559.58004 426.40625 549.75 C 426.40616 540.00765 423.76603 531.90709 418.5 525.5 C 413.2338 519.09288 406.57464 515.90625 398.5 515.90625 C 390.42522 515.90625 384.23811 518.1488 379.9375 522.625 C 375.63679 527.10119 372.9222 533.14535 371.78125 540.78125 L 370.1875 556.0625 C 369.04647 563.52278 365.31931 567.24995 359 567.25 C 351.27633 567.24995 347.40624 561.75228 347.40625 550.78125 C 347.40624 545.86617 348.74192 541.41233 351.375 537.375 C 354.00804 533.33762 357.69797 531.31248 362.4375 531.3125 L 361.625 514.71875 z M 361.625 592.375 C 356.27108 592.375 351.49412 593.56775 347.28125 595.9375 C 343.15611 598.30725 339.96948 601.3137 337.6875 605 C 333.29906 612.46031 331.09375 620.20052 331.09375 628.1875 C 331.09375 638.28085 333.59093 646.56756 338.59375 653.0625 C 343.68432 659.55731 350.66659 662.81242 359.53125 662.8125 C 375.32956 662.81242 384.37421 654.42 386.65625 637.65625 L 388.21875 622.65625 C 388.65754 619.40878 389.77581 616.69419 391.53125 614.5 C 393.37433 612.30576 395.83429 611.18748 398.90625 611.1875 C 402.06586 611.18748 404.78044 612.70335 407.0625 615.6875 C 409.34441 618.75938 410.46867 622.95858 410.46875 628.3125 C 410.46867 637.08932 406.66705 642.22663 399.03125 643.71875 L 399.8125 660.03125 C 407.62383 660.03117 413.99112 657.06195 418.90625 651.09375 C 423.90897 645.12543 426.40616 637.23629 426.40625 627.40625 C 426.40616 617.6639 423.76603 609.56334 418.5 603.15625 C 413.2338 596.74913 406.57464 593.5625 398.5 593.5625 C 390.42522 593.5625 384.23811 595.80504 379.9375 600.28125 C 375.63679 604.75744 372.9222 610.8016 371.78125 618.4375 L 370.1875 633.71875 C 369.04647 641.17903 365.31931 644.90619 359 644.90625 C 351.27633 644.90619 347.40624 639.40853 347.40625 628.4375 C 347.40624 623.52242 348.74192 619.06858 351.375 615.03125 C 354.00804 610.99387 357.69797 608.96873 362.4375 608.96875 L 361.625 592.375 z M 331.875 677.28125 L 331.875 695.5625 L 425.625 695.5625 L 425.625 677.28125 L 331.875 677.28125 z M 376.375 711.59375 C 360.40108 711.59375 348.85925 714.48851 341.75 720.28125 C 334.64074 726.16173 331.09375 735.64119 331.09375 748.71875 C 331.09375 761.79622 334.64074 771.27568 341.75 777.15625 C 348.85925 783.12444 360.25813 786.09367 375.96875 786.09375 L 383.09375 786.09375 C 397.57552 786.09367 408.42789 783.08721 415.625 777.03125 C 422.82193 770.97515 426.40616 761.49569 426.40625 748.59375 C 426.40616 735.7795 422.85917 726.3745 415.75 720.40625 C 408.64066 714.52574 397.78828 711.59375 383.21875 711.59375 L 376.375 711.59375 z M 376.375 729.875 L 381.25 729.875 C 389.93904 729.87498 396.66668 730.88754 401.40625 732.90625 C 407.19891 735.36374 410.09367 740.68123 410.09375 748.84375 C 410.09367 756.91842 407.19891 762.19867 401.40625 764.65625 C 396.40337 766.76264 389.67574 767.81244 381.25 767.8125 L 376.375 767.8125 C 369.70454 767.81244 364.20688 767.19745 359.90625 765.96875 C 357.18539 765.26654 355.01133 764.25397 353.34375 762.9375 C 351.67612 761.62092 350.26597 759.77595 349.125 757.40625 C 347.98399 755.03644 347.40624 752.14168 347.40625 748.71875 C 347.40624 745.3835 347.98399 742.48874 349.125 740.03125 C 350.35374 737.66146 351.80112 735.85373 353.46875 734.625 C 357.41831 731.4653 365.05281 729.87498 376.375 729.875 z M 331.875 800.90625 L 331.875 819.21875 L 392.03125 819.21875 L 341.34375 851.59375 C 334.32226 855.45551 330.8125 860.41264 330.8125 866.46875 C 330.8125 868.83843 331.82507 870.9008 333.84375 872.65625 C 335.9502 874.41154 338.44738 875.31242 341.34375 875.3125 L 425.625 875.3125 L 425.625 857 L 364.28125 857 L 425.625 818.5625 L 425.625 800.90625 L 331.875 800.90625 z M 331.875 885.09375 L 331.875 904.15625 L 348.0625 909.3125 L 348.0625 940.78125 L 331.875 946.03125 L 331.875 965.125 L 417.71875 935.125 C 420.87834 933.98396 422.97793 932.64827 424.03125 931.15625 C 425.08438 929.75191 425.62491 927.86971 425.625 925.5 C 425.62491 923.13021 425.04715 921.10507 423.90625 919.4375 C 422.76517 917.85763 420.7028 916.41025 417.71875 915.09375 L 331.875 885.09375 z M 363.46875 913.90625 L 400.59375 925.5 L 363.46875 936.5625 L 363.46875 913.90625 z M 357.9375 978.125 C 348.72177 978.12499 342.06261 980.442 337.9375 985.09375 C 333.90013 989.83324 331.875 997.4677 331.875 1008 L 331.875 1035.9062 L 348.21875 1035.9062 L 348.21875 1008 C 348.21873 1003.6115 348.90818 1000.5738 350.3125 998.90625 C 351.71678 997.23861 354.25119 996.40622 357.9375 996.40625 L 425.625 996.40625 L 425.625 978.125 L 357.9375 978.125 z "
       id="path3461" />
  </g>
</svg>
