<?xml version="1.0" encoding="UTF-8" standalone="no"?>
<!-- Generator: Adobe Illustrator 17.1.0, SVG Export Plug-In . SVG Version: 6.00 Build 0)  -->

<svg
   xmlns:dc="http://purl.org/dc/elements/1.1/"
   xmlns:cc="http://creativecommons.org/ns#"
   xmlns:rdf="http://www.w3.org/1999/02/22-rdf-syntax-ns#"
   xmlns:svg="http://www.w3.org/2000/svg"
   xmlns="http://www.w3.org/2000/svg"
   xmlns:sodipodi="http://sodipodi.sourceforge.net/DTD/sodipodi-0.dtd"
   xmlns:inkscape="http://www.inkscape.org/namespaces/inkscape"
   version="1.1"
   x="0px"
   y="0px"
   viewBox="0 0 1920 1200"
   enable-background="new 0 0 1920 1200"
   xml:space="preserve"
   id="svg2"
   inkscape:version="0.48.4 r9939"
   width="100%"
   height="100%"
   sodipodi:docname="background-1610.svg"
   inkscape:export-filename="/suse/rbrown/Pictures/BG.png"
   inkscape:export-xdpi="90"
   inkscape:export-ydpi="90"><sodipodi:namedview
     pagecolor="#ffffff"
     bordercolor="#666666"
     borderopacity="1"
     objecttolerance="10"
     gridtolerance="10"
     guidetolerance="10"
     inkscape:pageopacity="0"
     inkscape:pageshadow="2"
     inkscape:window-width="1920"
     inkscape:window-height="1018"
     id="namedview54"
     showgrid="false"
     inkscape:zoom="0.39333333"
     inkscape:cx="930.97453"
     inkscape:cy="616.25789"
     inkscape:window-x="-1"
     inkscape:window-y="-3"
     inkscape:window-maximized="1"
     inkscape:current-layer="layer1" /><metadata
     id="metadata58"><rdf:RDF><cc:Work
         rdf:about=""><dc:format>image/svg+xml</dc:format><dc:type
           rdf:resource="http://purl.org/dc/dcmitype/StillImage" /><dc:title /></cc:Work></rdf:RDF></metadata><defs
     id="defs56"><filter
       id="filter4756"
       style="color-interpolation-filters:sRGB;"
       inkscape:label="Drop Shadow"><feFlood
         id="feFlood4758"
         flood-opacity="0.25"
         flood-color="rgb(0,0,0)"
         result="flood" /><feComposite
         id="feComposite4760"
         in2="SourceGraphic"
         in="flood"
         operator="in"
         result="composite1" /><feGaussianBlur
         id="feGaussianBlur4762"
         in="composite"
         stdDeviation="2.1"
         result="blur" /><feOffset
         id="feOffset4764"
         dx="2.7"
         dy="2.8"
         result="offset" /><feComposite
         id="feComposite4766"
         in2="offset"
         in="SourceGraphic"
         operator="over"
         result="composite2" /></filter></defs><g
     style="display:inline"
     inkscape:label="BG"
     id="layer2"
     inkscape:groupmode="layer"><g
       inkscape:export-ydpi="90"
       inkscape:export-xdpi="90"
       id="Layer_1"
       transform="translate(9.395227e-6,-3.6389667e-5)"
       style="display:inline;fill:#0d6967;fill-opacity:1"><rect
         id="rect5"
         height="1212.2"
         width="1989.2"
         y="-12.2"
         x="-24.299999"
         style="fill:#0d6967;fill-opacity:1" /></g></g><g
     style="display:inline"
     inkscape:label="circles"
     id="layer1"
     inkscape:groupmode="layer"><path
       inkscape:connector-curvature="0"
       style="fill:#173d4a;filter:url(#filter4756)"
       id="path10"
       d="m 548.10004,1354.2 c 142.9,70.3 314.3,135.9 455.09996,61.5 46,-24.3 86,-62.8 137,-72.9 90.7,-18 197.4,56.5 270,-0.8 27,-21.3 39.7,-55.5 60.2,-83.1 118.1,-158.2 406.2,-29.5 549.5,-165.2 52.9,-50.1 72.7,-127.99999 66.7,-200.69999 -6,-72.7 34.9,-140.2 2.9,-205.7 62.9,-73.5 60.4,-163 41.9,-258 -38,-194.6 -104.1,-249.00005 -162.8,-438.4000464 C 1953.9,-56.500036 1626.9,-128.60004 1605,-141.80004 c -107.6,-65 -223.5,-116.4 -343.9,-152.5 -70.4,-21.1 -144.4,-37.2 -217.1,-26.1 -52.79996,8.1 -102.29996,30.1 -152.59996,48.2 -319.1,114.5 -703.80003,81 -959.400031,303.700004 -90.699999,79.099996 -157.799999,213.800046 -97.599999,318.000046 10.7,18.5 24.9,35.1 31.9,55.2 10.3,29.5 3.5,61.9 -4.5,92.1 -22,82.4 -53,163 -61.7,247.8 -8.7,84.8 8.9,177.8 70.7,236.5 C -48.899991,1057.5 -72.199991,1192.9 36.500009,1215 c 24.2,4.9 189.800031,-7.2 208.400031,9 16.8,14.6 205,81.9 303.2,130.2 z" /><path
       inkscape:connector-curvature="0"
       style="fill:#529479;filter:url(#filter4756)"
       id="path52"
       d="m 280.30004,349.40001 c 0.6,13.5 8.2,25.6 15.8,36.8 11.1,16.3 25.6,33.8 45.3,34.3 6.4,0.2 13.1,-1.5 19.2,0.5 10.9,3.6 17.8,18.1 29.2,16.3 4.2,-0.7 7.7,-3.6 11.6,-5.3 22.4,-9.9 45.6,21.6 69.3,15.6 8.8,-2.2 15.6,-9.4 19.4,-17.6 3.8,-8.2 4.9,-17.4 5.4,-26.4 11.3,-4.1 23.9,-9.5 27.7,-20.9 7.8,-23.3 -28.4,-43.1 -23.2,-67.1 1.3,-6 5.2,-11.6 4.6,-17.7 -0.3,-3.2 -1.8,-6 -3.4,-8.8 -7.6,-13.6 -17,-26.2 -27.8,-37.4 -6.3,-6.6 -13.3,-12.8 -21.8,-16 -6.2,-2.3 -12.9,-3.00005 -19.4,-4.10005 -41.4,-7.1 -3.9,-0.7 -30.7,-6.9 -14.5,-3.4 -121.2,-5.3 -121.1,9.60005 0,2.6 0.6,5.3 0.1,7.9 -0.7,3.8 -3.4,6.9 -6.1,9.6 -7.4,7.5 -15.6,14.3 -21.7,23 -6.1,8.6 -9.9,19.7 -6.8,29.8 4,13.1 17.6,20.3 28,29.3 2.3,2 4.6,4.3 5.6,7.1 0.8,2.8 0.7,5.6 0.8,8.4 z" /><path
       inkscape:connector-curvature="0"
       d="m 548.10004,1354.2 c 142.9,70.3 314.3,135.9 455.09996,61.5 46,-24.3 86,-62.8 137,-72.9 90.7,-18 197.4,56.5 270,-0.8 27,-21.3 39.7,-55.5 60.2,-83.1 59.05,-79.1 160.6,-86.475 265.3,-91.0375 104.7,-4.5625 212.55,-6.3125 284.2,-74.1625 52.9,-50.1 72.7,-127.99999 66.7,-200.69999 -6,-72.7 34.9,-140.2 2.9,-205.7 62.9,-73.5 60.4,-163 41.9,-258 -38,-194.6 -104.1,-249.00005 -162.8,-438.4000464 C 1953.9,-56.500036 1626.9,-128.60004 1605,-141.80004 c -107.6,-65 -223.5,-116.4 -343.9,-152.5 -70.4,-21.1 -144.4,-37.2 -217.1,-26.1 -52.79996,8.1 -102.29996,30.1 -152.59996,48.2 -159.55,57.25 -335.50001,77.5 -503.51252,111.275 -168.0125,33.775 -328.08751,81.075002 -455.887511,192.425004 -90.699999,79.099996 -157.799999,213.800046 -97.599999,318.000046 10.7,18.5 24.9,35.1 31.9,55.2 10.3,29.5 3.5,61.9 -4.5,92.1 -22,82.4 -53,163 -61.7,247.8 -8.7,84.8 8.9,177.8 70.7,236.5 C -48.899991,1057.5 -72.199991,1192.9 36.500009,1215 c 24.2,4.9 189.800031,-7.2 208.400031,9 16.8,14.6 205,81.9 303.2,130.2 0,0 0,0 0,0"
       style="fill:#0d6967;fill-opacity:1;"
       id="path4243" /><path
       inkscape:connector-curvature="0"
       d="m 280.30004,349.40001 c 0.6,13.5 8.2,25.6 15.8,36.8 11.1,16.3 25.6,33.8 45.3,34.3 6.4,0.2 13.1,-1.5 19.2,0.5 10.9,3.6 17.8,18.1 29.2,16.3 4.2,-0.7 7.7,-3.6 11.6,-5.3 22.4,-9.9 45.6,21.6 69.3,15.6 8.8,-2.2 15.6,-9.4 19.4,-17.6 3.8,-8.2 4.9,-17.4 5.4,-26.4 11.3,-4.1 23.9,-9.5 27.7,-20.9 7.8,-23.3 -28.4,-43.1 -23.2,-67.1 1.3,-6 5.2,-11.6 4.6,-17.7 -0.3,-3.2 -1.8,-6 -3.4,-8.8 -7.6,-13.6 -17,-26.2 -27.8,-37.4 -6.3,-6.6 -13.3,-12.8 -21.8,-16 -6.2,-2.3 -12.9,-3.00005 -19.4,-4.10005 -41.4,-7.1 -3.9,-0.7 -30.7,-6.9 -14.5,-3.4 -121.2,-5.3 -121.1,9.60005 0,2.6 0.6,5.3 0.1,7.9 -0.7,3.8 -3.4,6.9 -6.1,9.6 -7.4,7.5 -15.6,14.3 -21.7,23 -6.1,8.6 -9.9,19.7 -6.8,29.8 4,13.1 17.6,20.3 28,29.3 2.3,2 4.6,4.3 5.6,7.1 0.8,2.8 0.7,5.6 0.8,8.4 0,0 0,0 0,0"
       style="fill:#22a472;fill-opacity:1;filter:url(#filter4756)"
       id="path4285" /><path
       inkscape:connector-curvature="0"
       d="m 531.36254,1291.4 c 134.00625,66.75 295.16875,129.0063 427.64371,59.9563 43.81875,-21.7625 82.22505,-56.7625 131.26875,-66.2 85.4313,-16.8625 185.8813,52.875 254.325,-0.7188 25.9938,-19.7437 38.3313,-50.9 58.2625,-76.8875 55.6219,-74.2 151.0438,-81.2953 249.4438,-85.6789 99.5562,-4.8961 202.1156,-4.568 270.7687,-68.5523 50.1438,-47.1063 69.1313,-120.58754 63.7438,-189.25629 -5.3875,-68.66875 33.025,-132.525 3.0562,-194.49375 59.675,-69.1625 58.1188,-153.40625 41.0125,-243.18125 -35.1375,-183.89375 -99.3687,-236.1313 -154.075,-415.193793 -13.7,-44.8125 -320.0187,-112.756257 -340.5875,-125.512507 -100.8937,-61.1375 -209.6437,-109.5 -322.6187,-143.51875 -66.475,-20.63125 -136.4375,-36.5125 -205.2688,-26.80625 -49.89371,7.18125 -96.73746,27.41875 -144.42496,44.1875 -149.96563,53.52813 -315.33751,72.46875 -473.25549,104.06406 C 230.55783,-105.17192 82.831262,-60.428163 -38.656239,43.574964 -124.59374,117.51871 -194.16874,243.68126 -137.72499,342.30001 c 10.03125,17.50625 23.38125,33.2375 29.9125,52.24375 9.612502,27.89375 3.06875,58.4625 -4.6,86.94375 -21.0875,77.71875 -50.6625,153.70625 -59.2,233.75 -8.5375,80.0375 7.725,167.91875 65.85625,223.58125 75.531251,72.44374 54.537501,199.83124 157.093751,221.11254 22.83125,4.7187 178.225029,-6.4813 195.725029,8.8812 15.8,13.8625 192.23125,77.1313 284.3,122.5875 0,0 0,0 0,0"
       style="fill:#0e6c67;fill-opacity:1;filter:url(#filter4756)"
       id="path12308" /><path
       inkscape:connector-curvature="0"
       d="m 514.62504,1228.6 c 125.1125,63.2 276.0375,122.1125 400.18746,58.4125 41.63751,-19.225 78.45001,-50.725 125.5375,-59.5 80.1625,-15.725 174.3625,49.25 238.65,-0.6375 24.9875,-18.1875 36.9625,-46.3 56.325,-70.675 52.1938,-69.3 141.4875,-76.1156 233.5875,-80.3203 94.4125,-5.2297 191.6813,-2.8234 257.3375,-62.9422 47.3875,-44.1125 65.5625,-113.17499 60.7875,-177.81249 -4.775,-64.6375 31.15,-124.85 3.2125,-183.2875 56.45,-64.825 55.8375,-143.8125 40.125,-228.3625 -32.275,-173.1875 -94.6375,-223.26254 -145.35,-391.987541 -12.7,-42.224999 -298.3375,-106.012503 -317.575,-118.325003 -94.1875,-57.274996 -195.7875,-102.599996 -301.3375,-134.537496 -62.55,-20.1625 -128.475,-35.825 -193.43749,-27.5125 -46.98747,6.2625 -91.17497,24.7375 -136.24997,40.175 -140.38125,49.80625 -295.17501,67.43749 -442.99846,96.85311 C 241.24065,-83.19379 105.86251,-41.006288 -9.3124871,55.649963 -90.487486,124.43746 -162.53749,242.0625 -109.84999,335.10001 c 9.3625,16.5125 21.862504,31.375 27.925004,49.2875 8.925,26.2875 2.6375,55.025 -4.7,81.7875 -20.175004,73.0375 -48.325004,144.4125 -56.700004,219.7 -8.375,75.275 6.55,158.0375 61.012504,210.6625 70.762499,68.48749 52.074999,187.86249 148.487499,208.32499 21.4625,4.5375 166.650027,-5.7625 183.050027,8.7625 14.8,13.125 179.4625,72.3625 265.4,114.975 0,0 0,0 0,0"
       style="fill:#0f7068;fill-opacity:1;filter:url(#filter4756)"
       id="path12310" /><path
       inkscape:connector-curvature="0"
       d="m 497.88754,1165.8 c 116.21875,59.65 256.90625,115.2188 372.73122,56.8688 39.45625,-16.6875 74.675,-44.6875 119.80625,-52.8 74.89379,-14.5875 162.84379,45.625 222.97499,-0.5563 23.9813,-16.6312 35.5938,-41.7 54.3875,-64.4625 48.7656,-64.4 131.9313,-70.9359 217.7313,-74.9617 89.2687,-5.5633 181.2468,-1.0789 243.9062,-57.33205 44.6313,-41.11875 61.9938,-105.76249 57.8313,-166.36874 -4.1625,-60.60625 29.275,-117.175 3.3687,-172.08125 53.225,-60.4875 53.5563,-134.21875 39.2375,-213.54375 -29.4125,-162.48125 -89.9062,-210.39379 -136.625,-368.781288 -11.7,-39.637499 -276.6562,-99.268753 -294.5625,-111.137503 -87.4812,-53.412499 -181.9312,-95.699999 -280.0562,-125.556249 -58.625,-19.69375 -120.51254,-35.1375 -181.60629,-28.21875 -44.08122,5.34375 -85.61247,22.05625 -128.07497,36.1625 -130.79687,46.08437 -275.01251,62.40624 -412.74142,89.642177 C 251.92346,-61.215665 128.89377,-21.584413 20.031265,67.724963 -56.381234,131.35621 -130.90623,240.44375 -81.974984,327.90001 c 8.69375,15.51875 20.34375,29.5125 25.9375,46.33125 8.2375,24.68125 2.20625,51.5875 -4.8,76.63125 -19.2625,68.35625 -45.987496,135.11875 -54.199996,205.65 -8.2125,70.5125 5.375,148.15625 56.168746,197.74375 65.9937488,64.53124 49.6124988,175.89374 139.881249,195.53754 20.093745,4.3562 155.075025,-5.0438 170.375025,8.6437 13.8,12.3875 166.69375,67.5938 246.5,107.3625 0,0 0,0 0,0"
       style="fill:#107469;fill-opacity:1;filter:url(#filter4756)"
       id="path12312" /><path
       inkscape:connector-curvature="0"
       d="m 481.15004,1103 c 107.325,56.1 237.775,108.325 345.27497,55.325 37.275,-14.15 70.9,-38.65 114.075,-46.1 69.62499,-13.45 151.32499,42 207.29999,-0.475 22.975,-15.075 34.225,-37.1 52.45,-58.25 45.3375,-59.5 122.375,-65.75625 201.875,-69.60312 C 1486.25,978 1572.9375,984.5625 1632.6,932.175 c 41.875,-38.125 58.425,-98.34999 54.875,-154.92499 -3.55,-56.575 27.4,-109.5 3.525,-160.875 50,-56.15 51.275,-124.625 38.35,-198.725 -26.55,-151.775 -85.175,-197.52504 -127.9,-345.575035 -10.7,-37.05 -254.975,-92.525002 -271.55,-103.950003 -80.775,-49.549999 -168.075,-88.800002 -258.775,-116.575002 -54.7,-19.225 -112.54999,-34.45 -169.77499,-28.925 -41.17497,4.425 -80.04997,19.375 -119.89997,32.15 -121.2125,42.3625 -254.85001,57.37499 -382.48439,82.43124 C 262.60627,-39.23754 151.92502,-2.1625385 49.375017,79.799963 -22.274982,138.27496 -99.274982,238.825 -54.099983,320.70001 c 8.025001,14.525 18.825001,27.65 23.950001,43.375 7.55,23.075 1.774999,48.15 -4.9,71.475 -18.35,63.675 -43.650001,125.825 -51.700001,191.6 -8.049999,65.75 4.200001,138.275 51.325001,184.825 C 25.800017,872.55 11.725017,975.9 95.850017,994.725 114.57502,998.9 239.35004,990.4 253.55004,1003.25 c 12.8,11.65 153.925,62.825 227.6,99.75 0,0 0,0 0,0"
       style="fill:#127769;fill-opacity:1;filter:url(#filter4756)"
       id="path12314" /><path
       inkscape:connector-curvature="0"
       d="m 464.41254,1040.2 c 98.43125,52.55 218.64375,101.4313 317.81872,53.7813 35.09375,-11.6125 67.125,-32.6125 108.34375,-39.4 64.35625,-12.3125 139.80629,38.375 191.62499,-0.3938 21.9688,-13.5187 32.8563,-32.5 50.5125,-52.0375 41.9094,-54.6 112.8188,-60.57656 186.0188,-64.24453 78.9812,-6.23047 160.3781,2.41016 217.0437,-46.11172 39.1188,-35.13125 54.8563,-90.93749 51.9188,-143.48124 -2.9375,-52.54375 25.525,-101.825 3.6812,-149.66875 46.775,-51.8125 48.9938,-115.03125 37.4625,-183.90625 -23.6875,-141.06875 -80.4437,-184.65628 -119.175,-322.368782 -9.7,-34.4625 -233.2937,-85.7812524 -248.5375,-96.7625024 -74.0687,-45.6874996 -154.2187,-81.8999996 -237.4937,-107.5937456 -50.77504,-18.75625 -104.58754,-33.7625 -157.94379,-29.63125 -38.26872,3.50625 -74.48747,16.69375 -111.72497,28.1375 -111.62812,38.640621 -234.68751,52.34373 -352.22736,75.220292 -128.44609,21.001563 -226.77891,55.520314 -323.016411,130.135941 -66.8875,53.318747 -146.3625,145.331277 -104.94375,221.625047 7.35625,13.53125 17.3062504,25.7875 21.9625004,40.41875 6.8625,21.46875 1.34375,44.7125 -5,66.31875 -17.4375004,58.99375 -41.3125004,116.53125 -49.2000004,177.55 -7.8875,60.9875 3.025,128.39375 46.48125,171.90625 56.45625,56.61874 44.6875,151.95624 122.668751,169.96249 17.35625,3.99375 131.92502,-3.60625 145.02502,8.40625 11.8,10.9125 141.15625,58.0563 208.7,92.1375 0,0 0,0 0,0"
       style="fill:#137b6a;fill-opacity:1;filter:url(#filter4756)"
       id="path12316" /><path
       inkscape:connector-curvature="0"
       d="m 447.67504,977.4 c 89.5375,49 199.5125,94.5375 290.36247,52.2375 32.9125,-9.075 63.35,-26.575 102.61251,-32.7 59.0875,-11.175 128.28749,34.75 175.94998,-0.3125 20.9625,-11.9625 31.4875,-27.9 48.575,-45.825 38.4813,-49.7 103.2625,-55.39687 170.1625,-58.88593 73.8375,-6.56407 149.9438,4.15468 203.6125,-40.50157 36.3625,-32.1375 51.2875,-83.52499 48.9625,-132.03749 -2.325,-48.5125 23.65,-94.15 3.8375,-138.4625 43.55,-47.475 46.7125,-105.4375 36.575,-169.0875 -20.825,-130.3625 -75.7125,-171.78753 -110.45,-299.16253 -8.7,-31.874999 -211.6125,-79.037501 -225.525,-89.575001 -67.3625,-41.825 -140.3625,-75 -216.21249,-98.6125 -46.85,-18.2875 -96.625,-33.074999 -146.11249,-30.337499 -35.36248,2.5875 -68.92498,14.012499 -103.54998,24.124999 C 624.43129,-46.818771 511.95003,-34.42504 404.50471,-13.728165 283.9719,4.71871 197.98752,36.681211 108.06252,103.94996 45.937521,152.11246 -36.012479,235.58749 1.6500212,306.30001 c 6.6875001,12.5375 15.7874998,23.925 19.9749998,37.4625 6.175,19.8625 0.9125,41.275 -5.1,61.1625 -16.52499975,54.3125 -38.975,107.2375 -46.7,163.5 -7.725,56.225 1.85,118.5125 41.6375,158.9875 51.6875,52.66249 42.225,139.98749 114.062499,157.17499 15.9875,3.8125 120.35002,-2.8875 132.35002,8.2875 10.8,10.175 128.3875,53.2875 189.8,84.525 0,0 0,0 0,0"
       style="fill:#147f6b;fill-opacity:1;filter:url(#filter4756)"
       id="path12318" /><path
       inkscape:connector-curvature="0"
       d="m 430.93754,914.6 c 80.64375,45.45 180.38125,87.6438 262.90623,50.69375 30.73125,-6.5375 59.575,-20.5375 96.88125,-26 53.81875,-10.0375 116.76875,31.125 160.275,-0.23125 19.95625,-10.40625 30.11875,-23.3 46.6375,-39.6125 35.05308,-44.8 93.70628,-50.21718 154.30628,-53.52734 68.6937,-6.89766 139.5093,5.89922 190.1812,-34.89141 33.6063,-29.14375 47.7188,-76.11249 46.0063,-120.59374 -1.7125,-44.48125 21.775,-86.475 3.9937,-127.25625 40.325,-43.1375 44.4313,-95.84375 35.6875,-154.26875 -17.9625,-119.65625 -70.9812,-158.91878 -101.725,-275.95628 -7.7,-29.2875 -189.9312,-72.293748 -202.5125,-82.387498 -60.6562,-37.9625 -126.50623,-68.1 -194.93123,-89.63125 -42.925,-17.81875 -88.6625,-32.3875 -134.28125,-31.04375 -32.45623,1.66875 -63.36248,11.33125 -95.37498,20.1125 C 606.52816,-18.796893 504.62503,-7.71254 407.27425,10.804648 294.65472,26.696835 221.01877,56.103086 137.40627,116.02496 80.043773,159.03121 -4.3812269,233.96874 29.525023,299.10001 c 6.01875,11.54375 14.26875,22.0625 17.9875,34.50625 5.4875,18.25625 0.48125,37.8375 -5.2,56.00625 -15.6125,49.63125 -36.6374999,97.94375 -44.1999999,149.45 -7.5625,51.4625 0.675,108.63125 36.7937499,146.06875 46.91875,48.70624 39.7625,128.01874 105.456247,144.38749 14.61875,3.63125 108.77502,-2.16875 119.67502,8.16875 9.8,9.4375 115.61875,48.51875 170.9,76.9125 0,0 0,0 0,0"
       style="fill:#16826b;fill-opacity:1;filter:url(#filter4756)"
       id="path12320" /><path
       inkscape:connector-curvature="0"
       d="m 414.20004,851.80001 c 71.75,41.9 161.25,80.75 235.44998,49.15 28.55,-4 55.8,-14.5 91.15,-19.30001 48.55,-8.9 105.25,27.5 144.6,-0.15 18.95,-8.85 28.75,-18.69999 44.7,-33.4 31.625,-39.89999 84.14998,-45.0375 138.44998,-48.16875 63.55,-7.23124 129.075,7.64376 176.75,-29.28125 30.85,-26.15 44.15,-68.69999 43.05,-109.14999 -1.1,-40.45 19.9,-78.8 4.15,-116.05 37.1,-38.8 42.15,-86.25 34.8,-139.45 -15.1,-108.95 -66.25,-146.05002 -93,-252.75002 -6.7,-26.7 -168.25,-65.550005 -179.5,-75.200005 -53.95,-34.1 -112.64998,-61.2 -173.64998,-80.65 -39,-17.35 -80.7,-31.7 -122.45,-31.75 -29.54998,0.75 -57.79998,8.65 -87.19998,16.1 -82.875,27.475 -174.20001,37.249975 -261.45626,53.587475 -104.70625,13.3375 -165.99376,40.187501 -243.29376,92.7625 -52.59999,37.85 -139.499995,104.25002 -109.349995,163.80005 5.35,10.55 12.75,20.2 16,31.55 4.8,16.65 0.05,34.4 -5.3,50.85 -14.7,44.95 -34.3,88.65 -41.7,135.4 -7.4,46.7 -0.5,98.75 31.95,133.15 C 100.50002,687.6 95.650024,758.9 155.20002,774.45001 168.45002,777.9 252.40004,773 262.20004,782.5 c 8.8,8.70001 102.85,43.75 152,69.30001 0,0 0,0 0,0"
       style="fill:#17866c;fill-opacity:1;filter:url(#filter4756)"
       id="path12322" /><path
       inkscape:connector-curvature="0"
       d="m 397.46254,789.00001 c 62.85625,38.35 142.11875,73.85625 207.99373,47.60625 26.36875,-1.4625 52.025,-8.4625 85.41875,-12.6 43.28125,-7.7625 93.73125,23.875 128.925,-0.0688 17.94375,-7.29375 27.38125,-14.1 42.7625,-27.1875 28.19688,-35 74.59375,-39.85782 122.59375,-42.81016 58.40623,-7.56484 118.64063,9.38828 163.31873,-23.67109 28.0938,-23.15625 40.5813,-61.2875 40.0938,-97.70625 -0.4875,-36.41875 18.025,-71.125 4.3062,-104.84375 33.875,-34.4625 39.8688,-76.65625 33.9125,-124.63125 -12.2375,-98.24375 -61.5187,-133.18127 -84.275,-229.54377 -5.7,-24.1125 -146.56873,-58.80625 -156.48748,-68.0125 C 938.78127,75.293738 887.23127,51.231238 833.65627,33.862488 798.58127,16.981238 760.91877,2.8499881 723.03752,1.4062381 696.39379,1.2374881 670.80004,7.3749881 644.01254,13.493738 570.72191,37.246863 489.97504,45.71246 412.81331,59.870272 316.02034,70.653085 267.08128,94.946836 196.09378,140.17496 148.25628,172.86871 58.881277,230.73123 85.275027,284.70001 c 4.68125,9.55625 11.23125,18.3375 14.0125,28.59375 4.112503,15.04375 -0.38125,30.9625 -5.4,45.69375 -13.7875,40.26875 -31.9625,79.35625 -39.2,121.35 -7.2375,41.9375 -1.675,88.86875 27.10625,120.23125 37.381253,40.79375 34.837503,104.08125 88.243753,118.8125 11.88125,3.26875 85.62501,-0.73125 94.32501,7.93125 7.8,7.9625 90.08125,38.98125 133.1,61.6875 0,0 0,0 0,0"
       style="fill:#188a6d;fill-opacity:1;filter:url(#filter4756)"
       id="path12324" /><path
       inkscape:connector-curvature="0"
       d="m 380.72504,726.20001 c 53.9625,34.8 122.9875,66.9625 180.53748,46.0625 24.1875,1.075 48.25,-2.425 79.6875,-5.9 38.01251,-6.625 82.2125,20.25 113.25,0.0125 16.9375,-5.7375 26.01251,-9.5 40.82501,-20.975 24.76874,-30.1 65.0375,-34.67813 106.73749,-37.45157 53.26251,-7.89843 108.20628,11.13282 149.88748,-18.06093 25.3375,-20.1625 37.0125,-53.875 37.1375,-86.2625 0.125,-32.3875 16.15,-63.45 4.4625,-93.6375 30.65,-30.125 37.5875,-67.0625 33.025,-109.8125 -9.375,-87.5375 -56.7875,-120.31252 -75.55,-206.33752 -4.7,-21.525 -124.88747,-52.0625 -133.47497,-60.825 -40.5375,-26.375 -84.9375,-47.399999 -131.08751,-62.687499 -31.15,-16.4125 -64.775,-30.325 -98.78749,-33.1625 -23.73749,-1.0875 -46.67499,3.2875 -70.84999,8.075 -63.70625,20.03125 -133.875,27.187469 -200.94219,39.165594 -88.87969,8.228125 -125.47032,29.965625 -190.14532,67.846875 -43.075,27.5375 -134.925001,76.86252 -112.2875,125.25005 4.0125,8.5625 9.7125,16.475 12.025,25.6375 3.425,13.4375 -0.8125,27.525 -5.5,40.5375 -12.875,35.5875 -29.625001,70.0625 -36.700001,107.3 -7.075,37.175 -2.85,78.9875 22.262501,107.3125 32.6125,36.8375 32.375,92.1125 79.6375,106.025 10.5125,3.0875 74.05001,-0.0125 81.65001,7.8125 6.8,7.225 77.3125,34.2125 114.2,54.075 0,0 0,0 0,0"
       style="fill:#1a8d6d;fill-opacity:1;filter:url(#filter4756)"
       id="path12326" /><path
       inkscape:connector-curvature="0"
       d="m 363.98754,663.40001 c 45.06875,31.25 103.85625,60.06875 153.08124,44.51875 22.00625,3.6125 44.475,3.6125 73.95625,0.8 32.74375,-5.4875 70.69375,16.625 97.575,0.0937 15.93125,-4.18125 24.64375,-4.9 38.8875,-14.7625 21.34062,-25.2 55.48125,-29.49844 90.88125,-32.09297 48.11875,-8.23203 97.77187,12.87734 136.45625,-12.45078 22.58125,-17.16875 33.44375,-46.4625 34.18125,-74.81875 0.7375,-28.35625 14.27502,-55.775 4.61875,-82.43125 27.42497,-25.7875 35.30627,-57.46875 32.13747,-94.99375 -6.5125,-76.83125 -52.05622,-107.44377 -66.82497,-183.13126 -3.7,-18.9375 -103.20625,-45.31876 -110.4625,-53.63751 -33.83125,-22.5125 -71.08125,-40.5 -109.80625,-53.70625 -27.225,-15.943746 -56.8125,-29.637496 -86.95625,-33.868746 -20.83124,-2.00625 -41.11249,0.60625 -62.67499,4.0625 -54.12188,16.309375 -113.7125,22.156216 -170.68516,31.954656 -80.96641,5.67344 -105.2086,24.85469 -163.5711,55.38906 -38.3125,22.38125 -132.6375,63.16877 -113.75625,105.97505 3.34375,7.56875 8.19375,14.6125 10.0375,22.68125 2.7375,11.83125 -1.24375,24.0875 -5.6,35.38125 -11.9625,30.90625 -27.2875,60.76875 -34.2,93.25 -6.9125,32.4125 -4.025,69.10625 17.41875,94.39375 27.84375,32.88125 29.9125,80.14375 71.03125,93.2375 9.14375,2.90625 62.47501,0.70625 68.97501,7.69375 5.8,6.4875 64.54375,29.44375 95.3,46.4625 0,0 0,0 0,0"
       style="fill:#1b916e;fill-opacity:1;filter:url(#filter4756)"
       id="path12328" /><path
       inkscape:connector-curvature="0"
       d="m 347.25004,600.60001 c 36.175,27.7 84.725,53.175 125.62499,42.975 19.825,6.15 40.7,9.65 68.225,7.5 27.475,-4.35 59.175,13 81.9,0.175 14.925,-2.625 23.275,-0.3 36.95,-8.55 17.9125,-20.3 45.925,-24.31875 75.025,-26.73438 42.975,-8.56562 87.3375,14.62188 123.025,-6.84062 19.825,-14.175 29.875,-39.05 31.225,-63.375 1.35,-24.325 12.4,-48.1 4.775,-71.225 24.2,-21.45 33.025,-47.875 31.25,-80.175 -3.65,-66.125 -47.325,-94.57501 -58.1,-159.92501 -2.7,-16.35 -81.525,-38.575 -87.45,-46.45 -27.125,-18.65 -57.225,-33.6 -88.525,-44.725 -23.3,-15.475 -48.85,-28.95 -75.125,-34.575 -17.92499,-2.925 -35.54999,-2.075 -54.49999,0.05 -44.5375,12.5875 -93.55,17.12496 -140.42813,24.74371 -73.05313,3.11875 -84.94688,19.74375 -136.99688,42.93125 -33.55,17.225 -130.35,49.47501 -115.225,86.70005 2.675,6.575 6.675,12.75 8.05,19.725 2.05,10.225 -1.675,20.65 -5.7,30.225 -11.05,26.225 -24.95,51.475 -31.7,79.2 -6.75,27.65 -5.2,59.225 12.575,81.475 23.075,28.925 27.45,68.175 62.425,80.45 7.775,2.725 50.90001,1.425 56.30001,7.575 4.8,5.75 51.775,24.675 76.4,38.85 0,0 0,0 0,0"
       style="fill:#1c956f;fill-opacity:1;filter:url(#filter4756)"
       id="path12330" /><path
       inkscape:connector-curvature="0"
       d="m 330.51254,537.80001 c 27.28125,24.15 65.59375,46.28125 98.16874,41.43125 17.64375,8.6875 36.925,15.6875 62.49375,14.2 22.20625,-3.2125 47.65625,9.375 66.225,0.25625 13.91875,-1.06875 21.90625,4.3 35.0125,-2.3375 14.48438,-15.4 36.36875,-19.13906 59.16875,-21.37578 37.83125,-8.89922 76.90313,16.3664 109.59375,-1.23047 17.06875,-11.18125 26.30625,-31.6375 28.26875,-51.93125 1.9625,-20.29375 10.525,-40.425 4.93125,-60.01875 20.975,-17.1125 30.74375,-38.28125 30.3625,-65.35625 -0.7875,-55.41875 -42.59375,-81.70626 -49.375,-136.71876 -1.7,-13.7625 -59.84375,-31.83125 -64.4375,-39.2625 -20.41875,-14.7875 -43.36875,-26.7 -67.24375,-35.74375 -19.375,-15.00625 -40.8875,-28.2625 -63.29375,-35.28125 -15.01874,-3.84375 -29.98749,-4.75625 -46.32499,-3.9625 -34.95312,8.86563 -73.3875,12.09371 -110.1711,17.53277 -65.13984,0.56406 -64.68516,14.63282 -110.42266,30.47344 -28.7875,12.06875 -128.0625,35.78126 -116.69375,67.42505 2.00625,5.58125 5.15625,10.8875 6.0625,16.76875 1.3625,8.61875 -2.10625,17.2125 -5.8,25.06875 -10.1375,21.54375 -22.6125,42.18125 -29.2,65.15 -6.5875,22.8875 -6.375,49.34375 7.73125,68.55625 18.30625,24.96875 24.9875,56.20625 53.81875,67.6625 6.40625,2.54375 39.32501,2.14375 43.62501,7.45625 3.8,5.0125 39.00625,19.90625 57.5,31.2375 0,0 0,0 0,0"
       style="fill:#1e986f;fill-opacity:1;filter:url(#filter4756)"
       id="path12332" /><path
       inkscape:connector-curvature="0"
       d="m 313.77504,475.00001 c 18.3875,20.6 46.4625,39.3875 70.71249,39.8875 15.46251,11.225 33.15001,21.725 56.76251,20.9 16.9375,-2.075 36.1375,5.75 50.54999,0.3375 12.9125,0.4875 20.5375,8.9 33.07501,3.875 11.05624,-10.5 26.8125,-13.95938 43.3125,-16.01719 32.6875,-9.23281 66.46875,18.11094 96.1625,4.37969 14.3125,-8.1875 22.73749,-24.225 25.3125,-40.4875 2.57499,-16.2625 8.65,-32.75 5.0875,-48.8125 17.75,-12.775 28.46249,-28.6875 29.475,-50.5375 2.07499,-44.7125 -37.86251,-68.83751 -40.65001,-113.51251 -0.69999,-11.175 -38.16249,-25.0875 -41.425,-32.075 -13.71249,-10.925 -29.5125,-19.8 -45.96249,-26.7625 -15.45001,-14.5375 -32.92501,-27.575 -51.4625,-35.9875 -12.1125,-4.7625 -24.425,-7.4375 -38.15,-7.975 -25.36875,5.14375 -53.225,7.06246 -79.91407,10.32183 -57.22656,-1.99062 -44.42343,9.52188 -83.84843,18.01563 -24.025,6.9125 -125.775,22.08751 -118.1625,48.15005 1.3375,4.5875 3.6375,9.025 4.075,13.8125 0.675,7.0125 -2.5375,13.775 -5.9,19.9125 -9.225,16.8625 -20.275,32.8875 -26.7,51.1 -6.425,18.125 -7.55,39.4625 2.8875,55.6375 13.5375,21.0125 22.525,44.2375 45.2125,54.875 5.0375,2.3625 27.75,2.8625 30.95,7.3375 2.8,4.275 26.2375,15.1375 38.6,23.625 0,0 0,0 0,0"
       style="fill:#1f9c70;fill-opacity:1;filter:url(#filter4756)"
       id="path12334" /><path
       inkscape:connector-curvature="0"
       d="m 297.03754,412.20001 c 9.49375,17.05 27.33125,32.49375 43.25625,38.34375 13.28125,13.7625 29.375,27.7625 51.03125,27.6 11.66875,-0.9375 24.61875,2.125 34.875,0.41875 11.90625,2.04375 19.16875,13.5 31.1375,10.0875 7.62812,-5.6 17.25625,-8.77969 27.45625,-10.65859 27.54375,-9.56641 56.03437,19.85546 82.73125,9.98984 11.55625,-5.19375 19.16875,-16.8125 22.35625,-29.04375 3.1875,-12.23125 6.775,-25.075 5.24375,-37.60625 14.525,-8.4375 26.18125,-19.09375 28.5875,-35.71875 4.9375,-34.00625 -33.13125,-55.96875 -31.925,-90.30625 0.3,-8.5875 -16.48125,-18.34375 -18.4125,-24.8875 -7.00625,-7.0625 -15.65625,-12.9 -24.68125,-17.78125 -11.525,-14.06875 -24.9625,-26.8875 -39.63125,-36.69375 -9.20625,-5.68125 -18.8625,-10.11875 -29.975,-11.9875 -15.78438,1.42187 -33.0625,2.0312 -49.65703,3.11089 -49.31328,-4.54532 -24.16172,4.41094 -57.27422,5.55781 -19.2625,1.75625 -123.4875,8.39375 -119.63125,28.87505 0.66875,3.59375 2.11875,7.1625 2.0875,10.85625 -0.0125,5.40625 -2.96875,10.3375 -6,14.75625 -8.3125,12.18125 -17.9375,23.59375 -24.2,37.05 -6.2625,13.3625 -8.725,29.58125 -1.95625,42.71875 8.76875,17.05625 20.0625,32.26875 36.60625,42.0875 3.66875,2.18125 16.175,3.58125 18.275,7.21875 1.8,3.5375 13.46875,10.36875 19.7,16.0125 0,0 0,0 0,0"
       style="fill:#20a071;fill-opacity:1;filter:url(#filter4756)"
       id="path12336" /><path
       inkscape:connector-curvature="0"
       d="m 310.30004,357.40001 c 0.6,13.5 8.2,25.6 15.8,36.8 11.1,16.3 25.6,33.8 45.3,34.3 6.4,0.2 13.1,-1.5 19.2,0.5 10.9,3.6 17.8,18.1 29.2,16.3 4.2,-0.7 7.7,-3.6 11.6,-5.3 22.4,-9.9 45.6,21.6 69.3,15.6 8.8,-2.2 15.6,-9.4 19.4,-17.6 3.8,-8.2 4.9,-17.4 5.4,-26.4 11.3,-4.1 23.9,-9.5 27.7,-20.9 7.8,-23.3 -28.4,-43.1 -23.2,-67.1 1.3,-6 5.2,-11.6 4.6,-17.7 -0.3,-3.2 -1.8,-6 -3.4,-8.8 -7.6,-13.6 -17,-26.2 -27.8,-37.4 -6.3,-6.6 -13.3,-12.8 -21.8,-16 -6.2,-2.3 -12.9,-3.00005 -19.4,-4.10005 -41.4,-7.1 -3.9,-0.7 -30.7,-6.9 -14.5,-3.4 -121.2,-5.3 -121.1,9.60005 0,2.6 0.6,5.3 0.1,7.9 -0.7,3.8 -3.4,6.9 -6.1,9.6 -7.4,7.5 -15.6,14.3 -21.7,23 -6.1,8.6 -9.9,19.7 -6.8,29.8 4,13.1 17.6,20.3 28,29.3 2.3,2 4.6,4.3 5.6,7.1 0.8,2.8 0.7,5.6 0.8,8.4 0,0 0,0 0,0"
       style="fill:#22a472;fill-opacity:1;filter:url(#filter4756)"
       id="path12338"
       transform="matrix(0.99040899,-0.13816671,0.13816671,0.99040899,-43.333376,60.571373)" /></g></svg>