<?xml version="1.0" encoding="UTF-8" standalone="no"?>
<!-- Created with Inkscape (http://www.inkscape.org/) -->

<svg
   xmlns:dc="http://purl.org/dc/elements/1.1/"
   xmlns:cc="http://creativecommons.org/ns#"
   xmlns:rdf="http://www.w3.org/1999/02/22-rdf-syntax-ns#"
   xmlns:svg="http://www.w3.org/2000/svg"
   xmlns="http://www.w3.org/2000/svg"
   xmlns:sodipodi="http://sodipodi.sourceforge.net/DTD/sodipodi-0.dtd"
   xmlns:inkscape="http://www.inkscape.org/namespaces/inkscape"
   width="53.433563"
   height="43.679947"
   id="svg3284"
   version="1.1"
   inkscape:version="0.46+devel"
   sodipodi:docname="New document 2">
  <defs
     id="defs3286">
    <inkscape:perspective
       sodipodi:type="inkscape:persp3d"
       inkscape:vp_x="0 : 526.18109 : 1"
       inkscape:vp_y="0 : 1000 : 0"
       inkscape:vp_z="744.09448 : 526.18109 : 1"
       inkscape:persp3d-origin="372.04724 : 350.78739 : 1"
       id="perspective3292" />
    <inkscape:perspective
       id="perspective3273"
       inkscape:persp3d-origin="0.5 : 0.33333333 : 1"
       inkscape:vp_z="1 : 0.5 : 1"
       inkscape:vp_y="0 : 1000 : 0"
       inkscape:vp_x="0 : 0.5 : 1"
       sodipodi:type="inkscape:persp3d" />
  </defs>
  <sodipodi:namedview
     id="base"
     pagecolor="#ffffff"
     bordercolor="#666666"
     borderopacity="1.0"
     inkscape:pageopacity="0.0"
     inkscape:pageshadow="2"
     inkscape:zoom="0.35"
     inkscape:cx="-9.7117887"
     inkscape:cy="-26.731456"
     inkscape:document-units="px"
     inkscape:current-layer="layer1"
     showgrid="false"
     inkscape:window-width="607"
     inkscape:window-height="412"
     inkscape:window-x="2608"
     inkscape:window-y="288"
     inkscape:window-maximized="0" />
  <metadata
     id="metadata3289">
    <rdf:RDF>
      <cc:Work
         rdf:about="">
        <dc:format>image/svg+xml</dc:format>
        <dc:type
           rdf:resource="http://purl.org/dc/dcmitype/StillImage" />
        <dc:title></dc:title>
      </cc:Work>
    </rdf:RDF>
  </metadata>
  <g
     inkscape:label="Layer 1"
     inkscape:groupmode="layer"
     id="layer1"
     transform="translate(-384.71179,-461.95078)">
    <g
       transform="translate(-282.91802,122.30475)"
       id="g3257">
      <g
         style="fill:#949494;fill-opacity:1"
         transform="matrix(0.22823066,0,0,0.22823066,645.19073,322.43212)"
         inkscape:label="Layer 1"
         id="layer1-7">
        <g
           style="fill:#949494;fill-opacity:1"
           id="g6408"
           transform="translate(17.526129,0)">
          <path
             style="fill:#949494;fill-opacity:1;fill-rule:nonzero;stroke:none"
             d="m 290.12328,115.07966 c -5.46064,-0.20052 -9.74704,-4.80372 -9.56466,-10.27218 0.0841,-2.64754 1.21583,-5.0947 3.13905,-6.90149 1.93101,-1.80627 4.45313,-2.74648 7.10068,-2.64688 5.46845,0.19137 9.75604,4.7869 9.57234,10.2637 -0.0828,2.6392 -1.19901,5.08622 -3.13004,6.90083 -1.94002,1.79845 -4.46215,2.7388 -7.11751,2.65602 l 1.4e-4,0 z m 2.2983,-8.98258 c 2.43032,0 4.40267,-1.31476 4.40267,-2.92951 0,-1.62323 -1.97247,-2.93866 -4.40267,-2.93866 -2.43154,0 -4.3962,1.31543 -4.3962,2.93866 0,1.61475 1.96466,2.92951 4.3962,2.92951"
             id="path1977" />
          <path
             style="fill:#949494;fill-opacity:1;fill-rule:evenodd;stroke:none"
             d="m 177.77915,172.0346 0.35143,-0.033 0.057,-0.41614 c -0.09,-0.32674 -0.30193,-0.62036 -0.62933,-4.67085 -0.2779,-3.58485 -0.84123,-13.41571 4.10688,-18.29079 1.91955,-1.90255 4.85041,-3.59305 7.16205,-4.13988 9.48006,-2.311 21.7856,-0.71053 32.29451,11.44029 5.42256,6.27899 8.08447,9.14514 9.41536,10.42718 l 0.4568,0.42444 0.55566,0.40029 c 0.43263,0.24489 18.06175,8.36159 18.06175,8.36159 l 0.3591,-0.09 0.009,-0.38313 c -0.11419,-0.1307 -11.17005,-14.41297 -9.211,-26.17923 1.55162,-9.37406 9.01444,-8.53296 19.32807,-7.35745 3.3723,0.38378 7.21025,0.82473 11.17889,0.91476 11.0799,0.0654 23.01883,-1.96775 30.37628,-5.18533 4.76036,-2.08196 7.79775,-3.45417 9.7008,-5.18534 0.68506,-0.56333 1.04416,-1.49393 1.41208,-2.47405 l 0.25374,-0.66103 c 0.30959,-0.79237 0.75873,-2.49055 0.95543,-3.41349 0.09,-0.40795 0.13068,-0.84941 -0.15604,-1.0695 l -1.02013,0.18774 c -3.22511,1.9354 -11.30192,5.62627 -18.86243,5.77335 -9.36588,0.19539 -28.24469,-9.42356 -30.21258,-10.44433 l -0.18774,-0.22009 c -0.47445,-1.1273 -3.3076,-7.83127 -3.90392,-9.24336 13.58824,8.94909 24.85586,13.89785 33.48717,14.6654 9.6031,0.85708 17.09125,-4.38477 20.2922,-6.62289 0.62803,-0.42444 1.10249,-0.76755 1.29789,-0.84057 l 0.20423,-0.33493 c -0.53162,-3.37231 -5.55327,-19.70354 -9.34169,-23.62333 -1.05301,-1.07781 -1.89423,-2.12262 -3.59305,-3.11923 -13.72648,-8.001978 -46.3154,-12.83653 -47.8417,-13.056617 l -0.26139,0.07353 -0.0977,0.228399 c 0,0 -0.12302,6.761123 -0.13954,7.512835 -3.33177,-1.110809 -27.52531,-8.925574 -50.2105,-9.717299 -19.22893,-0.677658 -45.49818,-1.592418 -82.61907,21.22216 l -1.09431,0.68571 c -17.45789,10.892822 -29.510359,24.317372 -35.814037,39.929872 -1.97607,4.90744 -4.637854,15.98864 -2.00907,26.41582 1.143159,4.56497 3.258113,9.13748 6.116594,13.23681 6.442691,9.25934 17.261843,15.40894 28.914033,16.44543 16.44542,1.46925 28.90636,-5.9199 33.33998,-19.75304 3.04556,-9.54541 0,-23.54914 -11.67688,-30.69405 -9.49657,-5.8222 -19.72003,-4.4913 -25.64006,-0.57982 -5.14415,3.41297 -8.05901,8.70419 -8.00198,14.52651 0.1142,10.31299 9.00678,15.80025 15.39243,15.80856 1.86122,0 3.72309,-0.31843 5.82986,-1.00414 0.74353,-0.22905 1.45341,-0.50617 2.22916,-0.9883 l 0.23723,-0.15473 0.15473,-0.09 -0.057,0.0247 c 1.46159,-0.98011 2.34335,-2.59644 2.34335,-4.32774 0,-0.47381 -0.0735,-0.95542 -0.20423,-1.43742 -0.75107,-2.60474 -3.33178,-4.18873 -6.01006,-3.69906 l -0.3591,0.0735 -0.4898,0.16305 -0.71052,0.23723 c -1.46978,0.36729 -2.58059,0.39211 -2.80898,0.39964 -0.75107,-0.0489 -4.43428,-1.15069 -4.43428,-5.18469 l 0,-0.0488 c 0.009,-1.4781 0.60452,-2.51524 0.93126,-3.07857 1.13485,-1.79652 4.27058,-3.56005 8.50815,-3.18458 5.55326,0.47329 9.55425,3.32347 12.20785,8.69653 2.46639,4.99695 1.82134,11.13771 -1.65763,15.64487 -3.45417,4.46727 -9.60246,6.36149 -17.78464,5.47076 -8.2474,-0.90593 -15.22042,-5.65032 -19.123707,-13.04011 -3.821442,-7.21857 -4.03399,-15.7844 -0.54683,-22.36532 8.353417,-15.75972 24.120657,-15.59667 32.768467,-14.10208 12.80353,2.21266 24.42324,12.46028 29.59208,26.0892 0.82472,2.17211 1.24904,3.89497 1.61632,5.46258 l 0.55566,2.35985 14.46053,7.06305 0.19669,0.13888 3.9e-4,-1.3e-4 z M 280.56753,95.11467 c -2.72649,2.53108 -4.28708,5.98525 -4.41778,9.70899 -0.25242,7.67524 5.774,14.14261 13.44872,14.42882 3.74025,0.12238 7.28378,-1.19266 10.00273,-3.74024 2.71895,-2.53941 4.27942,-5.98525 4.41777,-9.70081 0.2614,-7.68354 -5.76515,-14.1591 -13.45624,-14.43636 -3.72374,-0.12237 -7.27625,1.19202 -9.9952,3.7396"
             id="path1979" />
        </g>
      </g>
      <g
         transform="matrix(0.22528757,0,0,0.22528757,672.23961,370.44302)"
         style="fill:#949494;fill-opacity:1;fill-rule:evenodd;stroke:none"
         id="g6943">
        <path
           d="m 106.541,14.3379 c 0,0 -12.8554,15.4931 -12.1972,16.4795 0.9121,-0.9864 -4.6153,-16.6465 -4.6153,-16.6465 0,0 -1.1533,-3.2959 -4.7734,-14.086 0,0 -13.1035,0 -13.1035,0 0,0 0,-0.0849 0,-0.0849 0,0 -31.8037,0.0849 -31.8037,0.0849 0,0 -23.9815,0 -23.9815,0 0,0 -2.3935,10.1319 -2.3935,10.1319 0,0 18.0527,0 18.0527,0 0,0 4.2842,0 4.2842,0 11.6133,0 18.7031,4.6972 16.7236,13.0215 -2.1396,9.0644 -12.2754,12.9365 -23.0722,12.9365 0,0 -4.0391,0 -4.0391,0 0,0 5.1924,-22.166 5.1924,-22.166 0,0 -18.0479,0 -18.0479,0 0,0 -7.66309,32.3787 -7.66309,32.3787 0,0 25.62889,0 25.62889,0 19.2813,0 37.5723,-10.1317 40.8711,-23.1492 0.5772,-2.3907 0.4961,-8.4063 -0.9863,-11.9502 0,-0.084 -0.084,-0.2471 -0.166,-0.4913 -0.0811,-0.0839 -0.166,-0.6611 0.166,-0.7461 0.1621,-0.081 0.4922,0.2481 0.4922,0.3321 0,0 0.166,0.414 0.3281,0.7431 0,0 16.3135,46.0586 16.3135,46.0586 0,0 41.537,-46.8857 41.537,-46.8857 0,0 17.548,-0.082 17.548,-0.082 0,0 4.286,0 4.286,0 11.621,0 18.79,4.6972 16.809,13.0215 -2.146,9.0644 -12.356,12.9365 -23.153,12.9365 0,0 -4.124,0 -4.124,0 0,0 5.276,-22.166 5.276,-22.166 0,0 -18.046,0 -18.046,0 0,0 -7.664,32.3787 -7.664,32.3787 0,0 25.629,0 25.629,0 19.281,0 37.735,-10.1317 40.786,-23.1492 3.13,-13.0215 -10.382,-23.1534 -29.831,-23.1534 0,0 -16.97,0 -16.97,0 0,0 -21.262,0 -21.262,0 -10.132,11.9424 -12.031,14.253 -12.031,14.253 z"
           id="path6945"
           style="fill:#949494;fill-opacity:1"
           sodipodi:nodetypes="cccccccccccscccccccsssccccccsccccccccccc" />
      </g>
    </g>
  </g>
</svg>
