<?xml version="1.0" encoding="UTF-8" standalone="no"?>
<!-- Created with Inkscape (http://www.inkscape.org/) -->

<svg
   xmlns:svg="http://www.w3.org/2000/svg"
   xmlns="http://www.w3.org/2000/svg"
   xmlns:xlink="http://www.w3.org/1999/xlink"
   xmlns:inkscape="http://www.inkscape.org/namespaces/inkscape"
   version="1.1"
   width="900"
   height="450"
   id="svg4719">
  <defs
     id="defs4721">
    <radialGradient
       cx="685.69452"
       cy="92.231468"
       r="432.43262"
       fx="685.69452"
       fy="92.231468"
       id="radialGradient4537"
       xlink:href="#linearGradient7856"
       gradientUnits="userSpaceOnUse"
       gradientTransform="matrix(0.73228149,0,0,0.84910898,166.98414,-119.01036)" />
    <linearGradient
       id="linearGradient7856">
      <stop
         id="stop7858"
         style="stop-color:#4a5d37;stop-opacity:1"
         offset="0" />
      <stop
         id="stop7860"
         style="stop-color:#363636;stop-opacity:1"
         offset="1" />
    </linearGradient>
    <radialGradient
       cx="685.69452"
       cy="92.231468"
       r="432.43262"
       fx="685.69452"
       fy="92.231468"
       id="radialGradient4757"
       xlink:href="#linearGradient7856"
       gradientUnits="userSpaceOnUse"
       gradientTransform="matrix(0.76106139,0,0,0.88248039,178.48769,-736.70463)" />
    <inkscape:path-effect
       effect="spiro"
       id="path-effect8530" />
    <inkscape:path-effect
       effect="skeletal"
       id="path-effect8581" />
    <inkscape:path-effect
       effect="spiro"
       id="path-effect8532" />
    <inkscape:path-effect
       effect="skeletal"
       id="path-effect8666" />
    <inkscape:path-effect
       effect="spiro"
       id="path-effect8524" />
    <inkscape:path-effect
       effect="skeletal"
       id="path-effect8697" />
    <inkscape:path-effect
       effect="spiro"
       id="path-effect6341" />
    <inkscape:path-effect
       effect="skeletal"
       id="path-effect8706" />
    <inkscape:path-effect
       effect="spiro"
       id="path-effect8775" />
    <inkscape:path-effect
       effect="skeletal"
       id="path-effect8715" />
    <inkscape:path-effect
       effect="spiro"
       id="path-effect456" />
    <inkscape:path-effect
       effect="spiro"
       id="path-effect1232" />
    <inkscape:path-effect
       effect="skeletal"
       id="path-effect1247" />
    <inkscape:path-effect
       effect="spiro"
       id="path-effect8459" />
    <inkscape:path-effect
       effect="skeletal"
       id="path-effect8461" />
    <filter
       color-interpolation-filters="sRGB"
       id="filter9012-1">
      <feBlend
         in2="BackgroundImage"
         mode="multiply"
         id="feBlend9014-4" />
    </filter>
  </defs>
  <g
     transform="translate(0,-602.35975)"
     id="layer1">
    <g
       transform="matrix(0.56955321,0,0,0.56955321,93.081096,658.50588)"
       id="g8567"
       style="fill:#282828;fill-opacity:1;stroke:none;display:inline;filter:url(#filter9012)">
      <path
         d="m -1.6640117,527.6528 c 0,0 1.37250767,-2.00388 5.3859461,-6.41524 2.0067193,-2.20569 4.6806539,-5.0091 8.2330936,-8.40752 3.552439,-3.39841 7.983355,-7.39394 13.545713,-11.91482 5.562358,-4.52089 12.256941,-9.56992 20.373134,-14.96963 8.116192,-5.3997 17.6561,-11.15366 28.9244,-16.93104 11.2683,-5.77738 24.269089,-11.58267 39.276515,-16.87129 15.00742,-5.28862 32.02842,-10.0661 51.22476,-13.49913 5.47252,-0.9779 11.11862,-1.84398 16.93781,-2.57688 27.9116,-3.51534 57.49102,-3.44218 87.14948,0.64176 29.65846,4.08394 59.37454,12.17666 87.52532,24.0931 1e-5,10e-6 2e-5,10e-6 3e-5,2e-5 17.68875,7.50008 34.53806,16.32859 51.12494,24.98797 16.77223,8.74223 33.32921,17.33014 50.23312,24.31733 17.35944,7.16542 35.11746,12.70375 53.0007,15.1136 9.34487,1.25668 18.74006,1.6749 27.93674,1.11885 9.19669,-0.55606 18.19448,-2.08685 26.77767,-4.68047 8.75155,-2.63898 17.04818,-6.38078 24.63033,-10.99313 7.58216,-4.61236 14.44939,-10.09507 20.41213,-16.22078 6.54054,-6.71891 11.98393,-14.20749 16.25465,-22.03654 4.27071,-7.82905 7.36881,-15.9982 9.30901,-24.15075 0.0284,-0.11946 0.0566,-0.23892 0.0846,-0.35837 2.23705,-9.56172 2.93263,-19.05859 2.4127,-28.07592 -0.51994,-9.01734 -2.25547,-17.5587 -4.91641,-25.39399 -3.29047,-9.68519 -7.9817,-18.25988 -13.38393,-25.5897 -5.40224,-7.32982 -11.51994,-13.42096 -17.88439,-18.33517 -4.27742,-3.30012 -8.65819,-6.06395 -13.01597,-8.37172 -4.35778,-2.30778 -8.69329,-4.15969 -12.92154,-5.63491 -8.4565,-2.95045 -16.46244,-4.39992 -23.68614,-4.93317 -5.0158,-0.36856 -9.65224,-0.29584 -13.88293,0.0292 -4.23069,0.32508 -8.05713,0.90322 -11.49151,1.59532 -6.86875,1.38418 -12.16554,3.19367 -16.17742,4.76921 -4.01188,1.57553 -6.75106,2.92966 -8.50858,3.82075 -1.75753,0.8911 -2.53438,1.32803 -2.53438,1.32803 0,0 1.11708,-0.68445 3.31838,-1.85775 2.2013,-1.1733 5.49564,-2.83133 9.91187,-4.55703 4.41623,-1.72571 9.96471,-3.51594 16.58887,-4.78591 6.62416,-1.26997 14.33283,-2.01681 22.83772,-1.5326 7.86044,0.45118 16.36485,1.9688 25.02473,4.95431 8.65989,2.9855 17.47586,7.44171 25.69154,13.62721 6.95016,5.24068 13.41907,11.68791 18.97763,19.20237 5.55856,7.51447 10.20544,16.09536 13.47158,25.44214 2.95245,8.45865 4.76966,17.50162 5.30749,26.7841 0.53784,9.28248 -0.20389,18.8028 -2.32427,28.13968 -2.01753,8.87313 -5.2619,17.55021 -9.61471,25.71786 -4.35282,8.16766 -9.81327,15.82457 -16.21354,22.64983 -12.59245,13.42344 -28.73402,23.55475 -46.17311,29.27749 -18.55952,6.07312 -38.23787,7.21396 -56.85846,5.16407 -19.60796,-2.15459 -38.09944,-7.64684 -55.03965,-14.1967 -8.41231,-3.25043 -16.46155,-6.76018 -24.18398,-10.32413 -7.72242,-3.56395 -15.11825,-7.18157 -22.20667,-10.69181 -1.67893,-0.83142 -3.35288,-1.66272 -5.02241,-2.49245 -17.2091,-8.54825 -34.01411,-16.92043 -50.93964,-23.74737 -16.49619,-6.65676 -33.1099,-11.85776 -49.54021,-15.7577 -16.43031,-3.89993 -32.6771,-6.49918 -48.49673,-7.97718 -15.81964,-1.47801 -31.21218,-1.83516 -45.99188,-1.26982 -14.7797,0.56533 -28.94679,2.05273 -42.37145,4.25097 -14.41221,2.3588 -27.96706,5.53336 -40.57896,9.21279 -12.6119,3.67942 -24.2816,7.86344 -34.976761,12.26965 -21.390322,8.81243 -38.858838,18.47895 -52.583915,27.13059 -13.725076,8.65164 -23.740805,16.28528 -30.3925246,21.60181 -3.32586,2.65827 -5.8100299,4.74639 -7.47098748,6.15954 -1.66095753,1.41314 -2.49951362,2.15103 -2.49951362,2.15103 z"
         id="path8522"
         style="fill:#282828;fill-opacity:1;stroke:none" />
      <path
         d="m -0.23165795,529.23615 c 0,0 1.22238685,-2.14272 4.99399325,-6.80421 1.8858031,-2.33074 4.4166464,-5.28752 7.8158417,-8.86549 3.399196,-3.57797 7.666746,-7.7794 13.070658,-12.52911 5.403913,-4.74971 11.945059,-10.0507 19.930036,-15.71802 7.984976,-5.66731 17.416071,-11.70477 28.615369,-17.76653 11.199298,-6.06177 24.171224,-12.15258 39.20377,-17.70146 15.03255,-5.54889 32.13319,-10.56159 51.46754,-14.16335 4.70782,-0.87608 9.54526,-1.66645 14.51187,-2.35727 14.23472,-1.97994 28.92348,-2.99483 43.84844,-2.96874 14.92496,0.0261 30.0854,1.09319 45.25179,3.23212 15.16639,2.13894 30.33793,5.34959 45.28488,9.61827 14.94695,4.26868 29.6685,9.59515 43.94677,15.92396 17.81929,7.91444 34.6878,17.19246 51.18729,26.38573 16.72163,9.30131 33.11768,18.52791 49.81403,26.31347 17.26506,8.04296 34.94705,14.51125 52.85139,18.17025 9.27362,1.8909 18.62463,3.02597 27.85068,3.24151 9.22605,0.21554 18.32689,-0.48897 27.12435,-2.22344 9.22288,-1.80933 18.06818,-4.78551 26.31631,-8.64645 8.24814,-3.86093 15.8987,-8.60632 22.79321,-13.96875 11.6388,-9.05316 21.13408,-19.88056 28.15393,-31.30838 2.29287,-3.73263 4.33711,-7.52334 6.1381,-11.34489 4.33686,-9.20713 7.2507,-18.54019 9.06705,-27.62935 1.81636,-9.08917 2.53492,-17.93756 2.43503,-26.32944 -0.12467,-10.6961 -1.57446,-20.67056 -3.86311,-29.72701 -2.28866,-9.05644 -5.41718,-17.20114 -9.00003,-24.42287 -3.77491,-7.59902 -8.01166,-14.16054 -12.30834,-19.83551 -4.29667,-5.67498 -8.65728,-10.46588 -12.83783,-14.54603 -4.18054,-4.08015 -8.18389,-7.45107 -11.87264,-10.27878 -3.68875,-2.82771 -7.06489,-5.11299 -10.06152,-6.99756 -5.99327,-3.76915 -10.44334,-5.96933 -13.30591,-7.34729 -2.86258,-1.37795 -4.15547,-1.92318 -4.15547,-1.92318 0,0 2.14876,0.78897 6.04663,2.56615 3.89787,1.77718 9.54851,4.56928 16.25923,8.91185 6.71072,4.34257 14.48677,10.26054 22.26728,18.23041 7.7805,7.96987 15.5655,18.00849 21.88157,30.21555 4.00927,7.76585 7.36928,16.36835 9.77805,25.62781 2.40878,9.25947 3.86545,19.17538 4.10513,29.43852 0.21777,9.07442 -0.51643,18.43324 -2.34848,27.78765 -1.83204,9.35441 -4.76224,18.70314 -8.89947,27.70229 -3.89569,8.45225 -8.83598,16.53837 -14.68556,24.03046 -5.84959,7.4921 -12.60757,14.38928 -20.08793,20.46664 -14.60348,11.87821 -32.03538,20.6395 -50.51903,24.86111 -19.13302,4.33821 -38.88803,3.97722 -57.48179,0.77644 -19.7119,-3.38572 -38.23706,-9.70641 -55.22923,-17.02197 -1e-5,0 -2e-5,-10e-6 -3e-5,-10e-6 -9.33052,-4.01489 -18.22775,-8.29337 -26.74483,-12.57331 -8.51709,-4.27993 -16.65441,-8.56045 -24.43714,-12.64271 -1e-5,0 -1e-5,0 -2e-5,-1e-5 -0.026,-0.0136 -0.052,-0.0273 -0.078,-0.0409 -17.12733,-8.97854 -33.90714,-17.64955 -50.83974,-24.71832 -16.41629,-6.85712 -32.9864,-12.22171 -49.39254,-16.24861 -16.40614,-4.02691 -32.64815,-6.71656 -48.4689,-8.25142 -15.82076,-1.53486 -31.2203,-1.91539 -46.003,-1.34502 -14.78269,0.57037 -28.94876,2.09117 -42.36215,4.3448 -14.38584,2.41548 -27.90514,5.67024 -40.47036,9.44277 -12.56521,3.77254 -24.17713,8.06256 -34.804736,12.57888 -21.255205,9.03265 -38.547992,18.93388 -52.094191,27.78824 -13.546199,8.85436 -23.381855,16.65964 -29.9016112,22.09472 -3.2598782,2.71753 -5.690093,4.85194 -7.3140541,6.29656 -1.62396122,1.44463 -2.44253565,2.19923 -2.44253565,2.19923 z"
         id="path8526"
         style="fill:#282828;fill-opacity:1;stroke:none" />
      <path
         d="m -0.10822298,529.13315 c 0,0 1.28467408,-2.13364 5.12111698,-6.79798 1.9182214,-2.33217 4.4822899,-5.29306 7.909488,-8.87886 3.427197,-3.58581 7.717513,-7.79879 13.134229,-12.56415 5.416716,-4.76535 11.960697,-10.08607 19.935259,-15.77712 7.974562,-5.69104 17.381991,-11.75627 28.542597,-17.84909 11.160607,-6.09282 24.078806,-12.21809 39.042403,-17.80232 14.96361,-5.58423 31.98005,-10.6334 51.21669,-14.26586 13.31982,-2.51256 27.68714,-4.33311 43.06555,-5.12403 24.47604,-1.25882 49.92716,0.33877 75.3287,5.04074 25.40155,4.70197 50.7448,12.50759 74.9652,23.36723 18.16528,8.16328 35.4242,17.82831 52.31514,27.5721 1e-5,0 2e-5,10e-6 3e-5,10e-6 16.90282,9.7332 33.49064,19.55032 50.43738,28.09006 17.20829,8.66066 34.87443,16.00616 53.00632,20.69744 18.34978,4.73529 37.22276,6.76468 55.40986,4.64168 10.37554,-1.18877 20.51698,-3.77183 30.14312,-7.47357 9.62614,-3.70174 18.73629,-8.52183 27.09422,-14.19242 8.95793,-6.08241 17.07777,-13.14813 24.16994,-20.895 7.09216,-7.74686 13.15621,-16.17451 18.07359,-25.00083 5.27403,-9.46396 9.23934,-19.34536 12.04283,-29.24796 2.80348,-9.90259 4.44536,-19.82602 5.10076,-29.45541 0.043,-0.63123 0.0819,-1.26121 0.11689,-1.88987 0.64972,-11.66073 -0.0456,-22.87673 -1.74769,-33.41675 -1.70208,-10.54002 -4.4113,-20.40673 -7.83955,-29.49425 -3.13888,-8.31778 -6.8475,-15.98373 -10.8925,-23.00569 -4.04501,-7.02196 -8.42721,-13.40077 -12.9692,-19.17565 -9.08399,-11.54977 -18.77384,-20.67492 -28.15313,-27.89699 -6.62636,-5.10047 -13.09956,-9.2526 -19.22092,-12.69431 -6.12135,-3.44171 -11.8936,-6.17334 -17.21529,-8.39662 -5.32168,-2.22328 -10.19474,-3.93829 -14.57994,-5.30741 -4.38521,-1.36913 -8.28388,-2.39225 -11.6949,-3.19274 -6.82204,-1.60098 -11.684,-2.34231 -14.80701,-2.79316 -3.123,-0.45084 -4.51598,-0.59867 -4.51598,-0.59867 0,0 2.21468,0.14128 6.36274,0.6489 4.14806,0.50763 10.23652,1.39731 17.86705,3.22288 7.63054,1.82557 16.81144,4.60156 26.90643,8.98153 10.09499,4.37998 21.10861,10.37533 32.06662,18.54337 10.4874,7.82184 20.87545,17.62869 30.1749,29.44624 9.29945,11.81754 17.50464,25.64615 23.51142,41.09617 10e-6,1e-5 10e-6,3e-5 2e-5,4e-5 3.7952,9.77079 6.66188,20.16775 8.43394,30.95485 1.77206,10.78711 2.44916,21.96316 1.90341,33.23207 -1.02293,21.30599 -6.50848,43.01619 -16.84183,62.53639 -10.20236,19.23933 -25.08718,36.04152 -42.68674,48.70035 -8.92931,6.42926 -18.57692,11.79875 -28.62325,15.92941 -10.04634,4.13067 -20.49001,7.02157 -31.021,8.55332 -20.2096,2.91094 -40.25154,1.04077 -58.63317,-3.21832 -10.19203,-2.3584 -19.91499,-5.40748 -29.15282,-8.83865 -9.23782,-3.43117 -17.99062,-7.2436 -26.24782,-11.17751 -0.0456,-0.0217 -0.0911,-0.0434 -0.13667,-0.0651 -17.99431,-8.57755 -34.98083,-18.15546 -51.63542,-27.318 -17.40727,-9.57193 -34.49303,-18.7104 -51.74295,-26.13547 -16.44724,-7.08394 -33.05198,-12.62331 -49.48547,-16.78864 -16.43348,-4.16533 -32.69568,-6.95701 -48.52457,-8.56938 -15.82889,-1.61236 -31.22462,-2.04584 -45.9911,-1.51239 -14.76647,0.53345 -28.904,2.03339 -42.27897,4.27653 -10e-6,0 -2e-5,0 -3e-5,0 -14.48794,2.42789 -28.0808,5.72384 -40.69437,9.54933 -12.61356,3.82549 -24.24871,8.18033 -34.880256,12.76235 -21.263083,9.16405 -38.486751,19.19699 -51.943304,28.14736 -13.456553,8.95037 -23.183338,16.81787 -29.621471,22.286 -3.2190667,2.73407 -5.6149906,4.87817 -7.2151434,6.32817 -1.60015274,1.45001 -2.40537858,2.2057 -2.40537858,2.2057 z"
         id="path8528"
         style="color:#000000;fill:#282828;fill-opacity:1;fill-rule:nonzero;stroke:none;stroke-width:1.15991175px;marker:none;visibility:visible;display:inline;overflow:visible;enable-background:accumulate" />
      <path
         d="m -0.06187712,529.09365 c 0,0 0.620077,-1.73252 2.86940972,-5.43022 1.1246663,-1.84885 2.6616689,-4.1877 4.774058,-7.02053 2.1123891,-2.83283 4.8000874,-6.16097 8.2552664,-9.9508 3.455178,-3.78983 7.678166,-8.04308 12.888574,-12.6656 5.210407,-4.62251 11.409233,-9.61646 18.833854,-14.79797 7.424621,-5.1815 16.077056,-10.55315 26.190192,-15.80567 10.113135,-5.25252 21.690462,-10.38891 34.919523,-14.9324 8.34785,-2.86705 17.02988,-5.32694 25.96258,-7.32597 13.08908,-2.92624 26.69762,-4.85476 40.53008,-5.72663 13.83247,-0.87188 27.88734,-0.68731 41.87253,0.53303 13.98519,1.22034 27.89922,3.47584 41.47609,6.6725 13.57687,3.19665 26.8153,7.33357 39.49623,12.25472 7.18903,2.76576 14.30249,5.8582 21.08006,9.4346 6.77756,3.5764 13.21816,7.63707 19.10088,12.30237 6.26897,4.95687 11.8263,10.69721 16.29867,16.93323 4.47237,6.23603 7.85883,12.96652 9.91156,19.94569 1.76031,6.01356 2.47402,12.14911 2.25465,18.04582 -0.21938,5.8967 -1.37151,11.55417 -3.33446,16.716 -2.27343,5.97882 -5.64366,11.26099 -9.60222,15.60821 -3.76423,4.13382 -8.10107,7.39015 -12.68102,9.67168 -5.60513,2.79635 -11.56053,4.11236 -17.17173,4.25278 -5.61119,0.14043 -10.88524,-0.89388 -15.45454,-2.81072 -2.93601,-1.22531 -5.58732,-2.82105 -7.92181,-4.62992 -2.33448,-1.80888 -4.35263,-3.83141 -6.0484,-5.94993 -3.39155,-4.23704 -5.48103,-8.83331 -6.43348,-13.21335 -1.03374,-4.6385 -0.87928,-9.04908 -0.12855,-12.86503 0.75074,-3.81596 2.10181,-7.05197 3.66333,-9.67602 1.06677,-1.804 2.24219,-3.34128 3.42133,-4.65362 1.17914,-1.31235 2.3631,-2.40033 3.49027,-3.31083 2.25435,-1.821 4.26575,-2.93947 5.85027,-3.69144 1.58452,-0.75198 2.7552,-1.14021 3.51368,-1.37382 0.75848,-0.23361 1.10986,-0.31072 1.10986,-0.31072 0,0 -0.48048,0.15283 -1.38051,0.51878 -0.90002,0.36596 -2.22248,0.95066 -3.83923,1.90877 -1.61676,0.95811 -3.53226,2.29626 -5.4943,4.17014 -1.96203,1.87387 -3.97492,4.2897 -5.59508,7.3065 -1.48101,2.73313 -2.65105,6.01595 -3.2023,9.68661 -0.55125,3.67066 -0.48304,7.73187 0.54301,11.77399 1.05493,4.3195 3.30073,8.68078 6.62743,12.52 3.32671,3.83922 7.73423,7.15484 12.82558,9.16531 4.46632,1.7893 9.53131,2.5917 14.72123,2.3116 5.18991,-0.28011 10.5024,-1.64269 15.31585,-4.12294 4.50914,-2.30764 8.63032,-5.62068 12.0776,-9.65536 3.44728,-4.03469 6.21945,-8.78938 8.02016,-13.90836 3.51367,-9.94329 3.37492,-21.43042 -0.0876,-31.76605 -4.36437,-13.18897 -14.17818,-24.41724 -25.48183,-32.66786 -5.97271,-4.3482 -12.40176,-7.90994 -18.98092,-10.95301 -6.57917,-3.04306 -13.30672,-5.56933 -19.91308,-7.81618 -11.20902,-3.79499 -22.09273,-6.74209 -32.27767,-8.98842 -22.58639,-4.98151 -44.9011,-7.05281 -66.05534,-6.82689 -21.15423,0.22592 -41.14731,2.74351 -59.42099,6.7961 -11.84763,2.6265 -22.97927,5.8934 -33.32418,9.54849 -10.344912,3.65509 -19.90366,7.69799 -28.650698,11.89487 -17.494075,8.39377 -31.719909,17.37599 -42.855072,25.36792 -11.135163,7.99193 -19.209255,14.99048 -24.5578334,19.86986 -5.3485783,4.87937 -8.00099372,7.63669 -8.00099372,7.63669 z"
         id="path8534"
         style="color:#000000;fill:#282828;fill-opacity:1;fill-rule:nonzero;stroke:none;stroke-width:1.15991175px;marker:none;visibility:visible;display:inline;overflow:visible;enable-background:accumulate" />
      <path
         d="m 538,330.34085 c -14.95233,5.23837 -29.43324,9.42311 -45,28 -5.43393,6.48468 -13.73621,5.38205 -9,-1 7.98629,-10.76153 30.28103,-24.24199 54,-27 z"
         id="path8559"
         style="fill:#282828;fill-opacity:1;stroke:none" />
      <path
         d="m 564.02414,248.84785 c -14.42903,-1.1235 -28.07614,-2.95439 -47.928,6.8478 -6.92972,3.42168 -13.46511,-0.55578 -7.1565,-4.14843 10.63773,-6.058 34.2389,-9.12309 55.0845,-2.69937 z"
         id="path8563"
         style="fill:#282828;fill-opacity:1;stroke:none" />
      <path
         d="m 597.88877,303.76725 c -11.97234,-4.76655 -23.09296,-9.92809 -42.56224,-6.83681 -6.79619,1.07906 -11.30269,-4.02923 -4.98946,-5.41773 10.64546,-2.34137 31.5233,1.28632 47.5517,12.25454 z"
         id="path8565"
         style="fill:#282828;fill-opacity:1;stroke:none" />
      <g
         transform="matrix(0.99215419,-0.12502022,0.12502022,0.99215419,-95.612302,34.373969)"
         id="g8777"
         style="fill:#282828;fill-opacity:1;stroke:none">
        <path
           d="m 24.89297,516.13213 c 0,0 0.389188,-1.51303 1.998942,-4.68155 1.609755,-3.16853 4.435162,-8.01025 9.566469,-14.48335 2.565653,-3.23655 5.712454,-6.87651 9.603119,-10.87087 3.890665,-3.99435 8.525644,-8.34416 14.080659,-12.95261 5.555014,-4.60845 12.030961,-9.47672 19.606623,-14.44334 7.575661,-4.96663 16.252561,-10.03283 26.194578,-14.95435 16.99712,-8.41396 35.98788,-15.08757 55.83539,-19.62724 14.18104,-3.25158 28.80891,-5.42603 43.46355,-6.53378 14.65464,-1.10774 29.33328,-1.14958 43.6581,-0.26125 14.32482,0.88834 28.29375,2.70536 41.60803,5.20763 13.31429,2.50228 25.97305,5.68799 37.77915,9.23122 4.77577,1.42863 9.41237,2.90363 13.98812,4.064 4.57576,1.16036 9.091,2.00571 13.57441,2.28178 3.76601,0.23127 7.49208,0.0495 11.0346,-0.6291 1.07707,-0.20631 2.1379,-0.45514 3.18004,-0.74783 4.8492,-1.36127 9.2541,-3.71362 12.75095,-6.88749 2.20822,-2.00831 4.02511,-4.33926 5.40915,-6.82757 1.38404,-2.48831 2.33558,-5.13448 2.8398,-7.81474 0,0 0,0 0,-10e-6 0.57155,-3.05603 0.53998,-6.1233 0.0144,-9.00655 -0.5256,-2.88326 -1.5453,-5.58365 -2.96161,-7.97998 -1.67823,-2.82574 -3.89154,-5.1613 -6.34872,-6.94491 -2.45718,-1.78361 -5.15999,-3.01681 -7.91387,-3.70564 -3.46127,-0.85161 -6.89358,-0.79794 -9.99175,-0.13179 -3.09818,0.66615 -5.86785,1.94553 -8.19853,3.60316 -2.77811,2.00824 -4.80854,4.46366 -6.23257,6.94634 -1.42403,2.48268 -2.24579,5.00013 -2.65573,7.35084 -0.53836,3.17878 -0.33742,5.93242 0.0846,8.17448 0.42205,2.24207 1.07076,3.98687 1.66063,5.31114 0.58987,1.32428 1.12471,2.23396 1.48222,2.8207 0.35752,0.58675 0.5406,0.85157 0.5406,0.85157 0,0 -0.26681,-0.33256 -0.72802,-1.00786 -0.46121,-0.67529 -1.11587,-1.69701 -1.79192,-3.10742 -0.67605,-1.41041 -1.37301,-3.2146 -1.82955,-5.41995 -0.45654,-2.20535 -0.67238,-4.81727 -0.30242,-7.72871 0.3437,-2.5885 1.15227,-5.32952 2.58273,-7.99334 1.43047,-2.66383 3.48471,-5.25218 6.24531,-7.39599 2.55194,-1.9407 5.57536,-3.4187 8.91084,-4.21587 3.33548,-0.79716 6.98374,-0.91321 10.64743,-0.1226 3.15539,0.70032 6.20801,2.0217 8.95288,3.92901 2.74488,1.90731 5.18186,4.40061 7.05813,7.38932 1.69226,2.71942 2.89809,5.75307 3.54206,8.94964 0.64398,3.19658 0.72605,6.55588 0.17618,9.88508 -1.0441,6.22332 -4.16358,12.1107 -8.89277,16.57098 -3.97016,3.71942 -8.82699,6.37684 -13.99148,7.90307 -5.01119,1.48457 -10.22592,2.01421 -15.34729,1.84317 -9.99774,-0.35719 -19.4999,-3.00919 -28.63451,-5.27765 -17.26133,-4.23582 -34.93728,-7.02706 -51.81783,-8.44921 -16.88054,-1.42215 -32.95311,-1.48796 -47.06233,-0.77443 -22.51487,1.1386 -43.8489,4.65285 -63.33395,9.6667 -11.86681,3.0554 -23.06686,6.66727 -33.513,10.62388 -10.44615,3.9566 -20.13881,8.25737 -29.03601,12.693 -17.794406,8.87127 -32.381909,18.26395 -43.837642,26.64947 -11.455733,8.38552 -19.809499,15.75477 -25.349387,20.91781 -5.539888,5.16304 -8.298811,8.11299 -8.298811,8.11299 z"
           id="path8536"
           style="color:#000000;fill:#282828;fill-opacity:1;fill-rule:nonzero;stroke:none;stroke-width:1.15991175px;marker:none;visibility:visible;display:inline;overflow:visible;enable-background:accumulate" />
        <path
           d="m 346.42662,410.9164 c 0.52413,4.17655 3.49165,7.59269 8.34808,11.82112 4.9292,4.2918 -1.18908,7.95687 -4.35611,3.71444 -2.12988,-2.85312 -4.60242,-9.22084 -3.99197,-15.53556 z"
           id="path8577"
           style="fill:#282828;fill-opacity:1;stroke:none" />
      </g>
      <path
         d="m 301.52211,518.52889 c 7.03237,-2.33963 14.52979,-2.68206 24.969,1.74138 6.29768,2.66854 10.57425,-5.58534 2.7407,-7.19988 -6.13986,-1.26546 -18.14264,-0.30736 -27.7097,5.4585 z"
         id="path8579"
         style="fill:#282828;fill-opacity:1;stroke:none" />
      <path
         d="m 15,-64 c 0,0 10.63472,-14.206263 53.82708,-19.934395 C 112.01944,-89.662527 165.76944,-75.912526 200,-74 c 43.07856,2.406881 55,5 55,5 0,0 -81.00879,-2.120527 -125,-3 -66.70665,-1.3336 -115,8 -115,8 z"
         id="path8583-5"
         style="fill:none;stroke:none" />
      <path
         d="M 56.753304,707.45815 C 42.634118,679.44105 36.033866,647.67831 37.822327,616.35562 39.610789,585.03293 49.783535,554.2279 67,528 83.751643,502.48022 107.12549,481.34795 134.19927,467.24521 161.27305,453.14247 191.9866,446.1006 222.5,447 172.64393,446.40041 122.68549,456.52944 77,476.5 -1.5707162,510.84572 -66.727475,574.89302 -102.4174,652.86234 l -15.12996,58 174.300664,-3.40419"
         id="path454"
         style="fill:#282828;fill-opacity:1;stroke:none" />
      <path
         d="m 409.69105,495.42876 c 0,0 1.01727,0.25764 3.33437,1.1223 2.3171,0.86465 5.92593,2.34765 11.21246,4.49835 2.64326,1.07535 5.7085,2.31199 9.261,3.67254 3.55251,1.36054 7.59256,2.84574 12.19547,4.37777 4.60292,1.53203 9.76945,3.11199 15.57727,4.608 5.80782,1.49601 12.25835,2.90973 19.41527,4.03466 11.99773,1.88579 24.67787,2.89833 37.591,2.46368 8.55801,-0.33408 17.26205,-1.25215 25.59581,-3.22481 8.33375,-1.97265 16.29212,-5.00971 23.39647,-9.51102 7.29435,-4.58574 13.65901,-10.61303 18.12406,-17.70194 0,-10e-6 10e-6,-10e-6 10e-6,-10e-6 2.35943,-3.74455 4.2024,-7.79323 5.43473,-11.95222 1.23232,-4.15899 1.85336,-8.42781 1.81324,-12.63299 -0.0558,-5.92134 -1.41721,-11.69775 -3.98156,-16.64902 -2.7213,-5.25458 -6.79865,-9.54482 -11.43587,-12.27967 -0.16814,-0.0992 -0.33698,-0.19644 -0.50648,-0.29181 -2.78707,-1.56782 -5.74661,-2.6026 -8.67451,-3.13889 -2.9279,-0.53628 -5.82543,-0.57453 -8.56325,-0.16792 -3.30771,0.4929 -6.35081,1.64719 -8.95959,3.20291 -2.60879,1.55572 -4.78621,3.51416 -6.48022,5.68757 0,0 0,10e-6 0,10e-6 -1.31804,1.70128 -2.31939,3.51531 -3.05723,5.33721 -0.73784,1.82191 -1.21226,3.65241 -1.47474,5.42524 -0.52496,3.54567 -0.20621,6.8419 0.58249,9.67363 0.55586,1.97051 1.32841,3.69755 2.18159,5.19764 0.85319,1.50009 1.78825,2.77429 2.71949,3.85807 1.86248,2.16754 3.68965,3.57819 5.16668,4.55512 1.47702,0.97694 2.61768,1.52707 3.35852,1.86865 0.74083,0.34159 1.0875,0.47317 1.0875,0.47317 0,0 -0.52622,-0.16434 -1.48499,-0.56949 -0.95877,-0.40514 -2.35227,-1.05943 -3.98538,-2.14773 -1.63311,-1.0883 -3.50934,-2.61973 -5.28677,-4.75413 -1.77743,-2.13439 -3.45877,-4.87935 -4.50698,-8.24255 -0.96018,-3.13097 -1.32409,-6.71775 -0.79614,-10.44093 0.52795,-3.72318 1.94955,-7.58337 4.47516,-10.98281 1.84505,-2.45436 4.20675,-4.60045 6.96036,-6.27211 2.75361,-1.67165 5.89856,-2.86843 9.2326,-3.41389 6.10081,-0.98929 12.67452,0.15215 18.35448,3.26738 5.40916,2.97113 9.93769,7.59867 12.98804,13.07654 2.99152,5.37451 4.59501,11.47262 4.89824,17.56167 0,10e-6 10e-6,10e-6 10e-6,2e-5 0.47042,9.48492 -2.13494,18.86343 -6.59103,26.687 -4.82488,8.46956 -11.64955,15.1296 -18.6876,19.94229 -2.42658,1.65499 -4.86721,3.09636 -7.28018,4.35809 -7.15935,3.7436 -14.67731,6.26691 -22.17898,7.96603 -7.50167,1.69911 -14.98606,2.57392 -22.15665,2.94104 -17.07074,0.89748 -32.82918,-0.93601 -46.48893,-4.01192 -13.65976,-3.07592 -25.2325,-7.38808 -34.4774,-11.59677 -9.24491,-4.2087 -16.18767,-8.30194 -20.84498,-11.22313 -2.32866,-1.4606 -4.08747,-2.63365 -5.26935,-3.43139 -1.18187,-0.79774 -1.78751,-1.21943 -1.78751,-1.21943 z"
         id="path1230"
         style="fill:#282828;fill-opacity:1;stroke:none" />
      <path
         d="m 539.42707,460.99808 c 6.15022,11.40165 12.45454,11.13923 21.63299,11.13923 8.66849,0 6.69924,10.37726 -1.3394,9.09725 -5.00908,-0.79761 -15.68373,-4.61541 -20.29359,-20.23648 z"
         id="path1256"
         style="fill:#282828;fill-opacity:1;stroke:none" />
      <path
         d="m -62.199135,710.55164 c 0,0 -0.04979,-0.73461 -0.05335,-2.37094 -0.0036,-1.63633 0.0378,-4.17492 0.261341,-7.78436 0.223544,-3.60944 0.627831,-8.29075 1.412459,-14.20249 0.784629,-5.91174 1.948218,-13.05564 3.774146,-21.55985 1.825929,-8.50421 4.313178,-18.37142 7.84724,-29.66667 3.534063,-11.29525 8.114698,-24.02252 14.239429,-38.13405 6.124731,-14.11154 13.794656,-29.61304 23.613514,-46.27192 9.8188586,-16.65888 21.789816,-34.48301 36.591642,-52.95388 1.919017,-2.39641 3.886021,-4.80365 5.902545,-7.22013 11.463753,-13.73748 24.052204,-27.09339 37.656545,-39.81419 13.604341,-12.72081 28.224075,-24.80571 43.705431,-36.02637 15.48135,-11.22065 31.82364,-21.5763 48.83706,-30.87532 17.01342,-9.29901 34.69715,-17.54074 52.83661,-24.58076 20.32708,-7.87004 40.91832,-14.25329 61.21328,-20.47896 20.29496,-6.22567 40.29287,-12.30615 59.51546,-19.47184 20.01736,-7.46589 39.21502,-16.16093 56.72067,-26.83582 9.10434,-5.55472 17.76005,-11.65103 25.75771,-18.29288 7.99766,-6.64186 15.3369,-13.82944 21.85131,-21.54354 7.03567,-8.33193 13.11427,-17.28092 18.02356,-26.58557 4.9093,-9.30465 8.6489,-18.96469 11.09911,-28.7392 2.01699,-8.04618 3.14249,-16.17235 3.40836,-24.13318 0.26587,-7.96083 -0.32781,-15.75622 -1.71552,-23.19177 -0.99754,-5.34499 -2.38937,-10.50722 -4.14558,-15.44549 -3.93434,-11.05996 -9.73456,-20.91713 -16.60352,-29.15542 -6.86897,-8.238297 -14.81064,-14.864894 -23.25627,-19.771388 -5.36217,-3.112036 -10.92294,-5.500029 -16.4817,-7.239435 -5.55877,-1.739407 -11.11637,-2.83042 -16.53226,-3.353454 -5.41589,-0.523034 -10.69079,-0.478252 -15.73254,0.05166 -5.04174,0.529912 -9.85096,1.544817 -14.37378,2.962018 -5.19063,1.638158 -9.95431,3.790951 -14.27115,6.254827 -4.31685,2.463875 -8.18768,5.239606 -11.62675,8.174608 -6.87812,5.870004 -12.01715,12.347544 -15.77516,18.664474 -2.58703,4.35921 -4.51356,8.62678 -5.97509,12.65292 -1.46153,4.02614 -2.45807,7.81328 -3.15048,11.29164 -1.38484,6.95671 -1.58509,12.6567 -1.4864,17.04913 0.0987,4.39244 0.50332,7.5013 0.79291,9.50539 0.28959,2.00409 0.47309,2.90977 0.47309,2.90977 0,0 -0.3129,-1.28442 -0.72508,-3.77284 -0.41219,-2.48843 -0.91505,-6.19113 -1.00416,-10.99793 -0.0891,-4.80679 0.24405,-10.73125 1.66535,-17.44951 1.4213,-6.71826 3.93843,-14.24276 8.2566,-21.83725 3.95684,-6.93647 9.40328,-13.842503 16.4508,-19.909674 7.04752,-6.067171 15.70102,-11.295835 25.68198,-14.599118 9.87596,-3.230311 20.82911,-4.494822 32.04655,-3.407948 11.21743,1.086875 22.69634,4.5261 33.20062,10.488848 9.28867,5.286157 17.74317,12.399305 24.86434,20.944482 7.12117,8.54517 12.9072,18.51975 16.83656,29.3308 3.68451,10.15005 5.78684,20.94366 6.3204,31.92534 0.53356,10.98169 -0.50107,22.14918 -3.02275,32.99002 -2.4602,10.57439 -6.26719,20.82456 -11.16708,30.54005 -4.89989,9.71549 -10.89132,18.89546 -17.68096,27.34251 -10e-6,1e-5 -10e-6,2e-5 -2e-5,3e-5 -13.62255,16.95031 -30.33949,30.98901 -48.01996,42.42849 -18.56338,12.01613 -38.13379,21.34199 -57.31194,29.05958 -12.58792,5.06697 -25.00177,9.48447 -37.01092,13.58223 -12.00915,4.09776 -23.61298,7.87754 -34.62194,11.55815 -16.45845,5.50252 -32.53871,11.12123 -47.98568,17.46105 -19.94611,8.18126 -38.79987,17.63204 -56.47431,27.9795 -17.67444,10.34745 -34.16976,21.59115 -49.45229,33.38545 -15.282531,11.7943 -29.352603,24.13891 -42.225889,36.72072 -12.873285,12.58181 -24.55022,25.40066 -35.090106,38.17929 -11.269724,13.66841 -21.251334,27.30519 -30.0612206,40.61291 -8.8098868,13.30773 -16.4489264,26.28656 -23.0676384,38.68782 -6.618712,12.40125 -12.218081,24.22524 -16.968782,35.26857 -4.750701,11.04334 -8.653799,21.30645 -11.884718,30.62574 -6.461836,18.63857 -10.266698,33.47801 -12.61805,43.5764 -1.175677,5.04919 -1.981674,8.91975 -2.508403,11.52458 -0.526728,2.60482 -0.775178,3.94415 -0.775178,3.94415 z"
         id="path8457"
         style="color:#000000;fill:#282828;fill-opacity:1;stroke:none;stroke-width:1.15991175;marker:none;visibility:visible;display:inline;overflow:visible;enable-background:accumulate" />
      <path
         d="m 565.31319,267.08263 c 3.57745,6.63209 7.24453,6.47945 12.58344,6.47945 5.04227,0 3.8968,6.03622 -0.7791,5.29167 -2.91367,-0.46395 -9.12289,-2.68468 -11.80434,-11.77112 z"
         transform="matrix(1.3383263,1.5050166,-1.0790757,1.8666005,-156.65057,-1211.3696)"
         id="path1256-7"
         style="fill:#282828;fill-opacity:1;stroke:none;display:inline;filter:url(#filter9012-1)" />
    </g>
  </g>
</svg>
