<?xml version="1.0" encoding="UTF-8" standalone="no"?>
<!-- Created with Inkscape (http://www.inkscape.org/) -->

<svg
   xmlns:dc="http://purl.org/dc/elements/1.1/"
   xmlns:cc="http://creativecommons.org/ns#"
   xmlns:rdf="http://www.w3.org/1999/02/22-rdf-syntax-ns#"
   xmlns:svg="http://www.w3.org/2000/svg"
   xmlns="http://www.w3.org/2000/svg"
   xmlns:xlink="http://www.w3.org/1999/xlink"
   xmlns:sodipodi="http://sodipodi.sourceforge.net/DTD/sodipodi-0.dtd"
   xmlns:inkscape="http://www.inkscape.org/namespaces/inkscape"
   width="256"
   height="256"
   id="svg2"
   sodipodi:version="0.32"
   inkscape:version="0.47+devel r9385 custom"
   version="1.0"
   sodipodi:docname="nojavascript.svg"
   inkscape:output_extension="org.inkscape.output.svg.inkscape"
   inkscape:export-filename="/home/jimmac/gfx/novell/products/openSUSE11/web-banner/images/nojavascript.png"
   inkscape:export-xdpi="90"
   inkscape:export-ydpi="90">
  <defs
     id="defs4">
    <pattern
       inkscape:collect="always"
       xlink:href="#pattern13140"
       id="pattern13154"
       patternTransform="matrix(2.7126466,0,0,2.7126466,-288.78908,-47.189338)" />
    <pattern
       inkscape:collect="always"
       xlink:href="#pattern13135"
       id="pattern13140"
       patternTransform="matrix(2.1896525,0,0,2.1896525,-199.98372,-8.1983889)" />
    <pattern
       inkscape:collect="always"
       xlink:href="#pattern11592"
       id="pattern13137"
       patternTransform="translate(83.472289,14.993466)" />
    <pattern
       inkscape:collect="always"
       xlink:href="#pattern11592"
       id="pattern13135"
       patternTransform="translate(-42.794479,43.339067)" />
    <pattern
       inkscape:collect="always"
       xlink:href="#pattern11592"
       id="pattern13086"
       patternTransform="translate(-79.60001,0)" />
    <inkscape:perspective
       sodipodi:type="inkscape:persp3d"
       inkscape:vp_x="-50 : 600 : 1"
       inkscape:vp_y="0 : 1000 : 0"
       inkscape:vp_z="700 : 600 : 1"
       inkscape:persp3d-origin="300 : 400 : 1"
       id="perspective5358" />
    <linearGradient
       inkscape:collect="always"
       id="linearGradient9026">
      <stop
         id="stop9030"
         offset="0"
         style="stop-color:#ffffff;stop-opacity:0;" />
      <stop
         id="stop9028"
         offset="1"
         style="stop-color:#ffffff;stop-opacity:1;" />
    </linearGradient>
    <radialGradient
       inkscape:collect="always"
       xlink:href="#linearGradient9026"
       id="radialGradient9032"
       cx="154.76555"
       cy="79.415726"
       fx="154.76555"
       fy="79.415726"
       r="69.938173"
       gradientUnits="userSpaceOnUse"
       gradientTransform="matrix(0.5575867,0,0,0.5575867,68.470323,35.134566)" />
    <linearGradient
       id="linearGradient9038"
       inkscape:collect="always">
      <stop
         style="stop-color:#24a701;stop-opacity:0;"
         offset="0"
         id="stop9042" />
      <stop
         style="stop-color:#24a701;stop-opacity:1;"
         offset="1"
         id="stop9040" />
    </linearGradient>
    <radialGradient
       inkscape:collect="always"
       xlink:href="#linearGradient9038"
       id="radialGradient9022"
       cx="79.423729"
       cy="72.409096"
       fx="79.423729"
       fy="72.409096"
       r="69.84375"
       gradientUnits="userSpaceOnUse"
       gradientTransform="matrix(1.8476051,0,0,1.8476051,-84.760505,-84.760505)" />
    <linearGradient
       id="linearGradient8783"
       inkscape:collect="always">
      <stop
         id="stop8785"
         offset="0"
         style="stop-color:#9eaaac;stop-opacity:1" />
      <stop
         id="stop8787"
         offset="1"
         style="stop-color:#ffffff;stop-opacity:1" />
    </linearGradient>
    <linearGradient
       inkscape:collect="always"
       xlink:href="#linearGradient8783"
       id="linearGradient8727"
       x1="401.30548"
       y1="500.9314"
       x2="401.30548"
       y2="463.56079"
       gradientUnits="userSpaceOnUse" />
    <inkscape:perspective
       sodipodi:type="inkscape:persp3d"
       inkscape:vp_x="-50 : 600 : 1"
       inkscape:vp_y="0 : 1000 : 0"
       inkscape:vp_z="700 : 600 : 1"
       inkscape:persp3d-origin="300 : 400 : 1"
       id="perspective10" />
    <linearGradient
       inkscape:collect="always"
       xlink:href="#linearGradient8783"
       id="linearGradient5894"
       gradientUnits="userSpaceOnUse"
       x1="401.30548"
       y1="500.9314"
       x2="401.30548"
       y2="463.56079" />
    <filter
       inkscape:collect="always"
       id="filter6060">
      <feGaussianBlur
         inkscape:collect="always"
         stdDeviation="1.3894114"
         id="feGaussianBlur6062" />
    </filter>
    <inkscape:perspective
       id="perspective2932"
       inkscape:persp3d-origin="0.5 : 0.33333333 : 1"
       inkscape:vp_z="1 : 0.5 : 1"
       inkscape:vp_y="0 : 1000 : 0"
       inkscape:vp_x="0 : 0.5 : 1"
       sodipodi:type="inkscape:persp3d" />
    <inkscape:perspective
       id="perspective5963"
       inkscape:persp3d-origin="0.5 : 0.33333333 : 1"
       inkscape:vp_z="1 : 0.5 : 1"
       inkscape:vp_y="0 : 1000 : 0"
       inkscape:vp_x="0 : 0.5 : 1"
       sodipodi:type="inkscape:persp3d" />
    <linearGradient
       inkscape:collect="always"
       xlink:href="#linearGradient3231"
       id="linearGradient6095-4"
       gradientUnits="userSpaceOnUse"
       gradientTransform="translate(-28.073787,-466.04675)"
       x1="158.15625"
       y1="703.10938"
       x2="158.15625"
       y2="542.91357" />
    <linearGradient
       id="linearGradient3231"
       inkscape:collect="always">
      <stop
         id="stop3233"
         offset="0"
         style="stop-color:#e1e4de;stop-opacity:1" />
      <stop
         style="stop-color:#dbded8;stop-opacity:1;"
         offset="0.29999995"
         id="stop3235" />
      <stop
         id="stop3237"
         offset="1"
         style="stop-color:#ffffff;stop-opacity:1" />
    </linearGradient>
    <linearGradient
       inkscape:collect="always"
       xlink:href="#linearGradient4014"
       id="linearGradient4020"
       x1="130.08246"
       y1="237.06262"
       x2="130.08246"
       y2="103.91788"
       gradientUnits="userSpaceOnUse" />
    <linearGradient
       inkscape:collect="always"
       id="linearGradient4014">
      <stop
         style="stop-color:#888a85;stop-opacity:1"
         offset="0"
         id="stop4016" />
      <stop
         style="stop-color:#000000;stop-opacity:0;"
         offset="1"
         id="stop4018" />
    </linearGradient>
    <radialGradient
       r="94.569832"
       fy="161.34077"
       fx="161.34077"
       cy="161.34077"
       cx="161.34077"
       gradientUnits="userSpaceOnUse"
       id="radialGradient4399-8"
       xlink:href="#linearGradient7692-5"
       inkscape:collect="always" />
    <linearGradient
       inkscape:collect="always"
       id="linearGradient7692-5">
      <stop
         style="stop-color:#ffffff;stop-opacity:1;"
         offset="0"
         id="stop7694-3" />
      <stop
         style="stop-color:#ffffff;stop-opacity:0;"
         offset="1"
         id="stop7696-8" />
    </linearGradient>
    <radialGradient
       inkscape:collect="always"
       xlink:href="#linearGradient7716-4"
       id="radialGradient7722-0"
       cx="176.80099"
       cy="183.06195"
       fx="176.80099"
       fy="183.06195"
       r="95.130486"
       gradientUnits="userSpaceOnUse" />
    <linearGradient
       inkscape:collect="always"
       id="linearGradient7716-4">
      <stop
         style="stop-color:#000000;stop-opacity:0.18674699"
         offset="0"
         id="stop7718-9" />
      <stop
         style="stop-color:#000000;stop-opacity:0;"
         offset="1"
         id="stop7720-6" />
    </linearGradient>
    <linearGradient
       inkscape:collect="always"
       xlink:href="#linearGradient5478-8-7"
       id="linearGradient6778-8"
       gradientUnits="userSpaceOnUse"
       x1="98.727234"
       y1="42.150482"
       x2="98.727234"
       y2="164.39177" />
    <linearGradient
       id="linearGradient5478-8-7">
      <stop
         style="stop-color:#3a7202;stop-opacity:1;"
         offset="0"
         id="stop5480-3-0" />
      <stop
         id="stop5626-0-2"
         offset="0.69790977"
         style="stop-color:#4e9c04;stop-opacity:1;" />
      <stop
         style="stop-color:#50a004;stop-opacity:1;"
         offset="0.75"
         id="stop5628-0-8" />
      <stop
         style="stop-color:#7bf508;stop-opacity:1;"
         offset="1"
         id="stop5482-5-2" />
    </linearGradient>
    <linearGradient
       inkscape:collect="always"
       xlink:href="#linearGradient5478-8-7"
       id="linearGradient6780-7"
       gradientUnits="userSpaceOnUse"
       x1="60.836216"
       y1="18.832932"
       x2="148.27702"
       y2="153.70456" />
    <linearGradient
       id="linearGradient5993">
      <stop
         style="stop-color:#3a7202;stop-opacity:1;"
         offset="0"
         id="stop5995" />
      <stop
         id="stop5997"
         offset="0.69790977"
         style="stop-color:#4e9c04;stop-opacity:1;" />
      <stop
         style="stop-color:#50a004;stop-opacity:1;"
         offset="0.75"
         id="stop5999" />
      <stop
         style="stop-color:#7bf508;stop-opacity:1;"
         offset="1"
         id="stop6001" />
    </linearGradient>
    <linearGradient
       inkscape:collect="always"
       xlink:href="#linearGradient5681-1-9"
       id="linearGradient6782-6"
       gradientUnits="userSpaceOnUse"
       x1="100"
       y1="166.72182"
       x2="100"
       y2="39.739437" />
    <linearGradient
       inkscape:collect="always"
       id="linearGradient5681-1-9">
      <stop
         style="stop-color:#000000;stop-opacity:1;"
         offset="0"
         id="stop5683-0-5" />
      <stop
         style="stop-color:#000000;stop-opacity:0.48124999"
         offset="1"
         id="stop5685-8-6" />
    </linearGradient>
    <clipPath
       clipPathUnits="userSpaceOnUse"
       id="clipPath5677-9-5">
      <path
         style="font-size:20.48839951px;fill:#4e9a06;fill-opacity:1;fill-rule:evenodd;stroke:none;font-family:TrebuchetMS-Bold"
         d="M 99.999999,30.15625 C 61.429321,30.15625 30.15625,61.425757 30.15625,100 c 0,38.57424 31.273071,69.84375 69.843749,69.84375 38.570681,0 69.843741,-31.26951 69.843751,-69.84375 0,-38.574237 -31.27307,-69.84375 -69.843751,-69.84375 z m 0.334431,9.672654 c 33.23352,0 60.19682,26.941139 60.19682,60.171096 0,33.23353 -26.96686,60.1711 -60.19682,60.1711 -17.944818,0 -34.047202,-7.86473 -45.070447,-20.32286 4.532497,-3.51775 12.115631,-2.65954 21.454769,-1.59496 4.475522,0.50915 9.577449,1.09159 14.843406,1.20908 14.711892,0.0855 30.541332,-2.5996 40.311292,-6.86861 6.31629,-2.77006 10.36035,-4.59427 12.88829,-6.89434 0.91149,-0.7477 1.39015,-1.99679 1.87794,-3.29281 l 0.33442,-0.87466 c 0.40946,-1.04678 0.99706,-3.29926 1.26053,-4.52762 0.1175,-0.53764 0.17517,-1.1158 -0.2058,-1.41489 l -1.36343,0.25726 c -4.28682,2.57066 -14.99713,7.4667 -25.03056,7.66609 -12.43319,0.25991 -37.492094,-12.51643 -40.105491,-13.86585 l -0.25725,-0.3087 c -0.626641,-1.49541 -4.376766,-10.398076 -5.170753,-12.270895 18.037391,11.877765 32.991864,18.452075 44.453044,19.473925 12.74296,1.13224 22.683,-5.82499 26.93421,-8.79799 0.8296,-0.56612 1.46367,-1.01005 1.72359,-1.10618 l 0.28298,-0.46306 c -0.70498,-4.47909 -7.39073,-26.153517 -12.42525,-31.358942 -1.39571,-1.42775 -2.50536,-2.81725 -4.75915,-4.141745 C 114.08824,60.052432 70.821318,53.655846 68.795405,53.360326 l -0.334423,0.102899 -0.128625,0.282976 c 0,0 -0.162275,8.984424 -0.180078,9.981357 -1.484725,-0.491344 -6.088481,-1.9986 -12.682491,-3.807322 8.603734,-10.645844 21.78903,-20.091332 44.864642,-20.091332 z m 15.89813,31.847721 c 0.30705,-0.0046 0.61701,-0.01024 0.92611,0 10.20789,0.366727 18.22788,8.964455 17.87897,19.165229 -0.18159,4.934824 -2.26212,9.494346 -5.86533,12.862566 -3.6139,3.38602 -8.31087,5.1509 -13.27417,4.99068 -10.1901,-0.38097 -18.210098,-8.978695 -17.878978,-19.165231 0.174469,-4.941946 2.266488,-9.530765 5.891058,-12.888296 3.38468,-3.174386 7.71664,-4.895827 12.32234,-4.964948 z m -0.48878,5.453729 c -2.97293,0.180744 -5.77842,1.387873 -7.97479,3.447167 -2.50301,2.349918 -3.97993,5.531534 -4.0903,8.978075 -0.23499,7.12096 5.33713,13.113594 12.45097,13.377074 3.45722,0.10681 6.73667,-1.10438 9.26105,-3.44717 2.51726,-2.360599 3.98349,-5.5715 4.0903,-9.003802 0.23855,-7.131641 -5.35929,-13.102111 -12.47669,-13.351344 -0.43082,-0.01602 -0.83583,-0.02582 -1.26054,0 z m 3.39572,6.457012 c 3.16171,0 5.71099,1.718118 5.71098,3.833041 0,2.10425 -2.54927,3.833042 -5.71098,3.833049 -3.17239,0 -5.7367,-1.732364 -5.7367,-3.833049 0,-2.114923 2.56431,-3.833041 5.7367,-3.833041 z"
         id="path5679-4-9" />
    </clipPath>
    <radialGradient
       inkscape:collect="always"
       xlink:href="#linearGradient5565-1"
       id="radialGradient6784-1"
       gradientUnits="userSpaceOnUse"
       gradientTransform="matrix(0.4812739,0,0,-0.2452646,376.54043,-122.79884)"
       cx="132"
       cy="293.59906"
       fx="132"
       fy="293.59906"
       r="102" />
    <linearGradient
       inkscape:collect="always"
       id="linearGradient5565-1">
      <stop
         style="stop-color:#8ae234;stop-opacity:1;"
         offset="0"
         id="stop5567-7" />
      <stop
         style="stop-color:#8ae234;stop-opacity:0;"
         offset="1"
         id="stop5569-3" />
    </linearGradient>
    <radialGradient
       inkscape:collect="always"
       xlink:href="#linearGradient5518-6"
       id="radialGradient6786-2"
       gradientUnits="userSpaceOnUse"
       gradientTransform="matrix(0.9311654,0,0,0.8801658,317.15471,-220.00355)"
       cx="132.01065"
       cy="37.250149"
       fx="132.01065"
       fy="37.250149"
       r="103.84375" />
    <linearGradient
       inkscape:collect="always"
       id="linearGradient5518-6">
      <stop
         style="stop-color:#ffffff;stop-opacity:1;"
         offset="0"
         id="stop5520-8" />
      <stop
         style="stop-color:#ffffff;stop-opacity:0;"
         offset="1"
         id="stop5522-0" />
    </linearGradient>
    <radialGradient
       inkscape:collect="always"
       xlink:href="#linearGradient5565-1"
       id="radialGradient6788-9"
       gradientUnits="userSpaceOnUse"
       gradientTransform="matrix(1.1252161,0,0,0.5734273,291.54003,-172.5235)"
       cx="132"
       cy="293.59906"
       fx="132"
       fy="293.59906"
       r="102" />
    <radialGradient
       inkscape:collect="always"
       xlink:href="#linearGradient5565-1"
       id="radialGradient6790-6"
       gradientUnits="userSpaceOnUse"
       gradientTransform="matrix(1.4973544,0,0,0.5528207,266.33925,-180.49721)"
       cx="89.75"
       cy="20.619284"
       fx="89.75"
       fy="20.619284"
       r="59.25" />
    <radialGradient
       inkscape:collect="always"
       xlink:href="#linearGradient5745-5"
       id="radialGradient6792-2"
       gradientUnits="userSpaceOnUse"
       gradientTransform="matrix(1.2847965,0,0,0.555661,279.75821,-185.14092)"
       cx="105.75"
       cy="38.506714"
       fx="105.75"
       fy="38.506714"
       r="59.25" />
    <linearGradient
       inkscape:collect="always"
       id="linearGradient5745-5">
      <stop
         style="stop-color:#ffffff;stop-opacity:1;"
         offset="0"
         id="stop5747-7" />
      <stop
         style="stop-color:#ffffff;stop-opacity:0;"
         offset="1"
         id="stop5749-0" />
    </linearGradient>
    <radialGradient
       inkscape:collect="always"
       xlink:href="#linearGradient5755-5"
       id="radialGradient6794-3"
       gradientUnits="userSpaceOnUse"
       gradientTransform="matrix(1.5487879,0,0,0.967699,219.5322,-229.11394)"
       cx="158.0618"
       cy="117.97007"
       fx="158.0618"
       fy="117.97007"
       r="12.438205" />
    <linearGradient
       inkscape:collect="always"
       id="linearGradient5755-5">
      <stop
         style="stop-color:#ffffff;stop-opacity:1;"
         offset="0"
         id="stop5757-0" />
      <stop
         style="stop-color:#ffffff;stop-opacity:0;"
         offset="1"
         id="stop5759-5" />
    </linearGradient>
    <radialGradient
       inkscape:collect="always"
       xlink:href="#linearGradient5767-3"
       id="radialGradient6796-5"
       gradientUnits="userSpaceOnUse"
       gradientTransform="matrix(0.9311654,0,0,0.9920213,316.68913,-232.2523)"
       cx="40.807701"
       cy="81.171234"
       fx="40.807701"
       fy="81.171234"
       r="83.063797" />
    <linearGradient
       inkscape:collect="always"
       id="linearGradient5767-3">
      <stop
         style="stop-color:#ffffff;stop-opacity:1;"
         offset="0"
         id="stop5769-5" />
      <stop
         style="stop-color:#ffffff;stop-opacity:0;"
         offset="1"
         id="stop5771-1" />
    </linearGradient>
    <radialGradient
       inkscape:collect="always"
       xlink:href="#linearGradient5767-3"
       id="radialGradient6798-4"
       gradientUnits="userSpaceOnUse"
       gradientTransform="matrix(0.9311654,0,0,0.9920213,316.68913,-232.2523)"
       cx="40.807701"
       cy="81.171234"
       fx="40.807701"
       fy="81.171234"
       r="83.063797" />
    <radialGradient
       inkscape:collect="always"
       xlink:href="#linearGradient5831-1"
       id="radialGradient6800-9"
       gradientUnits="userSpaceOnUse"
       gradientTransform="matrix(0.9311654,0,0,0.7431416,320.87937,-195.79894)"
       cx="98"
       cy="146.19427"
       fx="98"
       fy="146.19427"
       r="13" />
    <linearGradient
       inkscape:collect="always"
       id="linearGradient5831-1">
      <stop
         style="stop-color:#ffffff;stop-opacity:1;"
         offset="0"
         id="stop5833-9" />
      <stop
         style="stop-color:#ffffff;stop-opacity:0;"
         offset="1"
         id="stop5835-8" />
    </linearGradient>
    <radialGradient
       inkscape:collect="always"
       xlink:href="#linearGradient5841-2"
       id="radialGradient6802-2"
       gradientUnits="userSpaceOnUse"
       gradientTransform="matrix(1.2266314,0,0,0.2485319,272.34909,-113.88511)"
       cx="164.25"
       cy="187.76793"
       fx="164.25"
       fy="187.76793"
       r="26" />
    <linearGradient
       inkscape:collect="always"
       id="linearGradient5841-2">
      <stop
         style="stop-color:#ffffff;stop-opacity:1;"
         offset="0"
         id="stop5843-7" />
      <stop
         style="stop-color:#ffffff;stop-opacity:0;"
         offset="1"
         id="stop5845-7" />
    </linearGradient>
    <radialGradient
       inkscape:collect="always"
       xlink:href="#linearGradient6807-5"
       id="radialGradient6813-4"
       cx="93"
       cy="3.5"
       fx="93"
       fy="3.5"
       r="93.5"
       gradientUnits="userSpaceOnUse" />
    <linearGradient
       inkscape:collect="always"
       id="linearGradient6807-5">
      <stop
         style="stop-color:#ffffff;stop-opacity:1;"
         offset="0"
         id="stop6809-1" />
      <stop
         style="stop-color:#ffffff;stop-opacity:0;"
         offset="1"
         id="stop6811-2" />
    </linearGradient>
    <radialGradient
       r="93.5"
       fy="3.5"
       fx="93"
       cy="3.5"
       cx="93"
       gradientUnits="userSpaceOnUse"
       id="radialGradient4817"
       xlink:href="#linearGradient6807-5"
       inkscape:collect="always" />
    <pattern
       patternUnits="userSpaceOnUse"
       width="409.60001"
       height="256"
       patternTransform="translate(-153.60001,-320)"
       id="pattern11592">
      <image
         width="409.60001"
         height="256"
         xlink:href="file:///home/jimmac/gfx/novell/products/openSUSE11/wallpaper/wallpaper-gnome/IK/3-evening.jpg"
         id="image15304"
         x="0"
         y="0"
         style="display:inline" />
    </pattern>
    <pattern
       patternUnits="userSpaceOnUse"
       width="256"
       height="256"
       id="pattern11597">
      <image
         xlink:href="file:///home/jimmac/gfx/novell/products/openSUSE11/web-banner/images/background.png"
         width="256"
         height="256"
         id="image2934"
         x="0"
         y="0" />
    </pattern>
    <filter
       color-interpolation-filters="sRGB"
       inkscape:collect="always"
       id="filter15859">
      <feGaussianBlur
         inkscape:collect="always"
         stdDeviation="2.23095"
         id="feGaussianBlur15861" />
    </filter>
  </defs>
  <sodipodi:namedview
     id="base"
     pagecolor="#ffffff"
     bordercolor="#e5e5e5"
     borderopacity="1"
     gridtolerance="10000"
     guidetolerance="10"
     objecttolerance="10"
     inkscape:pageopacity="0.0"
     inkscape:pageshadow="2"
     inkscape:zoom="1"
     inkscape:cx="140.18904"
     inkscape:cy="116.67915"
     inkscape:document-units="px"
     inkscape:current-layer="layer1"
     showgrid="false"
     borderlayer="true"
     inkscape:showpageshadow="false"
     inkscape:window-width="757"
     inkscape:window-height="842"
     inkscape:window-x="598"
     inkscape:window-y="257"
     inkscape:snap-nodes="false"
     inkscape:snap-bbox="true"
     inkscape:snap-page="true"
     inkscape:window-maximized="0">
    <inkscape:grid
       type="xygrid"
       id="grid6773"
       enabled="true"
       visible="true" />
  </sodipodi:namedview>
  <metadata
     id="metadata7">
    <rdf:RDF>
      <cc:Work
         rdf:about="">
        <dc:format>image/svg+xml</dc:format>
        <dc:type
           rdf:resource="http://purl.org/dc/dcmitype/StillImage" />
        <dc:title />
        <dc:date />
        <dc:creator>
          <cc:Agent>
            <dc:title />
          </cc:Agent>
        </dc:creator>
        <dc:rights>
          <cc:Agent>
            <dc:title />
          </cc:Agent>
        </dc:rights>
        <dc:publisher>
          <cc:Agent>
            <dc:title />
          </cc:Agent>
        </dc:publisher>
        <dc:identifier />
        <dc:source />
        <dc:relation />
        <dc:language />
        <dc:subject>
          <rdf:Bag />
        </dc:subject>
        <dc:coverage />
        <dc:description />
        <dc:contributor>
          <cc:Agent>
            <dc:title />
          </cc:Agent>
        </dc:contributor>
        <cc:license
           rdf:resource="" />
      </cc:Work>
    </rdf:RDF>
  </metadata>
  <g
     inkscape:groupmode="layer"
     id="layer2"
     inkscape:label="bcg">
    <rect
       style="fill:url(#pattern13086);fill-opacity:1;stroke:none"
       width="256"
       height="256"
       x="0"
       y="0"
       id="rect11600" />
  </g>
  <g
     inkscape:label="date"
     inkscape:groupmode="layer"
     id="layer1">
    <path
       sodipodi:type="inkscape:offset"
       inkscape:radius="0"
       inkscape:original="M 148.125 141.09375 L 147.59375 141.21875 C 146.09375 141.57875 144.75 142.8775 144.75 145.1875 L 144.75 162.40625 L 148.125 162.40625 L 148.125 141.09375 z M 92.03125 141.34375 C 91.131251 141.34375 90.34375 142.1325 90.34375 143.0625 L 90.34375 163.90625 C 90.34375 164.68625 90.14375 164.9575 89.84375 165.4375 L 89.8125 165.46875 L 87.53125 167.84375 L 87.53125 167.875 C 87.47125 167.965 87.375 168.13625 87.375 168.40625 C 87.375 168.52625 87.37625 168.62625 87.40625 168.65625 C 87.43625 168.80625 87.53375 168.94125 87.59375 169.03125 C 87.83375 169.27125 88.01875 169.31375 88.46875 169.34375 C 88.82875 169.34375 89.2375 169.22875 89.6875 168.71875 L 93.09375 165.59375 L 93.125 165.59375 C 93.605 165.02375 93.8125 164.5 93.8125 163.75 L 93.8125 143.0625 C 93.8125 142.1025 93.021249 141.34375 92.03125 141.34375 z M 116.3125 141.5 C 115.2925 141.5 114.53125 142.32125 114.53125 143.28125 L 114.53125 159.8125 C 114.53125 161.2225 115.59125 162.4375 117.03125 162.4375 L 119.21875 162.4375 L 119.21875 160.46875 C 119.21875 159.83875 118.72375 159.375 118.09375 159.375 L 118.09375 143.28125 C 118.09375 142.32125 117.3025 141.5 116.3125 141.5 z M 154.875 141.59375 C 152.535 141.59375 151.3425 142.9375 151.3125 144.4375 L 151.3125 153.375 L 160.4375 153.375 C 160.7975 153.375 161.09375 153.57625 161.09375 153.90625 L 161.09375 158.875 C 161.09375 158.965 161.0625 159.0325 161.0625 159.0625 C 161.0325 159.1225 161 159.1575 161 159.1875 C 160.82 159.3675 160.4975 159.40625 160.4375 159.40625 L 151.1875 159.40625 L 151.25 159.90625 C 151.43 161.79625 152.26625 162.46875 153.40625 162.46875 L 160.4375 162.46875 C 163.0775 162.46875 164.375 161.2175 164.375 158.9375 L 164.375 154.21875 C 164.375 151.81875 163.1575 150.21875 160.1875 150.21875 L 154.625 150.21875 L 154.625 144.65625 L 163.75 144.65625 L 163.6875 144.1875 C 163.4175 141.9075 162.0275 141.59375 161.1875 141.59375 L 154.875 141.59375 z M 97.15625 147.90625 L 97.15625 159.34375 C 97.15625 161.20375 97.793753 162.6875 100.34375 162.6875 C 100.97375 162.6875 101.6575 162.62 102.4375 162.5 L 107.40625 161.65625 L 107.40625 162.4375 L 110.90625 162.4375 L 110.90625 147.90625 L 107.40625 147.90625 L 107.40625 158.4375 C 107.40625 158.6775 107.1075 159.03125 106.6875 159.03125 L 101.3125 159.03125 C 100.9525 159.03125 100.59375 158.73625 100.59375 158.40625 L 100.59375 147.90625 L 97.15625 147.90625 z M 133.9375 147.9375 C 133.5775 147.9375 132.85875 148.09625 132.46875 148.90625 L 128.40625 156.40625 L 124.40625 148.90625 C 124.01625 148.09625 123.265 147.96875 122.875 147.96875 C 122.035 147.96875 121.125 148.57375 121.125 149.59375 C 121.125 149.83375 121.1625 150.105 121.3125 150.375 L 125.59375 159.09375 C 125.71375 159.30375 125.95875 159.63875 126.46875 159.96875 L 122.25 168.3125 L 123.8125 169.125 C 124.0525 169.215 124.29125 169.28125 124.53125 169.28125 C 125.25125 169.28125 125.9825 168.9425 126.3125 168.3125 L 135.5 150.375 C 135.65 150.105 135.6875 149.865 135.6875 149.625 C 135.6875 148.635 134.8375 147.9375 133.9375 147.9375 z "
       xlink:href="#text6775"
       style="font-size:50.19068146px;font-style:normal;font-variant:normal;font-weight:bold;font-stretch:normal;text-indent:0;text-align:start;text-decoration:none;line-height:100%;letter-spacing:normal;word-spacing:normal;text-transform:none;direction:ltr;block-progression:tb;writing-mode:lr-tb;text-anchor:start;fill:#000000;fill-opacity:1;fill-rule:nonzero;stroke:none;stroke-width:1px;marker:none;visibility:visible;display:inline;overflow:visible;filter:url(#filter6060);enable-background:accumulate;font-family:ChollaWideBoldOS;-inkscape-font-specification:ChollaWideBoldOS Bold"
       id="path5240"
       inkscape:href="#text6775"
       d="m 148.125,161.09375 -0.53125,0.125 c -1.5,0.36 -2.84375,1.65875 -2.84375,3.96875 l 0,17.21875 3.375,0 0,-21.3125 z m -56.09375,0.25 c -0.899999,0 -1.6875,0.78875 -1.6875,1.71875 l 0,20.84375 c 0,0.78 -0.2,1.05125 -0.5,1.53125 l -0.03125,0.0313 -2.28125,2.375 0,0.0313 c -0.06,0.09 -0.15625,0.26125 -0.15625,0.53125 0,0.12 0.0012,0.22 0.03125,0.25 0.03,0.15 0.1275,0.285 0.1875,0.375 0.24,0.24 0.425,0.2825 0.875,0.3125 0.36,0 0.76875,-0.115 1.21875,-0.625 l 3.40625,-3.125 0.03125,0 c 0.48,-0.57 0.6875,-1.09375 0.6875,-1.84375 l 0,-20.6875 c 0,-0.96 -0.791251,-1.71875 -1.78125,-1.71875 z M 116.3125,161.5 c -1.02,0 -1.78125,0.82125 -1.78125,1.78125 l 0,16.53125 c 0,1.41 1.06,2.625 2.5,2.625 l 2.1875,0 0,-1.96875 c 0,-0.63 -0.495,-1.09375 -1.125,-1.09375 l 0,-16.09375 c 0,-0.96 -0.79125,-1.78125 -1.78125,-1.78125 z m 38.5625,0.0937 c -2.34,0 -3.5325,1.34375 -3.5625,2.84375 l 0,8.9375 9.125,0 c 0.36,0 0.65625,0.20125 0.65625,0.53125 l 0,4.96875 c 0,0.09 -0.0313,0.1575 -0.0313,0.1875 -0.03,0.06 -0.0625,0.095 -0.0625,0.125 -0.18,0.18 -0.5025,0.21875 -0.5625,0.21875 l -9.25,0 0.0625,0.5 c 0.18,1.89 1.01625,2.5625 2.15625,2.5625 l 7.03125,0 c 2.64,0 3.9375,-1.25125 3.9375,-3.53125 l 0,-4.71875 c 0,-2.4 -1.2175,-4 -4.1875,-4 l -5.5625,0 0,-5.5625 9.125,0 -0.0625,-0.46875 c -0.27,-2.28 -1.66,-2.59375 -2.5,-2.59375 l -6.3125,0 z m -57.71875,6.3125 0,11.4375 c 0,1.86 0.637503,3.34375 3.1875,3.34375 0.63,0 1.31375,-0.0675 2.09375,-0.1875 l 4.96875,-0.84375 0,0.78125 3.5,0 0,-14.53125 -3.5,0 0,10.53125 c 0,0.24 -0.29875,0.59375 -0.71875,0.59375 l -5.375,0 c -0.36,0 -0.71875,-0.295 -0.71875,-0.625 l 0,-10.5 -3.4375,0 z m 36.78125,0.0313 c -0.36,0 -1.07875,0.15875 -1.46875,0.96875 l -4.0625,7.5 -4,-7.5 c -0.39,-0.81 -1.14125,-0.9375 -1.53125,-0.9375 -0.84,0 -1.75,0.605 -1.75,1.625 0,0.24 0.0375,0.51125 0.1875,0.78125 l 4.28125,8.71875 c 0.12,0.21 0.365,0.545 0.875,0.875 l -4.21875,8.34375 1.5625,0.8125 c 0.24,0.09 0.47875,0.15625 0.71875,0.15625 0.72,0 1.45125,-0.33875 1.78125,-0.96875 L 135.5,170.375 c 0.15,-0.27 0.1875,-0.51 0.1875,-0.75 0,-0.99 -0.85,-1.6875 -1.75,-1.6875 z"
       transform="translate(0,1)" />
    <text
       xml:space="preserve"
       style="font-size:30px;font-style:normal;font-variant:normal;font-weight:bold;font-stretch:normal;text-indent:0;text-align:center;text-decoration:none;line-height:100%;letter-spacing:normal;word-spacing:normal;text-transform:none;direction:ltr;block-progression:tb;writing-mode:lr-tb;text-anchor:middle;fill:#ffffff;fill-opacity:1;fill-rule:nonzero;stroke:none;stroke-width:1px;marker:none;visibility:visible;display:inline;overflow:visible;enable-background:accumulate;font-family:FifthLeg;-inkscape-font-specification:FifthLeg Bold"
       x="127.51414"
       y="162.44772"
       id="text6775"
       sodipodi:linespacing="100%"><tspan
         sodipodi:role="line"
         id="tspan6777"
         x="127.51414"
         y="162.44772">July 15</tspan></text>
    <g
       transform="matrix(1.4172298,0,0,1.4172298,-52.988181,-78.252465)"
       id="g13142"
       style="opacity:0.32057417;fill:#ffffff;fill-opacity:1">
      <g
         id="g13144"
         inkscape:label="Layer 1"
         transform="matrix(0.38806727,0,0,0.38806727,50.220169,73.763076)"
         style="opacity:0.58369099;fill:#ffffff;fill-opacity:1;display:inline;filter:url(#filter15859)" />
      <g
         style="fill:#ffffff;fill-opacity:1;display:inline"
         transform="matrix(0.38806727,0,0,0.38806727,50.220169,72.202168)"
         inkscape:label="Layer 1"
         id="g13146">
        <path
           inkscape:connector-curvature="0"
           d="m 177.77915,172.0346 0.35143,-0.033 0.057,-0.41614 c -0.09,-0.32674 -0.30193,-0.62036 -0.62933,-4.67085 -0.2779,-3.58485 -0.84123,-13.41571 4.10688,-18.29079 1.91955,-1.90255 4.85041,-3.59305 7.16205,-4.13988 9.48006,-2.311 21.7856,-0.71053 32.29451,11.44029 5.42256,6.27899 8.08447,9.14514 9.41536,10.42718 l 0.4568,0.42444 0.55566,0.40029 c 0.43263,0.24489 18.06175,8.36159 18.06175,8.36159 l 0.3591,-0.09 0.009,-0.38313 c -0.11419,-0.1307 -11.17005,-14.41297 -9.211,-26.17923 1.55162,-9.37406 9.01444,-8.53296 19.32807,-7.35745 3.3723,0.38378 7.21025,0.82473 11.17889,0.91476 11.0799,0.0654 23.01883,-1.96775 30.37628,-5.18533 4.76036,-2.08196 7.79775,-3.45417 9.7008,-5.18534 0.68506,-0.56333 1.04416,-1.49393 1.41208,-2.47405 l 0.25374,-0.66103 c 0.30959,-0.79237 0.75873,-2.49055 0.95543,-3.41349 0.09,-0.40795 0.13068,-0.84941 -0.15604,-1.0695 l -1.02013,0.18774 c -3.22511,1.9354 -11.30192,5.62627 -18.86243,5.77335 -9.36588,0.19539 -28.24469,-9.42356 -30.21258,-10.44433 l -0.18774,-0.22009 c -0.47445,-1.1273 -3.3076,-7.83127 -3.90392,-9.24336 13.58824,8.94909 24.85586,13.89785 33.48717,14.6654 9.6031,0.85708 17.09125,-4.38477 20.2922,-6.62289 0.62803,-0.42444 1.10249,-0.76755 1.29789,-0.84057 l 0.20423,-0.33493 c -0.53162,-3.37231 -5.55327,-19.70354 -9.34169,-23.62333 -1.05301,-1.07781 -1.89423,-2.12262 -3.59305,-3.11923 -13.72648,-8.001978 -46.3154,-12.83653 -47.8417,-13.056617 l -0.26139,0.07353 -0.0977,0.228399 c 0,0 -0.12302,6.761123 -0.13954,7.512835 -3.33177,-1.110809 -27.52531,-8.925574 -50.2105,-9.717299 -19.22893,-0.677658 -45.49818,-1.592418 -82.61907,21.22216 l -1.09431,0.68571 c -17.45789,10.892822 -29.510359,24.317372 -35.814037,39.929872 -1.97607,4.90744 -4.637854,15.98864 -2.00907,26.41582 1.143159,4.56497 3.258113,9.13748 6.116594,13.23681 6.442691,9.25934 17.261843,15.40894 28.914033,16.44543 16.44542,1.46925 28.90636,-5.9199 33.33998,-19.75304 3.04556,-9.54541 0,-23.54914 -11.67688,-30.69405 -9.49657,-5.8222 -19.72003,-4.4913 -25.64006,-0.57982 -5.14415,3.41297 -8.05901,8.70419 -8.00198,14.52651 0.1142,10.31299 9.00678,15.80025 15.39243,15.80856 1.86122,0 3.72309,-0.31843 5.82986,-1.00414 0.74353,-0.22905 1.45341,-0.50617 2.22916,-0.9883 l 0.23723,-0.15473 0.15473,-0.09 -0.057,0.0247 c 1.46159,-0.98011 2.34335,-2.59644 2.34335,-4.32774 0,-0.47381 -0.0735,-0.95542 -0.20423,-1.43742 -0.75107,-2.60474 -3.33178,-4.18873 -6.01006,-3.69906 l -0.3591,0.0735 -0.4898,0.16305 -0.71052,0.23723 c -1.46978,0.36729 -2.58059,0.39211 -2.80898,0.39964 -0.75107,-0.0489 -4.43428,-1.15069 -4.43428,-5.18469 l 0,-0.0488 c 0.009,-1.4781 0.60452,-2.51524 0.93126,-3.07857 1.13485,-1.79652 4.27058,-3.56005 8.50815,-3.18458 5.55326,0.47329 9.55425,3.32347 12.20785,8.69653 2.46639,4.99695 1.82134,11.13771 -1.65763,15.64487 -3.45417,4.46727 -9.60246,6.36149 -17.78464,5.47076 -8.2474,-0.90593 -15.22042,-5.65032 -19.123707,-13.04011 -3.821442,-7.21857 -4.03399,-15.7844 -0.54683,-22.36532 8.353417,-15.75972 24.120657,-15.59667 32.768467,-14.10208 12.80353,2.21266 24.42324,12.46028 29.59208,26.0892 0.82472,2.17211 1.24904,3.89497 1.61632,5.46258 l 0.55566,2.35985 14.46053,7.06305 0.19669,0.13888 3.9e-4,-1.3e-4 z M 280.56753,95.11467 c -2.72649,2.53108 -4.28708,5.98525 -4.41778,9.70899 -0.25242,7.67524 5.774,14.14261 13.44872,14.42882 3.74025,0.12238 7.28378,-1.19266 10.00273,-3.74024 2.71895,-2.53941 4.27942,-5.98525 4.41777,-9.70081 0.2614,-7.68354 -5.76515,-14.1591 -13.45624,-14.43636 -3.72374,-0.12237 -7.27625,1.19202 -9.9952,3.7396 m 9.55575,19.96499 c -5.46064,-0.20052 -9.74704,-4.80372 -9.56466,-10.27218 0.0841,-2.64754 1.21583,-5.0947 3.13905,-6.90149 1.93101,-1.80627 4.45313,-2.74648 7.10068,-2.64688 5.46845,0.19137 9.75604,4.7869 9.57234,10.2637 -0.0828,2.6392 -1.19901,5.08622 -3.13004,6.90083 -1.94002,1.79845 -4.46215,2.7388 -7.11751,2.65602 l 1.4e-4,0 z m 2.2983,-8.98258 c 2.43032,0 4.40267,-1.31476 4.40267,-2.92951 0,-1.62323 -1.97247,-2.93866 -4.40267,-2.93866 -2.43154,0 -4.3962,1.31543 -4.3962,2.93866 0,1.61475 1.96466,2.92951 4.3962,2.92951"
           style="fill:#ffffff;fill-opacity:1;fill-rule:evenodd;stroke:none"
           id="path13148" />
        <path
           id="path13152"
           style="fill:#000000;fill-opacity:1;fill-rule:evenodd;stroke:none"
           d="m 177.77915,166.88085 0.35143,-0.033 0.057,-0.41614 c -0.09,-0.32674 -0.30193,-0.62036 -0.62933,-4.67085 -0.2779,-3.58485 -0.84123,-13.41571 4.10688,-18.29079 1.91955,-1.90255 4.85041,-3.59305 7.16205,-4.13988 9.48006,-2.311 21.7856,-0.71053 32.29451,11.44029 5.42256,6.27899 8.08447,9.14514 9.41536,10.42718 l 0.4568,0.42444 0.55566,0.40029 c 0.43263,0.24489 18.06175,8.36159 18.06175,8.36159 l 0.3591,-0.09 0.009,-0.38313 c -0.11419,-0.1307 -11.17005,-14.41297 -9.211,-26.17923 1.55162,-9.37406 9.01444,-8.53296 19.32807,-7.35745 3.3723,0.38378 7.21025,0.82473 11.17889,0.91476 11.0799,0.0654 23.01883,-1.96775 30.37628,-5.18533 4.76036,-2.08196 7.79775,-3.45417 9.7008,-5.18534 0.68506,-0.56333 1.04416,-1.49393 1.41208,-2.47405 l 0.25374,-0.66103 c 0.30959,-0.79237 0.75873,-2.49055 0.95543,-3.41349 0.09,-0.40795 0.13068,-0.84941 -0.15604,-1.0695 l -1.02013,0.18774 c -3.22511,1.9354 -11.30192,5.62627 -18.86243,5.77335 -9.36588,0.19539 -28.24469,-9.42356 -30.21258,-10.44433 l -0.18774,-0.22009 c -0.47445,-1.1273 -3.3076,-7.83127 -3.90392,-9.24336 13.58824,8.94909 24.85586,13.89785 33.48717,14.6654 9.6031,0.85708 17.09125,-4.38477 20.2922,-6.62289 0.62803,-0.42444 1.10249,-0.76755 1.29789,-0.84057 l 0.20423,-0.33493 c -0.53162,-3.37231 -5.55327,-19.703536 -9.34169,-23.623326 -1.05301,-1.07781 -1.89423,-2.12262 -3.59305,-3.11923 -13.72648,-8.001978 -46.3154,-12.83653 -47.8417,-13.056617 l -0.26139,0.07353 -0.0977,0.228399 c 0,0 -0.12302,6.761123 -0.13954,7.512835 -3.33177,-1.110809 -27.52531,-8.925574 -50.2105,-9.717299 -19.22893,-0.677658 -45.49818,-1.592418 -82.61907,21.22216 l -1.09431,0.68571 c -17.45789,10.892818 -29.510359,24.317368 -35.814037,39.929868 -1.97607,4.90744 -4.637854,15.98864 -2.00907,26.41582 1.143159,4.56497 3.258113,9.13748 6.116594,13.23681 6.442691,9.25934 17.261843,15.40894 28.914033,16.44543 16.44542,1.46925 28.90636,-5.9199 33.33998,-19.75304 3.04556,-9.54541 0,-23.54914 -11.67688,-30.69405 -9.49657,-5.8222 -19.72003,-4.4913 -25.64006,-0.57982 -5.14415,3.41297 -8.05901,8.70419 -8.00198,14.52651 0.1142,10.31299 9.00678,15.80025 15.39243,15.80856 1.86122,0 3.72309,-0.31843 5.82986,-1.00414 0.74353,-0.22905 1.45341,-0.50617 2.22916,-0.9883 l 0.23723,-0.15473 0.15473,-0.09 -0.057,0.0247 c 1.46159,-0.98011 2.34335,-2.59644 2.34335,-4.32774 0,-0.47381 -0.0735,-0.95542 -0.20423,-1.43742 -0.75107,-2.60474 -3.33178,-4.18873 -6.01006,-3.69906 l -0.3591,0.0735 -0.4898,0.16305 -0.71052,0.23723 c -1.46978,0.36729 -2.58059,0.39211 -2.80898,0.39964 -0.75107,-0.0489 -4.43428,-1.15069 -4.43428,-5.18469 l 0,-0.0488 c 0.009,-1.4781 0.60452,-2.51524 0.93126,-3.07857 1.13485,-1.79652 4.27058,-3.56005 8.50815,-3.18458 5.55326,0.47329 9.55425,3.32347 12.20785,8.69653 2.46639,4.99695 1.82134,11.13771 -1.65763,15.64487 -3.45417,4.46727 -9.60246,6.36149 -17.78464,5.47076 -8.2474,-0.90593 -15.22042,-5.65032 -19.123707,-13.04011 -3.821442,-7.21857 -4.03399,-15.7844 -0.54683,-22.36532 8.353417,-15.75972 24.120657,-15.59667 32.768467,-14.10208 12.80353,2.21266 24.42324,12.46028 29.59208,26.0892 0.82472,2.17211 1.24904,3.89497 1.61632,5.46258 l 0.55566,2.35985 14.46053,7.06305 0.19669,0.13888 3.9e-4,-1.3e-4 z M 280.56753,89.960924 c -2.72649,2.53108 -4.28708,5.98525 -4.41778,9.70899 -0.25242,7.675236 5.774,14.142606 13.44872,14.428816 3.74025,0.12238 7.28378,-1.19266 10.00273,-3.74024 2.71895,-2.53941 4.27942,-5.98525 4.41777,-9.70081 0.2614,-7.683536 -5.76515,-14.159096 -13.45624,-14.436356 -3.72374,-0.12237 -7.27625,1.19202 -9.9952,3.7396 m 9.55575,19.964986 c -5.46064,-0.20052 -9.74704,-4.80372 -9.56466,-10.272176 0.0841,-2.64754 1.21583,-5.0947 3.13905,-6.90149 1.93101,-1.80627 4.45313,-2.74648 7.10068,-2.64688 5.46845,0.19137 9.75604,4.7869 9.57234,10.263696 -0.0828,2.6392 -1.19901,5.08622 -3.13004,6.90083 -1.94002,1.79845 -4.46215,2.7388 -7.11751,2.65602 l 1.4e-4,0 z m 2.2983,-8.98258 c 2.43032,0 4.40267,-1.314756 4.40267,-2.929506 0,-1.62323 -1.97247,-2.93866 -4.40267,-2.93866 -2.43154,0 -4.3962,1.31543 -4.3962,2.93866 0,1.61475 1.96466,2.929506 4.3962,2.929506"
           inkscape:connector-curvature="0" />
      </g>
    </g>
    <g
       id="g13127"
       transform="matrix(1.4172298,0,0,1.4172298,-52.988181,-80.024002)">
      <g
         style="opacity:0.58369099;fill:#000000;fill-opacity:1;display:inline;filter:url(#filter15859)"
         transform="matrix(0.38806727,0,0,0.38806727,50.220169,73.763076)"
         inkscape:label="Layer 1"
         id="layer1-0" />
      <g
         id="g15853"
         inkscape:label="Layer 1"
         transform="matrix(0.38806727,0,0,0.38806727,50.220169,72.202168)"
         style="fill:#ffffff;fill-opacity:1;display:inline">
        <path
           id="path15857"
           style="fill:url(#pattern13154);fill-opacity:1;fill-rule:evenodd;stroke:none"
           d="m 177.77915,172.0346 0.35143,-0.033 0.057,-0.41614 c -0.09,-0.32674 -0.30193,-0.62036 -0.62933,-4.67085 -0.2779,-3.58485 -0.84123,-13.41571 4.10688,-18.29079 1.91955,-1.90255 4.85041,-3.59305 7.16205,-4.13988 9.48006,-2.311 21.7856,-0.71053 32.29451,11.44029 5.42256,6.27899 8.08447,9.14514 9.41536,10.42718 l 0.4568,0.42444 0.55566,0.40029 c 0.43263,0.24489 18.06175,8.36159 18.06175,8.36159 l 0.3591,-0.09 0.009,-0.38313 c -0.11419,-0.1307 -11.17005,-14.41297 -9.211,-26.17923 1.55162,-9.37406 9.01444,-8.53296 19.32807,-7.35745 3.3723,0.38378 7.21025,0.82473 11.17889,0.91476 11.0799,0.0654 23.01883,-1.96775 30.37628,-5.18533 4.76036,-2.08196 7.79775,-3.45417 9.7008,-5.18534 0.68506,-0.56333 1.04416,-1.49393 1.41208,-2.47405 l 0.25374,-0.66103 c 0.30959,-0.79237 0.75873,-2.49055 0.95543,-3.41349 0.09,-0.40795 0.13068,-0.84941 -0.15604,-1.0695 l -1.02013,0.18774 c -3.22511,1.9354 -11.30192,5.62627 -18.86243,5.77335 -9.36588,0.19539 -28.24469,-9.42356 -30.21258,-10.44433 l -0.18774,-0.22009 c -0.47445,-1.1273 -3.3076,-7.83127 -3.90392,-9.24336 13.58824,8.94909 24.85586,13.89785 33.48717,14.6654 9.6031,0.85708 17.09125,-4.38477 20.2922,-6.62289 0.62803,-0.42444 1.10249,-0.76755 1.29789,-0.84057 l 0.20423,-0.33493 c -0.53162,-3.37231 -5.55327,-19.70354 -9.34169,-23.62333 -1.05301,-1.07781 -1.89423,-2.12262 -3.59305,-3.11923 -13.72648,-8.001978 -46.3154,-12.83653 -47.8417,-13.056617 l -0.26139,0.07353 -0.0977,0.228399 c 0,0 -0.12302,6.761123 -0.13954,7.512835 -3.33177,-1.110809 -27.52531,-8.925574 -50.2105,-9.717299 -19.22893,-0.677658 -45.49818,-1.592418 -82.61907,21.22216 l -1.09431,0.68571 c -17.45789,10.892822 -29.510359,24.317372 -35.814037,39.929872 -1.97607,4.90744 -4.637854,15.98864 -2.00907,26.41582 1.143159,4.56497 3.258113,9.13748 6.116594,13.23681 6.442691,9.25934 17.261843,15.40894 28.914033,16.44543 16.44542,1.46925 28.90636,-5.9199 33.33998,-19.75304 3.04556,-9.54541 0,-23.54914 -11.67688,-30.69405 -9.49657,-5.8222 -19.72003,-4.4913 -25.64006,-0.57982 -5.14415,3.41297 -8.05901,8.70419 -8.00198,14.52651 0.1142,10.31299 9.00678,15.80025 15.39243,15.80856 1.86122,0 3.72309,-0.31843 5.82986,-1.00414 0.74353,-0.22905 1.45341,-0.50617 2.22916,-0.9883 l 0.23723,-0.15473 0.15473,-0.09 -0.057,0.0247 c 1.46159,-0.98011 2.34335,-2.59644 2.34335,-4.32774 0,-0.47381 -0.0735,-0.95542 -0.20423,-1.43742 -0.75107,-2.60474 -3.33178,-4.18873 -6.01006,-3.69906 l -0.3591,0.0735 -0.4898,0.16305 -0.71052,0.23723 c -1.46978,0.36729 -2.58059,0.39211 -2.80898,0.39964 -0.75107,-0.0489 -4.43428,-1.15069 -4.43428,-5.18469 l 0,-0.0488 c 0.009,-1.4781 0.60452,-2.51524 0.93126,-3.07857 1.13485,-1.79652 4.27058,-3.56005 8.50815,-3.18458 5.55326,0.47329 9.55425,3.32347 12.20785,8.69653 2.46639,4.99695 1.82134,11.13771 -1.65763,15.64487 -3.45417,4.46727 -9.60246,6.36149 -17.78464,5.47076 -8.2474,-0.90593 -15.22042,-5.65032 -19.123707,-13.04011 -3.821442,-7.21857 -4.03399,-15.7844 -0.54683,-22.36532 8.353417,-15.75972 24.120657,-15.59667 32.768467,-14.10208 12.80353,2.21266 24.42324,12.46028 29.59208,26.0892 0.82472,2.17211 1.24904,3.89497 1.61632,5.46258 l 0.55566,2.35985 14.46053,7.06305 0.19669,0.13888 3.9e-4,-1.3e-4 z M 280.56753,95.11467 c -2.72649,2.53108 -4.28708,5.98525 -4.41778,9.70899 -0.25242,7.67524 5.774,14.14261 13.44872,14.42882 3.74025,0.12238 7.28378,-1.19266 10.00273,-3.74024 2.71895,-2.53941 4.27942,-5.98525 4.41777,-9.70081 0.2614,-7.68354 -5.76515,-14.1591 -13.45624,-14.43636 -3.72374,-0.12237 -7.27625,1.19202 -9.9952,3.7396 m 9.55575,19.96499 c -5.46064,-0.20052 -9.74704,-4.80372 -9.56466,-10.27218 0.0841,-2.64754 1.21583,-5.0947 3.13905,-6.90149 1.93101,-1.80627 4.45313,-2.74648 7.10068,-2.64688 5.46845,0.19137 9.75604,4.7869 9.57234,10.2637 -0.0828,2.6392 -1.19901,5.08622 -3.13004,6.90083 -1.94002,1.79845 -4.46215,2.7388 -7.11751,2.65602 l 1.4e-4,0 z m 2.2983,-8.98258 c 2.43032,0 4.40267,-1.31476 4.40267,-2.92951 0,-1.62323 -1.97247,-2.93866 -4.40267,-2.93866 -2.43154,0 -4.3962,1.31543 -4.3962,2.93866 0,1.61475 1.96466,2.92951 4.3962,2.92951"
           inkscape:connector-curvature="0" />
      </g>
    </g>
  </g>
</svg>
