<?xml version="1.0" encoding="UTF-8" standalone="no"?>
<!-- Created with Inkscape (http://www.inkscape.org/) -->

<svg
   xmlns:dc="http://purl.org/dc/elements/1.1/"
   xmlns:cc="http://creativecommons.org/ns#"
   xmlns:rdf="http://www.w3.org/1999/02/22-rdf-syntax-ns#"
   xmlns:svg="http://www.w3.org/2000/svg"
   xmlns="http://www.w3.org/2000/svg"
   xmlns:sodipodi="http://sodipodi.sourceforge.net/DTD/sodipodi-0.dtd"
   xmlns:inkscape="http://www.inkscape.org/namespaces/inkscape"
   width="744.09448819"
   height="1052.3622047"
   id="svg2"
   version="1.1"
   inkscape:version="0.48.2 r9819"
   sodipodi:docname="Logo_Proposal_2.svg">
  <defs
     id="defs4" />
  <sodipodi:namedview
     id="base"
     pagecolor="#ffffff"
     bordercolor="#666666"
     borderopacity="1.0"
     inkscape:pageopacity="0.0"
     inkscape:pageshadow="2"
     inkscape:zoom="0.7"
     inkscape:cx="385.12988"
     inkscape:cy="792.13805"
     inkscape:document-units="px"
     inkscape:current-layer="layer1"
     showgrid="false"
     inkscape:window-width="2560"
     inkscape:window-height="1331"
     inkscape:window-x="0"
     inkscape:window-y="0"
     inkscape:window-maximized="1" />
  <metadata
     id="metadata7">
    <rdf:RDF>
      <cc:Work
         rdf:about="">
        <dc:format>image/svg+xml</dc:format>
        <dc:type
           rdf:resource="http://purl.org/dc/dcmitype/StillImage" />
        <dc:title />
      </cc:Work>
    </rdf:RDF>
  </metadata>
  <g
     inkscape:label="Layer 1"
     inkscape:groupmode="layer"
     id="layer1">
    <g
       id="g4234"
       transform="translate(-24.539734,0)">
      <g
         style="fill:#5fd35f"
         transform="matrix(0.84599518,0,0,0.84599518,68.724481,-13.42138)"
         id="g4107">
        <path
           inkscape:connector-curvature="0"
           id="path3857"
           d="m 396.18203,289.09913 c 0,0 -23.57143,-0.71429 -48.57143,-5 -25,-4.28572 -139.91589,24.01958 -139.91589,24.01958 -68.93019,121.99347 -15.6791,243.98695 50.63018,365.98042 0,0 146.42857,-82.85715 177.85714,-137.14286 31.42857,-54.28571 103.57143,-20 132.85715,-45 29.28571,-25 145.71428,-117.14286 147.85714,-165 2.14286,-47.85714 -2.14286,-28.57143 -2.14286,-28.57143 0,0 3.57143,-10 -7.85714,-12.85714 -11.42857,-2.85715 -30.71429,-28.57143 -30.71429,-28.57143 0,0 -82.14285,-62.85714 -104.28571,-55 -22.14286,7.85714 -42.14286,12.85714 -42.14286,12.85714 0,0 -118.57143,-40 -142.85714,-21.42857 -24.28572,18.57143 -22.85714,25.71429 -22.85714,25.71429 0,0 63.57142,147.14285 85.71428,143.57142 22.14286,-3.57142 49.28572,31.42858 49.28572,31.42858 0,0 3.57142,5.71428 10,5.71428 6.42857,0 0,-2.14286 0,-2.14286"
           style="fill:#5fd35f;stroke:#ffffff;stroke-width:2.36407971;stroke-linecap:butt;stroke-linejoin:miter;stroke-miterlimit:4;stroke-opacity:1;stroke-dasharray:none"
           sodipodi:nodetypes="csccssscscscscscsc" />
        <path
           sodipodi:nodetypes="cccccccccccccccccccccccccccccccc"
           style="fill:#5fd35f;stroke:none"
           d="m 394.40754,276.29857 -10.73239,12.48448 -3.89346,-10.31489 -7.9881,9.17331 -8.4389,-10.26855 -5.20259,9.90257 -9.69383,-9.49808 -3.17722,10.387 -6.67897,-11.04414 -4.19761,9.38722 -6.66355,-9.529 -4.95262,9.64746 -9.69897,-10.00313 -7.2331,8.91304 -3.39355,-10.82507 -7.97264,10.68846 -8.17866,-9.51352 -4.94234,10.65757 -7.41336,-8.76371 -4.43727,10.65241 -4.87784,-7.77934 -9.25843,8.42861 -4.15887,-11.57493 -6.42656,13.70332 -6.90834,-8.76884 0.86836,10.85084 -11.42286,-5.69219 1.35273,8.82552 -7.1119,-3.96829 5.74639,18.89106 c 0,0 39.11506,-23.83302 159.82614,-20.04381 z"
           id="path3881"
           inkscape:connector-curvature="0" />
      </g>
      <g
         style="fill:#5fd35f"
         transform="matrix(0.84599518,0,0,0.84599518,68.724481,-13.42138)"
         id="g4094">
        <path
           sodipodi:nodetypes="csc"
           inkscape:connector-curvature="0"
           id="path3859"
           d="m 521.89632,367.67055 c 0,0 3.57143,12.14286 45.71428,-2.85714 42.14286,-15 128.57143,-40 146.42858,-64.28571"
           style="fill:#5fd35f;stroke:#ffffff;stroke-width:2.36407971;stroke-linecap:round;stroke-linejoin:round;stroke-miterlimit:4;stroke-opacity:1;stroke-dasharray:none" />
        <path
           sodipodi:nodetypes="csssc"
           inkscape:connector-curvature="0"
           id="path3861"
           d="m 467.6106,276.95627 c 0,0 10,11.42857 33.57143,-5 23.57143,-16.42857 67.85715,-39.28572 90,-27.85714 22.14286,11.42857 85,45 102.14286,41.42857 17.14286,-3.57143 -12.14286,32.14285 -60.71429,45"
           style="fill:#5fd35f;stroke:#ffffff;stroke-width:2.36407971;stroke-linecap:round;stroke-linejoin:round;stroke-miterlimit:4;stroke-opacity:1;stroke-dasharray:none" />
        <path
           inkscape:connector-curvature="0"
           id="path3863"
           d="m 526.99221,213.90719 c 0,0 100.0343,43.92767 114.54309,42.3303 14.50879,-1.59737 -3.81811,0 -3.81811,0"
           style="fill:#5fd35f;stroke:#ffffff;stroke-width:2.36407971;stroke-linecap:round;stroke-linejoin:round;stroke-miterlimit:4;stroke-opacity:1;stroke-dasharray:none" />
        <path
           transform="translate(-34.532258,-162.54877)"
           d="m 649.2857,458.79074 c 0,22.48588 -18.22841,40.71429 -40.71429,40.71429 -22.48588,0 -40.71429,-18.22841 -40.71429,-40.71429 0,-22.48588 18.22841,-40.71429 40.71429,-40.71429 22.48588,0 40.71429,18.22841 40.71429,40.71429 z"
           sodipodi:ry="40.714287"
           sodipodi:rx="40.714287"
           sodipodi:cy="458.79074"
           sodipodi:cx="608.57141"
           id="path3865"
           style="fill:#5fd35f;stroke:#ffffff;stroke-width:2.36407971;stroke-linecap:round;stroke-linejoin:round;stroke-miterlimit:4;stroke-opacity:1;stroke-dasharray:none"
           sodipodi:type="arc" />
        <path
           sodipodi:type="arc"
           style="fill:#5fd35f;fill-opacity:1;stroke:#ffffff;stroke-width:12.25023079;stroke-linecap:round;stroke-linejoin:round;stroke-miterlimit:4;stroke-opacity:1;stroke-dasharray:none"
           id="path3867"
           sodipodi:cx="608.57141"
           sodipodi:cy="458.79074"
           sodipodi:rx="40.714287"
           sodipodi:ry="40.714287"
           d="m 649.2857,458.79074 c 0,22.48588 -18.22841,40.71429 -40.71429,40.71429 -22.48588,0 -40.71429,-18.22841 -40.71429,-40.71429 0,-22.48588 18.22841,-40.71429 40.71429,-40.71429 22.48588,0 40.71429,18.22841 40.71429,40.71429 z"
           transform="matrix(0.19298246,0,0,0.19298246,432.30983,209.84625)" />
        <path
           transform="matrix(0.14912282,0,0,0.14912282,569.3587,234.61151)"
           d="m 649.2857,458.79074 c 0,22.48588 -18.22841,40.71429 -40.71429,40.71429 -22.48588,0 -40.71429,-18.22841 -40.71429,-40.71429 0,-22.48588 18.22841,-40.71429 40.71429,-40.71429 22.48588,0 40.71429,18.22841 40.71429,40.71429 z"
           sodipodi:ry="40.714287"
           sodipodi:rx="40.714287"
           sodipodi:cy="458.79074"
           sodipodi:cx="608.57141"
           id="path3869"
           style="fill:#5fd35f;stroke:#ffffff;stroke-width:15.85323811;stroke-linecap:round;stroke-linejoin:round;stroke-miterlimit:4;stroke-opacity:1;stroke-dasharray:none"
           sodipodi:type="arc" />
        <path
           sodipodi:nodetypes="cc"
           inkscape:connector-curvature="0"
           id="path3875"
           d="m 581.18203,272.67055 c 14.86622,4.88586 28.36893,46.17861 5,59.28572"
           style="fill:#5fd35f;stroke:#ffffff;stroke-width:2.36407971;stroke-linecap:round;stroke-linejoin:round;stroke-miterlimit:4;stroke-opacity:1;stroke-dasharray:none" />
        <path
           sodipodi:nodetypes="cc"
           style="fill:#5fd35f;stroke:#ffffff;stroke-width:2.36407971;stroke-linecap:round;stroke-linejoin:round;stroke-miterlimit:4;stroke-opacity:1;stroke-dasharray:none"
           d="m 559.182,274.67054 c 23.54048,1.10843 36.29787,56.57869 5,59.28573"
           id="path3877"
           inkscape:connector-curvature="0" />
        <path
           inkscape:connector-curvature="0"
           id="path5561"
           d="m 541.16204,212.32655 67.16129,35.2242 -78.50817,-32.63893 z"
           style="fill:#5fd35f;fill-opacity:1;stroke:none" />
        <path
           inkscape:connector-curvature="0"
           id="path5565"
           d="m 388.02285,289.93919 53.43332,70.14988 -45.07503,-71.04542 z"
           style="fill:#5fd35f;fill-opacity:1;stroke:none" />
        <path
           inkscape:connector-curvature="0"
           id="path3879"
           d="m 492.25346,501.50211 7.5,9.64285 3.57143,-9.64285 6.07143,6.07142 4.28571,-7.85714 5,6.78572 4.64286,-5.71429 3.57143,5 5.71429,-6.42857 6.42857,7.5 5.35714,-7.85714 6.07143,6.42857 2.5,-7.85715 11.42857,4.28572 3.92857,-9.28572 11.07143,0.35715 3.57143,-9.64286 10.35714,0.35714 1.42857,-12.14285 12.5,5 -1.07143,-16.42858 10,4.64286 -0.71428,-12.14286 13.21428,1.42858 -3.21428,-10.71429 13.57143,0 -5,-9.64286 12.5,3.21429 -3.57143,-9.64286 11.42857,2.14286 -3.21429,-10.35714 13.92858,0.35714 -1.07143,-11.42857 10,5.35714 -1.78572,-13.21429 12.5,1.07143 -3.92857,-11.07143 11.42857,1.07143 -4.28571,-10.71428 8.92857,2.14285 0.71429,-12.5 11.07142,5.35715 -5,-14.28572 11.07143,1.42857 -8.21428,-7.14285 12.14285,-3.92857 -7.14285,-5.35715 7.85714,-2.14285 -6.42857,-2.85715 c 0,0 -125.35714,145.71429 -155.35714,154.28572 -30,8.57143 -65.35715,6.07143 -65.35715,6.07143 z"
           style="fill:#5fd35f;stroke:none" />
      </g>
      <path
         inkscape:connector-curvature="0"
         id="path3762"
         d="M 155.45218,193.06063 C 74.929335,332.5303 122.70831,510.8438 262.17799,591.36667 393.53438,667.20543 559.37673,629.22588 645.49811,508.03263 L 608.49546,443.95666 C 546.04461,524.73911 431.92233,548.93012 341.04274,496.46079 241.92368,439.23437 207.98863,312.49716 265.21505,213.37811 298.5236,155.68603 355.38358,120.10267 416.63866,111.69088 L 380.19873,48.54731 C 289.59738,57.294553 204.43229,108.2246 155.45218,193.06063 z"
         style="fill:#da4000;fill-opacity:1;fill-rule:nonzero;stroke:none" />
      <path
         id="path3899"
         style="fill:none;stroke:#ffffff;stroke-width:2;stroke-linecap:butt;stroke-linejoin:miter;stroke-miterlimit:4;stroke-opacity:1;stroke-dasharray:none"
         d="M 268.22937,219.61339 165.84362,172.9823 c -30.48688,47.69256 -46.7879,97.96436 -47.64485,151.04418 l 51.49119,-1.46844 71.16896,-2.58645 m 42.57624,117.59144 -112.52294,71.97406 m 383.18626,-16.21949 41.56254,72.98778 m -249.3752,60.82315 45.61742,-110.49539 m 86.16623,2.02744 22.30185,98.33077 M 262.52407,52.935511 330.44333,149.23884 M 402.14232,61.636191 C 303.71157,83.959992 240.15537,130.90635 204.41517,188.27946 64.72982,412.51391 349.94055,796.01931 638.6448,491.29015 M 442.2836,70.759666 C -22.602484,170.1956 303.03497,825.32947 651.41563,444.65906"
         inkscape:connector-curvature="0"
         sodipodi:nodetypes="ccccccccccccccccsccc" />
      <path
         style="fill:#ffffff;fill-opacity:1;fill-rule:nonzero;stroke:#ffffff;stroke-width:2;stroke-linecap:round;stroke-linejoin:round;stroke-miterlimit:4;stroke-opacity:1;stroke-dasharray:none"
         d="m 169.96651,306.29685 c 1.24028,-30.02751 8.50353,-61.02978 20.79366,-88.75514 5.06142,-11.41806 12.76231,-25.11603 13.97798,-24.86335 0.75572,0.15708 30.35866,13.36098 31.35567,13.98567 0.15064,0.0944 -1.60426,4.21524 -3.89977,9.15745 -12.80862,27.57684 -20.0705,57.64085 -21.74191,90.01103 l -0.68906,13.34498 -4.14416,0.50109 c -2.2793,0.27561 -11.37125,0.71185 -20.20435,0.96942 l -16.06018,0.4683 0.61212,-14.81945 0,0 z"
         id="path3968"
         inkscape:connector-curvature="0" />
      <path
         style="fill:#ffffff;fill-opacity:1;fill-rule:nonzero;stroke:#ffffff;stroke-width:2;stroke-linecap:round;stroke-linejoin:round;stroke-miterlimit:4;stroke-opacity:1;stroke-dasharray:none"
         d="m 306.64374,112.80539 c -3.67352,-5.2689 -6.67912,-10.02737 -6.67912,-10.57437 0,-1.23904 18.04697,-10.502102 32.82996,-16.850797 13.65499,-5.864265 49.15707,-17.689375 53.91781,-17.95906 3.29286,-0.186532 3.70369,0.170968 7.31516,6.365605 2.1045,3.60978 3.50692,6.830424 3.1165,7.156986 -0.39042,0.326561 -6.61925,2.763479 -13.84184,5.415374 -15.29449,5.615623 -31.62875,12.986714 -44.38164,20.027902 -10.13338,5.5949 -21.44719,12.49449 -23.94308,14.60141 -1.47528,1.24537 -2.37864,0.35834 -8.33375,-8.18305 z"
         id="path3970"
         inkscape:connector-curvature="0" />
      <path
         style="fill:#ffffff;fill-opacity:1;fill-rule:nonzero;stroke:#ffffff;stroke-width:2;stroke-linecap:round;stroke-linejoin:round;stroke-miterlimit:4;stroke-opacity:1;stroke-dasharray:none"
         d="m 347.94687,590.58345 c -23.59852,-8.65351 -38.42317,-16.5071 -59.09393,-31.30595 -22.68241,-16.23905 -46.95031,-41.43456 -65.02712,-67.51271 l -6.81002,-9.82433 5.86653,-3.75848 c 24.41808,-15.64379 28.99664,-18.51018 29.51872,-18.48003 0.32531,0.0188 2.94502,3.54168 5.82157,7.82868 17.41563,25.95495 45.77532,52.65396 72.93647,68.66545 10.68213,6.29712 27.69025,14.15926 36.73829,16.98258 3.19461,0.99684 5.80838,2.17248 5.80838,2.61255 0,1.5207 -15.42932,38.22671 -16.04741,38.17644 -0.34106,-0.0278 -4.71123,-1.55064 -9.71148,-3.3842 l 0,0 z"
         id="path3972"
         inkscape:connector-curvature="0" />
      <path
         style="fill:#ffffff;fill-opacity:1;fill-rule:nonzero;stroke:#ffffff;stroke-width:2;stroke-linecap:round;stroke-linejoin:round;stroke-miterlimit:4;stroke-opacity:1;stroke-dasharray:none"
         d="m 495.38071,587.63045 c -0.23823,-0.65368 -1.81234,-7.32519 -3.49801,-14.82557 -1.68567,-7.50038 -3.27234,-14.31891 -3.52593,-15.15229 -0.34505,-1.13396 1.50343,-2.10876 7.34626,-3.87407 19.8801,-6.00641 46.96124,-18.47979 64.42459,-29.67352 l 7.1149,-4.56053 6.35452,11.10195 c 5.25822,9.18661 6.12161,11.32363 5.00449,12.3868 -2.28779,2.17731 -19.06329,13.62001 -28.11547,19.17778 -16.33808,10.03111 -32.98359,18.30044 -49.81379,24.74701 -3.51249,1.34541 -4.97839,1.53169 -5.29156,0.67244 l 0,0 z"
         id="path3974"
         inkscape:connector-curvature="0" />
      <path
         style="fill:#ffffff;fill-opacity:1;fill-rule:nonzero;stroke:#ffffff;stroke-width:2;stroke-linecap:round;stroke-linejoin:round;stroke-miterlimit:4;stroke-opacity:1;stroke-dasharray:none"
         d="m 562.09921,504.35201 c -3.33351,-5.91577 -6.17025,-11.00307 -6.30388,-11.3051 -0.13363,-0.30204 2.55808,-2.35429 5.98157,-4.56057 12.25065,-7.89496 30.49057,-24.51452 42.99184,-39.17261 1.77688,-2.08344 3.40934,-3.78807 3.62769,-3.78807 0.42132,0 14.81701,24.74896 14.81701,25.47329 0,0.58596 -19.03482,17.16638 -28.28428,24.63723 -7.37409,5.9561 -19.14366,14.63074 -24.24366,17.86852 l -2.52538,1.60326 -6.06091,-10.75595 z"
         id="path3976"
         inkscape:connector-curvature="0" />
      <path
         style="fill:#ffffff;fill-opacity:1;fill-rule:nonzero;stroke:#ffffff;stroke-width:2;stroke-linecap:round;stroke-linejoin:round;stroke-miterlimit:4;stroke-opacity:1;stroke-dasharray:none"
         d="m 590.836,554.41033 c -2.32643,-4.05038 -4.77606,-8.23876 -5.44363,-9.30749 -1.09404,-1.75147 -0.0547,-2.90821 10.53695,-11.72672 12.92686,-10.76282 29.20587,-25.80619 36.44264,-33.6765 l 4.65841,-5.06623 3.79696,6.47852 c 4.42621,7.55219 4.82682,6.2184 -5.96569,19.86212 -7.74548,9.79171 -25.08676,28.02981 -34.05575,35.81697 l -5.74003,4.98368 -4.22986,-7.36435 0,0 z"
         id="path3978"
         inkscape:connector-curvature="0" />
      <path
         style="fill:#ffffff;fill-opacity:1;fill-rule:nonzero;stroke:#ffffff;stroke-width:2;stroke-linecap:round;stroke-linejoin:round;stroke-miterlimit:4;stroke-opacity:1;stroke-dasharray:none"
         d="m 395.42404,629.71373 c -12.84903,-0.57383 -44.49459,-4.59714 -45.70869,-5.81125 -0.2717,-0.27169 9.71488,-25.02589 10.35896,-25.67725 0.18412,-0.18621 4.12201,0.60728 8.75087,1.7633 14.80645,3.69779 29.626,5.32618 48.82221,5.36465 24.03212,0.0482 44.15662,-2.80824 66.00911,-9.36911 5.31294,-1.59513 9.71414,-2.80367 9.78045,-2.68565 0.38809,0.69071 4.51757,20.02288 4.51757,21.14901 0,2.65203 -33.16511,10.56767 -55.55839,13.26033 -13.33402,1.60333 -35.13794,2.53448 -46.97209,2.00597 z"
         id="path3980"
         inkscape:connector-curvature="0" />
      <path
         style="fill:#ffffff;fill-opacity:1;fill-rule:nonzero;stroke:#ffffff;stroke-width:2;stroke-linecap:round;stroke-linejoin:round;stroke-miterlimit:4;stroke-opacity:1;stroke-dasharray:none"
         d="m 412.09155,560.03829 c -12.92301,-1.62133 -33.33503,-5.94354 -33.33503,-7.05863 0,-0.83552 13.38628,-33.12075 14.05423,-33.89621 0.32614,-0.37864 4.6841,0.15273 9.68435,1.18081 16.6381,3.42089 29.1897,4.36198 48.98547,3.6728 10.28212,-0.35797 20.31482,-0.91322 22.2949,-1.2339 l 3.60015,-0.58306 3.22276,14.48325 c 1.77252,7.96579 3.22079,15.22193 3.21838,16.12475 -0.005,1.77068 -0.18606,1.82412 -17.17697,5.0613 -7.78486,1.4832 -15.98135,2.11016 -30.80965,2.35664 -11.11168,0.1847 -21.79404,0.13622 -23.73859,-0.10775 z"
         id="path3982"
         inkscape:connector-curvature="0" />
      <path
         style="fill:#ffffff;fill-opacity:1;fill-rule:nonzero;stroke:#ffffff;stroke-width:2;stroke-linecap:round;stroke-linejoin:round;stroke-miterlimit:4;stroke-opacity:1;stroke-dasharray:none"
         d="m 169.4253,505.3772 c -2.50497,-2.85155 -10.05552,-15.0592 -16.7131,-27.02158 -15.87467,-28.52372 -27.51953,-63.5571 -33.07312,-99.50003 -0.90136,-5.83363 -1.89907,-20.26618 -2.21713,-32.07234 l -0.5783,-21.46574 7.46529,-0.003 c 4.1059,-0.002 15.24405,-0.29817 24.75144,-0.65883 l 17.28616,-0.65574 0.71879,12.52812 c 2.70805,47.20062 17.35249,95.23153 42.2174,138.46495 1.81211,3.15077 3.06948,5.9427 2.79414,6.2043 -0.85131,0.80885 -40.28777,25.94775 -40.70533,25.94775 -0.21633,0 -1.09213,-0.7955 -1.94624,-1.76777 z"
         id="path3984"
         inkscape:connector-curvature="0" />
      <path
         style="fill:#ffffff;fill-opacity:1;fill-rule:nonzero;stroke:#ffffff;stroke-width:2;stroke-linecap:round;stroke-linejoin:round;stroke-miterlimit:4;stroke-opacity:1;stroke-dasharray:none"
         d="m 251.68862,451.85099 c -3.35501,-4.76698 -12.97085,-23.5426 -17.20778,-33.59945 -11.60668,-27.54977 -18.30776,-55.86875 -20.85546,-88.13581 l -0.61813,-7.82868 7.47728,0 c 4.11251,0 9.58629,-0.28907 12.16396,-0.64238 l 4.68667,-0.64238 0,4.97392 c 0,7.10661 2.59429,26.57329 4.96257,37.23746 4.76413,21.45247 16.29261,48.68088 28.45149,67.19784 3.35109,5.10342 5.95427,9.40447 5.78485,9.55788 -0.36508,0.33057 -19.97712,12.96176 -21.69653,13.97371 -0.68601,0.40375 -2.01267,-0.47767 -3.14892,-2.09211 z"
         id="path3986"
         inkscape:connector-curvature="0" />
      <path
         style="fill:#ffffff;fill-opacity:1;fill-rule:nonzero;stroke:#ffffff;stroke-width:2;stroke-linecap:round;stroke-linejoin:round;stroke-miterlimit:4;stroke-opacity:1;stroke-dasharray:none"
         d="m 186.32246,180.71429 c -8.33376,-3.87175 -15.52391,-7.40692 -15.97812,-7.85594 -0.45421,-0.44902 2.57298,-5.30866 6.72708,-10.7992 17.27341,-22.83052 38.9218,-43.71508 63.03825,-60.81404 15.78107,-11.189028 36.73762,-23.076561 38.62517,-21.909992 0.50231,0.310445 4.17779,5.195494 8.16773,10.855665 6.84569,9.711363 7.1477,10.368227 5.36002,11.657837 -1.04193,0.75165 -6.62741,4.48133 -12.41218,8.28818 -28.56549,18.79847 -53.50384,43.01322 -71.54202,69.4662 -3.12552,4.58357 -5.94171,8.29261 -6.2582,8.2423 -0.31649,-0.0503 -7.39397,-3.25926 -15.72773,-7.13101 z"
         id="path3988"
         inkscape:connector-curvature="0" />
      <path
         style="fill:#ffffff;fill-opacity:1;fill-rule:nonzero;stroke:#ffffff;stroke-width:2;stroke-linecap:round;stroke-linejoin:round;stroke-miterlimit:4;stroke-opacity:1;stroke-dasharray:none"
         d="m 251.98781,210.56588 c -5.55285,-2.53212 -10.24569,-4.75346 -10.42855,-4.93632 -1.03927,-1.03928 11.83094,-21.01966 20.83158,-32.34001 11.38163,-14.315 30.49226,-32.60334 45.0994,-43.1589 l 5.00025,-3.61332 6.15486,8.7389 c 3.38518,4.80639 6.46817,9.25062 6.85109,9.87605 0.41757,0.68204 -2.22769,3.2951 -6.60943,6.52895 -17.20719,12.69944 -38.25275,35.86549 -50.62057,55.72097 -2.68203,4.30577 -5.1703,7.81942 -5.52948,7.80811 -0.35918,-0.0113 -5.1963,-2.09231 -10.74915,-4.62443 z"
         id="path3990"
         inkscape:connector-curvature="0" />
      <path
         style="fill:#5fd35f;stroke:#ffffff;stroke-width:2;stroke-linecap:round;stroke-linejoin:round;stroke-miterlimit:4;stroke-opacity:1;stroke-dasharray:none"
         d="m 440.14951,337.50877 c 0,0 20.54559,16.31562 3.62569,33.8398 -16.9199,17.52419 -68.88818,69.49247 -69.49246,75.53529 -0.60428,6.04282 -10.87708,22.96272 13.29421,35.04837 24.17129,12.08564 114.81363,43.50832 124.48215,43.50832 9.66852,0 96.68516,-57.40681 96.68516,-57.40681 0,0 0,-7.25139 -6.6471,-4.83426 -6.64711,2.41713 12.68993,-10.2728 -1.20856,-12.68993 -13.8985,-2.41713 -23.56702,-1.81285 -23.56702,-1.81285 0,0 -6.04282,-11.48135 -18.12847,-4.83425 -12.08564,6.6471 -29.60983,12.68993 -36.25693,21.75416 -6.6471,9.06423 -18.73275,13.29421 -18.73275,13.29421 0,0 -6.04283,-3.62569 -9.06423,0 -3.02141,3.62569 -64.05393,-25.37986 -64.05393,-25.37986 0,0 -3.02141,-2.41712 -9.06423,-1.20856 -6.04282,1.20856 64.65821,-65.26249 64.65821,-65.26249 0,0 8.45995,-9.66851 -1.81285,-19.94131 -10.2728,-10.2728 -4.22998,-4.83426 -4.22998,-4.83426"
         id="path3853"
         inkscape:connector-curvature="0" />
    </g>
    <g
       id="g4266"
       transform="translate(-0.89259072,0)">
      <text
         sodipodi:linespacing="125%"
         id="text5541"
         y="723.70483"
         x="225.92906"
         style="font-size:64.29696655px;font-style:normal;font-variant:normal;font-weight:normal;font-stretch:normal;text-align:center;line-height:125%;letter-spacing:0px;word-spacing:0px;writing-mode:lr-tb;text-anchor:middle;fill:#000000;fill-opacity:1;stroke:none;font-family:Cuprum;-inkscape-font-specification:Cuprum"
         xml:space="preserve"><tspan
           id="tspan5549"
           style="font-style:normal;font-variant:normal;font-weight:normal;font-stretch:normal;text-align:center;text-anchor:middle;font-family:FifthLeg;-inkscape-font-specification:FifthLeg"
           y="723.70483"
           x="234.21735"
           sodipodi:role="line">openSUSE </tspan></text>
      <text
         sodipodi:linespacing="125%"
         id="text5553"
         y="724.60828"
         x="366.36417"
         style="font-size:68.63667297px;font-style:normal;font-variant:normal;font-weight:normal;font-stretch:normal;text-align:start;line-height:125%;letter-spacing:0px;word-spacing:0px;writing-mode:lr-tb;text-anchor:start;fill:#000000;fill-opacity:1;stroke:none;font-family:Cuprum;-inkscape-font-specification:Cuprum"
         xml:space="preserve"><tspan
           y="724.60828"
           x="366.36417"
           id="tspan5555"
           sodipodi:role="line">Conference</tspan></text>
    </g>
    <text
       sodipodi:linespacing="125%"
       id="text5557"
       y="792.40637"
       x="288.98456"
       style="font-size:23.95301247px;font-style:normal;font-variant:normal;font-weight:normal;font-stretch:normal;text-align:start;line-height:125%;letter-spacing:0px;word-spacing:0px;writing-mode:lr-tb;text-anchor:start;fill:#000000;fill-opacity:1;stroke:none;font-family:Cuprum;-inkscape-font-specification:Cuprum"
       xml:space="preserve"><tspan
         y="792.40637"
         x="288.98456"
         id="tspan5559"
         sodipodi:role="line">Dubrovnik, Croatia</tspan></text>
  </g>
</svg>
