<svg xmlns="http://www.w3.org/2000/svg" width="200" height="82">
    <path d="m 37.806644,346.14518 c -9.835469,-1.82432 -18.101041,-8.8004 -20.85678,-17.60297 -1.272042,-4.06323 -1.265764,-10.1515 0.01471,-14.27405 3.266495,-10.51657 12.981156,-17.44363 24.61325,-17.55051 12.058662,-0.1108 22.121543,9.14492 24.095714,22.16296 0.844704,5.57011 0.02346,10.23956 -2.153592,12.24489 -2.039302,1.87845 -3.980626,2.34679 -10.419049,2.51362 -7.623465,0.19757 -8.443987,0.33025 -9.795962,1.58409 -2.273572,2.10855 -1.218065,4.14761 3.32917,6.4314 2.383232,1.19696 2.934102,1.94675 2.35873,3.21043 -0.850662,1.86831 -5.281507,2.37536 -11.1862,1.28014 z" opacity=".2" transform="translate(0 -279.717)"/>
    <path d="m 37.806635,345.14518 c -9.835469,-1.82432 -18.101041,-8.8004 -20.85678,-17.60297 -1.272042,-4.06323 -1.265764,-10.1515 0.01471,-14.27405 3.266495,-10.51657 12.981156,-17.44363 24.61325,-17.55051 12.058662,-0.1108 22.121543,9.14492 24.095714,22.16296 0.844704,5.57011 0.02346,10.23956 -2.153592,12.24489 -2.039302,1.87845 -3.980626,2.34679 -10.419049,2.51362 -7.623465,0.19757 -8.443987,0.33025 -9.795962,1.58409 -2.273572,2.10855 -1.218065,4.14761 3.32917,6.4314 2.383232,1.19696 2.934102,1.94675 2.35873,3.21043 -0.850662,1.86831 -5.281507,2.37536 -11.1862,1.28014 z" fill="#173f4f" transform="translate(0 -279.717)"/>
    <g font-weight="400" font-family="sans-serif" letter-spacing="0" word-spacing="0">
        <text style="line-height:1.25" x="84" y="1080.215" font-size="31.188" stroke-width=".78" transform="translate(0 -1040.52)">
            <tspan x="84" y="1080.215" style="-inkscape-font-specification:'Open Sans Condensed, '" font-family="Open Sans Condensed">Artwork</tspan>
        </text>
        <text style="line-height:1.25" x="82.963" y="1108.091" font-size="35.768" stroke-width=".894" transform="translate(0 -1040.52)">
            <tspan x="82.963" y="1108.091" style="-inkscape-font-specification:'Source Sans Pro Light'" font-weight="300" font-family="Source Sans Pro">Team</tspan>
        </text>
    </g>
    <path d="m 25,310.71666 a 5,5 0 0 0 -5,5 5,5 0 0 0 5,5 5,5 0 0 0 5,-5 5,5 0 0 0 -5,-5 z" fill="#ffc107" transform="translate(0 -279.717)"/>
    <path d="m 29,326.71667 a 5,5 0 0 0 -5,4.99999 5,5 0 0 0 5,5 5,5 0 0 0 5,-5 5,5 0 0 0 -5,-4.99999 z" fill="#dc3545" transform="translate(0 -279.717)"/>
    <path d="m 37,299.71667 a 5,5 0 0 0 -5,4.99999 5,5 0 0 0 5,5 5,5 0 0 0 5,-5 5,5 0 0 0 -5,-4.99999 z" fill="#73ba25" transform="translate(0 -279.717)"/>
    <path d="m 53,303.71666 a 5,5 0 0 0 -5,5 5,5 0 0 0 5,5 5,5 0 0 0 5,-5 5,5 0 0 0 -5,-5 z" fill="#35b9ab" transform="translate(0 -279.717)"/>
    <path d="m 57,318.71667 a 5,5 0 0 0 -5,4.99999 5,5 0 0 0 5,5 5,5 0 0 0 5,-5 5,5 0 0 0 -5,-4.99999 z" fill="#21a4df" transform="translate(0 -279.717)"/>
    <path d="M 57 39 A 5 5 0 0 0 52 44 A 5 5 0 0 0 52.027344 44.515625 A 5 5 0 0 1 57 40 A 5 5 0 0 1 61.972656 44.484375 A 5 5 0 0 0 62 44 A 5 5 0 0 0 57 39 z" opacity=".2"/>
    <path d="M53 303.71666a5 5 0 00-5 5 5 5 0 00.02734.51562 5 5 0 014.97266-4.51562 5 5 0 014.972656 4.48437 5 5 0 00.02734-.48437 5 5 0 00-5-5zM37 299.71667a5 5 0 00-5 5 5 5 0 00.02734.51562 5 5 0 014.97266-4.51562 5 5 0 014.972656 4.48437 5 5 0 00.02734-.48437 5 5 0 00-5-5zM25 310.71666a5 5 0 00-5 5 5 5 0 00.02734.51562 5 5 0 014.97266-4.51562 5 5 0 014.972656 4.48437 5 5 0 00.02734-.48437 5 5 0 00-5-5zM29 326.71667a5 5 0 00-5 5 5 5 0 00.02734.51562 5 5 0 014.97266-4.51562 5 5 0 014.972656 4.48437 5 5 0 00.02734-.48437 5 5 0 00-5-5z" opacity=".2" transform="translate(0 -279.717)"/>
</svg>
