<svg xmlns="http://www.w3.org/2000/svg" height="82" width="180">
    <path d="m 39.988426,30.915075 c -2.739232,0 -7.664991,0.242188 -10.533434,1.580293 L 24.995835,37.923361 40,51.179688 55.135111,37.988834 50.545008,32.528105 C 47.676565,31.19 42.727658,30.915075 39.988426,30.915075 Z" transform="matrix(2 0 0 2 -39 -40)" fill="#061c2a"/>
    <path d="m 41,21 c -5.775468,0 -15.702976,0.948814 -22,4 L 9,37 41,65 73,37 63,25 C 56.702976,21.948814 46.775468,21 41,21 Z m 0,2 c 5.478464,0 15.09124,1.04254 20.828124,3.71875 L 70.222656,36.789062 41,62.359376 11.777344,36.789062 20.171876,26.71875 C 25.90876,24.04254 35.521536,23 41,23 Z" opacity=".2"/>
    <g font-weight="400" font-family="sans-serif" letter-spacing="0" word-spacing="0">
        <text y="1080.212" x="82.036" style="line-height:1.25" font-size="31.188" stroke-width=".78" transform="translate(0 -1040.52)">
            <tspan style="-inkscape-font-specification:'Open Sans Condensed, '" y="1080.212" x="82.036" font-family="Open Sans Condensed">Heroes</tspan>
        </text>
        <text y="1108.091" x="82.963" style="line-height:1.25" font-size="35.768" stroke-width=".894" transform="translate(0 -1040.52)">
            <tspan style="-inkscape-font-specification:'Source Sans Pro Light'" y="1108.091" x="82.963" font-weight="300" font-family="Source Sans Pro">Team</tspan>
        </text>
    </g>
    <path d="m 41,20 c -5.775468,0 -15.702976,0.948814 -22,4 L 9,36 41,64 73,36 63,24 C 56.702976,20.948814 46.775468,20 41,20 Z m 0,2 c 5.478464,0 15.09124,1.04254 20.828124,3.71875 L 70.222656,35.789062 41,61.359376 11.777344,35.789062 20.171876,25.71875 C 25.90876,23.04254 35.521536,22 41,22 Z" fill="#173f4f"/>
    <path d="M 41 25.875 A 13.125 13.125 0 0 0 40.761719 25.882812 A 13.124855 13.124954 0 0 0 39.804688 25.941406 A 13.125 13.125 0 0 0 39.255859 26.007812 A 13.124855 13.124954 0 0 0 38.480469 26.130859 A 13.125 13.125 0 0 0 38.011719 26.236328 A 13.124855 13.124954 0 0 0 37.171875 26.458984 A 13.125 13.125 0 0 0 36.806641 26.580078 A 13.124855 13.124954 0 0 0 35.912109 26.916016 A 13.125 13.125 0 0 0 35.632812 27.041016 A 13.124855 13.124954 0 0 0 34.705078 27.498047 A 13.125 13.125 0 0 0 34.507812 27.611328 A 13.124855 13.124954 0 0 0 33.570312 28.197266 A 13.125 13.125 0 0 0 33.423828 28.302734 A 13.124855 13.124954 0 0 0 32.515625 29.005859 A 13.125 13.125 0 0 0 32.421875 29.085938 A 13.124855 13.124954 0 0 0 31.525391 29.939453 A 13.124855 13.124954 0 0 0 30.667969 30.931641 C 32.268845 31.359341 33.400886 31.727785 33.740234 31.841797 C 33.745552 31.63359 33.78125 29.771484 33.78125 29.771484 C 33.78125 29.771484 33.785848 29.727304 33.808594 29.705078 C 33.837888 29.676471 33.878906 29.685547 33.878906 29.685547 C 34.299961 29.746536 43.287913 31.079593 47.076172 33.287109 C 47.543998 33.560797 47.773968 33.851484 48.0625 34.146484 C 49.109667 35.229516 50.49397 39.733459 50.642578 40.662109 C 50.648413 40.698594 50.603237 40.736934 50.583984 40.751953 C 50.476397 40.835905 50.359525 40.923948 50.242188 41.001953 C 49.345817 41.60335 47.28025 43.048508 44.630859 42.8125 C 42.251032 42.60197 39.140835 41.237279 35.392578 38.767578 C 35.76111 39.630444 36.124981 40.496271 36.488281 41.361328 C 37.031095 41.643264 42.269668 44.31192 44.855469 44.259766 C 46.938169 44.216379 49.165525 43.200414 50.056641 42.664062 C 50.056641 42.664062 50.252672 42.547431 50.337891 42.613281 C 50.431109 42.685295 50.406838 42.795516 50.384766 42.908203 C 50.329943 43.164007 50.204023 43.63003 50.119141 43.851562 L 50.048828 44.03125 C 49.94682 44.304547 49.847005 44.560354 49.658203 44.716797 C 49.133254 45.194133 48.297241 45.573933 46.984375 46.144531 C 44.955063 47.032226 41.66224 47.595597 38.605469 47.576172 C 37.510639 47.551797 36.452231 47.430765 35.523438 47.322266 C 33.617352 47.107071 32.066777 46.933206 31.121094 47.617188 A 13.124855 13.124954 0 0 0 31.126953 47.623047 A 13.124855 13.124954 0 0 0 41 52.125 A 13.124855 13.124954 0 0 0 54.125 39 A 13.124855 13.124954 0 0 0 41 25.875 z M 43.736328 33.488281 C 42.779482 33.503691 41.873999 33.864138 41.169922 34.521484 C 40.41925 35.220332 39.989218 36.172575 39.951172 37.199219 C 39.8802 39.317118 41.542142 41.101661 43.658203 41.179688 C 44.690178 41.214327 45.668903 40.851843 46.419922 40.146484 C 47.168683 39.449807 47.598714 38.497349 47.638672 37.470703 C 47.711382 35.354692 46.046075 33.565982 43.927734 33.490234 C 43.863526 33.48816 43.800118 33.487223 43.736328 33.488281 z M 43.761719 34.621094 C 43.806313 34.620531 43.849614 34.62143 43.894531 34.623047 C 45.374952 34.675572 46.53423 35.920393 46.484375 37.400391 C 46.461521 38.114127 46.161692 38.774963 45.638672 39.265625 C 45.114892 39.754009 44.429227 40.008033 43.710938 39.986328 C 42.233946 39.931851 41.075145 38.685466 41.125 37.205078 C 41.146703 36.488671 41.45387 35.828229 41.974609 35.339844 C 42.462784 34.881984 43.092787 34.629437 43.761719 34.621094 z M 44.333984 35.96875 C 43.676209 35.96875 43.144531 36.323253 43.144531 36.763672 C 43.144531 37.199921 43.676209 37.556641 44.333984 37.556641 C 44.991373 37.556641 45.525391 37.199901 45.525391 36.763672 C 45.525391 36.323253 44.991742 35.96875 44.333984 35.96875 z" fill="#73ba25"/>
</svg>
