<?xml version="1.0" encoding="UTF-8" standalone="no"?>
<!-- Created with Inkscape (http://www.inkscape.org/) -->

<svg
   width="282.73642mm"
   height="185.73035mm"
   viewBox="0 0 282.73642 185.73035"
   version="1.1"
   id="svg1"
   sodipodi:docname="oSHeroesLogoGreen.svg"
   inkscape:version="1.3.2 (091e20ef0f, 2023-11-25)"
   xmlns:inkscape="http://www.inkscape.org/namespaces/inkscape"
   xmlns:sodipodi="http://sodipodi.sourceforge.net/DTD/sodipodi-0.dtd"
   xmlns="http://www.w3.org/2000/svg"
   xmlns:svg="http://www.w3.org/2000/svg">
  <sodipodi:namedview
     id="namedview1"
     pagecolor="#505050"
     bordercolor="#eeeeee"
     borderopacity="1"
     inkscape:showpageshadow="0"
     inkscape:pageopacity="0"
     inkscape:pagecheckerboard="0"
     inkscape:deskcolor="#505050"
     inkscape:document-units="mm"
     inkscape:zoom="0.48099864"
     inkscape:cx="534.30505"
     inkscape:cy="351.35234"
     inkscape:window-width="1320"
     inkscape:window-height="696"
     inkscape:window-x="0"
     inkscape:window-y="0"
     inkscape:window-maximized="1"
     inkscape:current-layer="svg1" />
  <defs
     id="defs1" />
  <g
     id="layer1"
     transform="translate(28.312979,-53.521288)"
     style="fill:#73ba25;fill-opacity:1">
    <path
       style="fill:#73ba25;stroke-width:2.94819;fill-opacity:1"
       d="m 103.82967,230.00357 c -8.930277,-7.52806 -58.462219,-49.25344 -76.711998,-64.6216 -2.432257,-2.04821 -6.438855,-5.42217 -8.903549,-7.49771 -2.464683,-2.07553 -6.471281,-5.44923 -8.9035379,-7.4971 -2.432269,-2.04789 -9.19836504,-7.74882 -15.035789,-12.66873 -5.8374241,-4.91992 -12.8423331,-10.82033 -15.5664641,-13.11203 -2.724131,-2.29171 -5.418355,-4.58099 -5.987149,-5.08731 l -1.034162,-0.92061 9.176737,-10.72353 C 7.5250211,76.719774 18.197832,64.287496 18.378256,64.17599 c 0.182964,-0.113099 4.996255,-0.880948 8.444623,-1.347307 0.778323,-0.104742 3.643967,-0.520145 6.368099,-0.922065 5.330327,-0.786457 24.717616,-3.545086 29.069184,-4.136311 8.772878,-1.191899 13.402502,-1.755066 22.347313,-2.718426 10.164857,-1.094778 18.395825,-1.527263 29.128155,-1.530572 12.89671,-0.0041 21.8982,0.614078 36.32175,2.493932 2.01067,0.262078 4.3987,0.572293 5.30675,0.689404 0.90803,0.11711 3.08381,0.42298 4.83503,0.679709 1.75123,0.25673 3.66166,0.533182 4.2454,0.61419 0.58377,0.08134 2.01657,0.297067 3.18405,0.47992 1.16748,0.182964 3.23712,0.499419 4.59918,0.703221 1.36207,0.203913 3.4317,0.523265 4.59919,0.709572 1.16748,0.186419 3.13098,0.495408 4.36333,0.68673 4.97,0.771525 10.12726,1.593227 11.9107,1.897648 1.03772,0.17717 3.69458,0.60873 5.90404,0.958948 l 4.01721,0.636921 3.05846,2.952703 c 1.68216,1.623982 5.49957,5.348958 8.48314,8.277715 21.14543,20.75696 36.51969,35.796228 38.29712,37.462658 l 1.56247,1.46487 -0.82546,0.80362 c -0.45407,0.44192 -18.28469,16.45139 -39.62373,35.57646 -21.33902,19.12508 -52.31304,46.89406 -68.83117,61.70877 -16.51812,14.81478 -30.1034,26.93478 -30.18951,26.93333 -0.0858,-0.002 -5.09183,-4.16317 -11.12384,-9.24817 z m 20.69304,-14.68518 c 5.20505,-4.66816 9.42305,-8.52824 9.37334,-8.57794 -0.0501,-0.0446 -0.81186,0.078 -1.69358,0.27634 -5.48036,1.25379 -9.88641,1.6956 -16.81587,1.68602 -7.7267,-0.0106 -13.95675,-0.80451 -20.275528,-2.58413 -1.100795,-0.30977 -2.036766,-0.52816 -2.079978,-0.48471 -0.08023,0.078 1.211398,1.18693 11.859926,10.15732 3.37275,2.84118 6.92427,5.83681 7.8923,6.65703 0.96797,0.82011 1.87607,1.46126 2.01786,1.4246 0.14185,-0.0334 4.51649,-3.88593 9.72153,-8.55409 z m -2.17837,-18.39812 c 18.35638,-1.90421 34.95079,-11.28894 46.0872,-26.06395 6.62968,-8.7958 10.63362,-18.2653 12.5654,-29.71779 0.47357,-2.80739 0.53697,-3.99319 0.53619,-10.02387 -9.6e-4,-7.00172 -0.11176,-8.2454 -1.20756,-13.56169 -2.00928,-9.74755 -6.67636,-19.686183 -12.95837,-27.595094 -2.04889,-2.579509 -7.88923,-8.420031 -10.46999,-10.470291 -12.98864,-10.31876 -29.16621,-15.4228 -45.44199,-14.336981 -4.65497,0.31055 -7.45092,0.712581 -11.16333,1.605229 -9.917825,2.384722 -18.630566,6.718684 -26.887533,13.374624 -2.2755,1.834291 -8.089692,7.635523 -7.922951,7.905312 0.0702,0.113545 0.63447,0.34186 1.253964,0.507442 4.518798,1.207744 12.664928,3.6084 14.044248,4.138818 1.601574,0.615862 1.510103,0.903346 1.701158,-5.346116 l 0.173827,-5.688055 1.448138,0.156779 c 1.30278,0.141068 4.533696,0.674027 10.292708,1.697981 1.102578,0.196113 2.53544,0.449277 3.18405,0.562711 2.936381,0.513571 11.853471,2.370002 16.391951,3.412666 3.3049,0.759269 6.77303,1.587021 7.8729,1.879096 4.95082,1.314692 6.46304,1.740825 10.64176,2.998812 8.92862,2.687928 16.20962,5.602445 21.13783,8.461247 2.14796,1.24602 5.51139,4.46978 7.03484,6.74273 2.8902,4.31209 6.83283,13.94534 10.12298,24.73404 1.04274,3.41933 2.13771,7.90838 2.00527,8.2212 -0.26331,0.62199 -7.74659,5.37591 -10.81899,6.87306 -11.78908,5.74468 -21.42257,6.02785 -35.85003,1.05377 -9.08571,-3.13241 -21.47482,-9.52601 -32.970507,-17.01495 -1.010651,-0.65842 -1.873302,-1.15724 -1.91696,-1.10848 -0.04346,0.049 1.25012,3.20828 2.875083,7.02127 l 2.954474,6.9327 4.50509,2.17293 c 7.87501,3.79834 11.91937,5.55133 18.65644,8.08642 9.05196,3.40615 16.50237,5.23004 21.39181,5.23677 7.7874,0.0106 18.73677,-3.28399 28.04249,-8.43808 2.00948,-1.11294 2.27829,-0.37997 1.26176,3.44049 -0.62756,2.35874 -1.67278,5.06921 -2.43587,6.31698 -0.94513,1.54541 -6.50678,4.94123 -11.52006,7.03388 -0.80763,0.33707 -2.02821,0.8688 -2.71234,1.18146 -5.46933,2.49964 -12.45708,4.48399 -21.19592,6.01911 -12.79175,2.24707 -25.65012,2.56818 -38.775986,0.96842 -8.230469,-1.00319 -8.928542,-1.05355 -14.623038,-1.05489 -5.786847,-0.001 -5.931435,0.0103 -7.783232,0.63603 -1.037727,0.35066 -2.25697,0.86524 -2.709344,1.1435 l -0.822449,0.506 1.883854,1.78056 c 13.87675,13.11584 33.049465,19.59676 52.121075,17.6183 z M 45.347372,164.54554 C 39.587513,152.93646 36.863905,137.69146 38.149013,124.25377 39.478302,110.3542 43.776986,98.387356 51.48535,87.12761 55.802665,80.821231 62.706453,73.604431 68.80513,69.022553 l 0.707567,-0.531622 -1.297198,0.133714 c -1.233294,0.127139 -2.460337,0.289378 -8.726658,1.153456 -5.012256,0.691186 -14.229018,2.005856 -19.22222,2.741892 -2.724132,0.401586 -5.642849,0.823452 -6.486034,0.937665 -2.006904,0.271661 -7.682357,1.134157 -8.69304,1.32101 -0.700658,0.12948 -2.874904,2.577649 -18.8684379,21.244847 -9.942112,11.604145 -18.0968551,21.168885 -18.1216591,21.254955 -0.02451,0.0858 1.885626,1.76717 4.2453991,3.73576 2.359774,1.96858 15.378976,12.9208 28.9315719,24.33826 13.552584,11.41745 24.672477,20.72759 24.710864,20.6892 0.03788,-0.0379 -0.248707,-0.71169 -0.637924,-1.49622 z M 194.16233,152.8353 c 0.58377,-0.53485 2.54724,-2.2955 4.36334,-3.91256 1.81608,-1.61707 3.35504,-2.99726 3.41989,-3.06711 0.0646,-0.0702 1.60383,-1.44958 3.41991,-3.06612 1.81609,-1.61653 3.35505,-2.99628 3.41991,-3.06612 0.0646,-0.0702 1.60382,-1.44959 3.4199,-3.06612 1.81609,-1.61653 3.35505,-2.99628 3.41991,-3.06613 0.0646,-0.0702 1.60381,-1.44958 3.41991,-3.06611 1.81608,-1.61653 3.35504,-2.99628 3.41989,-3.06613 0.0646,-0.0702 1.60383,-1.45131 3.41991,-3.06994 1.81609,-1.61865 3.51425,-3.1372 3.77369,-3.37458 0.25941,-0.23735 2.09027,-1.88173 4.06851,-3.6541 1.97824,-1.77237 3.59679,-3.3367 3.59679,-3.47627 0,-0.13962 -0.39802,-0.60126 -0.8844,-1.02603 -0.48649,-0.42476 -3.4317,-3.28043 -6.54499,-6.34592 -8.08011,-7.956058 -23.85082,-23.395182 -29.95364,-29.323855 l -2.35856,-2.291256 -4.48126,-0.730632 c -2.46468,-0.40192 -5.48954,-0.891422 -6.72188,-1.087981 -1.23234,-0.196559 -2.82436,-0.456743 -3.53784,-0.578199 -1.2987,-0.221184 -11.82269,-1.855964 -16.03817,-2.491403 -1.23234,-0.18575 -2.6121,-0.397129 -3.06612,-0.469668 l -0.82546,-0.131931 0.61631,0.546442 c 0.33896,0.300521 1.44831,1.236325 2.46518,2.07951 1.01689,0.843175 3.10851,2.796526 4.64811,4.340771 11.71968,11.755064 19.20223,26.541202 21.73406,42.948252 1.81294,11.74837 0.74256,24.91389 -2.92225,35.94479 -0.39334,1.1841 -0.71525,2.21431 -0.71525,2.28938 0,0.1239 2.7324,-2.25397 5.42467,-4.72075 z m -54.36873,-9.93375 c 7.86599,-1.37171 14.1686,-7.10866 16.44708,-14.97094 0.58265,-2.01047 0.80796,-6.48425 0.43445,-8.62863 -1.37021,-7.86833 -7.13819,-14.40766 -14.63688,-16.59426 -7.56954,-2.20726 -15.6397,0.0223 -20.95271,5.78881 -3.66038,3.97278 -5.49617,8.65208 -5.49617,14.00941 0,5.69512 1.95771,10.39721 6.04738,14.52479 4.90739,4.9529 11.39376,7.0502 18.15683,5.87082 z m -6.71784,-6.59433 c -7.45075,-1.67816 -12.40543,-9.49509 -10.74602,-16.95383 1.16583,-5.24016 5.46495,-9.67703 10.53449,-10.87202 6.54864,-1.54366 13.38359,1.70762 16.2713,7.73999 1.16461,2.43286 1.48029,4.13015 1.32242,7.11007 -0.20279,3.82801 -1.29862,6.29136 -4.03944,9.08044 -1.50783,1.53438 -3.31479,2.6733 -5.49946,3.46628 -2.03617,0.7391 -5.60098,0.9341 -7.84329,0.42911 z m 9.07444,-13.03358 c 1.35986,-0.4797 3.07842,-2.00974 3.31465,-2.95099 0.28158,-1.12195 -0.10028,-2.32953 -1.02859,-3.25252 -2.33218,-2.31881 -7.28036,-2.52615 -10.22622,-0.42855 -0.74266,0.52884 -1.60595,2.03303 -1.60595,2.7982 0,1.38971 1.42783,2.98919 3.40961,3.81948 1.32326,0.55435 4.5841,0.56204 6.13653,0.0145 z"
       id="path1" />
  </g>
</svg>
