<svg fill="#33d17a" version="1.1" viewBox="0 0 192 224" xmlns="http://www.w3.org/2000/svg">
 <path d="m95.999 4a4.0066 4.0066 0 0 0-1.6562 0.37499l-32.046 15.109a4.0066 4.0066 0 0 0-2.2968 3.6405l0.0472 32.874a4.0066 4.0066 0 0 0 3.9999 3.9999h12v12a4.0066 4.0066 0 0 0 3.9999 3.9999h12v12a4.0066 4.0066 0 0 0 3.9999 3.9999h16a4.0062 4.0062 0 0 0 3.9999-3.9999 4.0062 4.0062 0 0 0-3.9999-3.9999h-12v-12a4.0066 4.0066 0 0 0-3.9999-3.9999h-12v-12a4.0066 4.0066 0 0 0-3.9999-3.9999h-12l-0.0312-26.343 27.983-13.203 28.046 14.016v13.531a4.0062 4.0062 0 0 0 3.9999 3.9999 4.0062 4.0062 0 0 0 3.9999-3.9999v-16a4.0066 4.0066 0 0 0-2.203-3.578l-31.999-16a4.0066 4.0066 0 0 0-1.8437-0.42186zm-7.9529 23.999a4.0062 4.0062 0 0 0-3.9999 3.9999 4.0062 4.0062 0 0 0 3.9999 3.9999h12v12a4.0066 4.0066 0 0 0 3.9999 3.9999h12v12a4.0066 4.0066 0 0 0 3.9999 3.9999h3.9999v33.53l-27.999 13.984-27.999-13.984v-29.53a4.0062 4.0062 0 0 0-3.9999-3.9999 4.0062 4.0062 0 0 0-3.9999 3.9999v31.999a4.0066 4.0066 0 0 0 2.2031 3.578l31.999 16a4.0066 4.0066 0 0 0 3.5936 0l31.999-16a4.0066 4.0066 0 0 0 2.203-3.578v-39.999a4.0066 4.0066 0 0 0-3.9999-3.9999h-3.9999v-12a4.0066 4.0066 0 0 0-3.9999-3.9999h-12v-12a4.0066 4.0066 0 0 0-3.9999-3.9999z"/>
 <path d="m34.465 127.58c-10.56 0-18.434 6.4327-18.434 15.553 0 9.408 7.3932 13.344 12.865 15.744l9.5996 4.3184c6.24 2.784 11.328 5.376 11.328 13.248 0 7.488-6.0481 12.672-15.744 12.672-7.296 0-13.919-3.359-18.527-8.543l-2.8809 3.0723c4.992 5.568 12.192 9.5039 21.408 9.5039 12.288 0 20.256-7.2962 20.256-16.992 0-9.696-6.2398-13.633-13.344-16.801l-9.5996-4.2227c-4.608-2.112-10.945-4.8014-10.945-12.193 0-6.912 5.6656-11.328 14.018-11.328 6.336 0 11.326 2.5936 15.07 6.4336l2.4961-2.8809c-3.84-4.128-9.9824-7.584-17.566-7.584zm32.352 4.9922-0.57617 13.344-7.2969 0.38477v3.2637h7.2012v29.664c0 8.256 2.5915 13.92 11.52 13.92 1.824 0 4.8003-0.76851 7.4883-1.7285l-1.1523-3.4551c-1.632 0.768-4.0318 1.4394-5.7598 1.4394-6.336 0-7.7773-3.937-7.7773-9.793v-30.047h13.346v-3.6484h-13.346v-13.344h-3.6465zm43.391 12.191c-10.272 0-20.064 9.2171-20.064 24.289s9.5045 24.096 21.313 24.096c6.72 0 10.848-2.3037 14.496-4.5117l-1.7285-3.2637c-3.456 2.496-7.3908 4.127-12.383 4.127-10.368 0-17.185-8.3528-17.377-19.969h33.121c0.288-1.152 0.28711-2.3031 0.28711-3.4551 0-13.536-6.7201-21.312-17.664-21.312zm50.113 0c-5.664 0-11.136 3.3601-15.648 6.9121h-0.28907l-0.38281-5.7598h-3.6484v66.912h4.2246v-25.344c4.8 3.552 9.5042 5.6641 13.824 5.6641 10.848 0 20.352-9.2172 20.352-24.865 0-14.304-6.1436-23.52-18.432-23.52zm-50.018 3.6484c8.256 0 13.537 5.8561 13.537 17.664h-29.377c0.96-11.04 7.9678-17.664 15.84-17.664zm49.346 0.0957c10.56 0 14.592 8.4474 14.592 19.775 0 12.48-6.7212 21.121-16.033 21.121-3.552 0-8.3509-1.6331-13.631-5.9531v-27.359c5.568-4.896 10.464-7.584 15.072-7.584z"/>
</svg>
