<svg fill="#33d17a" version="1.1" viewBox="0 0 128 128" xmlns="http://www.w3.org/2000/svg">
 <path d="m63.999 4a4.0066 4.0066 0 0 0-1.6562 0.37499l-32.046 15.109a4.0066 4.0066 0 0 0-2.2968 3.6405l0.0472 32.874a4.0066 4.0066 0 0 0 3.9999 3.9999h12v12a4.0066 4.0066 0 0 0 3.9999 3.9999h12v12a4.0066 4.0066 0 0 0 3.9999 3.9999h16a4.0062 4.0062 0 0 0 3.9999-3.9999 4.0062 4.0062 0 0 0-3.9999-3.9999h-12v-12a4.0066 4.0066 0 0 0-3.9999-3.9999h-12v-12a4.0066 4.0066 0 0 0-3.9999-3.9999h-12l-0.0312-26.343 27.983-13.203 28.046 14.016v13.531a4.0062 4.0062 0 0 0 3.9999 3.9999 4.0062 4.0062 0 0 0 3.9999-3.9999v-16a4.0066 4.0066 0 0 0-2.2031-3.578l-31.999-16a4.0066 4.0066 0 0 0-1.8437-0.42186zm-7.9529 23.999a4.0062 4.0062 0 0 0-3.9999 3.9999 4.0062 4.0062 0 0 0 3.9999 3.9999h12v12a4.0066 4.0066 0 0 0 3.9999 3.9999h12v12a4.0066 4.0066 0 0 0 3.9999 3.9999h3.9999v33.53l-27.999 13.984-27.999-13.984v-29.53a4.0062 4.0062 0 0 0-3.9999-3.9999 4.0062 4.0062 0 0 0-3.9999 3.9999v31.999a4.0066 4.0066 0 0 0 2.2031 3.578l31.999 16a4.0066 4.0066 0 0 0 3.5936 0l31.999-16a4.0066 4.0066 0 0 0 2.2031-3.578v-39.999a4.0066 4.0066 0 0 0-3.9999-3.9999h-3.9999v-12a4.0066 4.0066 0 0 0-3.9999-3.9999h-12v-12a4.0066 4.0066 0 0 0-3.9999-3.9999z"/>
</svg>
