<svg xmlns="http://www.w3.org/2000/svg" height="82" width="180">
    <g transform="translate(0 -1040.52)">
        <path d="m 18,1059.3947 v 45 h 1.542969 c 0.08469,-0.2191 0.293307,-0.375 0.542969,-0.375 h 3.328124 c 0.249663,0 0.458277,0.1559 0.542969,0.375 H 25.5 h 30 1.542969 c 0.08469,-0.2191 0.293307,-0.375 0.542969,-0.375 h 3.328124 c 0.24966,0 0.458278,0.1559 0.542969,0.375 H 63 v -45 h -1.5 v 0.1641 c 0,0.3246 -0.261328,0.5859 -0.585938,0.5859 H 57.585938 C 57.26133,1060.1447 57,1059.8834 57,1059.5588 v -0.1641 H 55.5 25.5 24 v 0.1641 c 0,0.3246 -0.261328,0.5859 -0.585938,0.5859 h -3.328124 c -0.324609,0 -0.585938,-0.2613 -0.585938,-0.5859 v -0.1641 z m 2.085938,4.125 h 3.328124 c 0.32461,0 0.585938,0.2613 0.585938,0.5859 v 2.2032 c 0,0.3246 -0.261328,0.5859 -0.585938,0.5859 h -3.328124 c -0.324609,0 -0.585938,-0.2613 -0.585938,-0.5859 v -2.2032 c 0,-0.3246 0.261328,-0.5859 0.585938,-0.5859 z m 37.5,0 h 3.328124 c 0.32461,0 0.585938,0.2613 0.585938,0.5859 v 2.2032 c 0,0.3246 -0.261328,0.5859 -0.585938,0.5859 H 57.585938 C 57.26133,1066.8947 57,1066.6334 57,1066.3088 v -2.2032 c 0,-0.3246 0.261329,-0.5859 0.585938,-0.5859 z m -37.5,6.75 h 3.328124 c 0.32461,0 0.585938,0.2613 0.585938,0.5859 v 2.2032 c 0,0.3246 -0.261328,0.5859 -0.585938,0.5859 h -3.328124 c -0.324609,0 -0.585938,-0.2613 -0.585938,-0.5859 v -2.2032 c 0,-0.3246 0.261328,-0.5859 0.585938,-0.5859 z m 37.5,0 h 3.328124 c 0.32461,0 0.585938,0.2613 0.585938,0.5859 v 2.2032 c 0,0.3246 -0.261328,0.5859 -0.585938,0.5859 H 57.585938 C 57.26133,1073.6447 57,1073.3834 57,1073.0588 v -2.2032 c 0,-0.3246 0.261329,-0.5859 0.585938,-0.5859 z m -37.5,6.75 h 3.328124 c 0.32461,0 0.585938,0.2613 0.585938,0.5859 v 2.2032 c 0,0.3246 -0.261328,0.5859 -0.585938,0.5859 h -3.328124 c -0.324609,0 -0.585938,-0.2613 -0.585938,-0.5859 v -2.2032 c 0,-0.3246 0.261328,-0.5859 0.585938,-0.5859 z m 37.5,0 h 3.328124 c 0.32461,0 0.585938,0.2613 0.585938,0.5859 v 2.2032 c 0,0.3246 -0.261328,0.5859 -0.585938,0.5859 H 57.585938 C 57.26133,1080.3947 57,1080.1334 57,1079.8088 v -2.2032 c 0,-0.3246 0.261329,-0.5859 0.585938,-0.5859 z m -37.5,6.75 h 3.328124 c 0.32461,0 0.585938,0.2613 0.585938,0.5859 v 2.2032 c 0,0.3246 -0.261328,0.5859 -0.585938,0.5859 h -3.328124 c -0.324609,0 -0.585938,-0.2613 -0.585938,-0.5859 v -2.2032 c 0,-0.3246 0.261328,-0.5859 0.585938,-0.5859 z m 37.5,0 h 3.328124 c 0.32461,0 0.585938,0.2613 0.585938,0.5859 v 2.2032 c 0,0.3246 -0.261328,0.5859 -0.585938,0.5859 H 57.585938 C 57.26133,1087.1447 57,1086.8834 57,1086.5588 v -2.2032 c 0,-0.3246 0.261329,-0.5859 0.585938,-0.5859 z m -37.5,6.75 h 3.328124 c 0.32461,0 0.585938,0.2613 0.585938,0.5859 v 2.2032 c 0,0.3246 -0.261328,0.5859 -0.585938,0.5859 h -3.328124 c -0.324609,0 -0.585938,-0.2613 -0.585938,-0.5859 v -2.2032 c 0,-0.3246 0.261328,-0.5859 0.585938,-0.5859 z m 37.5,0 h 3.328124 c 0.32461,0 0.585938,0.2613 0.585938,0.5859 v 2.2032 c 0,0.3246 -0.261328,0.5859 -0.585938,0.5859 H 57.585938 C 57.26133,1093.8947 57,1093.6334 57,1093.3088 v -2.2032 c 0,-0.3246 0.261329,-0.5859 0.585938,-0.5859 z m -37.5,6.75 h 3.328124 c 0.32461,0 0.585938,0.2613 0.585938,0.5859 v 2.2032 c 0,0.3246 -0.261328,0.5859 -0.585938,0.5859 h -3.328124 c -0.324609,0 -0.585938,-0.2613 -0.585938,-0.5859 v -2.2032 c 0,-0.3246 0.261328,-0.5859 0.585938,-0.5859 z m 37.5,0 h 3.328124 c 0.32461,0 0.585938,0.2613 0.585938,0.5859 v 2.2032 c 0,0.3246 -0.261328,0.5859 -0.585938,0.5859 H 57.585938 C 57.26133,1100.6447 57,1100.3834 57,1100.0588 v -2.2032 c 0,-0.3246 0.261329,-0.5859 0.585938,-0.5859 z" opacity=".2"/>
        <path d="m 18,1058.6447 v 45 h 1.542969 c 0.08469,-0.2192 0.293308,-0.375 0.542969,-0.375 h 3.328124 c 0.249663,0 0.458277,0.1558 0.542969,0.375 H 25.5 h 30 1.542969 c 0.08469,-0.219 0.293307,-0.375 0.542969,-0.375 h 3.328124 c 0.24966,0 0.458278,0.156 0.542969,0.375 H 63 v -45 h -1.5 v 0.1641 c 0,0.3246 -0.261328,0.5859 -0.585938,0.5859 H 57.585938 C 57.26133,1059.3947 57,1059.1334 57,1058.8088 v -0.1641 H 55.5 25.5 24 v 0.1641 c 0,0.3246 -0.261329,0.5859 -0.585938,0.5859 h -3.328124 c -0.32461,0 -0.585938,-0.2613 -0.585938,-0.5859 v -0.1641 z m 2.085938,4.125 h 3.328124 c 0.324609,0 0.585938,0.2612 0.585938,0.5859 v 2.2032 c 0,0.3246 -0.261329,0.5859 -0.585938,0.5859 h -3.328124 c -0.32461,0 -0.585938,-0.2613 -0.585938,-0.5859 v -2.2032 c 0,-0.3247 0.261328,-0.5859 0.585938,-0.5859 z m 37.5,0 h 3.328124 c 0.32461,0 0.585938,0.2612 0.585938,0.5859 v 2.2032 c 0,0.3246 -0.261328,0.5859 -0.585938,0.5859 H 57.585938 C 57.26133,1066.1447 57,1065.8834 57,1065.5588 v -2.2032 c 0,-0.3247 0.261329,-0.5859 0.585938,-0.5859 z m -37.5,6.75 h 3.328124 c 0.324609,0 0.585938,0.2613 0.585938,0.5859 v 2.2032 c 0,0.3246 -0.261329,0.5859 -0.585938,0.5859 h -3.328124 c -0.32461,0 -0.585938,-0.2613 -0.585938,-0.5859 v -2.2032 c 0,-0.3246 0.261328,-0.5859 0.585938,-0.5859 z m 37.5,0 h 3.328124 c 0.32461,0 0.585938,0.2613 0.585938,0.5859 v 2.2032 c 0,0.3246 -0.261328,0.5859 -0.585938,0.5859 H 57.585938 C 57.26133,1072.8947 57,1072.6334 57,1072.3088 v -2.2032 c 0,-0.3246 0.261329,-0.5859 0.585938,-0.5859 z m -37.5,6.75 h 3.328124 c 0.324609,0 0.585938,0.2613 0.585938,0.5859 v 2.2032 c 0,0.3246 -0.261329,0.5859 -0.585938,0.5859 h -3.328124 c -0.32461,0 -0.585938,-0.2613 -0.585938,-0.5859 v -2.2032 c 0,-0.3246 0.261328,-0.5859 0.585938,-0.5859 z m 37.5,0 h 3.328124 c 0.32461,0 0.585938,0.2613 0.585938,0.5859 v 2.2032 c 0,0.3246 -0.261328,0.5859 -0.585938,0.5859 H 57.585938 C 57.26133,1079.6447 57,1079.3834 57,1079.0588 v -2.2032 c 0,-0.3246 0.261329,-0.5859 0.585938,-0.5859 z m -37.5,6.75 h 3.328124 c 0.324609,0 0.585938,0.2613 0.585938,0.5859 v 2.2032 c 0,0.3246 -0.261329,0.5859 -0.585938,0.5859 h -3.328124 c -0.32461,0 -0.585938,-0.2613 -0.585938,-0.5859 v -2.2032 c 0,-0.3246 0.261328,-0.5859 0.585938,-0.5859 z m 37.5,0 h 3.328124 c 0.32461,0 0.585938,0.2613 0.585938,0.5859 v 2.2032 c 0,0.3246 -0.261328,0.5859 -0.585938,0.5859 H 57.585938 C 57.26133,1086.3947 57,1086.1334 57,1085.8088 v -2.2032 c 0,-0.3246 0.261329,-0.5859 0.585938,-0.5859 z m -37.5,6.75 h 3.328124 c 0.324609,0 0.585938,0.2613 0.585938,0.5859 v 2.2032 c 0,0.3246 -0.261329,0.5859 -0.585938,0.5859 h -3.328124 c -0.32461,0 -0.585938,-0.2613 -0.585938,-0.5859 v -2.2032 c 0,-0.3246 0.261328,-0.5859 0.585938,-0.5859 z m 37.5,0 h 3.328124 c 0.32461,0 0.585938,0.2613 0.585938,0.5859 v 2.2032 c 0,0.3246 -0.261328,0.5859 -0.585938,0.5859 H 57.585938 C 57.26133,1093.1447 57,1092.8834 57,1092.5588 v -2.2032 c 0,-0.3246 0.261329,-0.5859 0.585938,-0.5859 z m -37.5,6.75 h 3.328124 c 0.324609,0 0.585938,0.2613 0.585938,0.5859 v 2.2032 c 0,0.3246 -0.261329,0.5859 -0.585938,0.5859 h -3.328124 c -0.32461,0 -0.585938,-0.2613 -0.585938,-0.5859 v -2.2032 c 0,-0.3246 0.261328,-0.5859 0.585938,-0.5859 z m 37.5,0 h 3.328124 c 0.32461,0 0.585938,0.2613 0.585938,0.5859 v 2.2032 c 0,0.3246 -0.261328,0.5859 -0.585938,0.5859 H 57.585938 C 57.26133,1099.8947 57,1099.6334 57,1099.3088 v -2.2032 c 0,-0.3246 0.261329,-0.5859 0.585938,-0.5859 z" fill="#061c2a"/>
        <rect ry="0" y="1094.27" x="27" height="20.25" width="27" opacity=".2"/>
        <rect ry="0" y="1071.77" x="27" height="20.25" width="27" opacity=".2"/>
        <rect ry="0" y="1049.27" x="27" height="20.25" width="27" opacity=".2"/>
        <rect ry="0" y="1048.52" x="27" height="20.25" width="27" fill="#173f4f"/>
        <rect ry="0" y="1071.02" x="27" height="20.25" width="27" fill="#73ba25"/>
        <rect ry="0" y="1093.52" x="27" height="20.25" width="27" fill="#173f4f"/>
        <path d="M40.5 1097.5197a6.5 6.5 0 00-6.5 6.5 6.5 6.5 0 006.5 6.5 6.5 6.5 0 006.5-6.5 6.5 6.5 0 00-6.5-6.5zm-1.875 3.5l5.25 3-5.25 3zM40.503718 1074.0284c-2.309168 0-4.488163 1.0692-5.907649 2.8896.915295.2443 1.563127.4545 1.757146.5196.003-.1185.02278-1.1831.02278-1.1831 0 0 .0024-.025.0156-.036.01666-.018.04096-.018.04096-.018.240737.036 5.379185.7961 7.545069 2.0574.267477.156.399503.3228.564469.4913.598714.6189 1.389824 3.1924 1.474792 3.723.0035.021-.02244.045-.03344.051h-.000249c-.0615.048-.128505.097-.195588.141-.512498.3438-1.693168 1.1697-3.207946 1.0348-1.360655-.12-3.138328-.9003-5.281378-2.3116.210708.493.418313.9877.62603 1.482.310351.1612 3.305866 1.6866 4.784288 1.6569 1.190774-.025 2.464326-.6053 2.973818-.9117 0 0 .111961-.067.16069-.03.05329.041.03922.1051.02593.1683-.03066.1456-.102705.4126-.151241.5394l-.04096.1035c-.05832.1558-.1143.3012-.222249.3907-.300137.2727-.779181.4896-1.529807.8159-1.16025.5071-3.04265.8298-4.790346.8185-.625965-.018-1.230718-.084-1.761752-.1455-1.089799-.123-1.976515-.2227-2.517206.1683 1.422306 1.6336 3.481658 2.573 5.648319 2.5766 4.144494 0 7.50424-3.358 7.504106-7.5002-.000087-4.1421-3.359768-7.4998-7.504106-7.4998zm1.673775 4.3518c-.587361-.02-1.147438.1882-1.576829.589-.429194.3993-.674804.9438-.696557 1.5303-.04057 1.2102.910119 2.2299 2.119968 2.2746.590028.019 1.14889-.1873 1.57828-.5904.428101-.3982.673713-.9427.696558-1.5292.04156-1.2093-.910269-2.2311-2.12142-2.2743zm-.01842.6471c.846425.03 1.50911.7408 1.480606 1.5864-.01305.4078-.185209.7858-.484242 1.0663-.29947.279-.690873.4242-1.101553.4118-.844462-.033-1.507172-.7425-1.478668-1.5885.01245-.4095.187969-.7875.485698-1.0665.297721-.2793.687256-.4242 1.098159-.4095zm.250846.7692c-.376081 0-.679833.2022-.679833.4539 0 .2493.303752.4527.679833.4527.375859 0 .680805-.2036.680805-.4527 0-.2517-.304735-.4539-.680805-.4539zM40.499843 1051.5415c-4.141837 0-7.499774 3.3579-7.499774 7.5002a7.5002298 7.5002298 0 00.490148 2.6583c.109875-.2877.235918-.5685.394772-.8322.08088-.135.169843-.2645.229204-.4089.05952-.1455.08698-.3086.04151-.4583-.02595-.086-.07478-.162-.127575-.2334-.05295-.072-.11094-.1395-.159161-.2145-.122685-.1902-.178998-.4245-.147105-.6486.03204-.2242.152905-.4363.335108-.5709.162365-.12.367458-.174.570109-.1663a1.0163079 1.0163079 0 01.199904.029c.261859.063.492894.2274.664262.4348.212419.258.337244.5843.367763.9168.03083.3327-.03051.6716-.159007.9798-.230425.5523-.665636.9983-.905216 1.5467-.195632.448-.251787.9477-.225084 1.436.0036.045.0098.09.0138.1365a7.5002298 7.5002298 0 002.093808 1.8399 10.198177 10.198177 0 01-.07446-1.2209c.001-.3247.01755-.6486.04883-.969-.19731-.1365-.376461-.2946-.503576-.4964-.226153-.3597-.26888-.8149-.175795-1.2295.09309-.4146.312828-.7923.576825-1.1252.435517-.5485 1.004405-.9924 1.640131-1.2864-.01832-.025-.03662-.051-.05188-.072-.234086-.3789-.372341-.8155-.405913-1.2597-.03419-.4492.03662-.8991.06638-1.3485.02136-.3135.02259-.6271.04089-.9408.02136-.3627.06561-.7258.1674-1.0746.03693-.126.08209-.2526.153819-.3631a.81029957.81029957 0 01.343805-.2982c.158246-.063.295738-.077.448642-.051.127875.027.246141.091.349756.1708.10377.08.193344.176.278036.2757a4.2216454 4.2216454 0 01.600322.935 2.0658824 2.0658824 0 01.63176 0 4.2152362 4.2152362 0 01.600628-.9351c.08454-.1005.174421-.1961.278036-.2759.10377-.08.221878-.144.349909-.1705a.73354237.73354237 0 01.451235.051.81121518.81121518 0 01.343804.2991c.07171.1095.116895.2359.15382.3624.101626.3487.145891.7119.167248 1.0743.01832.3138.01983.6283.04119.9415.02976.4496.101175.8988.06715 1.3479a2.8085806 2.8085806 0 01-.407134 1.26c-.01832.028-.04059.055-.05951.084.14253.1605.345941.2969.519446.3552a1.1313674 1.1313674 0 00.606427.024.95481061.95481061 0 00.30886-.1305.72484429.72484429 0 00.229661-.2418c.06867-.12.09614-.2593.111405-.3975.03891-.3522 0-.708-.029-1.0611-.01983-.2292-.03585-.4624.01555-.6867.0348-.1518.102855-.3003.216692-.4063a.63969412.63969412 0 01.268878-.147.75902635.75902635 0 01.306724-.016c.219743.033.425446.1578.548135.3426.06974.105.112156.2263.137641.3499.02533.123.03465.2495.04151.3753.0238.44.02289.8805.01065 1.3211-.0102.3846-.03204.7798-.185866 1.1323-.197767.4524-.596051.7902-1.026226 1.0328a4.0794233 4.0794233 0 01-.918035.3754c.278798.89.423919 1.8748.423919 2.8735a10.180933 10.180933 0 01-.07782 1.2297 7.4999253 7.4999253 0 003.69289-6.4517c-.000459-4.1424-3.358388-7.5002-7.500225-7.5002zm-2.097624 9.2453v.858a1.0875716 1.0875716 0 01.626723.2095 1.0053208 1.0053208 0 01.321679.3938c.07019.1564.09613.3331.06714.502a.86370916.86370916 0 01-.191969.4097.95267424.95267424 0 01-.367763.2649 1.005626 1.005626 0 01-.455813.071v2.1585l4.490373-2.4348-4.490526-2.4324z" fill="#fff"/>
        <text y="1080.215" x="84" style="line-height:1.25" font-weight="400" font-size="31.188" font-family="sans-serif" letter-spacing="0" word-spacing="0" stroke-width=".78">
            <tspan style="-inkscape-font-specification:'Open Sans Condensed, '" y="1080.215" x="84" font-family="Open Sans Condensed">Video</tspan>
        </text>
        <text y="1108.091" x="82.963" style="line-height:1.25" font-weight="400" font-size="35.768" font-family="sans-serif" letter-spacing="0" word-spacing="0" stroke-width=".894">
            <tspan style="-inkscape-font-specification:'Source Sans Pro Light'" y="1108.091" x="82.963" font-weight="300" font-family="Source Sans Pro">Team</tspan>
        </text>
    </g>
</svg>
