<?xml version="1.0" encoding="UTF-8" standalone="no"?>
<svg
   xmlns:dc="http://purl.org/dc/elements/1.1/"
   xmlns:cc="http://creativecommons.org/ns#"
   xmlns:rdf="http://www.w3.org/1999/02/22-rdf-syntax-ns#"
   xmlns:svg="http://www.w3.org/2000/svg"
   xmlns="http://www.w3.org/2000/svg"
   xmlns:sodipodi="http://sodipodi.sourceforge.net/DTD/sodipodi-0.dtd"
   xmlns:inkscape="http://www.inkscape.org/namespaces/inkscape"
   width="480"
   height="240"
   version="1.1"
   viewBox="0 0 480 240"
   id="svg85"
   sodipodi:docname="zypp_gray.svg"
   inkscape:export-filename="/home/lkocman/Pictures/zypp.png"
   inkscape:export-xdpi="300"
   inkscape:export-ydpi="300"
   inkscape:version="1.0.1 (3bc2e813f5, 2020-09-07)">
  <metadata
     id="metadata89">
    <rdf:RDF>
      <cc:Work
         rdf:about="">
        <dc:format>image/svg+xml</dc:format>
        <dc:type
           rdf:resource="http://purl.org/dc/dcmitype/StillImage" />
        <dc:title></dc:title>
      </cc:Work>
    </rdf:RDF>
  </metadata>
  <sodipodi:namedview
     pagecolor="#ffffff"
     bordercolor="#666666"
     borderopacity="1"
     objecttolerance="10"
     gridtolerance="10"
     guidetolerance="10"
     inkscape:pageopacity="0"
     inkscape:pageshadow="2"
     inkscape:window-width="1920"
     inkscape:window-height="1011"
     id="namedview87"
     showgrid="false"
     inkscape:zoom="0.91555597"
     inkscape:cx="247.31094"
     inkscape:cy="344.13688"
     inkscape:window-x="0"
     inkscape:window-y="0"
     inkscape:window-maximized="1"
     inkscape:current-layer="svg85" />
  <defs
     id="defs7">
    <linearGradient
       id="linearGradient1737"
       x1="240"
       x2="240"
       y2="240"
       gradientUnits="userSpaceOnUse">
      <stop
         stop-color="#73ba25"
         offset="0"
         id="stop2" />
      <stop
         stop-color="#35b9ab"
         offset="1"
         id="stop4" />
    </linearGradient>
  </defs>
  <rect
     width="480"
     height="240"
     fill="url(#linearGradient1737)"
     id="rect9"
     style="fill:#2f363d;fill-opacity:1" />
  <path
     d="m170.54 51.898-7.25 3.375 1.6875 3.625 7.2541-2.3784 4e-3 -0.99666zm32.977 4.4297-1.6875 3.625 7.8e-4 0.99718 7.2493 2.3778 1.6953-3.625zm-29.594 2.8203-7.25 3.375 1.6875 3.625 7.2501-2.3769-5e-5 -0.99811zm26.219 4.4297-1.6875 3.625-3e-3 0.99863 7.2531 2.3842 1.6875-3.6328zm-22.844 2.8203-7.25 3.3828 1.6875 3.625 7.2539-2.3833-4e-3 -0.99955zm19.461 4.4297-1.6875 3.625 9.5e-4 1.0001 7.2491 2.3828 1.6953-3.625zm-16.078 2.8203-7.25 3.3828 1.6875 3.625 7.25-2.3818 1e-4 -1.001zm12.703 4.4297-1.6875 3.625-3e-3 1.0015 7.2529 2.3813 1.6875-3.625zm-9.3282 2.8203-7.25 3.3829 1.6875 3.625 7.2538-2.3804-4e-3 -0.99464zm5.9454 4.4297-1.6875 3.6328 1e-3 0.99517 7.249 2.3798 1.6953-3.625zm-2.5625 2.8281-7.25 3.375 1.6875 3.625 7.2498-2.3789 2.6e-4 -0.99609z"
     fill="#77767b"
     id="path11" />
  <path
     d="m42.938 56.781v24.922h48.282l-49.453 70.235v19.063h88.985v-24.922h-50.703l49.453-70.313v-18.984zm91.797 0 37.578 70.547v43.672h31.094v-44.61l37.578-69.61h-33.438l-19.688 42.344-19.531-42.344zm170.86 24.141c-9.948 0-17.787 4.2709-23.516 12.813h-1.4063l-4.2969-11.25h-24.844v126.95h30.547v-35.547c0-1.5104-0.46875-5.3646-1.4062-11.563h1.4062c3.3854 3.75 6.823 6.4063 10.313 7.9688 3.5417 1.5104 7.6303 2.2656 12.266 2.2656 6.6146 0 12.344-1.849 17.188-5.5469 4.8438-3.6979 8.5678-9.0105 11.172-15.938 2.6562-6.9271 3.9844-15.104 3.9844-24.531 0-9.375-1.25-17.5-3.75-24.375-2.5-6.875-6.1198-12.135-10.859-15.781-4.6875-3.6458-10.287-5.4688-16.797-5.4688zm102.89 0c-9.948 0-17.787 4.2709-23.516 12.813h-1.4063l-4.2969-11.25h-24.844v126.95h30.547v-35.547c0-1.5104-0.46875-5.3646-1.4063-11.563h1.4063c3.3854 3.75 6.823 6.4063 10.313 7.9688 3.5417 1.5104 7.6303 2.2656 12.266 2.2656 6.6146 0 12.344-1.849 17.188-5.5469 4.8438-3.6979 8.5678-9.0105 11.172-15.938 2.6562-6.9271 3.9844-15.104 3.9844-24.531 0-9.375-1.25-17.5-3.75-24.375-2.5-6.875-6.1198-12.135-10.859-15.781-4.6875-3.6458-10.287-5.4688-16.797-5.4688zm-114.06 23.985c2.7604 0 4.974 0.72917 6.6407 2.1875 1.6667 1.4063 2.8906 3.6719 3.6719 6.7969 0.78125 3.125 1.1719 7.2396 1.1719 12.344 0 7.7084-0.88542 13.255-2.6563 16.641s-4.6094 5.0782-8.5157 5.0782c-4.375 0-7.5782-1.6927-9.6094-5.0782-2.0313-3.4375-3.0469-8.9324-3.0469-16.484v-2.4219c0.15624-6.5625 1.1719-11.38 3.0469-14.453s4.974-4.6094 9.2969-4.6094zm102.89 0c2.7604 0 4.974 0.72917 6.6407 2.1875 1.6667 1.4063 2.8906 3.6719 3.6719 6.7969 0.78125 3.125 1.1719 7.2396 1.1719 12.344 0 7.7084-0.88543 13.255-2.6563 16.641-1.7708 3.3854-4.6094 5.0782-8.5157 5.0782-4.375 0-7.5782-1.6927-9.6094-5.0782-2.0312-3.4375-3.0469-8.9324-3.0469-16.484v-2.4219c0.15624-6.5625 1.1719-11.38 3.0469-14.453 1.875-3.0729 4.974-4.6094 9.2969-4.6094z"
     id="path13"
     style="fill:#ffffff" />
  <g
     fill="#9a9996"
     id="g59">
    <rect
       x="181.94"
       y="99.031"
       width="8"
       height="4"
       id="rect15" />
    <rect
       x="185.94"
       y="103.03"
       width="8"
       height="4"
       id="rect17" />
    <rect
       x="181.94"
       y="107.03"
       width="8"
       height="4"
       id="rect19" />
    <rect
       x="185.94"
       y="111.03"
       width="8"
       height="4"
       id="rect21" />
    <rect
       x="181.94"
       y="115.03"
       width="8"
       height="4"
       id="rect23" />
    <rect
       x="185.94"
       y="119.03"
       width="8"
       height="4"
       id="rect25" />
    <rect
       x="181.94"
       y="123.03"
       width="8"
       height="4"
       id="rect27" />
    <rect
       x="185.94"
       y="127.03"
       width="8"
       height="4"
       id="rect29" />
    <rect
       x="181.94"
       y="131.03"
       width="8"
       height="4"
       id="rect31" />
    <rect
       x="185.94"
       y="135.03"
       width="8"
       height="4"
       id="rect33" />
    <rect
       x="181.94"
       y="139.03"
       width="8"
       height="4"
       id="rect35" />
    <rect
       x="185.94"
       y="143.03"
       width="8"
       height="4"
       id="rect37" />
    <rect
       transform="rotate(-24.983)"
       x="124.24"
       y="119.97"
       width="8"
       height="4"
       id="rect39" />
    <rect
       transform="rotate(-24.983)"
       x="124.24"
       y="127.97"
       width="8"
       height="4"
       id="rect41" />
    <rect
       transform="rotate(-24.983)"
       x="124.24"
       y="135.97"
       width="8"
       height="4"
       id="rect43" />
    <rect
       transform="rotate(-24.983)"
       x="124.24"
       y="143.97"
       width="8"
       height="4"
       id="rect45" />
    <rect
       transform="rotate(-24.983)"
       x="124.24"
       y="151.97"
       width="8"
       height="4"
       id="rect47" />
    <rect
       transform="matrix(-.90643 -.42235 -.42235 .90643 0 0)"
       x="-216.69"
       y="-33.997"
       width="8"
       height="4"
       id="rect49" />
    <rect
       transform="matrix(-.90643 -.42235 -.42235 .90643 0 0)"
       x="-216.69"
       y="-25.997"
       width="8"
       height="4"
       id="rect51" />
    <rect
       transform="matrix(-.90643 -.42235 -.42235 .90643 0 0)"
       x="-216.69"
       y="-17.997"
       width="8"
       height="4"
       id="rect53" />
    <rect
       transform="matrix(-.90643 -.42235 -.42235 .90643 0 0)"
       x="-216.69"
       y="-9.9967"
       width="8"
       height="4"
       id="rect55" />
    <rect
       transform="matrix(-.90643 -.42235 -.42235 .90643 0 0)"
       x="-216.69"
       y="6.0033"
       width="8"
       height="4"
       id="rect57" />
  </g>
  <rect
     x="179.95"
     y="91.032"
     width="16"
     height="20"
     rx="4"
     fill="#77767b"
     id="rect61" />
  <rect
     x="179.95"
     y="92.232"
     width="16"
     height="20"
     rx="4"
     fill="#5e5c64"
     id="rect63" />
  <rect
     transform="rotate(-24.983)"
     x="124.24"
     y="159.97"
     width="8"
     height="4"
     fill="#9a9996"
     id="rect65" />
  <rect
     x="179.95"
     y="93.432"
     width="16"
     height="20"
     rx="4"
     fill="#77767b"
     id="rect67" />
  <rect
     transform="matrix(-.90643 -.42235 -.42235 .90643 0 0)"
     x="-216.69"
     y="-1.9967"
     width="8"
     height="4"
     fill="#9a9996"
     id="rect69" />
  <rect
     x="179.95"
     y="95.031"
     width="16"
     height="20"
     rx="4"
     fill="#9a9996"
     id="rect71" />
  <path
     d="m185.95 102a4.6121 4.6121 0 0 0-4.5703 3.961l-2.875 20.133a3.422 3.422 0 0 0 3.3906 3.9063h12.109a3.422 3.422 0 0 0 3.3828-3.9063l-2.8828-20.188a4.5493 4.5493 0 0 0-4.5-3.9063zm2 4a4 4 0 0 1 4 4 4 4 0 0 1-4 4 4 4 0 0 1-4-4 4 4 0 0 1 4-4z"
     fill="#3d3846"
     id="path73" />
  <path
     d="m185.95 103a4.6121 4.6121 0 0 0-4.5703 3.961l-2.875 20.133a3.422 3.422 0 0 0 3.3906 3.9063h12.109a3.422 3.422 0 0 0 3.3828-3.9063l-2.8828-20.188a4.5493 4.5493 0 0 0-4.5-3.9063zm2 4a4 4 0 0 1 4 4 4 4 0 0 1-4 4 4 4 0 0 1-4-4 4 4 0 0 1 4-4z"
     fill="#5e5c64"
     id="path75" />
  <path
     d="m187.95 119a4 4 45 0 1 4 4 4 4 135 0 1-4 4 4 4 45 0 1-4-4 4 4 135 0 1 4-4z"
     fill="#deddda"
     id="path77" />
  <rect
     x="185.95"
     y="99"
     width="4"
     height="12"
     rx="0"
     ry="0"
     fill="#9a9996"
     id="rect79" />
  <rect
     x="185.95"
     y="107"
     width="4"
     height="4"
     fill="#77767b"
     id="rect81" />
  <rect
     x="185.95"
     y="99"
     width="4"
     height="4"
     rx="0"
     fill="#c0bfbc"
     id="rect83" />
</svg>
