<?xml version="1.0" encoding="UTF-8" standalone="no"?>
<!-- Created with Inkscape (http://www.inkscape.org/) -->

<svg
   xmlns:dc="http://purl.org/dc/elements/1.1/"
   xmlns:cc="http://creativecommons.org/ns#"
   xmlns:rdf="http://www.w3.org/1999/02/22-rdf-syntax-ns#"
   xmlns:svg="http://www.w3.org/2000/svg"
   xmlns="http://www.w3.org/2000/svg"
   xmlns:sodipodi="http://sodipodi.sourceforge.net/DTD/sodipodi-0.dtd"
   xmlns:inkscape="http://www.inkscape.org/namespaces/inkscape"
   width="200"
   height="200"
   id="svg4589"
   sodipodi:version="0.32"
   inkscape:version="0.48.1 r9760"
   version="1.0"
   sodipodi:docname="geeko-button.svg"
   inkscape:output_extension="org.inkscape.output.svg.inkscape"
   inkscape:export-filename="/home/pab/src/projects/opensuse.org/artwork/google+/geeko+.png"
   inkscape:export-xdpi="180"
   inkscape:export-ydpi="180">
  <defs
     id="defs4591" />
  <sodipodi:namedview
     id="base"
     pagecolor="#ffffff"
     bordercolor="#d8d8d8"
     borderopacity="1"
     gridtolerance="10000"
     guidetolerance="10"
     objecttolerance="10"
     inkscape:pageopacity="1"
     inkscape:pageshadow="2"
     inkscape:zoom="1"
     inkscape:cx="114.73894"
     inkscape:cy="96.56131"
     inkscape:document-units="px"
     inkscape:current-layer="layer1"
     width="200px"
     height="200px"
     borderlayer="true"
     inkscape:showpageshadow="false"
     inkscape:window-width="913"
     inkscape:window-height="981"
     inkscape:window-x="1512"
     inkscape:window-y="0"
     showgrid="false"
     inkscape:window-maximized="0" />
  <metadata
     id="metadata4594">
    <rdf:RDF>
      <cc:Work
         rdf:about="">
        <dc:format>image/svg+xml</dc:format>
        <dc:type
           rdf:resource="http://purl.org/dc/dcmitype/StillImage" />
        <dc:title></dc:title>
      </cc:Work>
    </rdf:RDF>
  </metadata>
  <g
     inkscape:groupmode="layer"
     id="layer2"
     inkscape:label="Layer" />
  <g
     inkscape:label="Layer 1"
     inkscape:groupmode="layer"
     id="layer1">
    <path
       style="font-size:20.48839951px;fill:#2e3436;fill-opacity:1;fill-rule:evenodd;stroke:none;stroke-miterlimit:4;font-family:TrebuchetMS-Bold"
       d="M 100 30.15625 C 62.561336 30.15625 32.011753 59.619106 30.25 96.625 L 39.625 96.625 L 39.625 73.84375 L 48.375 73.84375 L 48.375 96.625 L 71.03125 96.625 L 71.03125 105.40625 L 48.375 105.40625 L 48.375 127.96875 L 39.625 127.96875 L 39.625 105.40625 L 30.40625 105.40625 C 33.165912 141.45415 63.248245 169.84375 100 169.84375 C 138.57068 169.84375 169.84374 138.57424 169.84375 100 C 169.84375 61.42576 138.57068 30.15625 100 30.15625 z M 30.40625 105.40625 C 30.269668 103.62216 30.15625 101.81909 30.15625 100 C 30.15625 98.86788 30.196731 97.74393 30.25 96.625 L 16.96875 96.625 L 16.96875 105.40625 L 30.40625 105.40625 z M 98.1875 39.84375 C 98.889458 39.825553 99.622637 39.84375 100.34375 39.84375 C 133.57727 39.84375 160.53125 66.770045 160.53125 100 C 160.53125 133.23353 133.57371 160.15625 100.34375 160.15625 C 82.398929 160.15625 66.273242 152.30188 55.25 139.84375 C 59.782491 136.326 67.379614 137.18542 76.71875 138.25 C 81.194275 138.75915 86.296548 139.35126 91.5625 139.46875 C 106.27439 139.5542 122.10504 136.86276 131.875 132.59375 C 138.19129 129.82369 142.22206 127.98757 144.75 125.6875 C 145.66149 124.9398 146.13721 123.70227 146.625 122.40625 L 146.96875 121.53125 C 147.37821 120.48447 147.98653 118.22836 148.25 117 C 148.3675 116.46236 148.41222 115.89284 148.03125 115.59375 L 146.65625 115.84375 C 142.36943 118.41441 131.65843 123.30061 121.625 123.5 C 109.19181 123.75991 84.144646 111.00567 81.53125 109.65625 L 81.28125 109.34375 C 80.654606 107.84834 76.887734 98.935316 76.09375 97.0625 C 94.131139 108.94027 109.10132 115.5094 120.5625 116.53125 C 133.30546 117.66349 143.24879 110.723 147.5 107.75 C 148.3296 107.18388 148.95883 106.72113 149.21875 106.625 L 149.5 106.1875 C 148.79502 101.70841 142.09702 80.017923 137.0625 74.8125 C 135.66679 73.384748 134.56629 72.011997 132.3125 70.6875 C 114.08997 60.066586 70.807161 53.670518 68.78125 53.375 L 68.46875 53.46875 L 68.34375 53.75 C 68.34375 53.75 68.174052 62.721818 68.15625 63.71875 C 66.671528 63.227406 62.062758 61.714973 55.46875 59.90625 C 63.803616 49.593089 76.426807 40.407845 98.1875 39.84375 z M 116.21875 71.6875 C 116.5258 71.682892 116.84715 71.677263 117.15625 71.6875 C 127.36414 72.054229 135.38016 80.642979 135.03125 90.84375 C 134.84966 95.778575 132.79071 100.35053 129.1875 103.71875 C 125.5736 107.10477 120.86955 108.84772 115.90625 108.6875 C 105.71615 108.30653 97.700126 99.717784 98.03125 89.53125 C 98.205714 84.589302 100.28168 80.01378 103.90625 76.65625 C 107.29093 73.481859 111.61305 71.756619 116.21875 71.6875 z M 115.75 77.125 C 112.77707 77.305743 109.97762 78.503203 107.78125 80.5625 C 105.27824 82.912415 103.79787 86.115959 103.6875 89.5625 C 103.45251 96.683459 109.01116 102.67402 116.125 102.9375 C 119.58222 103.04431 122.88187 101.84279 125.40625 99.5 C 127.92351 97.139401 129.36194 93.901052 129.46875 90.46875 C 129.7073 83.337107 124.1174 77.374234 117 77.125 C 116.56918 77.108978 116.17471 77.09918 115.75 77.125 z M 119.125 83.59375 C 122.28671 83.59375 124.84376 85.291326 124.84375 87.40625 C 124.84375 89.510498 122.28671 91.249998 119.125 91.25 C 115.95261 91.25 113.40625 89.506931 113.40625 87.40625 C 113.40625 85.291328 115.95261 83.593752 119.125 83.59375 z "
       id="path2445" />
  </g>
</svg>
